<!-- Created with Inkscape (http://www.inkscape.org/) -->
<svg xmlns="http://www.w3.org/2000/svg" viewBox="0 0 128 128">
 <g transform="translate(0,-924.3622)">
  <path d="m 12.13 944.36 c -2.259 0.222 -4.162 2.356 -4.125 4.625 l 0 78.75 c -0.028 2.429 2.196 4.653 4.625 4.625 l 102.75 0 c 2.429 0.028 4.653 -2.196 4.625 -4.625 l 0 -70.75 c 0.028 -2.429 -2.196 -4.653 -4.625 -4.625 l -39.37 0 0 -3.375 c 0.028 -2.388 -2.113 -4.587 -4.5 -4.625 l -58.875 0 c -0.166 0 -0.333 0 -0.5 0 z m 67.37 24 c 6.556 0 11.937 5.465 11.937 12.188 0 4.995 -3.043 9.287 -7.25 11.187 -0.045 0.02 -0.08 0.076 -0.125 0.124 l -6.25 11.438 -0.125 0 c 1.117 1.479 1.812 3.309 1.812 5.312 0 4.808 -3.813 8.688 -8.5 8.688 -4.604 0 -8.439 -3.799 -8.562 -8.5 l -11.875 -5.5 c -1.422 1.089 -3.227 1.812 -5.125 1.812 -4.68 0 -8.562 -4 -8.562 -8.812 0 -4.802 3.884 -8.75 8.562 -8.75 4.687 0 8.5 3.95 8.5 8.75 l 11.812 5.437 c 1.015 -0.812 2.262 -1.472 3.562 -1.75 l 0 -13.187 c -1.056 -1.826 -1.75 -3.992 -1.75 -6.25 0 -6.73 5.373 -12.188 11.937 -12.188 z m 0 4.063 c -4.416 0 -7.875 3.603 -7.875 8.125 0 4.53 3.459 8.125 7.875 8.125 4.408 0 7.875 -3.595 7.875 -8.125 0 -4.522 -3.465 -8.125 -7.875 -8.125 z m 0 2.937 c 2.828 0 5.125 2.285 5.125 5.188 0 2.896 -2.297 5.187 -5.125 5.187 -2.82 0 -5.125 -2.294 -5.125 -5.187 0 -2.905 2.305 -5.188 5.125 -5.188 z m -34.06 15.688 c -3.409 0 -5.125 1.755 -5.125 5.25 0 3.503 1.716 5.312 5.125 5.312 0.427 0 0.751 -0.064 1.125 -0.124 l -2.187 -1.125 c -1.934 -0.835 -2.883 -3.141 -2.062 -5.125 0.82 -1.987 3.066 -2.844 5 -2 l 3 1.375 c -0.505 -2.346 -2.076 -3.562 -4.875 -3.562 z m 25.562 11.687 c -0.751 0 -1.472 0.168 -2.125 0.438 l 3.687 1.687 c 1.934 0.835 2.883 3.142 2.062 5.125 -0.82 1.992 -3.066 2.968 -5 2.125 l -4.062 -1.812 c 0.708 2.38 2.875 4.062 5.437 4.062 3.155 0 5.625 -2.516 5.625 -5.75 0 -3.235 -2.47 -5.875 -5.625 -5.875 z" style="visibility:visible;fill:#42a5f5;fill-opacity:1;stroke:none;display:inline;color:#000;fill-rule:nonzero"/>
 </g>
</svg>
