<!-- Created with Inkscape (http://www.inkscape.org/) -->
<svg xmlns="http://www.w3.org/2000/svg" viewBox="0 0 128 128">
 <g transform="translate(0,-924.3622)">
  <path d="m 12.13 944.36 c -2.259 0.222 -4.162 2.356 -4.125 4.625 l 0 78.75 c -0.028 2.429 2.196 4.653 4.625 4.625 l 102.75 0 c 2.429 0.028 4.653 -2.196 4.625 -4.625 l 0 -70.75 c 0.028 -2.429 -2.196 -4.653 -4.625 -4.625 l -39.37 0 0 -3.375 c 0.028 -2.388 -2.113 -4.587 -4.5 -4.625 l -58.875 0 c -0.166 0 -0.334 0 -0.5 0 z m 73.875 20 c 3.314 0 6 2.686 6 6 0 3.314 -2.686 6 -6 6 -3.314 0 -6 -2.686 -6 -6 0 -3.314 2.686 -6 6 -6 z m -22 4 c 4.605 0 8.909 1.314 12.562 3.563 -0.339 0.751 -0.562 1.56 -0.562 2.437 0 3.314 2.686 6 6 6 0.878 0 1.686 -0.224 2.437 -0.562 1.915 3.111 3.113 6.723 3.437 10.562 l -8 0 c -0.988 -7.889 -7.718 -14 -15.875 -14 -2.34 0 -4.559 0.535 -6.562 1.438 l -5.937 -5.938 c 3.64 -2.235 7.916 -3.5 12.5 -3.5 z m -15.687 5.938 5.625 5.625 c -3.618 2.933 -5.937 7.417 -5.937 12.437 0 5.441 2.725 10.234 6.875 13.12 l -5.75 5.75 c -4.216 -3.334 -7.255 -8.09 -8.5 -13.5 1.991 -0.976 3.375 -3.01 3.375 -5.375 0 -2.367 -1.384 -4.399 -3.375 -5.375 1.156 -5.02 3.93 -9.411 7.687 -12.687 z m -16.312 12.06 c 3.314 0 6 2.686 6 6 0 3.314 -2.686 6 -6 6 -3.314 0 -6 -2.686 -6 -6 0 -3.314 2.686 -6 6 -6 z m 47.875 8 8 0 c -0.431 5.225 -2.509 9.946 -5.75 13.688 -1.077 -1.03 -2.517 -1.688 -4.125 -1.688 -3.314 0 -6 2.686 -6 6 0 0.878 0.224 1.686 0.562 2.438 -2.666 1.021 -5.537 1.562 -8.562 1.562 -4.152 0 -8.03 -1.078 -11.437 -2.937 l 6.06 -6.06 c 1.684 0.603 3.483 1 5.375 1 8.157 0 14.887 -6.111 15.875 -14 z m 2.125 16 c 3.314 0 6 2.686 6 6 0 3.314 -2.686 6 -6 6 -3.314 0 -6 -2.686 -6 -6 0 -3.314 2.686 -6 6 -6 z" style="visibility:visible;fill:#42a5f5;fill-opacity:1;stroke:none;display:inline;color:#000;fill-rule:nonzero"/>
 </g>
</svg>
