<svg xmlns="http://www.w3.org/2000/svg" viewBox="0 0 128 128">
 <g transform="translate(0,-924.3622)">
  <path d="m 12.13 944.36 c -2.259 0.222 -4.162 2.356 -4.125 4.625 l 0 78.75 c -0.028 2.429 2.196 4.653 4.625 4.625 l 102.75 0 c 2.429 0.028 4.653 -2.196 4.625 -4.625 l 0 -70.75 c 0.028 -2.429 -2.196 -4.653 -4.625 -4.625 l -39.37 0 0 -3.375 c 0.028 -2.388 -2.113 -4.587 -4.5 -4.625 l -58.875 0 c -0.166 0 -0.333 0 -0.5 0 z m 43.875 24 24 0 c 4.432 0 8 3.495 8 7.813 0.003 0.064 0 0.124 0 0.188 l 0 0.188 0 31.812 c 0 4.418 -3.582 8 -8 8 -4.418 0 -8 -3.582 -8 -8 0 -4.418 3.582 -8 8 -8 l 0 -16 -24 0 0 24 c 0 0.319 -0.089 0.628 -0.125 0.938 -0.467 3.973 -3.776 7.06 -7.875 7.06 -4.418 0 -8 -3.582 -8 -8 0 -4.418 3.582 -8 8 -8 l 0 -22 c 0 -0.325 0.055 -0.635 0.125 -0.937 -0.034 -0.294 -0.125 -0.572 -0.125 -0.875 l 0 -0.375 c 0 -4.318 3.568 -7.813 8 -7.813 z" style="visibility:visible;fill:replacecolour1;fill-opacity:1;stroke:none;display:inline;color:#000;fill-rule:nonzero"/>
 </g>
</svg>
