<svg xmlns="http://www.w3.org/2000/svg" viewBox="0 0 128 128">
 <g transform="translate(0,-924.3622)">
  <path d="m 12.13 944.36 c -2.259 0.222 -4.162 2.356 -4.125 4.625 l 0 78.75 c -0.028 2.429 2.196 4.653 4.625 4.625 l 102.75 0 c 2.429 0.028 4.653 -2.196 4.625 -4.625 l 0 -70.75 c 0.028 -2.429 -2.196 -4.653 -4.625 -4.625 l -39.37 0 0 -3.375 c 0.028 -2.388 -2.113 -4.587 -4.5 -4.625 l -58.875 0 c -0.166 0 -0.333 0 -0.5 0 z m 35.875 24 32 0 c 2.849 0 4 1.341 4 4 l 0 40 c 0 2.659 -2.276 4 -5.125 4 l -30.875 0 c -2.849 0 -4 -1.341 -4 -4 l 0 -40 c 0 -2.659 1.151 -4 4 -4 z m 3 4 c -1.657 0 -3 1.343 -3 3 0 1.657 1.343 3 3 3 1.657 0 3 -1.343 3 -3 0 -1.657 -1.343 -3 -3 -3 z m 26 0 c -1.657 0 -3 1.343 -3 3 0 1.657 1.343 3 3 3 1.657 0 3 -1.343 3 -3 0 -1.657 -1.343 -3 -3 -3 z m -13 4 c -4.418 0 -8 3.582 -8 8 0 4.418 3.582 8 8 8 4.418 0 8 -3.582 8 -8 0 -4.418 -3.582 -8 -8 -8 z m 0 4 c 2.209 0 4 1.791 4 4 0 2.209 -1.791 4 -4 4 -2.209 0 -4 -1.791 -4 -4 0 -2.209 1.791 -4 4 -4 z m -13 10 c -1.657 0 -3 1.343 -3 3 0 1.657 1.343 3 3 3 1.657 0 3 -1.343 3 -3 0 -1.657 -1.343 -3 -3 -3 z m 26 0 c -1.657 0 -3 1.343 -3 3 0 1.657 1.343 3 3 3 1.657 0 3 -1.343 3 -3 0 -1.657 -1.343 -3 -3 -3 z m -27 18 c -1.108 0 -2 0.892 -2 2 0 1.108 0.892 2 2 2 l 28 0 c 1.108 0 2 -0.892 2 -2 0 -1.108 -0.892 -2 -2 -2 l -28 0 z" style="visibility:visible;fill:#c4905e;fill-opacity:1;stroke:none;display:inline;color:#000;fill-rule:nonzero"/>
 </g>
</svg>
