<svg xmlns="http://www.w3.org/2000/svg" viewBox="0 0 128 128">
 <g transform="translate(0,-924.3622)">
  <path d="m 12.13 944.36 c -2.259 0.222 -4.162 2.356 -4.125 4.625 l 0 78.75 c -0.028 2.429 2.196 4.653 4.625 4.625 l 102.75 0 c 2.429 0.028 4.653 -2.196 4.625 -4.625 l 0 -70.75 c 0.028 -2.429 -2.196 -4.653 -4.625 -4.625 l -39.37 0 0 -3.375 c 0.028 -2.388 -2.113 -4.587 -4.5 -4.625 l -58.875 0 c -0.166 0 -0.333 0 -0.5 0 z m 51.875 22 c 2.216 0 4 1.784 4 4 l 0 20 8 0 c 4 0 4 0 0 4 l -8 8 c -4 4 -4 4 -8 0 l -8 -8 c -4 -4 -4 -4 0 -4 l 8 0 0 -20 c 0 -2.216 1.784 -4 4 -4 z m -24.12 28 0.25 0 c 2.137 0 3.875 1.784 3.875 4 l 0 12 40 0 0 -12 c 0 -2.216 1.738 -4 3.875 -4 l 0.25 0 c 2.137 0 3.875 1.784 3.875 4 l 0 15.812 0 0.375 c -0.009 0.211 -0.023 0.424 -0.063 0.625 -0.007 0.042 0.009 0.084 0 0.124 -0.05 0.219 -0.167 0.421 -0.25 0.625 -0.101 0.249 -0.224 0.467 -0.375 0.687 -0.01 0.02 0.011 0.048 0 0.062 -0.114 0.17 -0.238 0.288 -0.375 0.437 -0.02 0.02 -0.042 0.042 -0.063 0.062 -0.011 0.02 -0.052 -0.02 -0.063 0 -0.011 0.02 0.011 0.052 0 0.062 -0.157 0.156 -0.319 0.311 -0.5 0.438 -0.025 0.02 -0.038 0.046 -0.063 0.062 -0.089 0.06 -0.219 0.074 -0.312 0.124 -0.576 0.305 -1.23 0.5 -1.937 0.5 l -0.125 0 -47.75 0 -0.125 0 c -0.042 0 -0.083 0 -0.125 0 -0.226 0 -0.472 -0.024 -0.687 -0.062 -0.039 0 -0.086 0 -0.125 0 -0.231 -0.048 -0.411 -0.16 -0.625 -0.25 -0.018 0 -0.045 0 -0.063 0 -0.107 -0.048 -0.21 -0.132 -0.312 -0.188 -0.127 -0.068 -0.257 -0.108 -0.375 -0.188 -0.181 -0.126 -0.343 -0.282 -0.5 -0.438 -0.021 -0.02 -0.042 -0.042 -0.063 -0.062 -0.021 -0.022 -0.042 -0.04 -0.063 -0.062 -0.145 -0.15 -0.257 -0.328 -0.375 -0.5 -0.151 -0.22 -0.274 -0.438 -0.375 -0.687 -0.083 -0.204 -0.2 -0.406 -0.25 -0.625 -0.009 -0.042 0.007 -0.084 0 -0.124 -0.039 -0.201 -0.053 -0.414 -0.063 -0.625 l 0 -0.188 0 -0.188 0 -15.812 c 0 -2.216 1.738 -4 3.875 -4 z" style="visibility:visible;fill:#c4905e;fill-opacity:1;stroke:none;display:inline;color:#000;fill-rule:nonzero"/>
 </g>
</svg>
