<svg xmlns="http://www.w3.org/2000/svg" viewBox="0 0 128 128">
 <g transform="translate(0,-924.3622)">
  <path d="m 12.13 944.36 c -2.259 0.222 -4.162 2.356 -4.125 4.625 l 0 78.75 c -0.028 2.429 2.196 4.653 4.625 4.625 l 102.75 0 c 2.429 0.028 4.653 -2.196 4.625 -4.625 l 0 -70.75 c 0.028 -2.429 -2.196 -4.653 -4.625 -4.625 l -39.37 0 0 -3.375 c 0.028 -2.388 -2.113 -4.587 -4.5 -4.625 l -58.875 0 c -0.166 0 -0.333 0 -0.5 0 z m 23.875 20 8.187 8.188 c 5.066 -5.078 12.07 -8.188 19.812 -8.188 15.464 0 28 12.536 28 28 0 15.464 -12.536 28 -28 28 -15.464 0 -28 -12.536 -28 -28 0 -0.672 0.016 -1.34 0.063 -2 l 6.06 0 c -0.06 0.66 -0.125 1.325 -0.125 2 0 12.15 9.85 22 22 22 12.15 0 22 -9.85 22 -22 0 -12.15 -9.85 -22 -22 -22 -6.075 0 -11.577 2.458 -15.562 6.438 l 7.562 7.562 -20 0 0 -20 z m 27.625 9.875 a 4 4 0 0 1 4.375 4.125 l 0 13.625 8.375 4.875 a 4.03 4.03 0 1 1 -4 7 l -9.875 -5.75 a 4 4 0 0 1 -0.5 -0.25 4 4 0 0 1 -0.25 -0.124 4 4 0 0 1 -0.125 -0.124 4 4 0 0 1 -0.125 -0.124 4 4 0 0 1 -0.25 -0.124 4 4 0 0 1 -0.125 -0.124 4 4 0 0 1 -0.125 -0.124 4 4 0 0 1 -0.125 -0.124 4 4 0 0 1 -0.125 -0.124 4 4 0 0 1 -0.125 -0.25 4 4 0 0 1 -0.125 -0.124 4 4 0 0 1 -0.5 -3 4 4 0 0 1 0 -0.375 l 0 -14.75 a 4 4 0 0 1 3.125 -4 4 4 0 0 1 0.5 -0.124 z" style="visibility:visible;fill:#f57c00;fill-opacity:1;stroke:none;display:inline;color:#000;fill-rule:nonzero"/>
 </g>
</svg>
