<svg xmlns="http://www.w3.org/2000/svg" viewBox="0 0 128 128">
 <g transform="translate(0,-924.3622)">
  <path d="m 12.13 944.36 c -2.259 0.222 -4.162 2.356 -4.125 4.625 l 0 78.75 c -0.028 2.429 2.196 4.653 4.625 4.625 l 102.75 0 c 2.429 0.028 4.653 -2.196 4.625 -4.625 l 0 -70.75 c 0.028 -2.429 -2.196 -4.653 -4.625 -4.625 l -39.37 0 0 -3.375 c 0.028 -2.388 -2.113 -4.587 -4.5 -4.625 l -58.875 0 c -0.166 0 -0.333 0 -0.5 0 z m 51.875 21 c 1 0 2 1 4 3 l 8 8 0 -4 c 0 -2.216 0 -4 4 -4 4 0 4 1.784 4 4 l 0 12 c 9.153 8 12 8 0 8 l 0 20 c 0 4.432 -3.568 8 -8 8 l -6 0 0 -20 -12 0 0 20 -6 0 c -4.432 0 -8 -3.568 -8 -8 l 0 -20 c -12 0 -8.814 0 0 -8 l 16 -16 c 2 -2 3 -3 4 -3 z" style="visibility:visible;fill:#f06292;fill-opacity:1;stroke:none;display:inline;color:#000;fill-rule:nonzero"/>
 </g>
</svg>
