<svg xmlns="http://www.w3.org/2000/svg" viewBox="0 0 128 128">
 <g transform="translate(0,-924.3622)">
  <path d="m 12.13 944.36 c -2.259 0.222 -4.162 2.356 -4.125 4.625 l 0 78.75 c -0.028 2.429 2.196 4.653 4.625 4.625 l 102.75 0 c 2.429 0.028 4.653 -2.196 4.625 -4.625 l 0 -70.75 c 0.028 -2.429 -2.196 -4.653 -4.625 -4.625 l -39.37 0 0 -3.375 c 0.028 -2.388 -2.113 -4.587 -4.5 -4.625 l -58.875 0 c -0.166 0 -0.333 0 -0.5 0 z m 33.875 24 36 0 c 3.324 0 6 2.676 6 6 l 0 36 c 0 3.324 -2.676 6 -6 6 l -36 0 c -3.324 0 -6 -2.676 -6 -6 l 0 -36 c 0 -3.324 2.676 -6 6 -6 z m 0 6 0 6 6 0 0 -6 -6 0 z m 30 0 0 6 6 0 0 -6 -6 0 z m -30 15 0 6 6 0 0 -6 -6 0 z m 30 0 0 6 6 0 0 -6 -6 0 z m -30 15 0 6 6 0 0 -6 -6 0 z m 30 0 0 6 6 0 0 -6 -6 0 z" style="visibility:visible;fill:#7e57c2;fill-opacity:1;stroke:none;display:inline;color:#000;fill-rule:nonzero"/>
 </g>
</svg>
