<?xml version="1.0" encoding="UTF-8" standalone="no"?>
<!-- Created with Inkscape (http://www.inkscape.org/) -->

<svg
   xmlns:dc="http://purl.org/dc/elements/1.1/"
   xmlns:cc="http://creativecommons.org/ns#"
   xmlns:rdf="http://www.w3.org/1999/02/22-rdf-syntax-ns#"
   xmlns:svg="http://www.w3.org/2000/svg"
   xmlns="http://www.w3.org/2000/svg"
   xmlns:xlink="http://www.w3.org/1999/xlink"
   xmlns:sodipodi="http://sodipodi.sourceforge.net/DTD/sodipodi-0.dtd"
   xmlns:inkscape="http://www.inkscape.org/namespaces/inkscape"
   width="22"
   height="22"
   id="svg2"
   version="1.1"
   inkscape:version="0.48.5 r10040"
   sodipodi:docname="folder-steam.svg"
   inkscape:export-filename="/media/Data/Main/Visuals/Icons/Numix/Desktop/repos/numix-wiki/Gjorgi/Numix-folders/48/New/folder-144.png"
   inkscape:export-xdpi="270"
   inkscape:export-ydpi="270">
  <defs
     id="defs4">
    <radialGradient
       inkscape:collect="always"
       xlink:href="#linearGradient3760"
       id="radialGradient3766"
       cx="11"
       cy="19"
       fx="11"
       fy="19"
       r="11"
       gradientTransform="matrix(1,0,0,0.09090909,0,17.272727)"
       gradientUnits="userSpaceOnUse" />
    <linearGradient
       inkscape:collect="always"
       id="linearGradient3760">
      <stop
         style="stop-color:#000000;stop-opacity:1;"
         offset="0"
         id="stop3762" />
      <stop
         style="stop-color:#000000;stop-opacity:0;"
         offset="1"
         id="stop3764" />
    </linearGradient>
    <radialGradient
       r="11"
       fy="19"
       fx="11"
       cy="19"
       cx="11"
       gradientTransform="matrix(1,0,0,0.09090909,0,17.272727)"
       gradientUnits="userSpaceOnUse"
       id="radialGradient3783"
       xlink:href="#linearGradient3760"
       inkscape:collect="always" />
  </defs>
  <sodipodi:namedview
     id="base"
     pagecolor="#ffffff"
     bordercolor="#666666"
     borderopacity="1.0"
     inkscape:pageopacity="0.0"
     inkscape:pageshadow="2"
     inkscape:zoom="22.603171"
     inkscape:cx="9.8118951"
     inkscape:cy="11.377482"
     inkscape:document-units="px"
     inkscape:current-layer="layer1"
     showgrid="true"
     inkscape:window-width="1280"
     inkscape:window-height="998"
     inkscape:window-x="0"
     inkscape:window-y="0"
     inkscape:window-maximized="1"
     showguides="true"
     inkscape:guide-bbox="true">
    <inkscape:grid
       type="xygrid"
       id="grid2985"
       empspacing="5"
       visible="true"
       enabled="true"
       snapvisiblegridlinesonly="true" />
  </sodipodi:namedview>
  <metadata
     id="metadata7">
    <rdf:RDF>
      <cc:Work
         rdf:about="">
        <dc:format>image/svg+xml</dc:format>
        <dc:type
           rdf:resource="http://purl.org/dc/dcmitype/StillImage" />
        <dc:title />
      </cc:Work>
    </rdf:RDF>
  </metadata>
  <g
     inkscape:label="Layer 1"
     inkscape:groupmode="layer"
     id="layer1"
     transform="translate(0,-1030.3622)">
    <path
       style="font-size:medium;font-style:normal;font-variant:normal;font-weight:normal;font-stretch:normal;text-indent:0;text-align:start;text-decoration:none;line-height:normal;letter-spacing:normal;word-spacing:normal;text-transform:none;direction:ltr;block-progression:tb;writing-mode:lr-tb;text-anchor:start;baseline-shift:baseline;color:#000000;fill:#bdbdbd;fill-opacity:1;fill-rule:nonzero;stroke:none;stroke-width:1.52408636;marker:none;visibility:visible;display:inline;overflow:visible;enable-background:accumulate;font-family:Sans;-inkscape-font-specification:Sans"
       d="M 1.625 3 C 1.2775698 3.063 0.99985296 3.3968 1 3.75 L 1 18.25 C 1.00617 18.641 1.3590206 18.9938 1.75 19 L 20.25 19 C 20.640979 18.99 20.99383 18.641 21 18.25 L 21 5.8125 C 20.9938 5.4215 20.640979 5.0062 20.25 5 L 13 5 L 13 3.75 C 12.9938 3.359 12.640979 3.0062 12.25 3 L 1.625 3 z M 14.3125 6.84375 C 15.794815 6.84375 17 8.03625 17 9.46875 C 17 10.53325 16.326211 11.43875 15.375 11.84375 C 15.36492 11.84775 15.35389 11.865 15.34375 11.875 L 13.9375 14.3125 L 13.90625 14.3125 C 14.158916 14.6277 14.3125 15.0106 14.3125 15.4375 C 14.3125 16.4621 13.434677 17.28125 12.375 17.28125 C 11.334075 17.28125 10.49656 16.47045 10.46875 15.46875 L 7.75 14.3125 C 7.4284449 14.5446 7.0229192 14.6875 6.59375 14.6875 C 5.5354958 14.6875 4.6875 13.8371 4.6875 12.8125 C 4.6875 11.7893 5.5359701 10.9375 6.59375 10.9375 C 7.6534272 10.9375 8.53125 11.7898 8.53125 12.8125 L 11.21875 13.96875 C 11.448152 13.79575 11.706047 13.65275 12 13.59375 L 12 10.78125 C 11.761348 10.39235 11.625 9.95005 11.625 9.46875 C 11.625 8.03485 12.828288 6.84375 14.3125 6.84375 z M 14.3125 7.71875 C 13.314013 7.71875 12.53125 8.50535 12.53125 9.46875 C 12.53125 10.43405 13.314013 11.1875 14.3125 11.1875 C 15.30909 11.1875 16.09375 10.43405 16.09375 9.46875 C 16.09375 8.50535 15.309564 7.71875 14.3125 7.71875 z M 14.3125 8.34375 C 14.951912 8.34375 15.46875 8.85015 15.46875 9.46875 C 15.46875 10.08585 14.951912 10.5625 14.3125 10.5625 C 13.674986 10.5625 13.15625 10.08535 13.15625 9.46875 C 13.15625 8.84975 13.674986 8.34375 14.3125 8.34375 z M 6.59375 11.6875 C 5.8229463 11.6875 5.4375 12.0677 5.4375 12.8125 C 5.4375 13.5591 5.8229463 13.9375 6.59375 13.9375 C 6.6902783 13.9375 6.790551 13.91825 6.875 13.90625 L 6.375 13.6875 C 5.9376578 13.5096 5.7207827 13.01645 5.90625 12.59375 C 6.0917172 12.17015 6.5939079 11.97645 7.03125 12.15625 L 7.71875 12.4375 C 7.6045514 11.9378 7.2266831 11.6875 6.59375 11.6875 z M 12.375 14.1875 C 12.205281 14.1875 12.05394 14.22425 11.90625 14.28125 L 12.75 14.625 C 13.187342 14.8029 13.404217 15.29615 13.21875 15.71875 C 13.033283 16.14355 12.499842 16.3672 12.0625 16.1875 L 11.15625 15.78125 C 11.31634 16.28835 11.795673 16.65625 12.375 16.65625 C 13.088407 16.65625 13.65625 16.1267 13.65625 15.4375 C 13.65625 14.7483 13.088407 14.1875 12.375 14.1875 z "
       transform="translate(0,1030.3622)"
       id="path3912" />
  </g>
</svg>
