<svg xmlns="http://www.w3.org/2000/svg" viewBox="0 0 128 128">
 <path d="m 12 24 104 0 0 40 -104 0 z m 0 0" style="fill:#1976d2;fill-opacity:1;stroke:none;fill-rule:nonzero"/>
 <path d="m 24 24 c 0 -4 0 -8 5.816 -8 l 20.367 0 c 5.816 0 5.816 4 5.816 8 l 0 4 -32 0 z m 0 0" style="fill:#1976d2;fill-opacity:1;stroke:none;fill-rule:nonzero"/>
 <path d="m 20 32 88 0 0 32 -88 0 z m 0 0" style="fill:#94979e;fill-opacity:1;stroke:none;fill-rule:nonzero"/>
 <path d="m 28 28 76 0 0 52 -76 0 z m 0 0" style="fill:#d7d7d9;fill-opacity:1;stroke:none;fill-rule:nonzero"/>
 <path d="m 24 36 76 0 0 52 -76 0 z m 0 0" style="fill:#f8f8f8;fill-opacity:1;stroke:none;fill-rule:nonzero"/>
 <path d="m 28 40 68 0 0 4 -68 0 z m 0 0" style="fill:#ccc;fill-opacity:1;stroke:none;fill-rule:nonzero"/>
 <path d="m 4 56 120 0 -8.57 56 -102.86 0 z m 0 0" style="fill:#42a5f5;fill-opacity:1;stroke:none;fill-rule:nonzero"/>
 <path d="m 28 48 68 0 0 4 -68 0 z m 0 0" style="fill:#ccc;fill-opacity:1;stroke:none;fill-rule:nonzero"/>
 <path d="m 116.06 91.59 c 0.188 9.324 -4.73 18.02 -12.867 22.738 -8.125 4.719 -18.2 4.719 -26.332 0 -8.137 -4.719 -13.05 -13.414 -12.855 -22.738 -0.195 -9.332 4.719 -18.03 12.855 -22.75 8.137 -4.719 18.207 -4.719 26.332 0 8.137 4.719 13.05 13.418 12.867 22.75 z m 0 0" style="fill:#859900;fill-opacity:1;stroke:none;fill-rule:evenodd"/>
 <path d="m 104.27 75.06 c -0.551 0.199 -1.02 0.574 -1.332 1.063 l -14.187 13.863 -8.855 -8.531 c -0.355 -1.176 -1.469 -1.969 -2.707 -1.906 -1.23 0.074 -2.25 0.98 -2.48 2.188 -0.219 1.219 0.426 2.43 1.563 2.918 l 10.668 10.668 c 1.02 0.957 2.602 0.957 3.625 0 l 16 -16 c 0.625 -0.824 0.707 -1.949 0.219 -2.867 -0.492 -0.914 -1.48 -1.457 -2.512 -1.395 z m 0 0" style="fill:#fff;fill-opacity:1;stroke:none;fill-rule:nonzero"/>
</svg>
