<svg xmlns="http://www.w3.org/2000/svg" viewBox="0 0 128 128">
 <path d="m 8 52 84 0 0 36 -84 0 z m 0 0" style="fill:#ea9036;fill-opacity:1;stroke:none;fill-rule:nonzero"/>
 <path d="m 16 56 c 0 -4 0 -8 5.09 -8 l 17.82 0 c 5.09 0 5.09 4 5.09 8 z m 0 0" style="fill:#ea9036;fill-opacity:1;stroke:none;fill-rule:nonzero"/>
 <path d="m 12 56 76 0 0 16.18 -76 0 z m 0 0" style="fill:#94979e;fill-opacity:1;stroke:none;fill-rule:nonzero"/>
 <path d="m 20 60 64 0 0 45.33 -64 0 z m 0 0" style="fill:#d7d7d9;fill-opacity:1;stroke:none;fill-rule:nonzero"/>
 <path d="m 16 64 64 0 0 46.22 -64 0 z m 0 0" style="fill:#f8f8f8;fill-opacity:1;stroke:none;fill-rule:nonzero"/>
 <path d="m 0 68 100 0 -8 52 -84 0 z m 0 0" style="fill:#f2bb64;fill-opacity:1;stroke:none;fill-rule:nonzero"/>
 <path d="m 18.668 56 c 0 -4 0 -8 4.848 -8 l 16.969 0 c 4.848 0 4.848 4 4.848 8 z m 0 0" style="fill:#ea9036;fill-opacity:1;stroke:none;fill-rule:nonzero"/>
 <path d="m 36 12 84 0 0 36 -84 0 z m 0 0" style="fill:#ea9036;fill-opacity:1;stroke:none;fill-rule:nonzero"/>
 <path d="m 21.13 48 c -3.309 0 -4.469 1.719 -4.875 4 l -8.25 0 l 0 16 -8 0 8 52 84 0 8 -52 -8 0 0 -16 -46.875 0 c -0.387 -2.281 -1.477 -4 -4.625 -4 z m 0 0" style="fill:#000;fill-opacity:0.102;stroke:none;fill-rule:nonzero"/>
 <path d="m 44 16 c 0 -4 0 -8 5.09 -8 l 17.82 0 c 5.09 0 5.09 4 5.09 8 z m 0 0" style="fill:#ea9036;fill-opacity:1;stroke:none;fill-rule:nonzero"/>
 <path d="m 40 16 76 0 0 16.18 -76 0 z m 0 0" style="fill:#94979e;fill-opacity:1;stroke:none;fill-rule:nonzero"/>
 <path d="m 48 20 64 0 0 45.33 -64 0 z m 0 0" style="fill:#d7d7d9;fill-opacity:1;stroke:none;fill-rule:nonzero"/>
 <path d="m 44 24 64 0 0 46.22 -64 0 z m 0 0" style="fill:#f8f8f8;fill-opacity:1;stroke:none;fill-rule:nonzero"/>
 <path d="m 28 28 100 0 -8 52 -84 0 z m 0 0" style="fill:#f2bb64;fill-opacity:1;stroke:none;fill-rule:nonzero"/>
 <path d="m 120 84 -20 0 0 -20 -20 0 0 20 -20 0 0 20 20 0 0 20 20 0 0 -20 20 0 z m 0 0" style="fill:#859900;fill-opacity:1;stroke:none;fill-rule:nonzero"/>
</svg>
