<?xml version="1.0" encoding="UTF-8" standalone="no"?>
<!-- Created with Inkscape (http://www.inkscape.org/) -->

<svg
   xmlns:dc="http://purl.org/dc/elements/1.1/"
   xmlns:cc="http://creativecommons.org/ns#"
   xmlns:rdf="http://www.w3.org/1999/02/22-rdf-syntax-ns#"
   xmlns:svg="http://www.w3.org/2000/svg"
   xmlns="http://www.w3.org/2000/svg"
   xmlns:xlink="http://www.w3.org/1999/xlink"
   xmlns:sodipodi="http://sodipodi.sourceforge.net/DTD/sodipodi-0.dtd"
   xmlns:inkscape="http://www.inkscape.org/namespaces/inkscape"
   width="24"
   height="24"
   id="svg2"
   version="1.1"
   inkscape:version="0.48.5 r10040"
   sodipodi:docname="folder-ubuntu.svg">
  <defs
     id="defs4">
    <linearGradient
       id="linearGradient3855">
      <stop
         style="stop-color:#000000;stop-opacity:1;"
         offset="0"
         id="stop3857" />
      <stop
         style="stop-color:#000000;stop-opacity:0.29411766;"
         offset="1"
         id="stop3859" />
    </linearGradient>
    <linearGradient
       id="linearGradient3833">
      <stop
         id="stop3835"
         offset="0"
         style="stop-color:#fdfeff;stop-opacity:1;" />
      <stop
         id="stop3837"
         offset="1"
         style="stop-color:#dfe4e4;stop-opacity:1;" />
    </linearGradient>
    <linearGradient
       id="linearGradient3823">
      <stop
         style="stop-color:#49b7ef;stop-opacity:1;"
         offset="0"
         id="stop3825" />
      <stop
         style="stop-color:#1d8de2;stop-opacity:1;"
         offset="1"
         id="stop3827" />
    </linearGradient>
    <linearGradient
       id="linearGradient3956">
      <stop
         style="stop-color:#f8f4e1;stop-opacity:1;"
         offset="0"
         id="stop3958" />
      <stop
         style="stop-color:#eae5c8;stop-opacity:1;"
         offset="1"
         id="stop3960" />
    </linearGradient>
    <linearGradient
       id="linearGradient3915">
      <stop
         style="stop-color:#f8f4e1;stop-opacity:1;"
         offset="0"
         id="stop3917" />
      <stop
         style="stop-color:#ad9e57;stop-opacity:1;"
         offset="1"
         id="stop3919" />
    </linearGradient>
    <linearGradient
       inkscape:collect="always"
       id="linearGradient3861">
      <stop
         style="stop-color:#000000;stop-opacity:1;"
         offset="0"
         id="stop3863" />
      <stop
         style="stop-color:#000000;stop-opacity:0;"
         offset="1"
         id="stop3865" />
    </linearGradient>
    <linearGradient
       id="linearGradient3844">
      <stop
         style="stop-color:#000000;stop-opacity:0.39215687;"
         offset="0"
         id="stop3846" />
      <stop
         style="stop-color:#000000;stop-opacity:0;"
         offset="1"
         id="stop3848" />
    </linearGradient>
    <linearGradient
       id="linearGradient3810">
      <stop
         style="stop-color:#f2c66f;stop-opacity:1;"
         offset="0"
         id="stop3812" />
      <stop
         style="stop-color:#fbd68f;stop-opacity:1;"
         offset="1"
         id="stop3814" />
    </linearGradient>
    <linearGradient
       inkscape:collect="always"
       xlink:href="#linearGradient3810"
       id="linearGradient3816"
       x1="24"
       y1="1046.3622"
       x2="24"
       y2="1014.3622"
       gradientUnits="userSpaceOnUse" />
    <radialGradient
       inkscape:collect="always"
       xlink:href="#linearGradient3844"
       id="radialGradient3850"
       cx="24.075672"
       cy="41.38316"
       fx="24.075672"
       fy="41.38316"
       r="21.075672"
       gradientTransform="matrix(1,0,0,0.11307633,0,36.703704)"
       gradientUnits="userSpaceOnUse" />
    <linearGradient
       inkscape:collect="always"
       xlink:href="#linearGradient3810"
       id="linearGradient3856"
       gradientUnits="userSpaceOnUse"
       x1="24"
       y1="1046.3622"
       x2="24"
       y2="1014.3622"
       gradientTransform="translate(0,-3)" />
    <linearGradient
       inkscape:collect="always"
       xlink:href="#linearGradient3810"
       id="linearGradient3858"
       gradientUnits="userSpaceOnUse"
       x1="24"
       y1="1046.3622"
       x2="24"
       y2="1014.3622"
       gradientTransform="translate(0,-1004.3622)" />
    <linearGradient
       inkscape:collect="always"
       xlink:href="#linearGradient3861"
       id="linearGradient3867"
       x1="1.9952807"
       y1="28.5625"
       x2="46.004719"
       y2="28.5625"
       gradientUnits="userSpaceOnUse" />
    <linearGradient
       inkscape:collect="always"
       xlink:href="#linearGradient3915"
       id="linearGradient3921"
       x1="35"
       y1="8"
       x2="38"
       y2="5"
       gradientUnits="userSpaceOnUse" />
    <linearGradient
       inkscape:collect="always"
       xlink:href="#linearGradient3915"
       id="linearGradient3933"
       gradientUnits="userSpaceOnUse"
       x1="35"
       y1="8"
       x2="38"
       y2="5"
       gradientTransform="matrix(1.0436562,0,0,1.2222222,26.301501,1003.2511)" />
    <linearGradient
       inkscape:collect="always"
       xlink:href="#linearGradient3915"
       id="linearGradient3954"
       x1="35"
       y1="11"
       x2="44"
       y2="5"
       gradientUnits="userSpaceOnUse"
       gradientTransform="translate(22,1004.3622)" />
    <linearGradient
       inkscape:collect="always"
       xlink:href="#linearGradient3823"
       id="linearGradient3829"
       x1="21"
       y1="14"
       x2="20"
       y2="24"
       gradientUnits="userSpaceOnUse" />
    <linearGradient
       inkscape:collect="always"
       xlink:href="#linearGradient3833"
       id="linearGradient3839"
       gradientUnits="userSpaceOnUse"
       x1="21"
       y1="14"
       x2="20"
       y2="26" />
    <linearGradient
       inkscape:collect="always"
       xlink:href="#linearGradient3855"
       id="linearGradient3862"
       x1="22"
       y1="15"
       x2="20"
       y2="30"
       gradientUnits="userSpaceOnUse" />
    <radialGradient
       r="24"
       fy="40.5"
       fx="24"
       cy="40.5"
       cx="24"
       gradientTransform="matrix(1.25,0,0,0.20833327,-6,1035.9247)"
       gradientUnits="userSpaceOnUse"
       id="radialGradient3102"
       xlink:href="#linearGradient3886"
       inkscape:collect="always" />
    <linearGradient
       id="linearGradient3886">
      <stop
         style="stop-color:#000000;stop-opacity:1;"
         offset="0"
         id="stop3888" />
      <stop
         style="stop-color:#000000;stop-opacity:0.19607843;"
         offset="1"
         id="stop3890" />
    </linearGradient>
    <radialGradient
       r="24"
       fy="40.5"
       fx="24"
       cy="40.5"
       cx="24"
       gradientTransform="matrix(1.25,0,0,0.20833327,-6,1035.9247)"
       gradientUnits="userSpaceOnUse"
       id="radialGradient3150"
       xlink:href="#linearGradient3886"
       inkscape:collect="always" />
    <radialGradient
       inkscape:collect="always"
       xlink:href="#linearGradient3886"
       id="radialGradient3533"
       gradientUnits="userSpaceOnUse"
       gradientTransform="matrix(1.25,0,0,0.20833327,-6,1035.9247)"
       cx="24"
       cy="40.5"
       fx="24"
       fy="40.5"
       r="24" />
    <radialGradient
       inkscape:collect="always"
       xlink:href="#linearGradient3886"
       id="radialGradient3543"
       gradientUnits="userSpaceOnUse"
       gradientTransform="matrix(0.625,0,0,0.10416663,-3,1044.1434)"
       cx="24"
       cy="40.5"
       fx="24"
       fy="40.5"
       r="24" />
    <radialGradient
       inkscape:collect="always"
       xlink:href="#linearGradient3886-9"
       id="radialGradient3011"
       gradientUnits="userSpaceOnUse"
       gradientTransform="matrix(0.625,0,0,0.10416663,-3,1044.1435)"
       cx="24"
       cy="40.5"
       fx="24"
       fy="40.5"
       r="24" />
    <linearGradient
       id="linearGradient3886-9">
      <stop
         style="stop-color:#000000;stop-opacity:1;"
         offset="0"
         id="stop3888-1" />
      <stop
         style="stop-color:#000000;stop-opacity:0.19607843;"
         offset="1"
         id="stop3890-9" />
    </linearGradient>
    <radialGradient
       r="24"
       fy="40.5"
       fx="24"
       cy="40.5"
       cx="24"
       gradientTransform="matrix(0.625,0,0,0.10416663,-3,1044.1435)"
       gradientUnits="userSpaceOnUse"
       id="radialGradient3053"
       xlink:href="#linearGradient3886-9"
       inkscape:collect="always" />
  </defs>
  <sodipodi:namedview
     id="base"
     pagecolor="#ffffff"
     bordercolor="#666666"
     borderopacity="1.0"
     inkscape:pageopacity="0.0"
     inkscape:pageshadow="2"
     inkscape:zoom="24.92945"
     inkscape:cx="12.856447"
     inkscape:cy="12.740489"
     inkscape:document-units="px"
     inkscape:current-layer="layer1"
     showgrid="true"
     inkscape:window-width="1280"
     inkscape:window-height="998"
     inkscape:window-x="0"
     inkscape:window-y="0"
     inkscape:window-maximized="1">
    <inkscape:grid
       type="xygrid"
       id="grid2990"
       empspacing="5"
       visible="true"
       enabled="true"
       snapvisiblegridlinesonly="true" />
  </sodipodi:namedview>
  <metadata
     id="metadata7">
    <rdf:RDF>
      <cc:Work
         rdf:about="">
        <dc:format>image/svg+xml</dc:format>
        <dc:type
           rdf:resource="http://purl.org/dc/dcmitype/StillImage" />
        <dc:title />
      </cc:Work>
    </rdf:RDF>
  </metadata>
  <g
     inkscape:label="Body"
     inkscape:groupmode="layer"
     id="layer1"
     transform="translate(0,-1028.3622)">
    <path
       inkscape:connector-curvature="0"
       style="opacity:0.1;fill:url(#radialGradient3053);fill-opacity:1;stroke:none"
       d="m 12,1045.8622 c -4.9132745,0 -9.2639851,0.3915 -12,1 l 0,3 c 2.7360149,0.6085 7.0867255,1 12,1 4.913274,0 9.263985,-0.3915 12,-1 l 0,-3 c -2.736015,-0.6085 -7.086726,-1 -12,-1 z"
       id="path3868" />
    <rect
       style="fill:#512da8;fill-opacity:1;stroke:none"
       id="rect2987"
       width="22"
       height="16.00001"
       x="1"
       y="1033.3622"
       rx="2.3913043"
       ry="2.5" />
    <path
       style="opacity:0.2;fill:#ffffff;fill-opacity:1;stroke:none"
       d="M 3.3913043,1033.3622 C 2.0665217,1033.3622 1,1034.4772 1,1035.8622 l 0,1 c 0,-1.385 1.0665217,-2.5 2.3913043,-2.5 l 17.2173917,0 c 1.324782,0 2.391304,1.115 2.391304,2.5 l 0,-1 c 0,-1.385 -1.066522,-2.5 -2.391304,-2.5 l -17.2173917,0 z"
       id="rect3797"
       inkscape:connector-curvature="0" />
    <path
       style="fill:#7e57c2;fill-opacity:1;stroke:none"
       d="m 3.3913043,1037.3622 3.826087,0 c 5.2608697,-0.5 4.3043477,-6 7.6521737,-6 l 5.739131,0 c 1.324782,0 2.391304,1.115 2.391304,2.5 l 0,13 c 0,1.385 -1.066522,2.5 -2.391304,2.5 l -17.2173917,0 C 2.0665217,1049.3622 1,1048.2472 1,1046.8622 l 0,-7 c 0,-1.5 0.9565217,-2.5 2.3913043,-2.5 z"
       id="rect3776"
       inkscape:connector-curvature="0"
       sodipodi:nodetypes="cccsssssscc" />
    <path
       style="opacity:0.15;fill:#000000;fill-opacity:1;stroke:none"
       d="m 1,1045.8622 0,1 c 0,1.385 1.0665217,2.5 2.3913043,2.5 l 17.2173917,0 c 1.324782,0 2.391304,-1.115 2.391304,-2.5 l 0,-1 c 0,1.385 -1.066522,2.5 -2.391304,2.5 l -17.2173917,0 C 2.0665217,1048.3622 1,1047.2472 1,1045.8622 z"
       id="path3786"
       inkscape:connector-curvature="0" />
    <path
       inkscape:connector-curvature="0"
       style="line-height:normal;color:#000000;fill:#000000;fill-opacity:0.09803922"
       d="M 3.6560856,1043.2154 C 3.2936662,1043.2154 3,1043.505 3,1043.8623 c 0,0.3572 0.2936662,0.6468 0.6560856,0.6468 0.3622804,0 0.6559813,-0.2896 0.6559813,-0.6468 0,-0.3573 -0.2936658,-0.6469 -0.6559813,-0.6469 z m 4.6843391,2.94 c -0.3138107,0.1786 -0.4212223,0.574 -0.2401336,0.8833 0.1811922,0.3094 0.5822351,0.4153 0.8960458,0.2368 0.3137062,-0.1787 0.4211873,-0.5741 0.2400295,-0.8834 -0.1811227,-0.3093 -0.5822355,-0.4153 -0.8959417,-0.2367 z m -3.2592777,-2.2932 c 0,-0.6393 0.3222004,-1.204 0.8149147,-1.5458 l -0.4796434,-0.7922 c -0.5741576,0.3782 -1.0012388,0.9564 -1.1786519,1.6336 0.2072307,0.1665 0.3396403,0.4202 0.3396403,0.7045 0,0.2842 -0.1324096,0.5378 -0.3396754,0.7043 0.1773789,0.6773 0.6044951,1.2555 1.178653,1.6337 l 0.4796774,-0.7922 c -0.4927143,-0.3419 -0.8149147,-0.9065 -0.8149147,-1.5459 z m 1.916457,-1.8895 c 1.0012038,0 1.8224636,0.7568 1.908553,1.7219 l 0.935016,-0.014 c -0.046011,-0.7125 -0.3616914,-1.3524 -0.8468469,-1.8227 -0.2494257,0.093 -0.5375789,0.079 -0.7866233,-0.063 -0.2493563,-0.1419 -0.4058279,-0.3813 -0.4486817,-0.6412 -0.2424216,-0.066 -0.4975683,-0.1022 -0.7613821,-0.1022 -0.4537091,0 -0.8823507,0.105 -1.2631112,0.291 l 0.4557893,0.8053 c 0.2453692,-0.1125 0.5187865,-0.1757 0.8072869,-0.1757 z m 0,3.7791 c -0.2885348,0 -0.5619177,-0.063 -0.8073219,-0.1758 l -0.4558582,0.8054 c 0.3807949,0.1859 0.8094711,0.2909 1.2631801,0.2909 0.2638143,0 0.5189605,-0.036 0.7614171,-0.1022 0.042853,-0.2598 0.1993599,-0.4992 0.4487511,-0.6413 0.2490445,-0.1417 0.5371976,-0.1558 0.7866234,-0.063 0.485121,-0.4703 0.8008035,-1.1102 0.8467429,-1.8227 l -0.9350165,-0.014 c -0.086019,0.9652 -0.9073142,1.7219 -1.908518,1.7219 z m 1.3427167,-4.1828 c 0.3137757,0.1787 0.714888,0.073 0.8959758,-0.2366 0.1811927,-0.3094 0.073781,-0.7048 -0.2400291,-0.8834 -0.3137412,-0.1786 -0.714819,-0.073 -0.8960112,0.2368 -0.1811228,0.3092 -0.073642,0.7047 0.2400645,0.8832 z"
       id="path3044" />
    <path
       id="path3872"
       d="M 3.6560856,1042.2154 C 3.2936662,1042.2154 3,1042.505 3,1042.8623 c 0,0.3572 0.2936662,0.6468 0.6560856,0.6468 0.3622804,0 0.6559813,-0.2896 0.6559813,-0.6468 0,-0.3573 -0.2936658,-0.6469 -0.6559813,-0.6469 z m 4.6843391,2.94 c -0.3138107,0.1786 -0.4212223,0.574 -0.2401336,0.8833 0.1811922,0.3094 0.5822351,0.4153 0.8960458,0.2368 0.3137062,-0.1787 0.4211873,-0.5741 0.2400295,-0.8834 -0.1811227,-0.3093 -0.5822355,-0.4153 -0.8959417,-0.2367 z m -3.2592777,-2.2932 c 0,-0.6393 0.3222004,-1.204 0.8149147,-1.5458 l -0.4796434,-0.7922 c -0.5741576,0.3782 -1.0012388,0.9564 -1.1786519,1.6336 0.2072307,0.1665 0.3396403,0.4202 0.3396403,0.7045 0,0.2842 -0.1324096,0.5378 -0.3396754,0.7043 0.1773789,0.6773 0.6044951,1.2555 1.178653,1.6337 l 0.4796774,-0.7922 c -0.4927143,-0.3419 -0.8149147,-0.9065 -0.8149147,-1.5459 z m 1.916457,-1.8895 c 1.0012038,0 1.8224636,0.7568 1.908553,1.7219 l 0.935016,-0.014 c -0.046011,-0.7125 -0.3616914,-1.3524 -0.8468469,-1.8227 -0.2494257,0.093 -0.5375789,0.079 -0.7866233,-0.063 -0.2493563,-0.1419 -0.4058279,-0.3813 -0.4486817,-0.6412 -0.2424216,-0.066 -0.4975683,-0.1022 -0.7613821,-0.1022 -0.4537091,0 -0.8823507,0.105 -1.2631112,0.291 l 0.4557893,0.8053 c 0.2453692,-0.1125 0.5187865,-0.1757 0.8072869,-0.1757 z m 0,3.7791 c -0.2885348,0 -0.5619177,-0.063 -0.8073219,-0.1758 l -0.4558582,0.8054 c 0.3807949,0.1859 0.8094711,0.2909 1.2631801,0.2909 0.2638143,0 0.5189605,-0.036 0.7614171,-0.1022 0.042853,-0.2598 0.1993599,-0.4992 0.4487511,-0.6413 0.2490445,-0.1417 0.5371976,-0.1558 0.7866234,-0.063 0.485121,-0.4703 0.8008035,-1.1102 0.8467429,-1.8227 l -0.9350165,-0.014 c -0.086019,0.9652 -0.9073142,1.7219 -1.908518,1.7219 z m 1.3427167,-4.1828 c 0.3137757,0.1787 0.714888,0.073 0.8959758,-0.2366 0.1811927,-0.3094 0.073781,-0.7048 -0.2400291,-0.8834 -0.3137412,-0.1786 -0.714819,-0.073 -0.8960112,0.2368 -0.1811228,0.3092 -0.073642,0.7047 0.2400645,0.8832 z"
       style="line-height:normal;color:#000000;fill:#fff8e1;fill-opacity:1"
       inkscape:connector-curvature="0" />
  </g>
</svg>
