<?xml version="1.0" encoding="UTF-8" standalone="no"?>
<!-- Created with Inkscape (http://www.inkscape.org/) -->

<svg
   xmlns:dc="http://purl.org/dc/elements/1.1/"
   xmlns:cc="http://creativecommons.org/ns#"
   xmlns:rdf="http://www.w3.org/1999/02/22-rdf-syntax-ns#"
   xmlns:svg="http://www.w3.org/2000/svg"
   xmlns="http://www.w3.org/2000/svg"
   xmlns:xlink="http://www.w3.org/1999/xlink"
   xmlns:sodipodi="http://sodipodi.sourceforge.net/DTD/sodipodi-0.dtd"
   xmlns:inkscape="http://www.inkscape.org/namespaces/inkscape"
   id="svg3692"
   height="128"
   width="128"
   version="1.1"
   inkscape:version="0.48.4 r9939"
   sodipodi:docname="user-bookmarks.svg">
  <sodipodi:namedview
     pagecolor="#ffffff"
     bordercolor="#666666"
     borderopacity="1"
     objecttolerance="10"
     gridtolerance="10"
     guidetolerance="10"
     inkscape:pageopacity="0"
     inkscape:pageshadow="2"
     inkscape:window-width="1366"
     inkscape:window-height="712"
     id="namedview42"
     showgrid="true"
     inkscape:zoom="2.9735772"
     inkscape:cx="-14.931381"
     inkscape:cy="39.242099"
     inkscape:window-x="0"
     inkscape:window-y="27"
     inkscape:window-maximized="1"
     inkscape:current-layer="svg3692">
    <inkscape:grid
       type="xygrid"
       id="grid3811"
       empspacing="5"
       visible="true"
       enabled="true"
       snapvisiblegridlinesonly="true" />
  </sodipodi:namedview>
  <defs
     id="defs3694">
    <linearGradient
       id="linearGradient3619"
       y2="33.955002"
       gradientUnits="userSpaceOnUse"
       x2="15.215"
       gradientTransform="translate(2.9799,-3.1217)"
       y1="22.292"
       x1="11.566">
      <stop
         id="stop2687"
         style="stop-color:#fff;stop-opacity:.27451"
         offset="0" />
      <stop
         id="stop2689"
         style="stop-color:#fff;stop-opacity:0"
         offset="1" />
    </linearGradient>
    <linearGradient
       id="linearGradient3648"
       y2="43.444"
       gradientUnits="userSpaceOnUse"
       x2="29.646999"
       y1="2"
       x1="29.646999">
      <stop
         id="stop3644"
         style="stop-color:#fff"
         offset="0" />
      <stop
         id="stop3646"
         style="stop-color:#fff;stop-opacity:0"
         offset="1" />
    </linearGradient>
    <radialGradient
       id="radialGradient3627"
       gradientUnits="userSpaceOnUse"
       cy="25.625"
       cx="13.139"
       gradientTransform="matrix(0,2.6541,-3.1628,0,97.183,-26.676)"
       r="13.931">
      <stop
         id="stop3692"
         style="stop-color:#ffeb9f"
         offset="0" />
      <stop
         id="stop3694"
         style="stop-color:#ffd57e"
         offset=".26238" />
      <stop
         id="stop3696"
         style="stop-color:#ffbc43"
         offset=".66094" />
      <stop
         id="stop3698"
         style="stop-color:#ff921a"
         offset="1" />
    </radialGradient>
    <linearGradient
       id="linearGradient3629"
       y2="9.5799999"
       gradientUnits="userSpaceOnUse"
       x2="21.483"
       gradientTransform="matrix(1.6509,0,0,1.6568,-11.466,-15.046)"
       y1="36.255001"
       x1="21.483">
      <stop
         id="stop3605"
         style="stop-color:#a7651c"
         offset="0" />
      <stop
         id="stop3607"
         style="stop-color:#c8a700"
         offset="1" />
    </linearGradient>
    <radialGradient
       id="radialGradient3690"
       gradientUnits="userSpaceOnUse"
       cx="62.625"
       cy="4.625"
       r="10.625"
       gradientTransform="matrix(2.1647,0,0,0.84706,-111.56,35.082)">
      <stop
         id="stop8840"
         offset="0" />
      <stop
         id="stop8842"
         style="stop-opacity:0"
         offset="1" />
    </radialGradient>
    <linearGradient
       id="linearGradient5530"
       y2="38.273998"
       gradientUnits="userSpaceOnUse"
       x2="22.368999"
       gradientTransform="matrix(0.59882,0,0,0.5952,23.605,21.219)"
       y1="8.0323"
       x1="22.368999">
      <stop
         id="stop3945"
         style="stop-color:#fff"
         offset="0" />
      <stop
         id="stop3947"
         style="stop-color:#fff;stop-opacity:0"
         offset="1" />
    </linearGradient>
    <radialGradient
       id="radialGradient2885"
       gradientUnits="userSpaceOnUse"
       cx="69.447998"
       cy="51.695"
       r="31"
       gradientTransform="matrix(0,0.67924,-0.73892,0,72.903,-19.49)">
      <stop
         id="stop3244-5"
         style="stop-color:#eef87e"
         offset="0" />
      <stop
         id="stop3246-9"
         style="stop-color:#cde34f"
         offset=".26238" />
      <stop
         id="stop3248-7"
         style="stop-color:#93b723"
         offset=".66094" />
      <stop
         id="stop3250-8"
         style="stop-color:#5a7e0d"
         offset="1" />
    </radialGradient>
    <linearGradient
       id="linearGradient2887"
       y2="52.808998"
       gradientUnits="userSpaceOnUse"
       y1="123.19"
       gradientTransform="matrix(0.28214,0,0,0.28445,12.171,9.9582)"
       x2="72.421997"
       x1="72.421997">
      <stop
         id="stop2492-3"
         style="stop-color:#365f0e"
         offset="0" />
      <stop
         id="stop2494-8"
         style="stop-color:#84a718"
         offset="1" />
    </linearGradient>
    <linearGradient
       inkscape:collect="always"
       xlink:href="#linearGradient5530"
       id="linearGradient3020"
       gradientUnits="userSpaceOnUse"
       gradientTransform="matrix(0.59882,0,0,0.5952,-29.886525,43.388492)"
       x1="22.368999"
       y1="8.0323"
       x2="22.368999"
       y2="38.273998" />
    <linearGradient
       inkscape:collect="always"
       xlink:href="#linearGradient3619"
       id="linearGradient3028"
       gradientUnits="userSpaceOnUse"
       gradientTransform="translate(-65.359083,-18.579327)"
       x1="11.566"
       y1="22.292"
       x2="15.215"
       y2="33.955002" />
    <linearGradient
       inkscape:collect="always"
       xlink:href="#linearGradient3648"
       id="linearGradient3031"
       gradientUnits="userSpaceOnUse"
       x1="29.646999"
       y1="2"
       x2="29.646999"
       y2="43.444"
       gradientTransform="translate(-68.338983,-15.457627)" />
    <radialGradient
       inkscape:collect="always"
       xlink:href="#radialGradient3690"
       id="radialGradient3041"
       gradientUnits="userSpaceOnUse"
       gradientTransform="matrix(2.1647,0,0,0.84706,-179.89898,19.624373)"
       cx="62.625"
       cy="4.625"
       r="10.625" />
  </defs>
  <metadata
     id="metadata3697">
    <rdf:RDF>
      <cc:Work
         rdf:about="">
        <dc:format>image/svg+xml</dc:format>
        <dc:type
           rdf:resource="http://purl.org/dc/dcmitype/StillImage" />
        <dc:title />
      </cc:Work>
    </rdf:RDF>
  </metadata>
  <path
     style="font-size:medium;font-style:normal;font-variant:normal;font-weight:normal;font-stretch:normal;text-indent:0;text-align:start;text-decoration:none;line-height:normal;letter-spacing:normal;word-spacing:normal;text-transform:none;direction:ltr;block-progression:tb;writing-mode:lr-tb;text-anchor:start;baseline-shift:baseline;opacity:1;color:#000000;fill:#c4905e;stroke:#c4905e;stroke-width:9.00000190999999994;stroke-opacity:1;marker:none;visibility:visible;display:inline;overflow:visible;enable-background:accumulate;font-family:Sans;-inkscape-font-specification:Sans;fill-opacity:1"
     d="m 64.000023,12.508217 c -0.14592,0.021 -0.2907,0.04996 -0.433548,0.08634 -0.512526,0.05142 -1.015198,0.19866 -1.47407,0.431736 -0.0294,0.0285 -0.05822,0.05716 -0.0867,0.08634 -1.34706,0.539346 -2.14764,1.33174 -2.774714,2.072332 -0.900754,1.063814 -1.750758,2.301104 -2.601294,3.712924 -1.701074,2.823638 -3.487144,6.410958 -5.289302,10.01627 -1.802153,3.60532 -3.578613,7.231018 -5.029167,10.016262 -0.725276,1.39262 -1.417872,2.56796 -1.907616,3.367536 -0.1493,0.24375 -0.29559,0.356886 -0.43355,0.518082 -0.19858,0.07554 -0.360142,0.11538 -0.60697,0.17272 -0.92247,0.21417 -2.251626,0.524932 -3.815232,0.777124 -3.127204,0.504378 -7.163512,0.972452 -11.185568,1.554246 -4.022052,0.581792 -7.94882,1.258308 -11.185566,1.985982 -1.618375,0.36384 -3.037802,0.691169 -4.335493,1.208857 -0.648845,0.25884 -1.309729,0.560058 -1.994325,1.036168 -0.684597,0.47611 -1.5779316,1.14436 -2.0810366,2.67676 -0.503345,1.533044 -0.186234,2.665722 0.08671,3.453878 0.2729432,0.788162 0.5814272,1.397578 0.9538082,1.985984 0.7447624,1.176816 1.6807674,2.304098 2.7747144,3.540228 2.187893,2.472264 5.068862,5.306958 7.977306,8.116628 2.908444,2.80966 5.834474,5.54516 8.064014,7.77124 1.114774,1.11304 2.07021,2.141 2.688004,2.84944 0.18244,0.2092 0.23262,0.33984 0.346842,0.5181 0.0102,0.20486 0.021,0.3538 0,0.60442 -0.0788,0.9309 -0.19296,2.25104 -0.433552,3.79928 -0.481164,3.09644 -1.223792,7.08782 -1.907616,11.05242 -0.683824,3.964548 -1.346248,7.950686 -1.647486,11.225066 -0.1506,1.63718 -0.27048,3.01616 -0.17342,4.4037 0.04854,0.69376 0.18564,1.44822 0.43355,2.24502 0.24792,0.7968 0.601318,1.82538 1.907618,2.7631 1.305512,0.93906 2.461442,0.96282 3.294972,0.94982 0.833528,-0.014 1.489466,-0.0912 2.167746,-0.25902 1.356556,-0.3358 2.723286,-0.90728 4.24878,-1.55424 3.050992,-1.29392 6.718924,-3.0534 10.318472,-4.92178 3.599547,-1.8684 7.142361,-3.85702 9.971629,-5.26718 1.414634,-0.70508 2.682018,-1.27776 3.555102,-1.6406 0.25101,-0.1044 0.40191,-0.1218 0.60697,-0.1726 0.20517,0.0508 0.355988,0.0684 0.606968,0.1726 0.87297,0.36284 2.140548,0.93552 3.555102,1.6406 2.829112,1.41018 6.37204,3.39878 9.971634,5.26718 3.599592,1.86838 7.267228,3.62784 10.318468,4.92178 1.52562,0.64696 2.892096,1.21844 4.248784,1.55424 0.678342,0.1678 1.33427,0.24606 2.167742,0.25902 0.833476,0.014 1.98965,-0.012 3.294976,-0.94982 1.305204,-0.93828 1.65997,-1.96648 1.907621,-2.7631 0.24765,-0.79662 0.38508,-1.55124 0.43354,-2.24502 0.0969,-1.38756 -0.0228,-2.76638 -0.17344,-4.4037 -0.30134,-3.27466 -0.963675,-7.260378 -1.647485,-11.225066 -0.683808,-3.96476 -1.42656,-7.95602 -1.907616,-11.05242 -0.24054,-1.54822 -0.354804,-2.8685 -0.433548,-3.79928 -0.021,-0.25058 -0.0102,-0.39948 0,-0.60442 0.11428,-0.1784 0.1644,-0.30892 0.346838,-0.5181 0.617772,-0.70832 1.573206,-1.73648 2.688006,-2.84944 2.229605,-2.22592 5.155445,-4.96154 8.064015,-7.77124 2.90857,-2.809702 5.78931,-5.644066 7.9773,-8.116628 1.09399,-1.23628 2.02994,-2.363116 2.77472,-3.540228 0.37238,-0.588552 0.68094,-1.197636 0.9538,-1.985984 0.27288,-0.788342 0.59,-1.921334 0.0867,-3.453878 -0.50305,-1.532896 -1.39638,-2.200684 -2.08103,-2.67676 -0.68465,-0.47608 -1.3455,-0.777388 -1.99433,-1.036168 -1.29766,-0.517554 -2.71713,-0.845131 -4.33549,-1.208857 -3.23672,-0.727456 -7.16349,-1.404288 -11.185567,-1.985982 -4.022076,-0.581694 -8.058504,-1.049746 -11.185568,-1.554246 -1.56353,-0.25224 -2.89302,-0.562864 -3.815232,-0.777124 -0.24675,-0.05736 -0.408338,-0.09702 -0.606968,-0.17272 -0.13794,-0.16118 -0.28425,-0.27429 -0.433548,-0.518082 -0.489752,-0.799576 -1.18232,-1.974996 -1.90762,-3.367536 -1.450598,-2.785078 -3.22691,-6.411218 -5.02917,-10.016262 -1.80226,-3.605042 -3.588174,-7.19287 -5.2893,-10.01627 -0.85054,-1.411706 -1.700544,-2.649218 -2.601274,-3.71293 -0.900726,-1.06371 -1.560972,-2.67676 -4.76904,-2.67676 z"
     id="path1307"
     inkscape:connector-curvature="0"
     sodipodi:nodetypes="ccccssssscsssssscsssssscsssssscscssssccssscscsssssscsssssscssssscccssssc" />
</svg>
