<?xml version="1.0" encoding="UTF-8" standalone="no"?>
<svg
   xmlns:dc="http://purl.org/dc/elements/1.1/"
   xmlns:cc="http://creativecommons.org/ns#"
   xmlns:rdf="http://www.w3.org/1999/02/22-rdf-syntax-ns#"
   xmlns:svg="http://www.w3.org/2000/svg"
   xmlns="http://www.w3.org/2000/svg"
   xmlns:sodipodi="http://sodipodi.sourceforge.net/DTD/sodipodi-0.dtd"
   xmlns:inkscape="http://www.inkscape.org/namespaces/inkscape"
   width="128"
   height="128"
   viewBox="0 0 128 128"
   id="svg3235"
   version="1.1"
   inkscape:version="0.48.4 r9939"
   sodipodi:docname="folder-system.svg">
  <metadata
     id="metadata3249">
    <rdf:RDF>
      <cc:Work
         rdf:about="">
        <dc:format>image/svg+xml</dc:format>
        <dc:type
           rdf:resource="http://purl.org/dc/dcmitype/StillImage" />
      </cc:Work>
    </rdf:RDF>
  </metadata>
  <defs
     id="defs3247" />
  <sodipodi:namedview
     pagecolor="#ffffff"
     bordercolor="#666666"
     borderopacity="1"
     objecttolerance="10"
     gridtolerance="10"
     guidetolerance="10"
     inkscape:pageopacity="0"
     inkscape:pageshadow="2"
     inkscape:window-width="678"
     inkscape:window-height="480"
     id="namedview3245"
     showgrid="false"
     inkscape:zoom="1.84375"
     inkscape:cx="80.813559"
     inkscape:cy="55.864407"
     inkscape:window-x="0"
     inkscape:window-y="0"
     inkscape:window-maximized="0"
     inkscape:current-layer="svg3235" />
  <path
     inkscape:connector-curvature="0"
     id="path3009"
     d="M 17.38672,102 C 15.55078,101.8125 14,99.968747 14,97.992183 l 0,-75.964844 c 0,-2.109376 1.785156,-4.027344 3.75,-4.027344 l 92.5,0 c 1.96484,0 3.75,1.917968 3.75,4.027344 l 0,64.941408 c 0,2.105468 -2.87109,5.132812 -4.83984,5.132812 l -33.859382,-0.0586 0,5.296876 c 0,2.085936 -1.64453,4.660165 -3.59765,4.660165 L 17.75,102 c -0.117188,0 -0.234376,0 -0.36328,0 z"
     style="fill:#e9a439;fill-opacity:1;stroke:#e9a439;stroke-width:4;stroke-opacity:1" />
  <path
     inkscape:connector-curvature="0"
     id="path3011"
     d="M 6.19922,25.999995 C 3.921876,26.187495 2,28.031243 2,30.007807 L 2,105.97266 C 2,108.08203 4.210936,110 6.652344,110 l 114.695316,0 C 123.78906,110 126,108.08203 126,105.97266 l 0,-64.941417 c 0,-2.105468 -3.5625,-5.132812 -6,-5.132812 l -41.988282,0.0586 0,-5.296876 c 0,-2.08594 -2.03906,-4.66016 -4.46094,-4.66016 l -66.898434,0 c -0.148436,0 -0.292968,0 -0.453124,0 z"
     style="fill:#f5c14e;fill-opacity:1;stroke:#e9a439;stroke-width:4;stroke-opacity:1" />
  <path
     style="fill:#d0a444;fill-opacity:1"
     d="M 60.851562 52 C 59.738281 52 58.816406 52.894531 58.816406 53.992188 L 58.816406 56.585938 C 58.113281 56.820312 57.441406 57.097656 56.78125 57.417969 L 54.980469 55.617188 C 54.191406 54.828125 52.929688 54.828125 52.15625 55.617188 L 47.617188 60.097656 C 46.824219 60.890625 46.824219 62.148438 47.617188 62.925781 L 49.417969 64.726562 C 49.082031 65.402344 48.832031 66.105469 48.582031 66.824219 L 46.035156 66.824219 C 44.9375 66.824219 44 67.703125 44 68.8125 L 44 75.199219 C 44 76.296875 44.9375 77.191406 46.035156 77.191406 L 48.582031 77.191406 C 48.832031 77.894531 49.082031 78.597656 49.417969 79.273438 L 47.617188 81.074219 C 46.824219 81.863281 46.824219 83.109375 47.617188 83.902344 L 52.15625 88.382812 C 52.929688 89.171875 54.191406 89.171875 54.980469 88.382812 L 56.78125 86.582031 C 57.441406 86.902344 58.113281 87.179688 58.816406 87.414062 L 58.816406 90.007812 C 58.816406 91.121094 59.738281 92 60.851562 92 L 67.191406 92 C 68.304688 92 69.183594 91.121094 69.183594 90.007812 L 69.183594 87.414062 C 69.902344 87.179688 70.601562 86.917969 71.261719 86.582031 L 73.078125 88.382812 C 73.855469 89.171875 75.113281 89.171875 75.890625 88.382812 L 80.425781 83.902344 C 81.21875 83.109375 81.21875 81.863281 80.425781 81.074219 L 78.582031 79.226562 C 78.90625 78.570312 79.183594 77.894531 79.417969 77.191406 L 82.007812 77.191406 C 83.121094 77.191406 84 76.296875 84 75.199219 L 84 68.8125 C 84 67.703125 83.121094 66.824219 82.007812 66.824219 L 79.417969 66.824219 C 79.183594 66.121094 78.90625 65.429688 78.582031 64.785156 L 80.425781 62.925781 C 81.21875 62.148438 81.21875 60.890625 80.425781 60.097656 L 75.890625 55.617188 C 75.113281 54.828125 73.855469 54.828125 73.078125 55.617188 L 71.261719 57.417969 C 70.601562 57.082031 69.902344 56.832031 69.183594 56.585938 L 69.183594 53.992188 C 69.183594 52.894531 68.304688 52 67.191406 52 Z M 64 66.824219 C 66.855469 66.824219 69.183594 69.136719 69.183594 72.007812 C 69.183594 74.863281 66.855469 77.191406 64 77.191406 C 61.144531 77.191406 58.816406 74.863281 58.816406 72.007812 C 58.816406 69.136719 61.144531 66.824219 64 66.824219 Z "
     id="path3243" />
</svg>
