<?xml version="1.0" encoding="UTF-8" standalone="no"?>
<svg
   xmlns:dc="http://purl.org/dc/elements/1.1/"
   xmlns:cc="http://creativecommons.org/ns#"
   xmlns:rdf="http://www.w3.org/1999/02/22-rdf-syntax-ns#"
   xmlns:svg="http://www.w3.org/2000/svg"
   xmlns="http://www.w3.org/2000/svg"
   xmlns:sodipodi="http://sodipodi.sourceforge.net/DTD/sodipodi-0.dtd"
   xmlns:inkscape="http://www.inkscape.org/namespaces/inkscape"
   width="128"
   height="128"
   viewBox="0 0 128 128"
   id="svg3219"
   version="1.1"
   inkscape:version="0.48.4 r9939"
   sodipodi:docname="folder-saved-search.svg">
  <metadata
     id="metadata3233">
    <rdf:RDF>
      <cc:Work
         rdf:about="">
        <dc:format>image/svg+xml</dc:format>
        <dc:type
           rdf:resource="http://purl.org/dc/dcmitype/StillImage" />
      </cc:Work>
    </rdf:RDF>
  </metadata>
  <defs
     id="defs3231" />
  <sodipodi:namedview
     pagecolor="#ffffff"
     bordercolor="#666666"
     borderopacity="1"
     objecttolerance="10"
     gridtolerance="10"
     guidetolerance="10"
     inkscape:pageopacity="0"
     inkscape:pageshadow="2"
     inkscape:window-width="678"
     inkscape:window-height="480"
     id="namedview3229"
     showgrid="false"
     inkscape:zoom="1.84375"
     inkscape:cx="67.254237"
     inkscape:cy="50.983051"
     inkscape:window-x="0"
     inkscape:window-y="0"
     inkscape:window-maximized="0"
     inkscape:current-layer="svg3219" />
  <path
     inkscape:connector-curvature="0"
     id="path3009"
     d="M 17.38672,102 C 15.55078,101.8125 14,99.968752 14,97.992188 L 14,22.027344 C 14,19.917968 15.785156,18 17.75,18 l 92.5,0 c 1.96484,0 3.75,1.917968 3.75,4.027344 l 0,64.941408 c 0,2.105468 -2.87109,5.132812 -4.83984,5.132812 l -33.859376,-0.0586 0,5.296876 c 0,2.085936 -1.64454,4.66016 -3.59766,4.66016 L 17.75,102 c -0.117188,0 -0.234376,0 -0.36328,0 z"
     style="fill:#e9a439;fill-opacity:1;stroke:#e9a439;stroke-width:4;stroke-opacity:1" />
  <path
     inkscape:connector-curvature="0"
     id="path3011"
     d="M 6.19922,26 C 3.921876,26.1875 2,28.031248 2,30.007812 L 2,105.97266 C 2,108.08203 4.210936,110 6.652344,110 l 114.695316,0 C 123.78906,110 126,108.08203 126,105.97266 l 0,-64.941412 c 0,-2.105468 -3.5625,-5.132812 -6,-5.132812 l -41.988276,0.0586 0,-5.296876 C 78.011724,28.57422 75.972654,26 73.550784,26 L 6.652344,26 C 6.503908,26 6.359376,26 6.19922,26 z"
     style="fill:#f5c14e;fill-opacity:1;stroke:#e9a439;stroke-width:4;stroke-opacity:1" />
  <path
     style="fill:#d0a444;fill-opacity:1"
     d="M 79.9375 56.039062 C 74.519531 50.632812 65.765625 50.660156 60.363281 56.082031 C 55.753906 60.683594 55.0625 67.699219 58.285156 73.015625 L 44.933594 86.378906 C 43.6875 87.625 43.6875 89.617188 44.933594 90.875 L 45.125 91.066406 C 46.367188 92.3125 48.375 92.3125 49.617188 91.066406 L 62.96875 77.707031 C 68.296875 80.941406 75.324219 80.269531 79.9375 75.667969 C 85.355469 70.25 85.355469 61.457031 79.9375 56.050781 Z M 76.890625 59.085938 C 80.609375 62.820312 80.609375 68.886719 76.890625 72.621094 C 73.203125 76.300781 67.230469 76.300781 63.496094 72.679688 L 63.410156 72.578125 C 63.363281 72.546875 63.335938 72.519531 63.304688 72.476562 C 59.675781 68.753906 59.71875 62.804688 63.410156 59.113281 C 67.128906 55.394531 73.171875 55.363281 76.890625 59.085938 Z "
     id="path3227" />
</svg>
