<?xml version="1.0" encoding="UTF-8" standalone="no"?>
<svg
   xmlns:dc="http://purl.org/dc/elements/1.1/"
   xmlns:cc="http://creativecommons.org/ns#"
   xmlns:rdf="http://www.w3.org/1999/02/22-rdf-syntax-ns#"
   xmlns:svg="http://www.w3.org/2000/svg"
   xmlns="http://www.w3.org/2000/svg"
   xmlns:sodipodi="http://sodipodi.sourceforge.net/DTD/sodipodi-0.dtd"
   xmlns:inkscape="http://www.inkscape.org/namespaces/inkscape"
   width="128"
   height="128"
   viewBox="0 0 128 128"
   id="svg3187"
   version="1.1"
   inkscape:version="0.48.4 r9939"
   sodipodi:docname="folder-publicshare.svg">
  <metadata
     id="metadata3201">
    <rdf:RDF>
      <cc:Work
         rdf:about="">
        <dc:format>image/svg+xml</dc:format>
        <dc:type
           rdf:resource="http://purl.org/dc/dcmitype/StillImage" />
      </cc:Work>
    </rdf:RDF>
  </metadata>
  <defs
     id="defs3199" />
  <sodipodi:namedview
     pagecolor="#ffffff"
     bordercolor="#666666"
     borderopacity="1"
     objecttolerance="10"
     gridtolerance="10"
     guidetolerance="10"
     inkscape:pageopacity="0"
     inkscape:pageshadow="2"
     inkscape:window-width="678"
     inkscape:window-height="480"
     id="namedview3197"
     showgrid="false"
     inkscape:zoom="1.84375"
     inkscape:cx="-0.54237288"
     inkscape:cy="26.576271"
     inkscape:window-x="0"
     inkscape:window-y="0"
     inkscape:window-maximized="0"
     inkscape:current-layer="svg3187" />
  <path
     inkscape:connector-curvature="0"
     id="path3009"
     d="M 17.38672,102 C 15.55078,101.8125 14,99.968752 14,97.992188 L 14,22.027344 C 14,19.917968 15.785156,18 17.75,18 l 92.5,0 c 1.96484,0 3.75,1.917968 3.75,4.027344 l 0,64.941408 c 0,2.105468 -2.87109,5.132812 -4.83984,5.132812 l -33.859383,-0.0586 0,5.296876 c 0,2.085936 -1.64453,4.66016 -3.59765,4.66016 L 17.75,102 c -0.117188,0 -0.234376,0 -0.36328,0 z"
     style="fill:#e9a439;fill-opacity:1;stroke:#e9a439;stroke-width:4;stroke-opacity:1" />
  <path
     inkscape:connector-curvature="0"
     id="path3011"
     d="M 6.19922,26 C 3.921876,26.1875 2,28.031248 2,30.007812 L 2,105.97266 C 2,108.08203 4.210936,110 6.652344,110 l 114.695316,0 C 123.78906,110 126,108.08203 126,105.97266 l 0,-64.941412 c 0,-2.105468 -3.5625,-5.132812 -6,-5.132812 l -41.988283,0.0586 0,-5.296876 C 78.011717,28.57422 75.972657,26 73.550777,26 L 6.652344,26 C 6.503908,26 6.359376,26 6.19922,26 z"
     style="fill:#f5c14e;fill-opacity:1;stroke:#e9a439;stroke-width:4;stroke-opacity:1" />
  <path
     style="fill:#d0a444;fill-opacity:1"
     d="M 69.503906 56 C 65.503906 56 62.183594 59.03125 62.183594 62.824219 C 62.214844 64.132812 62.289062 65.78125 63.054688 69.265625 L 63.128906 69.265625 C 63.292969 69.71875 63.527344 70.175781 63.925781 70.675781 C 64.28125 71.117188 64.753906 71.617188 65.179688 72.089844 C 65.3125 73.074219 65.328125 73.925781 65.179688 74.984375 C 63.984375 75.882812 61.84375 76.71875 59.910156 77.5 C 58.894531 77.898438 57.964844 78.265625 57.226562 78.75 C 56.53125 79.207031 56.015625 79.839844 55.96875 80.632812 C 55.96875 80.675781 55.898438 80.675781 55.898438 80.707031 L 55.027344 87.382812 L 55.027344 87.457031 C 55.027344 88.28125 55.570312 88.957031 56.367188 89.5 C 57.152344 90.03125 58.214844 90.457031 59.511719 90.824219 C 62.109375 91.574219 65.625 92 69.503906 92 C 73.402344 92 76.914062 91.574219 79.511719 90.824219 C 80.8125 90.457031 81.875 90.03125 82.65625 89.5 C 83.4375 88.957031 84 88.28125 84 87.457031 L 84 87.382812 L 83.054688 80.707031 C 83.054688 80.691406 83.054688 80.660156 83.054688 80.632812 C 83.027344 80.25 82.894531 79.882812 82.65625 79.617188 C 82.40625 79.324219 82.082031 79.132812 81.710938 78.910156 C 80.972656 78.457031 80.042969 78.058594 79.039062 77.648438 C 77.078125 76.851562 74.9375 75.941406 73.757812 74.984375 C 73.667969 74.074219 73.667969 73.148438 73.757812 72.234375 C 74.183594 71.734375 74.65625 71.234375 75.027344 70.75 C 75.425781 70.21875 75.734375 69.734375 75.882812 69.265625 C 76.753906 65.632812 76.78125 64.160156 76.828125 62.824219 C 76.828125 59.03125 73.519531 56 69.503906 56 Z M 55.898438 57.265625 C 52.589844 57.265625 49.902344 59.792969 49.902344 62.910156 C 49.933594 63.96875 49.992188 65.21875 50.613281 68.089844 L 50.613281 68.160156 C 50.746094 68.542969 50.996094 68.851562 51.320312 69.265625 C 51.617188 69.617188 52 70.058594 52.355469 70.441406 C 52.457031 71.21875 52.472656 72.015625 52.355469 72.867188 C 51.378906 73.617188 49.609375 74.28125 48.015625 74.910156 C 47.1875 75.234375 46.496094 75.53125 45.890625 75.925781 C 45.328125 76.292969 44.914062 76.851562 44.871094 77.5 C 44.871094 77.53125 44.796875 77.53125 44.796875 77.574219 L 44 82.984375 L 44 83.058594 C 44 83.574219 44.25 84.015625 44.632812 84.398438 C 45.019531 84.78125 45.550781 85.132812 46.214844 85.410156 C 47.5 85.96875 49.34375 86.367188 51.558594 86.589844 L 51.644531 86.589844 C 51.765625 86.589844 51.882812 86.558594 51.957031 86.515625 C 52.042969 86.457031 52.148438 86.410156 52.191406 86.351562 C 52.265625 86.25 52.308594 86.148438 52.355469 86.042969 C 52.414062 85.867188 52.414062 85.675781 52.429688 85.5 C 52.429688 85.46875 52.429688 85.441406 52.429688 85.410156 L 53.296875 78.75 C 53.296875 78.46875 53.476562 78.148438 53.917969 77.808594 C 54.363281 77.46875 55.039062 77.132812 55.808594 76.792969 C 57.371094 76.117188 59.351562 75.484375 60.929688 74.675781 L 61.800781 74.207031 L 60.929688 73.808594 C 60.308594 73.5 59.824219 73.175781 59.4375 72.867188 C 59.351562 72.089844 59.351562 71.28125 59.4375 70.515625 C 59.4375 70.484375 59.425781 70.457031 59.4375 70.441406 C 60.03125 69.632812 60.488281 68.792969 60.695312 68.324219 L 60.765625 68.160156 L 60.695312 68 C 60.621094 67.617188 60.648438 67.324219 60.53125 66.984375 C 59.777344 63.542969 59.703125 62.132812 59.675781 60.867188 C 59.675781 60.339844 59.792969 59.71875 59.984375 59.148438 L 60.148438 58.824219 L 59.824219 58.675781 C 58.773438 57.839844 57.386719 57.265625 55.898438 57.265625 Z "
     id="path3195" />
</svg>
