<?xml version="1.0" encoding="UTF-8" standalone="no"?>
<svg
   xmlns:dc="http://purl.org/dc/elements/1.1/"
   xmlns:cc="http://creativecommons.org/ns#"
   xmlns:rdf="http://www.w3.org/1999/02/22-rdf-syntax-ns#"
   xmlns:svg="http://www.w3.org/2000/svg"
   xmlns="http://www.w3.org/2000/svg"
   xmlns:sodipodi="http://sodipodi.sourceforge.net/DTD/sodipodi-0.dtd"
   xmlns:inkscape="http://www.inkscape.org/namespaces/inkscape"
   width="128"
   height="128"
   viewBox="0 0 128 128"
   id="svg3307"
   version="1.1"
   inkscape:version="0.48.4 r9939"
   sodipodi:docname="folder-video.svg">
  <metadata
     id="metadata3321">
    <rdf:RDF>
      <cc:Work
         rdf:about="">
        <dc:format>image/svg+xml</dc:format>
        <dc:type
           rdf:resource="http://purl.org/dc/dcmitype/StillImage" />
      </cc:Work>
    </rdf:RDF>
  </metadata>
  <defs
     id="defs3319" />
  <sodipodi:namedview
     pagecolor="#ffffff"
     bordercolor="#666666"
     borderopacity="1"
     objecttolerance="10"
     gridtolerance="10"
     guidetolerance="10"
     inkscape:pageopacity="0"
     inkscape:pageshadow="2"
     inkscape:window-width="678"
     inkscape:window-height="480"
     id="namedview3317"
     showgrid="false"
     inkscape:zoom="1.84375"
     inkscape:cx="60.20339"
     inkscape:cy="40.677966"
     inkscape:window-x="0"
     inkscape:window-y="0"
     inkscape:window-maximized="0"
     inkscape:current-layer="svg3307" />
  <path
     inkscape:connector-curvature="0"
     id="path3009"
     d="M 17.38672,102 C 15.55078,101.8125 14,99.968752 14,97.992188 L 14,22.027344 C 14,19.917968 15.785156,18 17.75,18 l 92.5,0 c 1.96484,0 3.75,1.917968 3.75,4.027344 l 0,64.941408 c 0,2.105468 -2.87109,5.132812 -4.83984,5.132812 l -33.859383,-0.0586 0,5.296876 c 0,2.085936 -1.64453,4.66016 -3.59765,4.66016 L 17.75,102 c -0.117188,0 -0.234376,0 -0.36328,0 z"
     style="fill:#e9a439;fill-opacity:1;stroke:#e9a439;stroke-width:4;stroke-opacity:1" />
  <path
     inkscape:connector-curvature="0"
     id="path3011"
     d="M 6.19922,26 C 3.921876,26.1875 2,28.031248 2,30.007812 L 2,105.97266 C 2,108.08203 4.210936,110 6.652344,110 l 114.695316,0 C 123.78906,110 126,108.08203 126,105.97266 l 0,-64.941412 c 0,-2.105468 -3.5625,-5.132812 -6,-5.132812 l -41.988283,0.0586 0,-5.296876 C 78.011717,28.57422 75.972657,26 73.550777,26 L 6.652344,26 C 6.503908,26 6.359376,26 6.19922,26 z"
     style="fill:#f5c14e;fill-opacity:1;stroke:#e9a439;stroke-width:4;stroke-opacity:1" />
  <path
     style="fill:#d0a444;fill-opacity:1"
     d="M 64 52 C 52.980469 52 44 60.992188 44 72.007812 C 44 83.023438 52.980469 92 64 92 C 75.019531 92 84 83.023438 84 72.007812 C 84 60.992188 75.019531 52 64 52 Z M 64 57.007812 C 72.324219 57.007812 79.003906 63.6875 79.003906 72.007812 C 79.003906 80.3125 72.324219 87.003906 64 87.003906 C 55.675781 87.003906 48.996094 80.3125 48.996094 72.007812 C 48.996094 63.6875 55.675781 57.007812 64 57.007812 Z M 59.003906 62.003906 L 59.003906 81.996094 L 74.007812 72.007812 Z "
     id="path3315" />
</svg>
