
<svg xmlns="http://www.w3.org/2000/svg" xmlns:xlink="http://www.w3.org/1999/xlink" width="128px" height="128px" viewBox="0 0 128 128" version="1.1">
<g id="surface1">
<path style=" stroke:none;fill-rule:nonzero;fill:rgb(91.372549%,69.019608%,50.196078%);fill-opacity:1;" d="M 18 16 C 15.070312 16 12 19.023438 12 22 L 12 24 L 6 24 C 3.058594 24 0 26.992188 0 30 L 0 106 C 0 110 2 112 6 112 L 122 112 C 125.136719 112 128 109.285156 128 106 L 128 40 C 128 36.988281 125.089844 34 122 34 L 116 34 L 116 22 C 116 19.078125 113.09375 16 110 16 Z M 18 16 "/>
<path style=" stroke:none;fill-rule:nonzero;fill:rgb(0%,0%,0%);fill-opacity:0.321569;" d="M 18 16 C 15.070312 16 12 19.023438 12 22 L 12 24 L 6 24 C 3.058594 24 0 26.992188 0 30 L 0 106 C 0 110 2 112 6 112 L 122 112 C 125.136719 112 128 109.285156 128 106 L 128 40 C 128 36.988281 125.089844 34 122 34 L 116 34 L 116 22 C 116 19.078125 113.09375 16 110 16 Z M 6 28 L 74 28 C 75.179688 28 76 29.03125 76 30 L 76 38 L 122 38 C 123.011719 38 124 39.015625 124 40 L 124 106 C 124 107.042969 123.042969 108 122 108 L 6 108 C 5.070312 108 4 107.207031 4 106 L 4 30 C 4 29.015625 5.03125 28 6 28 Z M 6 28 "/>
<path style=" stroke:none;fill-rule:nonzero;fill:rgb(0%,0%,0%);fill-opacity:0.321569;" d="M 86 44 C 82.6875 44 80 46.6875 80 50 C 80 53.3125 82.6875 56 86 56 C 89.3125 56 92 53.3125 92 50 C 92 46.6875 89.3125 44 86 44 Z M 64 48 C 59.414062 48 55.140625 49.265625 51.5 51.5 L 57.4375 57.4375 C 59.441406 56.535156 61.660156 56 64 56 C 72.15625 56 78.886719 62.109375 79.875 70 L 87.875 70 C 87.550781 66.160156 86.351562 62.550781 84.4375 59.4375 C 83.6875 59.777344 82.878906 60 82 60 C 78.6875 60 76 57.3125 76 54 C 76 53.121094 76.222656 52.3125 76.5625 51.5625 C 72.910156 49.3125 68.605469 48 64 48 Z M 48.3125 53.9375 C 44.554688 57.214844 41.78125 61.601562 40.625 66.625 C 42.617188 67.601562 44 69.632812 44 72 C 44 74.367188 42.617188 76.398438 40.625 77.375 C 41.871094 82.789062 44.910156 87.539062 49.125 90.875 L 54.875 85.125 C 50.722656 82.234375 48 77.441406 48 72 C 48 66.980469 50.320312 62.496094 53.9375 59.5625 Z M 32 66 C 28.6875 66 26 68.6875 26 72 C 26 75.3125 28.6875 78 32 78 C 35.3125 78 38 75.3125 38 72 C 38 68.6875 35.3125 66 32 66 Z M 79.875 74 C 78.886719 81.890625 72.15625 88 64 88 C 62.109375 88 60.308594 87.601562 58.625 87 L 52.5625 93.0625 C 55.964844 94.921875 59.847656 96 64 96 C 67.027344 96 69.894531 95.460938 72.5625 94.4375 C 72.222656 93.6875 72 92.878906 72 92 C 72 88.6875 74.6875 86 78 86 C 79.609375 86 81.046875 86.65625 82.125 87.6875 C 85.367188 83.945312 87.445312 79.226562 87.875 74 Z M 82 90 C 78.6875 90 76 92.6875 76 96 C 76 99.3125 78.6875 102 82 102 C 85.3125 102 88 99.3125 88 96 C 88 92.6875 85.3125 90 82 90 Z M 82 90 "/>
</g>
</svg>
