<?xml version="1.0" encoding="UTF-8" standalone="no"?>
<svg
   xmlns:dc="http://purl.org/dc/elements/1.1/"
   xmlns:cc="http://creativecommons.org/ns#"
   xmlns:rdf="http://www.w3.org/1999/02/22-rdf-syntax-ns#"
   xmlns:svg="http://www.w3.org/2000/svg"
   xmlns="http://www.w3.org/2000/svg"
   xmlns:sodipodi="http://sodipodi.sourceforge.net/DTD/sodipodi-0.dtd"
   xmlns:inkscape="http://www.inkscape.org/namespaces/inkscape"
   width="128"
   height="128"
   viewBox="0 0 128 128"
   id="svg3291"
   version="1.1"
   inkscape:version="0.48.4 r9939"
   sodipodi:docname="folder-ubuntu.svg">
  <metadata
     id="metadata3305">
    <rdf:RDF>
      <cc:Work
         rdf:about="">
        <dc:format>image/svg+xml</dc:format>
        <dc:type
           rdf:resource="http://purl.org/dc/dcmitype/StillImage" />
      </cc:Work>
    </rdf:RDF>
  </metadata>
  <defs
     id="defs3303" />
  <sodipodi:namedview
     pagecolor="#ffffff"
     bordercolor="#666666"
     borderopacity="1"
     objecttolerance="10"
     gridtolerance="10"
     guidetolerance="10"
     inkscape:pageopacity="0"
     inkscape:pageshadow="2"
     inkscape:window-width="678"
     inkscape:window-height="480"
     id="namedview3301"
     showgrid="false"
     inkscape:zoom="1.84375"
     inkscape:cx="47.186441"
     inkscape:cy="45.016949"
     inkscape:window-x="0"
     inkscape:window-y="0"
     inkscape:window-maximized="0"
     inkscape:current-layer="svg3291" />
  <path
     inkscape:connector-curvature="0"
     id="path3009"
     d="M 17.38672,102 C 15.55078,101.8125 14,99.968752 14,97.992188 L 14,22.027344 C 14,19.917968 15.785156,18 17.75,18 l 92.5,0 c 1.96484,0 3.75,1.917968 3.75,4.027344 l 0,64.941408 c 0,2.105468 -2.87109,5.132812 -4.83984,5.132812 l -33.859379,-0.0586 0,5.296876 c 0,2.085936 -1.64453,4.66016 -3.59766,4.66016 L 17.75,102 c -0.117188,0 -0.234376,0 -0.36328,0 z"
     style="fill:#e9a439;fill-opacity:1;stroke:#e9a439;stroke-width:4;stroke-opacity:1" />
  <path
     inkscape:connector-curvature="0"
     id="path3011"
     d="M 6.19922,26 C 3.921876,26.1875 2,28.031248 2,30.007812 L 2,105.97266 C 2,108.08203 4.210936,110 6.652344,110 l 114.695316,0 C 123.78906,110 126,108.08203 126,105.97266 l 0,-64.941412 c 0,-2.105468 -3.5625,-5.132812 -6,-5.132812 l -41.988279,0.0586 0,-5.296876 C 78.011721,28.57422 75.972661,26 73.550781,26 L 6.652344,26 C 6.503908,26 6.359376,26 6.19922,26 z"
     style="fill:#f5c14e;fill-opacity:1;stroke:#e9a439;stroke-width:4;stroke-opacity:1" />
  <path
     style="fill:#d0a444;fill-opacity:1"
     d="M 47.835938 67.125 C 45.726562 67.125 44 68.855469 44 71.007812 C 44 73.144531 45.726562 74.886719 47.835938 74.886719 C 49.960938 74.886719 51.675781 73.144531 51.675781 71.007812 C 51.675781 68.855469 49.960938 67.125 47.835938 67.125 Z M 75.222656 84.761719 C 73.386719 85.824219 72.765625 88.203125 73.828125 90.058594 C 74.875 91.914062 77.222656 92.554688 79.058594 91.476562 C 80.894531 90.414062 81.53125 88.035156 80.464844 86.179688 C 79.402344 84.324219 77.058594 83.683594 75.222656 84.761719 Z M 56.175781 71.007812 C 56.175781 67.167969 58.050781 63.78125 60.9375 61.730469 L 58.132812 56.96875 C 54.78125 59.234375 52.28125 62.707031 51.246094 66.773438 C 52.445312 67.777344 53.21875 69.292969 53.21875 71.007812 C 53.21875 72.707031 52.445312 74.222656 51.246094 75.226562 C 52.28125 79.292969 54.78125 82.765625 58.132812 85.03125 L 60.9375 80.269531 C 58.050781 78.21875 56.175781 74.832031 56.175781 71.007812 Z M 67.382812 59.660156 C 73.234375 59.660156 78.039062 64.207031 78.535156 70 L 84 69.917969 C 83.738281 65.636719 81.886719 61.800781 79.042969 58.980469 C 77.59375 59.53125 75.910156 59.449219 74.449219 58.597656 C 73 57.75 72.074219 56.316406 71.824219 54.757812 C 70.40625 54.363281 68.914062 54.136719 67.382812 54.136719 C 64.71875 54.136719 62.21875 54.773438 59.996094 55.878906 L 62.660156 60.722656 C 64.097656 60.042969 65.683594 59.660156 67.382812 59.660156 Z M 67.382812 82.339844 C 65.683594 82.339844 64.097656 81.957031 62.660156 81.277344 L 59.996094 86.121094 C 62.21875 87.226562 64.71875 87.863281 67.382812 87.863281 C 68.914062 87.863281 70.40625 87.652344 71.824219 87.253906 C 72.074219 85.683594 73 84.25 74.449219 83.402344 C 75.910156 82.550781 77.59375 82.46875 79.042969 83.019531 C 81.886719 80.199219 83.738281 76.363281 84 72.082031 L 78.535156 72 C 78.039062 77.792969 73.234375 82.339844 67.382812 82.339844 Z M 75.222656 57.238281 C 77.058594 58.316406 79.402344 57.675781 80.464844 55.820312 C 81.53125 53.964844 80.894531 51.585938 79.058594 50.523438 C 77.222656 49.445312 74.875 50.085938 73.828125 51.941406 C 72.765625 53.796875 73.386719 56.175781 75.222656 57.238281 Z "
     id="path3299" />
</svg>
