<?xml version="1.0" encoding="UTF-8" standalone="no"?>
<svg
   xmlns:dc="http://purl.org/dc/elements/1.1/"
   xmlns:cc="http://creativecommons.org/ns#"
   xmlns:rdf="http://www.w3.org/1999/02/22-rdf-syntax-ns#"
   xmlns:svg="http://www.w3.org/2000/svg"
   xmlns="http://www.w3.org/2000/svg"
   xmlns:sodipodi="http://sodipodi.sourceforge.net/DTD/sodipodi-0.dtd"
   xmlns:inkscape="http://www.inkscape.org/namespaces/inkscape"
   width="128"
   height="128"
   viewBox="0 0 128 128"
   id="svg3157"
   version="1.1"
   inkscape:version="0.48.4 r9939"
   sodipodi:docname="folder-pictures.svg">
  <metadata
     id="metadata3185">
    <rdf:RDF>
      <cc:Work
         rdf:about="">
        <dc:format>image/svg+xml</dc:format>
        <dc:type
           rdf:resource="http://purl.org/dc/dcmitype/StillImage" />
      </cc:Work>
    </rdf:RDF>
  </metadata>
  <defs
     id="defs3183" />
  <sodipodi:namedview
     pagecolor="#ffffff"
     bordercolor="#666666"
     borderopacity="1"
     objecttolerance="10"
     gridtolerance="10"
     guidetolerance="10"
     inkscape:pageopacity="0"
     inkscape:pageshadow="2"
     inkscape:window-width="678"
     inkscape:window-height="480"
     id="namedview3181"
     showgrid="false"
     inkscape:zoom="1.84375"
     inkscape:cx="65.627119"
     inkscape:cy="57.491525"
     inkscape:window-x="0"
     inkscape:window-y="0"
     inkscape:window-maximized="0"
     inkscape:current-layer="svg3157" />
  <path
     inkscape:connector-curvature="0"
     id="path3009"
     d="M 17.38672,102 C 15.55078,101.8125 14,99.968752 14,97.992188 L 14,22.027344 C 14,19.917968 15.785156,18 17.75,18 l 92.5,0 c 1.96484,0 3.75,1.917968 3.75,4.027344 l 0,64.941408 c 0,2.105468 -2.87109,5.132812 -4.83984,5.132812 l -33.859382,-0.0586 0,5.296876 c 0,2.085936 -1.64453,4.66016 -3.59765,4.66016 L 17.75,102 c -0.117188,0 -0.234376,0 -0.36328,0 z"
     style="fill:#e9a439;fill-opacity:1;stroke:#e9a439;stroke-width:4;stroke-opacity:1" />
  <path
     inkscape:connector-curvature="0"
     id="path3011"
     d="M 6.19922,26 C 3.921876,26.1875 2,28.031248 2,30.007812 L 2,105.97266 C 2,108.08203 4.210936,110 6.652344,110 l 114.695316,0 C 123.78906,110 126,108.08203 126,105.97266 l 0,-64.941412 c 0,-2.105468 -3.5625,-5.132812 -6,-5.132812 l -41.988282,0.0586 0,-5.296876 C 78.011718,28.57422 75.972658,26 73.550778,26 L 6.652344,26 C 6.503908,26 6.359376,26 6.19922,26 z"
     style="fill:#f5c14e;fill-opacity:1;stroke:#e9a439;stroke-width:4;stroke-opacity:1" />
  <path
     style="fill:#d0a444;fill-opacity:1"
     inkscape:connector-curvature="0"
     id="path3167"
     d="m 46.769531,52 c -1.40625,0.132812 -2.621093,1.613281 -2.59375,3.195312 l 0,33.683594 c 0.01563,1.65625 1.347657,3.148438 2.8125,3.121094 l 34.273438,0 C 82.710938,91.984375 83.984375,90.503906 84,88.878906 L 84,55.195312 C 84.027344,53.539062 82.738281,52.015625 81.261719,52 z M 48,56 l 32,0 0,28 -32,0 z" />
  <path
     style="fill:#d0a444;fill-rule:evenodd;fill-opacity:1"
     d="m 44.101562,78.082031 c 0.574219,-0.410156 1.90625,-1.671875 4.089844,-3.824219 2.167969,-2.183593 5.070313,-5.160156 8.820313,-9.070312 2.460937,3.5 4.261719,6.019531 5.597656,7.675781 1.300781,1.640625 2.035156,2.359375 2.210937,2.15625 1.390626,-1.246093 2.550782,-2.300781 3.558594,-3.226562 1,-0.921875 1.761719,-1.683594 2.375,-2.296875 3.0625,3.835937 5.582032,7 7.808594,9.667968 2.183594,2.652344 3.914062,4.660157 5.261719,6.140626 l -8.308594,-6.902344 c -0.6875,1.757812 -1.816406,2.683594 -3.398437,2.753906 C 70.476562,81.203125 68,79.222656 66.007812,78.855469 64,78.492188 62.007812,79.617188 60.234375,79.019531 58.417969,78.375 57.011719,75.824219 55.3125,75.179688 c -1.714844,-0.660157 -3.445312,-0.660157 -5.261719,0 -1.976562,0.964843 -3.957031,1.933593 -5.949219,2.902343 z"
     id="path3171"
     inkscape:connector-curvature="0" />
  <path
     style="fill:#d0a444;fill-rule:evenodd;fill-opacity:1"
     d="m 44,76.761719 c 0.570312,-0.425781 1.890625,-1.671875 4.074219,-3.839844 2.167969,-2.167969 5.070312,-5.140625 8.820312,-9.054687 2.460938,3.488281 4.261719,6.023437 5.609375,7.679687 1.304688,1.640625 2.023438,2.34375 2.199219,2.152344 1.390625,-1.246094 2.5625,-2.300781 3.558594,-3.222657 1,-0.9375 1.773437,-1.699218 2.375,-2.300781 3.0625,3.839844 5.597656,7.003907 7.808593,9.671875 2.183594,2.648438 3.929688,4.65625 5.261719,6.136719 L 75.398438,77.070312 C 74.710938,78.855469 73.597656,79.75 72,79.839844 c -1.613281,0.05859 -4.101562,-1.949219 -6.109375,-2.300782 -2.007813,-0.367187 -3.984375,0.761719 -5.773437,0.144532 -1.800782,-0.644532 -3.207032,-3.164063 -4.921876,-3.824219 -1.714843,-0.65625 -3.429687,-0.65625 -5.261718,0 C 47.957031,74.828125 45.976562,75.792969 44,76.777344 z"
     id="path3173"
     inkscape:connector-curvature="0" />
  <path
     style="fill:#d0a444;fill-opacity:1"
     inkscape:connector-curvature="0"
     id="path3175"
     d="m 51.632812,74.503906 19.882813,0 c 2.753906,0 4.996094,2.242188 4.996094,4.996094 l 0,2.507812 c 0,2.753907 -2.242188,4.996094 -4.996094,4.996094 l -19.882813,0 c -2.753906,0 -4.996093,-2.242187 -4.996093,-4.996094 l 0,-2.507812 c 0,-2.753906 2.242187,-4.996094 4.996093,-4.996094 z" />
  <path
     style="fill:#d0a444;fill-opacity:1"
     inkscape:connector-curvature="0"
     id="path3177"
     d="m 76.527344,79.5 2.460937,0 c 1.378907,0 2.507813,1.113281 2.507813,2.507812 0,1.375 -1.128906,2.488282 -2.507813,2.488282 l -2.460937,0 c -1.378906,0 -2.503906,-1.113282 -2.503906,-2.488282 0,-1.394531 1.125,-2.507812 2.503906,-2.507812 z" />
  <path
     style="fill:#d0a444;fill-opacity:1"
     inkscape:connector-curvature="0"
     id="path3179"
     d="m 74.09375,77.304688 2.476562,0 c 0.691407,0 1.261719,0.570312 1.261719,1.257812 l 0,2.492188 c 0,0.6875 -0.570312,1.261718 -1.261719,1.261718 l -2.476562,0 c -0.6875,0 -1.242188,-0.574218 -1.242188,-1.261718 l 0,-2.492188 c 0,-0.6875 0.554688,-1.257812 1.242188,-1.257812 z" />
</svg>
