
<svg xmlns="http://www.w3.org/2000/svg" xmlns:xlink="http://www.w3.org/1999/xlink" width="128px" height="128px" viewBox="0 0 128 128" version="1.1">
<g id="surface1">
<path style=" stroke:none;fill-rule:nonzero;fill:rgb(91.372549%,69.019608%,50.196078%);fill-opacity:1;" d="M 18 16 C 15.070312 16 12 19.023438 12 22 L 12 24 L 6 24 C 3.058594 24 0 26.992188 0 30 L 0 106 C 0 110 2 112 6 112 L 122 112 C 125.136719 112 128 109.285156 128 106 L 128 40 C 128 36.988281 125.089844 34 122 34 L 116 34 L 116 22 C 116 19.078125 113.09375 16 110 16 Z M 18 16 "/>
<path style=" stroke:none;fill-rule:nonzero;fill:rgb(0%,0%,0%);fill-opacity:0.321569;" d="M 18 16 C 15.070312 16 12 19.023438 12 22 L 12 24 L 6 24 C 3.058594 24 0 26.992188 0 30 L 0 106 C 0 110 2 112 6 112 L 122 112 C 125.136719 112 128 109.285156 128 106 L 128 40 C 128 36.988281 125.089844 34 122 34 L 116 34 L 116 22 C 116 19.078125 113.09375 16 110 16 Z M 6 28 L 74 28 C 75.179688 28 76 29.03125 76 30 L 76 38 L 122 38 C 123.011719 38 124 39.015625 124 40 L 124 106 C 124 107.042969 123.042969 108 122 108 L 6 108 C 5.070312 108 4 107.207031 4 106 L 4 30 C 4 29.015625 5.03125 28 6 28 Z M 6 28 "/>
<path style=" stroke:none;fill-rule:nonzero;fill:rgb(0%,0%,0%);fill-opacity:0.321569;" d="M 61 50 C 50.765625 50 40 60.765625 40 74 C 40 87.234375 50.765625 98 61 98 C 77.234375 98 88 87.234375 88 74 C 88 60.765625 77.234375 50 64 50 Z M 65.949219 53.375 C 68.1875 53.582031 70.355469 54.09375 72.324219 54.949219 C 72.171875 55.140625 72.054688 55.304688 71.949219 55.625 C 71.34375 57.445312 70.4375 56.578125 71.5 58.851562 C 72.5625 61.121094 73.445312 61.710938 73.75 60.648438 C 74.054688 59.589844 72.988281 58.09375 74.199219 58.699219 C 75.414062 59.304688 76.308594 58.535156 75.398438 59.902344 C 74.492188 61.265625 74.511719 62.003906 73.449219 61.699219 C 72.390625 61.394531 72.410156 63.496094 71.351562 63.800781 C 70.289062 64.105469 69.925781 63.34375 69.925781 64.101562 C 69.925781 64.859375 70.527344 64.164062 70.375 65.375 C 70.328125 65.746094 70.34375 65.8125 70.300781 65.976562 C 69.304688 65.691406 68.859375 65.53125 68.125 65.820312 C 67.367188 66.125 66.476562 68.070312 66.476562 68.070312 C 67.421875 69.019531 67.859375 69.699219 68.199219 70.023438 C 67.988281 70.128906 67.734375 70.171875 67.523438 70.324219 C 66.011719 71.382812 64.828125 71.582031 64.375 73.097656 C 63.921875 74.613281 64.074219 73.226562 64.074219 75.046875 C 64.074219 76.867188 63.617188 75.628906 64.523438 77.296875 C 65.433594 78.964844 67.664062 79.761719 68.726562 80.671875 C 69.785156 81.582031 70.878906 78.695312 73 81.421875 C 75.121094 84.148438 75.257812 83.058594 74.5 84.574219 C 73.742188 86.089844 73.003906 86.59375 72.699219 87.199219 C 72.398438 87.804688 73.289062 89.894531 74.351562 90.347656 C 74.371094 90.347656 74.402344 90.347656 74.425781 90.347656 C 74.367188 90.476562 74.332031 90.59375 74.273438 90.722656 C 72.902344 91.347656 71.21875 92.207031 70.898438 92.296875 C 70.148438 92.515625 67.503906 92.960938 65.574219 93.496094 C 65.332031 93.566406 65.144531 93.566406 65.050781 93.574219 C 65.289062 93.316406 67.183594 92.324219 68.125 91.777344 C 69.410156 91.023438 68.050781 91.101562 68.050781 91.101562 C 68.050781 91.101562 66.003906 90.875 61.824219 90.875 C 59.734375 90.875 58.832031 90.96875 58.375 91.101562 C 58.148438 91.167969 58.035156 91.238281 57.925781 91.328125 C 57.816406 91.421875 57.738281 91.519531 57.550781 91.625 C 56.800781 92.054688 57.988281 92.503906 57.023438 92.824219 C 56.300781 93.066406 56.21875 92.824219 55.601562 92.375 C 56.039062 91.933594 56.648438 91.40625 57.398438 90.5 C 58.765625 88.847656 59.195312 89.148438 59.648438 87.648438 C 60.105469 86.148438 55.824219 86.597656 55.824219 85.699219 C 55.824219 84.796875 55.089844 84.199219 53.726562 83.597656 C 52.359375 83 53.289062 82.699219 51.773438 82.25 C 50.261719 81.800781 48.554688 84.5 48.101562 83.597656 C 47.644531 82.699219 49.523438 82.699219 49.523438 81.648438 C 49.523438 80.625 47.363281 82.421875 46.976562 81.125 C 46.964844 81.074219 46.90625 81.074219 46.898438 81.046875 C 46.863281 80.855469 46.886719 80.746094 46.898438 80.597656 C 46.996094 79.519531 48.246094 79.097656 48.773438 78.046875 C 49.382812 76.847656 49.066406 78.949219 49.824219 80 C 50.582031 81.046875 50.28125 78.648438 49.824219 77.296875 C 49.371094 75.949219 50.113281 75.949219 51.175781 74.148438 C 52.234375 72.347656 52.226562 71.296875 52.226562 69.949219 C 52.226562 68.597656 52.960938 68.449219 54.476562 67.097656 C 55.167969 66.480469 55.714844 65.941406 56.125 65.449219 C 56.222656 65.398438 56.324219 65.398438 56.425781 65.371094 C 58.03125 64.726562 58.707031 63.761719 60.101562 60.871094 C 61.492188 57.976562 59.554688 60.679688 59.125 60.570312 C 58.695312 60.464844 58.074219 59.703125 56.574219 58.84375 C 56.265625 58.667969 55.988281 58.582031 55.75 58.546875 L 58.523438 53.972656 C 59.414062 53.734375 60.367188 53.566406 61.300781 53.445312 C 61.640625 55.386719 61.449219 57.199219 61.449219 57.199219 C 61.449219 57.199219 60.925781 57.820312 60.925781 58.246094 C 60.925781 58.675781 63.796875 54.710938 64.226562 54.496094 C 64.652344 54.28125 65.734375 55.632812 65.949219 53.597656 C 65.960938 53.480469 65.9375 53.476562 65.949219 53.371094 Z M 70 61.476562 C 69.847656 61.425781 69.664062 61.476562 69.476562 61.554688 C 69.476562 62.082031 69.269531 62.46875 69.175781 62.679688 C 69.117188 62.582031 68.949219 62.453125 68.949219 62.453125 C 68.722656 62.871094 68.234375 63.242188 68.726562 63.128906 C 69.21875 63.019531 69.589844 63.320312 69.25 62.902344 C 69.183594 62.824219 69.214844 62.855469 69.175781 62.824219 C 69.238281 62.871094 69.359375 62.902344 69.625 62.902344 C 69.921875 62.902344 70.082031 62.902344 70.300781 62.902344 C 69.933594 63.171875 69.535156 63.289062 70.074219 63.429688 C 70.792969 63.617188 71.125 63.65625 71.125 63.507812 C 71.125 63.355469 70.898438 62.832031 70.898438 62.832031 C 71.039062 62.773438 71.171875 62.703125 71.050781 62.457031 C 70.824219 62.003906 70.460938 61.550781 70 61.480469 Z M 81.476562 62.75 C 81.851562 63.332031 82.207031 63.929688 82.523438 64.550781 C 82.316406 65.761719 81.785156 66.574219 82.675781 66.574219 C 82.921875 66.574219 83.144531 66.519531 83.351562 66.496094 C 83.378906 66.570312 83.398438 66.652344 83.425781 66.722656 C 81.910156 66.722656 81.183594 67.175781 80.425781 67.023438 C 79.667969 66.867188 77.5625 66.734375 78.925781 65.371094 C 79.722656 64.574219 80.71875 63.308594 81.476562 62.746094 Z M 72.023438 65.527344 C 72.164062 65.570312 72.285156 65.714844 72.398438 65.972656 C 72.855469 67.035156 73.605469 67.921875 73 68.074219 C 72.394531 68.222656 72.101562 68.375 72.101562 68.375 C 72.101562 68.375 74.199219 69.738281 74.351562 68.222656 C 74.5 66.707031 73.75 65.824219 73.75 65.824219 C 73.75 65.824219 74.796875 66.867188 75.101562 67.472656 C 75.402344 68.078125 75.390625 67.472656 76.148438 68.222656 C 76.90625 68.980469 76.738281 65.210938 77.800781 66.273438 C 78.859375 67.335938 79.527344 67.316406 79.226562 68.074219 C 78.921875 68.832031 81.175781 67.15625 81.175781 68.671875 C 81.175781 70.132812 82.105469 70.726562 80.273438 71.449219 C 79.582031 71.402344 79.03125 71.285156 78.925781 71.074219 C 78.621094 70.46875 76.898438 70.921875 76.898438 70.921875 C 72.367188 69.789062 70.398438 69.429688 69.101562 69.648438 C 69.125 69.601562 69.148438 69.601562 69.175781 69.570312 C 69.839844 68.375 71.085938 66.71875 70.675781 66.121094 C 71.253906 65.789062 71.707031 65.421875 72.023438 65.519531 Z M 84.773438 73.101562 C 84.789062 73.402344 84.773438 73.691406 84.773438 74 C 84.773438 74.851562 84.722656 75.722656 84.625 76.550781 C 83.261719 75.335938 81.324219 75.351562 81.324219 75.351562 C 81.324219 75.351562 82.507812 74.007812 84.175781 73.398438 C 84.382812 73.320312 84.605469 73.222656 84.773438 73.101562 Z M 84.773438 73.101562 "/>
</g>
</svg>
