<?xml version="1.0" encoding="UTF-8" standalone="no"?>
<svg
   xmlns:dc="http://purl.org/dc/elements/1.1/"
   xmlns:cc="http://creativecommons.org/ns#"
   xmlns:rdf="http://www.w3.org/1999/02/22-rdf-syntax-ns#"
   xmlns:svg="http://www.w3.org/2000/svg"
   xmlns="http://www.w3.org/2000/svg"
   xmlns:sodipodi="http://sodipodi.sourceforge.net/DTD/sodipodi-0.dtd"
   xmlns:inkscape="http://www.inkscape.org/namespaces/inkscape"
   width="128"
   height="128"
   viewBox="0 0 128 128"
   id="svg3361"
   version="1.1"
   inkscape:version="0.48.4 r9939"
   sodipodi:docname="network-server.svg">
  <metadata
     id="metadata3381">
    <rdf:RDF>
      <cc:Work
         rdf:about="">
        <dc:format>image/svg+xml</dc:format>
        <dc:type
           rdf:resource="http://purl.org/dc/dcmitype/StillImage" />
      </cc:Work>
    </rdf:RDF>
  </metadata>
  <defs
     id="defs3379" />
  <sodipodi:namedview
     pagecolor="#ffffff"
     bordercolor="#666666"
     borderopacity="1"
     objecttolerance="10"
     gridtolerance="10"
     guidetolerance="10"
     inkscape:pageopacity="0"
     inkscape:pageshadow="2"
     inkscape:window-width="678"
     inkscape:window-height="480"
     id="namedview3377"
     showgrid="false"
     inkscape:zoom="1.84375"
     inkscape:cx="108.47458"
     inkscape:cy="56.949153"
     inkscape:window-x="0"
     inkscape:window-y="0"
     inkscape:window-maximized="0"
     inkscape:current-layer="svg3361" />
  <g
     style="fill:#dcdcdc;stroke:#777"
     id="g3363">
    <path
       d="M 14.811523 28.5 L 17.188477 28.5 C 17.359375 28.5 17.5 28.492188 17.5 28.484375 L 17.5 23.520508 C 17.5 23.507812 17.359375 23.5 17.188477 23.5 L 14.811523 23.5 C 14.640625 23.5 14.5 23.507812 14.5 23.520508 L 14.5 28.484375 C 14.5 28.492188 14.640625 28.5 14.811523 28.5 Z "
       transform="scale(4)"
       id="path3365" />
    <path
       d="M 3.766602 27.5 C 3.609375 27.5 3.5 27.604492 3.5 27.737305 L 3.5 30.265625 C 3.5 30.395508 3.609375 30.5 3.766602 30.5 L 13.15625 30.5 C 13.30957 30.5 13.445312 30.395508 13.445312 30.265625 L 13.445312 27.737305 C 13.445312 27.604492 13.30957 27.5 13.15625 27.5 Z M 18.916016 27.5 C 18.716797 27.5 18.554688 27.632812 18.554688 27.807617 L 18.554688 30.192383 C 18.554688 30.367188 18.716797 30.5 18.916016 30.5 L 28.135742 30.5 C 28.338867 30.5 28.5 30.367188 28.5 30.192383 L 28.5 27.807617 C 28.5 27.632812 28.338867 27.5 28.135742 27.5 Z "
       transform="scale(4)"
       id="path3367" />
    <path
       d="M 19.5 30.977539 L 19.5 27.018555 C 19.5 26.731445 19.348633 26.5 19.158203 26.5 L 12.841797 26.5 C 12.651367 26.5 12.5 26.731445 12.5 27.018555 L 12.5 30.977539 C 12.5 31.268555 12.651367 31.5 12.841797 31.5 L 19.158203 31.5 C 19.348633 31.5 19.5 31.268555 19.5 30.977539 Z "
       transform="scale(4)"
       id="path3369" />
  </g>
  <path
     inkscape:connector-curvature="0"
     id="path3373"
     d="M 17.38672,86 C 15.55078,85.847656 14,84.355468 14,82.753908 L 14,21.26172 C 14,19.554688 15.785156,18 17.75,18 l 92.5,0 c 1.96484,0 3.75,1.554688 3.75,3.26172 l 0,52.570312 c 0,1.703124 -2.87109,4.156248 -4.83984,4.156248 l -33.85938,-0.0508 0,4.289064 c 0,1.691404 -1.644532,3.773436 -3.597656,3.773436 L 17.75,86 c -0.117188,0 -0.234376,0 -0.36328,0 z"
     style="fill:#e9a439;stroke:#e9a439;stroke-width:4;fill-opacity:1;stroke-opacity:1" />
  <path
     inkscape:connector-curvature="0"
     id="path3375"
     d="M 6.19922,26 C 3.921876,26.152344 2,27.644532 2,29.246092 L 2,90.73828 C 2,92.445312 4.210936,94 6.652344,94 L 121.34766,94 C 123.78906,94 126,92.445312 126,90.73828 l 0,-52.570312 c 0,-1.703124 -3.5625,-4.156248 -6,-4.156248 l -41.98828,0.05078 0,-4.289064 C 78.01172,28.082032 75.972656,26 73.55078,26 L 6.652344,26 C 6.503908,26 6.359376,26 6.19922,26 z"
     style="fill:#f5c14e;stroke:#e9a439;stroke-width:4;stroke-opacity:1;fill-opacity:1" />
</svg>
