<svg version="1.1" viewBox="0 0 48 48" xmlns="http://www.w3.org/2000/svg">
 <g transform="translate(0,-1004.3622)">
  <path d="m5.34375 1012.3544c-0.05225 0-0.10425 0-0.15625 0.01-0.676 0.144-1.2025 0.809-1.1875 1.5v28c0 0.785 0.715 1.5 1.5 1.5h37c0.785 0 1.5-0.715 1.5-1.5v-24.9687c0-0.785-0.715-1.5-1.5-1.5h-14.5v-1.5313c0-0.785-0.715-1.5-1.5-1.5h-21c-0.052-0.01-0.104-0.01-0.15625-0.01zm18.65625 9.0078v1a7.0000002 7.0000002 0 0 0-6.0625 3.5 7.0000002 7.0000002 0 0 0 0 7 7.0000002 7.0000002 0 0 0 6.0625 3.5h8v1h-8a7.9999994 7.9999994 0 0 1-6.927734-4 7.9999994 7.9999994 0 0 1 0-8 7.9999994 7.9999994 0 0 1 6.927734-4zm0.146484 2.002a5.9999997 5.9999997 0 0 1 1.853516 0.3535v1.0683a5.0000001 5.0000001 0 0 0-0.08594-0.043 5.0000001 5.0000001 0 0 0-5.449218 1.0839 5.0000001 5.0000001 0 0 0-1.083985 5.4493 5.0000001 5.0000001 0 0 0 4.619143 3.086h8v1h-8a5.9999997 5.9999997 0 0 1-5.542969-3.7031 5.9999997 5.9999997 0 0 1 1.300781-6.5391 5.9999997 5.9999997 0 0 1 4.388672-1.7558zm-0.146484 1.998a3.9999996 3.9999996 0 0 1 3.871094 3h-1.042969a3.0000004 3.0000004 0 0 0-1.679687-1.7715 3.0000004 3.0000004 0 0 0-3.269532 0.6504 3.0000004 3.0000004 0 0 0-0.65039 3.2695 3.0000004 3.0000004 0 0 0 2.771484 1.8516h8v1h-8a3.9999996 3.9999996 0 0 1-4-4 3.9999996 3.9999996 0 0 1 4-4z" style="-inkscape-stroke:none;color:#000000;fill:#8d6e63;font-variation-settings:normal;stop-color:#000000"/>
 </g>
</svg>
