<svg version="1.1" viewBox="0 0 48 48" xmlns="http://www.w3.org/2000/svg">
 <g transform="translate(0,-1004.3622)">
  <path d="m5.34375 1012.3622c-0.05225 0-0.1042504 0-0.15625 0.01-0.6759947 0.144-1.2024999 0.8091-1.1875 1.4999v27.9902c0 0.7848 0.7150061 1.4999 1.5 1.4999h37c0.784994 0 1.5-0.7151 1.5-1.4999v-24.9611c0-0.7848-0.715006-1.4979-1.5-1.4979h-14.5v-1.5312c0-0.7848-0.715007-1.4999-1.5-1.4999h-21c-0.052-0.01-0.1040004-0.01-0.15625-0.01zm13.646484 9.9993c0.122205 0 0.243413 0.068 0.289063 0.207l1.720703 4.7926h6l1.720703-4.7926c0.09131-0.2772 0.488818-0.2772 0.580078 0l1.628907 4.7926 1.041015 3.3162c0.08165 0.248-0.0069 0.5205-0.220703 0.6738l-7.75 5.0094-7.748047-5.0094c-0.213838-0.1533-0.304306-0.4258-0.222656-0.6738l1.042969-3.3162 1.626953-4.7926c0.04563-0.1388 0.168811-0.207 0.291015-0.207zm-1.917968 4.9996 6.927734 8.9994-3-8.9994zm6.927734 8.9994 6.929688-8.9994h-3.929688z" style="-inkscape-stroke:none;color:#000000;fill:#66bb6a;font-variation-settings:normal;stop-color:#000000"/>
 </g>
</svg>
