<?xml version="1.0" encoding="UTF-8" standalone="no"?>
<!-- Created with Inkscape (http://www.inkscape.org/) -->

<svg
   xmlns:dc="http://purl.org/dc/elements/1.1/"
   xmlns:cc="http://creativecommons.org/ns#"
   xmlns:rdf="http://www.w3.org/1999/02/22-rdf-syntax-ns#"
   xmlns:svg="http://www.w3.org/2000/svg"
   xmlns="http://www.w3.org/2000/svg"
   xmlns:sodipodi="http://sodipodi.sourceforge.net/DTD/sodipodi-0.dtd"
   xmlns:inkscape="http://www.inkscape.org/namespaces/inkscape"
   width="256"
   height="256"
   id="svg2"
   version="1.1"
   inkscape:version="0.91 r"
   sodipodi:docname="red-folder-art.svg"
   inkscape:export-filename="/media/Data/Main/Visuals/Icons/Numix/Desktop/repos/numix-wiki/Gjorgi/Numix-folders/48/New/folder-144.png"
   inkscape:export-xdpi="270"
   inkscape:export-ydpi="270">
  <defs
     id="defs4" />
  <sodipodi:namedview
     id="base"
     pagecolor="#ffffff"
     bordercolor="#666666"
     borderopacity="1.0"
     inkscape:pageopacity="0.0"
     inkscape:pageshadow="2"
     inkscape:zoom="2.6377683"
     inkscape:cx="94.770875"
     inkscape:cy="109.5225"
     inkscape:document-units="px"
     inkscape:current-layer="layer1"
     showgrid="true"
     inkscape:window-width="1280"
     inkscape:window-height="998"
     inkscape:window-x="0"
     inkscape:window-y="0"
     inkscape:window-maximized="1"
     showguides="true"
     inkscape:guide-bbox="true">
    <inkscape:grid
       type="xygrid"
       id="grid2985"
       empspacing="5"
       visible="true"
       enabled="true"
       snapvisiblegridlinesonly="true" />
  </sodipodi:namedview>
  <metadata
     id="metadata7">
    <rdf:RDF>
      <cc:Work
         rdf:about="">
        <dc:format>image/svg+xml</dc:format>
        <dc:type
           rdf:resource="http://purl.org/dc/dcmitype/StillImage" />
        <dc:title />
      </cc:Work>
    </rdf:RDF>
  </metadata>
  <g
     inkscape:label="Layer 1"
     inkscape:groupmode="layer"
     id="layer1"
     transform="translate(0,-796.3622)">
    <path
       style="fill:#d32f2f;fill-opacity:1;stroke:none"
       d="m 32,836.36246 188,0 c 8,0 12,3.9988 12,11.99672 l 0,27.99272 c 0,4.4308 -3.7896,3.9988 -8,3.9988 l -192,0 c -4.2104,0 -8,-3.5672 -8,-7.998 l 0,-35.99024 z"
       id="path3811"
       inkscape:connector-curvature="0"
       sodipodi:nodetypes="csssssscc" />
    <path
       style="opacity:0.02999998;fill:#000000;fill-opacity:1;stroke:none"
       d="m 24,860.36278 0,19.99952 208,0 0,-19.99952 z"
       id="path3807"
       inkscape:connector-curvature="0" />
    <path
       style="fill:#d32f2f;fill-opacity:1;stroke:none"
       d="m 24,852.36238 0,-19.99992 c 0,-8 3.636364,-12 7.272728,-12 l 41.454544,0 c 3.636364,0 7.272728,4 7.272728,12 l 0,19.99992 z"
       id="rect3760"
       inkscape:connector-curvature="0"
       sodipodi:nodetypes="csssscc" />
    <rect
       style="fill:#ef5350;fill-opacity:1;stroke:none"
       id="rect2990"
       width="240"
       height="160"
       x="8"
       y="868.36218"
       rx="16"
       ry="13.333333" />
    <path
       style="opacity:0.1;fill:#ffffff;fill-opacity:1;stroke:none"
       d="m 24,868.3623 c -8.864,0 -16,5.9884 -16,13.3752 l 0,8 c 0,-7.3868 7.136,-13.3752 16,-13.3752 l 208,0 c 8.864,0 16,5.9884 16,13.3752 l 0,-8 c 0,-7.3868 -7.136,-13.3752 -16,-13.3752 l -208,0 z"
       id="rect3004"
       inkscape:connector-curvature="0" />
    <path
       style="opacity:0.05;fill:#000000;fill-opacity:1;stroke:none"
       d="m 80,836.36246 0,7.99992 8,0 132,0 c 8,0 12,4.002 12,12 l 0,-8 c 0,-7.99792 -4,-11.99992 -12,-11.99992 l -132,0 z"
       id="path3781"
       inkscape:connector-curvature="0"
       sodipodi:nodetypes="cccscsscc" />
    <path
       style="opacity:0.05;fill:#000000;fill-opacity:1;stroke:none"
       d="m 31.25,820.36246 c -3.636364,0 -7.25,4 -7.25,12 l 0,8 c 0,-8 3.613636,-12 7.25,-12 l 41.5,0 c 3.636364,0 7.25,4 7.25,12 l 0,-8 c 0,-8 -3.613636,-12 -7.25,-12 l -41.5,0 z"
       id="path3801"
       inkscape:connector-curvature="0" />
    <path
       style="fill:#ab3634;fill-opacity:1;stroke:none;opacity:1.0"
       d="m 122,912.3623 c -23.963184,0.56 -42,17.3584 -42,34.5 0,17.14316 12,16.99996 18,16.99996 6,0 12,-0.184 12,11.24996 0,11.4272 6,17.25 18,17.25 42,0 48,-28.57196 48,-39.99996 0,-17.14156 -18,-39.99996 -54,-39.99996 z m -12,8 c 3.31371,0 6,2.6864 6,6 0,3.3136 -2.68629,6 -6,6 -3.31371,0 -6,-2.6864 -6,-6 0,-3.3136 2.68629,-6 6,-6 z m 24,0 c 3.31371,0 6,2.6864 6,6 0,3.3136 -2.68629,6 -6,6 -3.31371,0 -6,-2.6864 -6,-6 0,-3.3136 2.68629,-6 6,-6 z m 24,16 c 3.31371,0 6,2.6864 6,6 0,3.3136 -2.68629,5.99996 -6,5.99996 -3.31371,0 -6,-2.68636 -6,-5.99996 0,-3.3136 2.68629,-6 6,-6 z m -64,4 c 3.313708,0 6,2.6864 6,6 0,3.31356 -2.686292,5.99996 -6,5.99996 -3.313708,0 -6,-2.6864 -6,-5.99996 0,-3.3136 2.686292,-6 6,-6 z m 36,23.99996 c 5.52285,0 10,4.4772 10,9.99996 0,5.5228 -4.47715,10 -10,10 -5.52285,0 -10,-4.4772 -10,-10 0,-5.52276 4.47715,-9.99996 10,-9.99996 z"
       id="path3843"
       inkscape:connector-curvature="0" />
  </g>
</svg>
