<?xml version="1.0" encoding="UTF-8" standalone="no"?>
<!-- Created with Inkscape (http://www.inkscape.org/) -->

<svg
   xmlns:dc="http://purl.org/dc/elements/1.1/"
   xmlns:cc="http://creativecommons.org/ns#"
   xmlns:rdf="http://www.w3.org/1999/02/22-rdf-syntax-ns#"
   xmlns:svg="http://www.w3.org/2000/svg"
   xmlns="http://www.w3.org/2000/svg"
   xmlns:xlink="http://www.w3.org/1999/xlink"
   xmlns:sodipodi="http://sodipodi.sourceforge.net/DTD/sodipodi-0.dtd"
   xmlns:inkscape="http://www.inkscape.org/namespaces/inkscape"
   width="256"
   height="256"
   id="svg2"
   version="1.1"
   inkscape:version="0.48.5 r10040"
   sodipodi:docname="red-folder-steam.svg"
   inkscape:export-filename="/media/Data/Main/Visuals/Icons/Numix/Desktop/repos/numix-wiki/Gjorgi/Numix-folders/48/New/folder-144.png"
   inkscape:export-xdpi="270"
   inkscape:export-ydpi="270">
  <defs
     id="defs4">
    <linearGradient
       inkscape:collect="always"
       id="linearGradient3958">
      <stop
         style="stop-color:#000000;stop-opacity:1;"
         offset="0"
         id="stop3960" />
      <stop
         style="stop-color:#000000;stop-opacity:0;"
         offset="1"
         id="stop3962" />
    </linearGradient>
    <radialGradient
       inkscape:collect="always"
       xlink:href="#linearGradient3958"
       id="radialGradient3964"
       cx="32.5"
       cy="56.5"
       fx="32.5"
       fy="56.5"
       r="33.5"
       gradientTransform="matrix(1,0,0,0.10447761,0,50.597015)"
       gradientUnits="userSpaceOnUse" />
  </defs>
  <sodipodi:namedview
     id="base"
     pagecolor="#ffffff"
     bordercolor="#666666"
     borderopacity="1.0"
     inkscape:pageopacity="0.0"
     inkscape:pageshadow="2"
     inkscape:zoom="1.8651839"
     inkscape:cx="63.054356"
     inkscape:cy="114.75659"
     inkscape:document-units="px"
     inkscape:current-layer="layer1"
     showgrid="true"
     inkscape:window-width="1280"
     inkscape:window-height="998"
     inkscape:window-x="0"
     inkscape:window-y="0"
     inkscape:window-maximized="1"
     showguides="true"
     inkscape:guide-bbox="true">
    <inkscape:grid
       type="xygrid"
       id="grid2985"
       empspacing="5"
       visible="true"
       enabled="true"
       snapvisiblegridlinesonly="true" />
  </sodipodi:namedview>
  <metadata
     id="metadata7">
    <rdf:RDF>
      <cc:Work
         rdf:about="">
        <dc:format>image/svg+xml</dc:format>
        <dc:type
           rdf:resource="http://purl.org/dc/dcmitype/StillImage" />
        <dc:title />
      </cc:Work>
    </rdf:RDF>
  </metadata>
  <g
     inkscape:label="Layer 1"
     inkscape:groupmode="layer"
     id="layer1"
     transform="translate(0,-796.3622)">
    <path
       style="fill:#d32f2f;fill-opacity:1;stroke:none"
       d="m 32,836.36246 188,0 c 8,0 12,3.9988 12,11.99672 l 0,27.99272 c 0,4.4308 -3.7896,3.9988 -8,3.9988 l -192,0 c -4.2104,0 -8,-3.5672 -8,-7.998 l 0,-35.99024 z"
       id="path3811"
       inkscape:connector-curvature="0"
       sodipodi:nodetypes="csssssscc" />
    <path
       style="opacity:0.02999998;fill:#000000;fill-opacity:1;stroke:none"
       d="m 24,860.36278 0,19.99952 208,0 0,-19.99952 z"
       id="path3807"
       inkscape:connector-curvature="0" />
    <path
       style="fill:#d32f2f;fill-opacity:1;stroke:none"
       d="m 24,852.36238 0,-19.99992 c 0,-8 3.636364,-12 7.272728,-12 l 41.454544,0 c 3.636364,0 7.272728,4 7.272728,12 l 0,19.99992 z"
       id="rect3760"
       inkscape:connector-curvature="0"
       sodipodi:nodetypes="csssscc" />
    <rect
       style="fill:#ef5350;fill-opacity:1;stroke:none"
       id="rect2990"
       width="240"
       height="160"
       x="8"
       y="868.36218"
       rx="16"
       ry="13.333333" />
    <path
       style="opacity:0.1;fill:#ffffff;fill-opacity:1;stroke:none"
       d="m 24,868.3623 c -8.864,0 -16,5.9884 -16,13.3752 l 0,8 c 0,-7.3868 7.136,-13.3752 16,-13.3752 l 208,0 c 8.864,0 16,5.9884 16,13.3752 l 0,-8 c 0,-7.3868 -7.136,-13.3752 -16,-13.3752 l -208,0 z"
       id="rect3004"
       inkscape:connector-curvature="0" />
    <path
       style="opacity:0.05;fill:#000000;fill-opacity:1;stroke:none"
       d="m 80,836.36246 0,7.99992 8,0 132,0 c 8,0 12,4.002 12,12 l 0,-8 c 0,-7.99792 -4,-11.99992 -12,-11.99992 l -132,0 z"
       id="path3781"
       inkscape:connector-curvature="0"
       sodipodi:nodetypes="cccscsscc" />
    <path
       style="opacity:0.05;fill:#000000;fill-opacity:1;stroke:none"
       d="m 31.25,820.36246 c -3.636364,0 -7.25,4 -7.25,12 l 0,8 c 0,-8 3.613636,-12 7.25,-12 l 41.5,0 c 3.636364,0 7.25,4 7.25,12 l 0,-8 c 0,-8 -3.613636,-12 -7.25,-12 l -41.5,0 z"
       id="path3801"
       inkscape:connector-curvature="0" />
    <path
       inkscape:connector-curvature="0"
       style="fill:#460a0a;fill-opacity:1;fill-rule:nonzero;stroke:none;opacity:0.4"
       d="m 159.02227,896.3555 c -13.12878,0 -23.86477,10.958 -23.86477,24.4172 0,4.5168 1.29824,8.7844 3.40926,12.4356 l 0,26.45236 c -2.60018,0.5552 -5.00237,1.7672 -7.03158,3.3916 l -23.65167,-10.8524 c 0,-9.59876 -7.67274,-17.40996 -17.046238,-17.40996 -9.356736,0 -17.046264,7.8064 -17.046264,17.40996 0,9.6176 7.685336,17.6348 17.046264,17.6348 3.796264,0 7.383396,-1.4388 10.227748,-3.6172 l 23.86475,11.07756 c 0.246,9.4016 7.83861,16.9568 17.04625,16.9568 9.3735,0 17.04625,-7.792 17.04625,-17.4088 0,-4.0064 -1.38734,-7.66676 -3.62233,-10.62556 l 0.21312,0 12.57162,-22.83556 c 0.0897,-0.096 0.12388,-0.188 0.21312,-0.22 8.41406,-3.8008 14.48932,-12.392 14.48932,-22.3828 0,-13.4456 -10.75275,-24.418 -23.86476,-24.418 z m 0,8.1384 c 8.81966,0 15.76778,7.236 15.76778,16.2788 0,9.0596 -6.95232,16.278 -15.76778,16.278 -8.83224,0 -15.76779,-7.2184 -15.76779,-16.278 0,-9.0428 6.93555,-16.2788 15.76779,-16.2788 z m 0,5.8796 c -5.63921,0 -10.22776,4.59 -10.22776,10.3992 0,5.7864 4.58855,10.4 10.22776,10.4 5.656,0 10.22775,-4.608 10.22775,-10.4 0,-5.8056 -4.57175,-10.3992 -10.22775,-10.3992 z m -68.185002,31.4264 c 5.59868,0 8.79142,2.3168 9.801592,7.00796 l -5.9662,-2.71436 c -3.868564,-1.6872 -8.374108,0.096 -10.014668,4.06996 -1.640576,3.968 0.17984,8.5052 4.048476,10.1756 l 4.474648,2.2596 c -0.747024,0.124 -1.490008,0.22 -2.343848,0.22 -6.818256,0 -10.22776,-3.6172 -10.22776,-10.624 0,-6.99036 3.409504,-10.40116 10.22776,-10.40116 z m 51.138752,23.28716 c 6.31053,0 11.29314,5.2868 11.29314,11.75596 0,6.4688 -4.98261,11.5304 -11.29314,11.5304 -5.12451,0 -9.4509,-3.3796 -10.86699,-8.14 l 8.09698,3.6192 c 3.86855,1.6864 8.37409,-0.312 10.01467,-4.2968 1.64056,-3.9668 -0.17992,-8.50396 -4.04849,-10.17316 l -7.45773,-3.3924 c 1.30641,-0.5392 2.76029,-0.8976 4.26156,-0.8976 z"
       id="path3447" />
  </g>
</svg>
