<?xml version="1.0" encoding="UTF-8" standalone="no"?>
<svg
   xmlns:dc="http://purl.org/dc/elements/1.1/"
   xmlns:cc="http://creativecommons.org/ns#"
   xmlns:rdf="http://www.w3.org/1999/02/22-rdf-syntax-ns#"
   xmlns:svg="http://www.w3.org/2000/svg"
   xmlns="http://www.w3.org/2000/svg"
   xmlns:sodipodi="http://sodipodi.sourceforge.net/DTD/sodipodi-0.dtd"
   xmlns:inkscape="http://www.inkscape.org/namespaces/inkscape"
   width="32"
   height="32"
   viewBox="0 0 32 32"
   id="svg3075"
   version="1.1"
   inkscape:version="0.48.5 r10040"
   sodipodi:docname="folder-templates.svg">
  <metadata
     id="metadata3119">
    <rdf:RDF>
      <cc:Work
         rdf:about="">
        <dc:format>image/svg+xml</dc:format>
        <dc:type
           rdf:resource="http://purl.org/dc/dcmitype/StillImage" />
      </cc:Work>
    </rdf:RDF>
  </metadata>
  <defs
     id="defs3117" />
  <sodipodi:namedview
     pagecolor="#ffffff"
     bordercolor="#666666"
     borderopacity="1"
     objecttolerance="10"
     gridtolerance="10"
     guidetolerance="10"
     inkscape:pageopacity="0"
     inkscape:pageshadow="2"
     inkscape:window-width="672"
     inkscape:window-height="480"
     id="namedview3115"
     showgrid="false"
     inkscape:zoom="7.375"
     inkscape:cx="6.3728814"
     inkscape:cy="16"
     inkscape:window-x="0"
     inkscape:window-y="0"
     inkscape:window-maximized="0"
     inkscape:current-layer="svg3075" />
  <path
     style="font-size:medium;font-style:normal;font-variant:normal;font-weight:normal;font-stretch:normal;text-indent:0;text-align:start;text-decoration:none;line-height:normal;letter-spacing:normal;word-spacing:normal;text-transform:none;direction:ltr;block-progression:tb;writing-mode:lr-tb;text-anchor:start;baseline-shift:baseline;color:#000000;fill:#e9b080;fill-opacity:1;fill-rule:nonzero;stroke:none;stroke-width:1;marker:none;visibility:visible;display:inline;overflow:visible;enable-background:accumulate;font-family:Sans;-inkscape-font-specification:Sans"
     d="M 4,4 C 3.5084,4 3,4.473118 3,5 L 3,6 C 2.3333333,6 2.1666667,6 1.5,6 0.5208383,6 0,6.4940338 0,7.4999996 L 0,26.5 C 0,27.531461 0.5230687,28 1.5,28 l 28.84375,0 C 31.21572,28 32,27.376781 32,26.5 L 32,9.4999996 c 0,-0.9413229 -0.425107,-1.5 -1.5,-1.5 l -2.5,0 L 28,5 C 28,4.473118 27.4916,4 27,4 z"
     id="path3004"
     inkscape:connector-curvature="0"
     sodipodi:nodetypes="ssccssssscccsss" />
  <path
     style="font-size:medium;font-style:normal;font-variant:normal;font-weight:normal;font-stretch:normal;text-indent:0;text-align:start;text-decoration:none;line-height:normal;letter-spacing:normal;word-spacing:normal;text-transform:none;direction:ltr;block-progression:tb;writing-mode:lr-tb;text-anchor:start;baseline-shift:baseline;color:#000000;fill:#000000;fill-opacity:0.32156863;fill-rule:nonzero;stroke:none;stroke-width:1;marker:none;visibility:visible;display:inline;overflow:visible;enable-background:accumulate;font-family:Sans;-inkscape-font-specification:Sans"
     d="M 4,4 C 3.5084,4 3,4.473118 3,5 L 3,6 C 2.3131965,6 2.1164647,6 1.5,6 0.5208383,6 0,6.4829852 0,7.4999996 L 0,26.5 C 0,27.503839 0.5009716,28 1.5,28 l 28.84375,0 C 31.21572,28 32,27.376781 32,26.5 L 32,9.5517763 C 32,8.5377936 31.580916,7.9999996 30.5,7.9999996 l -2.5,0 L 28,5 C 28,4.473118 27.4916,4 27,4 z m 15,2.9999996 0,2 12,0 L 31,27 1,27 1,6.9999996 z"
     id="path3784"
     inkscape:connector-curvature="0"
     sodipodi:nodetypes="ssccssssscccsssccccccc" />
  <path
     style="fill:#000000;fill-opacity:0.32156864"
     d="m 14,14 0,1 1,0 0,-1 z"
     id="path3087"
     inkscape:connector-curvature="0" />
  <path
     style="fill:#000000;fill-opacity:0.32156864"
     d="m 18,14 0,1 1,0 0,1 1,0 0,-1.332031 C 20,14 19.335938,14 19.335938,14 z"
     id="path3089"
     inkscape:connector-curvature="0" />
  <path
     style="fill:#000000;fill-opacity:0.32156864"
     d="m 16,14 0,1 1,0 0,-1 z"
     id="path3091"
     inkscape:connector-curvature="0" />
  <path
     style="fill:#000000;fill-opacity:0.32156864"
     d="m 11,16 1,0 0,-1 1,0 0,-1 -1.332031,0 C 11,14 11,14.664062 11,14.664062 z"
     id="path3093"
     inkscape:connector-curvature="0" />
  <path
     style="fill:#000000;fill-opacity:0.32156864"
     d="m 13,23 0,-1 -1,0 0,-1 -1,0 0,1.332031 C 11,23 11.664062,23 11.664062,23 z"
     id="path3097"
     inkscape:connector-curvature="0" />
  <path
     style="fill:#000000;fill-opacity:0.32156864"
     d="m 17,23 0,-1 -1,0 0,1 z"
     id="path3099"
     inkscape:connector-curvature="0" />
  <path
     style="fill:#000000;fill-opacity:0.32156864"
     d="m 15,23 0,-1 -1,0 0,1 z"
     id="path3101"
     inkscape:connector-curvature="0" />
  <path
     style="fill:#000000;fill-opacity:0.32156864"
     d="m 11,20 1,0 0,-1 -1,0 z"
     id="path3103"
     inkscape:connector-curvature="0" />
  <path
     style="fill:#000000;fill-opacity:0.32156864"
     d="m 11,18 1,0 0,-1 -1,0 z"
     id="path3105"
     inkscape:connector-curvature="0" />
  <path
     style="fill:#000000;fill-opacity:0.32156864"
     d="m 20,21 -1,0 0,1 -1,0 0,1 1.332031,0 C 20,23 20,22.335938 20,22.335938 z"
     id="path3109"
     inkscape:connector-curvature="0" />
  <path
     style="fill:#000000;fill-opacity:0.32156864"
     d="m 20,17 -1,0 0,1 1,0 z"
     id="path3111"
     inkscape:connector-curvature="0" />
  <path
     style="fill:#000000;fill-opacity:0.32156864"
     d="m 20,19 -1,0 0,1 1,0 z"
     id="path3113"
     inkscape:connector-curvature="0" />
</svg>
