<?xml version="1.0" encoding="UTF-8" standalone="no"?>
<svg
   xmlns:dc="http://purl.org/dc/elements/1.1/"
   xmlns:cc="http://creativecommons.org/ns#"
   xmlns:rdf="http://www.w3.org/1999/02/22-rdf-syntax-ns#"
   xmlns:svg="http://www.w3.org/2000/svg"
   xmlns="http://www.w3.org/2000/svg"
   xmlns:sodipodi="http://sodipodi.sourceforge.net/DTD/sodipodi-0.dtd"
   xmlns:inkscape="http://www.inkscape.org/namespaces/inkscape"
   width="32"
   height="32"
   viewBox="0 0 32 32"
   id="svg3059"
   version="1.1"
   inkscape:version="0.48.5 r10040"
   sodipodi:docname="folder-system.svg">
  <metadata
     id="metadata3073">
    <rdf:RDF>
      <cc:Work
         rdf:about="">
        <dc:format>image/svg+xml</dc:format>
        <dc:type
           rdf:resource="http://purl.org/dc/dcmitype/StillImage" />
      </cc:Work>
    </rdf:RDF>
  </metadata>
  <defs
     id="defs3071" />
  <sodipodi:namedview
     pagecolor="#ffffff"
     bordercolor="#666666"
     borderopacity="1"
     objecttolerance="10"
     gridtolerance="10"
     guidetolerance="10"
     inkscape:pageopacity="0"
     inkscape:pageshadow="2"
     inkscape:window-width="672"
     inkscape:window-height="480"
     id="namedview3069"
     showgrid="false"
     inkscape:zoom="5.2149125"
     inkscape:cx="13.52876"
     inkscape:cy="20.661658"
     inkscape:window-x="0"
     inkscape:window-y="0"
     inkscape:window-maximized="0"
     inkscape:current-layer="svg3059" />
  <path
     style="font-size:medium;font-style:normal;font-variant:normal;font-weight:normal;font-stretch:normal;text-indent:0;text-align:start;text-decoration:none;line-height:normal;letter-spacing:normal;word-spacing:normal;text-transform:none;direction:ltr;block-progression:tb;writing-mode:lr-tb;text-anchor:start;baseline-shift:baseline;color:#000000;fill:#e9b080;fill-opacity:1;fill-rule:nonzero;stroke:none;stroke-width:1;marker:none;visibility:visible;display:inline;overflow:visible;enable-background:accumulate;font-family:Sans;-inkscape-font-specification:Sans"
     d="m 4,3.9999996 c -0.4916,0 -1,0.4731187 -1,1 l 0,1 c -0.666666,0 -0.833333,0 -1.5,0 -0.979161,0 -1.5,0.4940342 -1.5,1.5 L 0,26.5 C 0,27.531461 0.523069,28 1.5,28 l 28.84375,0 C 31.21572,28 32,27.376781 32,26.5 L 32,9.4999996 c 0,-0.9413229 -0.425107,-1.5 -1.5,-1.5 l -2.5,0 0,-3 c 0,-0.5268813 -0.5084,-1 -1,-1 z"
     id="path3004"
     inkscape:connector-curvature="0"
     sodipodi:nodetypes="ssccssssscccsss" />
  <path
     style="fill:#000000;fill-opacity:0.32156864"
     d="m 15.213031,13 c -0.278185,0 -0.508784,0.223361 -0.508784,0.497986 l 0,0.648115 c -0.175696,0.05859 -0.344071,0.128157 -0.508785,0.208715 l -0.45022,-0.450385 c -0.197658,-0.197729 -0.512445,-0.197729 -0.706442,0 L 11.9041,15.0249 c -0.197657,0.197729 -0.197657,0.512632 0,0.706701 l 0.45022,0.450383 c -0.08418,0.168437 -0.146413,0.344197 -0.208639,0.523618 l -0.636896,0 C 11.234261,16.705602 11,16.925302 11,17.203588 l 0,1.596485 c 0,0.274625 0.234261,0.497986 0.508785,0.497986 l 0.636896,0 c 0.06223,0.17576 0.124451,0.35152 0.208639,0.519957 L 11.9041,20.2684 c -0.197657,0.19773 -0.197657,0.508971 0,0.706701 l 1.1347,1.120468 c 0.193997,0.19773 0.508784,0.19773 0.706442,0 l 0.45022,-0.450384 c 0.164714,0.08056 0.333089,0.150128 0.508785,0.208715 l 0,0.648114 C 14.704247,22.7803 14.934846,23 15.213031,23 l 1.584919,0 c 0.278185,0 0.497803,-0.2197 0.497803,-0.497986 l 0,-0.648114 c 0.179357,-0.05859 0.355052,-0.124497 0.519767,-0.208715 l 0.453879,0.450384 c 0.193997,0.19773 0.508785,0.19773 0.702782,0 l 1.1347,-1.120468 c 0.197657,-0.19773 0.197657,-0.508971 0,-0.706701 L 19.64568,19.80703 c 0.08053,-0.164774 0.150073,-0.333211 0.208639,-0.508971 l 0.647877,0 C 20.78038,19.298059 21,19.074698 21,18.800073 l 0,-1.596485 c 0,-0.278286 -0.21962,-0.497986 -0.497804,-0.497986 l -0.647877,0 c -0.05857,-0.17576 -0.128112,-0.347858 -0.208639,-0.50897 l 0.461201,-0.465031 c 0.197657,-0.194069 0.197657,-0.508972 0,-0.706701 l -1.1347,-1.120469 c -0.193997,-0.197729 -0.508785,-0.197729 -0.702782,0 l -0.453879,0.450385 c -0.164715,-0.08422 -0.34041,-0.146467 -0.519767,-0.208715 l 0,-0.648115 C 17.295753,13.223361 17.076135,13 16.79795,13 z M 16,16.705602 c 0.713763,0 1.295753,0.578543 1.295753,1.296229 0,0.714025 -0.58199,1.296228 -1.295753,1.296228 -0.713763,0 -1.295753,-0.582203 -1.295753,-1.296228 0,-0.717686 0.58199,-1.296229 1.295753,-1.296229 z"
     id="path3067" />
  <path
     style="font-size:medium;font-style:normal;font-variant:normal;font-weight:normal;font-stretch:normal;text-indent:0;text-align:start;text-decoration:none;line-height:normal;letter-spacing:normal;word-spacing:normal;text-transform:none;direction:ltr;block-progression:tb;writing-mode:lr-tb;text-anchor:start;baseline-shift:baseline;color:#000000;fill:#000000;fill-opacity:0.32156863;fill-rule:nonzero;stroke:none;stroke-width:1;marker:none;visibility:visible;display:inline;overflow:visible;enable-background:accumulate;font-family:Sans;-inkscape-font-specification:Sans"
     d="m 4,3.9999996 c -0.4916,0 -1,0.4731186 -1,1 l 0,1 c -0.686803,0 -0.883535,0 -1.5,0 -0.979161,0 -1.5,0.4829856 -1.5,1.5 L 0,26.5 C 0,27.503839 0.500972,28 1.5,28 l 28.84375,0 C 31.21572,28 32,27.376781 32,26.5 L 32,9.5517763 C 32,8.5377936 31.580916,7.9999996 30.5,7.9999996 l -2.5,0 0,-3 c 0,-0.5268814 -0.5084,-1 -1,-1 z m 15,3 0,2 12,0 L 31,27 1,27 1,6.9999996 z"
     id="path3784"
     inkscape:connector-curvature="0"
     sodipodi:nodetypes="ssccssssscccsssccccccc" />
</svg>
