<?xml version="1.0" encoding="UTF-8" standalone="no"?>
<svg
   xmlns:dc="http://purl.org/dc/elements/1.1/"
   xmlns:cc="http://creativecommons.org/ns#"
   xmlns:rdf="http://www.w3.org/1999/02/22-rdf-syntax-ns#"
   xmlns:svg="http://www.w3.org/2000/svg"
   xmlns="http://www.w3.org/2000/svg"
   xmlns:sodipodi="http://sodipodi.sourceforge.net/DTD/sodipodi-0.dtd"
   xmlns:inkscape="http://www.inkscape.org/namespaces/inkscape"
   width="32"
   height="32"
   viewBox="0 0 32 32"
   id="svg3175"
   version="1.1"
   inkscape:version="0.48.5 r10040"
   sodipodi:docname="network.svg">
  <metadata
     id="metadata3189">
    <rdf:RDF>
      <cc:Work
         rdf:about="">
        <dc:format>image/svg+xml</dc:format>
        <dc:type
           rdf:resource="http://purl.org/dc/dcmitype/StillImage" />
      </cc:Work>
    </rdf:RDF>
  </metadata>
  <defs
     id="defs3187" />
  <sodipodi:namedview
     pagecolor="#ffffff"
     bordercolor="#666666"
     borderopacity="1"
     objecttolerance="10"
     gridtolerance="10"
     guidetolerance="10"
     inkscape:pageopacity="0"
     inkscape:pageshadow="2"
     inkscape:window-width="1280"
     inkscape:window-height="969"
     id="namedview3185"
     showgrid="false"
     inkscape:zoom="14.75"
     inkscape:cx="7.2040012"
     inkscape:cy="14.182919"
     inkscape:window-x="0"
     inkscape:window-y="0"
     inkscape:window-maximized="1"
     inkscape:current-layer="svg3175" />
  <path
     style="font-size:medium;font-style:normal;font-variant:normal;font-weight:normal;font-stretch:normal;text-indent:0;text-align:start;text-decoration:none;line-height:normal;letter-spacing:normal;word-spacing:normal;text-transform:none;direction:ltr;block-progression:tb;writing-mode:lr-tb;text-anchor:start;baseline-shift:baseline;color:#000000;fill:#e9b080;fill-opacity:1;fill-rule:nonzero;stroke:none;stroke-width:1;marker:none;visibility:visible;display:inline;overflow:visible;enable-background:accumulate;font-family:Sans;-inkscape-font-specification:Sans"
     d="M 4,4 C 3.5084,4 3,4.473118 3,5 L 3,6 C 2.3333333,6 2.1666667,6 1.5,6 0.52083828,6 0,6.494034 0,7.4999997 L 0,26.5 C 0,27.531461 0.52306868,28 1.5,28 l 28.84375,0 C 31.21572,28 32,27.376781 32,26.5 L 32,9.4999997 c 0,-0.9413229 -0.425107,-1.5 -1.5,-1.5 l -2.5,0 L 28,5 C 28,4.473118 27.4916,4 27,4 z"
     id="path3004"
     inkscape:connector-curvature="0"
     sodipodi:nodetypes="ssccssssscccsss" />
  <path
     style="fill:#000000;fill-opacity:0.32156864"
     d="M 15.373626,13 C 13.241758,13 11,15.245421 11,18 c 0,2.758242 2.241758,5 4.373626,5 C 18.758242,23 21,20.758242 21,18 21,15.245421 18.758242,13 16,13 z m 1.032968,0.703297 c 0.465201,0.04396 0.91575,0.150183 1.329669,0.32967 -0.03297,0.04029 -0.05861,0.07326 -0.08059,0.139194 -0.124543,0.380953 -0.315018,0.197802 -0.09158,0.673993 0.219781,0.472527 0.40293,0.593406 0.468865,0.373626 0.06227,-0.21978 -0.161172,-0.531135 0.09158,-0.406594 0.252747,0.128206 0.439561,-0.03297 0.252747,0.249085 -0.190476,0.285714 -0.186812,0.439561 -0.406593,0.377289 -0.223443,-0.06227 -0.21978,0.373627 -0.439561,0.435898 -0.219779,0.06593 -0.296703,-0.09524 -0.296703,0.06227 0,0.157509 0.124543,0.01465 0.09524,0.2674 -0.01099,0.07692 -0.0073,0.09157 -0.01831,0.124541 -0.205128,-0.05861 -0.300367,-0.09158 -0.45055,-0.03297 -0.157509,0.06593 -0.344323,0.468865 -0.344323,0.468865 0.197803,0.197802 0.289378,0.340659 0.358975,0.406594 -0.04395,0.02198 -0.0989,0.03297 -0.139194,0.06227 -0.318682,0.223443 -0.564102,0.263737 -0.659341,0.578755 -0.09524,0.315018 -0.06227,0.02564 -0.06227,0.406593 0,0.37729 -0.09524,0.120879 0.09524,0.468865 0.190475,0.347985 0.652014,0.51282 0.875457,0.703296 0.21978,0.190477 0.446887,-0.413919 0.89011,0.15751 0.443224,0.567765 0.468865,0.340659 0.311355,0.655677 -0.157509,0.315019 -0.311355,0.421246 -0.373625,0.545788 -0.06227,0.124542 0.120878,0.560439 0.344321,0.655677 0.0037,0 0.01099,0 0.01466,0 -0.01099,0.0293 -0.01831,0.05128 -0.0293,0.08059 -0.289377,0.128205 -0.637362,0.307692 -0.703297,0.326007 -0.157508,0.04396 -0.710622,0.139194 -1.10989,0.249084 -0.05128,0.01465 -0.09158,0.01465 -0.10989,0.01832 0.04762,-0.05495 0.443224,-0.260073 0.641026,-0.377289 0.267399,-0.153847 -0.01831,-0.139195 -0.01831,-0.139195 0,0 -0.424909,-0.04762 -1.296703,-0.04762 -0.435898,0 -0.622712,0.01831 -0.717949,0.04762 -0.04762,0.01465 -0.0696,0.02931 -0.09524,0.04762 -0.02198,0.01832 -0.03663,0.04029 -0.07692,0.06227 -0.157508,0.08791 0.09158,0.18315 -0.109889,0.249084 -0.150184,0.05128 -0.168499,0 -0.296704,-0.09524 0.09158,-0.09158 0.219781,-0.201465 0.377289,-0.388278 0.282052,-0.344323 0.373627,-0.282051 0.468865,-0.593407 0.09158,-0.315018 -0.798535,-0.21978 -0.798535,-0.406594 0,-0.186812 -0.153846,-0.315018 -0.43956,-0.43956 -0.282052,-0.124542 -0.08791,-0.186813 -0.402931,-0.278388 -0.318682,-0.09524 -0.673993,0.465201 -0.76923,0.278388 -0.09158,-0.186813 0.300365,-0.186813 0.300365,-0.406593 0,-0.212455 -0.450548,0.161172 -0.534798,-0.106227 0,-0.01099 -0.01099,-0.01099 -0.01466,-0.01832 -0.0073,-0.04029 -0.0037,-0.06227 0,-0.09157 0.02198,-0.227106 0.282051,-0.315018 0.391941,-0.531135 0.124542,-0.252748 0.06227,0.186813 0.21978,0.406594 0.157509,0.216116 0.09158,-0.282052 0,-0.564103 -0.09524,-0.282051 0.05861,-0.282051 0.278389,-0.655678 0.223443,-0.37729 0.219779,-0.593406 0.219779,-0.875458 0,-0.282051 0.153847,-0.311355 0.468865,-0.593407 0.14652,-0.128205 0.260073,-0.241757 0.344322,-0.344322 0.02198,-0.01099 0.0403,-0.01099 0.06227,-0.01465 0.333334,-0.135532 0.476191,-0.336998 0.765568,-0.937729 0.289377,-0.604397 -0.113553,-0.04029 -0.201465,-0.06227 -0.09158,-0.02198 -0.21978,-0.18315 -0.531136,-0.362638 -0.06593,-0.03663 -0.124542,-0.05128 -0.172161,-0.05861 l 0.578755,-0.956044 c 0.18315,-0.04762 0.380952,-0.08425 0.575092,-0.106226 0.07325,0.40293 0.03297,0.780219 0.03297,0.780219 0,0 -0.10989,0.128205 -0.10989,0.21978 0,0.08791 0.59707,-0.739926 0.688645,-0.783882 0.08791,-0.04396 0.315018,0.238095 0.358974,-0.186813 0.0037,-0.02564 -0.0037,-0.02564 0,-0.04762 z m 0.84249,1.688644 c -0.0293,-0.01099 -0.0696,0 -0.10989,0.01831 0,0.109891 -0.04029,0.190476 -0.06227,0.23077 -0.01099,-0.01832 -0.04396,-0.04396 -0.04396,-0.04396 -0.04762,0.08425 -0.150183,0.164835 -0.04762,0.139195 0.102564,-0.02198 0.179488,0.04029 0.109891,-0.04762 -0.01466,-0.01465 -0.0073,-0.0073 -0.01831,-0.01465 0.01465,0.01099 0.04029,0.01465 0.09524,0.01465 0.06227,0 0.09524,0 0.139194,0 -0.07326,0.05861 -0.157509,0.08059 -0.04396,0.109891 0.150184,0.04029 0.216118,0.04762 0.216118,0.01831 0,-0.03297 -0.04395,-0.142858 -0.04395,-0.142858 0.0293,-0.01099 0.05494,-0.02564 0.0293,-0.07692 -0.04762,-0.09524 -0.120879,-0.190476 -0.219781,-0.205128 z m 2.391941,0.267399 c 0.07692,0.120879 0.153847,0.245422 0.219782,0.373627 -0.04396,0.252747 -0.153847,0.421245 0.0293,0.421245 0.05494,0 0.0989,-0.01099 0.142856,-0.01465 0.0037,0.01465 0.01099,0.0293 0.01466,0.04396 -0.315018,0 -0.465202,0.09524 -0.626373,0.06593 -0.15751,-0.03297 -0.59707,-0.06227 -0.311356,-0.344321 0.164836,-0.168499 0.373627,-0.432235 0.531135,-0.549451 z m -1.967032,0.575093 c 0.02564,0.01099 0.05128,0.04029 0.07692,0.09524 0.09524,0.21978 0.249084,0.406594 0.124542,0.435898 -0.124542,0.03297 -0.186813,0.06227 -0.186813,0.06227 0,0 0.435897,0.285715 0.468864,-0.0293 0.0293,-0.315019 -0.124542,-0.501832 -0.124542,-0.501832 0,0 0.216118,0.219781 0.278389,0.344322 0.06593,0.128206 0.06227,0 0.21978,0.15751 0.157509,0.157509 0.124542,-0.626374 0.344322,-0.406594 0.21978,0.21978 0.358975,0.216118 0.296703,0.373627 -0.06227,0.157508 0.406594,-0.190476 0.406594,0.124542 0,0.307692 0.19414,0.428572 -0.186813,0.578755 -0.14652,-0.0073 -0.260073,-0.03297 -0.282052,-0.07692 -0.06227,-0.128205 -0.421245,-0.03297 -0.421245,-0.03297 -0.945055,-0.234432 -1.355311,-0.307692 -1.626374,-0.263736 0.0073,-0.01099 0.01099,-0.01099 0.01466,-0.01831 0.139194,-0.245421 0.399268,-0.593407 0.315018,-0.717949 0.120879,-0.0696 0.212455,-0.142857 0.282051,-0.124541 z m 2.655678,1.578754 c 0.0037,0.06227 0,0.124542 0,0.186813 0,0.179487 -0.01099,0.358974 -0.03297,0.531135 -0.282051,-0.252747 -0.684982,-0.249084 -0.684982,-0.249084 0,0 0.245422,-0.278388 0.593408,-0.406593 0.04395,-0.01465 0.08791,-0.03663 0.124542,-0.06227 z"
     id="path3183" />
  <path
     style="font-size:medium;font-style:normal;font-variant:normal;font-weight:normal;font-stretch:normal;text-indent:0;text-align:start;text-decoration:none;line-height:normal;letter-spacing:normal;word-spacing:normal;text-transform:none;direction:ltr;block-progression:tb;writing-mode:lr-tb;text-anchor:start;baseline-shift:baseline;color:#000000;fill:#000000;fill-opacity:0.32156863;fill-rule:nonzero;stroke:none;stroke-width:1;marker:none;visibility:visible;display:inline;overflow:visible;enable-background:accumulate;font-family:Sans;-inkscape-font-specification:Sans"
     d="M 4,4 C 3.5084,4 3,4.473118 3,5 L 3,6 C 2.3131965,6 2.1164647,6 1.5,6 0.52083828,6 0,6.482985 0,7.4999997 L 0,26.5 C 0,27.503839 0.50097159,28 1.5,28 l 28.84375,0 C 31.21572,28 32,27.376781 32,26.5 L 32,9.5517764 C 32,8.5377937 31.580916,7.9999997 30.5,7.9999997 l -2.5,0 L 28,5 C 28,4.473118 27.4916,4 27,4 z m 15,2.9999997 0,2 12,0 L 31,27 0.99999998,27 l 0,-20.0000003 z"
     id="path3784"
     inkscape:connector-curvature="0"
     sodipodi:nodetypes="ssccssssscccsssccccccc" />
</svg>
