<svg xmlns="http://www.w3.org/2000/svg" viewBox="0 0 96 96">
 <g transform="translate(0,-956.3622)">
  <path d="m 10.376 972.36 c -1.353 0.288 -2.405 1.617 -2.375 3 l 0 56 c 0 1.571 1.429 3 3 3 l 73.999 0 c 1.571 0 3 -1.429 3 -3 l 0 -49.937 c 0 -1.571 -1.429 -3.063 -3 -3.063 l -29 0 0 -3 c 0 -1.571 -1.429 -3 -3 -3 l -42 0 c -0.208 -0.022 -0.417 -0.022 -0.625 0 z m 47.562 17.25 c 0.625 -0.044 1.228 0.106 1.812 0.438 1.558 0.887 2.087 2.839 1.187 4.375 -0.899 1.535 -2.88 2.074 -4.437 1.187 -1.557 -0.886 -2.087 -2.84 -1.187 -4.375 0.562 -0.96 1.582 -1.552 2.625 -1.625 z m -8.125 3.438 c 1.309 0 2.609 0.172 3.812 0.5 0.213 1.29 1.012 2.483 2.25 3.187 1.236 0.704 2.637 0.774 3.875 0.313 2.408 2.334 3.959 5.526 4.187 9.06 l -4.625 0.062 c -0.427 -4.79 -4.53 -8.563 -9.5 -8.563 -1.432 0 -2.782 0.316 -4 0.875 l -2.25 -4 c 1.89 -0.923 3.998 -1.437 6.25 -1.437 z m -7.812 2.312 2.375 3.938 c -2.446 1.697 -4.062 4.514 -4.062 7.687 0 3.174 1.617 5.991 4.062 7.688 l -2.375 3.937 c -2.85 -1.877 -4.995 -4.763 -5.875 -8.125 1.029 -0.826 1.687 -2.089 1.687 -3.5 0 -1.411 -0.659 -2.673 -1.687 -3.5 0.881 -3.361 3.03 -6.248 5.875 -8.125 z m -8.75 8.437 c 1.798 0 3.25 1.414 3.25 3.187 0 1.773 -1.452 3.188 -3.25 3.188 -1.799 0 -3.25 -1.415 -3.25 -3.188 0 -1.774 1.451 -3.187 3.25 -3.187 z m 26.06 4 4.625 0.062 c -0.228 3.537 -1.779 6.728 -4.187 9.06 -1.238 -0.461 -2.639 -0.391 -3.875 0.312 -1.238 0.705 -2.037 1.898 -2.25 3.188 -1.203 0.327 -2.503 0.5 -3.812 0.5 -2.252 0 -4.36 -0.515 -6.25 -1.438 l 2.25 -4 c 1.218 0.559 2.568 0.875 4 0.875 4.97 0 9.07 -3.771 9.5 -8.562 z m -0.937 10.125 c 1.042 0.072 2 0.666 2.562 1.625 0.899 1.536 0.37 3.488 -1.187 4.375 -1.558 0.886 -3.538 0.348 -4.437 -1.188 -0.899 -1.535 -0.37 -3.488 1.187 -4.375 0.584 -0.332 1.25 -0.481 1.875 -0.437 z" style="visibility:visible;fill:#42a5f5;fill-opacity:1;stroke:none;display:inline;color:#000;fill-rule:nonzero"/>
 </g>
</svg>
