<?xml version="1.0" encoding="UTF-8" standalone="no"?>
<!-- Created with Inkscape (http://www.inkscape.org/) -->

<svg
   xmlns:dc="http://purl.org/dc/elements/1.1/"
   xmlns:cc="http://creativecommons.org/ns#"
   xmlns:rdf="http://www.w3.org/1999/02/22-rdf-syntax-ns#"
   xmlns:svg="http://www.w3.org/2000/svg"
   xmlns="http://www.w3.org/2000/svg"
   xmlns:sodipodi="http://sodipodi.sourceforge.net/DTD/sodipodi-0.dtd"
   xmlns:inkscape="http://www.inkscape.org/namespaces/inkscape"
   width="96"
   height="96"
   id="svg2"
   version="1.1"
   inkscape:version="0.91 r"
   sodipodi:docname="brown-folder-wine.svg">
  <defs
     id="defs4" />
  <sodipodi:namedview
     id="base"
     pagecolor="#ffffff"
     bordercolor="#666666"
     borderopacity="1.0"
     inkscape:pageopacity="0.0"
     inkscape:pageshadow="2"
     inkscape:zoom="5.6568543"
     inkscape:cx="29.842102"
     inkscape:cy="32.595173"
     inkscape:document-units="px"
     inkscape:current-layer="layer1"
     showgrid="true"
     inkscape:window-width="1280"
     inkscape:window-height="998"
     inkscape:window-x="0"
     inkscape:window-y="0"
     inkscape:window-maximized="1">
    <inkscape:grid
       type="xygrid"
       id="grid2990"
       empspacing="5"
       visible="true"
       enabled="true"
       snapvisiblegridlinesonly="true" />
  </sodipodi:namedview>
  <metadata
     id="metadata7">
    <rdf:RDF>
      <cc:Work
         rdf:about="">
        <dc:format>image/svg+xml</dc:format>
        <dc:type
           rdf:resource="http://purl.org/dc/dcmitype/StillImage" />
        <dc:title />
      </cc:Work>
    </rdf:RDF>
  </metadata>
  <g
     inkscape:label="Body"
     inkscape:groupmode="layer"
     id="layer1"
     transform="translate(0,-956.3622)">
    <path
       style="font-size:medium;font-style:normal;font-variant:normal;font-weight:normal;font-stretch:normal;text-indent:0;text-align:start;text-decoration:none;line-height:normal;letter-spacing:normal;word-spacing:normal;text-transform:none;direction:ltr;block-progression:tb;writing-mode:lr-tb;text-anchor:start;baseline-shift:baseline;color:#000000;fill:#8d6e63;fill-opacity:1;fill-rule:nonzero;stroke:none;stroke-width:3.00000024;marker:none;visibility:visible;display:inline;overflow:visible;enable-background:accumulate;font-family:Sans;-inkscape-font-specification:Sans"
       d="m 10.375614,972.36269 c -1.3527259,0.2878 -2.405143,1.61719 -2.3749816,2.99998 l 0,55.99953 c 1.572e-4,1.5706 1.4292353,2.9998 2.9999766,3 l 73.999415,0 c 1.570741,-2e-4 2.999818,-1.4294 2.999976,-3 l 0,-49.93708 c -1.58e-4,-1.57079 -1.429172,-3.06272 -2.999913,-3.06292 l -28.999771,0 -6.3e-5,-2.99953 c -1.58e-4,-1.57079 -1.429235,-2.99998 -2.999977,-2.99998 l -41.999667,0 c -0.207575,-0.022 -0.41742,-0.022 -0.624995,0 z m 50.187103,15.87537 c 0.292971,-0.004 0.591029,-0.008 0.874993,0.0625 0.0082,0.02 0.0543,-0.02 0.0625,0 1.817136,1.69319 3.263902,3.74294 4.312466,5.99994 0.0114,0.026 -0.0112,0.101 0,0.125 0.259514,0.7474 0.544444,1.5474 0.812494,2.5 0.149539,0.5314 0.358821,1.1031 0.562495,1.6875 0.223989,1.1562 0.374997,2.3431 0.374997,3.5625 0,10.6165 -8.858256,22.1873 -19.812343,22.1873 -10.253945,0 -18.713272,-10.515 -19.749844,-20.1874 0.275974,-0.1296 5.734391,-6.556 16.687368,-1.6874 13.303489,5.9133 19.196332,-0.059 19.749844,-2.5625 0.55351,-2.5034 -0.160939,-7.125 -2.374981,-7.125 -2.214043,0 -4.993971,1.0487 -4.624964,-1.81246 0.230629,-1.78818 1.660119,-2.72598 3.124975,-2.74998 z m -7.562441,2.12499 c 0.55228,0 0.999993,0.44759 0.999993,0.99995 0,0.5524 -0.447713,1 -0.999993,1 -0.552279,0 -0.999992,-0.4476 -0.999992,-1 0,-0.55236 0.447713,-0.99995 0.999992,-0.99995 z m 4.999961,5.99995 c 1.104561,0 1.999984,0.8954 1.999984,2 0,1.1046 -0.895423,2 -1.999984,2 -1.104561,0 -1.999984,-0.8954 -1.999984,-2 0,-1.1046 0.895423,-2 1.999984,-2 z"
       id="path3912"
       inkscape:connector-curvature="0"
       sodipodi:nodetypes="ccccccccccscccccccscsscscsscssssssssss" />
  </g>
</svg>
