<svg xmlns="http://www.w3.org/2000/svg" viewBox="0 0 96 96">
 <g transform="translate(0,-956.3622)">
  <path d="m 10.376 972.36 c -1.353 0.288 -2.405 1.617 -2.375 3 l 0 56 c 0 1.571 1.429 3 3 3 l 73.999 0 c 1.571 0 3 -1.429 3 -3 l 0 -49.937 c 0 -1.571 -1.429 -3.063 -3 -3.063 l -29 0 0 -3 c 0 -1.571 -1.429 -3 -3 -3 l -42 0 c -0.208 -0.022 -0.417 -0.022 -0.625 0 z m 25.625 18 24 0 c 2.216 0 4 1.784 4 4 l 0 18 c 0 2.216 -1.784 4 -4 4 l -8 0 4 4 c 2 2 2 2 0 2 l -16 0 c -2 0 -2 0 0 -2 l 4 -4 -8 0 c -2.216 0 -4 -1.784 -4 -4 l 0 -18 c 0 -2.216 1.784 -4 4 -4 z m 0 4 0 18 24 0 0 -18 z m 5.687 2 c 0.188 -0.032 0.312 0 0.312 0 l 6 0 4 4 0 8 c 0 0 0 2 -2 2 l -8 0 c 0 0 -2 0 -2 -2 l 0 -10 c 0 -1.5 1.125 -1.906 1.687 -2 z m 0.312 2 0 10 8 0 0 -6 -4 0 0 -4 z" style="visibility:visible;fill:#8d6e63;fill-opacity:1;stroke:none;display:inline;color:#000;fill-rule:nonzero"/>
 </g>
</svg>
