<!-- Created with Inkscape (http://www.inkscape.org/) -->
<svg xmlns="http://www.w3.org/2000/svg" viewBox="0 0 96 96">
 <g transform="translate(0,-956.3622)">
  <path d="m 10.376 972.36 c -1.353 0.288 -2.405 1.617 -2.375 3 l 0 56 c 0 1.571 1.429 3 3 3 l 73.999 0 c 1.571 0 3 -1.429 3 -3 l 0 -49.937 c 0 -1.571 -1.429 -3 -3 -3 l -29 0 0 -3.063 c 0 -1.571 -1.429 -3 -3 -3 l -42 0 c -0.208 -0.022 -0.417 -0.022 -0.625 0 z m 23.625 18 3.687 3.688 c 2.78 -2.334 6.399 -3.688 10.312 -3.688 8.836 0 16 7.163 16 16 0 8.837 -7.163 16 -16 16 -8.836 0 -16 -7.163 -16 -16 0 -1.378 0.173 -2.725 0.5 -4 l 4.187 0 c -0.442 1.25 -0.687 2.598 -0.687 4 0 6.627 5.373 12 12 12 6.627 0 12 -5.372 12 -12 0 -6.627 -5.373 -12 -12 -12 -2.801 0 -5.392 0.957 -7.437 2.563 l 3.437 3.437 -10 0 0 -10 z m 13.812 5.938 a 2 2 0 0 1 2.187 2.062 l 0 6.813 4.187 2.437 a 2.02 2.02 0 0 1 -2 3.5 l -4.937 -2.875 a 2 2 0 0 1 -0.25 -0.124 2 2 0 0 1 -0.125 -0.062 2 2 0 0 1 -0.063 -0.062 2 2 0 0 1 -0.063 -0.062 2 2 0 0 1 -0.125 -0.062 2 2 0 0 1 -0.063 -0.062 2 2 0 0 1 -0.063 -0.062 2 2 0 0 1 -0.063 -0.062 2 2 0 0 1 -0.063 -0.062 2 2 0 0 1 -0.063 -0.124 2 2 0 0 1 -0.063 -0.062 2 2 0 0 1 -0.25 -1.5 2 2 0 0 1 0 -0.188 l 0 -7.375 a 2 2 0 0 1 1.562 -2 2 2 0 0 1 0.25 -0.062 z" style="visibility:visible;fill:#c4905e;fill-opacity:1;stroke:none;display:inline;color:#000;fill-rule:nonzero"/>
 </g>
</svg>
