<svg xmlns="http://www.w3.org/2000/svg" viewBox="0 0 96 96">
 <g transform="translate(0,-956.3622)">
  <path d="m 10.376 972.36 c -1.353 0.288 -2.405 1.617 -2.375 3 l 0 56 c 0 1.571 1.429 3 3 3 l 73.999 0 c 1.571 0 3 -1.429 3 -3 l 0 -49.937 c 0 -1.571 -1.429 -3 -3 -3 l -29 0 0 -3.063 c 0 -1.571 -1.429 -3 -3 -3 l -42 0 c -0.208 -0.022 -0.417 -0.022 -0.625 0 z m 25.625 18 24 0 c 2.216 0 4 1.784 4 4 l 0 22 0 2 c 0 2.216 -1.784 4 -4 4 l -24 0 c -2.216 0 -4 -1.784 -4 -4 l 0 -8 0 -16 c 0 -2.216 1.784 -4 4 -4 z m 0 4 0 12 6 -6 6.562 7.375 4.437 -4.375 7 8.25 0 -17.25 -24 0 z" style="visibility:visible;fill:#66bb6a;fill-opacity:1;stroke:none;display:inline;color:#000;fill-rule:nonzero"/>
 </g>
</svg>
