<svg xmlns="http://www.w3.org/2000/svg" viewBox="0 0 96 96">
 <g transform="translate(0,-956.3622)">
  <path d="m 10.376 972.36 c -1.353 0.288 -2.405 1.617 -2.375 3 l 0 56 c 0 1.571 1.429 3 3 3 l 73.999 0 c 1.571 0 3 -1.429 3 -3 l 0 -49.937 c 0 -1.571 -1.429 -3 -3 -3 l -29 0 0 -3.063 c 0 -1.571 -1.429 -3 -3 -3 l -42 0 c -0.208 -0.022 -0.417 -0.022 -0.625 0 z m 23.375 18.813 c 1.1 -0.02 2.226 0.09 3.312 0.188 5.293 0.6 10.536 2.659 14.437 6.375 1.208 -0.228 2.462 -0.491 3.687 -0.687 1.807 -0.239 3.641 0.538 4.812 1.937 1.451 1.796 2.885 3.567 4.312 5.375 0.727 0.945 0.224 2.456 -0.937 2.688 -1.962 0.355 -3.98 0.65 -5.937 1 0.118 1.604 -0.225 3.273 -1.187 4.562 -1.08 1.511 -2.92 2.397 -4.75 2.625 -0.054 1.382 0.118 2.787 0.125 4.188 -0.009 0.664 0.114 1.349 -0.063 2 -0.291 0.99 -1.574 1.553 -2.5 1.062 -2.01 -1.037 -4 -2.01 -6 -3.062 -1.682 -0.898 -2.83 -2.719 -2.875 -4.625 -0.002 -1.09 -0.022 -2.225 0 -3.313 0.056 -0.259 -0.16 -0.293 -0.312 -0.437 -4.148 -3.124 -6.976 -7.781 -8.5 -12.688 -0.599 -2.139 -1.142 -4.455 -0.812 -6.687 1.047 -0.364 2.087 -0.48 3.187 -0.5 z m 6.625 4.062 c -1.279 0.116 -2.552 0.749 -3.437 1.813 -1.772 2.128 -1.44 5.291 0.687 7.06 2.128 1.772 5.291 1.44 7.06 -0.687 1.772 -2.128 1.44 -5.291 -0.687 -7.06 -1.064 -0.886 -2.346 -1.241 -3.625 -1.125 z m 0.125 1.688 c 0.852 -0.078 1.728 0.158 2.437 0.75 1.42 1.182 1.62 3.268 0.437 4.687 -1.182 1.42 -3.268 1.62 -4.687 0.438 -1.42 -1.182 -1.62 -3.268 -0.437 -4.688 0.591 -0.71 1.398 -1.109 2.25 -1.187 z m 20.312 13.625 c 0.146 0.02 0.313 0.09 0.437 0.188 1.068 0.881 2.133 1.738 3.187 2.625 0.53 0.424 0.276 1.372 -0.375 1.5 -0.526 0.08 -1.034 0.126 -1.562 0.188 0.524 1.218 1.052 2.401 1.562 3.625 0.248 0.58 -0.329 1.313 -0.937 1.187 -1.292 -0.286 -2.57 -0.658 -3.875 -0.937 0.048 0.525 0.109 1.093 0.125 1.625 -0.009 0.667 -0.675 1.123 -1.187 0.687 -1.053 -0.868 -2.264 -1.877 -3.312 -2.75 -0.511 -0.408 -0.372 -1.241 0.25 -1.437 2.389 -1.011 4.192 -3.214 4.75 -5.75 0.063 -0.458 0.5 -0.79 0.937 -0.75 z" style="visibility:visible;fill:#66bb6a;fill-opacity:1;stroke:none;display:inline;color:#000;fill-rule:nonzero"/>
 </g>
</svg>
