<svg xmlns="http://www.w3.org/2000/svg" viewBox="0 0 96 96">
 <g transform="translate(0,-956.3622)">
  <path d="m 10.376 972.36 c -1.353 0.288 -2.405 1.617 -2.375 3 l 0 56 c 0 1.571 1.429 3 3 3 l 73.999 0 c 1.571 0 3 -1.429 3 -3 l 0 -49.937 c 0 -1.571 -1.429 -3.063 -3 -3.063 l -29 0 0 -3 c 0 -1.571 -1.429 -3 -3 -3 l -42 0 c -0.208 -0.022 -0.417 -0.022 -0.625 0 z m 35.12 18 5.062 0 c 0.887 0 1.562 0.675 1.562 1.563 l 0 2.125 c 0.572 0.192 1.154 0.359 1.687 0.625 l 1.437 -1.438 c 0.627 -0.627 1.623 -0.627 2.25 0 l 3.625 3.625 c 0.627 0.628 0.627 1.622 0 2.25 l -1.437 1.5 c 0.26 0.524 0.437 1.064 0.625 1.625 l 2.125 0 c 0.887 0 1.562 0.675 1.562 1.563 l 0 5.125 c 0 0.887 -0.675 1.562 -1.562 1.562 l -2.125 0 c -0.188 0.561 -0.365 1.101 -0.625 1.625 l 1.437 1.5 c 0.627 0.627 0.627 1.622 0 2.25 l -3.625 3.625 c -0.627 0.627 -1.623 0.627 -2.25 0 l -1.437 -1.437 c -0.533 0.266 -1.116 0.433 -1.687 0.625 l 0 2.125 c 0 0.888 -0.675 1.562 -1.562 1.562 l -5.062 0 c -0.887 0 -1.625 -0.675 -1.625 -1.562 l 0 -2.125 c -0.561 -0.188 -1.101 -0.365 -1.625 -0.625 l -1.5 1.437 c -0.627 0.627 -1.623 0.627 -2.25 0 l -3.625 -3.625 c -0.627 -0.628 -0.627 -1.622 0 -2.25 l 1.437 -1.437 c -0.266 -0.533 -0.433 -1.116 -0.625 -1.688 l -2.062 0 c -0.887 0 -1.625 -0.675 -1.625 -1.562 l 0 -5.125 c 0 -0.887 0.738 -1.563 1.625 -1.563 l 2.062 0 c 0.192 -0.571 0.359 -1.154 0.625 -1.687 l -1.437 -1.438 c -0.627 -0.627 -0.627 -1.622 0 -2.25 l 3.625 -3.625 c 0.627 -0.627 1.623 -0.627 2.25 0 l 1.5 1.438 c 0.524 -0.259 1.064 -0.435 1.625 -0.625 l 0 -2.125 c 0 -0.888 0.738 -1.563 1.625 -1.563 z m 2.5 11.875 c -2.29 0 -4.125 1.835 -4.125 4.125 0 2.29 1.835 4.125 4.125 4.125 2.29 0 4.125 -1.835 4.125 -4.125 0 -2.29 -1.835 -4.125 -4.125 -4.125 z" style="visibility:visible;fill:#bdbdbd;fill-opacity:1;stroke:none;display:inline;color:#000;fill-rule:nonzero"/>
 </g>
</svg>
