<svg xmlns="http://www.w3.org/2000/svg" viewBox="0 0 96 96">
 <g transform="translate(0,-956.3622)">
  <path d="m 10.376 972.36 c -1.353 0.288 -2.405 1.617 -2.375 3 l 0 56 c 0 1.571 1.429 3 3 3 l 73.999 0 c 1.571 0 3 -1.429 3 -3 l 0 -49.937 c 0 -1.571 -1.429 -3.063 -3 -3.063 l -29 0 0 -3 c 0 -1.571 -1.429 -3 -3 -3 l -42 0 c -0.208 -0.022 -0.417 -0.022 -0.625 0 z m 35.625 18 2 0 c 8.824 0 16 7.176 16 16 0 8.824 -7.177 16 -18 16 -6.824 0 -14 -7.176 -14 -16 0 -8.824 7.175 -16 14 -16 z m 3.312 2.25 c -0.009 0.07 0.008 0.048 0 0.124 -0.143 1.357 -0.902 0.481 -1.187 0.625 -0.286 0.144 -2.187 2.786 -2.187 2.5 0 -0.286 0.375 -0.687 0.375 -0.687 0 0 0.102 -1.207 -0.125 -2.5 -0.621 0.08 -1.22 0.152 -1.812 0.312 l -1.875 3.063 c 0.16 0.024 0.356 0.07 0.562 0.188 1 0.572 1.402 1.118 1.687 1.188 0.286 0.072 1.554 -1.741 0.625 0.188 -0.929 1.929 -1.366 2.571 -2.437 3 -0.067 0.02 -0.121 0.03 -0.187 0.062 -0.274 0.328 -0.662 0.65 -1.125 1.062 -1.01 0.901 -1.5 1.038 -1.5 1.938 0 0.9 0.02 1.612 -0.687 2.812 -0.707 1.2 -1.178 1.162 -0.875 2.063 0.303 0.9 0.505 2.512 0 1.812 -0.505 -0.7 -0.283 -2.112 -0.687 -1.312 -0.354 0.7 -1.186 0.968 -1.25 1.687 -0.009 0.098 -0.025 0.186 0 0.313 0.005 0.02 -0.007 0.03 0 0.062 0.259 0.866 1.75 -0.308 1.75 0.375 0 0.7 -1.303 0.65 -1 1.25 0.303 0.6 1.49 -1.174 2.5 -0.875 1.01 0.3 0.341 0.475 1.25 0.875 0.909 0.4 1.437 0.838 1.437 1.438 0 0.6 2.866 0.312 2.562 1.312 -0.303 1 -0.591 0.775 -1.5 1.875 -0.501 0.606 -0.956 0.958 -1.25 1.25 0.412 0.301 0.518 0.473 1 0.313 0.643 -0.214 -0.187 -0.527 0.312 -0.813 0.125 -0.072 0.176 -0.126 0.25 -0.188 0.074 -0.06 0.161 -0.142 0.312 -0.188 0.304 -0.09 0.92 -0.124 2.312 -0.124 2.786 0 4.125 0.124 4.125 0.124 0 0 0.92 -0.001 0.063 0.5 -0.626 0.365 -1.903 1.014 -2.062 1.188 0.063 0 0.214 -0.02 0.375 -0.062 1.286 -0.357 3.062 -0.668 3.562 -0.812 0.212 -0.06 1.334 -0.647 2.25 -1.063 0.037 -0.086 0.025 -0.164 0.063 -0.25 l -0.063 0 c -0.707 -0.303 -1.265 -1.658 -1.062 -2.062 0.202 -0.404 0.682 -0.74 1.187 -1.75 0.505 -1.01 0.414 -0.307 -1 -2.125 -1.414 -1.819 -2.168 0.106 -2.875 -0.5 -0.707 -0.606 -2.144 -1.139 -2.75 -2.25 -0.606 -1.112 -0.312 -0.288 -0.312 -1.5 0 -1.214 -0.116 -0.302 0.187 -1.313 0.303 -1.01 1.115 -1.105 2.125 -1.812 0.139 -0.1 0.296 -0.118 0.437 -0.188 -0.226 -0.215 -0.557 -0.681 -1.187 -1.312 0 0 0.62 -1.298 1.125 -1.5 0.49 -0.194 0.774 -0.128 1.437 0.062 0.028 -0.108 0.032 -0.128 0.063 -0.375 0.101 -0.808 -0.312 -0.37 -0.312 -0.875 0 -0.505 0.23 0.02 0.937 -0.188 0.707 -0.202 0.73 -1.577 1.437 -1.375 0.707 0.202 0.706 -0.279 1.312 -1.188 0.606 -0.911 -0.004 -0.408 -0.812 -0.812 -0.808 -0.404 -0.11 0.606 -0.312 1.312 -0.202 0.707 -0.793 0.265 -1.5 -1.25 -0.707 -1.515 -0.092 -0.913 0.312 -2.125 0.071 -0.213 0.149 -0.311 0.25 -0.437 -1.314 -0.572 -2.759 -0.925 -4.25 -1.063 z m 2.687 5.375 c 0.308 0.048 0.536 0.386 0.687 0.688 0.081 0.164 0.031 0.212 -0.063 0.25 0 0 0.125 0.337 0.125 0.437 0 0.1 -0.208 0.064 -0.687 -0.062 -0.36 -0.094 -0.119 -0.132 0.125 -0.313 l -0.437 0 c -0.177 0 -0.27 -0.03 -0.312 -0.062 0.027 0.022 0.019 0.02 0.063 0.062 0.057 0.07 0.059 0.104 0.063 0.124 -0.075 0 -0.273 -0.038 -0.437 0 -0.328 0.076 0.036 -0.158 0.187 -0.437 0 0 0.087 0.062 0.125 0.124 0.063 -0.138 0.187 -0.396 0.187 -0.75 0.126 -0.052 0.272 -0.094 0.375 -0.062 z m 7.625 0.875 c -0.505 0.375 -1.156 1.218 -1.687 1.75 -0.909 0.908 0.495 1.023 1 1.125 0.505 0.102 0.99 -0.25 2 -0.25 -0.018 -0.048 -0.044 -0.078 -0.063 -0.124 -0.137 0.02 -0.272 0.062 -0.437 0.062 -0.592 0 -0.202 -0.568 -0.063 -1.375 -0.211 -0.413 -0.5 -0.799 -0.75 -1.188 z m -6.25 1.875 c -0.213 -0.064 -0.552 0.154 -0.937 0.375 0.273 0.399 -0.558 1.517 -1 2.313 -0.018 0.02 -0.046 0.03 -0.063 0.062 0.866 -0.144 2.228 0.058 5.25 0.813 0 0 1.11 -0.279 1.312 0.124 0.072 0.14 0.475 0.218 0.937 0.25 1.221 -0.481 0.562 -0.901 0.562 -1.875 0 -1.01 -1.515 0.13 -1.312 -0.375 0.202 -0.505 -0.23 -0.481 -0.937 -1.188 -0.707 -0.707 -0.557 1.755 -1.062 1.25 -0.505 -0.5 -0.548 -0.096 -0.75 -0.5 -0.202 -0.404 -0.875 -1.062 -0.875 -1.062 0 0 0.476 0.552 0.375 1.562 -0.101 1.01 -1.5 0.124 -1.5 0.124 0 0 0.221 -0.088 0.625 -0.188 0.404 -0.102 -0.072 -0.73 -0.375 -1.438 -0.076 -0.172 -0.157 -0.22 -0.25 -0.25 z m 8.5 5 c -0.112 0.082 -0.299 0.198 -0.437 0.25 -1.111 0.404 -1.875 1.25 -1.875 1.25 0 0 1.279 0 2.187 0.813 0.066 -0.55 0.125 -1.119 0.125 -1.688 0 -0.205 0.009 -0.423 0 -0.625 z" style="visibility:visible;fill:#bdbdbd;fill-opacity:1;stroke:none;display:inline;color:#000;fill-rule:nonzero"/>
 </g>
</svg>
