<!-- Created with Inkscape (http://www.inkscape.org/) -->
<svg xmlns="http://www.w3.org/2000/svg" viewBox="0 0 96 96">
 <g transform="translate(0,-956.3622)">
  <path d="m 10.376 972.36 c -1.353 0.288 -2.405 1.617 -2.375 3 l 0 56 c 0 1.571 1.429 3 3 3 l 73.999 0 c 1.571 0 3 -1.429 3 -3 l 0 -49.937 c 0 -1.571 -1.429 -3 -3 -3 l -29 0 0 -3.063 c 0 -1.571 -1.429 -3 -3 -3 l -42 0 c -0.208 -0.022 -0.417 -0.022 -0.625 0 z m 33.06 22 a 8 8 0 0 1 0.562 0 8 8 0 0 1 7.25 4.625 6 6 0 0 1 2.75 -0.625 6 6 0 0 1 6 6 6 6 0 0 1 -0.437 2.188 6 6 0 0 1 4.437 5.812 6 6 0 0 1 -6 6 6 6 0 0 1 -0.562 0 l -19.437 0 a 6 7 0 0 1 -6 -7 6 7 0 0 1 4.375 -6.75 8 8 0 0 1 -0.375 -2.25 8 8 0 0 1 7.437 -8 z" style="visibility:visible;fill:#f57c00;fill-opacity:1;stroke:none;display:inline;color:#000;fill-rule:nonzero"/>
 </g>
</svg>
