<!-- Created with Inkscape (http://www.inkscape.org/) -->
<svg xmlns="http://www.w3.org/2000/svg" viewBox="0 0 96 96">
 <path d="m 10.375 16 c -1.353 0.288 -2.405 1.617 -2.375 3 l 0 56 c 0 1.571 1.429 3 3 3 l 74 0 c 1.571 0 3 -1.429 3 -3 l 0 -49.938 c 0 -1.571 -1.429 -3.062 -3 -3.063 l -29 0 0 -3 c 0 -1.571 -1.429 -3 -3 -3 l -42 0 c -0.208 -0.022 -0.417 -0.022 -0.625 0 z m 23.625 20 c 6 0 10 2 14 5.334 c 4 -3.333 8 -5.334 14 -5.334 l -12 8 -4 0 z m -2 1 12 8 0 21 -12 -8 z m 32 0 0 21 -12 8 0 -21 z m -18 9 4 0 0 22 -4 0 z" style="visibility:visible;fill:#f57c00;fill-opacity:1;stroke:none;display:inline;color:#000;fill-rule:nonzero"/>
</svg>
