<?xml version="1.0" encoding="UTF-8" standalone="no"?>
<!-- Created with Inkscape (http://www.inkscape.org/) -->

<svg
   xmlns:dc="http://purl.org/dc/elements/1.1/"
   xmlns:cc="http://creativecommons.org/ns#"
   xmlns:rdf="http://www.w3.org/1999/02/22-rdf-syntax-ns#"
   xmlns:svg="http://www.w3.org/2000/svg"
   xmlns="http://www.w3.org/2000/svg"
   xmlns:sodipodi="http://sodipodi.sourceforge.net/DTD/sodipodi-0.dtd"
   xmlns:inkscape="http://www.inkscape.org/namespaces/inkscape"
   width="96"
   height="96"
   id="svg2"
   version="1.1"
   inkscape:version="0.91 r"
   sodipodi:docname="orange-folder-templates.svg">
  <defs
     id="defs4" />
  <sodipodi:namedview
     id="base"
     pagecolor="#ffffff"
     bordercolor="#666666"
     borderopacity="1.0"
     inkscape:pageopacity="0.0"
     inkscape:pageshadow="2"
     inkscape:zoom="8.813892"
     inkscape:cx="58.222433"
     inkscape:cy="48.086988"
     inkscape:document-units="px"
     inkscape:current-layer="layer1"
     showgrid="true"
     inkscape:window-width="1280"
     inkscape:window-height="998"
     inkscape:window-x="0"
     inkscape:window-y="0"
     inkscape:window-maximized="1">
    <inkscape:grid
       type="xygrid"
       id="grid2990"
       empspacing="5"
       visible="true"
       enabled="true"
       snapvisiblegridlinesonly="true" />
  </sodipodi:namedview>
  <metadata
     id="metadata7">
    <rdf:RDF>
      <cc:Work
         rdf:about="">
        <dc:format>image/svg+xml</dc:format>
        <dc:type
           rdf:resource="http://purl.org/dc/dcmitype/StillImage" />
        <dc:title />
      </cc:Work>
    </rdf:RDF>
  </metadata>
  <g
     inkscape:label="Body"
     inkscape:groupmode="layer"
     id="layer1"
     transform="translate(0,-956.3622)">
    <path
       style="font-size:medium;font-style:normal;font-variant:normal;font-weight:normal;font-stretch:normal;text-indent:0;text-align:start;text-decoration:none;line-height:normal;letter-spacing:normal;word-spacing:normal;text-transform:none;direction:ltr;block-progression:tb;writing-mode:lr-tb;text-anchor:start;baseline-shift:baseline;color:#000000;fill:#f57c00;fill-opacity:1;fill-rule:nonzero;stroke:none;stroke-width:3.00000024;marker:none;visibility:visible;display:inline;overflow:visible;enable-background:accumulate;font-family:Sans;-inkscape-font-specification:Sans"
       d="m 10.375614,972.36269 c -1.3527257,0.2878 -2.4051434,1.61719 -2.3749816,2.99998 l 0,55.99953 c 1.58e-4,1.5706 1.4292347,2.9998 2.9999766,3 l 73.999415,0 c 1.570741,-2e-4 2.999818,-1.4294 2.999976,-3 l 0,-49.93698 c -1.58e-4,-1.57079 -1.429259,-3.06302 -3,-3.06302 l -29,0 2.53e-4,-2.99953 c -1.58e-4,-1.57079 -1.429235,-2.99998 -2.999977,-2.99998 l -41.999667,0 c -0.207575,-0.022 -0.417421,-0.022 -0.624995,0 z m 23.624813,17.99986 0.187498,0 3.81247,0 0,3.99997 -1.999984,0 0,1.99998 -3.999969,0 0,-3.99997 c 0,-1.92398 1.999985,-1.99998 1.999985,-1.99998 z m 5.999952,0 3.999969,0 0,3.99997 -3.999969,0 z m 5.999953,0 3.999968,0 0,3.99997 -3.999968,0 z m 5.999952,0 3.999969,0 0,3.99997 -3.999969,0 z m 5.999953,0 3.999968,0 c 0,0 1.999985,0 1.999985,1.99998 l 0,3.99997 -3.999969,0 0,-1.99998 -1.999984,0 z m -25.999795,7.99993 3.999969,0 0,4.00002 -3.999969,0 z m 27.999779,0 3.999969,0 0,4.00002 -3.999969,0 z m -27.999779,5.99992 3.999969,0 0,4 -3.999969,0 z m 27.999779,0 3.999969,0 0,4 -3.999969,0 z m -27.999779,6 3.999969,0 0,4 -3.999969,0 z m 27.999779,0 3.999969,0 0,4 -3.999969,0 z m -27.999779,5.9999 3.999969,0 0,2 1.999984,0 0,4 -3.999968,0 c 0,0 -1.999985,0 -1.999985,-2 z m 27.999779,0 3.999969,0 0,4 c 0,2 -1.999985,2 -1.999985,2 l -3.999968,0 0,-4 1.999984,0 z m -19.999842,2 3.999969,0 0,4 -3.999969,0 z m 5.999953,0 3.999968,0 0,4 -3.999968,0 z m 5.999952,0 3.999969,0 0,4 -3.999969,0 z"
       id="path3912"
       inkscape:connector-curvature="0"
       sodipodi:nodetypes="cccccccsccscccccccccsccccccccccccccccccscccccccccccccccccccccccccccccccccccccccccscccscccccccccccccccccccc" />
  </g>
</svg>
