<!-- Created with Inkscape (http://www.inkscape.org/) -->
<svg xmlns="http://www.w3.org/2000/svg" viewBox="0 0 96 96">
 <g transform="translate(0,-956.3622)">
  <path d="m 10.376 972.36 c -1.353 0.288 -2.405 1.617 -2.375 3 l 0 56 c 0 1.571 1.429 3 3 3 l 73.999 0 c 1.571 0 3 -1.429 3 -3 l 0 -49.937 c 0 -1.571 -1.429 -3.063 -3 -3.063 l -29 0 0 -3 c 0 -1.571 -1.429 -3 -3 -3 l -42 0 c -0.208 -0.022 -0.417 -0.022 -0.625 0 z m 37.625 18 c 2.216 0 4 1.784 4 4 l 0 10 4 0 c 2 0 2 0 0 2 l -6 6 c -2 2 -2 2 -4 0 l -6 -6 c -2 -2 -1.789 -2.894 0 -2 l 4 0 0 -10 c 0 -2.216 1.784 -4 4 -4 z m -14 16 c 1.108 0 2 0.892 2 2 l 0 8 24 0 0 -8 c 0 -1.108 0.892 -2 2 -2 1.108 0 2 0.892 2 2 l 0 10 c 0 0.831 -0.532 1.51 -1.25 1.813 -0.239 0.1 -0.473 0.188 -0.75 0.188 l -28 0 c -1.108 0 -2 -0.892 -2 -2 l 0 -10 c 0 -1.108 0.892 -2 2 -2 z" style="visibility:visible;fill:#f06292;fill-opacity:1;stroke:none;display:inline;color:#000;fill-rule:nonzero"/>
 </g>
</svg>
