<?xml version="1.0" encoding="UTF-8" standalone="no"?>
<svg
   xmlns:dc="http://purl.org/dc/elements/1.1/"
   xmlns:cc="http://creativecommons.org/ns#"
   xmlns:rdf="http://www.w3.org/1999/02/22-rdf-syntax-ns#"
   xmlns:svg="http://www.w3.org/2000/svg"
   xmlns="http://www.w3.org/2000/svg"
   xmlns:sodipodi="http://sodipodi.sourceforge.net/DTD/sodipodi-0.dtd"
   xmlns:inkscape="http://www.inkscape.org/namespaces/inkscape"
   width="24"
   height="24"
   viewBox="0 0 24 24"
   id="svg3103"
   version="1.1"
   inkscape:version="0.48.5 r10040"
   sodipodi:docname="folder-video.svg">
  <metadata
     id="metadata3117">
    <rdf:RDF>
      <cc:Work
         rdf:about="">
        <dc:format>image/svg+xml</dc:format>
        <dc:type
           rdf:resource="http://purl.org/dc/dcmitype/StillImage" />
      </cc:Work>
    </rdf:RDF>
  </metadata>
  <defs
     id="defs3115" />
  <sodipodi:namedview
     pagecolor="#ffffff"
     bordercolor="#666666"
     borderopacity="1"
     objecttolerance="10"
     gridtolerance="10"
     guidetolerance="10"
     inkscape:pageopacity="0"
     inkscape:pageshadow="2"
     inkscape:window-width="1280"
     inkscape:window-height="998"
     id="namedview3113"
     showgrid="true"
     inkscape:zoom="15.170655"
     inkscape:cx="3.3153458"
     inkscape:cy="14.737053"
     inkscape:window-x="0"
     inkscape:window-y="0"
     inkscape:window-maximized="1"
     inkscape:current-layer="svg3103">
    <inkscape:grid
       type="xygrid"
       id="grid4973"
       empspacing="5"
       visible="true"
       enabled="true"
       snapvisiblegridlinesonly="true" />
  </sodipodi:namedview>
  <rect
     style="fill:#ea9036;fill-opacity:1;stroke:none"
     id="rect3757"
     width="18"
     height="5"
     x="3"
     y="5.9999828" />
  <path
     style="fill:#ea9036;fill-opacity:1;stroke:none"
     d="M 5,7 C 5,6 5,5 5.909091,5 L 9.090909,5 C 10,5 10,6 10,7 z"
     id="path3759"
     inkscape:connector-curvature="0"
     sodipodi:nodetypes="ccccc" />
  <path
     style="fill:#95989f;fill-opacity:1;stroke:none"
     d="m 4,7 16,0 0,4 -16,0 z"
     id="path3765"
     inkscape:connector-curvature="0" />
  <rect
     y="6.9999828"
     x="6"
     height="6"
     width="13"
     id="rect3763"
     style="fill:#d8d8da;fill-opacity:1;stroke:none" />
  <rect
     style="fill:#f9f9f9;fill-opacity:1;stroke:none"
     id="rect3761"
     width="13"
     height="3.0000174"
     x="5"
     y="7.9999828" />
  <path
     style="fill:#f2bb64;fill-opacity:1;stroke:none"
     d="M 2,9 22,9 21,20 3,20 z"
     id="path2987"
     inkscape:connector-curvature="0"
     sodipodi:nodetypes="ccccc" />
  <path
     style="fill:#000000;fill-opacity:0.25098041"
     d="m 12,11.167969 c -2.019531,0 -3.667969,1.644531 -3.667969,3.664062 C 8.332031,16.851562 9.980469,18.5 12,18.5 c 2.019531,0 3.667969,-1.648438 3.667969,-3.667969 0,-2.019531 -1.648438,-3.664062 -3.667969,-3.664062 z m 0,0.914062 c 1.523438,0 2.75,1.226563 2.75,2.75 0,1.523438 -1.226562,2.75 -2.75,2.75 -1.523438,0 -2.75,-1.226562 -2.75,-2.75 0,-1.523437 1.226562,-2.75 2.75,-2.75 z M 11.082031,13 l 0,3.667969 2.75,-1.835938 z"
     id="path3111"
     inkscape:connector-curvature="0" />
</svg>
