<svg version="1.1" viewBox="0 0 48 48" xmlns="http://www.w3.org/2000/svg">
 <g transform="translate(0,-1004.3622)">
  <rect x="5" y="1014.36" width="38" height="15" style="fill:#d32f2f"/>
  <path d="m10 1016.36c0-2 0-4 2-4h7c2 0 2 2 2 4z" style="fill:#d32f2f"/>
  <path d="m9 1017.36h31v7h-31z" style="fill:#95989f"/>
  <rect x="11" y="1016.36" width="28" height="20" style="fill:#d8d8da"/>
  <rect x="10" y="1019.36" width="28" height="20" style="fill:#f9f9f9"/>
  <path d="m2 1020.36h44l-4 24h-37z" style="fill:#ef5350"/>
  <path d="m18.989758 1025.3623c-0.122201 0-0.244551 0.069-0.290183 0.2078l-1.628262 4.7921h3.928964l-1.720335-4.7921c-0.04565-0.1386-0.167983-0.2078-0.290184-0.2078zm2.010519 4.9999 2.999999 9 3.000001-9zm6 0h3.928963l-1.628261-4.7921c-0.09126-0.2772-0.489059-0.2772-0.580368 0zm3.928963 0-6.928964 9 7.74867-5.0104c0.213807-0.1533 0.303382-0.4249 0.221731-0.6729zm-6.928964 9-6.928963-9-1.041438 3.3167c-0.08165 0.248 0.0079 0.5196 0.221732 0.6729z" style="-inkscape-stroke:none;fill:#ab3634;font-variation-settings:normal;stop-color:#000000"/>
 </g>
</svg>
