<?xml version="1.0" encoding="UTF-8" standalone="no"?>
<svg
   xmlns:dc="http://purl.org/dc/elements/1.1/"
   xmlns:cc="http://creativecommons.org/ns#"
   xmlns:rdf="http://www.w3.org/1999/02/22-rdf-syntax-ns#"
   xmlns:svg="http://www.w3.org/2000/svg"
   xmlns="http://www.w3.org/2000/svg"
   xmlns:xlink="http://www.w3.org/1999/xlink"
   xmlns:sodipodi="http://sodipodi.sourceforge.net/DTD/sodipodi-0.dtd"
   xmlns:inkscape="http://www.inkscape.org/namespaces/inkscape"
   viewBox="0 0 48 48"
   id="svg3062"
   version="1.1"
   inkscape:version="0.91 r"
   width="100%"
   height="100%"
   sodipodi:docname="athena.svg">
  <metadata
     id="metadata3145">
    <rdf:RDF>
      <cc:Work
         rdf:about="">
        <dc:format>image/svg+xml</dc:format>
        <dc:type
           rdf:resource="http://purl.org/dc/dcmitype/StillImage" />
      </cc:Work>
    </rdf:RDF>
  </metadata>
  <sodipodi:namedview
     pagecolor="#ffffff"
     bordercolor="#666666"
     borderopacity="1"
     objecttolerance="10"
     gridtolerance="10"
     guidetolerance="10"
     inkscape:pageopacity="0"
     inkscape:pageshadow="2"
     inkscape:window-width="1280"
     inkscape:window-height="998"
     id="namedview3143"
     showgrid="false"
     inkscape:zoom="9.8333331"
     inkscape:cx="21.553195"
     inkscape:cy="25.479767"
     inkscape:window-x="0"
     inkscape:window-y="0"
     inkscape:window-maximized="1"
     inkscape:current-layer="svg3062" />
  <defs
     id="defs3064">
    <linearGradient
       id="linearGradient3764"
       x1="1"
       x2="47"
       gradientUnits="userSpaceOnUse"
       gradientTransform="matrix(0,-1,1,0,-1.5e-6,47.999998)">
      <stop
         stop-color="#b44732"
         stop-opacity="1"
         id="stop3067" />
      <stop
         offset="1"
         stop-color="#c44e36"
         stop-opacity="1"
         id="stop3069" />
    </linearGradient>
    <linearGradient
       inkscape:collect="always"
       xlink:href="#linearGradient3764"
       id="linearGradient5286"
       gradientUnits="userSpaceOnUse"
       gradientTransform="translate(-48.000001,0.00221547)"
       x1="1"
       x2="47" />
  </defs>
  <g
     id="g21">
    <path
       style="opacity:0.02000002"
       inkscape:connector-curvature="0"
       d="m 1,43 0,0.25 c 0,2.216 1.784,4 4,4 l 38,0 c 2.216,0 4,-1.784 4,-4 L 47,43 c 0,2.216 -1.784,4 -4,4 L 5,47 C 2.784,47 1,45.216 1,43 z m 0,0.5 0,0.5 c 0,2.216 1.784,4 4,4 l 38,0 c 2.216,0 4,-1.784 4,-4 l 0,-0.5 c 0,2.216 -1.784,4 -4,4 l -38,0 c -2.216,0 -4,-1.784 -4,-4 z"
       id="path23" />
    <path
       style="opacity:0.05"
       inkscape:connector-curvature="0"
       d="m 1,43.25 0,0.25 c 0,2.216 1.784,4 4,4 l 38,0 c 2.216,0 4,-1.784 4,-4 l 0,-0.25 c 0,2.216 -1.784,4 -4,4 l -38,0 c -2.216,0 -4,-1.784 -4,-4 z"
       id="path25" />
    <path
       style="opacity:0.1"
       inkscape:connector-curvature="0"
       d="m 1,43 0,0.25 c 0,2.216 1.784,4 4,4 l 38,0 c 2.216,0 4,-1.784 4,-4 L 47,43 c 0,2.216 -1.784,4 -4,4 L 5,47 C 2.784,47 1,45.216 1,43 z"
       id="path27" />
  </g>
  <rect
     id="rect31"
     transform="matrix(0,-1,1,0,0,0)"
     rx="4"
     y="1"
     x="-47"
     height="46"
     width="46"
     style="fill:url(#linearGradient5286);fill-opacity:1.0" />
  <g
     id="g53">
    <g
       transform="translate(0,-1004.3622)"
       id="g55">
      <path
         style="opacity:0.1"
         inkscape:connector-curvature="0"
         d="m 1,1043.36 0,4 c 0,2.216 1.784,4 4,4 l 38,0 c 2.216,0 4,-1.784 4,-4 l 0,-4 c 0,2.216 -1.784,4 -4,4 l -38,0 c -2.216,0 -4,-1.784 -4,-4 z"
         id="path57" />
    </g>
  </g>
  <path
     inkscape:connector-curvature="0"
     style="opacity:0.1;fill:#000000;fill-opacity:1;fill-rule:nonzero;stroke:none"
     d="m 14.750018,14 c -0.391,0 -0.75,0.421843 -0.75,0.875 l 0,1.125 -1.09375,0 -0.09375,0 c -0.440999,0.04301 -0.8155,0.418726 -0.8125,0.84375 l 0,16.28125 c 0,0.453026 0.434251,0.875 0.90625,0.875 l 22.1875,0 c 0.468999,0 0.90625,-0.421974 0.90625,-0.875 l 0,-14.21875 C 36.000018,18.457227 35.561767,18 35.093768,18 l -1.09375,0 0,-3.125 c 0,-0.454175 -0.355,-0.875 -0.75,-0.875 l -18.5,0 z"
     id="path3060" />
  <path
     style="fill:#b29c9c;fill-opacity:1;fill-rule:nonzero;stroke:none"
     inkscape:connector-curvature="0"
     id="path57-0"
     d="m 14.000018,19 0,-5.132383 c 0,-0.453157 0.359,-0.867617 0.75,-0.867617 l 18.5,0 c 0.395,0 0.75,0.413442 0.75,0.867617 l 0,5.132383 m -20,0" />
  <path
     style="fill:#ecedf1;fill-opacity:1;fill-rule:nonzero;stroke:none"
     inkscape:connector-curvature="0"
     id="path59"
     d="m 12.813017,15 c -0.440999,0.04301 -0.815999,0.434024 -0.812999,0.859048 l 0,16.277904 c 0,0.453026 0.43,0.863048 0.901999,0.863048 l 22.199984,0 C 35.571,33 36,32.589978 36,32.136952 L 36,17.89416 C 36,17.445137 35.57,17 35.102001,17 l -9.101983,0 0,-1.124951 C 26.000018,15.426024 25.543008,15 25.075008,15 l -12.175991,0 c -0.027,0 -0.059,0 -0.09,0"
     sodipodi:nodetypes="ccsssssscsssc" />
  <path
     style="fill:#b29c9c;fill-opacity:1;fill-rule:nonzero;stroke:none"
     inkscape:connector-curvature="0"
     id="path3137"
     d="m 24,17.98 -0.715,1.641 0.191,0.434 c -1.152,0.078 -0.926,0.313 -0.926,0.313 0,0 -1.328,0.246 -1.328,0.43 0,0.012 0,0.008 0,0.016 -0.266,0.129 -0.527,0.309 -0.777,0.504 -3.34,4.488 0.234,5.527 -0.559,8.133 -0.172,0.566 -0.891,1.527 -0.891,1.527 0,0 1.449,0.18 2.047,-1.516 0.484,-1.371 -1.156,-4.129 0.066,-5.363 1.734,-1.75 3.02,1.855 2.477,2.355 -0.551,0.5 -0.414,0.637 -0.414,0.637 l 0.82,1.656 0.816,-1.656 c 0,0 0.141,-0.137 -0.41,-0.637 -0.547,-0.5 0.742,-4.109 2.473,-2.355 1.227,1.238 -0.418,3.992 0.07,5.363 0.598,1.695 2.047,1.516 2.047,1.516 0,0 -0.715,-0.969 -0.891,-1.527 -0.793,-2.602 2.77,-3.641 -0.566,-8.133 -0.25,-0.188 -0.512,-0.371 -0.773,-0.5 0,-0.008 0,-0.004 0,-0.016 0,-0.188 -1.324,-0.43 -1.324,-0.43 0,0 0.227,-0.234 -0.93,-0.313 l 0.188,-0.434 -0.711,-1.641 m 0.016,-0.004" />
</svg>
