<?xml version="1.0" encoding="UTF-8" standalone="no"?>
<!-- Created with Inkscape (http://www.inkscape.org/) -->

<svg
   xmlns:dc="http://purl.org/dc/elements/1.1/"
   xmlns:cc="http://creativecommons.org/ns#"
   xmlns:rdf="http://www.w3.org/1999/02/22-rdf-syntax-ns#"
   xmlns:svg="http://www.w3.org/2000/svg"
   xmlns="http://www.w3.org/2000/svg"
   xmlns:xlink="http://www.w3.org/1999/xlink"
   xmlns:sodipodi="http://sodipodi.sourceforge.net/DTD/sodipodi-0.dtd"
   xmlns:inkscape="http://www.inkscape.org/namespaces/inkscape"
   width="16"
   height="16"
   id="svg2"
   version="1.1"
   inkscape:version="0.48.5 r10040"
   sodipodi:docname="folder-open.svg"
   inkscape:export-filename="/media/Data/Main/Visuals/Icons/Numix/Desktop/repos/numix-wiki/Gjorgi/Numix-folders/48/New/folder-144.png"
   inkscape:export-xdpi="270"
   inkscape:export-ydpi="270">
  <defs
     id="defs4">
    <radialGradient
       r="24"
       fy="40.5"
       fx="24"
       cy="40.5"
       cx="24"
       gradientTransform="matrix(0.41666667,0,0,0.06944442,-2,1046.8831)"
       gradientUnits="userSpaceOnUse"
       id="radialGradient3016"
       xlink:href="#linearGradient3886"
       inkscape:collect="always" />
    <linearGradient
       id="linearGradient3886">
      <stop
         style="stop-color:#000000;stop-opacity:1;"
         offset="0"
         id="stop3888" />
      <stop
         style="stop-color:#000000;stop-opacity:0.19607843;"
         offset="1"
         id="stop3890" />
    </linearGradient>
  </defs>
  <sodipodi:namedview
     id="base"
     pagecolor="#ffffff"
     bordercolor="#666666"
     borderopacity="1.0"
     inkscape:pageopacity="0.0"
     inkscape:pageshadow="2"
     inkscape:zoom="22.627417"
     inkscape:cx="-1.2503128"
     inkscape:cy="4.8138782"
     inkscape:document-units="px"
     inkscape:current-layer="layer1"
     showgrid="true"
     inkscape:window-width="1280"
     inkscape:window-height="998"
     inkscape:window-x="0"
     inkscape:window-y="0"
     inkscape:window-maximized="1"
     showguides="true"
     inkscape:guide-bbox="true">
    <inkscape:grid
       type="xygrid"
       id="grid2985"
       empspacing="5"
       visible="true"
       enabled="true"
       snapvisiblegridlinesonly="true" />
  </sodipodi:namedview>
  <metadata
     id="metadata7">
    <rdf:RDF>
      <cc:Work
         rdf:about="">
        <dc:format>image/svg+xml</dc:format>
        <dc:type
           rdf:resource="http://purl.org/dc/dcmitype/StillImage" />
        <dc:title />
      </cc:Work>
    </rdf:RDF>
  </metadata>
  <g
     inkscape:label="Layer 1"
     inkscape:groupmode="layer"
     id="layer1"
     transform="translate(0,-1036.3622)">
    <rect
       style="fill:#7a7a68;fill-opacity:1;stroke:none"
       id="rect3863"
       width="8"
       height="1.0000174"
       x="4"
       y="1041.3622" />
    <path
       style="fill:none;stroke:none"
       d="m 11,1037.8622 -2.5,1.5 1.5,0 z"
       id="path3801-8"
       inkscape:connector-curvature="0" />
    <path
       inkscape:connector-curvature="0"
       style="opacity:0.1;fill:url(#radialGradient3016);fill-opacity:1;stroke:none"
       d="m 8,1048.0289 c -3.2755163,0 -6.1759901,0.261 -8,0.6667 l 0,2 c 1.8240099,0.4056 4.7244837,0.6666 8,0.6666 3.275517,0 6.17599,-0.261 8,-0.6666 l 0,-2 c -1.82401,-0.4057 -4.724483,-0.6667 -8,-0.6667 z"
       id="path3868" />
    <rect
       style="fill:#5d4037;fill-opacity:1;stroke:none"
       id="rect2987-5"
       width="14"
       height="9.9999599"
       x="1"
       y="1040.3622"
       rx="1.521739"
       ry="1.5624928" />
    <path
       style="opacity:0.2;fill:#ffffff;fill-opacity:1;stroke:none"
       d="M 2.5217392,1040.3622 C 1.6786958,1040.3622 1,1041.0518 1,1041.9086 l 0,0.6185 c 0,-0.8567 0.6786958,-1.1649 1.5217392,-1.1649 l 10.9565218,0 c 0.843043,0 1.521739,0.3082 1.521739,1.1649 l 0,-0.6185 c 0,-0.8568 -0.678696,-1.5464 -1.521739,-1.5464 z"
       id="rect3797"
       inkscape:connector-curvature="0"
       sodipodi:nodetypes="sscsscsss" />
    <path
       style="opacity:0.6;fill:#fff1ed;fill-opacity:1;stroke:none"
       d="m 3.0000001,1043.3622 -1.0000001,0 2,-2 2,2 -0.9999999,0 0,3 -2,0 z"
       id="path3834"
       inkscape:connector-curvature="0"
       sodipodi:nodetypes="cccccccc" />
    <path
       style="fill:#8d6e63;fill-opacity:1;stroke:none"
       d="m 2.5217392,1045.3619 2.4347826,0 c 3.347826,-0.3333 2.7391304,-4 4.8695652,-4 l 3.652174,0 c 0.843043,0 1.521739,0.7434 1.521739,1.6667 l 0,5.667 c 0,0.9233 -0.678696,1.6666 -1.521739,1.6666 l -10.9565218,0 C 1.6786958,1050.3622 1,1049.6189 1,1048.6956 l 0,-1.667 c 0,-1 0.6086958,-1.6667 1.5217392,-1.6667 z"
       id="rect3776"
       inkscape:connector-curvature="0"
       sodipodi:nodetypes="cccsssssscc" />
    <path
       style="opacity:0.15;fill:#000000;fill-opacity:1;stroke:none"
       d="m 1,1048.0289 0,0.6667 c 0,0.9233 0.6786958,1.6666 1.5217392,1.6666 l 10.9565218,0 c 0.843043,0 1.521739,-0.7433 1.521739,-1.6666 l 0,-0.6667 c 0,0.9233 -0.678696,1.3333 -1.521739,1.3333 l -10.9565218,0 C 1.6786958,1049.3622 1,1048.9522 1,1048.0289 z"
       id="path3786"
       inkscape:connector-curvature="0"
       sodipodi:nodetypes="csssscssc" />
  </g>
</svg>
