<svg xmlns="http://www.w3.org/2000/svg" viewBox="0 0 256 256">
 <path d="m 36 96 c -5.856 0 -12 5.866 -12 12 l 0 9 -12 0 c -5.88 0 -12 5.981 -12 12 l 0 115 c 0 8 4 12 12 12 l 195 0 c 6.27 0 12 -5.433 12 -12 l 0 -100 c 0 -6.02 -5.82 -12 -12 -12 l -12 0 0 -24 c 0 -5.845 -5.813 -12 -12 -12 z" style="fill:#bdbdbd;fill-opacity:1;stroke:none"/>
 <path d="m 36 96 c -0.366 0 -0.727 0.018 -1.094 0.063 c -0.733 0.089 -1.47 0.281 -2.188 0.531 c -0.717 0.25 -1.418 0.579 -2.094 0.969 c -0.338 0.195 -0.677 0.399 -1 0.625 c -0.652 0.456 -1.241 0.967 -1.813 1.531 c -0.278 0.274 -0.558 0.548 -0.813 0.844 c -0.005 0.006 0.005 0.025 0 0.031 c -0.253 0.296 -0.523 0.591 -0.75 0.906 c -0.005 0.007 0.005 0.025 0 0.031 c -0.226 0.315 -0.46 0.637 -0.656 0.969 c -0.004 0.007 0.004 0.024 0 0.031 c -0.195 0.331 -0.368 0.655 -0.531 1 c -0.004 0.008 0.004 0.023 0 0.031 c -0.162 0.345 -0.342 0.707 -0.469 1.063 c -0.003 0.009 0.003 0.022 0 0.031 c -0.125 0.355 -0.225 0.699 -0.313 1.063 c -0.002 0.01 0.002 0.021 0 0.031 c -0.086 0.364 -0.174 0.724 -0.219 1.094 c -0.001 0.01 0.001 0.021 0 0.031 c -0.044 0.37 -0.063 0.752 -0.063 1.125 l 0 9 l -12 0 c -5.88 0 -12 5.981 -12 12 l 0 115 c 0 8 4 12 12 12 l 195 0 c 0.784 0 1.556 -0.089 2.313 -0.25 c 5.297 -1.13 9.688 -6 9.688 -11.75 l 0 -100 c 0 -0.376 -0.017 -0.751 -0.063 -1.125 c -0.532 -4.513 -4.178 -8.773 -8.594 -10.281 c -0.352 -0.124 -0.703 -0.226 -1.063 -0.313 c -0.01 -0.002 -0.021 0.002 -0.031 0 c -0.36 -0.085 -0.73 -0.174 -1.094 -0.219 c -0.01 -0.001 -0.021 0.001 -0.031 0 c -0.374 -0.045 -0.749 -0.063 -1.125 -0.063 l -12 0 l 0 -24 c 0 -5.845 -5.813 -12 -12 -12 l -147 0 z" style="fill:#000;fill-opacity:0.102;stroke:none"/>
 <path d="m 36 96 c -5.856 0 -12 5.942 -12 12 l 0 9 -12 0 c -5.88 0 -12 5.981 -12 12 l 0 115 c 0 8 4 12 12 12 l 195 0 c 6.27 0 12 -5.433 12 -12 l 0 -100 c 0 -6.02 -5.99 -12 -12 -12 l -12 0 0 -24 c 0 -5.845 -5.813 -12 -12 -12 z m -24 29 114 0 c 2.361 0 4.803 2.233 4 4 l 0 11 77 0 c 2.022 0 4 2.035 4 4 l 0 100 c 0 2.085 -1.915 4 -4 4 l -195 0 c -1.857 0 -4 -1.585 -4 -4 l 0 -115 c 0 -1.97 2.066 -4 4 -4 z" style="fill:#000;fill-opacity:0.322;stroke:none"/>
 <path d="m 73 0 c -5.856 0 -12 5.866 -12 12 l 0 9 -12 0 c -5.88 0 -12 5.981 -12 12 l 0 115 c 0 8 4 12 12 12 l 195 0 c 6.27 0 12 -5.433 12 -12 l 0 -100 c 0 -6.02 -5.82 -12 -12 -12 l -12 0 0 -24 c 0 -5.845 -5.813 -12 -12 -12 z" style="fill:#bdbdbd;fill-opacity:1;stroke:none"/>
 <path d="m 73 0 c -5.856 0 -12 5.941 -12 12 l 0 9 -12 0 c -5.88 0 -12 5.981 -12 12 l 0 115 c 0 8 4 12 12 12 l 195 0 c 6.27 0 12 -5.433 12 -12 l 0 -100 c 0 -6.02 -5.99 -12 -12 -12 l -12 0 0 -24 c 0 -5.845 -5.813 -12 -12 -12 z m -24 29 114 0 c 2.361 0 4.803 2.233 4 4 l 0 11 77 0 c 2.022 0 4 2.035 4 4 l 0 100 c 0 2.085 -1.915 4 -4 4 l -195 0 c -1.857 0 -4 -1.585 -4 -4 l 0 -115 c 0 -1.97 2.066 -4 4 -4 z" style="fill:#000;fill-opacity:0.322;stroke:none"/>
 <path d="m 256 160 l -48 0 l 0 -48 l -48 0 l 0 48 l -48 0 l 0 48 l 48 0 l 0 48 l 48 0 l 0 -48 l 48 0 Z" style="fill:#859900"/>
</svg>
