<svg xmlns="http://www.w3.org/2000/svg" viewBox="0 0 256 256">
 <path d="m 36 30 c -5.856 0 -12 6 -12 12 l 0 54 -12 0 c -5.88 0 -12 5.981 -12 12 l 0 106 c 0 8 4 12 12 12 l 232 0 c 6.27 0 12 -5.433 12 -12 l 0 -86 c 0 -6.02 -5.82 -12 -12 -12 l -12 0 0 -74 c 0 -5.845 -5.813 -12 -12 -12 z" style="fill:#f57c00;fill-opacity:1;stroke:none"/>
 <path d="m 36 30 c -5.856 0 -12 6 -12 12 l 0 54 -12 0 c -5.88 0 -12 5.981 -12 12 l 0 106 c 0 8 4 12 12 12 l 232 0 c 6.27 0 12 -5.433 12 -12 l 0 -86 c 0 -6.02 -6 -12 -12 -12 l -12 0 0 -74 c 0 -5.845 -5.813 -12 -12 -12 z m -24 74 l 136 0 c 2.361 0 4 2.059 4 4 l 0 16 92 0 c 2.022 0 4 2.035 4 4 l 0 86 c 0 2.085 -1.915 4 -4 4 l -232 0 c -1.857 0 -4 -1.585 -4 -4 l 0 -106 c 0 -1.97 2.066 -4 4 -4 z" style="fill:#000;fill-opacity:0.322;stroke:none"/>
 <path d="m 56 46 144 0 0 50 -144 0 z" style="fill:#fff"/>
 <path d="m 72 78 112 0 0 8 -112 0 z" style="fill:#ccc"/>
 <path d="m 72 62 112 0 0 8 -112 0 z" style="fill:#ccc"/>
 <rect width="40" height="20" x="160" y="96" style="fill:#fff;opacity:1;fill-opacity:1;stroke:none;fill-rule:evenodd"/>
 <path d="m 160 108 c 0 -7 -5 -12 -12 -12 l 12 0 z" style="fill:#fff;fill-opacity:1;stroke:none"/>
 <path d="m 160 110 24 0 0 6 -24 0 z" style="fill:#ccc"/>
 <path d="m 72 94 88 0 0 2 -88 0 z" style="fill:#ccc"/>
 <path d="m 148 96 c 4.759 0 8.595 2.32 10.563 6 l 1.438 0 l 0 -6 l -12 0 z" style="fill:#ccc;fill-opacity:1;stroke:none"/>
 <rect width="24" height="8" x="160" y="94" style="fill:#ccc;fill-opacity:1;stroke:none;fill-rule:evenodd"/>
</svg>
