<?xml version="1.0" encoding="UTF-8" standalone="no"?>
<!-- Created with Inkscape (http://www.inkscape.org/) -->

<svg
   xmlns:dc="http://purl.org/dc/elements/1.1/"
   xmlns:cc="http://creativecommons.org/ns#"
   xmlns:rdf="http://www.w3.org/1999/02/22-rdf-syntax-ns#"
   xmlns:svg="http://www.w3.org/2000/svg"
   xmlns="http://www.w3.org/2000/svg"
   xmlns:xlink="http://www.w3.org/1999/xlink"
   xmlns:sodipodi="http://sodipodi.sourceforge.net/DTD/sodipodi-0.dtd"
   xmlns:inkscape="http://www.inkscape.org/namespaces/inkscape"
   width="32"
   height="32"
   id="svg2"
   version="1.1"
   inkscape:version="0.91 r"
   sodipodi:docname="blue-user-home.svg">
  <defs
     id="defs4">
    <linearGradient
       id="linearGradient3886-9">
      <stop
         style="stop-color:#000000;stop-opacity:1;"
         offset="0"
         id="stop3888-3" />
      <stop
         style="stop-color:#000000;stop-opacity:0.19607843;"
         offset="1"
         id="stop3890-7" />
    </linearGradient>
    <radialGradient
       r="24"
       fy="40.5"
       fx="24"
       cy="40.5"
       cx="24"
       gradientTransform="matrix(0.83333334,0,0,0.13888885,-4,1041.4039)"
       gradientUnits="userSpaceOnUse"
       id="radialGradient3098"
       xlink:href="#linearGradient3886-9"
       inkscape:collect="always" />
  </defs>
  <sodipodi:namedview
     id="base"
     pagecolor="#ffffff"
     bordercolor="#666666"
     borderopacity="1.0"
     inkscape:pageopacity="0.0"
     inkscape:pageshadow="2"
     inkscape:zoom="12.464725"
     inkscape:cx="23.586544"
     inkscape:cy="13.329056"
     inkscape:document-units="px"
     inkscape:current-layer="layer1"
     showgrid="true"
     inkscape:window-width="1280"
     inkscape:window-height="998"
     inkscape:window-x="0"
     inkscape:window-y="0"
     inkscape:window-maximized="1">
    <inkscape:grid
       type="xygrid"
       id="grid2990"
       empspacing="5"
       visible="true"
       enabled="true"
       snapvisiblegridlinesonly="true" />
  </sodipodi:namedview>
  <metadata
     id="metadata7">
    <rdf:RDF>
      <cc:Work
         rdf:about="">
        <dc:format>image/svg+xml</dc:format>
        <dc:type
           rdf:resource="http://purl.org/dc/dcmitype/StillImage" />
        <dc:title />
      </cc:Work>
    </rdf:RDF>
  </metadata>
  <g
     inkscape:label="Body"
     inkscape:groupmode="layer"
     id="layer1"
     transform="translate(0,-1020.3622)">
    <path
       inkscape:connector-curvature="0"
       style="opacity:0.1;fill:url(#radialGradient3098);fill-opacity:1;stroke:none"
       d="m 16,1043.6955 c -6.5510326,0 -12.3519802,0.5221 -16,1.3334 l 0,4 c 3.6480198,0.8112 9.4489674,1.3333 16,1.3333 6.551033,0 12.35198,-0.5221 16,-1.3333 l 0,-4 c -3.64802,-0.8113 -9.448967,-1.3334 -16,-1.3334 z"
       id="path3868" />
    <rect
       style="fill:#1976d2;fill-opacity:1;stroke:none"
       id="rect2987"
       width="30"
       height="20.999954"
       x="1"
       y="1027.3622"
       rx="3.2608695"
       ry="3.2812409" />
    <path
       style="opacity:0.2;fill:#ffffff;fill-opacity:1;stroke:none"
       d="M 4.2608696,1027.0289 C 2.4543478,1027.0289 1,1028.5155 1,1030.3622 l 0,1.3333 c 0,-1.8466 1.4543478,-3.3333 3.2608696,-3.3333 l 23.4782604,0 c 1.806522,0 3.26087,1.4867 3.26087,3.3333 l 0,-1.3333 c 0,-1.8467 -1.454348,-3.3333 -3.26087,-3.3333 l -23.4782604,0 z"
       id="rect3797"
       inkscape:connector-curvature="0" />
    <path
       style="fill:#42a5f5;fill-opacity:1;stroke:none"
       d="m 4.2608696,1032.3622 5.2173913,0 c 7.1739131,-0.6667 5.8695651,-8 10.4347821,-8 l 7.826087,0 c 1.806522,0 3.26087,1.4867 3.26087,3.3333 l 0,17.3334 c 0,1.8466 -1.454348,3.3333 -3.26087,3.3333 l -23.4782604,0 C 2.4543478,1048.3622 1,1046.8755 1,1045.0289 l 0,-9.3334 c 0,-2 1.3043478,-3.3333 3.2608696,-3.3333 z"
       id="rect3776"
       inkscape:connector-curvature="0"
       sodipodi:nodetypes="cccsssssscc" />
    <path
       style="opacity:0.15;fill:#000000;fill-opacity:1;stroke:none"
       d="m 1,1043.6955 0,1.3334 c 0,1.8466 1.4543478,3.3333 3.2608696,3.3333 l 23.4782604,0 c 1.806522,0 3.26087,-1.4867 3.26087,-3.3333 l 0,-1.3334 c 0,1.8467 -1.454348,3.6667 -3.26087,3.6667 l -23.4782604,0 C 2.4543478,1047.3622 1,1045.5422 1,1043.6955 z"
       id="path3786"
       inkscape:connector-curvature="0"
       sodipodi:nodetypes="csssscssc" />
    <g
       style="fill:#000000;fill-opacity:0.09803922"
       transform="matrix(0.66689703,0,0,0.64285586,3.6662059,1035.0765)"
       id="g3063">
      <path
         style="fill:#000000;fill-opacity:0.09803922"
         d="m 2,8 0,6 c 0,1.108 0.892,2 2,2 l 2.4984456,10e-6 0,-4.666676 2.9989638,0 0,4.666676 L 12,16 c 1.108,-4e-6 2,-0.892 2,-2 l 0,-6 z"
         id="path3065"
         inkscape:connector-curvature="0"
         sodipodi:nodetypes="cssccccsscc" />
      <path
         style="fill:#000000;fill-opacity:0.09803922;stroke:none"
         d="m 2,7 c -2.20338983,2 -2.99999994,2.7777751 10e-8,2.7777751 l 11.9958549,0 C 16.995855,9.7777751 16.288136,9 14,7 L 9,2 C 8,1 8,1 7,2 z"
         id="path3067"
         inkscape:connector-curvature="0"
         sodipodi:nodetypes="ccccccc" />
      <path
         style="fill:#000000;fill-opacity:0.09803922;stroke:none"
         d="M 13.246114,2 C 13.793829,1.9999818 14,2.446 14,3 l 0,4 -1.503627,-0.3333423 0,-3.686674 c 0,-0.554 0.246114,-0.9799669 0.749741,-0.9799837 z"
         id="path3069"
         inkscape:connector-curvature="0"
         sodipodi:nodetypes="ssccss" />
    </g>
    <g
       id="g4056"
       transform="matrix(0.66689703,0,0,0.64285586,3.6662059,1034.0765)"
       style="fill:#fff8e1;fill-opacity:1">
      <path
         sodipodi:nodetypes="cssccccsscc"
         inkscape:connector-curvature="0"
         id="rect2989"
         d="m 2,8 0,6 c 0,1.108 0.892,2 2,2 l 2.4984456,10e-6 0,-4.666676 2.9989638,0 0,4.666676 L 12,16 c 1.108,-4e-6 2,-0.892 2,-2 l 0,-6 z"
         style="fill:#fff8e1;fill-opacity:1" />
      <path
         sodipodi:nodetypes="ccccccc"
         inkscape:connector-curvature="0"
         id="path3761"
         d="m 2,7 c -2.20338983,2 -2.99999994,2.7777751 10e-8,2.7777751 l 11.9958549,0 C 16.995855,9.7777751 16.288136,9 14,7 L 9,2 C 8,1 8,1 7,2 z"
         style="fill:#fff8e1;fill-opacity:1;stroke:none" />
      <path
         sodipodi:nodetypes="ssccss"
         inkscape:connector-curvature="0"
         id="rect3763"
         d="M 13.246114,2 C 13.793829,1.9999818 14,2.446 14,3 l 0,4 -1.503627,-0.3333423 0,-3.686674 c 0,-0.554 0.246114,-0.9799669 0.749741,-0.9799837 z"
         style="fill:#fff8e1;fill-opacity:1;stroke:none" />
    </g>
  </g>
</svg>
