<?xml version="1.0" encoding="UTF-8" standalone="no"?>
<!-- Created with Inkscape (http://www.inkscape.org/) -->

<svg
   xmlns:dc="http://purl.org/dc/elements/1.1/"
   xmlns:cc="http://creativecommons.org/ns#"
   xmlns:rdf="http://www.w3.org/1999/02/22-rdf-syntax-ns#"
   xmlns:svg="http://www.w3.org/2000/svg"
   xmlns="http://www.w3.org/2000/svg"
   xmlns:xlink="http://www.w3.org/1999/xlink"
   xmlns:sodipodi="http://sodipodi.sourceforge.net/DTD/sodipodi-0.dtd"
   xmlns:inkscape="http://www.inkscape.org/namespaces/inkscape"
   width="32"
   height="32"
   id="svg2"
   version="1.1"
   inkscape:version="0.48.5 r10040"
   sodipodi:docname="folder-project.svg"
   inkscape:export-filename="/media/Data/Main/Visuals/Icons/Numix/Desktop/repos/numix-wiki/Gjorgi/Numix-folders/48/New/folder-144.png"
   inkscape:export-xdpi="270"
   inkscape:export-ydpi="270">
  <defs
     id="defs4">
    <linearGradient
       id="linearGradient3958"
       inkscape:collect="always">
      <stop
         id="stop3960"
         offset="0"
         style="stop-color:#000000;stop-opacity:1;" />
      <stop
         id="stop3962"
         offset="1"
         style="stop-color:#000000;stop-opacity:0;" />
    </linearGradient>
    <radialGradient
       gradientUnits="userSpaceOnUse"
       gradientTransform="matrix(1,0,0,0.10447761,0,50.597015)"
       r="33.5"
       fy="56.5"
       fx="32.5"
       cy="56.5"
       cx="32.5"
       id="radialGradient3964"
       xlink:href="#linearGradient3958"
       inkscape:collect="always" />
    <radialGradient
       inkscape:collect="always"
       xlink:href="#linearGradient3958"
       id="radialGradient3031"
       gradientUnits="userSpaceOnUse"
       gradientTransform="matrix(1,0,0,0.10447761,0,50.597015)"
       cx="32.5"
       cy="56.5"
       fx="32.5"
       fy="56.5"
       r="33.5" />
    <radialGradient
       gradientUnits="userSpaceOnUse"
       gradientTransform="matrix(1,0,0,0.10447761,0,50.597015)"
       r="33.5"
       fy="56.5"
       fx="32.5"
       cy="56.5"
       cx="32.5"
       id="radialGradient3964-4"
       xlink:href="#linearGradient3958-4"
       inkscape:collect="always" />
    <linearGradient
       id="linearGradient3958-4"
       inkscape:collect="always">
      <stop
         id="stop3960-2"
         offset="0"
         style="stop-color:#000000;stop-opacity:1;" />
      <stop
         id="stop3962-1"
         offset="1"
         style="stop-color:#000000;stop-opacity:0;" />
    </linearGradient>
    <radialGradient
       r="24"
       fy="40.5"
       fx="24"
       cy="40.5"
       cx="24"
       gradientTransform="matrix(0.83333334,0,0,0.13888885,-4,1041.4039)"
       gradientUnits="userSpaceOnUse"
       id="radialGradient3098"
       xlink:href="#linearGradient3886-9"
       inkscape:collect="always" />
    <linearGradient
       id="linearGradient3886-9">
      <stop
         style="stop-color:#000000;stop-opacity:1;"
         offset="0"
         id="stop3888-3" />
      <stop
         style="stop-color:#000000;stop-opacity:0.19607843;"
         offset="1"
         id="stop3890-7" />
    </linearGradient>
    <radialGradient
       r="24"
       fy="40.5"
       fx="24"
       cy="40.5"
       cx="24"
       gradientTransform="matrix(0.83333334,0,0,0.13888885,-4,1041.4039)"
       gradientUnits="userSpaceOnUse"
       id="radialGradient3124"
       xlink:href="#linearGradient3886-9"
       inkscape:collect="always" />
  </defs>
  <sodipodi:namedview
     id="base"
     pagecolor="#ffffff"
     bordercolor="#666666"
     borderopacity="1.0"
     inkscape:pageopacity="0.0"
     inkscape:pageshadow="2"
     inkscape:zoom="18.95"
     inkscape:cx="12.716602"
     inkscape:cy="15.404554"
     inkscape:document-units="px"
     inkscape:current-layer="layer1"
     showgrid="true"
     inkscape:window-width="1280"
     inkscape:window-height="998"
     inkscape:window-x="0"
     inkscape:window-y="0"
     inkscape:window-maximized="1"
     showguides="true"
     inkscape:guide-bbox="true">
    <inkscape:grid
       type="xygrid"
       id="grid2985"
       empspacing="5"
       visible="true"
       enabled="true"
       snapvisiblegridlinesonly="true" />
  </sodipodi:namedview>
  <metadata
     id="metadata7">
    <rdf:RDF>
      <cc:Work
         rdf:about="">
        <dc:format>image/svg+xml</dc:format>
        <dc:type
           rdf:resource="http://purl.org/dc/dcmitype/StillImage" />
        <dc:title />
      </cc:Work>
    </rdf:RDF>
  </metadata>
  <g
     inkscape:label="Layer 1"
     inkscape:groupmode="layer"
     id="layer1"
     transform="translate(0,-1020.3622)">
    <path
       inkscape:connector-curvature="0"
       style="opacity:0.1;fill:url(#radialGradient3124);fill-opacity:1;stroke:none"
       d="m 16,1043.6955 c -6.551033,0 -12.3519802,0.5221 -16,1.3334 l 0,4 c 3.6480198,0.8112 9.448967,1.3333 16,1.3333 6.551033,0 12.35198,-0.5221 16,-1.3333 l 0,-4 c -3.64802,-0.8113 -9.448967,-1.3334 -16,-1.3334 z"
       id="path3868" />
    <rect
       style="fill:replacecolour2;fill-opacity:1;stroke:none"
       id="rect2987"
       width="30"
       height="20.999954"
       x="1"
       y="1027.3622"
       rx="3.2608695"
       ry="3.2812409" />
    <path
       style="opacity:0.2;fill:#ffffff;fill-opacity:1;stroke:none"
       d="M 4.2608696,1027.0289 C 2.4543478,1027.0289 1,1028.5155 1,1030.3622 l 0,1.3333 c 0,-1.8466 1.4543478,-3.3333 3.2608696,-3.3333 l 23.4782604,0 c 1.806522,0 3.26087,1.4867 3.26087,3.3333 l 0,-1.3333 c 0,-1.8467 -1.454348,-3.3333 -3.26087,-3.3333 l -23.4782604,0 z"
       id="rect3797"
       inkscape:connector-curvature="0" />
    <path
       style="fill:replacecolour1;fill-opacity:1;stroke:none"
       d="m 4.2608696,1032.3622 5.2173914,0 c 7.173913,-0.6667 5.869565,-8 10.434782,-8 l 7.826087,0 c 1.806522,0 3.26087,1.4867 3.26087,3.3333 l 0,17.3334 c 0,1.8466 -1.454348,3.3333 -3.26087,3.3333 l -23.4782604,0 C 2.4543478,1048.3622 1,1046.8755 1,1045.0289 l 0,-9.3334 c 0,-2 1.3043478,-3.3333 3.2608696,-3.3333 z"
       id="rect3776"
       inkscape:connector-curvature="0"
       sodipodi:nodetypes="cccsssssscc" />
    <path
       style="opacity:0.15;fill:#000000;fill-opacity:1;stroke:none"
       d="m 1,1043.6955 0,1.3334 c 0,1.8466 1.4543478,3.3333 3.2608696,3.3333 l 23.4782604,0 c 1.806522,0 3.26087,-1.4867 3.26087,-3.3333 l 0,-1.3334 c 0,1.8467 -1.454348,3.6667 -3.26087,3.6667 l -23.4782604,0 C 2.4543478,1047.3622 1,1045.5422 1,1043.6955 z"
       id="path3786"
       inkscape:connector-curvature="0"
       sodipodi:nodetypes="csssscssc" />
    <path
       sodipodi:nodetypes="cccccccccccccccccccccccccccccccccccccccccc"
       inkscape:connector-curvature="0"
       id="path5612"
       d="m 4.9124216,1036.6116 c -0.2971169,0.011 -0.5779059,0.037 -0.860636,0.1352 -0.088893,0.6031 0.057654,1.2289 0.2193776,1.8069 0.4113823,1.3259 1.1749477,2.5843 2.2950273,3.4284 0.041057,0.039 0.099434,0.048 0.084374,0.1182 -0.00594,0.2937 -5.781e-4,0.6005 0,0.8952 0.012048,0.5149 0.322009,1.0069 0.7762571,1.2497 0.5391202,0.2839 1.0770865,0.5473 1.6200179,0.8274 0.2499326,0.1325 0.5965609,-0.02 0.6750086,-0.2871 0.047732,-0.176 0.014346,-0.3607 0.016874,-0.5403 -0.00185,-0.3784 -0.048402,-0.7581 -0.033749,-1.1317 0.4941279,-0.061 0.9908879,-0.3008 1.2825139,-0.7092 0.259916,-0.3483 0.352475,-0.7994 0.320629,-1.2328 0.528622,-0.095 1.073364,-0.1745 1.603142,-0.2703 0.313555,-0.063 0.449527,-0.4708 0.253129,-0.7262 -0.385331,-0.4886 -0.772643,-0.9672 -1.164388,-1.4525 -0.31627,-0.378 -0.811622,-0.5878 -1.29939,-0.5236 -0.330782,0.054 -0.669483,0.1244 -0.9956359,0.186 -1.0532665,-1.0041 -2.4691168,-1.5606 -3.8981692,-1.7226 -0.2934721,-0.027 -0.5972686,-0.056 -0.8943853,-0.05 z m 1.7887699,1.0977 c 0.3452401,-0.031 0.6915045,0.065 0.9787612,0.304 0.5745116,0.479 0.6640029,1.3334 0.1856273,1.9084 -0.478378,0.5749 -1.3323836,0.6645 -1.9068969,0.1856 -0.5745116,-0.4786 -0.6640036,-1.3332 -0.1856273,-1.9084 0.2391883,-0.2873 0.5828943,-0.458 0.9281357,-0.4896 z m 5.5181895,4.1377 c -0.118207,-0.011 -0.236054,0.079 -0.25313,0.2027 -0.150652,0.6852 -0.637488,1.2805 -1.282511,1.5537 -0.167954,0.054 -0.205461,0.2781 -0.06751,0.3883 0.283092,0.236 0.610136,0.5087 0.894384,0.7433 0.138311,0.1177 0.318308,-0.012 0.32063,-0.1858 -0.0045,-0.1439 -0.0208,-0.2973 -0.03376,-0.4391 0.352451,0.075 0.697509,0.1761 1.046262,0.2532 0.164346,0.034 0.32001,-0.164 0.253128,-0.3208 -0.137873,-0.3307 -0.280308,-0.6504 -0.42188,-0.9795 0.142707,-0.017 0.279926,-0.028 0.42188,-0.051 0.175704,-0.034 0.244414,-0.2907 0.101246,-0.4053 -0.284714,-0.2397 -0.572223,-0.4714 -0.860636,-0.7094 -0.03374,-0.027 -0.07872,-0.047 -0.118126,-0.05 z"
       style="fill:#000000;fill-opacity:0.09803922;fill-rule:nonzero;stroke:none" />
    <path
       style="opacity:1;fill:#fff8e1;fill-opacity:1;fill-rule:nonzero;stroke:none"
       d="m 4.9124216,1035.6111 c -0.2971169,0.011 -0.5779059,0.037 -0.860636,0.1352 -0.088893,0.6031 0.057654,1.2289 0.2193776,1.8069 0.4113823,1.3259 1.1749477,2.5843 2.2950273,3.4284 0.041057,0.039 0.099434,0.048 0.084374,0.1182 -0.00594,0.2937 -5.781e-4,0.6005 0,0.8952 0.012048,0.5149 0.322009,1.0069 0.7762571,1.2497 0.5391202,0.2839 1.0770865,0.5473 1.6200179,0.8274 0.2499326,0.1325 0.5965609,-0.02 0.6750086,-0.2871 0.047732,-0.176 0.014346,-0.3607 0.016874,-0.5403 -0.00185,-0.3784 -0.048402,-0.7581 -0.033749,-1.1317 0.4941283,-0.061 0.9908883,-0.3008 1.2825143,-0.7092 0.259916,-0.3483 0.352475,-0.7994 0.320629,-1.2328 0.528622,-0.095 1.073364,-0.1745 1.603142,-0.2703 0.313555,-0.063 0.449527,-0.4708 0.253129,-0.7262 -0.385331,-0.4886 -0.772643,-0.9672 -1.164388,-1.4525 -0.31627,-0.378 -0.811622,-0.5878 -1.29939,-0.5236 -0.330782,0.054 -0.669483,0.1244 -0.9956363,0.186 -1.0532665,-1.0041 -2.4691168,-1.5606 -3.8981692,-1.7226 -0.2934721,-0.027 -0.5972686,-0.056 -0.8943853,-0.05 z m 1.7887699,1.0977 c 0.3452401,-0.031 0.6915045,0.065 0.9787612,0.304 0.5745116,0.479 0.6640029,1.3334 0.1856273,1.9084 -0.478378,0.5749 -1.3323836,0.6645 -1.9068969,0.1856 -0.5745116,-0.4786 -0.6640036,-1.3332 -0.1856273,-1.9084 0.2391883,-0.2873 0.5828943,-0.458 0.9281357,-0.4896 z m 5.5181895,4.1377 c -0.118207,-0.011 -0.236054,0.079 -0.25313,0.2027 -0.150652,0.6852 -0.637488,1.2805 -1.282511,1.5537 -0.167954,0.054 -0.205461,0.2781 -0.06751,0.3883 0.283092,0.236 0.610136,0.5087 0.894384,0.7433 0.138311,0.1177 0.318308,-0.012 0.32063,-0.1858 -0.0045,-0.1439 -0.0208,-0.2973 -0.03376,-0.4391 0.352451,0.075 0.697509,0.1761 1.046262,0.2532 0.164346,0.034 0.32001,-0.164 0.253128,-0.3208 -0.137873,-0.3307 -0.280308,-0.6504 -0.42188,-0.9795 0.142707,-0.017 0.279926,-0.028 0.42188,-0.051 0.175704,-0.034 0.244414,-0.2907 0.101246,-0.4053 -0.284714,-0.2397 -0.572223,-0.4714 -0.860636,-0.7094 -0.03374,-0.027 -0.07872,-0.047 -0.118126,-0.05 z"
       id="path10643"
       inkscape:connector-curvature="0"
       sodipodi:nodetypes="cccccccccccccccccccccccccccccccccccccccccc" />
  </g>
</svg>
