<?xml version="1.0" encoding="UTF-8" standalone="no"?>
<!-- Created with Inkscape (http://www.inkscape.org/) -->

<svg
   xmlns:dc="http://purl.org/dc/elements/1.1/"
   xmlns:cc="http://creativecommons.org/ns#"
   xmlns:rdf="http://www.w3.org/1999/02/22-rdf-syntax-ns#"
   xmlns:svg="http://www.w3.org/2000/svg"
   xmlns="http://www.w3.org/2000/svg"
   xmlns:xlink="http://www.w3.org/1999/xlink"
   xmlns:sodipodi="http://sodipodi.sourceforge.net/DTD/sodipodi-0.dtd"
   xmlns:inkscape="http://www.inkscape.org/namespaces/inkscape"
   width="32"
   height="32"
   id="svg2"
   version="1.1"
   inkscape:version="0.91 r"
   sodipodi:docname="grey-folder-ubuntu.svg">
  <defs
     id="defs4">
    <linearGradient
       id="linearGradient3886-9">
      <stop
         style="stop-color:#000000;stop-opacity:1;"
         offset="0"
         id="stop3888-3" />
      <stop
         style="stop-color:#000000;stop-opacity:0.19607843;"
         offset="1"
         id="stop3890-7" />
    </linearGradient>
    <radialGradient
       r="24"
       fy="40.5"
       fx="24"
       cy="40.5"
       cx="24"
       gradientTransform="matrix(0.83333334,0,0,0.13888885,-4,1041.4039)"
       gradientUnits="userSpaceOnUse"
       id="radialGradient3098"
       xlink:href="#linearGradient3886-9"
       inkscape:collect="always" />
  </defs>
  <sodipodi:namedview
     id="base"
     pagecolor="#ffffff"
     bordercolor="#666666"
     borderopacity="1.0"
     inkscape:pageopacity="0.0"
     inkscape:pageshadow="2"
     inkscape:zoom="8.8138916"
     inkscape:cx="26.132214"
     inkscape:cy="18.242758"
     inkscape:document-units="px"
     inkscape:current-layer="layer1"
     showgrid="true"
     inkscape:window-width="1280"
     inkscape:window-height="998"
     inkscape:window-x="0"
     inkscape:window-y="0"
     inkscape:window-maximized="1">
    <inkscape:grid
       type="xygrid"
       id="grid2990"
       empspacing="5"
       visible="true"
       enabled="true"
       snapvisiblegridlinesonly="true" />
  </sodipodi:namedview>
  <metadata
     id="metadata7">
    <rdf:RDF>
      <cc:Work
         rdf:about="">
        <dc:format>image/svg+xml</dc:format>
        <dc:type
           rdf:resource="http://purl.org/dc/dcmitype/StillImage" />
        <dc:title />
      </cc:Work>
    </rdf:RDF>
  </metadata>
  <g
     inkscape:label="Body"
     inkscape:groupmode="layer"
     id="layer1"
     transform="translate(0,-1020.3622)">
    <path
       inkscape:connector-curvature="0"
       style="opacity:0.1;fill:url(#radialGradient3098);fill-opacity:1;stroke:none"
       d="m 16,1043.6955 c -6.5510326,0 -12.3519802,0.5221 -16,1.3334 l 0,4 c 3.6480198,0.8112 9.4489674,1.3333 16,1.3333 6.551033,0 12.35198,-0.5221 16,-1.3333 l 0,-4 c -3.64802,-0.8113 -9.448967,-1.3334 -16,-1.3334 z"
       id="path3868" />
    <rect
       style="fill:#757575;fill-opacity:1;stroke:none"
       id="rect2987"
       width="30"
       height="20.999954"
       x="1"
       y="1027.3622"
       rx="3.2608695"
       ry="3.2812409" />
    <path
       style="opacity:0.2;fill:#ffffff;fill-opacity:1;stroke:none"
       d="M 4.2608696,1027.0289 C 2.4543478,1027.0289 1,1028.5155 1,1030.3622 l 0,1.3333 c 0,-1.8466 1.4543478,-3.3333 3.2608696,-3.3333 l 23.4782604,0 c 1.806522,0 3.26087,1.4867 3.26087,3.3333 l 0,-1.3333 c 0,-1.8467 -1.454348,-3.3333 -3.26087,-3.3333 l -23.4782604,0 z"
       id="rect3797"
       inkscape:connector-curvature="0" />
    <path
       style="fill:#bdbdbd;fill-opacity:1;stroke:none"
       d="m 4.2608696,1032.3622 5.2173913,0 c 7.1739131,-0.6667 5.8695651,-8 10.4347821,-8 l 7.826087,0 c 1.806522,0 3.26087,1.4867 3.26087,3.3333 l 0,17.3334 c 0,1.8466 -1.454348,3.3333 -3.26087,3.3333 l -23.4782604,0 C 2.4543478,1048.3622 1,1046.8755 1,1045.0289 l 0,-9.3334 c 0,-2 1.3043478,-3.3333 3.2608696,-3.3333 z"
       id="rect3776"
       inkscape:connector-curvature="0"
       sodipodi:nodetypes="cccsssssscc" />
    <path
       style="opacity:0.15;fill:#000000;fill-opacity:1;stroke:none"
       d="m 1,1043.6955 0,1.3334 c 0,1.8466 1.4543478,3.3333 3.2608696,3.3333 l 23.4782604,0 c 1.806522,0 3.26087,-1.4867 3.26087,-3.3333 l 0,-1.3334 c 0,1.8467 -1.454348,3.6667 -3.26087,3.6667 l -23.4782604,0 C 2.4543478,1047.3622 1,1045.5422 1,1043.6955 z"
       id="path3786"
       inkscape:connector-curvature="0"
       sodipodi:nodetypes="csssscssc" />
    <path
       inkscape:connector-curvature="0"
       style="line-height:normal;color:#000000;fill:#000000;fill-opacity:0.09803922"
       d="M 4.8435468,1040.0306 C 4.3775745,1040.0306 4,1040.4028 4,1040.8623 c 0,0.4593 0.3775745,0.8316 0.8435468,0.8316 0.4657936,0 0.8434126,-0.3723 0.8434126,-0.8316 0,-0.4595 -0.377574,-0.8317 -0.8434126,-0.8317 z m 6.0227792,3.78 c -0.403474,0.2296 -0.541577,0.738 -0.308746,1.1356 0.232964,0.3978 0.748596,0.5341 1.152071,0.3045 0.40334,-0.2297 0.541531,-0.738 0.308612,-1.1359 -0.232875,-0.3976 -0.748596,-0.5339 -1.151937,-0.3042 z m -4.1905398,-2.9485 c 0,-0.8219 0.4142618,-1.548 1.0477578,-1.9874 l -0.6166905,-1.0185 c -0.7382098,0.4862 -1.2873195,1.2296 -1.5154243,2.1003 0.2664421,0.2141 0.4366847,0.5402 0.4366847,0.9057 0,0.3654 -0.1702426,0.6917 -0.4367298,0.9057 0.2280608,0.8708 0.7772155,1.6141 1.5154257,2.1003 l 0.6167342,-1.0185 c -0.633496,-0.4395 -1.0477578,-1.1655 -1.0477578,-1.9876 z m 2.46404,-2.4294 c 1.2872748,0 2.3431898,0.9732 2.4538778,2.214 l 1.202175,-0.018 c -0.05916,-0.9162 -0.465037,-1.7388 -1.088814,-2.3436 -0.320694,0.1195 -0.69118,0.1015 -1.011383,-0.081 -0.320604,-0.1826 -0.521783,-0.4904 -0.576882,-0.8244 -0.3116876,-0.085 -0.6397365,-0.1315 -0.9789289,-0.1315 -0.5833458,0 -1.1344618,0.135 -1.6240156,0.3741 l 0.5860202,1.0356 c 0.3154778,-0.1448 0.6670177,-0.2261 1.0379505,-0.2261 z m 0,4.859 c -0.370977,0 -0.7224727,-0.081 -1.0379954,-0.2261 l -0.5861089,1.0356 c 0.489598,0.239 1.0407584,0.374 1.6241043,0.374 0.339193,0 0.6672413,-0.046 0.9789738,-0.1313 0.0551,-0.3341 0.256323,-0.642 0.576972,-0.8246 0.320203,-0.1822 0.690689,-0.2003 1.011382,-0.081 0.623734,-0.6047 1.029615,-1.4274 1.088681,-2.3435 l -1.202176,-0.018 c -0.110598,1.241 -1.166558,2.214 -2.4538328,2.214 z m 1.7263668,-5.378 c 0.403429,0.2298 0.91915,0.094 1.15198,-0.3042 0.232964,-0.3978 0.09486,-0.9061 -0.308612,-1.1358 -0.403385,-0.2297 -0.919062,-0.093 -1.152026,0.3044 -0.232874,0.3976 -0.09468,0.9061 0.308658,1.1356 z"
       id="path3041" />
    <path
       id="path3872"
       d="M 4.8435468,1039.0306 C 4.3775745,1039.0306 4,1039.4028 4,1039.8623 c 0,0.4593 0.3775745,0.8316 0.8435468,0.8316 0.4657936,0 0.8434126,-0.3723 0.8434126,-0.8316 0,-0.4595 -0.377574,-0.8317 -0.8434126,-0.8317 z m 6.0227792,3.78 c -0.403474,0.2296 -0.541577,0.738 -0.308746,1.1356 0.232964,0.3978 0.748596,0.5341 1.152071,0.3045 0.40334,-0.2297 0.541531,-0.738 0.308612,-1.1359 -0.232875,-0.3976 -0.748596,-0.5339 -1.151937,-0.3042 z m -4.1905398,-2.9485 c 0,-0.8219 0.4142618,-1.548 1.0477578,-1.9874 l -0.6166905,-1.0185 c -0.7382098,0.4862 -1.2873195,1.2296 -1.5154243,2.1003 0.2664421,0.2141 0.4366847,0.5402 0.4366847,0.9057 0,0.3654 -0.1702426,0.6917 -0.4367298,0.9057 0.2280608,0.8708 0.7772155,1.6141 1.5154257,2.1003 l 0.6167342,-1.0185 c -0.633496,-0.4395 -1.0477578,-1.1655 -1.0477578,-1.9876 z m 2.46404,-2.4294 c 1.2872748,0 2.3431898,0.9732 2.4538778,2.214 l 1.202175,-0.018 c -0.05916,-0.9162 -0.465037,-1.7388 -1.088814,-2.3436 -0.320694,0.1195 -0.69118,0.1015 -1.011383,-0.081 -0.320604,-0.1826 -0.521783,-0.4904 -0.576882,-0.8244 -0.3116876,-0.085 -0.6397365,-0.1315 -0.9789289,-0.1315 -0.5833458,0 -1.1344618,0.135 -1.6240156,0.3741 l 0.5860202,1.0356 c 0.3154778,-0.1448 0.6670177,-0.2261 1.0379505,-0.2261 z m 0,4.859 c -0.370977,0 -0.7224727,-0.081 -1.0379954,-0.2261 l -0.5861089,1.0356 c 0.489598,0.239 1.0407584,0.374 1.6241043,0.374 0.339193,0 0.6672413,-0.046 0.9789738,-0.1313 0.0551,-0.3341 0.256323,-0.642 0.576972,-0.8246 0.320203,-0.1822 0.690689,-0.2003 1.011382,-0.081 0.623734,-0.6047 1.029615,-1.4274 1.088681,-2.3435 l -1.202176,-0.018 c -0.110598,1.241 -1.166558,2.214 -2.4538328,2.214 z m 1.7263668,-5.378 c 0.403429,0.2298 0.91915,0.094 1.15198,-0.3042 0.232964,-0.3978 0.09486,-0.9061 -0.308612,-1.1358 -0.403385,-0.2297 -0.919062,-0.093 -1.152026,0.3044 -0.232874,0.3976 -0.09468,0.9061 0.308658,1.1356 z"
       style="line-height:normal;color:#000000;fill:#fff8e1;fill-opacity:1"
       inkscape:connector-curvature="0" />
  </g>
</svg>
