<?xml version="1.0" encoding="UTF-8" standalone="no"?>
<!-- Created with Inkscape (http://www.inkscape.org/) -->

<svg
   xmlns:dc="http://purl.org/dc/elements/1.1/"
   xmlns:cc="http://creativecommons.org/ns#"
   xmlns:rdf="http://www.w3.org/1999/02/22-rdf-syntax-ns#"
   xmlns:svg="http://www.w3.org/2000/svg"
   xmlns="http://www.w3.org/2000/svg"
   xmlns:sodipodi="http://sodipodi.sourceforge.net/DTD/sodipodi-0.dtd"
   xmlns:inkscape="http://www.inkscape.org/namespaces/inkscape"
   width="32"
   height="32"
   id="svg2"
   version="1.1"
   inkscape:version="0.48.5 r10040"
   sodipodi:docname="folder-copy.svg"
   inkscape:export-filename="/media/Data/Main/Visuals/Icons/Numix/Desktop/repos/numix-wiki/Gjorgi/Numix-folders/48/New/folder-144.png"
   inkscape:export-xdpi="270"
   inkscape:export-ydpi="270">
  <defs
     id="defs4" />
  <sodipodi:namedview
     id="base"
     pagecolor="#ffffff"
     bordercolor="#666666"
     borderopacity="1.0"
     inkscape:pageopacity="0.0"
     inkscape:pageshadow="2"
     inkscape:zoom="8.2196435"
     inkscape:cx="11.527141"
     inkscape:cy="27.529793"
     inkscape:document-units="px"
     inkscape:current-layer="layer1"
     showgrid="true"
     inkscape:window-width="1280"
     inkscape:window-height="998"
     inkscape:window-x="0"
     inkscape:window-y="0"
     inkscape:window-maximized="1"
     showguides="true"
     inkscape:guide-bbox="true">
    <inkscape:grid
       type="xygrid"
       id="grid2985"
       empspacing="5"
       visible="true"
       enabled="true"
       snapvisiblegridlinesonly="true" />
  </sodipodi:namedview>
  <metadata
     id="metadata7">
    <rdf:RDF>
      <cc:Work
         rdf:about="">
        <dc:format>image/svg+xml</dc:format>
        <dc:type
           rdf:resource="http://purl.org/dc/dcmitype/StillImage" />
        <dc:title />
      </cc:Work>
    </rdf:RDF>
  </metadata>
  <g
     inkscape:label="Layer 1"
     inkscape:groupmode="layer"
     id="layer1"
     transform="translate(0,-1020.3622)">
    <rect
       style="fill:#ffb300;fill-opacity:1;stroke:none"
       id="rect2987-6-5"
       width="18"
       height="12.000105"
       x="2"
       y="1026.3622"
       rx="1.9565217"
       ry="2.187494" />
    <path
       style="opacity:0.2;fill:#ffffff;fill-opacity:1;stroke:none"
       d="M 3.9565217,1026.3623 C 2.8726085,1026.3623 2,1027.4772 2,1028.8622 l 0,0.9999 c 0,-1.3849 0.8726085,-2.4998 1.9565217,-2.4998 l 14.0869563,0 c 1.083914,0 1.956522,1.1149 1.956522,2.4998 l 0,-0.9999 c 0,-1.385 -0.872608,-2.4999 -1.956522,-2.4999 z"
       id="rect3797-7"
       inkscape:connector-curvature="0"
       sodipodi:nodetypes="sscsscsss" />
    <path
       style="fill:#ffca28;fill-opacity:1;stroke:none"
       d="m 3.9565217,1029.3622 3.1304349,0 c 4.3043484,-0.4444 3.5217384,-5 6.2608694,-5 l 4.695652,0 c 1.083914,0 1.956522,0.9911 1.956522,2.2222 l 0,9.5556 c 0,1.2311 -0.872608,2.2222 -1.956522,2.2222 l -14.0869563,0 C 2.8726085,1038.3622 2,1037.3711 2,1036.14 l 0,-4.2218 c 0,-1.3333 0.7826085,-2.556 1.9565217,-2.556 z"
       id="rect3776-7"
       inkscape:connector-curvature="0"
       sodipodi:nodetypes="cccsssssscc" />
    <path
       style="opacity:0.15;fill:#000000;fill-opacity:1;stroke:none"
       d="m 2,1035.2511 0,0.8889 c 0,1.2311 0.8726085,2.2222 1.9565217,2.2222 l 14.0869563,0 C 19.127392,1038.3622 20,1037.3711 20,1036.14 l 0,-0.8889 c 0,1.2311 -0.872608,2.1111 -1.956522,2.1111 l -14.0869563,0 C 2.8726085,1037.3622 2,1036.4822 2,1035.2511 z"
       id="path3786-4"
       inkscape:connector-curvature="0"
       sodipodi:nodetypes="csssscssc" />
    <rect
       style="fill:#ffb300;fill-opacity:1;stroke:none"
       id="rect2987-6"
       width="18"
       height="12.000105"
       x="12"
       y="1036.3621"
       rx="1.9565217"
       ry="2.187494" />
    <path
       style="opacity:0.2;fill:#ffffff;fill-opacity:1;stroke:none"
       d="m 13.956522,1036.3622 c -1.083913,0 -1.956522,1.1149 -1.956522,2.4999 l 0,0.9999 c 0,-1.3849 0.872609,-2.4998 1.956522,-2.4998 l 14.086956,0 c 1.083914,0 1.956522,1.1149 1.956522,2.4998 l 0,-0.9999 c 0,-1.385 -0.872608,-2.4999 -1.956522,-2.4999 z"
       id="rect3797"
       inkscape:connector-curvature="0"
       sodipodi:nodetypes="sscsscsss" />
    <path
       style="fill:#ffca28;fill-opacity:1;stroke:none"
       d="m 13.956522,1039.3623 3.130435,0 c 4.304348,-0.4444 3.521738,-5 6.260869,-5 l 4.695652,0 c 1.083914,0 1.956522,0.9911 1.956522,2.2222 l 0,9.5554 c 0,1.2311 -0.872608,2.2222 -1.956522,2.2222 l -14.086956,0 C 12.872609,1048.3621 12,1047.371 12,1046.1399 l 0,-4.222 c 0,-1.3333 0.782609,-2.5555 1.956522,-2.5556 z"
       id="rect3776"
       inkscape:connector-curvature="0"
       sodipodi:nodetypes="cccsssssscc" />
    <path
       style="opacity:0.15;fill:#000000;fill-opacity:1;stroke:none"
       d="m 12,1045.251 0,0.8889 c 0,1.2311 0.872609,2.2222 1.956522,2.2222 l 14.086956,0 c 1.083914,0 1.956522,-0.9911 1.956522,-2.2222 l 0,-0.8889 c 0,1.2311 -0.872608,2.1111 -1.956522,2.1111 l -14.086956,0 C 12.872609,1047.3621 12,1046.4821 12,1045.251 z"
       id="path3786"
       inkscape:connector-curvature="0"
       sodipodi:nodetypes="csssscssc" />
  </g>
</svg>
