<?xml version="1.0" encoding="UTF-8" standalone="no"?>
<svg
   xmlns:dc="http://purl.org/dc/elements/1.1/"
   xmlns:cc="http://creativecommons.org/ns#"
   xmlns:rdf="http://www.w3.org/1999/02/22-rdf-syntax-ns#"
   xmlns:svg="http://www.w3.org/2000/svg"
   xmlns="http://www.w3.org/2000/svg"
   xmlns:sodipodi="http://sodipodi.sourceforge.net/DTD/sodipodi-0.dtd"
   xmlns:inkscape="http://www.inkscape.org/namespaces/inkscape"
   width="32"
   height="32"
   viewBox="0 0 32 32"
   id="svg3075"
   version="1.1"
   inkscape:version="0.48.5 r10040"
   sodipodi:docname="folder-templates.svg">
  <metadata
     id="metadata3119">
    <rdf:RDF>
      <cc:Work
         rdf:about="">
        <dc:format>image/svg+xml</dc:format>
        <dc:type
           rdf:resource="http://purl.org/dc/dcmitype/StillImage" />
      </cc:Work>
    </rdf:RDF>
  </metadata>
  <defs
     id="defs3117" />
  <sodipodi:namedview
     pagecolor="#ffffff"
     bordercolor="#666666"
     borderopacity="1"
     objecttolerance="10"
     gridtolerance="10"
     guidetolerance="10"
     inkscape:pageopacity="0"
     inkscape:pageshadow="2"
     inkscape:window-width="1280"
     inkscape:window-height="998"
     id="namedview3115"
     showgrid="true"
     inkscape:zoom="20.85965"
     inkscape:cx="1.6258551"
     inkscape:cy="10.364953"
     inkscape:window-x="0"
     inkscape:window-y="0"
     inkscape:window-maximized="1"
     inkscape:current-layer="svg3075">
    <inkscape:grid
       type="xygrid"
       id="grid3146" />
  </sodipodi:namedview>
  <rect
     style="fill:#ea9036;fill-opacity:1;stroke:none"
     id="rect3757"
     width="26"
     height="10"
     x="3"
     y="6.9999824" />
  <path
     style="fill:#ea9036;fill-opacity:1;stroke:none"
     d="M 6,6.9999995 C 6,5.9999996 6,4.9999996 7.454545,4.9999996 l 5.09091,0 C 14,4.9999996 14,5.9999996 14,6.9999995 z"
     id="path3759"
     inkscape:connector-curvature="0"
     sodipodi:nodetypes="ccccc" />
  <path
     style="fill:#95989f;fill-opacity:1;stroke:none"
     d="m 5,8.9999996 22,0 0,4.9677004 -22,0 z"
     id="path3765"
     inkscape:connector-curvature="0" />
  <rect
     y="7.9999824"
     x="7"
     height="12.999977"
     width="19"
     id="rect3763"
     style="fill:#d8d8da;fill-opacity:1;stroke:none" />
  <rect
     style="fill:#f9f9f9;fill-opacity:1;stroke:none"
     id="rect3761"
     width="19"
     height="12.999977"
     x="6"
     y="9.9999828" />
  <path
     style="fill:#f2bb64;fill-opacity:1;stroke:none"
     d="M 2,11 30,11 28,27 4,27 z"
     id="path2987"
     inkscape:connector-curvature="0"
     sodipodi:nodetypes="ccccc" />
  <path
     style="fill:#000000;fill-opacity:0.25098041"
     d="m 14,15 0,1 1,0 0,-1 z"
     id="path3087"
     inkscape:connector-curvature="0" />
  <path
     style="fill:#000000;fill-opacity:0.25098041"
     d="m 18,15 0,1 1,0 0,1 1,0 0,-1.332031 C 20,15 19.335938,15 19.335938,15 z"
     id="path3089"
     inkscape:connector-curvature="0" />
  <path
     style="fill:#000000;fill-opacity:0.25098041"
     d="m 16,15 0,1 1,0 0,-1 z"
     id="path3091"
     inkscape:connector-curvature="0" />
  <path
     style="fill:#000000;fill-opacity:0.25098041"
     d="m 11,17 1,0 0,-1 1,0 0,-1 -1.332031,0 C 11,15 11,15.664062 11,15.664062 z"
     id="path3093"
     inkscape:connector-curvature="0" />
  <path
     style="fill:#000000;fill-opacity:0.25098041"
     d="m 13,24 0,-1 -1,0 0,-1 -1,0 0,1.332031 C 11,24 11.664062,24 11.664062,24 z"
     id="path3097"
     inkscape:connector-curvature="0" />
  <path
     style="fill:#000000;fill-opacity:0.25098041"
     d="m 17,24 0,-1 -1,0 0,1 z"
     id="path3099"
     inkscape:connector-curvature="0" />
  <path
     style="fill:#000000;fill-opacity:0.25098041"
     d="m 15,24 0,-1 -1,0 0,1 z"
     id="path3101"
     inkscape:connector-curvature="0" />
  <path
     style="fill:#000000;fill-opacity:0.25098041"
     d="m 11,21 1,0 0,-1 -1,0 z"
     id="path3103"
     inkscape:connector-curvature="0" />
  <path
     style="fill:#000000;fill-opacity:0.25098041"
     d="m 11,19 1,0 0,-1 -1,0 z"
     id="path3105"
     inkscape:connector-curvature="0" />
  <path
     style="fill:#000000;fill-opacity:0.25098041"
     d="m 20,22 -1,0 0,1 -1,0 0,1 1.332031,0 C 20,24 20,23.335938 20,23.335938 z"
     id="path3109"
     inkscape:connector-curvature="0" />
  <path
     style="fill:#000000;fill-opacity:0.25098041"
     d="m 20,18 -1,0 0,1 1,0 z"
     id="path3111"
     inkscape:connector-curvature="0" />
  <path
     style="fill:#000000;fill-opacity:0.25098041"
     d="m 20,20 -1,0 0,1 1,0 z"
     id="path3113"
     inkscape:connector-curvature="0" />
</svg>
