<?xml version="1.0" encoding="UTF-8" standalone="no"?>
<svg
   xmlns:dc="http://purl.org/dc/elements/1.1/"
   xmlns:cc="http://creativecommons.org/ns#"
   xmlns:rdf="http://www.w3.org/1999/02/22-rdf-syntax-ns#"
   xmlns:svg="http://www.w3.org/2000/svg"
   xmlns="http://www.w3.org/2000/svg"
   xmlns:sodipodi="http://sodipodi.sourceforge.net/DTD/sodipodi-0.dtd"
   xmlns:inkscape="http://www.inkscape.org/namespaces/inkscape"
   width="32"
   height="32"
   viewBox="0 0 32 32"
   id="svg2"
   version="1.1"
   inkscape:version="0.48.5 r10040"
   sodipodi:docname="folder-music.svg">
  <metadata
     id="metadata16">
    <rdf:RDF>
      <cc:Work
         rdf:about="">
        <dc:format>image/svg+xml</dc:format>
        <dc:type
           rdf:resource="http://purl.org/dc/dcmitype/StillImage" />
      </cc:Work>
    </rdf:RDF>
  </metadata>
  <defs
     id="defs14" />
  <sodipodi:namedview
     pagecolor="#ffffff"
     bordercolor="#666666"
     borderopacity="1"
     objecttolerance="10"
     gridtolerance="10"
     guidetolerance="10"
     inkscape:pageopacity="0"
     inkscape:pageshadow="2"
     inkscape:window-width="1280"
     inkscape:window-height="998"
     id="namedview12"
     showgrid="false"
     inkscape:zoom="7.375"
     inkscape:cx="-6.6440678"
     inkscape:cy="16"
     inkscape:window-x="0"
     inkscape:window-y="0"
     inkscape:window-maximized="1"
     inkscape:current-layer="svg2" />
  <rect
     style="fill:#ea9036;fill-opacity:1;stroke:none"
     id="rect3757"
     width="26"
     height="10"
     x="3"
     y="6.9999828" />
  <path
     style="fill:#ea9036;fill-opacity:1;stroke:none"
     d="m 6,7.0000004 c 0,-1 0,-2 1.4545454,-2 l 5.0909096,0 c 1.454545,0 1.454545,1 1.454545,2 z"
     id="path3759"
     inkscape:connector-curvature="0"
     sodipodi:nodetypes="ccccc" />
  <path
     style="fill:#95989f;fill-opacity:1;stroke:none"
     d="m 5,9.0000004 22,0 0,4.9676996 -22,0 z"
     id="path3765"
     inkscape:connector-curvature="0" />
  <rect
     y="7.9999828"
     x="7"
     height="12.999977"
     width="19"
     id="rect3763"
     style="fill:#d8d8da;fill-opacity:1;stroke:none" />
  <rect
     style="fill:#f9f9f9;fill-opacity:1;stroke:none"
     id="rect3761"
     width="19"
     height="12.999977"
     x="6"
     y="9.9999828" />
  <path
     style="fill:#f2bb64;fill-opacity:1;stroke:none"
     d="M 2,11 30,11 28,27 4,27 z"
     id="path2987"
     inkscape:connector-curvature="0"
     sodipodi:nodetypes="ccccc" />
  <path
     style="fill:#000000;fill-opacity:0.25098041"
     d="m 16.801103,14.113499 c -0.777263,0.183068 -1.42954,0.853096 -1.42954,0.853096 l 0.02344,0.01831 1.24206,4.335048 c -0.890533,-0.454008 -2.159934,-0.340506 -3.210607,0.373459 -1.359235,0.919001 -1.831842,2.486062 -1.046767,3.496597 0.788981,1.014196 2.523178,1.083762 3.882412,0.164761 1.070202,-0.728611 1.667797,-1.870955 1.452976,-2.808262 -0.0078,-0.02929 -0.01953,-0.05858 -0.02734,-0.08787 l -1.191283,-4.331387 c 0.02734,-0.03661 0.374962,-0.186728 1.503751,-0.259955 1.191283,-0.07323 1.999794,-1.867293 1.999794,-1.867293 0,0 -1.343612,0.483299 -2.398191,0.13547 -0.265596,-0.08787 -0.542912,-0.08421 -0.800698,-0.02197 z"
     id="path10"
     inkscape:connector-curvature="0" />
</svg>
