<?xml version="1.0" encoding="UTF-8" standalone="no"?>
<!-- Created with Inkscape (http://www.inkscape.org/) -->

<svg
   xmlns:dc="http://purl.org/dc/elements/1.1/"
   xmlns:cc="http://creativecommons.org/ns#"
   xmlns:rdf="http://www.w3.org/1999/02/22-rdf-syntax-ns#"
   xmlns:svg="http://www.w3.org/2000/svg"
   xmlns="http://www.w3.org/2000/svg"
   xmlns:xlink="http://www.w3.org/1999/xlink"
   xmlns:sodipodi="http://sodipodi.sourceforge.net/DTD/sodipodi-0.dtd"
   xmlns:inkscape="http://www.inkscape.org/namespaces/inkscape"
   width="24"
   height="24"
   id="svg2"
   version="1.1"
   inkscape:version="0.91 r"
   sodipodi:docname="yellow-folder-pictures.svg">
  <defs
     id="defs4">
    <linearGradient
       id="linearGradient3886-9">
      <stop
         style="stop-color:#000000;stop-opacity:1;"
         offset="0"
         id="stop3888-1" />
      <stop
         style="stop-color:#000000;stop-opacity:0.19607843;"
         offset="1"
         id="stop3890-9" />
    </linearGradient>
    <radialGradient
       r="24"
       fy="40.5"
       fx="24"
       cy="40.5"
       cx="24"
       gradientTransform="matrix(0.625,0,0,0.10416663,-3,1044.1435)"
       gradientUnits="userSpaceOnUse"
       id="radialGradient3053"
       xlink:href="#linearGradient3886-9"
       inkscape:collect="always" />
  </defs>
  <sodipodi:namedview
     id="base"
     pagecolor="#ffffff"
     bordercolor="#666666"
     borderopacity="1.0"
     inkscape:pageopacity="0.0"
     inkscape:pageshadow="2"
     inkscape:zoom="17.627783"
     inkscape:cx="3.7163173"
     inkscape:cy="13.077491"
     inkscape:document-units="px"
     inkscape:current-layer="layer1"
     showgrid="true"
     inkscape:window-width="1280"
     inkscape:window-height="998"
     inkscape:window-x="0"
     inkscape:window-y="0"
     inkscape:window-maximized="1">
    <inkscape:grid
       type="xygrid"
       id="grid2990"
       empspacing="5"
       visible="true"
       enabled="true"
       snapvisiblegridlinesonly="true" />
  </sodipodi:namedview>
  <metadata
     id="metadata7">
    <rdf:RDF>
      <cc:Work
         rdf:about="">
        <dc:format>image/svg+xml</dc:format>
        <dc:type
           rdf:resource="http://purl.org/dc/dcmitype/StillImage" />
        <dc:title />
      </cc:Work>
    </rdf:RDF>
  </metadata>
  <g
     inkscape:label="Body"
     inkscape:groupmode="layer"
     id="layer1"
     transform="translate(0,-1028.3622)">
    <path
       inkscape:connector-curvature="0"
       style="opacity:0.1;fill:url(#radialGradient3053);fill-opacity:1;stroke:none"
       d="m 12,1045.8622 c -4.9132745,0 -9.2639851,0.3915 -12,1 l 0,3 c 2.7360149,0.6085 7.0867255,1 12,1 4.913274,0 9.263985,-0.3915 12,-1 l 0,-3 c -2.736015,-0.6085 -7.086726,-1 -12,-1 z"
       id="path3868" />
    <rect
       style="fill:#ffb300;fill-opacity:1;stroke:none"
       id="rect2987"
       width="22"
       height="16.00001"
       x="1"
       y="1033.3622"
       rx="2.3913043"
       ry="2.5" />
    <path
       style="opacity:0.2;fill:#ffffff;fill-opacity:1;stroke:none"
       d="M 3.3913043,1033.3622 C 2.0665217,1033.3622 1,1034.4772 1,1035.8622 l 0,1 c 0,-1.385 1.0665217,-2.5 2.3913043,-2.5 l 17.2173917,0 c 1.324782,0 2.391304,1.115 2.391304,2.5 l 0,-1 c 0,-1.385 -1.066522,-2.5 -2.391304,-2.5 l -17.2173917,0 z"
       id="rect3797"
       inkscape:connector-curvature="0" />
    <path
       style="fill:#ffca28;fill-opacity:1;stroke:none"
       d="m 3.3913043,1037.3622 3.826087,0 c 5.2608697,-0.5 4.3043477,-6 7.6521737,-6 l 5.739131,0 c 1.324782,0 2.391304,1.115 2.391304,2.5 l 0,13 c 0,1.385 -1.066522,2.5 -2.391304,2.5 l -17.2173917,0 C 2.0665217,1049.3622 1,1048.2472 1,1046.8622 l 0,-7 c 0,-1.5 0.9565217,-2.5 2.3913043,-2.5 z"
       id="rect3776"
       inkscape:connector-curvature="0"
       sodipodi:nodetypes="cccsssssscc" />
    <path
       style="opacity:0.15;fill:#000000;fill-opacity:1;stroke:none"
       d="m 1,1045.8622 0,1 c 0,1.385 1.0665217,2.5 2.3913043,2.5 l 17.2173917,0 c 1.324782,0 2.391304,-1.115 2.391304,-2.5 l 0,-1 c 0,1.385 -1.066522,2.5 -2.391304,2.5 l -17.2173917,0 C 2.0665217,1048.3622 1,1047.2472 1,1045.8622 z"
       id="path3786"
       inkscape:connector-curvature="0" />
    <path
       inkscape:connector-curvature="0"
       style="fill:#000000;fill-opacity:0.09803922;fill-rule:evenodd"
       d="m 3.8749994,1040.3623 c -0.48475,0 -0.875,0.3902 -0.875,0.875 l 0,3.5 0,1.75 c 0,0.4847 0.39025,0.875 0.875,0.875 l 5.2500006,0 c 0.48475,0 0.875,-0.3903 0.875,-0.875 l 0,-0.4375 0,-4.8125 c 0,-0.4848 -0.39025,-0.875 -0.875,-0.875 l -5.2500006,0 z m 0.125,1 5.0000006,0 0,3.5 -1.4062501,-1.6563 -0.96875,0.9531 -1.4375004,-1.6093 -1.1875001,1.1875 0,-2.375 z"
       id="path3857" />
    <g
       id="g3956"
       style="fill:#fff8e1;fill-opacity:1"
       transform="matrix(0.43750002,0,0,0.43750002,12.809304,590.71613)">
      <g
         transform="translate(-22.421265,1025.4767)"
         id="g8"
         style="fill:#fff8e1;fill-opacity:1">
        <g
           id="g10"
           transform="translate(0,-1036.3622)"
           style="fill:#fff8e1;fill-opacity:1;fill-rule:evenodd">
          <path
             style="fill:#fff8e1;fill-opacity:1"
             inkscape:connector-curvature="0"
             id="path12"
             d="m 0.04535494,1046.7965 c 0.22886095,-0.1684 0.76009966,-0.6684 1.63017986,-1.5329 0.8668571,-0.87 2.0267664,-2.0604 3.528738,-3.6237 0.9828535,1.3976 1.7062383,2.4057 2.2405305,3.0686 0.5219982,0.6546 0.8119968,0.9418 0.8822068,0.8617 0.555492,-0.4971 1.0227091,-0.9197 1.4256542,-1.2898 0.3968387,-0.3701 0.7049827,-0.6739 0.9492797,-0.9225 1.221044,1.5356 2.234512,2.8006 3.122824,3.8695 0.872959,1.0606 1.566074,1.8643 2.103334,2.4554 l -3.324382,-2.762 c -0.274735,0.7071 -0.723383,1.0717 -1.358412,1.1048 -0.653343,0.019 -1.6453591,-0.7733 -2.4451436,-0.9197 -0.7997849,-0.1464 -1.5965161,0.3038 -2.3078612,0.061 -0.7265206,-0.2569 -1.2881156,-1.2733 -1.9688495,-1.5357 -0.6837852,-0.2596 -1.3767284,-0.2596 -2.1033348,0 -0.7905419,0.3867 -1.58116915,0.7761 -2.37476462,1.1655 z" />
          <path
             style="fill:#fff8e1;fill-opacity:1"
             sodipodi:nodetypes="cccccccc"
             inkscape:connector-curvature="0"
             id="path14"
             d="m 0,1046.3622 5,-5 3.2817389,3.6779 2.2182611,-2.1779 5.5,6.5 -2.285714,1.8571 L 2,1051.3622 z" />
        </g>
        <g
           style="fill:#fff8e1;fill-opacity:1"
           id="g16"
           transform="translate(0,-1036.3622)" />
      </g>
      <path
         id="rect3007-9"
         d="m -20.421265,1025.4767 c -1.108,0 -2,0.892 -2,2 l 0,12 c 0,1.108 0.892,2 2,2 l 12,0 c 1.108,0 2,-0.892 2,-2 l 0,-12 c 0,-1.108 -0.892,-2 -2,-2 z m 0.285714,2.2857 11.4285716,0 0,11.4286 -11.4285716,0 z"
         style="fill:#fff8e1;fill-opacity:1"
         inkscape:connector-curvature="0"
         sodipodi:nodetypes="sssssssssccccc" />
    </g>
  </g>
</svg>
