<?xml version="1.0" encoding="UTF-8" standalone="no"?>
<svg
   xmlns:dc="http://purl.org/dc/elements/1.1/"
   xmlns:cc="http://creativecommons.org/ns#"
   xmlns:rdf="http://www.w3.org/1999/02/22-rdf-syntax-ns#"
   xmlns:svg="http://www.w3.org/2000/svg"
   xmlns="http://www.w3.org/2000/svg"
   xmlns:sodipodi="http://sodipodi.sourceforge.net/DTD/sodipodi-0.dtd"
   xmlns:inkscape="http://www.inkscape.org/namespaces/inkscape"
   width="256"
   height="256"
   viewBox="0 0 204.8 204.8"
   version="1.1"
   id="svg3313"
   inkscape:version="0.48.5 r10040"
   sodipodi:docname="folder-templates.svg">
  <metadata
     id="metadata3334">
    <rdf:RDF>
      <cc:Work
         rdf:about="">
        <dc:format>image/svg+xml</dc:format>
        <dc:type
           rdf:resource="http://purl.org/dc/dcmitype/StillImage" />
      </cc:Work>
    </rdf:RDF>
  </metadata>
  <defs
     id="defs3332" />
  <sodipodi:namedview
     pagecolor="#ffffff"
     bordercolor="#666666"
     borderopacity="1"
     objecttolerance="10"
     gridtolerance="10"
     guidetolerance="10"
     inkscape:pageopacity="0"
     inkscape:pageshadow="2"
     inkscape:window-width="1280"
     inkscape:window-height="998"
     id="namedview3330"
     showgrid="false"
     inkscape:zoom="0.7375"
     inkscape:cx="160"
     inkscape:cy="160"
     inkscape:window-x="0"
     inkscape:window-y="0"
     inkscape:window-maximized="1"
     inkscape:current-layer="svg3313" />
  <g
     id="surface1"
     transform="scale(0.8,0.8)">
    <path
       inkscape:connector-curvature="0"
       style="fill:#e68f33;fill-opacity:1;fill-rule:nonzero;stroke:none"
       d="m 24,48 208,0 0,80 -208,0 z m 0,0"
       id="path3316" />
    <path
       inkscape:connector-curvature="0"
       style="fill:#e68f33;fill-opacity:1;fill-rule:nonzero;stroke:none"
       d="m 48,48 c 0,-8 0,-16 11.632812,-16 l 40.734378,0 C 112,32 112,40 112,48 l 0,8 -64,0 z m 0,0"
       id="path3318" />
    <path
       inkscape:connector-curvature="0"
       style="fill:#94979c;fill-opacity:1;fill-rule:nonzero;stroke:none"
       d="m 40,64 176,0 0,39.74219 -176,0 z m 0,0"
       id="path3320" />
    <path
       inkscape:connector-curvature="0"
       style="fill:#d7d7d9;fill-opacity:1;fill-rule:nonzero;stroke:none"
       d="m 56,56 152,0 0,104 -152,0 z m 0,0"
       id="path3322" />
    <path
       inkscape:connector-curvature="0"
       style="fill:#f8f8f8;fill-opacity:1;fill-rule:nonzero;stroke:none"
       d="m 48,72 152,0 0,104 -152,0 z m 0,0"
       id="path3324" />
    <path
       inkscape:connector-curvature="0"
       style="fill:#f0b861;fill-opacity:1;fill-rule:nonzero;stroke:none"
       d="m 8,80 240,0 -17.14063,144 -205.718745,0 z m 0,0"
       id="path3326" />
    <path
       inkscape:connector-curvature="0"
       style="fill:#000000;fill-opacity:0.25097997;fill-rule:nonzero;stroke:none"
       d="m 84,100 c 0,0 -8,0.30469 -8,8 l 0,16 16,0 0,-8 8,0 0,-16 z m 24,0 0,16 16,0 0,-16 z m 24,0 0,16 16,0 0,-16 z m 24,0 0,16 8,0 0,8 16,0 0,-16 c 0,-8 -8,-8 -8,-8 z m -80,32 0,16 16,0 0,-16 z m 88,0 0,16 16,0 0,-16 z m -88,24 0,16 16,0 0,-16 z m 88,0 0,16 16,0 0,-16 z m -88,24 0,16 c 0,8 8,8 8,8 l 16,0 0,-16 -8,0 0,-8 z m 88,0 0,8 -8,0 0,16 16,0 c 0,0 8,0 8,-8 l 0,-16 z m -56,8 0,16 16,0 0,-16 z m 24,0 0,16 16,0 0,-16 z m 0,0"
       id="path3328" />
  </g>
</svg>
