<?xml version="1.0" encoding="UTF-8" standalone="no"?>
<svg
   xmlns:dc="http://purl.org/dc/elements/1.1/"
   xmlns:cc="http://creativecommons.org/ns#"
   xmlns:rdf="http://www.w3.org/1999/02/22-rdf-syntax-ns#"
   xmlns:svg="http://www.w3.org/2000/svg"
   xmlns="http://www.w3.org/2000/svg"
   xmlns:sodipodi="http://sodipodi.sourceforge.net/DTD/sodipodi-0.dtd"
   xmlns:inkscape="http://www.inkscape.org/namespaces/inkscape"
   width="256"
   height="256"
   viewBox="0 0 204.8 204.8"
   version="1.1"
   id="svg3104"
   inkscape:version="0.48.5 r10040"
   sodipodi:docname="folder-dropbox.svg">
  <metadata
     id="metadata3125">
    <rdf:RDF>
      <cc:Work
         rdf:about="">
        <dc:format>image/svg+xml</dc:format>
        <dc:type
           rdf:resource="http://purl.org/dc/dcmitype/StillImage" />
      </cc:Work>
    </rdf:RDF>
  </metadata>
  <defs
     id="defs3123" />
  <sodipodi:namedview
     pagecolor="#ffffff"
     bordercolor="#666666"
     borderopacity="1"
     objecttolerance="10"
     gridtolerance="10"
     guidetolerance="10"
     inkscape:pageopacity="0"
     inkscape:pageshadow="2"
     inkscape:window-width="1280"
     inkscape:window-height="998"
     id="namedview3121"
     showgrid="false"
     inkscape:zoom="0.9234375"
     inkscape:cx="296.48241"
     inkscape:cy="57.952694"
     inkscape:window-x="0"
     inkscape:window-y="0"
     inkscape:window-maximized="1"
     inkscape:current-layer="svg3104" />
  <g
     id="surface1"
     transform="scale(0.8,0.8)">
    <path
       inkscape:connector-curvature="0"
       style="fill:#e68f33;fill-opacity:1;fill-rule:nonzero;stroke:none"
       d="m 24,48 208,0 0,80 -208,0 z m 0,0"
       id="path3107" />
    <path
       inkscape:connector-curvature="0"
       style="fill:#e68f33;fill-opacity:1;fill-rule:nonzero;stroke:none"
       d="m 48,48 c 0,-8 0,-16 11.632812,-16 l 40.734378,0 C 112,32 112,40 112,48 l 0,8 -64,0 z m 0,0"
       id="path3109" />
    <path
       inkscape:connector-curvature="0"
       style="fill:#94979c;fill-opacity:1;fill-rule:nonzero;stroke:none"
       d="m 40,64 176,0 0,39.74219 -176,0 z m 0,0"
       id="path3111" />
    <path
       inkscape:connector-curvature="0"
       style="fill:#d7d7d9;fill-opacity:1;fill-rule:nonzero;stroke:none"
       d="m 56,56 152,0 0,104 -152,0 z m 0,0"
       id="path3113" />
    <path
       inkscape:connector-curvature="0"
       style="fill:#f8f8f8;fill-opacity:1;fill-rule:nonzero;stroke:none"
       d="m 48,72 152,0 0,104 -152,0 z m 0,0"
       id="path3115" />
    <path
       inkscape:connector-curvature="0"
       style="fill:#f0b861;fill-opacity:1;fill-rule:nonzero;stroke:none"
       d="m 8,80 240,0 -17.14063,144 -205.718745,0 z m 0,0"
       id="path3117" />
    <path
       inkscape:connector-curvature="0"
       style="fill:#000000;fill-opacity:0.25097997;fill-rule:nonzero;stroke:none"
       d="M 100,100 72,122.05859 100,140.96875 72,166.17969 128,204 184,166.17969 156,140.96875 184,122.05859 156,100 128,122.05859 z m 0,0"
       id="path3119" />
  </g>
</svg>
