<?xml version="1.0" encoding="UTF-8" standalone="no"?>
<svg
   xmlns:dc="http://purl.org/dc/elements/1.1/"
   xmlns:cc="http://creativecommons.org/ns#"
   xmlns:rdf="http://www.w3.org/1999/02/22-rdf-syntax-ns#"
   xmlns:svg="http://www.w3.org/2000/svg"
   xmlns="http://www.w3.org/2000/svg"
   xmlns:sodipodi="http://sodipodi.sourceforge.net/DTD/sodipodi-0.dtd"
   xmlns:inkscape="http://www.inkscape.org/namespaces/inkscape"
   width="256"
   height="256"
   viewBox="0 0 204.8 204.8"
   version="1.1"
   id="svg3058"
   inkscape:version="0.48.5 r10040"
   sodipodi:docname="folder-documents.svg">
  <metadata
     id="metadata3079">
    <rdf:RDF>
      <cc:Work
         rdf:about="">
        <dc:format>image/svg+xml</dc:format>
        <dc:type
           rdf:resource="http://purl.org/dc/dcmitype/StillImage" />
      </cc:Work>
    </rdf:RDF>
  </metadata>
  <defs
     id="defs3077" />
  <sodipodi:namedview
     pagecolor="#ffffff"
     bordercolor="#666666"
     borderopacity="1"
     objecttolerance="10"
     gridtolerance="10"
     guidetolerance="10"
     inkscape:pageopacity="0"
     inkscape:pageshadow="2"
     inkscape:window-width="1280"
     inkscape:window-height="998"
     id="namedview3075"
     showgrid="false"
     inkscape:zoom="1.475"
     inkscape:cx="214.79492"
     inkscape:cy="180.25372"
     inkscape:window-x="0"
     inkscape:window-y="0"
     inkscape:window-maximized="1"
     inkscape:current-layer="svg3058" />
  <g
     id="surface1"
     transform="scale(0.8,0.8)">
    <path
       inkscape:connector-curvature="0"
       style="fill:#e68f33;fill-opacity:1;fill-rule:nonzero;stroke:none"
       d="m 24,48 208,0 0,80 -208,0 z m 0,0"
       id="path3061" />
    <path
       inkscape:connector-curvature="0"
       style="fill:#e68f33;fill-opacity:1;fill-rule:nonzero;stroke:none"
       d="m 48,48 c 0,-8 0,-16 11.632812,-16 l 40.734378,0 C 112,32 112,40 112,48 l 0,8 -64,0 z m 0,0"
       id="path3063" />
    <path
       inkscape:connector-curvature="0"
       style="fill:#94979c;fill-opacity:1;fill-rule:nonzero;stroke:none"
       d="m 40,64 176,0 0,39.74219 -176,0 z m 0,0"
       id="path3065" />
    <path
       inkscape:connector-curvature="0"
       style="fill:#d7d7d9;fill-opacity:1;fill-rule:nonzero;stroke:none"
       d="m 56,56 152,0 0,104 -152,0 z m 0,0"
       id="path3067" />
    <path
       inkscape:connector-curvature="0"
       style="fill:#f8f8f8;fill-opacity:1;fill-rule:nonzero;stroke:none"
       d="m 48,72 152,0 0,104 -152,0 z m 0,0"
       id="path3069" />
    <path
       inkscape:connector-curvature="0"
       style="fill:#f0b861;fill-opacity:1;fill-rule:nonzero;stroke:none"
       d="m 8,80 240,0 -17.14063,144 -205.718745,0 z m 0,0"
       id="path3071" />
    <path
       inkscape:connector-curvature="0"
       style="fill:#000000;fill-opacity:0.25097997;fill-rule:nonzero;stroke:none"
       d="m 96,96 c -8.863281,0 -16,7.13672 -16,16 l 0,80 c 0,8.86328 7.136719,16 16,16 l 64,0 c 8.86328,0 16,-7.13672 16,-16 l 0,-56 -40,-40 z m 0,16 40,0 0,24 24,0 0,56 -64,0 z m 10,32 c -1.10937,0 -2,0.89062 -2,2 l 0,4 c 0,1.10937 0.89063,2 2,2 l 28,0 c 1.10937,0 2,-0.89063 2,-2 l 0,-4 c 0,-1.10938 -0.89063,-2 -2,-2 z m 0,16 c -1.10937,0 -2,0.89062 -2,2 l 0,4 c 0,1.10937 0.89063,2 2,2 l 44,0 c 1.10937,0 2,-0.89063 2,-2 l 0,-4 c 0,-1.10938 -0.89063,-2 -2,-2 z m 0,16 c -1.10937,0 -2,0.89062 -2,2 l 0,4 c 0,1.10937 0.89063,2 2,2 l 44,0 c 1.10937,0 2,-0.89063 2,-2 l 0,-4 c 0,-1.10938 -0.89063,-2 -2,-2 z m 0,0"
       id="path3073" />
  </g>
</svg>
