<?xml version="1.0" encoding="UTF-8" standalone="no"?>
<svg
   xmlns:dc="http://purl.org/dc/elements/1.1/"
   xmlns:cc="http://creativecommons.org/ns#"
   xmlns:rdf="http://www.w3.org/1999/02/22-rdf-syntax-ns#"
   xmlns:svg="http://www.w3.org/2000/svg"
   xmlns="http://www.w3.org/2000/svg"
   xmlns:sodipodi="http://sodipodi.sourceforge.net/DTD/sodipodi-0.dtd"
   xmlns:inkscape="http://www.inkscape.org/namespaces/inkscape"
   width="256"
   height="256"
   viewBox="0 0 204.8 204.8"
   version="1.1"
   id="svg3336"
   inkscape:version="0.48.5 r10040"
   sodipodi:docname="grey-folder-ubuntu.svg">
  <metadata
     id="metadata3363">
    <rdf:RDF>
      <cc:Work
         rdf:about="">
        <dc:format>image/svg+xml</dc:format>
        <dc:type
           rdf:resource="http://purl.org/dc/dcmitype/StillImage" />
      </cc:Work>
    </rdf:RDF>
  </metadata>
  <defs
     id="defs3361" />
  <sodipodi:namedview
     pagecolor="#ffffff"
     bordercolor="#666666"
     borderopacity="1"
     objecttolerance="10"
     gridtolerance="10"
     guidetolerance="10"
     inkscape:pageopacity="0"
     inkscape:pageshadow="2"
     inkscape:window-width="1280"
     inkscape:window-height="998"
     id="namedview3359"
     showgrid="true"
     inkscape:zoom="1.475"
     inkscape:cx="14.362344"
     inkscape:cy="151.22076"
     inkscape:window-x="0"
     inkscape:window-y="0"
     inkscape:window-maximized="1"
     inkscape:current-layer="svg3336">
    <inkscape:grid
       type="xygrid"
       id="grid3636"
       empspacing="5"
       visible="true"
       enabled="true"
       snapvisiblegridlinesonly="true" />
  </sodipodi:namedview>
  <path
     id="path3339"
     d="m 19.2,38.4 166.4,0 0,64 -166.4,0 z m 0,0"
     style="fill:#757575;fill-opacity:1;fill-rule:nonzero;stroke:none"
     inkscape:connector-curvature="0" />
  <path
     id="path3341"
     d="m 38.4,38.4 c 0,-6.4 0,-12.8 9.30625,-12.8 l 32.587502,0 C 89.6,25.6 89.6,32 89.6,38.4 l 0,6.4 -51.2,0 z m 0,0"
     style="fill:#757575;fill-opacity:1;fill-rule:nonzero;stroke:none"
     inkscape:connector-curvature="0" />
  <path
     id="path3343"
     d="m 32,51.2 140.8,0 0,31.793752 -140.8,0 z m 0,0"
     style="fill:#94979c;fill-opacity:1;fill-rule:nonzero;stroke:none"
     inkscape:connector-curvature="0" />
  <path
     id="path3345"
     d="m 44.8,44.8 121.6,0 0,83.2 -121.6,0 z m 0,0"
     style="fill:#d7d7d9;fill-opacity:1;fill-rule:nonzero;stroke:none"
     inkscape:connector-curvature="0" />
  <path
     id="path3347"
     d="m 38.4,57.6 121.6,0 0,83.2 -121.6,0 z m 0,0"
     style="fill:#f8f8f8;fill-opacity:1;fill-rule:nonzero;stroke:none"
     inkscape:connector-curvature="0" />
  <path
     id="path3349"
     d="m 6.4,64 192,0 -13.7125,115.2 -164.575,0 z m 0,0"
     style="fill:#bdbdbd;fill-opacity:1;fill-rule:nonzero;stroke:none"
     inkscape:connector-curvature="0" />
  <path
     id="path3351"
     d="m 60.8,120 c 0,5.30313 -4.296875,9.6 -9.6,9.6 -5.303125,0 -9.6,-4.29687 -9.6,-9.6 0,-5.30313 4.296875,-9.6 9.6,-9.6 5.303125,0 9.6,4.29687 9.6,9.6 z m 0,0"
     style="fill:#212121;fill-opacity:1;fill-rule:nonzero;stroke:none;opacity:0.4"
     inkscape:connector-curvature="0" />
  <path
     id="path3353"
     d="m 102.4,81.6 c -7.334376,0 -14.175,2.025 -20,5.6 l 9.5,9.5 c 3.206248,-1.443752 6.756248,-2.3 10.5,-2.3 13.05,0 23.81875,9.77813 25.4,22.4 l 12.8,0 c -0.51875,-6.14375 -2.43438,-11.92187 -5.5,-16.9 -1.20313,0.54062 -2.49687,0.9 -3.9,0.9 -5.30313,0 -9.6,-4.296872 -9.6,-9.6 0,-1.403128 0.35938,-2.696872 0.9,-3.9 -5.84687,-3.596872 -12.73125,-5.7 -20.1,-5.7 z m -25.1,9.5 c -6.0125,5.243752 -10.45,12.25938 -12.3,20.3 3.184375,1.5625 5.4,4.8125 5.4,8.6 0,3.7875 -2.215625,7.0375 -5.4,8.6 1.99375,8.6625 6.853125,16.26562 13.6,21.6 l 9.2,-9.2 c -6.640624,-4.625 -11,-12.29375 -11,-21 0,-8.03438 3.712504,-15.20625 9.5,-19.9 z m 50.5,32.1 c -1.58125,12.62187 -12.35,22.4 -25.4,22.4 -3.025,0 -5.906248,-0.63438 -8.6,-1.6 l -9.7,9.7 c 5.446872,2.975 11.656248,4.7 18.3,4.7 4.84062,0 9.43438,-0.86562 13.7,-2.5 -0.54062,-1.20313 -0.9,-2.49687 -0.9,-3.9 0,-5.30313 4.29687,-9.6 9.6,-9.6 2.57187,0 4.875,1.05313 6.6,2.7 5.18438,-5.9875 8.50938,-13.54062 9.2,-21.9 z m 0,0"
     style="fill:#212121;fill-opacity:1;fill-rule:nonzero;stroke:none;opacity:0.4"
     inkscape:connector-curvature="0" />
  <path
     id="path3355"
     d="m 147.2,84.8 c 0,5.303128 -4.29687,9.6 -9.6,9.6 -5.30313,0 -9.6,-4.296872 -9.6,-9.6 0,-5.303125 4.29687,-9.6 9.6,-9.6 5.30313,0 9.6,4.296875 9.6,9.6 z m 0,0"
     style="fill:#212121;fill-opacity:1;fill-rule:nonzero;stroke:none;opacity:0.4"
     inkscape:connector-curvature="0" />
  <path
     id="path3357"
     d="m 140.8,158.4 c 0,5.30313 -4.29687,9.6 -9.6,9.6 -5.30313,0 -9.6,-4.29687 -9.6,-9.6 0,-5.30313 4.29687,-9.6 9.6,-9.6 5.30313,0 9.6,4.29687 9.6,9.6 z m 0,0"
     style="fill:#212121;fill-opacity:1;fill-rule:nonzero;stroke:none;opacity:0.4"
     inkscape:connector-curvature="0" />
</svg>
