<?xml version="1.0" encoding="UTF-8" standalone="no"?>
<svg
   xmlns:dc="http://purl.org/dc/elements/1.1/"
   xmlns:cc="http://creativecommons.org/ns#"
   xmlns:rdf="http://www.w3.org/1999/02/22-rdf-syntax-ns#"
   xmlns:svg="http://www.w3.org/2000/svg"
   xmlns="http://www.w3.org/2000/svg"
   xmlns:sodipodi="http://sodipodi.sourceforge.net/DTD/sodipodi-0.dtd"
   xmlns:inkscape="http://www.inkscape.org/namespaces/inkscape"
   width="128"
   height="128"
   viewBox="0 0 128 128"
   id="svg2"
   version="1.1"
   inkscape:version="0.91 r"
   sodipodi:docname="purple-folder-new.svg">
  <metadata
     id="metadata14">
    <rdf:RDF>
      <cc:Work
         rdf:about="">
        <dc:format>image/svg+xml</dc:format>
        <dc:type
           rdf:resource="http://purl.org/dc/dcmitype/StillImage" />
      </cc:Work>
    </rdf:RDF>
  </metadata>
  <defs
     id="defs12" />
  <sodipodi:namedview
     pagecolor="#ffffff"
     bordercolor="#666666"
     borderopacity="1"
     objecttolerance="10"
     gridtolerance="10"
     guidetolerance="10"
     inkscape:pageopacity="0"
     inkscape:pageshadow="2"
     inkscape:window-width="1280"
     inkscape:window-height="969"
     id="namedview10"
     showgrid="false"
     inkscape:zoom="1.84375"
     inkscape:cx="65.084746"
     inkscape:cy="62.915254"
     inkscape:window-x="0"
     inkscape:window-y="0"
     inkscape:window-maximized="1"
     inkscape:current-layer="svg2" />
  <path
     style="fill:#7e57c2;fill-opacity:1;stroke:none"
     d="m 18,15 c -2.927834,0 -6,3 -6,6.000001 l 0,2 -6,0 c -2.940198,0 -6,2.99066 -6,6 L 0,107 c 0,4 2,6 6,6 l 116,0 c 3.13523,0 6,-2.71669 6,-6 l 0,-67.999999 c 0,-3.009856 -2.91008,-6 -6,-6 l -6,0 0,-12 C 116,18.077688 113.09356,15 110,15 z"
     id="path6-6"
     inkscape:connector-curvature="0"
     sodipodi:nodetypes="ssccssssscccsss" />
  <path
     sodipodi:nodetypes="sscsssssssscsssssscssssssss"
     inkscape:connector-curvature="0"
     style="fill:#000000;fill-opacity:0.32156863;stroke:none"
     d="m 18,15 c -2.927834,0 -6,3 -6,6.000001 l 0,2 -6,0 c -2.940198,0 -6,2.99066 -6,6 L 0,107 c 0,4 2,6 6,6 l 116,0 c 3.13523,0 6,-2.71669 6,-6 l 0,-67.999999 c 0,-3.009856 -2.91008,-6 -6,-6 l -6,0 0,-12 C 116,18.077688 113.09356,15 110,15 z m -12,12.000001 68,0 c 1.18035,0 2,1.02954 2,2 l 0,8 46,0 c 1.0111,0 2,1.017484 2,2 L 124,107 c 0,1.04258 -0.95753,2 -2,2 L 6,109 c -0.92859,0 -2,-0.79269 -2,-2 L 4,29.000001 c 0,-0.98481 1.033057,-2 2,-2 z"
     id="path3778" />
  <path
     style="fill:#859900"
     d="M 128 74.667969 L 101.332031 74.667969 L 101.332031 48 L 74.667969 48 L 74.667969 74.667969 L 48 74.667969 L 48 101.332031 L 74.667969 101.332031 L 74.667969 128 L 101.332031 128 L 101.332031 101.332031 L 128 101.332031 Z "
     id="path8" />
</svg>
