<svg xmlns="http://www.w3.org/2000/svg" viewBox="0 0 48 48">
 <g transform="translate(0,-1004.3622)">
  <g style="opacity:0.5">
   <rect y="1028.36" x="8" height="4" width="10" style="fill:#fffdf0;fill-opacity:1;stroke:none"/>
   <path d="m 17 1027.36 -1 2 -10 0 0 1 11 0 1 -2 8 0 c 0.5 0 1 0.5 1 1 l 0 -1 c 0 -0.5 -0.5 -1 -1 -1 z" style="fill:#000;opacity:0.03;fill-opacity:1;stroke:none"/>
   <rect ry="2.344" rx="2.283" y="1027.36" x="6" height="15" width="21" style="fill:#f57c00;fill-opacity:1;stroke:none"/>
   <path d="m 8 1027.36 c -1.265 0 -2.283 1.115 -2.283 2.5 l 0 1 c 0 -1.385 1.018 -2.5 2.283 -2.5 l 16.435 0 c 1.265 0 2.283 1.115 2.283 2.5 l 0 -1 c 0 -1.385 -1.018 -2.5 -2.283 -2.5 l -16.435 0 z" style="fill:#fff;opacity:0.2;fill-opacity:1;stroke:none"/>
   <path d="m 8.283 1031.03 3.652 0 c 5.02 -0.472 4.109 -5.667 7.304 -5.667 l 5.478 0 c 1.265 0 2.283 1.053 2.283 2.361 l 0 12.278 c 0 1.308 -1.018 2.361 -2.283 2.361 l -16.435 0 c -1.265 0 -2.283 -1.053 -2.283 -2.361 l 0 -6.611 c 0 -1.417 0.913 -2.361 2.283 -2.361 z" style="fill:#ffb300;fill-opacity:1;stroke:none"/>
   <path d="m 6 1038.86 0 1 c 0 1.385 1.018 2.5 2.283 2.5 l 16.435 0 c 1.265 0 2.283 -1.115 2.283 -2.5 l 0 -1 c 0 1.385 -1.018 2.5 -2.283 2.5 l -16.435 0 c -1.265 0 -2.283 -1.115 -2.283 -2.5 z" style="fill:#000;opacity:0.15;fill-opacity:1;stroke:none"/>
  </g>
  <rect width="10" height="4" x="23" y="1015.36" style="fill:#fffdf0;fill-opacity:1;stroke:none"/>
  <path d="m 32 1014.36 -1 2 -10 0 0 1 11 0 1 -2 8 0 c 0.5 0 1 0.5 1 1 l 0 -1 c 0 -0.5 -0.5 -1 -1 -1 z" style="fill:#000;opacity:0.03;fill-opacity:1;stroke:none"/>
  <rect width="21" height="15" x="21" y="1014.36" rx="2.283" ry="2.344" style="fill:#f57c00;fill-opacity:1;stroke:none"/>
  <path d="m 23 1014.36 c -1.265 0 -2.283 1.115 -2.283 2.5 l 0 1 c 0 -1.385 1.018 -2.5 2.283 -2.5 l 16.435 0 c 1.265 0 2.283 1.115 2.283 2.5 l 0 -1 c 0 -1.385 -1.018 -2.5 -2.283 -2.5 l -16.435 0 z" style="fill:#fff;opacity:0.2;fill-opacity:1;stroke:none"/>
  <path d="m 23.283 1018.03 3.652 0 c 5.02 -0.472 4.109 -5.667 7.304 -5.667 l 5.478 0 c 1.265 0 2.283 1.053 2.283 2.361 l 0 12.278 c 0 1.308 -1.018 2.361 -2.283 2.361 l -16.435 0 c -1.265 0 -2.283 -1.053 -2.283 -2.361 l 0 -6.611 c 0 -1.417 0.913 -2.361 2.283 -2.361 z" style="fill:#ffb300;fill-opacity:1;stroke:none"/>
  <path d="m 21 1025.86 0 1 c 0 1.385 1.018 2.5 2.283 2.5 l 16.435 0 c 1.265 0 2.283 -1.115 2.283 -2.5 l 0 -1 c 0 1.385 -1.018 2.5 -2.283 2.5 l -16.435 0 c -1.265 0 -2.283 -1.115 -2.283 -2.5 z" style="fill:#000;opacity:0.15;fill-opacity:1;stroke:none"/>
  <path d="m 42 1030.36 -8 0 0 -8 -4 0 0 8 -8 0 0 4 8 0 0 8 4 0 0 -8 8 0 z" style="fill:#4caf50;fill-opacity:1"/>
 </g>
</svg>
