<svg version="1.1" viewBox="0 0 48 48" xmlns="http://www.w3.org/2000/svg">
 <defs>
  <linearGradient id="linearGradient3764" x1="1" x2="47" gradientTransform="matrix(0 -1 1 0 -1.5e-6 48)" gradientUnits="userSpaceOnUse">
   <stop style="stop-color:#b44732" offset="0"/>
   <stop style="stop-color:#c44e36" offset="1"/>
  </linearGradient>
 </defs>
 <path d="m36.3 5c5.86 4.06 9.69 10.8 9.69 18.5 0 12.4-10.1 22.5-22.5 22.5-7.67 0-14.4-3.83-18.5-9.69 1.04 1.82 2.31 3.5 3.78 4.97 4.08 3.71 9.51 5.97 15.5 5.97 12.7 0 23-10.3 23-23 0-5.95-2.26-11.4-5.97-15.5-1.47-1.48-3.15-2.74-4.97-3.78zm4.97 3.78c3.85 4.11 6.22 9.64 6.22 15.7 0 12.7-10.3 23-23 23-6.08 0-11.6-2.36-15.7-6.22 4.16 4.14 9.88 6.72 16.2 6.72 12.7 0 23-10.3 23-23 0-6.34-2.58-12.1-6.72-16.2z" style="opacity:.05"/>
 <path d="m41.3 8.78c3.71 4.08 5.97 9.51 5.97 15.5 0 12.7-10.3 23-23 23-5.95 0-11.4-2.26-15.5-5.97 4.11 3.85 9.64 6.22 15.7 6.22 12.7 0 23-10.3 23-23 0-6.08-2.36-11.6-6.22-15.7z" style="opacity:.1"/>
 <path d="m31.2 2.38c8.62 3.15 14.8 11.4 14.8 21.1 0 12.4-10.1 22.5-22.5 22.5-9.71 0-18-6.14-21.1-14.8a23 23 0 0 0 44.9-7 23 23 0 0 0-16-21.9z" style="opacity:.2"/>
 <path d="m24 1c12.7 0 23 10.3 23 23s-10.3 23-23 23-23-10.3-23-23 10.3-23 23-23z" style="fill:url(#linearGradient3764)"/>
 <path d="m40 7.53c3.71 4.08 5.97 9.51 5.97 15.5 0 12.7-10.3 23-23 23-5.95 0-11.4-2.26-15.5-5.97 4.18 4.29 10 6.97 16.5 6.97 12.7 0 23-10.3 23-23 0-6.46-2.68-12.3-6.97-16.5z" style="opacity:.1"/>
 <rect x="14" y="18" width="11" height="4" style="fill:#fffdf0"/>
 <path d="m28.1 15c-1.9 0-2.52 1.5-3.5 3h-9.12c-1.38 0-2.5 1.12-2.5 2.5v11.9 0.125c6e-3 0.139 0.036 0.274 0.063 0.406 0.119 0.691 0.513 1.28 1.09 1.66 0.277 0.179 0.597 0.309 0.938 0.375 0.17 0.035 0.319 0.063 0.5 0.063h18.8c0.181 0 0.33-0.027 0.5-0.063 0.34-0.066 0.66-0.196 0.937-0.375 0.581-0.375 0.974-0.965 1.09-1.66 0.027-0.132 0.056-0.268 0.063-0.406v-0.125-14.8c0-1.46-1.15-2.62-2.59-2.62h-6.28z" style="fill-opacity:.102"/>
 <path d="m14.5 16c-1.38 0-2.5 1.12-2.5 2.5v9.5h23v-9.5c0-1.38-1.12-2.5-2.5-2.5h-18z" style="fill:#f57c00"/>
 <path d="m14.5 16c-1.38 0-2.5 1.12-2.5 2.5v1c0-1.38 1.12-2.5 2.5-2.5h18c1.38 0 2.5 1.12 2.5 2.5v-1c0-1.38-1.12-2.5-2.5-2.5h-18z" style="fill:#fff;opacity:.2"/>
 <path d="m14.6 20h4.17c5.74-0.528 4.7-6 8.35-6h6.26c1.44 0 2.61 1.18 2.61 2.64v14.7c0 1.46-1.16 2.64-2.61 2.64h-18.8c-1.44 0-2.61-1.18-2.61-2.64v-8.39c0-1.58 1.04-2.97 2.61-2.97z" style="fill:#ffb300"/>
 <path d="m12 30.5v1c0 1.38 1.16 2.5 2.61 2.5h18.8c1.44 0 2.61-1.12 2.61-2.5v-1c0 1.38-1.16 2.5-2.61 2.5h-18.8c-1.44 0-2.61-1.12-2.61-2.5z" style="opacity:.15"/>
 <path d="m18.4 22.4-0.528 1.21 0.141 0.32c-0.85 0.058-0.683 0.231-0.683 0.231s-0.98 0.182-0.98 0.317v0.012c-0.196 0.095-0.389 0.228-0.573 0.372-2.46 3.31 0.173 4.08-0.413 6-0.127 0.418-0.658 1.13-0.658 1.13s1.07 0.133 1.51-1.12c0.357-1.01-0.853-3.05 0.049-3.96 1.28-1.29 2.23 1.37 1.83 1.74-0.407 0.369-0.306 0.47-0.306 0.47l0.605 1.22 0.602-1.22s0.104-0.101-0.303-0.47c-0.404-0.369 0.548-3.03 1.82-1.74 0.906 0.914-0.309 2.95 0.052 3.96 0.441 1.25 1.51 1.12 1.51 1.12s-0.528-0.715-0.658-1.13c-0.585-1.92 2.04-2.69-0.418-6-0.185-0.139-0.378-0.274-0.571-0.369v-0.012c0-0.139-0.977-0.317-0.977-0.317s0.168-0.173-0.686-0.231l0.139-0.32-0.525-1.21" style="fill-opacity:.098"/>
 <path d="m18.4 21.3-0.528 1.21 0.141 0.32c-0.85 0.058-0.683 0.231-0.683 0.231s-0.98 0.182-0.98 0.317v0.012c-0.196 0.095-0.389 0.228-0.573 0.372-2.46 3.31 0.173 4.08-0.413 6-0.127 0.418-0.658 1.13-0.658 1.13s1.07 0.133 1.51-1.12c0.357-1.01-0.853-3.05 0.049-3.96 1.28-1.29 2.23 1.37 1.83 1.74-0.407 0.369-0.306 0.47-0.306 0.47l0.605 1.22 0.602-1.22s0.104-0.101-0.303-0.47c-0.404-0.369 0.548-3.03 1.82-1.74 0.906 0.914-0.309 2.95 0.052 3.96 0.441 1.25 1.51 1.12 1.51 1.12s-0.528-0.715-0.658-1.13c-0.585-1.92 2.04-2.69-0.418-6-0.185-0.139-0.378-0.274-0.571-0.369v-0.012c0-0.139-0.977-0.317-0.977-0.317s0.168-0.173-0.686-0.231l0.139-0.32-0.525-1.21" style="fill:#fff8e1"/>
</svg>
