<svg version="1.1" viewBox="0 0 48 48" xmlns="http://www.w3.org/2000/svg">
 <defs>
  <linearGradient id="bg" x1="1" x2="47" gradientTransform="matrix(0 -1 1 0 -1.5e-6 48)" gradientUnits="userSpaceOnUse">
   <stop style="stop-color:#7568a0" offset="0"/>
   <stop style="stop-color:#8074a8" offset="1"/>
  </linearGradient>
 </defs>
 <path d="m36.31 5c5.859 4.062 9.688 10.831 9.688 18.5 0 12.426-10.07 22.5-22.5 22.5-7.669 0-14.438-3.828-18.5-9.688 1.037 1.822 2.306 3.499 3.781 4.969 4.085 3.712 9.514 5.969 15.469 5.969 12.703 0 23-10.298 23-23 0-5.954-2.256-11.384-5.969-15.469-1.469-1.475-3.147-2.744-4.969-3.781zm4.969 3.781c3.854 4.113 6.219 9.637 6.219 15.719 0 12.703-10.297 23-23 23-6.081 0-11.606-2.364-15.719-6.219 4.16 4.144 9.883 6.719 16.219 6.719 12.703 0 23-10.298 23-23 0-6.335-2.575-12.06-6.719-16.219z" style="opacity:.05"/>
 <path d="m41.28 8.781c3.712 4.085 5.969 9.514 5.969 15.469 0 12.703-10.297 23-23 23-5.954 0-11.384-2.256-15.469-5.969 4.113 3.854 9.637 6.219 15.719 6.219 12.703 0 23-10.298 23-23 0-6.081-2.364-11.606-6.219-15.719z" style="opacity:.1"/>
 <path d="m31.25 2.375c8.615 3.154 14.75 11.417 14.75 21.13 0 12.426-10.07 22.5-22.5 22.5-9.708 0-17.971-6.135-21.12-14.75a23 23 0 0 0 44.875-7 23 23 0 0 0-16-21.875z" style="opacity:.2"/>
 <path d="m24 1c12.703 0 23 10.297 23 23s-10.297 23-23 23-23-10.297-23-23 10.297-23 23-23z" style="fill:url(#bg)"/>
 <path d="m40.03 7.531c3.712 4.084 5.969 9.514 5.969 15.469 0 12.703-10.297 23-23 23-5.954 0-11.384-2.256-15.469-5.969 4.178 4.291 10.01 6.969 16.469 6.969 12.703 0 23-10.298 23-23 0-6.462-2.677-12.291-6.969-16.469z" style="opacity:.1"/>
 <rect x="14.002" y="17.999" width="10.998" height="4.0004" style="fill:#fffdf0"/>
 <path d="m14.502 16.001c-1.3854 0-2.5016 1.1161-2.5016 2.5016v9.4996h23v-9.4996c0-1.3854-1.1161-2.5016-2.5016-2.5016h-18z" style="fill:#f57c00"/>
 <path d="m14.502 16.001c-1.3854 0-2.5016 1.1161-2.5016 2.5016v0.99921c0-1.3854 1.1161-2.5016 2.5016-2.5016h18c1.3854 0 2.5016 1.1161 2.5016 2.5016v-0.99921c0-1.3854-1.1161-2.5016-2.5016-2.5016z" style="fill:#fff;opacity:.2"/>
 <path d="m13.004 32.361c0 1.4634 1.1618 2.6387 2.6074 2.6387h18.783c1.4457 0 2.6074-1.1753 2.6074-2.6387v-14.723c0-1.4634-1.1618-2.6406-2.6074-2.6406z" style="opacity:.1"/>
 <path d="m14.611 19.998h4.174c5.7402-0.52795 4.6949-5.9988 8.348-5.9988h6.261c1.4457 0 2.6079 1.1764 2.6079 2.6398v14.722c0 1.4634-1.1622 2.6398-2.6079 2.6398h-18.783c-1.4457 0-2.6079-1.1764-2.6079-2.6398v-8.3906c0-1.5839 1.0417-2.9728 2.6079-2.9728z" style="fill:#ffb300"/>
 <path d="m12.004 30.5v0.99921c0 1.3854 1.1622 2.5016 2.6079 2.5016h18.783c1.4457 0 2.6079-1.1161 2.6079-2.5016v-0.99921c0 1.3854-1.1622 2.5016-2.6079 2.5016h-18.783c-1.4457 0-2.6079-1.1161-2.6079-2.5016" style="opacity:.15"/>
</svg>
