<svg version="1.1" viewBox="0 0 48 48" xmlns="http://www.w3.org/2000/svg">
 <defs>
  <linearGradient id="linearGradient3764" x1="1" x2="47" gradientTransform="matrix(0 -1 1 0 -1.5e-6 48)" gradientUnits="userSpaceOnUse">
   <stop style="stop-color:#db522f" offset="0"/>
   <stop style="stop-color:#df6445" offset="1"/>
  </linearGradient>
 </defs>
 <path d="m36.3 5c5.86 4.06 9.69 10.8 9.69 18.5 0 12.4-10.1 22.5-22.5 22.5-7.67 0-14.4-3.83-18.5-9.69 1.04 1.82 2.31 3.5 3.78 4.97 4.08 3.71 9.51 5.97 15.5 5.97 12.7 0 23-10.3 23-23 0-5.95-2.26-11.4-5.97-15.5-1.47-1.48-3.15-2.74-4.97-3.78zm4.97 3.78c3.85 4.11 6.22 9.64 6.22 15.7 0 12.7-10.3 23-23 23-6.08 0-11.6-2.36-15.7-6.22 4.16 4.14 9.88 6.72 16.2 6.72 12.7 0 23-10.3 23-23 0-6.34-2.58-12.1-6.72-16.2z" style="opacity:.05"/>
 <path d="m41.3 8.78c3.71 4.08 5.97 9.51 5.97 15.5 0 12.7-10.3 23-23 23-5.95 0-11.4-2.26-15.5-5.97 4.11 3.85 9.64 6.22 15.7 6.22 12.7 0 23-10.3 23-23 0-6.08-2.36-11.6-6.22-15.7z" style="opacity:.1"/>
 <path d="m31.2 2.38c8.62 3.15 14.8 11.4 14.8 21.1 0 12.4-10.1 22.5-22.5 22.5-9.71 0-18-6.14-21.1-14.8a23 23 0 0 0 44.9-7 23 23 0 0 0-16-21.9z" style="opacity:.2"/>
 <path d="m24 1c12.7 0 23 10.3 23 23s-10.3 23-23 23-23-10.3-23-23 10.3-23 23-23z" style="fill:url(#linearGradient3764)"/>
 <path d="m40 7.53c3.71 4.08 5.97 9.51 5.97 15.5 0 12.7-10.3 23-23 23-5.95 0-11.4-2.26-15.5-5.97 4.18 4.29 10 6.97 16.5 6.97 12.7 0 23-10.3 23-23 0-6.46-2.68-12.3-6.97-16.5z" style="opacity:.1"/>
 <g transform="matrix(3.54 0 0 3.54 .00236 -.000787)">
  <rect x="3.95" y="5.08" width="3.1" height="1.13" style="fill:#fffdf0"/>
  <path d="m7.94 4.23c-0.537 0-0.712 0.424-0.988 0.847h-2.58c-0.391 0-0.706 0.315-0.706 0.706v3.35 0.035c2e-3 0.039 1e-3 0.077 0.018 0.115 0.034 0.195 0.145 0.362 0.309 0.467 0.078 0.051 0.169 0.087 0.265 0.106 0.048 1e-3 0.09 0.018 0.141 0.018h5.31c0.051 0 0.093-8e-3 0.141-0.018 0.096-0.019 0.186-0.055 0.265-0.106 0.164-0.106 0.275-0.272 0.309-0.467 8e-3 -0.037 0.016-0.076 0.018-0.115v-0.035-4.16c0-0.413-0.324-0.741-0.732-0.741h-1.77z" style="fill-opacity:.102"/>
  <path d="m4.09 4.52c-0.391 0-0.706 0.315-0.706 0.706v2.68h6.49v-2.68c0-0.391-0.315-0.706-0.706-0.706h-5.08z" style="fill:#f57c00"/>
  <path d="m4.09 4.52c-0.391 0-0.706 0.315-0.706 0.706v0.282c0-0.391 0.315-0.706 0.706-0.706h5.08c0.391 0 0.706 0.315 0.706 0.706v-0.282c0-0.391-0.315-0.706-0.706-0.706h-5.08z" style="fill:#fff;opacity:.2"/>
  <path d="m4.12 5.64h1.18c1.62-0.149 1.32-1.69 2.36-1.69h1.77c0.408 0 0.736 0.332 0.736 0.745v4.16c0 0.413-0.328 0.745-0.736 0.745h-5.3c-0.408 0-0.736-0.332-0.736-0.745v-2.37c0-0.447 0.294-0.839 0.736-0.839z" style="fill:#ffb300"/>
  <path d="m3.39 8.61v0.282c0 0.391 0.328 0.706 0.736 0.706h5.3c0.408 0 0.736-0.315 0.736-0.706v-0.282c0 0.391-0.328 0.706-0.736 0.706h-5.3c-0.408 0-0.736-0.315-0.736-0.706" style="opacity:.15"/>
 </g>
</svg>
