<svg version="1.1" viewBox="0 0 48 48" xmlns="http://www.w3.org/2000/svg">
 <defs>
  <linearGradient id="bg" x1="1" x2="47" gradientTransform="matrix(0 -1 1 0 -1.5e-6 48)" gradientUnits="userSpaceOnUse">
   <stop style="stop-color:#7568a0" offset="0"/>
   <stop style="stop-color:#8074a8" offset="1"/>
  </linearGradient>
 </defs>
 <path d="m36.3 5c5.86 4.06 9.69 10.8 9.69 18.5 0 12.4-10.1 22.5-22.5 22.5-7.67 0-14.4-3.83-18.5-9.69 1.04 1.82 2.31 3.5 3.78 4.97 4.08 3.71 9.51 5.97 15.5 5.97 12.7 0 23-10.3 23-23 0-5.95-2.26-11.4-5.97-15.5-1.47-1.48-3.15-2.74-4.97-3.78zm4.97 3.78c3.85 4.11 6.22 9.64 6.22 15.7 0 12.7-10.3 23-23 23-6.08 0-11.6-2.36-15.7-6.22 4.16 4.14 9.88 6.72 16.2 6.72 12.7 0 23-10.3 23-23 0-6.34-2.58-12.1-6.72-16.2z" style="opacity:.05"/>
 <path d="m41.3 8.78c3.71 4.08 5.97 9.51 5.97 15.5 0 12.7-10.3 23-23 23-5.95 0-11.4-2.26-15.5-5.97 4.11 3.85 9.64 6.22 15.7 6.22 12.7 0 23-10.3 23-23 0-6.08-2.36-11.6-6.22-15.7z" style="opacity:.1"/>
 <path d="m31.2 2.38c8.62 3.15 14.8 11.4 14.8 21.1 0 12.4-10.1 22.5-22.5 22.5-9.71 0-18-6.14-21.1-14.8a23 23 0 0 0 44.9-7 23 23 0 0 0-16-21.9z" style="opacity:.2"/>
 <path d="m24 1c12.7 0 23 10.3 23 23s-10.3 23-23 23-23-10.3-23-23 10.3-23 23-23z" style="fill:url(#bg)"/>
 <path d="m40 7.53c3.71 4.08 5.97 9.51 5.97 15.5 0 12.7-10.3 23-23 23-5.95 0-11.4-2.26-15.5-5.97 4.18 4.29 10 6.97 16.5 6.97 12.7 0 23-10.3 23-23 0-6.46-2.68-12.3-6.97-16.5z" style="opacity:.1"/>
 <rect x="14" y="18" width="11" height="4" style="fill:#fffdf0"/>
 <path d="m14.5 16c-1.39 0-2.5 1.12-2.5 2.5v9.5h23l-2.5-12h-18z" style="fill:#f57c00"/>
 <path d="m14.5 16c-1.39 0-2.5 1.12-2.5 2.5v0.999c0-1.39 1.12-2.5 2.5-2.5h18c1.39 0 2.5 1.12 2.5 2.5v-0.999c0-1.39-1.12-2.5-2.5-2.5z" style="fill:#fff;opacity:.2"/>
 <path d="m13 32.4c0 1.46 1.16 2.64 2.61 2.64h18.8c1.45 0 2.61-1.18 2.61-2.64v-14.7c0-1.46-1.16-2.64-2.61-2.64z" style="opacity:.1"/>
 <path d="m14.6 20h4.17c5.74-0.528 4.69-6 8.35-6h6.26c1.45 0 2.61 1.18 2.61 2.64v14.7c0 1.46-1.16 2.64-2.61 2.64h-18.8c-1.45 0-2.61-1.18-2.61-2.64v-8.39c0-1.58 1.04-2.97 2.61-2.97z" style="fill:#ffb300"/>
 <path d="m12 30.5v0.999c0 1.39 1.16 2.5 2.61 2.5h18.8c1.45 0 2.61-1.12 2.61-2.5v-0.999c0 1.39-1.16 2.5-2.61 2.5h-18.8c-1.45 0-2.61-1.12-2.61-2.5" style="opacity:.15"/>
</svg>
