
<svg xmlns="http://www.w3.org/2000/svg" xmlns:xlink="http://www.w3.org/1999/xlink" width="192px" height="192px" viewBox="0 0 192 192" version="1.1">
<g id="surface1">
<path style=" stroke:none;fill-rule:nonzero;fill:rgb(76.862745%,56.470588%,36.862745%);fill-opacity:1;" d="M 12.1875 24 C 8.796875 24.328125 5.9375 27.53125 6 30.9375 L 6 161.0625 C 5.953125 164.703125 9.296875 168.046875 12.9375 168 L 179.0625 168 C 182.703125 168.046875 186.046875 164.703125 186 161.0625 L 186 42.9375 C 186.046875 39.296875 182.703125 35.953125 179.0625 36 L 114 36 L 114 30.9375 C 114.046875 27.359375 110.828125 24.0625 107.25 24 L 12.9375 24 C 12.6875 23.984375 12.4375 23.984375 12.1875 24 Z M 119.25 78 C 119.78125 78 120.234375 78.078125 120.75 78.1875 C 120.765625 78.203125 120.921875 78.171875 120.9375 78.1875 C 124.234375 81.015625 126.921875 84.390625 128.8125 88.125 C 128.828125 88.1875 128.796875 88.28125 128.8125 88.3125 C 129.28125 89.5625 129.828125 90.84375 130.3125 92.4375 C 130.59375 93.3125 130.890625 94.28125 131.25 95.25 C 131.65625 97.15625 132 99.21875 132 101.25 C 132 118.875 115.921875 138 96 138 C 77.34375 138 61.890625 120.5 60 104.4375 C 60.515625 104.203125 70.46875 93.53125 90.375 101.625 C 114.59375 111.4375 125.375 101.671875 126.375 97.5 C 127.375 93.328125 125.90625 85.5 121.875 85.5 C 117.84375 85.5 112.9375 87.4375 113.625 82.6875 C 114.03125 79.734375 116.578125 78.03125 119.25 78 Z M 108.1875 81.5625 C 108.96875 81.5625 109.6875 82.171875 109.6875 82.875 C 109.6875 83.5625 108.96875 84 108.1875 84 C 107.40625 84 106.875 83.5625 106.875 82.875 C 106.875 82.171875 107.40625 81.5625 108.1875 81.5625 Z M 111.75 87.5625 C 112.859375 87.5625 113.625 88.28125 113.625 89.25 C 113.625 90.25 112.859375 91.125 111.75 91.125 C 110.640625 91.125 109.6875 90.25 109.6875 89.25 C 109.6875 88.28125 110.640625 87.5625 111.75 87.5625 Z M 111.75 87.5625 "/>
</g>
</svg>
