
<svg xmlns="http://www.w3.org/2000/svg" xmlns:xlink="http://www.w3.org/1999/xlink" width="256px" height="256px" viewBox="0 0 256 256" version="1.1">
<g id="surface1">
<path style=" stroke:none;fill-rule:nonzero;fill:rgb(76.862745%,56.470588%,36.862745%);fill-opacity:1;" d="M 16.25 32 C 11.726562 32.4375 7.914062 36.710938 8 41.25 L 8 214.75 C 7.9375 219.601562 12.398438 224.0625 17.25 224 L 238.75 224 C 243.601562 224.0625 248.0625 219.601562 248 214.75 L 248 57.25 C 248.0625 52.398438 243.601562 47.9375 238.75 48 L 152 48 L 152 41.25 C 152.0625 36.476562 147.773438 32.085938 143 32 L 17.25 32 C 16.914062 31.976562 16.585938 31.976562 16.25 32 Z M 162.5 87.75 C 165.523438 87.789062 168.039062 90.9375 168 94.25 L 167.875 169.75 C 167.851562 173.023438 165.351562 175.960938 162.375 176 L 93.375 176.25 C 90.351562 176.289062 87.664062 173.3125 87.625 170 L 87.75 94.5 C 87.710938 91.335938 90.125 88.273438 93 88 L 93.5 88 Z M 96 96 L 96 152 L 160 152 L 160 96 Z M 96 96 "/>
</g>
</svg>
