
<svg xmlns="http://www.w3.org/2000/svg" xmlns:xlink="http://www.w3.org/1999/xlink" width="192px" height="192px" viewBox="0 0 192 192" version="1.1">
<g id="surface1">
<path style=" stroke:none;fill-rule:nonzero;fill:rgb(76.862745%,56.470588%,36.862745%);fill-opacity:1;" d="M 12.1875 24 C 8.796875 24.328125 5.9375 27.53125 6 30.9375 L 6 161.0625 C 5.953125 164.703125 9.296875 168.046875 12.9375 168 L 179.0625 168 C 182.703125 168.046875 186.046875 164.703125 186 161.0625 L 186 42.9375 C 186.046875 39.296875 182.703125 35.953125 179.0625 36 L 114 36 L 114 30.9375 C 114.046875 27.359375 110.828125 24.0625 107.25 24 L 12.9375 24 C 12.6875 23.984375 12.4375 23.984375 12.1875 24 Z M 78 72 L 126 102 L 78 132 Z M 78 72 "/>
</g>
</svg>
