
<svg xmlns="http://www.w3.org/2000/svg" xmlns:xlink="http://www.w3.org/1999/xlink" width="192px" height="192px" viewBox="0 0 192 192" version="1.1">
<g id="surface1">
<path style=" stroke:none;fill-rule:nonzero;fill:rgb(76.862745%,56.470588%,36.862745%);fill-opacity:1;" d="M 12.1875 24 C 8.796875 24.328125 5.9375 27.53125 6 30.9375 L 6 161.0625 C 5.953125 164.703125 9.296875 168.046875 12.9375 168 L 179.0625 168 C 182.703125 168.046875 186.046875 164.703125 186 161.0625 L 186 42.9375 C 186.046875 39.296875 182.703125 35.953125 179.0625 36 L 114 36 L 114 30.9375 C 114.046875 27.359375 110.828125 24.0625 107.25 24 L 12.9375 24 C 12.6875 23.984375 12.4375 23.984375 12.1875 24 Z M 109.3125 72.3125 C 110.96875 72.328125 112.75 72.828125 114.1875 73.8125 C 119.921875 77.75 126 78.3125 126 78.3125 C 126 78.3125 121.28125 85.75 114 84.3125 C 107.125 82.96875 102.609375 84.484375 102.375 84.6875 L 102.1875 114.5 C 102.1875 114.703125 102.203125 114.859375 102.1875 115.0625 C 101.859375 121.4375 97.84375 127.875 90.1875 130.8125 C 80.46875 134.546875 70.28125 131.25 67.3125 123.5 C 64.34375 115.75 69.78125 106.421875 79.5 102.6875 C 87.03125 99.8125 91.453125 101.171875 96 105.5 L 96 72.5 C 96 72.5 104.34375 72.25 109.3125 72.3125 Z M 109.3125 72.3125 "/>
</g>
</svg>
