
<svg xmlns="http://www.w3.org/2000/svg" xmlns:xlink="http://www.w3.org/1999/xlink" width="256px" height="256px" viewBox="0 0 256 256" version="1.1">
<g id="surface1">
<path style=" stroke:none;fill-rule:nonzero;fill:rgb(76.862745%,56.470588%,36.862745%);fill-opacity:1;" d="M 16.25 32 C 11.726562 32.4375 7.914062 36.710938 8 41.25 L 8 214.75 C 7.9375 219.601562 12.398438 224.0625 17.25 224 L 238.75 224 C 243.601562 224.0625 248.0625 219.601562 248 214.75 L 248 57.25 C 248.0625 52.398438 243.601562 47.9375 238.75 48 L 152 48 L 152 41.25 C 152.0625 36.476562 147.773438 32.085938 143 32 L 17.25 32 C 16.914062 31.976562 16.585938 31.976562 16.25 32 Z M 102 88 L 112 88 L 112 96 L 104 96 L 104 104 L 96 104 L 96 94 C 96 88.226562 102 88 102 88 Z M 120 88 L 136 88 L 136 96 L 120 96 Z M 144 88 L 154 88 C 154 88 160 88 160 94 L 160 104 L 152 104 L 152 96 L 144 96 Z M 96 112 L 104 112 L 104 152 L 96 152 Z M 152 112 L 160 112 L 160 152 L 152 152 Z M 96 160 L 104 160 L 104 168 L 112 168 L 112 176 L 102 176 C 102 176 96 176 96 170 Z M 152 160 L 160 160 L 160 170 C 158.898438 175.898438 154 176 154 176 L 144 176 L 144 168 L 152 168 Z M 120 168 L 136 168 L 136 176 L 120 176 Z M 120 168 "/>
</g>
</svg>
