
<svg xmlns="http://www.w3.org/2000/svg" xmlns:xlink="http://www.w3.org/1999/xlink" width="256px" height="256px" viewBox="0 0 256 256" version="1.1">
<g id="surface1">
<path style=" stroke:none;fill-rule:nonzero;fill:rgb(76.862745%,56.470588%,36.862745%);fill-opacity:1;" d="M 16.25 32 C 11.726562 32.4375 7.914062 36.710938 8 41.25 L 8 214.75 C 7.9375 219.601562 12.398438 224.0625 17.25 224 L 238.75 224 C 243.601562 224.0625 248.0625 219.601562 248 214.75 L 248 57.25 C 248.0625 52.398438 243.601562 47.9375 238.75 48 L 152 48 L 152 41.25 C 152.0625 36.476562 147.773438 32.085938 143 32 L 17.25 32 C 16.914062 31.976562 16.585938 31.976562 16.25 32 Z M 93 104 L 102.25 113.25 C 109.1875 107.414062 118.210938 104 128 104 C 150.101562 104 168 121.914062 168 144 C 168 166.085938 150.101562 184 128 184 C 105.898438 184 88 166.085938 88 144 C 88 140.539062 88.4375 137.1875 89.25 134 L 99.75 134 C 98.648438 137.125 98 140.476562 98 144 C 98 160.539062 111.414062 174 128 174 C 144.585938 174 158 160.539062 158 144 C 158 127.414062 144.585938 114 128 114 C 121 114 114.625 116.476562 109.5 120.5 L 118 129 L 93 129 Z M 127.5 118.75 C 128.9375 118.601562 130.4375 119.25 131.5 120.25 C 132.5625 121.210938 133.023438 122.5625 133 124 L 133 141 L 143.5 147 C 145.898438 148.375 146.625 151.601562 145.25 154 C 143.875 156.398438 140.9375 157.375 138.5 156 L 126 148.75 C 125.789062 148.664062 125.710938 148.625 125.5 148.5 C 125.375 148.4375 125.335938 148.3125 125.25 148.25 C 125.1875 148.1875 125.023438 148.0625 125 148 C 124.9375 147.976562 124.8125 148.0625 124.75 148 C 124.664062 147.9375 124.585938 147.8125 124.5 147.75 L 124.5 147.5 L 124.25 147.5 L 124 147.25 L 124 147 C 123.9375 146.914062 123.8125 146.835938 123.75 146.75 C 123.039062 145.648438 122.710938 144.289062 123 143 L 123 124 C 122.9375 121.625 124.648438 119.523438 127 119 C 127.210938 118.9375 127.289062 118.773438 127.5 118.75 Z M 127.5 118.75 "/>
</g>
</svg>
