
<svg xmlns="http://www.w3.org/2000/svg" xmlns:xlink="http://www.w3.org/1999/xlink" width="256px" height="256px" viewBox="0 0 256 256" version="1.1">
<g id="surface1">
<path style=" stroke:none;fill-rule:nonzero;fill:rgb(76.862745%,56.470588%,36.862745%);fill-opacity:1;" d="M 16.25 32 C 11.726562 32.4375 7.914062 36.710938 8 41.25 L 8 214.75 C 7.9375 219.601562 12.398438 224.0625 17.25 224 L 238.75 224 C 243.601562 224.0625 248.0625 219.601562 248 214.75 L 248 57.25 C 248.0625 52.398438 243.601562 47.9375 238.75 48 L 152 48 L 152 41.25 C 152.0625 36.476562 147.773438 32.085938 143 32 L 17.25 32 C 16.914062 31.976562 16.585938 31.976562 16.25 32 Z M 155.25 100 C 156.226562 100.125 157.085938 100.460938 158 101 C 161.664062 103.125 163.125 108.039062 161 111.75 C 158.875 115.460938 154.164062 116.648438 150.5 114.5 C 146.835938 112.375 145.625 107.710938 147.75 104 C 149.335938 101.210938 152.289062 99.625 155.25 100 Z M 134.75 108.25 C 137.8125 108.25 140.914062 108.710938 143.75 109.5 C 144.25 112.625 146.101562 115.539062 149 117.25 C 151.914062 118.960938 155.101562 119.101562 158 118 C 163.6875 123.648438 167.476562 131.1875 168 139.75 L 157 140 C 156 128.414062 146.460938 119.25 134.75 119.25 C 131.351562 119.25 128.125 120.148438 125.25 121.5 L 120 111.75 C 124.4375 109.539062 129.414062 108.25 134.75 108.25 Z M 116.25 114 L 121.75 123.5 C 115.976562 127.601562 112.25 134.3125 112.25 142 C 112.25 149.648438 115.976562 156.398438 121.75 160.5 L 116.25 170 C 109.539062 165.460938 104.5625 158.625 102.5 150.5 C 104.898438 148.476562 106.5 145.398438 106.5 142 C 106.5 138.5625 104.898438 135.523438 102.5 133.5 C 104.5625 125.375 109.539062 118.539062 116.25 114 Z M 95.75 134.25 C 100 134.25 103.25 137.6875 103.25 142 C 103.25 146.273438 100 149.75 95.75 149.75 C 91.523438 149.75 88 146.273438 88 142 C 88 137.6875 91.523438 134.25 95.75 134.25 Z M 157 144 L 168 144.25 C 167.476562 152.8125 163.6875 160.351562 158 166 C 155.101562 164.898438 151.914062 165.039062 149 166.75 C 146.101562 168.460938 144.25 171.351562 143.75 174.5 C 140.914062 175.289062 137.8125 175.75 134.75 175.75 C 129.414062 175.75 124.4375 174.460938 120 172.25 L 125.25 162.5 C 128.125 163.851562 131.351562 164.75 134.75 164.75 C 146.460938 164.75 156 155.585938 157 144 Z M 153.25 168.5 C 156.210938 168.125 159.398438 169.460938 161 172.25 C 163.125 175.960938 161.664062 180.875 158 183 C 154.335938 185.148438 149.851562 183.710938 147.75 180 C 145.625 176.289062 146.835938 171.625 150.5 169.5 C 151.414062 168.960938 152.273438 168.625 153.25 168.5 Z M 153.25 168.5 "/>
</g>
</svg>
