
<svg xmlns="http://www.w3.org/2000/svg" xmlns:xlink="http://www.w3.org/1999/xlink" width="192px" height="192px" viewBox="0 0 192 192" version="1.1">
<g id="surface1">
<path style=" stroke:none;fill-rule:nonzero;fill:rgb(76.862745%,56.470588%,36.862745%);fill-opacity:1;" d="M 12.1875 24 C 8.796875 24.328125 5.9375 27.53125 6 30.9375 L 6 161.0625 C 5.953125 164.703125 9.296875 168.046875 12.9375 168 L 179.0625 168 C 182.703125 168.046875 186.046875 164.703125 186 161.0625 L 186 42.9375 C 186.046875 39.296875 182.703125 35.953125 179.0625 36 L 114 36 L 114 30.9375 C 114.046875 27.359375 110.828125 24.0625 107.25 24 L 12.9375 24 C 12.6875 23.984375 12.4375 23.984375 12.1875 24 Z M 69.75 78 L 76.6875 84.9375 C 81.890625 80.5625 88.65625 78 96 78 C 112.578125 78 126 91.4375 126 108 C 126 124.5625 112.578125 138 96 138 C 79.421875 138 66 124.5625 66 108 C 66 105.40625 66.328125 102.890625 66.9375 100.5 L 74.8125 100.5 C 73.984375 102.84375 73.5 105.359375 73.5 108 C 73.5 120.40625 83.5625 130.5 96 130.5 C 108.4375 130.5 118.5 120.40625 118.5 108 C 118.5 95.5625 108.4375 85.5 96 85.5 C 90.75 85.5 85.96875 87.359375 82.125 90.375 L 88.5 96.75 L 69.75 96.75 Z M 95.625 89.0625 C 96.703125 88.953125 97.828125 89.4375 98.625 90.1875 C 99.421875 90.90625 99.765625 91.921875 99.75 93 L 99.75 105.75 L 107.625 110.25 C 109.421875 111.28125 109.96875 113.703125 108.9375 115.5 C 107.90625 117.296875 105.703125 118.03125 103.875 117 L 94.5 111.5625 C 94.34375 111.5 94.28125 111.46875 94.125 111.375 C 94.03125 111.328125 94 111.234375 93.9375 111.1875 C 93.890625 111.140625 93.765625 111.046875 93.75 111 C 93.703125 110.984375 93.609375 111.046875 93.5625 111 C 93.5 110.953125 93.4375 110.859375 93.375 110.8125 L 93.375 110.625 L 93.1875 110.625 L 93 110.4375 L 93 110.25 C 92.953125 110.1875 92.859375 110.125 92.8125 110.0625 C 92.28125 109.234375 92.03125 108.21875 92.25 107.25 L 92.25 93 C 92.203125 91.21875 93.484375 89.640625 95.25 89.25 C 95.40625 89.203125 95.46875 89.078125 95.625 89.0625 Z M 95.625 89.0625 "/>
</g>
</svg>
