
<svg xmlns="http://www.w3.org/2000/svg" xmlns:xlink="http://www.w3.org/1999/xlink" width="192px" height="192px" viewBox="0 0 192 192" version="1.1">
<g id="surface1">
<path style=" stroke:none;fill-rule:nonzero;fill:rgb(76.862745%,56.470588%,36.862745%);fill-opacity:1;" d="M 12.1875 24 C 8.796875 24.328125 5.9375 27.53125 6 30.9375 L 6 161.0625 C 5.953125 164.703125 9.296875 168.046875 12.9375 168 L 179.0625 168 C 182.703125 168.046875 186.046875 164.703125 186 161.0625 L 186 42.9375 C 186.046875 39.296875 182.703125 35.953125 179.0625 36 L 114 36 L 114 30.9375 C 114.046875 27.359375 110.828125 24.0625 107.25 24 L 12.9375 24 C 12.6875 23.984375 12.4375 23.984375 12.1875 24 Z M 116.4375 75 C 117.171875 75.09375 117.8125 75.34375 118.5 75.75 C 121.25 77.34375 122.34375 81.03125 120.75 83.8125 C 119.15625 86.59375 115.625 87.484375 112.875 85.875 C 110.125 84.28125 109.21875 80.78125 110.8125 78 C 112 75.90625 114.21875 74.71875 116.4375 75 Z M 101.0625 81.1875 C 103.359375 81.1875 105.6875 81.53125 107.8125 82.125 C 108.1875 84.46875 109.578125 86.65625 111.75 87.9375 C 113.9375 89.21875 116.328125 89.328125 118.5 88.5 C 122.765625 92.734375 125.609375 98.390625 126 104.8125 L 117.75 105 C 117 96.3125 109.84375 89.4375 101.0625 89.4375 C 98.515625 89.4375 96.09375 90.109375 93.9375 91.125 L 90 83.8125 C 93.328125 82.15625 97.0625 81.1875 101.0625 81.1875 Z M 87.1875 85.5 L 91.3125 92.625 C 86.984375 95.703125 84.1875 100.734375 84.1875 106.5 C 84.1875 112.234375 86.984375 117.296875 91.3125 120.375 L 87.1875 127.5 C 82.15625 124.09375 78.421875 118.96875 76.875 112.875 C 78.671875 111.359375 79.875 109.046875 79.875 106.5 C 79.875 103.921875 78.671875 101.640625 76.875 100.125 C 78.421875 94.03125 82.15625 88.90625 87.1875 85.5 Z M 71.8125 100.6875 C 75 100.6875 77.4375 103.265625 77.4375 106.5 C 77.4375 109.703125 75 112.3125 71.8125 112.3125 C 68.640625 112.3125 66 109.703125 66 106.5 C 66 103.265625 68.640625 100.6875 71.8125 100.6875 Z M 117.75 108 L 126 108.1875 C 125.609375 114.609375 122.765625 120.265625 118.5 124.5 C 116.328125 123.671875 113.9375 123.78125 111.75 125.0625 C 109.578125 126.34375 108.1875 128.515625 107.8125 130.875 C 105.6875 131.46875 103.359375 131.8125 101.0625 131.8125 C 97.0625 131.8125 93.328125 130.84375 90 129.1875 L 93.9375 121.875 C 96.09375 122.890625 98.515625 123.5625 101.0625 123.5625 C 109.84375 123.5625 117 116.6875 117.75 108 Z M 114.9375 126.375 C 117.15625 126.09375 119.546875 127.09375 120.75 129.1875 C 122.34375 131.96875 121.25 135.65625 118.5 137.25 C 115.75 138.859375 112.390625 137.78125 110.8125 135 C 109.21875 132.21875 110.125 128.71875 112.875 127.125 C 113.5625 126.71875 114.203125 126.46875 114.9375 126.375 Z M 114.9375 126.375 "/>
</g>
</svg>
