
<svg xmlns="http://www.w3.org/2000/svg" xmlns:xlink="http://www.w3.org/1999/xlink" width="192px" height="192px" viewBox="0 0 192 192" version="1.1">
<g id="surface1">
<path style=" stroke:none;fill-rule:nonzero;fill:rgb(76.862745%,56.470588%,36.862745%);fill-opacity:1;" d="M 12.1875 24 C 8.796875 24.328125 5.9375 27.53125 6 30.9375 L 6 161.0625 C 5.953125 164.703125 9.296875 168.046875 12.9375 168 L 179.0625 168 C 182.703125 168.046875 186.046875 164.703125 186 161.0625 L 186 42.9375 C 186.046875 39.296875 182.703125 35.953125 179.0625 36 L 114 36 L 114 30.9375 C 114.046875 27.359375 110.828125 24.0625 107.25 24 L 12.9375 24 C 12.6875 23.984375 12.4375 23.984375 12.1875 24 Z M 92.25 72.3125 L 96 72.3125 C 112.546875 72.3125 126 85.78125 126 102.3125 C 126 118.859375 112.546875 132.3125 92.25 132.3125 C 79.453125 132.3125 66 118.859375 66 102.3125 C 66 85.78125 79.453125 72.3125 92.25 72.3125 Z M 92.625 76.625 C 91.453125 76.78125 90.171875 77.078125 89.0625 77.375 L 85.6875 83 C 85.984375 83.046875 86.234375 83.15625 86.625 83.375 C 88.5 84.453125 89.28125 85.3125 89.8125 85.4375 C 90.34375 85.578125 92.859375 82.203125 91.125 85.8125 C 89.390625 89.4375 88.453125 90.640625 86.4375 91.4375 C 86.3125 91.484375 86.1875 91.5625 86.0625 91.625 C 85.546875 92.25 84.875 92.921875 84 93.6875 C 82.109375 95.375 81.1875 95.5625 81.1875 97.25 C 81.1875 98.9375 81.203125 100.25 79.875 102.5 C 78.546875 104.75 77.8125 104.75 78.375 106.4375 C 78.9375 108.125 79.328125 111.125 78.375 109.8125 C 77.421875 108.5 77.8125 105.875 77.0625 107.375 C 76.40625 108.6875 74.75 109.21875 74.625 110.5625 C 74.609375 110.75 74.578125 110.890625 74.625 111.125 C 74.640625 111.171875 74.796875 111.0625 74.8125 111.125 C 75.296875 112.75 78 110.59375 78 111.875 C 78 113.1875 75.5625 113.1875 76.125 114.3125 C 76.6875 115.4375 78.921875 112.0625 80.8125 112.625 C 82.703125 113.1875 81.546875 113.5625 83.25 114.3125 C 84.953125 115.0625 85.875 115.8125 85.875 116.9375 C 85.875 118.0625 91.125 117.5 90.5625 119.375 C 90 121.25 89.453125 120.875 87.75 122.9375 C 86.8125 124.078125 86.046875 124.640625 85.5 125.1875 C 86.265625 125.75 86.46875 126.046875 87.375 125.75 C 88.578125 125.359375 87 124.78125 87.9375 124.25 C 88.171875 124.125 88.359375 124 88.5 123.875 C 88.640625 123.765625 88.78125 123.78125 89.0625 123.6875 C 89.625 123.515625 90.765625 123.3125 93.375 123.3125 C 98.59375 123.3125 101.0625 123.6875 101.0625 123.6875 C 101.0625 123.6875 102.859375 123.5 101.25 124.4375 C 100.078125 125.125 97.609375 126.359375 97.3125 126.6875 C 97.4375 126.671875 97.765625 126.78125 98.0625 126.6875 C 100.46875 126.015625 103.6875 125.453125 104.625 125.1875 C 105.015625 125.078125 107.21875 123.90625 108.9375 123.125 C 109 122.96875 109.046875 122.921875 109.125 122.75 L 108.9375 122.75 C 107.609375 122.1875 106.5 119.578125 106.875 118.8125 C 107.25 118.0625 108.171875 117.328125 109.125 115.4375 C 110.078125 113.546875 109.90625 114.90625 107.25 111.5 C 104.59375 108.09375 103.328125 111.703125 102 110.5625 C 100.671875 109.421875 97.890625 108.53125 96.75 106.4375 C 95.609375 104.359375 96.1875 105.90625 96.1875 103.625 C 96.1875 101.359375 96 103.078125 96.5625 101.1875 C 97.125 99.296875 98.609375 98.953125 100.5 97.625 C 100.765625 97.4375 100.984375 97.390625 101.25 97.25 C 100.828125 96.84375 100.375 96 99.1875 94.8125 C 99.1875 94.8125 100.296875 92.375 101.25 92 C 102.171875 91.640625 102.625 92.015625 103.875 92.375 C 103.921875 92.171875 104 92.09375 104.0625 91.625 C 104.25 90.109375 103.5 90.890625 103.5 89.9375 C 103.5 89 103.859375 89.9375 105.1875 89.5625 C 106.515625 89.1875 106.484375 86.5625 107.8125 86.9375 C 109.140625 87.3125 109.109375 86.390625 110.25 84.6875 C 111.390625 82.984375 110.265625 83.953125 108.75 83.1875 C 107.234375 82.4375 108.5625 84.296875 108.1875 85.625 C 107.8125 86.953125 106.703125 86.21875 105.375 83.375 C 104.046875 80.53125 105.1875 81.71875 105.9375 79.4375 C 106.0625 79.046875 106.3125 78.734375 106.5 78.5 C 104.03125 77.4375 101.234375 76.890625 98.4375 76.625 C 98.421875 76.765625 98.453125 76.671875 98.4375 76.8125 C 98.171875 79.359375 96.71875 77.671875 96.1875 77.9375 C 95.65625 78.203125 92.0625 83.15625 92.0625 82.625 C 92.0625 82.09375 92.8125 81.3125 92.8125 81.3125 C 92.8125 81.3125 93.046875 79.046875 92.625 76.625 Z M 102.9375 86.75 C 103.171875 86.65625 103.3125 86.6875 103.5 86.75 C 104.078125 86.84375 104.53125 87.3125 104.8125 87.875 C 104.96875 88.1875 104.796875 88.375 104.625 88.4375 C 104.625 88.4375 105 89 105 89.1875 C 105 89.375 104.59375 89.421875 103.6875 89.1875 C 103.015625 89.015625 103.421875 88.78125 103.875 88.4375 L 103.125 88.4375 C 102.796875 88.4375 102.640625 88.5 102.5625 88.4375 C 102.984375 88.96875 102.609375 88.671875 102 88.8125 C 101.390625 88.953125 101.90625 88.40625 102.1875 87.875 C 102.1875 87.875 102.484375 88.140625 102.5625 88.25 C 102.6875 88 102.9375 87.421875 102.9375 86.75 Z M 117.75 88.4375 C 116.828125 89.1875 115.6875 90.5 114.75 91.4375 C 113.046875 93.140625 115.671875 93.3125 116.625 93.5 C 117.578125 93.6875 118.484375 93.125 120.375 93.125 C 120.34375 93.03125 120.21875 93.03125 120.1875 92.9375 C 119.9375 92.96875 119.75 93.125 119.4375 93.125 C 118.328125 93.125 118.984375 92.015625 119.25 90.5 C 118.875 89.78125 118.1875 89.125 117.75 88.4375 Z M 105.9375 91.625 C 105.53125 91.5 104.96875 91.96875 104.25 92.375 C 104.765625 93.125 103.203125 95.203125 102.375 96.6875 C 102.34375 96.734375 102.40625 96.8125 102.375 96.875 C 104 96.609375 106.453125 96.96875 112.125 98.375 C 112.125 98.375 114.1875 97.8125 114.5625 98.5625 C 114.703125 98.828125 115.390625 99.0625 116.25 99.125 C 118.546875 98.21875 117.375 97.390625 117.375 95.5625 C 117.375 93.671875 114.5625 95.953125 114.9375 95 C 115.3125 94.0625 114.578125 94.078125 113.25 92.75 C 111.921875 91.421875 112.140625 96.140625 111.1875 95.1875 C 110.234375 94.25 110.25 95.015625 109.875 94.25 C 109.5 93.5 108.1875 92.1875 108.1875 92.1875 C 108.1875 92.1875 109.125 93.296875 108.9375 95.1875 C 108.75 97.078125 106.125 95.375 106.125 95.375 C 106.125 95.375 106.5 95.1875 107.25 95 C 108 94.8125 107.0625 93.703125 106.5 92.375 C 106.359375 92.0625 106.296875 91.875 106.125 91.8125 Z M 121.875 101.1875 C 121.671875 101.34375 121.390625 101.46875 121.125 101.5625 C 119.046875 102.328125 117.75 104 117.75 104 C 117.75 104 120.171875 103.984375 121.875 105.5 C 122 104.46875 121.875 103.375 121.875 102.3125 C 121.875 101.9375 121.890625 101.5625 121.875 101.1875 Z M 121.875 101.1875 "/>
</g>
</svg>
