<?xml version="1.0" encoding="UTF-8" standalone="no"?>
<svg
   xmlns:dc="http://purl.org/dc/elements/1.1/"
   xmlns:cc="http://creativecommons.org/ns#"
   xmlns:rdf="http://www.w3.org/1999/02/22-rdf-syntax-ns#"
   xmlns:svg="http://www.w3.org/2000/svg"
   xmlns="http://www.w3.org/2000/svg"
   xmlns:sodipodi="http://sodipodi.sourceforge.net/DTD/sodipodi-0.dtd"
   xmlns:inkscape="http://www.inkscape.org/namespaces/inkscape"
   width="256"
   height="256"
   viewBox="0 0 256 256"
   id="svg2"
   version="1.1"
   inkscape:version="0.48.5 r10040"
   sodipodi:docname="network-server.svg">
  <metadata
     id="metadata22">
    <rdf:RDF>
      <cc:Work
         rdf:about="">
        <dc:format>image/svg+xml</dc:format>
        <dc:type
           rdf:resource="http://purl.org/dc/dcmitype/StillImage" />
      </cc:Work>
    </rdf:RDF>
  </metadata>
  <defs
     id="defs20" />
  <sodipodi:namedview
     pagecolor="#ffffff"
     bordercolor="#666666"
     borderopacity="1"
     objecttolerance="10"
     gridtolerance="10"
     guidetolerance="10"
     inkscape:pageopacity="0"
     inkscape:pageshadow="2"
     inkscape:window-width="1280"
     inkscape:window-height="969"
     id="namedview18"
     showgrid="true"
     inkscape:zoom="0.921875"
     inkscape:cx="174.58083"
     inkscape:cy="1.4933263"
     inkscape:window-x="0"
     inkscape:window-y="0"
     inkscape:window-maximized="1"
     inkscape:current-layer="svg2">
    <inkscape:grid
       type="xygrid"
       id="grid2999" />
  </sodipodi:namedview>
  <path
     style="font-size:medium;font-style:normal;font-variant:normal;font-weight:normal;font-stretch:normal;text-indent:0;text-align:start;text-decoration:none;line-height:normal;letter-spacing:normal;word-spacing:normal;text-transform:none;direction:ltr;block-progression:tb;writing-mode:lr-tb;text-anchor:start;baseline-shift:baseline;color:#000000;fill:#777777;fill-opacity:1;fill-rule:nonzero;stroke:none;stroke-width:8;marker:none;visibility:visible;display:inline;overflow:visible;enable-background:accumulate;font-family:Sans;-inkscape-font-specification:Sans"
     d="m 112,183.1562 0,39.71875 32,5e-5 0,-39.71875 z"
     id="path6"
     inkscape:connector-curvature="0"
     sodipodi:nodetypes="ccccc" />
  <path
     style="font-size:medium;font-style:normal;font-variant:normal;font-weight:normal;font-stretch:normal;text-indent:0;text-align:start;text-decoration:none;line-height:normal;letter-spacing:normal;word-spacing:normal;text-transform:none;direction:ltr;block-progression:tb;writing-mode:lr-tb;text-anchor:start;baseline-shift:baseline;color:#000000;fill:#777777;fill-opacity:1;fill-rule:nonzero;stroke:none;stroke-width:8;marker:none;visibility:visible;display:inline;overflow:visible;enable-background:accumulate;font-family:Sans;-inkscape-font-specification:Sans"
     d="m 30,211 c -3,0 -6,3 -6,6 l 0,20 c 0,3 3,6 6,6 l 75.25,0 c 1.52436,0 2.94448,-0.46455 4.125,-1.40625 4.13044,-5.37536 5.26356,-30.34645 -4.125,-30.59375 z m 121.3125,0 c -11.08634,0.60129 -10.05652,31.70891 0,32 L 226,243 c 3,0 6,-3 6,-6 l 0,-20 c 0,-3 -3,-6 -6,-6 z"
     id="path8"
     inkscape:connector-curvature="0"
     sodipodi:nodetypes="sssssccsccssssc" />
  <rect
     style="fill:#dcdcdc;fill-opacity:1;fill-rule:evenodd;stroke:none"
     id="rect3007"
     width="16"
     height="22"
     x="120"
     y="184" />
  <path
     style="font-size:medium;font-style:normal;font-variant:normal;font-weight:normal;font-stretch:normal;text-indent:0;text-align:start;text-decoration:none;line-height:normal;letter-spacing:normal;word-spacing:normal;text-transform:none;direction:ltr;block-progression:tb;writing-mode:lr-tb;text-anchor:start;baseline-shift:baseline;color:#000000;fill:#777777;fill-opacity:1;fill-rule:nonzero;stroke:none;stroke-width:8;marker:none;visibility:visible;display:inline;overflow:visible;enable-background:accumulate;font-family:Sans;-inkscape-font-specification:Sans"
     d="m 102,203 c -3,0 -6,3 -6,6 l 0,36 c 0,3 3,6 6,6 l 52,0 c 3,0 6,-3 6,-6 l 0,-36 c 0,-3 -2.93351,-5.94288 -6,-6 z"
     id="path10"
     inkscape:connector-curvature="0"
     sodipodi:nodetypes="ccccccccc" />
  <rect
     style="fill:#dcdcdc;fill-opacity:1;fill-rule:evenodd;stroke:none"
     id="rect3001"
     width="64"
     height="16"
     x="32"
     y="219" />
  <rect
     style="fill:#dcdcdc;fill-opacity:1;fill-rule:evenodd;stroke:none"
     id="rect3003"
     width="48"
     height="32"
     x="104"
     y="211" />
  <rect
     style="fill:#dcdcdc;fill-opacity:1;fill-rule:evenodd;stroke:none"
     id="rect3005"
     width="64"
     height="16"
     x="160"
     y="219" />
  <g
     id="g3900"
     transform="translate(0,-38)">
    <path
       sodipodi:nodetypes="ssccssssscccsss"
       inkscape:connector-curvature="0"
       id="path6-6"
       d="m 46,44 c -5.85566,0 -12,6 -12,12 l 0,4 -12,0 c -5.8804,0 -12,5.98132 -12,12 l 0,142 c 0,8 4,12 12,12 l 212,0 c 6.27046,0 12,-5.43338 12,-12 l 0,-122 c 0,-6.01972 -5.82016,-12 -12,-12 l -12,0 0,-24 c 0,-5.84462 -5.81288,-12 -12,-12 z"
       style="fill:#e9b080;fill-opacity:1;stroke:none" />
    <path
       id="path3778"
       d="m 46,44 c -5.85566,0 -12,6 -12,12 l 0,4 -12,0 c -5.8804,0 -12,5.98132 -12,12 l 0,142 c 0,8 4,12 12,12 l 212,0 c 6.27046,0 12,-5.43338 12,-12 l 0,-122 c 0,-6.01972 -5.8485,-12.591207 -12,-12 l -12,0 0,-24 c 0,-5.84462 -5.81288,-12 -12,-12 z m -24,24 136,0 c 2.3607,0 4,2.05908 4,4 l 0,16 72,0 c 2.0222,0 4,2.03496 4,4 l 0,122 c 0,2.08516 -1.91506,4 -4,4 l -212,0 c -1.85718,0 -4,-1.58538 -4,-4 L 18,72 c 0,-1.96962 2.06612,-4 4,-4 z"
       style="fill:#000000;fill-opacity:0.32156863;stroke:none"
       inkscape:connector-curvature="0"
       sodipodi:nodetypes="sscsssssssscsssssscssssssss" />
  </g>
</svg>
