
<svg xmlns="http://www.w3.org/2000/svg" xmlns:xlink="http://www.w3.org/1999/xlink" width="192px" height="192px" viewBox="0 0 192 192" version="1.1">
<g id="surface1">
<path style=" stroke:none;fill-rule:nonzero;fill:rgb(76.862745%,56.470588%,36.862745%);fill-opacity:1;" d="M 19.265625 18.03125 C 15.9375 18.640625 12 22.328125 12 25.71875 L 12 72 L 180 72 L 180 49.21875 C 179.9375 45.46875 176.546875 42.078125 172.796875 42.015625 L 108 42.015625 L 108 25.640625 C 107.9375 21.890625 103.59375 18.078125 99.84375 18.03125 L 25.40625 18.03125 C 25 18 19.671875 18 19.265625 18.03125 Z M 36 42.015625 L 48 42.015625 L 48 60 L 36 60 Z M 12 84 L 12 120 L 180 120 L 180 84 Z M 36 96 L 48 96 L 48 108 L 36 108 Z M 12 132 L 12 166.796875 C 12.0625 170.546875 15.453125 173.9375 19.203125 174 L 172.796875 174 C 176.546875 173.9375 179.9375 170.546875 180 166.796875 L 180 132 Z M 36 144 L 48 144 L 48 162 L 36 162 Z M 36 144 "/>
</g>
</svg>
