<?xml version="1.0" encoding="UTF-8" standalone="no"?>
<!-- Created with Inkscape (http://www.inkscape.org/) -->

<svg
   xmlns:dc="http://purl.org/dc/elements/1.1/"
   xmlns:cc="http://creativecommons.org/ns#"
   xmlns:rdf="http://www.w3.org/1999/02/22-rdf-syntax-ns#"
   xmlns:svg="http://www.w3.org/2000/svg"
   xmlns="http://www.w3.org/2000/svg"
   xmlns:xlink="http://www.w3.org/1999/xlink"
   xmlns:sodipodi="http://sodipodi.sourceforge.net/DTD/sodipodi-0.dtd"
   xmlns:inkscape="http://www.inkscape.org/namespaces/inkscape"
   width="128"
   height="128"
   id="svg2"
   version="1.1"
   inkscape:version="0.48.5 r10040"
   sodipodi:docname="orange-folder-hdd.svg"
   inkscape:export-filename="/media/Data/Main/Visuals/Icons/Numix/Desktop/repos/numix-wiki/Gjorgi/Numix-folders/48/New/folder-144.png"
   inkscape:export-xdpi="270"
   inkscape:export-ydpi="270">
  <defs
     id="defs4">
    <linearGradient
       inkscape:collect="always"
       id="linearGradient3958">
      <stop
         style="stop-color:#000000;stop-opacity:1;"
         offset="0"
         id="stop3960" />
      <stop
         style="stop-color:#000000;stop-opacity:0;"
         offset="1"
         id="stop3962" />
    </linearGradient>
    <radialGradient
       inkscape:collect="always"
       xlink:href="#linearGradient3958"
       id="radialGradient3964"
       cx="32.5"
       cy="56.5"
       fx="32.5"
       fy="56.5"
       r="33.5"
       gradientTransform="matrix(1,0,0,0.10447761,0,50.597015)"
       gradientUnits="userSpaceOnUse" />
  </defs>
  <sodipodi:namedview
     id="base"
     pagecolor="#ffffff"
     bordercolor="#666666"
     borderopacity="1.0"
     inkscape:pageopacity="0.0"
     inkscape:pageshadow="2"
     inkscape:zoom="3.7303676"
     inkscape:cx="20.149953"
     inkscape:cy="68.528446"
     inkscape:document-units="px"
     inkscape:current-layer="layer1"
     showgrid="true"
     inkscape:window-width="1280"
     inkscape:window-height="998"
     inkscape:window-x="0"
     inkscape:window-y="0"
     inkscape:window-maximized="1"
     showguides="true"
     inkscape:guide-bbox="true">
    <inkscape:grid
       type="xygrid"
       id="grid2985"
       empspacing="5"
       visible="true"
       enabled="true"
       snapvisiblegridlinesonly="true" />
  </sodipodi:namedview>
  <metadata
     id="metadata7">
    <rdf:RDF>
      <cc:Work
         rdf:about="">
        <dc:format>image/svg+xml</dc:format>
        <dc:type
           rdf:resource="http://purl.org/dc/dcmitype/StillImage" />
        <dc:title />
      </cc:Work>
    </rdf:RDF>
  </metadata>
  <g
     inkscape:label="Layer 1"
     inkscape:groupmode="layer"
     id="layer1"
     transform="translate(0,-924.3622)">
    <path
       style="fill:#5d4037;fill-opacity:1;stroke:none"
       d="m 16,944.3623 94,0 c 4,0 6,1.9994 6,5.99836 l 0,13.99636 c 0,2.2154 -1.8948,1.9994 -4,1.9994 l -96,0 c -2.1052,0 -4,-1.7836 -4,-3.999 l 0,-17.99512 z"
       id="path3811"
       inkscape:connector-curvature="0"
       sodipodi:nodetypes="csssssscc" />
    <path
       style="opacity:0.02999998;fill:#000000;fill-opacity:1;stroke:none"
       d="m 12,956.36246 0,9.99976 104,0 0,-9.99976 z"
       id="path3807"
       inkscape:connector-curvature="0" />
    <path
       style="fill:#5d4037;fill-opacity:1;stroke:none"
       d="m 12,952.36226 0,-9.99992 c 0,-4 1.818182,-6 3.636364,-6 l 20.727272,0 c 1.818182,0 3.636364,2 3.636364,6 l 0,9.99992 z"
       id="rect3760"
       inkscape:connector-curvature="0"
       sodipodi:nodetypes="csssscc" />
    <rect
       style="fill:#8d6e63;fill-opacity:1;stroke:none"
       id="rect2990"
       width="120"
       height="80"
       x="4"
       y="960.36218"
       rx="8"
       ry="6.6666665" />
    <path
       style="opacity:0.1;fill:#ffffff;fill-opacity:1;stroke:none"
       d="m 12,960.36222 c -4.432,0 -8,2.9942 -8,6.6876 l 0,4 c 0,-3.6934 3.568,-6.6876 8,-6.6876 l 104,0 c 4.432,0 8,2.9942 8,6.6876 l 0,-4 c 0,-3.6934 -3.568,-6.6876 -8,-6.6876 l -104,0 z"
       id="rect3004"
       inkscape:connector-curvature="0" />
    <path
       style="opacity:0.05;fill:#000000;fill-opacity:1;stroke:none"
       d="m 40,944.3623 0,3.99996 4,0 66,0 c 4,0 6,2.001 6,6 l 0,-4 c 0,-3.99896 -2,-5.99996 -6,-5.99996 l -66,0 z"
       id="path3781"
       inkscape:connector-curvature="0"
       sodipodi:nodetypes="cccscsscc" />
    <path
       style="opacity:0.05;fill:#000000;fill-opacity:1;stroke:none"
       d="m 15.625,936.3623 c -1.818182,0 -3.625,2 -3.625,6 l 0,4 c 0,-4 1.806818,-6 3.625,-6 l 20.75,0 c 1.818182,0 3.625,2 3.625,6 l 0,-4 c 0,-4 -1.806818,-6 -3.625,-6 l -20.75,0 z"
       id="path3801"
       inkscape:connector-curvature="0" />
    <path
       style="fill:#634b43;fill-opacity:1;stroke:none;opacity:1.0"
       d="m 48,976.36222 c -2.84914,0 -4,1.3408 -4,4 l 0,39.99998 c 0,2.6592 1.15086,4 4,4 l 30.875,0 c 2.849144,0 5.125,-1.3408 5.125,-4 l 0,-39.99998 c 0,-2.6592 -1.150856,-4 -4,-4 l -32,0 z m 3,4 c 1.656854,0 3,1.3432 3,3 0,1.6568 -1.343146,3 -3,3 -1.656854,0 -3,-1.3432 -3,-3 0,-1.6568 1.343146,-3 3,-3 z m 26,0 c 1.656854,0 3,1.3432 3,3 0,1.6568 -1.343146,3 -3,3 -1.656854,0 -3,-1.3432 -3,-3 0,-1.6568 1.343146,-3 3,-3 z m -13,4 c 4.418276,0 8,3.5816 8,8 0,4.4184 -3.581724,7.99998 -8,7.99998 -4.418276,0 -8,-3.58158 -8,-7.99998 0,-4.4184 3.581724,-8 8,-8 z m -13,14 c 1.656854,0 3,1.3432 3,2.99998 0,1.6568 -1.343146,3 -3,3 -1.656854,0 -3,-1.3432 -3,-3 0,-1.65678 1.343146,-2.99998 3,-2.99998 z m 26,0 c 1.656854,0 3,1.3432 3,2.99998 0,1.6568 -1.343146,3 -3,3 -1.656854,0 -3,-1.3432 -3,-3 0,-1.65678 1.343146,-2.99998 3,-2.99998 z m -27,17.99998 28,0 c 1.108,0 2,0.892 2,2 0,1.108 -0.892,2 -2,2 l -28,0 c -1.108,0 -2,-0.892 -2,-2 0,-1.108 0.892,-2 2,-2 z"
       id="rect3828"
       inkscape:connector-curvature="0" />
    <path
       sodipodi:type="arc"
       style="fill:#634b43;fill-opacity:1;fill-rule:evenodd;stroke:none;opacity:1.0"
       id="path2995"
       sodipodi:cx="32"
       sodipodi:cy="34"
       sodipodi:rx="2"
       sodipodi:ry="2"
       d="m 34,34 c 0,1.104569 -0.895431,2 -2,2 -1.104569,0 -2,-0.895431 -2,-2 0,-1.104569 0.895431,-2 2,-2 1.104569,0 2,0.895431 2,2 z"
       transform="matrix(2,0,0,2,0,924.36226)" />
  </g>
</svg>
