<?xml version="1.0" encoding="UTF-8" standalone="no"?>
<!-- Created with Inkscape (http://www.inkscape.org/) -->

<svg
   xmlns:dc="http://purl.org/dc/elements/1.1/"
   xmlns:cc="http://creativecommons.org/ns#"
   xmlns:rdf="http://www.w3.org/1999/02/22-rdf-syntax-ns#"
   xmlns:svg="http://www.w3.org/2000/svg"
   xmlns="http://www.w3.org/2000/svg"
   xmlns:sodipodi="http://sodipodi.sourceforge.net/DTD/sodipodi-0.dtd"
   xmlns:inkscape="http://www.inkscape.org/namespaces/inkscape"
   width="128"
   height="128"
   id="svg2"
   version="1.1"
   inkscape:version="0.91 r"
   sodipodi:docname="brown-folder-art.svg"
   inkscape:export-filename="/media/Data/Main/Visuals/Icons/Numix/Desktop/repos/numix-wiki/Gjorgi/Numix-folders/48/New/folder-144.png"
   inkscape:export-xdpi="270"
   inkscape:export-ydpi="270">
  <defs
     id="defs4" />
  <sodipodi:namedview
     id="base"
     pagecolor="#ffffff"
     bordercolor="#666666"
     borderopacity="1.0"
     inkscape:pageopacity="0.0"
     inkscape:pageshadow="2"
     inkscape:zoom="5.2755365"
     inkscape:cx="21.408902"
     inkscape:cy="46.038255"
     inkscape:document-units="px"
     inkscape:current-layer="layer1"
     showgrid="true"
     inkscape:window-width="1280"
     inkscape:window-height="998"
     inkscape:window-x="0"
     inkscape:window-y="0"
     inkscape:window-maximized="1"
     showguides="true"
     inkscape:guide-bbox="true">
    <inkscape:grid
       type="xygrid"
       id="grid2985"
       empspacing="5"
       visible="true"
       enabled="true"
       snapvisiblegridlinesonly="true" />
  </sodipodi:namedview>
  <metadata
     id="metadata7">
    <rdf:RDF>
      <cc:Work
         rdf:about="">
        <dc:format>image/svg+xml</dc:format>
        <dc:type
           rdf:resource="http://purl.org/dc/dcmitype/StillImage" />
        <dc:title />
      </cc:Work>
    </rdf:RDF>
  </metadata>
  <g
     inkscape:label="Layer 1"
     inkscape:groupmode="layer"
     id="layer1"
     transform="translate(0,-924.3622)">
    <path
       style="fill:#5d4037;fill-opacity:1;stroke:none"
       d="m 16,944.3623 94,0 c 4,0 6,1.9994 6,5.99836 l 0,13.99636 c 0,2.2154 -1.8948,1.9994 -4,1.9994 l -96,0 c -2.1052,0 -4,-1.7836 -4,-3.999 l 0,-17.99512 z"
       id="path3811"
       inkscape:connector-curvature="0"
       sodipodi:nodetypes="csssssscc" />
    <path
       style="opacity:0.02999998;fill:#000000;fill-opacity:1;stroke:none"
       d="m 12,956.36246 0,9.99976 104,0 0,-9.99976 z"
       id="path3807"
       inkscape:connector-curvature="0" />
    <path
       style="fill:#5d4037;fill-opacity:1;stroke:none"
       d="m 12,952.36226 0,-9.99996 c 0,-4 1.818182,-6 3.636364,-6 l 20.727272,0 c 1.818182,0 3.636364,2 3.636364,6 l 0,9.99996 z"
       id="rect3760"
       inkscape:connector-curvature="0"
       sodipodi:nodetypes="csssscc" />
    <rect
       style="fill:#8d6e63;fill-opacity:1;stroke:none"
       id="rect2990"
       width="120"
       height="80"
       x="4"
       y="960.36218"
       rx="8"
       ry="6.6666665" />
    <path
       style="opacity:0.1;fill:#ffffff;fill-opacity:1;stroke:none"
       d="m 12,960.36222 c -4.432,0 -8,2.9942 -8,6.6876 l 0,4 c 0,-3.6934 3.568,-6.6876 8,-6.6876 l 104,0 c 4.432,0 8,2.9942 8,6.6876 l 0,-4 c 0,-3.6934 -3.568,-6.6876 -8,-6.6876 l -104,0 z"
       id="rect3004"
       inkscape:connector-curvature="0" />
    <path
       style="opacity:0.05;fill:#000000;fill-opacity:1;stroke:none"
       d="m 40,944.3623 0,3.99996 4,0 66,0 c 4,0 6,2.001 6,6 l 0,-4 c 0,-3.99896 -2,-5.99996 -6,-5.99996 l -66,0 z"
       id="path3781"
       inkscape:connector-curvature="0"
       sodipodi:nodetypes="cccscsscc" />
    <path
       style="opacity:0.05;fill:#000000;fill-opacity:1;stroke:none"
       d="m 15.625,936.3623 c -1.818182,0 -3.625,2 -3.625,6 l 0,4 c 0,-4 1.806818,-6 3.625,-6 l 20.75,0 c 1.818182,0 3.625,2 3.625,6 l 0,-4 c 0,-4 -1.806818,-6 -3.625,-6 l -20.75,0 z"
       id="path3801"
       inkscape:connector-curvature="0" />
    <path
       style="fill:#634b43;fill-opacity:1;stroke:none;opacity:1.0"
       d="m 61,982.36222 c -11.981592,0.28 -21,8.6792 -21,17.25 0,8.57158 6,8.49998 9,8.49998 3,0 6,-0.092 6,5.625 0,5.7136 3,8.625 9,8.625 21,0 24,-14.286 24,-20 0,-8.57078 -9,-19.99998 -27,-19.99998 z m -6,4 c 1.656854,0 3,1.3432 3,3 0,1.6568 -1.343146,3 -3,3 -1.656854,0 -3,-1.3432 -3,-3 0,-1.6568 1.343146,-3 3,-3 z m 12,0 c 1.656854,0 3,1.3432 3,3 0,1.6568 -1.343146,3 -3,3 -1.656854,0 -3,-1.3432 -3,-3 0,-1.6568 1.343146,-3 3,-3 z m 12,8 c 1.656854,0 3,1.3432 3,3 0,1.6568 -1.343146,2.99998 -3,2.99998 -1.656854,0 -3,-1.34318 -3,-2.99998 0,-1.6568 1.343146,-3 3,-3 z m -32,2 c 1.656854,0 3,1.3432 3,3 0,1.65678 -1.343146,2.99998 -3,2.99998 -1.656854,0 -3,-1.3432 -3,-2.99998 0,-1.6568 1.343146,-3 3,-3 z m 18,11.99998 c 2.761424,0 5,2.2386 5,5 0,2.7614 -2.238576,5 -5,5 -2.761424,0 -5,-2.2386 -5,-5 0,-2.7614 2.238576,-5 5,-5 z"
       id="path3843"
       inkscape:connector-curvature="0" />
  </g>
</svg>
