<?xml version="1.0" encoding="UTF-8" standalone="no"?>
<!-- Created with Inkscape (http://www.inkscape.org/) -->

<svg
   xmlns:dc="http://purl.org/dc/elements/1.1/"
   xmlns:cc="http://creativecommons.org/ns#"
   xmlns:rdf="http://www.w3.org/1999/02/22-rdf-syntax-ns#"
   xmlns:svg="http://www.w3.org/2000/svg"
   xmlns="http://www.w3.org/2000/svg"
   xmlns:sodipodi="http://sodipodi.sourceforge.net/DTD/sodipodi-0.dtd"
   xmlns:inkscape="http://www.inkscape.org/namespaces/inkscape"
   width="128"
   height="128"
   id="svg2"
   version="1.1"
   inkscape:version="0.48.5 r10040"
   sodipodi:docname="orange-folder-download.svg"
   inkscape:export-filename="/media/Data/Main/Visuals/Icons/Numix/Desktop/repos/numix-wiki/Gjorgi/Numix-folders/48/New/folder-144.png"
   inkscape:export-xdpi="270"
   inkscape:export-ydpi="270">
  <defs
     id="defs4" />
  <sodipodi:namedview
     id="base"
     pagecolor="#ffffff"
     bordercolor="#666666"
     borderopacity="1.0"
     inkscape:pageopacity="0.0"
     inkscape:pageshadow="2"
     inkscape:zoom="4.5925493"
     inkscape:cx="25.309039"
     inkscape:cy="48.026501"
     inkscape:document-units="px"
     inkscape:current-layer="layer1"
     showgrid="true"
     inkscape:window-width="1280"
     inkscape:window-height="998"
     inkscape:window-x="0"
     inkscape:window-y="0"
     inkscape:window-maximized="1"
     showguides="true"
     inkscape:guide-bbox="true">
    <inkscape:grid
       type="xygrid"
       id="grid2985"
       empspacing="5"
       visible="true"
       enabled="true"
       snapvisiblegridlinesonly="true" />
  </sodipodi:namedview>
  <metadata
     id="metadata7">
    <rdf:RDF>
      <cc:Work
         rdf:about="">
        <dc:format>image/svg+xml</dc:format>
        <dc:type
           rdf:resource="http://purl.org/dc/dcmitype/StillImage" />
        <dc:title />
      </cc:Work>
    </rdf:RDF>
  </metadata>
  <g
     inkscape:label="Layer 1"
     inkscape:groupmode="layer"
     id="layer1"
     transform="translate(0,-924.3622)">
    <path
       style="fill:#757575;fill-opacity:1;stroke:none"
       d="m 16,944.36222 94,0 c 4,0 6,1.9995 6,5.99842 l 0,13.9964 c 0,2.2154 -1.8948,1.9994 -4,1.9994 l -96,0 c -2.1052,0 -4,-1.7836 -4,-3.999 l 0,-17.99522 z"
       id="path3811"
       inkscape:connector-curvature="0"
       sodipodi:nodetypes="csssssscc" />
    <path
       style="opacity:0.02999998;fill:#000000;fill-opacity:1;stroke:none"
       d="m 12,956.36244 0,9.9998 104,0 0,-9.9998 z"
       id="path3807"
       inkscape:connector-curvature="0" />
    <path
       style="fill:#757575;fill-opacity:1;stroke:none"
       d="m 12,952.36224 0,-9.99996 c 0,-4 1.818182,-6 3.636364,-6 l 20.727272,0 c 1.818182,0 3.636364,2 3.636364,6 l 0,9.99996 z"
       id="rect3760"
       inkscape:connector-curvature="0"
       sodipodi:nodetypes="csssscc" />
    <rect
       style="fill:#bdbdbd;fill-opacity:1;stroke:none"
       id="rect2990"
       width="120"
       height="80"
       x="4"
       y="960.36218"
       rx="8"
       ry="6.6666665" />
    <path
       style="opacity:0.1;fill:#ffffff;fill-opacity:1;stroke:none"
       d="m 12,960.36224 c -4.432,0 -8,2.99416 -8,6.6875 l 0,4 c 0,-3.69334 3.568,-6.6875 8,-6.6875 l 104,0 c 4.432,0 8,2.99416 8,6.6875 l 0,-4 c 0,-3.69334 -3.568,-6.6875 -8,-6.6875 l -104,0 z"
       id="rect3004"
       inkscape:connector-curvature="0" />
    <path
       style="opacity:0.05;fill:#000000;fill-opacity:1;stroke:none"
       d="m 40,944.36224 0,4 4,0 66,0 c 4,0 6,2.001 6,6 l 0,-4 c 0,-3.99892 -2,-6 -6,-6 l -66,0 z"
       id="path3781"
       inkscape:connector-curvature="0"
       sodipodi:nodetypes="cccscsscc" />
    <path
       style="opacity:0.05;fill:#000000;fill-opacity:1;stroke:none"
       d="m 15.625,936.36224 c -1.818182,0 -3.625,2 -3.625,6 l 0,4 c 0,-4 1.806818,-6 3.625,-6 l 20.75,0 c 1.818182,0 3.625,2 3.625,6 l 0,-4 c 0,-4 -1.806818,-6 -3.625,-6 l -20.75,0 z"
       id="path3801"
       inkscape:connector-curvature="0" />
    <path
       style="opacity:1.0;fill:#7f7f7f;fill-opacity:1;stroke:none"
       d="M 64 50 C 61.784 50 60 51.784 60 54 L 60 74 L 52 74 C 48 74 48 74 52 78 L 60 86 C 64 90 64 90 68 86 L 76 78 C 80 74 80 74 76 74 L 68 74 L 68 54 C 68 51.784 66.216 50 64 50 z M 39.84375 78 C 37.706522 78 36 79.784 36 82 L 36 97.8125 L 36 98 L 36 98.1875 C 36 98.303204 36.020754 98.418231 36.03125 98.53125 C 36.046034 98.647303 36.069649 98.762364 36.09375 98.875 C 36.099322 98.904642 36.087467 98.939354 36.09375 98.96875 C 36.194892 99.441988 36.390307 99.859023 36.65625 100.25 C 36.77109 100.41883 36.89055 100.5699 37.03125 100.71875 C 37.065799 100.75753 37.089005 100.80643 37.125 100.84375 C 37.172629 100.89018 37.231187 100.92469 37.28125 100.96875 C 37.414438 101.0931 37.538386 101.20822 37.6875 101.3125 C 37.706498 101.32517 37.73076 101.33139 37.75 101.34375 C 38.146348 101.6104 38.6138 101.80493 39.09375 101.90625 C 39.255294 101.9416 39.425256 101.95255 39.59375 101.96875 C 39.68126 101.97485 39.754699 102 39.84375 102 C 39.896194 102.00192 39.947044 102 40 102 L 40.15625 102 L 87.84375 102 L 88 102 C 88.1385 102 88.271455 101.98171 88.40625 101.96875 C 88.574744 101.95255 88.744706 101.9416 88.90625 101.90625 C 89.3862 101.80493 89.853652 101.6104 90.25 101.34375 C 90.418808 101.23529 90.569738 101.09989 90.71875 100.96875 C 90.757805 100.93229 90.806173 100.91307 90.84375 100.875 C 90.849676 100.86935 90.837861 100.84943 90.84375 100.84375 C 90.849501 100.83786 90.869284 100.84968 90.875 100.84375 C 90.913075 100.80663 90.932288 100.75733 90.96875 100.71875 C 91.086389 100.58672 91.212773 100.46019 91.3125 100.3125 C 91.326215 100.29313 91.330402 100.26962 91.34375 100.25 C 91.609693 99.859023 91.805108 99.441988 91.90625 98.96875 C 91.936072 98.829216 91.955309 98.67598 91.96875 98.53125 C 91.983159 98.418142 91.994833 98.303447 92 98.1875 L 92 97.8125 L 92 82 C 92 79.784 90.293478 78 88.15625 78 L 87.84375 78 C 85.706522 78 84 79.784 84 82 L 84 94 L 44 94 L 44 82 C 44 79.784 42.293478 78 40.15625 78 L 39.84375 78 z "
       transform="translate(0,924.3622)"
       id="rect2989-7" />
  </g>
</svg>
