<?xml version="1.0" encoding="UTF-8" standalone="no"?>
<svg
   xmlns:dc="http://purl.org/dc/elements/1.1/"
   xmlns:cc="http://creativecommons.org/ns#"
   xmlns:rdf="http://www.w3.org/1999/02/22-rdf-syntax-ns#"
   xmlns:svg="http://www.w3.org/2000/svg"
   xmlns="http://www.w3.org/2000/svg"
   xmlns:sodipodi="http://sodipodi.sourceforge.net/DTD/sodipodi-0.dtd"
   xmlns:inkscape="http://www.inkscape.org/namespaces/inkscape"
   viewBox="0 0 16 16"
   id="svg2"
   version="1.1"
   inkscape:version="0.91 r13725"
   sodipodi:docname="blue-folder-move.svg">
  <metadata
     id="metadata28">
    <rdf:RDF>
      <cc:Work
         rdf:about="">
        <dc:format>image/svg+xml</dc:format>
        <dc:type
           rdf:resource="http://purl.org/dc/dcmitype/StillImage" />
      </cc:Work>
    </rdf:RDF>
  </metadata>
  <defs
     id="defs26" />
  <sodipodi:namedview
     pagecolor="#ffffff"
     bordercolor="#666666"
     borderopacity="1"
     objecttolerance="10"
     gridtolerance="10"
     guidetolerance="10"
     inkscape:pageopacity="0"
     inkscape:pageshadow="2"
     inkscape:window-width="722"
     inkscape:window-height="480"
     id="namedview24"
     showgrid="false"
     inkscape:zoom="10.429825"
     inkscape:cx="7.206775"
     inkscape:cy="7.3865583"
     inkscape:window-x="10"
     inkscape:window-y="34"
     inkscape:window-maximized="0"
     inkscape:current-layer="svg2" />
  <rect
     ry="1.094"
     rx="0.97799999"
     y="2.9977853"
     x="1"
     height="6"
     width="9"
     style="fill:replacecolour2;fill-opacity:1;stroke:none"
     id="rect8" />
  <path
     d="M 1.978,2.9978 C 1.436,2.9978 1,3.5548 1,4.2478 l 0,1 c 0,-0.693 0.436,-1.25 0.978,-1.25 l 7.04,0 c 0.542,0 0.978,0.557 0.978,1.25 l 0,-1 c 0,-0.693 -0.436,-1.25 -0.978,-1.25 z"
     style="opacity:0.1;fill:#ffffff;fill-opacity:1;stroke:none"
     id="path10"
     inkscape:connector-curvature="0" />
  <path
     d="m 1.978,4.4978 1.565,0 c 2.152,-0.222 1.761,-2.5 3.13,-2.5 l 2.348,0 c 0.542,0 0.978,0.496 0.978,1.111 l 0,4.778 c 0,0.616 -0.436,1.111 -0.978,1.111 l -7.04,0 c -0.542,0 -0.978,-0.496 -0.978,-1.111 l 0,-2.111 c 0,-0.667 0.391,-1.278 0.978,-1.278 z"
     style="fill:replacecolour1;fill-opacity:1;stroke:none"
     id="path12"
     inkscape:connector-curvature="0" />
  <path
     d="m 1,6.9478 0,0.945 c 0,0.616 0.436,1.111 0.978,1.111 l 7.04,0 c 0.542,0 0.978,-0.496 0.978,-1.111 l 0,-0.945 c 0,0.616 -0.436,1.056 -0.978,1.056 l -7.04,0 C 1.436,8.0038 1,7.5638 1,6.9478 Z"
     style="opacity:0.075;fill:#000000;fill-opacity:1;stroke:none"
     id="path14"
     inkscape:connector-curvature="0" />
  <path
     style="fill:#ffffff;fill-opacity:1;stroke:none;opacity:0.5"
     d="M 6.6738281 1.9980469 C 6.0547685 1.9980469 5.7932576 2.4671727 5.4960938 2.9980469 L 1.9785156 2.9980469 C 1.8686842 2.9980469 1.7643956 3.026118 1.6660156 3.0683594 C 1.2800659 3.2146214 1 3.6094233 1 4.0917969 L 1 4.2480469 L 1 5.2480469 L 1 6.9472656 L 1 7.8925781 L 1 7.9042969 C 1 8.0544689 1.027642 8.1961324 1.0761719 8.3261719 C 1.1092775 8.4148808 1.1630909 8.4875631 1.2148438 8.5625 C 1.2403169 8.5993846 1.2557425 8.6448319 1.2851562 8.6777344 C 1.4619899 8.879211 1.7069609 9.0039062 1.9785156 9.0039062 L 9.0175781 9.0039062 C 9.1549788 9.0039062 9.2858968 8.969719 9.4042969 8.9121094 C 9.4601351 8.8857782 9.5028087 8.8377291 9.5527344 8.8007812 C 9.6059944 8.7603076 9.6658202 8.7309629 9.7109375 8.6796875 C 9.889437 8.4816979 10 8.2090073 10 7.9042969 L 10 4.0917969 C 10 4.0876355 9.9980879 4.0842283 9.9980469 4.0800781 L 9.9980469 3.109375 C 9.9980469 2.494375 9.5634844 1.9980469 9.0214844 1.9980469 L 6.6738281 1.9980469 z "
     id="rect4167" />
  <rect
     id="rect16"
     style="fill:replacecolour2;fill-opacity:1;stroke:none"
     ry="1.094"
     rx="0.97799999"
     y="7.9977856"
     x="5.9780002"
     height="6"
     width="9" />
  <path
     inkscape:connector-curvature="0"
     id="path18"
     style="opacity:0.2;fill:#ffffff;fill-opacity:1;stroke:none"
     d="m 6.957,7.9978 c -0.542,0 -0.978,0.557 -0.978,1.25 l 0,1 c 0,-0.693 0.436,-1.25 0.978,-1.25 l 7.04,0 c 0.542,0 0.978,0.557 0.978,1.25 l 0,-1 c 0,-0.693 -0.436,-1.25 -0.978,-1.25 z" />
  <path
     inkscape:connector-curvature="0"
     id="path20"
     style="fill:replacecolour1;fill-opacity:1;stroke:none"
     d="m 6.957,9.4978 1.565,0 c 2.152,-0.222 1.761,-2.5 3.13,-2.5 l 2.348,0 c 0.542,0 0.978,0.496 0.978,1.111 l 0,4.778 c 0,0.616 -0.436,1.111 -0.978,1.111 l -7.04,0 c -0.542,0 -0.978,-0.496 -0.978,-1.111 l 0,-2.111 c 0,-0.667 0.391,-1.278 0.978,-1.278 z" />
  <path
     inkscape:connector-curvature="0"
     id="path22"
     style="opacity:0.15;fill:#000000;fill-opacity:1;stroke:none"
     d="m 5.978,11.9478 0,0.945 c 0,0.616 0.436,1.111 0.978,1.111 l 7.04,0 c 0.542,0 0.978,-0.496 0.978,-1.111 l 0,-0.945 c 0,0.616 -0.436,1.056 -0.978,1.056 l -7.04,0 c -0.542,0 -0.978,-0.44 -0.978,-1.056 z" />
</svg>
