<?xml version="1.0" encoding="UTF-8" standalone="no"?>
<svg
   xmlns:dc="http://purl.org/dc/elements/1.1/"
   xmlns:cc="http://creativecommons.org/ns#"
   xmlns:rdf="http://www.w3.org/1999/02/22-rdf-syntax-ns#"
   xmlns:svg="http://www.w3.org/2000/svg"
   xmlns="http://www.w3.org/2000/svg"
   xmlns:sodipodi="http://sodipodi.sourceforge.net/DTD/sodipodi-0.dtd"
   xmlns:inkscape="http://www.inkscape.org/namespaces/inkscape"
   width="128px"
   height="128px"
   viewBox="0 0 128 128"
   version="1.1"
   id="svg3037"
   inkscape:version="0.48.5 r10040"
   sodipodi:docname="folder-wine.svg">
  <metadata
     id="metadata3054">
    <rdf:RDF>
      <cc:Work
         rdf:about="">
        <dc:format>image/svg+xml</dc:format>
        <dc:type
           rdf:resource="http://purl.org/dc/dcmitype/StillImage" />
      </cc:Work>
    </rdf:RDF>
  </metadata>
  <defs
     id="defs3052" />
  <sodipodi:namedview
     pagecolor="#ffffff"
     bordercolor="#666666"
     borderopacity="1"
     objecttolerance="10"
     gridtolerance="10"
     guidetolerance="10"
     inkscape:pageopacity="0"
     inkscape:pageshadow="2"
     inkscape:window-width="668"
     inkscape:window-height="480"
     id="namedview3050"
     showgrid="false"
     inkscape:zoom="1.84375"
     inkscape:cx="64"
     inkscape:cy="64"
     inkscape:window-x="0"
     inkscape:window-y="0"
     inkscape:window-maximized="0"
     inkscape:current-layer="svg3037" />
  <path
     inkscape:connector-curvature="0"
     id="path3040"
     d="m 18,16 c -2.929688,0 -6,3.023438 -6,6 l 0,2 -6,0 c -2.941406,0 -6,2.992188 -6,6 l 0,76 c 0,4 2,6 6,6 l 116,0 c 3.13672,0 6,-2.71484 6,-6 l 0,-66 c 0,-3.011719 -2.91016,-6 -6,-6 l -6,0 0,-12 c 0,-2.921875 -2.90625,-6 -6,-6 z m 0,0"
     style="fill:replacecolour1;fill-opacity:1;fill-rule:nonzero;stroke:none" />
  <path
     inkscape:connector-curvature="0"
     id="path3042"
     d="m 18,16 c -2.929688,0 -6,3.023438 -6,6 l 0,2 -6,0 c -2.941406,0 -6,2.992188 -6,6 l 0,76 c 0,4 2,6 6,6 l 116,0 c 3.13672,0 6,-2.71484 6,-6 l 0,-66 c 0,-3.011719 -2.91016,-6 -6,-6 l -6,0 0,-12 c 0,-2.921875 -2.90625,-6 -6,-6 z M 6,28 74,28 c 1.179688,0 2,1.03125 2,2 l 0,8 46,0 c 1.01172,0 2,1.015625 2,2 l 0,66 c 0,1.04297 -0.95703,2 -2,2 L 6,108 c -0.929688,0 -2,-0.79297 -2,-2 L 4,30 c 0,-0.984375 1.03125,-2 2,-2 z m 0,0"
     style="fill:replacecolour2;fill-opacity:1.;fill-rule:nonzero;stroke:none" />
  <path
     inkscape:connector-curvature="0"
     id="path3044"
     d="m 82.078125,50.003906 c -2.070313,0.03125 -4.109375,1.304688 -4.4375,3.683594 -0.523437,3.800781 3.394531,2.375 6.527344,2.375 3.132812,0 4.175781,6.175781 3.394531,9.503906 C 86.777344,68.894531 78.453125,76.75 59.628906,68.894531 44.128906,62.425781 36.390625,71.039062 36,71.210938 37.464844,84.0625 49.425781,98 63.933594,98 79.433594,98 92,82.644531 92,68.535156 c 0,-1.617187 -0.207031,-3.214844 -0.523438,-4.75 -0.285156,-0.777344 -0.570312,-1.550781 -0.78125,-2.257812 -0.378906,-1.265625 -0.808593,-2.332032 -1.175781,-3.328125 -0.01563,-0.03125 0.01563,-0.08594 0,-0.117188 -1.484375,-3 -3.5625,-5.710937 -6.136719,-7.960937 -0.01172,-0.02734 -0.05078,0.02734 -0.0625,0 C 82.917969,50.027344 82.492188,49.996094 82.078125,50 z m 0,0"
     style="fill:replacecolour3;fill-opacity:1.;fill-rule:nonzero;stroke:none" />
  <path
     inkscape:connector-curvature="0"
     id="path3046"
     d="m 76,62 c 0,2.210938 -1.789062,4 -4,4 -2.210938,0 -4,-1.789062 -4,-4 0,-2.207031 1.789062,-4 4,-4 2.210938,0 4,1.792969 4,4 z m 0,0"
     style="fill:replacecolour3;fill-opacity:1.;fill-rule:nonzero;stroke:none" />
  <path
     inkscape:connector-curvature="0"
     id="path3048"
     d="m 64,56 c 0,1.105469 -0.894531,2 -2,2 -1.105469,0 -2,-0.894531 -2,-2 0,-1.105469 0.894531,-2 2,-2 1.105469,0 2,0.894531 2,2 z m 0,0"
     style="fill:replacecolour3;fill-opacity:1.;fill-rule:nonzero;stroke:none" />
</svg>
