<?xml version="1.0" encoding="UTF-8" standalone="no"?>
<svg
   xmlns:dc="http://purl.org/dc/elements/1.1/"
   xmlns:cc="http://creativecommons.org/ns#"
   xmlns:rdf="http://www.w3.org/1999/02/22-rdf-syntax-ns#"
   xmlns:svg="http://www.w3.org/2000/svg"
   xmlns="http://www.w3.org/2000/svg"
   xmlns:sodipodi="http://sodipodi.sourceforge.net/DTD/sodipodi-0.dtd"
   xmlns:inkscape="http://www.inkscape.org/namespaces/inkscape"
   width="128px"
   height="128px"
   viewBox="0 0 128 128"
   version="1.1"
   id="svg25089"
   inkscape:version="0.91 r"
   sodipodi:docname="default-folder-recent.svg">
  <metadata
     id="metadata25102">
    <rdf:RDF>
      <cc:Work
         rdf:about="">
        <dc:format>image/svg+xml</dc:format>
        <dc:type
           rdf:resource="http://purl.org/dc/dcmitype/StillImage" />
      </cc:Work>
    </rdf:RDF>
  </metadata>
  <defs
     id="defs25100" />
  <sodipodi:namedview
     pagecolor="#ffffff"
     bordercolor="#666666"
     borderopacity="1"
     objecttolerance="10"
     gridtolerance="10"
     guidetolerance="10"
     inkscape:pageopacity="0"
     inkscape:pageshadow="2"
     inkscape:window-width="640"
     inkscape:window-height="480"
     id="namedview25098" />
  <g
     id="surface1">
    <path
       style=" stroke:none;fill-rule:nonzero;fill:rgb(91.372549%,69.019608%,50.196078%);fill-opacity:1;"
       d="M 18 16 C 15.070312 16 12 19.023438 12 22 L 12 24 L 6 24 C 3.058594 24 0 26.992188 0 30 L 0 106 C 0 110 2 112 6 112 L 122 112 C 125.136719 112 128 109.285156 128 106 L 128 40 C 128 36.988281 125.089844 34 122 34 L 116 34 L 116 22 C 116 19.078125 113.09375 16 110 16 Z M 18 16 "
       id="path25092" />
    <path
       style=" stroke:none;fill-rule:nonzero;fill:rgb(0%,0%,0%);fill-opacity:0.321569;"
       d="M 18 16 C 15.070312 16 12 19.023438 12 22 L 12 24 L 6 24 C 3.058594 24 0 26.992188 0 30 L 0 106 C 0 110 2 112 6 112 L 122 112 C 125.136719 112 128 109.285156 128 106 L 128 40 C 128 36.988281 125.089844 34 122 34 L 116 34 L 116 22 C 116 19.078125 113.09375 16 110 16 Z M 6 28 L 74 28 C 75.179688 28 76 29.03125 76 30 L 76 38 L 122 38 C 123.011719 38 124 39.015625 124 40 L 124 106 C 124 107.042969 123.042969 108 122 108 L 6 108 C 5.070312 108 4 107.207031 4 106 L 4 30 C 4 29.015625 5.03125 28 6 28 Z M 6 28 "
       id="path25094" />
    <path
       style=" stroke:none;fill-rule:nonzero;fill:rgb(0%,0%,0%);fill-opacity:0.321569;"
       d="M 36 46 L 36 66 L 56 66 L 48.4375 58.4375 C 52.421875 54.457031 57.925781 52 64 52 C 76.148438 52 86 61.851562 86 74 C 86 86.148438 76.148438 96 64 96 C 51.851562 96 42 86.148438 42 74 C 42 73.324219 42.066406 72.660156 42.125 72 L 36.0625 72 C 36.015625 72.660156 36 73.328125 36 74 C 36 89.464844 48.535156 102 64 102 C 79.464844 102 92 89.464844 92 74 C 92 58.535156 79.464844 46 64 46 C 56.257812 46 49.253906 49.109375 44.1875 54.1875 Z M 63.625 55.875 C 63.457031 55.90625 63.289062 55.949219 63.125 56 C 61.261719 56.417969 59.953125 58.09375 60 60 L 60 74.75 C 59.992188 74.875 59.992188 75 60 75.125 C 59.765625 76.152344 59.945312 77.230469 60.5 78.125 C 60.539062 78.167969 60.582031 78.210938 60.625 78.25 C 60.664062 78.335938 60.707031 78.417969 60.75 78.5 C 60.789062 78.542969 60.832031 78.585938 60.875 78.625 C 60.914062 78.667969 60.957031 78.710938 61 78.75 C 61.039062 78.792969 61.082031 78.835938 61.125 78.875 C 61.164062 78.917969 61.207031 78.960938 61.25 79 C 61.332031 79.042969 61.414062 79.085938 61.5 79.125 C 61.539062 79.167969 61.582031 79.210938 61.625 79.25 C 61.664062 79.292969 61.707031 79.335938 61.75 79.375 C 61.832031 79.417969 61.914062 79.460938 62 79.5 C 62.160156 79.59375 62.328125 79.679688 62.5 79.75 L 72.375 85.5 C 74.308594 86.605469 76.769531 85.933594 77.875 84 C 78.980469 82.066406 78.308594 79.605469 76.375 78.5 L 68 73.625 L 68 60 C 68.039062 58.847656 67.585938 57.738281 66.746094 56.945312 C 65.910156 56.15625 64.769531 55.765625 63.625 55.875 Z M 63.625 55.875 "
       id="path25096" />
  </g>
</svg>
