<?xml version="1.0" encoding="UTF-8" standalone="no"?>
<svg
   xmlns:dc="http://purl.org/dc/elements/1.1/"
   xmlns:cc="http://creativecommons.org/ns#"
   xmlns:rdf="http://www.w3.org/1999/02/22-rdf-syntax-ns#"
   xmlns:svg="http://www.w3.org/2000/svg"
   xmlns="http://www.w3.org/2000/svg"
   xmlns:sodipodi="http://sodipodi.sourceforge.net/DTD/sodipodi-0.dtd"
   xmlns:inkscape="http://www.inkscape.org/namespaces/inkscape"
   width="128px"
   height="128px"
   viewBox="0 0 128 128"
   version="1.1"
   id="svg3007"
   inkscape:version="0.48.5 r10040"
   sodipodi:docname="folder-ubuntu.svg">
  <metadata
     id="metadata3020">
    <rdf:RDF>
      <cc:Work
         rdf:about="">
        <dc:format>image/svg+xml</dc:format>
        <dc:type
           rdf:resource="http://purl.org/dc/dcmitype/StillImage" />
      </cc:Work>
    </rdf:RDF>
  </metadata>
  <defs
     id="defs3018" />
  <sodipodi:namedview
     pagecolor="#ffffff"
     bordercolor="#666666"
     borderopacity="1"
     objecttolerance="10"
     gridtolerance="10"
     guidetolerance="10"
     inkscape:pageopacity="0"
     inkscape:pageshadow="2"
     inkscape:window-width="668"
     inkscape:window-height="480"
     id="namedview3016"
     showgrid="false"
     inkscape:zoom="1.84375"
     inkscape:cx="64"
     inkscape:cy="64"
     inkscape:window-x="0"
     inkscape:window-y="0"
     inkscape:window-maximized="0"
     inkscape:current-layer="svg3007" />
  <path
     inkscape:connector-curvature="0"
     id="path3010"
     d="m 18,16 c -2.929688,0 -6,3.023438 -6,6 l 0,2 -6,0 c -2.941406,0 -6,2.992188 -6,6 l 0,76 c 0,4 2,6 6,6 l 116,0 c 3.13672,0 6,-2.71484 6,-6 l 0,-66 c 0,-3.011719 -2.91016,-6 -6,-6 l -6,0 0,-12 c 0,-2.921875 -2.90625,-6 -6,-6 z m 0,0"
     style="fill:#bdbdbd;fill-opacity:1;fill-rule:nonzero;stroke:none" />
  <path
     inkscape:connector-curvature="0"
     id="path3012"
     d="m 18,16 c -2.929688,0 -6,3.023438 -6,6 l 0,2 -6,0 c -2.941406,0 -6,2.992188 -6,6 l 0,76 c 0,4 2,6 6,6 l 116,0 c 3.13672,0 6,-2.71484 6,-6 l 0,-66 c 0,-3.011719 -2.91016,-6 -6,-6 l -6,0 0,-12 c 0,-2.921875 -2.90625,-6 -6,-6 z M 6,28 74,28 c 1.179688,0 2,1.03125 2,2 l 0,8 46,0 c 1.01172,0 2,1.015625 2,2 l 0,66 c 0,1.04297 -0.95703,2 -2,2 L 6,108 c -0.929688,0 -2,-0.79297 -2,-2 L 4,30 c 0,-0.984375 1.03125,-2 2,-2 z m 0,0"
     style="fill:#000000;fill-opacity:0.32156899;fill-rule:nonzero;stroke:none" />
  <path
     inkscape:connector-curvature="0"
     id="path3014"
     d="m 86,44 c -3.3125,0 -6,2.6875 -6,6 0,3.3125 2.6875,6 6,6 3.3125,0 6,-2.6875 6,-6 0,-3.3125 -2.6875,-6 -6,-6 z m -22,4 c -4.585938,0 -8.859375,1.265625 -12.5,3.5 l 5.9375,5.9375 C 59.441406,56.535156 61.660156,56 64,56 c 8.15625,0 14.886719,6.109375 15.875,14 l 8,0 C 87.550781,66.160156 86.351562,62.550781 84.4375,59.4375 83.6875,59.777344 82.878906,60 82,60 78.6875,60 76,57.3125 76,54 76,53.121094 76.222656,52.3125 76.5625,51.5625 72.910156,49.3125 68.605469,48 64,48 z M 48.3125,53.9375 C 44.554688,57.214844 41.78125,61.601562 40.625,66.625 42.617188,67.601562 44,69.632812 44,72 c 0,2.367188 -1.382812,4.398438 -3.375,5.375 1.246094,5.414062 4.285156,10.164062 8.5,13.5 l 5.75,-5.75 C 50.722656,82.234375 48,77.441406 48,72 48,66.980469 50.320312,62.496094 53.9375,59.5625 z M 32,66 c -3.3125,0 -6,2.6875 -6,6 0,3.3125 2.6875,6 6,6 3.3125,0 6,-2.6875 6,-6 0,-3.3125 -2.6875,-6 -6,-6 z m 47.875,8 C 78.886719,81.890625 72.15625,88 64,88 62.109375,88 60.308594,87.601562 58.625,87 l -6.0625,6.0625 C 55.964844,94.921875 59.847656,96 64,96 67.027344,96 69.894531,95.460938 72.5625,94.4375 72.222656,93.6875 72,92.878906 72,92 c 0,-3.3125 2.6875,-6 6,-6 1.609375,0 3.046875,0.65625 4.125,1.6875 C 85.367188,83.945312 87.445312,79.226562 87.875,74 z M 82,90 c -3.3125,0 -6,2.6875 -6,6 0,3.3125 2.6875,6 6,6 3.3125,0 6,-2.6875 6,-6 0,-3.3125 -2.6875,-6 -6,-6 z m 0,0"
     style="fill:#000000;fill-opacity:0.32156899;fill-rule:nonzero;stroke:none" />
</svg>
