<?xml version="1.0" encoding="UTF-8" standalone="no"?>
<svg
   xmlns:dc="http://purl.org/dc/elements/1.1/"
   xmlns:cc="http://creativecommons.org/ns#"
   xmlns:rdf="http://www.w3.org/1999/02/22-rdf-syntax-ns#"
   xmlns:svg="http://www.w3.org/2000/svg"
   xmlns="http://www.w3.org/2000/svg"
   xmlns:sodipodi="http://sodipodi.sourceforge.net/DTD/sodipodi-0.dtd"
   xmlns:inkscape="http://www.inkscape.org/namespaces/inkscape"
   width="128px"
   height="128px"
   viewBox="0 0 128 128"
   version="1.1"
   id="svg3056"
   inkscape:version="0.48.5 r10040"
   sodipodi:docname="network.svg">
  <metadata
     id="metadata3069">
    <rdf:RDF>
      <cc:Work
         rdf:about="">
        <dc:format>image/svg+xml</dc:format>
        <dc:type
           rdf:resource="http://purl.org/dc/dcmitype/StillImage" />
      </cc:Work>
    </rdf:RDF>
  </metadata>
  <defs
     id="defs3067" />
  <sodipodi:namedview
     pagecolor="#ffffff"
     bordercolor="#666666"
     borderopacity="1"
     objecttolerance="10"
     gridtolerance="10"
     guidetolerance="10"
     inkscape:pageopacity="0"
     inkscape:pageshadow="2"
     inkscape:window-width="668"
     inkscape:window-height="480"
     id="namedview3065"
     showgrid="false"
     inkscape:zoom="1.84375"
     inkscape:cx="64"
     inkscape:cy="64"
     inkscape:window-x="0"
     inkscape:window-y="0"
     inkscape:window-maximized="0"
     inkscape:current-layer="svg3056" />
  <path
     inkscape:connector-curvature="0"
     id="path3059"
     d="m 18,16 c -2.929688,0 -6,3.023438 -6,6 l 0,2 -6,0 c -2.941406,0 -6,2.992188 -6,6 l 0,76 c 0,4 2,6 6,6 l 116,0 c 3.13672,0 6,-2.71484 6,-6 l 0,-66 c 0,-3.011719 -2.91016,-6 -6,-6 l -6,0 0,-12 c 0,-2.921875 -2.90625,-6 -6,-6 z m 0,0"
     style="fill:#f06292;fill-opacity:1;fill-rule:nonzero;stroke:none" />
  <path
     inkscape:connector-curvature="0"
     id="path3061"
     d="m 18,16 c -2.929688,0 -6,3.023438 -6,6 l 0,2 -6,0 c -2.941406,0 -6,2.992188 -6,6 l 0,76 c 0,4 2,6 6,6 l 116,0 c 3.13672,0 6,-2.71484 6,-6 l 0,-66 c 0,-3.011719 -2.91016,-6 -6,-6 l -6,0 0,-12 c 0,-2.921875 -2.90625,-6 -6,-6 z M 6,28 74,28 c 1.179688,0 2,1.03125 2,2 l 0,8 46,0 c 1.01172,0 2,1.015625 2,2 l 0,66 c 0,1.04297 -0.95703,2 -2,2 L 6,108 c -0.929688,0 -2,-0.79297 -2,-2 L 4,30 c 0,-0.984375 1.03125,-2 2,-2 z m 0,0"
     style="fill:#000000;fill-opacity:0.32156899;fill-rule:nonzero;stroke:none" />
  <path
     inkscape:connector-curvature="0"
     id="path3063"
     d="M 61,50 C 50.765625,50 40,60.765625 40,74 40,87.234375 50.765625,98 61,98 77.234375,98 88,87.234375 88,74 88,60.765625 77.234375,50 64,50 z m 4.949219,3.375 c 2.238281,0.207031 4.40625,0.71875 6.375,1.574219 -0.152344,0.191406 -0.269531,0.355469 -0.375,0.675781 C 71.34375,57.445312 70.4375,56.578125 71.5,58.851562 c 1.0625,2.269532 1.945312,2.859376 2.25,1.796876 0.304688,-1.058594 -0.761719,-2.554688 0.449219,-1.949219 1.214843,0.605469 2.109375,-0.164063 1.199219,1.203125 -0.90625,1.363281 -0.886719,2.101562 -1.949219,1.796875 -1.058594,-0.304688 -1.039063,1.796875 -2.097657,2.101562 -1.0625,0.304688 -1.425781,-0.457031 -1.425781,0.300781 0,0.757813 0.601563,0.0625 0.449219,1.273438 -0.04687,0.371094 -0.03125,0.4375 -0.07422,0.601562 -0.996093,-0.285156 -1.441406,-0.445312 -2.175781,-0.15625 -0.757812,0.304688 -1.648438,2.25 -1.648438,2.25 0.945313,0.949219 1.382813,1.628907 1.722657,1.953126 -0.210938,0.105468 -0.464844,0.148437 -0.675781,0.300781 -1.511719,1.058593 -2.695313,1.257812 -3.148438,2.773437 -0.453125,1.515625 -0.300781,0.128906 -0.300781,1.949219 0,1.820313 -0.457031,0.582031 0.449219,2.25 0.910156,1.667969 3.140624,2.464844 4.203124,3.375 1.058594,0.910156 2.152344,-1.976563 4.273438,0.75 2.121094,2.726563 2.257812,1.636719 1.5,3.152344 -0.757812,1.515625 -1.496094,2.019531 -1.800781,2.625 -0.300781,0.605469 0.589843,2.695312 1.652343,3.148437 0.01953,0 0.05078,0 0.07422,0 -0.05859,0.128906 -0.09375,0.246094 -0.152343,0.375 -1.371094,0.625 -3.054688,1.484375 -3.375,1.574219 -0.75,0.21875 -3.394532,0.664063 -5.324219,1.199219 -0.242188,0.07031 -0.429688,0.07031 -0.523438,0.07813 0.238281,-0.257813 2.132813,-1.25 3.074219,-1.796875 1.285156,-0.753906 -0.07422,-0.675782 -0.07422,-0.675782 0,0 -2.046875,-0.226562 -6.226562,-0.226562 -2.089844,0 -2.992188,0.09375 -3.449219,0.226562 -0.226562,0.06641 -0.339844,0.136719 -0.449219,0.226563 -0.109375,0.09375 -0.1875,0.191406 -0.375,0.296875 -0.75,0.429688 0.4375,0.878906 -0.527343,1.199219 -0.722657,0.242187 -0.804688,0 -1.421876,-0.449219 0.4375,-0.441406 1.046876,-0.96875 1.796876,-1.875 1.367187,-1.652344 1.796874,-1.351562 2.25,-2.851562 0.457031,-1.5 -3.824219,-1.050782 -3.824219,-1.949219 0,-0.902344 -0.734375,-1.5 -2.097657,-2.101563 C 52.359375,83 53.289062,82.699219 51.773438,82.25 c -1.511719,-0.449219 -3.21875,2.25 -3.671876,1.347656 -0.457031,-0.898437 1.421876,-0.898437 1.421876,-1.949218 0,-1.023438 -2.160157,0.773437 -2.546876,-0.523438 -0.01172,-0.05078 -0.07031,-0.05078 -0.07812,-0.07813 -0.03516,-0.191406 -0.01172,-0.300781 0,-0.449219 0.09766,-1.078125 1.347656,-1.5 1.875,-2.550781 0.609374,-1.199219 0.292968,0.902344 1.050781,1.953125 0.757812,1.046875 0.457031,-1.351562 0,-2.703125 -0.453125,-1.347656 0.289062,-1.347656 1.351562,-3.148437 1.058594,-1.800782 1.050781,-2.851563 1.050781,-4.199219 0,-1.351563 0.734376,-1.5 2.25,-2.851563 0.691407,-0.617187 1.238282,-1.15625 1.648438,-1.648437 0.09766,-0.05078 0.199219,-0.05078 0.300781,-0.07813 1.605469,-0.644532 2.28125,-1.609375 3.675781,-4.5 C 61.492188,57.976562 59.554688,60.679688 59.125,60.570312 58.695312,60.464844 58.074219,59.703125 56.574219,58.84375 56.265625,58.667969 55.988281,58.582031 55.75,58.546875 l 2.773438,-4.574219 c 0.890624,-0.238281 1.84375,-0.40625 2.777343,-0.527344 0.339844,1.941407 0.148438,3.753907 0.148438,3.753907 0,0 -0.523438,0.621093 -0.523438,1.046875 0,0.429687 2.871094,-3.535156 3.300781,-3.75 0.425782,-0.214844 1.507813,1.136718 1.722657,-0.898438 0.01172,-0.117187 -0.01172,-0.121094 0,-0.226562 z M 70,61.476562 c -0.152344,-0.05078 -0.335938,0 -0.523438,0.07813 0,0.527343 -0.207031,0.914062 -0.300781,1.125 -0.05859,-0.09766 -0.226562,-0.226563 -0.226562,-0.226563 -0.226563,0.417969 -0.714844,0.789063 -0.222657,0.675781 0.492188,-0.109375 0.863282,0.191406 0.523438,-0.226562 -0.06641,-0.07813 -0.03516,-0.04687 -0.07422,-0.07813 0.0625,0.04687 0.183594,0.07813 0.449219,0.07813 0.296875,0 0.457031,0 0.675781,0 -0.367187,0.269531 -0.765625,0.386718 -0.226562,0.527344 0.71875,0.1875 1.050781,0.226562 1.050781,0.07812 0,-0.152343 -0.226562,-0.675781 -0.226562,-0.675781 0.140624,-0.05859 0.273437,-0.128906 0.152343,-0.375 C 70.824219,62.003906 70.460938,61.550781 70,61.480469 z M 81.476562,62.75 c 0.375,0.582031 0.730469,1.179688 1.046876,1.800781 -0.207032,1.210938 -0.738282,2.023438 0.152343,2.023438 0.246094,0 0.46875,-0.05469 0.675781,-0.07813 0.02734,0.07422 0.04688,0.15625 0.07422,0.226562 -1.515625,0 -2.242187,0.453125 -3,0.300782 -0.757812,-0.15625 -2.863281,-0.289063 -1.5,-1.652344 0.796875,-0.796875 1.792969,-2.0625 2.550781,-2.625 z m -9.453124,2.777344 c 0.140624,0.04297 0.261718,0.1875 0.375,0.445312 0.457031,1.0625 1.207031,1.949219 0.601562,2.101563 -0.605469,0.148437 -0.898438,0.300781 -0.898438,0.300781 0,0 2.097657,1.363281 2.25,-0.152344 C 74.5,66.707031 73.75,65.824219 73.75,65.824219 c 0,0 1.046875,1.042969 1.351562,1.648437 0.300782,0.605469 0.289063,0 1.046876,0.75 0.757812,0.757813 0.589843,-3.011718 1.652343,-1.949218 1.058594,1.0625 1.726563,1.042968 1.425781,1.800781 -0.304687,0.757812 1.949219,-0.917969 1.949219,0.597656 0,1.460937 0.929688,2.054687 -0.902343,2.777344 -0.691407,-0.04687 -1.242188,-0.164063 -1.347657,-0.375 -0.304687,-0.605469 -2.027343,-0.152344 -2.027343,-0.152344 -4.53125,-1.132813 -6.5,-1.492187 -7.796876,-1.273437 0.02344,-0.04688 0.04688,-0.04688 0.07422,-0.07813 0.664063,-1.195312 1.910157,-2.851562 1.5,-3.449218 0.578125,-0.332032 1.03125,-0.699219 1.347657,-0.601563 z m 12.75,7.574218 c 0.01562,0.300782 0,0.589844 0,0.898438 0,0.851562 -0.05078,1.722656 -0.148438,2.550781 -1.363281,-1.214843 -3.300781,-1.199219 -3.300781,-1.199219 0,0 1.183593,-1.34375 2.851562,-1.953124 0.207031,-0.07813 0.429688,-0.175782 0.597657,-0.296876 z m 0,0"
     style="fill:#000000;fill-opacity:0.32156899;fill-rule:nonzero;stroke:none" />
</svg>
