<svg version="1.1" viewBox="0 0 48 48" xmlns="http://www.w3.org/2000/svg">
 <defs>
  <linearGradient id="linearGradient5286" x1="1" x2="47" gradientTransform="translate(-48 .0022141)" gradientUnits="userSpaceOnUse">
   <stop style="stop-color:#3e6d94" offset="0"/>
   <stop style="stop-color:#4476a2" offset="1"/>
  </linearGradient>
 </defs>
 <path d="m1 43v0.25c0 2.216 1.784 4 4 4h38c2.216 0 4-1.784 4-4v-0.25c0 2.216-1.784 4-4 4h-38c-2.216 0-4-1.784-4-4zm0 0.5v0.5c0 2.216 1.784 4 4 4h38c2.216 0 4-1.784 4-4v-0.5c0 2.216-1.784 4-4 4h-38c-2.216 0-4-1.784-4-4z" style="opacity:.02"/>
 <path d="m1 43.25v0.25c0 2.216 1.784 4 4 4h38c2.216 0 4-1.784 4-4v-0.25c0 2.216-1.784 4-4 4h-38c-2.216 0-4-1.784-4-4z" style="opacity:.05"/>
 <path d="m1 43v0.25c0 2.216 1.784 4 4 4h38c2.216 0 4-1.784 4-4v-0.25c0 2.216-1.784 4-4 4h-38c-2.216 0-4-1.784-4-4z" style="opacity:.1"/>
 <rect transform="rotate(-90)" x="-47" y="1" width="46" height="46" rx="4" style="fill:url(#linearGradient5286)"/>
 <g transform="translate(0 -1004.4)">
  <path d="m1 1043.4v4c0 2.216 1.784 4 4 4h38c2.216 0 4-1.784 4-4v-4c0 2.216-1.784 4-4 4h-38c-2.216 0-4-1.784-4-4z" style="opacity:.1"/>
 </g>
 <path d="m11 19 2 14h22l2-14z" style="opacity:.1"/>
 <path d="m17.273 13c-0.77549 0-1.0769 0.41934-1.1953 1h-3.0781v9h22v-9h-12.08c-0.11817-0.5814-0.41702-1-1.1934-1z" style="fill:#ea8e36"/>
 <path d="m15 15v12h17v-12z" style="fill:#d6d6d7"/>
 <path d="m16 16v4h18v-4z" style="fill:#95959c"/>
 <path d="m17 17v12h16v-12z" style="fill:#f9f9f9"/>
 <path d="m11 18 2 14h22l2-14z" style="fill:#f2b962"/>
 <path d="m25.488 20.375c0 0.762-0.637 1.375-1.422 1.375s-1.418-0.613-1.418-1.375c0-0.758 0.633-1.371 1.418-1.371s1.422 0.613 1.422 1.371m3.547 1.465c-0.066 8e-3 -0.129 0.035-0.18 0.07l-4.855 0.734-4.828-0.742c-0.125-0.09-0.297-0.113-0.438-0.051-0.141 0.066-0.23 0.223-0.234 0.367 0 0.148 0.098 0.273 0.234 0.34l3.781 1.16-0.027 2.668-1.332 3.988c-0.129 0.18-0.09 0.414 0.102 0.535 0.195 0.121 0.465 0.086 0.598-0.098l2.152-4.305 2.113 4.297c0.113 0.188 0.371 0.254 0.57 0.145 0.199-0.105 0.27-0.352 0.152-0.539l-1.309-4.01-0.051-2.508 3.836-1.348c0.152-0.105 0.223-0.297 0.156-0.465-0.066-0.168-0.254-0.262-0.441-0.242" style="fill-opacity:.251"/>
</svg>
