<svg xmlns="http://www.w3.org/2000/svg" viewBox="0 0 48 48">
 <defs>
  <linearGradient id="linearGradient5286" gradientUnits="userSpaceOnUse" gradientTransform="translate(-48,0.00221512)" x1="1" x2="47">
   <stop style="stop-color:#51b8df;stop-opacity:1"/>
   <stop offset="1" style="stop-color:#62bee2;stop-opacity:1"/>
  </linearGradient>
 </defs>
 <g>
  <path d="m 1,43 0,0.25 c 0,2.216 1.784,4 4,4 l 38,0 c 2.216,0 4,-1.784 4,-4 L 47,43 c 0,2.216 -1.784,4 -4,4 L 5,47 C 2.784,47 1,45.216 1,43 z m 0,0.5 0,0.5 c 0,2.216 1.784,4 4,4 l 38,0 c 2.216,0 4,-1.784 4,-4 l 0,-0.5 c 0,2.216 -1.784,4 -4,4 l -38,0 c -2.216,0 -4,-1.784 -4,-4 z" style="opacity:0.02"/>
  <path d="m 1 43.25 0 0.25 c 0 2.216 1.784 4 4 4 l 38 0 c 2.216 0 4 -1.784 4 -4 l 0 -0.25 c 0 2.216 -1.784 4 -4 4 l -38 0 c -2.216 0 -4 -1.784 -4 -4 z" style="opacity:0.05"/>
  <path d="m 1,43 0,0.25 c 0,2.216 1.784,4 4,4 l 38,0 c 2.216,0 4,-1.784 4,-4 L 47,43 c 0,2.216 -1.784,4 -4,4 L 5,47 C 2.784,47 1,45.216 1,43 z" style="opacity:0.1"/>
 </g>
 <rect transform="matrix(0,-1,1,0,0,0)" rx="4" y="1" x="-47" height="46" width="46" style="fill:url(#linearGradient5286);fill-opacity:1"/>
 <g>
  <g transform="translate(0,-1004.3622)">
   <path d="m 1 1043.36 0 4 c 0 2.216 1.784 4 4 4 l 38 0 c 2.216 0 4 -1.784 4 -4 l 0 -4 c 0 2.216 -1.784 4 -4 4 l -38 0 c -2.216 0 -4 -1.784 -4 -4 z" style="opacity:0.1"/>
  </g>
 </g>
 <rect y="15" x="13" height="9" width="22" style="fill:#000;opacity:0.1"/>
 <path d="m 11 19 26 0 l -2 14 -22 0 z" style="fill:#000;opacity:0.1"/>
 <rect width="22" height="9" x="13" y="14" style="fill:#ea9036"/>
 <path d="M 16,15.25 C 16,14.125 16,13 17.272729,13 l 4.454544,0 C 23,13 23,14.125 23,15.25 z" style="fill:#ea9036"/>
 <rect y="15" x="15" height="12" width="17" style="fill:#d8d8da"/>
 <path d="m 16 16 18 0 0 4 -18 0 z" style="fill:#95989f"/>
 <rect width="16" height="12" x="17" y="17" style="fill:#f9f9f9"/>
 <path d="m 11 18 26 0 -2 14 -22 0 z" style="fill:#f2bb64"/>
</svg>
