<svg version="1.1" viewBox="0 0 48 48" xmlns="http://www.w3.org/2000/svg">
 <defs>
  <linearGradient id="linearGradient5286" x1="1" x2="47" gradientTransform="translate(-48 .002215)" gradientUnits="userSpaceOnUse">
   <stop style="stop-color:#428ac2" offset="0"/>
   <stop style="stop-color:#5295c7" offset="1"/>
  </linearGradient>
 </defs>
 <path d="m1 43v0.25c0 2.216 1.784 4 4 4h38c2.216 0 4-1.784 4-4v-0.25c0 2.216-1.784 4-4 4h-38c-2.216 0-4-1.784-4-4zm0 0.5v0.5c0 2.216 1.784 4 4 4h38c2.216 0 4-1.784 4-4v-0.5c0 2.216-1.784 4-4 4h-38c-2.216 0-4-1.784-4-4z" style="opacity:.02"/>
 <path d="m1 43.25v0.25c0 2.216 1.784 4 4 4h38c2.216 0 4-1.784 4-4v-0.25c0 2.216-1.784 4-4 4h-38c-2.216 0-4-1.784-4-4z" style="opacity:.05"/>
 <path d="m1 43v0.25c0 2.216 1.784 4 4 4h38c2.216 0 4-1.784 4-4v-0.25c0 2.216-1.784 4-4 4h-38c-2.216 0-4-1.784-4-4z" style="opacity:.1"/>
 <rect transform="rotate(-90)" x="-47" y="1" width="46" height="46" rx="4" style="fill:url(#linearGradient5286)"/>
 <g transform="translate(0 -1004.4)">
  <path d="m1 1043.4v4c0 2.216 1.784 4 4 4h38c2.216 0 4-1.784 4-4v-4c0 2.216-1.784 4-4 4h-38c-2.216 0-4-1.784-4-4z" style="opacity:.1"/>
 </g>
 <path d="m11 19 2 14h22l2-14h-26z" style="opacity:.1"/>
 <path d="m17.273 13c-0.77549 0-1.0769 0.41934-1.1953 1h-3.0781v9h22v-9h-12.08c-0.11817-0.5814-0.41702-1-1.1934-1z" style="fill:#ea8e36"/>
 <path d="m15 15v12h17v-12z" style="fill:#d6d6d7"/>
 <path d="m16 16v4h18v-4z" style="fill:#95959c"/>
 <path d="m17 17v12h16v-12z" style="fill:#f9f9f9"/>
 <path d="m11 18 2 14h22l2-14z" style="fill:#f2b962"/>
 <path d="m18 18.98v10.57l1.5117 1.4473 10.488-0.017578v-12zm1 1.0176h1v7h8v-7h1v10h-2v-2h-6v2h-1l-1-1zm2 1h6v1h-6zm0 3h6v1h-6zm1 5h2v1h-2z" style="fill-opacity:.251"/>
</svg>
