<svg version="1.1" viewBox="0 0 48 48" xmlns="http://www.w3.org/2000/svg">
 <defs>
  <linearGradient id="linearGradient5286" x1="1" x2="47" gradientTransform="translate(-48 .002215)" gradientUnits="userSpaceOnUse">
   <stop style="stop-color:#455483" offset="0"/>
   <stop style="stop-color:#4c5c8f" offset="1"/>
  </linearGradient>
 </defs>
 <path d="m1 43v0.25c0 2.216 1.784 4 4 4h38c2.216 0 4-1.784 4-4v-0.25c0 2.216-1.784 4-4 4h-38c-2.216 0-4-1.784-4-4zm0 0.5v0.5c0 2.216 1.784 4 4 4h38c2.216 0 4-1.784 4-4v-0.5c0 2.216-1.784 4-4 4h-38c-2.216 0-4-1.784-4-4z" style="opacity:.02"/>
 <path d="m1 43.25v0.25c0 2.216 1.784 4 4 4h38c2.216 0 4-1.784 4-4v-0.25c0 2.216-1.784 4-4 4h-38c-2.216 0-4-1.784-4-4z" style="opacity:.05"/>
 <path d="m1 43v0.25c0 2.216 1.784 4 4 4h38c2.216 0 4-1.784 4-4v-0.25c0 2.216-1.784 4-4 4h-38c-2.216 0-4-1.784-4-4z" style="opacity:.1"/>
 <rect transform="rotate(-90)" x="-47" y="1" width="46" height="46" rx="4" style="fill:url(#linearGradient5286)"/>
 <g transform="translate(0 -1004.4)">
  <path d="m1 1043.4v4c0 2.216 1.784 4 4 4h38c2.216 0 4-1.784 4-4v-4c0 2.216-1.784 4-4 4h-38c-2.216 0-4-1.784-4-4z" style="opacity:.1"/>
 </g>
 <path d="m11 19 2 14h22l2-14h-26z" style="opacity:.1"/>
 <path d="m17.273 13c-0.77549 0-1.0769 0.41934-1.1953 1h-3.0781v9h22v-9h-12.08c-0.11817-0.5814-0.41702-1-1.1934-1z" style="fill:#ea8e36"/>
 <path d="m15 15v12h17v-12z" style="fill:#d6d6d7"/>
 <path d="m16 16v4h18v-4z" style="fill:#95959c"/>
 <path d="m17 17v12h16v-12z" style="fill:#f9f9f9"/>
 <path d="m11 18 2 14h22l2-14z" style="fill:#f2b962"/>
 <path d="m23.48 26.797c-0.737 0.55-1.864 2.34-2.216 1.64-0.176-0.1-0.456-8.13-0.072-8.44 0.335-0.27 7.649 4.23 7.303 4.7-0.043 0.48-1.708 0.63-2.561 0.95l1.841 3.07-2.288 1.28" style="fill-opacity:.251"/>
</svg>
