<svg version="1.1" viewBox="0 0 48 48" xmlns="http://www.w3.org/2000/svg">
 <defs>
  <linearGradient id="linearGradient5286" x1="1" x2="47" gradientTransform="translate(-48 .0022152)" gradientUnits="userSpaceOnUse">
   <stop style="stop-color:#6cb85a" offset="0"/>
   <stop style="stop-color:#79be68" offset="1"/>
  </linearGradient>
 </defs>
 <path d="m1 43v0.25c0 2.216 1.784 4 4 4h38c2.216 0 4-1.784 4-4v-0.25c0 2.216-1.784 4-4 4h-38c-2.216 0-4-1.784-4-4zm0 0.5v0.5c0 2.216 1.784 4 4 4h38c2.216 0 4-1.784 4-4v-0.5c0 2.216-1.784 4-4 4h-38c-2.216 0-4-1.784-4-4z" style="opacity:.02"/>
 <path d="m1 43.25v0.25c0 2.216 1.784 4 4 4h38c2.216 0 4-1.784 4-4v-0.25c0 2.216-1.784 4-4 4h-38c-2.216 0-4-1.784-4-4z" style="opacity:.05"/>
 <path d="m1 43v0.25c0 2.216 1.784 4 4 4h38c2.216 0 4-1.784 4-4v-0.25c0 2.216-1.784 4-4 4h-38c-2.216 0-4-1.784-4-4z" style="opacity:.1"/>
 <rect transform="rotate(-90)" x="-47" y="1" width="46" height="46" rx="4" style="fill:url(#linearGradient5286)"/>
 <g transform="translate(0 -1004.4)">
  <path d="m1 1043.4v4c0 2.216 1.784 4 4 4h38c2.216 0 4-1.784 4-4v-4c0 2.216-1.784 4-4 4h-38c-2.216 0-4-1.784-4-4z" style="opacity:.1"/>
 </g>
 <path d="m11 19h26l-2 14h-22z" style="opacity:.1"/>
 <path d="m17.273 13c-0.77533 0-1.0769 0.41934-1.1953 1h-3.0781v9h22v-9h-12.078c-0.11842-0.58066-0.41999-1-1.1953-1z" style="fill:#ea9036"/>
 <rect x="15" y="15" width="17" height="12" style="fill:#d8d8da"/>
 <path d="m16 16h18v4h-18z" style="fill:#95989f"/>
 <rect x="17" y="17" width="16" height="12" style="fill:#f9f9f9"/>
 <path d="m11 18h26l-2 14h-22z" style="fill:#f2bb64"/>
</svg>
