<?xml version="1.0" encoding="UTF-8" standalone="no"?>
<svg
   xmlns:dc="http://purl.org/dc/elements/1.1/"
   xmlns:cc="http://creativecommons.org/ns#"
   xmlns:rdf="http://www.w3.org/1999/02/22-rdf-syntax-ns#"
   xmlns:svg="http://www.w3.org/2000/svg"
   xmlns="http://www.w3.org/2000/svg"
   xmlns:xlink="http://www.w3.org/1999/xlink"
   xmlns:sodipodi="http://sodipodi.sourceforge.net/DTD/sodipodi-0.dtd"
   xmlns:inkscape="http://www.inkscape.org/namespaces/inkscape"
   viewBox="0 0 48 48"
   id="svg2"
   version="1.1"
   inkscape:version="0.91 r13725"
   sodipodi:docname="numix-folders.svg">
  <metadata
     id="metadata45">
    <rdf:RDF>
      <cc:Work
         rdf:about="">
        <dc:format>image/svg+xml</dc:format>
        <dc:type
           rdf:resource="http://purl.org/dc/dcmitype/StillImage" />
      </cc:Work>
    </rdf:RDF>
  </metadata>
  <sodipodi:namedview
     pagecolor="#ffffff"
     bordercolor="#666666"
     borderopacity="1"
     objecttolerance="10"
     gridtolerance="10"
     guidetolerance="10"
     inkscape:pageopacity="0"
     inkscape:pageshadow="2"
     inkscape:window-width="622"
     inkscape:window-height="482"
     id="namedview43"
     showgrid="false"
     inkscape:zoom="4.9166667"
     inkscape:cx="22.776263"
     inkscape:cy="21.533267"
     inkscape:window-x="648"
     inkscape:window-y="32"
     inkscape:window-maximized="0"
     inkscape:current-layer="svg2" />
  <defs
     id="defs4">
    <linearGradient
       id="linearGradient5286"
       gradientUnits="userSpaceOnUse"
       gradientTransform="translate(-48,0.00221524)"
       x1="1"
       x2="47"
       y1="0"
       y2="0"
       spreadMethod="pad">
      <stop
         style="stop-color:#6cb85a;stop-opacity:1"
         id="stop7" />
      <stop
         offset="1"
         style="stop-color:#79be68;stop-opacity:1"
         id="stop9" />
    </linearGradient>
    <linearGradient
       id="linearGradient3764-6"
       x1="1"
       x2="47"
       gradientUnits="userSpaceOnUse"
       gradientTransform="matrix(0,-1,1,0,-1.5e-6,47.999998)">
      <stop
         style="stop-color:#e4e4e4;stop-opacity:1"
         id="stop7-1" />
      <stop
         offset="1"
         style="stop-color:#eee;stop-opacity:1"
         id="stop9-5" />
    </linearGradient>
    <linearGradient
       inkscape:collect="always"
       xlink:href="#linearGradient3764-6"
       id="linearGradient4231"
       x1="-47"
       y1="24"
       x2="-1"
       y2="24"
       gradientUnits="userSpaceOnUse" />
  </defs>
  <g
     id="g11">
    <path
       d="m 1,43 0,0.25 c 0,2.216 1.784,4 4,4 l 38,0 c 2.216,0 4,-1.784 4,-4 L 47,43 c 0,2.216 -1.784,4 -4,4 L 5,47 C 2.784,47 1,45.216 1,43 z m 0,0.5 0,0.5 c 0,2.216 1.784,4 4,4 l 38,0 c 2.216,0 4,-1.784 4,-4 l 0,-0.5 c 0,2.216 -1.784,4 -4,4 l -38,0 c -2.216,0 -4,-1.784 -4,-4 z"
       style="opacity:0.02"
       id="path13" />
    <path
       d="m 1 43.25 0 0.25 c 0 2.216 1.784 4 4 4 l 38 0 c 2.216 0 4 -1.784 4 -4 l 0 -0.25 c 0 2.216 -1.784 4 -4 4 l -38 0 c -2.216 0 -4 -1.784 -4 -4 z"
       style="opacity:0.05"
       id="path15" />
    <path
       d="m 1,43 0,0.25 c 0,2.216 1.784,4 4,4 l 38,0 c 2.216,0 4,-1.784 4,-4 L 47,43 c 0,2.216 -1.784,4 -4,4 L 5,47 C 2.784,47 1,45.216 1,43 z"
       style="opacity:0.1"
       id="path17" />
  </g>
  <rect
     transform="matrix(0,-1,1,0,0,0)"
     rx="4"
     y="1"
     x="-47"
     height="46"
     width="46"
     style="fill:url(#linearGradient4231);fill-opacity:1.0"
     id="rect19" />
  <g
     id="g21">
    <g
       transform="translate(0,-1004.3622)"
       id="g23">
      <path
         d="m 1 1043.36 0 4 c 0 2.216 1.784 4 4 4 l 38 0 c 2.216 0 4 -1.784 4 -4 l 0 -4 c 0 2.216 -1.784 4 -4 4 l -38 0 c -2.216 0 -4 -1.784 -4 -4 z"
         style="opacity:0.1"
         id="path25" />
    </g>
  </g>
  <path
     inkscape:connector-curvature="0"
     d="M 16,15.25 C 16,14.125 16,13 17.273,13 l 4.455,0 c 1.273,0 1.273,1.125 1.273,2.25"
     style="fill:#ea9036;fill-opacity:1;stroke:none"
     id="path4272" />
  <path
     inkscape:connector-curvature="0"
     style="opacity:1;fill:#617fa1;fill-opacity:1;fill-rule:nonzero;stroke:none;stroke-width:2.5;stroke-linejoin:round;stroke-miterlimit:4;stroke-dasharray:none;stroke-opacity:1"
     d="m 13,14 0,7 3,0 0,-7 -3,0 z"
     id="rect3413-8-1-5" />
  <path
     inkscape:connector-curvature="0"
     d="m 17.273,14 c -0.775,0 -1.077,0.419 -1.195,1 L 13,15 l 0,4 -2,0 2,14 22,0 2,-14 -2,0 0,-4 -12.08,0 C 22.802,14.419 22.5,14 21.725,14 l -4.453,0 z"
     style="opacity:0.1;fill:#000000;fill-opacity:1;stroke:none"
     id="path27" />
  <path
     inkscape:connector-curvature="0"
     style="opacity:1;fill:#cf5829;fill-opacity:1;fill-rule:nonzero;stroke:none;stroke-width:2.5;stroke-linejoin:round;stroke-miterlimit:4;stroke-dasharray:none;stroke-opacity:1"
     d="m 32,14 0,7 3,0 0,-7 -3,0 z"
     id="rect3419-9-7-5" />
  <path
     inkscape:connector-curvature="0"
     style="opacity:1;fill:#cdc22c;fill-opacity:1;fill-rule:nonzero;stroke:none;stroke-width:2.5;stroke-linejoin:round;stroke-miterlimit:4;stroke-dasharray:none;stroke-opacity:1"
     d="m 21,13 0,2.25 2.001953,0 c 0,-1.125 -4.37e-4,-2.25 -1.273437,-2.25 L 21,13 Z"
     id="path4341" />
  <path
     inkscape:connector-curvature="0"
     style="opacity:1;fill:#cdc22c;fill-opacity:1;fill-rule:nonzero;stroke:none;stroke-width:2.5;stroke-linejoin:round;stroke-miterlimit:4;stroke-dasharray:none;stroke-opacity:1"
     d="m 21,14 0,7 6,0 0,-7 -6,0 z"
     id="rect3421-4-9-0" />
  <path
     inkscape:connector-curvature="0"
     style="opacity:1;fill:#5a945c;fill-opacity:1;fill-rule:nonzero;stroke:none;stroke-width:2.5;stroke-linejoin:round;stroke-miterlimit:4;stroke-dasharray:none;stroke-opacity:1"
     d="m 16,14 0,7 5,0 0,-7 -5,0 z"
     id="rect3415-6-0-2" />
  <path
     inkscape:connector-curvature="0"
     style="opacity:1;fill:#cf8d27;fill-opacity:1;fill-rule:nonzero;stroke:none;stroke-width:2.5;stroke-linejoin:round;stroke-miterlimit:4;stroke-dasharray:none;stroke-opacity:1"
     d="m 27,14 0,7 5,0 0,-7 -5,0 z"
     id="rect3417-3-7-6" />
  <path
     inkscape:connector-curvature="0"
     style="opacity:1;fill:#5a945c;fill-opacity:1;fill-rule:nonzero;stroke:none;stroke-width:2.5;stroke-linejoin:round;stroke-miterlimit:4;stroke-dasharray:none;stroke-opacity:1"
     d="M 17.273438,13 C 16.000438,13 16,14.125 16,15.25 l 5,0 0,-2.25 -3.726562,0 z"
     id="path4336" />
  <rect
     id="rect35"
     style="fill:#d8d8da;fill-opacity:1;stroke:none"
     y="15"
     x="14.999999"
     height="12"
     width="17" />
  <path
     inkscape:connector-curvature="0"
     id="path37"
     style="fill:#95989f;fill-opacity:1;stroke:none"
     d="m 16,16 18,0 0,4 -18,0 z" />
  <rect
     id="rect39"
     style="fill:#f9f9f9;fill-opacity:1;stroke:none"
     width="16"
     height="12"
     x="17"
     y="17" />
  <path
     inkscape:connector-curvature="0"
     style="opacity:1;fill:#9add9c;fill-opacity:1;fill-rule:nonzero;stroke:none;stroke-width:2.5;stroke-linejoin:round;stroke-miterlimit:4;stroke-dasharray:none;stroke-opacity:1"
     d="m 16,18 0,14 5,0 0,-14 -5,0 z"
     id="rect3415-6-0" />
  <path
     inkscape:connector-curvature="0"
     style="opacity:1;fill:#edb968;fill-opacity:1;fill-rule:nonzero;stroke:none;stroke-width:2.5;stroke-linejoin:round;stroke-miterlimit:4;stroke-dasharray:none;stroke-opacity:1"
     d="m 27,18 0,14 5,0 0,-14 -5,0 z"
     id="rect3417-3-7" />
  <path
     inkscape:connector-curvature="0"
     style="opacity:1;fill:#ed8e68;fill-opacity:1;fill-rule:nonzero;stroke:none;stroke-width:2.5;stroke-linejoin:round;stroke-miterlimit:4;stroke-dasharray:none;stroke-opacity:1"
     d="m 32,18 0,14 3,0 2,-14 -5,0 z"
     id="rect3419-9-7" />
  <path
     inkscape:connector-curvature="0"
     style="opacity:1;fill:#f3f284;fill-opacity:1;fill-rule:nonzero;stroke:none;stroke-width:2.5;stroke-linejoin:round;stroke-miterlimit:4;stroke-dasharray:none;stroke-opacity:1"
     d="m 21,18 0,14 6,0 0,-14 -6,0 z"
     id="rect3421-4-9" />
  <path
     inkscape:connector-curvature="0"
     style="opacity:1;fill:#9ab9dd;fill-opacity:1;fill-rule:nonzero;stroke:none;stroke-width:2.5;stroke-linejoin:round;stroke-miterlimit:4;stroke-dasharray:none;stroke-opacity:1"
     d="m 11,18 2,14 3,0 0,-14 -5,0 z"
     id="rect3413-8-1" />
</svg>
