<svg version="1.1" viewBox="0 0 48 48" xmlns="http://www.w3.org/2000/svg" xmlns:xlink="http://www.w3.org/1999/xlink">
 <defs>
  <linearGradient id="linearGradient4344" x1="-47" x2="-1" gradientUnits="userSpaceOnUse">
   <stop style="stop-color:#77a4ff" offset="0"/>
   <stop style="stop-color:#8bb1ff" offset="1"/>
  </linearGradient>
 </defs>
 <path d="m1 43v0.25c0 2.216 1.784 4 4 4h38c2.216 0 4-1.784 4-4v-0.25c0 2.216-1.784 4-4 4h-38c-2.216 0-4-1.784-4-4zm0 0.5v0.5c0 2.216 1.784 4 4 4h38c2.216 0 4-1.784 4-4v-0.5c0 2.216-1.784 4-4 4h-38c-2.216 0-4-1.784-4-4z" style="opacity:.02"/>
 <path d="m1 43.25v0.25c0 2.216 1.784 4 4 4h38c2.216 0 4-1.784 4-4v-0.25c0 2.216-1.784 4-4 4h-38c-2.216 0-4-1.784-4-4z" style="opacity:.05"/>
 <path d="m1 43v0.25c0 2.216 1.784 4 4 4h38c2.216 0 4-1.784 4-4v-0.25c0 2.216-1.784 4-4 4h-38c-2.216 0-4-1.784-4-4z" style="opacity:.1"/>
 <rect transform="rotate(-90)" x="-47" y="1" width="46" height="46" rx="4" style="fill:url(#linearGradient4344)"/>
 <g transform="translate(0 -1004.4)">
  <path d="m1 1043.4v4c0 2.216 1.784 4 4 4h38c2.216 0 4-1.784 4-4v-4c0 2.216-1.784 4-4 4h-38c-2.216 0-4-1.784-4-4z" style="opacity:.1"/>
 </g>
 <g transform="translate(-1,-1)">
  <g clip-path="url(#clipPath-428684738)">
   <g transform="translate(1,1)">
    <g style="opacity:.1">
     <path d="m15 16h17v12h-17"/>
     <path d="m16 17h18v4h-18"/>
     <path d="m17 18h16v12h-16"/>
     <path d="m11 19 2 14h11v1.832c0 0.64652 0.52145 1.168 1.168 1.168h11.666c0.64652 0 1.166-0.52145 1.166-1.168v-7.6641c0-0.64652-0.5195-1.168-1.166-1.168h-0.83398l1-7h-26z"/>
     <path d="m20.523 21c-0.516 0-1.016 0.07-1.492 0.191v-0.02c-0.531 0.137-0.934 0.32-1.012 0.355v0.035c-4e-3 0-0.012 4e-3 -0.02 8e-3 0.055 0.434 0.133 0.863 0.172 1.059 0.422 1.785 1.641 3.258 3.254 4.04-8e-3 0.121-0.02 0.238-0.02 0.363 0 1.648 0.664 3.141 1.73 4.23-8e-3 4e-3 8e-3 8e-3 0 0.012 0.309 0.289 0.727 0.625 0.813 0.691 0.023 0.012 0.059 0.023 0.07 0.039 0.355-0.313 0.672-0.652 0.754-0.742 1.066-1.09 1.73-2.582 1.73-4.23 0-0.113-0.02-0.223-0.023-0.336 1.641-0.758 2.879-2.23 3.32-4.02-8e-3 -4e-3 4e-3 -8e-3 0-0.012 0.109-0.48 0.188-1 0.188-1.055-8e-3 -4e-3 -0.02-8e-3 -0.027-0.012v-0.023c-0.227-0.102-0.742-0.277-1.016-0.367v0.012c-0.496-0.133-1.02-0.215-1.551-0.215-1.285 0-2.473 0.414-3.449 1.105-0.375 0.285-0.645 0.527-0.816 0.691-0.02 0.02-0.031 0.043-0.051 0.063-0.563 0.586-1 1.285-1.293 2.059 0.316 0.188 0.629 0.344 0.91 0.477 0.234-0.68 0.621-1.293 1.109-1.809 4e-3 -8e-3 0.02-0.027 0.031-0.039 0.023-0.027 0.047-0.059 0.082-0.09 8e-3 -0.012 0.02-0.012 0.031-0.023 0.348-0.305 0.621-0.504 0.824-0.637 0.102-0.063 0.207-0.125 0.313-0.18 0.691-0.367 1.469-0.578 2.309-0.578 0.5 0 0.988 0.074 1.445 0.215-0.305 1.461-1.238 2.68-2.516 3.363-0.199-0.844-0.57-1.629-1.086-2.293-0.43 0.301-0.797 0.605-0.824 0.629 0.422 0.539 0.734 1.168 0.906 1.855 0 0 0.02 0.07 0.051 0.203 0.012 0.063 0.023 0.102 0.047 0.227 0.063 0.313 0.055 0.672 0.051 0.816v0.102l-0.012 0.016c-0.039 1.352-0.609 2.563-1.512 3.438-0.934-0.902-1.52-2.168-1.523-3.578 0.5 0.137 1.023 0.215 1.563 0.215 0.293 0 0.586-0.031 0.867-0.074 0.016-0.102 0.023-0.219 0.031-0.395 0.012-0.313-0.027-0.527-0.059-0.648-0.273 0.047-0.555 0.07-0.836 0.07-0.504 0-0.992-0.074-1.453-0.211-0.363-0.074-0.707-0.254-0.957-0.41-0.141-0.086-0.234-0.148-0.285-0.18-1.098-0.711-1.906-1.832-2.176-3.164 0.441-0.129 0.906-0.203 1.391-0.203 0.707 0 1.371 0.148 1.977 0.418 0.297-0.281 0.656-0.563 0.859-0.719-0.844-0.461-1.809-0.73-2.836-0.73"/>
    </g>
   </g>
  </g>
 </g>
 <path d="m17.273 13c-0.77549 0-1.0769 0.41934-1.1953 1h-3.0781v9h22v-9h-12.08c-0.11817-0.5814-0.41702-1-1.1934-1z" style="fill:#ea8e36"/>
 <path d="m15 15v12h17v-12h-17z" style="fill:#d6d6d7"/>
 <path d="m16 16v4h18v-4h-18z" style="fill:#95959c"/>
 <path d="m17 17v12h16v-12h-16z" style="fill:#f9f9f9"/>
 <path d="m11 18 2 14h22l2-14h-26z" style="fill:#f2b962"/>
 <g transform="translate(3.0004 3)" style="opacity:.1">
  <path d="m28 18a5 5 0 0 0-5 5 5 5 0 0 0 5 5 5 5 0 0 0 5-5 5 5 0 0 0-5-5zm0 1a3.5 3.5 0 0 1 3.5 3.5 3.5 3.5 0 0 1-3.5 3.5 3.5 3.5 0 0 1-3.5-3.5 3.5 3.5 0 0 1 3.5-3.5"/>
 </g>
 <g transform="translate(3,2)">
  <path transform="translate(-3,-2)" d="m31 20a5 5 0 0 0-5 5h-0.83203c-0.64652 0-1.168 0.52145-1.168 1.168v7.6641c0 0.64652 0.52145 1.168 1.168 1.168h11.664c0.64652 0 1.168-0.52145 1.168-1.168v-7.6641c0-0.64652-0.52145-1.168-1.168-1.168h-0.83203a5 5 0 0 0-5-5zm0 1a3.5 3.5 0 0 1 3.5 3.5 3.5 3.5 0 0 1-0.041016 0.5h-6.9199a3.5 3.5 0 0 1-0.039062-0.5 3.5 3.5 0 0 1 3.5-3.5z" style="fill:#b3b3b3"/>
  <circle cx="28" cy="28" r="4" style="fill:#808080"/>
  <rect x="27" y="28" width="2" height="3" style="fill:#333"/>
  <circle cx="28" cy="27" r="2" style="fill:#333"/>
 </g>
</svg>
