<svg width="48" height="48" version="1.1" viewBox="0 0 13.547 13.547" xmlns="http://www.w3.org/2000/svg">
 <defs>
  <linearGradient id="linearGradient5286" x1="1" x2="47" gradientTransform="matrix(.28222 0 0 .28222 -13.547 .00062503)" gradientUnits="userSpaceOnUse">
   <stop style="stop-color:#6e6196" offset="0"/>
   <stop style="stop-color:#847baf" offset="1"/>
  </linearGradient>
 </defs>
 <path d="m0.28222 12.136v0.07056c0 0.6254 0.50348 1.1289 1.1289 1.1289h10.724c0.6254 0 1.1289-0.50348 1.1289-1.1289v-0.07056c0 0.6254-0.50348 1.1289-1.1289 1.1289h-10.724c-0.6254 0-1.1289-0.50348-1.1289-1.1289zm0 0.14111v0.14111c0 0.6254 0.50348 1.1289 1.1289 1.1289h10.724c0.6254 0 1.1289-0.50348 1.1289-1.1289v-0.14111c0 0.6254-0.50348 1.1289-1.1289 1.1289h-10.724c-0.6254 0-1.1289-0.50348-1.1289-1.1289z" style="opacity:.02"/>
 <path d="m0.28222 12.206v0.07056c0 0.6254 0.50348 1.1289 1.1289 1.1289h10.724c0.6254 0 1.1289-0.50348 1.1289-1.1289v-0.07056c0 0.6254-0.50348 1.1289-1.1289 1.1289h-10.724c-0.6254 0-1.1289-0.50348-1.1289-1.1289z" style="opacity:.05"/>
 <path d="m0.28222 12.136v0.07056c0 0.6254 0.50348 1.1289 1.1289 1.1289h10.724c0.6254 0 1.1289-0.50348 1.1289-1.1289v-0.07056c0 0.6254-0.50348 1.1289-1.1289 1.1289h-10.724c-0.6254 0-1.1289-0.50348-1.1289-1.1289z" style="opacity:.1"/>
 <rect transform="rotate(-90)" x="-13.264" y=".282" width="12.982" height="12.982" rx="1.129" style="fill:url(#linearGradient5286)"/>
 <path d="m0.28222 11.006v1.1289c0 0.6254 0.50348 1.1289 1.1289 1.1289h10.724c0.6254 0 1.1289-0.50348 1.1289-1.1289v-1.1289c0 0.6254-0.50348 1.1289-1.1289 1.1289h-10.724c-0.6254 0-1.1289-0.50348-1.1289-1.1289z" style="opacity:.1"/>
 <path transform="scale(.28223)" d="m11 19 2 14h22l1.998-14h-25.998z" style="opacity:.1"/>
 <path d="m4.8751 3.669c-0.21849 0-0.30333 0.11857-0.3368 0.28223h-0.86929v2.5401h6.209v-2.5401h-3.4094c-0.033325-0.16406-0.11786-0.28223-0.3368-0.28223z" style="fill:#ea8e36"/>
 <path d="m4.2329 4.2329v3.3873h4.7979v-3.3873z" style="fill:#d6d6d7"/>
 <path d="m4.5162 4.5162v1.1289h5.0796v-1.1289z" style="fill:#95959c"/>
 <path d="m4.7979 4.7979v3.3873h4.5162v-3.3873z" style="fill:#f9f9f9"/>
 <path d="m3.104 5.0801 0.56501 3.9507h6.209l0.56391-3.9507z" style="fill:#f2b962"/>
 <path d="m5.792 5.644c-0.146 0-0.287 0.02-0.421 0.054v-6e-3c-0.15 0.039-0.264 0.09-0.286 0.1v1e-3c-1e-4 0-3e-3 1e-4 -6e-3 2e-3 0.016 0.122 0.038 0.244 0.049 0.299 0.119 0.504 0.463 0.919 0.918 1.14-2e-3 0.034-6e-3 0.067-6e-3 0.102 0 0.465 0.187 0.886 0.488 1.194-2e-3 1e-4 2e-3 2e-3 0 3e-3 0.087 0.082 0.205 0.176 0.229 0.195 6e-3 3e-3 0.017 6e-3 0.02 0.011 0.1-0.088 0.19-0.184 0.213-0.209 0.301-0.308 0.488-0.729 0.488-1.194 0-0.032-6e-3 -0.063-6e-3 -0.095 0.463-0.214 0.813-0.629 0.937-1.135-2e-3 -1e-4 1e-4 -2e-3 0-3e-3 0.031-0.135 0.053-0.282 0.053-0.298-2e-3 -1e-4 -6e-3 -2e-3 -8e-3 -3e-3v-6e-3c-0.064-0.029-0.209-0.078-0.287-0.104v3e-3c-0.14-0.038-0.288-0.061-0.438-0.061-0.363 0-0.698 0.117-0.973 0.312-0.106 0.08-0.182 0.149-0.23 0.195-6e-3 6e-3 -9e-3 0.012-0.014 0.018-0.159 0.165-0.282 0.363-0.365 0.581 0.089 0.053 0.178 0.097 0.257 0.135 0.066-0.192 0.175-0.365 0.313-0.511 1e-4 -2e-3 6e-3 -8e-3 9e-3 -0.011 6e-3 -8e-3 0.013-0.017 0.023-0.025 2e-3 -3e-3 6e-3 -3e-3 9e-3 -6e-3 0.098-0.086 0.175-0.142 0.233-0.18 0.029-0.018 0.058-0.035 0.088-0.051 0.195-0.104 0.415-0.163 0.652-0.163 0.141 0 0.279 0.021 0.408 0.061-0.086 0.412-0.349 0.756-0.71 0.949-0.056-0.238-0.161-0.46-0.306-0.647-0.121 0.085-0.225 0.171-0.233 0.178 0.119 0.152 0.207 0.33 0.256 0.524 0 0 6e-3 0.02 0.014 0.057 3e-3 0.018 6e-3 0.029 0.013 0.064 0.018 0.088 0.016 0.19 0.014 0.23v0.029l-3e-3 5e-3c-0.011 0.382-0.172 0.723-0.427 0.97-0.264-0.255-0.429-0.612-0.43-1.01 0.141 0.039 0.289 0.061 0.441 0.061 0.083 0 0.165-9e-3 0.245-0.021 5e-3 -0.029 6e-3 -0.062 9e-3 -0.111 3e-3 -0.088-8e-3 -0.149-0.017-0.183-0.077 0.013-0.157 0.02-0.236 0.02-0.142 0-0.28-0.021-0.41-0.06-0.102-0.021-0.2-0.072-0.27-0.116-0.04-0.024-0.066-0.042-0.08-0.051-0.31-0.201-0.538-0.517-0.614-0.893 0.124-0.036 0.256-0.057 0.393-0.057 0.2 0 0.387 0.042 0.558 0.118 0.084-0.079 0.185-0.159 0.242-0.203-0.238-0.13-0.511-0.206-0.8-0.206" style="fill-opacity:.329"/>
</svg>
