<?xml version="1.0" encoding="UTF-8" standalone="no"?>
<!-- Created with Inkscape (http://www.inkscape.org/) -->

<svg
   xmlns:dc="http://purl.org/dc/elements/1.1/"
   xmlns:cc="http://creativecommons.org/ns#"
   xmlns:rdf="http://www.w3.org/1999/02/22-rdf-syntax-ns#"
   xmlns:svg="http://www.w3.org/2000/svg"
   xmlns="http://www.w3.org/2000/svg"
   xmlns:sodipodi="http://sodipodi.sourceforge.net/DTD/sodipodi-0.dtd"
   xmlns:inkscape="http://www.inkscape.org/namespaces/inkscape"
   width="64"
   height="64"
   id="svg2"
   version="1.1"
   inkscape:version="0.91 r"
   sodipodi:docname="pink-folder-ubuntu.svg"
   inkscape:export-filename="/media/Data/Main/Visuals/Icons/Numix/Desktop/repos/numix-wiki/Gjorgi/Numix-folders/48/New/folder-144.png"
   inkscape:export-xdpi="270"
   inkscape:export-ydpi="270">
  <defs
     id="defs4" />
  <sodipodi:namedview
     id="base"
     pagecolor="#ffffff"
     bordercolor="#666666"
     borderopacity="1.0"
     inkscape:pageopacity="0.0"
     inkscape:pageshadow="2"
     inkscape:zoom="9.8444993"
     inkscape:cx="21.870034"
     inkscape:cy="32.996282"
     inkscape:document-units="px"
     inkscape:current-layer="layer1"
     showgrid="true"
     inkscape:window-width="1280"
     inkscape:window-height="998"
     inkscape:window-x="0"
     inkscape:window-y="0"
     inkscape:window-maximized="1"
     showguides="true"
     inkscape:guide-bbox="true">
    <inkscape:grid
       type="xygrid"
       id="grid2985"
       empspacing="5"
       visible="true"
       enabled="true"
       snapvisiblegridlinesonly="true" />
  </sodipodi:namedview>
  <metadata
     id="metadata7">
    <rdf:RDF>
      <cc:Work
         rdf:about="">
        <dc:format>image/svg+xml</dc:format>
        <dc:type
           rdf:resource="http://purl.org/dc/dcmitype/StillImage" />
        <dc:title />
      </cc:Work>
    </rdf:RDF>
  </metadata>
  <g
     inkscape:label="Layer 1"
     inkscape:groupmode="layer"
     id="layer1"
     transform="translate(0,-988.3622)">
    <rect
       style="fill:#ec407a;fill-opacity:1;stroke:none"
       id="rect3757"
       width="52"
       height="20"
       x="6"
       y="1000.3622" />
    <path
       style="fill:#ec407a;fill-opacity:1;stroke:none"
       d="m 12,1000.3622 c 0,-2 0,-4 2.909091,-4 l 10.181819,0 c 2.90909,0 2.90909,2 2.90909,4 l 0,2 -16,0 z"
       id="path3759"
       inkscape:connector-curvature="0"
       sodipodi:nodetypes="ccccccc" />
    <path
       style="fill:#95989f;fill-opacity:1;stroke:none"
       d="m 10,1004.3622 44,0 0,9.9354 -44,0 z"
       id="path3765"
       inkscape:connector-curvature="0" />
    <rect
       y="1002.3622"
       x="14"
       height="25.999954"
       width="38"
       id="rect3763"
       style="fill:#d8d8da;fill-opacity:1;stroke:none" />
    <rect
       style="fill:#f9f9f9;fill-opacity:1;stroke:none"
       id="rect3761"
       width="38"
       height="25.999954"
       x="12"
       y="1006.3622" />
    <path
       style="fill:#f06292;fill-opacity:1;stroke:none"
       d="m 2,1008.3622 60,0 -4.285714,36 -51.428572,0 z"
       id="path2987"
       inkscape:connector-curvature="0"
       sodipodi:nodetypes="ccccc" />
    <path
       transform="translate(2,987.3622)"
       d="m 17,38 c 0,1.656854 -1.343146,3 -3,3 -1.656854,0 -3,-1.343146 -3,-3 0,-1.656854 1.343146,-3 3,-3 1.656854,0 3,1.343146 3,3 z"
       sodipodi:ry="3"
       sodipodi:rx="3"
       sodipodi:cy="38"
       sodipodi:cx="14"
       id="path3007"
       style="opacity:1.0;fill:#c64077;fill-opacity:1;stroke:none"
       sodipodi:type="arc" />
    <path
       style="opacity:1.0;fill:#c64077;fill-opacity:1;stroke:none"
       d="m 32,1013.3622 c -2.292014,0 -4.429897,0.6326 -6.25,1.75 l 2.96875,2.9688 c 1.001591,-0.4513 2.11141,-0.7188 3.28125,-0.7188 4.078288,0 7.443689,3.0556 7.9375,7 l 4,0 c -0.162454,-1.9196 -0.761202,-3.7254 -1.71875,-5.2812 -0.375707,0.1693 -0.779895,0.2812 -1.21875,0.2812 -1.656854,0 -3,-1.3431 -3,-3 0,-0.4389 0.111916,-0.843 0.28125,-1.2187 -1.826963,-1.1244 -3.978641,-1.7813 -6.28125,-1.7813 z m -7.84375,2.9688 c -1.878982,1.6382 -3.265889,3.8313 -3.84375,6.3437 0.995283,0.4882 1.6875,1.5041 1.6875,2.6875 0,1.1834 -0.692217,2.1993 -1.6875,2.6875 0.622565,2.7067 2.141743,5.0828 4.25,6.75 l 2.875,-2.875 C 25.362257,1030.4794 24,1028.0829 24,1025.3622 c 0,-2.5103 1.159812,-4.752 2.96875,-6.2187 l -2.8125,-2.8125 z m 15.78125,10.0312 c -0.493811,3.9444 -3.859212,7 -7.9375,7 -0.945788,0 -1.845306,-0.1987 -2.6875,-0.5 l -3.03125,3.0313 c 1.701923,0.9299 3.642787,1.4687 5.71875,1.4687 1.512741,0 2.948232,-0.2704 4.28125,-0.7812 C 36.111916,1036.2052 36,1035.8011 36,1035.3622 c 0,-1.6569 1.343146,-3 3,-3 0.804062,0 1.523858,0.3288 2.0625,0.8438 1.620473,-1.8708 2.659256,-4.2313 2.875,-6.8438 l -4,0 z"
       id="path3030"
       inkscape:connector-curvature="0" />
    <path
       sodipodi:type="arc"
       style="opacity:1.0;fill:#c64077;fill-opacity:1;stroke:none"
       id="path3046"
       sodipodi:cx="14"
       sodipodi:cy="38"
       sodipodi:rx="3"
       sodipodi:ry="3"
       d="m 17,38 c 0,1.656854 -1.343146,3 -3,3 -1.656854,0 -3,-1.343146 -3,-3 0,-1.656854 1.343146,-3 3,-3 1.656854,0 3,1.343146 3,3 z"
       transform="translate(29,976.3622)" />
    <path
       sodipodi:type="arc"
       style="opacity:1.0;fill:#c64077;fill-opacity:1;stroke:none"
       id="path3050"
       sodipodi:cx="14"
       sodipodi:cy="38"
       sodipodi:rx="3"
       sodipodi:ry="3"
       d="m 17,38 c 0,1.656854 -1.343146,3 -3,3 -1.656854,0 -3,-1.343146 -3,-3 0,-1.656854 1.343146,-3 3,-3 1.656854,0 3,1.343146 3,3 z"
       transform="translate(27,999.3622)" />
  </g>
</svg>
