<?xml version="1.0" encoding="UTF-8" standalone="no"?>
<svg
   xmlns:dc="http://purl.org/dc/elements/1.1/"
   xmlns:cc="http://creativecommons.org/ns#"
   xmlns:rdf="http://www.w3.org/1999/02/22-rdf-syntax-ns#"
   xmlns:svg="http://www.w3.org/2000/svg"
   xmlns="http://www.w3.org/2000/svg"
   xmlns:sodipodi="http://sodipodi.sourceforge.net/DTD/sodipodi-0.dtd"
   xmlns:inkscape="http://www.inkscape.org/namespaces/inkscape"
   viewBox="0 0 22 22"
   id="svg2"
   version="1.1"
   inkscape:version="0.91 r13725"
   sodipodi:docname="blue-folder-move.svg">
  <metadata
     id="metadata36">
    <rdf:RDF>
      <cc:Work
         rdf:about="">
        <dc:format>image/svg+xml</dc:format>
        <dc:type
           rdf:resource="http://purl.org/dc/dcmitype/StillImage" />
      </cc:Work>
    </rdf:RDF>
  </metadata>
  <defs
     id="defs34" />
  <sodipodi:namedview
     pagecolor="#ffffff"
     bordercolor="#666666"
     borderopacity="1"
     objecttolerance="10"
     gridtolerance="10"
     guidetolerance="10"
     inkscape:pageopacity="0"
     inkscape:pageshadow="2"
     inkscape:window-width="722"
     inkscape:window-height="480"
     id="namedview32"
     showgrid="false"
     inkscape:zoom="10.727273"
     inkscape:cx="11"
     inkscape:cy="11"
     inkscape:window-x="10"
     inkscape:window-y="34"
     inkscape:window-maximized="0"
     inkscape:current-layer="svg2" />
  <path
     d="m 2,3.4978 0,7 11,0 0,-3.5 -0.5,-3 -4,0 -0.5,-1 -5.5,0 c -0.25,0 -0.5,0.25 -0.5,0.5 z"
     style="fill:#ec407a;fill-opacity:1;stroke:none"
     id="path8"
     inkscape:connector-curvature="0" />
  <rect
     width="4"
     height="2.5"
     x="4"
     y="3.9977853"
     style="fill:#fffdf0;fill-opacity:1;stroke:none"
     id="rect10" />
  <path
     d="m 2.5,2.9978 c -0.25,0 -0.5,0.25 -0.5,0.5 l 0,1 c 0,-0.25 0.25,-0.5 0.5,-0.5 l 5.5,0 0.5,1 4,0 0.5,3 0,-1 -0.5,-3 -4,0 -0.5,-1 -5.5,0 z"
     style="opacity:0.01499999;fill:#000000;fill-opacity:1;stroke:none"
     id="path12"
     inkscape:connector-curvature="0" />
  <path
     d="m 13,4.5378 0,7.467 -11,0 0,-7 5.5,0 0.5,-1 4.5,0 c 0.25,0 0.5,0.267 0.5,0.533 z"
     style="fill:#f06292;fill-opacity:1;stroke:none"
     id="path14"
     inkscape:connector-curvature="0" />
  <path
     d="m 2,10.9978 0,1 11,0 0,-1 z"
     style="opacity:0.075;fill:#000000;fill-opacity:1;stroke:none"
     id="path16"
     inkscape:connector-curvature="0" />
  <path
     d="m 8,3.9978 -0.5,1 -5.5,0 0,1 6.25,0 0.5,-1 3.75,0 c 0.25,0 0.5,0.265 0.5,0.531 l 0,-1 c 0,-0.267 -0.25,-0.531 -0.5,-0.531 z"
     style="opacity:0.01499999;fill:#000000;fill-opacity:1;stroke:none"
     id="path18"
     inkscape:connector-curvature="0" />
  <path
     style="fill:#ffffff;fill-opacity:1;stroke:none;opacity:0.5"
     d="M 2.5 2.9980469 C 2.25 2.9980469 2 3.2480469 2 3.4980469 L 2 4.4980469 L 2 4.9980469 L 2 5.9980469 L 2 10.498047 L 2 10.998047 L 2 11.998047 L 2 12.003906 L 13 12.003906 L 13 11.998047 L 13 10.998047 L 13 10.498047 L 13 7.9980469 L 13 6.9980469 L 13 5.5292969 L 13 4.5292969 C 13 4.2622969 12.75 3.9980469 12.5 3.9980469 L 8.5 3.9980469 L 8 2.9980469 L 2.5 2.9980469 z "
     id="path4179" />
  <path
     inkscape:connector-curvature="0"
     id="path20"
     style="fill:#ec407a;fill-opacity:1;stroke:none"
     d="m 9,10.4978 0,7 11,0 0,-3.5 -0.5,-3 -4,0 -0.5,-1 -5.5,0 c -0.25,0 -0.5,0.25 -0.5,0.5 z" />
  <rect
     id="rect22"
     style="fill:#fffdf0;fill-opacity:1;stroke:none"
     y="10.997786"
     x="11"
     height="2.5"
     width="4" />
  <path
     inkscape:connector-curvature="0"
     id="path24"
     style="opacity:0.02999998;fill:#000000;fill-opacity:1;stroke:none"
     d="m 9.5,9.9978 c -0.25,0 -0.5,0.25 -0.5,0.5 l 0,1 c 0,-0.25 0.25,-0.5 0.5,-0.5 l 5.5,0 0.5,1 4,0 0.5,3 0,-1 -0.5,-3 -4,0 -0.5,-1 -5.5,0 z" />
  <path
     inkscape:connector-curvature="0"
     id="path26"
     style="fill:#f06292;fill-opacity:1;stroke:none"
     d="m 20,11.5378 0,7.467 -11,0 0,-7 5.5,0 0.5,-1 4.5,0 c 0.25,0 0.5,0.267 0.5,0.533 z" />
  <path
     inkscape:connector-curvature="0"
     id="path28"
     style="opacity:0.15;fill:#000000;fill-opacity:1;stroke:none"
     d="m 9,17.9978 0,1 11,0 0,-1 z" />
  <path
     inkscape:connector-curvature="0"
     id="path30"
     style="opacity:0.02999998;fill:#000000;fill-opacity:1;stroke:none"
     d="m 15,10.9978 -0.5,1 -5.5,0 0,1 6.25,0 0.5,-1 3.75,0 c 0.25,0 0.5,0.265 0.5,0.531 l 0,-1 c 0,-0.267 -0.25,-0.531 -0.5,-0.531 z" />
</svg>
