<svg xmlns="http://www.w3.org/2000/svg" viewBox="0 0 48 48">
 <defs>
  <linearGradient id="linearGradient5286" gradientUnits="userSpaceOnUse" gradientTransform="translate(-48.000001,0.00221406)" x1="1" x2="47">
   <stop style="stop-color:#3e6d94;stop-opacity:1"/>
   <stop offset="1" style="stop-color:#4476a2;stop-opacity:1"/>
  </linearGradient>
 </defs>
 <g>
  <path d="m 1,43 0,0.25 c 0,2.216 1.784,4 4,4 l 38,0 c 2.216,0 4,-1.784 4,-4 L 47,43 c 0,2.216 -1.784,4 -4,4 L 5,47 C 2.784,47 1,45.216 1,43 z m 0,0.5 0,0.5 c 0,2.216 1.784,4 4,4 l 38,0 c 2.216,0 4,-1.784 4,-4 l 0,-0.5 c 0,2.216 -1.784,4 -4,4 l -38,0 c -2.216,0 -4,-1.784 -4,-4 z" style="opacity:0.02"/>
  <path d="m 1 43.25 0 0.25 c 0 2.216 1.784 4 4 4 l 38 0 c 2.216 0 4 -1.784 4 -4 l 0 -0.25 c 0 2.216 -1.784 4 -4 4 l -38 0 c -2.216 0 -4 -1.784 -4 -4 z" style="opacity:0.05"/>
  <path d="m 1,43 0,0.25 c 0,2.216 1.784,4 4,4 l 38,0 c 2.216,0 4,-1.784 4,-4 L 47,43 c 0,2.216 -1.784,4 -4,4 L 5,47 C 2.784,47 1,45.216 1,43 z" style="opacity:0.1"/>
 </g>
 <rect transform="matrix(0,-1,1,0,0,0)" rx="4" y="1" x="-47" height="46" width="46" style="fill:url(#linearGradient5286);fill-opacity:1"/>
 <g>
  <g transform="translate(0,-1004.3622)">
   <path d="m 1 1043.36 0 4 c 0 2.216 1.784 4 4 4 l 38 0 c 2.216 0 4 -1.784 4 -4 l 0 -4 c 0 2.216 -1.784 4 -4 4 l -38 0 c -2.216 0 -4 -1.784 -4 -4 z" style="opacity:0.1"/>
  </g>
 </g>
 <g transform="matrix(3.543307,0,0,3.543307,1.752231e-7,1.0000001)" style="fill:#000;opacity:0.1;fill-opacity:1">
  <path d="m 3.387 4.233 0 3.951 6.491 0 0 -1.976 -0.282 -1.693 -2.54 0 -0.282 -0.564 -3.104 0 c -0.141 0 -0.282 0.141 -0.282 0.282 z" style="fill:#000;stroke:none"/>
  <path d="m 10.16 4.817 0 4.215 -6.773 0 0 -3.951 3.387 0 0.282 -0.564 2.822 0 c 0.141 0 0.282 0.151 0.282 0.301 z" style="fill:#000;stroke:none"/>
 </g>
 <path d="m 12 15 0 14 23 0 0 -7 l -1 -6 -9 0 -1 -2 -11 0 c -0.5 0 -1 0.5 -1 1 z" style="fill:#ff8f00;fill-opacity:1;stroke:none"/>
 <rect width="11" height="4" x="14" y="17" style="fill:#fffdf0;fill-opacity:1;stroke:none"/>
 <path d="m 36 17.07 0 14.933 l -24 0 l 0 -14 12 0 1 -2 10 0 c 0.5 0 1 0.533 1 1.067 z" style="fill:#ffca28;fill-opacity:1;stroke:none"/>
 <path d="m 25.488,20.375 c 0,0.762 -0.637,1.375 -1.422,1.375 -0.785,0 -1.418,-0.613 -1.418,-1.375 0,-0.758 0.633,-1.371 1.418,-1.371 0.785,0 1.422,0.613 1.422,1.371 m 3.547,1.465 c -0.066,0.008 -0.129,0.035 -0.18,0.07 L 24,22.644 19.172,21.902 c -0.125,-0.09 -0.297,-0.113 -0.438,-0.051 -0.141,0.066 -0.23,0.223 -0.234,0.367 0,0.148 0.098,0.273 0.234,0.34 l 3.781,1.16 -0.027,2.668 -1.332,3.988 c -0.129,0.18 -0.09,0.414 0.102,0.535 0.195,0.121 0.465,0.086 0.598,-0.098 l 2.152,-4.305 2.113,4.297 c 0.113,0.188 0.371,0.254 0.57,0.145 0.199,-0.105 0.27,-0.352 0.152,-0.539 l -1.309,-4.01 -0.051,-2.508 3.836,-1.348 c 0.152,-0.105 0.223,-0.297 0.156,-0.465 -0.066,-0.168 -0.254,-0.262 -0.441,-0.242 m 0,-0.004" style="fill:#403018;opacity:0.4;fill-opacity:1;stroke:none;fill-rule:nonzero"/>
</svg>
