<svg version="1.1" viewBox="0 0 24 24" xmlns="http://www.w3.org/2000/svg">
 <g transform="translate(0,-1028.3622)">
  <path d="m3 1031.36h17c1 0 2 1 2 2v4c0 1.108-0.446 2-1 2h-18c-0.554 0-1-0.892-1-2v-6z" style="fill:#1976d2"/>
  <path d="m2 1033.36v5h20v-5z" style="opacity:.03"/>
  <rect x="1" y="1034.36" width="22" height="17" rx="2" style="fill:#42a5f5"/>
  <path d="m2 1032.36v-1c0-1 0-2 1-2h4c1 0 1 1 1 2v1z" style="fill:#1976d2"/>
  <path d="m8 1031.36v1h1 11c1 0 2 1 2 2v-1c0-1-1-2-2-2h-11z" style="opacity:.05"/>
  <path d="m3 1029.36c-1 0-1 1-1 2v0.25c0.047-0.703 0.25-1.25 1-1.25h4c0.75 0 0.953 0.547 1 1.25v-0.25c0-1 0-2-1-2h-4z" style="opacity:.05"/>
  <path d="m3 1034.36c-0.742 0-1.373 0.403-1.719 1h21.438c-0.345-0.597-0.977-1-1.719-1h-18z" style="fill:#fff;opacity:.1"/>
  <path d="m12.097656 1039.3634a4.0000852 3.9999996 0 0 0-2.925781 1.1699 4.0000852 3.9999996 0 0 0-0.8671875 4.3594 4.0000852 3.9999996 0 0 0 3.6953125 2.4687h4v-1h-4a3.0000642 3 0 0 1-2.7714844-1.8515 3.0000642 3 0 0 1 0.6503906-3.2696 3.0000642 3 0 0 1 3.1210938-0.6972v-1.0508a4.0000852 3.9999996 0 0 0-0.902344-0.1289zm-0.097656 1.998a2.0000427 1.9999999 0 0 0-2 2 2.0000427 1.9999999 0 0 0 2 2h4v-1h-4a1.0000213 0.99999993 0 0 1-0.923828-0.6171 1.0000213 0.99999993 0 0 1 0.216797-1.0899 1.0000213 0.99999993 0 0 1 0.707031-0.2871v-0.01h1.732422a2.0000427 1.9999999 0 0 0-1.732422-1z" style="-inkscape-stroke:none;fill:#2a74b9;font-variation-settings:normal;stop-color:#000000"/>
 </g>
</svg>
