<svg xmlns="http://www.w3.org/2000/svg" viewBox="0 0 24 24">
 <g transform="translate(0,-1028.3622)">
  <path d="m 3 1031.36 17 0 c 1 0 2 1 2 2 l 0 4 c 0 1.108 -0.446 2 -1 2 l -18 0 c -0.554 0 -1 -0.892 -1 -2 l 0 -6 z" style="fill:#757575;fill-opacity:1;stroke:none"/>
  <path d="m 2 1033.36 0 5 20 0 0 -5 z" style="fill:#000;opacity:0.03;fill-opacity:1;stroke:none"/>
  <rect width="22" height="17" x="1" y="1034.36" rx="2" style="fill:#bdbdbd;fill-opacity:1;stroke:none"/>
  <path d="m 2 1032.36 0 -1 c 0 -1 0 -2 1 -2 l 4 0 c 1 0 1 1 1 2 l 0 1 z" style="fill:#757575;fill-opacity:1;stroke:none"/>
  <path d="m 8 1031.36 0 1 1 0 11 0 c 1 0 2 1 2 2 l 0 -1 c 0 -1 -1 -2 -2 -2 l -11 0 z" style="fill:#000;opacity:0.05;fill-opacity:1;stroke:none"/>
  <path d="m 3 1029.36 c -1 0 -1 1 -1 2 l 0 0.25 c 0.047 -0.703 0.25 -1.25 1 -1.25 l 4 0 c 0.75 0 0.953 0.547 1 1.25 l 0 -0.25 c 0 -1 0 -2 -1 -2 l -4 0 z" style="fill:#000;opacity:0.05;fill-opacity:1;stroke:none"/>
  <path d="m 3 1034.36 c -0.742 0 -1.373 0.403 -1.719 1 l 21.438 0 c -0.345 -0.597 -0.977 -1 -1.719 -1 l -18 0 z" style="fill:#fff;opacity:0.1;fill-opacity:1;stroke:none"/>
  <path d="m 8 1038.36 c -0.554 0 -1 0.446 -1 1 l 0 1 2 0 0 -2 -1 0 z m 3 0 0 2 2 0 0 -2 -2 0 z m 4 0 0 2 2 0 0 -1 c 0 -0.554 -0.446 -1 -1 -1 l -1 0 z m -8 4 0 2 2 0 0 -2 -2 0 z m 8 0 0 2 2 0 0 -2 -2 0 z m -8 4 0 1 c 0 0.554 0.446 1 1 1 l 1 0 0 -2 -2 0 z m 4 0 0 2 2 0 0 -2 -2 0 z m 4 0 0 2 1 0 c 0.554 0 1 -0.446 1 -1 l 0 -1 -2 0 z" style="fill:#7f7f7f;opacity:1;fill-opacity:1;stroke:none"/>
 </g>
</svg>
