<svg xmlns="http://www.w3.org/2000/svg" viewBox="0 0 24 24">
 <g transform="translate(0,-1028.3622)">
  <path d="m 4 1028.36 16 0 c 1 0 2 1 2 2 l 0 8 c 0 1.108 -0.446 2 -1 2 l -18 0 c -0.554 0 -1 -0.892 -1 -2 l 0 -8 c 0 -1 1 -2 2 -2 z" style="fill:#512da8;fill-opacity:1;stroke:none"/>
  <rect width="22" height="17" x="1" y="1035.36" rx="2" style="fill:#7e57c2;fill-opacity:1;stroke:none"/>
  <path d="m 3 1035.36 c -1.108 0 -2 0.892 -2 2 l 0 1 c 0 -1.108 0.892 -2 2 -2 l 18 0 c 1.108 0 2 0.892 2 2 l 0 -1 c 0 -1.108 -0.892 -2 -2 -2 l -18 0 z" style="fill:#fff;opacity:0.1;fill-opacity:1;stroke:none"/>
  <path d="M 4 0 C 3 0 2 1 2 2 L 2 3 C 2 2 3 1 4 1 L 20 1 C 21 1 22 2 22 3 L 22 2 C 22 1 21 0 20 0 L 4 0 z " transform="translate(0,1028.3622)" style="fill:#000;opacity:0.05;fill-opacity:1;stroke:none"/>
 </g>
</svg>
