<svg xmlns="http://www.w3.org/2000/svg" viewBox="0 0 24 24">
 <g transform="translate(0,-1028.3622)">
  <path d="m 3 1031.36 17 0 c 1 0 2 1 2 2 l 0 4 c 0 1.108 -0.446 2 -1 2 l -18 0 c -0.554 0 -1 -0.892 -1 -2 l 0 -6 z" style="fill:#d32f2f;fill-opacity:1;stroke:none"/>
  <path d="m 2 1033.36 0 5 20 0 0 -5 z" style="fill:#000;opacity:0.03;fill-opacity:1;stroke:none"/>
  <rect width="22" height="17" x="1" y="1034.36" rx="2" style="fill:#ef5350;fill-opacity:1;stroke:none"/>
  <path d="m 2 1032.36 0 -1 c 0 -1 0 -2 1 -2 l 4 0 c 1 0 1 1 1 2 l 0 1 z" style="fill:#d32f2f;fill-opacity:1;stroke:none"/>
  <path d="m 8 1031.36 0 1 1 0 11 0 c 1 0 2 1 2 2 l 0 -1 c 0 -1 -1 -2 -2 -2 l -11 0 z" style="fill:#000;opacity:0.05;fill-opacity:1;stroke:none"/>
  <path d="m 3 1029.36 c -1 0 -1 1 -1 2 l 0 0.25 c 0.047 -0.703 0.25 -1.25 1 -1.25 l 4 0 c 0.75 0 0.953 0.547 1 1.25 l 0 -0.25 c 0 -1 0 -2 -1 -2 l -4 0 z" style="fill:#000;opacity:0.05;fill-opacity:1;stroke:none"/>
  <path d="m 3 1034.36 c -0.742 0 -1.373 0.403 -1.719 1 l 21.438 0 c -0.345 -0.597 -0.977 -1 -1.719 -1 l -18 0 z" style="fill:#fff;opacity:0.1;fill-opacity:1;stroke:none"/>
  <path d="m 12 1038.36 c -0.554 0 -1 0.446 -1 1 l 0 4 -1.531 0 c -0.632 0 -0.632 -0.01 0 0.625 l 1.906 1.906 c 0.632 0.632 0.618 0.632 1.25 0 l 1.906 -1.906 c 0.632 -0.632 0.632 -0.625 0 -0.625 l -1.531 0 0 -4 c 0 -0.554 -0.446 -1 -1 -1 z m -4.625 4 c -0.209 0 -0.375 0.223 -0.375 0.5 l 0 5 c 0 0.069 0.012 0.128 0.031 0.188 0.009 0.023 0.019 0.041 0.031 0.062 0.016 0.034 0.041 0.066 0.063 0.094 0.054 0.071 0.109 0.107 0.188 0.125 0.021 0 0.04 0.031 0.063 0.031 l 0.125 0 0.125 0 8.875 0 c 0.199 0 0.388 -0.113 0.469 -0.281 0.003 -0.01 -0.003 -0.023 0 -0.031 0.025 -0.06 0.031 -0.118 0.031 -0.188 l 0 -5 c 0 -0.277 -0.223 -0.5 -0.5 -0.5 -0.277 0 -0.5 0.223 -0.5 0.5 l 0 4.5 -8 0 0 -4.5 c 0 -0.277 -0.166 -0.5 -0.375 -0.5 l -0.25 0 z" style="fill:#ab3634;opacity:1;fill-opacity:1;stroke:none"/>
 </g>
</svg>
