<?xml version="1.0" encoding="UTF-8" standalone="no"?>
<!-- Created with Inkscape (http://www.inkscape.org/) -->

<svg
   xmlns:dc="http://purl.org/dc/elements/1.1/"
   xmlns:cc="http://creativecommons.org/ns#"
   xmlns:rdf="http://www.w3.org/1999/02/22-rdf-syntax-ns#"
   xmlns:svg="http://www.w3.org/2000/svg"
   xmlns="http://www.w3.org/2000/svg"
   xmlns:xlink="http://www.w3.org/1999/xlink"
   xmlns:sodipodi="http://sodipodi.sourceforge.net/DTD/sodipodi-0.dtd"
   xmlns:inkscape="http://www.inkscape.org/namespaces/inkscape"
   width="48"
   height="48"
   id="svg2"
   version="1.1"
   inkscape:version="0.91 r"
   sodipodi:docname="custom-network.svg">
  <defs
     id="defs4">
    <linearGradient
       id="linearGradient3886">
      <stop
         style="stop-color:#000000;stop-opacity:1;"
         offset="0"
         id="stop3888" />
      <stop
         style="stop-color:#000000;stop-opacity:0.19607843;"
         offset="1"
         id="stop3890" />
    </linearGradient>
    <radialGradient
       r="24"
       fy="40.5"
       fx="24"
       cy="40.5"
       cx="24"
       gradientTransform="matrix(1.25,0,0,0.20833327,-6,1035.9247)"
       gradientUnits="userSpaceOnUse"
       id="radialGradient3208"
       xlink:href="#linearGradient3886"
       inkscape:collect="always" />
  </defs>
  <sodipodi:namedview
     id="base"
     pagecolor="#ffffff"
     bordercolor="#666666"
     borderopacity="1.0"
     inkscape:pageopacity="0.0"
     inkscape:pageshadow="2"
     inkscape:zoom="6.2323626"
     inkscape:cx="-0.76665779"
     inkscape:cy="22.097441"
     inkscape:document-units="px"
     inkscape:current-layer="layer1"
     showgrid="true"
     inkscape:window-width="1280"
     inkscape:window-height="998"
     inkscape:window-x="0"
     inkscape:window-y="0"
     inkscape:window-maximized="1">
    <inkscape:grid
       type="xygrid"
       id="grid2990"
       empspacing="5"
       visible="true"
       enabled="true"
       snapvisiblegridlinesonly="true" />
  </sodipodi:namedview>
  <metadata
     id="metadata7">
    <rdf:RDF>
      <cc:Work
         rdf:about="">
        <dc:format>image/svg+xml</dc:format>
        <dc:type
           rdf:resource="http://purl.org/dc/dcmitype/StillImage" />
        <dc:title />
      </cc:Work>
    </rdf:RDF>
  </metadata>
  <g
     inkscape:label="Body"
     inkscape:groupmode="layer"
     id="layer1"
     transform="translate(0,-1004.3622)">
    <path
       inkscape:connector-curvature="0"
       style="opacity:0.1;fill:url(#radialGradient3208);fill-opacity:1;stroke:none"
       d="m 24,1039.3622 c -9.826549,0 -18.52797,0.7831 -24,2 l 0,6 c 5.47203,1.2169 14.173451,2 24,2 9.826549,0 18.52797,-0.7831 24,-2 l 0,-6 c -5.47203,-1.2169 -14.173451,-2 -24,-2 z"
       id="path3868" />
    <rect
       style="fill:replacecolour2;fill-opacity:1;stroke:none"
       id="rect2987"
       width="46"
       height="32.000019"
       x="1"
       y="1014.3622"
       rx="5"
       ry="5" />
    <path
       style="opacity:0.2;fill:#ffffff;fill-opacity:1;stroke:none"
       d="m 6,1014.3622 c -2.77,0 -5,2.23 -5,5 l 0,2 c 0,-2.77 2.23,-5 5,-5 l 36,0 c 2.77,0 5,2.23 5,5 l 0,-2 c 0,-2.77 -2.23,-5 -5,-5 l -36,0 z"
       id="rect3797"
       inkscape:connector-curvature="0" />
    <path
       style="fill:replacecolour1;fill-opacity:1;stroke:none"
       d="m 6,1022.3622 8,0 c 11,-1 9,-12 16,-12 l 12,0 c 2.77,0 5,2.23 5,5 l 0,26 c 0,2.77 -2.23,5 -5,5 l -36,0 c -2.77,0 -5,-2.23 -5,-5 l 0,-14 c 0,-3 2,-5 5,-5 z"
       id="rect3776"
       inkscape:connector-curvature="0"
       sodipodi:nodetypes="cccsssssscc" />
    <path
       style="opacity:0.15;fill:#000000;fill-opacity:1;stroke:none"
       d="m 1,1039.3622 0,2 c 0,2.77 2.23,5 5,5 l 36,0 c 2.77,0 5,-2.23 5,-5 l 0,-2 c 0,2.77 -2.23,5 -5,5 l -36,0 c -2.77,0 -5,-2.23 -5,-5 z"
       id="path3786"
       inkscape:connector-curvature="0" />
    <path
       inkscape:connector-curvature="0"
       style="line-height:normal;color:#000000;fill:#000000;fill-opacity:0.09803922"
       d="M 12.125251,1027.3622 C 9.13951,1027.3622 6,1030.5019 6,1034.3623 c 0,3.8603 3.139514,6.9999 6.125251,6.9999 4.735235,0 7.874749,-3.1396 7.874749,-6.9999 0,-3.8604 -3.139509,-7.0001 -7,-7.0001 z m 1.443498,0.9846 c 0.652466,0.06 1.284638,0.2093 1.859376,0.4593 -0.04424,0.055 -0.07844,0.1038 -0.109372,0.1969 -0.176778,0.5302 -0.440609,0.2775 -0.131253,0.9404 0.309359,0.6628 0.567862,0.8342 0.656249,0.5249 0.0884,-0.3092 -0.222302,-0.7455 0.131251,-0.5687 0.353555,0.1768 0.615166,-0.048 0.35,0.3503 -0.265165,0.3977 -0.25939,0.6133 -0.568749,0.5248 -0.30936,-0.089 -0.30314,0.5242 -0.612501,0.6126 -0.309358,0.088 -0.415624,-0.1334 -0.415624,0.088 0,0.2208 0.175443,0.018 0.131252,0.3719 -0.01347,0.1082 -0.0095,0.1275 -0.02187,0.1749 -0.29039,-0.083 -0.419903,-0.1292 -0.634375,-0.045 -0.220971,0.089 -0.48125,0.6564 -0.48125,0.6564 0.276036,0.276 0.404109,0.4747 0.503125,0.5688 -0.06178,0.031 -0.13611,0.044 -0.196875,0.088 -0.441943,0.3095 -0.786169,0.3677 -0.91875,0.8093 -0.132585,0.4423 -0.08749,0.038 -0.08749,0.5687 0,0.5305 -0.133918,0.1701 0.131251,0.6565 0.265165,0.4861 0.91564,0.719 1.224998,0.9842 0.309361,0.2651 0.628158,-0.5768 1.246875,0.2189 0.618719,0.7954 0.658473,0.4767 0.437501,0.9188 -0.220972,0.442 -0.436612,0.5888 -0.524999,0.7656 -0.08839,0.1767 0.17189,0.7862 0.48125,0.9186 0.0065,0 0.01495,0 0.02188,0 -0.01647,0.038 -0.02742,0.072 -0.04376,0.1097 -0.400604,0.1819 -0.891688,0.4329 -0.984376,0.4592 -0.21875,0.063 -0.990625,0.1936 -1.553124,0.3499 -0.07032,0.02 -0.125664,0.02 -0.153125,0.023 0.06993,-0.076 0.622836,-0.3652 0.896874,-0.5248 0.375002,-0.2192 -0.02187,-0.197 -0.02187,-0.197 0,0 -0.596875,-0.067 -1.815624,-0.067 -0.609376,0 -0.873437,0.027 -1.00625,0.067 -0.0664,0.02 -0.09903,0.039 -0.131251,0.066 -0.03223,0.027 -0.05469,0.056 -0.109374,0.088 -0.218752,0.125 0.128121,0.2562 -0.153124,0.3499 -0.210936,0.07 -0.235449,0 -0.415624,-0.1319 0.128526,-0.1278 0.305885,-0.2818 0.524999,-0.547 0.397748,-0.4811 0.523668,-0.3935 0.656249,-0.831 0.132586,-0.4377 -1.115623,-0.3062 -1.115623,-0.5688 0,-0.2625 -0.214754,-0.4374 -0.6125,-0.6125 -0.397748,-0.1751 -0.126813,-0.2626 -0.568751,-0.3938 -0.44194,-0.1308 -0.939291,0.6561 -1.071874,0.3938 -0.132585,-0.2626 0.415625,-0.2626 0.415625,-0.5687 0,-0.2989 -0.630318,0.2256 -0.743752,-0.1531 -0.003,-0.014 -0.01966,-0.014 -0.02188,-0.023 -0.01109,-0.055 -0.0039,-0.088 0,-0.1308 0.02781,-0.3146 0.392196,-0.4374 0.546876,-0.7438 0.176778,-0.3496 0.08528,0.2628 0.30625,0.5689 0.220972,0.3063 0.132587,-0.3937 0,-0.7875 -0.132584,-0.3939 0.08439,-0.3937 0.393751,-0.9187 0.309359,-0.5251 0.30625,-0.8313 0.30625,-1.2251 0,-0.3937 0.214309,-0.4372 0.656249,-0.8313 0.202558,-0.1802 0.361475,-0.3375 0.48125,-0.4811 0.02895,-0.014 0.05821,-0.014 0.0875,-0.023 0.468752,-0.1876 0.665625,-0.4687 1.071875,-1.3126 0.406252,-0.8435 -0.159374,-0.056 -0.284375,-0.087 -0.125002,-0.031 -0.30625,-0.2531 -0.74375,-0.5032 -0.09023,-0.052 -0.170753,-0.076 -0.240625,-0.087 l 0.809376,-1.3344 c 0.259258,-0.07 0.537612,-0.1179 0.809374,-0.1532 0.09943,0.5658 0.04376,1.0939 0.04376,1.0939 0,0 -0.153125,0.1812 -0.153125,0.3062 0,0.125 0.8375,-1.0312 0.9625,-1.0937 0.125003,-0.063 0.440624,0.3312 0.503124,-0.2625 0.0035,-0.034 -0.0039,-0.035 0,-0.066 z m 1.18125,2.3624 c -0.04488,-0.014 -0.09789,-10e-5 -0.153123,0.023 0,0.1547 -0.05988,0.2672 -0.08749,0.3281 -0.01643,-0.028 -0.06563,-0.066 -0.06563,-0.066 -0.06628,0.1223 -0.209258,0.2301 -0.06563,0.1969 0.143631,-0.032 0.252562,0.056 0.153126,-0.066 -0.01912,-0.023 -0.01011,-0.013 -0.02188,-0.023 0.01863,0.014 0.05391,0.023 0.131251,0.023 0.08702,0 0.133793,0 0.196874,0 -0.106691,0.079 -0.223066,0.1123 -0.06563,0.1531 0.209922,0.055 0.30625,0.066 0.30625,0.023 0,-0.044 -0.06562,-0.1969 -0.06562,-0.1969 0.04101,-0.017 0.07911,-0.038 0.04376,-0.1096 -0.06629,-0.1319 -0.171597,-0.2636 -0.306252,-0.2843 z m 3.346876,0.3717 c 0.109302,0.1698 0.214008,0.3444 0.306251,0.5251 -0.06085,0.3529 -0.215378,0.5907 0.04376,0.5907 0.07245,0 0.137078,-0.016 0.196875,-0.023 0.0081,0.021 0.01404,0.045 0.02188,0.066 -0.441944,0 -0.65403,0.1322 -0.875001,0.088 -0.220972,-0.045 -0.835247,-0.084 -0.4375,-0.4811 0.232466,-0.2326 0.522859,-0.6019 0.74375,-0.7658 z m -2.75625,0.8096 c 0.04073,0.013 0.07624,0.055 0.109373,0.1305 0.132586,0.3095 0.351777,0.5684 0.175001,0.6126 -0.176778,0.044 -0.262502,0.088 -0.262502,0.088 0,0 0.612057,0.398 0.656251,-0.044 0.0442,-0.4422 -0.175,-0.7003 -0.175,-0.7003 0,0 0.305363,0.3046 0.39375,0.4814 0.0884,0.1768 0.08528,0 0.306251,0.2189 0.22097,0.2207 0.17189,-0.8783 0.48125,-0.5689 0.30936,0.3094 0.504014,0.3041 0.415624,0.525 -0.08839,0.2209 0.568752,-0.2669 0.568752,0.175 0,0.426 0.271718,0.5989 -0.2625,0.8094 -0.202261,-0.014 -0.36235,-0.048 -0.393752,-0.1096 -0.08839,-0.1766 -0.590624,-0.044 -0.590624,-0.044 -1.322052,-0.3304 -1.896002,-0.4351 -2.275001,-0.3718 0.0072,-0.014 0.01412,-0.014 0.02188,-0.023 0.19335,-0.3483 0.557136,-0.8318 0.4375,-1.0063 0.168499,-0.097 0.300583,-0.2034 0.39375,-0.1751 z m 3.71875,2.2092 c 0.0039,0.089 0,0.1728 0,0.2626 0,0.2488 -0.01492,0.5028 -0.04376,0.7436 -0.397609,-0.3537 -0.962501,-0.3499 -0.962501,-0.3499 0,0 0.345114,-0.392 0.831251,-0.5688 0.06078,-0.023 0.125887,-0.052 0.175,-0.088 z"
       id="path3837" />
    <path
       id="path4139"
       d="M 12.125251,1026.3622 C 9.13951,1026.3622 6,1029.5019 6,1033.3623 c 0,3.8603 3.139514,6.9999 6.125251,6.9999 4.735235,0 7.874749,-3.1396 7.874749,-6.9999 0,-3.8604 -3.139509,-7.0001 -7,-7.0001 z m 1.443498,0.9846 c 0.652466,0.06 1.284638,0.2093 1.859376,0.4593 -0.04424,0.055 -0.07844,0.1038 -0.109372,0.1969 -0.176778,0.5302 -0.440609,0.2775 -0.131253,0.9404 0.309359,0.6628 0.567862,0.8342 0.656249,0.5249 0.0884,-0.3092 -0.222302,-0.7455 0.131251,-0.5687 0.353555,0.1768 0.615166,-0.048 0.35,0.3503 -0.265165,0.3977 -0.25939,0.6133 -0.568749,0.5248 -0.30936,-0.089 -0.30314,0.5242 -0.612501,0.6126 -0.309358,0.088 -0.415624,-0.1334 -0.415624,0.088 0,0.2208 0.175443,0.018 0.131252,0.3719 -0.01347,0.1082 -0.0095,0.1275 -0.02187,0.1749 -0.29039,-0.083 -0.419903,-0.1292 -0.634375,-0.045 -0.220971,0.089 -0.48125,0.6564 -0.48125,0.6564 0.276036,0.276 0.404109,0.4747 0.503125,0.5688 -0.06178,0.031 -0.13611,0.044 -0.196875,0.088 -0.441943,0.3095 -0.786169,0.3677 -0.91875,0.8093 -0.132585,0.4423 -0.08749,0.038 -0.08749,0.5687 0,0.5305 -0.133918,0.1701 0.131251,0.6565 0.265165,0.4861 0.91564,0.719 1.224998,0.9842 0.309361,0.2651 0.628158,-0.5768 1.246875,0.2189 0.618719,0.7954 0.658473,0.4767 0.437501,0.9188 -0.220972,0.442 -0.436612,0.5888 -0.524999,0.7656 -0.08839,0.1767 0.17189,0.7862 0.48125,0.9186 0.0065,0 0.01495,0 0.02188,0 -0.01647,0.038 -0.02742,0.072 -0.04376,0.1097 -0.400604,0.1819 -0.891688,0.4329 -0.984376,0.4592 -0.21875,0.063 -0.990625,0.1936 -1.553124,0.3499 -0.07032,0.02 -0.125664,0.02 -0.153125,0.023 0.06993,-0.076 0.622836,-0.3652 0.896874,-0.5248 0.375002,-0.2192 -0.02187,-0.197 -0.02187,-0.197 0,0 -0.596875,-0.067 -1.815624,-0.067 -0.609376,0 -0.873437,0.027 -1.00625,0.067 -0.0664,0.02 -0.09903,0.039 -0.131251,0.066 -0.03223,0.027 -0.05469,0.056 -0.109374,0.088 -0.218752,0.125 0.128121,0.2562 -0.153124,0.3499 -0.210936,0.07 -0.235449,0 -0.415624,-0.1319 0.128526,-0.1278 0.305885,-0.2818 0.524999,-0.547 0.397748,-0.4811 0.523668,-0.3935 0.656249,-0.831 0.132586,-0.4377 -1.115623,-0.3062 -1.115623,-0.5688 0,-0.2625 -0.214754,-0.4374 -0.6125,-0.6125 -0.397748,-0.1751 -0.126813,-0.2626 -0.568751,-0.3938 -0.44194,-0.1308 -0.939291,0.6561 -1.071874,0.3938 -0.132585,-0.2626 0.415625,-0.2626 0.415625,-0.5687 0,-0.2989 -0.630318,0.2256 -0.743752,-0.1531 -0.003,-0.014 -0.01966,-0.014 -0.02188,-0.023 -0.01109,-0.055 -0.0039,-0.088 0,-0.1308 0.02781,-0.3146 0.392196,-0.4374 0.546876,-0.7438 0.176778,-0.3496 0.08528,0.2628 0.30625,0.5689 0.220972,0.3063 0.132587,-0.3937 0,-0.7875 -0.132584,-0.3939 0.08439,-0.3937 0.393751,-0.9187 0.309359,-0.5251 0.30625,-0.8313 0.30625,-1.2251 0,-0.3937 0.214309,-0.4372 0.656249,-0.8313 0.202558,-0.1802 0.361475,-0.3375 0.48125,-0.4811 0.02895,-0.014 0.05821,-0.014 0.0875,-0.023 0.468752,-0.1876 0.665625,-0.4687 1.071875,-1.3126 0.406252,-0.8435 -0.159374,-0.056 -0.284375,-0.087 -0.125002,-0.031 -0.30625,-0.2531 -0.74375,-0.5032 -0.09023,-0.052 -0.170753,-0.076 -0.240625,-0.087 l 0.809376,-1.3344 c 0.259258,-0.07 0.537612,-0.1179 0.809374,-0.1532 0.09943,0.5658 0.04376,1.0939 0.04376,1.0939 0,0 -0.153125,0.1812 -0.153125,0.3062 0,0.125 0.8375,-1.0312 0.9625,-1.0937 0.125003,-0.063 0.440624,0.3312 0.503124,-0.2625 0.0035,-0.034 -0.0039,-0.035 0,-0.066 z m 1.18125,2.3624 c -0.04488,-0.014 -0.09789,-10e-5 -0.153123,0.023 0,0.1547 -0.05988,0.2672 -0.08749,0.3281 -0.01643,-0.028 -0.06563,-0.066 -0.06563,-0.066 -0.06628,0.1223 -0.209258,0.2301 -0.06563,0.1969 0.143631,-0.032 0.252562,0.056 0.153126,-0.066 -0.01912,-0.023 -0.01011,-0.013 -0.02188,-0.023 0.01863,0.014 0.05391,0.023 0.131251,0.023 0.08702,0 0.133793,0 0.196874,0 -0.106691,0.079 -0.223066,0.1123 -0.06563,0.1531 0.209922,0.055 0.30625,0.066 0.30625,0.023 0,-0.044 -0.06562,-0.1969 -0.06562,-0.1969 0.04101,-0.017 0.07911,-0.038 0.04376,-0.1096 -0.06629,-0.1319 -0.171597,-0.2636 -0.306252,-0.2843 z m 3.346876,0.3717 c 0.109302,0.1698 0.214008,0.3444 0.306251,0.5251 -0.06085,0.3529 -0.215378,0.5907 0.04376,0.5907 0.07245,0 0.137078,-0.016 0.196875,-0.023 0.0081,0.021 0.01404,0.045 0.02188,0.066 -0.441944,0 -0.65403,0.1322 -0.875001,0.088 -0.220972,-0.045 -0.835247,-0.084 -0.4375,-0.4811 0.232466,-0.2326 0.522859,-0.6019 0.74375,-0.7658 z m -2.75625,0.8096 c 0.04073,0.013 0.07624,0.055 0.109373,0.1305 0.132586,0.3095 0.351777,0.5684 0.175001,0.6126 -0.176778,0.044 -0.262502,0.088 -0.262502,0.088 0,0 0.612057,0.398 0.656251,-0.044 0.0442,-0.4422 -0.175,-0.7003 -0.175,-0.7003 0,0 0.305363,0.3046 0.39375,0.4814 0.0884,0.1768 0.08528,0 0.306251,0.2189 0.22097,0.2207 0.17189,-0.8783 0.48125,-0.5689 0.30936,0.3094 0.504014,0.3041 0.415624,0.525 -0.08839,0.2209 0.568752,-0.2669 0.568752,0.175 0,0.426 0.271718,0.5989 -0.2625,0.8094 -0.202261,-0.014 -0.36235,-0.048 -0.393752,-0.1096 -0.08839,-0.1766 -0.590624,-0.044 -0.590624,-0.044 -1.322052,-0.3304 -1.896002,-0.4351 -2.275001,-0.3718 0.0072,-0.014 0.01412,-0.014 0.02188,-0.023 0.19335,-0.3483 0.557136,-0.8318 0.4375,-1.0063 0.168499,-0.097 0.300583,-0.2034 0.39375,-0.1751 z m 3.71875,2.2092 c 0.0039,0.089 0,0.1728 0,0.2626 0,0.2488 -0.01492,0.5028 -0.04376,0.7436 -0.397609,-0.3537 -0.962501,-0.3499 -0.962501,-0.3499 0,0 0.345114,-0.392 0.831251,-0.5688 0.06078,-0.023 0.125887,-0.052 0.175,-0.088 z"
       style="line-height:normal;opacity:1;color:#000000;fill:replacecolour3;fill-opacity:1"
       inkscape:connector-curvature="0" />
  </g>
</svg>
