<?xml version="1.0" encoding="UTF-8" standalone="no"?>
<!-- Created with Inkscape (http://www.inkscape.org/) -->

<svg
   xmlns:dc="http://purl.org/dc/elements/1.1/"
   xmlns:cc="http://creativecommons.org/ns#"
   xmlns:rdf="http://www.w3.org/1999/02/22-rdf-syntax-ns#"
   xmlns:svg="http://www.w3.org/2000/svg"
   xmlns="http://www.w3.org/2000/svg"
   xmlns:xlink="http://www.w3.org/1999/xlink"
   xmlns:sodipodi="http://sodipodi.sourceforge.net/DTD/sodipodi-0.dtd"
   xmlns:inkscape="http://www.inkscape.org/namespaces/inkscape"
   width="48"
   height="48"
   id="svg2"
   version="1.1"
   inkscape:version="0.48.5 r10040"
   sodipodi:docname="folder-system.svg">
  <defs
     id="defs4">
    <linearGradient
       id="linearGradient3855">
      <stop
         style="stop-color:#000000;stop-opacity:1;"
         offset="0"
         id="stop3857" />
      <stop
         style="stop-color:#000000;stop-opacity:0.29411766;"
         offset="1"
         id="stop3859" />
    </linearGradient>
    <linearGradient
       id="linearGradient3833">
      <stop
         id="stop3835"
         offset="0"
         style="stop-color:#fdfeff;stop-opacity:1;" />
      <stop
         id="stop3837"
         offset="1"
         style="stop-color:#dfe4e4;stop-opacity:1;" />
    </linearGradient>
    <linearGradient
       id="linearGradient3823">
      <stop
         style="stop-color:#49b7ef;stop-opacity:1;"
         offset="0"
         id="stop3825" />
      <stop
         style="stop-color:#1d8de2;stop-opacity:1;"
         offset="1"
         id="stop3827" />
    </linearGradient>
    <linearGradient
       id="linearGradient3956">
      <stop
         style="stop-color:#f8f4e1;stop-opacity:1;"
         offset="0"
         id="stop3958" />
      <stop
         style="stop-color:#eae5c8;stop-opacity:1;"
         offset="1"
         id="stop3960" />
    </linearGradient>
    <linearGradient
       id="linearGradient3915">
      <stop
         style="stop-color:#f8f4e1;stop-opacity:1;"
         offset="0"
         id="stop3917" />
      <stop
         style="stop-color:#ad9e57;stop-opacity:1;"
         offset="1"
         id="stop3919" />
    </linearGradient>
    <linearGradient
       inkscape:collect="always"
       id="linearGradient3861">
      <stop
         style="stop-color:#000000;stop-opacity:1;"
         offset="0"
         id="stop3863" />
      <stop
         style="stop-color:#000000;stop-opacity:0;"
         offset="1"
         id="stop3865" />
    </linearGradient>
    <linearGradient
       id="linearGradient3844">
      <stop
         style="stop-color:#000000;stop-opacity:0.39215687;"
         offset="0"
         id="stop3846" />
      <stop
         style="stop-color:#000000;stop-opacity:0;"
         offset="1"
         id="stop3848" />
    </linearGradient>
    <linearGradient
       id="linearGradient3810">
      <stop
         style="stop-color:#f2c66f;stop-opacity:1;"
         offset="0"
         id="stop3812" />
      <stop
         style="stop-color:#fbd68f;stop-opacity:1;"
         offset="1"
         id="stop3814" />
    </linearGradient>
    <linearGradient
       inkscape:collect="always"
       xlink:href="#linearGradient3810"
       id="linearGradient3816"
       x1="24"
       y1="1046.3622"
       x2="24"
       y2="1014.3622"
       gradientUnits="userSpaceOnUse" />
    <radialGradient
       inkscape:collect="always"
       xlink:href="#linearGradient3844"
       id="radialGradient3850"
       cx="24.075672"
       cy="41.38316"
       fx="24.075672"
       fy="41.38316"
       r="21.075672"
       gradientTransform="matrix(1,0,0,0.11307633,0,36.703704)"
       gradientUnits="userSpaceOnUse" />
    <linearGradient
       inkscape:collect="always"
       xlink:href="#linearGradient3810"
       id="linearGradient3856"
       gradientUnits="userSpaceOnUse"
       x1="24"
       y1="1046.3622"
       x2="24"
       y2="1014.3622"
       gradientTransform="translate(0,-3)" />
    <linearGradient
       inkscape:collect="always"
       xlink:href="#linearGradient3810"
       id="linearGradient3858"
       gradientUnits="userSpaceOnUse"
       x1="24"
       y1="1046.3622"
       x2="24"
       y2="1014.3622"
       gradientTransform="translate(0,-1004.3622)" />
    <linearGradient
       inkscape:collect="always"
       xlink:href="#linearGradient3861"
       id="linearGradient3867"
       x1="1.9952808"
       y1="28.5625"
       x2="46.004719"
       y2="28.5625"
       gradientUnits="userSpaceOnUse" />
    <linearGradient
       inkscape:collect="always"
       xlink:href="#linearGradient3915"
       id="linearGradient3921"
       x1="35"
       y1="8"
       x2="38"
       y2="5"
       gradientUnits="userSpaceOnUse" />
    <linearGradient
       inkscape:collect="always"
       xlink:href="#linearGradient3915"
       id="linearGradient3933"
       gradientUnits="userSpaceOnUse"
       x1="35"
       y1="8"
       x2="38"
       y2="5"
       gradientTransform="matrix(1.0436562,0,0,1.2222222,26.301501,1003.2511)" />
    <linearGradient
       inkscape:collect="always"
       xlink:href="#linearGradient3915"
       id="linearGradient3954"
       x1="35"
       y1="11"
       x2="44"
       y2="5"
       gradientUnits="userSpaceOnUse"
       gradientTransform="translate(22,1004.3622)" />
    <linearGradient
       inkscape:collect="always"
       xlink:href="#linearGradient3823"
       id="linearGradient3829"
       x1="21"
       y1="14"
       x2="20"
       y2="24"
       gradientUnits="userSpaceOnUse" />
    <linearGradient
       inkscape:collect="always"
       xlink:href="#linearGradient3833"
       id="linearGradient3839"
       gradientUnits="userSpaceOnUse"
       x1="21"
       y1="14"
       x2="20"
       y2="26" />
    <linearGradient
       inkscape:collect="always"
       xlink:href="#linearGradient3855"
       id="linearGradient3862"
       x1="22"
       y1="15"
       x2="20"
       y2="30"
       gradientUnits="userSpaceOnUse" />
    <radialGradient
       r="24"
       fy="40.5"
       fx="24"
       cy="40.5"
       cx="24"
       gradientTransform="matrix(1.25,0,0,0.20833327,-6,1035.9247)"
       gradientUnits="userSpaceOnUse"
       id="radialGradient3102"
       xlink:href="#linearGradient3886"
       inkscape:collect="always" />
    <linearGradient
       id="linearGradient3886">
      <stop
         style="stop-color:#000000;stop-opacity:1;"
         offset="0"
         id="stop3888" />
      <stop
         style="stop-color:#000000;stop-opacity:0.19607843;"
         offset="1"
         id="stop3890" />
    </linearGradient>
    <radialGradient
       r="24"
       fy="40.5"
       fx="24"
       cy="40.5"
       cx="24"
       gradientTransform="matrix(1.25,0,0,0.20833327,-6,1035.9247)"
       gradientUnits="userSpaceOnUse"
       id="radialGradient3092"
       xlink:href="#linearGradient3886"
       inkscape:collect="always" />
  </defs>
  <sodipodi:namedview
     id="base"
     pagecolor="#ffffff"
     bordercolor="#666666"
     borderopacity="1.0"
     inkscape:pageopacity="0.0"
     inkscape:pageshadow="2"
     inkscape:zoom="8.8138918"
     inkscape:cx="30.052351"
     inkscape:cy="27.793852"
     inkscape:document-units="px"
     inkscape:current-layer="layer1"
     showgrid="true"
     inkscape:window-width="1280"
     inkscape:window-height="998"
     inkscape:window-x="0"
     inkscape:window-y="0"
     inkscape:window-maximized="1">
    <inkscape:grid
       type="xygrid"
       id="grid2990"
       empspacing="5"
       visible="true"
       enabled="true"
       snapvisiblegridlinesonly="true" />
  </sodipodi:namedview>
  <metadata
     id="metadata7">
    <rdf:RDF>
      <cc:Work
         rdf:about="">
        <dc:format>image/svg+xml</dc:format>
        <dc:type
           rdf:resource="http://purl.org/dc/dcmitype/StillImage" />
        <dc:title />
      </cc:Work>
    </rdf:RDF>
  </metadata>
  <g
     inkscape:label="Body"
     inkscape:groupmode="layer"
     id="layer1"
     transform="translate(0,-1004.3622)">
    <path
       inkscape:connector-curvature="0"
       style="opacity:0.1;fill:url(#radialGradient3092);fill-opacity:1;stroke:none"
       d="m 24,1039.3622 c -9.826549,0 -18.5279703,0.7831 -24,2 l 0,6 c 5.4720297,1.2169 14.173451,2 24,2 9.826549,0 18.52797,-0.7831 24,-2 l 0,-6 c -5.47203,-1.2169 -14.173451,-2 -24,-2 z"
       id="path3868" />
    <rect
       style="fill:#388e3c;fill-opacity:1;stroke:none"
       id="rect2987"
       width="46"
       height="32.000019"
       x="1"
       y="1014.3622"
       rx="5"
       ry="5" />
    <path
       style="opacity:0.2;fill:#ffffff;fill-opacity:1;stroke:none"
       d="m 6,1014.3622 c -2.77,0 -5,2.23 -5,5 l 0,2 c 0,-2.77 2.23,-5 5,-5 l 36,0 c 2.77,0 5,2.23 5,5 l 0,-2 c 0,-2.77 -2.23,-5 -5,-5 l -36,0 z"
       id="rect3797"
       inkscape:connector-curvature="0" />
    <path
       style="fill:#66bb6a;fill-opacity:1;stroke:none"
       d="m 6,1022.3622 8,0 c 11,-1 9,-12 16,-12 l 12,0 c 2.77,0 5,2.23 5,5 l 0,26 c 0,2.77 -2.23,5 -5,5 l -36,0 c -2.77,0 -5,-2.23 -5,-5 l 0,-14 c 0,-3 2,-5 5,-5 z"
       id="rect3776"
       inkscape:connector-curvature="0"
       sodipodi:nodetypes="cccsssssscc" />
    <path
       style="opacity:0.15;fill:#000000;fill-opacity:1;stroke:none"
       d="m 1,1039.3622 0,2 c 0,2.77 2.23,5 5,5 l 36,0 c 2.77,0 5,-2.23 5,-5 l 0,-2 c 0,2.77 -2.23,5 -5,5 l -36,0 c -2.77,0 -5,-2.23 -5,-5 z"
       id="path3786"
       inkscape:connector-curvature="0" />
    <path
       inkscape:connector-curvature="0"
       style="line-height:normal;color:#000000;fill:#000000;fill-opacity:0.09803922;display:block"
       d="m 11.898148,1027.3622 c -0.388235,0 -0.712964,0.3085 -0.712964,0.6968 v 0.9074 c -0.245464,0.083 -0.483647,0.1782 -0.712962,0.2916 l -0.631969,-0.6319 c -0.274525,-0.2745 -0.713897,-0.2745 -0.988399,0 l -1.587964,1.5717 c -0.274526,0.2746 -0.274526,0.714 0,0.9884 l 0.631968,0.632 c -0.116323,0.2333 -0.207734,0.4791 -0.291666,0.7291 H 6.712964 C 6.324727,1032.5473 6,1032.8559 6,1033.2441 v 2.2362 c 0,0.3882 0.324727,0.6968 0.712964,0.6968 h 0.891228 c 0.08392,0.25 0.175348,0.4958 0.291666,0.7291 l -0.631968,0.632 c -0.274526,0.2746 -0.274526,0.7138 0,0.9884 l 1.587964,1.5717 c 0.274524,0.2744 0.713895,0.2744 0.988399,0 l 0.631969,-0.6319 c 0.229315,0.1138 0.467498,0.2091 0.712962,0.2916 v 0.9073 c 0,0.3884 0.324735,0.6969 0.712964,0.6969 h 2.21988 c 0.388236,0 0.696787,-0.3085 0.696787,-0.6969 v -0.9073 c 0.250092,-0.084 0.49587,-0.1754 0.72914,-0.2916 l 0.631971,0.6319 c 0.274524,0.2744 0.713898,0.2744 0.9884,0 l 1.587964,-1.5717 c 0.274525,-0.2746 0.274518,-0.714 0,-0.9884 l -0.648148,-0.6481 c 0.1136,-0.2294 0.209283,-0.4675 0.291666,-0.713 h 0.907408 c 0.388236,0 0.696784,-0.3086 0.696784,-0.6968 v -2.2362 c 1e-6,-0.3882 -0.30853,-0.6968 -0.696784,-0.6968 h -0.907408 c -0.08238,-0.2455 -0.178064,-0.4836 -0.291666,-0.713 l 0.648148,-0.6481 c 0.274525,-0.2746 0.274525,-0.7138 0,-0.9884 l -1.587964,-1.5717 c -0.274525,-0.2745 -0.713898,-0.2745 -0.9884,0 l -0.631971,0.6319 c -0.233295,-0.1166 -0.479075,-0.2076 -0.72914,-0.2916 v -0.9074 c 0,-0.3883 -0.308529,-0.6968 -0.696787,-0.6968 h -2.21988 z m 1.101851,5.1851 c 1.001777,0 1.814816,0.8131 1.814816,1.815 0,1.0017 -0.813039,1.8148 -1.814816,1.8148 -1.001779,0 -1.814815,-0.8131 -1.814815,-1.8148 0,-1.0019 0.813036,-1.815 1.814815,-1.815 z"
       id="path3837" />
    <path
       id="path3002"
       d="m 11.898148,1026.3622 c -0.388235,0 -0.712964,0.3085 -0.712964,0.6968 v 0.9074 c -0.245464,0.083 -0.483647,0.1782 -0.712962,0.2916 l -0.631969,-0.6319 c -0.274525,-0.2745 -0.713897,-0.2745 -0.988399,0 l -1.587964,1.5717 c -0.274526,0.2746 -0.274526,0.714 0,0.9884 l 0.631968,0.632 c -0.116323,0.2333 -0.207734,0.4791 -0.291666,0.7291 H 6.712964 C 6.324727,1031.5473 6,1031.8559 6,1032.2441 v 2.2362 c 0,0.3882 0.324727,0.6968 0.712964,0.6968 h 0.891228 c 0.08392,0.25 0.175348,0.4958 0.291666,0.7291 l -0.631968,0.632 c -0.274526,0.2746 -0.274526,0.7138 0,0.9884 l 1.587964,1.5717 c 0.274524,0.2744 0.713895,0.2744 0.988399,0 l 0.631969,-0.6319 c 0.229315,0.1138 0.467498,0.2091 0.712962,0.2916 v 0.9073 c 0,0.3884 0.324735,0.6969 0.712964,0.6969 h 2.21988 c 0.388236,0 0.696787,-0.3085 0.696787,-0.6969 v -0.9073 c 0.250092,-0.084 0.49587,-0.1754 0.72914,-0.2916 l 0.631971,0.6319 c 0.274524,0.2744 0.713898,0.2744 0.9884,0 l 1.587964,-1.5717 c 0.274525,-0.2746 0.274518,-0.714 0,-0.9884 l -0.648148,-0.6481 c 0.1136,-0.2294 0.209283,-0.4675 0.291666,-0.713 h 0.907408 c 0.388236,0 0.696784,-0.3086 0.696784,-0.6968 v -2.2362 c 1e-6,-0.3882 -0.30853,-0.6968 -0.696784,-0.6968 h -0.907408 c -0.08238,-0.2455 -0.178064,-0.4836 -0.291666,-0.713 l 0.648148,-0.6481 c 0.274525,-0.2746 0.274525,-0.7138 0,-0.9884 l -1.587964,-1.5717 c -0.274525,-0.2745 -0.713898,-0.2745 -0.9884,0 l -0.631971,0.6319 c -0.233295,-0.1166 -0.479075,-0.2076 -0.72914,-0.2916 v -0.9074 c 0,-0.3883 -0.308529,-0.6968 -0.696787,-0.6968 h -2.21988 z m 1.101851,5.1851 c 1.001777,0 1.814816,0.8131 1.814816,1.815 0,1.0017 -0.813039,1.8148 -1.814816,1.8148 -1.001779,0 -1.814815,-0.8131 -1.814815,-1.8148 0,-1.0019 0.813036,-1.815 1.814815,-1.815 z"
       style="line-height:normal;opacity:1;color:#000000;fill:#fff8e1;fill-opacity:1;display:block"
       inkscape:connector-curvature="0" />
  </g>
</svg>
