<?xml version="1.0" encoding="UTF-8" standalone="no"?>
<!-- Created with Inkscape (http://www.inkscape.org/) -->

<svg
   xmlns:dc="http://purl.org/dc/elements/1.1/"
   xmlns:cc="http://creativecommons.org/ns#"
   xmlns:rdf="http://www.w3.org/1999/02/22-rdf-syntax-ns#"
   xmlns:svg="http://www.w3.org/2000/svg"
   xmlns="http://www.w3.org/2000/svg"
   xmlns:xlink="http://www.w3.org/1999/xlink"
   xmlns:sodipodi="http://sodipodi.sourceforge.net/DTD/sodipodi-0.dtd"
   xmlns:inkscape="http://www.inkscape.org/namespaces/inkscape"
   width="48"
   height="48"
   id="svg2"
   version="1.1"
   inkscape:version="0.91 r"
   sodipodi:docname="grey-folder-vm.svg">
  <defs
     id="defs4">
    <linearGradient
       id="linearGradient3886">
      <stop
         style="stop-color:#000000;stop-opacity:1;"
         offset="0"
         id="stop3888" />
      <stop
         style="stop-color:#000000;stop-opacity:0.19607843;"
         offset="1"
         id="stop3890" />
    </linearGradient>
    <radialGradient
       r="24"
       fy="40.5"
       fx="24"
       cy="40.5"
       cx="24"
       gradientTransform="matrix(1.25,0,0,0.20833327,-6,1035.9247)"
       gradientUnits="userSpaceOnUse"
       id="radialGradient3051"
       xlink:href="#linearGradient3886"
       inkscape:collect="always" />
  </defs>
  <sodipodi:namedview
     id="base"
     pagecolor="#ffffff"
     bordercolor="#666666"
     borderopacity="1.0"
     inkscape:pageopacity="0.0"
     inkscape:pageshadow="2"
     inkscape:zoom="4.4075002"
     inkscape:cx="-14.474559"
     inkscape:cy="18.347108"
     inkscape:document-units="px"
     inkscape:current-layer="layer1"
     showgrid="true"
     inkscape:window-width="1280"
     inkscape:window-height="998"
     inkscape:window-x="0"
     inkscape:window-y="0"
     inkscape:window-maximized="1">
    <inkscape:grid
       type="xygrid"
       id="grid2990"
       empspacing="5"
       visible="true"
       enabled="true"
       snapvisiblegridlinesonly="true" />
  </sodipodi:namedview>
  <metadata
     id="metadata7">
    <rdf:RDF>
      <cc:Work
         rdf:about="">
        <dc:format>image/svg+xml</dc:format>
        <dc:type
           rdf:resource="http://purl.org/dc/dcmitype/StillImage" />
        <dc:title />
      </cc:Work>
    </rdf:RDF>
  </metadata>
  <g
     inkscape:label="Body"
     inkscape:groupmode="layer"
     id="layer1"
     transform="translate(0,-1004.3622)">
    <path
       inkscape:connector-curvature="0"
       style="opacity:0.1;fill:url(#radialGradient3051);fill-opacity:1;stroke:none"
       d="m 24,1039.3622 c -9.826549,0 -18.52797,0.7831 -24,2 l 0,6 c 5.47203,1.2169 14.173451,2 24,2 9.826549,0 18.52797,-0.7831 24,-2 l 0,-6 c -5.47203,-1.2169 -14.173451,-2 -24,-2 z"
       id="path3868" />
    <rect
       style="fill:#757575;fill-opacity:1;stroke:none"
       id="rect2987"
       width="46"
       height="32.000019"
       x="1"
       y="1014.3622"
       rx="5"
       ry="5" />
    <path
       style="opacity:0.2;fill:#ffffff;fill-opacity:1;stroke:none"
       d="m 6,1014.3622 c -2.77,0 -5,2.23 -5,5 l 0,2 c 0,-2.77 2.23,-5 5,-5 l 36,0 c 2.77,0 5,2.23 5,5 l 0,-2 c 0,-2.77 -2.23,-5 -5,-5 l -36,0 z"
       id="rect3797"
       inkscape:connector-curvature="0" />
    <path
       style="fill:#bdbdbd;fill-opacity:1;stroke:none"
       d="m 6,1022.3622 8,0 c 11,-1 9,-12 16,-12 l 12,0 c 2.77,0 5,2.23 5,5 l 0,26 c 0,2.77 -2.23,5 -5,5 l -36,0 c -2.77,0 -5,-2.23 -5,-5 l 0,-14 c 0,-3 2,-5 5,-5 z"
       id="rect3776"
       inkscape:connector-curvature="0"
       sodipodi:nodetypes="cccsssssscc" />
    <path
       style="opacity:0.15;fill:#000000;fill-opacity:1;stroke:none"
       d="m 1,1039.3622 0,2 c 0,2.77 2.23,5 5,5 l 36,0 c 2.77,0 5,-2.23 5,-5 l 0,-2 c 0,2.77 -2.23,5 -5,5 l -36,0 c -2.77,0 -5,-2.23 -5,-5 z"
       id="path3786"
       inkscape:connector-curvature="0" />
    <path
       id="path3513"
       d="m 9.75,1027.3622 c -0.702266,0 -1.3146294,0.4058 -1.59375,1 l 9.6875,0 c -0.279121,-0.5942 -0.891484,-1 -1.59375,-1 l -6.5,0 z m -1.75,2 0,10 10,0 0,-10 -10,0 z m 2,1 6,0 0,1 -6,0 0,-1 z m 0,2 6,0 0,1 -6,0 0,-1 z m 3,4 c 0.552285,0 1,0.4477 1,1 0,0.5523 -0.447715,1 -1,1 -0.552285,0 -1,-0.4477 -1,-1 0,-0.5523 0.447715,-1 1,-1 z m -4.84375,4 c 0.2791206,0.5942 0.891484,1 1.59375,1 l 6.5,0 c 0.702266,0 1.314629,-0.4058 1.59375,-1 l -9.6875,0 z"
       style="fill:#000000;fill-opacity:0.09803922"
       inkscape:connector-curvature="0" />
    <path
       style="fill:#fff8e1;fill-opacity:1"
       d="M 9.75 22 C 9.047734 22 8.4353706 22.40576 8.15625 23 L 17.84375 23 C 17.564629 22.40576 16.952266 22 16.25 22 L 9.75 22 z M 8 24 L 8 34 L 18 34 L 18 24 L 8 24 z M 10 25 L 16 25 L 16 26 L 10 26 L 10 25 z M 10 27 L 16 27 L 16 28 L 10 28 L 10 27 z M 13 31 C 13.552285 31 14 31.447715 14 32 C 14 32.552285 13.552285 33 13 33 C 12.447715 33 12 32.552285 12 32 C 12 31.447715 12.447715 31 13 31 z M 8.15625 35 C 8.4353706 35.59424 9.047734 36 9.75 36 L 16.25 36 C 16.952266 36 17.564629 35.59424 17.84375 35 L 8.15625 35 z "
       transform="translate(0,1004.3622)"
       id="rect3007" />
  </g>
</svg>
