<svg version="1.1" viewBox="0 0 48 48" xmlns="http://www.w3.org/2000/svg">
 <defs>
  <linearGradient id="linearGradient5286" x1="1" x2="47" gradientTransform="translate(-48 .0022155)" gradientUnits="userSpaceOnUse">
   <stop style="stop-color:#b44732" offset="0"/>
   <stop style="stop-color:#c44e36" offset="1"/>
  </linearGradient>
 </defs>
 <path d="m1 43v0.25c0 2.216 1.784 4 4 4h38c2.216 0 4-1.784 4-4v-0.25c0 2.216-1.784 4-4 4h-38c-2.216 0-4-1.784-4-4zm0 0.5v0.5c0 2.216 1.784 4 4 4h38c2.216 0 4-1.784 4-4v-0.5c0 2.216-1.784 4-4 4h-38c-2.216 0-4-1.784-4-4z" style="opacity:.02"/>
 <path d="m1 43.25v0.25c0 2.216 1.784 4 4 4h38c2.216 0 4-1.784 4-4v-0.25c0 2.216-1.784 4-4 4h-38c-2.216 0-4-1.784-4-4z" style="opacity:.05"/>
 <path d="m1 43v0.25c0 2.216 1.784 4 4 4h38c2.216 0 4-1.784 4-4v-0.25c0 2.216-1.784 4-4 4h-38c-2.216 0-4-1.784-4-4z" style="opacity:.1"/>
 <rect transform="rotate(-90)" x="-47" y="1" width="46" height="46" rx="4" style="fill:url(#linearGradient5286)"/>
 <g transform="translate(0 -1004.4)">
  <path d="m1 1043.4v4c0 2.216 1.784 4 4 4h38c2.216 0 4-1.784 4-4v-4c0 2.216-1.784 4-4 4h-38c-2.216 0-4-1.784-4-4z" style="opacity:.1"/>
 </g>
 <path d="m11.999 20.001v12c0 1.108 0.892 2 2 2h20c1.108 0 2-0.892 2-2v-12z" style="fill-opacity:.102"/>
 <path d="m15 14h17c1 0 2 1 2 2v4c0 1.108-0.446 2-1 2h-18c-0.554 0-1-0.892-1-2v-6z" style="fill:#e9a439"/>
 <path d="m14 16v5h20v-5z" style="opacity:.03"/>
 <rect x="12" y="17" width="24" height="16" rx="2" style="fill:#f5c14e"/>
 <path d="m14 15v-1c0-1 0-2 1-2h4c1 0 1 1 1 2v1z" style="fill:#e9a439"/>
 <path d="m20 14v1h1 11c1 0 2 1 2 2v-1c0-1-1-2-2-2h-11z" style="opacity:.05"/>
 <path d="m15 12c-1 0-1 1-1 2v0.25c0.047-0.703 0.25-1.25 1-1.25h4c0.75 0 0.953 0.547 1 1.25v-0.25c0-1 0-2-1-2h-4z" style="opacity:.05"/>
 <path d="m14 17c-0.831 0-1.347 0.403-1.733 1h23.468c-0.387-0.597-0.904-1-1.734-1z" style="fill:#fff;opacity:.1"/>
 <path d="m24 17.98-0.715 1.641 0.191 0.434c-1.152 0.078-0.926 0.313-0.926 0.313s-1.328 0.246-1.328 0.43v0.016c-0.266 0.129-0.527 0.309-0.777 0.504-3.34 4.488 0.234 5.527-0.559 8.133-0.172 0.566-0.891 1.527-0.891 1.527s1.449 0.18 2.047-1.516c0.484-1.371-1.156-4.129 0.066-5.363 1.734-1.75 3.02 1.855 2.477 2.355-0.551 0.5-0.414 0.637-0.414 0.637l0.82 1.656 0.816-1.656s0.141-0.137-0.41-0.637c-0.547-0.5 0.742-4.109 2.473-2.355 1.227 1.238-0.418 3.992 0.07 5.363 0.598 1.695 2.047 1.516 2.047 1.516s-0.715-0.969-0.891-1.527c-0.793-2.602 2.77-3.641-0.566-8.133-0.25-0.188-0.512-0.371-0.773-0.5v-0.016c0-0.188-1.324-0.43-1.324-0.43s0.227-0.234-0.93-0.313l0.188-0.434-0.711-1.641" style="fill:#3c2f1b;opacity:.3"/>
</svg>
