<svg xmlns="http://www.w3.org/2000/svg" width="48" viewBox="0 0 13.546667 13.546667" height="48">
 <defs>
  <linearGradient id="linearGradient5286" gradientUnits="userSpaceOnUse" gradientTransform="matrix(0.28222223,0,0,0.28222223,-13.546666,6.2509917e-4)" x1="1" x2="47">
   <stop style="stop-color:#2684da;stop-opacity:1"/>
   <stop offset="1" style="stop-color:#3f96e5;stop-opacity:1"/>
  </linearGradient>
 </defs>
 <g>
  <g transform="scale(0.28222223,0.28222223)">
   <path d="m 1,43 0,0.25 c 0,2.216 1.784,4 4,4 l 38,0 c 2.216,0 4,-1.784 4,-4 L 47,43 c 0,2.216 -1.784,4 -4,4 L 5,47 C 2.784,47 1,45.216 1,43 z m 0,0.5 0,0.5 c 0,2.216 1.784,4 4,4 l 38,0 c 2.216,0 4,-1.784 4,-4 l 0,-0.5 c 0,2.216 -1.784,4 -4,4 l -38,0 c -2.216,0 -4,-1.784 -4,-4 z" style="opacity:0.02"/>
   <path d="m 1 43.25 0 0.25 c 0 2.216 1.784 4 4 4 l 38 0 c 2.216 0 4 -1.784 4 -4 l 0 -0.25 c 0 2.216 -1.784 4 -4 4 l -38 0 c -2.216 0 -4 -1.784 -4 -4 z" style="opacity:0.05"/>
   <path d="m 1,43 0,0.25 c 0,2.216 1.784,4 4,4 l 38,0 c 2.216,0 4,-1.784 4,-4 L 47,43 c 0,2.216 -1.784,4 -4,4 L 5,47 C 2.784,47 1,45.216 1,43 z" style="opacity:0.1"/>
  </g>
  <rect transform="matrix(0,-1,1,0,0,0)" rx="1.129" y="0.282" x="-13.264" height="12.982" width="12.982" style="fill:url(#linearGradient5286);fill-opacity:1"/>
  <g transform="scale(0.28222223,0.28222223)">
   <g transform="translate(0,-1004.3622)">
    <path d="m 1 1043.36 0 4 c 0 2.216 1.784 4 4 4 l 38 0 c 2.216 0 4 -1.784 4 -4 l 0 -4 c 0 2.216 -1.784 4 -4 4 l -38 0 c -2.216 0 -4 -1.784 -4 -4 z" style="opacity:0.1"/>
   </g>
  </g>
  <path d="m 4.233 3.669 c -0.282 0 -0.282 0.282 -0.282 0.564 l 0 0.071 0 0.212 0 0.564 c -0.055 0 -0.109 0.003 -0.159 0.018 -0.016 0.004 -0.029 0.012 -0.044 0.018 -0.016 0.006 -0.029 0.019 -0.044 0.026 -0.018 0.009 -0.037 0.016 -0.053 0.026 -0.036 0.023 -0.067 0.049 -0.097 0.079 -0.035 0.035 -0.064 0.072 -0.088 0.115 -0.048 0.083 -0.079 0.179 -0.079 0.282 l 0 3.387 c 0 0.313 0.252 0.564 0.564 0.564 l 5.644 0 c 0.313 0 0.564 -0.252 0.564 -0.564 l 0 -3.387 c 0 -0.103 -0.031 -0.199 -0.079 -0.282 -0.025 -0.043 -0.054 -0.08 -0.088 -0.115 -0.03 -0.031 -0.062 -0.056 -0.097 -0.079 -0.016 -0.001 -0.035 -0.018 -0.053 -0.026 -0.015 -0.007 -0.028 -0.02 -0.044 -0.026 -0.015 -0.006 -0.029 -0.013 -0.044 -0.018 -0.048 -0.013 -0.1 -0.018 -0.159 -0.018 l 0 -0.282 c 0 -0.282 -0.282 -0.564 -0.564 -0.564 l -3.387 0 c 0 -0.282 0 -0.564 -0.282 -0.564 l -1.129 0 z" style="fill:#000;fill-opacity:0.102;stroke:none"/>
  <path d="m 4.233 3.951 4.798 0 c 0.282 0 0.564 0.282 0.564 0.564 l 0 1.129 c 0 0.313 -0.126 0.564 -0.282 0.564 l -5.08 0 c -0.156 0 -0.282 -0.252 -0.282 -0.564 l 0 -1.693 z" style="fill:#e9a439;fill-opacity:1;stroke:none"/>
  <path d="m 3.951 4.516 0 1.411 5.644 0 0 -1.411 z" style="fill:#000;opacity:0.03;fill-opacity:1;stroke:none"/>
  <rect width="6.773" height="4.516" x="3.387" y="4.798" rx="0.564" style="fill:#f5c14e;fill-opacity:1;stroke:none"/>
  <path d="m 7.674 5.351 c -0.013 0 -0.022 0.003 -0.029 0.014 -0.035 0.062 0.034 0.262 -0.019 0.367 -0.052 0.105 -0.052 0.131 -0.471 0.079 c -0.419 -0.052 -1.047 0.131 -1.273 0.357 -0.229 0.227 -0.619 0.803 -0.7 1.135 -0.077 0.332 -0.042 0.349 0.063 0.298 0.104 -0.053 0.192 -0.516 0.809 -0.82 0.621 -0.305 0.91 -0.062 0.91 -0.062 c 0 0 -0.534 -0.071 -0.925 0.253 c -0.393 0.324 -0.637 0.575 -0.629 0.675 c 0.009 0.096 0.043 0.076 0.106 0 0.061 -0.079 0.427 -0.559 0.863 -0.717 0.437 -0.159 0.619 -0.148 0.785 -0.061 0.167 0.087 0.202 0.172 -0.033 0.233 -0.237 0.063 -0.333 0.035 -0.333 0.035 0 0 0.201 0.183 0.487 0.183 0.289 0 0.464 -0.018 0.464 -0.018 0 0 0.714 0.742 0.899 0.891 0.182 0.148 0.385 0.078 0.385 -0.001 0 -0.087 -0.088 -0.332 -0.088 -0.332 0 0 0.183 -0.411 -0.028 -0.873 -0.209 -0.463 -0.785 -0.941 -0.785 -0.941 0 0 -0.061 -0.262 -0.191 -0.437 -0.106 -0.141 -0.213 -0.248 -0.268 -0.25 m -2.972 2.114 c -0.025 0.0001 -0.052 0.008 -0.076 0.022 -0.201 0.113 -0.096 0.315 0.079 0.315 0.174 0 0.366 -0.071 0.366 -0.071 0 0 -0.187 -0.273 -0.369 -0.266 m 0.386 0.336 c 0 0 -0.391 0.06 -0.435 0.244 -0.044 0.183 0.164 0.236 0.295 0.14 0.131 -0.096 0.14 -0.384 0.14 -0.384 m 0 0" style="fill:#3c2f1b;opacity:0.3;fill-opacity:1;stroke:none;fill-rule:nonzero"/>
  <path d="m 3.951 4.233 0 -0.282 c 0 -0.282 0 -0.564 0.282 -0.564 l 1.129 0 c 0.282 0 0.282 0.282 0.282 0.564 l 0 0.282 z" style="fill:#e9a439;fill-opacity:1;stroke:none"/>
  <path d="m 5.644 3.951 0 0.282 0.282 0 3.104 0 c 0.282 0 0.564 0.282 0.564 0.564 l 0 -0.282 c 0 -0.282 -0.282 -0.564 -0.564 -0.564 l -3.104 0 z" style="fill:#000;opacity:0.05;fill-opacity:1;stroke:none"/>
  <path d="m 4.233 3.387 c -0.282 0 -0.282 0.282 -0.282 0.564 l 0 0.071 c 0.013 -0.198 0.071 -0.353 0.282 -0.353 l 1.129 0 c 0.212 0 0.269 0.154 0.282 0.353 l 0 -0.071 c 0 -0.282 0 -0.564 -0.282 -0.564 l -1.129 0 z" style="fill:#000;opacity:0.05;fill-opacity:1;stroke:none"/>
  <path d="m 3.951 4.798 c -0.234 0 -0.38 0.114 -0.489 0.282 l 6.623 0 c -0.109 -0.168 -0.255 -0.282 -0.489 -0.282 z" style="fill:#fff;opacity:0.1;fill-opacity:1;stroke:none"/>
 </g>
</svg>
