<svg version="1.1" viewBox="0 0 48 48" xmlns="http://www.w3.org/2000/svg">
 <defs>
  <linearGradient id="linearGradient5286" x1="1" x2="47" gradientTransform="translate(-48 .002215)" gradientUnits="userSpaceOnUse">
   <stop style="stop-color:#b94f33" offset="0"/>
   <stop style="stop-color:#c85637" offset="1"/>
  </linearGradient>
 </defs>
 <path d="m1 43v0.25c0 2.216 1.784 4 4 4h38c2.216 0 4-1.784 4-4v-0.25c0 2.216-1.784 4-4 4h-38c-2.216 0-4-1.784-4-4zm0 0.5v0.5c0 2.216 1.784 4 4 4h38c2.216 0 4-1.784 4-4v-0.5c0 2.216-1.784 4-4 4h-38c-2.216 0-4-1.784-4-4z" style="opacity:.02"/>
 <path d="m1 43.25v0.25c0 2.216 1.784 4 4 4h38c2.216 0 4-1.784 4-4v-0.25c0 2.216-1.784 4-4 4h-38c-2.216 0-4-1.784-4-4z" style="opacity:.05"/>
 <path d="m1 43v0.25c0 2.216 1.784 4 4 4h38c2.216 0 4-1.784 4-4v-0.25c0 2.216-1.784 4-4 4h-38c-2.216 0-4-1.784-4-4z" style="opacity:.1"/>
 <rect transform="rotate(-90)" x="-47" y="1" width="46" height="46" rx="4" style="fill:url(#linearGradient5286)"/>
 <g transform="translate(0 -1004.4)">
  <path d="m1 1043.4v4c0 2.216 1.784 4 4 4h38c2.216 0 4-1.784 4-4v-4c0 2.216-1.784 4-4 4h-38c-2.216 0-4-1.784-4-4z" style="opacity:.1"/>
 </g>
 <path d="m11.999 20.001v12c0 1.108 0.892 2 2 2h20c1.108 0 2-0.892 2-2v-12z" style="fill-opacity:.102"/>
 <path d="m15 14h17c1 0 2 1 2 2v4c0 1.108-0.446 2-1 2h-18c-0.554 0-1-0.892-1-2v-6z" style="fill:#e9a439"/>
 <path d="m14 16v5h20v-5z" style="opacity:.03"/>
 <rect x="12" y="17" width="24" height="16" rx="2" style="fill:#f5c14e"/>
 <path d="m18 19v2.219c-0.596 0.26-1 0.727-1 1.281s0.404 1.021 1 1.281v7.219h2v-7.219c0.596-0.26 1-0.727 1-1.281s-0.404-1.021-1-1.281v-2.219h-2zm5 0v7.219c-0.596 0.26-1 0.727-1 1.281s0.404 1.021 1 1.281v2.219h2v-2.219c0.596-0.26 1-0.727 1-1.281s-0.404-1.021-1-1.281v-7.219h-2zm5 0v2.219c-0.596 0.26-1 0.727-1 1.281s0.404 1.021 1 1.281v7.219h2v-7.219c0.596-0.26 1-0.727 1-1.281s-0.404-1.021-1-1.281v-2.219h-2z" style="fill-rule:evenodd;fill:#3c2f1b;opacity:.3"/>
 <path d="m14 15v-1c0-1 0-2 1-2h4c1 0 1 1 1 2v1z" style="fill:#e9a439"/>
 <path d="m20 14v1h1 11c1 0 2 1 2 2v-1c0-1-1-2-2-2h-11z" style="opacity:.05"/>
 <path d="m15 12c-1 0-1 1-1 2v0.25c0.047-0.703 0.25-1.25 1-1.25h4c0.75 0 0.953 0.547 1 1.25v-0.25c0-1 0-2-1-2h-4z" style="opacity:.05"/>
 <path d="m14 17c-0.831 0-1.347 0.403-1.733 1h23.468c-0.387-0.597-0.904-1-1.734-1z" style="fill:#fff;opacity:.1"/>
</svg>
