<svg xmlns="http://www.w3.org/2000/svg" width="48" viewBox="0 0 13.546667 13.546667" height="48">
 <defs>
  <linearGradient id="linearGradient5286" gradientUnits="userSpaceOnUse" gradientTransform="matrix(0.28222223,0,0,0.28222223,-13.546667,6.2502911e-4)" x1="1" x2="47">
   <stop style="stop-color:#6e6196;stop-opacity:1"/>
   <stop offset="1" style="stop-color:#847baf;stop-opacity:1"/>
  </linearGradient>
 </defs>
 <g>
  <g transform="scale(0.28222223,0.28222223)">
   <path d="m 1,43 0,0.25 c 0,2.216 1.784,4 4,4 l 38,0 c 2.216,0 4,-1.784 4,-4 L 47,43 c 0,2.216 -1.784,4 -4,4 L 5,47 C 2.784,47 1,45.216 1,43 z m 0,0.5 0,0.5 c 0,2.216 1.784,4 4,4 l 38,0 c 2.216,0 4,-1.784 4,-4 l 0,-0.5 c 0,2.216 -1.784,4 -4,4 l -38,0 c -2.216,0 -4,-1.784 -4,-4 z" style="opacity:0.02"/>
   <path d="m 1 43.25 0 0.25 c 0 2.216 1.784 4 4 4 l 38 0 c 2.216 0 4 -1.784 4 -4 l 0 -0.25 c 0 2.216 -1.784 4 -4 4 l -38 0 c -2.216 0 -4 -1.784 -4 -4 z" style="opacity:0.05"/>
   <path d="m 1,43 0,0.25 c 0,2.216 1.784,4 4,4 l 38,0 c 2.216,0 4,-1.784 4,-4 L 47,43 c 0,2.216 -1.784,4 -4,4 L 5,47 C 2.784,47 1,45.216 1,43 z" style="opacity:0.1"/>
  </g>
  <rect transform="matrix(0,-1,1,0,0,0)" rx="1.129" y="0.282" x="-13.264" height="12.982" width="12.982" style="fill:url(#linearGradient5286);fill-opacity:1"/>
  <g transform="scale(0.28222223,0.28222223)">
   <g transform="translate(0,-1004.3622)">
    <path d="m 1 1043.36 0 4 c 0 2.216 1.784 4 4 4 l 38 0 c 2.216 0 4 -1.784 4 -4 l 0 -4 c 0 2.216 -1.784 4 -4 4 l -38 0 c -2.216 0 -4 -1.784 -4 -4 z" style="opacity:0.1"/>
   </g>
  </g>
  <path d="m 4.233 3.669 c -0.282 0 -0.282 0.282 -0.282 0.564 l 0 0.071 0 0.212 0 0.564 c -0.055 0 -0.109 0.003 -0.159 0.018 -0.016 0.004 -0.029 0.012 -0.044 0.018 -0.016 0.006 -0.029 0.019 -0.044 0.026 -0.018 0.009 -0.037 0.016 -0.053 0.026 -0.036 0.023 -0.067 0.049 -0.097 0.079 -0.035 0.035 -0.064 0.072 -0.088 0.115 -0.048 0.083 -0.079 0.179 -0.079 0.282 l 0 3.387 c 0 0.313 0.252 0.564 0.564 0.564 l 5.644 0 c 0.313 0 0.564 -0.252 0.564 -0.564 l 0 -3.387 c 0 -0.103 -0.031 -0.199 -0.079 -0.282 -0.025 -0.043 -0.054 -0.08 -0.088 -0.115 -0.03 -0.031 -0.062 -0.056 -0.097 -0.079 -0.016 -0.001 -0.035 -0.018 -0.053 -0.026 -0.015 -0.007 -0.028 -0.02 -0.044 -0.026 -0.015 -0.006 -0.029 -0.013 -0.044 -0.018 -0.048 -0.013 -0.1 -0.018 -0.159 -0.018 l 0 -0.282 c 0 -0.282 -0.282 -0.564 -0.564 -0.564 l -3.387 0 c 0 -0.282 0 -0.564 -0.282 -0.564 l -1.129 0 z" style="fill:#000;fill-opacity:0.102;stroke:none"/>
  <path d="m 4.233 3.951 4.798 0 c 0.282 0 0.564 0.282 0.564 0.564 l 0 1.129 c 0 0.313 -0.126 0.564 -0.282 0.564 l -5.08 0 c -0.156 0 -0.282 -0.252 -0.282 -0.564 l 0 -1.693 z" style="fill:#e9a439;fill-opacity:1;stroke:none"/>
  <path d="m 3.951 4.516 0 1.411 5.644 0 0 -1.411 z" style="fill:#000;opacity:0.03;fill-opacity:1;stroke:none"/>
  <rect width="6.773" height="4.516" x="3.387" y="4.798" rx="0.564" style="fill:#f5c14e;fill-opacity:1;stroke:none"/>
  <path d="m 5.792 5.644 c -0.146 0 -0.287 0.02 -0.421 0.054 0 -0.002 0 -0.003 0 -0.006 -0.15 0.039 -0.264 0.09 -0.286 0.1 0 0.003 0 0.006 0 0.001 -0.0001 0 -0.003 0.0001 -0.006 0.002 0.016 0.122 0.038 0.244 0.049 0.299 0.119 0.504 0.463 0.919 0.918 1.14 -0.002 0.034 -0.006 0.067 -0.006 0.102 0 0.465 0.187 0.886 0.488 1.194 -0.002 0.0001 0.002 0.002 0 0.003 0.087 0.082 0.205 0.176 0.229 0.195 0.006 0.003 0.017 0.006 0.02 0.011 0.1 -0.088 0.19 -0.184 0.213 -0.209 0.301 -0.308 0.488 -0.729 0.488 -1.194 0 -0.032 -0.006 -0.063 -0.006 -0.095 0.463 -0.214 0.813 -0.629 0.937 -1.135 -0.002 -0.0001 0.0001 -0.002 0 -0.003 0.031 -0.135 0.053 -0.282 0.053 -0.298 -0.002 -0.0001 -0.006 -0.002 -0.008 -0.003 0 -0.008 0 0.0001 0 -0.006 -0.064 -0.029 -0.209 -0.078 -0.287 -0.104 0 0.006 0 -0.002 0 0.003 -0.14 -0.038 -0.288 -0.061 -0.438 -0.061 -0.363 0 -0.698 0.117 -0.973 0.312 c -0.106 0.08 -0.182 0.149 -0.23 0.195 -0.006 0.006 -0.009 0.012 -0.014 0.018 -0.159 0.165 -0.282 0.363 -0.365 0.581 c 0.089 0.053 0.178 0.097 0.257 0.135 0.066 -0.192 0.175 -0.365 0.313 -0.511 0.0001 -0.002 0.006 -0.008 0.009 -0.011 0.006 -0.008 0.013 -0.017 0.023 -0.025 0.002 -0.003 0.006 -0.003 0.009 -0.006 0.098 -0.086 0.175 -0.142 0.233 -0.18 0.029 -0.018 0.058 -0.035 0.088 -0.051 c 0.195 -0.104 0.415 -0.163 0.652 -0.163 c 0.141 0 0.279 0.021 0.408 0.061 c -0.086 0.412 -0.349 0.756 -0.71 0.949 -0.056 -0.238 -0.161 -0.46 -0.306 -0.647 -0.121 0.085 -0.225 0.171 -0.233 0.178 c 0.119 0.152 0.207 0.33 0.256 0.524 0 0 0.006 0.02 0.014 0.057 0.003 0.018 0.006 0.029 0.013 0.064 0.018 0.088 0.016 0.19 0.014 0.23 0 0.008 0 0.029 0 0.029 l -0.003 0.005 c -0.011 0.382 -0.172 0.723 -0.427 0.97 -0.264 -0.255 -0.429 -0.612 -0.43 -1.01 c 0.141 0.039 0.289 0.061 0.441 0.061 0.083 0 0.165 -0.009 0.245 -0.021 0.005 -0.029 0.006 -0.062 0.009 -0.111 0.003 -0.088 -0.008 -0.149 -0.017 -0.183 -0.077 0.013 -0.157 0.02 -0.236 0.02 -0.142 0 -0.28 -0.021 -0.41 -0.06 c -0.102 -0.021 -0.2 -0.072 -0.27 -0.116 c -0.04 -0.024 -0.066 -0.042 -0.08 -0.051 -0.31 -0.201 -0.538 -0.517 -0.614 -0.893 0.124 -0.036 0.256 -0.057 0.393 -0.057 0.2 0 0.387 0.042 0.558 0.118 c 0.084 -0.079 0.185 -0.159 0.242 -0.203 -0.238 -0.13 -0.511 -0.206 -0.8 -0.206 m 0.002 0.0001" style="fill:#3c2f1b;opacity:0.3;fill-opacity:1;stroke:none;fill-rule:nonzero"/>
  <path d="m 3.951 4.233 0 -0.282 c 0 -0.282 0 -0.564 0.282 -0.564 l 1.129 0 c 0.282 0 0.282 0.282 0.282 0.564 l 0 0.282 z" style="fill:#e9a439;fill-opacity:1;stroke:none"/>
  <path d="m 5.644 3.951 0 0.282 0.282 0 3.104 0 c 0.282 0 0.564 0.282 0.564 0.564 l 0 -0.282 c 0 -0.282 -0.282 -0.564 -0.564 -0.564 l -3.104 0 z" style="fill:#000;opacity:0.05;fill-opacity:1;stroke:none"/>
  <path d="m 4.233 3.387 c -0.282 0 -0.282 0.282 -0.282 0.564 l 0 0.071 c 0.013 -0.198 0.071 -0.353 0.282 -0.353 l 1.129 0 c 0.212 0 0.269 0.154 0.282 0.353 l 0 -0.071 c 0 -0.282 0 -0.564 -0.282 -0.564 l -1.129 0 z" style="fill:#000;opacity:0.05;fill-opacity:1;stroke:none"/>
  <path d="m 3.951 4.798 c -0.234 0 -0.38 0.114 -0.489 0.282 l 6.623 0 c -0.109 -0.168 -0.255 -0.282 -0.489 -0.282 z" style="fill:#fff;opacity:0.1;fill-opacity:1;stroke:none"/>
 </g>
</svg>
