<svg version="1.1" viewBox="0 0 48 48" xmlns="http://www.w3.org/2000/svg">
 <defs>
  <linearGradient id="linearGradient4933" x1="2.5651" x2="2.5651" y1="-70.577" y2="-24.577" gradientTransform="rotate(-90 25.571 1.9941)" gradientUnits="userSpaceOnUse">
   <stop stop-color="#b24432" offset="0"/>
   <stop stop-color="#c24936" offset="1"/>
  </linearGradient>
 </defs>
 <path d="m1 43v0.25c0 2.216 1.784 4 4 4h38c2.216 0 4-1.784 4-4v-0.25c0 2.216-1.784 4-4 4h-38c-2.216 0-4-1.784-4-4zm0 0.5v0.5c0 2.216 1.784 4 4 4h38c2.216 0 4-1.784 4-4v-0.5c0 2.216-1.784 4-4 4h-38c-2.216 0-4-1.784-4-4z" opacity=".02"/>
 <path d="m1 43.25v0.25c0 2.216 1.784 4 4 4h38c2.216 0 4-1.784 4-4v-0.25c0 2.216-1.784 4-4 4h-38c-2.216 0-4-1.784-4-4z" opacity=".05"/>
 <path d="m1 43v0.25c0 2.216 1.784 4 4 4h38c2.216 0 4-1.784 4-4v-0.25c0 2.216-1.784 4-4 4h-38c-2.216 0-4-1.784-4-4z" opacity=".1"/>
 <rect transform="rotate(-90)" x="-47" y="1" width="46" height="46" rx="4" fill="url(#linearGradient4933)"/>
 <g transform="translate(0 -1004.4)">
  <path d="m1 1043.4v4c0 2.216 1.784 4 4 4h38c2.216 0 4-1.784 4-4v-4c0 2.216-1.784 4-4 4h-38c-2.216 0-4-1.784-4-4z" opacity=".1"/>
 </g>
 <path d="m11.999 20.001v12c0 1.108 0.892 2 2 2h20c1.108 0 2-0.892 2-2v-12z" fill-opacity=".102"/>
 <path d="m15 14h17c1 0 2 1 2 2v4c0 1.108-0.446 2-1 2h-18c-0.554 0-1-0.892-1-2v-6z" fill="#e9a439"/>
 <path d="m14 16v5h20v-5z" opacity=".03"/>
 <rect x="12" y="17" width="24" height="16" rx="2" fill="#f5c14e"/>
 <path d="m14 15v-1c0-1 0-2 1-2h4c1 0 1 1 1 2v1z" fill="#e9a439"/>
 <path d="m20 14v1h12c1 0 2 1 2 2v-1c0-1-1-2-2-2h-11z" opacity=".05"/>
 <path d="m15 12c-1 0-1 1-1 2v0.25c0.047-0.703 0.25-1.25 1-1.25h4c0.75 0 0.953 0.547 1 1.25v-0.25c0-1 0-2-1-2h-4z" opacity=".05"/>
 <path d="m14 17c-0.831 0-1.347 0.403-1.733 1h23.468c-0.387-0.597-0.904-1-1.734-1z" fill="#fff" opacity=".1"/>
 <g transform="matrix(.50002 0 0 .50002 12.003 12.996)" fill="#3c2f1b" opacity=".3">
  <path d="m32.395 12.01c-0.961 0.02-1.91 0.648-2.063 1.844-0.242 1.902 1.578 1.188 3.03 1.188 1.453 0 1.941 3.09 1.574 4.754-0.363 1.664-4.227 5.59-12.969 1.664-7.195-3.234-10.789 1.07-10.977 1.156 0.688 6.426 6.234 13.391 12.977 13.391 7.188 0 13.03-7.68 13.03-14.73 0-0.809-0.094-1.609-0.242-2.375-0.133-0.391-0.266-0.777-0.363-1.129-0.176-0.633-0.375-1.168-0.547-1.664-8e-3 -0.016 8e-3 -0.043 0-0.059-0.688-1.5-1.652-2.852-2.848-3.98-4e-3 -0.012-0.027 8e-3 -0.031 0-0.188-0.047-0.383-0.063-0.574-0.063"/>
  <path d="m30.395 16.527c0 0.395-0.328 0.715-0.727 0.715-0.402 0-0.73-0.32-0.73-0.715 0-0.391 0.328-0.711 0.73-0.711 0.398 0 0.727 0.32 0.727 0.711"/>
  <path d="m28.938 13.945c0 0.277-0.23 0.504-0.516 0.504-0.285 0-0.516-0.227-0.516-0.504 0-0.281 0.23-0.508 0.516-0.508 0.285 0 0.516 0.227 0.516 0.508"/>
 </g>
</svg>
