<svg xmlns="http://www.w3.org/2000/svg" viewBox="0 0 128 128">
 <path d="m 12.13 20 c -2.258 0.223 -4.16 2.355 -4.125 4.625 l 0 78.75 c -0.027 2.43 2.195 4.652 4.625 4.625 l 102.75 0 c 2.43 0.027 4.652 -2.195 4.625 -4.625 l 0 -70.75 c 0.027 -2.426 -2.195 -4.652 -4.625 -4.625 l -39.37 0 0 -3.375 c 0.027 -2.387 -2.113 -4.586 -4.5 -4.625 l -58.875 0 c -0.164 -0.008 -0.332 -0.008 -0.5 0 z m 0 0" style="fill:#8d6e63;opacity:0.4;fill-opacity:1;stroke:none;fill-rule:nonzero"/>
 <path d="m 16 16 96 0 0 52 -96 0 z m 0 0" style="fill:#e8e6cf;fill-opacity:1;stroke:none;fill-rule:nonzero"/>
 <path d="m 24 58 80 0 0 4 -80 0 z m 0 0" style="fill:#787866;fill-opacity:1;stroke:none;fill-rule:nonzero"/>
 <path d="m 12.13 56 c -2.258 0.223 -4.16 2.355 -4.125 4.625 l 0 42.75 c -0.027 2.43 2.195 4.652 4.625 4.625 l 102.75 0 c 2.43 0.027 4.652 -2.195 4.625 -4.625 l 0 -34.75 c 0.027 -2.426 -2.195 -4.652 -4.625 -4.625 l -39.37 0 0 -3.375 c 0.027 -2.387 -2.113 -4.586 -4.5 -4.625 l -58.875 0 c -0.164 -0.008 -0.332 -0.008 -0.5 0 z m 0 0" style="fill:#8d6e63;fill-opacity:1;stroke:none;fill-rule:nonzero"/>
 <path d="m 24 34 80 0 0 4 -80 0 z m 0 0" style="fill:#787866;fill-opacity:1;stroke:none;fill-rule:nonzero"/>
 <path d="m 24 42 80 0 0 4 -80 0 z m 0 0" style="fill:#787866;fill-opacity:1;stroke:none;fill-rule:nonzero"/>
 <path d="m 24 50 80 0 0 4 -80 0 z m 0 0" style="fill:#787866;fill-opacity:1;stroke:none;fill-rule:nonzero"/>
 <path d="m 24 26 80 0 0 4 -80 0 z m 0 0" style="fill:#787866;fill-opacity:1;stroke:none;fill-rule:nonzero"/>
 <path d="m 127.99 96 c 0.234 11.352 -5.813 21.945 -15.805 27.695 -10 5.742 -22.383 5.742 -32.375 0 c -9.992 -5.75 -16.04 -16.344 -15.805 -27.695 -0.234 -11.352 5.813 -21.945 15.805 -27.688 c 9.992 -5.75 22.375 -5.75 32.375 0 9.992 5.742 16.04 16.336 15.805 27.688 z m 0 0" style="fill:#859900;fill-opacity:1;stroke:none;fill-rule:evenodd"/>
 <path d="m 113.5 75.883 c -0.68 0.238 -1.25 0.695 -1.641 1.297 l -17.438 16.883 -10.883 -10.391 c -0.438 -1.445 -1.805 -2.398 -3.32 -2.32 -1.516 0.078 -2.781 1.18 -3.055 2.664 -0.266 1.477 0.523 2.945 1.914 3.547 l 13.11 12.992 c 1.258 1.148 3.203 1.148 4.461 0 l 19.672 -19.484 c 0.766 -1.01 0.875 -2.375 0.266 -3.484 -0.609 -1.117 -1.813 -1.781 -3.086 -1.703 z m 0 0" style="fill:#fff;fill-opacity:1;stroke:none;fill-rule:nonzero"/>
</svg>
