<svg xmlns="http://www.w3.org/2000/svg" viewBox="0 0 128 128">
 <path d="m 4.125 48 c -2.258 0.223 -4.16 2.355 -4.125 4.625 l 0 70.75 c -0.027 2.43 2.195 4.652 4.625 4.625 l 67.38 0 0 -16 -24 0 0 -40 24 0 0 -16 -4 0 0 -3.375 c 0.027 -2.387 -2.113 -4.586 -4.5 -4.625 l -58.875 0 c -0.168 -0.008 -0.332 -0.008 -0.5 0 z m 0 0" style="fill:#7e57c2;opacity:0.4;fill-opacity:1;stroke:none;fill-rule:nonzero"/>
 <path d="m 20.13 0 c -2.258 0.223 -4.16 2.355 -4.125 4.625 l 0 70.75 c -0.027 2.43 2.195 4.652 4.625 4.625 l 27.375 0 l 0 -8 24 0 0 -24 40 0 0 24 16 0 0 -59.37 c 0.027 -2.43 -2.195 -4.652 -4.625 -4.625 l -39.37 0 0 -3.375 c 0.027 -2.387 -2.113 -4.586 -4.5 -4.625 l -58.875 0 c -0.168 -0.008 -0.332 -0.008 -0.5 0 z m 0 0" style="fill:#7e57c2;fill-opacity:1;stroke:none;fill-rule:nonzero"/>
 <path d="m 128 80 -24 0 0 -24 -24 0 0 24 -24 0 0 24 24 0 0 24 24 0 0 -24 24 0 z m 0 0" style="fill:#859900;fill-opacity:1;stroke:none;fill-rule:nonzero"/>
</svg>
