<svg xmlns="http://www.w3.org/2000/svg" viewBox="0 0 256 256">
 <g transform="translate(0,-796.3622)">
  <path d="m 32 836.36 188 0 c 8 0 12 3.999 12 11.997 l 0 27.993 c 0 4.431 -3.79 3.999 -8 3.999 l -192 0 c -4.21 0 -8 -3.567 -8 -7.998 l 0 -35.99 z" style="fill:replacecolour2;fill-opacity:1;stroke:none"/>
  <path d="m 24 860.36 0 20 208 0 0 -20 z" style="fill:#000;opacity:0.03;fill-opacity:1;stroke:none"/>
  <path d="m 24 852.36 0 -20 c 0 -8 3.636 -12 7.273 -12 l 41.455 0 c 3.636 0 7.273 4 7.273 12 l 0 20 z" style="fill:replacecolour2;fill-opacity:1;stroke:none"/>
  <rect width="240" height="160" x="8" y="868.36" rx="16" ry="13.333" style="fill:replacecolour1;fill-opacity:1;stroke:none"/>
  <path d="m 24 868.36 c -8.864 0 -16 5.988 -16 13.375 l 0 8 c 0 -7.387 7.136 -13.375 16 -13.375 l 208 0 c 8.864 0 16 5.988 16 13.375 l 0 -8 c 0 -7.387 -7.136 -13.375 -16 -13.375 l -208 0 z" style="fill:#fff;opacity:0.1;fill-opacity:1;stroke:none"/>
  <path d="m 80 836.36 0 8 8 0 132 0 c 8 0 12 4 12 12 l 0 -8 c 0 -7.998 -4 -12 -12 -12 l -132 0 z" style="fill:#000;opacity:0.05;fill-opacity:1;stroke:none"/>
  <path d="m 31.25 820.36 c -3.636 0 -7.25 4 -7.25 12 l 0 8 c 0 -8 3.614 -12 7.25 -12 l 41.5 0 c 3.636 0 7.25 4 7.25 12 l 0 -8 c 0 -8 -3.614 -12 -7.25 -12 l -41.5 0 z" style="fill:#000;opacity:0.05;fill-opacity:1;stroke:none"/>
  <path d="m 89.25 904.86 c -3.083 0.096 -6.07 0.356 -9 1.375 -0.923 6.259 0.572 12.752 2.25 18.75 4.269 13.761 12.251 26.866 23.875 35.625 0.426 0.408 1.031 0.52 0.875 1.25 -0.062 3.049 -0.006 6.192 0 9.25 0.125 5.344 3.286 10.481 8 13 5.595 2.947 11.241 5.594 16.875 8.5 2.594 1.375 6.186 -0.096 7 -2.875 0.495 -1.828 0.099 -3.761 0.125 -5.625 -0.019 -3.926 -0.402 -7.873 -0.25 -11.75 5.128 -0.632 10.224 -3.136 13.25 -7.375 2.697 -3.615 3.705 -8.378 3.375 -12.875 5.486 -0.978 11.127 -1.756 16.625 -2.75 3.254 -0.656 4.663 -4.85 2.625 -7.5 -3.999 -5.071 -8.06 -10.09 -12.12 -15.12 -3.282 -3.924 -8.438 -6.04 -13.5 -5.375 -3.433 0.552 -6.865 1.235 -10.25 1.875 -10.931 -10.421 -25.669 -16.194 -40.5 -17.875 -3.046 -0.28 -6.167 -0.548 -9.25 -0.5 z m 18.5 11.375 c 3.583 -0.32 7.144 0.642 10.125 3.125 5.962 4.97 6.965 13.908 2 19.875 -4.965 5.966 -13.788 6.844 -19.75 1.875 -5.962 -4.967 -6.965 -13.781 -2 -19.75 2.482 -2.982 6.04 -4.797 9.625 -5.125 z m 1.625 6.25 c -4.418 0 -8 3.582 -8 8 0 4.418 3.582 8 8 8 4.418 0 8 -3.582 8 -8 0 -4.418 -3.582 -8 -8 -8 z m 54.75 36.75 c -0.87 0.276 -1.617 1.037 -1.75 2 -1.563 7.111 -6.556 13.29 -13.25 16.12 -1.743 0.552 -2.182 2.982 -0.75 4.125 2.938 2.449 6.3 5.191 9.25 7.625 1.435 1.222 3.351 -0.052 3.375 -1.875 -0.046 -1.493 -0.241 -3.153 -0.375 -4.625 3.658 0.784 7.256 1.824 10.875 2.625 1.706 0.352 3.319 -1.624 2.625 -3.25 -1.431 -3.433 -2.906 -6.71 -4.375 -10.125 1.481 -0.176 2.902 -0.392 4.375 -0.625 1.823 -0.36 2.611 -2.936 1.125 -4.125 -2.955 -2.486 -6.01 -4.906 -9 -7.375 -0.35 -0.28 -0.841 -0.46 -1.25 -0.5 -0.307 -0.04 -0.585 -0.092 -0.875 0 z" style="fill:replacecolour3;opacity:1;fill-opacity:1;stroke:none;fill-rule:nonzero"/>
 </g>
</svg>
