<svg xmlns="http://www.w3.org/2000/svg" viewBox="0 0 256 256">
 <g transform="translate(0,-796.3622)">
  <path d="m 32 836.36 188 0 c 8 0 12 3.999 12 11.997 l 0 27.993 c 0 4.431 -3.79 3.999 -8 3.999 l -192 0 c -4.21 0 -8 -3.567 -8 -7.998 l 0 -35.99 z" style="fill:replacecolour2;fill-opacity:1;stroke:none"/>
  <path d="m 24 860.36 0 20 208 0 0 -20 z" style="fill:#000;opacity:0.03;fill-opacity:1;stroke:none"/>
  <path d="m 24 852.36 0 -20 c 0 -8 3.636 -12 7.273 -12 l 41.455 0 c 3.636 0 7.273 4 7.273 12 l 0 20 z" style="fill:replacecolour2;fill-opacity:1;stroke:none"/>
  <rect width="240" height="160" x="8" y="868.36" rx="16" ry="13.333" style="fill:replacecolour1;fill-opacity:1;stroke:none"/>
  <path d="m 24 868.36 c -8.864 0 -16 5.988 -16 13.375 l 0 8 c 0 -7.387 7.136 -13.375 16 -13.375 l 208 0 c 8.864 0 16 5.988 16 13.375 l 0 -8 c 0 -7.387 -7.136 -13.375 -16 -13.375 l -208 0 z" style="fill:#fff;opacity:0.1;fill-opacity:1;stroke:none"/>
  <path d="m 80 836.36 0 8 8 0 132 0 c 8 0 12 4 12 12 l 0 -8 c 0 -7.998 -4 -12 -12 -12 l -132 0 z" style="fill:#000;opacity:0.05;fill-opacity:1;stroke:none"/>
  <path d="m 31.25 820.36 c -3.636 0 -7.25 4 -7.25 12 l 0 8 c 0 -8 3.614 -12 7.25 -12 l 41.5 0 c 3.636 0 7.25 4 7.25 12 l 0 -8 c 0 -8 -3.614 -12 -7.25 -12 l -41.5 0 z" style="fill:#000;opacity:0.05;fill-opacity:1;stroke:none"/>
  <path d="m 128 896.36 c -4.432 0 -8 3.568 -8 8 l 0 40 -16 0 c -8 0 -8 0 0 8 l 16 16 c 8 8 8 8 16 0 l 16 -16 c 8 -8 8 -8 0 -8 l -16 0 0 -40 c 0 -4.432 -3.568 -8 -8 -8 z m -48.31 56 c -4.274 0 -7.688 3.568 -7.688 8 l 0 31.625 0 0.375 0 0.375 c 0 0.231 0.041 0.461 0.063 0.688 0.03 0.232 0.077 0.462 0.125 0.687 0.011 0.06 -0.013 0.128 0 0.188 0.202 0.946 0.593 1.78 1.125 2.562 0.23 0.338 0.469 0.64 0.75 0.938 0.069 0.078 0.116 0.176 0.188 0.25 0.095 0.092 0.212 0.162 0.313 0.25 0.266 0.249 0.514 0.479 0.813 0.687 0.038 0.026 0.087 0.038 0.125 0.062 0.793 0.533 1.728 0.922 2.688 1.125 0.323 0.07 0.663 0.092 1 0.124 0.175 0.02 0.322 0.062 0.5 0.062 0.105 0 0.207 0 0.313 0 l 0.313 0 95.38 0 0.313 0 c 0.277 0 0.543 -0.036 0.813 -0.062 0.337 -0.032 0.677 -0.054 1 -0.124 0.96 -0.203 1.895 -0.592 2.688 -1.125 0.338 -0.217 0.639 -0.488 0.938 -0.75 0.078 -0.072 0.175 -0.112 0.25 -0.188 0.012 -0.02 -0.012 -0.052 0 -0.062 0.012 -0.02 0.051 0.02 0.063 0 0.076 -0.074 0.115 -0.172 0.188 -0.25 0.235 -0.264 0.488 -0.517 0.688 -0.813 0.027 -0.038 0.036 -0.086 0.063 -0.124 0.532 -0.782 0.923 -1.616 1.125 -2.562 0.06 -0.279 0.098 -0.586 0.125 -0.875 0.029 -0.226 0.052 -0.456 0.063 -0.688 l 0 -0.75 0 -31.625 c 0 -4.432 -3.413 -8 -7.688 -8 l -0.625 0 c -4.274 0 -7.688 3.568 -7.688 8 l 0 24 -80 0 0 -24 c 0 -4.432 -3.413 -8 -7.688 -8 l -0.625 0 z" style="fill:replacecolour3;opacity:1;fill-opacity:1;stroke:none"/>
 </g>
</svg>
