<?xml version="1.0" encoding="UTF-8" standalone="no"?>
<!-- Created with Inkscape (http://www.inkscape.org/) -->

<svg
   xmlns:dc="http://purl.org/dc/elements/1.1/"
   xmlns:cc="http://creativecommons.org/ns#"
   xmlns:rdf="http://www.w3.org/1999/02/22-rdf-syntax-ns#"
   xmlns:svg="http://www.w3.org/2000/svg"
   xmlns="http://www.w3.org/2000/svg"
   xmlns:sodipodi="http://sodipodi.sourceforge.net/DTD/sodipodi-0.dtd"
   xmlns:inkscape="http://www.inkscape.org/namespaces/inkscape"
   width="256"
   height="256"
   id="svg2"
   version="1.1"
   inkscape:version="0.91 r"
   sodipodi:docname="custom-folder-download.svg"
   inkscape:export-filename="/media/Data/Main/Visuals/Icons/Numix/Desktop/repos/numix-wiki/Gjorgi/Numix-folders/48/New/folder-144.png"
   inkscape:export-xdpi="270"
   inkscape:export-ydpi="270">
  <defs
     id="defs4" />
  <sodipodi:namedview
     id="base"
     pagecolor="#ffffff"
     bordercolor="#666666"
     borderopacity="1.0"
     inkscape:pageopacity="0.0"
     inkscape:pageshadow="2"
     inkscape:zoom="2.2962746"
     inkscape:cx="71.870096"
     inkscape:cy="97.448827"
     inkscape:document-units="px"
     inkscape:current-layer="layer1"
     showgrid="true"
     inkscape:window-width="1280"
     inkscape:window-height="998"
     inkscape:window-x="0"
     inkscape:window-y="0"
     inkscape:window-maximized="1"
     showguides="true"
     inkscape:guide-bbox="true">
    <inkscape:grid
       type="xygrid"
       id="grid2985"
       empspacing="5"
       visible="true"
       enabled="true"
       snapvisiblegridlinesonly="true" />
  </sodipodi:namedview>
  <metadata
     id="metadata7">
    <rdf:RDF>
      <cc:Work
         rdf:about="">
        <dc:format>image/svg+xml</dc:format>
        <dc:type
           rdf:resource="http://purl.org/dc/dcmitype/StillImage" />
        <dc:title />
      </cc:Work>
    </rdf:RDF>
  </metadata>
  <g
     inkscape:label="Layer 1"
     inkscape:groupmode="layer"
     id="layer1"
     transform="translate(0,-796.3622)">
    <path
       style="fill:replacecolour2;fill-opacity:1;stroke:none"
       d="m 32,836.3623 188,0 c 8,0 12,3.999 12,11.99684 l 0,27.9928 c 0,4.4308 -3.7896,3.9988 -8,3.9988 l -192,0 c -4.2104,0 -8,-3.5672 -8,-7.998 l 0,-35.99044 z"
       id="path3811"
       inkscape:connector-curvature="0"
       sodipodi:nodetypes="csssssscc" />
    <path
       style="opacity:0.02999998;fill:#000000;fill-opacity:1;stroke:none"
       d="m 24,860.36274 0,19.9996 208,0 0,-19.9996 z"
       id="path3807"
       inkscape:connector-curvature="0" />
    <path
       style="fill:replacecolour2;fill-opacity:1;stroke:none"
       d="m 24,852.36234 0,-19.99992 c 0,-8 3.636364,-12 7.272728,-12 l 41.454544,0 c 3.636364,0 7.272728,4 7.272728,12 l 0,19.99992 z"
       id="rect3760"
       inkscape:connector-curvature="0"
       sodipodi:nodetypes="csssscc" />
    <rect
       style="fill:replacecolour1;fill-opacity:1;stroke:none"
       id="rect2990"
       width="240"
       height="160"
       x="8"
       y="868.36218"
       rx="16"
       ry="13.333333" />
    <path
       style="opacity:0.1;fill:#ffffff;fill-opacity:1;stroke:none"
       d="m 24,868.36234 c -8.864,0 -16,5.98832 -16,13.375 l 0,8 c 0,-7.38668 7.136,-13.375 16,-13.375 l 208,0 c 8.864,0 16,5.98832 16,13.375 l 0,-8 c 0,-7.38668 -7.136,-13.375 -16,-13.375 l -208,0 z"
       id="rect3004"
       inkscape:connector-curvature="0" />
    <path
       style="opacity:0.05;fill:#000000;fill-opacity:1;stroke:none"
       d="m 80,836.36234 0,8 8,0 132,0 c 8,0 12,4.002 12,12 l 0,-8 c 0,-7.99784 -4,-12 -12,-12 l -132,0 z"
       id="path3781"
       inkscape:connector-curvature="0"
       sodipodi:nodetypes="cccscsscc" />
    <path
       style="opacity:0.05;fill:#000000;fill-opacity:1;stroke:none"
       d="m 31.25,820.36234 c -3.636364,0 -7.25,4 -7.25,12 l 0,8 c 0,-8 3.613636,-12 7.25,-12 l 41.5,0 c 3.636364,0 7.25,4 7.25,12 l 0,-8 c 0,-8 -3.613636,-12 -7.25,-12 l -41.5,0 z"
       id="path3801"
       inkscape:connector-curvature="0" />
    <path
       style="fill:replacecolour3;fill-opacity:1;stroke:none;opacity:1.0"
       d="m 128,896.36226 c -4.432,0 -8,3.568 -8,8 l 0,40 -16,0 c -8,0 -8,0 0,8 l 16,16 c 8,7.99996 8,7.99996 16,0 l 16,-16 c 8,-8 8,-8 0,-8 l -16,0 0,-40 c 0,-4.432 -3.568,-8 -8,-8 z m -48.3125,56 c -4.274456,0 -7.6875,3.568 -7.6875,8 l 0,31.62496 0,0.375 0,0.375 c 0,0.2314 0.0415,0.4614 0.0625,0.6876 0.02956,0.232 0.0768,0.4622 0.125,0.6874 0.0112,0.06 -0.0126,0.128 0,0.188 0.202284,0.9464 0.593114,1.7804 1.125,2.5624 0.22968,0.3376 0.4686,0.6398 0.75,0.9376 0.0691,0.078 0.11552,0.176 0.1875,0.25 0.09526,0.092 0.212374,0.162 0.3125,0.25 0.266376,0.2486 0.514272,0.4788 0.8125,0.6874 0.038,0.026 0.08652,0.038 0.125,0.062 0.792696,0.5332 1.7276,0.9222 2.6875,1.12498 0.323088,0.07 0.663012,0.092 1,0.124 0.17502,0.02 0.321898,0.062 0.5,0.062 0.10488,0 0.206588,0 0.3125,0 l 0.3125,0 95.375,0 0.3125,0 c 0.277,0 0.54291,-0.036 0.8125,-0.062 0.33699,-0.032 0.67691,-0.054 1,-0.124 0.9599,-0.20278 1.8948,-0.59178 2.6875,-1.12498 0.33762,-0.217 0.63948,-0.4878 0.9375,-0.75 0.0781,-0.072 0.17484,-0.112 0.25,-0.188 0.0118,-0.02 -0.0118,-0.052 0,-0.062 0.0116,-0.02 0.0511,0.02 0.0625,0 0.0762,-0.074 0.11458,-0.172 0.1875,-0.25 0.23528,-0.2642 0.48805,-0.5172 0.6875,-0.8126 0.0274,-0.038 0.0358,-0.086 0.0625,-0.124 0.53189,-0.782 0.92272,-1.616 1.125,-2.5624 0.0596,-0.2792 0.0981,-0.5856 0.125,-0.875 0.0288,-0.2264 0.0522,-0.4558 0.0625,-0.6876 l 0,-0.75 0,-31.62496 c 0,-4.432 -3.41304,-8 -7.6875,-8 l -0.625,0 c -4.27446,0 -7.6875,3.568 -7.6875,8 l 0,23.99996 -80,0 0,-23.99996 c 0,-4.432 -3.413044,-8 -7.6875,-8 l -0.625,0 z"
       id="rect2989-7"
       inkscape:connector-curvature="0" />
  </g>
</svg>
