<svg xmlns="http://www.w3.org/2000/svg" viewBox="0 0 256 256">
 <g transform="translate(0,-796.3622)">
  <path d="m 32 836.36 188 0 c 8 0 12 3.999 12 11.997 l 0 27.993 c 0 4.431 -3.79 3.999 -8 3.999 l -192 0 c -4.21 0 -8 -3.567 -8 -7.998 l 0 -35.99 z" style="fill:#757575;fill-opacity:1;stroke:none"/>
  <path d="m 24 860.36 0 20 208 0 0 -20 z" style="fill:#000;opacity:0.03;fill-opacity:1;stroke:none"/>
  <path d="m 24 852.36 0 -20 c 0 -8 3.636 -12 7.273 -12 l 41.455 0 c 3.636 0 7.273 4 7.273 12 l 0 20 z" style="fill:#757575;fill-opacity:1;stroke:none"/>
  <rect width="240" height="160" x="8" y="868.36" rx="16" ry="13.333" style="fill:#bdbdbd;fill-opacity:1;stroke:none"/>
  <path d="m 24 868.36 c -8.864 0 -16 5.988 -16 13.375 l 0 8 c 0 -7.387 7.136 -13.375 16 -13.375 l 208 0 c 8.864 0 16 5.988 16 13.375 l 0 -8 c 0 -7.387 -7.136 -13.375 -16 -13.375 l -208 0 z" style="fill:#fff;opacity:0.1;fill-opacity:1;stroke:none"/>
  <path d="m 80 836.36 0 8 8 0 132 0 c 8 0 12 4 12 12 l 0 -8 c 0 -7.998 -4 -12 -12 -12 l -132 0 z" style="fill:#000;opacity:0.05;fill-opacity:1;stroke:none"/>
  <path d="m 31.25 820.36 c -3.636 0 -7.25 4 -7.25 12 l 0 8 c 0 -8 3.614 -12 7.25 -12 l 41.5 0 c 3.636 0 7.25 4 7.25 12 l 0 -8 c 0 -8 -3.614 -12 -7.25 -12 l -41.5 0 z" style="fill:#000;opacity:0.05;fill-opacity:1;stroke:none"/>
  <path d="m 84 896.36 c 0 0 -8 0.304 -8 8 l 0 16 16 0 0 -8 8 0 0 -16 -15.25 0 -0.75 0 z m 24 0 0 16 16 0 0 -16 -16 0 z m 24 0 0 16 16 0 0 -16 -16 0 z m 24 0 0 16 8 0 0 8 16 0 0 -16 c 0 -8 -8 -8 -8 -8 l -16 0 z m -80 32 0 16 16 0 0 -16 -16 0 z m 88 0 0 16 16 0 0 -16 -16 0 z m -88 24 0 16 16 0 0 -16 -16 0 z m 88 0 0 16 16 0 0 -16 -16 0 z m -88 24 0 16 c 0 8 8 8 8 8 l 16 0 0 -16 -8 0 0 -8 -16 0 z m 88 0 0 8 -8 0 0 16 16 0 c 0 0 8 0 8 -8 l 0 -16 -16 0 z m -56 8 0 16 16 0 0 -16 -16 0 z m 24 0 0 16 16 0 0 -16 -16 0 z" style="fill:#7f7f7f;opacity:1;fill-opacity:1;color:#000"/>
 </g>
</svg>
