<?xml version="1.0" encoding="UTF-8" standalone="no"?>
<!-- Created with Inkscape (http://www.inkscape.org/) -->

<svg
   xmlns:dc="http://purl.org/dc/elements/1.1/"
   xmlns:cc="http://creativecommons.org/ns#"
   xmlns:rdf="http://www.w3.org/1999/02/22-rdf-syntax-ns#"
   xmlns:svg="http://www.w3.org/2000/svg"
   xmlns="http://www.w3.org/2000/svg"
   xmlns:sodipodi="http://sodipodi.sourceforge.net/DTD/sodipodi-0.dtd"
   xmlns:inkscape="http://www.inkscape.org/namespaces/inkscape"
   width="256"
   height="256"
   id="svg2"
   version="1.1"
   inkscape:version="0.91 r"
   sodipodi:docname="grey-folder-system.svg"
   inkscape:export-filename="/media/Data/Main/Visuals/Icons/Numix/Desktop/repos/numix-wiki/Gjorgi/Numix-folders/48/New/folder-144.png"
   inkscape:export-xdpi="270"
   inkscape:export-ydpi="270">
  <defs
     id="defs4" />
  <sodipodi:namedview
     id="base"
     pagecolor="#ffffff"
     bordercolor="#666666"
     borderopacity="1.0"
     inkscape:pageopacity="0.0"
     inkscape:pageshadow="2"
     inkscape:zoom="2.2962747"
     inkscape:cx="58.57241"
     inkscape:cy="104.75862"
     inkscape:document-units="px"
     inkscape:current-layer="layer1"
     showgrid="true"
     inkscape:window-width="1280"
     inkscape:window-height="998"
     inkscape:window-x="0"
     inkscape:window-y="0"
     inkscape:window-maximized="1"
     showguides="true"
     inkscape:guide-bbox="true">
    <inkscape:grid
       type="xygrid"
       id="grid2985"
       empspacing="5"
       visible="true"
       enabled="true"
       snapvisiblegridlinesonly="true" />
  </sodipodi:namedview>
  <metadata
     id="metadata7">
    <rdf:RDF>
      <cc:Work
         rdf:about="">
        <dc:format>image/svg+xml</dc:format>
        <dc:type
           rdf:resource="http://purl.org/dc/dcmitype/StillImage" />
        <dc:title />
      </cc:Work>
    </rdf:RDF>
  </metadata>
  <g
     inkscape:label="Layer 1"
     inkscape:groupmode="layer"
     id="layer1"
     transform="translate(0,-796.3622)">
    <path
       style="fill:#757575;fill-opacity:1;stroke:none"
       d="m 32,836.3623 188,0 c 8,0 12,3.999 12,11.99684 l 0,27.9928 c 0,4.4308 -3.7896,3.9988 -8,3.9988 l -192,0 c -4.2104,0 -8,-3.5672 -8,-7.998 l 0,-35.99044 z"
       id="path3811"
       inkscape:connector-curvature="0"
       sodipodi:nodetypes="csssssscc" />
    <path
       style="opacity:0.02999998;fill:#000000;fill-opacity:1;stroke:none"
       d="m 24,860.36274 0,19.9996 208,0 0,-19.9996 z"
       id="path3807"
       inkscape:connector-curvature="0" />
    <path
       style="fill:#757575;fill-opacity:1;stroke:none"
       d="m 24,852.36234 0,-19.99992 c 0,-8 3.636364,-12 7.272728,-12 l 41.454544,0 c 3.636364,0 7.272728,4 7.272728,12 l 0,19.99992 z"
       id="rect3760"
       inkscape:connector-curvature="0"
       sodipodi:nodetypes="csssscc" />
    <rect
       style="fill:#bdbdbd;fill-opacity:1;stroke:none"
       id="rect2990"
       width="240"
       height="160"
       x="8"
       y="868.36218"
       rx="16"
       ry="13.333333" />
    <path
       style="opacity:0.1;fill:#ffffff;fill-opacity:1;stroke:none"
       d="m 24,868.36234 c -8.864,0 -16,5.98832 -16,13.375 l 0,8 c 0,-7.38668 7.136,-13.375 16,-13.375 l 208,0 c 8.864,0 16,5.98832 16,13.375 l 0,-8 c 0,-7.38668 -7.136,-13.375 -16,-13.375 l -208,0 z"
       id="rect3004"
       inkscape:connector-curvature="0" />
    <path
       style="opacity:0.05;fill:#000000;fill-opacity:1;stroke:none"
       d="m 80,836.36234 0,8 8,0 132,0 c 8,0 12,4.002 12,12 l 0,-8 c 0,-7.99784 -4,-12 -12,-12 l -132,0 z"
       id="path3781"
       inkscape:connector-curvature="0"
       sodipodi:nodetypes="cccscsscc" />
    <path
       style="opacity:0.05;fill:#000000;fill-opacity:1;stroke:none"
       d="m 31.25,820.36234 c -3.636364,0 -7.25,4 -7.25,12 l 0,8 c 0,-8 3.613636,-12 7.25,-12 l 41.5,0 c 3.636364,0 7.25,4 7.25,12 l 0,-8 c 0,-8 -3.613636,-12 -7.25,-12 l -41.5,0 z"
       id="path3801"
       inkscape:connector-curvature="0" />
    <path
       id="path3002-7"
       d="m 120.44444,900.36226 c -2.66218,0 -4.88889,2.1156 -4.88889,4.7784 v 6.222 c -1.68319,0.57 -3.31644,1.2216 -4.88888,1.9992 l -4.33351,-4.3324 c -1.88245,-1.8824 -4.89529,-1.8824 -6.777596,0 l -10.888896,10.7772 c -1.882456,1.8828 -1.882456,4.896 0,6.7776 l 4.333508,4.3336 c -0.797652,1.5996 -1.424468,3.2852 -2,4.9992 h -6.11128 c -2.6622,0 -4.888896,2.1164 -4.888896,4.7784 v 15.3336 c 0,2.6624 2.226696,4.7784 4.888896,4.7784 h 6.11128 c 0.57546,1.7144 1.202384,3.3996 2,4.9992 l -4.333508,4.334 c -1.882456,1.88276 -1.882456,4.89476 0,6.77756 l 10.888896,10.7772 c 1.882456,1.882 4.895286,1.882 6.777596,0 l 4.33351,-4.3328 c 1.57244,0.78 3.20569,1.4336 4.88888,1.9992 v 6.222 c 0,2.6628 2.22675,4.7784 4.88889,4.7784 h 15.22204 c 2.66219,0 4.77796,-2.1156 4.77796,-4.7784 v -6.222 c 1.71492,-0.576 3.40026,-1.2024 4.99982,-1.9992 l 4.33352,4.3328 c 1.88245,1.882 4.8953,1.882 6.7776,0 l 10.8889,-10.7772 c 1.88245,-1.8828 1.8824,-4.896 0,-6.77756 l -4.44445,-4.4444 c 0.77897,-1.5724 1.43509,-3.2056 2,-4.8888 h 6.22222 c 2.66219,0 4.77795,-2.116 4.77795,-4.7784 v -15.3336 c 0,-2.662 -2.11563,-4.7784 -4.77795,-4.7784 h -6.22222 c -0.5649,-1.6828 -1.22101,-3.316 -2,-4.8888 l 4.44445,-4.444 c 1.88245,-1.8828 1.88245,-4.8948 0,-6.7776 l -10.8889,-10.7772 c -1.88246,-1.8824 -4.8953,-1.8824 -6.7776,0 l -4.33352,4.3324 c -1.59974,-0.7992 -3.28508,-1.4232 -4.99982,-1.9992 v -6.222 c 0,-2.6628 -2.11562,-4.7784 -4.77796,-4.7784 h -15.22204 z m 7.55555,35.5548 c 6.86934,0 12.44445,5.576 12.44445,12.446 0,6.8688 -5.57511,12.4444 -12.44445,12.4444 -6.86933,0 -12.44444,-5.5756 -12.44444,-12.4444 0,-6.87 5.57511,-12.446 12.44444,-12.446 z"
       style="line-height:normal;color:#000000;fill:#7f7f7f;fill-opacity:1;display:block;opacity:1.0"
       inkscape:connector-curvature="0" />
  </g>
</svg>
