<svg xmlns="http://www.w3.org/2000/svg" viewBox="0 0 256 256">
 <g transform="translate(0,-796.3622)">
  <path d="m 32 836.36 188 0 c 8 0 12 3.999 12 11.997 l 0 27.993 c 0 4.431 -3.79 3.999 -8 3.999 l -192 0 c -4.21 0 -8 -3.567 -8 -7.998 l 0 -35.99 z" style="fill:#ffb300;fill-opacity:1;stroke:none"/>
  <path d="m 24 860.36 0 20 208 0 0 -20 z" style="fill:#000;opacity:0.03;fill-opacity:1;stroke:none"/>
  <path d="m 24 852.36 0 -20 c 0 -8 3.636 -12 7.273 -12 l 41.455 0 c 3.636 0 7.273 4 7.273 12 l 0 20 z" style="fill:#ffb300;fill-opacity:1;stroke:none"/>
  <rect width="240" height="160" x="8" y="868.36" rx="16" ry="13.333" style="fill:#ffca28;fill-opacity:1;stroke:none"/>
  <path d="m 24 868.36 c -8.864 0 -16 5.988 -16 13.375 l 0 8 c 0 -7.387 7.136 -13.375 16 -13.375 l 208 0 c 8.864 0 16 5.988 16 13.375 l 0 -8 c 0 -7.387 -7.136 -13.375 -16 -13.375 l -208 0 z" style="fill:#fff;opacity:0.1;fill-opacity:1;stroke:none"/>
  <path d="m 80 836.36 0 8 8 0 132 0 c 8 0 12 4 12 12 l 0 -8 c 0 -7.998 -4 -12 -12 -12 l -132 0 z" style="fill:#000;opacity:0.05;fill-opacity:1;stroke:none"/>
  <path d="m 31.25 820.36 c -3.636 0 -7.25 4 -7.25 12 l 0 8 c 0 -8 3.614 -12 7.25 -12 l 41.5 0 c 3.636 0 7.25 4 7.25 12 l 0 -8 c 0 -8 -3.614 -12 -7.25 -12 l -41.5 0 z" style="fill:#000;opacity:0.05;fill-opacity:1;stroke:none"/>
  <path d="m 172 890.36 c -6.627 0 -12 5.373 -12 12 0 6.627 5.373 12 12 12 6.627 0 12 -5.373 12 -12 0 -6.627 -5.373 -12 -12 -12 z m -44 8 c -9.168 0 -17.72 2.53 -25 7 l 11.875 11.875 c 4.01 -1.805 8.446 -2.875 13.13 -2.875 16.313 0 29.775 12.222 31.75 28 l 16 0 c -0.65 -7.678 -3.045 -14.902 -6.875 -21.12 -1.503 0.677 -3.12 1.125 -4.875 1.125 -6.627 0 -12 -5.372 -12 -12 0 -1.756 0.448 -3.372 1.125 -4.875 -7.308 -4.498 -15.915 -7.125 -25.12 -7.125 z m -31.375 11.875 c -7.516 6.553 -13.06 15.325 -15.375 25.375 3.981 1.953 6.75 6.02 6.75 10.75 0 4.734 -2.769 8.797 -6.75 10.75 2.49 10.827 8.567 20.331 17 27 l 11.5 -11.5 c -8.301 -5.781 -13.75 -15.367 -13.75 -26.25 c 0 -10.04 4.639 -19.01 11.875 -24.875 l -11.25 -11.25 z m -32.625 24.13 c -6.627 0 -12 5.373 -12 12 0 6.627 5.373 12 12 12 6.627 0 12 -5.373 12 -12 0 -6.627 -5.373 -12 -12 -12 z m 95.75 16 c -1.975 15.778 -15.437 28 -31.75 28 -3.783 0 -7.381 -0.795 -10.75 -2 l -12.12 12.13 c 6.808 3.72 14.571 5.875 22.875 5.875 6.05 0 11.793 -1.082 17.13 -3.125 -0.677 -1.503 -1.125 -3.119 -1.125 -4.875 0 -6.628 5.373 -12 12 -12 3.216 0 6.095 1.315 8.25 3.375 6.482 -7.483 10.637 -16.925 11.5 -27.375 l -16 0 z m 4.25 32 c -6.627 0 -12 5.373 -12 12 0 6.627 5.373 12 12 12 6.627 0 12 -5.373 12 -12 0 -6.627 -5.373 -12 -12 -12 z" style="fill:#c79a18;opacity:1;fill-opacity:1;stroke:none"/>
 </g>
</svg>
