<svg xmlns="http://www.w3.org/2000/svg" viewBox="0 0 128 128">
 <defs>
  <radialGradient r="24" cy="40.5" cx="24" gradientTransform="matrix(3.3333334,0,0,0.5555554,-16,1008.529)" gradientUnits="userSpaceOnUse" id="radialGradient3098">
   <stop style="stop-color:#000;stop-opacity:1"/>
   <stop offset="1" style="stop-color:#000;stop-opacity:0.196"/>
  </radialGradient>
 </defs>
 <g transform="translate(0,-924.3622)">
  <path d="m 64 1017.7 c -26.2 0 -49.41 2.088 -64 5.334 l 0 16 c 14.592 3.245 37.796 5.333 64 5.333 26.2 0 49.41 -2.088 64 -5.333 l 0 -16 c -14.592 -3.245 -37.796 -5.334 -64 -5.334 z" style="fill:url(#radialGradient3098);opacity:0.1;fill-opacity:1;stroke:none"/>
  <rect width="120" height="84" x="4" y="952.36" rx="13.04" ry="13.12" style="fill:#1976d2;fill-opacity:1;stroke:none"/>
  <path d="m 17.04 951.03 c -7.226 0 -13.04 5.946 -13.04 13.333 l 0 5.333 c 0 -7.386 5.817 -13.333 13.04 -13.333 l 93.91 0 c 7.226 0 13.04 5.947 13.04 13.333 l 0 -5.333 c 0 -7.387 -5.817 -13.333 -13.04 -13.333 l -93.91 0 z" style="fill:#fff;opacity:0.2;fill-opacity:1;stroke:none"/>
  <path d="m 17.04 972.36 20.87 0 c 28.696 -2.667 23.478 -32 41.739 -32 l 31.3 0 c 7.226 0 13.04 5.947 13.04 13.333 l 0 69.33 c 0 7.386 -5.817 13.333 -13.04 13.333 l -93.91 0 c -7.226 0 -13.04 -5.947 -13.04 -13.333 l 0 -37.33 c 0 -8 5.217 -13.333 13.04 -13.333 z" style="fill:#42a5f5;fill-opacity:1;stroke:none"/>
  <path d="m 4 1017.7 0 5.334 c 0 7.386 5.817 13.333 13.04 13.333 l 93.91 0 c 7.226 0 13.04 -5.947 13.04 -13.333 l 0 -5.334 c 0 7.387 -5.817 14.667 -13.04 14.667 l -93.91 0 c -7.226 0 -13.04 -7.28 -13.04 -14.667 z" style="fill:#000;opacity:0.15;fill-opacity:1;stroke:none"/>
  <path d="m 19.374 1003.04 c -1.864 0 -3.374 1.489 -3.374 3.327 0 1.837 1.51 3.326 3.374 3.326 1.863 0 3.374 -1.489 3.374 -3.326 0 -1.838 -1.51 -3.327 -3.374 -3.327 z m 24.09 15.12 c -1.614 0.918 -2.166 2.952 -1.235 4.542 0.932 1.591 2.994 2.136 4.608 1.218 1.613 -0.919 2.166 -2.952 1.234 -4.544 -0.931 -1.59 -2.994 -2.136 -4.608 -1.217 z m -16.762 -11.794 c 0 -3.288 1.657 -6.192 4.191 -7.95 l -2.467 -4.074 c -2.953 1.945 -5.149 4.918 -6.06 8.401 1.066 0.856 1.747 2.161 1.747 3.623 0 1.462 -0.681 2.767 -1.747 3.623 0.912 3.483 3.109 6.456 6.06 8.401 l 2.467 -4.074 c -2.534 -1.758 -4.191 -4.662 -4.191 -7.95 z m 9.856 -9.718 c 5.149 0 9.373 3.893 9.816 8.856 l 4.809 -0.072 c -0.237 -3.665 -1.86 -6.955 -4.355 -9.374 -1.283 0.478 -2.765 0.406 -4.046 -0.324 -1.282 -0.73 -2.087 -1.962 -2.308 -3.298 -1.247 -0.34 -2.559 -0.526 -3.916 -0.526 -2.333 0 -4.538 0.54 -6.496 1.496 l 2.344 4.142 c 1.262 -0.579 2.668 -0.904 4.152 -0.904 z m 0 19.436 c -1.484 0 -2.89 -0.324 -4.152 -0.904 l -2.344 4.142 c 1.958 0.956 4.163 1.496 6.496 1.496 1.357 0 2.669 -0.184 3.916 -0.525 0.22 -1.336 1.025 -2.568 2.308 -3.298 1.281 -0.729 2.763 -0.801 4.046 -0.324 2.495 -2.419 4.118 -5.71 4.355 -9.374 l -4.809 -0.072 c -0.442 4.964 -4.666 8.856 -9.815 8.856 z m 6.905 -21.512 c 1.614 0.919 3.677 0.376 4.608 -1.217 0.932 -1.591 0.379 -3.624 -1.234 -4.543 -1.614 -0.919 -3.676 -0.372 -4.608 1.218 -0.931 1.59 -0.379 3.624 1.235 4.542 z" style="fill:#000;fill-opacity:0.098;color:#000"/>
  <path d="m 19.374 999.04 c -1.864 0 -3.374 1.489 -3.374 3.327 0 1.837 1.51 3.326 3.374 3.326 1.863 0 3.374 -1.489 3.374 -3.326 0 -1.838 -1.51 -3.327 -3.374 -3.327 z m 24.09 15.12 c -1.614 0.918 -2.166 2.952 -1.235 4.542 0.932 1.591 2.994 2.136 4.608 1.218 1.613 -0.919 2.166 -2.952 1.234 -4.544 -0.931 -1.59 -2.994 -2.136 -4.608 -1.217 z m -16.762 -11.794 c 0 -3.288 1.657 -6.192 4.191 -7.95 l -2.467 -4.074 c -2.953 1.945 -5.149 4.918 -6.06 8.401 1.066 0.856 1.747 2.161 1.747 3.623 0 1.462 -0.681 2.767 -1.747 3.623 0.912 3.483 3.109 6.456 6.06 8.401 l 2.467 -4.074 c -2.534 -1.758 -4.191 -4.662 -4.191 -7.95 z m 9.856 -9.718 c 5.149 0 9.373 3.893 9.816 8.856 l 4.809 -0.072 c -0.237 -3.665 -1.86 -6.955 -4.355 -9.374 -1.283 0.478 -2.765 0.406 -4.046 -0.324 -1.282 -0.73 -2.087 -1.962 -2.308 -3.298 -1.247 -0.34 -2.559 -0.526 -3.916 -0.526 -2.333 0 -4.538 0.54 -6.496 1.496 l 2.344 4.142 c 1.262 -0.579 2.668 -0.904 4.152 -0.904 z m 0 19.436 c -1.484 0 -2.89 -0.324 -4.152 -0.904 l -2.344 4.142 c 1.958 0.956 4.163 1.496 6.496 1.496 1.357 0 2.669 -0.184 3.916 -0.525 0.22 -1.336 1.025 -2.568 2.308 -3.298 1.281 -0.729 2.763 -0.801 4.046 -0.324 2.495 -2.419 4.118 -5.71 4.355 -9.374 l -4.809 -0.072 c -0.442 4.964 -4.666 8.856 -9.815 8.856 z m 6.905 -21.512 c 1.614 0.919 3.677 0.376 4.608 -1.217 0.932 -1.591 0.379 -3.624 -1.234 -4.543 -1.614 -0.919 -3.676 -0.372 -4.608 1.218 -0.931 1.59 -0.379 3.624 1.235 4.542 z" style="fill:#fff8e1;fill-opacity:1;color:#000"/>
 </g>
</svg>
