<svg xmlns="http://www.w3.org/2000/svg" viewBox="0 0 128 128">
 <defs>
  <radialGradient r="24" cy="40.5" cx="24" gradientTransform="matrix(3.3333334,0,0,0.5555554,-16,1008.529)" gradientUnits="userSpaceOnUse" id="radialGradient3098">
   <stop style="stop-color:#000;stop-opacity:1"/>
   <stop offset="1" style="stop-color:#000;stop-opacity:0.196"/>
  </radialGradient>
 </defs>
 <g transform="translate(0,-924.3622)">
  <path d="m 64 1017.7 c -26.2 0 -49.41 2.088 -64 5.334 l 0 16 c 14.592 3.245 37.796 5.333 64 5.333 26.2 0 49.41 -2.088 64 -5.333 l 0 -16 c -14.592 -3.245 -37.796 -5.334 -64 -5.334 z" style="fill:url(#radialGradient3098);opacity:0.1;fill-opacity:1;stroke:none"/>
  <rect width="120" height="84" x="4" y="952.36" rx="13.04" ry="13.12" style="fill:#5d4037;fill-opacity:1;stroke:none"/>
  <path d="m 17.04 951.03 c -7.226 0 -13.04 5.946 -13.04 13.333 l 0 5.333 c 0 -7.386 5.817 -13.333 13.04 -13.333 l 93.91 0 c 7.226 0 13.04 5.947 13.04 13.333 l 0 -5.333 c 0 -7.387 -5.817 -13.333 -13.04 -13.333 l -93.91 0 z" style="fill:#fff;opacity:0.2;fill-opacity:1;stroke:none"/>
  <path d="m 17.04 972.36 20.87 0 c 28.696 -2.667 23.478 -32 41.739 -32 l 31.3 0 c 7.226 0 13.04 5.947 13.04 13.333 l 0 69.33 c 0 7.386 -5.817 13.333 -13.04 13.333 l -93.91 0 c -7.226 0 -13.04 -5.947 -13.04 -13.333 l 0 -37.33 c 0 -8 5.217 -13.333 13.04 -13.333 z" style="fill:#8d6e63;fill-opacity:1;stroke:none"/>
  <path d="m 4 1017.7 0 5.334 c 0 7.386 5.817 13.333 13.04 13.333 l 93.91 0 c 7.226 0 13.04 -5.947 13.04 -13.333 l 0 -5.334 c 0 7.387 -5.817 14.667 -13.04 14.667 l -93.91 0 c -7.226 0 -13.04 -7.28 -13.04 -14.667 z" style="fill:#000;opacity:0.15;fill-opacity:1;stroke:none"/>
  <path d="m 34 992.36 c -1.107 0 -2 0.401 -2 3.25 l 0 12.75 -4 0 c -1.5 0 -1.5 -0.044 0 1.875 l 4.5 5.75 c 1.5 1.921 1.5 1.921 3 0 l 4.5 -5.75 c 1.5 -1.921 1.5 -1.875 0 -1.875 l -4 0 0 -12.75 c 0 -2.849 -0.893 -3.25 -2 -3.25 z m 16 16 c -1.108 0 -2 0.892 -2 2 l 0 10 -28 0 0 -8 c 0 -1.108 -0.892 -2 -2 -2 -1.108 0 -2 0.892 -2 2 l 0 10 c 0 0.554 0.218 1.014 0.625 1.375 0.181 0.18 0.386 0.4 0.625 0.5 0.293 0.124 0.652 0.124 1 0.124 l 31.5 0 c 1.246 0 2.25 -0.892 2.25 -2 0 -0.4 -0.151 -0.689 -0.375 -1 0.199 -0.312 0.375 -0.601 0.375 -1 l 0 -10 c 0 -1.108 -0.892 -2 -2 -2 z" style="fill:#000;fill-opacity:0.098;stroke:none"/>
  <rect width="36" height="4" x="16" y="1016.36" rx="2.25" ry="2" style="fill:#fff8e1;fill-opacity:1;stroke:none"/>
  <rect rx="2" y="-20" x="1006.36" height="4" width="14" transform="matrix(0,1,-1,0,0,0)" style="fill:#fff8e1;fill-opacity:1;stroke:none"/>
  <rect transform="matrix(0,1,-1,0,0,0)" width="16" height="4" x="1004.36" y="-52" rx="2.286" ry="2" style="fill:#fff8e1;fill-opacity:1;stroke:none"/>
  <path d="m 36 1010.05 c -2 1.921 -2 1.921 -4 0 l -6 -5.762 c -2 -1.921 -2 -1.921 0 -1.921 l 16 0 c 2 0 2 0 0 1.921 z" style="fill:#fff8e1;fill-opacity:1;stroke:none"/>
  <path d="m 34 984.36 c -2.215 0 -4 0.424 -4 3.273 l 0.004 14.727 7.996 0 0 -14.727 c 0 -2.849 -1.783 -3.273 -3.998 -3.273 z" style="fill:#fff8e1;fill-opacity:1;stroke:none"/>
 </g>
</svg>
