<?xml version="1.0" encoding="UTF-8" standalone="no"?>
<!-- Created with Inkscape (http://www.inkscape.org/) -->

<svg
   xmlns:dc="http://purl.org/dc/elements/1.1/"
   xmlns:cc="http://creativecommons.org/ns#"
   xmlns:rdf="http://www.w3.org/1999/02/22-rdf-syntax-ns#"
   xmlns:svg="http://www.w3.org/2000/svg"
   xmlns="http://www.w3.org/2000/svg"
   xmlns:xlink="http://www.w3.org/1999/xlink"
   xmlns:sodipodi="http://sodipodi.sourceforge.net/DTD/sodipodi-0.dtd"
   xmlns:inkscape="http://www.inkscape.org/namespaces/inkscape"
   width="128"
   height="128"
   id="svg2"
   version="1.1"
   inkscape:version="0.91 r"
   sodipodi:docname="grey-folder-music.svg">
  <defs
     id="defs4">
    <linearGradient
       id="linearGradient3886-9">
      <stop
         style="stop-color:#000000;stop-opacity:1;"
         offset="0"
         id="stop3888-3" />
      <stop
         style="stop-color:#000000;stop-opacity:0.19607843;"
         offset="1"
         id="stop3890-7" />
    </linearGradient>
    <radialGradient
       r="24"
       fy="40.5"
       fx="24"
       cy="40.5"
       cx="24"
       gradientTransform="matrix(3.3333334,0,0,0.5555554,-16,1008.529)"
       gradientUnits="userSpaceOnUse"
       id="radialGradient3098"
       xlink:href="#linearGradient3886-9"
       inkscape:collect="always" />
  </defs>
  <sodipodi:namedview
     id="base"
     pagecolor="#ffffff"
     bordercolor="#666666"
     borderopacity="1.0"
     inkscape:pageopacity="0.0"
     inkscape:pageshadow="2"
     inkscape:zoom="8"
     inkscape:cx="60.616998"
     inkscape:cy="55.957838"
     inkscape:document-units="px"
     inkscape:current-layer="layer1"
     showgrid="true"
     inkscape:window-width="1280"
     inkscape:window-height="998"
     inkscape:window-x="0"
     inkscape:window-y="0"
     inkscape:window-maximized="1">
    <inkscape:grid
       type="xygrid"
       id="grid2990"
       empspacing="5"
       visible="true"
       enabled="true"
       snapvisiblegridlinesonly="true" />
  </sodipodi:namedview>
  <metadata
     id="metadata7">
    <rdf:RDF>
      <cc:Work
         rdf:about="">
        <dc:format>image/svg+xml</dc:format>
        <dc:type
           rdf:resource="http://purl.org/dc/dcmitype/StillImage" />
        <dc:title />
      </cc:Work>
    </rdf:RDF>
  </metadata>
  <g
     inkscape:label="Body"
     inkscape:groupmode="layer"
     id="layer1"
     transform="translate(0,-924.3622)">
    <path
       inkscape:connector-curvature="0"
       style="opacity:0.1;fill:url(#radialGradient3098);fill-opacity:1;stroke:none"
       d="m 64,1017.6954 c -26.20413,0 -49.407921,2.0884 -64,5.3336 l 0,16 c 14.592079,3.2448 37.79587,5.3332 64,5.3332 26.204132,0 49.40792,-2.0884 64,-5.3332 l 0,-16 c -14.59208,-3.2452 -37.795868,-5.3336 -64,-5.3336 z"
       id="path3868" />
    <rect
       style="fill:#757575;fill-opacity:1;stroke:none"
       id="rect2987"
       width="120"
       height="83.999817"
       x="4"
       y="952.36218"
       rx="13.043478"
       ry="13.124964" />
    <path
       style="opacity:0.2;fill:#ffffff;fill-opacity:1;stroke:none"
       d="M 17.043478,951.029 C 9.8173912,951.029 4,956.9754 4,964.3622 l 0,5.3332 c 0,-7.3864 5.8173912,-13.3332 13.043478,-13.3332 l 93.913042,0 c 7.22609,0 13.04348,5.9468 13.04348,13.3332 l 0,-5.3332 c 0,-7.3868 -5.81739,-13.3332 -13.04348,-13.3332 l -93.913042,0 z"
       id="rect3797"
       inkscape:connector-curvature="0" />
    <path
       style="fill:#bdbdbd;fill-opacity:1;stroke:none"
       d="m 17.043478,972.3622 20.869566,0 c 28.695652,-2.6668 23.47826,-32 41.739128,-32 l 31.304348,0 c 7.22609,0 13.04348,5.9468 13.04348,13.3332 l 0,69.3336 c 0,7.3864 -5.81739,13.3332 -13.04348,13.3332 l -93.913042,0 C 9.8173912,1036.3622 4,1030.4154 4,1023.029 l 0,-37.3336 c 0,-8 5.2173912,-13.3332 13.043478,-13.3332 z"
       id="rect3776"
       inkscape:connector-curvature="0"
       sodipodi:nodetypes="cccsssssscc" />
    <path
       style="opacity:0.15;fill:#000000;fill-opacity:1;stroke:none"
       d="m 4,1017.6954 0,5.3336 c 0,7.3864 5.8173912,13.3332 13.043478,13.3332 l 93.913042,0 c 7.22609,0 13.04348,-5.9468 13.04348,-13.3332 l 0,-5.3336 c 0,7.3868 -5.81739,14.6668 -13.04348,14.6668 l -93.913042,0 C 9.8173912,1032.3622 4,1025.0822 4,1017.6954 z"
       id="path3786"
       inkscape:connector-curvature="0"
       sodipodi:nodetypes="csssscssc" />
    <path
       style="fill:#000000;fill-opacity:0.09803922;stroke:none"
       d="m 28.75,988.3622 c -2.282898,0 -4.007742,1.7188 -4.5,4 -0.1406,0.352 -0.25,0.7004 -0.25,1.1252 l 0,19.25 c -0.617276,-0.216 -1.309644,-0.376 -2,-0.376 -3.313708,0 -6,2.6864 -6,6 0,3.3136 2.686292,6 6,6 3.313708,0 6,-2.6864 6,-6 0,-0.248 -0.09526,-0.508 -0.125,-0.75 0.02484,-0.076 -0.0192,-0.172 0,-0.248 -0.0128,-0.08 0.0158,-0.172 0,-0.248 0.02736,-0.172 0.125,-0.32 0.125,-0.5 l 0,-16.3124 c 0.271868,0.052 0.464136,0.124 0.75,0.124 l 14.5,0 c 0.28588,0 0.478132,-0.072 0.75,-0.124 l 0,12.4376 c -0.617276,-0.216 -1.309644,-0.376 -2,-0.376 -3.313708,0 -6,2.6864 -6,6 0,3.3136 2.686292,6 6,6 3.313708,0 6,-2.6864 6,-6 0,-0.248 -0.09528,-0.508 -0.125,-0.75 0.0244,-0.076 -0.0188,-0.172 0,-0.248 -0.0128,-0.08 0.016,-0.172 0,-0.248 0.0268,-0.172 0.125,-0.32 0.125,-0.5 l 0,-23.1248 c 0,-0.4032 -0.16888,-0.7492 -0.25,-1.1252 -0.492256,-2.2812 -2.217104,-4 -4.5,-4 z"
       id="path3056"
       inkscape:connector-curvature="0"
       sodipodi:nodetypes="scscsssscccscssccsssscccsssss" />
    <path
       sodipodi:type="arc"
       style="fill:#fff8e1;fill-opacity:1;stroke:none"
       id="path3001"
       sodipodi:cx="-6.8228297"
       sodipodi:cy="8.2585173"
       sodipodi:rx="1.8228298"
       sodipodi:ry="1.7414824"
       d="m -4.9999999,8.2585173 c 0,0.9617941 -0.8161087,1.7414823 -1.8228298,1.7414823 -1.0067211,0 -1.8228299,-0.7796882 -1.8228299,-1.7414823 0,-0.9617942 0.8161088,-1.7414824 1.8228299,-1.7414824 1.0067211,0 1.8228298,0.7796882 1.8228298,1.7414824 z"
       transform="matrix(3.2915852,0,0,3.44535,44.457924,985.9086)" />
    <path
       transform="matrix(3.2915852,0,0,3.445307,64.457924,985.909)"
       d="m -4.9999999,8.2585173 c 0,0.9617941 -0.8161087,1.7414823 -1.8228298,1.7414823 -1.0067211,0 -1.8228299,-0.7796882 -1.8228299,-1.7414823 0,-0.9617942 0.8161088,-1.7414824 1.8228299,-1.7414824 1.0067211,0 1.8228298,0.7796882 1.8228298,1.7414824 z"
       sodipodi:ry="1.7414824"
       sodipodi:rx="1.8228298"
       sodipodi:cy="8.2585173"
       sodipodi:cx="-6.8228297"
       id="path3003"
       style="fill:#fff8e1;fill-opacity:1;stroke:none"
       sodipodi:type="arc" />
    <rect
       style="fill:#fff8e1;fill-opacity:1;stroke:none"
       id="rect3005"
       width="3.9999995"
       height="28.285772"
       x="24"
       y="986.93347"
       rx="1.9999998"
       ry="2.57143" />
    <rect
       ry="2.57143"
       rx="1.95283"
       y="986.93347"
       x="44"
       height="28.285772"
       width="3.9999998"
       id="rect3007-0"
       style="fill:#fff8e1;fill-opacity:1;stroke:none" />
    <rect
       style="fill:#fff8e1;fill-opacity:1;stroke:none"
       id="rect3009"
       width="23.999998"
       height="12.000209"
       x="24"
       y="984.36218"
       rx="4.7999997"
       ry="6.0000525" />
  </g>
</svg>
