<svg xmlns="http://www.w3.org/2000/svg" viewBox="0 0 128 128">
 <defs>
  <radialGradient r="24" cy="40.5" cx="24" gradientTransform="matrix(3.3333334,0,0,0.5555554,-16,1008.529)" gradientUnits="userSpaceOnUse" id="radialGradient3098">
   <stop style="stop-color:#000;stop-opacity:1"/>
   <stop offset="1" style="stop-color:#000;stop-opacity:0.196"/>
  </radialGradient>
 </defs>
 <g transform="translate(0,-924.3622)">
  <path d="m 64 1017.7 c -26.2 0 -49.41 2.088 -64 5.334 l 0 16 c 14.592 3.245 37.796 5.333 64 5.333 26.2 0 49.41 -2.088 64 -5.333 l 0 -16 c -14.592 -3.245 -37.796 -5.334 -64 -5.334 z" style="fill:url(#radialGradient3098);opacity:0.1;fill-opacity:1;stroke:none"/>
  <rect width="120" height="84" x="4" y="952.36" rx="13.04" ry="13.12" style="fill:#e65100;fill-opacity:1;stroke:none"/>
  <path d="m 17.04 951.03 c -7.226 0 -13.04 5.946 -13.04 13.333 l 0 5.333 c 0 -7.386 5.817 -13.333 13.04 -13.333 l 93.91 0 c 7.226 0 13.04 5.947 13.04 13.333 l 0 -5.333 c 0 -7.387 -5.817 -13.333 -13.04 -13.333 l -93.91 0 z" style="fill:#fff;opacity:0.2;fill-opacity:1;stroke:none"/>
  <path d="m 17.04 972.36 20.87 0 c 28.696 -2.667 23.478 -32 41.739 -32 l 31.3 0 c 7.226 0 13.04 5.947 13.04 13.333 l 0 69.33 c 0 7.386 -5.817 13.333 -13.04 13.333 l -93.91 0 c -7.226 0 -13.04 -5.947 -13.04 -13.333 l 0 -37.33 c 0 -8 5.217 -13.333 13.04 -13.333 z" style="fill:#f57c00;fill-opacity:1;stroke:none"/>
  <path d="m 4 1017.7 0 5.334 c 0 7.386 5.817 13.333 13.04 13.333 l 93.91 0 c 7.226 0 13.04 -5.947 13.04 -13.333 l 0 -5.334 c 0 7.387 -5.817 14.667 -13.04 14.667 l -93.91 0 c -7.226 0 -13.04 -7.28 -13.04 -14.667 z" style="fill:#000;opacity:0.15;fill-opacity:1;stroke:none"/>
  <path d="m 48.35 992 c -4.872 -4.874 -12.748 -4.843 -17.62 0.04 -4.142 4.143 -4.763 10.451 -1.867 15.245 l -12.02 12.02 c -1.121 1.121 -1.121 2.915 0 4.04 l 0.181 0.176 c 1.121 1.122 2.915 1.122 4.04 0 l 12.02 -12.02 c 4.799 2.903 11.128 2.306 15.271 -1.838 4.872 -4.872 4.872 -12.782 0 -17.656 z m -2.741 2.741 c 3.351 3.352 3.351 8.821 0 12.172 -3.319 3.321 -8.69 3.319 -12.05 0.06 l -0.09 -0.088 c -0.03 -0.04 -0.061 -0.06 -0.09 -0.092 -3.262 -3.358 -3.23 -8.7 0.09 -12.02 3.351 -3.352 8.788 -3.382 12.138 -0.04 z" style="fill:#000;fill-opacity:0.098;color:#000"/>
  <path d="m 48.35 988 c -4.872 -4.874 -12.748 -4.843 -17.62 0.04 -4.142 4.143 -4.763 10.451 -1.867 15.245 l -12.02 12.02 c -1.121 1.121 -1.121 2.915 0 4.04 l 0.181 0.176 c 1.121 1.122 2.915 1.122 4.04 0 l 12.02 -12.02 c 4.799 2.903 11.128 2.306 15.271 -1.838 4.872 -4.872 4.872 -12.782 0 -17.656 z m -2.741 2.741 c 3.351 3.352 3.351 8.821 0 12.172 -3.319 3.321 -8.69 3.319 -12.05 0.06 l -0.09 -0.088 c -0.03 -0.04 -0.061 -0.06 -0.09 -0.092 -3.262 -3.358 -3.23 -8.7 0.09 -12.02 3.351 -3.352 8.788 -3.382 12.138 -0.04 z" style="fill:#fff8e1;fill-opacity:1;color:#000"/>
 </g>
</svg>
