<?xml version="1.0" encoding="UTF-8" standalone="no"?>
<!-- Created with Inkscape (http://www.inkscape.org/) -->

<svg
   xmlns:dc="http://purl.org/dc/elements/1.1/"
   xmlns:cc="http://creativecommons.org/ns#"
   xmlns:rdf="http://www.w3.org/1999/02/22-rdf-syntax-ns#"
   xmlns:svg="http://www.w3.org/2000/svg"
   xmlns="http://www.w3.org/2000/svg"
   xmlns:xlink="http://www.w3.org/1999/xlink"
   xmlns:sodipodi="http://sodipodi.sourceforge.net/DTD/sodipodi-0.dtd"
   xmlns:inkscape="http://www.inkscape.org/namespaces/inkscape"
   width="128"
   height="128"
   id="svg2"
   version="1.1"
   inkscape:version="0.91 r"
   sodipodi:docname="red-network.svg">
  <defs
     id="defs4">
    <linearGradient
       id="linearGradient3886-9">
      <stop
         style="stop-color:#000000;stop-opacity:1;"
         offset="0"
         id="stop3888-3" />
      <stop
         style="stop-color:#000000;stop-opacity:0.19607843;"
         offset="1"
         id="stop3890-7" />
    </linearGradient>
    <radialGradient
       r="24"
       fy="40.5"
       fx="24"
       cy="40.5"
       cx="24"
       gradientTransform="matrix(3.3333334,0,0,0.5555554,-16,1008.529)"
       gradientUnits="userSpaceOnUse"
       id="radialGradient3098"
       xlink:href="#linearGradient3886-9"
       inkscape:collect="always" />
  </defs>
  <sodipodi:namedview
     id="base"
     pagecolor="#ffffff"
     bordercolor="#666666"
     borderopacity="1.0"
     inkscape:pageopacity="0.0"
     inkscape:pageshadow="2"
     inkscape:zoom="5.6568542"
     inkscape:cx="109.93408"
     inkscape:cy="58.24676"
     inkscape:document-units="px"
     inkscape:current-layer="layer1"
     showgrid="true"
     inkscape:window-width="1280"
     inkscape:window-height="998"
     inkscape:window-x="0"
     inkscape:window-y="0"
     inkscape:window-maximized="1">
    <inkscape:grid
       type="xygrid"
       id="grid2990"
       empspacing="5"
       visible="true"
       enabled="true"
       snapvisiblegridlinesonly="true" />
  </sodipodi:namedview>
  <metadata
     id="metadata7">
    <rdf:RDF>
      <cc:Work
         rdf:about="">
        <dc:format>image/svg+xml</dc:format>
        <dc:type
           rdf:resource="http://purl.org/dc/dcmitype/StillImage" />
        <dc:title />
      </cc:Work>
    </rdf:RDF>
  </metadata>
  <g
     inkscape:label="Body"
     inkscape:groupmode="layer"
     id="layer1"
     transform="translate(0,-924.3622)">
    <path
       inkscape:connector-curvature="0"
       style="opacity:0.1;fill:url(#radialGradient3098);fill-opacity:1;stroke:none"
       d="m 64,1017.6954 c -26.20413,0 -49.407921,2.0884 -64,5.3336 l 0,16 c 14.592079,3.2448 37.79587,5.3332 64,5.3332 26.204132,0 49.40792,-2.0884 64,-5.3332 l 0,-16 c -14.59208,-3.2452 -37.795868,-5.3336 -64,-5.3336 z"
       id="path3868" />
    <rect
       style="fill:#d32f2f;fill-opacity:1;stroke:none"
       id="rect2987"
       width="120"
       height="83.999817"
       x="4"
       y="952.36218"
       rx="13.043478"
       ry="13.124964" />
    <path
       style="opacity:0.2;fill:#ffffff;fill-opacity:1;stroke:none"
       d="M 17.043478,951.029 C 9.8173912,951.029 4,956.9754 4,964.3622 l 0,5.3332 c 0,-7.3864 5.8173912,-13.3332 13.043478,-13.3332 l 93.913042,0 c 7.22609,0 13.04348,5.9468 13.04348,13.3332 l 0,-5.3332 c 0,-7.3868 -5.81739,-13.3332 -13.04348,-13.3332 l -93.913042,0 z"
       id="rect3797"
       inkscape:connector-curvature="0" />
    <path
       style="fill:#ef5350;fill-opacity:1;stroke:none"
       d="m 17.043478,972.3622 20.869566,0 c 28.695652,-2.6668 23.47826,-32 41.739128,-32 l 31.304348,0 c 7.22609,0 13.04348,5.9468 13.04348,13.3332 l 0,69.3336 c 0,7.3864 -5.81739,13.3332 -13.04348,13.3332 l -93.913042,0 C 9.8173912,1036.3622 4,1030.4154 4,1023.029 l 0,-37.3336 c 0,-8 5.2173912,-13.3332 13.043478,-13.3332 z"
       id="rect3776"
       inkscape:connector-curvature="0"
       sodipodi:nodetypes="cccsssssscc" />
    <path
       inkscape:connector-curvature="0"
       style="line-height:normal;color:#000000;fill:#000000;fill-opacity:0.09803922"
       d="M 31.750646,988.3622 C 24.073026,988.3622 16,996.4358 16,1006.3626 c 0,9.9264 8.073036,17.9996 15.750646,17.9996 C 43.926964,1024.3622 52,1016.289 52,1006.3626 52,996.4358 43.926976,988.3622 34,988.3622 z m 3.711852,2.532 c 1.67777,0.156 3.303354,0.538 4.781254,1.1808 -0.11376,0.14 -0.20168,0.268 -0.28124,0.5064 -0.454572,1.3636 -1.132994,0.7136 -0.337504,2.418 0.795492,1.7048 1.460216,2.1452 1.687496,1.35 0.22732,-0.7952 -0.571632,-1.9168 0.33752,-1.4624 0.90914,0.4548 1.581856,-0.124 0.9,0.9008 -0.681852,1.0224 -0.667,1.5768 -1.4625,1.3496 -0.795496,-0.228 -0.7795,1.348 -1.575,1.5752 -0.795492,0.224 -1.068748,-0.344 -1.068748,0.224 0,0.568 0.45114,0.048 0.337508,0.9568 -0.03464,0.28 -0.0244,0.328 -0.05624,0.4492 -0.746718,-0.212 -1.07975,-0.332 -1.63125,-0.116 -0.568212,0.228 -1.2375,1.6876 -1.2375,1.6876 0.709806,0.7096 1.039138,1.2208 1.29375,1.4624 -0.15886,0.084 -0.349996,0.112 -0.50625,0.224 -1.136424,0.796 -2.021578,0.9456 -2.3625,2.0812 -0.340932,1.1376 -0.224976,0.096 -0.224976,1.4624 0,1.3644 -0.34436,0.4372 0.337504,1.688 0.681852,1.2504 2.354502,1.8492 3.149994,2.5312 0.7955,0.6816 1.615264,-1.4836 3.206252,0.5624 1.590988,2.0456 1.693216,1.226 1.125,2.3628 -0.568216,1.1368 -1.122716,1.5144 -1.349996,1.9688 -0.22728,0.454 0.442,2.0216 1.237496,2.362 0.0168,0 0.0384,0 0.05628,0 -0.04236,0.096 -0.07048,0.188 -0.11252,0.28 -1.030128,0.468 -2.292912,1.1132 -2.531252,1.1808 -0.5625,0.164 -2.547322,0.498 -3.993748,0.9 -0.18082,0.052 -0.323136,0.052 -0.393748,0.06 0.17982,-0.196 1.601578,-0.9392 2.306248,-1.3492 0.96429,-0.564 -0.05624,-0.5068 -0.05624,-0.5068 0,0 -1.53482,-0.172 -4.668746,-0.172 -1.566968,0 -2.245982,0.068 -2.5875,0.172 -0.17074,0.052 -0.254648,0.1 -0.337504,0.172 -0.08288,0.072 -0.14064,0.144 -0.281248,0.224 -0.562506,0.324 0.329456,0.6588 -0.393748,0.9 -0.542408,0.18 -0.605442,0 -1.068748,-0.34 0.330496,-0.328 0.786562,-0.7248 1.349998,-1.4068 1.02278,-1.2368 1.346574,-1.0116 1.687496,-2.1364 0.340936,-1.126 -2.868744,-0.7876 -2.868744,-1.4628 0,-0.6752 -0.552224,-1.1248 -1.575,-1.5748 -1.02278,-0.4504 -0.326092,-0.6756 -1.462502,-1.0128 -1.136418,-0.34 -2.41532,1.6868 -2.756248,1.0128 -0.340932,-0.6756 1.06875,-0.6756 1.06875,-1.4624 0,-0.7688 -1.620818,0.58 -1.912506,-0.392 -0.0076,-0.04 -0.05056,-0.04 -0.05626,-0.06 -0.02852,-0.14 -0.01,-0.224 0,-0.34 0.0715,-0.8092 1.008504,-1.1252 1.406254,-1.9128 0.454572,-0.8988 0.219292,0.6756 0.7875,1.4628 0.568214,0.7876 0.340936,-1.012 0,-2.0252 -0.340928,-1.0128 0.217,-1.012 1.012502,-2.362 0.795494,-1.3504 0.7875,-2.1376 0.7875,-3.1504 0,-1.0124 0.55108,-1.1244 1.687498,-2.1376 0.520862,-0.4636 0.929506,-0.868 1.2375,-1.2368 0.07444,-0.04 0.14968,-0.04 0.225,-0.06 1.205362,-0.482 1.711606,-1.2048 2.75625,-3.3752 1.044648,-2.1688 -0.40982,-0.144 -0.73125,-0.22 -0.321432,-0.08 -0.7875,-0.6508 -1.9125,-1.294 -0.23202,-0.132 -0.43908,-0.196 -0.61875,-0.224 l 2.081252,-3.4312 c 0.666664,-0.18 1.38243,-0.304 2.081248,-0.396 0.255676,1.4552 0.11252,2.8132 0.11252,2.8132 0,0 -0.393752,0.466 -0.393752,0.7876 0,0.324 2.15357,-2.652 2.474998,-2.8124 0.321436,-0.164 1.133034,0.8516 1.293748,-0.6752 0.009,-0.088 -0.01,-0.088 0,-0.172 z m 3.0375,6.0748 c -0.1154,-0.04 -0.251716,-4e-4 -0.393744,0.06 0,0.396 -0.15398,0.6868 -0.224972,0.8436 -0.04224,-0.068 -0.16876,-0.172 -0.16876,-0.172 -0.17044,0.316 -0.538092,0.592 -0.16876,0.5064 0.369336,-0.08 0.649444,0.144 0.393752,-0.172 -0.04916,-0.06 -0.026,-0.04 -0.05626,-0.06 0.0479,0.04 0.13862,0.06 0.337504,0.06 0.223768,0 0.34404,0 0.506248,0 -0.274348,0.204 -0.5736,0.288 -0.16876,0.392 0.539798,0.14 0.7875,0.172 0.7875,0.06 0,-0.112 -0.16874,-0.5068 -0.16874,-0.5068 0.10546,-0.044 0.203424,-0.096 0.11252,-0.28 -0.17046,-0.336 -0.44125,-0.678 -0.787506,-0.7312 z m 8.60625,0.9556 c 0.28104,0.4368 0.550308,0.8856 0.787504,1.3504 -0.15648,0.9072 -0.553828,1.5188 0.11252,1.5188 0.18628,0 0.35248,-0.044 0.506252,-0.06 0.0208,0.056 0.036,0.116 0.05628,0.172 -1.136424,0 -1.681788,0.344 -2.249996,0.224 -0.568216,-0.116 -2.147784,-0.216 -1.125004,-1.2368 0.597768,-0.598 1.344496,-1.548 1.9125,-1.9696 z m -7.087496,2.082 c 0.10472,0.04 0.19604,0.14 0.28124,0.336 0.34092,0.7956 0.904568,1.4616 0.450004,1.5748 -0.454572,0.112 -0.675008,0.224 -0.675008,0.224 0,0 1.57386,1.0236 1.687504,-0.112 0.11364,-1.1368 -0.450004,-1.8004 -0.450004,-1.8004 0,0 0.78522,0.7832 1.012504,1.238 0.22732,0.4544 0.21928,0 0.7875,0.5624 0.568208,0.568 0.442004,-2.258 1.237504,-1.4628 0.795496,0.7956 1.296036,0.782 1.068744,1.35 -0.22732,0.5684 1.462508,-0.686 1.462508,0.45 0,1.0956 0.6987,1.54 -0.675,2.0816 -0.5201,-0.04 -0.93176,-0.124 -1.012508,-0.28 -0.22732,-0.4544 -1.518748,-0.112 -1.518748,-0.112 -3.39956,-0.8496 -4.875432,-1.1188 -5.85,-0.956 0.0186,-0.04 0.03632,-0.04 0.05626,-0.056 0.497186,-0.8956 1.432634,-2.1388 1.125,-2.5876 0.433282,-0.248 0.772928,-0.5232 1.0125,-0.45 z m 9.562496,5.6804 c 0.01,0.228 0,0.4448 0,0.6756 0,0.6396 -0.0384,1.2928 -0.11252,1.912 -1.022424,-0.9096 -2.475,-0.9 -2.475,-0.9 0,0 0.887436,-1.0076 2.1375,-1.4624 0.15632,-0.056 0.32372,-0.132 0.45,-0.224 z"
       id="path3041" />
    <path
       id="path4139"
       d="M 31.750646,984.3622 C 24.073026,984.3622 16,992.4358 16,1002.3626 c 0,9.9264 8.073036,17.9996 15.750646,17.9996 C 43.926964,1020.3622 52,1012.289 52,1002.3626 52,992.4358 43.926976,984.3622 34,984.3622 z m 3.711852,2.532 c 1.67777,0.156 3.303354,0.538 4.781254,1.1808 -0.11376,0.14 -0.20168,0.268 -0.28124,0.5064 -0.454572,1.3636 -1.132994,0.7136 -0.337504,2.418 0.795492,1.7048 1.460216,2.1452 1.687496,1.35 0.22732,-0.7952 -0.571632,-1.9168 0.33752,-1.4624 0.90914,0.4548 1.581856,-0.124 0.9,0.9008 -0.681852,1.0224 -0.667,1.5768 -1.4625,1.3496 -0.795496,-0.228 -0.7795,1.348 -1.575,1.5752 -0.795492,0.224 -1.068748,-0.344 -1.068748,0.224 0,0.568 0.45114,0.048 0.337508,0.9568 -0.03464,0.28 -0.0244,0.328 -0.05624,0.4492 -0.746718,-0.212 -1.07975,-0.332 -1.63125,-0.116 -0.568212,0.228 -1.2375,1.6876 -1.2375,1.6876 0.709806,0.7096 1.039138,1.2208 1.29375,1.4624 -0.15886,0.084 -0.349996,0.112 -0.50625,0.224 -1.136424,0.796 -2.021578,0.9456 -2.3625,2.0812 -0.340932,1.1376 -0.224976,0.096 -0.224976,1.4624 0,1.3644 -0.34436,0.4372 0.337504,1.688 0.681852,1.2504 2.354502,1.8492 3.149994,2.5312 0.7955,0.6816 1.615264,-1.4836 3.206252,0.5624 1.590988,2.0456 1.693216,1.226 1.125,2.3628 -0.568216,1.1368 -1.122716,1.5144 -1.349996,1.9688 -0.22728,0.454 0.442,2.0216 1.237496,2.362 0.0168,0 0.0384,0 0.05628,0 -0.04236,0.096 -0.07048,0.188 -0.11252,0.28 -1.030128,0.468 -2.292912,1.1132 -2.531252,1.1808 -0.5625,0.164 -2.547322,0.498 -3.993748,0.9 -0.18082,0.052 -0.323136,0.052 -0.393748,0.06 0.17982,-0.196 1.601578,-0.9392 2.306248,-1.3492 0.96429,-0.564 -0.05624,-0.5068 -0.05624,-0.5068 0,0 -1.53482,-0.172 -4.668746,-0.172 -1.566968,0 -2.245982,0.068 -2.5875,0.172 -0.17074,0.052 -0.254648,0.1 -0.337504,0.172 -0.08288,0.072 -0.14064,0.144 -0.281248,0.224 -0.562506,0.324 0.329456,0.6588 -0.393748,0.9 -0.542408,0.18 -0.605442,0 -1.068748,-0.34 0.330496,-0.328 0.786562,-0.7248 1.349998,-1.4068 1.02278,-1.2368 1.346574,-1.0116 1.687496,-2.1364 0.340936,-1.126 -2.868744,-0.7876 -2.868744,-1.4628 0,-0.6752 -0.552224,-1.1248 -1.575,-1.5748 -1.02278,-0.4504 -0.326092,-0.6756 -1.462502,-1.0128 -1.136418,-0.34 -2.41532,1.6868 -2.756248,1.0128 -0.340932,-0.6756 1.06875,-0.6756 1.06875,-1.4624 0,-0.7688 -1.620818,0.58 -1.912506,-0.392 -0.0076,-0.04 -0.05056,-0.04 -0.05626,-0.06 -0.02852,-0.14 -0.01,-0.224 0,-0.34 0.0715,-0.8092 1.008504,-1.1252 1.406254,-1.9128 0.454572,-0.8988 0.219292,0.6756 0.7875,1.4628 0.568214,0.7876 0.340936,-1.012 0,-2.0252 -0.340928,-1.0128 0.217,-1.012 1.012502,-2.362 0.795494,-1.3504 0.7875,-2.1376 0.7875,-3.1504 0,-1.0124 0.55108,-1.1244 1.687498,-2.1376 0.520862,-0.4636 0.929506,-0.868 1.2375,-1.2368 0.07444,-0.04 0.14968,-0.04 0.225,-0.06 1.205362,-0.482 1.711606,-1.2048 2.75625,-3.3752 1.044648,-2.1688 -0.40982,-0.144 -0.73125,-0.22 -0.321432,-0.08 -0.7875,-0.6508 -1.9125,-1.294 -0.23202,-0.132 -0.43908,-0.196 -0.61875,-0.224 l 2.081252,-3.4312 c 0.666664,-0.18 1.38243,-0.304 2.081248,-0.396 0.255676,1.4552 0.11252,2.8132 0.11252,2.8132 0,0 -0.393752,0.466 -0.393752,0.7876 0,0.324 2.15357,-2.652 2.474998,-2.8124 0.321436,-0.164 1.133034,0.8516 1.293748,-0.6752 0.009,-0.088 -0.01,-0.088 0,-0.172 z m 3.0375,6.0748 c -0.1154,-0.04 -0.251716,-4e-4 -0.393744,0.06 0,0.396 -0.15398,0.6868 -0.224972,0.8436 -0.04224,-0.068 -0.16876,-0.172 -0.16876,-0.172 -0.17044,0.316 -0.538092,0.592 -0.16876,0.5064 0.369336,-0.08 0.649444,0.144 0.393752,-0.172 -0.04916,-0.06 -0.026,-0.04 -0.05626,-0.06 0.0479,0.04 0.13862,0.06 0.337504,0.06 0.223768,0 0.34404,0 0.506248,0 -0.274348,0.204 -0.5736,0.288 -0.16876,0.392 0.539798,0.14 0.7875,0.172 0.7875,0.06 0,-0.112 -0.16874,-0.5068 -0.16874,-0.5068 0.10546,-0.044 0.203424,-0.096 0.11252,-0.28 -0.17046,-0.336 -0.44125,-0.678 -0.787506,-0.7312 z m 8.60625,0.9556 c 0.28104,0.4368 0.550308,0.8856 0.787504,1.3504 -0.15648,0.9072 -0.553828,1.5188 0.11252,1.5188 0.18628,0 0.35248,-0.044 0.506252,-0.06 0.0208,0.056 0.036,0.116 0.05628,0.172 -1.136424,0 -1.681788,0.344 -2.249996,0.224 -0.568216,-0.116 -2.147784,-0.216 -1.125004,-1.2368 0.597768,-0.598 1.344496,-1.548 1.9125,-1.9696 z m -7.087496,2.082 c 0.10472,0.04 0.19604,0.14 0.28124,0.336 0.34092,0.7956 0.904568,1.4616 0.450004,1.5748 -0.454572,0.112 -0.675008,0.224 -0.675008,0.224 0,0 1.57386,1.0236 1.687504,-0.112 0.11364,-1.1368 -0.450004,-1.8004 -0.450004,-1.8004 0,0 0.78522,0.7832 1.012504,1.238 0.22732,0.4544 0.21928,0 0.7875,0.5624 0.568208,0.568 0.442004,-2.258 1.237504,-1.4628 0.795496,0.7956 1.296036,0.782 1.068744,1.35 -0.22732,0.5684 1.462508,-0.686 1.462508,0.45 0,1.0956 0.6987,1.54 -0.675,2.0816 -0.5201,-0.04 -0.93176,-0.124 -1.012508,-0.28 -0.22732,-0.4544 -1.518748,-0.112 -1.518748,-0.112 -3.39956,-0.8496 -4.875432,-1.1188 -5.85,-0.956 0.0186,-0.04 0.03632,-0.04 0.05626,-0.056 0.497186,-0.8956 1.432634,-2.1388 1.125,-2.5876 0.433282,-0.248 0.772928,-0.5232 1.0125,-0.45 z m 9.562496,5.6804 c 0.01,0.228 0,0.4448 0,0.6756 0,0.6396 -0.0384,1.2928 -0.11252,1.912 -1.022424,-0.9096 -2.475,-0.9 -2.475,-0.9 0,0 0.887436,-1.0076 2.1375,-1.4624 0.15632,-0.056 0.32372,-0.132 0.45,-0.224 z"
       style="line-height:normal;color:#000000;fill:#fff8e1;fill-opacity:1"
       inkscape:connector-curvature="0" />
    <path
       style="opacity:0.15;fill:#000000;fill-opacity:1;stroke:none"
       d="m 4,1017.6954 0,5.3336 c 0,7.3864 5.8173912,13.3332 13.043478,13.3332 l 93.913042,0 c 7.22609,0 13.04348,-5.9468 13.04348,-13.3332 l 0,-5.3336 c 0,7.3868 -5.81739,14.6668 -13.04348,14.6668 l -93.913042,0 C 9.8173912,1032.3622 4,1025.0822 4,1017.6954 z"
       id="path3786"
       inkscape:connector-curvature="0"
       sodipodi:nodetypes="csssscssc" />
  </g>
</svg>
