<svg xmlns="http://www.w3.org/2000/svg" viewBox="0 0 22 22">
 <path style="fill:#e9a439;fill-opacity:1;stroke:none" d="m 2 9.998 8.5 0 c 0.5 0 1 0.5 1 1 l 0 2 c 0 0.554 -0.223 1 -0.5 1 l -9 0 c -0.277 0 -0.5 -0.446 -0.5 -1 l 0 -3 z"/>
 <path style="fill:#000;opacity:0.03;fill-opacity:1;stroke:none" d="m 1.5 10.998 0 2.5 10 0 0 -2.5 z"/>
 <rect height="8.5" width="11" rx="1" style="fill:#f5c14e;fill-opacity:1;stroke:none" y="11.498" x="1"/>
 <path style="fill:#e9a439;fill-opacity:1;stroke:none" d="m 1.5 10.498 0 -0.5 c 0 -0.5 0 -1 0.5 -1 l 2 0 c 0.5 0 0.5 0.5 0.5 1 l 0 0.5 z"/>
 <path style="fill:#000;opacity:0.05;fill-opacity:1;stroke:none" d="m 4.5 9.998 0 0.5 0.5 0 5.5 0 c 0.5 0 1 0.5 1 1 l 0 -0.5 c 0 -0.5 -0.5 -1 -1 -1 l -5.5 0 z"/>
 <path style="fill:#000;opacity:0.05;fill-opacity:1;stroke:none" d="m 2 8.998 c -0.5 0 -0.5 0.5 -0.5 1 l 0 0.125 c 0.023 -0.352 0.125 -0.625 0.5 -0.625 l 2 0 c 0.375 0 0.477 0.273 0.5 0.625 l 0 -0.125 c 0 -0.5 0 -1 -0.5 -1 l -2 0 z"/>
 <path style="fill:#fff;opacity:0.1;fill-opacity:1;stroke:none" d="m 2 11.498 c -0.371 0 -0.687 0.201 -0.859 0.5 l 10.719 0 c -0.173 -0.299 -0.488 -0.5 -0.859 -0.5 l -9 0 z"/>
 <g style="fill:#fff;opacity:0.5;fill-opacity:1" transform="matrix(1 0 0 1 -1 -1026.36)">
  <path style="stroke:none" d="m 3 1036.36 8.5 0 c 0.5 0 1 0.5 1 1 l 0 2 c 0 0.554 -0.223 1 -0.5 1 l -9 0 c -0.277 0 -0.5 -0.446 -0.5 -1 l 0 -3 z"/>
  <rect height="8.5" width="11" rx="1" style="stroke:none" y="1037.86" x="2"/>
  <path style="stroke:none" d="m 2.5 1036.86 0 -0.5 c 0 -0.5 0 -1 0.5 -1 l 2 0 c 0.5 0 0.5 0.5 0.5 1 l 0 0.5 z"/>
 </g>
 <path style="fill:#e9a439;fill-opacity:1;stroke:none" d="m 11 3.998 8.5 0 c 0.5 0 1 0.5 1 1 l 0 2 c 0 0.554 -0.223 1 -0.5 1 l -9 0 c -0.277 0 -0.5 -0.446 -0.5 -1 l 0 -3 z"/>
 <path style="fill:#000;opacity:0.03;fill-opacity:1;stroke:none" d="m 10.5 4.998 0 2.5 10 0 0 -2.5 z"/>
 <rect height="8.5" width="11" rx="1" style="fill:#f5c14e;fill-opacity:1;stroke:none" y="5.498" x="10"/>
 <path style="fill:#e9a439;fill-opacity:1;stroke:none" d="m 10.5 4.498 0 -0.5 c 0 -0.5 0 -1 0.5 -1 l 2 0 c 0.5 0 0.5 0.5 0.5 1 l 0 0.5 z"/>
 <path style="fill:#000;opacity:0.05;fill-opacity:1;stroke:none" d="m 13.5 3.998 0 0.5 0.5 0 5.5 0 c 0.5 0 1 0.5 1 1 l 0 -0.5 c 0 -0.5 -0.5 -1 -1 -1 l -5.5 0 z"/>
 <path style="fill:#000;opacity:0.05;fill-opacity:1;stroke:none" d="m 11 2.998 c -0.5 0 -0.5 0.5 -0.5 1 l 0 0.125 c 0.023 -0.352 0.125 -0.625 0.5 -0.625 l 2 0 c 0.375 0 0.477 0.273 0.5 0.625 l 0 -0.125 c 0 -0.5 0 -1 -0.5 -1 l -2 0 z"/>
 <path style="fill:#fff;opacity:0.1;fill-opacity:1;stroke:none" d="m 11 5.498 c -0.371 0 -0.687 0.201 -0.859 0.5 l 10.719 0 c -0.173 -0.299 -0.488 -0.5 -0.859 -0.5 l -9 0 z"/>
 <path style="fill:#859900" d="m 21 11.998 -4 0 0 -4 -4 0 0 4 -4 0 0 4 4 0 0 4 4 0 0 -4 4 0 z"/>
</svg>
