<?xml version="1.0" encoding="UTF-8" standalone="no"?>
<svg
   xmlns:dc="http://purl.org/dc/elements/1.1/"
   xmlns:cc="http://creativecommons.org/ns#"
   xmlns:rdf="http://www.w3.org/1999/02/22-rdf-syntax-ns#"
   xmlns:svg="http://www.w3.org/2000/svg"
   xmlns="http://www.w3.org/2000/svg"
   xmlns:sodipodi="http://sodipodi.sourceforge.net/DTD/sodipodi-0.dtd"
   xmlns:inkscape="http://www.inkscape.org/namespaces/inkscape"
   viewBox="0 0 22 22"
   id="svg2"
   version="1.1"
   inkscape:version="0.91 r13725"
   sodipodi:docname="blue-add-folders-to-archive.svg">
  <metadata
     id="metadata34">
    <rdf:RDF>
      <cc:Work
         rdf:about="">
        <dc:format>image/svg+xml</dc:format>
        <dc:type
           rdf:resource="http://purl.org/dc/dcmitype/StillImage" />
      </cc:Work>
    </rdf:RDF>
  </metadata>
  <defs
     id="defs32" />
  <sodipodi:namedview
     pagecolor="#ffffff"
     bordercolor="#666666"
     borderopacity="1"
     objecttolerance="10"
     gridtolerance="10"
     guidetolerance="10"
     inkscape:pageopacity="0"
     inkscape:pageshadow="2"
     inkscape:window-width="1920"
     inkscape:window-height="1056"
     id="namedview30"
     showgrid="false"
     inkscape:zoom="10.727273"
     inkscape:cx="11"
     inkscape:cy="11"
     inkscape:window-x="0"
     inkscape:window-y="24"
     inkscape:window-maximized="1"
     inkscape:current-layer="svg2" />
  <path
     d="m 2,9.9980144 8.5,0 c 0.5,0 1,0.4999996 1,0.9999996 l 0,2 c 0,0.554 -0.223,1 -0.5,1 l -9,0 c -0.277,0 -0.5,-0.446 -0.5,-1 l 0,-2.9999996 z"
     style="fill:#388e3c;fill-opacity:1;stroke:none"
     id="path4174"
     inkscape:connector-curvature="0" />
  <path
     d="m 1.5,10.998014 0,2.5 10,0 0,-2.5 z"
     style="opacity:0.02999998;fill:#000000;fill-opacity:1;stroke:none"
     id="path4176"
     inkscape:connector-curvature="0" />
  <rect
     width="11"
     height="8.5"
     x="1"
     y="11.498"
     rx="1"
     style="fill:#66bb6a;fill-opacity:1;stroke:none"
     id="rect4178"
     ry="1" />
  <path
     d="m 1.5,10.498014 0,-0.4999996 c 0,-0.5 0,-1 0.5,-1 l 2,0 c 0.5,0 0.5,0.5 0.5,1 l 0,0.4999996 z"
     style="fill:#388e3c;fill-opacity:1;stroke:none"
     id="path4180"
     inkscape:connector-curvature="0" />
  <path
     d="m 4.5,9.9980144 0,0.4999996 0.5,0 5.5,0 c 0.5,0 1,0.5 1,1 l 0,-0.5 c 0,-0.5 -0.5,-0.9999996 -1,-0.9999996 l -5.5,0 z"
     style="opacity:0.05;fill:#000000;fill-opacity:1;stroke:none"
     id="path4182"
     inkscape:connector-curvature="0" />
  <path
     d="m 2,8.9980144 c -0.5,0 -0.5,0.5 -0.5,1 l 0,0.1249996 C 1.523,9.7710144 1.625,9.4980144 2,9.4980144 l 2,0 c 0.375,0 0.477,0.273 0.5,0.6249996 l 0,-0.1249996 c 0,-0.5 0,-1 -0.5,-1 l -2,0 z"
     style="opacity:0.05;fill:#000000;fill-opacity:1;stroke:none"
     id="path4184"
     inkscape:connector-curvature="0" />
  <path
     d="m 2,11.498014 c -0.371,0 -0.687,0.201 -0.859,0.5 l 10.719,0 c -0.173,-0.299 -0.488,-0.5 -0.859,-0.5 l -9,0 z"
     style="opacity:0.1;fill:#ffffff;fill-opacity:1;stroke:none"
     id="path4186"
     inkscape:connector-curvature="0" />
  <g
     id="g6"
     style="opacity:0.5;fill:#ffffff;fill-opacity:1"
     transform="translate(-1,-1026.3622)">
    <path
       inkscape:connector-curvature="0"
       id="path8"
       style="fill:#ffffff;fill-opacity:1;stroke:none"
       d="m 3,1036.36 8.5,0 c 0.5,0 1,0.5 1,1 l 0,2 c 0,0.554 -0.223,1 -0.5,1 l -9,0 c -0.277,0 -0.5,-0.446 -0.5,-1 l 0,-3 z" />
    <rect
       id="rect10"
       style="fill:#ffffff;fill-opacity:1;stroke:none"
       rx="1"
       y="1037.86"
       x="2"
       height="8.5"
       width="11" />
    <path
       inkscape:connector-curvature="0"
       id="path12"
       style="fill:#ffffff;fill-opacity:1;stroke:none"
       d="m 2.5,1036.86 0,-0.5 c 0,-0.5 0,-1 0.5,-1 l 2,0 c 0.5,0 0.5,0.5 0.5,1 l 0,0.5 z" />
  </g>
  <path
     inkscape:connector-curvature="0"
     id="path14"
     style="fill:#388e3c;fill-opacity:1;stroke:none"
     d="m 11,3.9978 8.5,0 c 0.5,0 1,0.5 1,1 l 0,2 c 0,0.554 -0.223,1 -0.5,1 l -9,0 c -0.277,0 -0.5,-0.446 -0.5,-1 l 0,-3 z" />
  <path
     inkscape:connector-curvature="0"
     id="path16"
     style="opacity:0.02999998;fill:#000000;fill-opacity:1;stroke:none"
     d="m 10.5,4.9978 0,2.5 10,0 0,-2.5 z" />
  <rect
     id="rect18"
     style="fill:#66bb6a;fill-opacity:1;stroke:none"
     rx="1"
     y="5.4977856"
     x="10"
     height="8.5"
     width="11" />
  <path
     inkscape:connector-curvature="0"
     id="path20"
     style="fill:#388e3c;fill-opacity:1;stroke:none"
     d="m 10.5,4.4978 0,-0.5 c 0,-0.5 0,-1 0.5,-1 l 2,0 c 0.5,0 0.5,0.5 0.5,1 l 0,0.5 z" />
  <path
     inkscape:connector-curvature="0"
     id="path22"
     style="opacity:0.05;fill:#000000;fill-opacity:1;stroke:none"
     d="m 13.5,3.9978 0,0.5 0.5,0 5.5,0 c 0.5,0 1,0.5 1,1 l 0,-0.5 c 0,-0.5 -0.5,-1 -1,-1 l -5.5,0 z" />
  <path
     inkscape:connector-curvature="0"
     id="path24"
     style="opacity:0.05;fill:#000000;fill-opacity:1;stroke:none"
     d="m 11,2.9978 c -0.5,0 -0.5,0.5 -0.5,1 l 0,0.125 c 0.023,-0.352 0.125,-0.625 0.5,-0.625 l 2,0 c 0.375,0 0.477,0.273 0.5,0.625 l 0,-0.125 c 0,-0.5 0,-1 -0.5,-1 l -2,0 z" />
  <path
     inkscape:connector-curvature="0"
     id="path26"
     style="opacity:0.1;fill:#ffffff;fill-opacity:1;stroke:none"
     d="m 11,5.4978 c -0.371,0 -0.687,0.201 -0.859,0.5 l 10.719,0 c -0.173,-0.299 -0.488,-0.5 -0.859,-0.5 l -9,0 z" />
  <path
     inkscape:connector-curvature="0"
     id="path28"
     style="fill:#859900"
     d="m 21,11.9978 -4,0 0,-4 -4,0 0,4 -4,0 0,4 4,0 0,4 4,0 0,-4 4,0 z" />
</svg>
