<!-- Created with Inkscape (http://www.inkscape.org/) -->
<svg xmlns="http://www.w3.org/2000/svg" viewBox="0 0 22 22">
 <g transform="translate(0,-1030.3622)">
  <g transform="translate(-1,4.0000348)" style="opacity:0.6">
   <path d="m 3 1036.36 8.5 0 c 0.5 0 1 0.5 1 1 l 0 2 c 0 0.554 -0.223 1 -0.5 1 l -9 0 c -0.277 0 -0.5 -0.446 -0.5 -1 l 0 -3 z" style="fill:#d32f2f;fill-opacity:1;stroke:none"/>
   <rect width="11" height="8.5" x="2" y="1037.86" rx="1" style="fill:#d32f2f;fill-opacity:1;stroke:none"/>
   <path d="m 2.5 1036.86 0 -0.5 c 0 -0.5 0 -1 0.5 -1 l 2 0 c 0.5 0 0.5 0.5 0.5 1 l 0 0.5 z" style="fill:#d32f2f;fill-opacity:1;stroke:none"/>
  </g>
  <path d="m 11 1034.36 8.5 0 c 0.5 0 1 0.5 1 1 l 0 2 c 0 0.554 -0.223 1 -0.5 1 l -9 0 c -0.277 0 -0.5 -0.446 -0.5 -1 l 0 -3 z" style="fill:#d32f2f;fill-opacity:1;stroke:none"/>
  <path d="m 10.5 1035.36 0 2.5 10 0 0 -2.5 z" style="fill:#000;opacity:0.03;fill-opacity:1;stroke:none"/>
  <rect width="11" height="8.5" x="10" y="1035.86" rx="1" style="fill:#ef5350;fill-opacity:1;stroke:none"/>
  <path d="m 10.5 1034.86 0 -0.5 c 0 -0.5 0 -1 0.5 -1 l 2 0 c 0.5 0 0.5 0.5 0.5 1 l 0 0.5 z" style="fill:#d32f2f;fill-opacity:1;stroke:none"/>
  <path d="m 13.5 1034.36 0 0.5 0.5 0 5.5 0 c 0.5 0 1 0.5 1 1 l 0 -0.5 c 0 -0.5 -0.5 -1 -1 -1 l -5.5 0 z" style="fill:#000;opacity:0.05;fill-opacity:1;stroke:none"/>
  <path d="m 11 1033.36 c -0.5 0 -0.5 0.5 -0.5 1 l 0 0.125 c 0.023 -0.352 0.125 -0.625 0.5 -0.625 l 2 0 c 0.375 0 0.477 0.273 0.5 0.625 l 0 -0.125 c 0 -0.5 0 -1 -0.5 -1 l -2 0 z" style="fill:#000;opacity:0.05;fill-opacity:1;stroke:none"/>
  <path d="m 11 1035.86 c -0.371 0 -0.687 0.201 -0.859 0.5 l 10.719 0 c -0.173 -0.299 -0.488 -0.5 -0.859 -0.5 l -9 0 z" style="fill:#fff;opacity:0.1;fill-opacity:1;stroke:none"/>
  <path d="m 21 1042.36 -4 0 0 -4 -4 0 0 4 -4 0 0 4 4 0 0 4 4 0 0 -4 4 0 z" style="fill:#859900"/>
 </g>
</svg>
