<?xml version="1.0" encoding="UTF-8" standalone="no"?>
<!-- Created with Inkscape (http://www.inkscape.org/) -->

<svg
   xmlns:dc="http://purl.org/dc/elements/1.1/"
   xmlns:cc="http://creativecommons.org/ns#"
   xmlns:rdf="http://www.w3.org/1999/02/22-rdf-syntax-ns#"
   xmlns:svg="http://www.w3.org/2000/svg"
   xmlns="http://www.w3.org/2000/svg"
   xmlns:sodipodi="http://sodipodi.sourceforge.net/DTD/sodipodi-0.dtd"
   xmlns:inkscape="http://www.inkscape.org/namespaces/inkscape"
   width="256"
   height="256"
   id="svg2"
   version="1.1"
   inkscape:version="0.48.5 r10040"
   sodipodi:docname="purple-network.svg"
   inkscape:export-filename="/media/Data/Main/Visuals/Icons/Numix/Desktop/repos/numix-wiki/Gjorgi/Numix-folders/48/New/folder-144.png"
   inkscape:export-xdpi="270"
   inkscape:export-ydpi="270">
  <defs
     id="defs4" />
  <sodipodi:namedview
     id="base"
     pagecolor="#ffffff"
     bordercolor="#666666"
     borderopacity="1.0"
     inkscape:pageopacity="0.0"
     inkscape:pageshadow="2"
     inkscape:zoom="2.2962747"
     inkscape:cx="62.16467"
     inkscape:cy="97.81098"
     inkscape:document-units="px"
     inkscape:current-layer="layer1"
     showgrid="true"
     inkscape:window-width="1280"
     inkscape:window-height="998"
     inkscape:window-x="0"
     inkscape:window-y="0"
     inkscape:window-maximized="1"
     showguides="true"
     inkscape:guide-bbox="true">
    <inkscape:grid
       type="xygrid"
       id="grid2985"
       empspacing="5"
       visible="true"
       enabled="true"
       snapvisiblegridlinesonly="true" />
  </sodipodi:namedview>
  <metadata
     id="metadata7">
    <rdf:RDF>
      <cc:Work
         rdf:about="">
        <dc:format>image/svg+xml</dc:format>
        <dc:type
           rdf:resource="http://purl.org/dc/dcmitype/StillImage" />
        <dc:title />
      </cc:Work>
    </rdf:RDF>
  </metadata>
  <g
     inkscape:label="Layer 1"
     inkscape:groupmode="layer"
     id="layer1"
     transform="translate(0,-796.3622)">
    <path
       style="fill:#512da8;fill-opacity:1;stroke:none"
       d="m 32,836.36234 188,0 c 8,0 12,3.999 12,11.99684 l 0,27.9928 c 0,4.4308 -3.7896,3.9988 -8,3.9988 l -192,0 c -4.2104,0 -8,-3.5672 -8,-7.998 l 0,-35.99044 z"
       id="path3811"
       inkscape:connector-curvature="0"
       sodipodi:nodetypes="csssssscc" />
    <path
       style="opacity:0.02999998;fill:#000000;fill-opacity:1;stroke:none"
       d="m 24,860.36278 0,19.9996 208,0 0,-19.9996 z"
       id="path3807"
       inkscape:connector-curvature="0" />
    <path
       style="fill:#512da8;fill-opacity:1;stroke:none"
       d="m 24,852.36238 0,-19.99992 c 0,-8 3.636364,-12 7.272728,-12 l 41.454544,0 c 3.636364,0 7.272728,4 7.272728,12 l 0,19.99992 z"
       id="rect3760"
       inkscape:connector-curvature="0"
       sodipodi:nodetypes="csssscc" />
    <rect
       style="fill:#7e57c2;fill-opacity:1;stroke:none"
       id="rect2990"
       width="240"
       height="160"
       x="8"
       y="868.36218"
       rx="16"
       ry="13.333333" />
    <path
       style="opacity:0.1;fill:#ffffff;fill-opacity:1;stroke:none"
       d="m 24,868.36238 c -8.864,0 -16,5.98832 -16,13.375 l 0,8 c 0,-7.38668 7.136,-13.375 16,-13.375 l 208,0 c 8.864,0 16,5.98832 16,13.375 l 0,-8 c 0,-7.38668 -7.136,-13.375 -16,-13.375 l -208,0 z"
       id="rect3004"
       inkscape:connector-curvature="0" />
    <path
       style="opacity:0.05;fill:#000000;fill-opacity:1;stroke:none"
       d="m 80,836.36238 0,8 8,0 132,0 c 8,0 12,4.002 12,12 l 0,-8 c 0,-7.99784 -4,-12 -12,-12 l -132,0 z"
       id="path3781"
       inkscape:connector-curvature="0"
       sodipodi:nodetypes="cccscsscc" />
    <path
       style="opacity:0.05;fill:#000000;fill-opacity:1;stroke:none"
       d="m 31.25,820.36238 c -3.636364,0 -7.25,4 -7.25,12 l 0,8 c 0,-8 3.613636,-12 7.25,-12 l 41.5,0 c 3.636364,0 7.25,4 7.25,12 l 0,-8 c 0,-8 -3.613636,-12 -7.25,-12 l -41.5,0 z"
       id="path3801"
       inkscape:connector-curvature="0" />
    <path
       id="path4139-9"
       d="m 122.00172,900.36226 c -20.47366,0 -42.00172,21.5292 -42.00172,48.0004 0,26.47116 21.5281,47.99956 42.00172,47.99956 32.47018,0 53.99828,-21.5284 53.99828,-47.99956 0,-26.4712 -21.52806,-48.0004 -48,-48.0004 z m 9.89827,6.7512 c 4.47405,0.414 8.80895,1.4352 12.75001,3.15 -0.30336,0.38 -0.53784,0.7116 -0.74998,1.35 -1.21219,3.6356 -3.02132,1.9028 -0.90002,6.4484 2.12132,4.5448 3.89391,5.7204 4.49999,3.5992 0.60615,-2.1196 -1.52435,-5.112 0.90001,-3.8996 2.42438,1.2124 4.21828,-0.328 2.4,2.402 -1.81828,2.7272 -1.77868,4.2056 -3.9,3.5988 -2.12132,-0.6072 -2.07866,3.5948 -4.2,4.2008 -2.12131,0.6072 -2.85,-0.9152 -2.85,0.6004 0,1.5144 1.20304,0.124 0.90002,2.55 -0.0924,0.7424 -0.0655,0.8748 -0.15,1.2 -1.99125,-0.57 -2.87934,-0.886 -4.35,-0.308 -1.51523,0.6072 -3.3,4.5008 -3.3,4.5008 1.89282,1.8928 2.77103,3.2556 3.45,3.9004 -0.42366,0.212 -0.93333,0.3 -1.35,0.6008 -3.03046,2.122 -5.39087,2.5212 -6.3,5.5492 -0.90915,3.0332 -0.59994,0.256 -0.59994,3.9 0,3.6372 -0.9183,1.1664 0.9,4.5012 1.81827,3.3336 6.27867,4.9308 8.39999,6.7496 2.12133,1.8172 4.30737,-3.9556 8.55,1.5004 4.24264,5.454 4.51524,3.2688 3.00001,6.3008 -1.51524,3.03036 -2.99391,4.03716 -3.6,5.24916 -0.60614,1.212 1.17868,5.3916 3.3,6.2996 0.0444,0 0.10248,0 0.15,0 -0.11292,0.26 -0.18804,0.492 -0.30008,0.7516 -2.747,1.2476 -6.11444,2.9688 -6.75001,3.1496 -1.5,0.432 -6.79285,1.3272 -10.64999,2.3992 -0.48216,0.136 -0.8617,0.136 -1.05,0.156 0.47952,-0.522 4.27088,-2.5044 6.14999,-3.5988 2.57145,-1.5028 -0.15,-1.3504 -0.15,-1.3504 0,0 -4.09285,-0.456 -12.44999,-0.456 -4.17858,0 -5.98928,0.188 -6.9,0.456 -0.45534,0.136 -0.67903,0.272 -0.90001,0.45 -0.221,0.188 -0.375,0.384 -0.74999,0.6 -1.50001,0.8568 0.87854,1.7568 -1.04999,2.3988 -1.44642,0.48 -1.61451,0 -2.84999,-0.9044 0.88132,-0.8764 2.0975,-1.932 3.59999,-3.7504 2.72741,-3.2996 3.59086,-2.6988 4.49999,-5.6988 0.90916,-3.0012 -7.64998,-2.0996 -7.64998,-3.9 0,-1.79996 -1.4726,-2.99956 -4.2,-4.19996 -2.72742,-1.2008 -0.86958,-1.8008 -3.90001,-2.7008 -3.03045,-0.8964 -6.440854,4.4996 -7.349994,2.7008 -0.909156,-1.8008 2.85,-1.8008 2.85,-3.8996 0,-2.0496 -4.322184,1.5468 -5.100012,-1.05 -0.0204,-0.096 -0.13484,-0.096 -0.15,-0.156 -0.07608,-0.38 -0.0268,-0.6004 0,-0.8964 0.19068,-2.1576 2.689344,-2.9992 3.750008,-5.1004 1.212192,-2.3976 0.58476,1.8016 2.099996,3.9012 1.515232,2.1 0.909162,-2.7 0,-5.4 -0.909148,-2.7012 0.578702,-2.7 2.700012,-6.3 2.12132,-3.6008 2.1,-5.7 2.1,-8.4008 0,-2.6992 1.46954,-2.9976 4.49999,-5.7 1.38896,-1.236 2.47869,-2.3148 3.3,-3.2992 0.19852,-0.096 0.39912,-0.096 0.6,-0.156 3.21429,-1.2864 4.56428,-3.2144 7.35,-9.0008 2.78573,-5.7844 -1.09285,-0.384 -1.95001,-0.6004 -0.85715,-0.212 -2.09999,-1.7352 -5.1,-3.45 -0.61874,-0.352 -1.17087,-0.522 -1.64999,-0.594 l 5.55001,-9.15 c 1.77777,-0.48 3.68648,-0.8088 5.54999,-1.0508 0.68182,3.8796 0.30008,7.5008 0.30008,7.5008 0,0 -1.05,1.2424 -1.05,2.1 0,0.8572 5.74286,-7.0712 6.6,-7.5 0.85716,-0.432 3.02142,2.2716 3.44999,-1.8 0.024,-0.236 -0.0268,-0.24 0,-0.45 z M 140,923.31306 c -0.30776,-0.096 -0.67123,-8e-4 -1.04999,0.156 0,1.0608 -0.41058,1.8324 -0.59994,2.2492 -0.11268,-0.192 -0.45006,-0.45 -0.45006,-0.45 -0.4545,0.8384 -1.43491,1.5776 -0.45006,1.35 0.9849,-0.22 1.73185,0.384 1.05,-0.45 -0.13112,-0.156 -0.0694,-0.092 -0.15,-0.156 0.12772,0.096 0.36968,0.156 0.90001,0.156 0.5967,0 0.91744,0 1.34999,0 -0.73159,0.54 -1.52959,0.7704 -0.45006,1.05 1.43946,0.38 2.1,0.456 2.1,0.156 0,-0.3 -0.44994,-1.35 -0.44994,-1.35 0.28124,-0.116 0.54246,-0.256 0.30008,-0.7512 -0.45456,-0.9048 -1.17666,-1.8076 -2.10001,-1.9492 z m 22.95,2.5484 c 0.7495,1.1648 1.46748,2.3616 2.1,3.6008 -0.41724,2.4204 -1.47687,4.0504 0.30008,4.0504 0.4968,0 0.93997,-0.108 1.35,-0.156 0.0558,0.144 0.0963,0.308 0.15,0.45 -3.03046,0 -4.48476,0.906 -6,0.6 -1.51524,-0.308 -5.72741,-0.576 -3,-3.2992 1.59406,-1.5948 3.58532,-4.1276 5.1,-5.2512 z m -18.9,5.552 c 0.27928,0.092 0.52278,0.38 0.74999,0.8944 0.90915,2.1224 2.41218,3.8976 1.20001,4.2012 -1.2122,0.3 -1.80002,0.6008 -1.80002,0.6008 0,0 4.19696,2.7288 4.50001,-0.3 0.30308,-3.032 -1.2,-4.802 -1.2,-4.802 0,0 2.09391,2.0888 2.7,3.3012 0.60613,1.212 0.58476,0 2.10001,1.5008 1.51522,1.5136 1.17867,-6.0224 3.3,-3.9008 2.12132,2.1212 3.45609,2.0852 2.84999,3.6 -0.60614,1.5144 3.90001,-1.8304 3.90001,1.1996 0,2.9216 1.86321,4.1072 -1.8,5.5504 -1.38693,-0.096 -2.48468,-0.328 -2.70001,-0.7516 -0.60613,-1.2108 -4.04999,-0.3 -4.04999,-0.3 -9.06551,-2.2656 -13.00116,-2.9836 -15.60001,-2.5492 0.0492,-0.096 0.0968,-0.096 0.15,-0.156 1.32582,-2.388 3.82035,-5.7036 3,-6.9 1.15542,-0.6652 2.06114,-1.3948 2.7,-1.2012 z m 25.5,15.1488 c 0.0268,0.6068 0,1.1852 0,1.8004 0,1.706 -0.10232,3.4484 -0.30008,5.0996 -2.72647,-2.4256 -6.60001,-2.3992 -6.60001,-2.3992 0,0 2.3665,-2.688 5.70001,-3.9008 0.41676,-0.156 0.86322,-0.356 1.2,-0.6 z"
       style="line-height:normal;color:#000000;fill:#150b3d;fill-opacity:1;opacity:0.4"
       inkscape:connector-curvature="0" />
  </g>
</svg>
