<?xml version="1.0" encoding="UTF-8" standalone="no"?>
<svg
   xmlns:dc="http://purl.org/dc/elements/1.1/"
   xmlns:cc="http://creativecommons.org/ns#"
   xmlns:rdf="http://www.w3.org/1999/02/22-rdf-syntax-ns#"
   xmlns:svg="http://www.w3.org/2000/svg"
   xmlns="http://www.w3.org/2000/svg"
   xmlns:sodipodi="http://sodipodi.sourceforge.net/DTD/sodipodi-0.dtd"
   xmlns:inkscape="http://www.inkscape.org/namespaces/inkscape"
   width="96px"
   height="96px"
   viewBox="0 0 96 96"
   version="1.1"
   id="svg3011"
   inkscape:version="0.91 r"
   sodipodi:docname="orange-document-open-recent.svg">
  <metadata
     id="metadata3026">
    <rdf:RDF>
      <cc:Work
         rdf:about="">
        <dc:format>image/svg+xml</dc:format>
        <dc:type
           rdf:resource="http://purl.org/dc/dcmitype/StillImage" />
        <dc:title></dc:title>
      </cc:Work>
    </rdf:RDF>
  </metadata>
  <defs
     id="defs3024" />
  <sodipodi:namedview
     pagecolor="#ffffff"
     bordercolor="#666666"
     borderopacity="1"
     objecttolerance="10"
     gridtolerance="10"
     guidetolerance="10"
     inkscape:pageopacity="0"
     inkscape:pageshadow="2"
     inkscape:window-width="1366"
     inkscape:window-height="747"
     id="namedview3022"
     showgrid="false"
     inkscape:zoom="2.4583333"
     inkscape:cx="47.999999"
     inkscape:cy="47.999999"
     inkscape:window-x="0"
     inkscape:window-y="21"
     inkscape:window-maximized="1"
     inkscape:current-layer="svg3011" />
  <path
     inkscape:connector-curvature="0"
     id="path5"
     d="m 12.00005,12 c -1.999999,0 -3.9999989,2 -3.9999989,4 l 0,20 -2.0000003,0 c -1.9999999,0 -4.0117189,1.898438 -3.9999999,4 l 0,40 c 0,2.242188 2.0742191,4 4.375,4 l 83.2500011,0 c 2.375,0 4.374999,-2 4.374999,-4 l 0,-34 c 0,-2 -1.999999,-4 -4.000001,-4 l -4,0 0,-26 c 0,-2 -1.999999,-4 -3.999999,-4 z m 0,0"
     style="fill:replacecolour1;fill-opacity:1;fill-rule:nonzero;stroke:none" />
  <path
     inkscape:connector-curvature="0"
     id="path7"
     d="m 12.00005,12 c -1.999999,0 -3.9999989,2 -3.9999989,4 l 0,20 -2.0000003,0 c -1.9999999,0 -4.0117189,1.898438 -3.9999999,4 l 0,40 c 0,2.242188 2.0742191,4 4.375,4 l 83.2500011,0 c 2.375,0 4.374999,-2 4.374999,-4 l 0,-34 c 0,-2 -1.999999,-4 -4.000001,-4 l -4,0 0,-26 c 0,-2 -1.999999,-4 -3.999999,-4 z M 6.0000508,38 54.000052,38 c 1.015624,0 1.999998,0.988281 1.999998,2 l 0,4 34,0 c 1.082031,0 2.000002,0.945312 2.000002,2 l 0,34 c 0,1.109375 -0.902345,2 -2.000002,2 L 6.0000508,82 C 4.9727069,82 4.0000509,81.109375 4.0000509,80 l 0,-40 c 0,-1.085938 0.9570311,-2 1.9999999,-2 z m 0,0"
     style="fill:replacecolour3;fill-opacity:1.;fill-rule:nonzero;stroke:none" />
  <path
     inkscape:connector-curvature="0"
     id="path3018"
     d="M 87.046875,68.679688 C 87.1875,75.671875 83.5,82.195312 77.398438,85.734375 c -6.09375,3.539063 -13.648438,3.539063 -19.75,0 -6.101563,-3.539063 -9.789063,-10.0625 -9.640626,-17.054687 -0.148437,-7 3.539063,-13.523438 9.640626,-17.0625 6.101562,-3.539063 13.65625,-3.539063 19.75,0 6.101562,3.539062 9.789062,10.0625 9.648437,17.0625 z m 0,0"
     style="fill:#859900;fill-opacity:1;fill-rule:evenodd;stroke:none" />
  <path
     inkscape:connector-curvature="0"
     id="path3020"
     d="m 78.203125,56.28125 c -0.414063,0.148438 -0.765625,0.429688 -1,0.796875 L 66.5625,67.476562 59.921875,61.078125 c -0.265625,-0.882813 -1.101563,-1.476563 -2.03125,-1.429687 -0.921875,0.05469 -1.6875,0.734374 -1.859375,1.640624 -0.164062,0.914063 0.320312,1.820313 1.171875,2.1875 l 8,8 c 0.765625,0.71875 1.953125,0.71875 2.71875,0 l 12,-12 c 0.46875,-0.617187 0.53125,-1.460937 0.164063,-2.148437 -0.367188,-0.6875 -1.109376,-1.09375 -1.882813,-1.046875 z m 0,0"
     style="fill:#ffffff;fill-opacity:1;fill-rule:nonzero;stroke:none" />
  <path
     inkscape:connector-curvature="0"
     id="path9"
     d="m 20.000051,20 55.999999,0 0,16 -55.999999,0 z m 0,0"
     style="fill:#ffffff;fill-opacity:1;fill-rule:nonzero;stroke:none" />
  <path
     inkscape:connector-curvature="0"
     id="path11"
     d="m 26.000051,26 44,0 0,4 -44,0 z m 0,0"
     style="fill:#cccccc;fill-opacity:1;fill-rule:nonzero;stroke:none" />
  <path
     inkscape:connector-curvature="0"
     id="path13"
     d="m 26.000051,34 44,0 0,2 -44,0 z m 0,0"
     style="fill:#cccccc;fill-opacity:1;fill-rule:nonzero;stroke:none" />
  <path
     inkscape:connector-curvature="0"
     id="path15"
     d="m 58.000052,36 17.999998,0 0,6 -17.999998,0 z m 0,0"
     style="fill:#ffffff;fill-opacity:1;fill-rule:evenodd;stroke:none" />
  <path
     inkscape:connector-curvature="0"
     id="path17"
     d="m 58.000052,40 c 0,-1.996094 -2.000002,-4 -4,-4 l 4,0 z m 0,0"
     style="fill:#ffffff;fill-opacity:1;fill-rule:nonzero;stroke:none" />
  <path
     inkscape:connector-curvature="0"
     id="path19"
     d="m 58.000052,36 11.999999,0 0,2 -11.999999,0 z m 0,0"
     style="fill:#cccccc;fill-opacity:1;fill-rule:evenodd;stroke:none" />
  <path
     inkscape:connector-curvature="0"
     id="path21"
     d="m 54.000052,36 c 1.292969,0 2.558593,0.867188 3.3125,2 l 0.6875,0 0,-2 z m 0,0"
     style="fill:#cccccc;fill-opacity:1;fill-rule:evenodd;stroke:none" />
</svg>
