<svg xmlns="http://www.w3.org/2000/svg" viewBox="0 0 64 64">
 <path d="m 9 8 c -1.464 0 -3 1.511 -3 3 l 0 1 -3 0 c -1.47 0 -3 1.495 -3 3 l 0 38 c 0 2 1 3 3 3 l 58 0 c 1.568 0 3 -1.358 3 -3 l 0 -33 c 0 -1.505 -1.455 -3 -3 -3 l -3 0 0 -6 c 0 -1.461 -1.453 -3 -3 -3 z" style="fill:#42a5f5;fill-opacity:1;stroke:none"/>
 <path d="m 9 8 c -1.464 0 -3 1.511 -3 3 l 0 1 -3 0 c -1.47 0 -3 1.495 -3 3 l 0 38 c 0 2 1 3 3 3 l 58 0 c 1.568 0 3 -1.358 3 -3 l 0 -33 c 0 -1.505 -1.455 -3 -3 -3 l -3 0 0 -6 c 0 -1.461 -1.453 -3 -3 -3 l -46 0 z m -6 6 34 0 c 0.59 0 1 0.515 1 1 l 0 4 23 0 c 0.506 0 1 0.509 1 1 l 0 33 c 0 0.521 -0.479 1 -1 1 l -58 0 c -0.464 0 -1 -0.396 -1 -1 l 0 -38 c 0 -0.492 0.517 -1 1 -1 z" style="fill:#000;fill-opacity:0.322;stroke:none"/>
 <g transform="matrix(2,0,0,2,16,-2051.7244)" style="fill:#000;opacity:1;fill-opacity:0.322">
  <path d="m 2.5 1037.86 c 0 0 -1 0.038 -1 1 l 0 2 2 0 0 -1 1 0 0 -2 -1.906 0 z m 3 0 0 2 2 0 0 -2 z m 3 0 0 2 2 0 0 -2 z m 3 0 0 2 1 0 0 1 2 0 0 -2 c 0 -1 -1 -1 -1 -1 z m -10 4 0 2 2 0 0 -2 z m 11 0 0 2 2 0 0 -2 z m -11 3 0 2 2 0 0 -2 z m 11 0 0 2 2 0 0 -2 z m -11 3 0 2 c 0 1 1 1 1 1 l 2 0 0 -2 -1 0 0 -1 z m 11 0 0 1 -1 0 0 2 2 0 c 0 0 1 0 1 -1 l 0 -2 z m -7 1 0 2 2 0 0 -2 z m 3 0 0 2 2 0 0 -2 z" style="fill:#000;fill-opacity:0.322;color:#000"/>
 </g>
</svg>
