<svg xmlns="http://www.w3.org/2000/svg" viewBox="0 0 64 64">
 <g transform="translate(0,-988.3622)">
  <path d="m 9 996.36 c -1.464 0 -3 1.511 -3 3 l 0 1 -3 0 c -1.47 0 -3 1.495 -3 3 l 0 38 c 0 2 1 3 3 3 l 58 0 c 1.568 0 3 -1.358 3 -3 l 0 -33 c 0 -1.505 -1.455 -3 -3 -3 l -3 0 0 -6 c 0 -1.461 -1.453 -3 -3 -3 z" style="fill:#f57c00;fill-opacity:1;stroke:none"/>
  <path d="m 9 996.36 c -1.464 0 -3 1.511 -3 3 l 0 1 -3 0 c -1.47 0 -3 1.495 -3 3 l 0 38 c 0 2 1 3 3 3 l 58 0 c 1.568 0 3 -1.358 3 -3 l 0 -33 c 0 -1.505 -1.455 -3 -3 -3 l -3 0 0 -6 c 0 -1.461 -1.453 -3 -3 -3 l -46 0 z m -6 6 34 0 c 0.59 0 1 0.515 1 1 l 0 4 23 0 c 0.506 0 1 0.509 1 1 l 0 33 c 0 0.521 -0.479 1 -1 1 l -58 0 c -0.464 0 -1 -0.396 -1 -1 l 0 -38 c 0 -0.492 0.517 -1 1 -1 z" style="fill:#000;fill-opacity:0.322;stroke:none"/>
  <path d="m 39.756 1013.36 c -3.282 0 -5.966 2.74 -5.966 6.104 0 1.129 0.325 2.196 0.852 3.109 l 0 6.613 c -0.65 0.139 -1.251 0.442 -1.758 0.848 l -5.913 -2.713 c 0 -2.4 -1.918 -4.352 -4.262 -4.352 -2.339 0 -4.262 1.952 -4.262 4.352 0 2.404 1.921 4.409 4.262 4.409 0.949 0 1.846 -0.36 2.557 -0.904 l 5.966 2.769 c 0.061 2.35 1.96 4.239 4.262 4.239 2.343 0 4.262 -1.948 4.262 -4.352 0 -1 -0.347 -1.917 -0.906 -2.656 l 0.053 0 3.143 -5.709 c 0.022 -0.024 0.031 -0.047 0.053 -0.055 2.104 -0.95 3.622 -3.098 3.622 -5.596 0 -3.361 -2.688 -6.105 -5.966 -6.105 z m 0 2.035 c 2.205 0 3.942 1.809 3.942 4.07 0 2.265 -1.738 4.069 -3.942 4.069 -2.208 0 -3.942 -1.805 -3.942 -4.069 0 -2.261 1.734 -4.07 3.942 -4.07 z m 0 1.47 c -1.41 0 -2.557 1.148 -2.557 2.6 0 1.447 1.147 2.6 2.557 2.6 1.414 0 2.557 -1.152 2.557 -2.6 0 -1.451 -1.143 -2.6 -2.557 -2.6 z m -17.05 7.857 c 1.4 0 2.198 0.579 2.45 1.752 l -1.492 -0.679 c -0.967 -0.422 -2.094 0.024 -2.504 1.017 -0.41 0.992 0.045 2.126 1.012 2.544 l 1.119 0.565 c -0.187 0.031 -0.373 0.055 -0.586 0.055 -1.705 0 -2.557 -0.904 -2.557 -2.656 0 -1.748 0.852 -2.6 2.557 -2.6 z m 12.785 5.822 c 1.578 0 2.823 1.322 2.823 2.939 0 1.617 -1.246 2.883 -2.823 2.883 -1.281 0 -2.363 -0.845 -2.717 -2.035 l 2.024 0.905 c 0.967 0.422 2.094 -0.078 2.504 -1.074 0.41 -0.992 -0.045 -2.126 -1.012 -2.543 l -1.864 -0.848 c 0.327 -0.135 0.69 -0.224 1.065 -0.224 z" style="fill:#000;opacity:1;fill-opacity:0.322;stroke:none;fill-rule:nonzero"/>
 </g>
</svg>
