<svg xmlns="http://www.w3.org/2000/svg" viewBox="0 0 64 64">
 <path d="m 9 8 c -1.464 0 -3 1.511 -3 3 l 0 1 -3 0 c -1.47 0 -3 1.495 -3 3 l 0 38 c 0 2 1 3 3 3 l 58 0 c 1.568 0 3 -1.358 3 -3 l 0 -33 c 0 -1.505 -1.455 -3 -3 -3 l -3 0 0 -6 c 0 -1.461 -1.453 -3 -3 -3 z" style="fill:#f57c00;fill-opacity:1;stroke:none"/>
 <path d="m 9 8 c -1.464 0 -3 1.511 -3 3 l 0 1 -3 0 c -1.47 0 -3 1.495 -3 3 l 0 38 c 0 2 1 3 3 3 l 58 0 c 1.568 0 3 -1.358 3 -3 l 0 -33 c 0 -1.505 -1.455 -3 -3 -3 l -3 0 0 -6 c 0 -1.461 -1.453 -3 -3 -3 l -46 0 z m -6 6 34 0 c 0.59 0 1 0.515 1 1 l 0 4 23 0 c 0.506 0 1 0.509 1 1 l 0 33 c 0 0.521 -0.479 1 -1 1 l -58 0 c -0.464 0 -1 -0.396 -1 -1 l 0 -38 c 0 -0.492 0.517 -1 1 -1 z" style="fill:#000;fill-opacity:0.322;stroke:none"/>
 <path d="m 30.11 25 c -0.666 0 -1.222 0.529 -1.222 1.195 l 0 1.555 c -0.421 0.142 -0.829 0.305 -1.222 0.5 l -1.083 -1.083 c -0.471 -0.471 -1.224 -0.471 -1.694 0 l -2.722 2.694 c -0.471 0.471 -0.471 1.224 0 1.694 l 1.083 1.083 c -0.199 0.4 -0.356 0.821 -0.5 1.25 l -1.528 0 c -0.666 0 -1.222 0.529 -1.222 1.195 l 0 3.833 c 0 0.666 0.557 1.195 1.222 1.195 l 1.528 0 c 0.144 0.429 0.301 0.85 0.5 1.25 l -1.083 1.084 c -0.471 0.471 -0.471 1.224 0 1.694 l 2.722 2.694 c 0.471 0.471 1.224 0.471 1.694 0 l 1.083 -1.083 c 0.393 0.195 0.801 0.358 1.222 0.5 l 0 1.556 c 0 0.666 0.557 1.195 1.222 1.195 l 3.806 0 c 0.666 0 1.194 -0.529 1.194 -1.195 l 0 -1.556 c 0.429 -0.144 0.85 -0.301 1.25 -0.5 l 1.083 1.083 c 0.471 0.471 1.224 0.471 1.694 0 l 2.722 -2.694 c 0.471 -0.471 0.471 -1.224 0 -1.694 l -1.111 -1.111 c 0.195 -0.393 0.359 -0.801 0.5 -1.222 l 1.556 0 c 0.666 0 1.194 -0.529 1.194 -1.195 l 0 -3.833 c 0 -0.666 -0.529 -1.195 -1.194 -1.195 l -1.556 0 c -0.141 -0.421 -0.305 -0.829 -0.5 -1.222 l 1.111 -1.111 c 0.471 -0.471 0.471 -1.224 0 -1.694 l -2.722 -2.694 c -0.471 -0.471 -1.224 -0.471 -1.694 0 l -1.083 1.083 c -0.4 -0.2 -0.821 -0.356 -1.25 -0.5 l 0 -1.555 c 0 -0.666 -0.529 -1.195 -1.194 -1.195 l -3.806 0 z m 1.889 8.889 c 1.717 0 3.111 1.394 3.111 3.111 0 1.717 -1.394 3.111 -3.111 3.111 -1.717 0 -3.111 -1.394 -3.111 -3.111 0 -1.718 1.394 -3.111 3.111 -3.111 z" style="fill:#000;opacity:1;fill-opacity:0.322;display:block;color:#000"/>
</svg>
