<svg xmlns="http://www.w3.org/2000/svg" viewBox="0 0 64 64">
 <path d="m 9 8 c -1.464 0 -3 1.511 -3 3 l 0 1 -3 0 c -1.47 0 -3 1.495 -3 3 l 0 38 c 0 2 1 3 3 3 l 58 0 c 1.568 0 3 -1.358 3 -3 l 0 -33 c 0 -1.505 -1.455 -3 -3 -3 l -3 0 0 -6 c 0 -1.461 -1.453 -3 -3 -3 z" style="fill:#f57c00;fill-opacity:1;stroke:none"/>
 <path d="m 9 8 c -1.464 0 -3 1.511 -3 3 l 0 1 -3 0 c -1.47 0 -3 1.495 -3 3 l 0 38 c 0 2 1 3 3 3 l 58 0 c 1.568 0 3 -1.358 3 -3 l 0 -33 c 0 -1.505 -1.455 -3 -3 -3 l -3 0 0 -6 c 0 -1.461 -1.453 -3 -3 -3 l -46 0 z m -6 6 34 0 c 0.59 0 1 0.515 1 1 l 0 4 23 0 c 0.506 0 1 0.509 1 1 l 0 33 c 0 0.521 -0.479 1 -1 1 l -58 0 c -0.464 0 -1 -0.396 -1 -1 l 0 -38 c 0 -0.492 0.517 -1 1 -1 z" style="fill:#000;fill-opacity:0.322;stroke:none"/>
 <path d="m 28 25 c -2.216 0 -4 1.747 -4 3.906 l 0 0.188 c 0 0.152 0.045 0.291 0.063 0.438 c -0.035 0.151 -0.063 0.306 -0.063 0.469 l 0 11 c -2.209 0 -4 1.791 -4 4 c 0 2.209 1.791 4 4 4 c 2.049 0 3.704 -1.544 3.938 -3.531 c 0.018 -0.155 0.063 -0.309 0.063 -0.469 l 0 -12 l 12 0 l 0 8 c -2.209 0 -4 1.791 -4 4 c 0 2.209 1.791 4 4 4 c 2.209 0 4 -1.791 4 -4 l 0 -15.906 l 0 -0.094 c 0 -0.032 0.001 -0.062 0 -0.094 c 0 -2.159 -1.784 -3.906 -4 -3.906 l -12 0 z" style="fill:#000;opacity:1;fill-opacity:0.322;stroke:none"/>
</svg>
