<svg xmlns="http://www.w3.org/2000/svg" viewBox="0 0 64 64">
 <g transform="translate(0,-988.3622)">
  <path d="m 9 996.36 c -1.464 0 -3 1.511 -3 3 l 0 1 -3 0 c -1.47 0 -3 1.495 -3 3 l 0 38 c 0 2 1 3 3 3 l 58 0 c 1.568 0 3 -1.358 3 -3 l 0 -33 c 0 -1.505 -1.455 -3 -3 -3 l -3 0 0 -6 c 0 -1.461 -1.453 -3 -3 -3 z" style="fill:#f06292;fill-opacity:1;stroke:none"/>
  <path d="m 9 996.36 c -1.464 0 -3 1.511 -3 3 l 0 1 -3 0 c -1.47 0 -3 1.495 -3 3 l 0 38 c 0 2 1 3 3 3 l 58 0 c 1.568 0 3 -1.358 3 -3 l 0 -33 c 0 -1.505 -1.455 -3 -3 -3 l -3 0 0 -6 c 0 -1.461 -1.453 -3 -3 -3 l -46 0 z m -6 6 l 34 0 c 0.59 0 1 0.515 1 1 l 0 4 23 0 c 0.506 0 1 0.509 1 1 l 0 33 c 0 0.521 -0.479 1 -1 1 l -58 0 c -0.464 0 -1 -0.396 -1 -1 l 0 -38 c 0 -0.492 0.517 -1 1 -1 z" style="fill:#000;fill-opacity:0.322;stroke:none"/>
  <path d="m 22.313 1014.27 0 0.031 c -0.771 0.024 -1.516 0.089 -2.25 0.344 -0.231 1.565 0.143 3.188 0.563 4.688 1.067 3.44 3.063 6.685 5.969 8.875 0.107 0.102 0.258 0.13 0.219 0.313 -0.015 0.762 -0.002 1.579 0 2.344 0.031 1.336 0.821 2.589 2 3.219 1.399 0.737 2.81 1.43 4.219 2.156 0.648 0.344 1.546 -0.055 1.75 -0.75 0.124 -0.457 0.025 -0.94 0.031 -1.406 -0.005 -0.982 -0.101 -1.968 -0.063 -2.938 1.282 -0.158 2.556 -0.784 3.313 -1.844 0.674 -0.904 0.926 -2.063 0.844 -3.188 1.371 -0.245 2.782 -0.439 4.156 -0.688 0.814 -0.164 1.166 -1.244 0.656 -1.906 -1 -1.268 -2.01 -2.491 -3.03 -3.75 -0.821 -0.981 -2.11 -1.542 -3.375 -1.375 -0.858 0.138 -1.716 0.34 -2.563 0.5 -2.733 -2.605 -6.417 -4.048 -10.125 -4.469 -0.761 -0.07 -1.542 -0.168 -2.313 -0.156 z m 4.625 2.875 c 0.896 -0.08 1.786 0.16 2.531 0.781 1.491 1.242 1.741 3.446 0.5 4.938 -1.241 1.492 -3.447 1.742 -4.938 0.5 -1.491 -1.242 -1.741 -3.477 -0.5 -4.969 0.621 -0.746 1.511 -1.168 2.406 -1.25 z m 0.406 1.563 c -1.105 0 -2 0.895 -2 2 0 1.105 0.895 2 2 2 1.105 0 2 -0.895 2 -2 0 -1.105 -0.895 -2 -2 -2 z m 13.906 9.156 c -0.307 -0.028 -0.612 0.21 -0.656 0.531 -0.391 1.778 -1.639 3.323 -3.313 4.03 -0.436 0.138 -0.545 0.714 -0.188 1 0.734 0.612 1.575 1.329 2.313 1.938 0.359 0.305 0.838 -0.013 0.844 -0.469 -0.012 -0.373 -0.06 -0.788 -0.094 -1.156 0.914 0.196 1.814 0.456 2.719 0.656 0.426 0.088 0.83 -0.437 0.656 -0.844 -0.358 -0.858 -0.726 -1.678 -1.094 -2.531 0.37 -0.044 0.725 -0.067 1.094 -0.125 0.456 -0.09 0.653 -0.765 0.281 -1.063 -0.739 -0.622 -1.502 -1.226 -2.25 -1.844 -0.088 -0.07 -0.21 -0.115 -0.313 -0.125 z" style="fill:#000;opacity:1;fill-opacity:0.322;stroke:none;fill-rule:nonzero"/>
 </g>
</svg>
