<svg version="1.1" viewBox="0 0 64 64" xmlns="http://www.w3.org/2000/svg">
 <path d="m9 8c-1.464 0-3 1.511-3 3v1h-3c-1.47 0-3 1.495-3 3v38c0 2 1 3 3 3h58c1.568 0 3-1.358 3-3v-33c0-1.505-1.455-3-3-3h-3v-6c0-1.461-1.453-3-3-3z" style="fill:#7e57c2"/>
 <path d="m9 8c-1.464 0-3 1.511-3 3v1h-3c-1.47 0-3 1.495-3 3v38c0 2 1 3 3 3h58c1.568 0 3-1.358 3-3v-33c0-1.505-1.455-3-3-3h-3v-6c0-1.461-1.453-3-3-3h-46zm-6 6h34c0.59 0 1 0.515 1 1v4h23c0.506 0 1 0.509 1 1v33c0 0.521-0.479 1-1 1h-58c-0.464 0-1-0.396-1-1v-38c0-0.492 0.517-1 1-1z" style="fill-opacity:.322"/>
 <path d="m35.818 48.668h-0.10909l-0.10909-0.1106v-3.4286c0-0.77419-0.10909-1.4378-0.43636-1.9908 2.5091-0.4424 5.2364-1.7696 5.2364-6.7465 0-1.3272-0.43636-2.5438-1.2-3.5392 0.21818-0.6636 0.32727-1.8802-0.21818-3.4286l-0.32727-0.3318s-0.21818-0.1106-0.43636-0.1106c-0.65455 0-1.6364 0.2212-3.2727 1.3272-0.87273-0.1106-1.8545-0.3318-2.9455-0.3318s-2.0727 0.1106-3.0545 0.3318c-1.5273-0.99539-2.6182-1.2166-3.2727-1.2166-0.21818 0-0.32727 0.1106-0.43636 0.1106s-0.32727 0.2212-0.32727 0.3318c-0.54546 1.5484-0.43636 2.765-0.21818 3.4286-0.76364 0.99539-1.2 2.212-1.2 3.5392 0 4.8664 2.8364 6.1935 5.2364 6.7465-0.10909 0.2212-0.21818 0.553-0.32727 0.88479-0.21818 0.1106-0.54546 0.2212-0.98182 0.2212s-0.87273-0.1106-1.2-0.4424l-0.10909-0.1106c-0.10909-0.1106-0.10909-0.2212-0.21818-0.2212l-0.21818-0.2212c0-0.1106-0.87273-1.4378-2.4-1.5484-0.54545 0-0.98182 0.2212-1.0909 0.553-0.21818 0.553 0.43636 0.99539 0.76364 1.2166 0 0 0.65454 0.3318 1.0909 1.5484 0.21818 0.77419 1.2 2.212 3.4909 2.212h0.76364v1.5484l-0.10909 0.1106s-0.10909 0 0 0c-4.9091-1.9908-8.1818-6.6359-8.1818-11.834 0-6.7465 5.3455-12.166 12-12.166s12 5.4194 12 12.166c0 5.1982-3.2727 9.8433-8.1818 11.502z" style="fill-opacity:.322;font-variation-settings:normal;stop-color:#000000"/>
</svg>
