<svg xmlns="http://www.w3.org/2000/svg" viewBox="0 0 64 64">
 <g transform="translate(0,-988.3622)">
  <path d="m 9 996.36 c -1.464 0 -3 1.511 -3 3 l 0 1 -3 0 c -1.47 0 -3 1.495 -3 3 l 0 38 c 0 2 1 3 3 3 l 58 0 c 1.568 0 3 -1.358 3 -3 l 0 -33 c 0 -1.505 -1.455 -3 -3 -3 l -3 0 0 -6 c 0 -1.461 -1.453 -3 -3 -3 z" style="fill:#7e57c2;fill-opacity:1;stroke:none"/>
  <path d="m 9 996.36 c -1.464 0 -3 1.511 -3 3 l 0 1 -3 0 c -1.47 0 -3 1.495 -3 3 l 0 38 c 0 2 1 3 3 3 l 58 0 c 1.568 0 3 -1.358 3 -3 l 0 -33 c 0 -1.505 -1.455 -3 -3 -3 l -3 0 0 -6 c 0 -1.461 -1.453 -3 -3 -3 l -46 0 z m -6 6 34 0 c 0.59 0 1 0.515 1 1 l 0 4 23 0 c 0.506 0 1 0.509 1 1 l 0 33 c 0 0.521 -0.479 1 -1 1 l -58 0 c -0.464 0 -1 -0.396 -1 -1 l 0 -38 c 0 -0.492 0.517 -1 1 -1 z" style="fill:#000;fill-opacity:0.322;stroke:none"/>
  <path d="m 20 1013.36 0 5 c 10.147 1.12 19.04 8.915 19 19 l 5 0 c 0 -14.406 -12.938 -23.544 -24 -24 z m 0 8 0 5 c 5.499 0.452 10.939 4.584 11 11 l 5 0 c -0.239 -9.783 -9.17 -15.305 -16 -16 z" style="fill:#000;opacity:1;fill-opacity:0.322;stroke:none;fill-rule:nonzero"/>
  <path transform="matrix(2.3333333,0,0,2.3333333,-3.3333333,979.02887)" d="m 13 23.5 a 1.5 1.5 0 1 1 -3 0 1.5 1.5 0 1 1 3 0 z" style="fill:#000;opacity:1;fill-opacity:0.322;stroke:none;fill-rule:evenodd"/>
 </g>
</svg>
