<svg xmlns="http://www.w3.org/2000/svg" viewBox="0 0 64 64">
 <path d="m 9 8 c -1.464 0 -3 1.511 -3 3 l 0 1 -3 0 c -1.47 0 -3 1.495 -3 3 l 0 38 c 0 2 1 3 3 3 l 58 0 c 1.568 0 3 -1.358 3 -3 l 0 -33 c 0 -1.505 -1.455 -3 -3 -3 l -3 0 0 -6 c 0 -1.461 -1.453 -3 -3 -3 z" style="fill:#7e57c2;fill-opacity:1;stroke:none"/>
 <path d="m 9 8 c -1.464 0 -3 1.511 -3 3 l 0 1 l -3 0 c -1.47 0 -3 1.495 -3 3 l 0 38 c 0 2 1 3 3 3 l 58 0 c 1.568 0 3 -1.358 3 -3 l 0 -33 c 0 -1.505 -1.455 -3 -3 -3 l -3 0 l 0 -6 c 0 -1.461 -1.453 -3 -3 -3 l -46 0 z m -6 6 l 34 0 c 0.59 0 1 0.515 1 1 l 0 4 l 23 0 c 0.506 0 1 0.509 1 1 l 0 33 c 0 0.521 -0.479 1 -1 1 l -58 0 c -0.464 0 -1 -0.396 -1 -1 l 0 -38 c 0 -0.492 0.517 -1 1 -1 z" style="fill:#000;fill-opacity:0.322;stroke:none"/>
 <g transform="matrix(5.3149594,0,0,5.3149594,20.000002,-22.999996)" style="fill:#000;opacity:1;fill-opacity:0.322">
  <path d="m 2.634 13.547 0 -3.01 -0.753 0 0 3.01 z m -1.129 -3.199 -1.505 -1.129 l 0 3.01 l 1.505 1.129 m 3.01 -1.129 0 -3.01 -1.505 1.129 0 3.01 z m -0.282 -3.199 c -0.847 0 -1.411 0.282 -1.976 0.753 -0.564 -0.47 -1.129 -0.753 -1.976 -0.753 l 1.599 1.129 0.753 0 z" style="fill:#000;fill-opacity:0.322;stroke:none;fill-rule:nonzero"/>
 </g>
</svg>
