<?xml version="1.0" encoding="UTF-8" standalone="no"?>
<svg
   xmlns:dc="http://purl.org/dc/elements/1.1/"
   xmlns:cc="http://creativecommons.org/ns#"
   xmlns:rdf="http://www.w3.org/1999/02/22-rdf-syntax-ns#"
   xmlns:svg="http://www.w3.org/2000/svg"
   xmlns="http://www.w3.org/2000/svg"
   xmlns:sodipodi="http://sodipodi.sourceforge.net/DTD/sodipodi-0.dtd"
   xmlns:inkscape="http://www.inkscape.org/namespaces/inkscape"
   width="96px"
   height="96px"
   viewBox="0 0 96 96"
   version="1.1"
   id="svg2"
   inkscape:version="0.91 r"
   sodipodi:docname="blue-document-open.svg">
  <metadata
     id="metadata27">
    <rdf:RDF>
      <cc:Work
         rdf:about="">
        <dc:format>image/svg+xml</dc:format>
        <dc:type
           rdf:resource="http://purl.org/dc/dcmitype/StillImage" />
      </cc:Work>
    </rdf:RDF>
  </metadata>
  <defs
     id="defs25" />
  <sodipodi:namedview
     pagecolor="#ffffff"
     bordercolor="#666666"
     borderopacity="1"
     objecttolerance="10"
     gridtolerance="10"
     guidetolerance="10"
     inkscape:pageopacity="0"
     inkscape:pageshadow="2"
     inkscape:window-width="668"
     inkscape:window-height="480"
     id="namedview23"
     showgrid="false"
     inkscape:zoom="2.4583333"
     inkscape:cx="48"
     inkscape:cy="48"
     inkscape:window-x="0"
     inkscape:window-y="0"
     inkscape:window-maximized="0"
     inkscape:current-layer="svg2" />
  <path
     inkscape:connector-curvature="0"
     id="path5"
     d="m 12,12 c -2,0 -4,2 -4,4 l 0,20 -2,0 c -2,0 -4.011719,1.898438 -4,4 l 0,40 c 0,2.242188 2.074219,4 4.375,4 l 83.25,0 C 92,84 94,82 94,80 l 0,-34 c 0,-2 -2,-4 -4,-4 l -4,0 0,-26 c 0,-2 -2,-4 -4,-4 z m 0,0"
     style="fill:#42a5f5;fill-opacity:1;fill-rule:nonzero;stroke:none" />
  <path
     inkscape:connector-curvature="0"
     id="path7"
     d="m 12,12 c -2,0 -4,2 -4,4 l 0,20 -2,0 c -2,0 -4.011719,1.898438 -4,4 l 0,40 c 0,2.242188 2.074219,4 4.375,4 l 83.25,0 C 92,84 94,82 94,80 l 0,-34 c 0,-2 -2,-4 -4,-4 l -4,0 0,-26 c 0,-2 -2,-4 -4,-4 z m -6,26 48,0 c 1.015625,0 2,0.988281 2,2 l 0,4 34,0 c 1.082031,0 2,0.945312 2,2 l 0,34 c 0,1.109375 -0.902344,2 -2,2 L 6,82 C 4.972656,82 4,81.109375 4,80 L 4,40 c 0,-1.085938 0.957031,-2 2,-2 z m 0,0"
     style="fill:#000000;fill-opacity:0.32156899;fill-rule:nonzero;stroke:none" />
  <path
     inkscape:connector-curvature="0"
     id="path9"
     d="m 20,20 56,0 0,16 -56,0 z m 0,0"
     style="fill:#ffffff;fill-opacity:1;fill-rule:nonzero;stroke:none" />
  <path
     inkscape:connector-curvature="0"
     id="path11"
     d="m 26,26 44,0 0,4 -44,0 z m 0,0"
     style="fill:#cccccc;fill-opacity:1;fill-rule:nonzero;stroke:none" />
  <path
     inkscape:connector-curvature="0"
     id="path13"
     d="m 26,34 44,0 0,2 -44,0 z m 0,0"
     style="fill:#cccccc;fill-opacity:1;fill-rule:nonzero;stroke:none" />
  <path
     inkscape:connector-curvature="0"
     id="path15"
     d="m 58,36 18,0 0,6 -18,0 z m 0,0"
     style="fill:#ffffff;fill-opacity:1;fill-rule:evenodd;stroke:none" />
  <path
     inkscape:connector-curvature="0"
     id="path17"
     d="m 58,40 c 0,-1.996094 -2,-4 -4,-4 l 4,0 z m 0,0"
     style="fill:#ffffff;fill-opacity:1;fill-rule:nonzero;stroke:none" />
  <path
     inkscape:connector-curvature="0"
     id="path19"
     d="m 58,36 12,0 0,2 -12,0 z m 0,0"
     style="fill:#cccccc;fill-opacity:1;fill-rule:evenodd;stroke:none" />
  <path
     inkscape:connector-curvature="0"
     id="path21"
     d="m 54,36 c 1.292969,0 2.558594,0.867188 3.3125,2 L 58,38 58,36 z m 0,0"
     style="fill:#cccccc;fill-opacity:1;fill-rule:evenodd;stroke:none" />
</svg>
