<svg xmlns="http://www.w3.org/2000/svg" viewBox="0 0 96 96">
 <path d="m 12 12 c -2 0 -4 2 -4 4 l 0 4 -2 0 c -2 0 -4.01 1.898 -4 4 l 0 56 c 0 2.242 2.074 4 4.375 4 l 83.25 0 c 2.375 0 4.375 -2 4.375 -4 l 0 -50 c 0 -2 -2 -4 -4 -4 l -4 0 0 -10 c 0 -2 -2 -4 -4 -4 z m 0 0" style="fill:#8d6e63;fill-opacity:1;stroke:none;fill-rule:nonzero"/>
 <path d="m 12 12 c -2 0 -4 2 -4 4 l 0 4 -2 0 c -2 0 -4.01 1.898 -4 4 l 0 56 c 0 2.242 2.074 4 4.375 4 l 83.25 0 c 2.375 0 4.375 -2 4.375 -4 l 0 -50 c 0 -2 -2 -4 -4 -4 l -4 0 0 -10 c 0 -2 -2 -4 -4 -4 z m -6 10 48 0 c 1.016 0 2 0.988 2 2 l 0 4 34 0 c 1.082 0 2 0.945 2 2 l 0 50 c 0 1.109 -0.902 2 -2 2 l -84 0 c -1.027 0 -2 -0.891 -2 -2 l 0 -56 c 0 -1.086 0.957 -2 2 -2 z m 0 0" style="fill:#000;fill-opacity:0.322;stroke:none;fill-rule:nonzero"/>
 <path d="m 88 56 -16 0 0 -16 -16 0 0 16 -16 0 0 16 16 0 0 16 16 0 0 -16 16 0 z m 0 0" style="fill:#859900;fill-opacity:1;stroke:none;fill-rule:nonzero"/>
</svg>
