<?xml version="1.0" encoding="UTF-8" standalone="no"?>
<svg
   xmlns:dc="http://purl.org/dc/elements/1.1/"
   xmlns:cc="http://creativecommons.org/ns#"
   xmlns:rdf="http://www.w3.org/1999/02/22-rdf-syntax-ns#"
   xmlns:svg="http://www.w3.org/2000/svg"
   xmlns="http://www.w3.org/2000/svg"
   xmlns:sodipodi="http://sodipodi.sourceforge.net/DTD/sodipodi-0.dtd"
   xmlns:inkscape="http://www.inkscape.org/namespaces/inkscape"
   width="128px"
   height="128px"
   viewBox="0 0 128 128"
   version="1.1"
   id="svg2"
   inkscape:version="0.48.5 r10040"
   sodipodi:docname="folder-system.svg">
  <metadata
     id="metadata15">
    <rdf:RDF>
      <cc:Work
         rdf:about="">
        <dc:format>image/svg+xml</dc:format>
        <dc:type
           rdf:resource="http://purl.org/dc/dcmitype/StillImage" />
      </cc:Work>
    </rdf:RDF>
  </metadata>
  <defs
     id="defs13" />
  <sodipodi:namedview
     pagecolor="#ffffff"
     bordercolor="#666666"
     borderopacity="1"
     objecttolerance="10"
     gridtolerance="10"
     guidetolerance="10"
     inkscape:pageopacity="0"
     inkscape:pageshadow="2"
     inkscape:window-width="668"
     inkscape:window-height="480"
     id="namedview11"
     showgrid="false"
     inkscape:zoom="1.84375"
     inkscape:cx="64"
     inkscape:cy="64"
     inkscape:window-x="0"
     inkscape:window-y="0"
     inkscape:window-maximized="0"
     inkscape:current-layer="svg2" />
  <path
     inkscape:connector-curvature="0"
     id="path5"
     d="m 18,16 c -2.929688,0 -6,3.023438 -6,6 l 0,2 -6,0 c -2.941406,0 -6,2.992188 -6,6 l 0,76 c 0,4 2,6 6,6 l 116,0 c 3.13672,0 6,-2.71484 6,-6 l 0,-66 c 0,-3.011719 -2.91016,-6 -6,-6 l -6,0 0,-12 c 0,-2.921875 -2.90625,-6 -6,-6 z m 0,0"
     style="fill:#8d6e63;fill-opacity:1;fill-rule:nonzero;stroke:none" />
  <path
     inkscape:connector-curvature="0"
     id="path7"
     d="m 18,16 c -2.929688,0 -6,3.023438 -6,6 l 0,2 -6,0 c -2.941406,0 -6,2.992188 -6,6 l 0,76 c 0,4 2,6 6,6 l 116,0 c 3.13672,0 6,-2.71484 6,-6 l 0,-66 c 0,-3.011719 -2.91016,-6 -6,-6 l -6,0 0,-12 c 0,-2.921875 -2.90625,-6 -6,-6 z M 6,28 74,28 c 1.179688,0 2,1.03125 2,2 l 0,8 46,0 c 1.01172,0 2,1.015625 2,2 l 0,66 c 0,1.04297 -0.95703,2 -2,2 L 6,108 c -0.929688,0 -2,-0.79297 -2,-2 L 4,30 c 0,-0.984375 1.03125,-2 2,-2 z m 0,0"
     style="fill:#000000;fill-opacity:0.32156899;fill-rule:nonzero;stroke:none" />
  <path
     inkscape:connector-curvature="0"
     id="path9"
     d="m 60.222656,50 c -1.332031,0 -2.445312,1.058594 -2.445312,2.390625 l 0,3.109375 c -0.839844,0.285156 -1.65625,0.609375 -2.445313,1 l -2.164062,-2.167969 c -0.941407,-0.941406 -2.449219,-0.941406 -3.390625,0 l -5.445313,5.390625 c -0.941406,0.941406 -0.941406,2.449219 0,3.386719 L 46.5,65.277344 c -0.398438,0.800781 -0.710938,1.644531 -1,2.5 l -3.054688,0 C 41.113281,67.777344 40,68.835938 40,70.167969 l 0,7.664062 c 0,1.332031 1.113281,2.390625 2.445312,2.390625 l 3.054688,0 c 0.289062,0.855469 0.601562,1.699219 1,2.5 l -2.167969,2.167969 c -0.941406,0.941406 -0.941406,2.445313 0,3.386719 l 5.445313,5.390625 c 0.941406,0.941406 2.449218,0.941406 3.390625,0 L 55.332031,91.5 c 0.789063,0.390625 1.605469,0.71875 2.445313,1 l 0,3.109375 C 57.777344,96.941406 58.890625,98 60.222656,98 l 7.609375,0 c 1.332031,0 2.390625,-1.058594 2.390625,-2.390625 l 0,-3.109375 c 0.855469,-0.289062 1.699219,-0.601562 2.5,-1 l 2.167969,2.167969 c 0.941406,0.941406 2.445313,0.941406 3.386719,0 l 5.445312,-5.390625 c 0.941406,-0.941406 0.941406,-2.449219 0,-3.386719 L 81.5,82.667969 c 0.390625,-0.789063 0.71875,-1.605469 1,-2.445313 l 3.109375,0 C 86.941406,80.222656 88,79.164062 88,77.832031 l 0,-7.664062 c 0,-1.332031 -1.058594,-2.390625 -2.390625,-2.390625 l -3.109375,0 c -0.28125,-0.839844 -0.609375,-1.65625 -1,-2.445313 l 2.222656,-2.222656 c 0.941406,-0.941406 0.941406,-2.445313 0,-3.386719 l -5.445312,-5.390625 c -0.941406,-0.941406 -2.449219,-0.941406 -3.386719,0 L 72.722656,56.5 c -0.800781,-0.398438 -1.644531,-0.710938 -2.5,-1 l 0,-3.109375 C 70.222656,51.058594 69.164062,50 67.832031,50 z M 64,67.777344 c 3.433594,0 6.222656,2.789062 6.222656,6.222656 0,3.433594 -2.789062,6.222656 -6.222656,6.222656 -3.433594,0 -6.222656,-2.789062 -6.222656,-6.222656 0,-3.433594 2.789062,-6.222656 6.222656,-6.222656 z m 0,0"
     style="fill:#000000;fill-opacity:0.32156899;fill-rule:nonzero;stroke:none" />
</svg>
