<?xml version="1.0" encoding="UTF-8" standalone="no"?>
<svg
   xmlns:dc="http://purl.org/dc/elements/1.1/"
   xmlns:cc="http://creativecommons.org/ns#"
   xmlns:rdf="http://www.w3.org/1999/02/22-rdf-syntax-ns#"
   xmlns:svg="http://www.w3.org/2000/svg"
   xmlns="http://www.w3.org/2000/svg"
   xmlns:sodipodi="http://sodipodi.sourceforge.net/DTD/sodipodi-0.dtd"
   xmlns:inkscape="http://www.inkscape.org/namespaces/inkscape"
   viewBox="0 0 24 24"
   id="svg2"
   version="1.1"
   inkscape:version="0.91 r13725"
   sodipodi:docname="blue-add-folders-to-archive.svg">
  <metadata
     id="metadata34">
    <rdf:RDF>
      <cc:Work
         rdf:about="">
        <dc:format>image/svg+xml</dc:format>
        <dc:type
           rdf:resource="http://purl.org/dc/dcmitype/StillImage" />
      </cc:Work>
    </rdf:RDF>
  </metadata>
  <defs
     id="defs32" />
  <sodipodi:namedview
     pagecolor="#ffffff"
     bordercolor="#666666"
     borderopacity="1"
     objecttolerance="10"
     gridtolerance="10"
     guidetolerance="10"
     inkscape:pageopacity="0"
     inkscape:pageshadow="2"
     inkscape:window-width="722"
     inkscape:window-height="480"
     id="namedview30"
     showgrid="false"
     inkscape:zoom="13.906433"
     inkscape:cx="9.4308167"
     inkscape:cy="10.896005"
     inkscape:window-x="332"
     inkscape:window-y="293"
     inkscape:window-maximized="0"
     inkscape:current-layer="svg2" />
  <path
     d="m 2.9999999,10.998014 8.5000001,0 c 0.5,0 1,0.5 1,1 l 0,2 c 0,0.554 -0.223,1 -0.5,1 l -9.0000001,0 c -0.277,0 -0.4999998,-0.446 -0.4999998,-1 l 0,-3 z"
     style="fill:replacecolour2;fill-opacity:1;stroke:none"
     id="path4178"
     inkscape:connector-curvature="0" />
  <path
     d="m 2.5000001,11.998014 0,2.5 9.9999999,0 0,-2.5 z"
     style="opacity:0.02999998;fill:#000000;fill-opacity:1;stroke:none"
     id="path4180"
     inkscape:connector-curvature="0" />
  <rect
     width="11"
     height="8.5"
     x="2"
     y="12.498"
     rx="1"
     style="fill:replacecolour1;fill-opacity:1;stroke:none"
     id="rect4182"
     ry="1" />
  <path
     d="m 2.5000001,11.498014 0,-0.5 c 0,-0.5 0,-1 0.4999998,-1 l 2,0 c 0.5000001,0 0.5000001,0.5 0.5000001,1 l 0,0.5 z"
     style="fill:replacecolour2;fill-opacity:1;stroke:none"
     id="path4184"
     inkscape:connector-curvature="0" />
  <path
     style="fill:#ffffff;fill-opacity:1;stroke:none;opacity:0.5"
     d="M 3 9.9980469 C 2.5 9.9980469 2.5 10.498047 2.5 10.998047 L 2.5 11.498047 L 2.5 12.650391 C 2.2061506 12.824178 2 13.130551 2 13.498047 L 2 19.998047 C 2 20.552047 2.446 20.998047 3 20.998047 L 12 20.998047 C 12.554 20.998047 13 20.552047 13 19.998047 L 13 13.498047 C 13 13.130551 12.793849 12.824178 12.5 12.650391 L 12.5 11.998047 C 12.5 11.498047 12 10.998047 11.5 10.998047 L 5.5 10.998047 C 5.5 10.498047 5.5 9.9980469 5 9.9980469 L 3 9.9980469 z "
     id="path8" />
  <path
     inkscape:connector-curvature="0"
     id="path14"
     style="fill:replacecolour2;fill-opacity:1;stroke:none"
     d="m 12,4.9978 8.5,0 c 0.5,0 1,0.5 1,1 l 0,2 c 0,0.554 -0.223,1 -0.5,1 l -9,0 c -0.277,0 -0.5,-0.446 -0.5,-1 l 0,-3 z" />
  <path
     inkscape:connector-curvature="0"
     id="path16"
     style="opacity:0.02999998;fill:#000000;fill-opacity:1;stroke:none"
     d="m 11.5,5.9978 0,2.5 10,0 0,-2.5 z" />
  <path
     d="m 5.5,10.998014 0,0.5 0.5,0 5.5,0 c 0.5,0 1,0.5 1,1 l 0,-0.5 c 0,-0.5 -0.5,-1 -1,-1 l -5.5,0 z"
     style="opacity:0.05;fill:#000000;fill-opacity:1;stroke:none"
     id="path4186"
     inkscape:connector-curvature="0" />
  <path
     d="m 2.9999999,9.998014 c -0.4999998,0 -0.4999998,0.5 -0.4999998,1 l 0,0.125 c 0.022999,-0.352 0.1250003,-0.625 0.4999998,-0.625 l 2,0 c 0.3750001,0 0.4770002,0.273 0.5000001,0.625 l 0,-0.125 c 0,-0.5 0,-1 -0.5000001,-1 l -2,0 z"
     style="opacity:0.05;fill:#000000;fill-opacity:1;stroke:none"
     id="path4188"
     inkscape:connector-curvature="0" />
  <path
     d="m 2.9999999,12.498014 c -0.3709999,0 -0.6869999,0.201 -0.8589999,0.5 l 10.719,0 c -0.173001,-0.299 -0.488,-0.5 -0.859,-0.5 l -9,0 z"
     style="opacity:0.1;fill:#ffffff;fill-opacity:1;stroke:none"
     id="path4190"
     inkscape:connector-curvature="0" />
  <rect
     id="rect18"
     style="fill:replacecolour1;fill-opacity:1;stroke:none"
     rx="1"
     y="6.4977856"
     x="11"
     height="8.5"
     width="11" />
  <path
     inkscape:connector-curvature="0"
     id="path20"
     style="fill:replacecolour2;fill-opacity:1;stroke:none"
     d="m 11.5,5.4978 0,-0.5 c 0,-0.5 0,-1 0.5,-1 l 2,0 c 0.5,0 0.5,0.5 0.5,1 l 0,0.5 z" />
  <path
     inkscape:connector-curvature="0"
     id="path22"
     style="opacity:0.05;fill:#000000;fill-opacity:1;stroke:none"
     d="m 14.5,4.9978 0,0.5 0.5,0 5.5,0 c 0.5,0 1,0.5 1,1 l 0,-0.5 c 0,-0.5 -0.5,-1 -1,-1 l -5.5,0 z" />
  <path
     inkscape:connector-curvature="0"
     id="path24"
     style="opacity:0.05;fill:#000000;fill-opacity:1;stroke:none"
     d="m 12,3.9978 c -0.5,0 -0.5,0.5 -0.5,1 l 0,0.125 c 0.023,-0.352 0.125,-0.625 0.5,-0.625 l 2,0 c 0.375,0 0.477,0.273 0.5,0.625 l 0,-0.125 c 0,-0.5 0,-1 -0.5,-1 l -2,0 z" />
  <path
     inkscape:connector-curvature="0"
     id="path26"
     style="opacity:0.1;fill:#ffffff;fill-opacity:1;stroke:none"
     d="m 12,6.4978 c -0.371,0 -0.687,0.201 -0.859,0.5 l 10.719,0 c -0.173,-0.299 -0.488,-0.5 -0.859,-0.5 l -9,0 z" />
  <path
     inkscape:connector-curvature="0"
     id="path28"
     style="fill:#859900"
     d="m 22,12.9978 -4,0 0,-4 -4,0 0,4 -4,0 0,4 4,0 0,4 4,0 0,-4 4,0 z" />
</svg>
