<svg xmlns="http://www.w3.org/2000/svg" viewBox="0 0 24 24">
 <g transform="translate(0,-1028.3622)">
  <g transform="translate(0,8.6914063e-6)">
   <path transform="translate(0,1028.3622)" d="M 5,0 C 4,0 3,1 3,2 l 0,8 c 0,1.108 0.446,2 1,2 l 16,0 c 0.554,0 1,-0.892 1,-2 L 21,3 18,0 5,0 Z" style="fill:#e3e1cf;fill-opacity:1;stroke:none"/>
   <rect rx="2" y="1035.36" x="1" height="17" width="22" style="fill:#f57c00;fill-opacity:1;stroke:none"/>
   <path d="m 3 1035.36 c -1.108 0 -2 0.892 -2 2 l 0 1 c 0 -1.108 0.892 -2 2 -2 l 18 0 c 1.108 0 2 0.892 2 2 l 0 -1 c 0 -1.108 -0.892 -2 -2 -2 l -18 0 z" style="fill:#fff;opacity:0.1;fill-opacity:1;stroke:none"/>
   <path transform="translate(0,1028.3622)" d="m 18 0 0 3 3 0 z" style="fill:#fff;fill-opacity:1;stroke:none"/>
   <path d="m 21 1034.36 0 -3 -3 0 z" style="fill:#000;opacity:0.2;fill-opacity:1;stroke:none"/>
   <rect width="9" height="1" x="6" y="1030.36" rx="0.5" style="fill:#a1a195;fill-opacity:1;stroke:none"/>
   <rect rx="0.5" y="1032.36" x="6" height="1" width="11" style="fill:#a1a195;fill-opacity:1;stroke:none"/>
  </g>
  <g transform="matrix(1.0243802,0,0,1.0144486,-0.292563,1027.9451)">
   <path d="m 20.95 13.17 a 4.881 4.831 0 1 1 -9.76 0 4.881 4.831 0 1 1 9.76 0 z" transform="translate(0.811,3.999)" style="fill:#859900;fill-rule:evenodd"/>
   <path d="m 19.55 14.07 a 0.5 0.5 0 0 0 -0.25 0.2 l -2.66 2.6 -1.66 -1.6 a 0.5 0.5 0 1 0 -0.68 0.6 l 2 2 a 0.5 0.5 0 0 0 0.68 0 l 3 -3 a 0.5 0.5 0 0 0 -0.43 -0.8 z" style="fill:#fff;color:#000"/>
  </g>
 </g>
</svg>
