<?xml version="1.0" encoding="UTF-8" standalone="no"?>
<svg
   xmlns:dc="http://purl.org/dc/elements/1.1/"
   xmlns:cc="http://creativecommons.org/ns#"
   xmlns:rdf="http://www.w3.org/1999/02/22-rdf-syntax-ns#"
   xmlns:svg="http://www.w3.org/2000/svg"
   xmlns="http://www.w3.org/2000/svg"
   xmlns:sodipodi="http://sodipodi.sourceforge.net/DTD/sodipodi-0.dtd"
   xmlns:inkscape="http://www.inkscape.org/namespaces/inkscape"
   width="16"
   height="16"
   viewBox="0 0 12.8 12.8"
   id="svg2"
   version="1.1"
   inkscape:version="0.48.5 r10040"
   sodipodi:docname="fileopen.svg">
  <metadata
     id="metadata30">
    <rdf:RDF>
      <cc:Work
         rdf:about="">
        <dc:format>image/svg+xml</dc:format>
        <dc:type
           rdf:resource="http://purl.org/dc/dcmitype/StillImage" />
      </cc:Work>
    </rdf:RDF>
  </metadata>
  <defs
     id="defs28" />
  <sodipodi:namedview
     pagecolor="#ffffff"
     bordercolor="#666666"
     borderopacity="1"
     objecttolerance="10"
     gridtolerance="10"
     guidetolerance="10"
     inkscape:pageopacity="0"
     inkscape:pageshadow="2"
     inkscape:window-width="1280"
     inkscape:window-height="998"
     id="namedview26"
     showgrid="true"
     inkscape:zoom="20.85965"
     inkscape:cx="13.091184"
     inkscape:cy="5.7631919"
     inkscape:window-x="0"
     inkscape:window-y="0"
     inkscape:window-maximized="1"
     inkscape:current-layer="svg2">
    <inkscape:grid
       type="xygrid"
       id="grid3016" />
  </sodipodi:namedview>
  <g
     transform="matrix(0.94912455,0,0,0.31637485,-0.16930959,1.5435635)"
     id="g6">
    <path
       style="fill:#f8f8f8"
       d="m 2.707031,2.707031 7.585938,0 0,7.585938 -7.585938,0 z"
       id="path8"
       inkscape:connector-curvature="0" />
  </g>
  <path
     style="fill:#cccccc"
     inkscape:connector-curvature="0"
     id="path12"
     d="m 3.2,3.2 5.6,0 0,0.8 -5.6,0 z" />
  <path
     style="fill:#f8f8f8;fill-opacity:1;stroke:none"
     d="m 12,6 0,1 -2,0 C 10,6.4534308 9.6097531,6 9,6 z"
     id="path3024"
     inkscape:connector-curvature="0"
     sodipodi:nodetypes="ccccc"
     transform="scale(0.8,0.8)" />
  <path
     transform="scale(0.8,0.8)"
     sodipodi:nodetypes="ccccc"
     inkscape:connector-curvature="0"
     id="path3794"
     d="m 11,6 0,1 -1,0 C 10,6.4534308 9.6097531,6 9,6 z"
     style="fill:#cccccc;fill-opacity:1;stroke:none" />
  <path
     style="fill:#512da8;fill-opacity:1;stroke:none"
     d="m 0.7999994,2.3999842 0,4 11.1999996,0 0,-4 z"
     id="rect3757-9"
     inkscape:connector-curvature="0"
     sodipodi:nodetypes="ccccc" />
  <path
     style="fill:#512da8;fill-opacity:1;stroke:none"
     d="m 2.3999992,2.4000002 c 0,-0.4 0,-0.8 0.5818182,-0.8 l 2.0363638,0 c 0.581818,0 0.581818,0.4 0.581818,0.8 z"
     id="path3759-1"
     inkscape:connector-curvature="0"
     sodipodi:nodetypes="ccccc" />
  <rect
     style="fill:#d8d8da;fill-opacity:1;fill-rule:evenodd;stroke:none"
     id="rect3012"
     width="9.6000004"
     height="3.2"
     x="1.5999993"
     y="3.2000003" />
  <path
     style="fill:#7e57c2;fill-opacity:1;stroke:none"
     d="M -7.6293945e-7,5.6 12.799999,5.6 l -0.8,5.6 -11.19999976,0 z"
     id="path2987-9"
     inkscape:connector-curvature="0"
     sodipodi:nodetypes="ccccc" />
  <rect
     style="opacity:1;fill:#f9f9f9;fill-opacity:1;fill-rule:evenodd;stroke:none"
     id="rect3025"
     width="9"
     height="2"
     x="4"
     y="5"
     transform="scale(0.8,0.8)" />
</svg>
