<svg xmlns="http://www.w3.org/2000/svg" width="48" viewBox="0 0 13.546667 13.546667" height="48">
 <defs>
  <linearGradient id="linearGradient5286" gradientUnits="userSpaceOnUse" gradientTransform="matrix(0.28222223,0,0,0.28222223,-13.546666,6.2509917e-4)" x1="1" x2="47">
   <stop style="stop-color:#2684da;stop-opacity:1"/>
   <stop offset="1" style="stop-color:#3f96e5;stop-opacity:1"/>
  </linearGradient>
 </defs>
 <g>
  <g transform="scale(0.28222223,0.28222223)">
   <path d="m 1,43 0,0.25 c 0,2.216 1.784,4 4,4 l 38,0 c 2.216,0 4,-1.784 4,-4 L 47,43 c 0,2.216 -1.784,4 -4,4 L 5,47 C 2.784,47 1,45.216 1,43 z m 0,0.5 0,0.5 c 0,2.216 1.784,4 4,4 l 38,0 c 2.216,0 4,-1.784 4,-4 l 0,-0.5 c 0,2.216 -1.784,4 -4,4 l -38,0 c -2.216,0 -4,-1.784 -4,-4 z" style="opacity:0.02"/>
   <path d="m 1 43.25 0 0.25 c 0 2.216 1.784 4 4 4 l 38 0 c 2.216 0 4 -1.784 4 -4 l 0 -0.25 c 0 2.216 -1.784 4 -4 4 l -38 0 c -2.216 0 -4 -1.784 -4 -4 z" style="opacity:0.05"/>
   <path d="m 1,43 0,0.25 c 0,2.216 1.784,4 4,4 l 38,0 c 2.216,0 4,-1.784 4,-4 L 47,43 c 0,2.216 -1.784,4 -4,4 L 5,47 C 2.784,47 1,45.216 1,43 z" style="opacity:0.1"/>
  </g>
  <rect transform="matrix(0,-1,1,0,0,0)" rx="1.129" y="0.282" x="-13.264" height="12.982" width="12.982" style="fill:url(#linearGradient5286);fill-opacity:1"/>
  <g transform="scale(0.28222223,0.28222223)">
   <g transform="translate(0,-1004.3622)">
    <path d="m 1 1043.36 0 4 c 0 2.216 1.784 4 4 4 l 38 0 c 2.216 0 4 -1.784 4 -4 l 0 -4 c 0 2.216 -1.784 4 -4 4 l -38 0 c -2.216 0 -4 -1.784 -4 -4 z" style="opacity:0.1"/>
   </g>
  </g>
  <rect width="3.104" height="1.129" x="3.951" y="4.798" style="fill:#fffdf0"/>
  <path d="m 7.655 3.951 c -0.537 0 -0.712 0.424 -0.988 0.847 l -2.575 0 c -0.391 0 -0.706 0.315 -0.706 0.706 l 0 0.282 0 2.399 0 0.423 0 0.247 0 0.035 c 0.002 0.039 0.001 0.077 0.018 0.115 0.034 0.195 0.145 0.362 0.309 0.467 0.078 0.051 0.169 0.087 0.265 0.106 0.048 0.001 0.09 0.018 0.141 0.018 l 5.309 0 c 0.051 0 0.093 -0.008 0.141 -0.018 0.096 -0.019 0.186 -0.055 0.265 -0.106 0.164 -0.106 0.275 -0.272 0.309 -0.467 0.008 -0.037 0.016 -0.076 0.018 -0.115 l 0 -0.035 0 -0.247 0 -3.916 c 0 -0.413 -0.324 -0.741 -0.732 -0.741 l -1.773 0 z" style="fill:#000;fill-opacity:0.102"/>
  <path d="m 4.092 4.233 c -0.391 0 -0.706 0.315 -0.706 0.706 l 0 2.681 6.491 0 0 -2.681 c 0 -0.391 -0.315 -0.706 -0.706 -0.706 l -5.08 0 z" style="fill:#f57c00"/>
  <path d="m 4.092 4.233 c -0.391 0 -0.706 0.315 -0.706 0.706 l 0 0.282 c 0 -0.391 0.315 -0.706 0.706 -0.706 l 5.08 0 c 0.391 0 0.706 0.315 0.706 0.706 l 0 -0.282 c 0 -0.391 -0.315 -0.706 -0.706 -0.706 l -5.08 0 z" style="fill:#fff;opacity:0.2"/>
  <path d="m 4.123 5.362 1.178 0 c 1.62 -0.149 1.325 -1.693 2.356 -1.693 l 1.767 0 c 0.408 0 0.736 0.332 0.736 0.745 l 0 4.155 c 0 0.413 -0.328 0.745 -0.736 0.745 l -5.301 0 c -0.408 0 -0.736 -0.332 -0.736 -0.745 l 0 -2.368 c 0 -0.447 0.294 -0.839 0.736 -0.839 z" style="fill:#ffb300"/>
  <path d="m 5.922 6.329 c -0.008 0 -0.014 0.002 -0.018 0.009 -0.022 0.039 0.021 0.164 -0.012 0.229 -0.032 0.065 -0.032 0.082 -0.294 0.05 c -0.261 -0.032 -0.654 0.082 -0.795 0.223 -0.143 0.142 -0.387 0.501 -0.437 0.709 -0.048 0.207 -0.026 0.218 0.039 0.186 0.065 -0.033 0.12 -0.322 0.505 -0.512 0.387 -0.191 0.568 -0.039 0.568 -0.039 c 0 0 -0.333 -0.044 -0.577 0.158 -0.245 0.202 -0.398 0.359 -0.392 0.421 0.005 0.06 0.027 0.048 0.066 0 0.038 -0.05 0.266 -0.349 0.539 -0.448 0.273 -0.099 0.387 -0.092 0.49 -0.038 0.104 0.054 0.126 0.107 -0.021 0.145 -0.148 0.039 -0.208 0.022 -0.208 0.022 0 0 0.125 0.114 0.304 0.114 0.18 0 0.29 -0.011 0.29 -0.011 0 0 0.446 0.463 0.561 0.556 0.114 0.092 0.24 0.049 0.24 -0.006 0 -0.054 -0.055 -0.207 -0.055 -0.207 0 0 0.114 -0.257 -0.017 -0.545 c -0.131 -0.289 -0.49 -0.588 -0.49 -0.588 c 0 0 -0.038 -0.164 -0.119 -0.273 c -0.066 -0.088 -0.133 -0.155 -0.167 -0.156 m -1.856 1.321 c -0.016 0.0001 -0.032 0.005 -0.048 0.014 -0.125 0.071 -0.06 0.197 0.05 0.197 0.109 0 0.229 -0.044 0.229 -0.044 0 0 -0.117 -0.171 -0.231 -0.166 m 0.241 0.21 c 0 0 -0.244 0.037 -0.272 0.152 -0.027 0.114 0.103 0.147 0.184 0.087 0.082 -0.06 0.087 -0.24 0.087 -0.24 m 0 0" style="fill:#000;fill-opacity:0.098"/>
  <path d="m 5.922 6.02 c -0.008 0 -0.014 0.002 -0.018 0.009 -0.022 0.039 0.021 0.164 -0.012 0.229 -0.032 0.065 -0.032 0.082 -0.294 0.05 c -0.261 -0.032 -0.654 0.082 -0.795 0.223 -0.143 0.142 -0.387 0.501 -0.437 0.709 -0.048 0.207 -0.026 0.218 0.039 0.186 0.065 -0.033 0.12 -0.322 0.505 -0.512 0.387 -0.191 0.568 -0.039 0.568 -0.039 c 0 0 -0.333 -0.044 -0.577 0.158 -0.245 0.202 -0.398 0.359 -0.392 0.421 0.005 0.06 0.027 0.048 0.066 0 0.038 -0.05 0.266 -0.349 0.539 -0.448 0.273 -0.099 0.387 -0.092 0.49 -0.038 0.104 0.054 0.126 0.107 -0.021 0.145 -0.148 0.039 -0.208 0.022 -0.208 0.022 0 0 0.125 0.114 0.304 0.114 0.18 0 0.29 -0.011 0.29 -0.011 0 0 0.446 0.463 0.561 0.556 0.114 0.092 0.24 0.049 0.24 -0.006 0 -0.054 -0.055 -0.207 -0.055 -0.207 0 0 0.114 -0.257 -0.017 -0.545 c -0.131 -0.289 -0.49 -0.588 -0.49 -0.588 c 0 0 -0.038 -0.164 -0.119 -0.273 c -0.066 -0.088 -0.133 -0.155 -0.167 -0.156 m -1.856 1.321 c -0.016 0.0001 -0.032 0.005 -0.048 0.014 -0.125 0.071 -0.06 0.197 0.05 0.197 0.109 0 0.229 -0.044 0.229 -0.044 0 0 -0.117 -0.171 -0.231 -0.166 m 0.241 0.21 c 0 0 -0.244 0.037 -0.272 0.152 -0.027 0.114 0.103 0.147 0.184 0.087 0.082 -0.06 0.087 -0.24 0.087 -0.24 m 0 0" style="fill:#fff8e1;fill-opacity:1"/>
  <path d="m 3.387 8.326 0 0.282 c 0 0.391 0.328 0.706 0.736 0.706 l 5.301 0 c 0.408 0 0.736 -0.315 0.736 -0.706 l 0 -0.282 c 0 0.391 -0.328 0.706 -0.736 0.706 l -5.301 0 c -0.408 0 -0.736 -0.315 -0.736 -0.706 z" style="fill:#000;opacity:0.15"/>
 </g>
</svg>
