<svg width="48" height="48" version="1.1" viewBox="0 0 13.547 13.547" xmlns="http://www.w3.org/2000/svg">
 <defs>
  <linearGradient id="bg" x1="1" x2="47" gradientTransform="matrix(.28222 0 0 .28222 -13.547 .00062515)" gradientUnits="userSpaceOnUse">
   <stop style="stop-color:#6e6196" offset="0"/>
   <stop style="stop-color:#847baf" offset="1"/>
  </linearGradient>
 </defs>
 <path d="m0.28222 12.136v0.07056c0 0.6254 0.50348 1.1289 1.1289 1.1289h10.724c0.6254 0 1.1289-0.50348 1.1289-1.1289v-0.07056c0 0.6254-0.50348 1.1289-1.1289 1.1289h-10.724c-0.6254 0-1.1289-0.50348-1.1289-1.1289zm0 0.14111v0.14111c0 0.6254 0.50348 1.1289 1.1289 1.1289h10.724c0.6254 0 1.1289-0.50348 1.1289-1.1289v-0.14111c0 0.6254-0.50348 1.1289-1.1289 1.1289h-10.724c-0.6254 0-1.1289-0.50348-1.1289-1.1289z" style="opacity:.02"/>
 <path d="m0.28222 12.206v0.07056c0 0.6254 0.50348 1.1289 1.1289 1.1289h10.724c0.6254 0 1.1289-0.50348 1.1289-1.1289v-0.07056c0 0.6254-0.50348 1.1289-1.1289 1.1289h-10.724c-0.6254 0-1.1289-0.50348-1.1289-1.1289z" style="opacity:.05"/>
 <path d="m0.28222 12.136v0.07056c0 0.6254 0.50348 1.1289 1.1289 1.1289h10.724c0.6254 0 1.1289-0.50348 1.1289-1.1289v-0.07056c0 0.6254-0.50348 1.1289-1.1289 1.1289h-10.724c-0.6254 0-1.1289-0.50348-1.1289-1.1289z" style="opacity:.1"/>
 <rect transform="rotate(-90)" x="-13.264" y=".282" width="12.982" height="12.982" rx="1.129" style="fill:url(#bg)"/>
 <path d="m0.28222 11.006v1.1289c0 0.6254 0.50348 1.1289 1.1289 1.1289h10.724c0.6254 0 1.1289-0.50348 1.1289-1.1289v-1.1289c0 0.6254-0.50348 1.1289-1.1289 1.1289h-10.724c-0.6254 0-1.1289-0.50348-1.1289-1.1289z" style="opacity:.1"/>
 <rect x="3.951" y="4.798" width="3.104" height="1.129" style="fill:#fffdf0"/>
 <path d="m4.092 4.233c-0.391 0-0.706 0.315-0.706 0.706v2.681h6.491v-2.681c0-0.391-0.315-0.706-0.706-0.706h-5.08z" style="fill:#f57c00"/>
 <path d="m10.16 8.4667v0.38389c0 0.413-0.328 0.745-0.736 0.745h-5.301c-0.408 0-0.736-0.332-0.736-0.745l-3.333e-4 -0.38389z" style="opacity:.1"/>
 <path d="m4.092 4.233c-0.391 0-0.706 0.315-0.706 0.706v0.282c0-0.391 0.315-0.706 0.706-0.706h5.08c0.391 0 0.706 0.315 0.706 0.706v-0.282c0-0.391-0.315-0.706-0.706-0.706z" style="fill:#fff;opacity:.2"/>
 <path d="m4.123 5.362h1.178c1.62-0.149 1.325-1.693 2.356-1.693h1.767c0.408 0 0.736 0.332 0.736 0.745v4.155c0 0.413-0.328 0.745-0.736 0.745h-5.301c-0.408 0-0.736-0.332-0.736-0.745v-2.368c0-0.447 0.294-0.839 0.736-0.839z" style="fill:#ffb300"/>
 <path d="m3.387 8.326v0.282c0 0.391 0.328 0.706 0.736 0.706h5.301c0.408 0 0.736-0.315 0.736-0.706v-0.282c0 0.391-0.328 0.706-0.736 0.706h-5.301c-0.408 0-0.736-0.315-0.736-0.706z" style="opacity:.15"/>
</svg>
