<svg xmlns="http://www.w3.org/2000/svg" viewBox="0 0 48 48">
 <defs>
  <linearGradient id="linearGradient5286" gradientUnits="userSpaceOnUse" gradientTransform="translate(-48,0.002215)" x1="1" x2="47">
   <stop style="stop-color:#b94f33;stop-opacity:1"/>
   <stop offset="1" style="stop-color:#c85637;stop-opacity:1"/>
  </linearGradient>
 </defs>
 <g>
  <path d="m 1,43 0,0.25 c 0,2.216 1.784,4 4,4 l 38,0 c 2.216,0 4,-1.784 4,-4 L 47,43 c 0,2.216 -1.784,4 -4,4 L 5,47 C 2.784,47 1,45.216 1,43 z m 0,0.5 0,0.5 c 0,2.216 1.784,4 4,4 l 38,0 c 2.216,0 4,-1.784 4,-4 l 0,-0.5 c 0,2.216 -1.784,4 -4,4 l -38,0 c -2.216,0 -4,-1.784 -4,-4 z" style="opacity:0.02"/>
  <path d="m 1 43.25 0 0.25 c 0 2.216 1.784 4 4 4 l 38 0 c 2.216 0 4 -1.784 4 -4 l 0 -0.25 c 0 2.216 -1.784 4 -4 4 l -38 0 c -2.216 0 -4 -1.784 -4 -4 z" style="opacity:0.05"/>
  <path d="m 1,43 0,0.25 c 0,2.216 1.784,4 4,4 l 38,0 c 2.216,0 4,-1.784 4,-4 L 47,43 c 0,2.216 -1.784,4 -4,4 L 5,47 C 2.784,47 1,45.216 1,43 z" style="opacity:0.1"/>
 </g>
 <rect transform="matrix(0,-1,1,0,0,0)" rx="4" y="1" x="-47" height="46" width="46" style="fill:url(#linearGradient5286);fill-opacity:1"/>
 <g>
  <g transform="translate(0,-1004.3622)">
   <path d="m 1 1043.36 0 4 c 0 2.216 1.784 4 4 4 l 38 0 c 2.216 0 4 -1.784 4 -4 l 0 -4 c 0 2.216 -1.784 4 -4 4 l -38 0 c -2.216 0 -4 -1.784 -4 -4 z" style="opacity:0.1"/>
  </g>
 </g>
 <rect width="11" height="4" x="14" y="17" style="fill:#fffdf0"/>
 <path d="m 27.13 14 c -1.904 0 -2.522 1.501 -3.5 3 l -9.125 0 c -1.385 0 -2.5 1.115 -2.5 2.5 l 0 1 0 8.5 0 1.5 0 0.875 l 0 0.125 c 0.006 0.139 0.036 0.274 0.063 0.406 0.119 0.691 0.513 1.281 1.094 1.656 0.277 0.179 0.597 0.309 0.938 0.375 0.17 0.035 0.319 0.063 0.5 0.063 l 18.813 0 c 0.181 0 0.33 -0.027 0.5 -0.063 0.34 -0.066 0.66 -0.196 0.937 -0.375 0.581 -0.375 0.974 -0.965 1.094 -1.656 0.027 -0.132 0.056 -0.268 0.063 -0.406 l 0 -0.125 0 -0.875 0 -13.875 c 0 -1.462 -1.149 -2.625 -2.594 -2.625 l -6.281 0 z" style="fill:#000;fill-opacity:0.102"/>
 <path d="M 14.5,15 C 13.115,15 12,16.115 12,17.5 l 0,9.5 23,0 0,-9.5 C 35,16.115 33.885,15 32.5,15 l -18,0 z" style="fill:#f57c00"/>
 <path d="m 14.5 15 c -1.385 0 -2.5 1.115 -2.5 2.5 l 0 1 c 0 -1.385 1.115 -2.5 2.5 -2.5 l 18 0 c 1.385 0 2.5 1.115 2.5 2.5 l 0 -1 c 0 -1.385 -1.115 -2.5 -2.5 -2.5 l -18 0 z" style="fill:#fff;opacity:0.2"/>
 <path d="m 14.609 19 4.174 0 c 5.739 -0.528 4.696 -6 8.348 -6 l 6.261 0 c 1.445 0 2.609 1.177 2.609 2.639 l 0 14.722 c 0 1.462 -1.163 2.639 -2.609 2.639 l -18.783 0 c -1.445 0 -2.609 -1.177 -2.609 -2.639 l 0 -8.389 c 0 -1.583 1.043 -2.972 2.609 -2.972 z" style="fill:#ffb300"/>
 <path d="m 12 29.5 0 1 c 0 1.385 1.163 2.5 2.609 2.5 l 18.783 0 c 1.445 0 2.609 -1.115 2.609 -2.5 l 0 -1 c 0 1.385 -1.163 2.5 -2.609 2.5 l -18.783 0 c -1.445 0 -2.609 -1.115 -2.609 -2.5 z" style="fill:#000;opacity:0.15"/>
 <path d="m 16 23 0 1.094 c -0.583 0.137 -1 0.471 -1 0.906 c 0 0.435 0.417 0.769 1 0.906 l 0 4.094 l 1 0 0 -4.094 c 0.583 -0.137 1 -0.471 1 -0.906 0 -0.435 -0.417 -0.769 -1 -0.906 l 0 -1.094 -1 0 z m 3 0 0 4.094 c -0.583 0.137 -1 0.471 -1 0.906 c 0 0.435 0.417 0.769 1 0.906 l 0 1.094 l 1 0 0 -1.094 c 0.583 -0.137 1 -0.471 1 -0.906 0 -0.435 -0.417 -0.769 -1 -0.906 l 0 -4.094 -1 0 z m 3 0 0 1.094 c -0.583 0.137 -1 0.471 -1 0.906 c 0 0.435 0.417 0.769 1 0.906 l 0 4.094 l 1 0 0 -4.094 c 0.569 -0.142 1 -0.477 1 -0.906 0 -0.429 -0.431 -0.764 -1 -0.906 l 0 -1.094 -1 0 z" style="fill:#000;fill-opacity:0.098"/>
 <path d="m 16 22 0 1.094 c -0.583 0.137 -1 0.471 -1 0.906 c 0 0.435 0.417 0.769 1 0.906 l 0 4.094 l 1 0 0 -4.094 c 0.583 -0.137 1 -0.471 1 -0.906 0 -0.435 -0.417 -0.769 -1 -0.906 l 0 -1.094 -1 0 z m 3 0 0 4.094 c -0.583 0.137 -1 0.471 -1 0.906 c 0 0.435 0.417 0.769 1 0.906 l 0 1.094 l 1 0 0 -1.094 c 0.583 -0.137 1 -0.471 1 -0.906 0 -0.435 -0.417 -0.769 -1 -0.906 l 0 -4.094 -1 0 z m 3 0 0 1.094 c -0.583 0.137 -1 0.471 -1 0.906 c 0 0.435 0.417 0.769 1 0.906 l 0 4.094 l 1 0 0 -4.094 c 0.569 -0.142 1 -0.477 1 -0.906 0 -0.429 -0.431 -0.764 -1 -0.906 l 0 -1.094 -1 0 z" style="fill:#fff8e1;fill-rule:evenodd"/>
</svg>
