<?xml version="1.0" encoding="UTF-8" standalone="no"?>
<svg
   xmlns:dc="http://purl.org/dc/elements/1.1/"
   xmlns:cc="http://creativecommons.org/ns#"
   xmlns:rdf="http://www.w3.org/1999/02/22-rdf-syntax-ns#"
   xmlns:svg="http://www.w3.org/2000/svg"
   xmlns="http://www.w3.org/2000/svg"
   xmlns:xlink="http://www.w3.org/1999/xlink"
   xmlns:sodipodi="http://sodipodi.sourceforge.net/DTD/sodipodi-0.dtd"
   xmlns:inkscape="http://www.inkscape.org/namespaces/inkscape"
   viewBox="0 0 48 48"
   id="svg2"
   version="1.1"
   inkscape:version="0.91 r13725"
   sodipodi:docname="securefx.svg">
  <metadata
     id="metadata76">
    <rdf:RDF>
      <cc:Work
         rdf:about="">
        <dc:format>image/svg+xml</dc:format>
        <dc:type
           rdf:resource="http://purl.org/dc/dcmitype/StillImage" />
      </cc:Work>
    </rdf:RDF>
  </metadata>
  <sodipodi:namedview
     pagecolor="#ffffff"
     bordercolor="#666666"
     borderopacity="1"
     objecttolerance="10"
     gridtolerance="10"
     guidetolerance="10"
     inkscape:pageopacity="0"
     inkscape:pageshadow="2"
     inkscape:window-width="1260"
     inkscape:window-height="962"
     id="namedview74"
     showgrid="false"
     inkscape:zoom="9.8333334"
     inkscape:cx="16.188671"
     inkscape:cy="19.162768"
     inkscape:window-x="10"
     inkscape:window-y="52"
     inkscape:window-maximized="0"
     inkscape:current-layer="svg2">
    <inkscape:grid
       type="xygrid"
       id="grid4234" />
  </sodipodi:namedview>
  <defs
     id="defs4">
    <linearGradient
       inkscape:collect="always"
       id="linearGradient4174">
      <stop
         style="stop-color:#77a4ff;stop-opacity:1;"
         offset="0"
         id="stop4176" />
      <stop
         style="stop-color:#8bb1ff;stop-opacity:1"
         offset="1"
         id="stop4178" />
    </linearGradient>
    <linearGradient
       inkscape:collect="always"
       xlink:href="#linearGradient4174"
       id="linearGradient4344"
       x1="-47"
       y1="24"
       x2="-1"
       y2="24"
       gradientUnits="userSpaceOnUse" />
  </defs>
  <g
     id="g11">
    <path
       inkscape:connector-curvature="0"
       d="m 1,43 0,0.25 c 0,2.216 1.784,4 4,4 l 38,0 c 2.216,0 4,-1.784 4,-4 L 47,43 c 0,2.216 -1.784,4 -4,4 L 5,47 C 2.784,47 1,45.216 1,43 Z m 0,0.5 0,0.5 c 0,2.216 1.784,4 4,4 l 38,0 c 2.216,0 4,-1.784 4,-4 l 0,-0.5 c 0,2.216 -1.784,4 -4,4 l -38,0 c -2.216,0 -4,-1.784 -4,-4 z"
       style="opacity:0.02000002"
       id="path13" />
    <path
       inkscape:connector-curvature="0"
       d="m 1,43.25 0,0.25 c 0,2.216 1.784,4 4,4 l 38,0 c 2.216,0 4,-1.784 4,-4 l 0,-0.25 c 0,2.216 -1.784,4 -4,4 l -38,0 c -2.216,0 -4,-1.784 -4,-4 z"
       style="opacity:0.05"
       id="path15" />
    <path
       inkscape:connector-curvature="0"
       d="m 1,43 0,0.25 c 0,2.216 1.784,4 4,4 l 38,0 c 2.216,0 4,-1.784 4,-4 L 47,43 c 0,2.216 -1.784,4 -4,4 L 5,47 C 2.784,47 1,45.216 1,43 Z"
       style="opacity:0.1"
       id="path17" />
  </g>
  <rect
     transform="matrix(0,-1,1,0,0,0)"
     rx="4"
     y="1"
     x="-47"
     height="46"
     width="46"
     style="fill:url(#linearGradient4344);fill-opacity:1.0"
     id="rect19" />
  <g
     id="g21">
    <g
       transform="translate(0,-1004.3622)"
       id="g23">
      <path
         inkscape:connector-curvature="0"
         d="m 1,1043.36 0,4 c 0,2.216 1.784,4 4,4 l 38,0 c 2.216,0 4,-1.784 4,-4 l 0,-4 c 0,2.216 -1.784,4 -4,4 l -38,0 c -2.216,0 -4,-1.784 -4,-4 z"
         style="opacity:0.1"
         id="path25" />
    </g>
  </g>
  <rect
     width="11"
     height="4"
     x="13.999998"
     y="17"
     style="fill:#fffdf0;fill-opacity:1;stroke:none"
     id="rect67" />
  <path
     inkscape:connector-curvature="0"
     d="m 27.13,14 c -1.904,0 -2.522,1.501 -3.5,3 l -9.125,0 c -1.385,0 -2.5,1.115 -2.5,2.5 l 0,1 0,8.5 0,1.5 0,0.875 0,0.125 c 0.006,0.139 0.036,0.274 0.063,0.406 0.119,0.691 0.513,1.281 1.094,1.656 0.277,0.179 0.597,0.309 0.938,0.375 0.17,0.035 0.319,0.063 0.5,0.063 l 18.813,0 c 0.181,0 0.33,-0.027 0.5,-0.063 0.34,-0.066 0.66,-0.196 0.937,-0.375 0.581,-0.375 0.974,-0.965 1.094,-1.656 C 35.971,31.774 36,31.638 36.007,31.5 l 0,-0.125 0,-0.875 0,-13.875 C 36.007,15.163 34.858,14 33.413,14 l -6.281,0 z"
     style="fill:#000000;fill-opacity:0.10199998;stroke:none"
     id="path69" />
  <path
     inkscape:connector-curvature="0"
     d="M 14.5,15 C 13.115,15 12,16.115 12,17.5 l 0,9.5 23,0 0,-9.5 C 35,16.115 33.885,15 32.5,15 l -18,0 z"
     style="fill:#f57c00;fill-opacity:1;stroke:none"
     id="path71" />
  <path
     inkscape:connector-curvature="0"
     d="M 14.5,15 C 13.115,15 12,16.115 12,17.5 l 0,1 C 12,17.115 13.115,16 14.5,16 l 18,0 c 1.385,0 2.5,1.115 2.5,2.5 l 0,-1 C 35,16.115 33.885,15 32.5,15 l -18,0 z"
     style="opacity:0.2;fill:#ffffff;fill-opacity:1;stroke:none"
     id="path73" />
  <path
     inkscape:connector-curvature="0"
     d="m 14.609,19 4.174,0 c 5.739,-0.528 4.696,-6 8.348,-6 l 6.261,0 c 1.445,0 2.609,1.177 2.609,2.639 l 0,14.722 C 36.001,31.823 34.838,33 33.392,33 L 14.609,33 C 13.164,33 12,31.823 12,30.361 l 0,-8.389 C 12,20.389 13.043,19 14.609,19 Z"
     style="fill:#ffb300;fill-opacity:1;stroke:none"
     id="path75" />
  <path
     inkscape:connector-curvature="0"
     d="m 12,29.5 0,1 c 0,1.385 1.163,2.5 2.609,2.5 l 18.783,0 c 1.445,0 2.609,-1.115 2.609,-2.5 l 0,-1 c 0,1.385 -1.163,2.5 -2.609,2.5 L 14.609,32 C 13.164,32 12,30.885 12,29.5 Z"
     style="opacity:0.15;fill:#000000;fill-opacity:1;stroke:none"
     id="path77" />
  <g
     transform="translate(3.0003615,3)"
     style="opacity:0.1;fill:#000000"
     id="g56">
    <path
       d="m 28,18 a 5,5 0 0 0 -5,5 5,5 0 0 0 5,5 5,5 0 0 0 5,-5 5,5 0 0 0 -5,-5 z m 0,1 A 3.5,3.5 0 0 1 31.5,22.5 3.5,3.5 0 0 1 28,26 3.5,3.5 0 0 1 24.5,22.5 3.5,3.5 0 0 1 28,19"
       style="fill-opacity:1"
       id="path58"
       inkscape:connector-curvature="0" />
    <rect
       width="14"
       height="10"
       x="21"
       y="23"
       rx="1.1670001"
       style="fill-opacity:1"
       id="rect60" />
  </g>
  <g
     transform="translate(3,2)"
     id="g62">
    <path
       d="m 28,18 a 5,5 0 0 0 -5,5 5,5 0 0 0 5,5 5,5 0 0 0 5,-5 5,5 0 0 0 -5,-5 z m 0,1 A 3.5,3.5 0 0 1 31.5,22.5 3.5,3.5 0 0 1 28,26 3.5,3.5 0 0 1 24.5,22.5 3.5,3.5 0 0 1 28,19"
       style="fill:#b3b3b3;fill-opacity:1"
       id="path64"
       inkscape:connector-curvature="0" />
    <rect
       rx="1.1670001"
       y="23"
       x="21"
       height="10"
       width="14"
       style="fill:#b3b3b3;fill-opacity:1"
       id="rect66" />
    <circle
       r="4"
       cy="28"
       cx="28"
       style="fill:#808080;fill-opacity:1"
       id="circle68" />
    <rect
       y="28"
       x="27"
       height="3"
       width="2"
       style="fill:#333333;fill-opacity:1"
       id="rect70" />
    <circle
       r="2"
       cy="27"
       cx="28"
       style="fill:#333333;fill-opacity:1"
       id="circle72" />
  </g>
</svg>
