<svg version="1.1" viewBox="0 0 48 48" xmlns="http://www.w3.org/2000/svg" xmlns:xlink="http://www.w3.org/1999/xlink">
 <defs>
  <linearGradient id="linearGradient4344" x1="-47" x2="-1" gradientUnits="userSpaceOnUse">
   <stop style="stop-color:#77a4ff" offset="0"/>
   <stop style="stop-color:#8bb1ff" offset="1"/>
  </linearGradient>
 </defs>
 <path d="m1 43v0.25c0 2.216 1.784 4 4 4h38c2.216 0 4-1.784 4-4v-0.25c0 2.216-1.784 4-4 4h-38c-2.216 0-4-1.784-4-4zm0 0.5v0.5c0 2.216 1.784 4 4 4h38c2.216 0 4-1.784 4-4v-0.5c0 2.216-1.784 4-4 4h-38c-2.216 0-4-1.784-4-4z" style="opacity:.02"/>
 <path d="m1 43.25v0.25c0 2.216 1.784 4 4 4h38c2.216 0 4-1.784 4-4v-0.25c0 2.216-1.784 4-4 4h-38c-2.216 0-4-1.784-4-4z" style="opacity:.05"/>
 <path d="m1 43v0.25c0 2.216 1.784 4 4 4h38c2.216 0 4-1.784 4-4v-0.25c0 2.216-1.784 4-4 4h-38c-2.216 0-4-1.784-4-4z" style="opacity:.1"/>
 <rect transform="rotate(-90)" x="-47" y="1" width="46" height="46" rx="4" style="fill:url(#linearGradient4344)"/>
 <g transform="translate(0 -1004.4)">
  <path d="m1 1043.4v4c0 2.216 1.784 4 4 4h38c2.216 0 4-1.784 4-4v-4c0 2.216-1.784 4-4 4h-38c-2.216 0-4-1.784-4-4z" style="opacity:.1"/>
 </g>
 <rect x="14" y="17" width="11" height="4" style="fill:#fffdf0"/>
 <path d="m14.5 15c-1.385 0-2.5 1.115-2.5 2.5v9.5h23v-9.5c0-1.385-1.115-2.5-2.5-2.5h-18z" style="fill:#f57c00"/>
 <path d="m14.5 15c-1.385 0-2.5 1.115-2.5 2.5v1c0-1.385 1.115-2.5 2.5-2.5h18c1.385 0 2.5 1.115 2.5 2.5v-1c0-1.385-1.115-2.5-2.5-2.5h-18z" style="fill:#fff;opacity:.2"/>
 <path d="m12 30v1.3613c0 1.462 1.1644 2.6387 2.6094 2.6387h9.3906v0.83203c0 0.64652 0.52145 1.168 1.168 1.168h11.666c0.64652 0 1.166-0.52145 1.166-1.168v-1.832z" style="opacity:.1"/>
 <path d="m14.609 19h4.174c5.739-0.528 4.696-6 8.348-6h6.261c1.445 0 2.609 1.177 2.609 2.639v14.722c0 1.462-1.163 2.639-2.609 2.639h-18.783c-1.445 0-2.609-1.177-2.609-2.639v-8.389c0-1.583 1.043-2.972 2.609-2.972z" style="fill:#ffb300"/>
 <path d="m12 29.5v1c0 1.385 1.163 2.5 2.609 2.5h18.783c1.445 0 2.609-1.115 2.609-2.5v-1c0 1.385-1.163 2.5-2.609 2.5h-18.783c-1.445 0-2.609-1.115-2.609-2.5z" style="opacity:.15"/>
 <path d="m31 21a5 5 0 0 0-5 5 5 5 0 0 0 5 5 5 5 0 0 0 5-5 5 5 0 0 0-5-5zm0 1a3.5 3.5 0 0 1 3.5 3.5 3.5 3.5 0 0 1-3.5 3.5 3.5 3.5 0 0 1-3.5-3.5 3.5 3.5 0 0 1 3.5-3.5" style="opacity:.1"/>
 <path d="m31 20a5 5 0 0 0-5 5 5 5 0 0 0 5 5 5 5 0 0 0 5-5 5 5 0 0 0-5-5zm0 1a3.5 3.5 0 0 1 3.5 3.5 3.5 3.5 0 0 1-3.5 3.5 3.5 3.5 0 0 1-3.5-3.5 3.5 3.5 0 0 1 3.5-3.5" style="fill:#b3b3b3"/>
 <rect x="24" y="25" width="14" height="10" rx="1.167" style="fill:#b3b3b3"/>
 <circle cx="31" cy="30" r="4" style="fill:#808080"/>
 <rect x="30" y="30" width="2" height="3" style="fill:#333"/>
 <circle cx="31" cy="29" r="2" style="fill:#333"/>
</svg>
