<svg xmlns="http://www.w3.org/2000/svg" width="48" viewBox="0 0 13.546667 13.546667" height="48">
 <defs>
  <linearGradient id="linearGradient5286" gradientUnits="userSpaceOnUse" gradientTransform="matrix(0.28222223,0,0,0.28222223,-13.546667,6.2502911e-4)" x1="1" x2="47">
   <stop style="stop-color:#6e6196;stop-opacity:1"/>
   <stop offset="1" style="stop-color:#847baf;stop-opacity:1"/>
  </linearGradient>
 </defs>
 <g>
  <g transform="scale(0.28222223,0.28222223)">
   <path d="m 1,43 0,0.25 c 0,2.216 1.784,4 4,4 l 38,0 c 2.216,0 4,-1.784 4,-4 L 47,43 c 0,2.216 -1.784,4 -4,4 L 5,47 C 2.784,47 1,45.216 1,43 z m 0,0.5 0,0.5 c 0,2.216 1.784,4 4,4 l 38,0 c 2.216,0 4,-1.784 4,-4 l 0,-0.5 c 0,2.216 -1.784,4 -4,4 l -38,0 c -2.216,0 -4,-1.784 -4,-4 z" style="opacity:0.02"/>
   <path d="m 1 43.25 0 0.25 c 0 2.216 1.784 4 4 4 l 38 0 c 2.216 0 4 -1.784 4 -4 l 0 -0.25 c 0 2.216 -1.784 4 -4 4 l -38 0 c -2.216 0 -4 -1.784 -4 -4 z" style="opacity:0.05"/>
   <path d="m 1,43 0,0.25 c 0,2.216 1.784,4 4,4 l 38,0 c 2.216,0 4,-1.784 4,-4 L 47,43 c 0,2.216 -1.784,4 -4,4 L 5,47 C 2.784,47 1,45.216 1,43 z" style="opacity:0.1"/>
  </g>
  <rect transform="matrix(0,-1,1,0,0,0)" rx="1.129" y="0.282" x="-13.264" height="12.982" width="12.982" style="fill:url(#linearGradient5286);fill-opacity:1"/>
  <g transform="scale(0.28222223,0.28222223)">
   <g transform="translate(0,-1004.3622)">
    <path d="m 1 1043.36 0 4 c 0 2.216 1.784 4 4 4 l 38 0 c 2.216 0 4 -1.784 4 -4 l 0 -4 c 0 2.216 -1.784 4 -4 4 l -38 0 c -2.216 0 -4 -1.784 -4 -4 z" style="opacity:0.1"/>
   </g>
  </g>
  <rect width="3.104" height="1.129" x="3.951" y="4.798" style="fill:#fffdf0"/>
  <path d="m 7.655 3.951 c -0.537 0 -0.712 0.424 -0.988 0.847 l -2.575 0 c -0.391 0 -0.706 0.315 -0.706 0.706 l 0 0.282 0 2.399 0 0.423 0 0.247 0 0.035 c 0.002 0.039 0.001 0.077 0.018 0.115 0.034 0.195 0.145 0.362 0.309 0.467 0.078 0.051 0.169 0.087 0.265 0.106 0.048 0.001 0.09 0.018 0.141 0.018 l 5.309 0 c 0.051 0 0.093 -0.008 0.141 -0.018 0.096 -0.019 0.186 -0.055 0.265 -0.106 0.164 -0.106 0.275 -0.272 0.309 -0.467 0.008 -0.037 0.016 -0.076 0.018 -0.115 l 0 -0.035 0 -0.247 0 -3.916 c 0 -0.413 -0.324 -0.741 -0.732 -0.741 l -1.773 0 z" style="fill:#000;fill-opacity:0.102"/>
  <path d="m 4.092 4.233 c -0.391 0 -0.706 0.315 -0.706 0.706 l 0 2.681 6.491 0 0 -2.681 c 0 -0.391 -0.315 -0.706 -0.706 -0.706 l -5.08 0 z" style="fill:#f57c00"/>
  <path d="m 4.092 4.233 c -0.391 0 -0.706 0.315 -0.706 0.706 l 0 0.282 c 0 -0.391 0.315 -0.706 0.706 -0.706 l 5.08 0 c 0.391 0 0.706 0.315 0.706 0.706 l 0 -0.282 c 0 -0.391 -0.315 -0.706 -0.706 -0.706 l -5.08 0 z" style="fill:#fff;opacity:0.2"/>
  <path d="m 4.123 5.362 1.178 0 c 1.62 -0.149 1.325 -1.693 2.356 -1.693 l 1.767 0 c 0.408 0 0.736 0.332 0.736 0.745 l 0 4.155 c 0 0.413 -0.328 0.745 -0.736 0.745 l -5.301 0 c -0.408 0 -0.736 -0.332 -0.736 -0.745 l 0 -2.368 c 0 -0.447 0.294 -0.839 0.736 -0.839 z" style="fill:#ffb300"/>
  <path d="m 3.387 8.326 0 0.282 c 0 0.391 0.328 0.706 0.736 0.706 l 5.301 0 c 0.408 0 0.736 -0.315 0.736 -0.706 l 0 -0.282 c 0 0.391 -0.328 0.706 -0.736 0.706 l -5.301 0 c -0.408 0 -0.736 -0.315 -0.736 -0.706 z" style="fill:#000;opacity:0.15"/>
  <path d="m 4.469 6.461 c -0.11 0 -0.217 0.015 -0.319 0.04 0 -0.002 0 -0.003 0 -0.004 -0.114 0.028 -0.2 0.067 -0.216 0.074 0 0.003 0 0.005 0 0.007 -0.0001 0 -0.003 0.0001 -0.004 0.002 0.012 0.09 0.028 0.179 0.037 0.22 0.09 0.371 0.351 0.678 0.696 0.84 -0.002 0.025 -0.004 0.049 -0.004 0.075 0 0.343 0.142 0.653 0.37 0.88 -0.002 0.0001 0.002 0.002 0 0.003 0.066 0.06 0.155 0.13 0.174 0.144 0.005 0.003 0.013 0.005 0.015 0.008 0.076 -0.065 0.144 -0.136 0.161 -0.154 0.228 -0.227 0.37 -0.537 0.37 -0.88 0 -0.023 -0.004 -0.046 -0.005 -0.07 0.351 -0.158 0.615 -0.464 0.71 -0.836 -0.002 -0.0001 0.0001 -0.002 0 -0.003 0.023 -0.1 0.04 -0.208 0.04 -0.219 -0.002 -0.0001 -0.004 -0.002 -0.006 -0.003 0 -0.006 0 0.0001 0 -0.005 -0.049 -0.021 -0.159 -0.058 -0.217 -0.076 0 0.004 0 -0.002 0 0.003 -0.106 -0.028 -0.218 -0.045 -0.332 -0.045 -0.275 0 -0.529 0.086 -0.737 0.23 -0.08 0.059 -0.138 0.11 -0.174 0.144 -0.004 0.004 -0.007 0.009 -0.011 0.013 -0.12 0.122 -0.214 0.267 -0.276 0.428 0.068 0.039 0.134 0.072 0.195 0.099 0.05 -0.141 0.133 -0.269 0.237 -0.376 0.0001 -0.002 0.004 -0.006 0.007 -0.008 0.005 -0.006 0.001 -0.012 0.018 -0.019 0.002 -0.003 0.004 -0.003 0.007 -0.005 0.074 -0.063 0.133 -0.105 0.176 -0.132 0.022 -0.013 0.044 -0.026 0.067 -0.037 0.148 -0.076 0.314 -0.12 0.494 -0.12 0.107 0 0.211 0.015 0.309 0.045 -0.065 0.304 -0.265 0.557 -0.538 0.699 c -0.043 -0.176 -0.122 -0.339 -0.232 -0.477 -0.092 0.063 -0.17 0.126 -0.176 0.131 c 0.09 0.112 0.157 0.243 0.194 0.386 0 0 0.004 0.015 0.011 0.042 0.003 0.013 0.005 0.021 0.001 0.047 0.013 0.065 0.012 0.14 0.011 0.17 0 0.006 0 0.021 0 0.021 l -0.003 0.003 c -0.008 0.281 -0.13 0.533 -0.323 0.715 -0.2 -0.188 -0.325 -0.451 -0.326 -0.744 c 0.107 0.028 0.219 0.045 0.334 0.045 0.063 0 0.125 -0.006 0.185 -0.015 0.003 -0.021 0.005 -0.046 0.007 -0.082 0.003 -0.065 -0.006 -0.11 -0.013 -0.135 -0.058 0.001 -0.119 0.015 -0.179 0.015 -0.108 0 -0.212 -0.015 -0.311 -0.044 c -0.078 -0.015 -0.151 -0.053 -0.205 -0.085 -0.03 -0.018 -0.05 -0.031 -0.061 -0.037 -0.235 -0.148 -0.407 -0.381 -0.465 -0.658 c 0.094 -0.027 0.194 -0.042 0.297 -0.042 0.151 0 0.293 0.031 0.423 0.087 c 0.063 -0.058 0.14 -0.117 0.184 -0.15 -0.18 -0.096 -0.387 -0.152 -0.606 -0.152 m 0.002 0.0001" style="fill:#000;fill-opacity:0.098"/>
  <path d="m 4.469 6.149 c -0.11 0 -0.217 0.015 -0.319 0.04 0 -0.002 0 -0.003 0 -0.004 -0.114 0.028 -0.2 0.067 -0.216 0.074 0 0.003 0 0.005 0 0.007 -0.0001 0 -0.003 0.0001 -0.004 0.002 0.012 0.09 0.028 0.179 0.037 0.22 0.09 0.371 0.351 0.678 0.696 0.84 -0.002 0.025 -0.004 0.049 -0.004 0.075 0 0.343 0.142 0.653 0.37 0.88 -0.002 0.0001 0.002 0.002 0 0.003 0.066 0.06 0.155 0.13 0.174 0.144 0.005 0.003 0.013 0.005 0.015 0.008 c 0.076 -0.065 0.144 -0.136 0.161 -0.154 0.228 -0.227 0.37 -0.537 0.37 -0.88 c 0 -0.023 -0.004 -0.046 -0.005 -0.07 0.351 -0.158 0.615 -0.464 0.71 -0.836 -0.002 -0.0001 0.0001 -0.002 0 -0.003 0.023 -0.1 0.04 -0.208 0.04 -0.219 -0.002 -0.0001 -0.004 -0.002 -0.006 -0.003 0 -0.006 0 0.0001 0 -0.005 c -0.049 -0.021 -0.159 -0.058 -0.217 -0.076 c 0 0.004 0 -0.002 0 0.003 c -0.106 -0.028 -0.218 -0.045 -0.332 -0.045 c -0.275 0 -0.529 0.086 -0.737 0.23 -0.08 0.059 -0.138 0.11 -0.174 0.144 -0.004 0.004 -0.007 0.009 -0.011 0.013 -0.12 0.122 -0.214 0.267 -0.276 0.428 0.068 0.039 0.134 0.072 0.195 0.099 0.05 -0.141 0.133 -0.269 0.237 -0.376 0.0001 -0.002 0.004 -0.006 0.007 -0.008 0.005 -0.006 0.001 -0.012 0.018 -0.019 0.002 -0.003 0.004 -0.003 0.007 -0.005 0.074 -0.063 0.133 -0.105 0.176 -0.132 0.022 -0.013 0.044 -0.026 0.067 -0.037 0.148 -0.076 0.314 -0.12 0.494 -0.12 0.107 0 0.211 0.015 0.309 0.045 c -0.065 0.304 -0.265 0.557 -0.538 0.699 -0.043 -0.176 -0.122 -0.339 -0.232 -0.477 -0.092 0.063 -0.17 0.126 -0.176 0.131 c 0.09 0.112 0.157 0.243 0.194 0.386 0 0 0.004 0.015 0.011 0.042 0.003 0.013 0.005 0.021 0.001 0.047 0.013 0.065 0.012 0.14 0.011 0.17 0 0.006 0 0.021 0 0.021 l -0.003 0.003 c -0.008 0.281 -0.13 0.533 -0.323 0.715 -0.2 -0.188 -0.325 -0.451 -0.326 -0.744 c 0.107 0.028 0.219 0.045 0.334 0.045 0.063 0 0.125 -0.006 0.185 -0.015 0.003 -0.021 0.005 -0.046 0.007 -0.082 0.003 -0.065 -0.006 -0.11 -0.013 -0.135 -0.058 0.001 -0.119 0.015 -0.179 0.015 -0.108 0 -0.212 -0.015 -0.311 -0.044 c -0.078 -0.015 -0.151 -0.053 -0.205 -0.085 -0.03 -0.018 -0.05 -0.031 -0.061 -0.037 -0.235 -0.148 -0.407 -0.381 -0.465 -0.658 c 0.094 -0.027 0.194 -0.042 0.297 -0.042 0.151 0 0.293 0.031 0.423 0.087 c 0.063 -0.058 0.14 -0.117 0.184 -0.15 -0.18 -0.096 -0.387 -0.152 -0.606 -0.152 m 0.002 0.0001" style="fill:#fff8e1;fill-rule:nonzero"/>
 </g>
</svg>
