<svg xmlns="http://www.w3.org/2000/svg" viewBox="0 0 22 22">
 <path d="m 3 2 c -0.547 0 -1 0.41 -1 1 l 0 1 -1 0 c -0.502 0 -1 0.385 -1 1 0 4.594 0 9.406 0 14 0 0.546 0.493 1 1 1 l 20 0 c 0.516 0 1 -0.437 1 -1 l 0 -13 c 0 -0.577 -0.423 -1 -1 -1 l -2 0 0 -2 c 0 -0.487 -0.402 -1 -1 -1 z" style="visibility:visible;fill:#f57c00;fill-opacity:1;stroke:none;display:inline;color:#000;fill-rule:nonzero"/>
 <path d="m 3 2 c -0.544 0 -1 0.399 -1 1 l 0 1 -1 0 c -0.507 0 -1 0.396 -1 1 0 4.594 0 9.406 0 14 0 0.487 0.419 1 1 1 l 20 0 c 0.521 0 1 -0.443 1 -1 l 0 -13 c 0 -0.573 -0.394 -1 -1 -1 l -2 0 0 -2 c 0 -0.559 -0.457 -1 -1 -1 z m 10 3 0 1 8 0 0 13 -20 0 0 -14 z" style="visibility:visible;fill:#000;fill-opacity:0.322;stroke:none;display:inline;color:#000;fill-rule:nonzero"/>
 <path d="m 10.219 8 c -0.277 0 -0.5 0.222 -0.5 0.5 l 0 0.656 c -0.175 0.059 -0.367 0.107 -0.531 0.188 l -0.438 -0.438 c -0.196 -0.196 -0.523 -0.196 -0.719 0 l -1.125 1.125 c -0.196 0.196 -0.196 0.492 0 0.688 l 0.438 0.469 c -0.083 0.167 -0.128 0.353 -0.188 0.531 l -0.656 0 c -0.277 0 -0.5 0.192 -0.5 0.469 l 0 1.625 c 0 0.277 0.223 0.469 0.5 0.469 l 0.656 0 c 0.06 0.179 0.104 0.365 0.188 0.531 l -0.438 0.469 c -0.196 0.196 -0.196 0.491 0 0.688 l 1.125 1.125 c 0.196 0.196 0.523 0.196 0.719 0 l 0.438 -0.438 c 0.164 0.082 0.356 0.129 0.531 0.188 l 0 0.656 c 0 0.277 0.223 0.5 0.5 0.5 l 1.594 0 c 0.277 0 0.469 -0.223 0.469 -0.5 l 0 -0.656 c 0.179 -0.06 0.365 -0.105 0.531 -0.188 l 0.469 0.438 c 0.196 0.196 0.491 0.196 0.688 0 l 1.125 -1.125 c 0.196 -0.196 0.196 -0.492 0 -0.688 l -0.438 -0.469 c 0.081 -0.164 0.129 -0.356 0.188 -0.531 l 0.656 0 c 0.277 0 0.5 -0.192 0.5 -0.469 l 0 -1.625 c 0 -0.277 -0.223 -0.469 -0.5 -0.469 l -0.656 0 c -0.059 -0.175 -0.106 -0.367 -0.188 -0.531 l 0.438 -0.469 c 0.196 -0.196 0.196 -0.491 0 -0.688 l -1.125 -1.125 c -0.196 -0.196 -0.491 -0.196 -0.688 0 l -0.469 0.438 c -0.167 -0.083 -0.353 -0.127 -0.531 -0.188 l 0 -0.656 c 0 -0.277 -0.191 -0.5 -0.469 -0.5 l -1.594 0 z m 0.781 3 c 1.105 0 2 0.895 2 2 0 1.105 -0.895 2 -2 2 -1.105 0 -2 -0.895 -2 -2 0 -1.105 0.895 -2 2 -2 z" style="fill:#000;opacity:1;fill-opacity:0.322;display:block;color:#000"/>
</svg>
