<svg xmlns="http://www.w3.org/2000/svg" viewBox="0 0 22 22">
 <g transform="translate(0,-1030.3622)">
  <path d="m 3 1032.36 c -0.547 0 -1 0.41 -1 1 l 0 1 -1 0 c -0.502 0 -1 0.385 -1 1 0 4.594 0 9.406 0 14 0 0.546 0.493 1 1 1 l 20 0 c 0.516 0 1 -0.437 1 -1 l 0 -13 c 0 -0.577 -0.423 -1 -1 -1 l -2 0 0 -2 c 0 -0.487 -0.402 -1 -1 -1 z" style="visibility:visible;fill:#f57c00;fill-opacity:1;stroke:none;display:inline;color:#000;fill-rule:nonzero"/>
  <path d="m 3 1032.36 c -0.544 0 -1 0.399 -1 1 l 0 1 -1 0 c -0.507 0 -1 0.397 -1 1 0 4.594 0 9.406 0 14 0 0.487 0.419 1 1 1 l 20 0 c 0.521 0 1 -0.443 1 -1 l 0 -13 c 0 -0.573 -0.394 -1 -1 -1 l -2 0 0 -2 c 0 -0.559 -0.457 -1 -1 -1 z m 10 3 0 1 8 0 0 13 -20 0 0 -14 z" style="visibility:visible;fill:#000;fill-opacity:0.322;stroke:none;display:inline;color:#000;fill-rule:nonzero"/>
  <path d="M 9.5 9 A 3 2.8 0 0 0 6.719 11.813 A 3 2.8 0 0 0 7 13 L 6.719 13 L 6.719 13.03 A 2.143 2 0 0 0 5 15 A 2.143 2 0 0 0 6.719 16.969 L 6.719 17 L 6.938 17 L 7.281 17 L 15.281 17 L 15.281 16.969 A 2.143 2 0 0 0 17 15 A 2.143 2 0 0 0 15.281 13.03 L 15.281 13 L 14.844 13 A 2.143 2 0 0 0 15.281 11.813 A 2.143 2 0 0 0 13.156 9.813 A 2.143 2 0 0 0 12.06 10.06 A 3 2.8 0 0 0 9.719 9 A 3 2.8 0 0 0 9.5 9 z" transform="translate(0,1030.3622)" style="fill:#000;fill-opacity:0.322;stroke:none"/>
 </g>
</svg>
