<?xml version="1.0" encoding="UTF-8" standalone="no"?>
<svg
   xmlns:dc="http://purl.org/dc/elements/1.1/"
   xmlns:cc="http://creativecommons.org/ns#"
   xmlns:rdf="http://www.w3.org/1999/02/22-rdf-syntax-ns#"
   xmlns:svg="http://www.w3.org/2000/svg"
   xmlns="http://www.w3.org/2000/svg"
   xmlns:sodipodi="http://sodipodi.sourceforge.net/DTD/sodipodi-0.dtd"
   xmlns:inkscape="http://www.inkscape.org/namespaces/inkscape"
   width="22"
   height="22"
   viewBox="0 0 22 22"
   id="svg2"
   version="1.1"
   inkscape:version="0.91 r"
   sodipodi:docname="purple-folder-move.svg">
  <metadata
     id="metadata20">
    <rdf:RDF>
      <cc:Work
         rdf:about="">
        <dc:format>image/svg+xml</dc:format>
        <dc:type
           rdf:resource="http://purl.org/dc/dcmitype/StillImage" />
      </cc:Work>
    </rdf:RDF>
  </metadata>
  <defs
     id="defs18" />
  <sodipodi:namedview
     pagecolor="#ffffff"
     bordercolor="#666666"
     borderopacity="1"
     objecttolerance="10"
     gridtolerance="10"
     guidetolerance="10"
     inkscape:pageopacity="0"
     inkscape:pageshadow="2"
     inkscape:window-width="1280"
     inkscape:window-height="969"
     id="namedview16"
     showgrid="true"
     inkscape:zoom="8"
     inkscape:cx="8.8647984"
     inkscape:cy="-7.717754"
     inkscape:window-x="0"
     inkscape:window-y="0"
     inkscape:window-maximized="1"
     inkscape:current-layer="svg2">
    <inkscape:grid
       type="xygrid"
       id="grid2997" />
  </sodipodi:namedview>
  <path
     style="font-size:medium;font-style:normal;font-variant:normal;font-weight:normal;font-stretch:normal;text-indent:0;text-align:start;text-decoration:none;line-height:normal;letter-spacing:normal;word-spacing:normal;text-transform:none;direction:ltr;block-progression:tb;writing-mode:lr-tb;text-anchor:start;baseline-shift:baseline;color:#000000;fill:#7e57c2;fill-opacity:1;fill-rule:nonzero;stroke:none;stroke-width:1.03313816000000003;marker:none;visibility:visible;display:inline;overflow:visible;enable-background:accumulate;font-family:Sans;-inkscape-font-specification:Sans;opacity:0.5"
     d="M 3,3 C 2.452669,3 2,3.4096882 2,4 L 2,4 1,4 C 0.498073,4 0,4.384749 0,5 c -1.5e-5,4.593749 0,3.40625 0,8 0,0.545771 0.493417,1 1,1 l 11,0 c 0.515688,0 1,-0.437034 1,-1 L 13,6 C 13,5.422979 12.576701,4.985038 12,5 L 10,5 10,4 C 10,3.5125745 9.598176,3 9,3 z"
     id="path2995-2"
     inkscape:connector-curvature="0"
     sodipodi:nodetypes="ccccccssssscssc" />
  <path
     style="font-size:medium;font-style:normal;font-variant:normal;font-weight:normal;font-stretch:normal;text-indent:0;text-align:start;text-decoration:none;line-height:normal;letter-spacing:normal;word-spacing:normal;text-transform:none;direction:ltr;block-progression:tb;writing-mode:lr-tb;text-anchor:start;baseline-shift:baseline;color:#000000;fill:#000000;fill-opacity:0.32156863000000002;fill-rule:nonzero;stroke:none;stroke-width:1.03313816000000003;marker:none;visibility:visible;display:inline;overflow:visible;enable-background:accumulate;font-family:Sans;-inkscape-font-specification:Sans;opacity:0.5"
     d="M 3,3 C 2.455546,3 2,4 2,4 L 2,4 1,4 C 0.493241,4 0,4.396468 0,5 c -2.6e-5,4.593749 0,3.40625 0,8 0,0.487177 0.419199,1 1,1 l 11,0 c 0.521212,0 1,-0.442558 1,-1 L 13,6 C 13,5.426885 12.606096,5 12,5 L 10,5 10,4 C 10,3.4414881 9.542567,3 9,3 z m 5,2 0,1 4,0 0,7 -11,0 0,-8 z"
     id="path3786-0"
     inkscape:connector-curvature="0"
     sodipodi:nodetypes="ssccccssssscsssccccccc" />
  <path
     inkscape:connector-curvature="0"
     id="path12"
     d="M 10.840569,18.5 C 10.657185,18.48199 10.5,18.305493 10.5,18.11819 l 0,-7.232778 C 10.5,10.683701 10.679641,10.5 10.877994,10.5 l 9.247755,0 C 20.320359,10.5 20.5,10.683701 20.5,10.885412 l 0,6.559208 c 0,0.20171 -0.179641,0.381809 -0.374251,0.381809 l -3.611527,0 0,0.291761 c 0,0.198108 -0.179642,0.38181 -0.374252,0.38181 l -5.261976,0 c -0.01497,0 -0.0262,0 -0.03742,0 z"
     style="fill:#a57953;stroke:#a57953" />
  <path
     inkscape:connector-curvature="0"
     id="path14"
     d="m 9.905047,11.5 c -0.219558,0.02171 -0.4050472,0.195386 -0.4050472,0.383536 l 0,7.236546 C 9.4999998,19.319087 9.711987,19.5 9.950473,19.5 l 11.099054,0 C 21.284228,19.5 21.5,19.319087 21.5,19.120082 l 0,-6.563547 c 0,-0.202623 -0.215772,-0.383536 -0.450473,-0.383536 l -4.334385,0 0,-0.289463 c 0,-0.199004 -0.215773,-0.379918 -0.450473,-0.383536 l -6.314196,0 c -0.01514,0 -0.03028,0 -0.04543,0 z"
     style="fill:#7e57c2;stroke:#a57953" />
  <path
     style="font-size:medium;font-style:normal;font-variant:normal;font-weight:normal;font-stretch:normal;text-indent:0;text-align:start;text-decoration:none;line-height:normal;letter-spacing:normal;word-spacing:normal;text-transform:none;direction:ltr;block-progression:tb;writing-mode:lr-tb;text-anchor:start;baseline-shift:baseline;color:#000000;fill:#7e57c2;fill-opacity:1;fill-rule:nonzero;stroke:none;stroke-width:1.03313816;marker:none;visibility:visible;display:inline;overflow:visible;enable-background:accumulate;font-family:Sans;-inkscape-font-specification:Sans"
     d="m 12,9 c -0.547331,0 -1,0.4096882 -1,1 l 0,0 -1,0 c -0.501927,0 -1,0.384749 -1,1 -1.5e-5,4.593749 0,3.40625 0,8 0,0.545771 0.493417,1 1,1 l 11,0 c 0.515688,0 1,-0.437034 1,-1 l 0,-7 c 0,-0.577021 -0.423299,-1.014962 -1,-1 l -2,0 0,-1 C 19,9.5125745 18.598176,9 18,9 z"
     id="path2995"
     inkscape:connector-curvature="0"
     sodipodi:nodetypes="ccccccssssscssc" />
  <path
     style="font-size:medium;font-style:normal;font-variant:normal;font-weight:normal;font-stretch:normal;text-indent:0;text-align:start;text-decoration:none;line-height:normal;letter-spacing:normal;word-spacing:normal;text-transform:none;direction:ltr;block-progression:tb;writing-mode:lr-tb;text-anchor:start;baseline-shift:baseline;color:#000000;fill:#000000;fill-opacity:0.32156863;fill-rule:nonzero;stroke:none;stroke-width:1.03313816;marker:none;visibility:visible;display:inline;overflow:visible;enable-background:accumulate;font-family:Sans;-inkscape-font-specification:Sans"
     d="m 12,9 c -0.544454,0 -1,1 -1,1 l 0,0 -1,0 c -0.506759,0 -1,0.396468 -1,1 -2.6e-5,4.593749 0,3.40625 0,8 0,0.487177 0.419199,1 1,1 l 11,0 c 0.521212,0 1,-0.442558 1,-1 l 0,-7 c 0,-0.573115 -0.393904,-1 -1,-1 l -2,0 0,-1 C 19,9.4414881 18.542567,9 18,9 z m 5,2 0,1 4,0 0,7 -11,0 0,-8 z"
     id="path3786"
     inkscape:connector-curvature="0"
     sodipodi:nodetypes="ssccccssssscsssccccccc" />
</svg>
