<svg xmlns="http://www.w3.org/2000/svg" viewBox="0 0 22 22">
 <path d="m 3 2 c -0.547 0 -1 0.41 -1 1 l 0 1 -1 0 c -0.502 0 -1 0.385 -1 1 c 0 4.594 0 9.406 0 14 0 0.546 0.493 1 1 1 l 20 0 c 0.516 0 1 -0.437 1 -1 l 0 -13 c 0 -0.577 -0.423 -1 -1 -1 l -2 0 0 -2 c 0 -0.487 -0.402 -1 -1 -1 z" style="visibility:visible;fill:#ffca28;fill-opacity:1;stroke:none;display:inline;color:#000;fill-rule:nonzero"/>
 <path d="m 3 2 c -0.544 0 -1 0.399 -1 1 l 0 1 -1 0 c -0.507 0 -1 0.396 -1 1 c 0 4.594 0 9.406 0 14 0 0.487 0.419 1 1 1 l 20 0 c 0.521 0 1 -0.443 1 -1 l 0 -13 c 0 -0.573 -0.394 -1 -1 -1 l -2 0 0 -2 c 0 -0.559 -0.457 -1 -1 -1 z m 10 3 0 1 8 0 0 13 -20 0 0 -14 z" style="visibility:visible;fill:#000;fill-opacity:0.322;stroke:none;display:inline;color:#000;fill-rule:nonzero"/>
 <path d="m 10.5 8 c -0.276 0 -0.5 0.224 -0.5 0.5 c 0 0.276 0.224 0.5 0.5 0.5 c 0.276 0 0.5 -0.224 0.5 -0.5 c 0 -0.276 -0.224 -0.5 -0.5 -0.5 z m 4.375 0 c -0.444 0.01 -0.868 0.286 -0.938 0.781 c -0.112 0.792 0.704 0.469 1.375 0.469 c 0.671 0 0.918 1.307 0.75 2 c -0.168 0.693 -1.966 2.325 -6 0.688 c -3.321 -1.348 -4.979 0.433 -5.063 0.469 c 0.314 2.678 2.891 5.594 6 5.594 c 3.321 0 6 -3.186 6 -6.125 c 0 -0.338 -0.057 -0.68 -0.125 -1 c -0.062 -0.162 -0.111 -0.322 -0.156 -0.469 c -0.081 -0.264 -0.171 -0.481 -0.25 -0.688 c -0.003 -0.01 0.003 -0.025 0 -0.031 c -0.318 -0.625 -0.762 -1.187 -1.313 -1.656 c -0.002 -0.01 -0.029 0.01 -0.031 0 c -0.086 -0.019 -0.161 -0.033 -0.25 -0.031 z m -1.875 2 c -0.552 0 -1 0.448 -1 1 c 0 0.552 0.448 1 1 1 c 0.552 0 1 -0.448 1 -1 c 0 -0.552 -0.448 -1 -1 -1 z" style="fill:#000;opacity:1;fill-opacity:0.322;color:#000"/>
</svg>
