<svg xmlns="http://www.w3.org/2000/svg" viewBox="0 0 16 16">
 <g transform="translate(0,-1036.3622)">
  <path d="m 4 1036.36 c -1.108 0 -2 0.892 -2 2 l 0 12 c 0 1.108 0.892 2 2 2 l 8 0 c 1.108 0 2 -0.892 2 -2 l 0 -9 -5 -5 z m 0 2 6 0 1 1 1 1 0 10 -8 0 z" style="fill:#e9b080;fill-opacity:1;stroke:none"/>
  <path d="m 9 1036.36 0 5 5 0 z" style="fill:#e9b080;fill-opacity:1;stroke:none"/>
  <rect width="4" height="1" x="5" y="1043.36" rx="0.25" style="fill:#e9b080;fill-opacity:1;stroke:none"/>
  <rect rx="0.25" y="1045.36" x="5" height="1" width="6" style="fill:#e9b080;fill-opacity:1;stroke:none"/>
  <rect width="6" height="1" x="5" y="1047.36" rx="0.25" style="fill:#e9b080;fill-opacity:1;stroke:none"/>
 </g>
</svg>
