<svg xmlns="http://www.w3.org/2000/svg" width="16" height="16.25" viewBox="0 0 12.8 13">
 <path d="m 1.6 1 c -0.398 0 -0.8 0.376 -0.8 0.8 l 0 0 c -0.372 0 -0.801 0.334 -0.8 0.8 l 0 4 c 0 0.482 0.386 0.8 0.8 0.8 l 6.4 0 c 0.43 0 0.801 -0.318 0.8 -0.8 l 0 -3.2 c -0.001 -0.482 -0.379 -0.8 -0.8 -0.8 l -0.8 0 0 -0.8 c 0 -0.446 -0.382 -0.8 -0.8 -0.8 z" style="visibility:visible;fill:#ffca28;opacity:0.5;fill-opacity:1;stroke:none;display:inline;color:#000;fill-rule:nonzero"/>
 <path d="m 1.6 1 c -0.398 0 -0.8 0.37 -0.8 0.8 l 0 0 c -0.372 0 -0.801 0.334 -0.8 0.8 l 0 4 c 0 0.482 0.376 0.8 0.8 0.8 l 6.4 0 c 0.433 0 0.801 -0.318 0.8 -0.8 l 0 -3.2 c -0.001 -0.482 -0.38 -0.77 -0.8 -0.8 l -0.8 0 0 -0.8 c 0 -0.446 -0.382 -0.8 -0.8 -0.8 z m -0.8 1.6 4 0 0 0.8 2.4 0 l 0 3.2 -6.4 0 z" style="visibility:visible;fill:#000;opacity:0.5;fill-opacity:0.32;stroke:none;display:inline;color:#000;fill-rule:nonzero"/>
 <path d="m 6.4 5.8 c -0.398 0 -0.8 0.376 -0.8 0.8 l 0 0 c -0.372 0 -0.801 0.334 -0.8 0.8 l 0 4 c 0 0.482 0.386 0.8 0.8 0.8 l 6.4 0 c 0.43 0 0.801 -0.318 0.8 -0.8 l 0 -3.2 c -0.001 -0.482 -0.379 -0.8 -0.8 -0.8 l -0.8 0 0 -0.8 c 0 -0.446 -0.382 -0.8 -0.8 -0.8 z" style="visibility:visible;fill:#ffca28;fill-opacity:1;stroke:none;display:inline;color:#000;fill-rule:nonzero"/>
 <path d="m 6.4 5.8 c -0.398 0 -0.8 0.37 -0.8 0.8 l 0 0 c -0.372 0 -0.801 0.334 -0.8 0.8 l 0 4 c 0 0.482 0.376 0.8 0.8 0.8 l 6.4 0 c 0.433 0 0.801 -0.318 0.8 -0.8 l 0 -3.2 c -0.001 -0.482 -0.38 -0.77 -0.8 -0.8 l -0.8 0 0 -0.8 c 0 -0.446 -0.382 -0.8 -0.8 -0.8 z m -0.8 1.6 4 0 0 0.8 2.4 0 0 3.2 -6.4 0 z" style="visibility:visible;fill:#000;fill-opacity:0.32;stroke:none;display:inline;color:#000;fill-rule:nonzero"/>
</svg>
