<!-- Created with Inkscape (http://www.inkscape.org/) -->
<svg xmlns="http://www.w3.org/2000/svg" viewBox="0 0 64 64">
 <g transform="translate(0,-988.3622)">
  <g transform="matrix(2,0,0,2,0,-1052.3621)" style="opacity:0.5">
   <rect ry="2.187" rx="1.957" y="1026.36" x="2" height="12" width="18" style="fill:#757575;fill-opacity:1;stroke:none"/>
   <path d="m 3.957 1026.36 c -1.084 0 -1.957 1.115 -1.957 2.5 l 0 1 c 0 -1.385 0.873 -2.5 1.957 -2.5 l 14.09 0 c 1.084 0 1.957 1.115 1.957 2.5 l 0 -1 c 0 -1.385 -0.873 -2.5 -1.957 -2.5 z" style="fill:#fff;opacity:0.2;fill-opacity:1;stroke:none"/>
   <path d="m 3.957 1029.36 3.13 0 c 4.304 -0.444 3.522 -5 6.261 -5 l 4.696 0 c 1.084 0 1.957 0.991 1.957 2.222 l 0 9.556 c 0 1.231 -0.873 2.222 -1.957 2.222 l -14.09 0 c -1.084 0 -1.957 -0.991 -1.957 -2.222 l 0 -4.222 c 0 -1.333 0.783 -2.556 1.957 -2.556 z" style="fill:#bdbdbd;fill-opacity:1;stroke:none"/>
   <path d="m 2 1035.25 0 0.889 c 0 1.231 0.873 2.222 1.957 2.222 l 14.09 0 c 1.084 0 1.957 -0.991 1.957 -2.222 l 0 -0.889 c 0 1.231 -0.873 2.111 -1.957 2.111 l -14.09 0 c -1.084 0 -1.957 -0.88 -1.957 -2.111 z" style="fill:#000;opacity:0.15;fill-opacity:1;stroke:none"/>
  </g>
  <rect width="36" height="24" x="24" y="1020.36" rx="3.913" ry="4.375" style="fill:#757575;fill-opacity:1;stroke:none"/>
  <path d="m 27.913 1020.36 c -2.168 0 -3.913 2.23 -3.913 5 l 0 2 c 0 -2.77 1.745 -5 3.913 -5 l 28.17 0 c 2.168 0 3.913 2.23 3.913 5 l 0 -2 c 0 -2.77 -1.745 -5 -3.913 -5 z" style="fill:#fff;opacity:0.2;fill-opacity:1;stroke:none"/>
  <path d="m 27.913 1026.36 6.261 0 c 8.609 -0.889 7.04 -10 12.522 -10 l 9.391 0 c 2.168 0 3.913 1.982 3.913 4.444 l 0 19.11 c 0 2.462 -1.745 4.444 -3.913 4.444 l -28.17 0 c -2.168 0 -3.913 -1.982 -3.913 -4.444 l 0 -8.444 c 0 -2.667 1.565 -5.111 3.913 -5.111 z" style="fill:#bdbdbd;fill-opacity:1;stroke:none"/>
  <path d="m 24 1038.14 0 1.778 c 0 2.462 1.745 4.444 3.913 4.444 l 28.17 0 c 2.168 0 3.913 -1.982 3.913 -4.444 l 0 -1.778 c 0 2.462 -1.745 4.222 -3.913 4.222 l -28.17 0 c -2.168 0 -3.913 -1.76 -3.913 -4.222 z" style="fill:#000;opacity:0.15;fill-opacity:1;stroke:none"/>
 </g>
</svg>
