<?xml version="1.0" encoding="UTF-8" standalone="no"?>
<!-- Created with Inkscape (http://www.inkscape.org/) -->

<svg
   xmlns:dc="http://purl.org/dc/elements/1.1/"
   xmlns:cc="http://creativecommons.org/ns#"
   xmlns:rdf="http://www.w3.org/1999/02/22-rdf-syntax-ns#"
   xmlns:svg="http://www.w3.org/2000/svg"
   xmlns="http://www.w3.org/2000/svg"
   xmlns:sodipodi="http://sodipodi.sourceforge.net/DTD/sodipodi-0.dtd"
   xmlns:inkscape="http://www.inkscape.org/namespaces/inkscape"
   width="22"
   height="22"
   id="svg2"
   version="1.1"
   inkscape:version="0.91 r"
   sodipodi:docname="blue-document-open-recent.svg"
   inkscape:export-filename="/media/Data/Main/Visuals/Icons/Numix/Desktop/repos/numix-wiki/Gjorgi/Numix-folders/48/New/folder-144.png"
   inkscape:export-xdpi="270"
   inkscape:export-ydpi="270">
  <defs
     id="defs4" />
  <sodipodi:namedview
     id="base"
     pagecolor="#ffffff"
     bordercolor="#666666"
     borderopacity="1.0"
     inkscape:pageopacity="0.0"
     inkscape:pageshadow="2"
     inkscape:zoom="15.771373"
     inkscape:cx="-0.78204484"
     inkscape:cy="25.704796"
     inkscape:document-units="px"
     inkscape:current-layer="layer1"
     showgrid="true"
     inkscape:window-width="1366"
     inkscape:window-height="747"
     inkscape:window-x="0"
     inkscape:window-y="21"
     inkscape:window-maximized="1"
     showguides="true"
     inkscape:guide-bbox="true">
    <inkscape:grid
       type="xygrid"
       id="grid2985"
       empspacing="5"
       visible="true"
       enabled="true"
       snapvisiblegridlinesonly="true" />
  </sodipodi:namedview>
  <metadata
     id="metadata7">
    <rdf:RDF>
      <cc:Work
         rdf:about="">
        <dc:format>image/svg+xml</dc:format>
        <dc:type
           rdf:resource="http://purl.org/dc/dcmitype/StillImage" />
        <dc:title></dc:title>
      </cc:Work>
    </rdf:RDF>
  </metadata>
  <g
     inkscape:label="Layer 1"
     inkscape:groupmode="layer"
     id="layer1"
     transform="translate(0,-1030.3622)">
    <path
       style="fill:#e3e1cf;fill-opacity:1;stroke:none"
       d="m 4,1030.3622 c -1,0 -2,1 -2,2 l 0,8 c 0,1.108 0.446,2 1,2 l 16,0 c 0.554,0 1,-0.892 1,-2 l 0,-7 -3,-3 -13,0 z"
       id="path2998"
       inkscape:connector-curvature="0" />
    <rect
       style="fill:#ff0000;fill-opacity:1;stroke:none"
       id="rect2990"
       width="22"
       height="15"
       x="0"
       y="1037.3622"
       rx="2"
       ry="2" />
    <path
       style="opacity:0.1;fill:#ffffff;fill-opacity:1;stroke:none"
       d="m 2,1037.3622 c -1.108,0 -2,0.892 -2,2 l 0,1 c 0,-1.108 0.892,-2 2,-2 l 18,0 c 1.108,0 2,0.892 2,2 l 0,-1 c 0,-1.108 -0.892,-2 -2,-2 l -18,0 z"
       id="rect2991"
       inkscape:connector-curvature="0" />
    <path
       style="fill:#ffffff;fill-opacity:1;stroke:none"
       d="m 17,1030.3622 0,3 3,0 z"
       id="path3805"
       inkscape:connector-curvature="0" />
    <path
       inkscape:connector-curvature="0"
       id="path3810"
       d="m 20,1036.3622 0,-3 -3,0 z"
       style="opacity:0.2;fill:#000000;fill-opacity:1;stroke:none" />
    <rect
       ry="0.5"
       rx="0.5"
       y="1032.3622"
       x="5"
       height="1.0000174"
       width="9"
       id="rect3927"
       style="fill:#a1a195;fill-opacity:1;stroke:none" />
    <rect
       style="fill:#a1a195;fill-opacity:1;stroke:none"
       id="rect3819"
       width="11"
       height="1.0000174"
       x="5"
       y="1034.3622"
       rx="0.5"
       ry="0.5" />
    <g
       transform="matrix(1.0243802,0,0,1.0144486,-1.2925624,1028.9451)"
       id="g10">
      <path
         inkscape:connector-curvature="0"
         style="fill:#859900;fill-rule:evenodd"
         d="m 20.95,13.17 a 4.881,4.831 0 1 1 -9.76,0 4.881,4.831 0 1 1 9.76,0 z"
         transform="translate(0.811,3.999)"
         id="path12" />
      <path
         inkscape:connector-curvature="0"
         style="color:#000000;line-height:normal;fill:#ffffff"
         d="m 19.55,14.07 a 0.5,0.5 0 0 0 -0.25,0.2 l -2.66,2.6 -1.66,-1.6 a 0.5,0.5 0 1 0 -0.68,0.6 l 2,2 a 0.5,0.5 0 0 0 0.68,0 l 3,-3 a 0.5,0.5 0 0 0 -0.43,-0.8 z"
         id="path14" />
    </g>
  </g>
</svg>
