
<svg xmlns="http://www.w3.org/2000/svg" xmlns:xlink="http://www.w3.org/1999/xlink" width="128px" height="128px" viewBox="0 0 128 128" version="1.1">
<g id="surface1">
<path style=" stroke:none;fill-rule:nonzero;fill:rgb(91.764706%,56.470588%,21.176471%);fill-opacity:1;" d="M 12 24 L 116 24 L 116 64 L 12 64 Z M 12 24 "/>
<path style=" stroke:none;fill-rule:nonzero;fill:rgb(91.764706%,56.470588%,21.176471%);fill-opacity:1;" d="M 24 24 C 24 20 24 16 29.816406 16 L 50.183594 16 C 56 16 56 20 56 24 L 56 28 L 24 28 Z M 24 24 "/>
<path style=" stroke:none;fill-rule:nonzero;fill:rgb(58.431373%,59.607843%,62.352941%);fill-opacity:1;" d="M 20 32 L 108 32 L 108 64 L 20 64 Z M 20 32 "/>
<path style=" stroke:none;fill-rule:nonzero;fill:rgb(84.705882%,84.705882%,85.490196%);fill-opacity:1;" d="M 28 28 L 104 28 L 104 80 L 28 80 Z M 28 28 "/>
<path style=" stroke:none;fill-rule:nonzero;fill:rgb(97.647059%,97.647059%,97.647059%);fill-opacity:1;" d="M 24 36 L 100 36 L 100 88 L 24 88 Z M 24 36 "/>
<path style=" stroke:none;fill-rule:nonzero;fill:rgb(80%,80%,80%);fill-opacity:1;" d="M 28 40 L 96 40 L 96 44 L 28 44 Z M 28 40 "/>
<path style=" stroke:none;fill-rule:nonzero;fill:rgb(94.901961%,73.333333%,39.215686%);fill-opacity:1;" d="M 4 56 L 124 56 L 115.429688 112 L 12.570312 112 Z M 4 56 "/>
<path style=" stroke:none;fill-rule:nonzero;fill:rgb(80%,80%,80%);fill-opacity:1;" d="M 28 48 L 96 48 L 96 52 L 28 52 Z M 28 48 "/>
</g>
</svg>
