<?xml version="1.0" encoding="UTF-8" standalone="no"?>
<svg
   xmlns:dc="http://purl.org/dc/elements/1.1/"
   xmlns:cc="http://creativecommons.org/ns#"
   xmlns:rdf="http://www.w3.org/1999/02/22-rdf-syntax-ns#"
   xmlns:svg="http://www.w3.org/2000/svg"
   xmlns="http://www.w3.org/2000/svg"
   xmlns:sodipodi="http://sodipodi.sourceforge.net/DTD/sodipodi-0.dtd"
   xmlns:inkscape="http://www.inkscape.org/namespaces/inkscape"
   width="22"
   height="22"
   viewBox="0 0 22 22"
   id="svg2"
   version="1.1"
   inkscape:version="0.48.5 r10040"
   sodipodi:docname="network-server.svg">
  <metadata
     id="metadata22">
    <rdf:RDF>
      <cc:Work
         rdf:about="">
        <dc:format>image/svg+xml</dc:format>
        <dc:type
           rdf:resource="http://purl.org/dc/dcmitype/StillImage" />
      </cc:Work>
    </rdf:RDF>
  </metadata>
  <defs
     id="defs20" />
  <sodipodi:namedview
     pagecolor="#ffffff"
     bordercolor="#666666"
     borderopacity="1"
     objecttolerance="10"
     gridtolerance="10"
     guidetolerance="10"
     inkscape:pageopacity="0"
     inkscape:pageshadow="2"
     inkscape:window-width="1280"
     inkscape:window-height="969"
     id="namedview18"
     showgrid="true"
     inkscape:zoom="22.627417"
     inkscape:cx="17.624787"
     inkscape:cy="8.6574121"
     inkscape:window-x="0"
     inkscape:window-y="0"
     inkscape:window-maximized="1"
     inkscape:current-layer="svg2">
    <inkscape:grid
       type="xygrid"
       id="grid2999" />
  </sodipodi:namedview>
  <rect
     style="fill:#777777;fill-opacity:1;fill-rule:evenodd;stroke:none"
     id="rect3785"
     width="4"
     height="3"
     x="9"
     y="15" />
  <rect
     style="fill:#dcdcdc;fill-opacity:1;fill-rule:evenodd;stroke:none"
     id="rect3787"
     width="2"
     height="3"
     x="10"
     y="15" />
  <rect
     style="fill:#777777;fill-opacity:1;fill-rule:evenodd;stroke:none"
     id="rect3781"
     width="18"
     height="3"
     x="2"
     y="18"
     rx="1"
     ry="1" />
  <rect
     style="fill:#dcdcdc;fill-opacity:1;fill-rule:evenodd;stroke:none"
     id="rect3783"
     width="16"
     height="1"
     x="3"
     y="19" />
  <path
     style="font-size:medium;font-style:normal;font-variant:normal;font-weight:normal;font-stretch:normal;text-indent:0;text-align:start;text-decoration:none;line-height:normal;letter-spacing:normal;word-spacing:normal;text-transform:none;direction:ltr;block-progression:tb;writing-mode:lr-tb;text-anchor:start;baseline-shift:baseline;color:#000000;fill:#777777;fill-opacity:1;fill-rule:nonzero;stroke:none;stroke-width:1;marker:none;visibility:visible;display:inline;overflow:visible;enable-background:accumulate;font-family:Sans;-inkscape-font-specification:Sans"
     d="M 7.84375,17 C 7.3259033,17 7,17.45627 7,17.90625 l 0,3.1875 C 7,21.54373 7.3259033,22 7.84375,22 l 6.3125,0 C 14.674097,22 15,21.54373 15,21.09375 l 0,-3.1875 C 15,17.45627 14.674097,17 14.15625,17 l -6.3125,0 z M 8,18 l 6,0 0,3 -6,0 0,-3 z"
     id="path3006"
     inkscape:connector-curvature="0" />
  <path
     style="fill:#dcdcdc;stroke:none"
     d="M 8 18 L 8 21 L 14 21 L 14 18 L 8 18 z "
     id="path10" />
  <path
     style="font-size:medium;font-style:normal;font-variant:normal;font-weight:normal;font-stretch:normal;text-indent:0;text-align:start;text-decoration:none;line-height:normal;letter-spacing:normal;word-spacing:normal;text-transform:none;direction:ltr;block-progression:tb;writing-mode:lr-tb;text-anchor:start;baseline-shift:baseline;color:#000000;fill:#e9b080;fill-opacity:1;fill-rule:nonzero;stroke:none;stroke-width:1.03313816;marker:none;visibility:visible;display:inline;overflow:visible;enable-background:accumulate;font-family:Sans;-inkscape-font-specification:Sans"
     d="M 4,2 C 3.4526694,2 3,2.4096882 3,3 L 3,4 2,4 C 1.4980728,4 1,4.3847489 1,5 c -1.52e-5,4.5937493 0,5.40625 0,10 0,0.545771 0.4934174,1 1,1 l 18,0 c 0.515688,0 1,-0.437034 1,-1 L 21,6 C 21,5.4229791 20.576895,5 20,5 L 18,5 18,3 C 18,2.5125745 17.598176,2 17,2 z"
     id="path2995"
     inkscape:connector-curvature="0"
     sodipodi:nodetypes="ccccccssssscssc" />
  <path
     style="font-size:medium;font-style:normal;font-variant:normal;font-weight:normal;font-stretch:normal;text-indent:0;text-align:start;text-decoration:none;line-height:normal;letter-spacing:normal;word-spacing:normal;text-transform:none;direction:ltr;block-progression:tb;writing-mode:lr-tb;text-anchor:start;baseline-shift:baseline;color:#000000;fill:#000000;fill-opacity:0.32156863;fill-rule:nonzero;stroke:none;stroke-width:1.03313816;marker:none;visibility:visible;display:inline;overflow:visible;enable-background:accumulate;font-family:Sans;-inkscape-font-specification:Sans"
     d="M 4,2 C 3.4555457,2 3.0000004,2.3988699 3,3 L 3,4 2,4 C 1.4932406,4 1,4.3964676 1,5 c -2.59e-5,4.5937491 0,5.40625 0,10 0,0.487177 0.4191986,1 1,1 l 18,0 c 0.521212,0 1,-0.442558 1,-1 L 21,6 C 21,5.4268854 20.604255,4.9527926 20,5 L 18,5 18,3 C 18,2.4414881 17.542567,2 17,2 z m 9,3 0,1 7,0 0,9 L 2,15 2,5 z"
     id="path3786"
     inkscape:connector-curvature="0"
     sodipodi:nodetypes="ssccccssssscsssccccccc" />
</svg>
