<?xml version="1.0" encoding="UTF-8" standalone="no"?>
<svg
   xmlns:dc="http://purl.org/dc/elements/1.1/"
   xmlns:cc="http://creativecommons.org/ns#"
   xmlns:rdf="http://www.w3.org/1999/02/22-rdf-syntax-ns#"
   xmlns:svg="http://www.w3.org/2000/svg"
   xmlns="http://www.w3.org/2000/svg"
   xmlns:sodipodi="http://sodipodi.sourceforge.net/DTD/sodipodi-0.dtd"
   xmlns:inkscape="http://www.inkscape.org/namespaces/inkscape"
   width="256"
   height="256"
   viewBox="0 0 204.8 204.8"
   version="1.1"
   id="svg3081"
   inkscape:version="0.48.5 r10040"
   sodipodi:docname="folder-download.svg">
  <metadata
     id="metadata3102">
    <rdf:RDF>
      <cc:Work
         rdf:about="">
        <dc:format>image/svg+xml</dc:format>
        <dc:type
           rdf:resource="http://purl.org/dc/dcmitype/StillImage" />
      </cc:Work>
    </rdf:RDF>
  </metadata>
  <defs
     id="defs3100" />
  <sodipodi:namedview
     pagecolor="#ffffff"
     bordercolor="#666666"
     borderopacity="1"
     objecttolerance="10"
     gridtolerance="10"
     guidetolerance="10"
     inkscape:pageopacity="0"
     inkscape:pageshadow="2"
     inkscape:window-width="1280"
     inkscape:window-height="998"
     id="namedview3098"
     showgrid="false"
     inkscape:zoom="0.7375"
     inkscape:cx="160"
     inkscape:cy="160"
     inkscape:window-x="0"
     inkscape:window-y="0"
     inkscape:window-maximized="1"
     inkscape:current-layer="svg3081" />
  <g
     id="surface1"
     transform="scale(0.8,0.8)">
    <path
       inkscape:connector-curvature="0"
       style="fill:#e68f33;fill-opacity:1;fill-rule:nonzero;stroke:none"
       d="m 24,48 208,0 0,80 -208,0 z m 0,0"
       id="path3084" />
    <path
       inkscape:connector-curvature="0"
       style="fill:#e68f33;fill-opacity:1;fill-rule:nonzero;stroke:none"
       d="m 48,48 c 0,-8 0,-16 11.632812,-16 l 40.734378,0 C 112,32 112,40 112,48 l 0,8 -64,0 z m 0,0"
       id="path3086" />
    <path
       inkscape:connector-curvature="0"
       style="fill:#94979c;fill-opacity:1;fill-rule:nonzero;stroke:none"
       d="m 40,64 176,0 0,39.74219 -176,0 z m 0,0"
       id="path3088" />
    <path
       inkscape:connector-curvature="0"
       style="fill:#d7d7d9;fill-opacity:1;fill-rule:nonzero;stroke:none"
       d="m 56,56 152,0 0,104 -152,0 z m 0,0"
       id="path3090" />
    <path
       inkscape:connector-curvature="0"
       style="fill:#f8f8f8;fill-opacity:1;fill-rule:nonzero;stroke:none"
       d="m 48,72 152,0 0,104 -152,0 z m 0,0"
       id="path3092" />
    <path
       inkscape:connector-curvature="0"
       style="fill:#f0b861;fill-opacity:1;fill-rule:nonzero;stroke:none"
       d="m 8,80 240,0 -17.14063,144 -205.718745,0 z m 0,0"
       id="path3094" />
    <path
       inkscape:connector-curvature="0"
       style="fill:#000000;fill-opacity:0.25097997;fill-rule:nonzero;stroke:none"
       d="m 128,100 c -4.43359,0 -8,3.56641 -8,8 l 0,40 -16,0 c -8,0 -8,0 0,8 l 16,16 c 8,8 8,8 16,0 l 16,-16 c 8,-8 8,-8 0,-8 l -16,0 0,-40 c 0,-4.43359 -3.56641,-8 -8,-8 z M 79.6875,156 C 75.414062,156 72,159.56641 72,164 l 0,32.375 c 0,0.23047 0.04297,0.46094 0.0625,0.6875 0.03125,0.23047 0.07813,0.46094 0.125,0.6875 0.269531,1.42578 0.902344,2.65625 1.875,3.6875 0.07031,0.0781 0.117188,0.17578 0.1875,0.25 0.09375,0.0937 0.210938,0.16016 0.3125,0.25 0.265625,0.25 0.515625,0.48047 0.8125,0.6875 0.03906,0.0234 0.08594,0.0391 0.125,0.0625 0.792969,0.53516 1.726562,0.92187 2.6875,1.125 0.324219,0.0703 0.664062,0.0937 1,0.125 0.175781,0.0117 0.320312,0.0625 0.5,0.0625 0.105469,0.004 0.207031,0 0.3125,0 l 96,0 c 0.625,0 1.23047,-0.0586 1.8125,-0.1875 0.96094,-0.20313 1.89453,-0.58984 2.6875,-1.125 0.33594,-0.21875 0.64062,-0.48828 0.9375,-0.75 0.0781,-0.0742 0.17578,-0.11328 0.25,-0.1875 0.0977,-0.0937 0.15625,-0.21484 0.25,-0.3125 0.23437,-0.26563 0.48828,-0.51563 0.6875,-0.8125 0.73437,-1.03906 1.19141,-2.24219 1.3125,-3.5625 0.0273,-0.22656 0.0508,-0.45703 0.0625,-0.6875 L 184,164 c 0,-4.43359 -3.41406,-8 -7.6875,-8 l -0.625,0 C 171.41406,156 168,159.56641 168,164 l 0,24 -80,0 0,-24 c 0,-4.43359 -3.414062,-8 -7.6875,-8 z m 0,0"
       id="path3096" />
  </g>
</svg>
