<?xml version="1.0" encoding="UTF-8" standalone="no"?>
<!-- Created with Inkscape (http://www.inkscape.org/) -->

<svg
   xmlns:dc="http://purl.org/dc/elements/1.1/"
   xmlns:cc="http://creativecommons.org/ns#"
   xmlns:rdf="http://www.w3.org/1999/02/22-rdf-syntax-ns#"
   xmlns:svg="http://www.w3.org/2000/svg"
   xmlns="http://www.w3.org/2000/svg"
   xmlns:sodipodi="http://sodipodi.sourceforge.net/DTD/sodipodi-0.dtd"
   xmlns:inkscape="http://www.inkscape.org/namespaces/inkscape"
   width="256"
   height="256"
   id="svg2"
   version="1.1"
   inkscape:version="0.91 r"
   sodipodi:docname="grey-folder-projects.svg"
   inkscape:export-filename="/media/Data/Main/Visuals/Icons/Numix/Desktop/repos/numix-wiki/Gjorgi/Numix-folders/48/New/folder-144.png"
   inkscape:export-xdpi="270"
   inkscape:export-ydpi="270">
  <defs
     id="defs4" />
  <sodipodi:namedview
     id="base"
     pagecolor="#ffffff"
     bordercolor="#666666"
     borderopacity="1.0"
     inkscape:pageopacity="0.0"
     inkscape:pageshadow="2"
     inkscape:zoom="1.3188842"
     inkscape:cx="81.548522"
     inkscape:cy="33.682948"
     inkscape:document-units="px"
     inkscape:current-layer="layer1"
     showgrid="false"
     inkscape:window-width="1280"
     inkscape:window-height="998"
     inkscape:window-x="0"
     inkscape:window-y="0"
     inkscape:window-maximized="1"
     showguides="true"
     inkscape:guide-bbox="true">
    <inkscape:grid
       type="xygrid"
       id="grid2985"
       empspacing="5"
       visible="true"
       enabled="true"
       snapvisiblegridlinesonly="true" />
  </sodipodi:namedview>
  <metadata
     id="metadata7">
    <rdf:RDF>
      <cc:Work
         rdf:about="">
        <dc:format>image/svg+xml</dc:format>
        <dc:type
           rdf:resource="http://purl.org/dc/dcmitype/StillImage" />
        <dc:title />
      </cc:Work>
    </rdf:RDF>
  </metadata>
  <g
     inkscape:label="Layer 1"
     inkscape:groupmode="layer"
     id="layer1"
     transform="translate(0,-796.3622)">
    <rect
       style="fill:#757575;fill-opacity:1;stroke:none"
       id="rect3757"
       width="208"
       height="80"
       x="24"
       y="844.36218" />
    <path
       style="fill:#757575;fill-opacity:1;stroke:none"
       d="m 48,844.3622 c 0,-8 0,-15.99988 11.636364,-15.99988 l 40.727276,0 C 112,828.36232 112,836.3622 112,844.3622 l 0,8 -64,0 z"
       id="path3759"
       inkscape:connector-curvature="0"
       sodipodi:nodetypes="ccccccc" />
    <path
       style="fill:#95989f;fill-opacity:1;stroke:none"
       d="m 40,860.3622 176,0 0,39.7416 -176,0 z"
       id="path3765"
       inkscape:connector-curvature="0" />
    <rect
       y="852.36218"
       x="56"
       height="103.99982"
       width="152"
       id="rect3763"
       style="fill:#d8d8da;fill-opacity:1;stroke:none" />
    <rect
       style="fill:#f9f9f9;fill-opacity:1;stroke:none"
       id="rect3761"
       width="152"
       height="103.99982"
       x="48"
       y="868.36218" />
    <path
       style="fill:#bdbdbd;fill-opacity:1;stroke:none"
       d="m 8,876.3622 240,0 -17.14286,144 -205.714284,0 z"
       id="path2987"
       inkscape:connector-curvature="0"
       sodipodi:nodetypes="ccccc" />
    <path
       style="fill:#7f7f7f;fill-opacity:1;fill-rule:nonzero;stroke:none;opacity:1.0"
       d="m 89.210672,908.0502 c -3.08344,0.096 -5.997432,0.384 -8.931568,1.4024 -0.92252,6.2592 0.59832,12.7536 2.276672,18.752 4.269272,13.7608 12.19346,26.82 23.817504,35.5792 0.42608,0.408 1.03192,0.496 0.87561,1.2264 -0.0616,3.0488 -0.006,6.2328 0,9.2904 0.12504,5.344 3.34177,10.4496 8.0559,12.9688 5.59492,2.9472 11.17787,5.6808 16.81234,8.5872 2.59377,1.3752 6.19103,-0.2 7.00515,-2.9784 0.49536,-1.828 0.14888,-3.7448 0.17512,-5.6088 -0.0192,-3.9264 -0.50232,-7.8672 -0.35024,-11.744 5.128,-0.632 10.28332,-3.1216 13.30977,-7.36 2.69737,-3.6152 3.65794,-8.2968 3.32745,-12.7944 5.48597,-0.9784 11.13924,-1.8096 16.6372,-2.804 3.25403,-0.656 4.66512,-4.8864 2.62694,-7.5368 -3.99891,-5.0712 -8.01839,-10.0376 -12.08388,-15.0736 -3.2822,-3.9232 -8.4229,-6.1008 -13.48489,-5.4336 -3.43281,0.552 -6.94781,1.2904 -10.33259,1.9304 -10.93066,-10.4208 -25.62418,-16.196 -40.4547,-17.8768 -3.045616,-0.28 -6.19838,-0.576 -9.28182,-0.528 z m 18.563628,11.3912 c 3.58286,-0.32 7.17634,0.672 10.15746,3.1552 5.96221,4.9696 6.89094,13.8376 1.92642,19.8048 -4.96455,5.9664 -13.82731,6.896 -19.78954,1.9264 -5.962204,-4.9672 -6.890944,-13.836 -1.926412,-19.8048 2.482262,-2.9824 6.049202,-4.7536 9.632072,-5.0816 z m 57.26706,42.9408 c -1.22672,-0.112 -2.44973,0.8192 -2.62694,2.1032 -1.56344,7.1112 -6.61578,13.2896 -13.30974,16.124 -1.743,0.552 -2.13225,2.8872 -0.70056,4.0304 2.9379,2.4488 6.33192,5.2792 9.2818,7.7128 1.43538,1.2216 3.30336,-0.104 3.32746,-1.9272 -0.0464,-1.4928 -0.21592,-3.0856 -0.35032,-4.5576 3.65769,0.784 7.23867,1.8272 10.85797,2.6288 1.70556,0.352 3.32102,-1.7032 2.62693,-3.3296 -1.43082,-3.4328 -2.909,-6.7504 -4.37822,-10.1656 1.481,-0.176 2.90504,-0.296 4.37822,-0.528 1.82344,-0.36 2.5365,-3.0168 1.05077,-4.2064 -2.95472,-2.4864 -5.93846,-4.892 -8.93156,-7.3608 -0.35016,-0.28 -0.81697,-0.488 -1.22591,-0.528 z"
       id="path10643"
       inkscape:connector-curvature="0"
       sodipodi:nodetypes="cccccccccccccccccccccccccccccccccccccccccc" />
    <path
       sodipodi:type="arc"
       style="fill:#7f7f7f;fill-opacity:1;fill-rule:evenodd;stroke:none;opacity:1.0"
       id="path3002"
       sodipodi:cx="27"
       sodipodi:cy="33"
       sodipodi:rx="2"
       sodipodi:ry="2"
       d="m 29,33 c 0,1.104569 -0.895431,2 -2,2 -1.104569,0 -2,-0.895431 -2,-2 0,-1.104569 0.895431,-2 2,-2 1.104569,0 2,0.895431 2,2 z"
       transform="matrix(4,0,0,4,1.3268736,801.68988)" />
  </g>
</svg>
