<?xml version="1.0" encoding="UTF-8" standalone="no"?>
<!-- Created with Inkscape (http://www.inkscape.org/) -->

<svg
   xmlns:dc="http://purl.org/dc/elements/1.1/"
   xmlns:cc="http://creativecommons.org/ns#"
   xmlns:rdf="http://www.w3.org/1999/02/22-rdf-syntax-ns#"
   xmlns:svg="http://www.w3.org/2000/svg"
   xmlns="http://www.w3.org/2000/svg"
   xmlns:xlink="http://www.w3.org/1999/xlink"
   xmlns:sodipodi="http://sodipodi.sourceforge.net/DTD/sodipodi-0.dtd"
   xmlns:inkscape="http://www.inkscape.org/namespaces/inkscape"
   width="256"
   height="256"
   id="svg2"
   version="1.1"
   inkscape:version="0.48.5 r10040"
   sodipodi:docname="grey-folder-hdd.svg"
   inkscape:export-filename="/media/Data/Main/Visuals/Icons/Numix/Desktop/repos/numix-wiki/Gjorgi/Numix-folders/48/New/folder-144.png"
   inkscape:export-xdpi="270"
   inkscape:export-ydpi="270">
  <defs
     id="defs4">
    <linearGradient
       inkscape:collect="always"
       id="linearGradient3958">
      <stop
         style="stop-color:#000000;stop-opacity:1;"
         offset="0"
         id="stop3960" />
      <stop
         style="stop-color:#000000;stop-opacity:0;"
         offset="1"
         id="stop3962" />
    </linearGradient>
    <radialGradient
       inkscape:collect="always"
       xlink:href="#linearGradient3958"
       id="radialGradient3964"
       cx="32.5"
       cy="56.5"
       fx="32.5"
       fy="56.5"
       r="33.5"
       gradientTransform="matrix(1,0,0,0.10447761,0,50.597015)"
       gradientUnits="userSpaceOnUse" />
  </defs>
  <sodipodi:namedview
     id="base"
     pagecolor="#ffffff"
     bordercolor="#666666"
     borderopacity="1.0"
     inkscape:pageopacity="0.0"
     inkscape:pageshadow="2"
     inkscape:zoom="1.8651838"
     inkscape:cx="55.746218"
     inkscape:cy="136.44674"
     inkscape:document-units="px"
     inkscape:current-layer="layer1"
     showgrid="true"
     inkscape:window-width="1280"
     inkscape:window-height="998"
     inkscape:window-x="0"
     inkscape:window-y="0"
     inkscape:window-maximized="1"
     showguides="true"
     inkscape:guide-bbox="true">
    <inkscape:grid
       type="xygrid"
       id="grid2985"
       empspacing="5"
       visible="true"
       enabled="true"
       snapvisiblegridlinesonly="true" />
  </sodipodi:namedview>
  <metadata
     id="metadata7">
    <rdf:RDF>
      <cc:Work
         rdf:about="">
        <dc:format>image/svg+xml</dc:format>
        <dc:type
           rdf:resource="http://purl.org/dc/dcmitype/StillImage" />
        <dc:title />
      </cc:Work>
    </rdf:RDF>
  </metadata>
  <g
     inkscape:label="Layer 1"
     inkscape:groupmode="layer"
     id="layer1"
     transform="translate(0,-796.3622)">
    <rect
       style="fill:#757575;fill-opacity:1;stroke:none"
       id="rect3757"
       width="208"
       height="80"
       x="24"
       y="844.36218" />
    <path
       style="fill:#757575;fill-opacity:1;stroke:none"
       d="m 48,844.3622 c 0,-8 0,-16 11.636364,-16 l 40.727276,0 c 11.63636,0 11.63636,8 11.63636,16 l 0,8 -64,0 z"
       id="path3759"
       inkscape:connector-curvature="0"
       sodipodi:nodetypes="ccccccc" />
    <path
       style="fill:#95989f;fill-opacity:1;stroke:none"
       d="m 40,860.3622 176,0 0,39.7416 -176,0 z"
       id="path3765"
       inkscape:connector-curvature="0" />
    <rect
       y="852.36218"
       x="56"
       height="103.99982"
       width="152"
       id="rect3763"
       style="fill:#d8d8da;fill-opacity:1;stroke:none" />
    <rect
       style="fill:#f9f9f9;fill-opacity:1;stroke:none"
       id="rect3761"
       width="152"
       height="103.99982"
       x="48"
       y="868.36218" />
    <path
       style="fill:#bdbdbd;fill-opacity:1;stroke:none"
       d="m 8,876.3622 240,0 -17.14286,144 -205.714284,0 z"
       id="path2987"
       inkscape:connector-curvature="0"
       sodipodi:nodetypes="ccccc" />
    <path
       style="fill:#212121;fill-opacity:1;stroke:none;opacity:0.4"
       d="m 96,900.3622 c -5.69828,0 -8,2.6816 -8,8 l 0,80 c 0,5.3184 2.30172,8 8,8 l 61.75,0 c 5.69829,0 10.25,-2.6816 10.25,-8 l 0,-80 c 0,-5.3184 -2.30171,-8 -8,-8 l -64,0 z m 6,8 c 3.31371,0 6,2.6864 6,6 0,3.3136 -2.68629,6 -6,6 -3.313708,0 -6,-2.6864 -6,-6 0,-3.3136 2.686292,-6 6,-6 z m 52,0 c 3.31371,0 6,2.6864 6,6 0,3.3136 -2.68629,6 -6,6 -3.31371,0 -6,-2.6864 -6,-6 0,-3.3136 2.68629,-6 6,-6 z m -26,8 c 8.83655,0 16,7.1632 16,16 0,8.8368 -7.16345,16 -16,16 -8.83655,0 -16,-7.1632 -16,-16 0,-8.8368 7.16345,-16 16,-16 z m -26,28 c 3.31371,0 6,2.6864 6,6 0,3.3136 -2.68629,6 -6,6 -3.313708,0 -6,-2.6864 -6,-6 0,-3.3136 2.686292,-6 6,-6 z m 52,0 c 3.31371,0 6,2.6864 6,6 0,3.3136 -2.68629,6 -6,6 -3.31371,0 -6,-2.6864 -6,-6 0,-3.3136 2.68629,-6 6,-6 z m -54,36 56,0 c 2.216,0 4,1.784 4,4 0,2.216 -1.784,4 -4,4 l -56,0 c -2.216,0 -4,-1.784 -4,-4 0,-2.216 1.784,-4 4,-4 z"
       id="rect3828"
       inkscape:connector-curvature="0" />
    <path
       sodipodi:type="arc"
       style="fill:#212121;fill-opacity:1;fill-rule:evenodd;stroke:none;opacity:0.4"
       id="path2995"
       sodipodi:cx="32"
       sodipodi:cy="34"
       sodipodi:rx="2"
       sodipodi:ry="2"
       d="m 34,34 c 0,1.104569 -0.895431,2 -2,2 -1.104569,0 -2,-0.895431 -2,-2 0,-1.104569 0.895431,-2 2,-2 1.104569,0 2,0.895431 2,2 z"
       transform="matrix(4,0,0,4,0,796.3622)" />
  </g>
</svg>
