<?xml version="1.0" encoding="UTF-8" standalone="no"?>
<svg
   xmlns:dc="http://purl.org/dc/elements/1.1/"
   xmlns:cc="http://creativecommons.org/ns#"
   xmlns:rdf="http://www.w3.org/1999/02/22-rdf-syntax-ns#"
   xmlns:svg="http://www.w3.org/2000/svg"
   xmlns="http://www.w3.org/2000/svg"
   xmlns:sodipodi="http://sodipodi.sourceforge.net/DTD/sodipodi-0.dtd"
   xmlns:inkscape="http://www.inkscape.org/namespaces/inkscape"
   width="256"
   height="256"
   viewBox="0 0 204.8 204.8"
   version="1.1"
   id="svg3415"
   inkscape:version="0.91 r"
   sodipodi:docname="pink-network.svg">
  <metadata
     id="metadata3436">
    <rdf:RDF>
      <cc:Work
         rdf:about="">
        <dc:format>image/svg+xml</dc:format>
        <dc:type
           rdf:resource="http://purl.org/dc/dcmitype/StillImage" />
      </cc:Work>
    </rdf:RDF>
  </metadata>
  <defs
     id="defs3434" />
  <sodipodi:namedview
     pagecolor="#ffffff"
     bordercolor="#666666"
     borderopacity="1"
     objecttolerance="10"
     gridtolerance="10"
     guidetolerance="10"
     inkscape:pageopacity="0"
     inkscape:pageshadow="2"
     inkscape:window-width="1280"
     inkscape:window-height="998"
     id="namedview3432"
     showgrid="true"
     inkscape:zoom="2.085965"
     inkscape:cx="-22.933155"
     inkscape:cy="148.23346"
     inkscape:window-x="0"
     inkscape:window-y="0"
     inkscape:window-maximized="1"
     inkscape:current-layer="svg3415">
    <inkscape:grid
       type="xygrid"
       id="grid3554"
       empspacing="5"
       visible="true"
       enabled="true"
       snapvisiblegridlinesonly="true" />
  </sodipodi:namedview>
  <path
     id="path3418"
     d="m 19.2,38.4 166.4,0 0,64 -166.4,0 z m 0,0"
     style="fill:#ec407a;fill-opacity:1;fill-rule:nonzero;stroke:none"
     inkscape:connector-curvature="0" />
  <path
     id="path3420"
     d="m 38.4,38.4 c 0,-6.4 0,-12.8 9.30625,-12.8 l 32.587502,0 C 89.6,25.6 89.6,32 89.6,38.4 l 0,6.4 -51.2,0 z m 0,0"
     style="fill:#ec407a;fill-opacity:1;fill-rule:nonzero;stroke:none"
     inkscape:connector-curvature="0" />
  <path
     id="path3422"
     d="m 32,51.2 140.8,0 0,31.793752 -140.8,0 z m 0,0"
     style="fill:#94979c;fill-opacity:1;fill-rule:nonzero;stroke:none"
     inkscape:connector-curvature="0" />
  <path
     id="path3424"
     d="m 44.8,44.8 121.6,0 0,83.2 -121.6,0 z m 0,0"
     style="fill:#d7d7d9;fill-opacity:1;fill-rule:nonzero;stroke:none"
     inkscape:connector-curvature="0" />
  <path
     id="path3426"
     d="m 38.4,57.6 121.6,0 0,83.2 -121.6,0 z m 0,0"
     style="fill:#f8f8f8;fill-opacity:1;fill-rule:nonzero;stroke:none"
     inkscape:connector-curvature="0" />
  <path
     id="path3428"
     d="m 6.4,64 192,0 -13.7125,115.2 -164.575,0 z m 0,0"
     style="fill:#f06292;fill-opacity:1;fill-rule:nonzero;stroke:none"
     inkscape:connector-curvature="0" />
  <path
     id="path3430"
     d="m 97.6,83.2 c -16.378128,0 -33.6,17.22187 -33.6,38.4 0,21.17813 17.221872,38.4 33.6,38.4 25.97813,0 43.2,-17.22187 43.2,-38.4 0,-21.17813 -17.22187,-38.4 -38.4,-38.4 z m 7.91875,5.4 c 3.58125,0.331248 7.04687,1.15 10.2,2.521872 -0.24062,0.303128 -0.42813,0.568752 -0.6,1.078128 -0.96875,2.909376 -2.41562,1.521872 -0.71875,5.159376 1.69687,3.637494 3.11562,4.578124 3.6,2.878124 0.48438,-1.693748 -1.21875,-4.0875 0.71875,-3.118748 1.94063,0.971872 3.375,-0.262504 1.92187,1.921872 -1.45624,2.181246 -1.425,3.365626 -3.12187,2.878126 -1.69688,-0.48437 -1.6625,2.87812 -3.35937,3.3625 -1.69688,0.48437 -2.27813,-0.73125 -2.27813,0.48125 0,1.20937 0.9625,0.0969 0.71875,2.0375 -0.075,0.59375 -0.0531,0.7 -0.11875,0.9625 -1.59375,-0.45625 -2.30625,-0.70937 -3.48125,-0.24688 -1.2125,0.48438 -2.64062,3.6 -2.64062,3.6 1.51562,1.51251 2.21875,2.60313 2.75937,3.11876 -0.3375,0.17187 -0.74688,0.24062 -1.07813,0.48124 -2.425,1.69688 -4.31249,2.01876 -5.04062,4.44063 -0.72813,2.425 -0.48125,0.20313 -0.48125,3.11875 0,2.90938 -0.73437,0.93438 0.72187,3.6 1.45313,2.66875 5.02188,3.94687 6.71876,5.4 1.69687,1.45625 3.44687,-3.1625 6.84062,1.2 3.39375,4.36562 3.6125,2.61562 2.4,5.04062 -1.2125,2.425 -2.39375,3.23125 -2.88125,4.2 -0.48437,0.97188 0.94375,4.31563 2.64063,5.04063 0.0375,0 0.0812,0 0.12187,0 -0.0906,0.20937 -0.15312,0.39375 -0.24063,0.6 -2.19687,1 -4.89062,2.375 -5.4,2.52188 -1.2,0.34374 -5.43437,1.05937 -8.52187,1.91874 -0.38437,0.10938 -0.6875,0.10938 -0.8375,0.125 0.38125,-0.41874 3.41562,-2.00312 4.91875,-2.87812 2.05625,-1.20313 -0.11875,-1.08125 -0.11875,-1.08125 0,0 -3.275,-0.36563 -9.962498,-0.36563 -3.340624,0 -4.790624,0.15 -5.518752,0.36563 -0.365624,0.10937 -0.543752,0.21563 -0.718752,0.35937 -0.17812,0.15 -0.3,0.30626 -0.6,0.48126 -1.2,0.68437 0.703128,1.40312 -0.840624,1.91874 -1.156248,0.38438 -1.293752,0 -2.281248,-0.725 0.706248,-0.7 1.678128,-1.54374 2.881248,-3 2.181248,-2.64062 2.87188,-2.15937 3.6,-4.55937 0.728128,-2.4 -6.121872,-1.67812 -6.121872,-3.11875 0,-1.44062 -1.178128,-2.4 -3.359376,-3.35937 -2.181248,-0.96251 -0.693752,-1.44063 -3.118752,-2.16251 -2.425,-0.71562 -5.153124,3.6 -5.881249,2.16251 -0.728125,-1.44063 2.28125,-1.44063 2.28125,-3.12188 0,-1.6375 -3.459375,1.2375 -4.08125,-0.84063 -0.01562,-0.075 -0.10625,-0.075 -0.11875,-0.12187 -0.0625,-0.30625 -0.02187,-0.48125 0,-0.71875 0.153125,-1.725 2.15,-2.4 3,-4.08125 0.96875,-1.91562 0.46875,1.44375 1.678125,3.12187 1.212498,1.68126 0.728122,-2.15937 0,-4.31874 -0.725,-2.16251 0.465626,-2.16251 2.162498,-5.04063 1.69688,-2.88125 1.678128,-4.55937 1.678128,-6.72188 0,-2.15937 1.175,-2.39687 3.6,-4.55937 1.112496,-0.9875 1.984376,-1.85312 2.640624,-2.64063 0.159376,-0.075 0.318752,-0.075 0.481248,-0.12187 2.568752,-1.03125 3.65,-2.57188 5.878128,-7.20313 C 98.387504,95.965624 95.284376,100.28438 94.6,100.1125 93.915624,99.940624 92.918752,98.721872 90.518752,97.35 90.025,97.068752 89.584376,96.934376 89.2,96.875 l 4.440624,-7.318752 c 1.42188,-0.384376 2.95,-0.646872 4.440624,-0.840624 0.543752,3.103128 0.237504,6 0.237504,6 0,0 -0.837504,0.993752 -0.837504,1.681248 0,0.684376 4.593752,-5.656248 5.278132,-6 0.68749,-0.346872 2.41875,1.815632 2.75937,-1.440624 0.0218,-0.187496 -0.0187,-0.190624 0,-0.359376 z M 112,101.55938 c -0.24687,-0.075 -0.5375,0 -0.84062,0.125 0,0.85 -0.32813,1.46562 -0.47813,1.8 -0.0906,-0.15313 -0.3625,-0.35938 -0.3625,-0.35938 -0.3625,0.67187 -1.14688,1.2625 -0.35937,1.08125 0.78749,-0.17812 1.38749,0.30625 0.84062,-0.3625 -0.10625,-0.125 -0.0562,-0.0718 -0.11875,-0.125 0.1,0.0782 0.29375,0.125 0.71875,0.125 0.47813,0 0.73438,0 1.08125,0 -0.5875,0.43438 -1.225,0.61875 -0.3625,0.84063 1.15312,0.30312 1.68125,0.36562 1.68125,0.125 0,-0.24063 -0.35938,-1.08125 -0.35938,-1.08125 0.225,-0.0906 0.43438,-0.20313 0.24063,-0.6 -0.36563,-0.72188 -0.94375,-1.44688 -1.68125,-1.55938 z M 130.35938,103.6 c 0.6,0.93125 1.175,1.8875 1.68124,2.88125 -0.33437,1.93437 -1.18124,3.24062 0.24063,3.24062 0.39688,0 0.75,-0.0875 1.07813,-0.125 0.0469,0.11251 0.0782,0.24375 0.12187,0.35938 -2.425,0 -3.5875,0.725 -4.8,0.47813 -1.2125,-0.24376 -4.58438,-0.45938 -2.4,-2.63751 1.275,-1.275 2.86562,-3.30312 4.07813,-4.20312 z m -15.11876,4.44062 c 0.22188,0.075 0.41876,0.30313 0.6,0.71563 0.72813,1.69688 1.92813,3.11875 0.95938,3.3625 -0.96875,0.2375 -1.44062,0.47812 -1.44062,0.47812 0,0 3.35937,2.18438 3.6,-0.23749 C 119.20313,109.93125 118,108.51562 118,108.51562 c 0,0 1.675,1.67188 2.15938,2.64063 0.48437,0.97188 0.46875,0 1.68124,1.20313 1.21251,1.20937 0.94376,-4.81876 2.64063,-3.12188 1.69688,1.69688 2.7625,1.66875 2.27813,2.88125 -0.48438,1.20938 3.12187,-1.46562 3.12187,0.95938 0,2.33749 1.49062,3.28437 -1.44063,4.44062 -1.10937,-0.0782 -1.98749,-0.2625 -2.15937,-0.60313 -0.4875,-0.96875 -3.24063,-0.24062 -3.24063,-0.24062 -7.25312,-1.8125 -10.4,-2.38438 -12.48124,-2.0375 0.0406,-0.0782 0.0782,-0.0782 0.12187,-0.125 1.05937,-1.90937 3.05625,-4.5625 2.4,-5.52188 0.92188,-0.53124 1.64688,-1.11562 2.15937,-0.95937 z m 20.4,12.11876 c 0.0218,0.48749 0,0.95 0,1.44062 0,1.36562 -0.0812,2.75938 -0.24062,4.08125 -2.18125,-1.94063 -5.28125,-1.92187 -5.28125,-1.92187 0,0 1.89375,-2.15 4.5625,-3.11876 0.33125,-0.125 0.69062,-0.28437 0.95937,-0.48124 z m 0,0"
     style="fill:#c64077;fill-opacity:1;fill-rule:nonzero;stroke:none;opacity:1.0"
     inkscape:connector-curvature="0" />
</svg>
