<?xml version="1.0" encoding="UTF-8" standalone="no"?>
<svg
   xmlns:dc="http://purl.org/dc/elements/1.1/"
   xmlns:cc="http://creativecommons.org/ns#"
   xmlns:rdf="http://www.w3.org/1999/02/22-rdf-syntax-ns#"
   xmlns:svg="http://www.w3.org/2000/svg"
   xmlns="http://www.w3.org/2000/svg"
   xmlns:sodipodi="http://sodipodi.sourceforge.net/DTD/sodipodi-0.dtd"
   xmlns:inkscape="http://www.inkscape.org/namespaces/inkscape"
   viewBox="0 0 48 48"
   id="svg3175"
   version="1.1"
   inkscape:version="0.48.5 r10040"
   width="100%"
   height="100%"
   sodipodi:docname="network.svg">
  <metadata
     id="metadata3193">
    <rdf:RDF>
      <cc:Work
         rdf:about="">
        <dc:format>image/svg+xml</dc:format>
        <dc:type
           rdf:resource="http://purl.org/dc/dcmitype/StillImage" />
      </cc:Work>
    </rdf:RDF>
  </metadata>
  <defs
     id="defs3191" />
  <sodipodi:namedview
     pagecolor="#ffffff"
     bordercolor="#666666"
     borderopacity="1"
     objecttolerance="10"
     gridtolerance="10"
     guidetolerance="10"
     inkscape:pageopacity="0"
     inkscape:pageshadow="2"
     inkscape:window-width="1280"
     inkscape:window-height="998"
     id="namedview3189"
     showgrid="false"
     inkscape:zoom="9.8333333"
     inkscape:cx="22.037452"
     inkscape:cy="28.207669"
     inkscape:window-x="0"
     inkscape:window-y="0"
     inkscape:window-maximized="1"
     inkscape:current-layer="svg3175" />
  <path
     style="font-size:medium;font-style:normal;font-variant:normal;font-weight:normal;font-stretch:normal;text-indent:0;text-align:start;text-decoration:none;line-height:normal;letter-spacing:normal;word-spacing:normal;text-transform:none;direction:ltr;block-progression:tb;writing-mode:lr-tb;text-anchor:start;baseline-shift:baseline;color:#000000;fill:#42a5f5;fill-opacity:1;fill-rule:nonzero;stroke:none;stroke-width:1;marker:none;visibility:visible;display:inline;overflow:visible;enable-background:accumulate;font-family:Sans;-inkscape-font-specification:Sans"
     d="m 6.000023,6.0000005 c -1,0 -2,1 -2,2 l 0,1.9999995 -1,0 c -1,0 -2.00556897,0.949207 -2,2 l 0,28 c 1.28e-4,1.120734 1.037763,1.9999 2.1875,2 l 41.625,0 c 1.1875,0 2.1875,-1 2.1875,-2 l 0,-25 c 0,-1 -1,-2 -2,-2 l -2,0 0,-4.9999995 c 0,-1 -1,-2 -2,-2 z"
     id="path3770"
     inkscape:connector-curvature="0"
     sodipodi:nodetypes="sscsccccccccsss" />
  <path
     inkscape:connector-curvature="0"
     style="font-size:medium;font-style:normal;font-variant:normal;font-weight:normal;font-stretch:normal;text-indent:0;text-align:start;text-decoration:none;line-height:normal;letter-spacing:normal;word-spacing:normal;text-transform:none;direction:ltr;block-progression:tb;writing-mode:lr-tb;text-anchor:start;baseline-shift:baseline;color:#000000;fill:#000000;fill-opacity:0.32156863;fill-rule:nonzero;stroke:none;stroke-width:1;marker:none;visibility:visible;display:inline;overflow:visible;enable-background:accumulate;font-family:Sans;-inkscape-font-specification:Sans"
     d="m 6.000023,6.0000005 c -1,0 -2,1 -2,2 l 0,1.9999995 -1,0 c -1,0 -2.00556897,0.949207 -2,2 l 0,28 c 1.28e-4,1.120734 1.037763,1.9999 2.1875,2 l 41.625,0 c 1.1875,0 2.1875,-1 2.1875,-2 l 0,-25 c 0,-1 -1,-2 -2,-2 l -2,0 0,-4.9999995 c 0,-1 -1,-2 -2,-2 l -35,0 z m -3,4.9999995 24,0 c 0.507314,0 1,0.494167 1,1 l 0,2 17,0 c 0.540858,0 1,0.471809 1,1 l 0,25 c 0,0.553755 -0.452115,1 -1,1 l -42,0 c -0.512726,0 -1,-0.446246 -1,-1 l 0,-28 c 0,-0.543318 0.479042,-1 1,-1 z"
     id="path3779" />
  <path
     id="path4139"
     d="M 23.000287,20 C 19.588011,20 16,23.5882 16,28.0001 16,32.4119 19.588016,36 23.000287,36 28.411984,36 32,32.4119 32,28.0001 32,23.5882 28.41199,20 24,20 z m 1.649712,1.1252 c 0.745675,0.069 1.468157,0.2392 2.125001,0.525 -0.05056,0.063 -0.08964,0.1186 -0.124997,0.225 -0.202031,0.6059 -0.503553,0.3171 -0.150003,1.0747 0.353553,0.7575 0.648985,0.9534 0.749999,0.5999 0.101024,-0.3533 -0.25406,-0.852 0.150001,-0.6499 0.404063,0.202 0.703047,-0.055 0.4,0.4003 -0.303046,0.4545 -0.296446,0.7009 -0.649999,0.5998 -0.353554,-0.1012 -0.346445,0.5991 -0.700001,0.7001 -0.353552,0.1012 -0.474999,-0.1525 -0.474999,0.1001 0,0.2524 0.200506,0.021 0.150002,0.425 -0.0154,0.1237 -0.01091,0.1458 -0.025,0.2 -0.331874,-0.095 -0.479889,-0.1477 -0.724999,-0.051 -0.252539,0.1012 -0.55,0.7501 -0.55,0.7501 0.315469,0.3155 0.461838,0.5426 0.574999,0.6501 -0.07061,0.035 -0.155554,0.05 -0.225,0.1001 -0.505077,0.3537 -0.898478,0.4202 -1.05,0.9249 -0.151525,0.5055 -0.09999,0.043 -0.09999,0.65 0,0.6062 -0.15305,0.1944 0.150001,0.7502 0.303045,0.5556 1.046445,0.8218 1.399998,1.1249 0.353555,0.3029 0.717894,-0.6592 1.425,0.2501 0.707107,0.909 0.75254,0.5448 0.500001,1.0501 -0.25254,0.5051 -0.498985,0.6729 -0.599999,0.8749 -0.101023,0.202 0.196446,0.8986 0.55,1.0499 0.0074,0 0.01708,0 0.025,0 -0.01882,0.043 -0.03134,0.082 -0.05001,0.1253 -0.457834,0.2079 -1.019073,0.4948 -1.125002,0.5249 -0.25,0.072 -1.132142,0.2212 -1.774999,0.3999 -0.08036,0.023 -0.143616,0.023 -0.175,0.026 0.07992,-0.087 0.711813,-0.4174 1.024999,-0.5998 0.428574,-0.2505 -0.025,-0.2251 -0.025,-0.2251 0,0 -0.682143,-0.076 -2.074998,-0.076 -0.69643,0 -0.998214,0.031 -1.150001,0.076 -0.07589,0.023 -0.113171,0.045 -0.150001,0.075 -0.03683,0.031 -0.0625,0.064 -0.124998,0.1 -0.250003,0.1428 0.146423,0.2928 -0.174999,0.3998 -0.24107,0.08 -0.269085,0 -0.474999,-0.1507 0.146887,-0.1461 0.349583,-0.322 0.599999,-0.6251 0.454569,-0.5499 0.598477,-0.4498 0.749999,-0.9498 0.151526,-0.5002 -1.274998,-0.3499 -1.274998,-0.65 0,-0.3 -0.245433,-0.4999 -0.7,-0.7 -0.454569,-0.2001 -0.14493,-0.3001 -0.650001,-0.4501 -0.505075,-0.1494 -1.073476,0.7499 -1.224999,0.4501 -0.151526,-0.3001 0.475,-0.3001 0.475,-0.6499 0,-0.3416 -0.720364,0.2578 -0.850002,-0.175 -0.0034,-0.016 -0.02247,-0.016 -0.025,-0.026 -0.01268,-0.063 -0.0045,-0.1001 0,-0.1494 0.03178,-0.3596 0.448224,-0.4999 0.625001,-0.8501 0.202032,-0.3996 0.09746,0.3003 0.35,0.6502 0.252539,0.35 0.151527,-0.45 0,-0.9 -0.151525,-0.4502 0.09645,-0.45 0.450001,-1.05 0.353553,-0.6001 0.35,-0.95 0.35,-1.4001 0,-0.4499 0.244924,-0.4996 0.749999,-0.95 0.231494,-0.206 0.413114,-0.3858 0.55,-0.5499 0.03309,-0.016 0.06652,-0.016 0.1,-0.026 0.535716,-0.2144 0.760714,-0.5357 1.225,-1.5001 0.464288,-0.9641 -0.182142,-0.064 -0.325001,-0.1001 -0.142859,-0.035 -0.349999,-0.2892 -0.85,-0.575 -0.103124,-0.059 -0.195146,-0.087 -0.274999,-0.099 l 0.925001,-1.525 c 0.296295,-0.08 0.614413,-0.1348 0.924999,-0.1751 0.113637,0.6466 0.05001,1.2501 0.05001,1.2501 0,0 -0.175,0.2071 -0.175,0.35 0,0.1429 0.957143,-1.1785 1.1,-1.25 0.14286,-0.072 0.50357,0.3786 0.574999,-0.3 0.004,-0.039 -0.0045,-0.04 0,-0.075 z m 1.35,2.6999 c -0.05129,-0.016 -0.111871,-10e-5 -0.174998,0.026 0,0.1768 -0.06843,0.3054 -0.09999,0.3749 -0.01878,-0.032 -0.07501,-0.075 -0.07501,-0.075 -0.07575,0.1397 -0.239152,0.2629 -0.07501,0.225 0.16415,-0.037 0.288642,0.064 0.175001,-0.075 -0.02185,-0.026 -0.01156,-0.015 -0.025,-0.026 0.02129,0.016 0.06161,0.026 0.150001,0.026 0.09945,0 0.152906,0 0.224999,0 -0.121933,0.09 -0.254933,0.1284 -0.07501,0.175 0.23991,0.063 0.35,0.076 0.35,0.026 0,-0.05 -0.07499,-0.225 -0.07499,-0.225 0.04687,-0.019 0.09041,-0.043 0.05001,-0.1252 C 26.274242,24.001 26.153891,23.8505 26,23.8269 z M 29.825,24.2499 c 0.124917,0.1941 0.24458,0.3936 0.350001,0.6001 -0.06954,0.4034 -0.246146,0.6751 0.05001,0.6751 0.0828,0 0.156661,-0.018 0.225,-0.026 0.0093,0.024 0.01605,0.051 0.025,0.075 -0.505078,0 -0.747462,0.151 -1.000001,0.1 -0.252539,-0.051 -0.954568,-0.096 -0.5,-0.5499 0.265676,-0.2658 0.597554,-0.6879 0.85,-0.8752 z m -3.15,0.9253 c 0.04655,0.015 0.08713,0.063 0.124998,0.1491 0.151526,0.3537 0.402031,0.6496 0.200001,0.7002 -0.202032,0.05 -0.300002,0.1001 -0.300002,0.1001 0,0 0.699493,0.4548 0.750001,-0.05 0.05051,-0.5053 -0.2,-0.8003 -0.2,-0.8003 0,0 0.348986,0.3481 0.45,0.5502 0.101022,0.202 0.09746,0 0.350001,0.2501 0.252537,0.2523 0.196446,-1.0037 0.55,-0.6501 0.353554,0.3535 0.576016,0.3475 0.474999,0.6 -0.101023,0.2524 0.650002,-0.3051 0.650002,0.1999 0,0.4869 0.310535,0.6845 -0.3,0.9251 -0.231155,-0.016 -0.414114,-0.055 -0.450002,-0.1253 -0.101021,-0.2018 -0.674999,-0.05 -0.674999,-0.05 -1.510917,-0.3776 -2.16686,-0.4973 -2.600001,-0.4249 0.0082,-0.016 0.01614,-0.016 0.025,-0.026 0.220971,-0.398 0.636726,-0.9506 0.5,-1.15 0.19257,-0.1109 0.343523,-0.2325 0.45,-0.2002 z m 4.25,2.5248 c 0.0045,0.1011 0,0.1975 0,0.3001 0,0.2843 -0.01705,0.5747 -0.05001,0.8499 -0.454411,-0.4043 -1.100001,-0.3999 -1.100001,-0.3999 0,0 0.394416,-0.448 0.950001,-0.6501 0.06946,-0.026 0.143871,-0.059 0.2,-0.1 z"
     style="line-height:normal;opacity:1;color:#000000;fill:#000000;fill-opacity:0.32156864000000002"
     inkscape:connector-curvature="0" />
</svg>
