<svg version="1.1" viewBox="0 0 48 48" xmlns="http://www.w3.org/2000/svg">
 <defs>
  <linearGradient id="linearGradient3764" x1="1" x2="47" gradientTransform="matrix(0 -1 1 0 -1.5e-6 48)" gradientUnits="userSpaceOnUse">
   <stop style="stop-color:#019ad3" offset="0"/>
   <stop style="stop-color:#01ace8" offset="1"/>
  </linearGradient>
 </defs>
 <path d="m36.3 5c5.86 4.06 9.69 10.8 9.69 18.5 0 12.4-10.1 22.5-22.5 22.5-7.67 0-14.4-3.83-18.5-9.69 1.04 1.82 2.31 3.5 3.78 4.97 4.08 3.71 9.51 5.97 15.5 5.97 12.7 0 23-10.3 23-23 0-5.95-2.26-11.4-5.97-15.5-1.47-1.48-3.15-2.74-4.97-3.78zm4.97 3.78c3.85 4.11 6.22 9.64 6.22 15.7 0 12.7-10.3 23-23 23-6.08 0-11.6-2.36-15.7-6.22 4.16 4.14 9.88 6.72 16.2 6.72 12.7 0 23-10.3 23-23 0-6.34-2.58-12.1-6.72-16.2z" style="opacity:.05"/>
 <path d="m41.3 8.78c3.71 4.08 5.97 9.51 5.97 15.5 0 12.7-10.3 23-23 23-5.95 0-11.4-2.26-15.5-5.97 4.11 3.85 9.64 6.22 15.7 6.22 12.7 0 23-10.3 23-23 0-6.08-2.36-11.6-6.22-15.7z" style="opacity:.1"/>
 <path d="m31.2 2.38c8.62 3.15 14.8 11.4 14.8 21.1 0 12.4-10.1 22.5-22.5 22.5-9.71 0-18-6.14-21.1-14.8a23 23 0 0 0 44.9-7 23 23 0 0 0-16-21.9z" style="opacity:.2"/>
 <path d="m24 1c12.7 0 23 10.3 23 23s-10.3 23-23 23-23-10.3-23-23 10.3-23 23-23z" style="fill:url(#linearGradient3764)"/>
 <path d="m40 7.53c3.71 4.08 5.97 9.51 5.97 15.5 0 12.7-10.3 23-23 23-5.95 0-11.4-2.26-15.5-5.97 4.18 4.29 10 6.97 16.5 6.97 12.7 0 23-10.3 23-23 0-6.46-2.68-12.3-6.97-16.5z" style="opacity:.1"/>
 <g transform="matrix(3.54 0 0 3.54 1 2)" style="opacity:.1">
  <path transform="matrix(.282 0 0 .282 -.282 -.564)" d="m14 16c-0.5 0-1 0.498-1 0.998h-2e-3v17h24v-14.9c0-0.531-0.5-1.07-1-1.07h-0.996c-2.99-0.016-6-8e-3 -9-8e-3l-1-2z"/>
 </g>
 <path d="m12 16v14h23v-7l-1-6h-9l-1-2h-11c-0.5 0-1 0.5-1 1z" style="fill:#ff8f00"/>
 <rect x="14" y="18" width="11" height="4" style="fill:#fffdf0"/>
 <path d="m36 18.1v14.9h-24v-14h12l1-2h10c0.5 0 1 0.533 1 1.07z" style="fill:#ffca28"/>
 <path d="m19.7 18.9 3.5 1.73s2.15-0.605 2.74 0.637c0 0 1.14-0.398 2.34-0.023 0 0-0.469 0.551-0.434 1.82 0 0 0.297 5.23-3.72 7.04 0 0 1.22 1.39 0.461 2.8 0 0-0.168-0.691-0.785-1.36 0 0-0.93-0.895-0.965-1.27 0 0-1.2 0.16-1.75-0.59 0 0-0.551-0.434-1.03-0.484 0 0 1.7-0.398 3.22 0.266 0 0 1.23-0.777 1.4-1.64l-1.03 0.039s0.238-0.664 1.2-0.984c0 0-0.07-1.39-0.414-1.71 0 0-1.4-0.027-2.19 0.547 0 0 1.04-1.06 1.56-1.29 0 0-1.27-0.055-1.99 0.348 0 0 0.707-1.12 1.23-1.36 0 0-0.656-0.891-0.656-1.38 0 0-0.723-0.605-0.965-1.27l1.07 0.637s-1.34-1.88-2.78-2.52" style="fill:#403018;opacity:.4"/>
</svg>
