<svg version="1.1" viewBox="0 0 48 48" xmlns="http://www.w3.org/2000/svg">
 <defs>
  <linearGradient id="linearGradient4180" x1="1" x2="47" y1="-1.91e-6" y2="-1.91e-6" gradientTransform="translate(-48 1.91e-6)" gradientUnits="userSpaceOnUse">
   <stop style="stop-color:#77a4ff" offset="0"/>
   <stop style="stop-color:#8bb1ff" offset="1"/>
  </linearGradient>
 </defs>
 <path d="m36.3 5c5.86 4.06 9.69 10.8 9.69 18.5 0 12.4-10.1 22.5-22.5 22.5-7.67 0-14.4-3.83-18.5-9.69 1.04 1.82 2.31 3.5 3.78 4.97 4.08 3.71 9.51 5.97 15.5 5.97 12.7 0 23-10.3 23-23 0-5.95-2.26-11.4-5.97-15.5-1.47-1.48-3.15-2.74-4.97-3.78zm4.97 3.78c3.85 4.11 6.22 9.64 6.22 15.7 0 12.7-10.3 23-23 23-6.08 0-11.6-2.36-15.7-6.22 4.16 4.14 9.88 6.72 16.2 6.72 12.7 0 23-10.3 23-23 0-6.34-2.58-12.1-6.72-16.2z" style="opacity:.05"/>
 <path d="m41.3 8.78c3.71 4.08 5.97 9.51 5.97 15.5 0 12.7-10.3 23-23 23-5.95 0-11.4-2.26-15.5-5.97 4.11 3.85 9.64 6.22 15.7 6.22 12.7 0 23-10.3 23-23 0-6.08-2.36-11.6-6.22-15.7z" style="opacity:.1"/>
 <path d="m31.2 2.38c8.62 3.15 14.8 11.4 14.8 21.1 0 12.4-10.1 22.5-22.5 22.5-9.71 0-18-6.14-21.1-14.8a23 23 0 0 0 44.9-7 23 23 0 0 0-16-21.9z" style="opacity:.2"/>
 <circle transform="rotate(-90)" cx="-24" cy="24" r="23" style="fill:url(#linearGradient4180)"/>
 <g transform="matrix(3.54 0 0 3.54 .999 1.99)" style="opacity:.1">
  <path transform="matrix(.282 0 0 .282 -.282 -.562)" d="m14 16-1 0.99 0.00195 0.00977-0.00391 17h12v1.83c0 0.647 0.521 1.17 1.17 1.17h11.7c0.647 0 1.17-0.521 1.17-1.17v-7.66c0-0.647-0.521-1.17-1.17-1.17h-0.838v-7.93c0-0.531-0.5-1.07-1-1.07h-0.996c-2.99-0.016-6-0.0078-9-0.0078l-1-2z"/>
 </g>
 <path d="m40 7.53c3.71 4.08 5.97 9.51 5.97 15.5 0 12.7-10.3 23-23 23-5.95 0-11.4-2.26-15.5-5.97 4.18 4.29 10 6.97 16.5 6.97 12.7 0 23-10.3 23-23 0-6.46-2.68-12.3-6.97-16.5z" style="opacity:.1"/>
 <path d="m12 16v5.01h13l3.94e-4 -4.01-0.999-2h-11c-0.5 0-0.999 0.5-0.999 0.999z" style="fill:#ff8f00"/>
 <rect x="14" y="18" width="11" height="4" style="fill:#fffdf0"/>
 <path d="m36 18.1v14.9h-24v-14h12l0.999-2h10c0.5 0 0.999 0.535 0.999 1.07z" style="fill:#ffca28"/>
 <g transform="translate(4,4)" style="opacity:.1">
  <path transform="translate(-4,-4)" d="m32 22a5 5 0 0 0-5 5 5 5 0 0 0 5 5 5 5 0 0 0 4-2.01v-5.98a5 5 0 0 0-4-2.01zm0 1a3.5 3.5 0 0 1 3.5 3.5 3.5 3.5 0 0 1-3.5 3.5 3.5 3.5 0 0 1-3.5-3.5 3.5 3.5 0 0 1 3.5-3.5z"/>
 </g>
 <path d="m31 21a5 5 0 0 0-5 5 5 5 0 0 0 5 5 5 5 0 0 0 5-5 5 5 0 0 0-5-5zm0 1a3.5 3.5 0 0 1 3.5 3.5 3.5 3.5 0 0 1-3.5 3.5 3.5 3.5 0 0 1-3.5-3.5 3.5 3.5 0 0 1 3.5-3.5" style="fill:#b3b3b3"/>
 <rect x="24" y="26" width="14" height="10" rx="1.17" style="fill:#b3b3b3"/>
 <circle cx="31" cy="31" r="4" style="fill:#808080"/>
 <rect x="30" y="31" width="2" height="3" style="fill:#333"/>
 <circle cx="31" cy="30" r="2" style="fill:#333"/>
</svg>
