<?xml version="1.0" encoding="UTF-8" standalone="no"?>
<svg
   xmlns:dc="http://purl.org/dc/elements/1.1/"
   xmlns:cc="http://creativecommons.org/ns#"
   xmlns:rdf="http://www.w3.org/1999/02/22-rdf-syntax-ns#"
   xmlns:svg="http://www.w3.org/2000/svg"
   xmlns="http://www.w3.org/2000/svg"
   xmlns:xlink="http://www.w3.org/1999/xlink"
   xmlns:sodipodi="http://sodipodi.sourceforge.net/DTD/sodipodi-0.dtd"
   xmlns:inkscape="http://www.inkscape.org/namespaces/inkscape"
   viewBox="0 0 48 48"
   id="svg4011"
   version="1.1"
   inkscape:version="0.48.5 r10040"
   width="100%"
   height="100%"
   sodipodi:docname="file-manager-red.svg">
  <metadata
     id="metadata4090">
    <rdf:RDF>
      <cc:Work
         rdf:about="">
        <dc:format>image/svg+xml</dc:format>
        <dc:type
           rdf:resource="http://purl.org/dc/dcmitype/StillImage" />
      </cc:Work>
    </rdf:RDF>
  </metadata>
  <sodipodi:namedview
     pagecolor="#ffffff"
     bordercolor="#666666"
     borderopacity="1"
     objecttolerance="10"
     gridtolerance="10"
     guidetolerance="10"
     inkscape:pageopacity="0"
     inkscape:pageshadow="2"
     inkscape:window-width="1280"
     inkscape:window-height="998"
     id="namedview4088"
     showgrid="false"
     inkscape:zoom="9.8333332"
     inkscape:cx="29.433216"
     inkscape:cy="27.498947"
     inkscape:window-x="0"
     inkscape:window-y="0"
     inkscape:window-maximized="1"
     inkscape:current-layer="svg4011" />
  <defs
     id="defs4013">
    <linearGradient
       id="linearGradient3764"
       x1="1"
       x2="47"
       gradientUnits="userSpaceOnUse"
       gradientTransform="matrix(0,-1,1,0,-1.5e-6,47.999998)">
      <stop
         stop-color="#d52f2b"
         stop-opacity="1"
         id="stop4016" />
      <stop
         offset="1"
         stop-color="#d83f3d"
         stop-opacity="1"
         id="stop4018" />
    </linearGradient>
    <clipPath
       id="clipPath-265162442">
      <g
         transform="translate(0,-1004.3622)"
         id="g4021">
        <path
           d="m -24 13 c 0 1.105 -0.672 2 -1.5 2 -0.828 0 -1.5 -0.895 -1.5 -2 0 -1.105 0.672 -2 1.5 -2 0.828 0 1.5 0.895 1.5 2 z"
           transform="matrix(15.333333,0,0,11.5,414.99999,878.8622)"
           fill="#1890d0"
           id="path4023" />
      </g>
    </clipPath>
    <clipPath
       id="clipPath-276333788">
      <g
         transform="translate(0,-1004.3622)"
         id="g4026">
        <path
           d="m -24 13 c 0 1.105 -0.672 2 -1.5 2 -0.828 0 -1.5 -0.895 -1.5 -2 0 -1.105 0.672 -2 1.5 -2 0.828 0 1.5 0.895 1.5 2 z"
           transform="matrix(15.333333,0,0,11.5,414.99999,878.8622)"
           fill="#1890d0"
           id="path4028" />
      </g>
    </clipPath>
    <linearGradient
       inkscape:collect="always"
       xlink:href="#linearGradient3764"
       id="linearGradient5286"
       gradientUnits="userSpaceOnUse"
       gradientTransform="translate(-48.000001,0.00221506)"
       x1="1"
       x2="47" />
    <linearGradient
       id="linearGradient4140-8">
      <stop
         style="stop-color:#6e6196;stop-opacity:1;"
         offset="0"
         id="stop4143-5" />
      <stop
         style="stop-color:#847baf;stop-opacity:1;"
         offset="1"
         id="stop4145-4" />
    </linearGradient>
  </defs>
  <g
     id="g21">
    <path
       style="opacity:0.02000002"
       inkscape:connector-curvature="0"
       d="m 1,43 0,0.25 c 0,2.216 1.784,4 4,4 l 38,0 c 2.216,0 4,-1.784 4,-4 L 47,43 c 0,2.216 -1.784,4 -4,4 L 5,47 C 2.784,47 1,45.216 1,43 z m 0,0.5 0,0.5 c 0,2.216 1.784,4 4,4 l 38,0 c 2.216,0 4,-1.784 4,-4 l 0,-0.5 c 0,2.216 -1.784,4 -4,4 l -38,0 c -2.216,0 -4,-1.784 -4,-4 z"
       id="path23" />
    <path
       style="opacity:0.05"
       inkscape:connector-curvature="0"
       d="m 1,43.25 0,0.25 c 0,2.216 1.784,4 4,4 l 38,0 c 2.216,0 4,-1.784 4,-4 l 0,-0.25 c 0,2.216 -1.784,4 -4,4 l -38,0 c -2.216,0 -4,-1.784 -4,-4 z"
       id="path25" />
    <path
       style="opacity:0.1"
       inkscape:connector-curvature="0"
       d="m 1,43 0,0.25 c 0,2.216 1.784,4 4,4 l 38,0 c 2.216,0 4,-1.784 4,-4 L 47,43 c 0,2.216 -1.784,4 -4,4 L 5,47 C 2.784,47 1,45.216 1,43 z"
       id="path27" />
  </g>
  <rect
     id="rect31"
     transform="matrix(0,-1,1,0,0,0)"
     rx="4"
     y="1"
     x="-46.999996"
     height="46"
     width="46"
     style="fill:url(#linearGradient5286);fill-opacity:1.0" />
  <g
     id="g53">
    <g
       transform="translate(0,-1004.3622)"
       id="g55">
      <path
         style="opacity:0.1"
         inkscape:connector-curvature="0"
         d="m 1,1043.36 0,4 c 0,2.216 1.784,4 4,4 l 38,0 c 2.216,0 4,-1.784 4,-4 l 0,-4 c 0,2.216 -1.784,4 -4,4 l -38,0 c -2.216,0 -4,-1.784 -4,-4 z"
         id="path57" />
    </g>
  </g>
  <path
     inkscape:connector-curvature="0"
     style="fill:#000000;fill-opacity:0.10196078;stroke:none"
     d="m 14.999999,12.999999 c -1,0 -1,1 -1,2 l 0,0.250001 0,0.750001 0,2 c -0.193901,0 -0.385453,0.01148 -0.562501,0.0625 -0.05562,0.01531 -0.104074,0.04268 -0.156249,0.0625 -0.05622,0.02144 -0.102628,0.06751 -0.156249,0.09375 -0.06221,0.03122 -0.130188,0.05597 -0.187501,0.09375 -0.128371,0.08029 -0.237256,0.174755 -0.34375,0.281249 C 12.471136,18.716363 12.368695,18.848822 12.28125,19 12.11087,19.294552 12,19.633901 12,20 l 0,12 c 0,1.108 0.892001,2 2,2 l 20.000001,0 c 1.108,0 1.999998,-0.892 1.999998,-2 l 0,-12 c 0,-0.366099 -0.11087,-0.705449 -0.281267,-1 -0.08745,-0.151179 -0.189886,-0.283638 -0.312485,-0.40625 -0.105378,-0.110753 -0.217948,-0.198429 -0.343736,-0.28125 -0.05829,-0.03646 -0.125362,-0.06334 -0.187512,-0.09375 -0.05258,-0.02636 -0.09992,-0.07237 -0.15626,-0.09375 C 34.666969,18.10526 34.616232,18.07799 34.56248,18.0625 34.391147,18.01539 34.207626,18 33.99998,18 l 0,-1 c 0,-1 -1.000001,-2 -2,-2 l -12,0 c 0,-1 0,-2 -1,-2 l -4,0 z"
     id="path5050" />
  <path
     inkscape:connector-curvature="0"
     id="path2998"
     d="m 14.999998,13.999999 17.000001,0 c 1,0 1.999999,1.000001 1.999999,2 l 0,4 c 0,1.108 -0.445999,2 -0.999999,2 l -18.000001,0 c -0.554,0 -1,-0.892 -1,-2 l 0,-6 z"
     style="fill:#e9a439;fill-opacity:1;stroke:none"
     sodipodi:nodetypes="csssssscc" />
  <path
     style="opacity:0.02999998;fill:#000000;fill-opacity:1;stroke:none"
     d="m 13.999998,15.999999 0,5 20,0 0,-5 z"
     id="path3807"
     inkscape:connector-curvature="0" />
  <rect
     style="fill:#f5c14e;fill-opacity:1;stroke:none"
     id="rect2990"
     width="23.999998"
     height="16.000002"
     x="12"
     y="16.999998"
     rx="2"
     ry="2" />
  <path
     sodipodi:nodetypes="csssscc"
     inkscape:connector-curvature="0"
     id="path3000"
     d="m 13.999998,15 0,-1.000001 c 0,-1 0,-2 1,-2 l 4.000001,0 c 1,0 1,1 1,2 l 0,1.000001 z"
     style="fill:#e9a439;fill-opacity:1;stroke:none" />
  <path
     style="opacity:0.05;fill:#000000;fill-opacity:1;stroke:none"
     d="m 19.999999,13.999999 0,1.000001 1,0 11,0 c 1,0 1.999999,0.999999 1.999999,1.999999 l 0,-1 c 0,-0.999999 -0.999999,-2 -1.999999,-2 l -11,0 z"
     id="path3002"
     inkscape:connector-curvature="0"
     sodipodi:nodetypes="cccscsscc" />
  <path
     style="opacity:0.05;fill:#000000;fill-opacity:1;stroke:none"
     d="m 14.999998,11.999999 c -1,0 -1,1 -1,2 l 0,0.250002 c 0.04687,-0.703102 0.25,-1.250002 1,-1.250002 l 4.000001,0 c 0.75,0 0.953125,0.5469 1,1.250001 l 0,-0.250002 c 0,-1 0,-2 -1,-2 l -4.000001,0 z"
     id="path3780"
     inkscape:connector-curvature="0" />
  <path
     style="opacity:0.1;fill:#ffffff;fill-opacity:1;stroke:none"
     d="m 14,16.999999 c -0.830582,0 -1.346661,0.4031 -1.733211,1 l 23.467586,0 c -0.386543,-0.5969 -0.903791,-1 -1.734374,-1 z"
     id="rect2991"
     inkscape:connector-curvature="0"
     sodipodi:nodetypes="sccss" />
</svg>
