<?xml version="1.0" encoding="UTF-8"?>
<svg width="16" height="16" version="1.1" viewBox="0 0 4.2333332 4.2333335" xmlns="http://www.w3.org/2000/svg" xmlns:cc="http://creativecommons.org/ns#" xmlns:dc="http://purl.org/dc/elements/1.1/" xmlns:rdf="http://www.w3.org/1999/02/22-rdf-syntax-ns#">
 <metadata>
  <rdf:RDF>
   <cc:Work rdf:about="">
    <dc:format>image/svg+xml</dc:format>
    <dc:type rdf:resource="http://purl.org/dc/dcmitype/StillImage"/>
    <dc:title/>
   </cc:Work>
  </rdf:RDF>
 </metadata>
 <g transform="translate(0 -292.77)">
  <path d="m-3.3333e-8 295.41 3.3333e-8 1.5875h1.5875v-1.5875zm0.26458 0.26458l1.0583 1e-5v1.0583h-1.0583z"/>
  <rect x=".52917" y="295.94" width=".52917" height=".52917"/>
  <path d="m-3.3333e-8 292.77 3.3333e-8 1.5875h1.5875v-1.5875zm0.26458 0.26458l1.0583 1e-5v1.0583h-1.0583z"/>
  <rect x=".52917" y="293.3" width=".52917" height=".52917"/>
  <path d="m2.6458 292.77v1.5875h1.5875v-1.5875zm0.26458 0.26458 1.0583 1e-5v1.0583h-1.0583z"/>
  <rect x="3.175" y="293.3" width=".52917" height=".52917"/>
  <rect transform="rotate(90)" x="296.21" y="-4.2333" width=".52917" height=".26458"/>
  <rect x="3.4396" y="296.74" width=".52917" height=".2646"/>
  <rect transform="matrix(0,-1,-1,0,0,0)" x="-296.47" y="-2.9104" width=".26458" height=".26458"/>
  <rect transform="scale(-1,1)" x="-2.6458" y="296.74" width=".52917" height=".26458"/>
  <rect transform="scale(-1,1)" x="-3.7042" y="296.21" width=".26458" height=".26458"/>
  <rect transform="scale(-1)" x="-.79375" y="-294.88" width=".52917" height=".26458"/>
  <rect transform="scale(-1)" x="-1.3229" y="-295.15" width=".52917" height=".26458"/>
  <rect transform="scale(-1)" x="-1.8521" y="-294.88" width=".52917" height=".26458"/>
  <rect transform="rotate(-90)" x="-295.68" y="1.8521" width=".52917" height=".26458"/>
  <rect transform="matrix(0,-1,-1,0,0,0)" x="-293.56" y="-2.1167" width=".52917" height=".26458"/>
  <rect transform="matrix(0,-1,-1,0,0,0)" x="-294.09" y="-2.3812" width=".52917" height=".26458"/>
  <rect transform="matrix(0,-1,-1,0,0,0)" x="-294.62" y="-2.1167" width=".52917" height=".26458"/>
  <rect transform="matrix(0,-1,-1,0,0,0)" x="-295.41" y="-4.2333" width=".52917" height=".26458"/>
  <rect transform="matrix(0,-1,-1,0,0,0)" x="-297" y="-3.175" width=".26457" height=".26458"/>
  <rect transform="matrix(0,-1,-1,0,0,0)" x="-297" y="-2.3812" width=".52917" height=".26458"/>
  <rect transform="scale(-1,1)" x="-4.2333" y="294.88" width=".52917" height=".26458"/>
  <rect transform="scale(-1)" x="-2.9104" y="-294.88" width=".52917" height=".26458"/>
  <rect transform="matrix(0,-1,-1,0,0,0)" x="-295.94" y="-3.175" width=".26458" height=".26458"/>
  <rect transform="matrix(0,-1,-1,0,0,0)" x="-295.68" y="-3.7042" width=".26458" height=".26458"/>
  <rect transform="matrix(0,-1,-1,0,0,0)" x="-295.15" y="-3.4396" width=".52915" height=".26458"/>
  <rect transform="matrix(0,-1,-1,0,0,0)" x="-296.21" y="-2.3813" width=".26458" height=".52917"/>
  <rect transform="matrix(0,-1,-1,0,0,0)" x="-296.21" y="-3.175" width=".26458" height=".26458"/>
  <rect transform="matrix(0,-1,-1,0,0,0)" x="-295.94" y="-3.4396" width=".26458" height=".26458"/>
  <rect transform="matrix(0,-1,-1,0,0,0)" x="-295.94" y="-3.7042" width=".26458" height=".26458"/>
  <rect transform="matrix(0,-1,-1,0,0,0)" x="-296.47" y="-3.175" width=".26458" height=".26458"/>
  <rect transform="rotate(-90)" x="-295.68" y="2.3813" width=".52917" height=".26458"/>
  <rect x="2.3812" y="295.15" width=".52917" height=".26458"/>
  <rect transform="scale(-1,1)" x="-4.2333" y="295.68" width=".26458" height=".26458"/>
  <rect transform="scale(-1,1)" x="-4.2333" y="296.74" width=".26458" height=".26458"/>
 </g>
</svg>
