<svg version="1.1" viewBox="0 0 48 48" xmlns="http://www.w3.org/2000/svg">
 <defs>
  <linearGradient id="linearGradient3764" x1="1" x2="47" gradientTransform="matrix(0 -1 1 0 -1.5e-6 48)" gradientUnits="userSpaceOnUse">
   <stop style="stop-color:#b44732" offset="0"/>
   <stop style="stop-color:#c44e36" offset="1"/>
  </linearGradient>
 </defs>
 <path d="m36.3 5c5.86 4.06 9.69 10.8 9.69 18.5 0 12.4-10.1 22.5-22.5 22.5-7.67 0-14.4-3.83-18.5-9.69 1.04 1.82 2.31 3.5 3.78 4.97 4.08 3.71 9.51 5.97 15.5 5.97 12.7 0 23-10.3 23-23 0-5.95-2.26-11.4-5.97-15.5-1.47-1.48-3.15-2.74-4.97-3.78zm4.97 3.78c3.85 4.11 6.22 9.64 6.22 15.7 0 12.7-10.3 23-23 23-6.08 0-11.6-2.36-15.7-6.22 4.16 4.14 9.88 6.72 16.2 6.72 12.7 0 23-10.3 23-23 0-6.34-2.58-12.1-6.72-16.2z" style="opacity:.05"/>
 <path d="m41.3 8.78c3.71 4.08 5.97 9.51 5.97 15.5 0 12.7-10.3 23-23 23-5.95 0-11.4-2.26-15.5-5.97 4.11 3.85 9.64 6.22 15.7 6.22 12.7 0 23-10.3 23-23 0-6.08-2.36-11.6-6.22-15.7z" style="opacity:.1"/>
 <path d="m31.2 2.38c8.62 3.15 14.8 11.4 14.8 21.1 0 12.4-10.1 22.5-22.5 22.5-9.71 0-18-6.14-21.1-14.8a23 23 0 0 0 44.9-7 23 23 0 0 0-16-21.9z" style="opacity:.2"/>
 <path d="m24 1c12.7 0 23 10.3 23 23s-10.3 23-23 23-23-10.3-23-23 10.3-23 23-23z" style="fill:url(#linearGradient3764)"/>
 <path d="m40 7.53c3.71 4.08 5.97 9.51 5.97 15.5 0 12.7-10.3 23-23 23-5.95 0-11.4-2.26-15.5-5.97 4.18 4.29 10 6.97 16.5 6.97 12.7 0 23-10.3 23-23 0-6.46-2.68-12.3-6.97-16.5z" style="opacity:.1"/>
 <path d="m16 14-3 19c0 1.11 0.892 2 2 2h20c1.11 0 2-0.892 2-2v-12c0-0.366-0.111-0.705-0.281-1-0.087-0.151-0.19-0.284-0.313-0.406-0.105-0.111-0.218-0.198-0.344-0.281-0.058-0.036-0.125-0.063-0.188-0.094-0.053-0.026-0.1-0.072-0.156-0.094-0.052-0.02-0.103-0.047-0.156-0.063-0.171-0.047-0.355-0.063-0.563-0.063v-1c0-1-1-2-2-2h-12c0-1 0-2-1-2z" style="fill-opacity:.102"/>
 <path d="m15 15h17c1 0 2 1 2 2v4c0 1.11-0.446 2-1 2h-18c-0.554 0-1-0.892-1-2v-6z" style="fill:#e9a439"/>
 <rect x="12" y="18" width="24" height="16" rx="2" style="fill:#f5c14e"/>
 <path d="m14 16v-1c0-1 0-2 1-2h4c1 0 1 1 1 2v1z" style="fill:#e9a439"/>
 <path d="m20 15v1h12c1 0 2 1 2 2v-1c0-1-1-2-2-2h-11z" style="opacity:.05"/>
 <path d="m15 13c-1 0-1 1-1 2v0.25c0.047-0.703 0.25-1.25 1-1.25h4c0.75 0 0.953 0.547 1 1.25v-0.25c0-1 0-2-1-2h-4z" style="opacity:.05"/>
 <path d="m14 18c-0.831 0-1.35 0.403-1.73 1h23.5c-0.387-0.597-0.904-1-1.73-1z" style="fill:#fff;opacity:.1"/>
 <path d="m24 19-0.715 1.64 0.191 0.434c-1.15 0.078-0.926 0.313-0.926 0.313s-1.33 0.246-1.33 0.43v0.016c-0.266 0.129-0.527 0.309-0.777 0.504-3.34 4.49 0.234 5.53-0.559 8.13-0.172 0.566-0.891 1.53-0.891 1.53s1.45 0.18 2.05-1.52c0.484-1.37-1.16-4.13 0.066-5.36 1.73-1.75 3.02 1.86 2.48 2.36-0.551 0.5-0.414 0.637-0.414 0.637l0.82 1.66 0.816-1.66s0.141-0.137-0.41-0.637c-0.547-0.5 0.742-4.11 2.47-2.36 1.23 1.24-0.418 3.99 0.07 5.36 0.598 1.7 2.05 1.52 2.05 1.52s-0.715-0.969-0.891-1.53c-0.793-2.6 2.77-3.64-0.566-8.13-0.25-0.188-0.512-0.371-0.773-0.5v-0.016c0-0.188-1.32-0.43-1.32-0.43s0.227-0.234-0.93-0.313l0.188-0.434-0.711-1.64" style="fill:#3c2f1b;opacity:.3"/>
</svg>
