<svg xmlns="http://www.w3.org/2000/svg" viewBox="0 0 48 48">
 <defs>
  <linearGradient id="linearGradient4268" x1="1" x2="47" gradientUnits="userSpaceOnUse" gradientTransform="matrix(0,-1,1,0,0,48)">
   <stop style="stop-color:#e4e4e4;stop-opacity:1"/>
   <stop offset="1" style="stop-color:#eee;stop-opacity:1"/>
  </linearGradient>
 </defs>
 <g>
  <path d="m 36.31 5 c 5.859 4.062 9.688 10.831 9.688 18.5 c 0 12.426 -10.07 22.5 -22.5 22.5 c -7.669 0 -14.438 -3.828 -18.5 -9.688 c 1.037 1.822 2.306 3.499 3.781 4.969 c 4.085 3.712 9.514 5.969 15.469 5.969 c 12.703 0 23 -10.298 23 -23 c 0 -5.954 -2.256 -11.384 -5.969 -15.469 c -1.469 -1.475 -3.147 -2.744 -4.969 -3.781 z m 4.969 3.781 c 3.854 4.113 6.219 9.637 6.219 15.719 c 0 12.703 -10.297 23 -23 23 c -6.081 0 -11.606 -2.364 -15.719 -6.219 c 4.16 4.144 9.883 6.719 16.219 6.719 c 12.703 0 23 -10.298 23 -23 c 0 -6.335 -2.575 -12.06 -6.719 -16.219 z" style="opacity:0.05"/>
  <path d="m 41.28 8.781 c 3.712 4.085 5.969 9.514 5.969 15.469 c 0 12.703 -10.297 23 -23 23 c -5.954 0 -11.384 -2.256 -15.469 -5.969 c 4.113 3.854 9.637 6.219 15.719 6.219 c 12.703 0 23 -10.298 23 -23 c 0 -6.081 -2.364 -11.606 -6.219 -15.719 z" style="opacity:0.1"/>
  <path d="m 31.25 2.375 c 8.615 3.154 14.75 11.417 14.75 21.13 c 0 12.426 -10.07 22.5 -22.5 22.5 c -9.708 0 -17.971 -6.135 -21.12 -14.75 a 23 23 0 0 0 44.875 -7 a 23 23 0 0 0 -16 -21.875 z" style="opacity:0.2"/>
 </g>
 <path d="M 1,24 C 1,11.297 11.297,1 24,1 36.703,1 47,11.297 47,24 47,36.703 36.703,47 24,47 11.297,47 1,36.703 1,24 Z" style="fill:url(#linearGradient4268);fill-opacity:1"/>
 <g>
  <path d="m 40.03 7.531 c 3.712 4.084 5.969 9.514 5.969 15.469 0 12.703 -10.297 23 -23 23 c -5.954 0 -11.384 -2.256 -15.469 -5.969 4.178 4.291 10.01 6.969 16.469 6.969 c 12.703 0 23 -10.298 23 -23 0 -6.462 -2.677 -12.291 -6.969 -16.469 z" style="opacity:0.1"/>
 </g>
 <path d="m 16 14 c -1 0 -1 1 -1 2 l 0 0.25 0 0.75 0 2 c -0.194 0 -0.385 0.011 -0.563 0.063 -0.056 0.015 -0.104 0.043 -0.156 0.063 -0.056 0.021 -0.103 0.068 -0.156 0.094 -0.062 0.031 -0.13 0.056 -0.188 0.094 -0.128 0.08 -0.237 0.175 -0.344 0.281 c -0.123 0.123 -0.225 0.255 -0.313 0.406 -0.17 0.295 -0.281 0.634 -0.281 1 l 0 12 c 0 1.108 0.892 2 2 2 l 20 0 c 1.108 0 2 -0.892 2 -2 l 0 -12 c 0 -0.366 -0.111 -0.705 -0.281 -1 -0.087 -0.151 -0.19 -0.284 -0.313 -0.406 -0.105 -0.111 -0.218 -0.198 -0.344 -0.281 -0.058 -0.036 -0.125 -0.063 -0.188 -0.094 -0.053 -0.026 -0.1 -0.072 -0.156 -0.094 -0.052 -0.02 -0.103 -0.047 -0.156 -0.063 -0.171 -0.047 -0.355 -0.063 -0.563 -0.063 l 0 -1 c 0 -1 -1 -2 -2 -2 l -12 0 c 0 -1 0 -2 -1 -2 l -4 0 z" style="fill:#000;fill-opacity:0.102;stroke:none"/>
 <path d="m 16 15 l 0 5 l 5 0 l 0 -5 l -5 0 z" style="fill:#5a945c;opacity:1;fill-opacity:1;stroke:none;fill-rule:nonzero"/>
 <path d="m 14 17 0 5 20 0 0 -5 z" style="fill:#000;opacity:0.03;fill-opacity:1;stroke:none"/>
 <path d="m 16 18 l 0 16 l 5 0 l 0 -16 l -5 0 z" style="fill:#9add9c;opacity:1;fill-opacity:1;stroke:none;fill-rule:nonzero"/>
 <path d="m 14 15 l 0 5 l 2 0 l 0 -5 l -1 0 l -1 0 z" style="fill:#617fa1;opacity:1;fill-opacity:1;stroke:none;fill-rule:nonzero"/>
 <path d="m 15 13 c -1 0 -1 1 -1 2 l 0 1 l 2 0 l 0 -3 l -1 0 z" style="fill:#617fa1;opacity:1;fill-opacity:1;stroke:none;fill-rule:nonzero"/>
 <path d="m 14 18 c -1.108 0 -2 0.892 -2 2 l 0 12 c 0 1.108 0.892 2 2 2 l 2 0 l 0 -16 l -2 0 z" style="fill:#9ab9dd;opacity:1;fill-opacity:1;stroke:none;fill-rule:nonzero"/>
 <path d="m 16 13 l 0 3 l 4 0 l 0 -1 c 0 -1 0 -2 -1 -2 l -3 0 z" style="fill:#5a945c;opacity:1;fill-opacity:1;stroke:none;fill-rule:nonzero"/>
 <path d="m 15 13 c -1 0 -1 1 -1 2 l 0 0.25 c 0.047 -0.703 0.25 -1.25 1 -1.25 l 4 0 c 0.75 0 0.953 0.547 1 1.25 l 0 -0.25 c 0 -1 0 -2 -1 -2 l -4 0 z" style="fill:#000;opacity:0.05;fill-opacity:1;stroke:none"/>
 <path d="m 14 18 c -0.831 0 -1.347 0.403 -1.733 1 l 23.468 0 c -0.387 -0.597 -0.904 -1 -1.734 -1 z" style="fill:#fff;opacity:0.1;fill-opacity:1;stroke:none"/>
 <path d="m 27 15 l 0 5 l 5 0 l 0 -5 l -5 0 z" style="fill:#cf8d27;opacity:1;fill-opacity:1;stroke:none;fill-rule:nonzero"/>
 <path d="m 27 18 l 0 16 l 5 0 l 0 -16 l -5 0 z" style="fill:#edb968;opacity:1;fill-opacity:1;stroke:none;fill-rule:nonzero"/>
 <path d="m 21 15 l 0 5 l 6 0 l 0 -5 l -6 0 z" style="fill:#cdc22c;opacity:1;fill-opacity:1;stroke:none;fill-rule:nonzero"/>
 <path d="m 32 15 l 0 5 l 2 0 l 0 -3 c 0 -1 -1 -2 -2 -2 z" style="fill:#cf5829;opacity:1;fill-opacity:1;stroke:none;fill-rule:nonzero"/>
 <path d="m 32 18 l 0 16 l 2 0 c 1.108 0 2 -0.892 2 -2 l 0 -12 c 0 -1.108 -0.892 -2 -2 -2 l -2 0 z" style="fill:#ed8e68;opacity:1;fill-opacity:1;stroke:none;fill-rule:nonzero"/>
 <path d="m 21 18 l 0 16 l 6 0 l 0 -16 l -6 0 z" style="fill:#f3f284;opacity:1;fill-opacity:1;stroke:none;fill-rule:nonzero"/>
 <path d="m 20 15 0 1 1 0 11 0 c 1 0 2 1 2 2 l 0 -1 c 0 -1 -1 -2 -2 -2 l -11 0 z" style="fill:#000;opacity:0.05;fill-opacity:1;stroke:none"/>
</svg>
