<?xml version="1.0" encoding="UTF-8" standalone="no"?>
<svg
   xmlns:dc="http://purl.org/dc/elements/1.1/"
   xmlns:cc="http://creativecommons.org/ns#"
   xmlns:rdf="http://www.w3.org/1999/02/22-rdf-syntax-ns#"
   xmlns:svg="http://www.w3.org/2000/svg"
   xmlns="http://www.w3.org/2000/svg"
   xmlns:sodipodi="http://sodipodi.sourceforge.net/DTD/sodipodi-0.dtd"
   xmlns:inkscape="http://www.inkscape.org/namespaces/inkscape"
   width="256"
   height="256"
   viewBox="0 0 256 256"
   id="svg2"
   version="1.1"
   inkscape:version="0.48.4 r9939"
   sodipodi:docname="fileopen.svg">
  <metadata
     id="metadata28">
    <rdf:RDF>
      <cc:Work
         rdf:about="">
        <dc:format>image/svg+xml</dc:format>
        <dc:type
           rdf:resource="http://purl.org/dc/dcmitype/StillImage" />
      </cc:Work>
    </rdf:RDF>
  </metadata>
  <defs
     id="defs26" />
  <sodipodi:namedview
     pagecolor="#ffffff"
     bordercolor="#666666"
     borderopacity="1"
     objecttolerance="10"
     gridtolerance="10"
     guidetolerance="10"
     inkscape:pageopacity="0"
     inkscape:pageshadow="2"
     inkscape:window-width="678"
     inkscape:window-height="480"
     id="namedview24"
     showgrid="false"
     inkscape:zoom="0.921875"
     inkscape:cx="130.16949"
     inkscape:cy="121.49153"
     inkscape:window-x="0"
     inkscape:window-y="0"
     inkscape:window-maximized="0"
     inkscape:current-layer="svg2" />
  <path
     style="fill:#e9a439;stroke:#e9a439;fill-opacity:1;stroke-opacity:1"
     d="M 4.34668 25.5 C 3.887207 25.453125 3.5 24.991699 3.5 24.498047 L 3.5 5.506836 C 3.5 4.97998 3.945801 4.5 4.4375 4.5 L 27.5625 4.5 C 28.054199 4.5 28.5 4.97998 28.5 5.506836 L 28.5 21.741699 C 28.5 22.268555 27.781738 23.025391 27.290527 23.025391 L 18.825195 23.010254 L 18.825195 24.334473 C 18.825195 24.856934 18.414062 25.5 17.925293 25.5 L 4.4375 25.5 C 4.408203 25.5 4.378906 25.5 4.34668 25.5 Z "
     transform="scale(8)"
     id="path4" />
  <path
     style="fill:#fff"
     d="M 56 56 L 200 56 L 200 200 L 56 200 Z "
     id="path6" />
  <g
     style="fill:#ccc"
     id="g8">
    <path
       d="M 72 152 L 184 152 L 184 160 L 72 160 Z "
       id="path10" />
    <path
       d="M 72 136 L 184 136 L 184 144 L 72 144 Z "
       id="path12" />
    <path
       d="M 72 120 L 184 120 L 184 128 L 72 128 Z "
       id="path14" />
    <path
       d="M 72 104 L 184 104 L 184 112 L 72 112 Z "
       id="path16" />
    <path
       d="M 72 88 L 184 88 L 184 96 L 72 96 Z "
       id="path18" />
    <path
       d="M 72 72 L 184 72 L 184 80 L 72 80 Z "
       id="path20" />
  </g>
  <path
     style="fill:#f5c14e;stroke:#e9a439;fill-opacity:1;stroke-opacity:1"
     d="M 1.549805 13.5 C 0.980469 13.53125 0.507324 14.177246 0.506836 14.506348 L 0.5 26.828613 C 0.5 27.180176 1.053223 27.5 1.662598 27.5 L 30.337402 27.5 C 30.946777 27.5 31.499023 27.180176 31.5 26.828613 L 31.523926 16.484863 C 31.524902 16.133789 31.041016 15.510254 30.431641 15.509277 L 19.527344 15.495117 L 19.503418 14.276855 C 19.496582 13.928711 18.993164 13.5 18.387695 13.5 L 1.662598 13.5 C 1.626465 13.5 1.589844 13.5 1.549805 13.5 Z "
     transform="scale(8)"
     id="path22" />
</svg>
