
<svg xmlns="http://www.w3.org/2000/svg" xmlns:xlink="http://www.w3.org/1999/xlink" width="256px" height="256px" viewBox="0 0 256 256" version="1.1">
<g id="surface1">
<path style=" stroke:none;fill-rule:nonzero;fill:rgb(91.372549%,69.019608%,50.196078%);fill-opacity:1;" d="M 36 32 C 30.140625 32 24 38.046875 24 44 L 24 48 L 12 48 C 6.117188 48 0 53.984375 0 60 L 0 212 C 0 220 4 224 12 224 L 244 224 C 250.273438 224 256 218.570312 256 212 L 256 80 C 256 73.976562 250.179688 68 244 68 L 232 68 L 232 44 C 232 38.15625 226.1875 32 220 32 Z M 36 32 "/>
<path style=" stroke:none;fill-rule:nonzero;fill:rgb(0%,0%,0%);fill-opacity:0.321569;" d="M 36 32 C 30.140625 32 24 38.046875 24 44 L 24 48 L 12 48 C 6.117188 48 0 53.984375 0 60 L 0 212 C 0 220 4 224 12 224 L 244 224 C 250.273438 224 256 218.570312 256 212 L 256 80 C 256 73.976562 250.179688 68 244 68 L 232 68 L 232 44 C 232 38.15625 226.1875 32 220 32 Z M 12 56 L 148 56 C 150.359375 56 152 58.0625 152 60 L 152 76 L 244 76 C 246.023438 76 248 78.03125 248 80 L 248 212 C 248 214.085938 246.085938 216 244 216 L 12 216 C 10.140625 216 8 214.414062 8 212 L 8 60 C 8 58.03125 10.0625 56 12 56 Z M 12 56 "/>
<path style=" stroke:none;fill-rule:nonzero;fill:rgb(0%,0%,0%);fill-opacity:0.321569;" d="M 143.429688 96 C 132.195312 96 122.929688 104.757812 122.929688 115.710938 C 123.015625 119.46875 123.21875 124.234375 125.351562 134.289062 L 125.578125 134.289062 C 126.007812 135.625 126.671875 136.945312 127.78125 138.367188 C 128.773438 139.648438 130.09375 141.101562 131.304688 142.445312 C 131.679688 145.289062 131.742188 147.773438 131.304688 150.835938 C 127.96875 153.4375 121.953125 155.867188 116.539062 158.085938 C 113.710938 159.242188 111.101562 160.304688 109.039062 161.710938 C 107.070312 163.046875 105.648438 164.859375 105.515625 167.148438 C 105.507812 167.257812 105.289062 167.265625 105.289062 167.367188 L 102.867188 186.632812 L 102.867188 186.859375 C 102.867188 189.242188 104.414062 191.195312 106.617188 192.75 C 108.8125 194.304688 111.804688 195.515625 115.429688 196.601562 C 122.695312 198.765625 132.546875 200 143.429688 200 C 154.320312 200 164.171875 198.765625 171.429688 196.601562 C 175.0625 195.515625 178.054688 194.304688 180.25 192.75 C 182.453125 191.195312 184 189.242188 184 186.859375 L 184 186.632812 L 181.351562 167.367188 C 181.351562 167.296875 181.359375 167.21875 181.351562 167.148438 C 181.289062 166.054688 180.90625 164.984375 180.25 164.203125 C 179.554688 163.359375 178.632812 162.820312 177.609375 162.164062 C 175.554688 160.84375 172.9375 159.734375 170.109375 158.539062 C 164.625 156.210938 158.617188 153.585938 155.335938 150.835938 C 155.09375 148.203125 155.078125 145.53125 155.335938 142.898438 C 156.523438 141.460938 157.851562 139.976562 158.867188 138.59375 C 159.992188 137.054688 160.84375 135.664062 161.289062 134.289062 C 163.703125 123.820312 163.8125 119.546875 163.9375 115.710938 C 163.9375 104.757812 154.664062 96 143.429688 96 Z M 105.289062 99.625 C 96.0625 99.625 88.539062 106.945312 88.539062 115.9375 C 88.601562 119.023438 88.765625 122.640625 90.523438 130.890625 L 90.523438 131.125 C 90.875 132.226562 91.578125 133.109375 92.507812 134.296875 C 93.3125 135.328125 94.390625 136.609375 95.367188 137.695312 C 95.664062 139.96875 95.703125 142.273438 95.367188 144.71875 C 92.648438 146.867188 87.710938 148.796875 83.242188 150.609375 C 80.929688 151.546875 78.976562 152.40625 77.289062 153.554688 C 75.695312 154.632812 74.5625 156.242188 74.421875 158.085938 C 74.414062 158.195312 74.203125 158.203125 74.203125 158.3125 L 72 173.945312 L 72 174.171875 C 72 175.640625 72.6875 176.914062 73.765625 178.023438 C 74.84375 179.132812 76.34375 180.148438 78.171875 180.96875 C 81.789062 182.585938 86.9375 183.703125 93.164062 184.367188 L 93.382812 184.367188 C 93.726562 184.367188 94.0625 184.273438 94.265625 184.140625 C 94.523438 183.96875 94.820312 183.84375 94.929688 183.6875 C 95.148438 183.375 95.273438 183.0625 95.367188 182.78125 C 95.53125 182.289062 95.570312 181.703125 95.59375 181.195312 C 95.59375 181.125 95.59375 181.046875 95.59375 180.976562 L 98.015625 161.710938 C 98.015625 160.929688 98.546875 159.976562 99.78125 158.992188 C 101.015625 158.007812 102.890625 157.023438 105.070312 156.046875 C 109.4375 154.101562 114.976562 152.296875 119.398438 149.929688 L 121.828125 148.570312 L 119.398438 147.4375 C 117.648438 146.5625 116.3125 145.609375 115.210938 144.71875 C 115 142.484375 114.984375 140.15625 115.210938 137.921875 C 115.21875 137.851562 115.203125 137.773438 115.210938 137.695312 C 116.890625 135.375 118.171875 132.960938 118.742188 131.578125 L 118.960938 131.132812 L 118.742188 130.679688 C 118.546875 129.554688 118.609375 128.703125 118.296875 127.734375 C 116.1875 117.796875 115.953125 113.695312 115.875 110.0625 C 115.875 108.53125 116.226562 106.757812 116.757812 105.078125 L 117.195312 104.171875 L 116.3125 103.726562 C 113.367188 101.304688 109.476562 99.640625 105.289062 99.640625 Z M 105.289062 99.625 "/>
</g>
</svg>
