<?xml version="1.0" encoding="UTF-8" standalone="no"?>
<svg
   xmlns:dc="http://purl.org/dc/elements/1.1/"
   xmlns:cc="http://creativecommons.org/ns#"
   xmlns:rdf="http://www.w3.org/1999/02/22-rdf-syntax-ns#"
   xmlns:svg="http://www.w3.org/2000/svg"
   xmlns="http://www.w3.org/2000/svg"
   xmlns:sodipodi="http://sodipodi.sourceforge.net/DTD/sodipodi-0.dtd"
   xmlns:inkscape="http://www.inkscape.org/namespaces/inkscape"
   width="256"
   height="256"
   viewBox="0 0 256 256"
   id="svg3039"
   version="1.1"
   inkscape:version="0.48.4 r9939"
   sodipodi:docname="folder-documents.svg">
  <metadata
     id="metadata3053">
    <rdf:RDF>
      <cc:Work
         rdf:about="">
        <dc:format>image/svg+xml</dc:format>
        <dc:type
           rdf:resource="http://purl.org/dc/dcmitype/StillImage" />
      </cc:Work>
    </rdf:RDF>
  </metadata>
  <defs
     id="defs3051" />
  <sodipodi:namedview
     pagecolor="#ffffff"
     bordercolor="#666666"
     borderopacity="1"
     objecttolerance="10"
     gridtolerance="10"
     guidetolerance="10"
     inkscape:pageopacity="0"
     inkscape:pageshadow="2"
     inkscape:window-width="678"
     inkscape:window-height="480"
     id="namedview3049"
     showgrid="false"
     inkscape:zoom="0.921875"
     inkscape:cx="213.69492"
     inkscape:cy="105.22034"
     inkscape:window-x="0"
     inkscape:window-y="0"
     inkscape:window-maximized="0"
     inkscape:current-layer="svg3039" />
  <path
     inkscape:connector-curvature="0"
     id="path3009"
     d="m 34.773437,204 c -3.67578,-0.375 -6.77344,-4.06641 -6.77344,-8.01562 l 0,-151.929694 c 0,-4.214848 3.56641,-8.054688 7.5,-8.054688 l 185.000003,0 c 3.93359,0 7.5,3.83984 7.5,8.054688 l 0,129.878904 c 0,4.21485 -5.7461,10.26954 -9.67578,10.26954 l -67.72266,-0.12112 0,10.59375 c 0,4.17969 -3.28906,9.32422 -7.19922,9.32422 L 35.499997,204 c -0.23437,0 -0.46875,0 -0.72656,0 z"
     style="fill:#e9a439;fill-opacity:1;stroke:#e9a439;stroke-width:8;stroke-opacity:1" />
  <path
     inkscape:connector-curvature="0"
     id="path3011"
     d="M 12.39844,51.999998 C 7.843752,52.374998 4,56.066406 4,60.015622 L 4,211.94531 C 4,216.16016 8.425784,220 13.300784,220 l 229.398436,0 C 247.57422,220 252,216.16016 252,211.94531 L 252,82.066406 C 252,77.851558 244.875,71.79687 240,71.79687 l -83.97266,0.121096 0,-10.593752 c 0,-4.179688 -4.08203,-9.324216 -8.92578,-9.324216 l -133.800776,0 c -0.289064,0 -0.582032,0 -0.902344,0 z"
     style="fill:#f5c14e;fill-opacity:1;stroke:#e9a439;stroke-width:8;stroke-opacity:1" />
  <path
     style="fill:#d0a444;fill-opacity:1"
     d="M 102.375 104.003906 C 97.042969 104.003906 95.945312 108.1875 96 109.5625 L 96.011719 186.667969 C 96.011719 192 99.761719 192.03125 101.34375 192 L 154.664062 192 C 159.996094 192 160.027344 188.191406 159.996094 186.667969 L 160 112.003906 L 152 104.003906 Z M 104 112.003906 L 144 112.003906 L 144 120.003906 L 152 120.003906 L 152 152.003906 L 120 152.003906 L 120 184.003906 L 104 184.003906 Z M 128 160.003906 L 144 160.003906 L 128 176.003906 Z "
     id="path3047" />
</svg>
