<?xml version="1.0" encoding="UTF-8" standalone="no"?>
<svg
   xmlns:dc="http://purl.org/dc/elements/1.1/"
   xmlns:cc="http://creativecommons.org/ns#"
   xmlns:rdf="http://www.w3.org/1999/02/22-rdf-syntax-ns#"
   xmlns:svg="http://www.w3.org/2000/svg"
   xmlns="http://www.w3.org/2000/svg"
   xmlns:sodipodi="http://sodipodi.sourceforge.net/DTD/sodipodi-0.dtd"
   xmlns:inkscape="http://www.inkscape.org/namespaces/inkscape"
   width="256"
   height="256"
   viewBox="0 0 256 256"
   id="svg3219"
   version="1.1"
   inkscape:version="0.48.4 r9939"
   sodipodi:docname="folder-saved-search.svg">
  <metadata
     id="metadata3233">
    <rdf:RDF>
      <cc:Work
         rdf:about="">
        <dc:format>image/svg+xml</dc:format>
        <dc:type
           rdf:resource="http://purl.org/dc/dcmitype/StillImage" />
      </cc:Work>
    </rdf:RDF>
  </metadata>
  <defs
     id="defs3231" />
  <sodipodi:namedview
     pagecolor="#ffffff"
     bordercolor="#666666"
     borderopacity="1"
     objecttolerance="10"
     gridtolerance="10"
     guidetolerance="10"
     inkscape:pageopacity="0"
     inkscape:pageshadow="2"
     inkscape:window-width="678"
     inkscape:window-height="480"
     id="namedview3229"
     showgrid="false"
     inkscape:zoom="0.921875"
     inkscape:cx="222.37288"
     inkscape:cy="119.32203"
     inkscape:window-x="0"
     inkscape:window-y="0"
     inkscape:window-maximized="0"
     inkscape:current-layer="svg3219" />
  <path
     inkscape:connector-curvature="0"
     id="path3009"
     d="m 34.773439,204 c -3.67578,-0.375 -6.77344,-4.06641 -6.77344,-8.01562 l 0,-151.929688 c 0,-4.214848 3.56641,-8.054688 7.5,-8.054688 l 185.000001,0 c 3.93359,0 7.5,3.83984 7.5,8.054688 l 0,129.878898 c 0,4.21485 -5.7461,10.26954 -9.67578,10.26954 l -67.72266,-0.12112 0,10.59375 c 0,4.17969 -3.28906,9.32422 -7.19922,9.32422 L 35.499999,204 c -0.23438,0 -0.46875,0 -0.72656,0 z"
     style="fill:#e9a439;fill-opacity:1;stroke:#e9a439;stroke-width:8;stroke-opacity:1" />
  <path
     inkscape:connector-curvature="0"
     id="path3011"
     d="M 12.39844,52.000004 C 7.843752,52.375004 4,56.066412 4,60.015628 L 4,211.94531 C 4,216.16016 8.425784,220 13.300784,220 l 229.398436,0 c 4.875,0 9.30078,-3.83984 9.30078,-8.05469 l 0,-129.878898 c 0,-4.214848 -7.125,-10.269536 -12,-10.269536 l -83.97266,0.121096 0,-10.593752 c 0,-4.179688 -4.08203,-9.324216 -8.92578,-9.324216 l -133.800776,0 c -0.289064,0 -0.582032,0 -0.902344,0 z"
     style="fill:#f5c14e;fill-opacity:1;stroke:#e9a439;stroke-width:8;stroke-opacity:1" />
  <path
     style="fill:#d0a444;fill-opacity:1"
     d="M 159.875 112.074219 C 149.042969 101.265625 131.53125 101.324219 120.726562 112.164062 C 111.503906 121.363281 110.128906 135.398438 116.570312 146.035156 L 89.867188 172.757812 C 87.378906 175.246094 87.378906 179.230469 89.867188 181.75 L 90.246094 182.132812 C 92.734375 184.621094 96.746094 184.621094 99.234375 182.132812 L 125.9375 155.410156 C 136.597656 161.886719 150.652344 160.539062 159.875 151.335938 C 170.707031 140.496094 170.707031 122.917969 159.875 112.105469 Z M 153.785156 118.171875 C 161.222656 125.640625 161.222656 137.773438 153.785156 145.242188 C 146.40625 152.597656 134.460938 152.597656 126.992188 145.359375 L 126.816406 145.15625 C 126.730469 145.097656 126.671875 145.039062 126.613281 144.949219 C 119.351562 137.507812 119.4375 125.613281 126.816406 118.230469 C 134.253906 110.785156 146.347656 110.726562 153.785156 118.171875 Z "
     id="path3227" />
</svg>
