<?xml version="1.0" encoding="UTF-8" standalone="no"?>
<svg
   xmlns:dc="http://purl.org/dc/elements/1.1/"
   xmlns:cc="http://creativecommons.org/ns#"
   xmlns:rdf="http://www.w3.org/1999/02/22-rdf-syntax-ns#"
   xmlns:svg="http://www.w3.org/2000/svg"
   xmlns="http://www.w3.org/2000/svg"
   xmlns:sodipodi="http://sodipodi.sourceforge.net/DTD/sodipodi-0.dtd"
   xmlns:inkscape="http://www.inkscape.org/namespaces/inkscape"
   width="256"
   height="256"
   viewBox="0 0 256 256"
   id="svg3251"
   version="1.1"
   inkscape:version="0.48.4 r9939"
   sodipodi:docname="folder-templates.svg">
  <metadata
     id="metadata3289">
    <rdf:RDF>
      <cc:Work
         rdf:about="">
        <dc:format>image/svg+xml</dc:format>
        <dc:type
           rdf:resource="http://purl.org/dc/dcmitype/StillImage" />
      </cc:Work>
    </rdf:RDF>
  </metadata>
  <defs
     id="defs3287" />
  <sodipodi:namedview
     pagecolor="#ffffff"
     bordercolor="#666666"
     borderopacity="1"
     objecttolerance="10"
     gridtolerance="10"
     guidetolerance="10"
     inkscape:pageopacity="0"
     inkscape:pageshadow="2"
     inkscape:window-width="678"
     inkscape:window-height="480"
     id="namedview3285"
     showgrid="false"
     inkscape:zoom="0.921875"
     inkscape:cx="173.55932"
     inkscape:cy="112.81356"
     inkscape:window-x="0"
     inkscape:window-y="0"
     inkscape:window-maximized="0"
     inkscape:current-layer="svg3251" />
  <path
     inkscape:connector-curvature="0"
     id="path3009"
     d="M 34.77344,204 C 31.09765,203.625 28,199.93359 28,195.98438 L 28,44.054686 c 0,-4.214848 3.56641,-8.054688 7.5,-8.054688 l 185,0 c 3.93359,0 7.5,3.83984 7.5,8.054688 l 0,129.878904 c 0,4.21485 -5.7461,10.26954 -9.67578,10.26954 l -67.72266,-0.12112 0,10.59375 c 0,4.17969 -3.28906,9.32422 -7.19922,9.32422 L 35.5,204 c -0.23438,0 -0.46875,0 -0.72656,0 z"
     style="fill:#e9a439;fill-opacity:1;stroke:#e9a439;stroke-width:8;stroke-opacity:1" />
  <path
     inkscape:connector-curvature="0"
     id="path3011"
     d="M 12.39844,51.999998 C 7.84375,52.374998 4,56.066406 4,60.015622 L 4,211.94531 C 4,216.16016 8.42578,220 13.30078,220 l 229.39844,0 C 247.57422,220 252,216.16016 252,211.94531 L 252,82.066406 C 252,77.851558 244.875,71.79687 240,71.79687 l -83.97266,0.121096 0,-10.593752 c 0,-4.179688 -4.08203,-9.324216 -8.92578,-9.324216 l -133.80078,0 c -0.28906,0 -0.58203,0 -0.90234,0 z"
     style="fill:#f5c14e;fill-opacity:1;stroke:#e9a439;stroke-width:8;stroke-opacity:1" />
  <path
     style="fill:#d0a444;fill-opacity:1"
     inkscape:connector-curvature="0"
     id="path3261"
     d="m 112,112 0,8 8,0 0,-8 z" />
  <path
     style="fill:#d0a444;fill-opacity:1"
     inkscape:connector-curvature="0"
     id="path3263"
     d="m 144,112 0,8 8,0 0,8 8,0 0,-10.65625 C 160,112 154.6875,112 154.6875,112 z" />
  <path
     style="fill:#d0a444;fill-opacity:1"
     inkscape:connector-curvature="0"
     id="path3265"
     d="m 128,112 0,8 8,0 0,-8 z" />
  <path
     style="fill:#d0a444;fill-opacity:1"
     inkscape:connector-curvature="0"
     id="path3267"
     d="m 88,128 8,0 0,-8 8,0 0,-8 -10.65625,0 C 88,112 88,117.3125 88,117.3125 z" />
  <path
     style="fill:#d0a444;fill-opacity:1"
     inkscape:connector-curvature="0"
     id="path3269"
     d="m 104,184 0,-8 -8,0 0,-8 -8,0 0,10.65625 C 88,184 93.3125,184 93.3125,184 z" />
  <path
     style="fill:#d0a444;fill-opacity:1"
     inkscape:connector-curvature="0"
     id="path3271"
     d="m 136,184 0,-8 -8,0 0,8 z" />
  <path
     style="fill:#d0a444;fill-opacity:1"
     inkscape:connector-curvature="0"
     id="path3273"
     d="m 120,184 0,-8 -8,0 0,8 z" />
  <path
     style="fill:#d0a444;fill-opacity:1"
     inkscape:connector-curvature="0"
     id="path3275"
     d="m 88,160 8,0 0,-8 -8,0 z" />
  <path
     style="fill:#d0a444;fill-opacity:1"
     inkscape:connector-curvature="0"
     id="path3277"
     d="m 88,144 8,0 0,-8 -8,0 z" />
  <path
     style="fill:#d0a444;fill-opacity:1"
     inkscape:connector-curvature="0"
     id="path3279"
     d="m 160,168 -8,0 0,8 -8,0 0,8 10.65625,0 C 160,184 160,178.6875 160,178.6875 z" />
  <path
     style="fill:#d0a444;fill-opacity:1"
     inkscape:connector-curvature="0"
     id="path3281"
     d="m 160,136 -8,0 0,8 8,0 z" />
  <path
     style="fill:#d0a444;fill-opacity:1"
     inkscape:connector-curvature="0"
     id="path3283"
     d="m 160,152 -8,0 0,8 8,0 z" />
</svg>
