<?xml version="1.0" encoding="UTF-8" standalone="no"?>
<svg
   xmlns:dc="http://purl.org/dc/elements/1.1/"
   xmlns:cc="http://creativecommons.org/ns#"
   xmlns:rdf="http://www.w3.org/1999/02/22-rdf-syntax-ns#"
   xmlns:svg="http://www.w3.org/2000/svg"
   xmlns="http://www.w3.org/2000/svg"
   xmlns:sodipodi="http://sodipodi.sourceforge.net/DTD/sodipodi-0.dtd"
   xmlns:inkscape="http://www.inkscape.org/namespaces/inkscape"
   width="256"
   height="256"
   viewBox="0 0 256 256"
   id="svg3095"
   version="1.1"
   inkscape:version="0.48.4 r9939"
   sodipodi:docname="folder-move.svg">
  <metadata
     id="metadata3125">
    <rdf:RDF>
      <cc:Work
         rdf:about="">
        <dc:format>image/svg+xml</dc:format>
        <dc:type
           rdf:resource="http://purl.org/dc/dcmitype/StillImage" />
      </cc:Work>
    </rdf:RDF>
  </metadata>
  <sodipodi:namedview
     pagecolor="#ffffff"
     bordercolor="#666666"
     borderopacity="1"
     objecttolerance="10"
     gridtolerance="10"
     guidetolerance="10"
     inkscape:pageopacity="0"
     inkscape:pageshadow="2"
     inkscape:window-width="678"
     inkscape:window-height="480"
     id="namedview3123"
     showgrid="false"
     inkscape:zoom="0.921875"
     inkscape:cx="66.672655"
     inkscape:cy="134.37539"
     inkscape:window-x="0"
     inkscape:window-y="0"
     inkscape:window-maximized="0"
     inkscape:current-layer="svg3095" />
  <defs
     id="defs3097">
    <clipPath
       id="clip1">
      <rect
         width="256"
         height="256"
         id="rect3100" />
    </clipPath>
    <filter
       width="100%"
       x="0"
       y="0"
       height="100%"
       filterUnits="objectBoundingBox"
       id="alpha">
      <feColorMatrix
         values="0 0 0 0 1 0 0 0 0 1 0 0 0 0 1 0 0 0 1 0"
         in="SourceGraphic"
         type="matrix"
         id="feColorMatrix3103" />
    </filter>
    <g
       style="clip-path:url(#clip1)"
       id="surface6"
       clip-path="url(#clip1)">
      <path
         style="fill:#a57953;stroke:#a57953"
         d="M 3.007324 17.5 C 2.730957 17.47168 2.496582 17.18457 2.5 16.877441 L 2.5 5.122559 C 2.5 4.799316 2.766602 4.5 3.062988 4.5 L 16.937012 4.5 C 17.22998 4.5 17.5 4.799316 17.5 5.122559 L 17.5 15.790039 C 17.5 16.113281 17.22998 16.408691 16.937012 16.408691 L 11.517578 16.408691 L 11.517578 16.877441 C 11.517578 17.205078 11.250977 17.5 10.95459 17.5 L 3.062988 17.5 C 3.043457 17.5 3.023926 17.5 3.007324 17.5 Z "
         transform="scale(8)"
         id="path3106" />
      <path
         style="fill:#a57953;stroke:#a57953"
         d="M 1.143066 6.5 C 0.79248 6.52832 0.496094 6.81543 0.5 7.122559 L 0.5 18.877441 C 0.5 19.200684 0.837891 19.5 1.212891 19.5 L 18.787109 19.5 C 19.158203 19.5 19.5 19.200684 19.5 18.877441 L 19.5 8.209961 C 19.5 7.886719 19.158203 7.591309 18.787109 7.591309 L 11.922363 7.591309 L 11.922363 7.122559 C 11.922363 6.794922 11.584473 6.5 11.209473 6.5 L 1.212891 6.5 C 1.187988 6.5 1.163574 6.5 1.143066 6.5 Z "
         transform="scale(8)"
         id="path3108" />
    </g>
    <mask
       id="mask0">
      <g
         style="filter:url(#alpha)"
         id="g3111">
        <rect
           width="256"
           x="0"
           y="0"
           height="256"
           style="fill:#000;fill-opacity:.502"
           id="rect3113" />
      </g>
    </mask>
  </defs>
  <path
     style="fill:#e9a439;fill-opacity:1;stroke:#e9a439;stroke-width:8;stroke-opacity:1;opacity:0.5"
     d="M 24.5 36 C 22.12892 36 20 38.38281 20 40.96875 L 20 52 L 9.71875 52 L 9.15625 52 C 6.3515599 52.22656 3.968752 54.51172 4 56.96875 L 4 151.03125 C 4 153.61719 6.7187499 156 9.71875 156 L 150.3125 156 C 153.28125 156 156 153.61719 156 151.03125 L 156 65.6875 C 156 63.10156 153.28125 60.71875 150.3125 60.71875 L 140 60.71875 L 140 40.96875 C 140 38.38281 137.84374 36 135.5 36 L 24.5 36 z "
     id="path3119-6" />
  <path
     inkscape:connector-curvature="0"
     id="path3119"
     d="m 120.05859,204 c -2.21093,-0.22656 -4.08593,-2.52344 -4.05859,-4.98047 l 0,-94.03906 C 116,102.39453 118.13282,100 120.5039,100 l 110.9922,0 c 2.34374,0 4.5039,2.39453 4.5039,4.98047 l 0,85.33984 c 0,2.58594 -2.16016,4.94922 -4.5039,4.94922 l -43.35548,0 0,3.75 c 0,2.62109 -2.1328,4.98047 -4.5039,4.98047 l -63.13282,0 c -0.15624,0 -0.31248,0 -0.44528,0 z"
     style="fill:#e9a439;stroke:#e9a439;stroke-width:8;fill-opacity:1;stroke-opacity:1" />
  <path
     inkscape:connector-curvature="0"
     id="path3121"
     d="m 105.14453,116 c -2.80469,0.22656 -5.175778,2.52344 -5.14453,4.98047 l 0,94.03906 c 0,2.58594 2.70313,4.98047 5.70313,4.98047 l 140.59374,0 C 249.26562,220 252,217.60547 252,215.01953 l 0,-85.33984 c 0,-2.58594 -2.73438,-4.94922 -5.70313,-4.94922 l -54.91797,0 0,-3.75 c 0,-2.62109 -2.70312,-4.98047 -5.70312,-4.98047 l -79.97265,0 c -0.1992,0 -0.39456,0 -0.55864,0 z"
     style="fill:#f5c14e;stroke:#e9a439;stroke-width:8;stroke-opacity:1;fill-opacity:1" />
</svg>
