<?xml version="1.0" encoding="UTF-8" standalone="no"?>
<svg
   xmlns:dc="http://purl.org/dc/elements/1.1/"
   xmlns:cc="http://creativecommons.org/ns#"
   xmlns:rdf="http://www.w3.org/1999/02/22-rdf-syntax-ns#"
   xmlns:svg="http://www.w3.org/2000/svg"
   xmlns="http://www.w3.org/2000/svg"
   xmlns:sodipodi="http://sodipodi.sourceforge.net/DTD/sodipodi-0.dtd"
   xmlns:inkscape="http://www.inkscape.org/namespaces/inkscape"
   width="256"
   height="256"
   viewBox="0 0 256 256"
   id="svg2"
   version="1.1"
   inkscape:version="0.48.5 r10040"
   sodipodi:docname="folder-pictures.svg">
  <metadata
     id="metadata30">
    <rdf:RDF>
      <cc:Work
         rdf:about="">
        <dc:format>image/svg+xml</dc:format>
        <dc:type
           rdf:resource="http://purl.org/dc/dcmitype/StillImage" />
      </cc:Work>
    </rdf:RDF>
  </metadata>
  <defs
     id="defs28" />
  <sodipodi:namedview
     pagecolor="#ffffff"
     bordercolor="#666666"
     borderopacity="1"
     objecttolerance="10"
     gridtolerance="10"
     guidetolerance="10"
     inkscape:pageopacity="0"
     inkscape:pageshadow="2"
     inkscape:window-width="1280"
     inkscape:window-height="969"
     id="namedview26"
     showgrid="false"
     inkscape:zoom="0.921875"
     inkscape:cx="-50.983051"
     inkscape:cy="125.83051"
     inkscape:window-x="0"
     inkscape:window-y="0"
     inkscape:window-maximized="1"
     inkscape:current-layer="svg2" />
  <path
     style="fill:#e9b080;fill-opacity:1;stroke:none"
     d="m 36,29.999996 c -5.85566,0 -12,6 -12,12 l 0,4 -12,0 c -5.8804,0 -12,5.98132 -12,12 L 0,214 c 0,8 4,12 12,12 l 232,0 c 6.27046,0 12,-5.43338 12,-12 l 0,-136.000004 c 0,-6.01972 -5.82016,-12 -12,-12 l -12,0 0,-24 c 0,-5.84462 -5.81288,-12 -12,-12 z"
     id="path6-6"
     inkscape:connector-curvature="0"
     sodipodi:nodetypes="ssccssssscccsss" />
  <path
     style="fill:#000000;fill-opacity:0.32156864"
     d="M 93.53125 104 C 90.71875 104.26563 88.285157 107.21094 88.34375 110.375 L 88.34375 153.25 C 88.243243 153.3305 88.084243 153.46857 88 153.53125 L 88 153.5625 C 88.112846 153.50658 88.230904 153.46213 88.34375 153.40625 L 88.34375 156.0625 C 88.311193 156.08677 88.249136 156.1344 88.21875 156.15625 C 88.260864 156.13581 88.301642 156.11419 88.34375 156.09375 L 88.34375 177.75 C 88.375 181.0625 91.039063 184.05859 93.96875 184 L 162.53125 184 C 165.43359 183.9688 167.96875 181.00391 168 177.75 L 168 110.375 C 168.0586 107.06641 165.49219 104.03125 162.53125 104 L 93.53125 104 z M 96 112 L 160 112 L 160 159.4375 C 159.0177 158.26886 157.99707 157.01367 156.90625 155.6875 C 152.48047 150.35546 147.40625 144.01953 141.28125 136.34375 C 140.08203 137.54688 138.52344 139.0625 136.53125 140.9375 C 134.53907 142.78125 132.19141 144.91406 129.40625 147.40625 C 129.05469 147.78906 127.60547 146.37891 125 143.09375 C 122.30469 139.78516 118.70313 134.72656 113.78125 127.75 C 106.27735 135.57421 100.49219 141.5039 96.15625 145.84375 C 96.090882 145.90865 96.064593 145.93593 96 146 L 96 112 z "
     id="path12" />
  <path
     sodipodi:nodetypes="sscsssssssscsssssscssssssss"
     inkscape:connector-curvature="0"
     style="fill:#000000;fill-opacity:0.32156863;stroke:none"
     d="m 36,29.999996 c -5.85566,0 -12,6 -12,12 l 0,4 -12,0 c -5.8804,0 -12,5.98132 -12,12 L 0,214 c 0,8 4,12 12,12 l 232,0 c 6.27046,0 12,-5.43338 12,-12 l 0,-136.000004 c 0,-6.01972 -5.82016,-12 -12,-12 l -12,0 0,-24 c 0,-5.84462 -5.81288,-12 -12,-12 z m -24,24 136,0 c 2.3607,0 4,2.05908 4,4 l 0,16 92,0 c 2.0222,0 4,2.03496 4,4 L 248,214 c 0,2.08516 -1.91506,4 -4,4 l -232,0 c -1.85718,0 -4,-1.58538 -4,-4 L 8,57.999996 c 0,-1.96962 2.06612,-4 4,-4 z"
     id="path3778" />
</svg>
