<?xml version="1.0" encoding="UTF-8" standalone="no"?>
<svg
   xmlns:dc="http://purl.org/dc/elements/1.1/"
   xmlns:cc="http://creativecommons.org/ns#"
   xmlns:rdf="http://www.w3.org/1999/02/22-rdf-syntax-ns#"
   xmlns:svg="http://www.w3.org/2000/svg"
   xmlns="http://www.w3.org/2000/svg"
   xmlns:sodipodi="http://sodipodi.sourceforge.net/DTD/sodipodi-0.dtd"
   xmlns:inkscape="http://www.inkscape.org/namespaces/inkscape"
   width="256"
   height="256"
   viewBox="0 0 256 256"
   id="svg3023"
   version="1.1"
   inkscape:version="0.48.5 r10040"
   sodipodi:docname="folder-recent.svg">
  <metadata
     id="metadata3037">
    <rdf:RDF>
      <cc:Work
         rdf:about="">
        <dc:format>image/svg+xml</dc:format>
        <dc:type
           rdf:resource="http://purl.org/dc/dcmitype/StillImage" />
      </cc:Work>
    </rdf:RDF>
  </metadata>
  <defs
     id="defs3035" />
  <sodipodi:namedview
     pagecolor="#ffffff"
     bordercolor="#666666"
     borderopacity="1"
     objecttolerance="10"
     gridtolerance="10"
     guidetolerance="10"
     inkscape:pageopacity="0"
     inkscape:pageshadow="2"
     inkscape:window-width="1280"
     inkscape:window-height="969"
     id="namedview3033"
     showgrid="false"
     inkscape:zoom="1.84375"
     inkscape:cx="42.804568"
     inkscape:cy="66.734444"
     inkscape:window-x="0"
     inkscape:window-y="0"
     inkscape:window-maximized="1"
     inkscape:current-layer="svg3023" />
  <path
     style="fill:#e9b080;fill-opacity:1;stroke:none"
     d="m 36,29.999995 c -5.85566,0 -12,6 -12,12 l 0,4 -12,0 c -5.8804,0 -12,5.98132 -12,12 L 0,214 c 0,8 4,12 12,12 l 232,0 c 6.27046,0 12,-5.43338 12,-12 l 0,-136.000005 c 0,-6.01972 -5.82016,-12 -12,-12 l -12,0 0,-24 c 0,-5.84462 -5.81288,-12 -12,-12 z"
     id="path6-6"
     inkscape:connector-curvature="0"
     sodipodi:nodetypes="ssccssssscccsss" />
  <path
     sodipodi:nodetypes="sscsssssssscsssssscssssssss"
     inkscape:connector-curvature="0"
     style="fill:#000000;fill-opacity:0.32156863;stroke:none"
     d="m 36,29.999995 c -5.85566,0 -12,6 -12,12 l 0,4 -12,0 c -5.8804,0 -12,5.98132 -12,12 L 0,214 c 0,8 4,12 12,12 l 232,0 c 6.27046,0 12,-5.43338 12,-12 l 0,-136.000005 c 0,-6.01972 -5.82016,-12 -12,-12 l -12,0 0,-24 c 0,-5.84462 -5.81288,-12 -12,-12 z m -24,24 136,0 c 2.3607,0 4,2.05908 4,4 l 0,16 92,0 c 2.0222,0 4,2.03496 4,4 L 248,214 c 0,2.08516 -1.91506,4 -4,4 l -232,0 c -1.85718,0 -4,-1.58538 -4,-4 L 8,57.999995 c 0,-1.96962 2.06612,-4 4,-4 z"
     id="path3778" />
  <path
     style="fill:#000000;fill-opacity:0.32156864"
     d="M 92.980469 104 L 92.980469 129.015625 L 118.007812 129.015625 L 109.390625 120.402344 C 114.519531 116.390625 120.996094 114.019531 128 114.019531 C 144.585938 114.019531 158.007812 127.433594 158.007812 144.015625 C 158.007812 160.566406 144.585938 174.011719 128 174.011719 C 111.414062 174.011719 97.992188 160.566406 97.992188 144.015625 C 97.992188 140.5 98.609375 137.128906 99.722656 133.996094 L 89.230469 133.996094 C 88.410156 137.1875 88 140.558594 88 144.015625 C 88 166.101562 105.90625 184 128 184 C 150.09375 184 168 166.101562 168 144.015625 C 168 121.925781 150.09375 104 128 104 C 118.210938 104 109.15625 107.398438 102.210938 113.226562 Z M 127.53125 118.851562 C 127.324219 118.882812 127.121094 118.941406 126.914062 119 C 124.570312 119.527344 122.929688 121.632812 122.988281 124.007812 L 122.988281 142.433594 C 122.988281 142.609375 122.988281 142.753906 122.988281 142.902344 C 122.695312 144.191406 122.929688 145.539062 123.632812 146.652344 C 123.664062 146.710938 123.722656 146.769531 123.78125 146.828125 C 123.839844 146.914062 123.867188 147.03125 123.925781 147.121094 C 123.984375 147.179688 124.042969 147.238281 124.101562 147.296875 C 124.132812 147.324219 124.191406 147.382812 124.25 147.441406 C 124.308594 147.5 124.367188 147.558594 124.394531 147.589844 C 124.453125 147.648438 124.511719 147.707031 124.570312 147.765625 C 124.660156 147.824219 124.777344 147.851562 124.863281 147.910156 C 124.921875 147.96875 124.980469 148.027344 125.039062 148.058594 C 125.070312 148.117188 125.128906 148.175781 125.1875 148.234375 C 125.273438 148.292969 125.390625 148.320312 125.507812 148.378906 C 125.714844 148.496094 125.917969 148.613281 126.125 148.703125 L 138.460938 155.878906 C 140.894531 157.253906 143.96875 156.40625 145.347656 154.003906 C 146.726562 151.601562 145.875 148.496094 143.472656 147.121094 L 133.011719 141.027344 L 133.011719 124.007812 C 133.039062 122.570312 132.484375 121.167969 131.429688 120.199219 C 130.375 119.203125 128.96875 118.707031 127.53125 118.851562 Z "
     id="path3031" />
</svg>
