<?xml version="1.0" encoding="UTF-8" standalone="no"?>
<svg
   xmlns:dc="http://purl.org/dc/elements/1.1/"
   xmlns:cc="http://creativecommons.org/ns#"
   xmlns:rdf="http://www.w3.org/1999/02/22-rdf-syntax-ns#"
   xmlns:svg="http://www.w3.org/2000/svg"
   xmlns="http://www.w3.org/2000/svg"
   xmlns:sodipodi="http://sodipodi.sourceforge.net/DTD/sodipodi-0.dtd"
   xmlns:inkscape="http://www.inkscape.org/namespaces/inkscape"
   width="256"
   height="256"
   viewBox="0 0 256 256"
   id="svg3111"
   version="1.1"
   inkscape:version="0.48.5 r10040"
   sodipodi:docname="folder-ubuntu.svg">
  <metadata
     id="metadata3125">
    <rdf:RDF>
      <cc:Work
         rdf:about="">
        <dc:format>image/svg+xml</dc:format>
        <dc:type
           rdf:resource="http://purl.org/dc/dcmitype/StillImage" />
      </cc:Work>
    </rdf:RDF>
  </metadata>
  <defs
     id="defs3123" />
  <sodipodi:namedview
     pagecolor="#ffffff"
     bordercolor="#666666"
     borderopacity="1"
     objecttolerance="10"
     gridtolerance="10"
     guidetolerance="10"
     inkscape:pageopacity="0"
     inkscape:pageshadow="2"
     inkscape:window-width="672"
     inkscape:window-height="480"
     id="namedview3121"
     showgrid="false"
     inkscape:zoom="0.921875"
     inkscape:cx="137.76271"
     inkscape:cy="128"
     inkscape:window-x="0"
     inkscape:window-y="0"
     inkscape:window-maximized="0"
     inkscape:current-layer="svg3111" />
  <path
     style="fill:#e9b080;fill-opacity:1;stroke:none"
     d="m 36.000001,29.999998 c -5.85566,0 -12,6 -12,12 l 0,4 -12,0 C 6.119601,45.999998 0,51.981318 0,57.999998 L 0,214 c 0,8 4.000001,12 12.000001,12 L 244,226 c 6.27046,0 12,-5.43338 12,-12 l 0,-136.000002 c 0,-6.01972 -5.82016,-12 -12,-12 l -12,0 0,-24 c 0,-5.84462 -5.81288,-12 -12,-12 z"
     id="path6-6"
     inkscape:connector-curvature="0"
     sodipodi:nodetypes="ssccssssscccsss" />
  <path
     style="fill:#000000;fill-opacity:0.32156864"
     d="M 95.675781 134.25 C 91.449219 134.25 88 137.707031 88 142.015625 C 88 146.292969 91.449219 149.777344 95.675781 149.777344 C 99.925781 149.777344 103.347656 146.292969 103.347656 142.015625 C 103.347656 137.707031 99.925781 134.25 95.675781 134.25 Z M 150.441406 169.523438 C 146.773438 171.648438 145.53125 176.40625 147.65625 180.121094 C 149.753906 183.832031 154.445312 185.105469 158.117188 182.953125 C 161.789062 180.828125 163.058594 176.066406 160.933594 172.355469 C 158.808594 168.644531 154.113281 167.371094 150.441406 169.523438 Z M 112.347656 142.015625 C 112.347656 134.335938 116.101562 127.566406 121.871094 123.457031 L 116.269531 113.9375 C 109.558594 118.472656 104.5625 125.414062 102.492188 133.542969 C 104.894531 135.554688 106.441406 138.585938 106.441406 142.015625 C 106.441406 145.414062 104.894531 148.445312 102.492188 150.457031 C 104.5625 158.585938 109.558594 165.527344 116.269531 170.0625 L 121.871094 160.542969 C 116.101562 156.433594 112.347656 149.664062 112.347656 142.015625 Z M 134.761719 119.320312 C 146.46875 119.320312 156.074219 128.414062 157.066406 140.003906 L 168 139.832031 C 167.476562 131.277344 163.777344 123.597656 158.089844 117.960938 C 155.191406 119.066406 151.824219 118.894531 148.898438 117.195312 C 146 115.496094 144.148438 112.632812 143.652344 109.519531 C 140.808594 108.726562 137.828125 108.273438 134.761719 108.273438 C 129.433594 108.273438 124.4375 109.546875 119.996094 111.757812 L 125.324219 121.445312 C 128.191406 120.085938 131.367188 119.320312 134.761719 119.320312 Z M 134.761719 164.679688 C 131.367188 164.679688 128.191406 163.914062 125.324219 162.554688 L 119.996094 172.242188 C 124.4375 174.453125 129.433594 175.726562 134.761719 175.726562 C 137.828125 175.726562 140.808594 175.304688 143.652344 174.511719 C 144.148438 171.363281 146 168.503906 148.898438 166.804688 C 151.824219 165.105469 155.191406 164.933594 158.089844 166.039062 C 163.777344 160.402344 167.476562 152.722656 168 144.167969 L 157.066406 143.996094 C 156.074219 155.585938 146.46875 164.679688 134.761719 164.679688 Z M 150.441406 114.476562 C 154.113281 116.628906 158.808594 115.355469 160.933594 111.644531 C 163.058594 107.933594 161.789062 103.171875 158.117188 101.046875 C 154.445312 98.894531 149.753906 100.167969 147.65625 103.878906 C 145.53125 107.59375 146.773438 112.351562 150.441406 114.476562 Z "
     id="path3119" />
  <path
     sodipodi:nodetypes="sscsssssssscsssssscssssssss"
     inkscape:connector-curvature="0"
     style="fill:#000000;fill-opacity:0.32156863;stroke:none"
     d="m 36.000001,29.999998 c -5.85566,0 -12,6 -12,12 l 0,4 -12,0 C 6.119601,45.999998 0,51.981318 0,57.999998 L 0,214 c 0,8 4.000001,12 12.000001,12 L 244,226 c 6.27046,0 12,-5.43338 12,-12 l 0,-136.000002 c 0,-6.01972 -5.82016,-12 -12,-12 l -12,0 0,-24 c 0,-5.84462 -5.81288,-12 -12,-12 z m -24,24 135.999999,0 c 2.3607,0 4,2.05908 4,4 l 0,16 92,0 c 2.0222,0 4,2.03496 4,4 L 248,214 c 0,2.08516 -1.91506,4 -4,4 l -231.999999,0 c -1.85718,0 -4,-1.58538 -4,-4 l 0,-156.000002 c 0,-1.96962 2.06612,-4 4,-4 z"
     id="path3778" />
</svg>
