<?xml version="1.0" encoding="UTF-8" standalone="no"?>
<svg
   xmlns:dc="http://purl.org/dc/elements/1.1/"
   xmlns:cc="http://creativecommons.org/ns#"
   xmlns:rdf="http://www.w3.org/1999/02/22-rdf-syntax-ns#"
   xmlns:svg="http://www.w3.org/2000/svg"
   xmlns="http://www.w3.org/2000/svg"
   xmlns:sodipodi="http://sodipodi.sourceforge.net/DTD/sodipodi-0.dtd"
   xmlns:inkscape="http://www.inkscape.org/namespaces/inkscape"
   width="256"
   height="256"
   viewBox="0 0 256 256"
   id="svg3143"
   version="1.1"
   inkscape:version="0.48.4 r9939"
   sodipodi:docname="folder-open.svg">
  <metadata
     id="metadata3155">
    <rdf:RDF>
      <cc:Work
         rdf:about="">
        <dc:format>image/svg+xml</dc:format>
        <dc:type
           rdf:resource="http://purl.org/dc/dcmitype/StillImage" />
      </cc:Work>
    </rdf:RDF>
  </metadata>
  <defs
     id="defs3153" />
  <sodipodi:namedview
     pagecolor="#ffffff"
     bordercolor="#666666"
     borderopacity="1"
     objecttolerance="10"
     gridtolerance="10"
     guidetolerance="10"
     inkscape:pageopacity="0"
     inkscape:pageshadow="2"
     inkscape:window-width="678"
     inkscape:window-height="480"
     id="namedview3151"
     showgrid="false"
     inkscape:zoom="0.921875"
     inkscape:cx="45.559322"
     inkscape:cy="74.847458"
     inkscape:window-x="0"
     inkscape:window-y="0"
     inkscape:window-maximized="0"
     inkscape:current-layer="svg3143" />
  <path
     inkscape:connector-curvature="0"
     id="path3147"
     d="M 34.77344,204 C 31.097656,203.625 28,199.93359 28,195.98438 L 28,44.054688 C 28,39.83984 31.566408,36 35.5,36 l 185,0 c 3.93359,0 7.5,3.83984 7.5,8.054688 l 0,129.878902 c 0,4.21485 -5.7461,10.26954 -9.67578,10.26954 l -67.72266,-0.12112 0,10.59375 c 0,4.17969 -3.28906,9.32422 -7.19922,9.32422 L 35.5,204 c -0.234376,0 -0.468752,0 -0.72656,0 z"
     style="fill:#e9a439;stroke:#e9a439;stroke-width:8;stroke-opacity:1;fill-opacity:1" />
  <path
     inkscape:connector-curvature="0"
     id="path3149"
     d="m 12.39844,108 c -4.554688,0.25 -8.339848,5.41797 -8.343752,8.05078 L 4,214.6289 C 4,217.44141 8.425784,220 13.300784,220 l 229.398436,0 c 4.875,0 9.29296,-2.55859 9.30078,-5.3711 l 0.19144,-82.75 c 0.008,-2.80859 -3.86328,-7.79687 -8.73828,-7.80468 l -87.23438,-0.11328 -0.19144,-9.7461 C 155.97266,111.42969 151.94531,108 147.10156,108 l -133.800776,0 c -0.289064,0 -0.582032,0 -0.902344,0 z"
     style="fill:#f5c14e;stroke:#e9a439;stroke-width:8;stroke-opacity:1;fill-opacity:1" />
</svg>
