
<svg xmlns="http://www.w3.org/2000/svg" xmlns:xlink="http://www.w3.org/1999/xlink" width="256px" height="256px" viewBox="0 0 256 256" version="1.1">
<g id="surface1">
<path style=" stroke:none;fill-rule:nonzero;fill:rgb(91.372549%,69.019608%,50.196078%);fill-opacity:1;" d="M 36 32 C 30.140625 32 24 38.046875 24 44 L 24 48 L 12 48 C 6.117188 48 0 53.984375 0 60 L 0 212 C 0 220 4 224 12 224 L 244 224 C 250.273438 224 256 218.570312 256 212 L 256 80 C 256 73.976562 250.179688 68 244 68 L 232 68 L 232 44 C 232 38.15625 226.1875 32 220 32 Z M 36 32 "/>
<path style=" stroke:none;fill-rule:nonzero;fill:rgb(0%,0%,0%);fill-opacity:0.321569;" d="M 36 32 C 30.140625 32 24 38.046875 24 44 L 24 48 L 12 48 C 6.117188 48 0 53.984375 0 60 L 0 212 C 0 220 4 224 12 224 L 244 224 C 250.273438 224 256 218.570312 256 212 L 256 80 C 256 73.976562 250.179688 68 244 68 L 232 68 L 232 44 C 232 38.15625 226.1875 32 220 32 Z M 12 56 L 148 56 C 150.359375 56 152 58.0625 152 60 L 152 76 L 244 76 C 246.023438 76 248 78.03125 248 80 L 248 212 C 248 214.085938 246.085938 216 244 216 L 12 216 C 10.140625 216 8 214.414062 8 212 L 8 60 C 8 58.03125 10.0625 56 12 56 Z M 12 56 "/>
<path style=" stroke:none;fill-rule:nonzero;fill:rgb(0%,0%,0%);fill-opacity:0.321569;" d="M 164.15625 100.007812 C 160.015625 100.070312 155.9375 102.617188 155.28125 107.375 C 154.234375 114.976562 162.070312 112.125 168.335938 112.125 C 174.601562 112.125 176.6875 124.476562 175.125 131.132812 C 173.554688 137.789062 156.90625 153.5 119.257812 137.789062 C 88.257812 124.851562 72.78125 142.078125 72 142.421875 C 74.929688 168.125 98.851562 196 127.867188 196 C 158.867188 196 184 165.289062 184 137.070312 C 184 133.835938 183.585938 130.640625 182.953125 127.570312 C 182.382812 126.015625 181.8125 124.46875 181.390625 123.054688 C 180.632812 120.523438 179.773438 118.390625 179.039062 116.398438 C 179.007812 116.335938 179.070312 116.226562 179.039062 116.164062 C 176.070312 110.164062 171.914062 104.742188 166.765625 100.242188 C 166.742188 100.1875 166.664062 100.296875 166.640625 100.242188 C 165.835938 100.054688 164.984375 99.992188 164.15625 100 Z M 164.15625 100.007812 "/>
<path style=" stroke:none;fill-rule:nonzero;fill:rgb(0%,0%,0%);fill-opacity:0.321569;" d="M 152 124 C 152 128.421875 148.421875 132 144 132 C 139.578125 132 136 128.421875 136 124 C 136 119.585938 139.578125 116 144 116 C 148.421875 116 152 119.585938 152 124 Z M 152 124 "/>
<path style=" stroke:none;fill-rule:nonzero;fill:rgb(0%,0%,0%);fill-opacity:0.321569;" d="M 128 112 C 128 114.210938 126.210938 116 124 116 C 121.789062 116 120 114.210938 120 112 C 120 109.789062 121.789062 108 124 108 C 126.210938 108 128 109.789062 128 112 Z M 128 112 "/>
</g>
</svg>
