<?xml version="1.0" encoding="UTF-8" standalone="no"?>
<svg
   xmlns:dc="http://purl.org/dc/elements/1.1/"
   xmlns:cc="http://creativecommons.org/ns#"
   xmlns:rdf="http://www.w3.org/1999/02/22-rdf-syntax-ns#"
   xmlns:svg="http://www.w3.org/2000/svg"
   xmlns="http://www.w3.org/2000/svg"
   xmlns:sodipodi="http://sodipodi.sourceforge.net/DTD/sodipodi-0.dtd"
   xmlns:inkscape="http://www.inkscape.org/namespaces/inkscape"
   width="256"
   height="256"
   viewBox="0 0 256 256"
   id="svg3005"
   version="1.1"
   inkscape:version="0.48.4 r9939"
   sodipodi:docname="folder.svg">
  <metadata
     id="metadata3017">
    <rdf:RDF>
      <cc:Work
         rdf:about="">
        <dc:format>image/svg+xml</dc:format>
        <dc:type
           rdf:resource="http://purl.org/dc/dcmitype/StillImage" />
      </cc:Work>
    </rdf:RDF>
  </metadata>
  <defs
     id="defs3015" />
  <sodipodi:namedview
     pagecolor="#ffffff"
     bordercolor="#666666"
     borderopacity="1"
     objecttolerance="10"
     gridtolerance="10"
     guidetolerance="10"
     inkscape:pageopacity="0"
     inkscape:pageshadow="2"
     inkscape:window-width="678"
     inkscape:window-height="480"
     id="namedview3013"
     showgrid="false"
     inkscape:zoom="0.921875"
     inkscape:cx="309.15254"
     inkscape:cy="119.32203"
     inkscape:window-x="638"
     inkscape:window-y="-27"
     inkscape:window-maximized="0"
     inkscape:current-layer="svg3005" />
  <path
     inkscape:connector-curvature="0"
     id="path3009"
     d="M 34.77344,204 C 31.097656,203.625 28,199.93359 28,195.98438 L 28,44.054688 C 28,39.83984 31.566408,36 35.5,36 l 185,0 c 3.93359,0 7.5,3.83984 7.5,8.054688 l 0,129.878902 c 0,4.21485 -5.7461,10.26954 -9.67578,10.26954 l -67.72266,-0.12112 0,10.59375 c 0,4.17969 -3.28906,9.32422 -7.19922,9.32422 L 35.5,204 c -0.234376,0 -0.468752,0 -0.72656,0 z"
     style="fill:#e9a439;stroke:#e9a439;stroke-width:8;stroke-opacity:1;fill-opacity:1" />
  <path
     inkscape:connector-curvature="0"
     id="path3011"
     d="M 12.39844,52 C 7.843752,52.375 4,56.066408 4,60.015624 L 4,211.94531 C 4,216.16016 8.425784,220 13.300784,220 l 229.398436,0 c 4.875,0 9.30078,-3.83984 9.30078,-8.05469 l 0,-129.878902 c 0,-4.214848 -7.125,-10.269536 -12,-10.269536 l -83.97266,0.121096 0,-10.593752 C 156.02734,57.144528 151.94531,52 147.10156,52 L 13.300784,52 c -0.289064,0 -0.582032,0 -0.902344,0 z"
     style="fill:#f5c14e;stroke:#e9a439;stroke-width:8;stroke-opacity:1;fill-opacity:1" />
</svg>
