<?xml version="1.0" encoding="UTF-8" standalone="no"?>
<svg
   xmlns:dc="http://purl.org/dc/elements/1.1/"
   xmlns:cc="http://creativecommons.org/ns#"
   xmlns:rdf="http://www.w3.org/1999/02/22-rdf-syntax-ns#"
   xmlns:svg="http://www.w3.org/2000/svg"
   xmlns="http://www.w3.org/2000/svg"
   xmlns:sodipodi="http://sodipodi.sourceforge.net/DTD/sodipodi-0.dtd"
   xmlns:inkscape="http://www.inkscape.org/namespaces/inkscape"
   width="256"
   height="256"
   viewBox="0 0 256 256"
   id="svg3143"
   version="1.1"
   inkscape:version="0.48.5 r10040"
   sodipodi:docname="folder-wine.svg">
  <metadata
     id="metadata3163">
    <rdf:RDF>
      <cc:Work
         rdf:about="">
        <dc:format>image/svg+xml</dc:format>
        <dc:type
           rdf:resource="http://purl.org/dc/dcmitype/StillImage" />
      </cc:Work>
    </rdf:RDF>
  </metadata>
  <defs
     id="defs3161" />
  <sodipodi:namedview
     pagecolor="#ffffff"
     bordercolor="#666666"
     borderopacity="1"
     objecttolerance="10"
     gridtolerance="10"
     guidetolerance="10"
     inkscape:pageopacity="0"
     inkscape:pageshadow="2"
     inkscape:window-width="1280"
     inkscape:window-height="969"
     id="namedview3159"
     showgrid="false"
     inkscape:zoom="1.3037281"
     inkscape:cx="-10.951001"
     inkscape:cy="144.25796"
     inkscape:window-x="0"
     inkscape:window-y="0"
     inkscape:window-maximized="1"
     inkscape:current-layer="svg3143" />
  <path
     style="fill:#e9b080;fill-opacity:1;stroke:none"
     d="m 36,30.000002 c -5.85566,0 -12,6 -12,12 l 0,4 -12,0 c -5.8804,0 -12,5.98132 -12,12 L 0,214 c 0,8 4,12 12,12 l 232,0 c 6.27046,0 12,-5.43338 12,-12 l 0,-135.999998 c 0,-6.01972 -5.82016,-12 -12,-12 l -12,0 0,-24 c 0,-5.84462 -5.81288,-12 -12,-12 z"
     id="path6-6"
     inkscape:connector-curvature="0"
     sodipodi:nodetypes="ssccssssscccsss" />
  <path
     style="fill:#000000;fill-opacity:0.32156864"
     inkscape:connector-curvature="0"
     id="path3153"
     d="m 158.97656,104.02734 c -3.55078,0.0508 -7.04687,2.17969 -7.58984,6.1211 -0.90625,6.33203 5.80078,3.97265 11.17187,3.97265 5.3711,0 7.16016,10.27344 5.82422,15.82813 C 167.04687,135.5 152.78125,148.57812 120.49609,135.5 93.953125,124.70703 80.683594,139.05859 80,139.36719 82.527344,160.77734 103.01953,184 127.88672,184 154.45703,184 176,158.41406 176,134.90625 c 0,-2.69922 -0.37109,-5.37109 -0.91016,-7.91406 -0.48437,-1.30078 -0.96484,-2.59766 -1.33593,-3.76563 -0.65235,-2.125 -1.39063,-3.89062 -2.01563,-5.55078 -0.0312,-0.0508 0.0273,-0.1289 0,-0.20703 -2.53125,-4.98437 -6.11328,-9.5 -10.51562,-13.26172 -0.0312,-0.0234 -0.0859,0.0273 -0.11329,0 C 160.42578,104.05078 159.6875,104 158.97656,104 z" />
  <path
     style="fill:#000000;fill-opacity:0.32156864"
     inkscape:connector-curvature="0"
     id="path3155"
     d="m 151.61719,119.05078 c 0,1.32422 -1.22266,2.38672 -2.70313,2.38672 -1.47656,0 -2.66797,-1.0625 -2.66797,-2.38672 0,-1.29687 1.19141,-2.36328 2.66797,-2.36328 1.48047,0 2.70313,1.06641 2.70313,2.36328 z" />
  <path
     style="fill:#000000;fill-opacity:0.32156864"
     inkscape:connector-curvature="0"
     id="path3157"
     d="m 146.24609,110.46094 c 0,0.91015 -0.85547,1.66015 -1.90625,1.66015 -1.05078,0 -1.90234,-0.75 -1.90234,-1.66015 0,-0.9336 0.85156,-1.6875 1.90234,-1.6875 1.05078,0 1.90625,0.7539 1.90625,1.6875 z" />
  <path
     sodipodi:nodetypes="sscsssssssscsssssscssssssss"
     inkscape:connector-curvature="0"
     style="fill:#000000;fill-opacity:0.32156863;stroke:none"
     d="m 36,30.000002 c -5.85566,0 -12,6 -12,12 l 0,4 -12,0 c -5.8804,0 -12,5.98132 -12,12 L 0,214 c 0,8 4,12 12,12 l 232,0 c 6.27046,0 12,-5.43338 12,-12 l 0,-135.999998 c 0,-6.01972 -5.82016,-12 -12,-12 l -12,0 0,-24 c 0,-5.84462 -5.81288,-12 -12,-12 z m -24,24 136,0 c 2.3607,0 4,2.05908 4,4 l 0,16 92,0 c 2.0222,0 4,2.03496 4,4 L 248,214 c 0,2.08516 -1.91506,4 -4,4 l -232,0 c -1.85718,0 -4,-1.58538 -4,-4 L 8,58.000002 c 0,-1.96962 2.06612,-4 4,-4 z"
     id="path3778" />
</svg>
