<?xml version="1.0" encoding="UTF-8" standalone="no"?>
<svg
   xmlns:dc="http://purl.org/dc/elements/1.1/"
   xmlns:cc="http://creativecommons.org/ns#"
   xmlns:rdf="http://www.w3.org/1999/02/22-rdf-syntax-ns#"
   xmlns:svg="http://www.w3.org/2000/svg"
   xmlns="http://www.w3.org/2000/svg"
   xmlns:sodipodi="http://sodipodi.sourceforge.net/DTD/sodipodi-0.dtd"
   xmlns:inkscape="http://www.inkscape.org/namespaces/inkscape"
   width="256"
   height="256"
   viewBox="0 0 256 256"
   id="svg3127"
   version="1.1"
   inkscape:version="0.48.4 r9939"
   sodipodi:docname="folder-music.svg">
  <metadata
     id="metadata3141">
    <rdf:RDF>
      <cc:Work
         rdf:about="">
        <dc:format>image/svg+xml</dc:format>
        <dc:type
           rdf:resource="http://purl.org/dc/dcmitype/StillImage" />
      </cc:Work>
    </rdf:RDF>
  </metadata>
  <defs
     id="defs3139" />
  <sodipodi:namedview
     pagecolor="#ffffff"
     bordercolor="#666666"
     borderopacity="1"
     objecttolerance="10"
     gridtolerance="10"
     guidetolerance="10"
     inkscape:pageopacity="0"
     inkscape:pageshadow="2"
     inkscape:window-width="678"
     inkscape:window-height="480"
     id="namedview3137"
     showgrid="false"
     inkscape:zoom="0.921875"
     inkscape:cx="251.66102"
     inkscape:cy="126.91525"
     inkscape:window-x="0"
     inkscape:window-y="0"
     inkscape:window-maximized="0"
     inkscape:current-layer="svg3127" />
  <path
     inkscape:connector-curvature="0"
     id="path3009"
     d="m 34.773443,204 c -3.67579,-0.375 -6.77344,-4.06641 -6.77344,-8.01562 l 0,-151.929692 c 0,-4.214848 3.56641,-8.054692 7.5,-8.054692 l 184.999997,0 c 3.93359,0 7.5,3.839844 7.5,8.054692 l 0,129.878902 c 0,4.21485 -5.7461,10.26954 -9.67578,10.26954 l -67.72266,-0.12112 0,10.59375 c 0,4.17969 -3.28906,9.32422 -7.19922,9.32422 L 35.500003,204 c -0.23438,0 -0.46875,0 -0.72656,0 z"
     style="fill:#e9a439;fill-opacity:1;stroke:#e9a439;stroke-width:8;stroke-opacity:1" />
  <path
     inkscape:connector-curvature="0"
     id="path3011"
     d="M 12.398443,52 C 7.843753,52.375 4,56.066408 4,60.015624 L 4,211.94531 C 4,216.16016 8.425783,220 13.300783,220 l 229.398437,0 c 4.875,0 9.30078,-3.83984 9.30078,-8.05469 l 0,-129.878902 c 0,-4.214848 -7.125,-10.269536 -12,-10.269536 l -83.97266,0.121096 0,-10.593752 C 156.02734,57.144528 151.94531,52 147.10156,52 L 13.300783,52 c -0.28906,0 -0.58203,0 -0.90234,0 z"
     style="fill:#f5c14e;fill-opacity:1;stroke:#e9a439;stroke-width:8;stroke-opacity:1" />
  <path
     style="fill:#d0a444;fill-opacity:1"
     d="M 134.410156 104.90625 C 128.191406 106.371094 122.972656 111.734375 122.972656 111.734375 L 123.160156 111.878906 L 133.097656 146.558594 C 125.972656 142.925781 115.816406 143.835938 107.410156 149.546875 C 96.539062 156.898438 92.757812 169.4375 99.039062 177.519531 C 105.347656 185.632812 119.222656 186.191406 130.097656 178.839844 C 138.660156 173.007812 143.4375 163.871094 141.71875 156.371094 C 141.660156 156.136719 141.5625 155.902344 141.5 155.667969 L 131.972656 121.019531 C 132.191406 120.726562 134.972656 119.523438 144 118.9375 C 153.53125 118.351562 160 104 160 104 C 160 104 149.25 107.867188 140.816406 105.082031 C 138.691406 104.378906 136.472656 104.410156 134.410156 104.90625 Z "
     id="path3135" />
</svg>
