<?xml version="1.0" encoding="UTF-8" standalone="no"?>
<svg
   xmlns:dc="http://purl.org/dc/elements/1.1/"
   xmlns:cc="http://creativecommons.org/ns#"
   xmlns:rdf="http://www.w3.org/1999/02/22-rdf-syntax-ns#"
   xmlns:svg="http://www.w3.org/2000/svg"
   xmlns="http://www.w3.org/2000/svg"
   xmlns:sodipodi="http://sodipodi.sourceforge.net/DTD/sodipodi-0.dtd"
   xmlns:inkscape="http://www.inkscape.org/namespaces/inkscape"
   width="256"
   height="256"
   viewBox="0 0 256 256"
   id="svg2993"
   version="1.1"
   inkscape:version="0.48.5 r10040"
   sodipodi:docname="folder-download.svg">
  <metadata
     id="metadata3015">
    <rdf:RDF>
      <cc:Work
         rdf:about="">
        <dc:format>image/svg+xml</dc:format>
        <dc:type
           rdf:resource="http://purl.org/dc/dcmitype/StillImage" />
      </cc:Work>
    </rdf:RDF>
  </metadata>
  <defs
     id="defs3013" />
  <sodipodi:namedview
     pagecolor="#ffffff"
     bordercolor="#666666"
     borderopacity="1"
     objecttolerance="10"
     gridtolerance="10"
     guidetolerance="10"
     inkscape:pageopacity="0"
     inkscape:pageshadow="2"
     inkscape:window-width="1280"
     inkscape:window-height="969"
     id="namedview3011"
     showgrid="false"
     inkscape:zoom="0.921875"
     inkscape:cx="-50.983051"
     inkscape:cy="125.83051"
     inkscape:window-x="0"
     inkscape:window-y="0"
     inkscape:window-maximized="1"
     inkscape:current-layer="svg2993" />
  <path
     style="fill:#e9b080;fill-opacity:1;stroke:none"
     d="m 36,29.999996 c -5.85566,0 -12,6 -12,12 l 0,4 -12,0 c -5.8804,0 -12,5.98132 -12,12 L 0,214 c 0,8 4,12 12,12 l 232,0 c 6.27046,0 12,-5.43338 12,-12 l 0,-136.000004 c 0,-6.01972 -5.82016,-12 -12,-12 l -12,0 0,-24 c 0,-5.84462 -5.81288,-12 -12,-12 z"
     id="path6-6"
     inkscape:connector-curvature="0"
     sodipodi:nodetypes="ssccssssscccsss" />
  <path
     sodipodi:nodetypes="sscsssssssscsssssscssssssss"
     inkscape:connector-curvature="0"
     style="fill:#000000;fill-opacity:0.32156863;stroke:none"
     d="m 36,29.999996 c -5.85566,0 -12,6 -12,12 l 0,4 -12,0 c -5.8804,0 -12,5.98132 -12,12 L 0,214 c 0,8 4,12 12,12 l 232,0 c 6.27046,0 12,-5.43338 12,-12 l 0,-136.000004 c 0,-6.01972 -5.82016,-12 -12,-12 l -12,0 0,-24 c 0,-5.84462 -5.81288,-12 -12,-12 z m -24,24 136,0 c 2.3607,0 4,2.05908 4,4 l 0,16 92,0 c 2.0222,0 4,2.03496 4,4 L 248,214 c 0,2.08516 -1.91506,4 -4,4 l -232,0 c -1.85718,0 -4,-1.58538 -4,-4 L 8,57.999996 c 0,-1.96962 2.06612,-4 4,-4 z"
     id="path3778" />
  <path
     style="fill:#000000;fill-opacity:0.32156864"
     inkscape:connector-curvature="0"
     id="path3003"
     d="m 102.6875,144.01172 c -1.76953,0.082 -3.425781,0.75781 -4.667969,1.85547 -2.492187,2.1914 -2.722656,5.92187 -0.4375,8.27734 L 118.58594,174.125 c 1.48047,1.26562 3.62109,2.01562 5.6914,1.85156 1.6836,-0.10156 3.31641,-0.82422 4.52344,-1.85156 l 21.00391,-19.26953 c 1.33203,-1.11719 2.13672,-2.67188 2.1875,-4.28125 0.125,-2.51953 -1.69922,-5.00781 -4.375,-5.99219 -2.67578,-0.98437 -6.02344,-0.40625 -8.02344,1.42578 l -15.60937,13.70313 -16.33985,-14.41407 c -1.37109,-0.97656 -3.1914,-1.36718 -4.95703,-1.28515 z" />
  <path
     style="fill:#000000;fill-opacity:0.32156864"
     inkscape:connector-curvature="0"
     id="path3005"
     d="m 124,104 c -2.09375,0 -3.99609,2.12891 -3.99609,4.5 l 0,22.82812 c -0.0781,2.42188 1.85937,4.67969 3.99609,4.66797 0.12109,0.004 0.25391,0.004 0.375,0 2.01172,-0.19922 3.69922,-2.3789 3.62109,-4.66797 l 0,-22.82812 c 0,-2.37109 -1.90625,-4.5 -3.99609,-4.5 z" />
  <path
     style="fill:#000000;fill-opacity:0.32156864"
     inkscape:connector-curvature="0"
     id="path3007"
     d="m 108,120 c -2.27344,0 -4.29687,1.67188 -3.96484,3.24609 l 0,9.8711 c -0.0898,1.58203 2.08593,3.02343 4.33593,2.87109 1.96875,-0.16016 3.67579,-1.48437 3.59375,-2.87109 l 0,-9.8711 C 112.29688,121.67188 110.27344,120 108,120 z" />
  <path
     style="fill:#000000;fill-opacity:0.32156864"
     inkscape:connector-curvature="0"
     id="path3009"
     d="m 140,120 c -2.27344,0 -4.29688,1.67188 -3.96484,3.24609 l 0,9.8711 c -0.0898,1.58203 2.08593,3.02343 4.33593,2.87109 1.96875,-0.16016 3.67578,-1.48437 3.59375,-2.87109 l 0,-9.8711 C 144.29687,121.67188 142.27344,120 140,120 z" />
</svg>
