
<svg xmlns="http://www.w3.org/2000/svg" xmlns:xlink="http://www.w3.org/1999/xlink" width="256px" height="256px" viewBox="0 0 256 256" version="1.1">
<g id="surface1">
<path style=" stroke:none;fill-rule:nonzero;fill:rgb(91.372549%,69.019608%,50.196078%);fill-opacity:1;" d="M 36 32 C 30.140625 32 24 38.046875 24 44 L 24 48 L 12 48 C 6.117188 48 0 53.984375 0 60 L 0 212 C 0 220 4 224 12 224 L 244 224 C 250.273438 224 256 218.570312 256 212 L 256 80 C 256 73.976562 250.179688 68 244 68 L 232 68 L 232 44 C 232 38.15625 226.1875 32 220 32 Z M 36 32 "/>
<path style=" stroke:none;fill-rule:nonzero;fill:rgb(0%,0%,0%);fill-opacity:0.321569;" d="M 36 32 C 30.140625 32 24 38.046875 24 44 L 24 48 L 12 48 C 6.117188 48 0 53.984375 0 60 L 0 212 C 0 220 4 224 12 224 L 244 224 C 250.273438 224 256 218.570312 256 212 L 256 80 C 256 73.976562 250.179688 68 244 68 L 232 68 L 232 44 C 232 38.15625 226.1875 32 220 32 Z M 12 56 L 148 56 C 150.359375 56 152 58.0625 152 60 L 152 76 L 244 76 C 246.023438 76 248 78.03125 248 80 L 248 212 C 248 214.085938 246.085938 216 244 216 L 12 216 C 10.140625 216 8 214.414062 8 212 L 8 60 C 8 58.03125 10.0625 56 12 56 Z M 12 56 "/>
<path style=" stroke:none;fill-rule:nonzero;fill:rgb(0%,0%,0%);fill-opacity:0.321569;" d="M 122 100 C 101.53125 100 80 121.53125 80 148 C 80 174.46875 101.53125 196 122 196 C 154.46875 196 176 174.46875 176 148 C 176 121.53125 154.46875 100 128 100 Z M 131.898438 106.75 C 136.375 107.164062 140.710938 108.1875 144.648438 109.898438 C 144.34375 110.28125 144.109375 110.609375 143.898438 111.25 C 142.6875 114.890625 140.875 113.15625 143 117.703125 C 145.125 122.242188 146.890625 123.421875 147.5 121.296875 C 148.109375 119.179688 145.976562 116.1875 148.398438 117.398438 C 150.828125 118.609375 152.617188 117.070312 150.796875 119.804688 C 148.984375 122.53125 149.023438 124.007812 146.898438 123.398438 C 144.78125 122.789062 144.820312 126.992188 142.703125 127.601562 C 140.578125 128.210938 139.851562 126.6875 139.851562 128.203125 C 139.851562 129.71875 141.054688 128.328125 140.75 130.75 C 140.65625 131.492188 140.6875 131.625 140.601562 131.953125 C 138.609375 131.382812 137.71875 131.0625 136.25 131.640625 C 134.734375 132.25 132.953125 136.140625 132.953125 136.140625 C 134.84375 138.039062 135.71875 139.398438 136.398438 140.046875 C 135.976562 140.257812 135.46875 140.34375 135.046875 140.648438 C 132.023438 142.765625 129.65625 143.164062 128.75 146.195312 C 127.84375 149.226562 128.148438 146.453125 128.148438 150.09375 C 128.148438 153.734375 127.234375 151.257812 129.046875 154.59375 C 130.867188 157.929688 135.328125 159.523438 137.453125 161.34375 C 139.570312 163.164062 141.757812 157.390625 146 162.84375 C 150.242188 168.296875 150.515625 166.117188 149 169.148438 C 147.484375 172.179688 146.007812 173.1875 145.398438 174.398438 C 144.796875 175.609375 146.578125 179.789062 148.703125 180.695312 C 148.742188 180.695312 148.804688 180.695312 148.851562 180.695312 C 148.734375 180.953125 148.664062 181.1875 148.546875 181.445312 C 145.804688 182.695312 142.4375 184.414062 141.796875 184.59375 C 140.296875 185.03125 135.007812 185.921875 131.148438 186.992188 C 130.664062 187.132812 130.289062 187.132812 130.101562 187.148438 C 130.578125 186.632812 134.367188 184.648438 136.25 183.554688 C 138.820312 182.046875 136.101562 182.203125 136.101562 182.203125 C 136.101562 182.203125 132.007812 181.75 123.648438 181.75 C 119.46875 181.75 117.664062 181.9375 116.75 182.203125 C 116.296875 182.335938 116.070312 182.476562 115.851562 182.65625 C 115.632812 182.84375 115.476562 183.039062 115.101562 183.25 C 113.601562 184.109375 115.976562 185.007812 114.046875 185.648438 C 112.601562 186.132812 112.4375 185.648438 111.203125 184.75 C 112.078125 183.867188 113.296875 182.8125 114.796875 181 C 117.53125 177.695312 118.390625 178.296875 119.296875 175.296875 C 120.210938 172.296875 111.648438 173.195312 111.648438 171.398438 C 111.648438 169.59375 110.179688 168.398438 107.453125 167.195312 C 104.71875 166 106.578125 165.398438 103.546875 164.5 C 100.523438 163.601562 97.109375 169 96.203125 167.195312 C 95.289062 165.398438 99.046875 165.398438 99.046875 163.296875 C 99.046875 161.25 94.726562 164.84375 93.953125 162.25 C 93.929688 162.148438 93.8125 162.148438 93.796875 162.09375 C 93.726562 161.710938 93.773438 161.492188 93.796875 161.195312 C 93.992188 159.039062 96.492188 158.195312 97.546875 156.09375 C 98.765625 153.695312 98.132812 157.898438 99.648438 160 C 101.164062 162.09375 100.5625 157.296875 99.648438 154.59375 C 98.742188 151.898438 100.226562 151.898438 102.351562 148.296875 C 104.46875 144.695312 104.453125 142.59375 104.453125 139.898438 C 104.453125 137.195312 105.921875 136.898438 108.953125 134.195312 C 110.335938 132.960938 111.429688 131.882812 112.25 130.898438 C 112.445312 130.796875 112.648438 130.796875 112.851562 130.742188 C 116.0625 129.453125 117.414062 127.523438 120.203125 121.742188 C 122.984375 115.953125 119.109375 121.359375 118.25 121.140625 C 117.390625 120.929688 116.148438 119.40625 113.148438 117.6875 C 112.53125 117.335938 111.976562 117.164062 111.5 117.09375 L 117.046875 107.945312 C 118.828125 107.46875 120.734375 107.132812 122.601562 106.890625 C 123.28125 110.773438 122.898438 114.398438 122.898438 114.398438 C 122.898438 114.398438 121.851562 115.640625 121.851562 116.492188 C 121.851562 117.351562 127.59375 109.421875 128.453125 108.992188 C 129.304688 108.5625 131.46875 111.265625 131.898438 107.195312 C 131.921875 106.960938 131.875 106.953125 131.898438 106.742188 Z M 140 122.953125 C 139.695312 122.851562 139.328125 122.953125 138.953125 123.109375 C 138.953125 124.164062 138.539062 124.9375 138.351562 125.359375 C 138.234375 125.164062 137.898438 124.90625 137.898438 124.90625 C 137.445312 125.742188 136.46875 126.484375 137.453125 126.257812 C 138.4375 126.039062 139.179688 126.640625 138.5 125.804688 C 138.367188 125.648438 138.429688 125.710938 138.351562 125.648438 C 138.476562 125.742188 138.71875 125.804688 139.25 125.804688 C 139.84375 125.804688 140.164062 125.804688 140.601562 125.804688 C 139.867188 126.34375 139.070312 126.578125 140.148438 126.859375 C 141.585938 127.234375 142.25 127.3125 142.25 127.015625 C 142.25 126.710938 141.796875 125.664062 141.796875 125.664062 C 142.078125 125.546875 142.34375 125.40625 142.101562 124.914062 C 141.648438 124.007812 140.921875 123.101562 140 122.960938 Z M 162.953125 125.5 C 163.703125 126.664062 164.414062 127.859375 165.046875 129.101562 C 164.632812 131.523438 163.570312 133.148438 165.351562 133.148438 C 165.84375 133.148438 166.289062 133.039062 166.703125 132.992188 C 166.757812 133.140625 166.796875 133.304688 166.851562 133.445312 C 163.820312 133.445312 162.367188 134.351562 160.851562 134.046875 C 159.335938 133.734375 155.125 133.46875 157.851562 130.742188 C 159.445312 129.148438 161.4375 126.617188 162.953125 125.492188 Z M 144.046875 131.054688 C 144.328125 131.140625 144.570312 131.429688 144.796875 131.945312 C 145.710938 134.070312 147.210938 135.84375 146 136.148438 C 144.789062 136.445312 144.203125 136.75 144.203125 136.75 C 144.203125 136.75 148.398438 139.476562 148.703125 136.445312 C 149 133.414062 147.5 131.648438 147.5 131.648438 C 147.5 131.648438 149.59375 133.734375 150.203125 134.945312 C 150.804688 136.15625 150.78125 134.945312 152.296875 136.445312 C 153.8125 137.960938 153.476562 130.421875 155.601562 132.546875 C 157.71875 134.671875 159.054688 134.632812 158.453125 136.148438 C 157.84375 137.664062 162.351562 134.3125 162.351562 137.34375 C 162.351562 140.265625 164.210938 141.453125 160.546875 142.898438 C 159.164062 142.804688 158.0625 142.570312 157.851562 142.148438 C 157.242188 140.9375 153.796875 141.84375 153.796875 141.84375 C 144.734375 139.578125 140.796875 138.859375 138.203125 139.296875 C 138.25 139.203125 138.296875 139.203125 138.351562 139.140625 C 139.679688 136.75 142.171875 133.4375 141.351562 132.242188 C 142.507812 131.578125 143.414062 130.84375 144.046875 131.039062 Z M 169.546875 146.203125 C 169.578125 146.804688 169.546875 147.382812 169.546875 148 C 169.546875 149.703125 169.445312 151.445312 169.25 153.101562 C 166.523438 150.671875 162.648438 150.703125 162.648438 150.703125 C 162.648438 150.703125 165.015625 148.015625 168.351562 146.796875 C 168.765625 146.640625 169.210938 146.445312 169.546875 146.203125 Z M 169.546875 146.203125 "/>
</g>
</svg>
