<?xml version="1.0" encoding="UTF-8" standalone="no"?>
<!-- Created with Inkscape (http://www.inkscape.org/) -->

<svg
   xmlns:dc="http://purl.org/dc/elements/1.1/"
   xmlns:cc="http://creativecommons.org/ns#"
   xmlns:rdf="http://www.w3.org/1999/02/22-rdf-syntax-ns#"
   xmlns:svg="http://www.w3.org/2000/svg"
   xmlns="http://www.w3.org/2000/svg"
   xmlns:sodipodi="http://sodipodi.sourceforge.net/DTD/sodipodi-0.dtd"
   xmlns:inkscape="http://www.inkscape.org/namespaces/inkscape"
   width="96"
   height="96"
   id="svg2"
   version="1.1"
   inkscape:version="0.48.5 r10040"
   sodipodi:docname="green-folder-recent.svg"
   inkscape:export-filename="/home/me4oslav/Desktop/folder.png"
   inkscape:export-xdpi="270"
   inkscape:export-ydpi="270">
  <defs
     id="defs4" />
  <sodipodi:namedview
     id="base"
     pagecolor="#ffffff"
     bordercolor="#666666"
     borderopacity="1.0"
     inkscape:pageopacity="0.0"
     inkscape:pageshadow="2"
     inkscape:zoom="9.9407525"
     inkscape:cx="21.689419"
     inkscape:cy="47.063501"
     inkscape:document-units="px"
     inkscape:current-layer="layer1"
     showgrid="true"
     inkscape:window-width="1280"
     inkscape:window-height="998"
     inkscape:window-x="0"
     inkscape:window-y="0"
     inkscape:window-maximized="1"
     showguides="true"
     inkscape:guide-bbox="true">
    <inkscape:grid
       type="xygrid"
       id="grid2985"
       empspacing="5"
       visible="true"
       enabled="true"
       snapvisiblegridlinesonly="true" />
  </sodipodi:namedview>
  <metadata
     id="metadata7">
    <rdf:RDF>
      <cc:Work
         rdf:about="">
        <dc:format>image/svg+xml</dc:format>
        <dc:type
           rdf:resource="http://purl.org/dc/dcmitype/StillImage" />
        <dc:title />
      </cc:Work>
    </rdf:RDF>
  </metadata>
  <g
     inkscape:label="Layer 1"
     inkscape:groupmode="layer"
     id="layer1"
     transform="translate(0,-956.3622)">
    <rect
       style="fill:#388e3c;fill-opacity:1;stroke:none"
       id="rect3757"
       width="76"
       height="30"
       x="10"
       y="976.36218" />
    <path
       style="fill:#388e3c;fill-opacity:1;stroke:none"
       d="m 20,980.3622 c 0,-4 0,-8 4,-8 l 14,0 c 4,0 4,4 4,8 z"
       id="path3759"
       inkscape:connector-curvature="0"
       sodipodi:nodetypes="ccccc" />
    <path
       style="fill:#95989f;fill-opacity:1;stroke:none"
       d="m 18,982.3622 62,0 0,14 -62,0 z"
       id="path3765"
       inkscape:connector-curvature="0" />
    <rect
       y="980.36218"
       x="22"
       height="40"
       width="56"
       id="rect3763"
       style="fill:#d8d8da;fill-opacity:1;stroke:none" />
    <rect
       style="fill:#f9f9f9;fill-opacity:1;stroke:none"
       id="rect3761"
       width="56"
       height="40"
       x="20"
       y="986.36218" />
    <path
       style="fill:#66bb6a;fill-opacity:1;stroke:none"
       d="m 4,988.3622 88,0 -8,48 -74,0 z"
       id="path2987"
       inkscape:connector-curvature="0"
       sodipodi:nodetypes="ccccc" />
    <path
       id="path4105-3"
       d="m 34,996.3622 0,10 10,0 -3.4375,-3.4376 c 2.045278,-1.6056 4.636006,-2.5624 7.437498,-2.5624 6.627416,0 12,5.3726 12,12 0,6.6274 -5.372584,12 -12,12 -6.627416,0 -11.999998,-5.3726 -11.999998,-12 0,-1.4014 0.245968,-2.7498 0.6875,-4 l -4.1875,0 c -0.32741,1.2754 -0.5,2.6224 -0.5,4 0,8.8366 7.163444,16 15.999998,16 8.836556,0 16,-7.1634 16,-16 0,-8.8366 -7.163444,-16 -16,-16 -3.913742,0 -7.532388,1.3538 -10.312498,3.6874 L 34,996.3622 z m 13.8125,5.9374 a 2.0002,2.0002 0 0 0 -0.25,0.062 2.0002,2.0002 0 0 0 -1.5625,2 l 0,7.375 a 2.0002,2.0002 0 0 0 0,0.188 2.0002,2.0002 0 0 0 0.25,1.5 2.0002,2.0002 0 0 0 0.0625,0.062 2.0002,2.0002 0 0 0 0.0625,0.124 2.0002,2.0002 0 0 0 0.0625,0.062 2.0002,2.0002 0 0 0 0.0625,0.062 2.0002,2.0002 0 0 0 0.0625,0.062 2.0002,2.0002 0 0 0 0.0625,0.062 2.0002,2.0002 0 0 0 0.125,0.062 2.0002,2.0002 0 0 0 0.0625,0.062 2.0002,2.0002 0 0 0 0.0625,0.062 2.0002,2.0002 0 0 0 0.125,0.062 2.0002,2.0002 0 0 0 0.25,0.124 l 4.937498,2.875 a 2.0155644,2.0155644 0 1 0 2,-3.5 l -4.1875,-2.4376 0,-6.8124 A 2.0002,2.0002 0 0 0 47.8125,1002.293 z"
       style="line-height:normal;color:#000000;fill:#103612;fill-opacity:1;opacity:0.4"
       inkscape:connector-curvature="0" />
  </g>
</svg>
