<?xml version="1.0" encoding="UTF-8" standalone="no"?>
<!-- Created with Inkscape (http://www.inkscape.org/) -->

<svg
   xmlns:dc="http://purl.org/dc/elements/1.1/"
   xmlns:cc="http://creativecommons.org/ns#"
   xmlns:rdf="http://www.w3.org/1999/02/22-rdf-syntax-ns#"
   xmlns:svg="http://www.w3.org/2000/svg"
   xmlns="http://www.w3.org/2000/svg"
   xmlns:sodipodi="http://sodipodi.sourceforge.net/DTD/sodipodi-0.dtd"
   xmlns:inkscape="http://www.inkscape.org/namespaces/inkscape"
   width="96"
   height="96"
   id="svg2"
   version="1.1"
   inkscape:version="0.48.5 r10040"
   sodipodi:docname="folder-music.svg"
   inkscape:export-filename="/home/me4oslav/Desktop/folder.png"
   inkscape:export-xdpi="270"
   inkscape:export-ydpi="270">
  <defs
     id="defs4" />
  <sodipodi:namedview
     id="base"
     pagecolor="#ffffff"
     bordercolor="#666666"
     borderopacity="1.0"
     inkscape:pageopacity="0.0"
     inkscape:pageshadow="2"
     inkscape:zoom="9.9407525"
     inkscape:cx="55.590273"
     inkscape:cy="43.945025"
     inkscape:document-units="px"
     inkscape:current-layer="layer1"
     showgrid="true"
     inkscape:window-width="1280"
     inkscape:window-height="998"
     inkscape:window-x="0"
     inkscape:window-y="0"
     inkscape:window-maximized="1"
     showguides="true"
     inkscape:guide-bbox="true">
    <inkscape:grid
       type="xygrid"
       id="grid2985"
       empspacing="5"
       visible="true"
       enabled="true"
       snapvisiblegridlinesonly="true" />
  </sodipodi:namedview>
  <metadata
     id="metadata7">
    <rdf:RDF>
      <cc:Work
         rdf:about="">
        <dc:format>image/svg+xml</dc:format>
        <dc:type
           rdf:resource="http://purl.org/dc/dcmitype/StillImage" />
        <dc:title />
      </cc:Work>
    </rdf:RDF>
  </metadata>
  <g
     inkscape:label="Layer 1"
     inkscape:groupmode="layer"
     id="layer1"
     transform="translate(0,-956.3622)">
    <rect
       style="fill:#388e3c;fill-opacity:1;stroke:none"
       id="rect3757"
       width="76"
       height="30"
       x="10"
       y="976.36218" />
    <path
       style="fill:#388e3c;fill-opacity:1;stroke:none"
       d="m 20,980.3622 c 0,-4 0,-8 4,-8 l 14,0 c 4,0 4,4 4,8 z"
       id="path3759"
       inkscape:connector-curvature="0"
       sodipodi:nodetypes="ccccc" />
    <path
       style="fill:#95989f;fill-opacity:1;stroke:none"
       d="m 18,982.3622 62,0 0,14 -62,0 z"
       id="path3765"
       inkscape:connector-curvature="0" />
    <rect
       y="980.36218"
       x="22"
       height="40"
       width="56"
       id="rect3763"
       style="fill:#d8d8da;fill-opacity:1;stroke:none" />
    <rect
       style="fill:#f9f9f9;fill-opacity:1;stroke:none"
       id="rect3761"
       width="56"
       height="40"
       x="20"
       y="986.36218" />
    <path
       style="fill:#66bb6a;fill-opacity:1;stroke:none"
       d="m 4,988.3622 88,0 -8,48 -74,0 z"
       id="path2987"
       inkscape:connector-curvature="0"
       sodipodi:nodetypes="ccccc" />
    <path
       style="fill:#000000;fill-opacity:0.25098039;stroke:none"
       d="m 44,996.3622 c -2.216,0 -4,1.784 -4,4 l 0,2 0,14.375 c -0.632944,-0.227 -1.288934,-0.375 -2,-0.375 -3.313708,0 -6,2.6862 -6,6 0,3.3138 2.686292,6 6,6 3.313708,0 6,-2.6862 6,-6 l 0,-16 16,0 0,10.375 c -0.632944,-0.227 -1.288934,-0.375 -2,-0.375 -3.313708,0 -6,2.6862 -6,6 0,3.3138 2.686292,6 6,6 3.313708,0 6,-2.6862 6,-6 l 0,-20 0,-2 c 0,-2.216 -1.784,-4 -4,-4 l -16,0 z"
       id="path3001"
       inkscape:connector-curvature="0" />
  </g>
</svg>
