<?xml version="1.0" encoding="UTF-8" standalone="no"?>
<!-- Created with Inkscape (http://www.inkscape.org/) -->

<svg
   xmlns:dc="http://purl.org/dc/elements/1.1/"
   xmlns:cc="http://creativecommons.org/ns#"
   xmlns:rdf="http://www.w3.org/1999/02/22-rdf-syntax-ns#"
   xmlns:svg="http://www.w3.org/2000/svg"
   xmlns="http://www.w3.org/2000/svg"
   xmlns:sodipodi="http://sodipodi.sourceforge.net/DTD/sodipodi-0.dtd"
   xmlns:inkscape="http://www.inkscape.org/namespaces/inkscape"
   width="96"
   height="96"
   id="svg2"
   version="1.1"
   inkscape:version="0.48.5 r10040"
   sodipodi:docname="network.svg"
   inkscape:export-filename="/home/me4oslav/Desktop/folder.png"
   inkscape:export-xdpi="270"
   inkscape:export-ydpi="270">
  <defs
     id="defs4" />
  <sodipodi:namedview
     id="base"
     pagecolor="#ffffff"
     bordercolor="#666666"
     borderopacity="1.0"
     inkscape:pageopacity="0.0"
     inkscape:pageshadow="2"
     inkscape:zoom="5.6568543"
     inkscape:cx="72.955883"
     inkscape:cy="36.920296"
     inkscape:document-units="px"
     inkscape:current-layer="layer1"
     showgrid="true"
     inkscape:window-width="1280"
     inkscape:window-height="998"
     inkscape:window-x="0"
     inkscape:window-y="0"
     inkscape:window-maximized="1"
     showguides="true"
     inkscape:guide-bbox="true">
    <inkscape:grid
       type="xygrid"
       id="grid2985"
       empspacing="5"
       visible="true"
       enabled="true"
       snapvisiblegridlinesonly="true" />
  </sodipodi:namedview>
  <metadata
     id="metadata7">
    <rdf:RDF>
      <cc:Work
         rdf:about="">
        <dc:format>image/svg+xml</dc:format>
        <dc:type
           rdf:resource="http://purl.org/dc/dcmitype/StillImage" />
        <dc:title />
      </cc:Work>
    </rdf:RDF>
  </metadata>
  <g
     inkscape:label="Layer 1"
     inkscape:groupmode="layer"
     id="layer1"
     transform="translate(0,-956.3622)">
    <rect
       style="fill:#d32f2f;fill-opacity:1;stroke:none"
       id="rect3757"
       width="76"
       height="30"
       x="10"
       y="976.36218" />
    <path
       style="fill:#d32f2f;fill-opacity:1;stroke:none"
       d="m 20,980.3622 c 0,-4 0,-8 4,-8 l 14,0 c 4,0 4,4 4,8 z"
       id="path3759"
       inkscape:connector-curvature="0"
       sodipodi:nodetypes="ccccc" />
    <path
       style="fill:#95989f;fill-opacity:1;stroke:none"
       d="m 18,982.3622 62,0 0,14 -62,0 z"
       id="path3765"
       inkscape:connector-curvature="0" />
    <rect
       y="980.36218"
       x="22"
       height="40"
       width="56"
       id="rect3763"
       style="fill:#d8d8da;fill-opacity:1;stroke:none" />
    <rect
       style="fill:#f9f9f9;fill-opacity:1;stroke:none"
       id="rect3761"
       width="56"
       height="40"
       x="20"
       y="986.36218" />
    <path
       style="fill:#ef5350;fill-opacity:1;stroke:none"
       d="m 4,988.3622 88,0 -8,48 -74,0 z"
       id="path2987"
       inkscape:connector-curvature="0"
       sodipodi:nodetypes="ccccc" />
    <path
       id="path4139-0"
       d="M 46.000574,996.3622 C 39.176022,996.3622 32,1003.5386 32,1012.3624 c 0,8.8236 7.176032,15.9998 14.000574,15.9998 10.823394,0 17.999426,-7.1762 17.999426,-15.9998 0,-8.8238 -7.17602,-16.0002 -16,-16.0002 z m 3.299424,2.2504 c 1.49135,0.138 2.936314,0.4784 4.250002,1.05 -0.10112,0.126 -0.17928,0.2372 -0.249994,0.45 -0.404062,1.2118 -1.007106,0.6342 -0.300006,2.1494 0.707106,1.515 1.29797,1.9068 1.499998,1.1998 0.202048,-0.7066 -0.50812,-1.704 0.300002,-1.2998 0.808126,0.404 1.406094,-0.11 0.8,0.8006 -0.606092,0.909 -0.592892,1.4018 -1.299998,1.1996 -0.707108,-0.2024 -0.69289,1.1982 -1.400002,1.4002 -0.707104,0.2024 -0.949998,-0.305 -0.949998,0.2002 0,0.5048 0.401012,0.042 0.300004,0.85 -0.0308,0.2474 -0.02182,0.2916 -0.05,0.4 -0.663748,-0.19 -0.959778,-0.2954 -1.449998,-0.102 -0.505078,0.2024 -1.1,1.5002 -1.1,1.5002 0.630938,0.631 0.923676,1.0852 1.149998,1.3002 -0.14122,0.07 -0.311108,0.1 -0.45,0.2002 -1.010154,0.7074 -1.796956,0.8404 -2.1,1.8498 -0.30305,1.011 -0.19998,0.086 -0.19998,1.3 0,1.2124 -0.3061,0.3888 0.300002,1.5004 0.60609,1.1112 2.09289,1.6436 2.799996,2.2498 0.70711,0.6058 1.435788,-1.3184 2.85,0.5002 1.414214,1.818 1.50508,1.0896 1.000002,2.1002 -0.50508,1.0102 -0.99797,1.3458 -1.199998,1.7498 -0.202046,0.404 0.392892,1.7972 1.1,2.0998 0.0148,0 0.03416,0 0.05,0 -0.03764,0.086 -0.06268,0.164 -0.10002,0.2506 -0.915668,0.4158 -2.038146,0.9896 -2.250004,1.0498 -0.5,0.144 -2.264284,0.4424 -3.549998,0.7998 -0.16072,0.046 -0.287232,0.046 -0.35,0.052 0.15984,-0.174 1.423626,-0.8348 2.049998,-1.1996 0.857148,-0.501 -0.05,-0.4502 -0.05,-0.4502 0,0 -1.364286,-0.152 -4.149996,-0.152 -1.39286,0 -1.996428,0.062 -2.300002,0.152 -0.15178,0.046 -0.226342,0.09 -0.300002,0.15 -0.07366,0.062 -0.125,0.128 -0.249996,0.2 -0.500006,0.2856 0.292846,0.5856 -0.349998,0.7996 -0.48214,0.16 -0.53817,0 -0.949998,-0.3014 0.293774,-0.2922 0.699166,-0.644 1.199998,-1.2502 0.909138,-1.0998 1.196954,-0.8996 1.499998,-1.8996 0.303052,-1.0004 -2.549996,-0.6998 -2.549996,-1.3 0,-0.6 -0.490866,-0.9998 -1.4,-1.4 -0.909138,-0.4002 -0.28986,-0.6002 -1.300002,-0.9002 -1.01015,-0.2988 -2.146952,1.4998 -2.449998,0.9002 -0.303052,-0.6002 0.95,-0.6002 0.95,-1.2998 0,-0.6832 -1.440728,0.5156 -1.700004,-0.35 -0.0068,-0.032 -0.04494,-0.032 -0.05,-0.052 -0.02536,-0.126 -0.009,-0.2002 0,-0.2988 0.06356,-0.7192 0.896448,-0.9998 1.250002,-1.7002 0.404064,-0.7992 0.19492,0.6006 0.7,1.3004 0.505078,0.7 0.303054,-0.9 0,-1.8 -0.30305,-0.9004 0.1929,-0.9 0.900002,-2.1 0.707106,-1.2002 0.7,-1.9 0.7,-2.8002 0,-0.8998 0.489848,-0.9992 1.499998,-1.9 0.462988,-0.412 0.826228,-0.7716 1.1,-1.0998 0.06618,-0.032 0.13304,-0.032 0.2,-0.052 1.071432,-0.4288 1.521428,-1.0714 2.45,-3.0002 0.928576,-1.9282 -0.364284,-0.128 -0.650002,-0.2002 -0.285718,-0.07 -0.699998,-0.5784 -1.7,-1.15 -0.206248,-0.118 -0.390292,-0.174 -0.549998,-0.198 l 1.850002,-3.05 c 0.59259,-0.16 1.228826,-0.2696 1.849998,-0.3502 0.227274,1.2932 0.10002,2.5002 0.10002,2.5002 0,0 -0.35,0.4142 -0.35,0.7 0,0.2858 1.914286,-2.357 2.2,-2.5 0.28572,-0.144 1.00714,0.7572 1.149998,-0.6 0.008,-0.078 -0.009,-0.08 0,-0.15 z m 2.7,5.3998 c -0.10258,-0.032 -0.223742,-2e-4 -0.349996,0.052 0,0.3536 -0.13686,0.6108 -0.19998,0.7498 -0.03756,-0.064 -0.15002,-0.15 -0.15002,-0.15 -0.1515,0.2794 -0.478304,0.5258 -0.15002,0.45 0.3283,-0.074 0.577284,0.128 0.350002,-0.15 -0.0437,-0.052 -0.02312,-0.03 -0.05,-0.052 0.04258,0.032 0.12322,0.052 0.300002,0.052 0.1989,0 0.305812,0 0.449998,0 -0.243866,0.18 -0.509866,0.2568 -0.15002,0.35 0.47982,0.126 0.7,0.152 0.7,0.052 0,-0.1 -0.14998,-0.45 -0.14998,-0.45 0.09374,-0.038 0.18082,-0.086 0.10002,-0.2504 -0.15152,-0.3016 -0.392222,-0.6026 -0.700004,-0.6498 z M 59.65,1004.862 c 0.249834,0.3882 0.48916,0.7872 0.700002,1.2002 -0.13908,0.8068 -0.492292,1.3502 0.10002,1.3502 0.1656,0 0.313322,-0.036 0.45,-0.052 0.0186,0.048 0.0321,0.102 0.05,0.15 -1.010156,0 -1.494924,0.302 -2.000002,0.2 -0.505078,-0.102 -1.909136,-0.192 -1,-1.0998 0.531352,-0.5316 1.195108,-1.3758 1.7,-1.7504 z m -6.3,1.8506 c 0.0931,0.03 0.17426,0.126 0.249996,0.2982 0.303052,0.7074 0.804062,1.2992 0.400002,1.4004 -0.404064,0.1 -0.600004,0.2002 -0.600004,0.2002 0,0 1.398986,0.9096 1.500002,-0.1 0.10102,-1.0106 -0.4,-1.6006 -0.4,-1.6006 0,0 0.697972,0.6962 0.9,1.1004 0.202044,0.404 0.19492,0 0.700002,0.5002 0.505074,0.5046 0.392892,-2.0074 1.1,-1.3002 0.707108,0.707 1.152032,0.695 0.949998,1.2 -0.202046,0.5048 1.300004,-0.6102 1.300004,0.3998 0,0.9738 0.62107,1.369 -0.6,1.8502 -0.46231,-0.032 -0.828228,-0.11 -0.900004,-0.2506 -0.202042,-0.4036 -1.349998,-0.1 -1.349998,-0.1 -3.021834,-0.7552 -4.33372,-0.9946 -5.200002,-0.8498 0.0164,-0.032 0.03228,-0.032 0.05,-0.052 0.441942,-0.796 1.273452,-1.9012 1,-2.3 0.38514,-0.2218 0.687046,-0.465 0.9,-0.4004 z m 8.5,5.0496 c 0.009,0.2022 0,0.395 0,0.6002 0,0.5686 -0.0341,1.1494 -0.10002,1.6998 -0.908822,-0.8086 -2.200002,-0.7998 -2.200002,-0.7998 0,0 0.788832,-0.896 1.900002,-1.3002 0.13892,-0.052 0.287742,-0.118 0.4,-0.2 z"
       style="line-height:normal;color:#000000;fill:#000000;fill-opacity:0.25098039"
       inkscape:connector-curvature="0" />
  </g>
</svg>
