<?xml version="1.0" encoding="UTF-8" standalone="no"?>
<svg
   xmlns:dc="http://purl.org/dc/elements/1.1/"
   xmlns:cc="http://creativecommons.org/ns#"
   xmlns:rdf="http://www.w3.org/1999/02/22-rdf-syntax-ns#"
   xmlns:svg="http://www.w3.org/2000/svg"
   xmlns="http://www.w3.org/2000/svg"
   xmlns:sodipodi="http://sodipodi.sourceforge.net/DTD/sodipodi-0.dtd"
   xmlns:inkscape="http://www.inkscape.org/namespaces/inkscape"
   width="48"
   viewBox="0 0 48 48"
   height="48"
   id="svg3043"
   version="1.1"
   inkscape:version="0.48.4 r9939"
   sodipodi:docname="folder-documents.svg">
  <metadata
     id="metadata3061">
    <rdf:RDF>
      <cc:Work
         rdf:about="">
        <dc:format>image/svg+xml</dc:format>
        <dc:type
           rdf:resource="http://purl.org/dc/dcmitype/StillImage" />
      </cc:Work>
    </rdf:RDF>
  </metadata>
  <defs
     id="defs3059" />
  <sodipodi:namedview
     pagecolor="#ffffff"
     bordercolor="#666666"
     borderopacity="1"
     objecttolerance="10"
     gridtolerance="10"
     guidetolerance="10"
     inkscape:pageopacity="0"
     inkscape:pageshadow="2"
     inkscape:window-width="658"
     inkscape:window-height="480"
     id="namedview3057"
     showgrid="false"
     inkscape:zoom="4.9166667"
     inkscape:cx="8.9491525"
     inkscape:cy="20.949153"
     inkscape:window-x="74"
     inkscape:window-y="245"
     inkscape:window-maximized="0"
     inkscape:current-layer="svg3043" />
  <path
     inkscape:connector-curvature="0"
     id="path3011"
     d="m 5.7833064,37.796773 c -0.699852,-0.07166 -1.291695,-0.758304 -1.288428,-1.494797 l 0,-28.297283 c 7.3e-5,-0.782651 0.679932,-1.494714 1.427182,-1.494794 l 35.2038306,0 c 0.747251,8e-5 1.427108,0.712143 1.427185,1.494794 l 0,25.671013 c -7.7e-5,0.782652 -0.679934,1.494713 -1.427185,1.494793 l -13.74654,0 0,1.131477 c -7.4e-5,0.782651 -0.679932,1.494718 -1.427182,1.494797 l -20.0301086,0 c -0.04622,0.0023 -0.09254,0.0023 -0.138754,0 z"
     style="line-height:normal;fill:#e9a439;fill-opacity:1;stroke:#e9a439;stroke-opacity:1" />
  <path
     inkscape:connector-curvature="0"
     id="path3013"
     d="M 3.0241725,10.52925 C 2.1962772,10.60019 1.496152,11.279889 1.5000159,12.008941 l 0,28.01137 c 8.85e-5,0.774744 0.8043308,1.479612 1.6882966,1.479689 l 41.6446435,0 c 0.883968,-7.7e-5 1.688208,-0.704945 1.688298,-1.479689 l 0,-25.411636 c -9e-5,-0.774743 -0.80433,-1.479612 -1.688298,-1.479691 l -16.261576,0 0,-1.120043 c -8.9e-5,-0.774743 -0.804331,-1.479613 -1.688296,-1.479691 l -23.6947715,0 c -0.05467,-0.0023 -0.1094698,-0.0023 -0.16414,0 z"
     style="line-height:normal;fill:#f5c14e;fill-opacity:1;stroke:#e9a439;stroke-opacity:1" />
  <path
     style="line-height:normal;color:#000000;fill:#d0a444;fill-opacity:1"
     d="m 19.001449,20.00001 c -0.999803,0 -1.010387,0.742 -0.999803,1 l 0,13.999296 c 0,1 0.703784,1.0058 0.999803,1 l 9.998038,0 c 0.999804,0 1.005572,-0.7142 0.999804,-1 l 0,-12.999396 -1.999607,-1.9686 z m 0.999804,2.0312 5.998823,0 0,0.999896 1.999608,0 0,4.9686 -5.998823,0 0,5.9997 -1.999608,0.031 z m 2.999412,6.968396 3.999215,0 -3.999215,3.9998 z"
     id="path3055"
     inkscape:connector-curvature="0" />
</svg>
