<?xml version="1.0" encoding="UTF-8" standalone="no"?>
<svg
   xmlns:dc="http://purl.org/dc/elements/1.1/"
   xmlns:cc="http://creativecommons.org/ns#"
   xmlns:rdf="http://www.w3.org/1999/02/22-rdf-syntax-ns#"
   xmlns:svg="http://www.w3.org/2000/svg"
   xmlns="http://www.w3.org/2000/svg"
   xmlns:sodipodi="http://sodipodi.sourceforge.net/DTD/sodipodi-0.dtd"
   xmlns:inkscape="http://www.inkscape.org/namespaces/inkscape"
   width="48"
   viewBox="0 0 48 48"
   height="48"
   id="svg3103"
   version="1.1"
   inkscape:version="0.48.4 r9939"
   sodipodi:docname="folder-move.svg">
  <metadata
     id="metadata3127">
    <rdf:RDF>
      <cc:Work
         rdf:about="">
        <dc:format>image/svg+xml</dc:format>
        <dc:type
           rdf:resource="http://purl.org/dc/dcmitype/StillImage" />
      </cc:Work>
    </rdf:RDF>
  </metadata>
  <defs
     id="defs3125" />
  <sodipodi:namedview
     pagecolor="#ffffff"
     bordercolor="#666666"
     borderopacity="1"
     objecttolerance="10"
     gridtolerance="10"
     guidetolerance="10"
     inkscape:pageopacity="0"
     inkscape:pageshadow="2"
     inkscape:window-width="658"
     inkscape:window-height="480"
     id="namedview3123"
     showgrid="false"
     inkscape:zoom="4.9166667"
     inkscape:cx="28.067797"
     inkscape:cy="25.423729"
     inkscape:window-x="135"
     inkscape:window-y="103"
     inkscape:window-maximized="0"
     inkscape:current-layer="svg3103" />
  <path
     style="line-height:normal;opacity:0.50000000000000000;fill:#e9a439;stroke:#e9a439;stroke-width:0.99979180000000001;fill-opacity:1;stroke-opacity:1"
     d="M 3.1875 6.5 C 2.7378087 6.5000481 2.312544 6.904356 2.3125 7.375 L 2.3125 8.71875 L 1.53125 8.71875 C 1.498483 8.71733 1.470269 8.71733 1.4375 8.71875 C 0.94128668 8.7618217 0.52893416 9.1823076 0.53125 9.625 L 0.53125 26.625 C 0.531303 27.095438 1.0014298 27.531202 1.53125 27.53125 L 26.5 27.53125 C 27.029821 27.531202 27.499946 27.095438 27.5 26.625 L 27.5 11.1875 C 27.499946 10.717063 27.029821 10.281298 26.5 10.28125 L 25.21875 10.28125 L 25.21875 7.375 C 25.218703 6.904356 24.824692 6.5000481 24.375 6.5 L 3.1875 6.5 z "
     id="path3113" />
  <path
     style="line-height:normal;fill:#e9a439;stroke:#e9a439;stroke-width:1;stroke-opacity:1;fill-opacity:1"
     d="m 23.504575,39.407186 c -0.418711,-0.04334 -0.772804,-0.458648 -0.770849,-0.904104 l 0,-17.115159 c 4.4e-5,-0.473372 0.406793,-0.904054 0.853863,-0.904101 l 21.06196,0 c 0.447069,4.7e-5 0.853816,0.430729 0.853864,0.904101 l 0,15.526701 c -4.8e-5,0.473374 -0.406795,0.904055 -0.853864,0.904102 l -8.224364,0 0,0.684356 c -4.6e-5,0.473375 -0.406794,0.904058 -0.853862,0.904104 l -11.983734,0 c -0.02764,0.0013 -0.05537,0.0013 -0.08301,0 z"
     id="path3119"
     inkscape:connector-curvature="0" />
  <path
     style="line-height:normal;fill:#f5c14e;stroke:#e9a439;stroke-width:1;stroke-opacity:1;fill-opacity:1"
     d="m 21.444078,22.563888 c -0.496823,0.04316 -0.916969,0.456678 -0.91465,0.900221 l 0,17.041679 c 5.4e-5,0.471343 0.48268,0.900173 1.01315,0.900219 l 24.991041,0 c 0.53047,-4.6e-5 1.013096,-0.428876 1.01315,-0.900219 l 0,-15.460042 c -5.4e-5,-0.471342 -0.48268,-0.900172 -1.01315,-0.900221 l -9.758607,0 0,-0.681416 c -5.4e-5,-0.471342 -0.482682,-0.900173 -1.01315,-0.900221 l -14.219284,0 c -0.03281,-0.0014 -0.0657,-0.0014 -0.09849,0 z"
     id="path3121"
     inkscape:connector-curvature="0" />
</svg>
