<?xml version="1.0" encoding="UTF-8" standalone="no"?>
<svg
   xmlns:dc="http://purl.org/dc/elements/1.1/"
   xmlns:cc="http://creativecommons.org/ns#"
   xmlns:rdf="http://www.w3.org/1999/02/22-rdf-syntax-ns#"
   xmlns:svg="http://www.w3.org/2000/svg"
   xmlns="http://www.w3.org/2000/svg"
   xmlns:sodipodi="http://sodipodi.sourceforge.net/DTD/sodipodi-0.dtd"
   xmlns:inkscape="http://www.inkscape.org/namespaces/inkscape"
   viewBox="0 0 48 48"
   id="svg3163"
   version="1.1"
   inkscape:version="0.48.4 r9939"
   width="100%"
   height="100%"
   sodipodi:docname="folder-pictures.svg">
  <metadata
     id="metadata3195">
    <rdf:RDF>
      <cc:Work
         rdf:about="">
        <dc:format>image/svg+xml</dc:format>
        <dc:type
           rdf:resource="http://purl.org/dc/dcmitype/StillImage" />
      </cc:Work>
    </rdf:RDF>
  </metadata>
  <defs
     id="defs3193" />
  <sodipodi:namedview
     pagecolor="#ffffff"
     bordercolor="#666666"
     borderopacity="1"
     objecttolerance="10"
     gridtolerance="10"
     guidetolerance="10"
     inkscape:pageopacity="0"
     inkscape:pageshadow="2"
     inkscape:window-width="658"
     inkscape:window-height="480"
     id="namedview3191"
     showgrid="false"
     inkscape:zoom="4.9166667"
     inkscape:cx="34.169492"
     inkscape:cy="25.220339"
     inkscape:window-x="0"
     inkscape:window-y="0"
     inkscape:window-maximized="0"
     inkscape:current-layer="svg3163" />
  <path
     inkscape:connector-curvature="0"
     id="path3011"
     d="m 5.7833059,37.796773 c -0.699851,-0.07166 -1.291695,-0.758304 -1.288428,-1.494797 l 0,-28.2972825 c 7.3e-5,-0.7826511 0.679932,-1.4947146 1.427182,-1.4947945 l 35.2038311,0 c 0.747251,7.99e-5 1.427108,0.7121434 1.427185,1.4947945 l 0,25.6710125 c -7.7e-5,0.782652 -0.679934,1.494713 -1.427185,1.494793 l -13.74654,0 0,1.131477 c -7.4e-5,0.782651 -0.679932,1.494718 -1.427182,1.494797 l -20.0301091,0 c -0.04622,0.0023 -0.09254,0.0023 -0.138754,0 z"
     style="line-height:normal;fill:#e9a439;fill-opacity:1;stroke:#e9a439;stroke-opacity:1" />
  <path
     inkscape:connector-curvature="0"
     id="path3013"
     d="m 3.0241719,10.52925 c -0.827895,0.07094 -1.52802,0.750639 -1.524156,1.479691 l 0,28.01137 c 8.8e-5,0.774744 0.804331,1.479612 1.688296,1.479689 l 41.6446441,0 c 0.883968,-7.7e-5 1.688208,-0.704945 1.688298,-1.479689 l 0,-25.411636 c -9e-5,-0.774743 -0.80433,-1.479612 -1.688298,-1.479691 l -16.261576,0 0,-1.120043 c -8.9e-5,-0.774743 -0.804331,-1.479613 -1.688296,-1.479691 l -23.6947721,0 c -0.05467,-0.0023 -0.109469,-0.0023 -0.16414,0 z"
     style="line-height:normal;fill:#f5c14e;fill-opacity:1;stroke:#e9a439;stroke-opacity:1" />
  <path
     style="line-height:normal;color:#000000;fill:#d0a444;fill-opacity:1"
     d="m 17.108083,18.9999 c -0.561046,0.054 -1.046039,0.6481 -1.036036,1.2813 l 0,13.4687 c 0.0061,0.663 0.537952,1.2595 1.127451,1.25 l 13.703477,0 c 0.580248,-0.01 1.090909,-0.5974 1.09698,-1.25 l 0,-13.4687 c 0.0084,-0.663 -0.507467,-1.2744 -1.09698,-1.2813 l -13.703477,0 z M 18.05305,21 l 11.957685,-10e-5 0,10 L 18.05305,31 z"
     id="path3175"
     inkscape:connector-curvature="0" />
  <path
     style="fill:#d0a444;fill-rule:evenodd;fill-opacity:1"
     d="m 16.045357,29.434367 c 0.228861,-0.1684 0.7601,-0.6684 1.63018,-1.5329 0.866857,-0.87 2.026767,-2.0604 3.528738,-3.6237 0.982854,1.3976 1.706238,2.4057 2.240531,3.0686 0.521998,0.6546 0.811996,0.9418 0.882206,0.8617 0.555492,-0.4971 1.02271,-0.9197 1.425655,-1.2898 0.396838,-0.3701 0.704982,-0.6739 0.949279,-0.9225 1.221044,1.5356 2.234512,2.8006 3.122824,3.8695 0.872959,1.0606 1.566074,1.8643 2.103334,2.4554 l -3.324382,-2.762 c -0.274735,0.7071 -0.723383,1.0717 -1.358412,1.1048 -0.653343,0.019 -1.645359,-0.7733 -2.445143,-0.9197 -0.799785,-0.1464 -1.596516,0.3038 -2.307861,0.061 -0.726521,-0.2569 -1.288116,-1.2733 -1.96885,-1.5357 -0.683785,-0.2596 -1.376728,-0.2596 -2.103335,0 -0.790542,0.3867 -1.581169,0.7761 -2.374764,1.1655 z"
     id="path3179"
     inkscape:connector-curvature="0" />
  <path
     style="fill:#d0a444;fill-rule:evenodd;fill-opacity:1"
     d="m 16.000002,28.907067 c 0.228863,-0.174 0.760103,-0.6684 1.630182,-1.5356 0.866858,-0.87 2.026765,-2.0604 3.528735,-3.6237 0.982942,1.3948 1.706327,2.4112 2.240619,3.0713 0.521996,0.6573 0.811994,0.9363 0.882203,0.8589 0.555662,-0.4971 1.022711,-0.9197 1.425658,-1.2898 0.39684,-0.3701 0.704984,-0.6767 0.949275,-0.9197 1.221047,1.5356 2.234516,2.8006 3.122824,3.8695 0.872963,1.0606 1.566076,1.8643 2.103338,2.4554 l -3.324382,-2.7647 c -0.274734,0.7125 -0.723385,1.0716 -1.358412,1.1075 -0.64724,0.022 -1.642393,-0.7789 -2.442176,-0.9225 -0.802754,-0.1464 -1.596517,0.3038 -2.310829,0.061 -0.720417,-0.2597 -1.285151,-1.2678 -1.965881,-1.5329 -0.686839,-0.2596 -1.373592,-0.2596 -2.106306,0 -0.790541,0.3866 -1.581167,0.7761 -2.374848,1.1655 z"
     id="path3181"
     inkscape:connector-curvature="0" />
  <rect
     style="fill:#d0a444;fill-opacity:1"
     width="11.946"
     x="17.057529"
     y="28.00009"
     rx="2"
     height="5"
     id="rect3185" />
  <rect
     style="fill:#d0a444;fill-opacity:1"
     width="2.987"
     x="28.00853"
     y="30.00009"
     rx="1"
     height="2"
     id="rect3187" />
  <rect
     style="fill:#d0a444;fill-opacity:1"
     width="1.9910001"
     x="27.537529"
     y="29.123091"
     rx="0.5"
     height="2"
     id="rect3189" />
</svg>
