<?xml version="1.0" encoding="UTF-8" standalone="no"?>
<svg
   xmlns:dc="http://purl.org/dc/elements/1.1/"
   xmlns:cc="http://creativecommons.org/ns#"
   xmlns:rdf="http://www.w3.org/1999/02/22-rdf-syntax-ns#"
   xmlns:svg="http://www.w3.org/2000/svg"
   xmlns="http://www.w3.org/2000/svg"
   xmlns:sodipodi="http://sodipodi.sourceforge.net/DTD/sodipodi-0.dtd"
   xmlns:inkscape="http://www.inkscape.org/namespaces/inkscape"
   width="48"
   viewBox="0 0 48 48"
   height="48"
   id="svg3063"
   version="1.1"
   inkscape:version="0.48.4 r9939"
   sodipodi:docname="folder-download.svg">
  <metadata
     id="metadata3081">
    <rdf:RDF>
      <cc:Work
         rdf:about="">
        <dc:format>image/svg+xml</dc:format>
        <dc:type
           rdf:resource="http://purl.org/dc/dcmitype/StillImage" />
      </cc:Work>
    </rdf:RDF>
  </metadata>
  <defs
     id="defs3079" />
  <sodipodi:namedview
     pagecolor="#ffffff"
     bordercolor="#666666"
     borderopacity="1"
     objecttolerance="10"
     gridtolerance="10"
     guidetolerance="10"
     inkscape:pageopacity="0"
     inkscape:pageshadow="2"
     inkscape:window-width="658"
     inkscape:window-height="480"
     id="namedview3077"
     showgrid="false"
     inkscape:zoom="4.9166667"
     inkscape:cx="20.542373"
     inkscape:cy="18.101695"
     inkscape:window-x="205"
     inkscape:window-y="341"
     inkscape:window-maximized="0"
     inkscape:current-layer="svg3063" />
  <path
     inkscape:connector-curvature="0"
     id="path3011"
     d="m 5.7833069,37.796773 c -0.699852,-0.07166 -1.291695,-0.758304 -1.288429,-1.494797 l 0,-28.2972821 c 7.3e-5,-0.7826511 0.679932,-1.4947146 1.427182,-1.4947945 l 35.2038311,0 c 0.747251,7.99e-5 1.427108,0.7121434 1.427185,1.4947945 l 0,25.6710121 c -7.7e-5,0.782652 -0.679934,1.494713 -1.427185,1.494793 l -13.74654,0 0,1.131477 c -7.4e-5,0.782651 -0.679932,1.494718 -1.427182,1.494797 l -20.0301091,0 c -0.04622,0.0023 -0.09254,0.0023 -0.138753,0 z"
     style="line-height:normal;fill:#e9a439;fill-opacity:1;stroke:#e9a439;stroke-opacity:1" />
  <path
     inkscape:connector-curvature="0"
     id="path3013"
     d="m 3.0241729,10.52925 c -0.827896,0.07094 -1.528021,0.750639 -1.524157,1.479691 l 0,28.01137 c 8.9e-5,0.774744 0.804331,1.479612 1.688297,1.479689 l 41.6446431,0 c 0.883968,-7.7e-5 1.688208,-0.704945 1.688298,-1.479689 l 0,-25.411636 c -9e-5,-0.774743 -0.80433,-1.479612 -1.688298,-1.479691 l -16.261576,0 0,-1.120043 c -8.9e-5,-0.774743 -0.804331,-1.479613 -1.688296,-1.479691 l -23.6947711,0 c -0.05467,-0.0023 -0.10947,-0.0023 -0.16414,0 z"
     style="line-height:normal;fill:#f5c14e;fill-opacity:1;stroke:#e9a439;stroke-opacity:1" />
  <path
     style="line-height:normal;color:#000000;fill:#d0a444;fill-opacity:1"
     d="m 24.074874,35.994168 c 0.360643,-0.02586 0.710336,-0.18331 0.96825,-0.435955 l 4.487087,-4.758033 c 0.285173,-0.274953 0.457065,-0.663396 0.468508,-1.058748 0.02663,-0.61984 -0.364421,-1.236633 -0.937432,-1.478588 -0.57301,-0.241955 -1.289444,-0.0928 -1.717446,0.35756 l -3.340253,3.390946 -3.504197,-3.542949 c -0.58794,-0.479576 -1.540777,-0.428762 -2.074048,0.110606 -0.533272,0.539368 -0.570525,1.489964 -0.08109,2.069169 l 4.512499,4.910037 c 0.316975,0.31175 0.774642,0.475544 1.218121,0.435955 z m 3.060917,-8.941302 c 0.508178,-0.05935 0.927162,-0.549085 0.905782,-1.058748 l 0,-2.553451 c -4.75e-4,-0.537753 -0.491337,-1.026703 -1.030717,-1.026703 -0.53938,0 -1.030241,0.48895 -1.030716,1.026703 l 0,2.553451 c -0.02001,0.559563 0.500694,1.078698 1.06195,1.058748 0.03121,0.0014 0.06249,0.0014 0.0937,0 z m -3.04133,0.202672 c 0.519088,-0.04468 0.957181,-0.53969 0.937016,-1.058748 l 0,-5.169182 C 25.031477,20.489553 24.540442,20 24.00076,20 c -0.539683,0 -1.030718,0.489553 -1.030718,1.027608 l 0,5.169182 c -0.01929,0.54898 0.479746,1.061586 1.030718,1.058748 0.03121,0.0014 0.06249,0.0014 0.0937,0 z m -3.010097,-0.202672 c 0.508177,-0.05935 0.927161,-0.549085 0.905782,-1.058748 l 0,-3.643339 c 0.08554,-0.579218 -0.427866,-1.17196 -1.015101,-1.17196 -0.587234,0 -1.100642,0.592742 -1.0151,1.17196 l 0,3.643339 c -0.02317,0.581703 0.543231,1.115022 1.124419,1.058748 z"
     id="path3075"
     inkscape:connector-curvature="0" />
</svg>
