<?xml version="1.0" encoding="UTF-8" standalone="no"?>
<svg
   xmlns:dc="http://purl.org/dc/elements/1.1/"
   xmlns:cc="http://creativecommons.org/ns#"
   xmlns:rdf="http://www.w3.org/1999/02/22-rdf-syntax-ns#"
   xmlns:svg="http://www.w3.org/2000/svg"
   xmlns="http://www.w3.org/2000/svg"
   xmlns:sodipodi="http://sodipodi.sourceforge.net/DTD/sodipodi-0.dtd"
   xmlns:inkscape="http://www.inkscape.org/namespaces/inkscape"
   width="48"
   viewBox="0 0 48 48"
   height="48"
   id="svg3237"
   version="1.1"
   inkscape:version="0.48.4 r9939"
   sodipodi:docname="folder-saved-search.svg">
  <metadata
     id="metadata3255">
    <rdf:RDF>
      <cc:Work
         rdf:about="">
        <dc:format>image/svg+xml</dc:format>
        <dc:type
           rdf:resource="http://purl.org/dc/dcmitype/StillImage" />
      </cc:Work>
    </rdf:RDF>
  </metadata>
  <defs
     id="defs3253" />
  <sodipodi:namedview
     pagecolor="#ffffff"
     bordercolor="#666666"
     borderopacity="1"
     objecttolerance="10"
     gridtolerance="10"
     guidetolerance="10"
     inkscape:pageopacity="0"
     inkscape:pageshadow="2"
     inkscape:window-width="658"
     inkscape:window-height="480"
     id="namedview3251"
     showgrid="false"
     inkscape:zoom="4.9166667"
     inkscape:cx="17.694915"
     inkscape:cy="22.576271"
     inkscape:window-x="0"
     inkscape:window-y="0"
     inkscape:window-maximized="0"
     inkscape:current-layer="svg3237" />
  <path
     inkscape:connector-curvature="0"
     id="path3011"
     d="M 5.7833066,37.796773 C 5.0834549,37.72511 4.4916114,37.038469 4.494878,36.301976 l 0,-28.297282 C 4.4949512,7.222043 5.1748103,6.509979 5.92206,6.509899 l 35.203831,0 c 0.747251,8e-5 1.427108,0.712144 1.427185,1.494795 l 0,25.671013 c -7.7e-5,0.782651 -0.679934,1.494712 -1.427185,1.494792 l -13.74654,0 0,1.131477 c -7.4e-5,0.782651 -0.679932,1.494718 -1.427182,1.494797 l -20.030109,0 c -0.046215,0.0023 -0.092541,0.0023 -0.1387534,0 z"
     style="line-height:normal;fill:#e9a439;fill-opacity:1;stroke:#e9a439;stroke-opacity:1" />
  <path
     inkscape:connector-curvature="0"
     id="path3013"
     d="M 3.0241725,10.52925 C 2.1962772,10.60019 1.496152,11.279889 1.5000159,12.008941 l 0,28.01137 c 8.85e-5,0.774744 0.8043308,1.479612 1.6882966,1.479689 l 41.6446435,0 c 0.883968,-7.7e-5 1.688208,-0.704945 1.688298,-1.479689 l 0,-25.411636 c -9e-5,-0.774743 -0.80433,-1.479612 -1.688298,-1.479691 l -16.261576,0 0,-1.120043 c -8.9e-5,-0.774743 -0.804331,-1.479613 -1.688296,-1.479691 l -23.6947715,0 c -0.05467,-0.0023 -0.1094698,-0.0023 -0.16414,0 z"
     style="line-height:normal;fill:#f5c14e;fill-opacity:1;stroke:#e9a439;stroke-opacity:1" />
  <path
     style="line-height:normal;color:#000000;fill:#d0a444;fill-opacity:1"
     d="m 30.380013,21.61705 c -2.166468,-2.1658 -5.669439,-2.1524 -7.835913,0.016 -1.842186,1.8416 -2.118258,4.6448 -0.830474,6.7756 l -5.344497,5.3431 c -0.498669,0.4985 -0.498669,1.2958 0,1.7943 l 0.08037,0.08 c 0.498669,0.4986 1.296224,0.4986 1.794893,0 l 5.344498,-5.343 c 2.13438,1.2904 4.948943,1.0249 6.791128,-0.8168 2.166475,-2.1657 2.166472,-5.6812 0,-7.847 z m -1.218918,1.2184 c 1.490109,1.4898 1.490094,3.9204 0,5.4099 -1.47616,1.4758 -3.864688,1.4752 -5.35789,0.027 l -0.04019,-0.04 c -0.01333,-0.016 -0.02714,-0.027 -0.04019,-0.041 -1.450523,-1.4924 -1.436635,-3.8667 0.04019,-5.3428 1.490093,-1.4899 3.907968,-1.5033 5.398076,-0.016 z"
     id="path3249"
     inkscape:connector-curvature="0" />
</svg>
