<?xml version="1.0" encoding="UTF-8" standalone="no"?>
<svg
   xmlns:dc="http://purl.org/dc/elements/1.1/"
   xmlns:cc="http://creativecommons.org/ns#"
   xmlns:rdf="http://www.w3.org/1999/02/22-rdf-syntax-ns#"
   xmlns:svg="http://www.w3.org/2000/svg"
   xmlns="http://www.w3.org/2000/svg"
   xmlns:sodipodi="http://sodipodi.sourceforge.net/DTD/sodipodi-0.dtd"
   xmlns:inkscape="http://www.inkscape.org/namespaces/inkscape"
   width="48"
   viewBox="0 0 48 48"
   height="48"
   id="svg3151"
   version="1.1"
   inkscape:version="0.48.5 r10040"
   sodipodi:docname="folder-wine.svg">
  <metadata
     id="metadata3173">
    <rdf:RDF>
      <cc:Work
         rdf:about="">
        <dc:format>image/svg+xml</dc:format>
        <dc:type
           rdf:resource="http://purl.org/dc/dcmitype/StillImage" />
      </cc:Work>
    </rdf:RDF>
  </metadata>
  <defs
     id="defs3171" />
  <sodipodi:namedview
     pagecolor="#ffffff"
     bordercolor="#666666"
     borderopacity="1"
     objecttolerance="10"
     gridtolerance="10"
     guidetolerance="10"
     inkscape:pageopacity="0"
     inkscape:pageshadow="2"
     inkscape:window-width="672"
     inkscape:window-height="480"
     id="namedview3169"
     showgrid="false"
     inkscape:zoom="4.9166667"
     inkscape:cx="24"
     inkscape:cy="24"
     inkscape:window-x="0"
     inkscape:window-y="0"
     inkscape:window-maximized="0"
     inkscape:current-layer="svg3151" />
  <path
     style="font-size:medium;font-style:normal;font-variant:normal;font-weight:normal;font-stretch:normal;text-indent:0;text-align:start;text-decoration:none;line-height:normal;letter-spacing:normal;word-spacing:normal;text-transform:none;direction:ltr;block-progression:tb;writing-mode:lr-tb;text-anchor:start;baseline-shift:baseline;color:#000000;fill:#e9b080;fill-opacity:1;fill-rule:nonzero;stroke:none;stroke-width:1;marker:none;visibility:visible;display:inline;overflow:visible;enable-background:accumulate;font-family:Sans;-inkscape-font-specification:Sans"
     d="m 6.000023,5.9999999 c -1,0 -2,1 -2,2 l 0,2 -1,0 c -1,0 -2.00556897,0.9492071 -2,2.0000001 l 0,28 c 1.28e-4,1.120734 1.037763,1.9999 2.1875,2 l 41.625,0 c 1.1875,0 2.1875,-1 2.1875,-2 l 0,-25 c 0,-1 -1,-2 -2,-2 l -2,0 0,-5.0000001 c 0,-1 -1,-2 -2,-2 z"
     id="path3770"
     inkscape:connector-curvature="0"
     sodipodi:nodetypes="sscsccccccccsss" />
  <path
     style="line-height:normal;color:#000000;fill:#000000;fill-opacity:0.32156864"
     d="m 30.388486,17.939179 c -0.732435,0.01216 -1.452977,0.491755 -1.568292,1.385855 -0.184505,1.43056 1.199282,0.8941 2.306312,0.8941 1.10703,0 1.47604,2.32466 1.199283,3.5764 -0.276758,1.25174 -3.219221,4.208422 -9.871018,1.25174 -5.476532,-2.434312 -8.210863,0.806908 -8.348851,0.871712 0.51829,4.836223 4.744003,10.081013 9.871017,10.081013 5.477087,0 9.917144,-5.778532 9.917144,-11.08684 0,-0.609704 -0.07251,-1.210039 -0.184505,-1.7882 -0.101839,-0.292191 -0.201989,-0.583668 -0.276757,-0.849395 -0.134026,-0.476305 -0.28538,-0.878077 -0.415137,-1.25174 -0.0056,-0.01216 0.0057,-0.03219 0,-0.04506 -0.524286,-1.128497 -1.259358,-2.148701 -2.167933,-2.995235 -0.0041,-0.0072 -0.01898,0.0072 -0.02306,0 -0.141982,-0.03505 -0.291712,-0.04721 -0.438199,-0.04506 z"
     id="path3163"
     inkscape:connector-curvature="0" />
  <path
     style="line-height:normal;color:#000000;fill:#000000;fill-opacity:0.32156864"
     d="m 28.86632,21.336761 c 0,0.296278 -0.247817,0.53646 -0.553515,0.53646 -0.305698,0 -0.553515,-0.240182 -0.553515,-0.53646 0,-0.296279 0.247817,-0.53646 0.553515,-0.53646 0.305698,0 0.553515,0.240181 0.553515,0.53646 z"
     id="path3165"
     inkscape:connector-curvature="0" />
  <path
     style="line-height:normal;color:#000000;fill:#000000;fill-opacity:0.32156864"
     d="m 27.75929,19.392093 c 0,0.209864 -0.175538,0.379993 -0.392073,0.379993 -0.216536,0 -0.392073,-0.170129 -0.392073,-0.379993 0,-0.209864 0.175537,-0.379992 0.392073,-0.379992 0.216535,0 0.392073,0.170128 0.392073,0.379992 z"
     id="path3167"
     inkscape:connector-curvature="0" />
  <path
     inkscape:connector-curvature="0"
     style="font-size:medium;font-style:normal;font-variant:normal;font-weight:normal;font-stretch:normal;text-indent:0;text-align:start;text-decoration:none;line-height:normal;letter-spacing:normal;word-spacing:normal;text-transform:none;direction:ltr;block-progression:tb;writing-mode:lr-tb;text-anchor:start;baseline-shift:baseline;color:#000000;fill:#000000;fill-opacity:0.32156863;fill-rule:nonzero;stroke:none;stroke-width:1;marker:none;visibility:visible;display:inline;overflow:visible;enable-background:accumulate;font-family:Sans;-inkscape-font-specification:Sans"
     d="m 6.000023,5.9999999 c -1,0 -2,1 -2,2 l 0,2 -1,0 c -1,0 -2.00556897,0.9492071 -2,2.0000001 l 0,28 c 1.28e-4,1.120734 1.037763,1.9999 2.1875,2 l 41.625,0 c 1.1875,0 2.1875,-1 2.1875,-2 l 0,-25 c 0,-1 -1,-2 -2,-2 l -2,0 0,-5.0000001 c 0,-1 -1,-2 -2,-2 l -35,0 z m -3,5.0000001 24,0 c 0.507314,0 1,0.494167 1,1 l 0,2 17,0 c 0.540858,0 1,0.471809 1,1 l 0,25 c 0,0.553755 -0.452115,1 -1,1 l -42,0 c -0.512726,0 -1,-0.446246 -1,-1 l 0,-28 c 0,-0.543318 0.479042,-1 1,-1 z"
     id="path3779" />
</svg>
