<?xml version="1.0" encoding="UTF-8" standalone="no"?>
<svg
   xmlns:dc="http://purl.org/dc/elements/1.1/"
   xmlns:cc="http://creativecommons.org/ns#"
   xmlns:rdf="http://www.w3.org/1999/02/22-rdf-syntax-ns#"
   xmlns:svg="http://www.w3.org/2000/svg"
   xmlns="http://www.w3.org/2000/svg"
   xmlns:sodipodi="http://sodipodi.sourceforge.net/DTD/sodipodi-0.dtd"
   xmlns:inkscape="http://www.inkscape.org/namespaces/inkscape"
   width="48"
   viewBox="0 0 48 48"
   height="48"
   id="svg2"
   version="1.1"
   inkscape:version="0.48.5 r10040"
   sodipodi:docname="network-server.svg">
  <metadata
     id="metadata20">
    <rdf:RDF>
      <cc:Work
         rdf:about="">
        <dc:format>image/svg+xml</dc:format>
        <dc:type
           rdf:resource="http://purl.org/dc/dcmitype/StillImage" />
      </cc:Work>
    </rdf:RDF>
  </metadata>
  <defs
     id="defs18" />
  <sodipodi:namedview
     pagecolor="#ffffff"
     bordercolor="#666666"
     borderopacity="1"
     objecttolerance="10"
     gridtolerance="10"
     guidetolerance="10"
     inkscape:pageopacity="0"
     inkscape:pageshadow="2"
     inkscape:window-width="1280"
     inkscape:window-height="969"
     id="namedview16"
     showgrid="true"
     inkscape:zoom="5.6568542"
     inkscape:cx="36.856107"
     inkscape:cy="36.73767"
     inkscape:window-x="0"
     inkscape:window-y="0"
     inkscape:window-maximized="1"
     inkscape:current-layer="svg2"
     showguides="true"
     inkscape:guide-bbox="true">
    <inkscape:grid
       type="xygrid"
       id="grid2997" />
  </sodipodi:namedview>
  <path
     style="font-size:medium;font-style:normal;font-variant:normal;font-weight:normal;font-stretch:normal;text-indent:0;text-align:start;text-decoration:none;line-height:normal;letter-spacing:normal;word-spacing:normal;text-transform:none;direction:ltr;block-progression:tb;writing-mode:lr-tb;text-anchor:start;baseline-shift:baseline;color:#000000;fill:#777777;fill-opacity:1;fill-rule:nonzero;stroke:none;stroke-width:1;marker:none;visibility:visible;display:inline;overflow:visible;enable-background:accumulate;font-family:Sans;-inkscape-font-specification:Sans"
     d="m 21,41.499997 0,-7.25 6,0 0,7.25 z"
     id="rect4"
     inkscape:connector-curvature="0"
     sodipodi:nodetypes="ccccc" />
  <path
     style="fill:#dcdcdc;fill-opacity:1;fill-rule:evenodd;stroke:none"
     d="m 22.522,33.999996 2.956,0 c 0.289188,0 0.522,0.01204 0.522,0.027 l 0,5.946 c 0,0.01496 -0.232812,0.027 -0.522,0.027 l -2.956,0 c -0.289188,0 -0.522,-0.01204 -0.522,-0.027 l 0,-5.946 c 0,-0.01496 0.232812,-0.027 0.522,-0.027 z"
     id="rect3022" />
  <path
     style="font-size:medium;font-style:normal;font-variant:normal;font-weight:normal;font-stretch:normal;text-indent:0;text-align:start;text-decoration:none;line-height:normal;letter-spacing:normal;word-spacing:normal;text-transform:none;direction:ltr;block-progression:tb;writing-mode:lr-tb;text-anchor:start;baseline-shift:baseline;color:#000000;fill:#777777;fill-opacity:1;fill-rule:nonzero;stroke:none;stroke-width:1;marker:none;visibility:visible;display:inline;overflow:visible;enable-background:accumulate;font-family:Sans;-inkscape-font-specification:Sans"
     d="m 5,38.999997 c -0.4870146,0 -1,0.518022 -1,1 l 0,4 c 0,0.481979 0.5129868,1 1,1 l 14.5625,0 c 1.975681,-0.853431 0.638902,-4.057064 0.4375,-6 -0.05563,-0.536626 0.487015,0 0,0 z M 28.5625,39 c -0.01104,0.527299 -1.695512,5.096049 0,5.999997 L 43,45 c 0.551814,0 1,-0.418273 1,-1.000003 l 0,-4 C 44,39.418267 43.551815,39 43,39 z"
     id="path10"
     inkscape:connector-curvature="0"
     sodipodi:nodetypes="ssssccssccssssc" />
  <path
     style="font-size:medium;font-style:normal;font-variant:normal;font-weight:normal;font-stretch:normal;text-indent:0;text-align:start;text-decoration:none;line-height:normal;letter-spacing:normal;word-spacing:normal;text-transform:none;direction:ltr;block-progression:tb;writing-mode:lr-tb;text-anchor:start;baseline-shift:baseline;color:#000000;fill:#777777;fill-opacity:1;fill-rule:nonzero;stroke:none;stroke-width:1;marker:none;visibility:visible;display:inline;overflow:visible;enable-background:accumulate;font-family:Sans;-inkscape-font-specification:Sans"
     d="m 31,45 c 0,0.513883 -0.475336,1 -1,1 l -12,-3e-6 c -0.505081,0 -1,-0.392367 -1,-1 L 17,39 c 0,-0.513883 0.518305,-1 1,-1 l 12,0 c 0.512945,0 1,0.513461 1,1 z"
     id="rect12"
     inkscape:connector-curvature="0"
     sodipodi:nodetypes="sssssssss" />
  <path
     style="fill:#dcdcdc;fill-opacity:1;fill-rule:evenodd;stroke:none"
     d="m 5,39.999996 12,0 0,4 -12,0 z"
     id="rect2999" />
  <path
     style="fill:#dcdcdc;fill-opacity:1;fill-rule:evenodd;stroke:none"
     d="m 18,38.999996 12,0 0,6 -12,0 z"
     id="rect3001" />
  <rect
     style="fill:#dcdcdc;fill-opacity:1;fill-rule:evenodd;stroke:none"
     id="rect3003"
     width="12"
     height="4"
     x="31"
     y="39.999996" />
  <path
     style="font-size:medium;font-style:normal;font-variant:normal;font-weight:normal;font-stretch:normal;text-indent:0;text-align:start;text-decoration:none;line-height:normal;letter-spacing:normal;word-spacing:normal;text-transform:none;direction:ltr;block-progression:tb;writing-mode:lr-tb;text-anchor:start;baseline-shift:baseline;color:#000000;fill:#e9b080;fill-opacity:1;fill-rule:nonzero;stroke:none;stroke-width:1;marker:none;visibility:visible;display:inline;overflow:visible;enable-background:accumulate;font-family:Sans;-inkscape-font-specification:Sans"
     d="m 7,4.9999968 c -1,0 -2,1 -2,2 l 0,1 -1,0 c -1,0 -2.0055691,0.949207 -2,2 L 2,32.999997 c 1.28e-4,1.120734 1.037763,1.9999 2.1875,2 l 39.625,0 c 1.1875,0 2.1875,-1 2.1875,-2 l 0,-21 c 0,-1 -1,-2.0000002 -2,-2.0000002 l -2,0 0,-3 c 0,-1 -1,-2 -2,-2 z"
     id="path3770"
     inkscape:connector-curvature="0"
     sodipodi:nodetypes="sscsccccccccsss" />
  <path
     inkscape:connector-curvature="0"
     style="font-size:medium;font-style:normal;font-variant:normal;font-weight:normal;font-stretch:normal;text-indent:0;text-align:start;text-decoration:none;line-height:normal;letter-spacing:normal;word-spacing:normal;text-transform:none;direction:ltr;block-progression:tb;writing-mode:lr-tb;text-anchor:start;baseline-shift:baseline;color:#000000;fill:#000000;fill-opacity:0.32156863;fill-rule:nonzero;stroke:none;stroke-width:1;marker:none;visibility:visible;display:inline;overflow:visible;enable-background:accumulate;font-family:Sans;-inkscape-font-specification:Sans"
     d="m 7,4.9999968 c -1,0 -2,1 -2,2 l 0,1 -1,0 c -1,0 -2.0055691,0.949207 -2,2 L 2,32.999997 c 1.28e-4,1.120734 1.037763,1.9999 2.1875,2 l 39.625,0 c 1.1875,0 2.1875,-1 2.1875,-2 l 0,-21 c 0,-1 -1,-2.0000002 -2,-2.0000002 l -2,0 0,-3 c 0,-1 -1,-2 -2,-2 z m -3,4 23,0 c 0.507314,0 1,0.494167 1,1 l 0,1.0000002 16,0 c 0.540858,0 1,0.471809 1,1 l 0,21 c 0,0.553755 -0.452115,1 -1,1 l -40,0 c -0.5127258,0 -1,-0.446246 -1,-1 L 3,9.9999968 c 0,-0.543318 0.4790423,-1 1,-1 z"
     id="path3779"
     sodipodi:nodetypes="sscscccsssscsssssscssssssss" />
</svg>
