<?xml version="1.0" encoding="UTF-8" standalone="no"?>
<svg
   xmlns:dc="http://purl.org/dc/elements/1.1/"
   xmlns:cc="http://creativecommons.org/ns#"
   xmlns:rdf="http://www.w3.org/1999/02/22-rdf-syntax-ns#"
   xmlns:svg="http://www.w3.org/2000/svg"
   xmlns="http://www.w3.org/2000/svg"
   xmlns:sodipodi="http://sodipodi.sourceforge.net/DTD/sodipodi-0.dtd"
   xmlns:inkscape="http://www.inkscape.org/namespaces/inkscape"
   width="48"
   viewBox="0 0 48 48"
   height="48"
   id="svg3423"
   version="1.1"
   inkscape:version="0.48.4 r9939"
   sodipodi:docname="user-home.svg">
  <metadata
     id="metadata3441">
    <rdf:RDF>
      <cc:Work
         rdf:about="">
        <dc:format>image/svg+xml</dc:format>
        <dc:type
           rdf:resource="http://purl.org/dc/dcmitype/StillImage" />
      </cc:Work>
    </rdf:RDF>
  </metadata>
  <defs
     id="defs3439" />
  <sodipodi:namedview
     pagecolor="#ffffff"
     bordercolor="#666666"
     borderopacity="1"
     objecttolerance="10"
     gridtolerance="10"
     guidetolerance="10"
     inkscape:pageopacity="0"
     inkscape:pageshadow="2"
     inkscape:window-width="658"
     inkscape:window-height="480"
     id="namedview3437"
     showgrid="false"
     inkscape:zoom="4.9166667"
     inkscape:cx="25.423729"
     inkscape:cy="23.389831"
     inkscape:window-x="0"
     inkscape:window-y="0"
     inkscape:window-maximized="0"
     inkscape:current-layer="svg3423" />
  <path
     inkscape:connector-curvature="0"
     id="path3011"
     d="m 5.7833069,37.796773 c -0.699852,-0.07166 -1.291695,-0.758304 -1.288429,-1.494797 l 0,-28.297282 c 7.3e-5,-0.782651 0.679932,-1.494715 1.427182,-1.494795 l 35.2038311,0 c 0.747251,8e-5 1.427108,0.712144 1.427185,1.494795 l 0,25.671012 c -7.7e-5,0.782652 -0.679934,1.494713 -1.427185,1.494793 l -13.74654,0 0,1.131477 c -7.4e-5,0.782651 -0.679932,1.494718 -1.427182,1.494797 l -20.0301091,0 c -0.04622,0.0023 -0.09254,0.0023 -0.138753,0 z"
     style="line-height:normal;fill:#e9a439;fill-opacity:1;stroke:#e9a439;stroke-opacity:1" />
  <path
     inkscape:connector-curvature="0"
     id="path3013"
     d="m 3.0241729,10.52925 c -0.827896,0.07094 -1.528021,0.750639 -1.524157,1.479691 l 0,28.01137 c 8.9e-5,0.774744 0.804331,1.479612 1.688297,1.479689 l 41.6446431,0 c 0.883968,-7.7e-5 1.688208,-0.704945 1.688298,-1.479689 l 0,-25.411636 c -9e-5,-0.774743 -0.80433,-1.479612 -1.688298,-1.479691 l -16.261576,0 0,-1.120043 c -8.9e-5,-0.774743 -0.804331,-1.479613 -1.688296,-1.479691 l -23.6947711,0 c -0.05467,-0.0023 -0.10947,-0.0023 -0.16414,0 z"
     style="line-height:normal;fill:#f5c14e;fill-opacity:1;stroke:#e9a439;stroke-opacity:1" />
  <path
     style="line-height:normal;color:#000000;fill:#d0a444;fill-opacity:1"
     d="m 24,20 -8,8 2,0 0,6 12,0 0,-6 2,0 -3,-3 0,-4 -2,0 0,2 z"
     id="path3435"
     inkscape:connector-curvature="0" />
</svg>
