<svg xmlns="http://www.w3.org/2000/svg" width="16" height="16.25" viewBox="0 0 12.8 13">
 <g style="opacity:0.5">
  <path d="m 0.8 2.6 0 2.4 6.4 0 0 -2.4 z" style="fill:#d32f2f;fill-opacity:1;stroke:none"/>
  <path d="m 1.6 2.6 c 0 -0.4 0 -0.8 0.582 -0.8 l 2.036 0 c 0.582 0 0.582 0.4 0.582 0.8 z" style="fill:#d32f2f;fill-opacity:1;stroke:none"/>
  <rect y="3.4" x="1.6" height="1.6" width="4.8" style="fill:#d8d8da;fill-opacity:1;stroke:none;fill-rule:evenodd"/>
  <path d="m 0 4.2 8 0 l -0.8 4 -6.4 0 z" style="fill:#ef5350;fill-opacity:1;stroke:none"/>
 </g>
 <path d="M 5.6,6.6 5.6,9 12,9 12,6.6 z" style="fill:#d32f2f;fill-opacity:1;stroke:none"/>
 <path d="m 6.4 6.6 c 0 -0.4 0 -0.8 0.582 -0.8 l 2.036 0 c 0.582 0 0.582 0.4 0.582 0.8 z" style="fill:#d32f2f;fill-opacity:1;stroke:none"/>
 <rect width="4.8" height="1.6" x="6.4" y="7.4" style="fill:#d8d8da;fill-opacity:1;stroke:none;fill-rule:evenodd"/>
 <path d="m 4.8 8.2 8 0 -0.8 4 -6.4 0 z" style="fill:#ef5350;fill-opacity:1;stroke:none"/>
</svg>
