
<svg xmlns="http://www.w3.org/2000/svg" xmlns:xlink="http://www.w3.org/1999/xlink" width="96px" height="96px" viewBox="0 0 96 96" version="1.1">
<g id="surface1">
<path style=" stroke:none;fill-rule:nonzero;fill:rgb(91.372549%,69.019608%,50.196078%);fill-opacity:1;" d="M 12 12 C 10 12 8 14 8 16 L 8 20 L 6 20 C 4 20 1.988281 21.898438 2 24 L 2 80 C 2 82.242188 4.074219 84 6.375 84 L 89.625 84 C 92 84 94 82 94 80 L 94 30 C 94 28 92 26 90 26 L 86 26 L 86 16 C 86 14 84 12 82 12 Z M 12 12 "/>
<path style=" stroke:none;fill-rule:nonzero;fill:rgb(0%,0%,0%);fill-opacity:0.321569;" d="M 60.777344 35.878906 C 59.3125 35.902344 57.871094 36.863281 57.640625 38.648438 C 57.269531 41.511719 60.039062 40.4375 62.253906 40.4375 C 64.46875 40.4375 65.207031 45.085938 64.652344 47.589844 C 64.097656 50.09375 58.214844 56.007812 44.910156 50.09375 C 33.957031 45.226562 28.488281 51.707031 28.210938 51.839844 C 29.25 61.511719 37.699219 72 47.953125 72 C 58.90625 72 67.789062 60.441406 67.789062 49.828125 C 67.789062 48.605469 67.644531 47.40625 67.417969 46.25 C 67.214844 45.664062 67.015625 45.082031 66.867188 44.550781 C 66.597656 43.597656 66.292969 42.796875 66.035156 42.046875 C 66.023438 42.023438 66.046875 41.984375 66.035156 41.957031 C 64.988281 39.699219 63.515625 37.660156 61.699219 35.96875 C 61.691406 35.953125 61.660156 35.980469 61.652344 35.96875 C 61.371094 35.898438 61.070312 35.871094 60.777344 35.875 Z M 60.777344 35.878906 "/>
<path style=" stroke:none;fill-rule:nonzero;fill:rgb(0%,0%,0%);fill-opacity:0.321569;" d="M 57.734375 42.671875 C 57.734375 43.265625 57.238281 43.746094 56.625 43.746094 C 56.015625 43.746094 55.519531 43.265625 55.519531 42.671875 C 55.519531 42.082031 56.015625 41.601562 56.625 41.601562 C 57.238281 41.601562 57.734375 42.082031 57.734375 42.671875 Z M 57.734375 42.671875 "/>
<path style=" stroke:none;fill-rule:nonzero;fill:rgb(0%,0%,0%);fill-opacity:0.321569;" d="M 55.519531 38.785156 C 55.519531 39.203125 55.167969 39.542969 54.734375 39.542969 C 54.300781 39.542969 53.949219 39.203125 53.949219 38.785156 C 53.949219 38.363281 54.300781 38.023438 54.734375 38.023438 C 55.167969 38.023438 55.519531 38.363281 55.519531 38.785156 Z M 55.519531 38.785156 "/>
<path style=" stroke:none;fill-rule:nonzero;fill:rgb(0%,0%,0%);fill-opacity:0.321569;" d="M 12 12 C 10 12 8 14 8 16 L 8 20 L 6 20 C 4 20 1.988281 21.898438 2 24 L 2 80 C 2 82.242188 4.074219 84 6.375 84 L 89.625 84 C 92 84 94 82 94 80 L 94 30 C 94 28 92 26 90 26 L 86 26 L 86 16 C 86 14 84 12 82 12 Z M 6 22 L 54 22 C 55.015625 22 56 22.988281 56 24 L 56 28 L 90 28 C 91.082031 28 92 28.945312 92 30 L 92 80 C 92 81.109375 91.097656 82 90 82 L 6 82 C 4.972656 82 4 81.109375 4 80 L 4 24 C 4 22.914062 4.957031 22 6 22 Z M 6 22 "/>
</g>
</svg>
