
<svg xmlns="http://www.w3.org/2000/svg" xmlns:xlink="http://www.w3.org/1999/xlink" width="96px" height="96px" viewBox="0 0 96 96" version="1.1">
<g id="surface1">
<path style=" stroke:none;fill-rule:nonzero;fill:rgb(91.372549%,69.019608%,50.196078%);fill-opacity:1;" d="M 12 12 C 10 12 8 14 8 16 L 8 20 L 6 20 C 4 20 1.988281 21.898438 2 24 L 2 80 C 2 82.242188 4.074219 84 6.375 84 L 89.625 84 C 92 84 94 82 94 80 L 94 30 C 94 28 92 26 90 26 L 86 26 L 86 16 C 86 14 84 12 82 12 Z M 12 12 "/>
<path style=" stroke:none;fill-rule:nonzero;fill:rgb(0%,0%,0%);fill-opacity:0.321569;" d="M 60.761719 43.234375 C 56.425781 38.902344 49.421875 38.929688 45.089844 43.265625 C 41.402344 46.949219 40.851562 52.554688 43.425781 56.816406 L 32.738281 67.503906 C 31.742188 68.5 31.742188 70.09375 32.738281 71.09375 L 32.898438 71.253906 C 33.894531 72.25 35.492188 72.25 36.488281 71.253906 L 47.179688 60.566406 C 51.445312 63.148438 57.074219 62.617188 60.761719 58.933594 C 65.09375 54.601562 65.09375 47.570312 60.761719 43.238281 Z M 58.320312 45.671875 C 61.300781 48.652344 61.300781 53.511719 58.320312 56.492188 C 55.371094 59.441406 50.59375 59.441406 47.605469 56.542969 L 47.527344 56.464844 C 47.5 56.433594 47.472656 56.410156 47.445312 56.382812 C 44.542969 53.398438 44.574219 48.648438 47.527344 45.695312 C 50.507812 42.71875 55.34375 42.691406 58.320312 45.664062 Z M 58.320312 45.671875 "/>
<path style=" stroke:none;fill-rule:nonzero;fill:rgb(0%,0%,0%);fill-opacity:0.321569;" d="M 12 12 C 10 12 8 14 8 16 L 8 20 L 6 20 C 4 20 1.988281 21.898438 2 24 L 2 80 C 2 82.242188 4.074219 84 6.375 84 L 89.625 84 C 92 84 94 82 94 80 L 94 30 C 94 28 92 26 90 26 L 86 26 L 86 16 C 86 14 84 12 82 12 Z M 6 22 L 54 22 C 55.015625 22 56 22.988281 56 24 L 56 28 L 90 28 C 91.082031 28 92 28.945312 92 30 L 92 80 C 92 81.109375 91.097656 82 90 82 L 6 82 C 4.972656 82 4 81.109375 4 80 L 4 24 C 4 22.914062 4.957031 22 6 22 Z M 6 22 "/>
</g>
</svg>
