
<svg xmlns="http://www.w3.org/2000/svg" xmlns:xlink="http://www.w3.org/1999/xlink" width="96px" height="96px" viewBox="0 0 96 96" version="1.1">
<g id="surface1">
<path style=" stroke:none;fill-rule:nonzero;fill:rgb(91.372549%,69.019608%,50.196078%);fill-opacity:1;" d="M 10 12 C 8 12 6 14 6 16 L 4 16 C 2 16 -0.0117188 17.898438 0 20 L 0 50 C 0 52.242188 2.074219 54 4.375 54 L 51.625 54 C 54 54 56 52 56 50 L 56 24 C 56 22 54 20 52 20 L 48 20 L 48 16 C 48 14 46 12 44 12 Z M 10 12 "/>
<path style=" stroke:none;fill-rule:nonzero;fill:rgb(0%,0%,0%);fill-opacity:0.321569;" d="M 10 12 C 8 12 6 14 6 16 L 4 16 C 2 16 -0.0117188 17.898438 0 20 L 0 50 C 0 52.242188 2.074219 54 4.375 54 L 51.625 54 C 54 54 56 52 56 50 L 56 24 C 56 22 54 20 52 20 L 48 20 L 48 16 C 48 14 46 12 44 12 Z M 4 18 L 32 18 C 33.015625 18 34 18.988281 34 20 L 34 22 L 52 22 C 53.082031 22 54 22.945312 54 24 L 54 50 C 54 51.109375 53.097656 52 52 52 L 4 52 C 2.972656 52 2 51.109375 2 50 L 2 20 C 2 18.914062 2.957031 18 4 18 Z M 4 18 "/>
<path style=" stroke:none;fill-rule:nonzero;fill:rgb(0%,0%,0%);fill-opacity:0.101961;" d="M 10 12 C 8.25 12 6.472656 13.527344 6.0625 15.25 C 6.003906 15.496094 6 15.75 6 16 L 4 16 C 2 16 -0.0117188 17.898438 0 20 L 0 50 C 0 52.242188 2.074219 54 4.375 54 L 51.625 54 C 52.515625 54 53.363281 53.707031 54.0625 53.25 C 54.996094 52.640625 55.699219 51.734375 55.9375 50.75 C 55.996094 50.503906 56 50.25 56 50 L 56 24 C 56 23.5 55.90625 23.03125 55.6875 22.5625 C 55.03125 21.15625 53.5 20 52 20 L 48 20 L 48 16 C 48 14 46 12 44 12 Z M 10 12 "/>
<path style=" stroke:none;fill-rule:nonzero;fill:rgb(91.372549%,69.019608%,50.196078%);fill-opacity:1;" d="M 50 42 C 48 42 46 44 46 46 L 44 46 C 42 46 39.988281 47.898438 40 50 L 40 80 C 40 82.242188 42.074219 84 44.375 84 L 91.625 84 C 94 84 96 82 96 80 L 96 54 C 96 52 94 50 92 50 L 88 50 L 88 46 C 88 44 86 42 84 42 Z M 50 42 "/>
<path style=" stroke:none;fill-rule:nonzero;fill:rgb(0%,0%,0%);fill-opacity:0.321569;" d="M 50 42 C 48 42 46 44 46 46 L 44 46 C 42 46 39.988281 47.898438 40 50 L 40 80 C 40 82.242188 42.074219 84 44.375 84 L 91.625 84 C 94 84 96 82 96 80 L 96 54 C 96 52 94 50 92 50 L 88 50 L 88 46 C 88 44 86 42 84 42 Z M 44 48 L 72 48 C 73.015625 48 74 48.988281 74 50 L 74 52 L 92 52 C 93.082031 52 94 52.945312 94 54 L 94 80 C 94 81.109375 93.097656 82 92 82 L 44 82 C 42.972656 82 42 81.109375 42 80 L 42 50 C 42 48.914062 42.957031 48 44 48 Z M 44 48 "/>
</g>
</svg>
