
<svg xmlns="http://www.w3.org/2000/svg" xmlns:xlink="http://www.w3.org/1999/xlink" width="96px" height="96px" viewBox="0 0 96 96" version="1.1">
<g id="surface1">
<path style=" stroke:none;fill-rule:nonzero;fill:rgb(91.372549%,69.019608%,50.196078%);fill-opacity:1;" d="M 12 12 C 10 12 8 14 8 16 L 8 20 L 6 20 C 4 20 1.988281 21.898438 2 24 L 2 80 C 2 82.242188 4.074219 84 6.375 84 L 89.625 84 C 92 84 94 82 94 80 L 94 30 C 94 28 92 26 90 26 L 86 26 L 86 16 C 86 14 84 12 82 12 Z M 12 12 "/>
<path style=" stroke:none;fill-rule:nonzero;fill:rgb(0%,0%,0%);fill-opacity:0.321569;" d="M 52.375 41.3125 C 49.191406 41.3125 46.5625 43.726562 46.5625 46.75 C 46.585938 47.785156 46.644531 49.101562 47.25 51.875 L 47.3125 51.875 C 47.433594 52.242188 47.621094 52.605469 47.9375 53 C 48.21875 53.351562 48.59375 53.753906 48.9375 54.125 C 49.042969 54.910156 49.058594 55.59375 48.9375 56.4375 C 47.992188 57.15625 46.285156 57.824219 44.75 58.4375 C 43.949219 58.757812 43.210938 59.050781 42.625 59.4375 C 42.066406 59.804688 41.664062 60.308594 41.625 60.9375 C 41.625 60.96875 41.5625 60.96875 41.5625 61 L 40.875 66.3125 L 40.875 66.375 C 40.875 67.035156 41.3125 67.570312 41.9375 68 C 42.5625 68.429688 43.40625 68.765625 44.4375 69.0625 C 46.496094 69.660156 49.289062 70 52.375 70 C 55.460938 70 58.253906 69.660156 60.3125 69.0625 C 61.34375 68.765625 62.1875 68.429688 62.8125 68 C 63.4375 67.570312 63.875 67.035156 63.875 66.375 L 63.875 66.3125 L 63.125 61 C 63.125 60.980469 63.125 60.957031 63.125 60.9375 C 63.105469 60.636719 62.996094 60.339844 62.8125 60.125 C 62.613281 59.894531 62.351562 59.742188 62.0625 59.5625 C 61.480469 59.199219 60.738281 58.890625 59.9375 58.5625 C 58.382812 57.921875 56.679688 57.195312 55.75 56.4375 C 55.679688 55.710938 55.675781 54.972656 55.75 54.25 C 56.085938 53.851562 56.464844 53.445312 56.75 53.0625 C 57.070312 52.636719 57.3125 52.253906 57.4375 51.875 C 58.121094 48.984375 58.152344 47.808594 58.1875 46.75 C 58.1875 43.726562 55.558594 41.3125 52.375 41.3125 Z M 41.5625 42.3125 C 38.945312 42.3125 36.8125 44.332031 36.8125 46.8125 C 36.832031 47.664062 36.878906 48.660156 37.375 50.9375 L 37.375 51 C 37.476562 51.304688 37.675781 51.546875 37.9375 51.875 C 38.167969 52.160156 38.472656 52.511719 38.75 52.8125 C 38.832031 53.441406 38.84375 54.074219 38.75 54.75 C 37.976562 55.34375 36.578125 55.875 35.3125 56.375 C 34.65625 56.632812 34.105469 56.871094 33.625 57.1875 C 33.171875 57.484375 32.851562 57.929688 32.8125 58.4375 C 32.808594 58.46875 32.75 58.46875 32.75 58.5 L 32.125 62.8125 L 32.125 62.875 C 32.125 63.28125 32.320312 63.632812 32.625 63.9375 C 32.929688 64.242188 33.355469 64.523438 33.875 64.75 C 34.898438 65.195312 36.359375 65.503906 38.125 65.6875 L 38.1875 65.6875 C 38.285156 65.6875 38.378906 65.660156 38.4375 65.625 C 38.511719 65.578125 38.59375 65.542969 38.625 65.5 C 38.6875 65.414062 38.722656 65.328125 38.75 65.25 C 38.796875 65.113281 38.804688 64.953125 38.8125 64.8125 C 38.8125 64.792969 38.8125 64.769531 38.8125 64.75 L 39.5 59.4375 C 39.5 59.21875 39.648438 58.960938 40 58.6875 C 40.351562 58.414062 40.882812 58.144531 41.5 57.875 C 42.738281 57.339844 44.308594 56.839844 45.5625 56.1875 L 46.25 55.8125 L 45.5625 55.5 C 45.066406 55.257812 44.6875 54.996094 44.375 54.75 C 44.3125 54.132812 44.3125 53.488281 44.375 52.875 C 44.378906 52.855469 44.371094 52.832031 44.375 52.8125 C 44.851562 52.171875 45.214844 51.503906 45.375 51.125 L 45.4375 51 L 45.375 50.875 C 45.320312 50.566406 45.339844 50.328125 45.25 50.0625 C 44.652344 47.320312 44.585938 46.191406 44.5625 45.1875 C 44.5625 44.765625 44.660156 44.273438 44.8125 43.8125 L 44.9375 43.5625 L 44.6875 43.4375 C 43.851562 42.769531 42.746094 42.3125 41.5625 42.3125 Z M 41.5625 42.3125 "/>
<path style=" stroke:none;fill-rule:nonzero;fill:rgb(0%,0%,0%);fill-opacity:0.321569;" d="M 12 12 C 10 12 8 14 8 16 L 8 20 L 6 20 C 4 20 1.988281 21.898438 2 24 L 2 80 C 2 82.242188 4.074219 84 6.375 84 L 89.625 84 C 92 84 94 82 94 80 L 94 30 C 94 28 92 26 90 26 L 86 26 L 86 16 C 86 14 84 12 82 12 Z M 6 22 L 54 22 C 55.015625 22 56 22.988281 56 24 L 56 28 L 90 28 C 91.082031 28 92 28.945312 92 30 L 92 80 C 92 81.109375 91.097656 82 90 82 L 6 82 C 4.972656 82 4 81.109375 4 80 L 4 24 C 4 22.914062 4.957031 22 6 22 Z M 6 22 "/>
</g>
</svg>
