
<svg xmlns="http://www.w3.org/2000/svg" xmlns:xlink="http://www.w3.org/1999/xlink" width="96px" height="96px" viewBox="0 0 96 96" version="1.1">
<g id="surface1">
<path style=" stroke:none;fill-rule:nonzero;fill:rgb(91.372549%,69.019608%,50.196078%);fill-opacity:1;" d="M 12 12 C 10 12 8 14 8 16 L 8 20 L 6 20 C 4 20 1.988281 21.898438 2 24 L 2 80 C 2 82.242188 4.074219 84 6.375 84 L 89.625 84 C 92 84 94 82 94 80 L 94 30 C 94 28 92 26 90 26 L 86 26 L 86 16 C 86 14 84 12 82 12 Z M 12 12 "/>
<path style=" stroke:none;fill-rule:nonzero;fill:rgb(0%,0%,0%);fill-opacity:0.321569;" d="M 50.40625 40.359375 C 48.074219 40.945312 46.117188 43.085938 46.117188 43.085938 L 46.179688 43.152344 L 49.910156 57.019531 C 47.242188 55.570312 43.429688 55.933594 40.277344 58.214844 C 36.199219 61.160156 34.78125 66.179688 37.140625 69.414062 C 39.503906 72.652344 44.707031 72.878906 48.785156 69.933594 C 51.996094 67.609375 53.785156 63.949219 53.140625 60.945312 C 53.121094 60.851562 53.089844 60.761719 53.066406 60.667969 L 49.484375 46.808594 C 49.566406 46.6875 50.613281 46.207031 53.996094 45.976562 C 57.578125 45.734375 60 40 60 40 C 60 40 55.972656 41.542969 52.804688 40.425781 C 52.011719 40.144531 51.179688 40.160156 50.402344 40.355469 Z M 50.40625 40.359375 "/>
<path style=" stroke:none;fill-rule:nonzero;fill:rgb(0%,0%,0%);fill-opacity:0.321569;" d="M 12 12 C 10 12 8 14 8 16 L 8 20 L 6 20 C 4 20 1.988281 21.898438 2 24 L 2 80 C 2 82.242188 4.074219 84 6.375 84 L 89.625 84 C 92 84 94 82 94 80 L 94 30 C 94 28 92 26 90 26 L 86 26 L 86 16 C 86 14 84 12 82 12 Z M 6 22 L 54 22 C 55.015625 22 56 22.988281 56 24 L 56 28 L 90 28 C 91.082031 28 92 28.945312 92 30 L 92 80 C 92 81.109375 91.097656 82 90 82 L 6 82 C 4.972656 82 4 81.109375 4 80 L 4 24 C 4 22.914062 4.957031 22 6 22 Z M 6 22 "/>
</g>
</svg>
