
<svg xmlns="http://www.w3.org/2000/svg" xmlns:xlink="http://www.w3.org/1999/xlink" width="96px" height="96px" viewBox="0 0 96 96" version="1.1">
<g id="surface1">
<path style=" stroke:none;fill-rule:nonzero;fill:rgb(91.372549%,69.019608%,50.196078%);fill-opacity:1;" d="M 12 12 C 10 12 8 14 8 16 L 8 20 L 6 20 C 4 20 1.988281 21.898438 2 24 L 2 80 C 2 82.242188 4.074219 84 6.375 84 L 89.625 84 C 92 84 94 82 94 80 L 94 30 C 94 28 92 26 90 26 L 86 26 L 86 16 C 86 14 84 12 82 12 Z M 12 12 "/>
<path style=" stroke:none;fill-rule:nonzero;fill:rgb(0%,0%,0%);fill-opacity:0.321569;" d="M 46 38.007812 C 39.175781 38.007812 32 45.183594 32 54.003906 C 32 62.824219 39.175781 70 46 70 C 56.824219 70 64 62.824219 64 54.003906 C 64 45.183594 56.824219 38.007812 48 38.007812 Z M 49.300781 40.257812 C 50.792969 40.398438 52.234375 40.738281 53.550781 41.308594 C 53.449219 41.433594 53.371094 41.546875 53.300781 41.757812 C 52.894531 42.96875 52.292969 42.390625 53 43.90625 C 53.707031 45.421875 54.296875 45.8125 54.5 45.105469 C 54.703125 44.398438 53.992188 43.402344 54.800781 43.808594 C 55.609375 44.210938 56.207031 43.695312 55.601562 44.605469 C 54.992188 45.515625 55.007812 46.007812 54.300781 45.808594 C 53.59375 45.605469 53.605469 47.003906 52.898438 47.207031 C 52.191406 47.410156 51.949219 46.902344 51.949219 47.40625 C 51.949219 47.910156 52.351562 47.449219 52.25 48.257812 C 52.21875 48.503906 52.226562 48.546875 52.199219 48.65625 C 51.535156 48.464844 51.238281 48.359375 50.75 48.554688 C 50.246094 48.757812 49.648438 50.054688 49.648438 50.054688 C 50.28125 50.683594 50.574219 51.140625 50.800781 51.355469 C 50.660156 51.425781 50.488281 51.453125 50.351562 51.554688 C 49.339844 52.261719 48.554688 52.394531 48.25 53.402344 C 47.945312 54.414062 48.050781 53.488281 48.050781 54.703125 C 48.050781 55.914062 47.742188 55.09375 48.351562 56.203125 C 48.957031 57.3125 50.441406 57.847656 51.148438 58.453125 C 51.855469 59.058594 52.585938 57.132812 54 58.953125 C 55.414062 60.769531 55.503906 60.042969 55 61.050781 C 54.496094 62.0625 54.003906 62.398438 53.800781 62.800781 C 53.597656 63.203125 54.191406 64.597656 54.898438 64.902344 C 54.914062 64.902344 54.933594 64.902344 54.949219 64.902344 C 54.914062 64.988281 54.886719 65.0625 54.851562 65.152344 C 53.933594 65.566406 52.8125 66.140625 52.601562 66.199219 C 52.101562 66.34375 50.335938 66.644531 49.050781 67 C 48.890625 67.046875 48.761719 67.046875 48.699219 67.050781 C 48.859375 66.878906 50.125 66.21875 50.75 65.851562 C 51.605469 65.351562 50.699219 65.402344 50.699219 65.402344 C 50.699219 65.402344 49.335938 65.25 46.550781 65.25 C 45.15625 65.25 44.554688 65.3125 44.25 65.402344 C 44.097656 65.449219 44.023438 65.492188 43.949219 65.550781 C 43.875 65.613281 43.824219 65.679688 43.699219 65.753906 C 43.199219 66.039062 43.992188 66.339844 43.351562 66.550781 C 42.867188 66.710938 42.8125 66.550781 42.398438 66.25 C 42.695312 65.957031 43.097656 65.605469 43.601562 65 C 44.507812 63.902344 44.796875 64.101562 45.101562 63.101562 C 45.402344 62.101562 42.550781 62.402344 42.550781 61.800781 C 42.550781 61.203125 42.058594 60.800781 41.148438 60.402344 C 40.242188 60.003906 40.859375 59.800781 39.851562 59.503906 C 38.839844 59.203125 37.703125 61 37.398438 60.402344 C 37.097656 59.800781 38.351562 59.800781 38.351562 59.101562 C 38.351562 58.421875 36.910156 59.617188 36.648438 58.753906 C 36.644531 58.722656 36.605469 58.722656 36.601562 58.699219 C 36.574219 58.574219 36.589844 58.5 36.601562 58.402344 C 36.664062 57.683594 37.496094 57.402344 37.851562 56.703125 C 38.253906 55.902344 38.046875 57.304688 38.550781 58.003906 C 39.054688 58.703125 38.851562 57.101562 38.550781 56.203125 C 38.246094 55.304688 38.742188 55.304688 39.449219 54.105469 C 40.15625 52.902344 40.148438 52.203125 40.148438 51.304688 C 40.148438 50.40625 40.640625 50.304688 41.648438 49.40625 C 42.113281 48.992188 42.476562 48.632812 42.75 48.304688 C 42.816406 48.273438 42.882812 48.273438 42.949219 48.253906 C 44.019531 47.824219 44.472656 47.183594 45.398438 45.253906 C 46.328125 43.328125 45.035156 45.125 44.75 45.054688 C 44.464844 44.984375 44.050781 44.476562 43.050781 43.902344 C 42.84375 43.785156 42.660156 43.730469 42.5 43.707031 L 44.351562 40.65625 C 44.941406 40.496094 45.578125 40.386719 46.199219 40.308594 C 46.425781 41.597656 46.300781 42.804688 46.300781 42.804688 C 46.300781 42.804688 45.949219 43.21875 45.949219 43.507812 C 45.949219 43.792969 47.863281 41.148438 48.148438 41.007812 C 48.4375 40.863281 49.15625 41.765625 49.300781 40.40625 C 49.308594 40.328125 49.292969 40.328125 49.300781 40.257812 Z M 52 45.65625 C 51.898438 45.625 51.777344 45.65625 51.648438 45.710938 C 51.648438 46.0625 51.511719 46.320312 51.449219 46.457031 C 51.414062 46.394531 51.300781 46.308594 51.300781 46.308594 C 51.148438 46.585938 50.820312 46.835938 51.148438 46.757812 C 51.476562 46.683594 51.726562 46.886719 51.5 46.609375 C 51.457031 46.554688 51.476562 46.578125 51.449219 46.554688 C 51.492188 46.589844 51.574219 46.609375 51.75 46.609375 C 51.949219 46.609375 52.054688 46.609375 52.199219 46.609375 C 51.957031 46.789062 51.691406 46.863281 52.050781 46.957031 C 52.53125 47.085938 52.75 47.109375 52.75 47.011719 C 52.75 46.910156 52.601562 46.5625 52.601562 46.5625 C 52.695312 46.523438 52.78125 46.472656 52.699219 46.308594 C 52.546875 46.007812 52.308594 45.707031 52 45.660156 Z M 59.648438 46.507812 C 59.898438 46.894531 60.140625 47.292969 60.351562 47.707031 C 60.210938 48.511719 59.859375 49.054688 60.449219 49.054688 C 60.617188 49.054688 60.761719 49.019531 60.898438 49.003906 C 60.917969 49.050781 60.933594 49.105469 60.949219 49.152344 C 59.941406 49.152344 59.457031 49.457031 58.949219 49.355469 C 58.445312 49.253906 57.039062 49.160156 57.949219 48.253906 C 58.480469 47.722656 59.144531 46.878906 59.648438 46.503906 Z M 53.351562 48.355469 C 53.441406 48.386719 53.523438 48.480469 53.601562 48.65625 C 53.902344 49.363281 54.402344 49.953125 54 50.054688 C 53.597656 50.15625 53.398438 50.253906 53.398438 50.253906 C 53.398438 50.253906 54.800781 51.164062 54.898438 50.15625 C 55 49.144531 54.5 48.554688 54.5 48.554688 C 54.5 48.554688 55.199219 49.25 55.398438 49.65625 C 55.601562 50.058594 55.59375 49.65625 56.101562 50.15625 C 56.605469 50.660156 56.492188 48.148438 57.199219 48.855469 C 57.90625 49.5625 58.351562 49.550781 58.148438 50.054688 C 57.949219 50.558594 59.449219 49.445312 59.449219 50.453125 C 59.449219 51.429688 60.070312 51.824219 58.851562 52.304688 C 58.386719 52.273438 58.023438 52.195312 57.949219 52.054688 C 57.746094 51.648438 56.601562 51.953125 56.601562 51.953125 C 53.578125 51.199219 52.265625 50.960938 51.398438 51.105469 C 51.417969 51.070312 51.433594 51.070312 51.449219 51.050781 C 51.890625 50.257812 52.722656 49.152344 52.449219 48.753906 C 52.835938 48.53125 53.136719 48.289062 53.351562 48.351562 Z M 61.851562 53.40625 C 61.859375 53.605469 61.851562 53.800781 61.851562 54.003906 C 61.851562 54.574219 61.816406 55.152344 61.75 55.703125 C 60.839844 54.894531 59.550781 54.90625 59.550781 54.90625 C 59.550781 54.90625 60.339844 54.007812 61.449219 53.605469 C 61.589844 53.550781 61.738281 53.488281 61.851562 53.40625 Z M 61.851562 53.40625 "/>
<path style=" stroke:none;fill-rule:nonzero;fill:rgb(0%,0%,0%);fill-opacity:0.321569;" d="M 12 12 C 10 12 8 14 8 16 L 8 20 L 6 20 C 4 20 1.988281 21.898438 2 24 L 2 80 C 2 82.242188 4.074219 84 6.375 84 L 89.625 84 C 92 84 94 82 94 80 L 94 30 C 94 28 92 26 90 26 L 86 26 L 86 16 C 86 14 84 12 82 12 Z M 6 22 L 54 22 C 55.015625 22 56 22.988281 56 24 L 56 28 L 90 28 C 91.082031 28 92 28.945312 92 30 L 92 80 C 92 81.109375 91.097656 82 90 82 L 6 82 C 4.972656 82 4 81.109375 4 80 L 4 24 C 4 22.914062 4.957031 22 6 22 Z M 6 22 "/>
</g>
</svg>
