<svg version="1.1" viewBox="0 0 64 64" xmlns="http://www.w3.org/2000/svg">
 <g transform="translate(0 -988.36)">
  <path transform="translate(0 988.36)" d="m6.0605 10c-1.129 0.111-2.0825 1.1775-2.0645 2.3125v39.381c-0.014 1.215 1.0995 2.3255 2.3145 2.3125h51.379c1.215 0.014 2.3275-1.0975 2.3145-2.3125v-35.371c0.014-1.215-1.0995-2.3255-2.3145-2.3125h-19.688v-1.6875c0.014-1.194-1.056-2.2935-2.25-2.3125h-29.687zm25.939 12c6.6545 0 12 5.4195 12 12.166 0 5.1982-3.2726 9.843-8.1816 11.502h-0.10938l-0.10938-0.11133v-3.4277c0-0.7742-0.10827-1.4372-0.43555-1.9902 2.5091-0.4423 5.2363-1.7691 5.2363-6.7461 0-1.3272-0.43754-2.5456-1.2012-3.541 0.21818-0.6636 0.32866-1.8793-0.2168-3.4277l-0.32812-0.33203s-0.21736-0.10938-0.43555-0.10938c-0.65455 0-1.6371 0.22017-3.2734 1.3262-0.87273-0.1106-1.8544-0.33203-2.9453-0.33203s-2.0729 0.11083-3.0547 0.33203c-1.5273-0.9954-2.6189-1.2168-3.2734-1.2168-0.21818 0-0.32646 0.11133-0.43555 0.11133s-0.32812 0.22143-0.32812 0.33203c-0.54546 1.5483-0.43498 2.7641-0.2168 3.4277-0.76364 0.9954-1.2012 2.2119-1.2012 3.5391 0 4.8664 2.8363 6.1932 5.2363 6.7461-0.10909 0.2212-0.21708 0.55297-0.32617 0.88476-0.21818 0.1106-0.54606 0.22266-0.98242 0.22266-0.43636 0-0.87195-0.11156-1.1992-0.44336l-0.10938-0.10938c-0.10909-0.1106-0.10966-0.22266-0.21875-0.22266l-0.10938-0.10938-0.10938-0.11133c0-0.1106-0.87116-1.4382-2.3984-1.5488-0.54545 0-0.98271 0.22093-1.0918 0.55273-0.21818 0.553 0.4364 0.9956 0.76367 1.2168 0 0 0.65543 0.33223 1.0918 1.5488 0.21818 0.7742 1.1993 2.2129 3.4902 2.2129h0.76367v1.5469l-0.10938 0.11133c-4.9091-1.9908-8.1816-6.6358-8.1816-11.834 0-6.7465 5.3455-12.166 12-12.166z" style="color:#000000;fill:#42a5f5"/>
 </g>
</svg>
