<?xml version="1.0" encoding="UTF-8" standalone="no"?>
<svg
   xmlns:dc="http://purl.org/dc/elements/1.1/"
   xmlns:cc="http://creativecommons.org/ns#"
   xmlns:rdf="http://www.w3.org/1999/02/22-rdf-syntax-ns#"
   xmlns:svg="http://www.w3.org/2000/svg"
   xmlns="http://www.w3.org/2000/svg"
   xmlns:sodipodi="http://sodipodi.sourceforge.net/DTD/sodipodi-0.dtd"
   xmlns:inkscape="http://www.inkscape.org/namespaces/inkscape"
   width="48"
   viewBox="0 0 48 48"
   height="48"
   id="svg2"
   version="1.1"
   inkscape:version="0.48.5 r10040"
   sodipodi:docname="network-server.svg">
  <metadata
     id="metadata20">
    <rdf:RDF>
      <cc:Work
         rdf:about="">
        <dc:format>image/svg+xml</dc:format>
        <dc:type
           rdf:resource="http://purl.org/dc/dcmitype/StillImage" />
      </cc:Work>
    </rdf:RDF>
  </metadata>
  <defs
     id="defs18" />
  <sodipodi:namedview
     pagecolor="#ffffff"
     bordercolor="#666666"
     borderopacity="1"
     objecttolerance="10"
     gridtolerance="10"
     guidetolerance="10"
     inkscape:pageopacity="0"
     inkscape:pageshadow="2"
     inkscape:window-width="1280"
     inkscape:window-height="998"
     id="namedview16"
     showgrid="true"
     inkscape:zoom="5.6568542"
     inkscape:cx="-13.687949"
     inkscape:cy="33.690421"
     inkscape:window-x="0"
     inkscape:window-y="0"
     inkscape:window-maximized="1"
     inkscape:current-layer="svg2"
     showguides="true"
     inkscape:guide-bbox="true">
    <inkscape:grid
       type="xygrid"
       id="grid2997" />
  </sodipodi:namedview>
  <path
     style="fill:#aaaaaa;fill-opacity:1;fill-rule:evenodd;stroke:none"
     d="m 22.522,33.999996 2.956,0 c 0.289188,0 0.522,0.01204 0.522,0.027 l 0,5.946 c 0,0.01496 -0.232812,0.027 -0.522,0.027 l -2.956,0 c -0.289188,0 -0.522,-0.01204 -0.522,-0.027 l 0,-5.946 c 0,-0.01496 0.232812,-0.027 0.522,-0.027 z"
     id="rect3022" />
  <rect
     style="fill:#ea9036;fill-opacity:1;stroke:none"
     id="rect3757"
     width="38"
     height="15"
     x="5"
     y="5.9999981" />
  <path
     style="fill:#ea9036;fill-opacity:1;stroke:none"
     d="m 10,8.0000153 c 0,-2 0,-4 2,-4 l 7,0 c 2,0 2,2 2,4 z"
     id="path3759"
     inkscape:connector-curvature="0"
     sodipodi:nodetypes="ccccc" />
  <path
     style="fill:#95989f;fill-opacity:1;stroke:none"
     d="m 9,9.0000153 31,0 0,6.9999997 -31,0 z"
     id="path3765"
     inkscape:connector-curvature="0" />
  <rect
     y="7.9999981"
     x="11"
     height="20"
     width="28"
     id="rect3763"
     style="fill:#d8d8da;fill-opacity:1;stroke:none" />
  <rect
     style="fill:#f9f9f9;fill-opacity:1;stroke:none"
     id="rect3761"
     width="28"
     height="20"
     x="10"
     y="10.999998" />
  <path
     style="fill:#f2bb64;fill-opacity:1;stroke:none"
     d="m 2,12.000015 44,0 -4,24 -37,0 z"
     id="path2987"
     inkscape:connector-curvature="0"
     sodipodi:nodetypes="ccccc" />
  <path
     style="fill:#aaaaaa;fill-opacity:1;fill-rule:evenodd;stroke:none"
     d="m 5,39.999996 12,0 0,4 -12,0 z"
     id="rect2999" />
  <path
     style="fill:#aaaaaa;fill-opacity:1;fill-rule:evenodd;stroke:none"
     d="m 18,38.999996 12,0 0,6 -12,0 z"
     id="rect3001" />
  <rect
     style="fill:#aaaaaa;fill-opacity:1;fill-rule:evenodd;stroke:none"
     id="rect3003"
     width="12"
     height="4"
     x="31"
     y="39.999996" />
</svg>
