<?xml version="1.0" encoding="UTF-8" standalone="no"?>
<!-- Created with Inkscape (http://www.inkscape.org/) -->

<svg
   xmlns:dc="http://purl.org/dc/elements/1.1/"
   xmlns:cc="http://creativecommons.org/ns#"
   xmlns:rdf="http://www.w3.org/1999/02/22-rdf-syntax-ns#"
   xmlns:svg="http://www.w3.org/2000/svg"
   xmlns="http://www.w3.org/2000/svg"
   xmlns:sodipodi="http://sodipodi.sourceforge.net/DTD/sodipodi-0.dtd"
   xmlns:inkscape="http://www.inkscape.org/namespaces/inkscape"
   width="48"
   height="48"
   id="svg2"
   version="1.1"
   inkscape:version="0.48.4 r9939"
   sodipodi:docname="folder-wine.svg"
   inkscape:export-filename="/home/me4oslav/Desktop/folder.png"
   inkscape:export-xdpi="270"
   inkscape:export-ydpi="270">
  <defs
     id="defs4" />
  <sodipodi:namedview
     id="base"
     pagecolor="#ffffff"
     bordercolor="#666666"
     borderopacity="1.0"
     inkscape:pageopacity="0.0"
     inkscape:pageshadow="2"
     inkscape:zoom="7.39"
     inkscape:cx="62.075906"
     inkscape:cy="22.92046"
     inkscape:document-units="px"
     inkscape:current-layer="layer1"
     showgrid="true"
     inkscape:window-width="1366"
     inkscape:window-height="740"
     inkscape:window-x="0"
     inkscape:window-y="28"
     inkscape:window-maximized="1"
     showguides="true"
     inkscape:guide-bbox="true">
    <inkscape:grid
       type="xygrid"
       id="grid2985"
       empspacing="5"
       visible="true"
       enabled="true"
       snapvisiblegridlinesonly="true" />
  </sodipodi:namedview>
  <metadata
     id="metadata7">
    <rdf:RDF>
      <cc:Work
         rdf:about="">
        <dc:format>image/svg+xml</dc:format>
        <dc:type
           rdf:resource="http://purl.org/dc/dcmitype/StillImage" />
        <dc:title></dc:title>
      </cc:Work>
    </rdf:RDF>
  </metadata>
  <g
     inkscape:label="Layer 1"
     inkscape:groupmode="layer"
     id="layer1"
     transform="translate(0,-1004.3622)">
    <rect
       style="fill:#ea9036;fill-opacity:1;stroke:none"
       id="rect3757"
       width="38"
       height="15"
       x="5"
       y="1014.3622" />
    <path
       style="fill:#ea9036;fill-opacity:1;stroke:none"
       d="m 10,1016.3622 c 0,-2 0,-4 2,-4 l 7,0 c 2,0 2,2 2,4 z"
       id="path3759"
       inkscape:connector-curvature="0"
       sodipodi:nodetypes="ccccc" />
    <path
       style="fill:#95989f;fill-opacity:1;stroke:none"
       d="m 9,1017.3622 31,0 0,7 -31,0 z"
       id="path3765"
       inkscape:connector-curvature="0" />
    <rect
       y="1016.3622"
       x="11"
       height="20"
       width="28"
       id="rect3763"
       style="fill:#d8d8da;fill-opacity:1;stroke:none" />
    <rect
       style="fill:#f9f9f9;fill-opacity:1;stroke:none"
       id="rect3761"
       width="28"
       height="20"
       x="10"
       y="1019.3622" />
    <path
       style="fill:#f2bb64;fill-opacity:1;stroke:none"
       d="m 2,1020.3622 44,0 -4,24 -37,0 z"
       id="path2987"
       inkscape:connector-curvature="0"
       sodipodi:nodetypes="ccccc" />
    <g
       style="line-height:normal;color:#000000;fill:#000000;fill-opacity:1;opacity:0.25"
       transform="translate(1e-4,1004.3622)"
       id="g4033">
      <path
         inkscape:connector-curvature="0"
         style="fill-rule:evenodd;fill:#000000;fill-opacity:1"
         d="m 16.0001,22 -2e-4,2 1,0 0,-1.5 c 2e-4,-0.50672 0.5,-0.50672 0.5,-0.50672 l 1.5,0.007 0,-1 -1.9998,0 c 0,0 -1,0 -1,1 z m 12.9998,-1 0,1 1.5,0 c 0,0 0.5002,-0.007 0.5002,0.5 l -2e-4,1.5 1,0 2e-4,-2 c 0,-1 -1,-1 -1,-1 z m -13,11 2e-4,2 c 0,1 1,1 1,1 l 2,0 0,-1 -1.5002,0.007 c -0.4998,-0.007 -0.4998,-0.5 -0.4998,-0.5 l -2e-4,-1.5067 z m 15,0 0,1.5 c 2e-4,0.49328 -0.5,0.5 -0.5,0.5 l -1.5,0 0,1 2.0002,0 c 0,0 1,0 1,-1 l -2e-4,-2 z"
         id="path4035" />
      <path
         inkscape:connector-curvature="0"
         d="m 18.9999,24.99328 2e-4,4 c 5e-5,1 1,1 1,1 l 3,0 c 1,0 1,-1 1,-1 l -2e-4,-3 -2,-2 -1.9998,0 c 0,0 -1.00025,0 -1.0002,1 z m 1,0 2,0 0,1 1,0 2e-4,3 -3,0 z"
         id="path4037"
         style="fill:#000000;fill-opacity:1" />
    </g>
  </g>
</svg>
