<?xml version="1.0" encoding="UTF-8" standalone="no"?>
<!-- Created with Inkscape (http://www.inkscape.org/) -->

<svg
   xmlns:dc="http://purl.org/dc/elements/1.1/"
   xmlns:cc="http://creativecommons.org/ns#"
   xmlns:rdf="http://www.w3.org/1999/02/22-rdf-syntax-ns#"
   xmlns:svg="http://www.w3.org/2000/svg"
   xmlns="http://www.w3.org/2000/svg"
   xmlns:xlink="http://www.w3.org/1999/xlink"
   xmlns:sodipodi="http://sodipodi.sourceforge.net/DTD/sodipodi-0.dtd"
   xmlns:inkscape="http://www.inkscape.org/namespaces/inkscape"
   width="32"
   height="32"
   id="svg2"
   version="1.1"
   inkscape:version="0.48.5 r10040"
   sodipodi:docname="orange-folder-steam.svg"
   inkscape:export-filename="/media/Data/Main/Visuals/Icons/Numix/Desktop/repos/numix-wiki/Gjorgi/Numix-folders/48/New/folder-144.png"
   inkscape:export-xdpi="270"
   inkscape:export-ydpi="270">
  <defs
     id="defs4">
    <linearGradient
       id="linearGradient3958"
       inkscape:collect="always">
      <stop
         id="stop3960"
         offset="0"
         style="stop-color:#000000;stop-opacity:1;" />
      <stop
         id="stop3962"
         offset="1"
         style="stop-color:#000000;stop-opacity:0;" />
    </linearGradient>
    <radialGradient
       gradientUnits="userSpaceOnUse"
       gradientTransform="matrix(1,0,0,0.10447761,0,50.597015)"
       r="33.5"
       fy="56.5"
       fx="32.5"
       cy="56.5"
       cx="32.5"
       id="radialGradient3964"
       xlink:href="#linearGradient3958"
       inkscape:collect="always" />
    <radialGradient
       inkscape:collect="always"
       xlink:href="#linearGradient3958"
       id="radialGradient3031"
       gradientUnits="userSpaceOnUse"
       gradientTransform="matrix(1,0,0,0.10447761,0,50.597015)"
       cx="32.5"
       cy="56.5"
       fx="32.5"
       fy="56.5"
       r="33.5" />
    <radialGradient
       gradientUnits="userSpaceOnUse"
       gradientTransform="matrix(1,0,0,0.10447761,0,50.597015)"
       r="33.5"
       fy="56.5"
       fx="32.5"
       cy="56.5"
       cx="32.5"
       id="radialGradient3964-4"
       xlink:href="#linearGradient3958-4"
       inkscape:collect="always" />
    <linearGradient
       id="linearGradient3958-4"
       inkscape:collect="always">
      <stop
         id="stop3960-2"
         offset="0"
         style="stop-color:#000000;stop-opacity:1;" />
      <stop
         id="stop3962-1"
         offset="1"
         style="stop-color:#000000;stop-opacity:0;" />
    </linearGradient>
  </defs>
  <sodipodi:namedview
     id="base"
     pagecolor="#ffffff"
     bordercolor="#666666"
     borderopacity="1.0"
     inkscape:pageopacity="0.0"
     inkscape:pageshadow="2"
     inkscape:zoom="13.399674"
     inkscape:cx="-0.34646272"
     inkscape:cy="7.5969852"
     inkscape:document-units="px"
     inkscape:current-layer="layer1"
     showgrid="true"
     inkscape:window-width="1280"
     inkscape:window-height="998"
     inkscape:window-x="0"
     inkscape:window-y="0"
     inkscape:window-maximized="1"
     showguides="true"
     inkscape:guide-bbox="true">
    <inkscape:grid
       type="xygrid"
       id="grid2985"
       empspacing="5"
       visible="true"
       enabled="true"
       snapvisiblegridlinesonly="true" />
  </sodipodi:namedview>
  <metadata
     id="metadata7">
    <rdf:RDF>
      <cc:Work
         rdf:about="">
        <dc:format>image/svg+xml</dc:format>
        <dc:type
           rdf:resource="http://purl.org/dc/dcmitype/StillImage" />
        <dc:title />
      </cc:Work>
    </rdf:RDF>
  </metadata>
  <g
     inkscape:label="Layer 1"
     inkscape:groupmode="layer"
     id="layer1"
     transform="translate(0,-1020.3622)">
    <rect
       style="fill:replacecolour2;fill-opacity:1;stroke:none"
       id="rect3757"
       width="26"
       height="10"
       x="3"
       y="1026.3622" />
    <path
       style="fill:replacecolour2;fill-opacity:1;stroke:none"
       d="m 5.9999995,1026.3622 c 0,-1 0,-2 1.4545465,-2 l 5.090909,0 c 1.454545,0 1.454545,1 1.454545,2 l 0,1 -8.0000005,0 z"
       id="path3759"
       inkscape:connector-curvature="0"
       sodipodi:nodetypes="ccccccc" />
    <path
       style="fill:#95989f;fill-opacity:1;stroke:none"
       d="m 5,1028.3622 22,0 0,4.9677 -22,0 z"
       id="path3765"
       inkscape:connector-curvature="0" />
    <rect
       y="1027.3622"
       x="7"
       height="12.999977"
       width="19"
       id="rect3763"
       style="fill:#d8d8da;fill-opacity:1;stroke:none" />
    <rect
       style="fill:#f9f9f9;fill-opacity:1;stroke:none"
       id="rect3761"
       width="19"
       height="12.999977"
       x="6"
       y="1029.3622" />
    <path
       style="fill:replacecolour1;fill-opacity:1;stroke:none"
       d="m 1,1030.3622 30,0 -2.142857,18 -25.7142859,0 z"
       id="path2987"
       inkscape:connector-curvature="0"
       sodipodi:nodetypes="ccccc" />
    <path
       inkscape:connector-curvature="0"
       style="opacity:0.4;fill:#3c2f1b;fill-opacity:1;fill-rule:nonzero;stroke:none"
       d="m 19.748008,1033.3618 c -1.607379,0 -2.921804,1.3416 -2.921804,2.9894 0,0.553 0.158945,1.0755 0.417401,1.5225 l 0,3.2386 c -0.318345,0.068 -0.612449,0.2164 -0.860888,0.4153 l -2.895714,-1.3287 c 0,-1.1752 -0.939387,-2.1315 -2.087,-2.1315 -1.145561,0 -2.087003,0.9557 -2.087003,2.1315 0,1.1775 0.940929,2.1591 2.087003,2.1591 0.464783,0 0.903962,-0.1762 1.2522,-0.4429 l 2.921802,1.3563 c 0.03012,1.151 0.959695,2.076 2.087001,2.076 1.147614,0 2.087002,-0.954 2.087002,-2.1314 0,-0.4905 -0.169855,-0.9387 -0.443488,-1.3009 l 0.02609,0 1.539164,-2.7958 c 0.01098,-0.012 0.01517,-0.023 0.02609,-0.027 1.030147,-0.4654 1.773952,-1.5172 1.773952,-2.7404 0,-1.6461 -1.316478,-2.9895 -2.921803,-2.9895 z m 0,0.9964 c 1.079805,0 1.930476,0.8859 1.930476,1.993 0,1.1092 -0.851185,1.993 -1.930476,1.993 -1.081346,0 -1.930477,-0.8838 -1.930477,-1.993 0,-1.1071 0.849131,-1.993 1.930477,-1.993 z m 0,0.7198 c -0.690419,0 -1.252202,0.562 -1.252202,1.2732 0,0.7085 0.561783,1.2733 1.252202,1.2733 0.692473,0 1.252201,-0.5642 1.252201,-1.2733 0,-0.7108 -0.559728,-1.2732 -1.252201,-1.2732 z m -8.348006,3.8476 c 0.685456,0 1.076349,0.2837 1.200026,0.858 l -0.730452,-0.3323 c -0.473635,-0.2066 -1.025256,0.012 -1.226113,0.4983 -0.200858,0.4858 0.02202,1.0413 0.495662,1.2458 l 0.547839,0.2766 c -0.09146,0.015 -0.182424,0.027 -0.286962,0.027 -0.83477,0 -1.252201,-0.4429 -1.252201,-1.3008 0,-0.8558 0.417431,-1.2734 1.252201,-1.2734 z m 6.261004,2.8511 c 0.772609,0 1.382638,0.6473 1.382638,1.4393 0,0.792 -0.610029,1.4117 -1.382638,1.4117 -0.627402,0 -1.157089,-0.4138 -1.330464,-0.9966 l 0.991327,0.4431 c 0.473634,0.2065 1.025255,-0.038 1.226113,-0.526 0.200857,-0.4857 -0.02203,-1.0412 -0.495663,-1.2456 l -0.913063,-0.4153 c 0.159946,-0.066 0.337947,-0.1099 0.52175,-0.1099 z"
       id="path3447" />
  </g>
</svg>
