<?xml version="1.0" encoding="UTF-8" standalone="no"?>
<!-- Created with Inkscape (http://www.inkscape.org/) -->

<svg
   xmlns:dc="http://purl.org/dc/elements/1.1/"
   xmlns:cc="http://creativecommons.org/ns#"
   xmlns:rdf="http://www.w3.org/1999/02/22-rdf-syntax-ns#"
   xmlns:svg="http://www.w3.org/2000/svg"
   xmlns="http://www.w3.org/2000/svg"
   xmlns:sodipodi="http://sodipodi.sourceforge.net/DTD/sodipodi-0.dtd"
   xmlns:inkscape="http://www.inkscape.org/namespaces/inkscape"
   id="svg3396"
   height="16"
   width="16"
   version="1.0"
   inkscape:version="0.91 r"
   sodipodi:docname="custom-add-folders-to-archive.svg">
  <metadata
     id="metadata64">
    <rdf:RDF>
      <cc:Work
         rdf:about="">
        <dc:format>image/svg+xml</dc:format>
        <dc:type
           rdf:resource="http://purl.org/dc/dcmitype/StillImage" />
        <dc:title />
      </cc:Work>
    </rdf:RDF>
  </metadata>
  <sodipodi:namedview
     pagecolor="#ffffff"
     bordercolor="#666666"
     borderopacity="1"
     objecttolerance="10"
     gridtolerance="10"
     guidetolerance="10"
     inkscape:pageopacity="0"
     inkscape:pageshadow="2"
     inkscape:window-width="1366"
     inkscape:window-height="747"
     id="namedview62"
     showgrid="true"
     inkscape:zoom="16.793652"
     inkscape:cx="-2.4744256"
     inkscape:cy="12.32158"
     inkscape:window-x="0"
     inkscape:window-y="21"
     inkscape:window-maximized="1"
     inkscape:current-layer="svg3396">
    <inkscape:grid
       type="xygrid"
       id="grid3906"
       empspacing="5"
       visible="true"
       enabled="true"
       snapvisiblegridlinesonly="true" />
  </sodipodi:namedview>
  <defs
     id="defs3398" />
  <path
     sodipodi:nodetypes="ccccsssccccccc"
     inkscape:connector-curvature="0"
     id="path3782-3"
     d="m 2.0000011,4 c -0.496942,0 -1,0.4696179 -1,1 l 0,1 C 0.53482406,6 -8.6993926e-4,6.4172975 1.0607383e-6,7 l 0,8 c 0,0.60223 0.4819389992617,1 1.0000000392617,1 l 11.9999999,0 c 0.537645,0 1.001045,-0.397772 1,-1 l 0,-6.9999999 c -6.31e-4,-0.603019 -0.474177,-1 -1,-1 l -1,0 0,-2.0000001 c 0,-0.557324 -0.477664,-1 -1,-1 z"
     style="font-size:medium;font-style:normal;font-variant:normal;font-weight:normal;font-stretch:normal;text-indent:0;text-align:start;text-decoration:none;line-height:normal;letter-spacing:normal;word-spacing:normal;text-transform:none;direction:ltr;block-progression:tb;writing-mode:lr-tb;text-anchor:start;baseline-shift:baseline;color:replacecolour2;fill:replacecolour1;fill-opacity:1;fill-rule:nonzero;stroke:none;stroke-width:0.81800002;marker:none;visibility:visible;display:inline;overflow:visible;enable-background:accumulate;font-family:Sans;-inkscape-font-specification:Sans" />
  <path
     style="font-size:medium;font-style:normal;font-variant:normal;font-weight:normal;font-stretch:normal;text-indent:0;text-align:start;text-decoration:none;line-height:normal;letter-spacing:normal;word-spacing:normal;text-transform:none;direction:ltr;block-progression:tb;writing-mode:lr-tb;text-anchor:start;baseline-shift:baseline;color:replacecolour2;fill:replacecolour2;fill-opacity:1.;fill-rule:nonzero;stroke:none;stroke-width:0.81800002;marker:none;visibility:visible;display:inline;overflow:visible;enable-background:accumulate;font-family:Sans;-inkscape-font-specification:Sans"
     d="m 2.0000011,4 c -0.496942,0 -1,0.4696179 -1,1 l 0,1 C 0.53482406,6 -8.6993926e-4,6.4172976 1.0607383e-6,7.0000001 l 0,7.9999999 c 0,0.60223 0.4701499992617,1 1.0000000392617,1 l 11.9999999,0 c 0.541553,0 1.001045,-0.397772 1,-1 l 0,-6.9999999 c -6.31e-4,-0.603019 -0.48019,-0.920707 -1,-1 l -1,0 0,-2.0000001 c 0,-0.557324 -0.477664,-1 -1,-1 z m -1,3.0000001 7,-1e-7 0,1 4.9999999,10e-8 0,6.9999999 -11.9999999,0 z"
     id="path3768-9"
     inkscape:connector-curvature="0"
     sodipodi:nodetypes="ssccsssccscsssccccccc" />
  <path
     inkscape:connector-curvature="0"
     style="font-style:normal;font-variant:normal;font-weight:normal;font-stretch:normal;font-size:medium;line-height:normal;font-family:Sans;-inkscape-font-specification:Sans;text-indent:0;text-align:start;text-decoration:none;text-decoration-line:none;letter-spacing:normal;word-spacing:normal;text-transform:none;direction:ltr;block-progression:tb;writing-mode:lr-tb;baseline-shift:baseline;text-anchor:start;display:inline;overflow:visible;visibility:visible;fill:#000000;fill-opacity:0.10196079;fill-rule:nonzero;stroke:none;stroke-width:0.81800002;marker:none;enable-background:accumulate"
     d="m 2.000001,4 c -0.496942,0 -1,0.4696179 -1,1 l 0,1 C 0.534824,6 -8.7e-4,6.4172975 1e-6,7 l 0,8 c 0,0.60223 0.481939,1 1,1 l 12,0 c 0.268822,0 0.504575,-0.106529 0.6875,-0.28125 0.09943,-0.09041 0.164032,-0.182628 0.21875,-0.3125 0.05139,-0.121979 0.09401,-0.255693 0.09375,-0.40625 l 0,-7 C 13.999843,7.8492453 13.959421,7.7095718 13.906251,7.59375 13.857091,7.4799225 13.771334,7.3962986 13.687501,7.3125 13.501742,7.1268167 13.271735,7 13.000001,7 l -1,0 0,-2 c 0,-0.557324 -0.477664,-1 -1,-1 l -9,0 z"
     id="path2987" />
  <path
     sodipodi:nodetypes="ccccsssccccccc"
     inkscape:connector-curvature="0"
     id="path3782"
     d="M 4.000001,0 C 3.5030591,0 3.0000011,0.469618 3.0000011,1 l 0,1 c -0.465177,0 -1.000871,0.417297 -1,1 l 0,8 c 0,0.60223 0.481939,1 1,1 l 11.9999999,0 c 0.537645,0 1.001045,-0.397772 1,-1 l 0,-7 c -6.31e-4,-0.603019 -0.474177,-1 -1,-1 l -1,0 0,-2 c 0,-0.557324 -0.477664,-1 -1,-1 z"
     style="color:replacecolour2;font-style:normal;font-variant:normal;font-weight:normal;font-stretch:normal;font-size:medium;line-height:normal;font-family:Sans;-inkscape-font-specification:Sans;text-indent:0;text-align:start;text-decoration:none;text-decoration-line:none;letter-spacing:normal;word-spacing:normal;text-transform:none;direction:ltr;block-progression:tb;writing-mode:lr-tb;baseline-shift:baseline;text-anchor:start;display:inline;overflow:visible;visibility:visible;fill:#fe0000;fill-opacity:1;fill-rule:nonzero;stroke:none;stroke-width:0.81800002;marker:none;enable-background:accumulate" />
  <path
     style="font-style:normal;font-variant:normal;font-weight:normal;font-stretch:normal;font-size:medium;line-height:normal;font-family:Sans;-inkscape-font-specification:Sans;text-indent:0;text-align:start;text-decoration:none;text-decoration-line:none;letter-spacing:normal;word-spacing:normal;text-transform:none;direction:ltr;block-progression:tb;writing-mode:lr-tb;baseline-shift:baseline;text-anchor:start;display:inline;overflow:visible;visibility:visible;fill-rule:nonzero;stroke:none;stroke-width:0.81800002;marker:none;enable-background:accumulate;fill:replacecolour2;fill-opacity:1"
     d="m 4.0000011,0 c -0.496942,0 -1,0.4696179 -1,1 l 0,1 c -0.465177,0 -1.000871,0.4172976 -1,1.0000001 l 0,7.9999999 c 0,0.60223 0.47015,1 1,1 l 11.9999999,0 c 0.541553,0 1.001045,-0.397772 1,-1 l 0,-6.9999999 c -6.31e-4,-0.603019 -0.48019,-0.920707 -1,-1 l -1,0 0,-2.0000001 c 0,-0.557324 -0.477664,-1 -1,-1 z m -1,3.0000001 L 10.000001,3 l 0,1 5,1e-7 0,6.9999999 -11.9999999,0 z"
     id="path3768"
     inkscape:connector-curvature="0"
     sodipodi:nodetypes="ssccsssccscsssccccccc" />
  <path
     inkscape:connector-curvature="0"
     style="fill:#859900"
     d="m 15.999961,9.9999265 -3,0 0,-2.9999999 -2.9999999,0 0,2.9999999 -3,0 0,2.9999995 3,0 0,3 2.9999999,0 0,-3 3,0 z"
     id="path18" />
</svg>
