<svg xmlns="http://www.w3.org/2000/svg" width="16" height="16" viewBox="0 0 12.8 12.8">
 <path d="m 1.6 0.8 c -0.398 0 -0.8 0.376 -0.8 0.8 l 0 3.2 c -0.372 0 -0.801 0.334 -0.8 0.8 l 0 5.6 c 0 0.482 0.386 0.8 0.8 0.8 l 11.2 0 c 0.43 0 0.801 -0.318 0.8 -0.8 l 0 -4.8 c -0.001 -0.482 -0.379 -0.8 -0.8 -0.8 l -0.8 0 0 -4 c 0 -0.446 -0.382 -0.8 -0.8 -0.8 z" style="visibility:visible;fill:#66bb6a;fill-opacity:1;stroke:none;display:inline;color:#000;fill-rule:nonzero"/>
 <path d="m 1.6 0.8 c -0.398 0 -0.8 0.376 -0.8 0.8 l 0 3.2 c -0.372 0 -0.801 0.334 -0.8 0.8 l 0 5.6 c 0 0.482 0.376 0.8 0.8 0.8 l 11.2 0 c 0.433 0 0.801 -0.318 0.8 -0.8 l 0 -4.8 c -0.001 -0.482 -0.379 -0.8 -0.8 -0.8 l -0.8 0 0 -4 c 0 -0.446 -0.382 -0.8 -0.8 -0.8 z m -0.8 4.8 6.4 0 0 0.8 4.8 0 0 4.8 -11.2 0 z" style="visibility:visible;fill:#000;fill-opacity:0.32;stroke:none;display:inline;color:#000;fill-rule:nonzero"/>
 <g transform="matrix(0.94912455,0,0,0.31637485,-0.16930959,1.5435635)">
  <path d="m 2.707 2.707 7.586 0 0 7.586 -7.586 0 z" style="fill:#f8f8f8"/>
 </g>
 <path d="m 3.2 3.2 5.6 0 0 0.8 -5.6 0 z" style="fill:#ccc"/>
 <path d="m 12 6 0 1 -2 0 c 0 -0.547 -0.39 -1 -1 -1 z" transform="scale(0.8,0.8)" style="fill:#f8f8f8;fill-opacity:1;stroke:none"/>
 <path transform="scale(0.8,0.8)" d="m 11 6 0 1 -1 0 c 0 -0.547 -0.39 -1 -1 -1 z" style="fill:#ccc;fill-opacity:1;stroke:none"/>
 <g transform="matrix(0.6556,0,0,0.649248,-1.4671672,-1.5469432)">
  <path d="m 20.95 13.17 a 4.881 4.831 0 1 1 -9.76 0 4.881 4.831 0 1 1 9.76 0 z" transform="translate(0.811,3.999)" style="fill:#859900;fill-rule:evenodd"/>
  <path d="m 19.55 14.07 a 0.5 0.5 0 0 0 -0.25 0.2 l -2.66 2.6 -1.66 -1.6 a 0.5 0.5 0 1 0 -0.68 0.6 l 2 2 a 0.5 0.5 0 0 0 0.68 0 l 3 -3 a 0.5 0.5 0 0 0 -0.43 -0.8 z" style="fill:#fff;color:#000"/>
 </g>
</svg>
