<svg xmlns="http://www.w3.org/2000/svg" viewBox="0 0 16 16">
 <path d="m 2 4 c -0.497 0 -1 0.47 -1 1 l 0 1 c -0.465 0 -1 0.417 -1 1 l 0 8 c 0 0.602 0.482 1 1 1 l 12 0 c 0.538 0 1 -0.398 1 -1 l 0 -7 c -0.001 -0.603 -0.474 -1 -1 -1 l -1 0 0 -2 c 0 -0.557 -0.478 -1 -1 -1 z" style="visibility:visible;fill:#f57c00;fill-opacity:1;stroke:none;display:inline;color:#000;fill-rule:nonzero"/>
 <path d="m 2 4 c -0.497 0 -1 0.47 -1 1 l 0 1 c -0.465 0 -1 0.417 -1 1 l 0 8 c 0 0.602 0.47 1 1 1 l 12 0 c 0.542 0 1 -0.398 1 -1 l 0 -7 c -0.001 -0.603 -0.48 -0.921 -1 -1 l -1 0 0 -2 c 0 -0.557 -0.478 -1 -1 -1 z m -1 3 7 0 0 1 5 0 0 7 -12 0 z" style="visibility:visible;fill:#000;fill-opacity:0.32;stroke:none;display:inline;color:#000;fill-rule:nonzero"/>
 <path d="m 2 4 c -0.497 0 -1 0.47 -1 1 l 0 1 c -0.465 0 -1 0.417 -1 1 l 0 8 c 0 0.602 0.482 1 1 1 l 12 0 c 0.269 0 0.505 -0.107 0.688 -0.281 0.099 -0.09 0.164 -0.183 0.219 -0.313 0.051 -0.122 0.094 -0.256 0.094 -0.406 l 0 -7 c 0 -0.151 -0.041 -0.29 -0.094 -0.406 -0.049 -0.114 -0.135 -0.197 -0.219 -0.281 -0.186 -0.186 -0.416 -0.313 -0.688 -0.313 l -1 0 0 -2 c 0 -0.557 -0.478 -1 -1 -1 l -9 0 z" style="visibility:visible;fill:#000;fill-opacity:0.102;stroke:none;display:inline;color:#000;fill-rule:nonzero"/>
 <path d="m 4 0 c -0.497 0 -1 0.47 -1 1 l 0 1 c -0.465 0 -1 0.417 -1 1 l 0 8 c 0 0.602 0.482 1 1 1 l 12 0 c 0.538 0 1 -0.398 1 -1 l 0 -7 c -0.001 -0.603 -0.474 -1 -1 -1 l -1 0 0 -2 c 0 -0.557 -0.478 -1 -1 -1 z" style="visibility:visible;fill:#f57c00;fill-opacity:1;stroke:none;display:inline;color:#000;fill-rule:nonzero"/>
 <path d="m 4 0 c -0.497 0 -1 0.47 -1 1 l 0 1 c -0.465 0 -1 0.417 -1 1 l 0 8 c 0 0.602 0.47 1 1 1 l 12 0 c 0.542 0 1 -0.398 1 -1 l 0 -7 c -0.001 -0.603 -0.48 -0.921 -1 -1 l -1 0 0 -2 c 0 -0.557 -0.478 -1 -1 -1 z m -1 3 l 7 0 l 0 1 5 0 0 7 -12 0 z" style="visibility:visible;fill:#000;fill-opacity:0.32;stroke:none;display:inline;color:#000;fill-rule:nonzero"/>
 <path d="m 16 10 -3 0 0 -3 -3 0 0 3 -3 0 0 3 3 0 0 3 3 0 0 -3 3 0 z" style="fill:#859900"/>
</svg>
