<svg xmlns="http://www.w3.org/2000/svg" viewBox="0 0 16 16">
 <g transform="translate(0,-1036.3622)">
  <path d="m 2.813 0 c -1.461 0 -1.756 0.709 -1.813 2 l 0 6 c 0 1.108 0.947 2 2 2 l 10.06 0 c 1.053 0 1.938 -0.892 1.938 -2 l 0 -6 l -2 -2 l -9 0 l -1.188 0 z" transform="translate(0,1036.3622)" style="fill:#e3e1cf;fill-opacity:1;stroke:none"/>
  <rect rx="1" y="1041.36" height="11" width="16" style="fill:#42a5f5;fill-opacity:1;stroke:none"/>
  <path d="M 1 5 C 0.446 5 0 5.446 0 6 L 16 6 C 16 5.446 15.554 5 15 5 L 1 5 z " transform="translate(0,1036.3622)" style="fill:#fff;opacity:0.1;fill-opacity:1;stroke:none"/>
  <path d="m 13 0 0 2 2 0 z" transform="translate(0,1036.3622)" style="fill:#fff;fill-opacity:1;stroke:none"/>
  <path d="m 15 1040.36 0 -2 -2 0 z" style="fill:#000;opacity:0.2;fill-opacity:1;stroke:none"/>
  <rect width="8" height="1" x="3" y="1037.36" rx="0.5" style="fill:#a1a195;fill-opacity:1;stroke:none"/>
  <rect rx="0.5" y="1039.36" x="3" height="1" width="10" style="fill:#a1a195;fill-opacity:1;stroke:none"/>
  <g transform="matrix(0.8195,0,0,0.81156,-1.833959,1034.4285)">
   <path d="m 20.95 13.17 a 4.881 4.831 0 1 1 -9.76 0 4.881 4.831 0 1 1 9.76 0 z" transform="translate(0.811,3.999)" style="fill:#859900;fill-rule:evenodd"/>
   <path d="m 19.55 14.07 a 0.5 0.5 0 0 0 -0.25 0.2 l -2.66 2.6 -1.66 -1.6 a 0.5 0.5 0 1 0 -0.68 0.6 l 2 2 a 0.5 0.5 0 0 0 0.68 0 l 3 -3 a 0.5 0.5 0 0 0 -0.43 -0.8 z" style="fill:#fff;color:#000"/>
  </g>
 </g>
</svg>
