<?xml version="1.0" encoding="UTF-8" standalone="no"?>
<svg
   xmlns:dc="http://purl.org/dc/elements/1.1/"
   xmlns:cc="http://creativecommons.org/ns#"
   xmlns:rdf="http://www.w3.org/1999/02/22-rdf-syntax-ns#"
   xmlns:svg="http://www.w3.org/2000/svg"
   xmlns="http://www.w3.org/2000/svg"
   xmlns:sodipodi="http://sodipodi.sourceforge.net/DTD/sodipodi-0.dtd"
   xmlns:inkscape="http://www.inkscape.org/namespaces/inkscape"
   viewBox="0 0 16 16"
   id="svg2"
   version="1.1"
   inkscape:version="0.91 r13725"
   sodipodi:docname="blue-add-folders-to-archive.svg">
  <metadata
     id="metadata34">
    <rdf:RDF>
      <cc:Work
         rdf:about="">
        <dc:format>image/svg+xml</dc:format>
        <dc:type
           rdf:resource="http://purl.org/dc/dcmitype/StillImage" />
      </cc:Work>
    </rdf:RDF>
  </metadata>
  <defs
     id="defs32" />
  <sodipodi:namedview
     pagecolor="#ffffff"
     bordercolor="#666666"
     borderopacity="1"
     objecttolerance="10"
     gridtolerance="10"
     guidetolerance="10"
     inkscape:pageopacity="0"
     inkscape:pageshadow="2"
     inkscape:window-width="1920"
     inkscape:window-height="1056"
     id="namedview30"
     showgrid="false"
     inkscape:zoom="14.75"
     inkscape:cx="8"
     inkscape:cy="8"
     inkscape:window-x="0"
     inkscape:window-y="24"
     inkscape:window-maximized="1"
     inkscape:current-layer="svg2" />
  <path
     d="m 2.5,6.9980144 5.03,0 c 0.45,0 0.975,0.5 0.975,1 l 0,2 c 0,0.5539996 -0.449,0.9999996 -0.975,0.9999996 l -5.03,0 c -0.526,0 -1,-0.446 -1,-0.9999996 l 0,-3 z"
     style="fill:#ec407a;fill-opacity:1;stroke:none"
     id="path4174"
     inkscape:connector-curvature="0" />
  <path
     d="m 1.5,7.9980144 0,1.5 7,0 0,-1 c 0,-0.176 -0.069,-0.346 -0.172,-0.5 l -6.828,0 z"
     style="opacity:0.02999998;fill:#000000;fill-opacity:1;stroke:none"
     id="path4176"
     inkscape:connector-curvature="0" />
  <rect
     rx="0.5"
     y="8.4980001"
     x="1"
     height="5.5"
     width="8"
     style="fill:#f06292;fill-opacity:1;stroke:none"
     id="rect4178"
     ry="0.5" />
  <path
     d="m 1.5,8.4980144 c -0.277,0 -0.5,0.223 -0.5,0.5 l 8,0 c 0,-0.277 -0.223,-0.5 -0.5,-0.5 l -7,0 z"
     style="opacity:0.1;fill:#ffffff;fill-opacity:1;stroke:none"
     id="path4180"
     inkscape:connector-curvature="0" />
  <path
     d="m 1.5,7.4980144 c 0,-1 0,-1.5 0.909,-1.5 l 1.182,0 c 0.909,0 0.909,0.5 0.909,1.5 z"
     style="fill:#ec407a;fill-opacity:1;stroke:none"
     id="path4182"
     inkscape:connector-curvature="0" />
  <path
     d="m 4.5,6.9980144 0,0.5 1,0 2.031,0 c 0.45,0 0.969,0.5 0.969,1 l 0,-0.5 c 0,-0.5 -0.519,-1 -0.969,-1 l -2.031,0 z"
     style="opacity:0.05;fill:#000000;fill-opacity:1;stroke:none"
     id="path4184"
     inkscape:connector-curvature="0" />
  <path
     d="m 2.406,5.9980144 c -0.909,0 -0.906,0.5 -0.906,1.5 l 0.016,0 c 0.027,-0.655 0.155,-1 0.891,-1 l 1.188,0 c 0.736,0 0.864,0.345 0.891,1 l 0.016,0 c 0,-1 0.003,-1.5 -0.906,-1.5 l -1.188,0 z"
     style="opacity:0.05;fill:#000000;fill-opacity:1;stroke:none"
     id="path4186"
     inkscape:connector-curvature="0" />
  <g
     id="g6"
     style="opacity:0.5;fill:#ffffff;fill-opacity:1"
     transform="translate(0,-1032.3622)">
    <rect
       id="rect8"
       style="fill:#ffffff;fill-opacity:1;stroke:none"
       width="8"
       height="5.5"
       x="1"
       y="1040.86"
       rx="0.5" />
    <path
       inkscape:connector-curvature="0"
       id="path10"
       style="fill:#ffffff;fill-opacity:1;stroke:none"
       d="m 2.5,1039.36 5.03,0 c 0.45,0 0.975,0.5 0.975,1 l 0,2 c 0,0.554 -0.449,1 -0.975,1 l -5.03,0 c -0.526,0 -1,-0.446 -1,-1 l 0,-3 z" />
    <path
       inkscape:connector-curvature="0"
       id="path12"
       style="fill:#ffffff;fill-opacity:1;stroke:none"
       d="m 1.5,1039.86 c 0,-1 0,-1.5 0.909,-1.5 l 1.182,0 c 0.909,0 0.909,0.5 0.909,1.5 z" />
  </g>
  <path
     inkscape:connector-curvature="0"
     id="path14"
     style="fill:#ec407a;fill-opacity:1;stroke:none"
     d="m 7.5,2.9978 5.03,0 c 0.45,0 0.975,0.5 0.975,1 l 0,2 c 0,0.554 -0.449,1 -0.975,1 l -5.03,0 c -0.526,0 -1,-0.446 -1,-1 l 0,-3 z" />
  <path
     inkscape:connector-curvature="0"
     id="path16"
     style="opacity:0.02999998;fill:#000000;fill-opacity:1;stroke:none"
     d="m 6.5,3.9978 0,1.5 7,0 0,-1 c 0,-0.176 -0.069,-0.346 -0.172,-0.5 l -6.828,0 z" />
  <rect
     id="rect18"
     style="fill:#f06292;fill-opacity:1;stroke:none"
     width="8"
     height="5.5"
     x="6"
     y="4.4977856"
     rx="0.5" />
  <path
     inkscape:connector-curvature="0"
     id="path20"
     style="opacity:0.1;fill:#ffffff;fill-opacity:1;stroke:none"
     d="m 6.5,4.4978 c -0.277,0 -0.5,0.223 -0.5,0.5 l 8,0 c 0,-0.277 -0.223,-0.5 -0.5,-0.5 l -7,0 z" />
  <path
     inkscape:connector-curvature="0"
     id="path22"
     style="fill:#ec407a;fill-opacity:1;stroke:none"
     d="m 6.5,3.4978 c 0,-1 0,-1.5 0.909,-1.5 l 1.182,0 c 0.909,0 0.909,0.5 0.909,1.5 z" />
  <path
     inkscape:connector-curvature="0"
     id="path24"
     style="opacity:0.05;fill:#000000;fill-opacity:1;stroke:none"
     d="m 9.5,2.9978 0,0.5 1,0 2.031,0 c 0.45,0 0.969,0.5 0.969,1 l 0,-0.5 c 0,-0.5 -0.519,-1 -0.969,-1 l -2.031,0 z" />
  <path
     inkscape:connector-curvature="0"
     id="path26"
     style="opacity:0.05;fill:#000000;fill-opacity:1;stroke:none"
     d="m 7.406,1.9978 c -0.909,0 -0.906,0.5 -0.906,1.5 l 0.016,0 c 0.027,-0.655 0.155,-1 0.891,-1 l 1.188,0 c 0.736,0 0.864,0.345 0.891,1 l 0.016,0 c 0,-1 0.003,-1.5 -0.906,-1.5 l -1.188,0 z" />
  <path
     inkscape:connector-curvature="0"
     id="path28"
     style="fill:#859900"
     d="m 14,8.9978 -3,0 0,-3 -2,0 0,3 -3,0 0,2 3,0 0,3 2,0 0,-3 3,0 z" />
</svg>
