<!-- Created with Inkscape (http://www.inkscape.org/) -->
<svg xmlns="http://www.w3.org/2000/svg" viewBox="0 0 96 96">
 <path d="m 10.376 16 c -1.353 0.288 -2.405 1.617 -2.375 3 l 0 56 c 0 1.571 1.429 3 3 3 l 39 0 0 -16 14 0 0 -14 16 0 0 14 8 0 0 -36.937 c 0 -1.571 -1.429 -3 -3 -3 l -29 0 0 -3.062 c 0 -1.571 -1.429 -3 -3 -3 l -42 0 c -0.208 -0.022 -0.417 -0.022 -0.625 0 z" style="visibility:visible;fill:#7e57c2;fill-opacity:1;stroke:none;display:inline;color:#000"/>
 <path d="m 68 52 0 14 -14 0 0 8 14 0 0 14 8 0 0 -14 14 0 0 -8 -14 0 0 -14 -8 0 z" style="fill:#859900;fill-opacity:1;stroke:none;fill-rule:evenodd"/>
</svg>
