<svg xmlns="http://www.w3.org/2000/svg" viewBox="0 0 96 96">
 <path d="m 10.376 16 c -1.353 0.288 -2.405 1.617 -2.375 3 l 0 56 c 0 1.571 1.429 3 3 3 l 73.999 0 c 1.571 0 3 -1.429 3 -3 l 0 -49.937 c 0 -1.571 -1.429 -3 -3 -3 l -29 0 0 -3.062 c 0 -1.571 -1.429 -3 -3 -3 l -42 0 c -0.208 -0.022 -0.417 -0.022 -0.625 0 z" style="visibility:visible;fill:#ffca28;opacity:0.4;fill-opacity:1;stroke:none;display:inline;color:#000"/>
 <path d="m 16 12 63.999 0 0 38 -63.999 0 z" style="fill:#eae7d1;fill-opacity:1"/>
 <path d="m 24 42 48 0 0 2 -48 0 z" style="fill:#7a7a68;fill-opacity:1"/>
 <path d="m 12 40 c -4 0 -4 4 -4 4 l 0 3.187 0 27.812 a 3 3 0 0 0 3 3 l 73.999 0 a 3 3 0 0 0 3 -3 l 0 -21 0 -4 c 0 -4 -4 -4 -4 -4 l -2 0 -4 0 -6 0 -16 0 0 -2 c 0 -4 -4 -4 -4 -4 l -36 0 -2 0 -2 0 z" style="visibility:visible;fill:#ffca28;fill-opacity:1;stroke:none;display:inline;color:#000"/>
 <path d="m 24 24 48 0 0 2 -48 0 z" style="fill:#7a7a68;fill-opacity:1"/>
 <path d="m 24 18 48 0 0 2 -48 0 z" style="fill:#7a7a68;fill-opacity:1"/>
 <path d="m 24 30 48 0 0 2 -48 0 z" style="fill:#7a7a68;fill-opacity:1"/>
 <path d="m 24 36 48 0 0 2 -48 0 z" style="fill:#7a7a68;fill-opacity:1"/>
 <path d="m 87.05 68.68 c 0.141 6.992 -3.547 13.516 -9.648 17.05 -6.094 3.539 -13.648 3.539 -19.75 0 -6.102 -3.539 -9.789 -10.06 -9.641 -17.05 -0.148 -7 3.539 -13.523 9.641 -17.06 6.102 -3.539 13.656 -3.539 19.75 0 6.102 3.539 9.789 10.06 9.648 17.06 z" style="fill:#859900;fill-rule:evenodd"/>
 <path d="m 78.2 56.28 c -0.414 0.148 -0.766 0.43 -1 0.797 l -10.641 10.398 -6.641 -6.398 c -0.266 -0.883 -1.102 -1.477 -2.031 -1.43 -0.922 0.055 -1.687 0.734 -1.859 1.641 -0.164 0.914 0.32 1.82 1.172 2.187 l 8 8 c 0.766 0.719 1.953 0.719 2.719 0 l 12 -12 c 0.469 -0.617 0.531 -1.461 0.164 -2.148 -0.367 -0.687 -1.109 -1.094 -1.883 -1.047 z" style="fill:#fff"/>
</svg>
