<svg xmlns="http://www.w3.org/2000/svg" viewBox="0 0 96 96">
 <path d="m 2.375 32 c -1.353 0.288 -2.405 1.617 -2.375 3 l 0 54 c 0 1.571 1.429 3 3 3 l 53 0 0 -12 -16 0 0 -24 16 0 0 -16 19.75 0 c -0.462 -1.091 -1.552 -1.937 -2.75 -1.937 l -29 0 0 -3.062 c 0 -1.571 -1.429 -3 -3 -3 l -38 0 c -0.208 -0.022 -0.417 -0.022 -0.625 0 z" style="visibility:visible;fill:#ffca28;opacity:0.4;fill-opacity:1;stroke:none;display:inline;color:#000;fill-rule:nonzero"/>
 <path d="m 22.375 0.001 c -1.353 0.288 -2.405 1.617 -2.375 3 l 0 54 c 0 1.571 1.429 3 3 3 l 17 0 0 -4 16 0 0 -16 24 0 0 16 16 0 0 -46.937 c 0 -1.571 -1.429 -3 -3 -3 l -29 0 0 -3.062 c 0 -1.571 -1.429 -3 -3 -3 l -38 0 c -0.208 -0.022 -0.417 -0.022 -0.625 0 z" style="visibility:visible;fill:#ffca28;fill-opacity:1;stroke:none;display:inline;color:#000;fill-rule:nonzero"/>
 <path d="m 92 60 -16 0 0 -16 -16 0 0 16 -16 0 0 16 16 0 0 16 16 0 0 -16 16 0 z" style="fill:#859900"/>
</svg>
