<?xml version="1.0" encoding="UTF-8" standalone="no"?>
<!-- Created with Inkscape (http://www.inkscape.org/) -->

<svg
   xmlns:dc="http://purl.org/dc/elements/1.1/"
   xmlns:cc="http://creativecommons.org/ns#"
   xmlns:rdf="http://www.w3.org/1999/02/22-rdf-syntax-ns#"
   xmlns:svg="http://www.w3.org/2000/svg"
   xmlns="http://www.w3.org/2000/svg"
   xmlns:xlink="http://www.w3.org/1999/xlink"
   xmlns:sodipodi="http://sodipodi.sourceforge.net/DTD/sodipodi-0.dtd"
   xmlns:inkscape="http://www.inkscape.org/namespaces/inkscape"
   width="24"
   height="24"
   id="svg2"
   version="1.1"
   inkscape:version="0.48.5 r10040"
   sodipodi:docname="network.svg"
   inkscape:export-filename="/media/Data/Main/Visuals/Icons/Numix/Desktop/repos/numix-wiki/Gjorgi/Numix-folders/48/New/folder-144.png"
   inkscape:export-xdpi="270"
   inkscape:export-ydpi="270">
  <defs
     id="defs4">
    <radialGradient
       inkscape:collect="always"
       xlink:href="#linearGradient3760"
       id="radialGradient3766"
       cx="11"
       cy="19"
       fx="11"
       fy="19"
       r="11"
       gradientTransform="matrix(1,0,0,0.09090909,0,17.272727)"
       gradientUnits="userSpaceOnUse" />
    <linearGradient
       inkscape:collect="always"
       id="linearGradient3760">
      <stop
         style="stop-color:#000000;stop-opacity:1;"
         offset="0"
         id="stop3762" />
      <stop
         style="stop-color:#000000;stop-opacity:0;"
         offset="1"
         id="stop3764" />
    </linearGradient>
    <radialGradient
       r="11"
       fy="19"
       fx="11"
       cy="19"
       cx="11"
       gradientTransform="matrix(1,0,0,0.09090909,0,17.272727)"
       gradientUnits="userSpaceOnUse"
       id="radialGradient3783"
       xlink:href="#linearGradient3760"
       inkscape:collect="always" />
  </defs>
  <sodipodi:namedview
     id="base"
     pagecolor="#ffffff"
     bordercolor="#666666"
     borderopacity="1.0"
     inkscape:pageopacity="0.0"
     inkscape:pageshadow="2"
     inkscape:zoom="22.603171"
     inkscape:cx="11.981258"
     inkscape:cy="11.334253"
     inkscape:document-units="px"
     inkscape:current-layer="layer1"
     showgrid="true"
     inkscape:window-width="1280"
     inkscape:window-height="998"
     inkscape:window-x="0"
     inkscape:window-y="0"
     inkscape:window-maximized="1"
     showguides="true"
     inkscape:guide-bbox="true">
    <inkscape:grid
       type="xygrid"
       id="grid2985"
       empspacing="5"
       visible="true"
       enabled="true"
       snapvisiblegridlinesonly="true" />
  </sodipodi:namedview>
  <metadata
     id="metadata7">
    <rdf:RDF>
      <cc:Work
         rdf:about="">
        <dc:format>image/svg+xml</dc:format>
        <dc:type
           rdf:resource="http://purl.org/dc/dcmitype/StillImage" />
        <dc:title />
      </cc:Work>
    </rdf:RDF>
  </metadata>
  <g
     inkscape:label="Layer 1"
     inkscape:groupmode="layer"
     id="layer1"
     transform="translate(0,-1028.3622)">
    <path
       style="font-size:medium;font-style:normal;font-variant:normal;font-weight:normal;font-stretch:normal;text-indent:0;text-align:start;text-decoration:none;line-height:normal;letter-spacing:normal;word-spacing:normal;text-transform:none;direction:ltr;block-progression:tb;writing-mode:lr-tb;text-anchor:start;baseline-shift:baseline;color:#000000;fill:replacecolour1;fill-opacity:1;fill-rule:nonzero;stroke:none;stroke-width:1.52408636;marker:none;visibility:visible;display:inline;overflow:visible;enable-background:accumulate;font-family:Sans;-inkscape-font-specification:Sans"
       d="m 2.6250001,1032.3622 c -0.3474302,0.063 -0.6251471,0.3968 -0.625,0.75 l 0,14.5 c 0.00617,0.391 0.3590206,0.7438 0.75,0.75 l 18.4999999,0 c 0.390979,-0.01 0.74383,-0.359 0.75,-0.75 l 0,-12.4375 c -0.0062,-0.391 -0.359021,-0.8063 -0.75,-0.8125 l -7.25,0 0,-1.25 c -0.0062,-0.391 -0.359021,-0.7438 -0.75,-0.75 l -10.6249999,0 z m 8.7499999,4 0.625,0 c 2.757494,0 5,2.2425 5,5 0,2.7573 -2.242689,5 -5.625,5 -2.1326689,0 -4.3749999,-2.2427 -4.3749999,-5 0,-2.7575 2.2423279,-5 4.3749999,-5 z m 0.0625,0.7188 c -0.194116,0.026 -0.377315,0.075 -0.5625,0.125 l -0.59375,0.9375 c 0.04991,0.01 0.123047,0.026 0.1875,0.062 0.3125,0.1786 0.441963,0.353 0.53125,0.375 0.08929,0.022 0.47768,-0.54 0.1875,0.062 -0.290179,0.6028 -0.415177,0.8035 -0.75,0.9375 -0.02093,0.01 -0.04182,-0.01 -0.0625,0 -0.08555,0.1026 -0.199066,0.215 -0.34375,0.3437 -0.3156717,0.2815 -0.4687499,0.3125 -0.4687499,0.5938 0,0.2812 0.00222,0.5 -0.21875,0.875 -0.2209697,0.375 -0.375953,0.3749 -0.28125,0.6562 0.094704,0.2813 0.1578369,0.7813 0,0.5625 -0.157837,-0.2186 -0.09248,-0.6559 -0.21875,-0.4062 -0.1104856,0.2188 -0.386388,0.3065 -0.40625,0.5312 -0.00281,0.03 -0.00793,0.055 0,0.094 0.00158,0.01 0.02912,0.021 0.03125,0.031 0.081024,0.2705 0.53125,-0.1197 0.53125,0.094 0,0.2186 -0.407204,0.2186 -0.3125,0.4062 0.094702,0.1874 0.4655782,-0.3742 0.78125,-0.2812 0.3156697,0.094 0.1221443,0.1561 0.40625,0.2812 0.2841039,0.1251 0.4374999,0.25 0.4374999,0.4375 0,0.1876 0.87595,0.094 0.78125,0.4063 -0.0947,0.3125 -0.184644,0.25 -0.46875,0.5937 -0.15651,0.1894 -0.283196,0.3153 -0.375,0.4063 0.128696,0.094 0.161831,0.1437 0.3125,0.094 0.200889,-0.067 -0.0625,-0.161 0.09375,-0.25 0.03906,-0.023 0.07073,-0.043 0.09375,-0.062 0.02302,-0.019 0.04632,-0.049 0.09375,-0.062 0.09487,-0.029 0.283481,-0.062 0.71875,-0.062 0.870535,0 1.28125,0.062 1.28125,0.062 0,0 0.299109,-3e-4 0.03125,0.1563 -0.195741,0.114 -0.6063,0.321 -0.65625,0.375 0.01961,0 0.07478,-0.017 0.125,-0.031 0.401786,-0.1116 0.9375,-0.205 1.09375,-0.25 0.06621,-0.019 0.432603,-0.1826 0.71875,-0.3125 0.01167,-0.027 0.01949,-0.067 0.03125,-0.094 l -0.03125,0 c -0.220971,-0.095 -0.40689,-0.5301 -0.34375,-0.6563 0.06313,-0.1263 0.217163,-0.2155 0.375,-0.5312 0.157837,-0.3158 0.129441,-0.088 -0.3125,-0.6563 -0.441942,-0.5683 -0.654029,0.033 -0.875,-0.1562 -0.220971,-0.1895 -0.685597,-0.3716 -0.875,-0.7188 -0.18941,-0.3475 -0.09375,-0.09 -0.09375,-0.4687 0,-0.3792 -0.0322,-0.09 0.0625,-0.4063 0.0947,-0.3154 0.340576,-0.3415 0.65625,-0.5625 0.0434,-0.032 0.08087,-0.072 0.125,-0.094 -0.07073,-0.067 -0.146582,-0.2091 -0.34375,-0.4063 0,0 0.185913,-0.4057 0.34375,-0.4687 0.153194,-0.06 0.230078,0 0.4375,0.062 0.0088,-0.034 0.02165,-0.048 0.03125,-0.125 0.03157,-0.2527 -0.09375,-0.1236 -0.09375,-0.2813 0,-0.158 0.06028,5e-4 0.28125,-0.062 0.220973,-0.063 0.216528,-0.5015 0.4375,-0.4375 0.22097,0.063 0.216846,-0.091 0.40625,-0.375 0.189404,-0.2842 0.0025,-0.1237 -0.25,-0.25 -0.252537,-0.1263 -0.03061,0.1855 -0.09375,0.4063 -0.06313,0.221 -0.247779,0.098 -0.46875,-0.375 -0.220971,-0.4735 -0.03252,-0.2776 0.09375,-0.6563 0.0221,-0.067 0.0309,-0.1172 0.0625,-0.1562 -0.410527,-0.1786 -0.846453,-0.2695 -1.3125,-0.3125 -0.0028,0.022 0.0025,0.01 0,0.031 -0.04464,0.4241 -0.25446,0.1425 -0.34375,0.1875 -0.08929,0.045 -0.6875,0.8703 -0.6875,0.7813 0,-0.089 0.09375,-0.2188 0.09375,-0.2188 0,0 0.03977,-0.377 -0.03125,-0.7812 z m 1.71875,1.6875 c 0.03945,-0.016 0.06169,-0.01 0.09375,0 0.09618,0.015 0.1714,0.094 0.21875,0.1875 0.02525,0.051 -0.002,0.082 -0.03125,0.094 0,0 0.0625,0.094 0.0625,0.125 0,0.031 -0.100056,0.039 -0.25,0 -0.112453,-0.029 -0.01371,-0.069 0.0625,-0.125 l -0.125,0 c -0.05524,0 -0.08044,-0.021 -0.09375,-0.031 0.0084,0.01 -0.01366,0.015 0,0.031 0.07103,0.087 0.0088,0.039 -0.09375,0.062 -0.10259,0.024 -0.01609,-0.069 0.03125,-0.1562 0,0 0.05076,0.043 0.0625,0.062 0.01972,-0.043 0.0625,-0.1395 0.0625,-0.25 z m 2.46875,0.2812 c -0.153837,0.1255 -0.343434,0.3746 -0.5,0.5313 -0.284105,0.2837 0.154663,0.3117 0.3125,0.3437 0.157836,0.031 0.309326,-0.094 0.625,-0.094 -0.0056,-0.015 -0.02545,-0.016 -0.03125,-0.031 -0.04271,0 -0.07325,0.031 -0.125,0.031 -0.185102,0 -0.07471,-0.1854 -0.03125,-0.4375 -0.06209,-0.1217 -0.176808,-0.2291 -0.25,-0.3438 z m -2.0625,0.5625 c -0.04695,0.025 -0.127322,0.091 -0.1875,0.125 0.08545,0.1246 -0.174393,0.47 -0.3125,0.7188 0.270713,-0.045 0.680677,0.045 1.625,0.2812 0,0 0.34311,-0.095 0.40625,0.031 0.02243,0.044 0.136778,0.053 0.28125,0.062 0.381584,-0.1504 0.1875,-0.2583 0.1875,-0.5625 0,-0.3157 -0.46939,0.033 -0.40625,-0.125 0.06314,-0.1578 -0.06028,-0.154 -0.28125,-0.375 -0.220971,-0.221 -0.185914,0.5639 -0.34375,0.4062 -0.15784,-0.1563 -0.15561,-0.03 -0.21875,-0.1562 -0.06313,-0.1263 -0.28125,-0.3438 -0.28125,-0.3438 0,0 0.15657,0.1842 0.125,0.5 -0.03157,0.3153 -0.46875,0 -0.46875,0 0,0 0.06123,-0.032 0.1875,-0.062 0.126269,-0.032 -0.0303,-0.2164 -0.125,-0.4375 -0.02366,-0.054 -0.03341,-0.053 -0.0625,-0.062 l -0.03125,0 c -0.03327,-0.01 -0.0468,-0.025 -0.09375,0 z m 2.75,1.5625 c -0.03508,0.026 -0.08159,0.046 -0.125,0.062 -0.347241,0.1263 -0.59375,0.4063 -0.59375,0.4063 0,0 0.403493,0 0.6875,0.25 0.0206,-0.172 0.03125,-0.3536 0.03125,-0.5313 0,-0.064 0.0028,-0.1235 0,-0.1875 z"
       id="path3912"
       inkscape:connector-curvature="0" />
  </g>
</svg>
