<?xml version="1.0" encoding="UTF-8" standalone="no"?>
<!-- Created with Inkscape (http://www.inkscape.org/) -->

<svg
   xmlns:dc="http://purl.org/dc/elements/1.1/"
   xmlns:cc="http://creativecommons.org/ns#"
   xmlns:rdf="http://www.w3.org/1999/02/22-rdf-syntax-ns#"
   xmlns:svg="http://www.w3.org/2000/svg"
   xmlns="http://www.w3.org/2000/svg"
   xmlns:sodipodi="http://sodipodi.sourceforge.net/DTD/sodipodi-0.dtd"
   xmlns:inkscape="http://www.inkscape.org/namespaces/inkscape"
   width="24"
   height="24"
   id="svg2"
   version="1.1"
   inkscape:version="0.91 r"
   sodipodi:docname="purple-folder-art.svg"
   inkscape:export-filename="/media/Data/Main/Visuals/Icons/Numix/Desktop/repos/numix-wiki/Gjorgi/Numix-folders/48/New/folder-144.png"
   inkscape:export-xdpi="270"
   inkscape:export-ydpi="270">
  <defs
     id="defs4" />
  <sodipodi:namedview
     id="base"
     pagecolor="#ffffff"
     bordercolor="#666666"
     borderopacity="1.0"
     inkscape:pageopacity="0.0"
     inkscape:pageshadow="2"
     inkscape:zoom="22.603171"
     inkscape:cx="11.724161"
     inkscape:cy="11.619008"
     inkscape:document-units="px"
     inkscape:current-layer="layer1"
     showgrid="true"
     inkscape:window-width="1280"
     inkscape:window-height="998"
     inkscape:window-x="0"
     inkscape:window-y="0"
     inkscape:window-maximized="1"
     showguides="true"
     inkscape:guide-bbox="true">
    <inkscape:grid
       type="xygrid"
       id="grid2985"
       empspacing="5"
       visible="true"
       enabled="true"
       snapvisiblegridlinesonly="true" />
  </sodipodi:namedview>
  <metadata
     id="metadata7">
    <rdf:RDF>
      <cc:Work
         rdf:about="">
        <dc:format>image/svg+xml</dc:format>
        <dc:type
           rdf:resource="http://purl.org/dc/dcmitype/StillImage" />
        <dc:title />
      </cc:Work>
    </rdf:RDF>
  </metadata>
  <g
     inkscape:label="Layer 1"
     inkscape:groupmode="layer"
     id="layer1"
     transform="translate(0,-1028.3622)">
    <path
       style="font-size:medium;font-style:normal;font-variant:normal;font-weight:normal;font-stretch:normal;text-indent:0;text-align:start;text-decoration:none;line-height:normal;letter-spacing:normal;word-spacing:normal;text-transform:none;direction:ltr;block-progression:tb;writing-mode:lr-tb;text-anchor:start;baseline-shift:baseline;color:#000000;fill:#7e57c2;fill-opacity:1;fill-rule:nonzero;stroke:none;stroke-width:1.52408636;marker:none;visibility:visible;display:inline;overflow:visible;enable-background:accumulate;font-family:Sans;-inkscape-font-specification:Sans"
       d="m 2.6250001,1032.3622 c -0.3474302,0.063 -0.6251471,0.3968 -0.625,0.75 l 0,14.5 c 0.00617,0.391 0.3590206,0.7438 0.75,0.75 l 18.4999999,0 c 0.390979,-0.01 0.74383,-0.359 0.75,-0.75 l 0,-12.4375 c -0.0062,-0.391 -0.359021,-0.8063 -0.75,-0.8125 l -7.25,0 0,-1.25 c -0.0062,-0.391 -0.359021,-0.7438 -0.75,-0.75 l -10.6249999,0 z m 8.7499999,5 c 3.75,0 5.625,2.2858 5.625,4 0,1.1428 -0.625,4 -5,4 -1.25,0 -1.875,-0.5759 -1.875,-1.7187 0,-1.143 -0.6249998,-1.125 -1.2499999,-1.125 -0.625,0 -1.875,0 -1.875,-1.7188 0,-1.7142 1.8788356,-3.3815 4.3749999,-3.4375 z m -0.875,1 c -0.276142,0 -0.5,0.2239 -0.5,0.5 0,0.2761 0.223858,0.5 0.5,0.5 0.276142,0 0.5,-0.2239 0.5,-0.5 0,-0.2761 -0.223858,-0.5 -0.5,-0.5 z m 2,0 c -0.276142,0 -0.5,0.2239 -0.5,0.5 0,0.2761 0.223858,0.5 0.5,0.5 0.276142,0 0.5,-0.2239 0.5,-0.5 0,-0.2761 -0.223858,-0.5 -0.5,-0.5 z m -3.9999999,1 c -0.2761424,0 -0.5,0.2239 -0.5,0.5 0,0.2761 0.2238576,0.5 0.5,0.5 0.2761424,0 0.5,-0.2239 0.5,-0.5 0,-0.2761 -0.2238576,-0.5 -0.5,-0.5 z m 5.9999999,0 c -0.276142,0 -0.5,0.2239 -0.5,0.5 0,0.2761 0.223858,0.5 0.5,0.5 0.276142,0 0.5,-0.2239 0.5,-0.5 0,-0.2761 -0.223858,-0.5 -0.5,-0.5 z m -2.5,3 c -0.552285,0 -1,0.4477 -1,1 0,0.5523 0.447715,1 1,1 0.552285,0 1,-0.4477 1,-1 0,-0.5523 -0.447715,-1 -1,-1 z"
       id="path3912"
       inkscape:connector-curvature="0" />
  </g>
</svg>
