<svg xmlns="http://www.w3.org/2000/svg" viewBox="0 0 256 256">
 <path d="m 36 32 c -5.859 0 -12 6.05 -12 12 l 0 4 -12 0 c -5.883 0 -12 5.984 -12 12 l 0 152 c 0 8 4 12 12 12 l 232 0 c 6.273 0 12 -5.43 12 -12 l 0 -132 c 0 -6.02 -5.82 -12 -12 -12 l -12 0 0 -24 c 0 -5.844 -5.813 -12 -12 -12 z m 0 0" style="fill:#8d6e63;fill-opacity:1;stroke:none;fill-rule:nonzero"/>
 <path d="m 36 32 c -5.859 0 -12 6.05 -12 12 l 0 4 -12 0 c -5.883 0 -12 5.984 -12 12 l 0 152 c 0 8 4 12 12 12 l 232 0 c 6.273 0 12 -5.43 12 -12 l 0 -132 c 0 -6.02 -5.82 -12 -12 -12 l -12 0 0 -24 c 0 -5.844 -5.813 -12 -12 -12 z m -24 24 136 0 c 2.359 0 4 2.063 4 4 l 0 16 92 0 c 2.023 0 4 2.031 4 4 l 0 132 c 0 2.086 -1.914 4 -4 4 l -232 0 c -1.859 0 -4 -1.586 -4 -4 l 0 -152 c 0 -1.969 2.063 -4 4 -4 z m 0 0" style="fill:#000;fill-opacity:0.322;stroke:none;fill-rule:nonzero"/>
 <path d="m 128 96 c -4.43 0 -8 3.57 -8 8 l 0 40 -16 0 c -8 0 -8 0 0 8 l 16 16 c 8 8 8 8 16 0 l 16 -16 c 8 -8 8 -8 0 -8 l -16 0 0 -40 c 0 -4.43 -3.57 -8 -8 -8 z m -48.25 56 c -4.273 0 -7.75 3.57 -7.75 8 l 0 32.375 c 0.016 0.422 0.047 0.852 0.125 1.25 0.016 0.086 -0.016 0.164 0 0.25 0.102 0.438 0.336 0.844 0.5 1.25 0.203 0.5 0.445 0.938 0.75 1.375 0.234 0.344 0.461 0.695 0.75 1 0.039 0.047 0.086 0.078 0.125 0.125 0.039 0.039 0.086 0.086 0.125 0.125 0.313 0.313 0.641 0.625 1 0.875 0.234 0.156 0.5 0.242 0.75 0.375 0.203 0.109 0.414 0.281 0.625 0.375 0.039 0.016 0.086 -0.016 0.125 0 0.43 0.18 0.789 0.398 1.25 0.5 0.078 0.016 0.172 -0.016 0.25 0 0.43 0.078 0.922 0.125 1.375 0.125 0.086 0 0.164 0 0.25 0 l 96 0 c 1.414 0 2.727 -0.391 3.875 -1 0.188 -0.102 0.445 -0.133 0.625 -0.25 0.047 -0.031 0.078 -0.094 0.125 -0.125 0.359 -0.25 0.688 -0.563 1 -0.875 0.023 -0.023 -0.023 -0.102 0 -0.125 0.023 -0.023 0.102 0.023 0.125 0 0.039 -0.039 0.086 -0.086 0.125 -0.125 0.273 -0.297 0.523 -0.531 0.75 -0.875 0.023 -0.031 -0.023 -0.094 0 -0.125 0.305 -0.438 0.547 -0.875 0.75 -1.375 0.164 -0.406 0.398 -0.813 0.5 -1.25 0.016 -0.086 -0.016 -0.164 0 -0.25 0.078 -0.398 0.109 -0.828 0.125 -1.25 l 0 -32.375 c 0 -4.43 -3.477 -8 -7.75 -8 l -0.5 0 c -4.273 0 -7.75 3.57 -7.75 8 l 0 24 -80 0 0 -24 c 0 -4.43 -3.477 -8 -7.75 -8 z m 0 0" style="fill:#000;fill-opacity:0.322;stroke:none;fill-rule:nonzero"/>
</svg>
