<svg xmlns="http://www.w3.org/2000/svg" viewBox="0 0 256 256">
 <g transform="translate(0,-796.3622)">
  <path d="m 36 828.36 c -5.856 0 -12 6.04 -12 12 l 0 4 -12 0 c -5.88 0 -12 5.981 -12 12 l 0 152 c 0 8 4 12 12 12 l 232 0 c 6.27 0 12 -5.433 12 -12 l 0 -132 c 0 -6.02 -5.82 -12 -12 -12 l -12 0 0 -24 c 0 -5.845 -5.813 -12 -12 -12 z" style="fill:#8d6e63;fill-opacity:1;stroke:none"/>
  <path d="m 36 828.36 c -5.856 0 -12 6.04 -12 12 l 0 4 -12 0 c -5.88 0 -12 5.981 -12 12 l 0 152 c 0 8 4 12 12 12 l 232 0 c 6.27 0 12 -5.433 12 -12 l 0 -132 c 0 -6.02 -5.82 -12 -12 -12 l -12 0 0 -24 c 0 -5.845 -5.813 -12 -12 -12 l -184 0 z m -24 24 136 0 c 2.361 0 4 2.059 4 4 l 0 16 92 0 c 2.022 0 4 2.035 4 4 l 0 132 c 0 2.085 -1.915 4 -4 4 l -232 0 c -1.857 0 -4 -1.585 -4 -4 l 0 -152 c 0 -1.97 2.066 -4 4 -4 z" style="fill:#000;fill-opacity:0.322;stroke:none"/>
  <path d="m 122 904.36 c -23.963 0.56 -42 17.358 -42 34.5 0 17.14 12 17 18 17 6 0 12 -0.184 12 11.25 0 11.427 6 17.25 18 17.25 42 0 48 -28.572 48 -40 0 -17.14 -18 -40 -54 -40 z m -12 8 c 3.314 0 6 2.686 6 6 0 3.314 -2.686 6 -6 6 -3.314 0 -6 -2.686 -6 -6 0 -3.314 2.686 -6 6 -6 z m 24 0 c 3.314 0 6 2.686 6 6 0 3.314 -2.686 6 -6 6 -3.314 0 -6 -2.686 -6 -6 0 -3.314 2.686 -6 6 -6 z m 24 16 c 3.314 0 6 2.686 6 6 0 3.314 -2.686 6 -6 6 -3.314 0 -6 -2.686 -6 -6 0 -3.314 2.686 -6 6 -6 z m -64 4 c 3.314 0 6 2.686 6 6 0 3.314 -2.686 6 -6 6 -3.314 0 -6 -2.686 -6 -6 0 -3.314 2.686 -6 6 -6 z m 36 24 c 5.523 0 10 4.477 10 10 0 5.523 -4.477 10 -10 10 -5.523 0 -10 -4.477 -10 -10 0 -5.523 4.477 -10 10 -10 z" style="fill:#000;fill-opacity:0.322;stroke:none"/>
 </g>
</svg>
