<?xml version="1.0" encoding="UTF-8" standalone="no"?>
<!-- Created with Inkscape (http://www.inkscape.org/) -->

<svg
   xmlns:dc="http://purl.org/dc/elements/1.1/"
   xmlns:cc="http://creativecommons.org/ns#"
   xmlns:rdf="http://www.w3.org/1999/02/22-rdf-syntax-ns#"
   xmlns:svg="http://www.w3.org/2000/svg"
   xmlns="http://www.w3.org/2000/svg"
   xmlns:sodipodi="http://sodipodi.sourceforge.net/DTD/sodipodi-0.dtd"
   xmlns:inkscape="http://www.inkscape.org/namespaces/inkscape"
   width="256"
   height="256"
   id="svg2"
   version="1.1"
   inkscape:version="0.91 r"
   sodipodi:docname="default-folder-rss.svg"
   inkscape:export-filename="/media/Data/Main/Visuals/Icons/Numix/Desktop/repos/numix-wiki/Gjorgi/Numix-folders/48/New/folder-144.png"
   inkscape:export-xdpi="270"
   inkscape:export-ydpi="270">
  <defs
     id="defs4" />
  <sodipodi:namedview
     id="base"
     pagecolor="#ffffff"
     bordercolor="#666666"
     borderopacity="1.0"
     inkscape:pageopacity="0.0"
     inkscape:pageshadow="2"
     inkscape:zoom="2.6377682"
     inkscape:cx="130.8943"
     inkscape:cy="133.74016"
     inkscape:document-units="px"
     inkscape:current-layer="layer1"
     showgrid="true"
     inkscape:window-width="1280"
     inkscape:window-height="998"
     inkscape:window-x="0"
     inkscape:window-y="0"
     inkscape:window-maximized="1"
     showguides="true"
     inkscape:guide-bbox="true">
    <inkscape:grid
       type="xygrid"
       id="grid2985"
       empspacing="5"
       visible="true"
       enabled="true"
       snapvisiblegridlinesonly="true" />
  </sodipodi:namedview>
  <metadata
     id="metadata7">
    <rdf:RDF>
      <cc:Work
         rdf:about="">
        <dc:format>image/svg+xml</dc:format>
        <dc:type
           rdf:resource="http://purl.org/dc/dcmitype/StillImage" />
        <dc:title />
      </cc:Work>
    </rdf:RDF>
  </metadata>
  <g
     inkscape:label="Layer 1"
     inkscape:groupmode="layer"
     id="layer1"
     transform="translate(0,-796.3622)">
    <path
       style="fill:#e9b080;fill-opacity:1;stroke:none"
       d="m 35.999998,828.3622 c -5.855668,0 -12,6.0448 -12,12 l 0,4 -11.999998,0 c -5.880396,0 -12,5.9812 -12,12 l 0,152 c 0,8 4,12 12,12 l 232,0 c 6.27046,0 12,-5.4332 12,-12 l 0,-132 c 0,-6.0196 -5.82016,-12 -12,-12 l -12,0 0,-24 c 0,-5.8448 -5.81288,-12 -12,-12 z"
       id="path6"
       inkscape:connector-curvature="0"
       sodipodi:nodetypes="ssccssssscccsss" />
    <path
       inkscape:connector-curvature="0"
       style="fill:#000000;fill-opacity:0.32156863;stroke:none"
       d="m 35.999998,828.3622 c -5.855668,0 -12,6.0448 -12,12 l 0,4 -11.999998,0 c -5.880396,0 -12,5.9812 -12,12 l 0,152 c 0,8 4,12 12,12 l 232,0 c 6.27046,0 12,-5.4332 12,-12 l 0,-132 c 0,-6.0196 -5.82016,-12 -12,-12 l -12,0 0,-24 c 0,-5.8448 -5.81288,-12 -12,-12 l -184.000002,0 z m -23.999998,24 136,0 c 2.3607,0 4,2.0592 4,4 l 0,16 92,0 c 2.0222,0 4,2.0348 4,4 l 0,132 c 0,2.0852 -1.91506,4 -4,4 l -232,0 c -1.857184,0 -4,-1.5852 -4,-4 l 0,-152 c 0,-1.9696 2.066112,-4 4,-4 z"
       id="path3778" />
    <path
       style="fill:#000000;fill-opacity:0.32156863;fill-rule:nonzero;stroke:none"
       d="m 80,896.3622 0,20 c 40.5866,4.4816 76.16071,35.66 76,76 l 20,0 c 0,-57.6256 -51.75054,-94.176 -96,-96 z m 0,32 0,20 c 21.99461,1.8088 43.75472,18.336 44,44 l 20,0 c -0.95664,-39.1336 -36.67931,-61.2216 -64,-64 z"
       id="path3394"
       inkscape:connector-curvature="0"
       sodipodi:nodetypes="cccccccccc" />
    <path
       transform="matrix(9.3333332,0,0,9.3333332,-13.333333,759.02888)"
       sodipodi:type="arc"
       style="fill:#000000;fill-opacity:0.32156863;fill-rule:evenodd;stroke:none"
       id="path3016"
       sodipodi:cx="11.5"
       sodipodi:cy="23.5"
       sodipodi:rx="1.5"
       sodipodi:ry="1.5"
       d="M 13,23.5 C 13,24.328427 12.328427,25 11.5,25 10.671573,25 10,24.328427 10,23.5 10,22.671573 10.671573,22 11.5,22 c 0.828427,0 1.5,0.671573 1.5,1.5 z" />
  </g>
</svg>
