<?xml version="1.0" encoding="UTF-8" standalone="no"?>
<!-- Created with Inkscape (http://www.inkscape.org/) -->

<svg
   xmlns:dc="http://purl.org/dc/elements/1.1/"
   xmlns:cc="http://creativecommons.org/ns#"
   xmlns:rdf="http://www.w3.org/1999/02/22-rdf-syntax-ns#"
   xmlns:svg="http://www.w3.org/2000/svg"
   xmlns="http://www.w3.org/2000/svg"
   xmlns:sodipodi="http://sodipodi.sourceforge.net/DTD/sodipodi-0.dtd"
   xmlns:inkscape="http://www.inkscape.org/namespaces/inkscape"
   width="256"
   height="256"
   id="svg2"
   version="1.1"
   inkscape:version="0.91 r"
   sodipodi:docname="green-folder-hdd.svg"
   inkscape:export-filename="/media/Data/Main/Visuals/Icons/Numix/Desktop/repos/numix-wiki/Gjorgi/Numix-folders/48/New/folder-144.png"
   inkscape:export-xdpi="270"
   inkscape:export-ydpi="270">
  <defs
     id="defs4" />
  <sodipodi:namedview
     id="base"
     pagecolor="#ffffff"
     bordercolor="#666666"
     borderopacity="1.0"
     inkscape:pageopacity="0.0"
     inkscape:pageshadow="2"
     inkscape:zoom="1.8651838"
     inkscape:cx="183.23426"
     inkscape:cy="115.64985"
     inkscape:document-units="px"
     inkscape:current-layer="layer1"
     showgrid="true"
     inkscape:window-width="1280"
     inkscape:window-height="998"
     inkscape:window-x="0"
     inkscape:window-y="0"
     inkscape:window-maximized="1"
     showguides="true"
     inkscape:guide-bbox="true">
    <inkscape:grid
       type="xygrid"
       id="grid2985"
       empspacing="5"
       visible="true"
       enabled="true"
       snapvisiblegridlinesonly="true" />
  </sodipodi:namedview>
  <metadata
     id="metadata7">
    <rdf:RDF>
      <cc:Work
         rdf:about="">
        <dc:format>image/svg+xml</dc:format>
        <dc:type
           rdf:resource="http://purl.org/dc/dcmitype/StillImage" />
        <dc:title />
      </cc:Work>
    </rdf:RDF>
  </metadata>
  <g
     inkscape:label="Layer 1"
     inkscape:groupmode="layer"
     id="layer1"
     transform="translate(0,-796.3622)">
    <path
       style="fill:#66bb6a;fill-opacity:1;stroke:none"
       d="m 35.999998,828.3622 c -5.855668,0 -12,6.04488 -12,12 l 0,4 -11.999998,0 c -5.880396,0 -12,5.9812 -12,12 l 0,152 c 0,8 4,12 12,12 l 232,0 c 6.27046,0 12,-5.4332 12,-12 l 0,-132 c 0,-6.0196 -5.82016,-12 -12,-12 l -12,0 0,-24 c 0,-5.84464 -5.81288,-12 -12,-12 z"
       id="path6"
       inkscape:connector-curvature="0"
       sodipodi:nodetypes="ssccssssscccsss" />
    <path
       inkscape:connector-curvature="0"
       style="fill:#000000;fill-opacity:0.32156863;stroke:none"
       d="m 35.999998,828.3622 c -5.855668,0 -12,6.04488 -12,12 l 0,4 -11.999998,0 c -5.880396,0 -12,5.9812 -12,12 l 0,152 c 0,8 4,12 12,12 l 232,0 c 6.27046,0 12,-5.4332 12,-12 l 0,-132 c 0,-6.0196 -5.82016,-12 -12,-12 l -12,0 0,-24 c 0,-5.84464 -5.81288,-12 -12,-12 l -184.000002,0 z m -23.999998,24 136,0 c 2.3607,0 4,2.0592 4,4 l 0,16 92,0 c 2.0222,0 4,2.0348 4,4 l 0,132 c 0,2.0852 -1.91506,4 -4,4 l -232,0 c -1.857184,0 -4,-1.5852 -4,-4 l 0,-152 c 0,-1.9696 2.066112,-4 4,-4 z"
       id="path3778" />
    <path
       style="fill:#000000;fill-opacity:0.32156863;stroke:none"
       d="m 96,896.3622 c -5.69828,0 -8,2.6816 -8,8 l 0,80 c 0,5.3184 2.30172,8 8,8 l 61.75,0 c 5.69829,0 10.25,-2.6816 10.25,-8 l 0,-80 c 0,-5.3184 -2.30171,-8 -8,-8 l -64,0 z m 6,8 c 3.31371,0 6,2.6864 6,6 0,3.3136 -2.68629,6 -6,6 -3.313708,0 -6,-2.6864 -6,-6 0,-3.3136 2.686292,-6 6,-6 z m 52,0 c 3.31371,0 6,2.6864 6,6 0,3.3136 -2.68629,6 -6,6 -3.31371,0 -6,-2.6864 -6,-6 0,-3.3136 2.68629,-6 6,-6 z m -26,8 c 8.83655,0 16,7.1632 16,16 0,8.8368 -7.16345,16 -16,16 -8.83655,0 -16,-7.1632 -16,-16 0,-8.8368 7.16345,-16 16,-16 z m -26,28 c 3.31371,0 6,2.6864 6,6 0,3.3136 -2.68629,6 -6,6 -3.313708,0 -6,-2.6864 -6,-6 0,-3.3136 2.686292,-6 6,-6 z m 52,0 c 3.31371,0 6,2.6864 6,6 0,3.3136 -2.68629,6 -6,6 -3.31371,0 -6,-2.6864 -6,-6 0,-3.3136 2.68629,-6 6,-6 z m -54,36 56,0 c 2.216,0 4,1.784 4,4 0,2.216 -1.784,4 -4,4 l -56,0 c -2.216,0 -4,-1.784 -4,-4 0,-2.216 1.784,-4 4,-4 z"
       id="rect3828"
       inkscape:connector-curvature="0" />
    <path
       sodipodi:type="arc"
       style="fill:#000000;fill-opacity:0.32156863;fill-rule:evenodd;stroke:none"
       id="path2995"
       sodipodi:cx="32"
       sodipodi:cy="34"
       sodipodi:rx="2"
       sodipodi:ry="2"
       d="m 34,34 c 0,1.104569 -0.895431,2 -2,2 -1.104569,0 -2,-0.895431 -2,-2 0,-1.104569 0.895431,-2 2,-2 1.104569,0 2,0.895431 2,2 z"
       transform="matrix(4,0,0,4,0,792.3622)" />
  </g>
</svg>
