<svg xmlns="http://www.w3.org/2000/svg" viewBox="0 0 256 256">
 <path d="m 36 32 c -5.859 0 -12 6.05 -12 12 l 0 4 -12 0 c -5.883 0 -12 5.984 -12 12 l 0 152 c 0 8 4 12 12 12 l 232 0 c 6.273 0 12 -5.43 12 -12 l 0 -132 c 0 -6.02 -5.82 -12 -12 -12 l -12 0 0 -24 c 0 -5.844 -5.813 -12 -12 -12 z m 0 0" style="fill:#f57c00;fill-opacity:1;stroke:none;fill-rule:nonzero"/>
 <path d="m 36 32 c -5.859 0 -12 6.05 -12 12 l 0 4 -12 0 c -5.883 0 -12 5.984 -12 12 l 0 152 c 0 8 4 12 12 12 l 232 0 c 6.273 0 12 -5.43 12 -12 l 0 -132 c 0 -6.02 -5.82 -12 -12 -12 l -12 0 0 -24 c 0 -5.844 -5.813 -12 -12 -12 z m -24 24 136 0 c 2.359 0 4 2.063 4 4 l 0 16 92 0 c 2.023 0 4 2.031 4 4 l 0 132 c 0 2.086 -1.914 4 -4 4 l -232 0 c -1.859 0 -4 -1.586 -4 -4 l 0 -152 c 0 -1.969 2.063 -4 4 -4 z m 0 0" style="fill:#000;fill-opacity:0.322;stroke:none;fill-rule:nonzero"/>
 <path d="m 100 96 -28 22.06 28 18.906 -28 25.21 56 37.82 56 -37.82 -28 -25.21 28 -18.906 -28 -22.06 -28 22.06 z m 0 0" style="fill:#000;fill-opacity:0.322;stroke:none;fill-rule:nonzero"/>
</svg>
