<svg xmlns="http://www.w3.org/2000/svg" viewBox="0 0 256 256">
 <g transform="translate(0,-796.3622)">
  <path d="m 36 828.36 c -5.856 0 -12 6.04 -12 12 l 0 4 -12 0 c -5.88 0 -12 5.981 -12 12 l 0 152 c 0 8 4 12 12 12 l 232 0 c 6.27 0 12 -5.433 12 -12 l 0 -132 c 0 -6.02 -5.82 -12 -12 -12 l -12 0 0 -24 c 0 -5.845 -5.813 -12 -12 -12 z" style="fill:#f57c00;fill-opacity:1;stroke:none"/>
  <path d="m 36 828.36 c -5.856 0 -12 6.04 -12 12 l 0 4 -12 0 c -5.88 0 -12 5.981 -12 12 l 0 152 c 0 8 4 12 12 12 l 232 0 c 6.27 0 12 -5.433 12 -12 l 0 -132 c 0 -6.02 -5.82 -12 -12 -12 l -12 0 0 -24 c 0 -5.845 -5.813 -12 -12 -12 l -184 0 z m -24 24 136 0 c 2.361 0 4 2.059 4 4 l 0 16 92 0 c 2.022 0 4 2.035 4 4 l 0 132 c 0 2.085 -1.915 4 -4 4 l -232 0 c -1.857 0 -4 -1.585 -4 -4 l 0 -152 c 0 -1.97 2.066 -4 4 -4 z" style="fill:#000;fill-opacity:0.322;stroke:none"/>
  <path d="m 116 904.36 a 28 28 0 0 0 -28 28 28 28 0 0 0 2.625 12 l -2.625 0 0 0.376 a 20 20 0 0 0 -16 19.625 20 20 0 0 0 16 19.625 l 0 0.376 4 0 1.375 0 74.63 0 0 -0.376 a 20 20 0 0 0 16 -19.625 20 20 0 0 0 -16 -19.625 l 0 -0.376 -4 0 a 20 20 0 0 0 4 -12 20 20 0 0 0 -20 -20 20 20 0 0 0 -10.125 2.75 28 28 0 0 0 -21.875 -10.75 z" style="fill:#000;fill-opacity:0.322;stroke:none"/>
 </g>
</svg>
