<!-- Created with Inkscape (http://www.inkscape.org/) -->
<svg xmlns="http://www.w3.org/2000/svg" viewBox="0 0 256 256">
 <g transform="translate(0,-796.3622)">
  <path d="m 36 828.36 c -5.856 0 -12 6.04 -12 12 l 0 4 -12 0 c -5.88 0 -12 5.981 -12 12 l 0 152 c 0 8 4 12 12 12 l 232 0 c 6.27 0 12 -5.433 12 -12 l 0 -132 c 0 -6.02 -5.82 -12 -12 -12 l -12 0 0 -24 c 0 -5.845 -5.813 -12 -12 -12 z" style="fill:#f57c00;fill-opacity:1;stroke:none"/>
  <path d="m 36 828.36 c -5.856 0 -12 6.04 -12 12 l 0 4 -12 0 c -5.88 0 -12 5.981 -12 12 l 0 152 c 0 8 4 12 12 12 l 232 0 c 6.27 0 12 -5.433 12 -12 l 0 -132 c 0 -6.02 -5.82 -12 -12 -12 l -12 0 0 -24 c 0 -5.845 -5.813 -12 -12 -12 l -184 0 z m -24 24 136 0 c 2.361 0 4 2.059 4 4 l 0 16 92 0 c 2.022 0 4 2.035 4 4 l 0 132 c 0 2.085 -1.915 4 -4 4 l -232 0 c -1.857 0 -4 -1.585 -4 -4 l 0 -152 c 0 -1.97 2.066 -4 4 -4 z" style="fill:#000;fill-opacity:0.322;stroke:none"/>
  <path d="m 96 896.36 c -5.698 0 -8 2.682 -8 8 l 0 80 c 0 5.318 2.302 8 8 8 l 61.75 0 c 5.698 0 10.25 -2.682 10.25 -8 l 0 -80 c 0 -5.318 -2.302 -8 -8 -8 l -64 0 z m 6 8 c 3.314 0 6 2.686 6 6 0 3.314 -2.686 6 -6 6 -3.314 0 -6 -2.686 -6 -6 0 -3.314 2.686 -6 6 -6 z m 52 0 c 3.314 0 6 2.686 6 6 0 3.314 -2.686 6 -6 6 -3.314 0 -6 -2.686 -6 -6 0 -3.314 2.686 -6 6 -6 z m -26 8 c 8.837 0 16 7.163 16 16 0 8.837 -7.163 16 -16 16 -8.837 0 -16 -7.163 -16 -16 0 -8.837 7.163 -16 16 -16 z m -26 28 c 3.314 0 6 2.686 6 6 0 3.314 -2.686 6 -6 6 -3.314 0 -6 -2.686 -6 -6 0 -3.314 2.686 -6 6 -6 z m 52 0 c 3.314 0 6 2.686 6 6 0 3.314 -2.686 6 -6 6 -3.314 0 -6 -2.686 -6 -6 0 -3.314 2.686 -6 6 -6 z m -54 36 56 0 c 2.216 0 4 1.784 4 4 0 2.216 -1.784 4 -4 4 l -56 0 c -2.216 0 -4 -1.784 -4 -4 0 -2.216 1.784 -4 4 -4 z" style="fill:#000;fill-opacity:0.322;stroke:none"/>
  <path d="m 34 34 c 0 1.105 -0.895 2 -2 2 -1.105 0 -2 -0.895 -2 -2 0 -1.105 0.895 -2 2 -2 1.105 0 2 0.895 2 2 z" transform="matrix(4,0,0,4,0,792.3622)" style="fill:#000;fill-opacity:0.322;stroke:none;fill-rule:evenodd"/>
 </g>
</svg>
