<!-- Created with Inkscape (http://www.inkscape.org/) -->
<svg xmlns="http://www.w3.org/2000/svg" viewBox="0 0 256 256">
 <g transform="translate(0,-796.3622)">
  <path d="m 36 828.36 c -5.856 0 -12 6.04 -12 12 l 0 4 -12 0 c -5.88 0 -12 5.981 -12 12 l 0 152 c 0 8 4 12 12 12 l 232 0 c 6.27 0 12 -5.433 12 -12 l 0 -132 c 0 -6.02 -5.82 -12 -12 -12 l -12 0 0 -24 c 0 -5.845 -5.813 -12 -12 -12 z" style="fill:#f06292;fill-opacity:1;stroke:none"/>
  <path d="m 36 828.36 c -5.856 0 -12 6.04 -12 12 l 0 4 -12 0 c -5.88 0 -12 5.981 -12 12 l 0 152 c 0 8 4 12 12 12 l 232 0 c 6.27 0 12 -5.433 12 -12 l 0 -132 c 0 -6.02 -5.82 -12 -12 -12 l -12 0 0 -24 c 0 -5.845 -5.813 -12 -12 -12 l -184 0 z m -24 24 136 0 c 2.361 0 4 2.059 4 4 l 0 16 92 0 c 2.022 0 4 2.035 4 4 l 0 132 c 0 2.085 -1.915 4 -4 4 l -232 0 c -1.857 0 -4 -1.585 -4 -4 l 0 -152 c 0 -1.97 2.066 -4 4 -4 z" style="fill:#000;fill-opacity:0.322;stroke:none"/>
  <path d="m 159.02 896.36 c -13.13 0 -23.865 10.958 -23.865 24.417 0 4.517 1.298 8.784 3.409 12.436 l 0 26.452 c -2.6 0.555 -5 1.767 -7.03 3.392 l -23.652 -10.852 c 0 -9.599 -7.673 -17.41 -17.05 -17.41 -9.357 0 -17.05 7.806 -17.05 17.41 0 9.618 7.685 17.635 17.05 17.635 3.796 0 7.383 -1.439 10.228 -3.617 l 23.865 11.08 c 0.246 9.402 7.839 16.957 17.05 16.957 9.374 0 17.05 -7.792 17.05 -17.409 0 -4.01 -1.387 -7.667 -3.622 -10.626 l 0.213 0 12.572 -22.836 c 0.09 -0.096 0.124 -0.188 0.213 -0.22 8.414 -3.801 14.489 -12.392 14.489 -22.383 0 -13.446 -10.753 -24.418 -23.865 -24.418 z m 0 8.138 c 8.82 0 15.768 7.236 15.768 16.279 0 9.06 -6.952 16.278 -15.768 16.278 -8.832 0 -15.768 -7.218 -15.768 -16.278 0 -9.04 6.936 -16.279 15.768 -16.279 z m 0 5.88 c -5.639 0 -10.228 4.59 -10.228 10.399 0 5.786 4.589 10.4 10.228 10.4 5.656 0 10.228 -4.608 10.228 -10.4 0 -5.806 -4.572 -10.399 -10.228 -10.399 z m -68.19 31.426 c 5.599 0 8.791 2.317 9.802 7.01 l -5.966 -2.714 c -3.869 -1.687 -8.374 0.096 -10.01 4.07 -1.641 3.968 0.18 8.505 4.048 10.176 l 4.475 2.26 c -0.747 0.124 -1.49 0.22 -2.344 0.22 -6.818 0 -10.228 -3.617 -10.228 -10.624 0 -6.99 3.41 -10.401 10.228 -10.401 z m 51.14 23.287 c 6.311 0 11.293 5.287 11.293 11.756 0 6.469 -4.983 11.53 -11.293 11.53 -5.125 0 -9.451 -3.38 -10.867 -8.14 l 8.097 3.619 c 3.869 1.686 8.374 -0.312 10.01 -4.297 1.641 -3.967 -0.18 -8.504 -4.048 -10.173 l -7.458 -3.392 c 1.306 -0.539 2.76 -0.898 4.262 -0.898 z" style="fill:#000;fill-opacity:0.322;stroke:none;fill-rule:nonzero"/>
 </g>
</svg>
