<svg xmlns="http://www.w3.org/2000/svg" viewBox="0 0 256 256">
 <path d="m 36 32 c -5.859 0 -12 6.05 -12 12 l 0 4 -12 0 c -5.883 0 -12 5.984 -12 12 l 0 152 c 0 8 4 12 12 12 l 232 0 c 6.273 0 12 -5.43 12 -12 l 0 -132 c 0 -6.02 -5.82 -12 -12 -12 l -12 0 0 -24 c 0 -5.844 -5.813 -12 -12 -12 z m 0 0" style="fill:#ef5350;fill-opacity:1;stroke:none;fill-rule:nonzero"/>
 <path d="m 36 32 c -5.859 0 -12 6.05 -12 12 l 0 4 -12 0 c -5.883 0 -12 5.984 -12 12 l 0 152 c 0 8 4 12 12 12 l 232 0 c 6.273 0 12 -5.43 12 -12 l 0 -132 c 0 -6.02 -5.82 -12 -12 -12 l -12 0 0 -24 c 0 -5.844 -5.813 -12 -12 -12 z m -24 24 136 0 c 2.359 0 4 2.063 4 4 l 0 16 92 0 c 2.023 0 4 2.031 4 4 l 0 132 c 0 2.086 -1.914 4 -4 4 l -232 0 c -1.859 0 -4 -1.586 -4 -4 l 0 -152 c 0 -1.969 2.063 -4 4 -4 z m 0 0" style="fill:#000;fill-opacity:0.322;stroke:none;fill-rule:nonzero"/>
 <path d="m 112 100 c -8.867 0 -16 6.992 -16 15.625 l 0 0.75 c 0 0.609 0.18 1.164 0.25 1.75 c -0.141 0.602 -0.25 1.227 -0.25 1.875 l 0 44 c -8.836 0 -16 7.164 -16 16 0 8.836 7.164 16 16 16 8.195 0 14.813 -6.18 15.75 -14.12 0.07 -0.617 0.25 -1.234 0.25 -1.875 l 0 -48 48 0 0 32 c -8.836 0 -16 7.164 -16 16 0 8.836 7.164 16 16 16 8.836 0 16 -7.164 16 -16 l 0 -64 c 0 -0.125 0.008 -0.25 0 -0.375 c 0 -8.633 -7.133 -15.625 -16 -15.625 z m 0 0" style="fill:#000;fill-opacity:0.322;stroke:none;fill-rule:nonzero"/>
</svg>
