<!-- Created with Inkscape (http://www.inkscape.org/) -->
<svg xmlns="http://www.w3.org/2000/svg" viewBox="0 0 256 256">
 <g transform="translate(0,-796.3622)">
  <path d="m 36 828.36 c -5.856 0 -12 6.04 -12 12 l 0 4 -12 0 c -5.88 0 -12 5.981 -12 12 l 0 152 c 0 8 4 12 12 12 l 232 0 c 6.27 0 12 -5.433 12 -12 l 0 -132 c 0 -6.02 -5.82 -12 -12 -12 l -12 0 0 -23.999 c 0 -5.845 -5.813 -12 -12 -12 z" style="fill:#ef5350;fill-opacity:1;stroke:none"/>
  <path d="m 36 828.36 c -5.856 0 -12 6.04 -12 12 l 0 4 -12 0 c -5.88 0 -12 5.981 -12 12 l 0 152 c 0 8 4 12 12 12 l 232 0 c 6.27 0 12 -5.433 12 -12 l 0 -132 c 0 -6.02 -5.82 -12 -12 -12 l -12 0 0 -23.999 c 0 -5.845 -5.813 -12 -12 -12 l -184 0 z m -24 24 l 136 0 c 2.361 0 4 2.058 4 4 l 0 16 92 0 c 2.022 0 4 2.035 4 4 l 0 132 c 0 2.086 -1.915 4 -4 4 l -232 0 c -1.857 0 -4 -1.586 -4 -4 l 0 -152 c 0 -1.97 2.066 -4 4 -4 z" style="fill:#000;fill-opacity:0.322;stroke:none"/>
  <path d="m 89.25 899.98 0 0.123 c -3.083 0.102 -6.07 0.358 -9 1.375 -0.923 6.259 0.572 12.752 2.25 18.749 4.269 13.762 12.251 26.741 23.875 35.5 0.426 0.41 1.031 0.522 0.875 1.25 -0.061 3.048 -0.006 6.318 0 9.375 0.125 5.344 3.286 10.356 8 12.876 5.595 2.947 11.241 5.718 16.875 8.625 2.594 1.375 6.186 -0.215 7 -3 0.495 -1.828 0.098 -3.761 0.125 -5.625 -0.019 -3.927 -0.402 -7.874 -0.25 -11.75 5.128 -0.635 10.224 -3.137 13.25 -7.375 2.697 -3.615 3.705 -8.252 3.375 -12.75 5.486 -0.983 11.127 -1.756 16.625 -2.75 3.254 -0.655 4.663 -4.975 2.625 -7.625 -3.999 -5.072 -8.06 -9.965 -12.12 -15 -3.282 -3.923 -8.438 -6.167 -13.5 -5.5 -3.433 0.553 -6.865 1.36 -10.25 2 -10.931 -10.42 -25.669 -16.194 -40.5 -17.874 -3.046 -0.276 -6.167 -0.676 -9.25 -0.625 z m 18.5 11.501 c 3.583 -0.317 7.144 0.645 10.125 3.125 5.962 4.969 6.965 13.782 2 19.75 -4.965 5.966 -13.788 6.969 -19.75 2 -5.962 -4.967 -6.965 -13.907 -2 -19.876 2.482 -2.982 6.04 -4.671 9.625 -4.999 z m 1.625 6.249 c -4.418 0 -8 3.582 -8 8 0 4.418 3.582 7.999 8 7.999 4.418 0 8 -3.582 8 -7.999 0 -4.419 -3.582 -8 -8 -8 z m 55.625 36.625 c -1.227 -0.113 -2.448 0.84 -2.625 2.125 -1.563 7.111 -6.556 13.29 -13.25 16.12 -1.743 0.553 -2.182 2.857 -0.75 4 2.938 2.449 6.3 5.317 9.25 7.751 1.435 1.222 3.351 -0.102 3.375 -1.875 -0.046 -1.493 -0.241 -3.153 -0.375 -4.625 3.658 0.788 7.256 1.824 10.875 2.625 1.706 0.348 3.319 -1.748 2.625 -3.374 -1.431 -3.433 -2.906 -6.71 -4.375 -10.125 1.481 -0.174 2.902 -0.266 4.375 -0.502 1.823 -0.358 2.611 -3.061 1.125 -4.251 -2.955 -2.486 -6.01 -4.906 -9 -7.375 -0.35 -0.276 -0.841 -0.461 -1.25 -0.502 z" style="fill:#000;fill-opacity:0.322;stroke:none;fill-rule:nonzero"/>
 </g>
</svg>
