<svg xmlns="http://www.w3.org/2000/svg" viewBox="0 0 24 24">
 <defs>
  <radialGradient r="24" cy="40.5" cx="24" gradientTransform="matrix(0.625,0,0,0.10416663,-3,1056.6435)" gradientUnits="userSpaceOnUse" id="radialGradient3014">
   <stop style="stop-color:#000;stop-opacity:1"/>
   <stop offset="1" style="stop-color:#000;stop-opacity:0.196"/>
  </radialGradient>
 </defs>
 <g transform="translate(0,-1028.3622)">
  <g style="opacity:0.5">
   <path d="m 9 1040.36 -0.5 1 -5.5 0 0 1 6.25 0 0.5 -1 3.75 0 c 0.25 0 0.5 0.265 0.5 0.531 l 0 -1 c 0 -0.267 -0.25 -0.531 -0.5 -0.531 z" style="fill:#000;opacity:0.03;fill-opacity:1;stroke:none"/>
   <rect ry="1.25" rx="1.196" y="1040.36" x="3" height="8" width="11" style="fill:#ec407a;fill-opacity:1;stroke:none"/>
   <path d="m 4.196 1040.36 c -0.662 0 -1.196 0.557 -1.196 1.25 l 0 1 c 0 -0.693 0.533 -1.25 1.196 -1.25 l 8.609 0 c 0.662 0 1.196 0.557 1.196 1.25 l 0 -1 c 0 -0.693 -0.533 -1.25 -1.196 -1.25 z" style="fill:#fff;opacity:0.2;fill-opacity:1;stroke:none"/>
   <path d="m 4.196 1042.36 1.913 0 c 2.63 -0.25 2.152 -3 3.826 -3 l 2.87 0 c 0.662 0 1.196 0.557 1.196 1.25 l 0 6.5 c 0 0.693 -0.533 1.25 -1.196 1.25 l -8.609 0 c -0.662 0 -1.196 -0.558 -1.196 -1.25 l 0 -3.5 c 0 -0.75 0.478 -1.25 1.196 -1.25 z" style="fill:#f06292;fill-opacity:1;stroke:none"/>
   <path d="m 3 1046.11 0 1 c 0 0.693 0.533 1.25 1.196 1.25 l 8.609 0 c 0.662 0 1.196 -0.557 1.196 -1.25 l 0 -1 c 0 0.693 -0.533 1.25 -1.196 1.25 l -8.609 0 c -0.662 0 -1.196 -0.558 -1.196 -1.25 z" style="fill:#000;opacity:0.15;fill-opacity:1;stroke:none"/>
  </g>
  <path d="m 16 1033.36 -0.5 1 -5.5 0 0 1 6.25 0 0.5 -1 3.75 0 c 0.25 0 0.5 0.265 0.5 0.531 l 0 -1 c 0 -0.267 -0.25 -0.531 -0.5 -0.531 z" style="fill:#000;opacity:0.03;fill-opacity:1;stroke:none"/>
  <rect width="11" height="8" x="10" y="1033.36" rx="1.196" ry="1.25" style="fill:#ec407a;fill-opacity:1;stroke:none"/>
  <path d="m 11.196 1033.36 c -0.662 0 -1.196 0.557 -1.196 1.25 l 0 1 c 0 -0.693 0.533 -1.25 1.196 -1.25 l 8.609 0 c 0.662 0 1.196 0.557 1.196 1.25 l 0 -1 c 0 -0.693 -0.533 -1.25 -1.196 -1.25 z" style="fill:#fff;opacity:0.2;fill-opacity:1;stroke:none"/>
  <path d="m 11.196 1035.36 1.913 0 c 2.63 -0.25 2.152 -3 3.826 -3 l 2.87 0 c 0.662 0 1.196 0.557 1.196 1.25 l 0 6.5 c 0 0.693 -0.533 1.25 -1.196 1.25 l -8.609 0 c -0.662 0 -1.196 -0.558 -1.196 -1.25 l 0 -3.5 c 0 -0.75 0.478 -1.25 1.196 -1.25 z" style="fill:#f06292;fill-opacity:1;stroke:none"/>
  <path d="m 10 1039.11 0 1 c 0 0.693 0.533 1.25 1.196 1.25 l 8.609 0 c 0.662 0 1.196 -0.557 1.196 -1.25 l 0 -1 c 0 0.693 -0.533 1.25 -1.196 1.25 l -8.609 0 c -0.662 0 -1.196 -0.558 -1.196 -1.25 z" style="fill:#000;opacity:0.15;fill-opacity:1;stroke:none"/>
  <path d="m 21 1040.36 -4 0 0 -4 -4 0 0 4 -4 0 0 4 4 0 0 4 4 0 0 -4 4 0 z" style="fill:#4caf50;fill-opacity:1"/>
 </g>
</svg>
