<?xml version="1.0" encoding="UTF-8" standalone="no"?>
<!-- Created with Inkscape (http://www.inkscape.org/) -->

<svg
   xmlns:dc="http://purl.org/dc/elements/1.1/"
   xmlns:cc="http://creativecommons.org/ns#"
   xmlns:rdf="http://www.w3.org/1999/02/22-rdf-syntax-ns#"
   xmlns:svg="http://www.w3.org/2000/svg"
   xmlns="http://www.w3.org/2000/svg"
   xmlns:xlink="http://www.w3.org/1999/xlink"
   xmlns:sodipodi="http://sodipodi.sourceforge.net/DTD/sodipodi-0.dtd"
   xmlns:inkscape="http://www.inkscape.org/namespaces/inkscape"
   width="24"
   height="24"
   id="svg2"
   version="1.1"
   inkscape:version="0.48.5 r10040"
   sodipodi:docname="folder-ubuntu.svg"
   inkscape:export-filename="/media/Data/Main/Visuals/Icons/Numix/Desktop/repos/numix-wiki/Gjorgi/Numix-folders/48/New/folder-144.png"
   inkscape:export-xdpi="270"
   inkscape:export-ydpi="270">
  <defs
     id="defs4">
    <linearGradient
       inkscape:collect="always"
       id="linearGradient3760">
      <stop
         style="stop-color:#000000;stop-opacity:1;"
         offset="0"
         id="stop3762" />
      <stop
         style="stop-color:#000000;stop-opacity:0;"
         offset="1"
         id="stop3764" />
    </linearGradient>
    <radialGradient
       inkscape:collect="always"
       xlink:href="#linearGradient3760"
       id="radialGradient3766"
       cx="11"
       cy="19"
       fx="11"
       fy="19"
       r="11"
       gradientTransform="matrix(1,0,0,0.09090909,0,17.272727)"
       gradientUnits="userSpaceOnUse" />
  </defs>
  <sodipodi:namedview
     id="base"
     pagecolor="#ffffff"
     bordercolor="#666666"
     borderopacity="1.0"
     inkscape:pageopacity="0.0"
     inkscape:pageshadow="2"
     inkscape:zoom="22.629357"
     inkscape:cx="10.308316"
     inkscape:cy="10.967329"
     inkscape:document-units="px"
     inkscape:current-layer="layer1"
     showgrid="true"
     inkscape:window-width="1280"
     inkscape:window-height="998"
     inkscape:window-x="0"
     inkscape:window-y="0"
     inkscape:window-maximized="1"
     showguides="true"
     inkscape:guide-bbox="true">
    <inkscape:grid
       type="xygrid"
       id="grid2985"
       empspacing="5"
       visible="true"
       enabled="true"
       snapvisiblegridlinesonly="true" />
  </sodipodi:namedview>
  <metadata
     id="metadata7">
    <rdf:RDF>
      <cc:Work
         rdf:about="">
        <dc:format>image/svg+xml</dc:format>
        <dc:type
           rdf:resource="http://purl.org/dc/dcmitype/StillImage" />
        <dc:title />
      </cc:Work>
    </rdf:RDF>
  </metadata>
  <g
     inkscape:label="Layer 1"
     inkscape:groupmode="layer"
     id="layer1"
     transform="translate(0,-1028.3622)">
    <path
       style="font-size:medium;font-style:normal;font-variant:normal;font-weight:normal;font-stretch:normal;text-indent:0;text-align:start;text-decoration:none;line-height:normal;letter-spacing:normal;word-spacing:normal;text-transform:none;direction:ltr;block-progression:tb;writing-mode:lr-tb;text-anchor:start;baseline-shift:baseline;color:#000000;fill:#8d6e63;fill-opacity:1;fill-rule:nonzero;stroke:none;stroke-width:1.52408636;marker:none;visibility:visible;display:inline;overflow:visible;enable-background:accumulate;font-family:Sans;-inkscape-font-specification:Sans"
       d="m 2.6250001,1032.3622 c -0.3474302,0.063 -0.6251471,0.3968 -0.625,0.75 l 0,14.5 c 0.00617,0.391 0.3590206,0.7438 0.75,0.75 l 18.4999999,0 c 0.390979,-0.01 0.74383,-0.359 0.75,-0.75 l 0,-12.4375 c -0.0062,-0.391 -0.359021,-0.8063 -0.75,-0.8125 l -7.25,0 0,-1.25 c -0.0062,-0.391 -0.359021,-0.7438 -0.75,-0.75 l -10.6249999,0 z m 12.3749999,3 c 0.552285,0 1,0.4477 1,1 0,0.5523 -0.447715,1 -1,1 -0.552285,0 -1,-0.4477 -1,-1 0,-0.5523 0.447715,-1 1,-1 z m -3,1 c 0.345178,0 0.674512,0.027 1,0.094 0.04933,1.0607 0.927106,1.9062 2,1.9062 0.291093,0 0.563018,-0.076 0.8125,-0.1875 0.729874,0.869 1.1875,1.9638 1.1875,3.1875 0,1.2237 -0.457626,2.3185 -1.1875,3.1875 -0.249482,-0.1115 -0.521407,-0.1875 -0.8125,-0.1875 -1.072894,0 -1.95067,0.8455 -2,1.9063 -0.325488,0.067 -0.654822,0.094 -1,0.094 -2.2194942,0 -4.0656536,-1.4673 -4.7187499,-3.4687 0.4392155,-0.3669 0.71875,-0.9142 0.71875,-1.5313 0,-0.6171 -0.2795345,-1.1644 -0.71875,-1.5312 C 7.9343464,1037.83 9.7805058,1036.3627 12,1036.3627 z m 0,2 c -1.656854,0 -2.9999999,1.3431 -2.9999999,3 0,1.6569 1.3431459,3 2.9999999,3 1.656854,0 3,-1.3431 3,-3 0,-1.6569 -1.343146,-3 -3,-3 z m -5.9999999,2 c 0.5522847,0 1,0.4477 1,1 0,0.5523 -0.4477153,1 -1,1 -0.5522847,0 -1,-0.4477 -1,-1 0,-0.5523 0.4477153,-1 1,-1 z m 8.9999999,5 c 0.552285,0 1,0.4477 1,1 0,0.5523 -0.447715,1 -1,1 -0.552285,0 -1,-0.4477 -1,-1 0,-0.5523 0.447715,-1 1,-1 z"
       id="path3912"
       inkscape:connector-curvature="0" />
  </g>
</svg>
