<?xml version="1.0" encoding="UTF-8" standalone="no"?>
<svg
   xmlns:dc="http://purl.org/dc/elements/1.1/"
   xmlns:cc="http://creativecommons.org/ns#"
   xmlns:rdf="http://www.w3.org/1999/02/22-rdf-syntax-ns#"
   xmlns:svg="http://www.w3.org/2000/svg"
   xmlns="http://www.w3.org/2000/svg"
   xmlns:sodipodi="http://sodipodi.sourceforge.net/DTD/sodipodi-0.dtd"
   xmlns:inkscape="http://www.inkscape.org/namespaces/inkscape"
   width="32"
   height="32"
   viewBox="0 0 32 32"
   id="svg3093"
   version="1.1"
   inkscape:version="0.48.4 r9939"
   sodipodi:docname="folder-move.svg">
  <metadata
     id="metadata3115">
    <rdf:RDF>
      <cc:Work
         rdf:about="">
        <dc:format>image/svg+xml</dc:format>
        <dc:type
           rdf:resource="http://purl.org/dc/dcmitype/StillImage" />
      </cc:Work>
    </rdf:RDF>
  </metadata>
  <defs
     id="defs3113" />
  <sodipodi:namedview
     pagecolor="#ffffff"
     bordercolor="#666666"
     borderopacity="1"
     objecttolerance="10"
     gridtolerance="10"
     guidetolerance="10"
     inkscape:pageopacity="0"
     inkscape:pageshadow="2"
     inkscape:window-width="658"
     inkscape:window-height="480"
     id="namedview3111"
     showgrid="false"
     inkscape:zoom="7.375"
     inkscape:cx="8.1355932"
     inkscape:cy="11.389831"
     inkscape:window-x="0"
     inkscape:window-y="0"
     inkscape:window-maximized="0"
     inkscape:current-layer="svg3093" />
  <path
     style="opacity:0.50000000000000000;fill:#e9a439;stroke:#e9a439;fill-opacity:1;stroke-opacity:1"
     d="M 3.0625 4.5 C 2.766471 4.5 2.5 4.801617 2.5 5.125 L 2.5 6.5 L 1.21875 6.5 L 1.15625 6.5 C 0.806003 6.5283 0.49588 6.817786 0.5 7.125 L 0.5 18.875 C 0.5 19.198383 0.843779 19.5 1.21875 19.5 L 18.78125 19.5 C 19.152102 19.5 19.5 19.198383 19.5 18.875 L 19.5 8.21875 C 19.5 7.895368 19.152102 7.59375 18.78125 7.59375 L 17.5 7.59375 L 17.5 5.125 C 17.5 4.801617 17.230278 4.5 16.9375 4.5 L 3.0625 4.5 z "
     id="path3101" />
  <path
     style="fill:#e9a439;stroke:#e9a439;stroke-opacity:1;fill-opacity:1"
     d="M 15.007514,25.5 C 14.731003,25.4717 14.49678,25.184701 14.500033,24.877487 l 0,-11.754974 C 14.500033,12.79913 14.766788,12.5 15.062817,12.5 l 13.874399,0 C 29.229994,12.5 29.5,12.79913 29.5,13.122513 l 0,10.667599 c 0,0.323382 -0.270006,0.618472 -0.562784,0.618472 l -5.419635,0 0,0.468903 c 0,0.327427 -0.266753,0.622513 -0.562784,0.622513 l -7.89198,0 c -0.01952,0 -0.03902,0 -0.0553,0 z"
     id="path3105"
     inkscape:connector-curvature="0" />
  <path
     style="fill:#f5c14e;stroke:#e9a439;stroke-opacity:1;fill-opacity:1"
     d="m 13.142851,14.5 c -0.350247,0.0283 -0.646929,0.315299 -0.642809,0.622513 l 0,11.754974 c 0,0.323383 0.337889,0.622513 0.71286,0.622513 l 17.574239,0 C 31.157993,27.5 31.5,27.20087 31.5,26.877487 l 0,-10.667599 c 0,-0.323382 -0.342007,-0.618472 -0.712859,-0.618472 l -6.864871,0 0,-0.468903 C 23.92227,14.795086 23.584382,14.5 23.20941,14.5 l -9.996508,0 c -0.02473,0 -0.04943,0 -0.07005,0 z"
     id="path3109"
     inkscape:connector-curvature="0" />
</svg>
