<?xml version="1.0" encoding="UTF-8" standalone="no"?>
<svg
   xmlns:dc="http://purl.org/dc/elements/1.1/"
   xmlns:cc="http://creativecommons.org/ns#"
   xmlns:rdf="http://www.w3.org/1999/02/22-rdf-syntax-ns#"
   xmlns:svg="http://www.w3.org/2000/svg"
   xmlns="http://www.w3.org/2000/svg"
   xmlns:sodipodi="http://sodipodi.sourceforge.net/DTD/sodipodi-0.dtd"
   xmlns:inkscape="http://www.inkscape.org/namespaces/inkscape"
   width="32"
   height="32"
   viewBox="0 0 32 32"
   id="svg3051"
   version="1.1"
   inkscape:version="0.48.4 r9939"
   sodipodi:docname="folder-download.svg">
  <metadata
     id="metadata3075">
    <rdf:RDF>
      <cc:Work
         rdf:about="">
        <dc:format>image/svg+xml</dc:format>
        <dc:type
           rdf:resource="http://purl.org/dc/dcmitype/StillImage" />
      </cc:Work>
    </rdf:RDF>
  </metadata>
  <defs
     id="defs3073" />
  <sodipodi:namedview
     pagecolor="#ffffff"
     bordercolor="#666666"
     borderopacity="1"
     objecttolerance="10"
     gridtolerance="10"
     guidetolerance="10"
     inkscape:pageopacity="0"
     inkscape:pageshadow="2"
     inkscape:window-width="658"
     inkscape:window-height="480"
     id="namedview3071"
     showgrid="false"
     inkscape:zoom="7.375"
     inkscape:cx="30.508475"
     inkscape:cy="14.915254"
     inkscape:window-x="0"
     inkscape:window-y="0"
     inkscape:window-maximized="0"
     inkscape:current-layer="svg3051" />
  <path
     inkscape:connector-curvature="0"
     id="path3009"
     d="M 4.346464,25.5 C 3.88742,25.45296 3.499999,24.991935 3.499999,24.497984 l 0,-18.991264 c 0,-0.5268813 0.446022,-1.0067202 0.937622,-1.0067202 l 23.124757,0 c 0.4916,0 0.937622,0.4798389 0.937622,1.0067202 l 0,16.235055 c 0,0.526881 -0.718078,1.28348 -1.209678,1.28348 l -8.465029,-0.01481 0,1.324124 c 0,0.522177 -0.411445,1.165426 -0.899787,1.165426 l -13.487885,0 c -0.0293,0 -0.0586,0 -0.09116,0 z"
     style="fill:#e9a439;fill-opacity:1;stroke:#e9a439;stroke-opacity:1" />
  <path
     inkscape:connector-curvature="0"
     id="path3011"
     d="M 1.549616,6.4999998 C 0.980401,6.5470428 0.5,7.0080647 0.5,7.5020159 L 0.5,26.49328 C 0.5,27.020161 1.053067,27.5 1.662651,27.5 l 28.674698,0 C 30.946933,27.5 31.5,27.020161 31.5,26.49328 l 0,-16.235055 c 0,-0.526882 -0.890416,-1.28348 -1.5,-1.28348 l -10.496636,0.01481 0,-1.3241244 c 0,-0.5221779 -0.510191,-1.1654258 -1.115738,-1.1654258 l -16.724975,0 c -0.03633,0 -0.07267,0 -0.113035,0 z"
     style="fill:#f5c14e;fill-opacity:1;stroke:#e9a439;stroke-opacity:1" />
  <path
     inkscape:connector-curvature="0"
     id="path3061"
     d="m 12.835771,18.001324 c -0.220784,0.01025 -0.427937,0.09482 -0.583525,0.231909 -0.311177,0.274184 -0.340302,0.740236 -0.05471,1.03467 l 2.625862,2.497481 c 0.184962,0.158475 0.45239,0.252033 0.711171,0.231909 0.210444,-0.01315 0.414791,-0.10348 0.56529,-0.231909 l 2.625863,-2.408285 c 0.166405,-0.139769 0.266849,-0.334201 0.273526,-0.535174 0.01554,-0.31509 -0.212688,-0.626249 -0.547054,-0.749244 -0.334366,-0.122995 -0.753184,-0.05055 -1.002934,0.178391 L 15.4981,19.96363 13.455762,18.161876 c -0.171538,-0.121894 -0.399211,-0.170808 -0.619995,-0.160552 z"
     style="line-height:normal;color:#000000;fill:#d0a444;fill-opacity:1" />
  <path
     style="line-height:normal;color:#000000;fill:#d0a444;fill-opacity:1"
     inkscape:connector-curvature="0"
     id="path3065"
     d="m 15.49997,13 c -0.261491,0 -0.499706,0.265874 -0.499706,0.562414 l 0,2.853733 c -0.0093,0.302562 0.232743,0.584808 0.499706,0.583243 0.01514,8.13e-4 0.03175,8.13e-4 0.04685,0 0.251517,-0.02462 0.462629,-0.297172 0.452859,-0.583243 l 0,-2.853733 C 15.999679,13.265874 15.761464,13 15.499973,13 z" />
  <path
     style="line-height:normal;color:#000000;fill:#d0a444;fill-opacity:1"
     inkscape:connector-curvature="0"
     id="path3067"
     d="m 13.500004,15 c -0.28405,0 -0.536918,0.209029 -0.49554,0.405967 l 0,1.233513 c -0.01121,0.197783 0.260872,0.378258 0.541996,0.359124 0.24581,-0.02018 0.459425,-0.185836 0.449084,-0.359124 l 0,-1.233513 C 14.036924,15.209029 13.784053,15 13.500004,15 z" />
  <path
     style="line-height:normal;color:#000000;fill:#d0a444;fill-opacity:1"
     inkscape:connector-curvature="0"
     id="path3069"
     d="m 17.500004,15 c -0.28405,0 -0.536918,0.209029 -0.49554,0.405967 l 0,1.233513 c -0.01121,0.197783 0.260872,0.378258 0.541996,0.359124 0.24581,-0.02018 0.459425,-0.185836 0.449084,-0.359124 l 0,-1.233513 C 18.036924,15.209029 17.784053,15 17.500004,15 z" />
</svg>
