<?xml version="1.0" encoding="UTF-8" standalone="no"?>
<svg
   xmlns:dc="http://purl.org/dc/elements/1.1/"
   xmlns:cc="http://creativecommons.org/ns#"
   xmlns:rdf="http://www.w3.org/1999/02/22-rdf-syntax-ns#"
   xmlns:svg="http://www.w3.org/2000/svg"
   xmlns="http://www.w3.org/2000/svg"
   xmlns:sodipodi="http://sodipodi.sourceforge.net/DTD/sodipodi-0.dtd"
   xmlns:inkscape="http://www.inkscape.org/namespaces/inkscape"
   width="32"
   height="32"
   viewBox="0 0 32 32"
   id="svg3011"
   version="1.1"
   inkscape:version="0.48.4 r9939"
   sodipodi:docname="folder-copy.svg">
  <metadata
     id="metadata3031">
    <rdf:RDF>
      <cc:Work
         rdf:about="">
        <dc:format>image/svg+xml</dc:format>
        <dc:type
           rdf:resource="http://purl.org/dc/dcmitype/StillImage" />
      </cc:Work>
    </rdf:RDF>
  </metadata>
  <defs
     id="defs3029" />
  <sodipodi:namedview
     pagecolor="#ffffff"
     bordercolor="#666666"
     borderopacity="1"
     objecttolerance="10"
     gridtolerance="10"
     guidetolerance="10"
     inkscape:pageopacity="0"
     inkscape:pageshadow="2"
     inkscape:window-width="658"
     inkscape:window-height="480"
     id="namedview3027"
     showgrid="false"
     inkscape:zoom="7.375"
     inkscape:cx="11.254237"
     inkscape:cy="13.016949"
     inkscape:window-x="0"
     inkscape:window-y="0"
     inkscape:window-maximized="0"
     inkscape:current-layer="svg3011" />
  <path
     style="fill:#e9a439;stroke:#e9a439;fill-opacity:1;stroke-opacity:1"
     d="M 3.0625 4.5 C 2.766471 4.5 2.5 4.801617 2.5 5.125 L 2.5 6.5 L 1.21875 6.5 L 1.15625 6.5 C 0.806003 6.5283 0.49588 6.817786 0.5 7.125 L 0.5 18.875 C 0.5 19.198383 0.843779 19.5 1.21875 19.5 L 14.5 19.5 L 14.5 24.875 C 14.496747 25.182214 14.723489 25.4717 15 25.5 L 15.0625 25.5 L 22.96875 25.5 C 23.264781 25.5 23.53125 25.202427 23.53125 24.875 L 23.53125 24.40625 L 28.9375 24.40625 C 29.230278 24.40625 29.5 24.104632 29.5 23.78125 L 29.5 13.125 C 29.5 12.801617 29.230278 12.5 28.9375 12.5 L 19.5 12.5 L 19.5 8.21875 C 19.5 7.895368 19.152102 7.59375 18.78125 7.59375 L 17.5 7.59375 L 17.5 5.125 C 17.5 4.801617 17.230278 4.5 16.9375 4.5 L 3.0625 4.5 z "
     id="path3017" />
  <path
     style="fill:#f5c14e;stroke:#e9a439;stroke-opacity:1;fill-opacity:1"
     d="m 13.142851,14.5 c -0.350247,0.0283 -0.646929,0.315299 -0.642809,0.622513 l 0,11.754974 c 0,0.323383 0.337889,0.622513 0.71286,0.622513 l 17.574239,0 C 31.157993,27.5 31.5,27.20087 31.5,26.877487 l 0,-10.667599 c 0,-0.323382 -0.342007,-0.618472 -0.712859,-0.618472 l -6.864871,0 0,-0.468903 C 23.92227,14.795086 23.584382,14.5 23.20941,14.5 l -9.996508,0 c -0.02473,0 -0.04943,0 -0.07005,0 z"
     id="path3025"
     inkscape:connector-curvature="0" />
</svg>
