<?xml version="1.0" encoding="UTF-8" standalone="no"?>
<svg
   xmlns:dc="http://purl.org/dc/elements/1.1/"
   xmlns:cc="http://creativecommons.org/ns#"
   xmlns:rdf="http://www.w3.org/1999/02/22-rdf-syntax-ns#"
   xmlns:svg="http://www.w3.org/2000/svg"
   xmlns="http://www.w3.org/2000/svg"
   xmlns:sodipodi="http://sodipodi.sourceforge.net/DTD/sodipodi-0.dtd"
   xmlns:inkscape="http://www.inkscape.org/namespaces/inkscape"
   width="32"
   height="32"
   viewBox="0 0 32 32"
   id="svg3011"
   version="1.1"
   inkscape:version="0.48.5 r10040"
   sodipodi:docname="folder-publicshare.svg">
  <metadata
     id="metadata3025">
    <rdf:RDF>
      <cc:Work
         rdf:about="">
        <dc:format>image/svg+xml</dc:format>
        <dc:type
           rdf:resource="http://purl.org/dc/dcmitype/StillImage" />
      </cc:Work>
    </rdf:RDF>
  </metadata>
  <defs
     id="defs3023" />
  <sodipodi:namedview
     pagecolor="#ffffff"
     bordercolor="#666666"
     borderopacity="1"
     objecttolerance="10"
     gridtolerance="10"
     guidetolerance="10"
     inkscape:pageopacity="0"
     inkscape:pageshadow="2"
     inkscape:window-width="672"
     inkscape:window-height="480"
     id="namedview3021"
     showgrid="false"
     inkscape:zoom="5.2149125"
     inkscape:cx="12.133597"
     inkscape:cy="20.94248"
     inkscape:window-x="0"
     inkscape:window-y="0"
     inkscape:window-maximized="0"
     inkscape:current-layer="svg3011" />
  <path
     style="font-size:medium;font-style:normal;font-variant:normal;font-weight:normal;font-stretch:normal;text-indent:0;text-align:start;text-decoration:none;line-height:normal;letter-spacing:normal;word-spacing:normal;text-transform:none;direction:ltr;block-progression:tb;writing-mode:lr-tb;text-anchor:start;baseline-shift:baseline;color:#000000;fill:#e9b080;fill-opacity:1;fill-rule:nonzero;stroke:none;stroke-width:1;marker:none;visibility:visible;display:inline;overflow:visible;enable-background:accumulate;font-family:Sans;-inkscape-font-specification:Sans"
     d="m 4,4.0000004 c -0.4916,0 -1,0.4731187 -1,1 l 0,1 c -0.6666667,0 -0.8333333,0 -1.5,0 -0.9791617,0 -1.5,0.4940342 -1.5,1.5 L 0,26.5 C 0,27.531461 0.5230687,28 1.5,28 l 28.84375,0 C 31.21572,28 32,27.376781 32,26.5 L 32,9.5000004 c 0,-0.9413229 -0.425107,-1.5 -1.5,-1.5 l -2.5,0 0,-3 c 0,-0.5268813 -0.5084,-1 -1,-1 z"
     id="path3004"
     inkscape:connector-curvature="0"
     sodipodi:nodetypes="ssccssssscccsss" />
  <path
     style="fill:#000000;fill-opacity:0.32156864"
     d="m 17.376379,14.000002 c -0.999999,0 -1.830259,0.757353 -1.830259,1.705882 0.0073,0.327207 0.02582,0.738972 0.217713,1.610295 l 0.01844,0 c 0.0406,0.11397 0.09963,0.227941 0.199263,0.352941 0.08856,0.110294 0.206642,0.235294 0.313652,0.352941 0.03322,0.246324 0.0369,0.459559 0,0.724265 -0.298893,0.224264 -0.833947,0.433824 -1.317344,0.628676 -0.254612,0.09926 -0.487084,0.191177 -0.671587,0.3125 -0.173431,0.113971 -0.302582,0.272059 -0.313652,0.470588 0,0.01103 -0.01845,0.01103 -0.01845,0.01838 l -0.217712,1.669121 0,0.01838 c 0,0.205882 0.136531,0.375 0.335794,0.511029 0.195571,0.132353 0.461254,0.238971 0.785978,0.330882 C 15.527662,22.893383 16.405891,23 17.37637,23 c 0.974171,0 1.852401,-0.106617 2.501848,-0.294118 0.324723,-0.09191 0.590406,-0.198529 0.785978,-0.330882 0.19558,-0.136029 0.335802,-0.305147 0.335802,-0.511029 l 0,-0.01838 -0.236163,-1.669118 c 0,-0.0037 0,-0.01103 0,-0.01838 -0.0073,-0.09559 -0.04059,-0.1875 -0.09963,-0.253676 -0.06273,-0.07353 -0.143912,-0.121324 -0.236162,-0.17647 -0.184502,-0.113971 -0.416974,-0.213236 -0.667897,-0.316177 -0.490775,-0.198529 -1.025831,-0.426471 -1.321034,-0.665441 -0.02214,-0.227942 -0.02214,-0.459559 0,-0.6875 0.10701,-0.125 0.225091,-0.25 0.317343,-0.371324 0.09963,-0.132353 0.177122,-0.253676 0.214022,-0.371323 0.217713,-0.908089 0.225092,-1.275736 0.236162,-1.610295 0,-0.948529 -0.826568,-1.705882 -1.830259,-1.705882 z m -3.402215,0.316177 c -0.826568,0 -1.498156,0.632353 -1.498156,1.411765 0.0073,0.264706 0.02214,0.577205 0.177122,1.294117 l 0,0.01838 c 0.03321,0.09559 0.09594,0.172795 0.177122,0.275736 0.0738,0.08824 0.169742,0.198529 0.258303,0.294118 0.02583,0.194852 0.02952,0.393382 0,0.606617 -0.243544,0.1875 -0.686348,0.352941 -1.084873,0.51103 -0.206641,0.08088 -0.380072,0.154411 -0.531364,0.253676 -0.140222,0.09191 -0.243542,0.231618 -0.254613,0.393382 0,0.0074 -0.01844,0.0074 -0.01844,0.01838 l -0.199263,1.352941 0,0.01838 c 0,0.128677 0.06273,0.238971 0.158672,0.334559 0.09594,0.09559 0.228783,0.183823 0.394834,0.253676 0.321033,0.139707 0.782288,0.238971 1.335794,0.294118 l 0.02214,0 c 0.02951,0 0.05904,-0.0074 0.07748,-0.01838 0.02214,-0.01471 0.04797,-0.02574 0.05904,-0.04044 0.01845,-0.02573 0.02952,-0.05147 0.04059,-0.07721 0.01476,-0.04412 0.01476,-0.09191 0.01844,-0.13603 0,-0.0074 0,-0.0147 0,-0.02206 l 0.217712,-1.665441 c 0,-0.06985 0.04428,-0.150735 0.154982,-0.235294 0.110701,-0.08456 0.280443,-0.169118 0.472324,-0.253676 0.391145,-0.169118 0.88561,-0.327207 1.280444,-0.529412 l 0.217713,-0.117647 -0.217713,-0.09926 c -0.154981,-0.07721 -0.276753,-0.158088 -0.372693,-0.235294 -0.02214,-0.194853 -0.02214,-0.397059 0,-0.588235 0,-0.0074 -0.0037,-0.01471 0,-0.01838 0.147601,-0.202207 0.261992,-0.411765 0.313653,-0.529412 l 0.01845,-0.04044 -0.01845,-0.04044 c -0.01845,-0.09559 -0.01107,-0.169117 -0.04059,-0.253676 -0.188193,-0.860294 -0.206642,-1.213235 -0.214022,-1.529412 0,-0.132353 0.02951,-0.286765 0.07749,-0.430147 l 0.04059,-0.08088 -0.08118,-0.03676 c -0.261985,-0.209567 -0.60885,-0.352949 -0.981543,-0.352949 z"
     id="path3019" />
  <path
     style="font-size:medium;font-style:normal;font-variant:normal;font-weight:normal;font-stretch:normal;text-indent:0;text-align:start;text-decoration:none;line-height:normal;letter-spacing:normal;word-spacing:normal;text-transform:none;direction:ltr;block-progression:tb;writing-mode:lr-tb;text-anchor:start;baseline-shift:baseline;color:#000000;fill:#000000;fill-opacity:0.32156863;fill-rule:nonzero;stroke:none;stroke-width:1;marker:none;visibility:visible;display:inline;overflow:visible;enable-background:accumulate;font-family:Sans;-inkscape-font-specification:Sans"
     d="m 4,4.0000004 c -0.4916,0 -1,0.4731186 -1,1 l 0,1 c -0.6868035,0 -0.8835353,0 -1.5,0 -0.9791617,0 -1.5,0.4829856 -1.5,1.5 L 0,26.5 C 0,27.503839 0.5009716,28 1.5,28 l 28.84375,0 C 31.21572,28 32,27.376781 32,26.5 L 32,9.5517771 C 32,8.5377944 31.580916,8.0000004 30.5,8.0000004 l -2.5,0 0,-3 c 0,-0.5268814 -0.5084,-1 -1,-1 z m 15,3 0,2 12,0 L 31,27 1,27 1,7.0000004 z"
     id="path3784"
     inkscape:connector-curvature="0"
     sodipodi:nodetypes="ssccssssscccsssccccccc" />
</svg>
