<?xml version="1.0" encoding="UTF-8" standalone="no"?>
<svg
   xmlns:dc="http://purl.org/dc/elements/1.1/"
   xmlns:cc="http://creativecommons.org/ns#"
   xmlns:rdf="http://www.w3.org/1999/02/22-rdf-syntax-ns#"
   xmlns:svg="http://www.w3.org/2000/svg"
   xmlns="http://www.w3.org/2000/svg"
   xmlns:sodipodi="http://sodipodi.sourceforge.net/DTD/sodipodi-0.dtd"
   xmlns:inkscape="http://www.inkscape.org/namespaces/inkscape"
   width="32"
   height="32"
   viewBox="0 0 32 32"
   id="svg3315"
   version="1.1"
   inkscape:version="0.48.4 r9939"
   sodipodi:docname="folder-video.svg">
  <metadata
     id="metadata3329">
    <rdf:RDF>
      <cc:Work
         rdf:about="">
        <dc:format>image/svg+xml</dc:format>
        <dc:type
           rdf:resource="http://purl.org/dc/dcmitype/StillImage" />
      </cc:Work>
    </rdf:RDF>
  </metadata>
  <defs
     id="defs3327" />
  <sodipodi:namedview
     pagecolor="#ffffff"
     bordercolor="#666666"
     borderopacity="1"
     objecttolerance="10"
     gridtolerance="10"
     guidetolerance="10"
     inkscape:pageopacity="0"
     inkscape:pageshadow="2"
     inkscape:window-width="658"
     inkscape:window-height="480"
     id="namedview3325"
     showgrid="false"
     inkscape:zoom="7.375"
     inkscape:cx="17.220339"
     inkscape:cy="13.830508"
     inkscape:window-x="0"
     inkscape:window-y="0"
     inkscape:window-maximized="0"
     inkscape:current-layer="svg3315" />
  <path
     inkscape:connector-curvature="0"
     id="path3009"
     d="M 4.346464,25.5 C 3.88742,25.45296 3.499999,24.991935 3.499999,24.497984 l 0,-18.9912639 c 0,-0.5268813 0.446022,-1.0067202 0.937622,-1.0067202 l 23.124757,0 c 0.4916,0 0.937622,0.4798389 0.937622,1.0067202 l 0,16.2350549 c 0,0.526881 -0.718078,1.28348 -1.209678,1.28348 l -8.465029,-0.01481 0,1.324124 c 0,0.522177 -0.411445,1.165426 -0.899787,1.165426 l -13.487885,0 c -0.0293,0 -0.0586,0 -0.09116,0 z"
     style="fill:#e9a439;fill-opacity:1;stroke:#e9a439;stroke-opacity:1" />
  <path
     inkscape:connector-curvature="0"
     id="path3011"
     d="M 1.549616,6.4999999 C 0.980401,6.547043 0.5,7.0080648 0.5,7.502016 l 0,18.991264 C 0.5,27.020161 1.053067,27.5 1.662651,27.5 l 28.674698,0 C 30.946933,27.5 31.5,27.020161 31.5,26.49328 l 0,-16.235055 C 31.5,9.7313436 30.609584,8.9747448 30,8.9747448 l -10.496636,0.014805 0,-1.3241241 c 0,-0.5221779 -0.510191,-1.1654258 -1.115738,-1.1654258 l -16.724975,0 c -0.03633,0 -0.07267,0 -0.113035,0 z"
     style="fill:#f5c14e;fill-opacity:1;stroke:#e9a439;stroke-opacity:1" />
  <path
     style="fill:#d0a444;fill-opacity:1"
     d="m 16,13 c -2.754579,0 -5,2.248261 -5,5.001831 C 11,20.755401 13.245421,23 16,23 18.754579,23 21,20.755401 21,18.001831 21,15.248261 18.754579,13 16,13 z m 0,1.252289 c 2.080586,0 3.750916,1.669718 3.750916,3.749542 0,2.076162 -1.67033,3.749542 -3.750916,3.749542 -2.080586,0 -3.750916,-1.67338 -3.750916,-3.749542 0,-2.079824 1.67033,-3.749542 3.750916,-3.749542 z m -1.249084,1.248627 0,4.998168 3.750916,-2.497253 z"
     id="path3323" />
</svg>
