<?xml version="1.0" encoding="UTF-8" standalone="no"?>
<svg
   xmlns:dc="http://purl.org/dc/elements/1.1/"
   xmlns:cc="http://creativecommons.org/ns#"
   xmlns:rdf="http://www.w3.org/1999/02/22-rdf-syntax-ns#"
   xmlns:svg="http://www.w3.org/2000/svg"
   xmlns="http://www.w3.org/2000/svg"
   xmlns:sodipodi="http://sodipodi.sourceforge.net/DTD/sodipodi-0.dtd"
   xmlns:inkscape="http://www.inkscape.org/namespaces/inkscape"
   width="32"
   height="32"
   viewBox="0 0 32 32"
   id="svg3253"
   version="1.1"
   inkscape:version="0.48.4 r9939"
   sodipodi:docname="folder-templates.svg">
  <metadata
     id="metadata3297">
    <rdf:RDF>
      <cc:Work
         rdf:about="">
        <dc:format>image/svg+xml</dc:format>
        <dc:type
           rdf:resource="http://purl.org/dc/dcmitype/StillImage" />
      </cc:Work>
    </rdf:RDF>
  </metadata>
  <defs
     id="defs3295" />
  <sodipodi:namedview
     pagecolor="#ffffff"
     bordercolor="#666666"
     borderopacity="1"
     objecttolerance="10"
     gridtolerance="10"
     guidetolerance="10"
     inkscape:pageopacity="0"
     inkscape:pageshadow="2"
     inkscape:window-width="658"
     inkscape:window-height="480"
     id="namedview3293"
     showgrid="false"
     inkscape:zoom="7.375"
     inkscape:cx="38.644068"
     inkscape:cy="13.830508"
     inkscape:window-x="0"
     inkscape:window-y="0"
     inkscape:window-maximized="0"
     inkscape:current-layer="svg3253" />
  <path
     inkscape:connector-curvature="0"
     id="path3009"
     d="m 4.3464648,25.5 c -0.459044,-0.04704 -0.846465,-0.508065 -0.846465,-1.002016 l 0,-18.9912642 c 0,-0.5268813 0.446022,-1.0067202 0.937622,-1.0067202 l 23.1247562,0 c 0.4916,0 0.937622,0.4798389 0.937622,1.0067202 l 0,16.2350552 c 0,0.526881 -0.718078,1.28348 -1.209678,1.28348 l -8.465029,-0.01481 0,1.324124 c 0,0.522177 -0.411445,1.165426 -0.899787,1.165426 l -13.4878842,0 c -0.0293,0 -0.0586,0 -0.09116,0 z"
     style="fill:#e9a439;fill-opacity:1;stroke:#e9a439;stroke-opacity:1" />
  <path
     inkscape:connector-curvature="0"
     id="path3011"
     d="M 1.5496158,6.4999996 C 0.9804018,6.5470427 0.5,7.0080645 0.5,7.5020157 L 0.5,26.49328 C 0.5,27.020161 1.0530668,27.5 1.6626518,27.5 l 28.6746972,0 C 30.946933,27.5 31.5,27.020161 31.5,26.49328 l 0,-16.235055 C 31.5,9.7313433 30.609584,8.9747445 30,8.9747445 l -10.496636,0.014805 0,-1.3241241 c 0,-0.5221779 -0.510191,-1.1654258 -1.115738,-1.1654258 l -16.7249742,0 c -0.03633,0 -0.07267,0 -0.113036,0 z"
     style="fill:#f5c14e;fill-opacity:1;stroke:#e9a439;stroke-opacity:1" />
  <path
     d="m 14,14 0,1 1,0 0,-1 z"
     id="path3265"
     style="fill:#d0a444;fill-opacity:1"
     inkscape:connector-curvature="0" />
  <path
     d="m 18,14 0,1 1,0 0,1 1,0 0,-1.332031 C 20,14 19.335938,14 19.335938,14 z"
     id="path3267"
     style="fill:#d0a444;fill-opacity:1"
     inkscape:connector-curvature="0" />
  <path
     d="m 16,14 0,1 1,0 0,-1 z"
     id="path3269"
     style="fill:#d0a444;fill-opacity:1"
     inkscape:connector-curvature="0" />
  <path
     d="m 11,16 1,0 0,-1 1,0 0,-1 -1.332031,0 C 11,14 11,14.664062 11,14.664062 z"
     id="path3271"
     style="fill:#d0a444;fill-opacity:1"
     inkscape:connector-curvature="0" />
  <path
     d="m 13,23 0,-1 -1,0 0,-1 -1,0 0,1.332031 C 11,23 11.664062,23 11.664062,23 z"
     id="path3275"
     style="fill:#d0a444;fill-opacity:1"
     inkscape:connector-curvature="0" />
  <path
     d="m 17,23 0,-1 -1,0 0,1 z"
     id="path3277"
     style="fill:#d0a444;fill-opacity:1"
     inkscape:connector-curvature="0" />
  <path
     d="m 15,23 0,-1 -1,0 0,1 z"
     id="path3279"
     style="fill:#d0a444;fill-opacity:1"
     inkscape:connector-curvature="0" />
  <path
     d="m 11,20 1,0 0,-1 -1,0 z"
     id="path3281"
     style="fill:#d0a444;fill-opacity:1"
     inkscape:connector-curvature="0" />
  <path
     d="m 11,18 1,0 0,-1 -1,0 z"
     id="path3283"
     style="fill:#d0a444;fill-opacity:1"
     inkscape:connector-curvature="0" />
  <path
     d="m 20,21 -1,0 0,1 -1,0 0,1 1.332031,0 C 20,23 20,22.335938 20,22.335938 z"
     id="path3287"
     style="fill:#d0a444;fill-opacity:1"
     inkscape:connector-curvature="0" />
  <path
     d="m 20,17 -1,0 0,1 1,0 z"
     id="path3289"
     style="fill:#d0a444;fill-opacity:1"
     inkscape:connector-curvature="0" />
  <path
     d="m 20,19 -1,0 0,1 1,0 z"
     id="path3291"
     style="fill:#d0a444;fill-opacity:1"
     inkscape:connector-curvature="0" />
</svg>
