<?xml version="1.0" encoding="UTF-8" standalone="no"?>
<svg
   xmlns:dc="http://purl.org/dc/elements/1.1/"
   xmlns:cc="http://creativecommons.org/ns#"
   xmlns:rdf="http://www.w3.org/1999/02/22-rdf-syntax-ns#"
   xmlns:svg="http://www.w3.org/2000/svg"
   xmlns="http://www.w3.org/2000/svg"
   xmlns:sodipodi="http://sodipodi.sourceforge.net/DTD/sodipodi-0.dtd"
   xmlns:inkscape="http://www.inkscape.org/namespaces/inkscape"
   width="32"
   height="32"
   viewBox="0 0 32 32"
   id="svg3237"
   version="1.1"
   inkscape:version="0.48.4 r9939"
   sodipodi:docname="folder-system.svg">
  <metadata
     id="metadata3251">
    <rdf:RDF>
      <cc:Work
         rdf:about="">
        <dc:format>image/svg+xml</dc:format>
        <dc:type
           rdf:resource="http://purl.org/dc/dcmitype/StillImage" />
      </cc:Work>
    </rdf:RDF>
  </metadata>
  <defs
     id="defs3249" />
  <sodipodi:namedview
     pagecolor="#ffffff"
     bordercolor="#666666"
     borderopacity="1"
     objecttolerance="10"
     gridtolerance="10"
     guidetolerance="10"
     inkscape:pageopacity="0"
     inkscape:pageshadow="2"
     inkscape:window-width="658"
     inkscape:window-height="480"
     id="namedview3247"
     showgrid="false"
     inkscape:zoom="7.375"
     inkscape:cx="38.644068"
     inkscape:cy="13.830508"
     inkscape:window-x="0"
     inkscape:window-y="0"
     inkscape:window-maximized="0"
     inkscape:current-layer="svg3237" />
  <path
     inkscape:connector-curvature="0"
     id="path3009"
     d="M 4.346465,25.5 C 3.88742,25.452956 3.5,24.991935 3.5,24.497984 L 3.5,5.5067203 C 3.5,4.979839 3.946022,4.5000001 4.437622,4.5000001 l 23.124756,0 c 0.4916,0 0.937622,0.4798389 0.937622,1.0067202 l 0,16.2350547 c 0,0.526881 -0.718078,1.28348 -1.209678,1.28348 l -8.465029,-0.01481 0,1.324124 c 0,0.522177 -0.411445,1.165426 -0.899787,1.165426 l -13.487884,0 c -0.0293,0 -0.0586,0 -0.09116,0 z"
     style="fill:#e9a439;fill-opacity:1;stroke:#e9a439;stroke-opacity:1" />
  <path
     inkscape:connector-curvature="0"
     id="path3011"
     d="M 1.549616,6.5000001 C 0.980401,6.5470432 0.5,7.008065 0.5,7.5020162 L 0.5,26.49328 C 0.5,27.020161 1.053067,27.5 1.662651,27.5 l 28.674698,0 C 30.946933,27.5 31.5,27.020161 31.5,26.49328 l 0,-16.235055 c 0,-0.5268812 -0.890416,-1.28348 -1.5,-1.28348 l -10.496636,0.014805 0,-1.3241241 c 0,-0.5221779 -0.510191,-1.1654258 -1.115738,-1.1654258 l -16.724975,0 c -0.03633,0 -0.07267,0 -0.113035,0 z"
     style="fill:#f5c14e;fill-opacity:1;stroke:#e9a439;stroke-opacity:1" />
  <path
     style="fill:#d0a444;fill-opacity:1"
     d="m 15.213031,13 c -0.278185,0 -0.508784,0.223361 -0.508784,0.497986 l 0,0.648115 c -0.175696,0.05859 -0.344071,0.128157 -0.508785,0.208715 l -0.45022,-0.450385 c -0.197658,-0.197729 -0.512445,-0.197729 -0.706442,0 L 11.9041,15.0249 c -0.197657,0.197729 -0.197657,0.512632 0,0.706701 l 0.45022,0.450383 c -0.08418,0.168437 -0.146413,0.344197 -0.208639,0.523618 l -0.636896,0 C 11.234261,16.705602 11,16.925302 11,17.203588 l 0,1.596485 c 0,0.274625 0.234261,0.497986 0.508785,0.497986 l 0.636896,0 c 0.06223,0.17576 0.124451,0.35152 0.208639,0.519957 L 11.9041,20.2684 c -0.197657,0.19773 -0.197657,0.508971 0,0.706701 l 1.1347,1.120468 c 0.193997,0.19773 0.508784,0.19773 0.706442,0 l 0.45022,-0.450384 c 0.164714,0.08056 0.333089,0.150128 0.508785,0.208715 l 0,0.648114 C 14.704247,22.7803 14.934846,23 15.213031,23 l 1.584919,0 c 0.278185,0 0.497803,-0.2197 0.497803,-0.497986 l 0,-0.648114 c 0.179357,-0.05859 0.355052,-0.124497 0.519767,-0.208715 l 0.453879,0.450384 c 0.193997,0.19773 0.508785,0.19773 0.702782,0 l 1.1347,-1.120468 c 0.197657,-0.19773 0.197657,-0.508971 0,-0.706701 L 19.64568,19.80703 c 0.08053,-0.164774 0.150073,-0.333211 0.208639,-0.508971 l 0.647877,0 C 20.78038,19.298059 21,19.074698 21,18.800073 l 0,-1.596485 c 0,-0.278286 -0.21962,-0.497986 -0.497804,-0.497986 l -0.647877,0 c -0.05857,-0.17576 -0.128112,-0.347858 -0.208639,-0.50897 l 0.461201,-0.465031 c 0.197657,-0.194069 0.197657,-0.508972 0,-0.706701 l -1.1347,-1.120469 c -0.193997,-0.197729 -0.508785,-0.197729 -0.702782,0 l -0.453879,0.450385 c -0.164715,-0.08422 -0.34041,-0.146467 -0.519767,-0.208715 l 0,-0.648115 C 17.295753,13.223361 17.076135,13 16.79795,13 z M 16,16.705602 c 0.713763,0 1.295753,0.578543 1.295753,1.296229 0,0.714025 -0.58199,1.296228 -1.295753,1.296228 -0.713763,0 -1.295753,-0.582203 -1.295753,-1.296228 0,-0.717686 0.58199,-1.296229 1.295753,-1.296229 z"
     id="path3245" />
</svg>
