<?xml version="1.0" encoding="UTF-8" standalone="no"?>
<svg
   xmlns:dc="http://purl.org/dc/elements/1.1/"
   xmlns:cc="http://creativecommons.org/ns#"
   xmlns:rdf="http://www.w3.org/1999/02/22-rdf-syntax-ns#"
   xmlns:svg="http://www.w3.org/2000/svg"
   xmlns="http://www.w3.org/2000/svg"
   xmlns:sodipodi="http://sodipodi.sourceforge.net/DTD/sodipodi-0.dtd"
   xmlns:inkscape="http://www.inkscape.org/namespaces/inkscape"
   width="32"
   height="32"
   viewBox="0 0 32 32"
   id="svg3205"
   version="1.1"
   inkscape:version="0.48.4 r9939"
   sodipodi:docname="folder-recent.svg">
  <metadata
     id="metadata3219">
    <rdf:RDF>
      <cc:Work
         rdf:about="">
        <dc:format>image/svg+xml</dc:format>
        <dc:type
           rdf:resource="http://purl.org/dc/dcmitype/StillImage" />
      </cc:Work>
    </rdf:RDF>
  </metadata>
  <defs
     id="defs3217" />
  <sodipodi:namedview
     pagecolor="#ffffff"
     bordercolor="#666666"
     borderopacity="1"
     objecttolerance="10"
     gridtolerance="10"
     guidetolerance="10"
     inkscape:pageopacity="0"
     inkscape:pageshadow="2"
     inkscape:window-width="658"
     inkscape:window-height="480"
     id="namedview3215"
     showgrid="false"
     inkscape:zoom="7.375"
     inkscape:cx="22.372881"
     inkscape:cy="18.169491"
     inkscape:window-x="0"
     inkscape:window-y="0"
     inkscape:window-maximized="0"
     inkscape:current-layer="svg3205" />
  <path
     inkscape:connector-curvature="0"
     id="path3009"
     d="M 4.346465,25.5 C 3.887421,25.452956 3.5,24.991935 3.5,24.497984 L 3.5,5.5067206 C 3.5,4.9798393 3.946022,4.5000004 4.437622,4.5000004 l 23.124756,0 c 0.4916,0 0.937622,0.4798389 0.937622,1.0067202 l 0,16.2350544 c 0,0.526881 -0.718078,1.28348 -1.209678,1.28348 l -8.465029,-0.01481 0,1.324124 c 0,0.522177 -0.411445,1.165426 -0.899787,1.165426 l -13.487884,0 c -0.0293,0 -0.0586,0 -0.09116,0 z"
     style="fill:#e9a439;fill-opacity:1;stroke:#e9a439;stroke-opacity:1" />
  <path
     inkscape:connector-curvature="0"
     id="path3011"
     d="M 1.549616,6.5000004 C 0.980401,6.5470434 0.5,7.0080653 0.5,7.5020165 L 0.5,26.49328 C 0.5,27.020161 1.053067,27.5 1.662652,27.5 l 28.674697,0 C 30.946933,27.5 31.5,27.020161 31.5,26.49328 l 0,-16.235055 C 31.5,9.7313441 30.609584,8.9747453 30,8.9747453 l -10.496636,0.014805 0,-1.3241241 c 0,-0.5221779 -0.510191,-1.1654258 -1.115738,-1.1654258 l -16.724974,0 c -0.03633,0 -0.07267,0 -0.113036,0 z"
     style="fill:#f5c14e;fill-opacity:1;stroke:#e9a439;stroke-opacity:1" />
  <path
     style="fill:#d0a444;fill-opacity:1"
     d="m 11.62271,13 0,3.12706 3.128206,0 -1.076924,-1.076529 C 14.315018,14.548883 15.124542,14.252289 16,14.252289 c 2.073261,0 3.750916,1.677041 3.750916,3.749542 0,2.068839 -1.677655,3.749542 -3.750916,3.749542 -2.073261,0 -3.750916,-1.680703 -3.750916,-3.749542 0,-0.439399 0.07692,-0.860491 0.216118,-1.252289 l -1.311356,0 C 11.051282,17.148663 11,17.569755 11,18.001831 11,20.762724 13.238096,23 16,23 18.761904,23 21,20.762724 21,18.001831 21,15.240937 18.761904,13 16,13 c -1.223444,0 -2.355312,0.424753 -3.223443,1.153424 z m 4.318682,1.856463 c -0.02564,0.0037 -0.05128,0.01098 -0.07692,0.01831 -0.29304,0.06591 -0.498168,0.32955 -0.490843,0.626145 l 0,2.303185 c 0,0.02197 0,0.04028 0,0.05859 -0.03663,0.161113 -0.0073,0.32955 0.08059,0.468692 0.0037,0.0073 0.01099,0.01465 0.01831,0.02197 0.0073,0.01099 0.01099,0.02563 0.01831,0.03662 0.0073,0.0073 0.01466,0.01465 0.02198,0.02197 0.0037,0.0037 0.01099,0.01099 0.01831,0.01831 0.0073,0.0073 0.01466,0.01465 0.01831,0.01831 0.0073,0.0073 0.01466,0.01465 0.02198,0.02197 0.01099,0.0073 0.02564,0.01098 0.03663,0.01831 0.0073,0.0073 0.01466,0.01465 0.02198,0.01831 0.0037,0.0073 0.01099,0.01465 0.01831,0.02197 0.01099,0.0073 0.02564,0.01098 0.04029,0.01831 0.02564,0.01465 0.05128,0.02929 0.07692,0.04028 l 1.542124,0.897107 c 0.30403,0.172099 0.688645,0.06591 0.860806,-0.234346 0.172162,-0.300256 0.06593,-0.688393 -0.234432,-0.860491 l -1.307692,-0.761626 0,-2.127425 c 0.0037,-0.179422 -0.06593,-0.355181 -0.197803,-0.476016 -0.131868,-0.124497 -0.307692,-0.186745 -0.487179,-0.168437 z"
     id="path3213" />
</svg>
