<?xml version="1.0" encoding="UTF-8" standalone="no"?>
<svg
   xmlns:dc="http://purl.org/dc/elements/1.1/"
   xmlns:cc="http://creativecommons.org/ns#"
   xmlns:rdf="http://www.w3.org/1999/02/22-rdf-syntax-ns#"
   xmlns:svg="http://www.w3.org/2000/svg"
   xmlns="http://www.w3.org/2000/svg"
   xmlns:sodipodi="http://sodipodi.sourceforge.net/DTD/sodipodi-0.dtd"
   xmlns:inkscape="http://www.inkscape.org/namespaces/inkscape"
   width="32"
   height="32"
   viewBox="0 0 32 32"
   id="svg2995"
   version="1.1"
   inkscape:version="0.48.5 r10040"
   sodipodi:docname="folder-download.svg">
  <metadata
     id="metadata3019">
    <rdf:RDF>
      <cc:Work
         rdf:about="">
        <dc:format>image/svg+xml</dc:format>
        <dc:type
           rdf:resource="http://purl.org/dc/dcmitype/StillImage" />
      </cc:Work>
    </rdf:RDF>
  </metadata>
  <defs
     id="defs3017" />
  <sodipodi:namedview
     pagecolor="#ffffff"
     bordercolor="#666666"
     borderopacity="1"
     objecttolerance="10"
     gridtolerance="10"
     guidetolerance="10"
     inkscape:pageopacity="0"
     inkscape:pageshadow="2"
     inkscape:window-width="672"
     inkscape:window-height="480"
     id="namedview3015"
     showgrid="false"
     inkscape:zoom="7.375"
     inkscape:cx="16"
     inkscape:cy="16"
     inkscape:window-x="0"
     inkscape:window-y="0"
     inkscape:window-maximized="0"
     inkscape:current-layer="svg2995" />
  <path
     style="font-size:medium;font-style:normal;font-variant:normal;font-weight:normal;font-stretch:normal;text-indent:0;text-align:start;text-decoration:none;line-height:normal;letter-spacing:normal;word-spacing:normal;text-transform:none;direction:ltr;block-progression:tb;writing-mode:lr-tb;text-anchor:start;baseline-shift:baseline;color:#000000;fill:#e9b080;fill-opacity:1;fill-rule:nonzero;stroke:none;stroke-width:1;marker:none;visibility:visible;display:inline;overflow:visible;enable-background:accumulate;font-family:Sans;-inkscape-font-specification:Sans"
     d="m 3.9999998,4.0000005 c -0.4916,0 -1,0.4731187 -1,1 l 0,1 c -0.666666,0 -0.833333,0 -1.4999998,0 -0.9791617,0 -1.5,0.4940342 -1.5,1.5 L 0,26.5 C 0,27.531461 0.5230687,28 1.5,28 l 28.84375,0 C 31.21572,28 32,27.376781 32,26.5 L 32,9.5000005 c 0,-0.9413229 -0.425107,-1.5 -1.5,-1.5 l -2.5,0 0,-3 c 0,-0.5268813 -0.5084,-1 -1,-1 z"
     id="path3004"
     inkscape:connector-curvature="0"
     sodipodi:nodetypes="ssccssssscccsss" />
  <path
     style="font-size:medium;font-style:normal;font-variant:normal;font-weight:normal;font-stretch:normal;text-indent:0;text-align:start;text-decoration:none;line-height:normal;letter-spacing:normal;word-spacing:normal;text-transform:none;direction:ltr;block-progression:tb;writing-mode:lr-tb;text-anchor:start;baseline-shift:baseline;color:#000000;fill:#000000;fill-opacity:0.32156863;fill-rule:nonzero;stroke:none;stroke-width:1;marker:none;visibility:visible;display:inline;overflow:visible;enable-background:accumulate;font-family:Sans;-inkscape-font-specification:Sans"
     d="m 3.9999998,4.0000005 c -0.4916,0 -1,0.4731186 -1,1 l 0,1 c -0.686803,0 -0.883535,0 -1.4999998,0 -0.9791617,0 -1.5,0.4829856 -1.5,1.5 L 0,26.5 C 0,27.503839 0.5009716,28 1.5,28 l 28.84375,0 C 31.21572,28 32,27.376781 32,26.5 L 32,9.5517772 C 32,8.5377945 31.580916,8.0000005 30.5,8.0000005 l -2.5,0 0,-3 c 0,-0.5268814 -0.5084,-1 -1,-1 z m 15.0000002,3 0,2 12,0 L 31,27 1,27 1,7.0000005 z"
     id="path3784"
     inkscape:connector-curvature="0"
     sodipodi:nodetypes="ssccssssscccsssccccccc" />
  <path
     inkscape:connector-curvature="0"
     id="path3005"
     d="m 12.835771,18.001324 c -0.220784,0.01025 -0.427937,0.09482 -0.583525,0.231909 -0.311177,0.274184 -0.340302,0.740236 -0.05471,1.03467 l 2.625862,2.497481 c 0.184962,0.158475 0.45239,0.252033 0.711171,0.231909 0.210444,-0.01315 0.414791,-0.10348 0.56529,-0.231909 l 2.625863,-2.408285 c 0.166405,-0.139769 0.266849,-0.334201 0.273526,-0.535174 0.01554,-0.31509 -0.212688,-0.626249 -0.547054,-0.749244 -0.334366,-0.122995 -0.753184,-0.05055 -1.002934,0.178391 L 15.4981,19.96363 13.455762,18.161876 c -0.171538,-0.121894 -0.399211,-0.170808 -0.619995,-0.160552 z"
     style="line-height:normal;color:#000000;fill:#000000;fill-opacity:0.32156864" />
  <path
     style="line-height:normal;color:#000000;fill:#000000;fill-opacity:0.32156864"
     inkscape:connector-curvature="0"
     id="path3009"
     d="m 15.49997,13 c -0.261491,0 -0.499706,0.265874 -0.499706,0.562414 l 0,2.853733 c -0.0093,0.302562 0.232743,0.584808 0.499706,0.583243 0.01514,8.13e-4 0.03175,8.13e-4 0.04685,0 0.251517,-0.02462 0.462629,-0.297172 0.452859,-0.583243 l 0,-2.853733 C 15.999679,13.265874 15.761464,13 15.499973,13 z" />
  <path
     style="line-height:normal;color:#000000;fill:#000000;fill-opacity:0.32156864"
     inkscape:connector-curvature="0"
     id="path3011"
     d="m 13.500004,15 c -0.28405,0 -0.536918,0.209029 -0.49554,0.405967 l 0,1.233513 c -0.01121,0.197783 0.260872,0.378258 0.541996,0.359124 0.24581,-0.02018 0.459425,-0.185836 0.449084,-0.359124 l 0,-1.233513 C 14.036924,15.209029 13.784053,15 13.500004,15 z" />
  <path
     style="line-height:normal;color:#000000;fill:#000000;fill-opacity:0.32156864"
     inkscape:connector-curvature="0"
     id="path3013"
     d="m 17.500004,15 c -0.28405,0 -0.536918,0.209029 -0.49554,0.405967 l 0,1.233513 c -0.01121,0.197783 0.260872,0.378258 0.541996,0.359124 0.24581,-0.02018 0.459425,-0.185836 0.449084,-0.359124 l 0,-1.233513 C 18.036924,15.209029 17.784053,15 17.500004,15 z" />
</svg>
