<?xml version="1.0" encoding="UTF-8" standalone="no"?>
<!-- Created with Inkscape (http://www.inkscape.org/) -->

<svg
   xmlns:dc="http://purl.org/dc/elements/1.1/"
   xmlns:cc="http://creativecommons.org/ns#"
   xmlns:rdf="http://www.w3.org/1999/02/22-rdf-syntax-ns#"
   xmlns:svg="http://www.w3.org/2000/svg"
   xmlns="http://www.w3.org/2000/svg"
   xmlns:sodipodi="http://sodipodi.sourceforge.net/DTD/sodipodi-0.dtd"
   xmlns:inkscape="http://www.inkscape.org/namespaces/inkscape"
   width="16"
   height="16"
   id="svg2"
   version="1.1"
   inkscape:version="0.91 r"
   sodipodi:docname="orange-document-open.svg"
   inkscape:export-filename="/media/Data/Main/Visuals/Icons/Numix/Desktop/repos/numix-wiki/Gjorgi/Numix-folders/48/New/folder-144.png"
   inkscape:export-xdpi="270"
   inkscape:export-ydpi="270">
  <defs
     id="defs4" />
  <sodipodi:namedview
     id="base"
     pagecolor="#ffffff"
     bordercolor="#666666"
     borderopacity="1.0"
     inkscape:pageopacity="0.0"
     inkscape:pageshadow="2"
     inkscape:zoom="31.996777"
     inkscape:cx="9.4513433"
     inkscape:cy="8.4314566"
     inkscape:document-units="px"
     inkscape:current-layer="layer1"
     showgrid="true"
     inkscape:window-width="1280"
     inkscape:window-height="998"
     inkscape:window-x="0"
     inkscape:window-y="0"
     inkscape:window-maximized="1"
     showguides="true"
     inkscape:guide-bbox="true">
    <inkscape:grid
       type="xygrid"
       id="grid2985"
       empspacing="5"
       visible="true"
       enabled="true"
       snapvisiblegridlinesonly="true" />
  </sodipodi:namedview>
  <metadata
     id="metadata7">
    <rdf:RDF>
      <cc:Work
         rdf:about="">
        <dc:format>image/svg+xml</dc:format>
        <dc:type
           rdf:resource="http://purl.org/dc/dcmitype/StillImage" />
        <dc:title />
      </cc:Work>
    </rdf:RDF>
  </metadata>
  <g
     inkscape:label="Layer 1"
     inkscape:groupmode="layer"
     id="layer1"
     transform="translate(0,-1036.3622)">
    <rect
       style="fill:#7a7a68;fill-opacity:1;stroke:none"
       id="rect3863"
       width="8"
       height="1.0000174"
       x="4"
       y="1041.3622" />
    <path
       style="fill:none;stroke:none"
       d="m 11,1037.8622 -2.5,1.5 1.5,0 z"
       id="path3801"
       inkscape:connector-curvature="0" />
    <rect
       style="fill:#e65100;fill-opacity:1;stroke:none"
       id="rect2987-5"
       width="14"
       height="9.9999599"
       x="1"
       y="1040.3622"
       rx="1.521739"
       ry="1.5624928" />
    <rect
       style="fill:#eae7d1;fill-opacity:1;stroke:none"
       id="rect3794"
       width="12"
       height="9"
       x="2"
       y="1038.3622" />
    <path
       style="opacity:0.2;fill:#ffffff;fill-opacity:1;stroke:none"
       d="M 2.521739,1040.3622 C 1.678696,1040.3622 1,1041.0518 1,1041.9086 l 0,0.6185 c 0,-0.8567 0.678696,-1.1649 1.521739,-1.1649 l 10.956522,0 c 0.843043,0 1.521739,0.3082 1.521739,1.1649 l 0,-0.6185 c 0,-0.8568 -0.678696,-1.5464 -1.521739,-1.5464 z"
       id="rect3797"
       inkscape:connector-curvature="0"
       sodipodi:nodetypes="sscsscsss" />
    <rect
       style="fill:#7a7a68;fill-opacity:1;stroke:none"
       id="rect3794-3"
       width="8"
       height="1.0000174"
       x="4"
       y="1039.3622" />
    <rect
       y="1041.3622"
       x="4"
       height="1.0000174"
       width="8"
       id="rect3861"
       style="fill:#7a7a68;fill-opacity:1;stroke:none" />
    <rect
       y="1043.3622"
       x="4"
       height="1.0000174"
       width="8"
       id="rect3861-4"
       style="fill:#7a7a68;fill-opacity:1;stroke:none" />
    <path
       style="fill:#f57c00;fill-opacity:1;stroke:none"
       d="m 2.521739,1045.3619 2.434783,0 c 3.347826,-0.3333 2.73913,-4 4.869565,-4 l 3.652174,0 c 0.843043,0 1.521739,0.7434 1.521739,1.6667 l 0,5.667 c 0,0.9233 -0.678696,1.6666 -1.521739,1.6666 l -10.956522,0 C 1.678696,1050.3622 1,1049.6189 1,1048.6956 l 0,-1.667 c 0,-1 0.608696,-1.6667 1.521739,-1.6667 z"
       id="rect3776"
       inkscape:connector-curvature="0"
       sodipodi:nodetypes="cccsssssscc" />
    <path
       style="opacity:0.15;fill:#000000;fill-opacity:1;stroke:none"
       d="m 1,1048.0289 0,0.6667 c 0,0.9233 0.678696,1.6666 1.521739,1.6666 l 10.956522,0 c 0.843043,0 1.521739,-0.7433 1.521739,-1.6666 l 0,-0.6667 c 0,0.9233 -0.678696,1.3333 -1.521739,1.3333 l -10.956522,0 C 1.678696,1049.3622 1,1048.9522 1,1048.0289 z"
       id="path3786"
       inkscape:connector-curvature="0"
       sodipodi:nodetypes="csssscssc" />
  </g>
</svg>
