<?xml version="1.0" encoding="UTF-8" standalone="no"?>
<svg
   xmlns:dc="http://purl.org/dc/elements/1.1/"
   xmlns:cc="http://creativecommons.org/ns#"
   xmlns:rdf="http://www.w3.org/1999/02/22-rdf-syntax-ns#"
   xmlns:svg="http://www.w3.org/2000/svg"
   xmlns="http://www.w3.org/2000/svg"
   xmlns:sodipodi="http://sodipodi.sourceforge.net/DTD/sodipodi-0.dtd"
   xmlns:inkscape="http://www.inkscape.org/namespaces/inkscape"
   width="48"
   viewBox="0 0 48 48"
   height="48"
   id="svg2"
   version="1.1"
   inkscape:version="0.48.5 r10040"
   sodipodi:docname="folder-move.svg">
  <metadata
     id="metadata26">
    <rdf:RDF>
      <cc:Work
         rdf:about="">
        <dc:format>image/svg+xml</dc:format>
        <dc:type
           rdf:resource="http://purl.org/dc/dcmitype/StillImage" />
      </cc:Work>
    </rdf:RDF>
  </metadata>
  <defs
     id="defs24" />
  <sodipodi:namedview
     pagecolor="#ffffff"
     bordercolor="#666666"
     borderopacity="1"
     objecttolerance="10"
     gridtolerance="10"
     guidetolerance="10"
     inkscape:pageopacity="0"
     inkscape:pageshadow="2"
     inkscape:window-width="1280"
     inkscape:window-height="969"
     id="namedview22"
     showgrid="true"
     inkscape:zoom="9.8333333"
     inkscape:cx="-5.9800363"
     inkscape:cy="15.423602"
     inkscape:window-x="0"
     inkscape:window-y="0"
     inkscape:window-maximized="1"
     inkscape:current-layer="svg2">
    <inkscape:grid
       type="xygrid"
       id="grid3012" />
  </sodipodi:namedview>
  <path
     style="font-size:medium;font-style:normal;font-variant:normal;font-weight:normal;font-stretch:normal;text-indent:0;text-align:start;text-decoration:none;line-height:normal;letter-spacing:normal;word-spacing:normal;text-transform:none;direction:ltr;block-progression:tb;writing-mode:lr-tb;text-anchor:start;baseline-shift:baseline;color:replacecolour2;fill:replacecolour1;fill-opacity:1;fill-rule:nonzero;stroke:none;stroke-width:1;marker:none;visibility:visible;display:inline;overflow:visible;enable-background:accumulate;font-family:Sans;-inkscape-font-specification:Sans;opacity:0.5"
     d="m 5,6.000001 c -1,0 -2,1 -2,2 l -0.40678,0 -0.59322,0 c -1,0 -2.005569,0.949207 -2,2 l 0,15 c 1.28e-4,1.120734 1.037763,1.9999 2.1875,2 l 23.625,0 c 1.1875,0 2.1875,-1 2.1875,-2 L 28,12 c 0,-1 -1,-2 -2,-2 l -2,0 0,-1.999999 c 0,-1.000001 -1,-2 -2,-2 z"
     id="path3770-1"
     inkscape:connector-curvature="0"
     sodipodi:nodetypes="sccsccccccccsss" />
  <path
     inkscape:connector-curvature="0"
     style="font-size:medium;font-style:normal;font-variant:normal;font-weight:normal;font-stretch:normal;text-indent:0;text-align:start;text-decoration:none;line-height:normal;letter-spacing:normal;word-spacing:normal;text-transform:none;direction:ltr;block-progression:tb;writing-mode:lr-tb;text-anchor:start;baseline-shift:baseline;color:replacecolour2;fill:replacecolour2;fill-opacity:1.;fill-rule:nonzero;stroke:none;stroke-width:1;marker:none;visibility:visible;display:inline;overflow:visible;enable-background:accumulate;font-family:Sans;-inkscape-font-specification:Sans;opacity:0.5"
     d="m 5,6.000001 c -1,0 -2,1 -2,2 l -0.470339,0 -0.529661,0 c -1,0 -2.005569,0.949207 -2,2 l 0,15 c 1.28e-4,1.120734 1.037763,1.9999 2.1875,2 l 23.625,0 C 27,27 28,26.000001 28,25.000001 L 28,12 c 0,-1 -1,-2 -2,-2 l -2,0 0,-1.999999 c 0,-1.000001 -1,-2 -2,-2 z m -3,3 L 16,9 c 0.507314,0 1,0.494167 1,1 l 0,1 9,0 c 0.540858,0 1,0.471809 1,1 l 0,13.000001 c 0,0.553754 -0.452115,0.999999 -1,1 l -24,0 c -0.512726,0 -1,-0.446246 -1,-1 l 0,-15 c 0,-0.543318 0.479042,-1 1,-1 z"
     id="path3779-8"
     sodipodi:nodetypes="sccscccsssscsssssscssssssss" />
  <path
     style="font-size:medium;font-style:normal;font-variant:normal;font-weight:normal;font-stretch:normal;text-indent:0;text-align:start;text-decoration:none;line-height:normal;letter-spacing:normal;word-spacing:normal;text-transform:none;direction:ltr;block-progression:tb;writing-mode:lr-tb;text-anchor:start;baseline-shift:baseline;color:replacecolour2;fill:replacecolour1;fill-opacity:1;fill-rule:nonzero;stroke:none;stroke-width:1;marker:none;visibility:visible;display:inline;overflow:visible;enable-background:accumulate;font-family:Sans;-inkscape-font-specification:Sans"
     d="m 25,21 c -1,0 -2,1 -2,2 L 22.59322,23 22,23 c -1,0 -2.005569,0.949207 -2,2 l 0,15 c 1.28e-4,1.120734 1.037763,1.9999 2.1875,2 l 23.625,0 C 47,42 48,41 48,40 l 0,-13.000001 c 0,-1 -1,-2 -2,-2 l -2,0 L 44,23 c 0,-1.000001 -1,-2 -2,-2 z"
     id="path3770"
     inkscape:connector-curvature="0"
     sodipodi:nodetypes="sccsccccccccsss" />
  <path
     inkscape:connector-curvature="0"
     style="font-size:medium;font-style:normal;font-variant:normal;font-weight:normal;font-stretch:normal;text-indent:0;text-align:start;text-decoration:none;line-height:normal;letter-spacing:normal;word-spacing:normal;text-transform:none;direction:ltr;block-progression:tb;writing-mode:lr-tb;text-anchor:start;baseline-shift:baseline;color:replacecolour2;fill:replacecolour2;fill-opacity:1.;fill-rule:nonzero;stroke:none;stroke-width:1;marker:none;visibility:visible;display:inline;overflow:visible;enable-background:accumulate;font-family:Sans;-inkscape-font-specification:Sans"
     d="m 25,21 c -1,0 -2,1 -2,2 L 22.529661,23 22,23 c -1,0 -2.005569,0.949207 -2,2 l 0,15 c 1.28e-4,1.120734 1.037763,1.9999 2.1875,2 l 23.625,0 C 47,41.999999 48,41 48,40 l 0,-13.000001 c 0,-1 -1,-2 -2,-2 l -2,0 L 44,23 c 0,-1.000001 -1,-2 -2,-2 z m -3,3 14,-1e-6 c 0.507314,0 1,0.494167 1,1 l 0,1 9,0 c 0.540858,0 1,0.471809 1,1 L 47,40 c 0,0.553754 -0.452115,0.999999 -1,1 l -24,0 c -0.512726,0 -1,-0.446246 -1,-1 l 0,-15 c 0,-0.543318 0.479042,-1 1,-1 z"
     id="path3779"
     sodipodi:nodetypes="sccscccsssscsssssscssssssss" />
</svg>
