<?xml version="1.0" encoding="UTF-8" standalone="no"?>
<!-- Created with Inkscape (http://www.inkscape.org/) -->

<svg
   xmlns:dc="http://purl.org/dc/elements/1.1/"
   xmlns:cc="http://creativecommons.org/ns#"
   xmlns:rdf="http://www.w3.org/1999/02/22-rdf-syntax-ns#"
   xmlns:svg="http://www.w3.org/2000/svg"
   xmlns="http://www.w3.org/2000/svg"
   xmlns:sodipodi="http://sodipodi.sourceforge.net/DTD/sodipodi-0.dtd"
   xmlns:inkscape="http://www.inkscape.org/namespaces/inkscape"
   width="48"
   height="48"
   id="svg2"
   version="1.1"
   inkscape:version="0.91 r"
   sodipodi:docname="default-folder-steam.svg">
  <defs
     id="defs4" />
  <sodipodi:namedview
     id="base"
     pagecolor="#ffffff"
     bordercolor="#666666"
     borderopacity="1.0"
     inkscape:pageopacity="0.0"
     inkscape:pageshadow="2"
     inkscape:zoom="8.8150003"
     inkscape:cx="22.768537"
     inkscape:cy="34.056709"
     inkscape:document-units="px"
     inkscape:current-layer="layer1"
     showgrid="true"
     inkscape:window-width="1280"
     inkscape:window-height="998"
     inkscape:window-x="0"
     inkscape:window-y="0"
     inkscape:window-maximized="1">
    <inkscape:grid
       type="xygrid"
       id="grid2990"
       empspacing="5"
       visible="true"
       enabled="true"
       snapvisiblegridlinesonly="true" />
  </sodipodi:namedview>
  <metadata
     id="metadata7">
    <rdf:RDF>
      <cc:Work
         rdf:about="">
        <dc:format>image/svg+xml</dc:format>
        <dc:type
           rdf:resource="http://purl.org/dc/dcmitype/StillImage" />
        <dc:title />
      </cc:Work>
    </rdf:RDF>
  </metadata>
  <g
     inkscape:label="Body"
     inkscape:groupmode="layer"
     id="layer1"
     transform="translate(0,-1004.3622)">
    <path
       style="font-size:medium;font-style:normal;font-variant:normal;font-weight:normal;font-stretch:normal;text-indent:0;text-align:start;text-decoration:none;line-height:normal;letter-spacing:normal;word-spacing:normal;text-transform:none;direction:ltr;block-progression:tb;writing-mode:lr-tb;text-anchor:start;baseline-shift:baseline;color:#000000;fill:#e9b080;fill-opacity:1;fill-rule:nonzero;stroke:none;stroke-width:1;marker:none;visibility:visible;display:inline;overflow:visible;enable-background:accumulate;font-family:Sans;-inkscape-font-specification:Sans"
       d="m 6.000023,1010.3622 c -1,0 -2,1 -2,2 l 0,2 -1,0 c -1,0 -2.00556897,0.9492 -2,2 l 0,28 c 1.28e-4,1.1207 1.037763,1.9999 2.1875,2 l 41.625,0 c 1.1875,0 2.1875,-1 2.1875,-2 l 0,-25 c 0,-1 -1,-2 -2,-2 l -2,0 0,-5 c 0,-1 -1,-2 -2,-2 z"
       id="path3770"
       inkscape:connector-curvature="0"
       sodipodi:nodetypes="sscsccccccccsss" />
    <path
       inkscape:connector-curvature="0"
       style="font-size:medium;font-style:normal;font-variant:normal;font-weight:normal;font-stretch:normal;text-indent:0;text-align:start;text-decoration:none;line-height:normal;letter-spacing:normal;word-spacing:normal;text-transform:none;direction:ltr;block-progression:tb;writing-mode:lr-tb;text-anchor:start;baseline-shift:baseline;color:#000000;fill:#000000;fill-opacity:0.32156863;fill-rule:nonzero;stroke:none;stroke-width:1;marker:none;visibility:visible;display:inline;overflow:visible;enable-background:accumulate;font-family:Sans;-inkscape-font-specification:Sans"
       d="m 6.000023,1010.3622 c -1,0 -2,1 -2,2 l 0,2 -1,0 c -1,0 -2.00556897,0.9492 -2,2 l 0,28 c 1.28e-4,1.1207 1.037763,1.9999 2.1875,2 l 41.625,0 c 1.1875,0 2.1875,-1 2.1875,-2 l 0,-25 c 0,-1 -1,-2 -2,-2 l -2,0 0,-5 c 0,-1 -1,-2 -2,-2 l -35,0 z m -3,5 24,0 c 0.507314,0 1,0.4942 1,1 l 0,2 17,0 c 0.540858,0 1,0.4718 1,1 l 0,25 c 0,0.5538 -0.452115,1 -1,1 l -42,0 c -0.512726,0 -1,-0.4462 -1,-1 l 0,-28 c 0,-0.5433 0.479042,-1 1,-1 z"
       id="path3779" />
    <path
       style="fill:#000000;fill-opacity:0.32156863;fill-rule:nonzero;stroke:none"
       d="M 29.0625 19.625 C 26.896353 19.625 25.125 21.3448 25.125 23.4375 C 25.125 24.1344 25.344206 24.779261 25.6875 25.34375 L 25.6875 29.46875 C 25.25404 29.555297 24.86827 29.743392 24.53125 30 L 20.625 28.3125 C 20.625 26.8199 19.359056 25.59375 17.8125 25.59375 C 16.268713 25.59375 15 26.8192 15 28.3125 C 15 29.8078 16.268021 31.03125 17.8125 31.03125 C 18.448626 31.03125 19.026929 30.817338 19.5 30.46875 L 23.4375 32.1875 C 23.473553 33.653196 24.727924 34.84375 26.25 34.84375 C 27.796556 34.84375 29.0625 33.6203 29.0625 32.125 C 29.0625 31.515595 28.85429 30.955068 28.5 30.5 L 30.59375 26.9375 L 30.625 26.9375 C 32.022768 26.350536 33 24.997847 33 23.4375 C 33 21.3468 31.225879 19.625 29.0625 19.625 z M 29.0625 20.90625 C 30.517675 20.90625 31.6875 22.0315 31.6875 23.4375 C 31.6875 24.8463 30.516983 25.96875 29.0625 25.96875 C 27.605249 25.96875 26.4375 24.8463 26.4375 23.4375 C 26.4375 22.0315 27.605249 20.90625 29.0625 20.90625 z M 29.0625 21.78125 C 28.132074 21.78125 27.375 22.50285 27.375 23.40625 C 27.375 24.30625 28.132074 25.0625 29.0625 25.0625 C 29.995695 25.0625 30.75 24.30695 30.75 23.40625 C 30.75 22.50355 29.995695 21.78125 29.0625 21.78125 z M 17.8125 26.6875 C 18.73498 26.6875 19.27003 27.053991 19.4375 27.78125 L 18.4375 27.34375 C 17.799217 27.08145 17.051932 27.3801 16.78125 28 C 16.510568 28.6168 16.799218 29.3029 17.4375 29.5625 L 18.21875 29.9375 C 18.0955 29.954489 17.953379 29.9375 17.8125 29.9375 C 16.687543 29.9375 16.125 29.4021 16.125 28.3125 C 16.125 27.2256 16.687543 26.6875 17.8125 26.6875 z M 26.25 30.3125 C 27.291191 30.3125 28.125 31.1191 28.125 32.125 C 28.125 33.1309 27.291191 33.9375 26.25 33.9375 C 25.38686 33.9375 24.655694 33.389332 24.4375 32.625 L 25.8125 33.21875 C 26.450783 33.48115 27.198068 33.1823 27.46875 32.5625 C 27.739432 31.9457 27.419532 31.22835 26.78125 30.96875 L 25.59375 30.4375 C 25.80018 30.362437 26.015029 30.3125 26.25 30.3125 z "
       transform="translate(0,1004.3622)"
       id="path3447" />
  </g>
</svg>
