<?xml version="1.0" encoding="UTF-8" standalone="no"?>
<svg
   xmlns:dc="http://purl.org/dc/elements/1.1/"
   xmlns:cc="http://creativecommons.org/ns#"
   xmlns:rdf="http://www.w3.org/1999/02/22-rdf-syntax-ns#"
   xmlns:svg="http://www.w3.org/2000/svg"
   xmlns="http://www.w3.org/2000/svg"
   xmlns:xlink="http://www.w3.org/1999/xlink"
   xmlns:sodipodi="http://sodipodi.sourceforge.net/DTD/sodipodi-0.dtd"
   xmlns:inkscape="http://www.inkscape.org/namespaces/inkscape"
   viewBox="0 0 48 48"
   id="svg3062"
   version="1.1"
   inkscape:version="0.91 r"
   width="100%"
   height="100%"
   sodipodi:docname="athena.svg">
  <metadata
     id="metadata3145">
    <rdf:RDF>
      <cc:Work
         rdf:about="">
        <dc:format>image/svg+xml</dc:format>
        <dc:type
           rdf:resource="http://purl.org/dc/dcmitype/StillImage" />
      </cc:Work>
    </rdf:RDF>
  </metadata>
  <sodipodi:namedview
     pagecolor="#ffffff"
     bordercolor="#666666"
     borderopacity="1"
     objecttolerance="10"
     gridtolerance="10"
     guidetolerance="10"
     inkscape:pageopacity="0"
     inkscape:pageshadow="2"
     inkscape:window-width="1280"
     inkscape:window-height="998"
     id="namedview3143"
     showgrid="false"
     inkscape:zoom="9.8333331"
     inkscape:cx="21.553195"
     inkscape:cy="25.479767"
     inkscape:window-x="0"
     inkscape:window-y="0"
     inkscape:window-maximized="1"
     inkscape:current-layer="svg3062" />
  <defs
     id="defs3064">
    <linearGradient
       id="linearGradient3764"
       x1="1"
       x2="47"
       gradientUnits="userSpaceOnUse"
       gradientTransform="matrix(0,-1,1,0,-1.5e-6,47.999998)">
      <stop
         stop-color="#b44732"
         stop-opacity="1"
         id="stop3067" />
      <stop
         offset="1"
         stop-color="#c44e36"
         stop-opacity="1"
         id="stop3069" />
    </linearGradient>
    <linearGradient
       inkscape:collect="always"
       xlink:href="#linearGradient3764"
       id="linearGradient5286"
       gradientUnits="userSpaceOnUse"
       gradientTransform="translate(-48.000001,0.00221547)"
       x1="1"
       x2="47" />
  </defs>
  <g
     id="g21">
    <path
       style="opacity:0.02000002"
       inkscape:connector-curvature="0"
       d="m 1,43 0,0.25 c 0,2.216 1.784,4 4,4 l 38,0 c 2.216,0 4,-1.784 4,-4 L 47,43 c 0,2.216 -1.784,4 -4,4 L 5,47 C 2.784,47 1,45.216 1,43 z m 0,0.5 0,0.5 c 0,2.216 1.784,4 4,4 l 38,0 c 2.216,0 4,-1.784 4,-4 l 0,-0.5 c 0,2.216 -1.784,4 -4,4 l -38,0 c -2.216,0 -4,-1.784 -4,-4 z"
       id="path23" />
    <path
       style="opacity:0.05"
       inkscape:connector-curvature="0"
       d="m 1,43.25 0,0.25 c 0,2.216 1.784,4 4,4 l 38,0 c 2.216,0 4,-1.784 4,-4 l 0,-0.25 c 0,2.216 -1.784,4 -4,4 l -38,0 c -2.216,0 -4,-1.784 -4,-4 z"
       id="path25" />
    <path
       style="opacity:0.1"
       inkscape:connector-curvature="0"
       d="m 1,43 0,0.25 c 0,2.216 1.784,4 4,4 l 38,0 c 2.216,0 4,-1.784 4,-4 L 47,43 c 0,2.216 -1.784,4 -4,4 L 5,47 C 2.784,47 1,45.216 1,43 z"
       id="path27" />
  </g>
  <rect
     id="rect31"
     transform="matrix(0,-1,1,0,0,0)"
     rx="4"
     y="1"
     x="-47"
     height="46"
     width="46"
     style="fill:url(#linearGradient5286);fill-opacity:1.0" />
  <g
     id="g53">
    <g
       transform="translate(0,-1004.3622)"
       id="g55">
      <path
         style="opacity:0.1"
         inkscape:connector-curvature="0"
         d="m 1,1043.36 0,4 c 0,2.216 1.784,4 4,4 l 38,0 c 2.216,0 4,-1.784 4,-4 l 0,-4 c 0,2.216 -1.784,4 -4,4 l -38,0 c -2.216,0 -4,-1.784 -4,-4 z"
         id="path57" />
    </g>
  </g>
  <path
     inkscape:connector-curvature="0"
     style="fill:#000000;fill-opacity:0.10196078;stroke:none"
     d="m 15,13 c -1,0 -1,1 -1,2 l 0,0.25 0,0.75 0,2 c -0.1939,0 -0.385453,0.01149 -0.5625,0.0625 -0.05562,0.0153 -0.104073,0.04268 -0.15625,0.0625 -0.05622,0.02145 -0.102627,0.06751 -0.15625,0.09375 -0.06221,0.03122 -0.13019,0.05597 -0.1875,0.09375 -0.128371,0.08029 -0.237257,0.174757 -0.34375,0.28125 C 12.471139,18.716361 12.368698,18.848821 12.28125,19 12.11087,19.294551 12,19.633901 12,20 l 0,12 c 0,1.108 0.892,2 2,2 l 20,0 c 1.108,0 2,-0.892 2,-2 L 36,20 C 36,19.633901 35.88913,19.294551 35.71875,19 35.6313,18.848821 35.528861,18.716361 35.40625,18.59375 35.300866,18.482996 35.188282,18.395323 35.0625,18.3125 35.00421,18.27604 34.93715,18.24916 34.875,18.21875 34.82243,18.19239 34.77508,18.14638 34.71875,18.125 34.66699,18.10525 34.616246,18.07799 34.5625,18.0625 34.391167,18.01538 34.207646,18 34,18 l 0,-1 c 0,-1 -1,-2 -2,-2 l -12,0 c 0,-1 0,-2 -1,-2 l -4,0 z"
     id="path5050" />
  <path
     inkscape:connector-curvature="0"
     id="path2998"
     d="m 14.999998,14 17,0 c 1,0 1.999999,1.000001 1.999999,2.000001 l 0,3.999999 c 0,1.108001 -0.445999,2 -0.999999,2 l -18,0 c -0.554,0 -1,-0.891999 -1,-2 l 0,-6 z"
     style="fill:#e9a439;fill-opacity:1;stroke:none"
     sodipodi:nodetypes="csssssscc" />
  <path
     style="opacity:0.02999998;fill:#000000;fill-opacity:1;stroke:none"
     d="m 13.999998,16.000001 0,5 19.999999,0 0,-5 z"
     id="path3807"
     inkscape:connector-curvature="0" />
  <rect
     style="fill:#f5c14e;fill-opacity:1;stroke:none"
     id="rect2990"
     width="23.999998"
     height="16.000002"
     x="12"
     y="17"
     rx="2"
     ry="2" />
  <path
     sodipodi:nodetypes="csssscc"
     inkscape:connector-curvature="0"
     id="path3000"
     d="m 13.999998,15.000001 0,-1.000001 c 0,-1 0,-1.999999 1,-1.999999 l 4,0 c 1,0 1,0.999999 1,1.999999 l 0,1.000001 z"
     style="fill:#e9a439;fill-opacity:1;stroke:none" />
  <path
     style="opacity:0.05;fill:#000000;fill-opacity:1;stroke:none"
     d="m 19.999998,14 0,1.000001 1,0 11,0 c 1,0 1.999999,1 1.999999,1.999999 l 0,-0.999999 c 0,-1 -0.999999,-2.000001 -1.999999,-2.000001 l -11,0 z"
     id="path3002"
     inkscape:connector-curvature="0"
     sodipodi:nodetypes="cccscsscc" />
  <path
     style="opacity:0.05;fill:#000000;fill-opacity:1;stroke:none"
     d="m 14.999998,12.000001 c -1,0 -1,0.999999 -1,1.999999 l 0,0.250002 c 0.04687,-0.703101 0.25,-1.250002 1,-1.250002 l 4,0 c 0.75,0 0.953125,0.546901 1,1.250001 l 0,-0.250002 c 0,-1 0,-2 -1,-2 l -4,0 z"
     id="path3780"
     inkscape:connector-curvature="0" />
  <path
     style="opacity:0.1;fill:#ffffff;fill-opacity:1;stroke:none"
     d="m 14,17 c -0.830583,0 -1.346661,0.4031 -1.733211,1 l 23.467586,0 C 35.347831,17.4031 34.830583,17 34,17 z"
     id="rect2991"
     inkscape:connector-curvature="0"
     sodipodi:nodetypes="sccss" />
  <path
     style="opacity:0.3;fill:#3c2f1b;fill-opacity:1;fill-rule:nonzero;stroke:none"
     inkscape:connector-curvature="0"
     id="path77"
     d="m 24,17.98 -0.715,1.641 0.191,0.434 c -1.152,0.078 -0.926,0.313 -0.926,0.313 0,0 -1.328,0.246 -1.328,0.43 0,0.012 0,0.008 0,0.016 -0.266,0.129 -0.527,0.309 -0.777,0.504 -3.34,4.488 0.234,5.527 -0.559,8.133 -0.172,0.566 -0.891,1.527 -0.891,1.527 0,0 1.449,0.18 2.047,-1.516 0.484,-1.371 -1.156,-4.129 0.066,-5.363 1.734,-1.75 3.02,1.855 2.477,2.355 -0.551,0.5 -0.414,0.637 -0.414,0.637 l 0.82,1.656 0.816,-1.656 c 0,0 0.141,-0.137 -0.41,-0.637 -0.547,-0.5 0.742,-4.109 2.473,-2.355 1.227,1.238 -0.418,3.992 0.07,5.363 0.598,1.695 2.047,1.516 2.047,1.516 0,0 -0.715,-0.969 -0.891,-1.527 -0.793,-2.602 2.77,-3.641 -0.566,-8.133 -0.25,-0.188 -0.512,-0.371 -0.773,-0.5 0,-0.008 0,-0.004 0,-0.016 0,-0.188 -1.324,-0.43 -1.324,-0.43 0,0 0.227,-0.234 -0.93,-0.313 l 0.188,-0.434 -0.711,-1.641 m 0.016,-0.004" />
</svg>
