<?xml version="1.0" encoding="UTF-8" standalone="no"?>
<svg
   xmlns:dc="http://purl.org/dc/elements/1.1/"
   xmlns:cc="http://creativecommons.org/ns#"
   xmlns:rdf="http://www.w3.org/1999/02/22-rdf-syntax-ns#"
   xmlns:svg="http://www.w3.org/2000/svg"
   xmlns="http://www.w3.org/2000/svg"
   xmlns:xlink="http://www.w3.org/1999/xlink"
   xmlns:sodipodi="http://sodipodi.sourceforge.net/DTD/sodipodi-0.dtd"
   xmlns:inkscape="http://www.inkscape.org/namespaces/inkscape"
   width="48"
   viewBox="0 0 13.546667 13.546667"
   height="48"
   id="svg2"
   version="1.1"
   inkscape:version="0.91 r"
   sodipodi:docname="dolphin.svg">
  <metadata
     id="metadata331">
    <rdf:RDF>
      <cc:Work
         rdf:about="">
        <dc:format>image/svg+xml</dc:format>
        <dc:type
           rdf:resource="http://purl.org/dc/dcmitype/StillImage" />
        <dc:title />
      </cc:Work>
    </rdf:RDF>
  </metadata>
  <sodipodi:namedview
     pagecolor="#ffffff"
     bordercolor="#666666"
     borderopacity="1"
     objecttolerance="10"
     gridtolerance="10"
     guidetolerance="10"
     inkscape:pageopacity="0"
     inkscape:pageshadow="2"
     inkscape:window-width="1280"
     inkscape:window-height="998"
     id="namedview329"
     showgrid="true"
     inkscape:zoom="17.138526"
     inkscape:cx="31.583624"
     inkscape:cy="21.399609"
     inkscape:window-x="0"
     inkscape:window-y="0"
     inkscape:window-maximized="1"
     inkscape:current-layer="layer3"
     showguides="true"
     inkscape:guide-bbox="true">
    <inkscape:grid
       type="xygrid"
       id="grid3308" />
  </sodipodi:namedview>
  <defs
     id="defs4">
    <linearGradient
       id="linearGradient4140">
      <stop
         style="stop-color:#2684da;stop-opacity:1;"
         offset="0"
         id="stop4143" />
      <stop
         style="stop-color:#3f96e5;stop-opacity:1;"
         offset="1"
         id="stop4145" />
    </linearGradient>
    <linearGradient
       inkscape:collect="always"
       xlink:href="#linearGradient4140"
       id="linearGradient5286"
       gradientUnits="userSpaceOnUse"
       gradientTransform="matrix(0.28222223,0,0,0.28222223,-13.546666,6.2509917e-4)"
       x1="1"
       x2="47" />
  </defs>
  <g
     inkscape:groupmode="layer"
     id="layer3"
     inkscape:label="Symbol">
    <g
       transform="scale(0.28222223,0.28222223)"
       id="g21">
      <path
         style="opacity:0.02000002"
         inkscape:connector-curvature="0"
         d="m 1,43 0,0.25 c 0,2.216 1.784,4 4,4 l 38,0 c 2.216,0 4,-1.784 4,-4 L 47,43 c 0,2.216 -1.784,4 -4,4 L 5,47 C 2.784,47 1,45.216 1,43 z m 0,0.5 0,0.5 c 0,2.216 1.784,4 4,4 l 38,0 c 2.216,0 4,-1.784 4,-4 l 0,-0.5 c 0,2.216 -1.784,4 -4,4 l -38,0 c -2.216,0 -4,-1.784 -4,-4 z"
         id="path23" />
      <path
         style="opacity:0.05"
         inkscape:connector-curvature="0"
         d="m 1,43.25 0,0.25 c 0,2.216 1.784,4 4,4 l 38,0 c 2.216,0 4,-1.784 4,-4 l 0,-0.25 c 0,2.216 -1.784,4 -4,4 l -38,0 c -2.216,0 -4,-1.784 -4,-4 z"
         id="path25" />
      <path
         style="opacity:0.1"
         inkscape:connector-curvature="0"
         d="m 1,43 0,0.25 c 0,2.216 1.784,4 4,4 l 38,0 c 2.216,0 4,-1.784 4,-4 L 47,43 c 0,2.216 -1.784,4 -4,4 L 5,47 C 2.784,47 1,45.216 1,43 z"
         id="path27" />
    </g>
    <rect
       id="rect31"
       transform="matrix(0,-1,1,0,0,0)"
       rx="1.128889"
       y="0.28222239"
       x="-13.264444"
       height="12.982223"
       width="12.982223"
       style="fill:url(#linearGradient5286);fill-opacity:1.0" />
    <g
       transform="scale(0.28222223,0.28222223)"
       id="g53">
      <g
         transform="translate(0,-1004.3622)"
         id="g55">
        <path
           style="opacity:0.1"
           inkscape:connector-curvature="0"
           d="m 1,1043.36 0,4 c 0,2.216 1.784,4 4,4 l 38,0 c 2.216,0 4,-1.784 4,-4 l 0,-4 c 0,2.216 -1.784,4 -4,4 l -38,0 c -2.216,0 -4,-1.784 -4,-4 z"
           id="path57" />
      </g>
    </g>
    <path
       inkscape:connector-curvature="0"
       style="fill:#000000;fill-opacity:0.10196078;stroke:none"
       d="m 4.2333339,3.668889 c -0.2822222,0 -0.2822222,0.2822222 -0.2822222,0.5644445 l 0,0.070556 0,0.2116666 0,0.5644445 c -0.054723,0 -0.1087834,0.00324 -0.15875,0.017639 -0.015697,0.00432 -0.029372,0.012045 -0.044097,0.017639 -0.015867,0.00605 -0.028964,0.019053 -0.044097,0.026458 -0.017557,0.00881 -0.036742,0.015796 -0.052917,0.026458 -0.036229,0.02266 -0.066959,0.04932 -0.097014,0.079375 -0.034604,0.034604 -0.063515,0.071987 -0.088195,0.1146528 -0.048085,0.083129 -0.079375,0.1789009 -0.079375,0.2822222 l 0,3.3866668 c 0,0.3127022 0.2517422,0.5644444 0.5644444,0.5644444 l 5.6444446,0 c 0.3127016,0 0.5644432,-0.2517422 0.5644432,-0.5644444 l 0,-3.3866668 c 0,-0.1033213 -0.03129,-0.1990934 -0.07937,-0.2822222 -0.02468,-0.042666 -0.05359,-0.080049 -0.08819,-0.1146528 -0.02974,-0.031257 -0.06151,-0.056001 -0.09701,-0.079375 -0.01645,-0.01029 -0.03538,-0.017876 -0.05292,-0.026458 -0.01484,-0.00744 -0.0282,-0.020425 -0.0441,-0.026458 -0.01461,-0.00557 -0.02893,-0.013267 -0.0441,-0.017639 -0.04835,-0.013298 -0.1001466,-0.017639 -0.1587496,-0.017639 l 0,-0.2822223 c 0,-0.2822222 -0.282222,-0.5644444 -0.564444,-0.5644444 l -3.3866668,0 c 0,-0.2822222 0,-0.5644445 -0.2822223,-0.5644445 l -1.1288889,0 z"
       id="path5050" />
    <path
       inkscape:connector-curvature="0"
       id="path2998"
       d="m 4.2333325,3.9511112 4.7977784,0 c 0.282222,0 0.564444,0.2822223 0.564444,0.5644445 l 0,1.1288889 c 0,0.3127022 -0.125871,0.5644445 -0.282222,0.5644445 l -5.0800004,0 c -0.1563511,0 -0.282222,-0.2517423 -0.282222,-0.5644445 l 0,-1.6933334 z"
       style="fill:#e9a439;fill-opacity:1;stroke:none"
       sodipodi:nodetypes="csssssscc" />
    <path
       style="opacity:0.02999998;fill:#000000;fill-opacity:1;stroke:none"
       d="m 3.9511105,4.5155557 0,1.4111111 5.6444444,0 0,-1.4111111 z"
       id="path3807"
       inkscape:connector-curvature="0" />
    <rect
       style="fill:#f5c14e;fill-opacity:1;stroke:none"
       id="rect2990"
       width="6.7733331"
       height="4.5155563"
       x="3.3866668"
       y="4.7977777"
       rx="0.56444448"
       ry="0.56444448" />
    <path
       style="opacity:0.3;fill:#3c2f1b;fill-opacity:1;fill-rule:nonzero;stroke:none"
       inkscape:connector-curvature="0"
       id="path3137"
       d="m 7.6736219,5.3512157 c -0.01327,0 -0.02201,0.00339 -0.02879,0.014393 -0.03528,0.061807 0.03415,0.2624666 -0.01863,0.3671711 -0.05193,0.1047048 -0.05193,0.1312337 -0.470746,0.079305 C 6.7366449,5.7601557 6.1081356,5.943318 5.8820756,6.169378 5.6526289,6.3965669 5.2625978,6.972018 5.1821644,7.3039113 5.1051178,7.6358047 5.1403955,7.6533024 5.2451,7.6016558 5.3486755,7.548598 5.4370111,7.0857535 6.0542311,6.781518 6.6748379,6.4761535 6.9638339,6.7197113 6.9638339,6.7197113 c 0,0 -0.533683,-0.070556 -0.9248428,0.2525889 C 5.64642,7.2962913 5.4017333,7.5477513 5.4104822,7.6470936 c 0.00875,0.095955 0.042898,0.0762 0.1058333,0 0.060678,-0.079304 0.4267201,-0.5588001 0.8633174,-0.7165623 0.436598,-0.1588911 0.619478,-0.1476022 0.784861,-0.060678 0.166511,0.087207 0.201788,0.1718734 -0.03302,0.2325512 -0.237067,0.062936 -0.333023,0.035278 -0.333023,0.035278 0,0 0.20066,0.18288 0.487398,0.18288 0.288713,0 0.464256,-0.01778 0.464256,-0.01778 0,0 0.714304,0.7419623 0.898595,0.8906934 0.182034,0.1476022 0.384669,0.078175 0.384669,-0.00988 0,-0.087207 -0.08834,-0.3318933 -0.08834,-0.3318933 0,0 0.18288,-0.4111978 -0.02766,-0.8731956 -0.209409,-0.4631267 -0.78486,-0.9414934 -0.78486,-0.9414934 0,0 -0.06068,-0.2624666 -0.190782,-0.4365978 -0.105827,-0.141109 -0.212789,-0.2480712 -0.267822,-0.250329 m -2.9720827,2.114409 c -0.0254,0.00113 -0.051929,0.00762 -0.0762,0.022013 -0.20066,0.1134533 -0.095956,0.3152422 0.079304,0.3152422 0.1741311,0 0.3660423,-0.070556 0.3660423,-0.070556 0,0 -0.1873956,-0.2734734 -0.3694289,-0.2655711 m 0.3857978,0.3361266 c 0,0 -0.3914423,0.059549 -0.4354689,0.2435578 -0.044027,0.18288 0.1642533,0.2359378 0.2954866,0.1399822 0.1312334,-0.095955 0.1399823,-0.38354 0.1399823,-0.38354 m 0,0" />
    <path
       sodipodi:nodetypes="csssscc"
       inkscape:connector-curvature="0"
       id="path3000"
       d="m 3.9511105,4.2333335 0,-0.2822223 c 0,-0.2822222 0,-0.5644444 0.282222,-0.5644444 l 1.1288891,0 c 0.2822223,0 0.2822223,0.2822222 0.2822223,0.5644444 l 0,0.2822223 z"
       style="fill:#e9a439;fill-opacity:1;stroke:none" />
    <path
       style="opacity:0.05;fill:#000000;fill-opacity:1;stroke:none"
       d="m 5.6444439,3.9511112 0,0.2822223 0.2822219,0 3.1044451,0 c 0.282222,0 0.564444,0.2822222 0.564444,0.5644444 l 0,-0.2822222 c 0,-0.2822222 -0.282222,-0.5644445 -0.564444,-0.5644445 l -3.1044451,0 z"
       id="path3002"
       inkscape:connector-curvature="0"
       sodipodi:nodetypes="cccscsscc" />
    <path
       style="opacity:0.05;fill:#000000;fill-opacity:1;stroke:none"
       d="m 4.2333325,3.3866668 c -0.282222,0 -0.282222,0.2822222 -0.282222,0.5644444 l 0,0.070556 c 0.013228,-0.1984307 0.070555,-0.352778 0.282222,-0.352778 l 1.1288891,0 c 0.2116667,0 0.2689928,0.1543473 0.2822223,0.3527778 l 0,-0.070556 c 0,-0.2822226 0,-0.5644445 -0.2822223,-0.5644445 l -1.1288891,0 z"
       id="path3780"
       inkscape:connector-curvature="0" />
    <path
       style="opacity:0.1;fill:#ffffff;fill-opacity:1;stroke:none"
       d="m 3.9511111,4.7977776 c -0.234409,0 -0.380058,0.1137641 -0.489151,0.2822226 l 6.6230749,0 C 9.9759439,4.9115417 9.8299649,4.7977776 9.5955559,4.7977776 z"
       id="rect2991"
       inkscape:connector-curvature="0"
       sodipodi:nodetypes="sccss" />
  </g>
</svg>
