<?xml version="1.0" encoding="UTF-8" standalone="no"?>
<svg
   xmlns:dc="http://purl.org/dc/elements/1.1/"
   xmlns:cc="http://creativecommons.org/ns#"
   xmlns:rdf="http://www.w3.org/1999/02/22-rdf-syntax-ns#"
   xmlns:svg="http://www.w3.org/2000/svg"
   xmlns="http://www.w3.org/2000/svg"
   xmlns:xlink="http://www.w3.org/1999/xlink"
   xmlns:sodipodi="http://sodipodi.sourceforge.net/DTD/sodipodi-0.dtd"
   xmlns:inkscape="http://www.inkscape.org/namespaces/inkscape"
   viewBox="0 0 48 48"
   id="svg3849"
   version="1.1"
   inkscape:version="0.91 r"
   width="100%"
   height="100%"
   sodipodi:docname="file-manager-blue.svg">
  <metadata
     id="metadata3928">
    <rdf:RDF>
      <cc:Work
         rdf:about="">
        <dc:format>image/svg+xml</dc:format>
        <dc:type
           rdf:resource="http://purl.org/dc/dcmitype/StillImage" />
      </cc:Work>
    </rdf:RDF>
  </metadata>
  <sodipodi:namedview
     pagecolor="#ffffff"
     bordercolor="#666666"
     borderopacity="1"
     objecttolerance="10"
     gridtolerance="10"
     guidetolerance="10"
     inkscape:pageopacity="0"
     inkscape:pageshadow="2"
     inkscape:window-width="1280"
     inkscape:window-height="998"
     id="namedview3926"
     showgrid="false"
     inkscape:zoom="9.8333333"
     inkscape:cx="14.267349"
     inkscape:cy="18.866116"
     inkscape:window-x="0"
     inkscape:window-y="0"
     inkscape:window-maximized="1"
     inkscape:current-layer="svg3849" />
  <defs
     id="defs3851">
    <linearGradient
       id="linearGradient3764"
       x1="1"
       x2="47"
       gradientUnits="userSpaceOnUse"
       gradientTransform="matrix(0,-1,1,0,-1.5e-6,47.999998)">
      <stop
         stop-color="#51b8df"
         stop-opacity="1"
         id="stop3854" />
      <stop
         offset="1"
         stop-color="#62bee2"
         stop-opacity="1"
         id="stop3856" />
    </linearGradient>
    <linearGradient
       inkscape:collect="always"
       xlink:href="#linearGradient3764"
       id="linearGradient5286"
       gradientUnits="userSpaceOnUse"
       gradientTransform="translate(-48,0.00221512)"
       x1="1"
       x2="47" />
  </defs>
  <g
     id="g21">
    <path
       style="opacity:0.02000002"
       inkscape:connector-curvature="0"
       d="m 1,43 0,0.25 c 0,2.216 1.784,4 4,4 l 38,0 c 2.216,0 4,-1.784 4,-4 L 47,43 c 0,2.216 -1.784,4 -4,4 L 5,47 C 2.784,47 1,45.216 1,43 z m 0,0.5 0,0.5 c 0,2.216 1.784,4 4,4 l 38,0 c 2.216,0 4,-1.784 4,-4 l 0,-0.5 c 0,2.216 -1.784,4 -4,4 l -38,0 c -2.216,0 -4,-1.784 -4,-4 z"
       id="path23" />
    <path
       style="opacity:0.05"
       inkscape:connector-curvature="0"
       d="m 1,43.25 0,0.25 c 0,2.216 1.784,4 4,4 l 38,0 c 2.216,0 4,-1.784 4,-4 l 0,-0.25 c 0,2.216 -1.784,4 -4,4 l -38,0 c -2.216,0 -4,-1.784 -4,-4 z"
       id="path25" />
    <path
       style="opacity:0.1"
       inkscape:connector-curvature="0"
       d="m 1,43 0,0.25 c 0,2.216 1.784,4 4,4 l 38,0 c 2.216,0 4,-1.784 4,-4 L 47,43 c 0,2.216 -1.784,4 -4,4 L 5,47 C 2.784,47 1,45.216 1,43 z"
       id="path27" />
  </g>
  <rect
     id="rect31"
     transform="matrix(0,-1,1,0,0,0)"
     rx="4"
     y="1"
     x="-47"
     height="46"
     width="46"
     style="fill:url(#linearGradient5286);fill-opacity:1.0" />
  <g
     id="g53">
    <g
       transform="translate(0,-1004.3622)"
       id="g55">
      <path
         style="opacity:0.1"
         inkscape:connector-curvature="0"
         d="m 1,1043.36 0,4 c 0,2.216 1.784,4 4,4 l 38,0 c 2.216,0 4,-1.784 4,-4 l 0,-4 c 0,2.216 -1.784,4 -4,4 l -38,0 c -2.216,0 -4,-1.784 -4,-4 z"
         id="path57" />
    </g>
  </g>
  <path
     inkscape:connector-curvature="0"
     style="fill:#000000;fill-opacity:0.10196078;stroke:none"
     d="m 14.999998,12.999999 c -1,0 -1,1.000001 -1,2 l 0,0.250002 0,0.75 0,2 c -0.1939,0 -0.385453,0.01148 -0.5625,0.0625 -0.05562,0.01531 -0.104074,0.04268 -0.156249,0.0625 -0.05622,0.02144 -0.102628,0.06751 -0.156249,0.09375 -0.06221,0.03122 -0.130188,0.05597 -0.187501,0.09375 -0.128371,0.08029 -0.237257,0.174756 -0.343751,0.28125 -0.122612,0.122612 -0.225053,0.255072 -0.312498,0.40625 C 12.11087,19.294552 12,19.633902 12,20.000001 L 12,32 c 0,1.108 0.892,2 2,2 l 20.000001,0 c 1.108,0 1.999998,-0.892 1.999998,-2 l 0,-11.999999 c 0,-0.366099 -0.11087,-0.705449 -0.281267,-1 -0.08745,-0.151179 -0.189886,-0.283638 -0.312485,-0.40625 -0.105378,-0.110753 -0.217948,-0.198429 -0.343736,-0.28125 -0.05829,-0.03646 -0.125362,-0.06334 -0.187512,-0.09375 -0.05258,-0.02636 -0.09992,-0.07237 -0.15626,-0.09375 -0.05177,-0.01974 -0.102507,-0.04701 -0.156259,-0.0625 -0.171333,-0.04711 -0.354854,-0.0625 -0.5625,-0.0625 l 0,-1.000001 c 0,-0.999999 -1.000001,-2 -2,-2 l -12.000001,0 c 0,-1 0,-2 -1,-2 l -4,0 z"
     id="path5050" />
  <path
     inkscape:connector-curvature="0"
     id="path2998"
     d="m 14.999998,14 17.000001,0 c 1,0 1.999999,1 1.999999,2 l 0,4 c 0,1.108 -0.445999,1.999999 -0.999999,1.999999 l -18.000001,0 c -0.554,0 -1,-0.891999 -1,-1.999999 l 0,-6 z"
     style="fill:#e9a439;fill-opacity:1;stroke:none"
     sodipodi:nodetypes="csssssscc" />
  <path
     style="opacity:0.02999998;fill:#000000;fill-opacity:1;stroke:none"
     d="m 13.999998,16 0,5 20,0 0,-5 z"
     id="path3807"
     inkscape:connector-curvature="0" />
  <rect
     style="fill:#f5c14e;fill-opacity:1;stroke:none"
     id="rect2990"
     width="23.999998"
     height="16.000002"
     x="12"
     y="16.999998"
     rx="2"
     ry="2" />
  <path
     sodipodi:nodetypes="csssscc"
     inkscape:connector-curvature="0"
     id="path3000"
     d="m 13.999998,15 0,-1 c 0,-1 0,-2 1,-2 l 4,0 c 1,0 1,1 1,2 l 0,1 z"
     style="fill:#e9a439;fill-opacity:1;stroke:none" />
  <path
     style="opacity:0.05;fill:#000000;fill-opacity:1;stroke:none"
     d="m 19.999998,14 0,1 1,0 11.000001,0 c 1,0 1.999999,1 1.999999,2 l 0,-1 c 0,-1 -0.999999,-2 -1.999999,-2 l -11.000001,0 z"
     id="path3002"
     inkscape:connector-curvature="0"
     sodipodi:nodetypes="cccscsscc" />
  <path
     style="opacity:0.05;fill:#000000;fill-opacity:1;stroke:none"
     d="m 14.999998,12 c -1,0 -1,1 -1,2 l 0,0.250001 C 14.046868,13.5469 14.249998,13 14.999998,13 l 4,0 c 0.75,0 0.953125,0.5469 1,1.25 l 0,-0.250002 c 0,-1 0,-2 -1,-2 l -4,0 z"
     id="path3780"
     inkscape:connector-curvature="0" />
  <path
     style="opacity:0.1;fill:#ffffff;fill-opacity:1;stroke:none"
     d="m 14,16.999999 c -0.830583,0 -1.346661,0.4031 -1.733211,1.000001 l 23.467586,0 c -0.386543,-0.596901 -0.903791,-1.000001 -1.734374,-1.000001 z"
     id="rect2991"
     inkscape:connector-curvature="0"
     sodipodi:nodetypes="sccss" />
</svg>
