<?xml version="1.0" encoding="UTF-8" standalone="no"?>
<svg
   xmlns:dc="http://purl.org/dc/elements/1.1/"
   xmlns:cc="http://creativecommons.org/ns#"
   xmlns:rdf="http://www.w3.org/1999/02/22-rdf-syntax-ns#"
   xmlns:svg="http://www.w3.org/2000/svg"
   xmlns="http://www.w3.org/2000/svg"
   xmlns:xlink="http://www.w3.org/1999/xlink"
   xmlns:sodipodi="http://sodipodi.sourceforge.net/DTD/sodipodi-0.dtd"
   xmlns:inkscape="http://www.inkscape.org/namespaces/inkscape"
   viewBox="0 0 48 48"
   id="svg2"
   version="1.1"
   inkscape:version="0.91 r13725"
   sodipodi:docname="securefx.svg">
  <metadata
     id="metadata76">
    <rdf:RDF>
      <cc:Work
         rdf:about="">
        <dc:format>image/svg+xml</dc:format>
        <dc:type
           rdf:resource="http://purl.org/dc/dcmitype/StillImage" />
      </cc:Work>
    </rdf:RDF>
  </metadata>
  <sodipodi:namedview
     pagecolor="#ffffff"
     bordercolor="#666666"
     borderopacity="1"
     objecttolerance="10"
     gridtolerance="10"
     guidetolerance="10"
     inkscape:pageopacity="0"
     inkscape:pageshadow="2"
     inkscape:window-width="1260"
     inkscape:window-height="962"
     id="namedview74"
     showgrid="false"
     inkscape:zoom="9.8333334"
     inkscape:cx="16.188671"
     inkscape:cy="19.162768"
     inkscape:window-x="10"
     inkscape:window-y="52"
     inkscape:window-maximized="0"
     inkscape:current-layer="svg2">
    <inkscape:grid
       type="xygrid"
       id="grid4234" />
  </sodipodi:namedview>
  <defs
     id="defs4">
    <linearGradient
       inkscape:collect="always"
       id="linearGradient4174">
      <stop
         style="stop-color:#77a4ff;stop-opacity:1;"
         offset="0"
         id="stop4176" />
      <stop
         style="stop-color:#8bb1ff;stop-opacity:1"
         offset="1"
         id="stop4178" />
    </linearGradient>
    <linearGradient
       inkscape:collect="always"
       xlink:href="#linearGradient4174"
       id="linearGradient4344"
       x1="-47"
       y1="24"
       x2="-1"
       y2="24"
       gradientUnits="userSpaceOnUse" />
  </defs>
  <g
     id="g11">
    <path
       inkscape:connector-curvature="0"
       d="m 1,43 0,0.25 c 0,2.216 1.784,4 4,4 l 38,0 c 2.216,0 4,-1.784 4,-4 L 47,43 c 0,2.216 -1.784,4 -4,4 L 5,47 C 2.784,47 1,45.216 1,43 Z m 0,0.5 0,0.5 c 0,2.216 1.784,4 4,4 l 38,0 c 2.216,0 4,-1.784 4,-4 l 0,-0.5 c 0,2.216 -1.784,4 -4,4 l -38,0 c -2.216,0 -4,-1.784 -4,-4 z"
       style="opacity:0.02000002"
       id="path13" />
    <path
       inkscape:connector-curvature="0"
       d="m 1,43.25 0,0.25 c 0,2.216 1.784,4 4,4 l 38,0 c 2.216,0 4,-1.784 4,-4 l 0,-0.25 c 0,2.216 -1.784,4 -4,4 l -38,0 c -2.216,0 -4,-1.784 -4,-4 z"
       style="opacity:0.05"
       id="path15" />
    <path
       inkscape:connector-curvature="0"
       d="m 1,43 0,0.25 c 0,2.216 1.784,4 4,4 l 38,0 c 2.216,0 4,-1.784 4,-4 L 47,43 c 0,2.216 -1.784,4 -4,4 L 5,47 C 2.784,47 1,45.216 1,43 Z"
       style="opacity:0.1"
       id="path17" />
  </g>
  <rect
     transform="matrix(0,-1,1,0,0,0)"
     rx="4"
     y="1"
     x="-47"
     height="46"
     width="46"
     style="fill:url(#linearGradient4344);fill-opacity:1.0"
     id="rect19" />
  <g
     id="g21">
    <g
       transform="translate(0,-1004.3622)"
       id="g23">
      <path
         inkscape:connector-curvature="0"
         d="m 1,1043.36 0,4 c 0,2.216 1.784,4 4,4 l 38,0 c 2.216,0 4,-1.784 4,-4 l 0,-4 c 0,2.216 -1.784,4 -4,4 l -38,0 c -2.216,0 -4,-1.784 -4,-4 z"
         style="opacity:0.1"
         id="path25" />
    </g>
  </g>
  <path
     inkscape:connector-curvature="0"
     d="m 15.001,12.999 c -1,0 -1,1 -1,2 l 0,0.25 0,0.75 0,2 c -0.194,0 -0.385,0.011 -0.563,0.063 -0.056,0.015 -0.104,0.043 -0.156,0.063 -0.056,0.021 -0.103,0.068 -0.156,0.094 -0.062,0.031 -0.13,0.056 -0.188,0.094 -0.128,0.08 -0.237,0.175 -0.344,0.281 C 12.471,18.717 12.369,18.849 12.281,19 12.111,19.295 12,19.634 12,20 l 0,12 c 0,1.108 0.892,2 2,2 l 20,0 c 1.108,0 2,-0.892 2,-2 l 0,-12 c 0,-0.366 -0.111,-0.705 -0.281,-1 -0.087,-0.151 -0.19,-0.284 -0.313,-0.406 -0.105,-0.111 -0.218,-0.198 -0.344,-0.281 -0.058,-0.036 -0.125,-0.063 -0.188,-0.094 -0.053,-0.026 -0.1,-0.072 -0.156,-0.094 -0.052,-0.02 -0.103,-0.047 -0.156,-0.063 -0.171,-0.047 -0.355,-0.063 -0.563,-0.063 l 0,-1 c 0,-1 -1,-2 -2,-2 l -12,0 c 0,-1 0,-2 -1,-2 l -4,0 z"
     style="fill:#000000;fill-opacity:0.10199998;stroke:none"
     id="path68" />
  <path
     inkscape:connector-curvature="0"
     d="m 15.001,13.999 17,0 c 1,0 2,1 2,2 l 0,4 c 0,1.108 -0.446,2 -1,2 l -18,0 c -0.554,0 -1,-0.892 -1,-2 l 0,-6 z"
     style="fill:#e9a439;fill-opacity:1;stroke:none"
     id="path70" />
  <path
     inkscape:connector-curvature="0"
     d="m 14.001,15.999 0,5 20,0 0,-5 z"
     style="opacity:0.02999998;fill:#000000;fill-opacity:1;stroke:none"
     id="path72" />
  <rect
     width="24"
     height="16"
     x="12.000999"
     y="16.999001"
     rx="2"
     style="fill:#f5c14e;fill-opacity:1;stroke:none"
     id="rect74" />
  <path
     inkscape:connector-curvature="0"
     d="m 14.001,14.999 0,-1 c 0,-1 0,-2 1,-2 l 4,0 c 1,0 1,1 1,2 l 0,1 z"
     style="fill:#e9a439;fill-opacity:1;stroke:none"
     id="path78" />
  <path
     inkscape:connector-curvature="0"
     d="m 20.001,13.999 0,1 1,0 11,0 c 1,0 2,1 2,2 l 0,-1 c 0,-1 -1,-2 -2,-2 l -11,0 z"
     style="opacity:0.05;fill:#000000;fill-opacity:1;stroke:none"
     id="path80" />
  <path
     inkscape:connector-curvature="0"
     d="m 15.001,11.999 c -1,0 -1,1 -1,2 l 0,0.25 c 0.047,-0.703 0.25,-1.25 1,-1.25 l 4,0 c 0.75,0 0.953,0.547 1,1.25 l 0,-0.25 c 0,-1 0,-2 -1,-2 l -4,0 z"
     style="opacity:0.05;fill:#000000;fill-opacity:1;stroke:none"
     id="path82" />
  <path
     inkscape:connector-curvature="0"
     d="m 14.001,16.999 c -0.831,0 -1.347,0.403 -1.733,1 l 23.468,0 c -0.387,-0.597 -0.904,-1 -1.734,-1 z"
     style="opacity:0.1;fill:#ffffff;fill-opacity:1;stroke:none"
     id="path84" />
  <g
     transform="translate(3.0003615,3)"
     style="opacity:0.1;fill:#000000"
     id="g56">
    <path
       d="m 28,18 a 5,5 0 0 0 -5,5 5,5 0 0 0 5,5 5,5 0 0 0 5,-5 5,5 0 0 0 -5,-5 z m 0,1 A 3.5,3.5 0 0 1 31.5,22.5 3.5,3.5 0 0 1 28,26 3.5,3.5 0 0 1 24.5,22.5 3.5,3.5 0 0 1 28,19"
       style="fill-opacity:1"
       id="path58"
       inkscape:connector-curvature="0" />
    <rect
       width="14"
       height="10"
       x="21"
       y="23"
       rx="1.1670001"
       style="fill-opacity:1"
       id="rect60" />
  </g>
  <g
     transform="translate(3,2)"
     id="g62">
    <path
       d="m 28,18 a 5,5 0 0 0 -5,5 5,5 0 0 0 5,5 5,5 0 0 0 5,-5 5,5 0 0 0 -5,-5 z m 0,1 A 3.5,3.5 0 0 1 31.5,22.5 3.5,3.5 0 0 1 28,26 3.5,3.5 0 0 1 24.5,22.5 3.5,3.5 0 0 1 28,19"
       style="fill:#b3b3b3;fill-opacity:1"
       id="path64"
       inkscape:connector-curvature="0" />
    <rect
       rx="1.1670001"
       y="23"
       x="21"
       height="10"
       width="14"
       style="fill:#b3b3b3;fill-opacity:1"
       id="rect66" />
    <circle
       r="4"
       cy="28"
       cx="28"
       style="fill:#808080;fill-opacity:1"
       id="circle68" />
    <rect
       y="28"
       x="27"
       height="3"
       width="2"
       style="fill:#333333;fill-opacity:1"
       id="rect70" />
    <circle
       r="2"
       cy="27"
       cx="28"
       style="fill:#333333;fill-opacity:1"
       id="circle72" />
  </g>
</svg>
