<?xml version="1.0" encoding="UTF-8" standalone="no"?>
<svg
   xmlns:dc="http://purl.org/dc/elements/1.1/"
   xmlns:cc="http://creativecommons.org/ns#"
   xmlns:rdf="http://www.w3.org/1999/02/22-rdf-syntax-ns#"
   xmlns:svg="http://www.w3.org/2000/svg"
   xmlns="http://www.w3.org/2000/svg"
   xmlns:xlink="http://www.w3.org/1999/xlink"
   xmlns:sodipodi="http://sodipodi.sourceforge.net/DTD/sodipodi-0.dtd"
   xmlns:inkscape="http://www.inkscape.org/namespaces/inkscape"
   width="48"
   viewBox="0 0 13.546667 13.546667"
   height="48"
   id="svg2"
   version="1.1"
   inkscape:version="0.91 r"
   sodipodi:docname="thunar.svg">
  <metadata
     id="metadata331">
    <rdf:RDF>
      <cc:Work
         rdf:about="">
        <dc:format>image/svg+xml</dc:format>
        <dc:type
           rdf:resource="http://purl.org/dc/dcmitype/StillImage" />
        <dc:title />
      </cc:Work>
    </rdf:RDF>
  </metadata>
  <sodipodi:namedview
     pagecolor="#ffffff"
     bordercolor="#666666"
     borderopacity="1"
     objecttolerance="10"
     gridtolerance="10"
     guidetolerance="10"
     inkscape:pageopacity="0"
     inkscape:pageshadow="2"
     inkscape:window-width="1280"
     inkscape:window-height="998"
     id="namedview329"
     showgrid="true"
     inkscape:zoom="12.118768"
     inkscape:cx="31.820119"
     inkscape:cy="24.351362"
     inkscape:window-x="0"
     inkscape:window-y="0"
     inkscape:window-maximized="1"
     inkscape:current-layer="layer3"
     showguides="true"
     inkscape:guide-bbox="true">
    <inkscape:grid
       type="xygrid"
       id="grid3308" />
  </sodipodi:namedview>
  <defs
     id="defs4">
    <linearGradient
       id="linearGradient4140-8">
      <stop
         style="stop-color:#6e6196;stop-opacity:1;"
         offset="0"
         id="stop4143-5" />
      <stop
         style="stop-color:#847baf;stop-opacity:1;"
         offset="1"
         id="stop4145-4" />
    </linearGradient>
    <linearGradient
       inkscape:collect="always"
       xlink:href="#linearGradient4140-8"
       id="linearGradient5286"
       gradientUnits="userSpaceOnUse"
       gradientTransform="matrix(0.28222223,0,0,0.28222223,-13.546667,6.2502911e-4)"
       x1="1"
       x2="47" />
  </defs>
  <g
     inkscape:groupmode="layer"
     id="layer3"
     inkscape:label="Symbol">
    <g
       transform="scale(0.28222223,0.28222223)"
       id="g21">
      <path
         style="opacity:0.02000002"
         inkscape:connector-curvature="0"
         d="m 1,43 0,0.25 c 0,2.216 1.784,4 4,4 l 38,0 c 2.216,0 4,-1.784 4,-4 L 47,43 c 0,2.216 -1.784,4 -4,4 L 5,47 C 2.784,47 1,45.216 1,43 z m 0,0.5 0,0.5 c 0,2.216 1.784,4 4,4 l 38,0 c 2.216,0 4,-1.784 4,-4 l 0,-0.5 c 0,2.216 -1.784,4 -4,4 l -38,0 c -2.216,0 -4,-1.784 -4,-4 z"
         id="path23" />
      <path
         style="opacity:0.05"
         inkscape:connector-curvature="0"
         d="m 1,43.25 0,0.25 c 0,2.216 1.784,4 4,4 l 38,0 c 2.216,0 4,-1.784 4,-4 l 0,-0.25 c 0,2.216 -1.784,4 -4,4 l -38,0 c -2.216,0 -4,-1.784 -4,-4 z"
         id="path25" />
      <path
         style="opacity:0.1"
         inkscape:connector-curvature="0"
         d="m 1,43 0,0.25 c 0,2.216 1.784,4 4,4 l 38,0 c 2.216,0 4,-1.784 4,-4 L 47,43 c 0,2.216 -1.784,4 -4,4 L 5,47 C 2.784,47 1,45.216 1,43 z"
         id="path27" />
    </g>
    <rect
       id="rect31"
       transform="matrix(0,-1,1,0,0,0)"
       rx="1.128889"
       y="0.28222224"
       x="-13.264444"
       height="12.982223"
       width="12.982223"
       style="fill:url(#linearGradient5286);fill-opacity:1.0" />
    <g
       transform="scale(0.28222223,0.28222223)"
       id="g53">
      <g
         transform="translate(0,-1004.3622)"
         id="g55">
        <path
           style="opacity:0.1"
           inkscape:connector-curvature="0"
           d="m 1,1043.36 0,4 c 0,2.216 1.784,4 4,4 l 38,0 c 2.216,0 4,-1.784 4,-4 l 0,-4 c 0,2.216 -1.784,4 -4,4 l -38,0 c -2.216,0 -4,-1.784 -4,-4 z"
           id="path57" />
      </g>
    </g>
    <path
       inkscape:connector-curvature="0"
       style="fill:#000000;fill-opacity:0.10196078;stroke:none"
       d="m 4.2333331,3.668889 c -0.2822223,0 -0.2822223,0.2822222 -0.2822223,0.5644445 l 0,0.070556 0,0.2116666 0,0.5644445 c -0.054723,0 -0.1087834,0.00324 -0.15875,0.017639 -0.015697,0.00432 -0.029372,0.012045 -0.044097,0.017639 -0.015867,0.00605 -0.028964,0.019053 -0.044097,0.026458 -0.017557,0.00881 -0.036742,0.015796 -0.052917,0.026458 -0.036229,0.02266 -0.066959,0.04932 -0.097014,0.079375 -0.034604,0.034604 -0.063515,0.071987 -0.088194,0.1146528 -0.048085,0.083129 -0.079375,0.1789009 -0.079375,0.2822222 l 0,3.3866668 c 0,0.3127022 0.2517423,0.5644444 0.5644445,0.5644444 l 5.644445,0 C 9.9082582,9.5955558 10.16,9.3438136 10.16,9.0311114 l 0,-3.3866668 c 0,-0.1033213 -0.03129,-0.1990934 -0.07938,-0.2822222 -0.02468,-0.042666 -0.05359,-0.080049 -0.08819,-0.1146528 -0.02974,-0.031257 -0.06151,-0.056001 -0.09701,-0.079375 -0.01645,-0.01029 -0.03538,-0.017876 -0.05292,-0.026458 -0.01484,-0.00744 -0.0282,-0.020425 -0.0441,-0.026458 -0.01461,-0.00557 -0.02893,-0.013267 -0.0441,-0.017639 -0.04835,-0.013298 -0.1001479,-0.017639 -0.1587499,-0.017639 l 0,-0.2822223 c 0,-0.2822222 -0.282222,-0.5644444 -0.564444,-0.5644444 l -3.3866672,0 c 0,-0.2822222 0,-0.5644445 -0.2822223,-0.5644445 l -1.1288889,0 z"
       id="path5050" />
    <path
       inkscape:connector-curvature="0"
       id="path2998"
       d="m 4.2333331,3.9511112 4.7977775,0 c 0.282223,0 0.564445,0.2822225 0.564445,0.5644445 l 0,1.1288889 c 0,0.3127022 -0.125871,0.5644445 -0.282222,0.5644445 l -5.0800005,0 c -0.1563511,0 -0.2822223,-0.2517423 -0.2822223,-0.5644445 l 0,-1.6933334 z"
       style="fill:#e9a439;fill-opacity:1;stroke:none"
       sodipodi:nodetypes="csssssscc" />
    <path
       style="opacity:0.02999998;fill:#000000;fill-opacity:1;stroke:none"
       d="m 3.9511108,4.5155557 0,1.4111114 5.6444448,0 0,-1.4111114 z"
       id="path3807"
       inkscape:connector-curvature="0" />
    <rect
       style="fill:#f5c14e;fill-opacity:1;stroke:none"
       id="rect2990"
       width="6.7733331"
       height="4.5155563"
       x="3.3866668"
       y="4.7977781"
       rx="0.56444448"
       ry="0.56444448" />
    <path
       style="opacity:0.3;fill:#3c2f1b;fill-opacity:1;fill-rule:nonzero;stroke:none"
       inkscape:connector-curvature="0"
       id="path77"
       d="m 5.7920471,5.6444446 c -0.1456267,0 -0.2867378,0.019756 -0.4210756,0.053905 0,-0.00226 0,-0.00339 0,-0.00564 -0.14986,0.038665 -0.2635956,0.090311 -0.2856089,0.1001889 0,0.00339 0,0.00649 0,0.00988 -0.00113,0 -0.00339,0.00113 -0.00564,0.00226 0.015522,0.1224844 0.037535,0.2435577 0.048542,0.2988733 0.1190978,0.5037667 0.4631267,0.91948 0.9183511,1.1401778 -0.00226,0.034149 -0.00564,0.067169 -0.00564,0.1024467 0,0.4651022 0.1873955,0.88646 0.4882444,1.1938 -0.00226,0.00113 0.00226,0.00226 0,0.00339 0.087207,0.081562 0.2051756,0.1763889 0.2294467,0.1950155 0.00649,0.00339 0.016651,0.00649 0.019756,0.011007 0.1001888,-0.088336 0.1896533,-0.1840089 0.2127955,-0.2094089 0.3008489,-0.3076222 0.4882445,-0.7286978 0.4882445,-1.1938 0,-0.031891 -0.00564,-0.062936 -0.00649,-0.094827 0.4631266,-0.2139244 0.8125178,-0.6293556 0.9369778,-1.1345334 -0.0023,-0.00113 0.0011,-0.00226 0,-0.00339 0.03076,-0.1354667 0.05306,-0.2822222 0.05306,-0.2977445 -0.0023,-0.00113 -0.0056,-0.00226 -0.0076,-0.00339 0,-0.00762 0,0.00113 0,-0.00649 -0.06406,-0.028787 -0.209409,-0.078176 -0.286738,-0.1035756 0,0.00564 0,-0.00226 0,0.00339 -0.139982,-0.037536 -0.2878664,-0.060678 -0.4377264,-0.060678 -0.3626556,0 -0.6979356,0.11684 -0.9733845,0.3118555 C 6.651718,6.0375799 6.575518,6.105878 6.527258,6.1521624 6.521618,6.1578024 6.518508,6.1642984 6.512865,6.1699424 6.3539739,6.3353246 6.2306428,6.532598 6.1479517,6.751038 c 0.089182,0.053058 0.1775178,0.097084 0.2568222,0.13462 0.06604,-0.1919111 0.17526,-0.3649134 0.3129845,-0.51054 0.00113,-0.00226 0.00564,-0.00762 0.00875,-0.011007 0.00649,-0.00762 0.013264,-0.016651 0.023142,-0.0254 0.00226,-0.00339 0.00564,-0.00339 0.00875,-0.00649 0.098213,-0.086078 0.17526,-0.14224 0.2325511,-0.1797756 0.028787,-0.01778 0.05842,-0.035278 0.088336,-0.0508 C 7.2743031,5.9980699 7.493872,5.938521 7.7309387,5.938521 c 0.1411111,0 0.2788355,0.020884 0.4078109,0.060678 C 8.0526466,6.4115246 7.7893338,6.7555535 7.4286538,6.9483113 7.3724915,6.7101158 7.2677871,6.4885713 7.1221604,6.3011757 7.0008049,6.3861246 6.8972293,6.4719202 6.8896093,6.4786935 c 0.1190978,0.1521178 0.2071511,0.3296356 0.2556933,0.5235223 0,0 0.00564,0.019756 0.014393,0.057291 0.00339,0.01778 0.00649,0.028787 0.013264,0.064064 0.01778,0.088336 0.015522,0.1896534 0.014393,0.2302934 0,0.00762 0,0.028787 0,0.028787 l -0.00339,0.00452 C 7.1729604,7.7687313 7.0120938,8.1105025 6.7572471,8.3574469 6.4936515,8.1028825 6.3282693,7.7455891 6.3274226,7.3476558 c 0.1411111,0.038664 0.2887134,0.060678 0.4411134,0.060678 0.082691,0 0.1653822,-0.00875 0.2446866,-0.020884 0.00452,-0.028787 0.00649,-0.061807 0.00875,-0.1114778 0.00339,-0.088335 -0.00762,-0.1487311 -0.016651,-0.18288 -0.077047,0.013265 -0.1566333,0.019756 -0.2359378,0.019756 -0.14224,0 -0.2799644,-0.020885 -0.4100689,-0.059549 C 6.2568671,7.032414 6.1597826,6.981613 6.0892271,6.9375869 c -0.039793,-0.024271 -0.06604,-0.041769 -0.080433,-0.0508 -0.30988,-0.20066 -0.5379155,-0.5170312 -0.6141155,-0.8929512 0.12446,-0.036407 0.2556933,-0.057291 0.3925711,-0.057291 0.1995311,0 0.3869267,0.041769 0.5579533,0.1179689 C 6.4290226,5.9752091 6.5303404,5.8956224 6.5876315,5.8515957 6.349436,5.7214913 6.0770915,5.6455735 5.7872493,5.6455735 m 0.00226,0.00113" />
    <path
       sodipodi:nodetypes="csssscc"
       inkscape:connector-curvature="0"
       id="path3000"
       d="m 3.9511108,4.2333337 0,-0.2822225 c 0,-0.2822222 0,-0.5644444 0.2822223,-0.5644444 l 1.1288889,0 c 0.2822223,0 0.2822223,0.2822222 0.2822223,0.5644444 l 0,0.2822225 z"
       style="fill:#e9a439;fill-opacity:1;stroke:none" />
    <path
       style="opacity:0.05;fill:#000000;fill-opacity:1;stroke:none"
       d="m 5.6444443,3.9511112 0,0.2822225 0.2822222,0 3.1044441,0 c 0.282223,0 0.564445,0.282222 0.564445,0.5644442 l 0,-0.2822222 c 0,-0.282222 -0.282222,-0.5644445 -0.564445,-0.5644445 l -3.1044441,0 z"
       id="path3002"
       inkscape:connector-curvature="0"
       sodipodi:nodetypes="cccscsscc" />
    <path
       style="opacity:0.05;fill:#000000;fill-opacity:1;stroke:none"
       d="m 4.2333331,3.3866668 c -0.2822223,0 -0.2822223,0.2822222 -0.2822223,0.5644444 l 0,0.070556 C 3.9643386,3.8232363 4.0216664,3.668889 4.2333331,3.668889 l 1.1288889,0 c 0.2116667,0 0.2689931,0.1543473 0.2822223,0.3527781 l 0,-0.070556 c 0,-0.2822223 0,-0.5644445 -0.2822223,-0.5644445 l -1.1288889,0 z"
       id="path3780"
       inkscape:connector-curvature="0" />
    <path
       style="opacity:0.1;fill:#ffffff;fill-opacity:1;stroke:none"
       d="m 3.9511114,4.7977779 c -0.234409,0 -0.3800577,0.1137638 -0.4891507,0.2822223 l 6.6230753,0 C 9.9759436,4.9115417 9.8299646,4.7977779 9.5955556,4.7977779 z"
       id="rect2991"
       inkscape:connector-curvature="0"
       sodipodi:nodetypes="sccss" />
  </g>
</svg>
