<svg xmlns="http://www.w3.org/2000/svg" viewBox="0 0 96 96">
 <path d="m 12 12 c -2 0 -4 2 -4 4 l 0 4 -2 0 c -2 0 -4.01 1.898 -4 4 l 0 56 c 0 2.241 2.076 4 4.375 4 l 83.25 0 c 2.375 0 4.375 -2 4.375 -4 l 0 -50 c 0 -2 -2 -4 -4 -4 l -4 0 0 -10 c 0 -2 -2 -4 -4 -4 z" style="visibility:visible;fill:#8d6e63;fill-opacity:1;stroke:none;display:inline;color:#000;fill-rule:nonzero"/>
 <path d="m 12 12 c -2 0 -4 2 -4 4 l 0 4 -2 0 c -2 0 -4.01 1.898 -4 4 l 0 56 c 0 2.241 2.076 4 4.375 4 l 83.25 0 c 2.375 0 4.375 -2 4.375 -4 l 0 -50 c 0 -2 -2 -4 -4 -4 l -4 0 0 -10 c 0 -2 -2 -4 -4 -4 l -70 0 z m -6 10 48 0 c 1.015 0 2 0.988 2 2 l 0 4 34 0 c 1.082 0 2 0.944 2 2 l 0 50 c 0 1.108 -0.904 2 -2 2 l -84 0 c -1.025 0 -2 -0.892 -2 -2 l 0 -56 c 0 -1.087 0.958 -2 2 -2 z" style="visibility:visible;fill:#000;fill-opacity:0.322;stroke:none;display:inline;color:#000;fill-rule:nonzero"/>
 <path d="m 46 40 c -6.825 0 -14 7.176 -14 16 0 8.824 7.176 16 14 16 10.823 0 17.999 -7.176 17.999 -16 0 -8.824 -7.176 -16 -16 -16 z m 3.299 2.25 c 1.491 0.138 2.936 0.478 4.25 1.05 -0.101 0.126 -0.179 0.237 -0.25 0.45 -0.404 1.212 -1.01 0.634 -0.3 2.149 0.707 1.515 1.298 1.907 1.5 1.2 0.202 -0.707 -0.508 -1.704 0.3 -1.3 0.808 0.404 1.406 -0.11 0.8 0.801 -0.606 0.909 -0.593 1.402 -1.3 1.2 -0.707 -0.202 -0.693 1.198 -1.4 1.4 -0.707 0.202 -0.95 -0.305 -0.95 0.2 0 0.505 0.401 0.042 0.3 0.85 -0.031 0.247 -0.022 0.292 -0.05 0.4 -0.664 -0.19 -0.96 -0.295 -1.45 -0.102 -0.505 0.202 -1.1 1.5 -1.1 1.5 0.631 0.631 0.924 1.085 1.15 1.3 -0.141 0.07 -0.311 0.1 -0.45 0.2 -1.01 0.707 -1.797 0.84 -2.1 1.85 -0.303 1.01 -0.2 0.086 -0.2 1.3 0 1.212 -0.306 0.389 0.3 1.5 0.606 1.111 2.093 1.644 2.8 2.25 0.707 0.606 1.436 -1.318 2.85 0.5 1.414 1.818 1.505 1.09 1 2.1 -0.505 1.01 -0.998 1.346 -1.2 1.75 -0.202 0.404 0.393 1.797 1.1 2.1 0.015 0 0.034 0 0.05 0 -0.038 0.086 -0.063 0.164 -0.1 0.251 -0.916 0.416 -2.038 0.99 -2.25 1.05 -0.5 0.144 -2.264 0.442 -3.55 0.8 -0.161 0.046 -0.287 0.046 -0.35 0.052 0.16 -0.174 1.424 -0.835 2.05 -1.2 0.857 -0.501 -0.05 -0.45 -0.05 -0.45 0 0 -1.364 -0.152 -4.15 -0.152 -1.393 0 -1.996 0.062 -2.3 0.152 -0.152 0.046 -0.226 0.09 -0.3 0.15 -0.074 0.062 -0.125 0.128 -0.25 0.2 -0.5 0.286 0.293 0.586 -0.35 0.8 -0.482 0.16 -0.538 0 -0.95 -0.301 0.294 -0.292 0.699 -0.644 1.2 -1.25 0.909 -1.1 1.197 -0.9 1.5 -1.9 0.303 -1 -2.55 -0.7 -2.55 -1.3 0 -0.6 -0.491 -1 -1.4 -1.4 -0.909 -0.4 -0.29 -0.6 -1.3 -0.9 -1.01 -0.299 -2.147 1.5 -2.45 0.9 -0.303 -0.6 0.95 -0.6 0.95 -1.3 0 -0.683 -1.441 0.516 -1.7 -0.35 -0.007 -0.032 -0.045 -0.032 -0.05 -0.052 -0.025 -0.126 -0.009 -0.2 0 -0.299 0.064 -0.719 0.896 -1 1.25 -1.7 0.404 -0.799 0.195 0.601 0.7 1.3 0.505 0.7 0.303 -0.9 0 -1.8 -0.303 -0.9 0.193 -0.9 0.9 -2.1 0.707 -1.2 0.7 -1.9 0.7 -2.8 0 -0.9 0.49 -0.999 1.5 -1.9 0.463 -0.412 0.826 -0.772 1.1 -1.1 0.066 -0.032 0.133 -0.032 0.2 -0.052 1.071 -0.429 1.521 -1.071 2.45 -3 0.929 -1.928 -0.364 -0.128 -0.65 -0.2 -0.286 -0.07 -0.7 -0.578 -1.7 -1.15 -0.206 -0.118 -0.39 -0.174 -0.55 -0.198 l 1.85 -3.05 c 0.593 -0.16 1.229 -0.27 1.85 -0.35 0.227 1.293 0.1 2.5 0.1 2.5 0 0 -0.35 0.414 -0.35 0.7 0 0.286 1.914 -2.357 2.2 -2.5 0.286 -0.144 1.01 0.757 1.15 -0.6 0.008 -0.078 -0.009 -0.08 0 -0.15 z m 2.7 5.4 c -0.103 -0.032 -0.224 0 -0.35 0.052 0 0.354 -0.137 0.611 -0.2 0.75 -0.038 -0.064 -0.15 -0.15 -0.15 -0.15 -0.151 0.279 -0.478 0.526 -0.15 0.45 0.328 -0.074 0.577 0.128 0.35 -0.15 -0.044 -0.052 -0.023 -0.03 -0.05 -0.052 0.043 0.032 0.123 0.052 0.3 0.052 0.199 0 0.306 0 0.45 0 -0.244 0.18 -0.51 0.257 -0.15 0.35 0.48 0.126 0.7 0.152 0.7 0.052 0 -0.1 -0.15 -0.45 -0.15 -0.45 0.094 -0.038 0.181 -0.086 0.1 -0.25 -0.152 -0.302 -0.392 -0.603 -0.7 -0.65 z m 7.65 0.85 c 0.25 0.388 0.489 0.787 0.7 1.2 -0.139 0.807 -0.492 1.35 0.1 1.35 0.166 0 0.313 -0.036 0.45 -0.052 0.019 0.048 0.032 0.102 0.05 0.15 -1.01 0 -1.495 0.302 -2 0.2 -0.505 -0.102 -1.909 -0.192 -1 -1.1 0.531 -0.532 1.195 -1.376 1.7 -1.75 z m -6.3 1.851 c 0.093 0.03 0.174 0.126 0.25 0.298 0.303 0.707 0.804 1.299 0.4 1.4 -0.404 0.1 -0.6 0.2 -0.6 0.2 0 0 1.399 0.91 1.5 -0.1 0.101 -1.01 -0.4 -1.601 -0.4 -1.601 0 0 0.698 0.696 0.9 1.1 0.202 0.404 0.195 0 0.7 0.5 0.505 0.505 0.393 -2.01 1.1 -1.3 0.707 0.707 1.152 0.695 0.95 1.2 -0.202 0.505 1.3 -0.61 1.3 0.4 0 0.974 0.621 1.369 -0.6 1.85 -0.462 -0.032 -0.828 -0.11 -0.9 -0.251 -0.202 -0.404 -1.35 -0.1 -1.35 -0.1 -3.02 -0.755 -4.334 -0.995 -5.2 -0.85 0.016 -0.032 0.032 -0.032 0.05 -0.052 0.442 -0.796 1.273 -1.901 1 -2.3 0.385 -0.222 0.687 -0.465 0.9 -0.4 z m 8.5 5.05 c 0.009 0.202 0 0.395 0 0.6 0 0.569 -0.034 1.149 -0.1 1.7 -0.909 -0.809 -2.2 -0.8 -2.2 -0.8 0 0 0.789 -0.896 1.9 -1.3 0.139 -0.052 0.288 -0.118 0.4 -0.2 z" style="fill:#000;fill-opacity:0.322;color:#000"/>
</svg>
