<?xml version="1.0" encoding="UTF-8" standalone="no"?>
<!-- Created with Inkscape (http://www.inkscape.org/) -->

<svg
   xmlns:dc="http://purl.org/dc/elements/1.1/"
   xmlns:cc="http://creativecommons.org/ns#"
   xmlns:rdf="http://www.w3.org/1999/02/22-rdf-syntax-ns#"
   xmlns:svg="http://www.w3.org/2000/svg"
   xmlns="http://www.w3.org/2000/svg"
   xmlns:sodipodi="http://sodipodi.sourceforge.net/DTD/sodipodi-0.dtd"
   xmlns:inkscape="http://www.inkscape.org/namespaces/inkscape"
   width="96"
   height="96"
   id="svg2"
   version="1.1"
   inkscape:version="0.91 r"
   sodipodi:docname="custom-folder-rss.svg">
  <defs
     id="defs4" />
  <sodipodi:namedview
     id="base"
     pagecolor="#ffffff"
     bordercolor="#666666"
     borderopacity="1.0"
     inkscape:pageopacity="0.0"
     inkscape:pageshadow="2"
     inkscape:zoom="8"
     inkscape:cx="43.166838"
     inkscape:cy="39.928123"
     inkscape:document-units="px"
     inkscape:current-layer="layer1"
     showgrid="true"
     inkscape:window-width="1280"
     inkscape:window-height="998"
     inkscape:window-x="0"
     inkscape:window-y="0"
     inkscape:window-maximized="1">
    <inkscape:grid
       type="xygrid"
       id="grid2990"
       empspacing="5"
       visible="true"
       enabled="true"
       snapvisiblegridlinesonly="true" />
  </sodipodi:namedview>
  <metadata
     id="metadata7">
    <rdf:RDF>
      <cc:Work
         rdf:about="">
        <dc:format>image/svg+xml</dc:format>
        <dc:type
           rdf:resource="http://purl.org/dc/dcmitype/StillImage" />
        <dc:title />
      </cc:Work>
    </rdf:RDF>
  </metadata>
  <g
     inkscape:label="Body"
     inkscape:groupmode="layer"
     id="layer1"
     transform="translate(0,-956.3622)">
    <path
       style="font-size:medium;font-style:normal;font-variant:normal;font-weight:normal;font-stretch:normal;text-indent:0;text-align:start;text-decoration:none;line-height:normal;letter-spacing:normal;word-spacing:normal;text-transform:none;direction:ltr;block-progression:tb;writing-mode:lr-tb;text-anchor:start;baseline-shift:baseline;color:replacecolour3;fill:replacecolour1;fill-opacity:1;fill-rule:nonzero;stroke:none;stroke-width:1;marker:none;visibility:visible;display:inline;overflow:visible;enable-background:accumulate;font-family:Sans;-inkscape-font-specification:Sans"
       d="m 12.000041,968.36224 c -1.999999,0 -3.999998,2 -3.999998,3.99999 l 0,4 -1.999999,0 c -1.999999,0 -4.0111358,1.8984 -3.999998,4 l 0,55.99997 c 2.56e-4,2.2414 2.075525,3.9998 4.3749978,4 l 83.2499582,0 c 2.374999,0 4.374998,-2 4.374998,-4 l 0,-49.99997 c 0,-2 -1.999999,-4 -3.999998,-4 l -3.999998,0 0,-10 c 0,-1.99999 -1.999999,-3.99999 -3.999998,-3.99999 z"
       id="path3770"
       inkscape:connector-curvature="0"
       sodipodi:nodetypes="sscsccccccccsss" />
    <path
       inkscape:connector-curvature="0"
       style="font-size:medium;font-style:normal;font-variant:normal;font-weight:normal;font-stretch:normal;text-indent:0;text-align:start;text-decoration:none;line-height:normal;letter-spacing:normal;word-spacing:normal;text-transform:none;direction:ltr;block-progression:tb;writing-mode:lr-tb;text-anchor:start;baseline-shift:baseline;color:replacecolour3;fill:replacecolour2;fill-opacity:1.;fill-rule:nonzero;stroke:none;stroke-width:1;marker:none;visibility:visible;display:inline;overflow:visible;enable-background:accumulate;font-family:Sans;-inkscape-font-specification:Sans"
       d="m 12.000041,968.36224 c -1.999999,0 -3.999998,2 -3.999998,3.99999 l 0,4 -1.999999,0 c -1.999999,0 -4.0111358,1.8984 -3.999998,4 l 0,55.99997 c 2.56e-4,2.2414 2.075525,3.9998 4.3749978,4 l 83.2499582,0 c 2.374999,0 4.374998,-2 4.374998,-4 l 0,-49.99997 c 0,-2 -1.999999,-4 -3.999998,-4 l -3.999998,0 0,-10 c 0,-1.99999 -1.999999,-3.99999 -3.999998,-3.99999 l -69.999965,0 z m -5.999997,9.99999 47.999976,0 c 1.014627,0 1.999999,0.9884 1.999999,2 l 0,4 33.999983,0 c 1.081715,0 1.999999,0.9436 1.999999,2 l 0,49.99997 c 0,1.1076 -0.90423,2 -1.999999,2 l -83.999958,0 c -1.0254515,0 -1.999999,-0.8924 -1.999999,-2 l 0,-55.99997 c 0,-1.0866 0.9580835,-2 1.999999,-2 z"
       id="path3779" />
    <path
       style="fill:replacecolour3;fill-opacity:1.;fill-rule:nonzero;stroke:none"
       d="m 31.999985,996.36222 0,5.99998 c 13.528861,1.4938 26.053559,12.5534 25.999987,26 l 5.999997,0 c 0,-19.2086 -17.250173,-31.39198 -31.999984,-31.99998 z m 0,9.99998 0,6 c 7.331532,0.6028 15.918232,7.4454 15.999992,16 l 5.999997,0 c -0.318864,-13.0444 -12.893098,-21.0738 -21.999989,-22 z m 5.124997,12 c -2.760706,-0.08 -5.047157,2.115 -5.124997,4.875 -0.08178,2.759 2.112971,5.041 4.874998,5.125 2.760706,0.08 5.047137,-2.1148 5.124997,-4.875 0.08178,-2.7586 -2.112971,-5.041 -4.874998,-5.125 z"
       id="path3392"
       inkscape:connector-curvature="0" />
  </g>
</svg>
