<svg xmlns="http://www.w3.org/2000/svg" viewBox="0 0 96 96">
 <path d="m 12 12 c -2 0 -4 2 -4 4 l 0 4 -2 0 c -2 0 -4.01 1.898 -4 4 l 0 56 c 0 2.241 2.076 4 4.375 4 l 83.25 0 c 2.375 0 4.375 -2 4.375 -4 l 0 -50 c 0 -2 -2 -4 -4 -4 l -4 0 0 -10 c 0 -2 -2 -4 -4 -4 z" style="visibility:visible;fill:replacecolour1;fill-opacity:1;stroke:none;display:inline;color:replacecolour3;fill-rule:nonzero"/>
 <path d="m 12 12 c -2 0 -4 2 -4 4 l 0 4 -2 0 c -2 0 -4.01 1.898 -4 4 l 0 56 c 0 2.241 2.076 4 4.375 4 l 83.25 0 c 2.375 0 4.375 -2 4.375 -4 l 0 -50 c 0 -2 -2 -4 -4 -4 l -4 0 0 -10 c 0 -2 -2 -4 -4 -4 l -70 0 z m -6 10 48 0 c 1.015 0 2 0.988 2 2 l 0 4 34 0 c 1.082 0 2 0.944 2 2 l 0 50 c 0 1.108 -0.904 2 -2 2 l -84 0 c -1.025 0 -2 -0.892 -2 -2 l 0 -56 c 0 -1.087 0.958 -2 2 -2 z" style="visibility:visible;fill:replacecolour2;fill-opacity:1;stroke:none;display:inline;color:replacecolour3;fill-rule:nonzero"/>
 <path d="m 52.25 41.31 c -3.185 0 -5.812 2.415 -5.812 5.437 0.024 1.037 0.081 2.351 0.687 5.125 l 0.063 0 c 0.122 0.367 0.31 0.732 0.625 1.125 0.282 0.352 0.655 0.753 1 1.125 0.106 0.784 0.122 1.47 0 2.313 -0.946 0.718 -2.651 1.388 -4.187 2 -0.801 0.319 -1.541 0.614 -2.125 1 -0.557 0.369 -0.961 0.87 -1 1.5 -0.002 0.03 -0.063 0.032 -0.063 0.062 l -0.687 5.313 0 0.062 c 0 0.658 0.439 1.197 1.062 1.625 0.624 0.428 1.471 0.764 2.5 1.063 2.059 0.598 4.852 0.937 7.937 0.937 3.086 0 5.879 -0.34 7.937 -0.937 1.029 -0.299 1.876 -0.634 2.5 -1.063 0.624 -0.428 1.062 -0.967 1.062 -1.625 l 0 -0.062 -0.75 -5.313 c 0 -0.02 0.001 -0.042 0 -0.062 -0.019 -0.301 -0.127 -0.596 -0.312 -0.813 -0.198 -0.231 -0.459 -0.381 -0.75 -0.562 -0.582 -0.363 -1.324 -0.67 -2.125 -1 -1.556 -0.641 -3.258 -1.366 -4.187 -2.125 -0.07 -0.725 -0.073 -1.463 0 -2.188 0.336 -0.397 0.713 -0.806 1 -1.187 0.32 -0.425 0.561 -0.81 0.687 -1.188 0.684 -2.889 0.714 -4.068 0.75 -5.125 0 -3.02 -2.628 -5.437 -5.812 -5.437 z m -10.812 1 c -2.616 0 -4.75 2.02 -4.75 4.5 0.019 0.85 0.065 1.848 0.562 4.125 l 0 0.062 c 0.101 0.304 0.3 0.548 0.563 0.875 0.229 0.286 0.535 0.638 0.813 0.938 0.084 0.628 0.095 1.263 0 1.937 -0.773 0.593 -2.172 1.125 -3.437 1.625 -0.656 0.259 -1.209 0.497 -1.687 0.813 -0.452 0.298 -0.774 0.741 -0.812 1.25 -0.002 0.03 -0.063 0.032 -0.063 0.062 l -0.625 4.313 0 0.062 c 0 0.406 0.194 0.756 0.5 1.063 0.306 0.306 0.731 0.587 1.25 0.812 1.024 0.446 2.484 0.755 4.25 0.938 l 0.063 0 c 0.096 0 0.192 -0.026 0.25 -0.062 0.072 -0.046 0.157 -0.082 0.188 -0.124 0.062 -0.086 0.098 -0.172 0.125 -0.25 0.047 -0.136 0.056 -0.298 0.063 -0.437 0.001 -0.02 0 -0.042 0 -0.062 l 0.687 -5.312 c -0.001 -0.217 0.15 -0.478 0.5 -0.75 0.35 -0.272 0.881 -0.544 1.5 -0.813 1.238 -0.537 2.807 -1.035 4.062 -1.687 l 0.688 -0.375 -0.688 -0.313 c -0.496 -0.241 -0.875 -0.505 -1.187 -0.75 -0.061 -0.617 -0.064 -1.26 0 -1.875 0.002 -0.02 -0.002 -0.042 0 -0.062 0.477 -0.642 0.839 -1.308 1 -1.688 l 0.063 -0.124 -0.063 -0.124 c -0.054 -0.31 -0.036 -0.546 -0.125 -0.812 -0.599 -2.741 -0.665 -3.872 -0.687 -4.875 0 -0.422 0.099 -0.913 0.25 -1.375 l 0.125 -0.25 -0.25 -0.124 c -0.835 -0.667 -1.939 -1.125 -3.125 -1.125 z" style="fill:replacecolour3;fill-opacity:1;color:replacecolour3"/>
</svg>
