<?xml version="1.0" encoding="UTF-8" standalone="no"?>
<svg
   xmlns:dc="http://purl.org/dc/elements/1.1/"
   xmlns:cc="http://creativecommons.org/ns#"
   xmlns:rdf="http://www.w3.org/1999/02/22-rdf-syntax-ns#"
   xmlns:svg="http://www.w3.org/2000/svg"
   xmlns="http://www.w3.org/2000/svg"
   xmlns:sodipodi="http://sodipodi.sourceforge.net/DTD/sodipodi-0.dtd"
   xmlns:inkscape="http://www.inkscape.org/namespaces/inkscape"
   width="96"
   viewBox="0 0 96 96"
   height="96"
   id="svg3031"
   version="1.1"
   inkscape:version="0.91 r"
   sodipodi:docname="green-folder-recent.svg">
  <metadata
     id="metadata3049">
    <rdf:RDF>
      <cc:Work
         rdf:about="">
        <dc:format>image/svg+xml</dc:format>
        <dc:type
           rdf:resource="http://purl.org/dc/dcmitype/StillImage" />
      </cc:Work>
    </rdf:RDF>
  </metadata>
  <defs
     id="defs3047" />
  <sodipodi:namedview
     pagecolor="#ffffff"
     bordercolor="#666666"
     borderopacity="1"
     objecttolerance="10"
     gridtolerance="10"
     guidetolerance="10"
     inkscape:pageopacity="0"
     inkscape:pageshadow="2"
     inkscape:window-width="1280"
     inkscape:window-height="998"
     id="namedview3045"
     showgrid="true"
     inkscape:zoom="4.9166665"
     inkscape:cx="59.552284"
     inkscape:cy="35.357787"
     inkscape:window-x="0"
     inkscape:window-y="0"
     inkscape:window-maximized="1"
     inkscape:current-layer="svg3031">
    <inkscape:grid
       type="xygrid"
       id="grid2992"
       empspacing="5"
       visible="true"
       enabled="true"
       snapvisiblegridlinesonly="true" />
  </sodipodi:namedview>
  <path
     style="font-size:medium;font-style:normal;font-variant:normal;font-weight:normal;font-stretch:normal;text-indent:0;text-align:start;text-decoration:none;line-height:normal;letter-spacing:normal;word-spacing:normal;text-transform:none;direction:ltr;block-progression:tb;writing-mode:lr-tb;text-anchor:start;baseline-shift:baseline;color:#000000;fill:#66bb6a;fill-opacity:1;fill-rule:nonzero;stroke:none;stroke-width:1;marker:none;visibility:visible;display:inline;overflow:visible;enable-background:accumulate;font-family:Sans;-inkscape-font-specification:Sans"
     d="m 12.000041,12.000036 c -1.999999,0 -3.999998,1.999999 -3.999998,3.999998 l 0,3.999998 -1.999999,0 c -1.999999,0 -4.0111358,1.898413 -3.999998,3.999998 l 0,55.999972 C 2.000302,82.241469 4.075571,83.9998 6.3750438,84 L 89.625002,84 C 92.000001,84 94,82.000001 94,80.000002 l 0,-49.999975 c 0,-1.999999 -1.999999,-3.999998 -3.999998,-3.999998 l -3.999998,0 0,-9.999995 c 0,-1.999999 -1.999999,-3.999998 -3.999998,-3.999998 z"
     id="path3770"
     inkscape:connector-curvature="0"
     sodipodi:nodetypes="sscsccccccccsss" />
  <path
     inkscape:connector-curvature="0"
     style="font-size:medium;font-style:normal;font-variant:normal;font-weight:normal;font-stretch:normal;text-indent:0;text-align:start;text-decoration:none;line-height:normal;letter-spacing:normal;word-spacing:normal;text-transform:none;direction:ltr;block-progression:tb;writing-mode:lr-tb;text-anchor:start;baseline-shift:baseline;color:#000000;fill:#000000;fill-opacity:0.32156863;fill-rule:nonzero;stroke:none;stroke-width:1;marker:none;visibility:visible;display:inline;overflow:visible;enable-background:accumulate;font-family:Sans;-inkscape-font-specification:Sans"
     d="m 12.000041,12.000036 c -1.999999,0 -3.999998,1.999999 -3.999998,3.999998 l 0,3.999998 -1.999999,0 c -1.999999,0 -4.0111358,1.898413 -3.999998,3.999998 l 0,55.999972 C 2.000302,82.241469 4.075571,83.9998 6.3750438,84 L 89.625002,84 C 92.000001,84 94,82.000001 94,80.000002 l 0,-49.999975 c 0,-1.999999 -1.999999,-3.999998 -3.999998,-3.999998 l -3.999998,0 0,-9.999995 c 0,-1.999999 -1.999999,-3.999998 -3.999998,-3.999998 l -69.999965,0 z m -5.999997,9.999995 47.999976,0 c 1.014627,0 1.999999,0.988334 1.999999,1.999999 l 0,3.999998 33.999983,0 c 1.081715,0 1.999999,0.943618 1.999999,1.999999 l 0,49.999975 c 0,1.107509 -0.90423,1.999999 -1.999999,1.999999 l -83.999958,0 c -1.0254495,0 -1.999999,-0.892492 -1.999999,-1.999999 l 0,-55.999972 c 0,-1.086635 0.9580855,-1.999999 1.999999,-1.999999 z"
     id="path3779" />
  <path
     style="line-height:normal;color:#000000;fill:#000000;fill-opacity:0.32157072"
     d="m 33.999984,40.000022 0,9.999995 9.999995,0 -3.437498,-3.437498 c 2.045277,-1.6056 4.636005,-2.562499 7.437496,-2.562499 6.627413,0 11.999994,5.372597 11.999994,11.999994 0,6.627397 -5.372581,11.999994 -11.999994,11.999994 -6.627413,0 -11.999994,-5.372597 -11.999994,-11.999994 0,-1.401399 0.245968,-2.749799 0.6875,-3.999998 l -4.187498,0 c -0.32741,1.275399 -0.5,2.622399 -0.5,3.999998 0,8.836596 7.163442,15.999992 15.999992,15.999992 8.836552,0 15.999992,-7.163396 15.999992,-15.999992 0,-8.836596 -7.16344,-15.999992 -15.999992,-15.999992 -3.91374,0 -7.532386,1.353899 -10.312495,3.687498 l -3.687498,-3.687498 z m 13.812493,5.937497 a 2.000199,2.000199 0 0 0 -0.25,0.0625 2.000199,2.000199 0 0 0 -1.562499,1.999999 l 0,7.374996 a 2.000199,2.000199 0 0 0 0,0.1875 2.000199,2.000199 0 0 0 0.25,1.5 2.000199,2.000199 0 0 0 0.0625,0.0625 2.000199,2.000199 0 0 0 0.0625,0.125 2.000199,2.000199 0 0 0 0.0625,0.0625 2.000199,2.000199 0 0 0 0.0625,0.0625 2.000199,2.000199 0 0 0 0.0625,0.0625 2.000199,2.000199 0 0 0 0.0625,0.0625 2.000199,2.000199 0 0 0 0.125,0.0625 2.000199,2.000199 0 0 0 0.0625,0.0625 2.000199,2.000199 0 0 0 0.0625,0.0625 2.000199,2.000199 0 0 0 0.125,0.0625 2.000199,2.000199 0 0 0 0.249999,0.125 l 4.937498,2.874998 a 2.0155636,2.0155636 0 0 0 1.999999,-3.499998 l -4.187498,-2.437499 0,-6.812497 a 2.000199,2.000199 0 0 0 -2.187499,-2.062499 z"
     id="path4105"
     inkscape:connector-curvature="0" />
</svg>
