<svg xmlns="http://www.w3.org/2000/svg" viewBox="0 0 96 96">
 <path d="m 12 12 c -2 0 -4 2 -4 4 l 0 4 -2 0 c -2 0 -4.01 1.898 -4 4 l 0 56 c 0 2.241 2.076 4 4.375 4 l 83.25 0 c 2.375 0 4.375 -2 4.375 -4 l 0 -50 c 0 -2 -2 -4 -4 -4 l -4 0 0 -10 c 0 -2 -2 -4 -4 -4 z" style="visibility:visible;fill:#bdbdbd;fill-opacity:1;stroke:none;display:inline;color:#000;fill-rule:nonzero"/>
 <path d="m 12 12 c -2 0 -4 2 -4 4 l 0 4 -2 0 c -2 0 -4.01 1.898 -4 4 l 0 56 c 0 2.241 2.076 4 4.375 4 l 83.25 0 c 2.375 0 4.375 -2 4.375 -4 l 0 -50 c 0 -2 -2 -4 -4 -4 l -4 0 0 -10 c 0 -2 -2 -4 -4 -4 l -70 0 z m -6 10 48 0 c 1.015 0 2 0.988 2 2 l 0 4 34 0 c 1.082 0 2 0.944 2 2 l 0 50 c 0 1.108 -0.904 2 -2 2 l -84 0 c -1.025 0 -2 -0.892 -2 -2 l 0 -56 c 0 -1.087 0.958 -2 2 -2 z" style="visibility:visible;fill:#000;fill-opacity:0.322;stroke:none;display:inline;color:#000;fill-rule:nonzero"/>
 <path d="m 60.57 37.878 c -1.465 0.024 -2.906 0.983 -3.137 2.772 -0.369 2.861 2.399 1.788 4.613 1.788 2.214 0 2.952 4.649 2.399 7.153 -0.554 2.504 -6.438 8.417 -19.742 2.504 -10.953 -4.869 -16.422 1.614 -16.698 1.743 1.037 9.672 9.488 20.16 19.742 20.16 10.954 0 19.834 -11.557 19.834 -22.17 0 -1.219 -0.145 -2.42 -0.369 -3.576 -0.204 -0.584 -0.404 -1.167 -0.554 -1.699 -0.268 -0.953 -0.571 -1.756 -0.83 -2.504 -0.011 -0.024 0.011 -0.064 0 -0.09 -1.049 -2.257 -2.519 -4.297 -4.336 -5.991 -0.008 -0.02 -0.038 0.02 -0.046 0 -0.284 -0.07 -0.583 -0.094 -0.876 -0.09 z" style="fill:#000;fill-opacity:0.322;color:#000"/>
 <path d="m 60 48 c 0 1.105 -0.895 2 -2 2 -1.105 0 -2 -0.895 -2 -2 0 -1.105 0.895 -2 2 -2 1.105 0 2 0.896 2 2 z" style="fill:#000;fill-opacity:0.322;color:#000"/>
 <path d="m 54 41 c 0 0.552 -0.448 1 -1 1 -0.552 0 -1 -0.448 -1 -1 0 -0.552 0.448 -1 1 -1 0.552 0 1 0.448 1 1 z" style="fill:#000;fill-opacity:0.322;color:#000"/>
</svg>
