<svg xmlns="http://www.w3.org/2000/svg" viewBox="0 0 96 96">
 <path d="m 12 12 c -2 0 -4 2 -4 4 l 0 4 -2 0 c -2 0 -4.01 1.898 -4 4 l 0 56 c 0 2.241 2.076 4 4.375 4 l 83.25 0 c 2.375 0 4.375 -2 4.375 -4 l 0 -50 c 0 -2 -2 -4 -4 -4 l -4 0 0 -10 c 0 -2 -2 -4 -4 -4 z" style="visibility:visible;fill:#f06292;fill-opacity:1;stroke:none;display:inline;color:#000;fill-rule:nonzero"/>
 <path d="m 31.26 51.42 c -1.799 0 -3.257 1.437 -3.257 3.211 0 1.773 1.458 3.21 3.257 3.21 1.798 0 3.256 -1.437 3.256 -3.21 0 -1.774 -1.458 -3.211 -3.256 -3.211 z m 23.25 14.593 c -1.558 0.887 -2.091 2.849 -1.192 4.385 0.899 1.536 2.89 2.062 4.448 1.175 1.557 -0.886 2.091 -2.849 1.191 -4.385 -0.899 -1.535 -2.89 -2.061 -4.447 -1.175 z m -16.178 -11.383 c 0 -3.173 1.599 -5.976 4.045 -7.673 l -2.381 -3.932 c -2.85 1.877 -4.97 4.747 -5.85 8.109 1.029 0.827 1.686 2.086 1.686 3.497 0 1.411 -0.657 2.67 -1.686 3.496 0.88 3.362 3 6.232 5.85 8.109 l 2.381 -3.932 c -2.446 -1.697 -4.045 -4.499 -4.045 -7.673 z m 9.513 -9.379 c 4.97 0 9.05 3.757 9.473 8.547 l 4.641 -0.067 c -0.228 -3.537 -1.795 -6.713 -4.203 -9.05 -1.238 0.461 -2.668 0.391 -3.905 -0.313 -1.238 -0.705 -2.01 -1.893 -2.227 -3.183 -1.203 -0.328 -2.47 -0.507 -3.779 -0.507 -2.252 0 -4.38 0.521 -6.27 1.444 l 2.262 3.998 c 1.218 -0.559 2.575 -0.873 4.01 -0.873 z m 0 18.758 c -1.432 0 -2.789 -0.314 -4.01 -0.873 l -2.263 3.998 c 1.89 0.923 4.02 1.444 6.27 1.444 1.309 0 2.576 -0.179 3.779 -0.507 0.213 -1.29 0.99 -2.478 2.227 -3.183 1.236 -0.703 2.666 -0.773 3.905 -0.312 2.408 -2.334 3.975 -5.511 4.203 -9.05 l -4.641 -0.067 c -0.427 4.791 -4.504 8.547 -9.473 8.547 z m 6.665 -20.762 c 1.557 0.887 3.548 0.361 4.447 -1.174 0.899 -1.536 0.366 -3.499 -1.191 -4.385 -1.557 -0.886 -3.548 -0.36 -4.448 1.175 -0.899 1.535 -0.366 3.498 1.192 4.384 z" style="fill:#000;fill-opacity:0.322;color:#000"/>
 <path d="m 12 12 c -2 0 -4 2 -4 4 l 0 4 -2 0 c -2 0 -4.01 1.898 -4 4 l 0 56 c 0 2.241 2.076 4 4.375 4 l 83.25 0 c 2.375 0 4.375 -2 4.375 -4 l 0 -50 c 0 -2 -2 -4 -4 -4 l -4 0 0 -10 c 0 -2 -2 -4 -4 -4 l -70 0 z m -6 10 48 0 c 1.015 0 2 0.988 2 2 l 0 4 34 0 c 1.082 0 2 0.944 2 2 l 0 50 c 0 1.108 -0.904 2 -2 2 l -84 0 c -1.025 0 -2 -0.892 -2 -2 l 0 -56 c 0 -1.087 0.958 -2 2 -2 z" style="visibility:visible;fill:#000;fill-opacity:0.322;stroke:none;display:inline;color:#000;fill-rule:nonzero"/>
</svg>
