<?xml version="1.0" encoding="UTF-8" standalone="no"?>
<svg
   xmlns:dc="http://purl.org/dc/elements/1.1/"
   xmlns:cc="http://creativecommons.org/ns#"
   xmlns:rdf="http://www.w3.org/1999/02/22-rdf-syntax-ns#"
   xmlns:svg="http://www.w3.org/2000/svg"
   xmlns="http://www.w3.org/2000/svg"
   xmlns:sodipodi="http://sodipodi.sourceforge.net/DTD/sodipodi-0.dtd"
   xmlns:inkscape="http://www.inkscape.org/namespaces/inkscape"
   width="96"
   viewBox="0 0 96 96"
   height="96"
   id="svg3111"
   version="1.1"
   inkscape:version="0.91 r"
   sodipodi:docname="red-folder-ubuntu.svg">
  <metadata
     id="metadata3129">
    <rdf:RDF>
      <cc:Work
         rdf:about="">
        <dc:format>image/svg+xml</dc:format>
        <dc:type
           rdf:resource="http://purl.org/dc/dcmitype/StillImage" />
      </cc:Work>
    </rdf:RDF>
  </metadata>
  <defs
     id="defs3127" />
  <sodipodi:namedview
     pagecolor="#ffffff"
     bordercolor="#666666"
     borderopacity="1"
     objecttolerance="10"
     gridtolerance="10"
     guidetolerance="10"
     inkscape:pageopacity="0"
     inkscape:pageshadow="2"
     inkscape:window-width="1280"
     inkscape:window-height="998"
     id="namedview3125"
     showgrid="false"
     inkscape:zoom="4.9166667"
     inkscape:cx="24"
     inkscape:cy="24"
     inkscape:window-x="0"
     inkscape:window-y="0"
     inkscape:window-maximized="1"
     inkscape:current-layer="svg3111" />
  <path
     style="font-size:medium;font-style:normal;font-variant:normal;font-weight:normal;font-stretch:normal;text-indent:0;text-align:start;text-decoration:none;line-height:normal;letter-spacing:normal;word-spacing:normal;text-transform:none;direction:ltr;block-progression:tb;writing-mode:lr-tb;text-anchor:start;baseline-shift:baseline;color:#000000;fill:#ef5350;fill-opacity:1;fill-rule:nonzero;stroke:none;stroke-width:1;marker:none;visibility:visible;display:inline;overflow:visible;enable-background:accumulate;font-family:Sans;-inkscape-font-specification:Sans"
     d="m 12.000041,12.000035 c -1.999999,0 -3.9999979,2 -3.9999979,3.999998 l 0,3.999998 -1.9999991,0 c -1.999999,0 -4.0111358,1.898414 -3.999998,3.999999 l 0,55.999972 C 2.0003021,82.241469 4.075571,83.9998 6.3750438,84 L 89.625002,84 C 92,84 94,82.000001 94,80.000002 l 0,-49.999975 c 0,-1.999999 -2,-3.999998 -3.999998,-3.999998 l -3.999998,0 0,-9.999996 c 0,-1.999998 -1.999999,-3.999998 -3.999998,-3.999998 z"
     id="path3770"
     inkscape:connector-curvature="0"
     sodipodi:nodetypes="sscsccccccccsss" />
  <path
     style="line-height:normal;color:#000000;fill:#000000;fill-opacity:0.32156863"
     d="m 31.256599,51.4167 c -1.79894,0 -3.256612,1.437194 -3.256612,3.210863 0,1.772991 1.457672,3.210354 3.256612,3.210354 1.798251,0 3.256095,-1.437363 3.256095,-3.210354 0,-1.773839 -1.457669,-3.210863 -3.256095,-3.210863 z m 23.251654,14.592857 c -1.55766,0.886581 -2.09082,2.849444 -1.191951,4.384544 0.899384,1.535777 2.89004,2.061787 4.447702,1.175205 1.557143,-0.886409 2.090649,-2.849273 1.191436,-4.384882 -0.89904,-1.535099 -2.890043,-2.061276 -4.447187,-1.174867 z M 38.330176,54.627055 c 0,-3.173195 1.599307,-5.975975 4.044992,-7.673119 L 39.994363,43.02193 c -2.849946,1.877346 -4.969849,4.74732 -5.850475,8.10869 1.028632,0.826682 1.685873,2.085541 1.685873,3.496775 0,1.410891 -0.657241,2.66975 -1.686047,3.496264 0.880456,3.361708 3.000532,6.231683 5.850479,8.108858 l 2.380975,-3.932344 C 39.929483,60.60337 38.330176,57.800757 38.330176,54.627055 z m 9.512719,-9.379086 c 4.969676,0 9.046161,3.756894 9.473483,8.547312 l 4.64114,-0.06686 c -0.228376,-3.536818 -1.795327,-6.712896 -4.203494,-9.047191 -1.238076,0.461192 -2.66838,0.391284 -3.904561,-0.312552 -1.23773,-0.704512 -2.014409,-1.892955 -2.227124,-3.182695 -1.203307,-0.328331 -2.469778,-0.507345 -3.779272,-0.507345 -2.252075,0 -4.379724,0.521259 -6.269705,1.444321 l 2.262401,3.99767 c 1.21794,-0.558758 2.575103,-0.872666 4.007132,-0.872666 z m 0,18.758341 c -1.432201,0 -2.789192,-0.313908 -4.007304,-0.872665 l -2.262745,3.998009 c 1.890153,0.922722 4.017972,1.444149 6.270049,1.444149 1.309493,0 2.575963,-0.179019 3.779444,-0.507343 0.212715,-1.289742 0.989563,-2.478183 2.227467,-3.183204 1.236182,-0.703496 2.666488,-0.773404 3.904562,-0.312044 2.407995,-2.334463 3.974948,-5.510541 4.202978,-9.04736 l -4.641141,-0.06686 c -0.426974,4.791096 -4.503634,8.547312 -9.47331,8.547312 z m 6.664843,-20.761928 c 1.557487,0.88692 3.54849,0.36074 4.447356,-1.174359 0.899385,-1.535777 0.366226,-3.498641 -1.191434,-4.385389 -1.557318,-0.886413 -3.548146,-0.360403 -4.447532,1.175374 -0.899039,1.5351 -0.365535,3.498133 1.19161,4.384374 z"
     id="path3123"
     inkscape:connector-curvature="0" />
  <path
     inkscape:connector-curvature="0"
     style="font-size:medium;font-style:normal;font-variant:normal;font-weight:normal;font-stretch:normal;text-indent:0;text-align:start;text-decoration:none;line-height:normal;letter-spacing:normal;word-spacing:normal;text-transform:none;direction:ltr;block-progression:tb;writing-mode:lr-tb;text-anchor:start;baseline-shift:baseline;color:#000000;fill:#000000;fill-opacity:0.32156863;fill-rule:nonzero;stroke:none;stroke-width:1;marker:none;visibility:visible;display:inline;overflow:visible;enable-background:accumulate;font-family:Sans;-inkscape-font-specification:Sans"
     d="m 12.000041,12.000035 c -1.999999,0 -3.9999979,2 -3.9999979,3.999998 l 0,3.999998 -1.9999991,0 c -1.999999,0 -4.0111358,1.898414 -3.999998,3.999999 l 0,55.999972 C 2.0003021,82.241469 4.075571,83.9998 6.3750438,84 L 89.625002,84 C 92,84 94,82.000001 94,80.000002 l 0,-49.999975 c 0,-1.999999 -2,-3.999998 -3.999998,-3.999998 l -3.999998,0 0,-9.999996 c 0,-1.999998 -1.999999,-3.999998 -3.999998,-3.999998 l -69.999965,0 z m -5.999997,9.999996 47.999976,0 c 1.014627,0 1.999999,0.988334 1.999999,1.999999 l 0,3.999998 33.999983,0 C 91.081718,28.000028 92,28.943646 92,30.000027 l 0,49.999975 c 0,1.107509 -0.904228,1.999999 -1.999998,1.999999 l -83.999958,0 c -1.0254515,0 -1.999999,-0.892492 -1.999999,-1.999999 l 0,-55.999972 c 0,-1.086636 0.9580835,-1.999999 1.999999,-1.999999 z"
     id="path3779" />
</svg>
