<svg xmlns="http://www.w3.org/2000/svg" viewBox="0 0 96 96">
 <path d="m 12 12 c -2 0 -4 2 -4 4 l 0 4 -2 0 c -2 0 -4.01 1.898 -4 4 l 0 56 c 0 2.241 2.076 4 4.375 4 l 83.25 0 c 2.375 0 4.375 -2 4.375 -4 l 0 -50 c 0 -2 -2 -4 -4 -4 l -4 0 0 -10 c 0 -2 -2 -4 -4 -4 z" style="visibility:visible;fill:#ef5350;fill-opacity:1;stroke:none;display:inline;color:#000;fill-rule:nonzero"/>
 <path d="m 12 12 c -2 0 -4 2 -4 4 l 0 4 -2 0 c -2 0 -4.01 1.898 -4 4 l 0 56 c 0 2.241 2.076 4 4.375 4 l 83.25 0 c 2.375 0 4.375 -2 4.375 -4 l 0 -50 c 0 -2 -2 -4 -4 -4 l -4 0 0 -10 c 0 -2 -2 -4 -4 -4 l -70 0 z m -6 10 48 0 c 1.015 0 2 0.988 2 2 l 0 4 34 0 c 1.082 0 2 0.944 2 2 l 0 50 c 0 1.108 -0.904 2 -2 2 l -84 0 c -1.025 0 -2 -0.892 -2 -2 l 0 -56 c 0 -1.087 0.958 -2 2 -2 z" style="visibility:visible;fill:#000;fill-opacity:0.322;stroke:none;display:inline;color:#000;fill-rule:nonzero"/>
 <path d="m 34 40 0 10 10 0 -3.437 -3.437 c 2.045 -1.606 4.636 -2.562 7.437 -2.562 6.627 0 12 5.373 12 12 0 6.627 -5.373 12 -12 12 -6.627 0 -12 -5.373 -12 -12 0 -1.401 0.246 -2.75 0.688 -4 l -4.187 0 c -0.327 1.275 -0.5 2.622 -0.5 4 0 8.837 7.163 16 16 16 8.837 0 16 -7.163 16 -16 0 -8.837 -7.163 -16 -16 -16 -3.914 0 -7.532 1.354 -10.312 3.687 l -3.687 -3.687 z m 13.812 5.937 a 2 2 0 0 0 -0.25 0.063 2 2 0 0 0 -1.562 2 l 0 7.375 a 2 2 0 0 0 0 0.188 2 2 0 0 0 0.25 1.5 2 2 0 0 0 0.063 0.063 2 2 0 0 0 0.063 0.125 2 2 0 0 0 0.063 0.063 2 2 0 0 0 0.063 0.063 2 2 0 0 0 0.063 0.063 2 2 0 0 0 0.063 0.063 2 2 0 0 0 0.125 0.063 2 2 0 0 0 0.063 0.063 2 2 0 0 0 0.063 0.063 2 2 0 0 0 0.125 0.063 2 2 0 0 0 0.25 0.125 l 4.937 2.875 a 2.02 2.02 0 0 0 2 -3.5 l -4.187 -2.437 0 -6.812 a 2 2 0 0 0 -2.187 -2.062 z" style="fill:#000;fill-opacity:0.322;color:#000"/>
</svg>
