<?xml version="1.0" encoding="UTF-8" standalone="no"?>
<svg
   xmlns:dc="http://purl.org/dc/elements/1.1/"
   xmlns:cc="http://creativecommons.org/ns#"
   xmlns:rdf="http://www.w3.org/1999/02/22-rdf-syntax-ns#"
   xmlns:svg="http://www.w3.org/2000/svg"
   xmlns="http://www.w3.org/2000/svg"
   xmlns:sodipodi="http://sodipodi.sourceforge.net/DTD/sodipodi-0.dtd"
   xmlns:inkscape="http://www.inkscape.org/namespaces/inkscape"
   width="256px"
   height="256px"
   viewBox="0 0 256 256"
   version="1.1"
   id="svg3037"
   inkscape:version="0.48.5 r10040"
   sodipodi:docname="folder-wine.svg">
  <metadata
     id="metadata3054">
    <rdf:RDF>
      <cc:Work
         rdf:about="">
        <dc:format>image/svg+xml</dc:format>
        <dc:type
           rdf:resource="http://purl.org/dc/dcmitype/StillImage" />
      </cc:Work>
    </rdf:RDF>
  </metadata>
  <defs
     id="defs3052" />
  <sodipodi:namedview
     pagecolor="#ffffff"
     bordercolor="#666666"
     borderopacity="1"
     objecttolerance="10"
     gridtolerance="10"
     guidetolerance="10"
     inkscape:pageopacity="0"
     inkscape:pageshadow="2"
     inkscape:window-width="668"
     inkscape:window-height="480"
     id="namedview3050"
     showgrid="false"
     inkscape:zoom="0.921875"
     inkscape:cx="135.59322"
     inkscape:cy="128"
     inkscape:window-x="0"
     inkscape:window-y="0"
     inkscape:window-maximized="0"
     inkscape:current-layer="svg3037" />
  <path
     inkscape:connector-curvature="0"
     id="path3040"
     d="m 36,32 c -5.859375,0 -12,6.046875 -12,12 l 0,4 -12,0 C 6.117188,48 0,53.984375 0,60 l 0,152 c 0,8 4,12 12,12 l 232,0 c 6.27344,0 12,-5.42969 12,-12 l 0,-132 c 0,-6.023438 -5.82031,-12 -12,-12 l -12,0 0,-24 c 0,-5.84375 -5.8125,-12 -12,-12 z m 0,0"
     style="fill:#66bb6a;fill-opacity:1;fill-rule:nonzero;stroke:none" />
  <path
     inkscape:connector-curvature="0"
     id="path3042"
     d="m 36,32 c -5.859375,0 -12,6.046875 -12,12 l 0,4 -12,0 C 6.117188,48 0,53.984375 0,60 l 0,152 c 0,8 4,12 12,12 l 232,0 c 6.27344,0 12,-5.42969 12,-12 l 0,-132 c 0,-6.023438 -5.82031,-12 -12,-12 l -12,0 0,-24 c 0,-5.84375 -5.8125,-12 -12,-12 z m -24,24 136,0 c 2.35937,0 4,2.0625 4,4 l 0,16 92,0 c 2.02344,0 4,2.03125 4,4 l 0,132 c 0,2.08594 -1.91406,4 -4,4 l -232,0 c -1.859375,0 -4,-1.58594 -4,-4 L 8,60 c 0,-1.96875 2.0625,-4 4,-4 z m 0,0"
     style="fill:#000000;fill-opacity:0.32156899;fill-rule:nonzero;stroke:none" />
  <path
     inkscape:connector-curvature="0"
     id="path3044"
     d="m 164.15625,100.00781 c -4.14063,0.0625 -8.21875,2.60938 -8.875,7.36719 -1.04688,7.60156 6.78906,4.75 13.05469,4.75 6.26562,0 8.35156,12.35156 6.78906,19.00781 -1.57031,6.65625 -18.21875,22.36719 -55.86719,6.65625 C 88.257812,124.85156 72.78125,142.07812 72,142.42187 74.929688,168.125 98.851562,196 127.86719,196 158.86719,196 184,165.28906 184,137.07031 c 0,-3.23437 -0.41406,-6.42969 -1.04688,-9.5 -0.57031,-1.55468 -1.14062,-3.10156 -1.5625,-4.51562 -0.75781,-2.53125 -1.61718,-4.66406 -2.35156,-6.65625 -0.0312,-0.0625 0.0312,-0.17188 0,-0.23438 -2.96875,-6 -7.125,-11.42187 -12.27344,-15.92187 -0.0234,-0.0547 -0.10156,0.0547 -0.125,0 -0.80468,-0.1875 -1.65625,-0.250002 -2.48437,-0.24219 z m 0,0"
     style="fill:#000000;fill-opacity:0.32156899;fill-rule:nonzero;stroke:none" />
  <path
     inkscape:connector-curvature="0"
     id="path3046"
     d="m 152,124 c 0,4.42187 -3.57813,8 -8,8 -4.42188,0 -8,-3.57813 -8,-8 0,-4.41406 3.57812,-8 8,-8 4.42187,0 8,3.58594 8,8 z m 0,0"
     style="fill:#000000;fill-opacity:0.32156899;fill-rule:nonzero;stroke:none" />
  <path
     inkscape:connector-curvature="0"
     id="path3048"
     d="m 128,112 c 0,2.21094 -1.78906,4 -4,4 -2.21094,0 -4,-1.78906 -4,-4 0,-2.21094 1.78906,-4 4,-4 2.21094,0 4,1.78906 4,4 z m 0,0"
     style="fill:#000000;fill-opacity:0.32156899;fill-rule:nonzero;stroke:none" />
</svg>
