
<svg xmlns="http://www.w3.org/2000/svg" xmlns:xlink="http://www.w3.org/1999/xlink" width="64px" height="64px" viewBox="0 0 64 64" version="1.1">
<g id="surface1">
<path style=" stroke:none;fill-rule:nonzero;fill:rgb(91.764706%,56.470588%,21.176471%);fill-opacity:1;" d="M 6 14 L 58 14 L 58 34 L 6 34 Z M 6 14 "/>
<path style=" stroke:none;fill-rule:nonzero;fill:rgb(91.764706%,56.470588%,21.176471%);fill-opacity:1;" d="M 12 14 C 12 12 12 10 14.910156 10 L 25.089844 10 C 28 10 28 12 28 14 Z M 12 14 "/>
<path style=" stroke:none;fill-rule:nonzero;fill:rgb(58.431373%,59.607843%,62.352941%);fill-opacity:1;" d="M 10 18 L 54 18 L 54 32 L 10 32 Z M 10 18 "/>
<path style=" stroke:none;fill-rule:nonzero;fill:rgb(84.705882%,84.705882%,85.490196%);fill-opacity:1;" d="M 14 16 L 52 16 L 52 42 L 14 42 Z M 14 16 "/>
<path style=" stroke:none;fill-rule:nonzero;fill:rgb(97.647059%,97.647059%,97.647059%);fill-opacity:1;" d="M 12 20 L 50 20 L 50 46 L 12 46 Z M 12 20 "/>
<path style=" stroke:none;fill-rule:nonzero;fill:rgb(94.901961%,73.333333%,39.215686%);fill-opacity:1;" d="M 4 30 L 60 30 L 56 54 L 8 54 Z M 4 30 "/>
<path style=" stroke:none;fill-rule:nonzero;fill:rgb(80%,80%,80%);fill-opacity:1;" d="M 14 22 L 48 22 L 48 24 L 14 24 Z M 14 22 "/>
<path style=" stroke:none;fill-rule:nonzero;fill:rgb(80%,80%,80%);fill-opacity:1;" d="M 14 26 L 48 26 L 48 28 L 14 28 Z M 14 26 "/>
<path style=" stroke:none;fill-rule:evenodd;fill:rgb(52.156863%,60%,0%);fill-opacity:1;" d="M 58.027344 45.792969 C 58.121094 50.457031 55.664062 54.804688 51.597656 57.164062 C 47.535156 59.523438 42.496094 59.523438 38.429688 57.164062 C 34.363281 54.804688 31.902344 50.457031 32.003906 45.792969 C 31.902344 41.128906 34.363281 36.777344 38.429688 34.417969 C 42.496094 32.058594 47.535156 32.058594 51.597656 34.417969 C 55.664062 36.777344 58.121094 41.128906 58.027344 45.792969 Z M 58.027344 45.792969 "/>
<path style=" stroke:none;fill-rule:nonzero;fill:rgb(100%,100%,100%);fill-opacity:1;" d="M 52.132812 37.527344 C 51.855469 37.628906 51.621094 37.816406 51.464844 38.058594 L 44.371094 44.992188 L 39.945312 40.726562 C 39.769531 40.136719 39.210938 39.742188 38.589844 39.773438 C 37.976562 39.808594 37.464844 40.261719 37.351562 40.867188 C 37.242188 41.476562 37.566406 42.082031 38.132812 42.324219 L 43.464844 47.660156 C 43.976562 48.136719 44.769531 48.136719 45.277344 47.660156 L 53.277344 39.660156 C 53.589844 39.246094 53.632812 38.683594 53.386719 38.226562 C 53.144531 37.769531 52.648438 37.496094 52.132812 37.527344 Z M 52.132812 37.527344 "/>
</g>
</svg>
