<?xml version="1.0" encoding="UTF-8" standalone="no"?>
<svg
   xmlns:dc="http://purl.org/dc/elements/1.1/"
   xmlns:cc="http://creativecommons.org/ns#"
   xmlns:rdf="http://www.w3.org/1999/02/22-rdf-syntax-ns#"
   xmlns:svg="http://www.w3.org/2000/svg"
   xmlns="http://www.w3.org/2000/svg"
   xmlns:sodipodi="http://sodipodi.sourceforge.net/DTD/sodipodi-0.dtd"
   xmlns:inkscape="http://www.inkscape.org/namespaces/inkscape"
   width="96px"
   height="96px"
   viewBox="0 0 96 96"
   version="1.1"
   id="svg2"
   inkscape:version="0.48.5 r10040"
   sodipodi:docname="folder-copy.svg">
  <metadata
     id="metadata19">
    <rdf:RDF>
      <cc:Work
         rdf:about="">
        <dc:format>image/svg+xml</dc:format>
        <dc:type
           rdf:resource="http://purl.org/dc/dcmitype/StillImage" />
      </cc:Work>
    </rdf:RDF>
  </metadata>
  <defs
     id="defs17" />
  <sodipodi:namedview
     pagecolor="#ffffff"
     bordercolor="#666666"
     borderopacity="1"
     objecttolerance="10"
     gridtolerance="10"
     guidetolerance="10"
     inkscape:pageopacity="0"
     inkscape:pageshadow="2"
     inkscape:window-width="668"
     inkscape:window-height="480"
     id="namedview15"
     showgrid="false"
     inkscape:zoom="1.2291667"
     inkscape:cx="46.627397"
     inkscape:cy="71.760158"
     inkscape:window-x="0"
     inkscape:window-y="0"
     inkscape:window-maximized="0"
     inkscape:current-layer="svg2" />
  <path
     inkscape:connector-curvature="0"
     id="path5"
     d="m 10,12 c -2,0 -4,2 -4,4 l -2,0 c -2,0 -4.0117188,1.898438 -4,4 l 0,30 c 0,2.242188 2.074219,4 4.375,4 l 47.25,0 C 54,54 56,52 56,50 l 0,-26 c 0,-2 -2,-4 -4,-4 l -4,0 0,-4 c 0,-2 -2,-4 -4,-4 z m 0,0"
     style="fill:replacecolour1;fill-opacity:1;fill-rule:nonzero;stroke:none" />
  <path
     inkscape:connector-curvature="0"
     id="path7"
     d="m 10,12 c -2,0 -4,2 -4,4 l -2,0 c -2,0 -4.0117188,1.898438 -4,4 l 0,30 c 0,2.242188 2.074219,4 4.375,4 l 47.25,0 C 54,54 56,52 56,50 l 0,-26 c 0,-2 -2,-4 -4,-4 l -4,0 0,-4 c 0,-2 -2,-4 -4,-4 z m -6,6 28,0 c 1.015625,0 2,0.988281 2,2 l 0,2 18,0 c 1.082031,0 2,0.945312 2,2 l 0,26 c 0,1.109375 -0.902344,2 -2,2 L 4,52 C 2.972656,52 2,51.109375 2,50 L 2,20 c 0,-1.085938 0.957031,-2 2,-2 z m 0,0"
     style="fill:replacecolour3;fill-opacity:1.;fill-rule:nonzero;stroke:none" />
  <path
     inkscape:connector-curvature="0"
     id="path9"
     d="m 10.000051,12 c -1.75,0 -3.527344,1.527344 -3.9375,3.25 -0.05859,0.246094 -0.0625,0.5 -0.0625,0.75 l -2,0 c -2,0 -4.01171905,1.898438 -4.000000046405,4 l 0,30 c 0,2.242188 2.074219046405,4 4.375000046405,4 l 47.25,0 c 0.890625,0 1.738281,-0.292969 2.4375,-0.75 0.933594,-0.609375 1.636719,-1.515625 1.875,-2.5 0.05859,-0.246094 0.0625,-0.5 0.0625,-0.75 l 0,-26 c 0,-0.5 -0.09375,-0.96875 -0.3125,-1.4375 C 55.031301,21.15625 53.500051,20 52.000051,20 l -4,0 0,-4 c 0,-2 -2,-4 -4,-4 z m 0,0"
     style="fill:replacecolour3;fill-opacity:0.10196102;fill-rule:nonzero;stroke:none" />
  <path
     inkscape:connector-curvature="0"
     id="path11"
     d="m 50,42 c -2,0 -4,2 -4,4 l -2,0 c -2,0 -4.011719,1.898438 -4,4 l 0,30 c 0,2.242188 2.074219,4 4.375,4 l 47.25,0 C 94,84 96,82 96,80 l 0,-26 c 0,-2 -2,-4 -4,-4 l -4,0 0,-4 c 0,-2 -2,-4 -4,-4 z m 0,0"
     style="fill:replacecolour1;fill-opacity:1;fill-rule:nonzero;stroke:none" />
  <path
     inkscape:connector-curvature="0"
     id="path13"
     d="m 50,42 c -2,0 -4,2 -4,4 l -2,0 c -2,0 -4.011719,1.898438 -4,4 l 0,30 c 0,2.242188 2.074219,4 4.375,4 l 47.25,0 C 94,84 96,82 96,80 l 0,-26 c 0,-2 -2,-4 -4,-4 l -4,0 0,-4 c 0,-2 -2,-4 -4,-4 z m -6,6 28,0 c 1.015625,0 2,0.988281 2,2 l 0,2 18,0 c 1.082031,0 2,0.945312 2,2 l 0,26 c 0,1.109375 -0.902344,2 -2,2 l -48,0 c -1.027344,0 -2,-0.890625 -2,-2 l 0,-30 c 0,-1.085938 0.957031,-2 2,-2 z m 0,0"
     style="fill:replacecolour3;fill-opacity:1.;fill-rule:nonzero;stroke:none" />
</svg>
