<?xml version="1.0" encoding="UTF-8" standalone="no"?>
<svg
   xmlns:dc="http://purl.org/dc/elements/1.1/"
   xmlns:cc="http://creativecommons.org/ns#"
   xmlns:rdf="http://www.w3.org/1999/02/22-rdf-syntax-ns#"
   xmlns:svg="http://www.w3.org/2000/svg"
   xmlns="http://www.w3.org/2000/svg"
   xmlns:sodipodi="http://sodipodi.sourceforge.net/DTD/sodipodi-0.dtd"
   xmlns:inkscape="http://www.inkscape.org/namespaces/inkscape"
   width="96px"
   height="96px"
   viewBox="0 0 96 96"
   version="1.1"
   id="svg2"
   inkscape:version="0.91 r"
   sodipodi:docname="custom-folder-books.svg">
  <metadata
     id="metadata13">
    <rdf:RDF>
      <cc:Work
         rdf:about="">
        <dc:format>image/svg+xml</dc:format>
        <dc:type
           rdf:resource="http://purl.org/dc/dcmitype/StillImage" />
      </cc:Work>
    </rdf:RDF>
  </metadata>
  <defs
     id="defs11" />
  <sodipodi:namedview
     pagecolor="#ffffff"
     bordercolor="#666666"
     borderopacity="1"
     objecttolerance="10"
     gridtolerance="10"
     guidetolerance="10"
     inkscape:pageopacity="0"
     inkscape:pageshadow="2"
     inkscape:window-width="1366"
     inkscape:window-height="747"
     id="namedview9"
     showgrid="true"
     inkscape:zoom="1.7383042"
     inkscape:cx="-73.001568"
     inkscape:cy="38.294267"
     inkscape:window-x="0"
     inkscape:window-y="21"
     inkscape:window-maximized="1"
     inkscape:current-layer="svg2">
    <inkscape:grid
       type="xygrid"
       id="grid4141" />
  </sodipodi:namedview>
  <path
     inkscape:connector-curvature="0"
     id="path5"
     d="m 12,12 c -2,0 -4,2 -4,4 l 0,4 -2,0 c -2,0 -4.011719,1.898438 -4,4 l 0,56 c 0,2.242188 2.074219,4 4.375,4 l 83.25,0 C 92,84 94,82 94,80 l 0,-50 c 0,-2 -2,-4 -4,-4 l -4,0 0,-10 c 0,-2 -2,-4 -4,-4 z m 0,0"
     style="fill:#e8b07f;fill-opacity:1;fill-rule:nonzero;stroke:none" />
  <path
     inkscape:connector-curvature="0"
     id="path7"
     d="m 12,12 c -2,0 -4,2 -4,4 l 0,4 -2,0 c -2,0 -4.011719,1.898438 -4,4 l 0,56 c 0,2.242188 2.074219,4 4.375,4 l 83.25,0 C 92,84 94,82 94,80 l 0,-50 c 0,-2 -2,-4 -4,-4 l -4,0 0,-10 c 0,-2 -2,-4 -4,-4 z m -6,10 48,0 c 1.015625,0 2,0.988281 2,2 l 0,4 34,0 c 1.082031,0 2,0.945312 2,2 l 0,50 c 0,1.109375 -0.902344,2 -2,2 L 6,82 C 4.972656,82 4,81.109375 4,80 L 4,24 c 0,-1.085938 0.957031,-2 2,-2 z m 0,0"
     style="fill:replacecolour2;fill-opacity:1;fill-rule:nonzero;stroke:none" />
  <path
     sodipodi:nodetypes="ccccccccccccccccccccc"
     id="path53"
     d="m 50,72 0,-22.000001 -4,0 L 46,72 Z m -5.999999,-22.999997 -12.000004,-8.000002 0,21 12.000004,8.000001 z m 20.000003,12.999998 0,-21 -12.000003,7.999662 0,21.000672 z M 62.000002,40 C 56.000001,40 52.000001,42 48,45.333335 43.999999,42 39.999999,40 33.999998,40 L 46,47.999998 l 4,0 z"
     style="fill:replacecolour3;fill-opacity:1;fill-rule:nonzero;stroke:none"
     inkscape:connector-curvature="0" />
</svg>
