<?xml version="1.0" encoding="UTF-8" standalone="no"?>
<svg
   xmlns:dc="http://purl.org/dc/elements/1.1/"
   xmlns:cc="http://creativecommons.org/ns#"
   xmlns:rdf="http://www.w3.org/1999/02/22-rdf-syntax-ns#"
   xmlns:svg="http://www.w3.org/2000/svg"
   xmlns="http://www.w3.org/2000/svg"
   xmlns:sodipodi="http://sodipodi.sourceforge.net/DTD/sodipodi-0.dtd"
   xmlns:inkscape="http://www.inkscape.org/namespaces/inkscape"
   width="96"
   viewBox="0 0 96 96"
   height="96"
   id="svg2"
   version="1.1"
   inkscape:version="0.48.5 r10040"
   sodipodi:docname="folder-documents.svg">
  <metadata
     id="metadata20">
    <rdf:RDF>
      <cc:Work
         rdf:about="">
        <dc:format>image/svg+xml</dc:format>
        <dc:type
           rdf:resource="http://purl.org/dc/dcmitype/StillImage" />
      </cc:Work>
    </rdf:RDF>
  </metadata>
  <defs
     id="defs18" />
  <sodipodi:namedview
     pagecolor="#ffffff"
     bordercolor="#666666"
     borderopacity="1"
     objecttolerance="10"
     gridtolerance="10"
     guidetolerance="10"
     inkscape:pageopacity="0"
     inkscape:pageshadow="2"
     inkscape:window-width="1280"
     inkscape:window-height="998"
     id="namedview16"
     showgrid="true"
     inkscape:zoom="9.8333333"
     inkscape:cx="53.249108"
     inkscape:cy="43.276162"
     inkscape:window-x="0"
     inkscape:window-y="0"
     inkscape:window-maximized="1"
     inkscape:current-layer="svg2">
    <inkscape:grid
       type="xygrid"
       id="grid3001"
       empspacing="5"
       visible="true"
       enabled="true"
       snapvisiblegridlinesonly="true" />
  </sodipodi:namedview>
  <path
     style="font-size:medium;font-style:normal;font-variant:normal;font-weight:normal;font-stretch:normal;text-indent:0;text-align:start;text-decoration:none;line-height:normal;letter-spacing:normal;word-spacing:normal;text-transform:none;direction:ltr;block-progression:tb;writing-mode:lr-tb;text-anchor:start;baseline-shift:baseline;color:#000000;fill:#bdbdbd;fill-opacity:1;fill-rule:nonzero;stroke:none;stroke-width:1;marker:none;visibility:visible;display:inline;overflow:visible;enable-background:accumulate;font-family:Sans;-inkscape-font-specification:Sans"
     d="m 12.000041,12.000036 c -1.999999,0 -3.999998,1.999999 -3.999998,3.999998 l 0,3.999998 -1.999999,0 c -1.999999,0 -4.0111358,1.898413 -3.999998,3.999998 l 0,55.999972 C 2.000302,82.241469 4.075571,83.9998 6.3750438,84 L 89.625002,84 C 92.000001,84 94,82.000001 94,80.000002 l 0,-49.999975 c 0,-1.999999 -1.999999,-3.999998 -3.999998,-3.999998 l -3.999998,0 0,-9.999995 c 0,-1.999999 -1.999999,-3.999998 -3.999998,-3.999998 z"
     id="path3770"
     inkscape:connector-curvature="0"
     sodipodi:nodetypes="sscsccccccccsss" />
  <path
     inkscape:connector-curvature="0"
     style="font-size:medium;font-style:normal;font-variant:normal;font-weight:normal;font-stretch:normal;text-indent:0;text-align:start;text-decoration:none;line-height:normal;letter-spacing:normal;word-spacing:normal;text-transform:none;direction:ltr;block-progression:tb;writing-mode:lr-tb;text-anchor:start;baseline-shift:baseline;color:#000000;fill:#000000;fill-opacity:0.32156863;fill-rule:nonzero;stroke:none;stroke-width:1;marker:none;visibility:visible;display:inline;overflow:visible;enable-background:accumulate;font-family:Sans;-inkscape-font-specification:Sans"
     d="m 12.000041,12.000036 c -1.999999,0 -3.999998,1.999999 -3.999998,3.999998 l 0,3.999998 -1.999999,0 c -1.999999,0 -4.0111358,1.898413 -3.999998,3.999998 l 0,55.999972 C 2.000302,82.241469 4.075571,83.9998 6.3750438,84 L 89.625002,84 C 92.000001,84 94,82.000001 94,80.000002 l 0,-49.999975 c 0,-1.999999 -1.999999,-3.999998 -3.999998,-3.999998 l -3.999998,0 0,-9.999995 c 0,-1.999999 -1.999999,-3.999998 -3.999998,-3.999998 l -69.999965,0 z m -5.999997,9.999995 47.999976,0 c 1.014627,0 1.999999,0.988334 1.999999,1.999999 l 0,3.999998 33.999983,0 c 1.081715,0 1.999999,0.943618 1.999999,1.999999 l 0,49.999975 c 0,1.107509 -0.90423,1.999999 -1.999999,1.999999 l -83.999958,0 c -1.0254515,0 -1.999999,-0.892492 -1.999999,-1.999999 l 0,-55.999972 c 0,-1.086635 0.9580835,-1.999999 1.999999,-1.999999 z"
     id="path3779" />
  <path
     style="fill:#000000;fill-opacity:0.32156863;stroke:none"
     d="m 39.999981,40.000022 c -2.215999,0 -3.999998,1.783999 -3.999998,3.999998 l 0,23.999988 c 0,2.215999 1.783999,3.999998 3.999998,3.999998 l 15.999992,0 c 2.215999,0 3.999998,-1.783999 3.999998,-3.999998 l 0,-17.999991 -9.999995,-9.999995 -9.999995,0 z m 0,3.999998 9.999995,0 0,5.999997 5.999997,0 0,17.999991 -15.999992,0 0,-23.999988 z m 2.499999,9.999995 c -0.277,0 -0.5,0.223 -0.5,0.5 l 0,0.999999 c 0,0.277 0.223,0.5 0.5,0.5 l 6.999996,0 c 0.277,0 0.5,-0.223 0.5,-0.5 l 0,-0.999999 c 0,-0.277 -0.223,-0.5 -0.5,-0.5 l -6.999996,0 z m 0,3.999998 c -0.277,0 -0.5,0.223 -0.5,0.5 l 0,0.999999 c 0,0.277 0.223,0.5 0.5,0.5 l 10.999994,0 c 0.277,0 0.5,-0.223 0.5,-0.5 l 0,-0.999999 c 0,-0.277 -0.223,-0.5 -0.5,-0.5 l -10.999994,0 z m 0,3.999998 c -0.277,0 -0.5,0.223 -0.5,0.5 l 0,0.999999 c 0,0.277 0.223,0.5 0.5,0.5 l 10.999994,0 c 0.277,0 0.5,-0.223 0.5,-0.5 l 0,-0.999999 c 0,-0.277 -0.223,-0.5 -0.5,-0.5 l -10.999994,0 z"
     id="rect2991-3"
     inkscape:connector-curvature="0" />
</svg>
