<?xml version="1.0" encoding="UTF-8" standalone="no"?>
<svg
   xmlns:dc="http://purl.org/dc/elements/1.1/"
   xmlns:cc="http://creativecommons.org/ns#"
   xmlns:rdf="http://www.w3.org/1999/02/22-rdf-syntax-ns#"
   xmlns:svg="http://www.w3.org/2000/svg"
   xmlns="http://www.w3.org/2000/svg"
   xmlns:sodipodi="http://sodipodi.sourceforge.net/DTD/sodipodi-0.dtd"
   xmlns:inkscape="http://www.inkscape.org/namespaces/inkscape"
   width="96"
   viewBox="0 0 96 96"
   height="96"
   id="svg3011"
   version="1.1"
   inkscape:version="0.91 r"
   sodipodi:docname="purple-folder-publicshare.svg">
  <metadata
     id="metadata3029">
    <rdf:RDF>
      <cc:Work
         rdf:about="">
        <dc:format>image/svg+xml</dc:format>
        <dc:type
           rdf:resource="http://purl.org/dc/dcmitype/StillImage" />
      </cc:Work>
    </rdf:RDF>
  </metadata>
  <defs
     id="defs3027" />
  <sodipodi:namedview
     pagecolor="#ffffff"
     bordercolor="#666666"
     borderopacity="1"
     objecttolerance="10"
     gridtolerance="10"
     guidetolerance="10"
     inkscape:pageopacity="0"
     inkscape:pageshadow="2"
     inkscape:window-width="1280"
     inkscape:window-height="998"
     id="namedview3025"
     showgrid="false"
     inkscape:zoom="4.9166667"
     inkscape:cx="55.788333"
     inkscape:cy="48.439446"
     inkscape:window-x="0"
     inkscape:window-y="0"
     inkscape:window-maximized="1"
     inkscape:current-layer="svg3011" />
  <path
     style="font-size:medium;font-style:normal;font-variant:normal;font-weight:normal;font-stretch:normal;text-indent:0;text-align:start;text-decoration:none;line-height:normal;letter-spacing:normal;word-spacing:normal;text-transform:none;direction:ltr;block-progression:tb;writing-mode:lr-tb;text-anchor:start;baseline-shift:baseline;color:#000000;fill:#7e57c2;fill-opacity:1;fill-rule:nonzero;stroke:none;stroke-width:1;marker:none;visibility:visible;display:inline;overflow:visible;enable-background:accumulate;font-family:Sans;-inkscape-font-specification:Sans"
     d="m 12.000041,12.000037 c -1.999999,0 -3.999998,1.999998 -3.999998,3.999997 l 0,3.999998 -1.999999,0 c -1.999999,0 -4.0111358,1.898413 -3.999998,3.999998 l 0,55.999972 C 2.000302,82.241469 4.075571,83.9998 6.3750438,84 L 89.625002,84 C 92.000001,84 94,82.000001 94,80.000002 l 0,-49.999975 c 0,-1.999999 -1.999999,-3.999998 -3.999998,-3.999998 l -3.999998,0 0,-9.999995 c 0,-1.999999 -1.999999,-3.999997 -3.999998,-3.999997 z"
     id="path3770"
     inkscape:connector-curvature="0"
     sodipodi:nodetypes="sscsccccccccsss" />
  <path
     inkscape:connector-curvature="0"
     style="font-size:medium;font-style:normal;font-variant:normal;font-weight:normal;font-stretch:normal;text-indent:0;text-align:start;text-decoration:none;line-height:normal;letter-spacing:normal;word-spacing:normal;text-transform:none;direction:ltr;block-progression:tb;writing-mode:lr-tb;text-anchor:start;baseline-shift:baseline;color:#000000;fill:#000000;fill-opacity:0.32156863;fill-rule:nonzero;stroke:none;stroke-width:1;marker:none;visibility:visible;display:inline;overflow:visible;enable-background:accumulate;font-family:Sans;-inkscape-font-specification:Sans"
     d="m 12.000041,12.000037 c -1.999999,0 -3.999998,1.999998 -3.999998,3.999997 l 0,3.999998 -1.999999,0 c -1.999999,0 -4.0111358,1.898413 -3.999998,3.999998 l 0,55.999972 C 2.000302,82.241469 4.075571,83.9998 6.3750438,84 L 89.625002,84 C 92.000001,84 94,82.000001 94,80.000002 l 0,-49.999975 c 0,-1.999999 -1.999999,-3.999998 -3.999998,-3.999998 l -3.999998,0 0,-9.999995 c 0,-1.999999 -1.999999,-3.999997 -3.999998,-3.999997 l -69.999965,0 z m -5.999997,9.999994 47.999976,0 c 1.014627,0 1.999999,0.988334 1.999999,1.999999 l 0,3.999998 33.999983,0 c 1.081715,0 1.999999,0.943618 1.999999,1.999999 l 0,49.999975 c 0,1.107509 -0.90423,1.999999 -1.999999,1.999999 l -83.999958,0 c -1.0254515,0 -1.999999,-0.892492 -1.999999,-1.999999 l 0,-55.999972 c 0,-1.086635 0.9580835,-1.999999 1.999999,-1.999999 z"
     id="path3779" />
  <path
     id="path4054"
     d="m 52.249975,41.313421 c -3.184875,0 -5.812497,2.415199 -5.812497,5.437398 0.02352,1.036999 0.08116,2.350599 0.687499,5.124997 l 0.0625,0 c 0.12234,0.367 0.310348,0.732 0.625,1.125 0.281622,0.351999 0.65503,0.752999 1,1.124999 0.106,0.7842 0.12242,1.469799 0,2.312599 -0.945704,0.718199 -2.651077,1.388199 -4.187498,1.999999 -0.800698,0.3188 -1.54093,0.613599 -2.124999,0.999999 -0.55723,0.3686 -0.960972,0.8704 -1,1.5 -0.0019,0.03 -0.06264,0.032 -0.0625,0.062 l -0.687499,5.312597 0,0.062 c 0,0.658399 0.438685,1.196999 1.062499,1.624999 0.623816,0.4282 1.470529,0.7638 2.499999,1.062599 2.058941,0.5976 4.851885,0.9374 7.937496,0.9374 3.085612,0 5.878555,-0.3398 7.937496,-0.9374 1.029471,-0.298799 1.876185,-0.634399 2.499999,-1.062599 0.623813,-0.428 1.062499,-0.9666 1.062499,-1.624999 l 0,-0.062 -0.75,-5.312597 c -1.14e-4,-0.02 0.0013,-0.042 0,-0.062 -0.0186,-0.3008 -0.127119,-0.5964 -0.312499,-0.8126 -0.19792,-0.231 -0.459062,-0.3808 -0.75,-0.5624 -0.581876,-0.3634 -1.324029,-0.669999 -2.124999,-0.999999 -1.555643,-0.6408 -3.257936,-1.3656 -4.187498,-2.124999 -0.06974,-0.725 -0.07308,-1.463 0,-2.187599 0.335568,-0.3968 0.713016,-0.8062 1,-1.187399 0.319566,-0.4246 0.561449,-0.8096 0.687499,-1.1876 0.683676,-2.888998 0.714016,-4.067798 0.75,-5.124997 0,-3.022199 -2.627619,-5.437398 -5.812497,-5.437398 z m -10.812495,1 c -2.615942,0 -4.749997,2.019999 -4.749997,4.499998 0.0192,0.849799 0.06496,1.848399 0.562499,4.124998 l 0,0.062 c 0.10136,0.3042 0.300392,0.5482 0.5625,0.875 0.229472,0.2858 0.535108,0.638 0.8125,0.9376 0.08394,0.628399 0.0948,1.263399 0,1.937399 -0.772634,0.592799 -2.172197,1.124799 -3.437499,1.624999 -0.655899,0.2592 -1.208817,0.4972 -1.687499,0.812599 -0.45238,0.298 -0.774281,0.741 -0.812499,1.25 -0.0022,0.03 -0.06264,0.032 -0.0625,0.062 l -0.625,4.312598 0,0.062 c 0,0.405999 0.194,0.756399 0.5,1.062599 0.305992,0.3062 0.730757,0.5866 1.249999,0.8124 1.024114,0.445599 2.483811,0.755399 4.249998,0.937599 l 0.0625,0 c 0.096,2e-4 0.19158,-0.026 0.25,-0.062 0.07234,-0.046 0.1567,-0.082 0.1875,-0.124 0.06162,-0.086 0.09846,-0.172 0.125,-0.25 0.04656,-0.136 0.05606,-0.298199 0.0625,-0.437399 9.02e-4,-0.02 0,-0.042 0,-0.062 l 0.687499,-5.312398 c -9.64e-4,-0.2174 0.14956,-0.478399 0.5,-0.749999 0.350438,-0.2718 0.880994,-0.5444 1.499999,-0.8126 1.238012,-0.5366 2.807443,-1.034799 4.062498,-1.687399 l 0.6875,-0.375 -0.6875,-0.3126 c -0.495949,-0.2408 -0.875293,-0.5052 -1.187499,-0.749999 -0.0606,-0.617 -0.0643,-1.26 0,-1.874999 0.0022,-0.02 -0.0022,-0.042 0,-0.062 0.476578,-0.6418 0.839215,-1.3078 0.999999,-1.687599 l 0.0625,-0.124001 -0.0625,-0.123999 c -0.05426,-0.3104 -0.0363,-0.5462 -0.125,-0.8124 -0.599103,-2.741399 -0.664743,-3.871998 -0.687499,-4.874998 0,-0.421599 0.09894,-0.912599 0.25,-1.374999 l 0.125,-0.25 -0.25,-0.124 C 43.727861,42.775821 42.623018,42.317821 41.43748,42.317821 z"
     style="line-height:normal;color:#000000;fill:#000000;fill-opacity:0.32156863"
     inkscape:connector-curvature="0" />
</svg>
