<?xml version="1.0" encoding="UTF-8" standalone="no"?>
<!-- Created with Inkscape (http://www.inkscape.org/) -->

<svg
   xmlns:dc="http://purl.org/dc/elements/1.1/"
   xmlns:cc="http://creativecommons.org/ns#"
   xmlns:rdf="http://www.w3.org/1999/02/22-rdf-syntax-ns#"
   xmlns:svg="http://www.w3.org/2000/svg"
   xmlns="http://www.w3.org/2000/svg"
   xmlns:xlink="http://www.w3.org/1999/xlink"
   xmlns:sodipodi="http://sodipodi.sourceforge.net/DTD/sodipodi-0.dtd"
   xmlns:inkscape="http://www.inkscape.org/namespaces/inkscape"
   width="96"
   height="96"
   id="svg2"
   version="1.1"
   inkscape:version="0.91 r"
   sodipodi:docname="brown-folder-rss.svg">
  <defs
     id="defs4">
    <linearGradient
       id="linearGradient3844">
      <stop
         style="stop-color:#000000;stop-opacity:0.39215687;"
         offset="0"
         id="stop3846" />
      <stop
         style="stop-color:#000000;stop-opacity:0;"
         offset="1"
         id="stop3848" />
    </linearGradient>
    <radialGradient
       inkscape:collect="always"
       xlink:href="#linearGradient3844"
       id="radialGradient3850"
       cx="24.075672"
       cy="41.38316"
       fx="24.075672"
       fy="41.38316"
       r="21.075672"
       gradientTransform="matrix(1,0,0,0.11307633,0,36.703704)"
       gradientUnits="userSpaceOnUse" />
  </defs>
  <sodipodi:namedview
     id="base"
     pagecolor="#ffffff"
     bordercolor="#666666"
     borderopacity="1.0"
     inkscape:pageopacity="0.0"
     inkscape:pageshadow="2"
     inkscape:zoom="6.2331463"
     inkscape:cx="48.610232"
     inkscape:cy="44.104559"
     inkscape:document-units="px"
     inkscape:current-layer="layer3"
     showgrid="true"
     inkscape:window-width="1280"
     inkscape:window-height="998"
     inkscape:window-x="0"
     inkscape:window-y="0"
     inkscape:window-maximized="1">
    <inkscape:grid
       type="xygrid"
       id="grid2990"
       empspacing="5"
       visible="true"
       enabled="true"
       snapvisiblegridlinesonly="true" />
  </sodipodi:namedview>
  <metadata
     id="metadata7">
    <rdf:RDF>
      <cc:Work
         rdf:about="">
        <dc:format>image/svg+xml</dc:format>
        <dc:type
           rdf:resource="http://purl.org/dc/dcmitype/StillImage" />
        <dc:title />
      </cc:Work>
    </rdf:RDF>
  </metadata>
  <g
     inkscape:groupmode="layer"
     id="layer3"
     inkscape:label="Blob"
     transform="translate(0,48)">
    <path
       sodipodi:type="arc"
       style="opacity:0.65;fill:url(#radialGradient3850);fill-opacity:1;stroke:none"
       id="path3842"
       sodipodi:cx="24.075672"
       sodipodi:cy="41.38316"
       sodipodi:rx="21.075672"
       sodipodi:ry="2.3831596"
       d="m 45.151344,41.38316 c 0,1.316182 -9.4359,2.383159 -21.075672,2.383159 C 12.4359,43.766319 3,42.699342 3,41.38316 3,40.066977 12.4359,39 24.075672,39 c 11.639772,0 21.075672,1.066977 21.075672,2.38316 z"
       transform="matrix(2.2775074,0,0,2.098055,-6.8325223,-53.824146)" />
  </g>
  <g
     inkscape:label="Body"
     inkscape:groupmode="layer"
     id="layer1"
     transform="translate(0,-956.3622)">
    <path
       sodipodi:nodetypes="ccccccccc"
       inkscape:connector-curvature="0"
       id="path3029"
       d="m 6.0000001,974.3622 0,56 84.0000009,0 0,-28 -4,-24 -32,0 -4,-8 -40.000001,0 c -1.9999999,0 -3.9999999,2 -3.9999999,4 z"
       style="fill:#5d4037;fill-opacity:1;stroke:none" />
    <rect
       style="fill:#fffdf0;fill-opacity:1;stroke:none"
       id="rect3799"
       width="42"
       height="15.999966"
       x="12"
       y="980.36218" />
    <path
       style="opacity:0.02999998;fill:#000000;fill-opacity:1;stroke:none"
       d="m 10,970.3622 c -1.9999999,0 -3.9999999,2 -3.9999999,4 l 0,2 c 0,-2 2,-4 3.9999999,-4 l 38.000001,0 4,8 34,0 4,24 0,-2 -4,-24 -32,0 -4,-8 z"
       id="path3810"
       inkscape:connector-curvature="0"
       sodipodi:nodetypes="sscsccccccccs" />
    <path
       style="fill:#8d6e63;fill-opacity:1;stroke:none"
       d="m 90.000001,982.3622 0,56 -84.0000009,0 0,-52 40.0000009,0 4,-8 36,0 c 2,0 4,2 4,4 z"
       id="rect2987"
       inkscape:connector-curvature="0"
       sodipodi:nodetypes="cccccccc" />
    <path
       sodipodi:nodetypes="ccccc"
       id="path3794"
       d="m 6.0000001,1036.3622 0,2 84.0000009,0 0,-2 z"
       style="opacity:0.15;fill:#000000;fill-opacity:1;stroke:none"
       inkscape:connector-curvature="0" />
    <path
       style="fill:none;stroke:none"
       d="m 50.000001,980.3622 -10,6 6,0 z"
       id="path3801"
       inkscape:connector-curvature="0" />
    <path
       style="opacity:0.02999998;fill:#000000;fill-opacity:1;stroke:none"
       d="m 50.000001,978.3622 -4,8 -40.0000009,0 0,2 42.0000009,0 4,-8 34,0 c 2,0 4,2 4,4 l 0,-2 c 0,-2 -2,-4 -4,-4 z"
       id="path3805"
       inkscape:connector-curvature="0"
       sodipodi:nodetypes="ccccccscssc" />
    <path
       id="path3392"
       d="m 42.112603,1023.563 c -0.07876,2.7924 -2.408602,4.9922 -5.201514,4.9116 -2.794248,-0.084 -4.993351,-2.4098 -4.910617,-5.201 0.07874,-2.7922 2.408605,-4.9924 5.201517,-4.9114 2.794248,0.084 4.993348,2.41 4.910614,5.2008 m 0,0"
       inkscape:connector-curvature="0"
       style="opacity:1.0;fill:#634b43;fill-opacity:1;fill-rule:nonzero;stroke:none" />
    <path
       id="path3394"
       d="M 54.000001,1028.3542 C 53.681137,1015.3098 41.106897,1007.2884 32,1006.3622 l 0,6 c 7.331537,0.6028 15.918241,7.4374 16.000001,15.992"
       inkscape:connector-curvature="0"
       style="opacity:1.0;fill:#634b43;fill-opacity:1;fill-rule:nonzero;stroke:none"
       sodipodi:nodetypes="cccc" />
    <path
       id="path3396"
       d="m 64.000001,1028.3622 c 0,-19.2086 -17.250182,-31.392 -32.000001,-32 l 0,6 c 13.528869,1.4938 26.053573,12.5534 26.000001,26"
       inkscape:connector-curvature="0"
       style="opacity:1.0;fill:#634b43;fill-opacity:1;fill-rule:nonzero;stroke:none"
       sodipodi:nodetypes="cccc" />
  </g>
</svg>
