<?xml version="1.0" encoding="UTF-8" standalone="no"?>
<!-- Created with Inkscape (http://www.inkscape.org/) -->

<svg
   xmlns:dc="http://purl.org/dc/elements/1.1/"
   xmlns:cc="http://creativecommons.org/ns#"
   xmlns:rdf="http://www.w3.org/1999/02/22-rdf-syntax-ns#"
   xmlns:svg="http://www.w3.org/2000/svg"
   xmlns="http://www.w3.org/2000/svg"
   xmlns:sodipodi="http://sodipodi.sourceforge.net/DTD/sodipodi-0.dtd"
   xmlns:inkscape="http://www.inkscape.org/namespaces/inkscape"
   width="96"
   height="96"
   id="svg2"
   version="1.1"
   inkscape:version="0.48.5 r10040"
   sodipodi:docname="orange-folder-video.svg"
   inkscape:export-filename="/media/Data/Main/Visuals/Icons/Numix/Desktop/repos/numix-wiki/Gjorgi/Numix-folders/48/New/folder-144.png"
   inkscape:export-xdpi="270"
   inkscape:export-ydpi="270">
  <defs
     id="defs4" />
  <sodipodi:namedview
     id="base"
     pagecolor="#ffffff"
     bordercolor="#666666"
     borderopacity="1.0"
     inkscape:pageopacity="0.0"
     inkscape:pageshadow="2"
     inkscape:zoom="6.9637028"
     inkscape:cx="31.549014"
     inkscape:cy="49.542161"
     inkscape:document-units="px"
     inkscape:current-layer="layer1"
     showgrid="true"
     inkscape:window-width="1280"
     inkscape:window-height="998"
     inkscape:window-x="0"
     inkscape:window-y="0"
     inkscape:window-maximized="1"
     showguides="true"
     inkscape:guide-bbox="true">
    <inkscape:grid
       type="xygrid"
       id="grid2985"
       empspacing="5"
       visible="true"
       enabled="true"
       snapvisiblegridlinesonly="true" />
  </sodipodi:namedview>
  <metadata
     id="metadata7">
    <rdf:RDF>
      <cc:Work
         rdf:about="">
        <dc:format>image/svg+xml</dc:format>
        <dc:type
           rdf:resource="http://purl.org/dc/dcmitype/StillImage" />
        <dc:title />
      </cc:Work>
    </rdf:RDF>
  </metadata>
  <g
     inkscape:label="Layer 1"
     inkscape:groupmode="layer"
     id="layer1"
     transform="translate(0,-956.3622)">
    <path
       style="fill:replacecolour2;fill-opacity:1;stroke:none"
       d="m 13.8,974.36222 68.4,0 c 1.8,0 3.8,2 3.8,4 l 0,8 c 0,2.216 -1.6948,4 -3.8,4 l -68.4,0 c -2.1052,0 -3.8,-1.784 -3.8,-4 l 0,-12 z"
       id="path3811"
       inkscape:connector-curvature="0" />
    <path
       style="fill:replacecolour2;fill-opacity:1;stroke:none"
       d="m 10,976.36222 c 0,-4 0,-6 3.636364,-6 l 12.727272,0 c 3.636364,0 3.636364,2 3.636364,6 z"
       id="rect3760"
       inkscape:connector-curvature="0"
       sodipodi:nodetypes="csscc" />
    <path
       style="opacity:0.02999998;fill:#000000;fill-opacity:1;stroke:none"
       d="m 10,982.36222 0,10 76,0 0,-10 z"
       id="path3807"
       inkscape:connector-curvature="0" />
    <rect
       style="fill:replacecolour1;fill-opacity:1;stroke:none"
       id="rect2990"
       width="84"
       height="50"
       x="6"
       y="986.36218"
       rx="4"
       ry="4" />
    <path
       style="opacity:0.05;fill:#000000;fill-opacity:1;stroke:none"
       d="m 30,974.36222 0,2 3.8125,0 48.375,0 c 1.8,0 3.8125,2 3.8125,4 l 0,-2 c 0,-2 -2.0125,-4 -3.8125,-4 l -48.375,0 z"
       id="path3813"
       inkscape:connector-curvature="0"
       sodipodi:nodetypes="cccscsscc" />
    <path
       style="opacity:0.05;fill:#000000;fill-opacity:1;stroke:none"
       d="m 13.625,970.36222 c -3.6363636,0 -3.625,2 -3.625,6 l 0.0625,0 c 0.106836,-2.621 0.6189,-4 3.5625,-4 l 12.75,0 c 2.9436,0 3.455664,1.379 3.5625,4 l 0.0625,0 c 0,-4 0.0114,-6 -3.625,-6 l -12.75,0 z"
       id="path3818"
       inkscape:connector-curvature="0" />
    <path
       style="opacity:0.1;fill:#ffffff;fill-opacity:1;stroke:none"
       d="m 10,986.36222 c -2.216,0 -4,1.784 -4,4 l 0,2 c 0,-2.216 1.784,-4 4,-4 l 76,0 c 2.216,0 4,1.784 4,4 l 0,-2 c 0,-2.216 -1.784,-4 -4,-4 l -76,0 z"
       id="rect2991"
       inkscape:connector-curvature="0" />
    <path
       inkscape:connector-curvature="0"
       style="opacity:1.0;fill:replacecolour3;fill-opacity:1"
       d="m 36,994.36222 c -2.216,0 -4,1.784 -4,4 l 0,23.99998 c 0,2.216 1.784,4 4,4 l 24,0 c 2.216,0 4,-1.784 4,-4 l 0,-23.99998 c 0,-2.216 -1.784,-4 -4,-4 l -24,0 z m 0,4 4,0 0,3.99998 -4,0 0,-3.99998 z m 20,0 4,0 0,3.99998 -4,0 0,-3.99998 z m -20,9.99998 4,0 0,4 -4,0 0,-4 z m 20,0 4,0 0,4 -4,0 0,-4 z m -20,10 4,0 0,4 -4,0 0,-4 z m 20,0 4,0 0,4 -4,0 0,-4 z"
       id="rect3007" />
  </g>
</svg>
