<?xml version="1.0" encoding="UTF-8" standalone="no"?>
<!-- Created with Inkscape (http://www.inkscape.org/) -->

<svg
   xmlns:dc="http://purl.org/dc/elements/1.1/"
   xmlns:cc="http://creativecommons.org/ns#"
   xmlns:rdf="http://www.w3.org/1999/02/22-rdf-syntax-ns#"
   xmlns:svg="http://www.w3.org/2000/svg"
   xmlns="http://www.w3.org/2000/svg"
   xmlns:sodipodi="http://sodipodi.sourceforge.net/DTD/sodipodi-0.dtd"
   xmlns:inkscape="http://www.inkscape.org/namespaces/inkscape"
   width="96"
   height="96"
   id="svg2"
   version="1.1"
   inkscape:version="0.48.5 r10040"
   sodipodi:docname="orange-folder-system.svg"
   inkscape:export-filename="/media/Data/Main/Visuals/Icons/Numix/Desktop/repos/numix-wiki/Gjorgi/Numix-folders/48/New/folder-144.png"
   inkscape:export-xdpi="270"
   inkscape:export-ydpi="270">
  <defs
     id="defs4" />
  <sodipodi:namedview
     id="base"
     pagecolor="#ffffff"
     bordercolor="#666666"
     borderopacity="1.0"
     inkscape:pageopacity="0.0"
     inkscape:pageshadow="2"
     inkscape:zoom="4.9240815"
     inkscape:cx="27.148874"
     inkscape:cy="35.482444"
     inkscape:document-units="px"
     inkscape:current-layer="layer1"
     showgrid="true"
     inkscape:window-width="1280"
     inkscape:window-height="998"
     inkscape:window-x="0"
     inkscape:window-y="0"
     inkscape:window-maximized="1"
     showguides="true"
     inkscape:guide-bbox="true">
    <inkscape:grid
       type="xygrid"
       id="grid2985"
       empspacing="5"
       visible="true"
       enabled="true"
       snapvisiblegridlinesonly="true" />
  </sodipodi:namedview>
  <metadata
     id="metadata7">
    <rdf:RDF>
      <cc:Work
         rdf:about="">
        <dc:format>image/svg+xml</dc:format>
        <dc:type
           rdf:resource="http://purl.org/dc/dcmitype/StillImage" />
        <dc:title />
      </cc:Work>
    </rdf:RDF>
  </metadata>
  <g
     inkscape:label="Layer 1"
     inkscape:groupmode="layer"
     id="layer1"
     transform="translate(0,-956.3622)">
    <path
       style="fill:replacecolour2;fill-opacity:1;stroke:none"
       d="m 13.8,974.36222 68.4,0 c 1.8,0 3.8,2 3.8,4 l 0,8 c 0,2.216 -1.6948,4 -3.8,4 l -68.4,0 c -2.1052,0 -3.8,-1.784 -3.8,-4 l 0,-12 z"
       id="path3811"
       inkscape:connector-curvature="0" />
    <path
       style="fill:replacecolour2;fill-opacity:1;stroke:none"
       d="m 10,976.36222 c 0,-4 0,-6 3.636364,-6 l 12.727272,0 c 3.636364,0 3.636364,2 3.636364,6 z"
       id="rect3760"
       inkscape:connector-curvature="0"
       sodipodi:nodetypes="csscc" />
    <path
       style="opacity:0.02999998;fill:#000000;fill-opacity:1;stroke:none"
       d="m 10,982.36222 0,10 76,0 0,-10 z"
       id="path3807"
       inkscape:connector-curvature="0" />
    <rect
       style="fill:replacecolour1;fill-opacity:1;stroke:none"
       id="rect2990"
       width="84"
       height="50"
       x="6"
       y="986.36218"
       rx="4"
       ry="4" />
    <path
       style="opacity:0.05;fill:#000000;fill-opacity:1;stroke:none"
       d="m 30,974.36222 0,2 3.8125,0 48.375,0 c 1.8,0 3.8125,2 3.8125,4 l 0,-2 c 0,-2 -2.0125,-4 -3.8125,-4 l -48.375,0 z"
       id="path3813"
       inkscape:connector-curvature="0"
       sodipodi:nodetypes="cccscsscc" />
    <path
       style="opacity:0.05;fill:#000000;fill-opacity:1;stroke:none"
       d="m 13.625,970.36222 c -3.6363636,0 -3.625,2 -3.625,6 l 0.0625,0 c 0.106836,-2.621 0.6189,-4 3.5625,-4 l 12.75,0 c 2.9436,0 3.455664,1.379 3.5625,4 l 0.0625,0 c 0,-4 0.0114,-6 -3.625,-6 l -12.75,0 z"
       id="path3818"
       inkscape:connector-curvature="0" />
    <path
       style="opacity:0.1;fill:#ffffff;fill-opacity:1;stroke:none"
       d="m 10,986.36222 c -2.216,0 -4,1.784 -4,4 l 0,2 c 0,-2.216 1.784,-4 4,-4 l 76,0 c 2.216,0 4,1.784 4,4 l 0,-2 c 0,-2.216 -1.784,-4 -4,-4 l -76,0 z"
       id="rect2991"
       inkscape:connector-curvature="0" />
    <path
       id="path3002"
       d="m 45.481482,994.36222 c -0.887394,0 -1.629632,0.7052 -1.629632,1.5928 v 2.074 c -0.561062,0.19 -1.10548,0.4072 -1.629626,0.6664 l -1.444504,-1.4442 c -0.627484,-0.6274 -1.631762,-0.6274 -2.259198,0 l -3.629632,3.59238 c -0.627486,0.6276 -0.627486,1.632 0,2.2592 l 1.444502,1.4446 c -0.265884,0.5332 -0.474822,1.095 -0.666666,1.6664 h -2.037094 c -0.8874,0 -1.629632,0.7054 -1.629632,1.5928 v 5.1112 c 0,0.8874 0.742232,1.5928 1.629632,1.5928 h 2.037094 c 0.19182,0.5714 0.400794,1.1332 0.666666,1.6664 l -1.444502,1.4446 c -0.627486,0.6276 -0.627486,1.6316 0,2.2592 l 3.629632,3.5924 c 0.627484,0.6274 1.631762,0.6274 2.259198,0 l 1.444504,-1.4442 c 0.524146,0.26 1.068564,0.4778 1.629626,0.6664 v 2.074 c 0,0.8876 0.74225,1.5928 1.629632,1.5928 h 5.074012 c 0.887396,0 1.592654,-0.7052 1.592654,-1.5928 v -2.074 c 0.57164,-0.192 1.133418,-0.4008 1.666606,-0.6664 l 1.444506,1.4442 c 0.627482,0.6274 1.631766,0.6274 2.2592,0 l 3.629632,-3.5924 c 0.627484,-0.6276 0.62747,-1.632 0,-2.2592 l -1.481482,-1.4814 c 0.259658,-0.5242 0.478362,-1.0686 0.666666,-1.6296 h 2.074074 c 0.887396,0 1.59265,-0.7054 1.59265,-1.5928 v -5.1112 c 2e-6,-0.8874 -0.70521,-1.5928 -1.59265,-1.5928 h -2.074074 c -0.1883,-0.561 -0.407004,-1.1054 -0.666666,-1.6296 l 1.481482,-1.4814 c 0.627484,-0.6276 0.627484,-1.6316 0,-2.2592 l -3.629632,-3.59238 c -0.627486,-0.6274 -1.631766,-0.6274 -2.2592,0 l -1.444506,1.4442 c -0.533246,-0.2664 -1.095028,-0.4744 -1.666606,-0.6664 v -2.074 c 0,-0.8876 -0.705208,-1.5928 -1.592654,-1.5928 h -5.074012 z m 2.518516,11.85158 c 2.289778,0 4.14815,1.8586 4.14815,4.1486 0,2.2896 -1.858372,4.1482 -4.14815,4.1482 -2.28978,0 -4.148148,-1.8586 -4.148148,-4.1482 0,-2.29 1.858368,-4.1486 4.148148,-4.1486 z"
       style="line-height:normal;opacity:0.4;color:#000000;fill:replacecolour3;fill-opacity:1;display:block"
       inkscape:connector-curvature="0" />
  </g>
</svg>
