<svg xmlns="http://www.w3.org/2000/svg" viewBox="0 0 32 32">
 <g transform="translate(0,-1020.3622)">
  <path d="m 4 1024.36 c -0.492 0 -1 0.473 -1 1 l 0 1 c -0.667 0 -0.833 0 -1.5 0 -0.979 0 -1.5 0.494 -1.5 1.5 l 0 19 c 0 1.032 0.523 1.5 1.5 1.5 l 28.844 0 c 0.872 0 1.656 -0.623 1.656 -1.5 l 0 -17 c 0 -0.941 -0.425 -1.5 -1.5 -1.5 l -2.5 0 0 -3 c 0 -0.527 -0.508 -1 -1 -1 z" style="visibility:visible;fill:#8d6e63;fill-opacity:1;stroke:none;display:inline;color:#000;fill-rule:nonzero"/>
  <path d="m 4 1024.36 c -0.492 0 -1 0.473 -1 1 l 0 1 c -0.687 0 -0.884 0 -1.5 0 -0.979 0 -1.5 0.483 -1.5 1.5 l 0 19 c 0 1 0.501 1.5 1.5 1.5 l 28.844 0 c 0.872 0 1.656 -0.623 1.656 -1.5 l 0 -16.948 c 0 -1.014 -0.419 -1.552 -1.5 -1.552 l -2.5 0 0 -3 c 0 -0.527 -0.508 -1 -1 -1 z m 15 3 0 2 12 0 0 18 -30 0 0 -20 z" style="visibility:visible;fill:#000;fill-opacity:0.322;stroke:none;display:inline;color:#000;fill-rule:nonzero"/>
  <path d="M 14.5 13.438 A 3 3 0 0 0 11.719 16.438 A 3 3 0 0 0 12 17.719 L 11.719 17.719 L 11.719 17.75 A 2.143 2.143 0 0 0 10 19.844 A 2.143 2.143 0 0 0 11.719 21.969 L 11.719 22 L 11.938 22 L 12.281 22 L 19.656 22 L 20 22 L 20.281 22 L 20.281 21.969 A 2.143 2.143 0 0 0 22 19.844 A 2.143 2.143 0 0 0 20.281 17.75 L 20.281 17.719 L 20.06 17.719 L 19.844 17.719 A 2.143 2.143 0 0 0 20.281 16.438 A 2.143 2.143 0 0 0 18.16 14.281 A 2.143 2.143 0 0 0 17.06 14.563 A 3 3 0 0 0 14.719 13.438 A 3 3 0 0 0 14.5 13.438 z" transform="translate(0,1020.3622)" style="fill:#000;opacity:1;fill-opacity:0.322;stroke:none"/>
 </g>
</svg>
