<svg xmlns="http://www.w3.org/2000/svg" viewBox="0 0 32 32">
 <path d="m 4 4 c -0.492 0 -1 0.473 -1 1 l 0 1 c -0.667 0 -0.833 0 -1.5 0 -0.979 0 -1.5 0.494 -1.5 1.5 l 0 19 c 0 1.031 0.523 1.5 1.5 1.5 l 28.844 0 c 0.872 0 1.656 -0.623 1.656 -1.5 l 0 -17 c 0 -0.941 -0.425 -1.5 -1.5 -1.5 l -2.5 0 0 -3 c 0 -0.527 -0.508 -1 -1 -1 z" style="visibility:visible;fill:#8d6e63;fill-opacity:1;stroke:none;display:inline;color:#000;fill-rule:nonzero"/>
 <path d="m 4 4 c -0.492 0 -1 0.473 -1 1 l 0 1 c -0.687 0 -0.884 0 -1.5 0 -0.979 0 -1.5 0.483 -1.5 1.5 l 0 19 c 0 1 0.501 1.5 1.5 1.5 l 28.844 0 c 0.872 0 1.656 -0.623 1.656 -1.5 l 0 -16.948 c 0 -1.014 -0.419 -1.552 -1.5 -1.552 l -2.5 0 0 -3 c 0 -0.527 -0.508 -1 -1 -1 z m 15 3 0 2 12 0 l 0 18 -30 0 0 -20 z" style="visibility:visible;fill:#000;fill-opacity:0.322;stroke:none;display:inline;color:#000;fill-rule:nonzero"/>
 <path d="m 20.52 12 c -0.518 0.01 -1.028 0.327 -1.11 0.921 -0.131 0.95 0.848 0.594 1.632 0.594 0.783 0 1.044 1.544 0.848 2.376 -0.196 0.832 -2.278 2.796 -6.984 0.832 c -3.875 -1.617 -5.809 0.536 -5.907 0.579 0.367 3.213 3.356 6.698 6.984 6.698 3.875 0 7.02 -3.839 7.02 -7.366 c 0 -0.405 -0.051 -0.804 -0.131 -1.188 -0.072 -0.194 -0.143 -0.388 -0.196 -0.564 -0.095 -0.316 -0.202 -0.583 -0.294 -0.832 -0.004 -0.01 0.004 -0.022 0 -0.03 -0.371 -0.75 -0.891 -1.428 -1.534 -1.99 -0.003 -0.01 -0.013 0.01 -0.016 0 -0.1 -0.024 -0.206 -0.031 -0.31 -0.03 z" style="fill:#000;fill-opacity:0.322;color:#000"/>
 <path d="m 19 15 c 0 0.552 -0.448 1 -1 1 -0.552 0 -1 -0.448 -1 -1 0 -0.552 0.448 -1 1 -1 c 0.552 0 1 0.448 1 1 z" style="fill:#000;fill-opacity:0.322;color:#000"/>
 <path d="m 16 13.5 c 0 0.276 -0.224 0.5 -0.5 0.5 -0.276 0 -0.5 -0.224 -0.5 -0.5 0 -0.276 0.224 -0.5 0.5 -0.5 c 0.276 0 0.5 0.224 0.5 0.5 z" style="fill:#000;fill-opacity:0.322;color:#000"/>
</svg>
