<svg version="1.1" viewBox="0 0 32 32" xmlns="http://www.w3.org/2000/svg">
 <path d="m4 4c-0.492 0-1 0.473-1 1v1h-1.5c-0.979 0-1.5 0.494-1.5 1.5v19c0 1.031 0.523 1.5 1.5 1.5h28.844c0.872 0 1.656-0.623 1.656-1.5v-17c0-0.941-0.425-1.5-1.5-1.5h-2.5v-3c0-0.527-0.508-1-1-1z" style="fill:#8d6e63"/>
 <path d="m4 4c-0.492 0-1 0.473-1 1v1h-1.5c-0.979 0-1.5 0.483-1.5 1.5v19c0 1 0.501 1.5 1.5 1.5h28.844c0.872 0 1.656-0.623 1.656-1.5v-16.948c0-1.014-0.419-1.552-1.5-1.552h-2.5v-3c0-0.527-0.508-1-1-1zm15 3v2h12v18h-30v-20z" style="fill-opacity:.322"/>
 <path d="m16 12a6 6 0 0 0-6 6 6 6 0 0 0 6 6h6v-1h-6a5 5 0 0 1-5-5 5 5 0 0 1 5-5zm0 2c-2.209139 0-4 1.79085-4 4s1.790861 4 4 4h6v-1h-6c-1.656854 0-3-1.34315-3-3s1.343146-3 3-3c0.3409 0 0.679075 0.0608 1 0.1758v-1.04495c-0.326477-0.08565-0.662481-0.1296-1-0.13085zm0 2a2 2 0 0 0-2 2 2 2 0 0 0 2 2h6v-1h-6a1 1 0 0 1-1-1 1 1 0 0 1 1-1h1.730469a2 2 0 0 0-1.730469-1z" style="-inkscape-stroke:none;fill-opacity:.322;font-variation-settings:normal;stop-color:#000000"/>
</svg>
