<?xml version="1.0" encoding="UTF-8" standalone="no"?>
<svg
   xmlns:dc="http://purl.org/dc/elements/1.1/"
   xmlns:cc="http://creativecommons.org/ns#"
   xmlns:rdf="http://www.w3.org/1999/02/22-rdf-syntax-ns#"
   xmlns:svg="http://www.w3.org/2000/svg"
   xmlns="http://www.w3.org/2000/svg"
   xmlns:sodipodi="http://sodipodi.sourceforge.net/DTD/sodipodi-0.dtd"
   xmlns:inkscape="http://www.inkscape.org/namespaces/inkscape"
   width="32"
   height="32"
   viewBox="0 0 32 32"
   id="svg3059"
   version="1.1"
   inkscape:version="0.91 r"
   sodipodi:docname="default-folder-system.svg">
  <metadata
     id="metadata3073">
    <rdf:RDF>
      <cc:Work
         rdf:about="">
        <dc:format>image/svg+xml</dc:format>
        <dc:type
           rdf:resource="http://purl.org/dc/dcmitype/StillImage" />
      </cc:Work>
    </rdf:RDF>
  </metadata>
  <defs
     id="defs3071" />
  <sodipodi:namedview
     pagecolor="#ffffff"
     bordercolor="#666666"
     borderopacity="1"
     objecttolerance="10"
     gridtolerance="10"
     guidetolerance="10"
     inkscape:pageopacity="0"
     inkscape:pageshadow="2"
     inkscape:window-width="1280"
     inkscape:window-height="998"
     id="namedview3069"
     showgrid="true"
     inkscape:zoom="14.75"
     inkscape:cx="13.427603"
     inkscape:cy="17.049549"
     inkscape:window-x="0"
     inkscape:window-y="0"
     inkscape:window-maximized="1"
     inkscape:current-layer="svg3059">
    <inkscape:grid
       type="xygrid"
       id="grid2991" />
  </sodipodi:namedview>
  <path
     style="font-size:medium;font-style:normal;font-variant:normal;font-weight:normal;font-stretch:normal;text-indent:0;text-align:start;text-decoration:none;line-height:normal;letter-spacing:normal;word-spacing:normal;text-transform:none;direction:ltr;block-progression:tb;writing-mode:lr-tb;text-anchor:start;baseline-shift:baseline;color:#000000;fill:#e9b080;fill-opacity:1;fill-rule:nonzero;stroke:none;stroke-width:1;marker:none;visibility:visible;display:inline;overflow:visible;enable-background:accumulate;font-family:Sans;-inkscape-font-specification:Sans"
     d="m 4,3.9999996 c -0.4916,0 -1,0.4731187 -1,1 l 0,1 c -0.666666,0 -0.833333,0 -1.5,0 -0.979161,0 -1.5,0.4940342 -1.5,1.5 L 0,26.5 C 0,27.531461 0.523069,28 1.5,28 l 28.84375,0 C 31.21572,28 32,27.376781 32,26.5 L 32,9.4999996 c 0,-0.9413229 -0.425107,-1.5 -1.5,-1.5 l -2.5,0 0,-3 c 0,-0.5268813 -0.5084,-1 -1,-1 z"
     id="path3004"
     inkscape:connector-curvature="0"
     sodipodi:nodetypes="ssccssssscccsss" />
  <path
     style="font-size:medium;font-style:normal;font-variant:normal;font-weight:normal;font-stretch:normal;text-indent:0;text-align:start;text-decoration:none;line-height:normal;letter-spacing:normal;word-spacing:normal;text-transform:none;direction:ltr;block-progression:tb;writing-mode:lr-tb;text-anchor:start;baseline-shift:baseline;color:#000000;fill:#000000;fill-opacity:0.32156863;fill-rule:nonzero;stroke:none;stroke-width:1;marker:none;visibility:visible;display:inline;overflow:visible;enable-background:accumulate;font-family:Sans;-inkscape-font-specification:Sans"
     d="m 4,3.9999996 c -0.4916,0 -1,0.4731186 -1,1 l 0,1 c -0.686803,0 -0.883535,0 -1.5,0 -0.979161,0 -1.5,0.4829856 -1.5,1.5 L 0,26.5 C 0,27.503839 0.500972,28 1.5,28 l 28.84375,0 C 31.21572,28 32,27.376781 32,26.5 L 32,9.5517763 C 32,8.5377936 31.580916,7.9999996 30.5,7.9999996 l -2.5,0 0,-3 c 0,-0.5268814 -0.5084,-1 -1,-1 z m 15,3 0,2 12,0 L 31,27 1,27 1,6.9999996 z"
     id="path3784"
     inkscape:connector-curvature="0"
     sodipodi:nodetypes="ssccssssscccsssccccccc" />
  <path
     id="path3002"
     d="m 15.055556,12 c -0.332773,0 -0.611112,0.2645 -0.611112,0.5973 v 0.7778 c -0.210398,0.071 -0.414555,0.1527 -0.61111,0.2499 l -0.541689,-0.5416 c -0.235306,-0.2353 -0.611911,-0.2353 -0.847199,0 l -1.361112,1.3472 c -0.235307,0.2353 -0.235307,0.612 0,0.8472 l 0.541689,0.5417 c -0.09971,0.1999 -0.178059,0.4106 -0.25,0.6249 H 10.611112 C 10.278337,16.4444 10,16.7089 10,17.0417 v 1.9167 c 0,0.3328 0.278337,0.5973 0.611112,0.5973 h 0.763911 c 0.07193,0.2143 0.150297,0.4249 0.25,0.6249 l -0.541689,0.5417 c -0.235307,0.2354 -0.235307,0.6119 0,0.8472 l 1.361112,1.3472 c 0.235306,0.2352 0.611911,0.2352 0.847199,0 l 0.541689,-0.5416 c 0.196555,0.098 0.400712,0.1792 0.61111,0.2499 v 0.7777 c 0,0.3329 0.278344,0.5973 0.611112,0.5973 h 1.902754 c 0.332774,0 0.597246,-0.2644 0.597246,-0.5973 V 22.625 c 0.214365,-0.072 0.425031,-0.1503 0.624977,-0.2499 l 0.54169,0.5416 c 0.235306,0.2352 0.611912,0.2352 0.8472,0 l 1.361112,-1.3472 c 0.235306,-0.2353 0.235301,-0.612 0,-0.8472 l -0.555556,-0.5555 c 0.09737,-0.1966 0.179386,-0.4007 0.25,-0.6111 h 0.777777 C 21.73553,19.5557 22,19.2912 22,18.9584 v -1.9167 c 1e-6,-0.3328 -0.264454,-0.5973 -0.597244,-0.5973 h -0.777777 c -0.07061,-0.2104 -0.152627,-0.4145 -0.25,-0.6111 l 0.555556,-0.5555 c 0.235306,-0.2354 0.235306,-0.6119 0,-0.8472 l -1.361112,-1.3472 c -0.235308,-0.2353 -0.611912,-0.2353 -0.8472,0 l -0.54169,0.5416 c -0.199967,-0.1 -0.410636,-0.1779 -0.624977,-0.2499 V 12.5973 C 17.555556,12.2645 17.291103,12 16.95831,12 h -1.902754 z m 0.944443,4.4444 c 0.858667,0 1.555557,0.697 1.555557,1.5557 0,0.8586 -0.69689,1.5556 -1.555557,1.5556 -0.858667,0 -1.555555,-0.697 -1.555555,-1.5556 0,-0.8587 0.696888,-1.5557 1.555555,-1.5557 z"
     style="line-height:normal;opacity:1;color:#000000;fill:#000000;fill-opacity:0.32156864000000002;display:block"
     inkscape:connector-curvature="0" />
</svg>
