<svg xmlns="http://www.w3.org/2000/svg" viewBox="0 0 32 32">
 <path d="m 4 4 c -0.492 0 -1 1 -1 1 l 0 0 c -0.667 0 -0.833 0 -1.5 0 -0.979 0 -1.5 0.494 -1.5 1.5 l 0 12 c 0 1.031 0.523 1.5 1.5 1.5 l 16.844 0 c 0.872 0 1.656 -0.623 1.656 -1.5 l 0 -11 c 0 -0.941 -0.425 -1.5 -1.5 -1.5 l -2.5 0 0 -1 c 0 -0.527 -0.508 -1 -1 -1 z" style="visibility:visible;fill:#66bb6a;opacity:0.5;fill-opacity:1;stroke:none;display:inline;color:#000;fill-rule:nonzero"/>
 <path d="m 4 4 c -0.492 0 -1 1 -1 1 l 0 0 c -0.687 0 -0.884 0 -1.5 0 -0.979 0 -1.5 0.483 -1.5 1.5 l 0 12 c 0 1 0.501 1.5 1.5 1.5 l 16.844 0 c 0.872 0 1.656 -0.623 1.656 -1.5 l 0 -10.948 c 0 -1.014 -0.419 -1.552 -1.5 -1.552 l -2.5 0 0 -1 c 0 -0.527 -0.508 -1 -1 -1 z m 7 2 0 1 8 0 0 12 l -18 0 0 -13 z" style="visibility:visible;fill:#000;opacity:0.5;fill-opacity:0.322;stroke:none;display:inline;color:#000;fill-rule:nonzero"/>
 <path d="m 16 12 c -0.492 0 -1 1 -1 1 l 0 0 c -0.667 0 -0.833 0 -1.5 0 -0.979 0 -1.5 0.494 -1.5 1.5 l 0 12 c 0 1.031 0.523 1.5 1.5 1.5 l 16.844 0 c 0.872 0 1.656 -0.623 1.656 -1.5 l 0 -11 c 0 -0.941 -0.425 -1.5 -1.5 -1.5 l -2.5 0 0 -1 c 0 -0.527 -0.508 -1 -1 -1 z" style="visibility:visible;fill:#66bb6a;fill-opacity:1;stroke:none;display:inline;color:#000;fill-rule:nonzero"/>
 <path d="m 16 12 c -0.492 0 -1 1 -1 1 l 0 0 c -0.687 0 -0.884 0 -1.5 0 -0.979 0 -1.5 0.483 -1.5 1.5 l 0 12 c 0 1 0.501 1.5 1.5 1.5 l 16.844 0 c 0.872 0 1.656 -0.623 1.656 -1.5 l 0 -10.948 c 0 -1.014 -0.419 -1.552 -1.5 -1.552 l -2.5 0 0 -1 c 0 -0.527 -0.508 -1 -1 -1 z m 7 2 0 1 8 0 0 12 -18 0 0 -13 z" style="visibility:visible;fill:#000;fill-opacity:0.322;stroke:none;display:inline;color:#000;fill-rule:nonzero"/>
</svg>
