<svg xmlns="http://www.w3.org/2000/svg" viewBox="0 0 32 32">
 <path d="m 4 4 c -0.492 0 -1 0.473 -1 1 l 0 1 c -0.667 0 -0.833 0 -1.5 0 -0.979 0 -1.5 0.494 -1.5 1.5 l 0 19 c 0 1.031 0.523 1.5 1.5 1.5 l 28.844 0 c 0.872 0 1.656 -0.623 1.656 -1.5 l 0 -17 c 0 -0.941 -0.425 -1.5 -1.5 -1.5 l -2.5 0 0 -3 c 0 -0.527 -0.508 -1 -1 -1 z" style="visibility:visible;fill:#f57c00;fill-opacity:1;stroke:none;display:inline;color:#000;fill-rule:nonzero"/>
 <path d="m 4 4 c -0.492 0 -1 0.473 -1 1 l 0 1 c -0.687 0 -0.884 0 -1.5 0 -0.979 0 -1.5 0.483 -1.5 1.5 l 0 19 c 0 1 0.501 1.5 1.5 1.5 l 28.844 0 c 0.872 0 1.656 -0.623 1.656 -1.5 l 0 -16.948 c 0 -1.014 -0.419 -1.552 -1.5 -1.552 l -2.5 0 0 -3 c 0 -0.527 -0.508 -1 -1 -1 z m 15 3 0 2 12 0 l 0 18 -30 0 0 -20 z" style="visibility:visible;fill:#000;fill-opacity:0.322;stroke:none;display:inline;color:#000;fill-rule:nonzero"/>
 <path transform="matrix(0.5,0,0,0.5,1,-1)" d="m 17 38 a 3 3 0 1 1 -6 0 3 3 0 1 1 6 0 z" style="fill:#000;opacity:1;fill-opacity:0.322;stroke:none"/>
 <path d="m 16 12 c -1.146 0 -2.215 0.316 -3.125 0.875 l 1.484 1.484 c 0.501 -0.226 1.056 -0.359 1.641 -0.359 c 2.039 0 3.722 1.528 3.969 3.5 l 2 0 c -0.081 -0.96 -0.381 -1.863 -0.859 -2.641 -0.188 0.085 -0.39 0.141 -0.609 0.141 -0.828 0 -1.5 -0.672 -1.5 -1.5 0 -0.219 0.056 -0.422 0.141 -0.609 -0.913 -0.562 -1.989 -0.891 -3.141 -0.891 z m -3.922 1.484 c -0.939 0.819 -1.633 1.916 -1.922 3.172 0.498 0.244 0.844 0.752 0.844 1.344 c 0 0.592 -0.346 1.1 -0.844 1.344 0.311 1.353 1.071 2.541 2.125 3.375 l 1.438 -1.438 c -1.038 -0.723 -1.719 -1.921 -1.719 -3.281 c 0 -1.255 0.58 -2.376 1.484 -3.109 l -1.406 -1.406 z m 7.891 5.02 c -0.247 1.972 -1.93 3.5 -3.969 3.5 -0.473 0 -0.923 -0.099 -1.344 -0.25 l -1.516 1.516 c 0.851 0.465 1.821 0.734 2.859 0.734 0.756 0 1.474 -0.135 2.141 -0.391 -0.085 -0.188 -0.141 -0.39 -0.141 -0.609 c 0 -0.828 0.672 -1.5 1.5 -1.5 0.402 0 0.762 0.164 1.031 0.422 0.81 -0.935 1.33 -2.116 1.438 -3.422 l -2 0 z" style="fill:#000;opacity:1;fill-opacity:0.322;stroke:none"/>
 <path d="m 17 38 a 3 3 0 1 1 -6 0 3 3 0 1 1 6 0 z" transform="matrix(0.5,0,0,0.5,14.5,-6.5000004)" style="fill:#000;opacity:1;fill-opacity:0.322;stroke:none"/>
 <path d="m 17 38 a 3 3 0 1 1 -6 0 3 3 0 1 1 6 0 z" transform="matrix(0.5,0,0,0.5,13.5,5)" style="fill:#000;opacity:1;fill-opacity:0.322;stroke:none"/>
</svg>
