<svg xmlns="http://www.w3.org/2000/svg" viewBox="0 0 32 32">
 <path d="m 4 4 c -0.492 0 -1 0.473 -1 1 l 0 1 c -0.667 0 -0.833 0 -1.5 0 -0.979 0 -1.5 0.494 -1.5 1.5 l 0 19 c 0 1.031 0.523 1.5 1.5 1.5 l 28.844 0 c 0.872 0 1.656 -0.623 1.656 -1.5 l 0 -17 c 0 -0.941 -0.425 -1.5 -1.5 -1.5 l -2.5 0 0 -3 c 0 -0.527 -0.508 -1 -1 -1 z" style="visibility:visible;fill:#ef5350;fill-opacity:1;stroke:none;display:inline;color:#000;fill-rule:nonzero"/>
 <path d="m 4 4 c -0.492 0 -1 0.473 -1 1 l 0 1 c -0.687 0 -0.884 0 -1.5 0 -0.979 0 -1.5 0.483 -1.5 1.5 l 0 19 c 0 1 0.501 1.5 1.5 1.5 l 28.844 0 c 0.872 0 1.656 -0.623 1.656 -1.5 l 0 -16.948 c 0 -1.014 -0.419 -1.552 -1.5 -1.552 l -2.5 0 0 -3 c 0 -0.527 -0.508 -1 -1 -1 z m 15 3 0 2 12 0 l 0 18 -30 0 0 -20 z" style="visibility:visible;fill:#000;fill-opacity:0.322;stroke:none;display:inline;color:#000;fill-rule:nonzero"/>
 <path d="m 15.06 12 c -0.333 0 -0.611 0.264 -0.611 0.597 l 0 0.778 c -0.21 0.071 -0.415 0.153 -0.611 0.25 l -0.542 -0.542 c -0.235 -0.235 -0.612 -0.235 -0.847 0 l -1.361 1.347 c -0.235 0.235 -0.235 0.612 0 0.847 l 0.542 0.542 c -0.1 0.2 -0.178 0.411 -0.25 0.625 l -0.764 0 c -0.333 0 -0.611 0.265 -0.611 0.597 l 0 1.917 c 0 0.333 0.278 0.597 0.611 0.597 l 0.764 0 c 0.072 0.214 0.15 0.425 0.25 0.625 l -0.542 0.542 c -0.235 0.235 -0.235 0.612 0 0.847 l 1.361 1.347 c 0.235 0.235 0.612 0.235 0.847 0 l 0.542 -0.542 c 0.197 0.098 0.401 0.179 0.611 0.25 l 0 0.778 c 0 0.333 0.278 0.597 0.611 0.597 l 1.903 0 c 0.333 0 0.597 -0.264 0.597 -0.597 l 0 -0.778 c 0.214 -0.072 0.425 -0.15 0.625 -0.25 l 0.542 0.542 c 0.235 0.235 0.612 0.235 0.847 0 l 1.361 -1.347 c 0.235 -0.235 0.235 -0.612 0 -0.847 l -0.556 -0.555 c 0.097 -0.197 0.179 -0.401 0.25 -0.611 l 0.778 0 c 0.333 0 0.597 -0.264 0.597 -0.597 l 0 -1.917 c 0 -0.333 -0.264 -0.597 -0.597 -0.597 l -0.778 0 c -0.071 -0.21 -0.153 -0.415 -0.25 -0.611 l 0.556 -0.556 c 0.235 -0.235 0.235 -0.612 0 -0.847 l -1.361 -1.347 c -0.235 -0.235 -0.612 -0.235 -0.847 0 l -0.542 0.542 c -0.2 -0.1 -0.411 -0.178 -0.625 -0.25 l 0 -0.778 c 0 -0.333 -0.264 -0.597 -0.597 -0.597 l -1.903 0 z m 0.944 4.444 c 0.859 0 1.556 0.697 1.556 1.556 0 0.859 -0.697 1.556 -1.556 1.556 -0.859 0 -1.556 -0.697 -1.556 -1.556 0 -0.859 0.697 -1.556 1.556 -1.556 z" style="fill:#000;opacity:1;fill-opacity:0.322;display:block;color:#000"/>
</svg>
