<?xml version="1.0" encoding="UTF-8" standalone="no"?>
<!-- Created with Inkscape (http://www.inkscape.org/) -->

<svg
   xmlns:dc="http://purl.org/dc/elements/1.1/"
   xmlns:cc="http://creativecommons.org/ns#"
   xmlns:rdf="http://www.w3.org/1999/02/22-rdf-syntax-ns#"
   xmlns:svg="http://www.w3.org/2000/svg"
   xmlns="http://www.w3.org/2000/svg"
   xmlns:xlink="http://www.w3.org/1999/xlink"
   xmlns:sodipodi="http://sodipodi.sourceforge.net/DTD/sodipodi-0.dtd"
   xmlns:inkscape="http://www.inkscape.org/namespaces/inkscape"
   width="256"
   height="256"
   id="svg2"
   version="1.1"
   inkscape:version="0.48.5 r10040"
   sodipodi:docname="folder-vm.svg"
   inkscape:export-filename="/media/Data/Main/Visuals/Icons/Numix/Desktop/repos/numix-wiki/Gjorgi/Numix-folders/48/New/folder-144.png"
   inkscape:export-xdpi="270"
   inkscape:export-ydpi="270">
  <defs
     id="defs4">
    <radialGradient
       r="24"
       fy="40.5"
       fx="24"
       cy="40.5"
       cx="24"
       gradientTransform="matrix(1.6666667,0,0,0.2777777,-8,1030.4456)"
       gradientUnits="userSpaceOnUse"
       id="radialGradient3098"
       xlink:href="#linearGradient3886-9"
       inkscape:collect="always" />
    <linearGradient
       id="linearGradient3886-9">
      <stop
         style="stop-color:#000000;stop-opacity:1;"
         offset="0"
         id="stop3888-3" />
      <stop
         style="stop-color:#000000;stop-opacity:0.19607843;"
         offset="1"
         id="stop3890-7" />
    </linearGradient>
    <radialGradient
       r="24"
       fy="40.5"
       fx="24"
       cy="40.5"
       cx="24"
       gradientTransform="matrix(6.6666668,0,0,1.1111108,-32,964.6958)"
       gradientUnits="userSpaceOnUse"
       id="radialGradient3078"
       xlink:href="#linearGradient3886-9"
       inkscape:collect="always" />
  </defs>
  <sodipodi:namedview
     id="base"
     pagecolor="#ffffff"
     bordercolor="#666666"
     borderopacity="1.0"
     inkscape:pageopacity="0.0"
     inkscape:pageshadow="2"
     inkscape:zoom="1.8651838"
     inkscape:cx="182.32381"
     inkscape:cy="129.25692"
     inkscape:document-units="px"
     inkscape:current-layer="layer1"
     showgrid="true"
     inkscape:window-width="1280"
     inkscape:window-height="998"
     inkscape:window-x="0"
     inkscape:window-y="0"
     inkscape:window-maximized="1"
     showguides="true"
     inkscape:guide-bbox="true">
    <inkscape:grid
       type="xygrid"
       id="grid2985"
       empspacing="5"
       visible="true"
       enabled="true"
       snapvisiblegridlinesonly="true" />
  </sodipodi:namedview>
  <metadata
     id="metadata7">
    <rdf:RDF>
      <cc:Work
         rdf:about="">
        <dc:format>image/svg+xml</dc:format>
        <dc:type
           rdf:resource="http://purl.org/dc/dcmitype/StillImage" />
        <dc:title />
      </cc:Work>
    </rdf:RDF>
  </metadata>
  <g
     inkscape:label="Layer 1"
     inkscape:groupmode="layer"
     id="layer1"
     transform="translate(0,-796.3622)">
    <path
       inkscape:connector-curvature="0"
       style="opacity:0.1;fill:url(#radialGradient3078);fill-opacity:1;stroke:none"
       d="m 128,983.0286 c -52.40826,0 -98.81584,4.1768 -128,10.6672 l 0,32 c 29.18416,6.4896 75.59174,10.6664 128,10.6664 52.40826,0 98.81584,-4.1768 128,-10.6664 l 0,-32 c -29.18416,-6.4904 -75.59174,-10.6672 -128,-10.6672 z"
       id="path3868" />
    <rect
       style="fill:#1976d2;fill-opacity:1;stroke:none"
       id="rect2987"
       width="240"
       height="167.99963"
       x="8"
       y="852.36218"
       rx="26.086956"
       ry="26.249928" />
    <path
       style="opacity:0.2;fill:#ffffff;fill-opacity:1;stroke:none"
       d="M 34.086956,849.6958 C 19.634782,849.6958 8,861.5886 8,876.3622 l 0,10.6664 c 0,-14.7728 11.634782,-26.6664 26.086956,-26.6664 l 187.826084,0 c 14.45218,0 26.08696,11.8936 26.08696,26.6664 l 0,-10.6664 c 0,-14.7736 -11.63478,-26.6664 -26.08696,-26.6664 l -187.826084,0 z"
       id="rect3797"
       inkscape:connector-curvature="0" />
    <path
       style="fill:#42a5f5;fill-opacity:1;stroke:none"
       d="m 34.086956,892.3622 41.739132,0 c 57.391302,-5.3336 46.956522,-64 83.478252,-64 l 62.6087,0 c 14.45218,0 26.08696,11.8936 26.08696,26.6664 l 0,138.6672 c 0,14.7728 -11.63478,26.6664 -26.08696,26.6664 l -187.826084,0 C 19.634782,1020.3622 8,1008.4686 8,993.6958 l 0,-74.6672 c 0,-16 10.434782,-26.6664 26.086956,-26.6664 z"
       id="rect3776"
       inkscape:connector-curvature="0"
       sodipodi:nodetypes="cccsssssscc" />
    <path
       id="path3207"
       d="m 45,920.3622 c -4.652312,0 -8.386398,3.482 -8.875,8 l 63.75,0 c -0.488604,-4.518 -4.222696,-8 -8.875,-8 l -46,0 z m -9,12 0,48 64,0 0,-48 -64,0 z m 12,4 40,0 0,8 -40,0 0,-8 z m 0,12 40,0 0,8 -40,0 0,-8 z m 20,16 c 2.20914,0 4,1.7908 4,4 0,2.2092 -1.79086,4 -4,4 -2.20914,0 -4,-1.7908 -4,-4 0,-2.2092 1.79086,-4 4,-4 z m -31.875,20 c 0.488602,4.5184 4.222688,8 8.875,8 l 46,0 c 4.652304,0 8.386396,-3.4816 8.875,-8 l -63.75,0 z"
       style="fill:#000000;fill-opacity:0.09803922"
       inkscape:connector-curvature="0" />
    <path
       style="fill:#fff8e1;fill-opacity:1"
       d="m 45,916.3622 c -4.652312,0 -8.386398,3.482 -8.875,8 l 63.75,0 c -0.488604,-4.518 -4.222696,-8 -8.875,-8 l -46,0 z m -9,12 0,48 64,0 0,-48 -64,0 z m 12,4 40,0 0,8 -40,0 0,-8 z m 0,12 40,0 0,8 -40,0 0,-8 z m 20,16 c 2.20914,0 4,1.7908 4,4 0,2.2092 -1.79086,4 -4,4 -2.20914,0 -4,-1.7908 -4,-4 0,-2.2092 1.79086,-4 4,-4 z m -31.875,20 c 0.488602,4.5184 4.222688,8 8.875,8 l 46,0 c 4.652304,0 8.386396,-3.4816 8.875,-8 l -63.75,0 z"
       id="rect3007"
       inkscape:connector-curvature="0" />
    <path
       style="opacity:0.15;fill:#000000;fill-opacity:1;stroke:none"
       d="m 8,983.0286 0,10.6672 c 0,14.7728 11.634782,26.6664 26.086956,26.6664 l 187.826084,0 c 14.45218,0 26.08696,-11.8936 26.08696,-26.6664 l 0,-10.6672 c 0,14.7736 -11.63478,29.3336 -26.08696,29.3336 l -187.826084,0 C 19.634782,1012.3622 8,997.8022 8,983.0286 z"
       id="path3786"
       inkscape:connector-curvature="0"
       sodipodi:nodetypes="csssscssc" />
  </g>
</svg>
