<?xml version="1.0" encoding="UTF-8" standalone="no"?>
<svg
   xmlns:dc="http://purl.org/dc/elements/1.1/"
   xmlns:cc="http://creativecommons.org/ns#"
   xmlns:rdf="http://www.w3.org/1999/02/22-rdf-syntax-ns#"
   xmlns:svg="http://www.w3.org/2000/svg"
   xmlns="http://www.w3.org/2000/svg"
   xmlns:sodipodi="http://sodipodi.sourceforge.net/DTD/sodipodi-0.dtd"
   xmlns:inkscape="http://www.inkscape.org/namespaces/inkscape"
   viewBox="0 0 48 48"
   id="svg2"
   version="1.1"
   inkscape:version="0.91 r"
   width="100%"
   height="100%"
   sodipodi:docname="athena.svg">
  <metadata
     id="metadata85">
    <rdf:RDF>
      <cc:Work
         rdf:about="">
        <dc:format>image/svg+xml</dc:format>
        <dc:type
           rdf:resource="http://purl.org/dc/dcmitype/StillImage" />
      </cc:Work>
    </rdf:RDF>
  </metadata>
  <sodipodi:namedview
     pagecolor="#ffffff"
     bordercolor="#666666"
     borderopacity="1"
     objecttolerance="10"
     gridtolerance="10"
     guidetolerance="10"
     inkscape:pageopacity="0"
     inkscape:pageshadow="2"
     inkscape:window-width="1280"
     inkscape:window-height="998"
     id="namedview83"
     showgrid="false"
     inkscape:zoom="9.8333333"
     inkscape:cx="19.524397"
     inkscape:cy="31.371084"
     inkscape:window-x="0"
     inkscape:window-y="0"
     inkscape:window-maximized="1"
     inkscape:current-layer="svg2" />
  <defs
     id="defs4">
    <linearGradient
       id="linearGradient3764"
       x1="1"
       x2="47"
       gradientUnits="userSpaceOnUse"
       gradientTransform="matrix(0,-1,1,0,-1.5e-6,47.999998)">
      <stop
         stop-color="#b44732"
         stop-opacity="1"
         id="stop7" />
      <stop
         offset="1"
         stop-color="#c44e36"
         stop-opacity="1"
         id="stop9" />
    </linearGradient>
  </defs>
  <g
     id="g21">
    <path
       d="m 36.31 5 c 5.859 4.062 9.688 10.831 9.688 18.5 c 0 12.426 -10.07 22.5 -22.5 22.5 c -7.669 0 -14.438 -3.828 -18.5 -9.688 c 1.037 1.822 2.306 3.499 3.781 4.969 c 4.085 3.712 9.514 5.969 15.469 5.969 c 12.703 0 23 -10.298 23 -23 c 0 -5.954 -2.256 -11.384 -5.969 -15.469 c -1.469 -1.475 -3.147 -2.744 -4.969 -3.781 z m 4.969 3.781 c 3.854 4.113 6.219 9.637 6.219 15.719 c 0 12.703 -10.297 23 -23 23 c -6.081 0 -11.606 -2.364 -15.719 -6.219 c 4.16 4.144 9.883 6.719 16.219 6.719 c 12.703 0 23 -10.298 23 -23 c 0 -6.335 -2.575 -12.06 -6.719 -16.219 z"
       opacity="0.05"
       id="path23" />
    <path
       d="m 41.28 8.781 c 3.712 4.085 5.969 9.514 5.969 15.469 c 0 12.703 -10.297 23 -23 23 c -5.954 0 -11.384 -2.256 -15.469 -5.969 c 4.113 3.854 9.637 6.219 15.719 6.219 c 12.703 0 23 -10.298 23 -23 c 0 -6.081 -2.364 -11.606 -6.219 -15.719 z"
       opacity="0.1"
       id="path25" />
    <path
       d="m 31.25 2.375 c 8.615 3.154 14.75 11.417 14.75 21.13 c 0 12.426 -10.07 22.5 -22.5 22.5 c -9.708 0 -17.971 -6.135 -21.12 -14.75 a 23 23 0 0 0 44.875 -7 a 23 23 0 0 0 -16 -21.875 z"
       opacity="0.2"
       id="path27" />
  </g>
  <g
     id="g29">
    <path
       d="m 24 1 c 12.703 0 23 10.297 23 23 c 0 12.703 -10.297 23 -23 23 -12.703 0 -23 -10.297 -23 -23 0 -12.703 10.297 -23 23 -23 z"
       fill="url(#linearGradient3764)"
       fill-opacity="1"
       id="path31" />
  </g>
  <g
     id="g33" />
  <g
     id="g79">
    <path
       d="m 40.03 7.531 c 3.712 4.084 5.969 9.514 5.969 15.469 0 12.703 -10.297 23 -23 23 c -5.954 0 -11.384 -2.256 -15.469 -5.969 4.178 4.291 10.01 6.969 16.469 6.969 c 12.703 0 23 -10.298 23 -23 0 -6.462 -2.677 -12.291 -6.969 -16.469 z"
       id="path81"
       opacity="0.1" />
  </g>
  <path
     inkscape:connector-curvature="0"
     style="fill:#000000;fill-opacity:0.10196078;stroke:none"
     d="m 16,14 c -1,0 -1,1 -1,2 l 0,0.25 0,0.75 0,2 c -0.1939,0 -0.385453,0.01149 -0.5625,0.0625 -0.05562,0.0153 -0.104073,0.04268 -0.15625,0.0625 -0.05622,0.02145 -0.102627,0.06751 -0.15625,0.09375 -0.06221,0.03122 -0.13019,0.05597 -0.1875,0.09375 -0.128371,0.08029 -0.237257,0.174757 -0.34375,0.28125 C 13.471139,19.716361 13.368698,19.848821 13.28125,20 13.11087,20.294551 13,20.633901 13,21 l 0,12 c 0,1.108 0.892,2 2,2 l 20,0 c 1.108,0 2,-0.892 2,-2 L 37,21 C 37,20.633901 36.88913,20.294551 36.71875,20 36.6313,19.848821 36.528861,19.716361 36.40625,19.59375 36.300866,19.482996 36.188282,19.395323 36.0625,19.3125 36.00421,19.27604 35.93715,19.24916 35.875,19.21875 35.82243,19.19239 35.77508,19.14638 35.71875,19.125 35.66699,19.10525 35.616246,19.07799 35.5625,19.0625 35.391167,19.01538 35.207646,19 35,19 l 0,-1 c 0,-1 -1,-2 -2,-2 l -12,0 c 0,-1 0,-2 -1,-2 l -4,0 z"
     id="path5050" />
  <path
     inkscape:connector-curvature="0"
     id="path2998"
     d="m 14.999998,15 17,0 c 1,0 1.999999,1.000001 1.999999,2.000001 l 0,3.999999 c 0,1.108001 -0.445999,2 -0.999999,2 l -18,0 c -0.554,0 -1,-0.891999 -1,-2 l 0,-6 z"
     style="fill:#e9a439;fill-opacity:1;stroke:none"
     sodipodi:nodetypes="csssssscc" />
  <path
     style="opacity:0.02999998;fill:#000000;fill-opacity:1;stroke:none"
     d="m 13.999998,17.000001 0,5 19.999999,0 0,-5 z"
     id="path3807"
     inkscape:connector-curvature="0" />
  <rect
     style="fill:#f5c14e;fill-opacity:1;stroke:none"
     id="rect2990"
     width="23.999998"
     height="16.000002"
     x="12"
     y="18"
     rx="2"
     ry="2" />
  <path
     sodipodi:nodetypes="csssscc"
     inkscape:connector-curvature="0"
     id="path3000"
     d="m 13.999998,16.000001 0,-1.000001 c 0,-1 0,-1.999999 1,-1.999999 l 4,0 c 1,0 1,0.999999 1,1.999999 l 0,1.000001 z"
     style="fill:#e9a439;fill-opacity:1;stroke:none" />
  <path
     style="opacity:0.05;fill:#000000;fill-opacity:1;stroke:none"
     d="m 19.999998,15 0,1.000001 1,0 11,0 c 1,0 1.999999,1 1.999999,1.999999 l 0,-0.999999 c 0,-1 -0.999999,-2.000001 -1.999999,-2.000001 l -11,0 z"
     id="path3002"
     inkscape:connector-curvature="0"
     sodipodi:nodetypes="cccscsscc" />
  <path
     style="opacity:0.05;fill:#000000;fill-opacity:1;stroke:none"
     d="m 14.999998,13.000001 c -1,0 -1,0.999999 -1,1.999999 l 0,0.250002 c 0.04687,-0.703101 0.25,-1.250002 1,-1.250002 l 4,0 c 0.75,0 0.953125,0.546901 1,1.250001 l 0,-0.250002 c 0,-1 0,-2 -1,-2 l -4,0 z"
     id="path3780"
     inkscape:connector-curvature="0" />
  <path
     style="opacity:0.1;fill:#ffffff;fill-opacity:1;stroke:none"
     d="m 14,18 c -0.830583,0 -1.346661,0.4031 -1.733211,1 l 23.467586,0 C 35.347831,18.4031 34.830583,18 34,18 z"
     id="rect2991"
     inkscape:connector-curvature="0"
     sodipodi:nodetypes="sccss" />
  <path
     style="fill:#3c2f1b;fill-opacity:1;fill-rule:nonzero;stroke:none;opacity:0.3"
     inkscape:connector-curvature="0"
     id="path77"
     d="m 24,18.98 -0.715,1.641 0.191,0.434 c -1.152,0.078 -0.926,0.313 -0.926,0.313 0,0 -1.328,0.246 -1.328,0.43 0,0.012 0,0.008 0,0.016 -0.266,0.129 -0.527,0.309 -0.777,0.504 -3.34,4.488 0.234,5.527 -0.559,8.133 -0.172,0.566 -0.891,1.527 -0.891,1.527 0,0 1.449,0.18 2.047,-1.516 0.484,-1.371 -1.156,-4.129 0.066,-5.363 1.734,-1.75 3.02,1.855 2.477,2.355 -0.551,0.5 -0.414,0.637 -0.414,0.637 l 0.82,1.656 0.816,-1.656 c 0,0 0.141,-0.137 -0.41,-0.637 -0.547,-0.5 0.742,-4.109 2.473,-2.355 1.227,1.238 -0.418,3.992 0.07,5.363 0.598,1.695 2.047,1.516 2.047,1.516 0,0 -0.715,-0.969 -0.891,-1.527 -0.793,-2.602 2.77,-3.641 -0.566,-8.133 -0.25,-0.188 -0.512,-0.371 -0.773,-0.5 0,-0.008 0,-0.004 0,-0.016 0,-0.188 -1.324,-0.43 -1.324,-0.43 0,0 0.227,-0.234 -0.93,-0.313 l 0.188,-0.434 -0.711,-1.641 m 0.016,-0.004" />
</svg>
