<svg xmlns="http://www.w3.org/2000/svg" viewBox="0 0 48 48">
 <defs>
  <linearGradient id="linearGradient5286" gradientUnits="userSpaceOnUse" gradientTransform="translate(-48.000001,0.00221547)" x1="1" x2="47">
   <stop style="stop-color:#b44732;stop-opacity:1"/>
   <stop offset="1" style="stop-color:#c44e36;stop-opacity:1"/>
  </linearGradient>
 </defs>
 <g>
  <path d="m 1,43 0,0.25 c 0,2.216 1.784,4 4,4 l 38,0 c 2.216,0 4,-1.784 4,-4 L 47,43 c 0,2.216 -1.784,4 -4,4 L 5,47 C 2.784,47 1,45.216 1,43 z m 0,0.5 0,0.5 c 0,2.216 1.784,4 4,4 l 38,0 c 2.216,0 4,-1.784 4,-4 l 0,-0.5 c 0,2.216 -1.784,4 -4,4 l -38,0 c -2.216,0 -4,-1.784 -4,-4 z" style="opacity:0.02"/>
  <path d="m 1 43.25 0 0.25 c 0 2.216 1.784 4 4 4 l 38 0 c 2.216 0 4 -1.784 4 -4 l 0 -0.25 c 0 2.216 -1.784 4 -4 4 l -38 0 c -2.216 0 -4 -1.784 -4 -4 z" style="opacity:0.05"/>
  <path d="m 1,43 0,0.25 c 0,2.216 1.784,4 4,4 l 38,0 c 2.216,0 4,-1.784 4,-4 L 47,43 c 0,2.216 -1.784,4 -4,4 L 5,47 C 2.784,47 1,45.216 1,43 z" style="opacity:0.1"/>
 </g>
 <rect transform="matrix(0,-1,1,0,0,0)" rx="4" y="1" x="-47" height="46" width="46" style="fill:url(#linearGradient5286);fill-opacity:1"/>
 <g>
  <g transform="translate(0,-1004.3622)">
   <path d="m 1 1043.36 0 4 c 0 2.216 1.784 4 4 4 l 38 0 c 2.216 0 4 -1.784 4 -4 l 0 -4 c 0 2.216 -1.784 4 -4 4 l -38 0 c -2.216 0 -4 -1.784 -4 -4 z" style="opacity:0.1"/>
  </g>
 </g>
 <path d="m 12.813 15 c -0.441 0.051 -0.816 0.465 -0.813 0.938 l 0 17.09 c 0 0.5 0.434 0.969 0.906 0.969 l 22.09 0 c 0.473 0 1 -0.5 1 -1 l 0 -15 c 0 -0.5 -0.527 -1 -1 -1 l -9 0 0 -1 c -0.0001 -0.648 -0.449 -1 -1 -1 l -12.188 0 z m 11.156 4.03 0.719 1.594 -0.188 0.438 c 1.157 0.079 0.938 0.313 0.938 0.313 0 0 1.313 0.25 1.313 0.438 0.261 0.129 0.531 0.312 0.781 0.5 3.336 4.492 -0.23 5.523 0.563 8.125 0.176 0.558 0.906 1.531 0.906 1.531 0 0 -1.465 0.195 -2.063 -1.5 -0.488 -1.371 1.165 -4.137 -0.063 -5.375 -1.731 -1.754 -3.02 1.875 -2.469 2.375 0.551 0.5 0.406 0.625 0.406 0.625 l -0.813 1.656 -0.844 -1.656 c 0 0 -0.113 -0.125 0.438 -0.625 0.543 -0.5 -0.766 -4.125 -2.5 -2.375 -1.222 1.234 0.421 4 -0.063 5.375 -0.598 1.696 -2.031 1.5 -2.031 1.5 0 0 0.703 -0.965 0.875 -1.531 0.793 -2.606 -2.777 -3.637 0.563 -8.125 0.25 -0.195 0.515 -0.371 0.781 -0.5 0 -0.184 1.344 -0.438 1.344 -0.438 0 0 -0.246 -0.235 0.906 -0.313 l -0.188 -0.438 0.688 -1.594 z" style="fill:#000;opacity:0.1"/>
 <path d="m 12.813 14 c -0.441 0.051 -0.815 0.496 -0.813 0.969 l 0 17.06 c 0 0.5 0.434 0.969 0.906 0.969 l 22.09 0 c 0.473 0 1 -0.5 1 -1 l 0 -14.969 c 0 -0.5 -0.527 -1 -1 -1 l -9 0 l 0 -1.031 c -0.0001 -0.647 -0.449 -1 -1 -1 l -12.188 0 z m 11.188 4 0.688 1.625 -0.188 0.438 c 1.157 0.079 0.938 0.313 0.938 0.313 0 0 1.313 0.25 1.313 0.438 0.261 0.129 0.531 0.312 0.781 0.5 3.336 4.492 -0.23 5.523 0.563 8.125 0.176 0.558 0.906 1.531 0.906 1.531 0 0 -1.465 0.195 -2.063 -1.5 -0.488 -1.371 1.165 -4.137 -0.063 -5.375 -1.731 -1.754 -3.02 1.875 -2.469 2.375 0.551 0.5 0.406 0.625 0.406 0.625 l -0.813 1.656 -0.844 -1.656 c 0 0 -0.113 -0.125 0.438 -0.625 0.543 -0.5 -0.766 -4.125 -2.5 -2.375 -1.222 1.234 0.422 4 -0.063 5.375 -0.598 1.696 -2.031 1.5 -2.031 1.5 0 0 0.703 -0.965 0.875 -1.531 0.793 -2.606 -2.777 -3.637 0.563 -8.125 0.25 -0.195 0.515 -0.371 0.781 -0.5 0 -0.184 1.344 -0.438 1.344 -0.438 0 0 -0.246 -0.235 0.906 -0.313 l -0.188 -0.438 0.719 -1.625 z" style="fill:#ececec"/>
</svg>
