<svg xmlns="http://www.w3.org/2000/svg" viewBox="0 0 48 48">
 <defs>
  <linearGradient id="linearGradient5286" gradientUnits="userSpaceOnUse" gradientTransform="translate(-48,0.00221435)" x1="1" x2="47">
   <stop style="stop-color:#3d3d3d;stop-opacity:1"/>
   <stop offset="1" style="stop-color:#474747;stop-opacity:1"/>
  </linearGradient>
 </defs>
 <g>
  <path d="m 1,43 0,0.25 c 0,2.216 1.784,4 4,4 l 38,0 c 2.216,0 4,-1.784 4,-4 L 47,43 c 0,2.216 -1.784,4 -4,4 L 5,47 C 2.784,47 1,45.216 1,43 z m 0,0.5 0,0.5 c 0,2.216 1.784,4 4,4 l 38,0 c 2.216,0 4,-1.784 4,-4 l 0,-0.5 c 0,2.216 -1.784,4 -4,4 l -38,0 c -2.216,0 -4,-1.784 -4,-4 z" style="opacity:0.02"/>
  <path d="m 1 43.25 0 0.25 c 0 2.216 1.784 4 4 4 l 38 0 c 2.216 0 4 -1.784 4 -4 l 0 -0.25 c 0 2.216 -1.784 4 -4 4 l -38 0 c -2.216 0 -4 -1.784 -4 -4 z" style="opacity:0.05"/>
  <path d="m 1,43 0,0.25 c 0,2.216 1.784,4 4,4 l 38,0 c 2.216,0 4,-1.784 4,-4 L 47,43 c 0,2.216 -1.784,4 -4,4 L 5,47 C 2.784,47 1,45.216 1,43 z" style="opacity:0.1"/>
 </g>
 <rect transform="matrix(0,-1,1,0,0,0)" rx="4" y="1" x="-47" height="46" width="46" style="fill:url(#linearGradient5286);fill-opacity:1"/>
 <g>
  <g transform="translate(0,-1004.3622)">
   <path d="m 1 1043.36 0 4 c 0 2.216 1.784 4 4 4 l 38 0 c 2.216 0 4 -1.784 4 -4 l 0 -4 c 0 2.216 -1.784 4 -4 4 l -38 0 c -2.216 0 -4 -1.784 -4 -4 z" style="opacity:0.1"/>
  </g>
 </g>
 <path d="m 12.813 15 c -0.441 0.051 -0.816 0.465 -0.813 0.938 l 0 17.09 c 0 0.5 0.434 0.969 0.906 0.969 l 22.09 0 c 0.473 0 1 -0.5 1 -1 l 0 -15 c 0 -0.5 -0.527 -1 -1 -1 l -9 0 0 -1 c -0.0001 -0.648 -0.449 -1 -1 -1 l -12.188 0 z m 13.969 5 c 1.774 0 3.211 1.415 3.219 3.188 l 0 0.031 c 0 1.777 -1.442 3.219 -3.219 3.219 -0.554 0 -1.074 -0.156 -1.531 -0.406 l -1.688 1.688 0 0.844 -0.844 0 -0.438 0.438 0 0.844 -0.438 0.438 -0.844 0 -0.438 0.438 -0.844 0 0 0.844 -0.438 0.438 -1.281 0 0 -1.281 5.969 -5.969 c -0.25 -0.457 -0.406 -0.972 -0.406 -1.531 0 -1.773 1.442 -3.219 3.219 -3.219 z m 0.656 1.719 c -0.476 0 -0.875 0.371 -0.875 0.844 0 0.476 0.398 0.875 0.875 0.875 0.472 0 0.844 -0.398 0.844 -0.875 -0.003 -0.472 -0.375 -0.844 -0.844 -0.844 z" style="fill:#000;opacity:0.1;fill-opacity:1;stroke:none;fill-rule:nonzero"/>
 <path d="m 12.813 14 c -0.441 0.051 -0.816 0.496 -0.813 0.969 l 0 17.06 c 0 0.5 0.434 0.969 0.906 0.969 l 22.09 0 c 0.473 0 1 -0.5 1 -1 l 0 -14.969 c 0 -0.5 -0.527 -1 -1 -1 l -9 0 l 0 -1.031 c -0.0001 -0.647 -0.449 -1 -1 -1 l -12.188 0 z m 13.969 5 c 1.774 0 3.211 1.415 3.219 3.188 l 0 0.031 c 0 1.777 -1.442 3.219 -3.219 3.219 -0.554 0 -1.074 -0.156 -1.531 -0.406 l -1.688 1.688 0 0.844 -0.844 0 -0.438 0.438 0 0.844 -0.406 0.438 -0.875 0 -0.438 0.438 -0.844 0 0 0.844 l -0.438 0.438 -1.281 0 0 -1.281 5.969 -5.969 c -0.25 -0.457 -0.406 -0.972 -0.406 -1.531 0 -1.773 1.442 -3.219 3.219 -3.219 z m 0.656 1.719 c -0.476 0 -0.875 0.371 -0.875 0.844 0 0.476 0.398 0.875 0.875 0.875 0.472 0 0.844 -0.398 0.844 -0.875 -0.003 -0.472 -0.375 -0.844 -0.844 -0.844 z" style="fill:#ececec;fill-opacity:1;stroke:none;fill-rule:nonzero"/>
</svg>
