<?xml version="1.0" encoding="UTF-8" standalone="no"?>
<svg
   xmlns:dc="http://purl.org/dc/elements/1.1/"
   xmlns:cc="http://creativecommons.org/ns#"
   xmlns:rdf="http://www.w3.org/1999/02/22-rdf-syntax-ns#"
   xmlns:svg="http://www.w3.org/2000/svg"
   xmlns="http://www.w3.org/2000/svg"
   xmlns:xlink="http://www.w3.org/1999/xlink"
   xmlns:sodipodi="http://sodipodi.sourceforge.net/DTD/sodipodi-0.dtd"
   xmlns:inkscape="http://www.inkscape.org/namespaces/inkscape"
   viewBox="0 0 48 48"
   id="svg2"
   version="1.1"
   inkscape:version="0.91 r13725"
   sodipodi:docname="numix-folders.svg">
  <metadata
     id="metadata33">
    <rdf:RDF>
      <cc:Work
         rdf:about="">
        <dc:format>image/svg+xml</dc:format>
        <dc:type
           rdf:resource="http://purl.org/dc/dcmitype/StillImage" />
      </cc:Work>
    </rdf:RDF>
  </metadata>
  <sodipodi:namedview
     pagecolor="#ffffff"
     bordercolor="#666666"
     borderopacity="1"
     objecttolerance="10"
     gridtolerance="10"
     guidetolerance="10"
     inkscape:pageopacity="0"
     inkscape:pageshadow="2"
     inkscape:window-width="622"
     inkscape:window-height="482"
     id="namedview31"
     showgrid="false"
     inkscape:zoom="4.9166667"
     inkscape:cx="31.339607"
     inkscape:cy="23.321916"
     inkscape:window-x="648"
     inkscape:window-y="32"
     inkscape:window-maximized="0"
     inkscape:current-layer="svg2" />
  <defs
     id="defs4">
    <linearGradient
       id="linearGradient5286"
       gradientUnits="userSpaceOnUse"
       gradientTransform="translate(-48,0.00221524)"
       x1="1"
       x2="47"
       xlink:href="#linearGradient3764-6">
      <stop
         style="stop-color:#6cb85a;stop-opacity:1"
         id="stop7" />
      <stop
         offset="1"
         style="stop-color:#79be68;stop-opacity:1"
         id="stop9" />
    </linearGradient>
    <linearGradient
       id="linearGradient3764-6"
       x1="1"
       x2="47"
       gradientUnits="userSpaceOnUse"
       gradientTransform="matrix(0,-1,1,0,-1.5e-6,47.999998)">
      <stop
         style="stop-color:#e4e4e4;stop-opacity:1"
         id="stop7-1" />
      <stop
         offset="1"
         style="stop-color:#eee;stop-opacity:1"
         id="stop9-5" />
    </linearGradient>
    <linearGradient
       inkscape:collect="always"
       xlink:href="#linearGradient3764-6"
       id="linearGradient4197"
       x1="-47"
       y1="24"
       x2="-1"
       y2="24"
       gradientUnits="userSpaceOnUse" />
  </defs>
  <g
     id="g11">
    <path
       d="m 1,43 0,0.25 c 0,2.216 1.784,4 4,4 l 38,0 c 2.216,0 4,-1.784 4,-4 L 47,43 c 0,2.216 -1.784,4 -4,4 L 5,47 C 2.784,47 1,45.216 1,43 z m 0,0.5 0,0.5 c 0,2.216 1.784,4 4,4 l 38,0 c 2.216,0 4,-1.784 4,-4 l 0,-0.5 c 0,2.216 -1.784,4 -4,4 l -38,0 c -2.216,0 -4,-1.784 -4,-4 z"
       style="opacity:0.02"
       id="path13" />
    <path
       d="m 1 43.25 0 0.25 c 0 2.216 1.784 4 4 4 l 38 0 c 2.216 0 4 -1.784 4 -4 l 0 -0.25 c 0 2.216 -1.784 4 -4 4 l -38 0 c -2.216 0 -4 -1.784 -4 -4 z"
       style="opacity:0.05"
       id="path15" />
    <path
       d="m 1,43 0,0.25 c 0,2.216 1.784,4 4,4 l 38,0 c 2.216,0 4,-1.784 4,-4 L 47,43 c 0,2.216 -1.784,4 -4,4 L 5,47 C 2.784,47 1,45.216 1,43 z"
       style="opacity:0.1"
       id="path17" />
  </g>
  <rect
     transform="matrix(0,-1,1,0,0,0)"
     rx="4"
     y="1"
     x="-47"
     height="46"
     width="46"
     style="fill:url(#linearGradient4197);fill-opacity:1.0"
     id="rect19" />
  <g
     id="g21">
    <g
       transform="translate(0,-1004.3622)"
       id="g23">
      <path
         d="m 1 1043.36 0 4 c 0 2.216 1.784 4 4 4 l 38 0 c 2.216 0 4 -1.784 4 -4 l 0 -4 c 0 2.216 -1.784 4 -4 4 l -38 0 c -2.216 0 -4 -1.784 -4 -4 z"
         style="opacity:0.1"
         id="path25" />
    </g>
  </g>
  <path
     inkscape:connector-curvature="0"
     d="m 12.813018,15 c -0.441,0.051 -0.815,0.465 -0.812,0.938 l 0,17.09 c 0,0.5 0.434,0.969 0.906,0.969 l 22.09,0 c 0.473,0 1,-0.5 1,-1 l 0,-15 c 0,-0.5 -0.527,-1 -1,-1 l -9,0 0,-1 c 0,-0.648 -0.449,-1 -1,-1 z"
     style="opacity:0.1;fill:#000000;fill-opacity:1;fill-rule:nonzero;stroke:none"
     id="path27" />
  <path
     inkscape:connector-curvature="0"
     style="opacity:1;fill:#9add9c;fill-opacity:1;fill-rule:nonzero;stroke:none;stroke-width:2.5;stroke-linejoin:round;stroke-miterlimit:4;stroke-dasharray:none;stroke-opacity:1"
     d="m 16.000018,14 0,18.998047 5,0 0,-18.998047 -5,0 z"
     id="rect3415-6-0" />
  <path
     inkscape:connector-curvature="0"
     style="opacity:1;fill:#9ab9dd;fill-opacity:1;fill-rule:nonzero;stroke:none;stroke-width:2.5;stroke-linejoin:round;stroke-miterlimit:4;stroke-dasharray:none;stroke-opacity:1"
     d="m 12.812518,14 c -0.441,0.051 -0.8155,0.49575 -0.8125,0.96875 l 0,17.060547 c 0,0.5 0.43425,0.96875 0.90625,0.96875 l 3.09375,0 0,-18.998047 -3.1875,0 z"
     id="rect3413-8-1" />
  <path
     inkscape:connector-curvature="0"
     style="opacity:1;fill:#edb968;fill-opacity:1;fill-rule:nonzero;stroke:none;stroke-width:2.5;stroke-linejoin:round;stroke-miterlimit:4;stroke-dasharray:none;stroke-opacity:1"
     d="m 27.000018,16.029297 0,16.96875 5,0 0,-16.96875 -5,0 z"
     id="rect3417-3-7" />
  <path
     inkscape:connector-curvature="0"
     style="opacity:1;fill:#ed8e68;fill-opacity:1;fill-rule:nonzero;stroke:none;stroke-width:2.5;stroke-linejoin:round;stroke-miterlimit:4;stroke-dasharray:none;stroke-opacity:1"
     d="m 32.000018,16.029297 0,16.96875 2.996094,0 c 0.473,0 1,-0.5 1,-1 l 0,-14.96875 c 0,-0.5 -0.527,-1 -1,-1 l -2.996094,0 z"
     id="rect3419-9-7" />
  <path
     inkscape:connector-curvature="0"
     style="opacity:1;fill:#f3f284;fill-opacity:1;fill-rule:nonzero;stroke:none;stroke-width:2.5;stroke-linejoin:round;stroke-miterlimit:4;stroke-dasharray:none;stroke-opacity:1"
     d="m 21.000018,14 0,18.998047 6,0 0,-16.96875 -1.003906,0 0,-1.03125 c 0,-0.642123 -0.442981,-0.992768 -0.988282,-0.998047 l -4.007812,0 z"
     id="rect3421-4-9" />
</svg>
