<?xml version="1.0" encoding="UTF-8"?>
<svg version="1.1" viewBox="0 0 48 48" xmlns="http://www.w3.org/2000/svg" xmlns:xlink="http://www.w3.org/1999/xlink">
 <defs>
  <linearGradient id="linearGradient10815" x1="-47" x2="-1" y1="24" y2="24" gradientTransform="rotate(-90,25.571,1.9941)" gradientUnits="userSpaceOnUse">
   <stop stop-color="#b24432" offset="0"/>
   <stop stop-color="#c24936" offset="1"/>
  </linearGradient>
 </defs>
 <path d="m1 43v0.25c0 2.216 1.784 4 4 4h38c2.216 0 4-1.784 4-4v-0.25c0 2.216-1.784 4-4 4h-38c-2.216 0-4-1.784-4-4zm0 0.5v0.5c0 2.216 1.784 4 4 4h38c2.216 0 4-1.784 4-4v-0.5c0 2.216-1.784 4-4 4h-38c-2.216 0-4-1.784-4-4z" opacity=".02"/>
 <path d="m1 43.25v0.25c0 2.216 1.784 4 4 4h38c2.216 0 4-1.784 4-4v-0.25c0 2.216-1.784 4-4 4h-38c-2.216 0-4-1.784-4-4z" opacity=".05"/>
 <path d="m1 43v0.25c0 2.216 1.784 4 4 4h38c2.216 0 4-1.784 4-4v-0.25c0 2.216-1.784 4-4 4h-38c-2.216 0-4-1.784-4-4z" opacity=".1"/>
 <rect transform="rotate(-90)" x="-47" y="1" width="46" height="46" rx="4" fill="url(#linearGradient10815)"/>
 <g transform="translate(0 -1004.4)">
  <path d="m1 1043.4v4c0 2.216 1.784 4 4 4h38c2.216 0 4-1.784 4-4v-4c0 2.216-1.784 4-4 4h-38c-2.216 0-4-1.784-4-4z" opacity=".1"/>
 </g>
 <path d="m24.998 15-12.186 2e-3c-0.44107 0.051-0.81563 0.49575-0.81263 0.96875v17.06c0 0.5 0.43432 0.96875 0.9064 0.96875h22.093c0.47308 0 1.0002-0.5 1.0002-1v-14.969c0-0.5-0.52708-1-1.0002-1h-9.0015v-1.0312c0-0.647-0.44907-1-1.0002-1zm3.2017 4.9805c0.09552 0 0.19314 0.0078 0.28716 0.03125 2e-3 4e-3 0.01363-6e-3 0.01563 0 0.59812 0.56402 1.08 1.2402 1.4241 1.9902 4e-3 8e-3 -4e-3 0.0213 0 0.0293 0.08601 0.24801 0.18546 0.51552 0.27348 0.83203 0.04851 0.17601 0.11516 0.36894 0.18167 0.56445 0.07401 0.38302 0.12111 0.78298 0.12111 1.1875 0 3.5251-2.922 7.3652-6.5167 7.3652-3.3722 0-6.1453-3.4822-6.4893-6.6953 0.09402-0.043 1.8909-2.1952 5.4892-0.57812 4.3719 1.9631 6.3039 2e-6 6.4854-0.83203 0.18354-0.83203-0.06059-2.377-0.78724-2.377-0.72615 0-1.6349 0.35729-1.5139-0.59375 0.07651-0.59802 0.55082-0.91188 1.0314-0.92188zm-1.9847 0.71484c0.14253 0 0.25785 0.1134 0.25785 0.25391 0 0.1385-0.11482 0.25195-0.25785 0.25195-0.14253 0-0.25786-0.11345-0.25786-0.25195 0-0.14051 0.11483-0.25391 0.25786-0.25391zm0.62315 1.1895c0.19904 0 0.36334 0.15996 0.36334 0.35547 0 0.19751-0.1638 0.35742-0.36334 0.35742-0.20104 0-0.36529-0.15992-0.36529-0.35742 0-0.19551 0.16425-0.35547 0.36529-0.35547z" opacity=".1"/>
 <path d="m24.998 14-12.186 2e-3c-0.44107 0.051-0.81563 0.49575-0.81263 0.96875v17.06c0 0.5 0.43432 0.96875 0.9064 0.96875h22.093c0.47308 0 1.0002-0.5 1.0002-1v-14.969c0-0.5-0.52708-1-1.0002-1h-9.0015v-1.0312c0-0.647-0.44907-1-1.0002-1zm3.2017 4.9805c0.09552 0 0.19314 0.0078 0.28716 0.03125 2e-3 4e-3 0.01362-6e-3 0.01563 0 0.59812 0.56402 1.08 1.2402 1.4241 1.9902 4e-3 8e-3 -4e-3 0.0213 0 0.0293 0.08601 0.24801 0.18546 0.51552 0.27348 0.83203 0.04851 0.17601 0.11516 0.36894 0.18167 0.56445 0.07401 0.38302 0.12111 0.78298 0.12111 1.1875 0 3.5251-2.922 7.3652-6.5167 7.3652-3.3722 0-6.1453-3.4822-6.4893-6.6953 0.09401-0.043 1.8909-2.1952 5.4892-0.57812 4.3719 1.9631 6.3039 2e-6 6.4854-0.83203 0.18354-0.83203-0.06059-2.377-0.78724-2.377-0.72615 0-1.6349 0.35729-1.5139-0.59375 0.07651-0.59802 0.55082-0.91188 1.0314-0.92188zm-1.9847 0.71484c0.14253 0 0.25785 0.1134 0.25785 0.25391 0 0.1385-0.11482 0.25195-0.25785 0.25195-0.14253 0-0.25786-0.11345-0.25786-0.25195 0-0.14051 0.11483-0.25391 0.25786-0.25391zm0.62315 1.1895c0.19904 0 0.36334 0.15996 0.36334 0.35547 0 0.19751-0.1638 0.35742-0.36334 0.35742-0.20104 0-0.36529-0.15992-0.36529-0.35742 0-0.19551 0.16425-0.35547 0.36529-0.35547z" fill="#ececec"/>
</svg>
