<?xml version="1.0" encoding="UTF-8" standalone="no"?>
<svg
   xmlns:dc="http://purl.org/dc/elements/1.1/"
   xmlns:cc="http://creativecommons.org/ns#"
   xmlns:rdf="http://www.w3.org/1999/02/22-rdf-syntax-ns#"
   xmlns:svg="http://www.w3.org/2000/svg"
   xmlns="http://www.w3.org/2000/svg"
   xmlns:sodipodi="http://sodipodi.sourceforge.net/DTD/sodipodi-0.dtd"
   xmlns:inkscape="http://www.inkscape.org/namespaces/inkscape"
   width="48"
   height="48"
   viewBox="0 0 48 48"
   id="svg2"
   version="1.1"
   inkscape:version="0.48.5 r10040"
   sodipodi:docname="document-open-recent.svg">
  <metadata
     id="metadata16">
    <rdf:RDF>
      <cc:Work
         rdf:about="">
        <dc:format>image/svg+xml</dc:format>
        <dc:type
           rdf:resource="http://purl.org/dc/dcmitype/StillImage" />
      </cc:Work>
    </rdf:RDF>
  </metadata>
  <defs
     id="defs14" />
  <sodipodi:namedview
     pagecolor="#ffffff"
     bordercolor="#666666"
     borderopacity="1"
     objecttolerance="10"
     gridtolerance="10"
     guidetolerance="10"
     inkscape:pageopacity="0"
     inkscape:pageshadow="2"
     inkscape:window-width="640"
     inkscape:window-height="480"
     id="namedview12"
     showgrid="false"
     inkscape:zoom="4.9166667"
     inkscape:cx="24"
     inkscape:cy="24"
     inkscape:window-x="0"
     inkscape:window-y="0"
     inkscape:window-maximized="0"
     inkscape:current-layer="svg2" />
  <path
     style="font-size:medium;font-style:normal;font-variant:normal;font-weight:normal;font-stretch:normal;text-indent:0;text-align:start;text-decoration:none;line-height:normal;letter-spacing:normal;word-spacing:normal;text-transform:none;direction:ltr;block-progression:tb;writing-mode:lr-tb;text-anchor:start;baseline-shift:baseline;color:#000000;fill:#42a5f5;fill-opacity:1;fill-rule:nonzero;stroke:none;stroke-width:1;marker:none;visibility:visible;display:inline;overflow:visible;enable-background:accumulate;font-family:Sans;-inkscape-font-specification:Sans"
     d="m 6.000046,6.0000001 c -1,0 -2,1 -2,2 L 4.0000232,16 l -1,0 c -1,0 -2.00556906,0.949207 -2.0000002,2 l 2.29e-5,22 c 1.28e-4,1.120734 1.0377631,1.9999 2.1875001,2 l 41.625,0 c 1.1875,0 2.1875,-1 2.1875,-2 l -2.3e-5,-19 c 0,-1 -1,-2 -2,-2 l -2,0 2.3e-5,-10.9999999 c 2e-6,-1 -1,-2 -2,-2 z"
     id="path3770"
     inkscape:connector-curvature="0"
     sodipodi:nodetypes="sscsccccccccsss" />
  <path
     inkscape:connector-curvature="0"
     style="font-size:medium;font-style:normal;font-variant:normal;font-weight:normal;font-stretch:normal;text-indent:0;text-align:start;text-decoration:none;line-height:normal;letter-spacing:normal;word-spacing:normal;text-transform:none;direction:ltr;block-progression:tb;writing-mode:lr-tb;text-anchor:start;baseline-shift:baseline;color:#000000;fill:#000000;fill-opacity:0.32156863;fill-rule:nonzero;stroke:none;stroke-width:1;marker:none;visibility:visible;display:inline;overflow:visible;enable-background:accumulate;font-family:Sans;-inkscape-font-specification:Sans"
     d="m 6.000046,6.0000001 c -1,0 -2,1 -2,2 L 4.0000232,16 l -1,0 c -1,0 -2.00556906,0.949207 -2.0000002,2 l 2.29e-5,22 c 1.28e-4,1.120734 1.0377631,1.9999 2.1875001,2 l 41.625,0 c 1.1875,0 2.187501,-1 2.1875,-2 l -2.3e-5,-19 c -10e-7,-1 -1.000018,-1.994118 -2,-2 l -2,0 2.3e-5,-10.9999999 c 2e-6,-1 -1,-2 -2,-2 z M 3.0000232,17 27.000023,17 c 0.507314,0 1.072479,0.499387 1,1 l 0,2 17,0 c 0.540858,0 0.999999,0.471809 1,1 l 2.3e-5,19 c 1e-6,0.553755 -0.452115,1 -1,1 l -42,0 c -0.5127258,0 -0.9999994,-0.446246 -1,-1 l -2.28e-5,-22 c -6e-7,-0.543318 0.4790423,-1 1,-1 z"
     id="path3779"
     sodipodi:nodetypes="sscscccsssscsssssscssssssss" />
  <path
     style="fill:#859900;fill-rule:evenodd"
     d="M 43.523438 34.339844 C 43.59375 37.835938 41.75 41.097656 38.699219 42.867188 C 35.652344 44.636719 31.875 44.636719 28.824219 42.867188 C 25.773438 41.097656 23.929688 37.835938 24.003906 34.339844 C 23.929688 30.839844 25.773438 27.578125 28.824219 25.808594 C 31.875 24.039062 35.652344 24.039062 38.699219 25.808594 C 41.75 27.578125 43.59375 30.839844 43.523438 34.339844 Z "
     id="path8" />
  <path
     style="fill:#fff"
     d="M 39.101562 28.140625 C 38.894531 28.214844 38.71875 28.355469 38.601562 28.539062 L 33.28125 33.738281 L 29.960938 30.539062 C 29.828125 30.097656 29.410156 29.800781 28.945312 29.824219 C 28.484375 29.851562 28.101562 30.191406 28.015625 30.644531 C 27.933594 31.101562 28.175781 31.554688 28.601562 31.738281 L 32.601562 35.738281 C 32.984375 36.097656 33.578125 36.097656 33.960938 35.738281 L 39.960938 29.738281 C 40.195312 29.429688 40.226562 29.007812 40.042969 28.664062 C 39.859375 28.320312 39.488281 28.117188 39.101562 28.140625 Z "
     id="path10" />
</svg>
