<?xml version="1.0" encoding="UTF-8" standalone="no"?>
<svg
   xmlns:dc="http://purl.org/dc/elements/1.1/"
   xmlns:cc="http://creativecommons.org/ns#"
   xmlns:rdf="http://www.w3.org/1999/02/22-rdf-syntax-ns#"
   xmlns:svg="http://www.w3.org/2000/svg"
   xmlns="http://www.w3.org/2000/svg"
   xmlns:sodipodi="http://sodipodi.sourceforge.net/DTD/sodipodi-0.dtd"
   xmlns:inkscape="http://www.inkscape.org/namespaces/inkscape"
   width="48"
   height="48"
   viewBox="0 0 48 48"
   id="svg2"
   version="1.1"
   inkscape:version="0.91 r"
   sodipodi:docname="blue-document-open-recent.svg">
  <metadata
     id="metadata16">
    <rdf:RDF>
      <cc:Work
         rdf:about="">
        <dc:format>image/svg+xml</dc:format>
        <dc:type
           rdf:resource="http://purl.org/dc/dcmitype/StillImage" />
      </cc:Work>
    </rdf:RDF>
  </metadata>
  <defs
     id="defs14" />
  <sodipodi:namedview
     pagecolor="#ffffff"
     bordercolor="#666666"
     borderopacity="1"
     objecttolerance="10"
     gridtolerance="10"
     guidetolerance="10"
     inkscape:pageopacity="0"
     inkscape:pageshadow="2"
     inkscape:window-width="1366"
     inkscape:window-height="747"
     id="namedview12"
     showgrid="false"
     inkscape:zoom="9.8333333"
     inkscape:cx="30.694827"
     inkscape:cy="28.180574"
     inkscape:window-x="0"
     inkscape:window-y="21"
     inkscape:window-maximized="1"
     inkscape:current-layer="svg2" />
  <g
     id="g4151">
    <path
       sodipodi:nodetypes="sscsccccccccsss"
       inkscape:connector-curvature="0"
       id="path3770-4"
       d="m 6.000022,6.0000004 c -1,0 -2,1 -2,2 L 4.000023,18 l -1,0 c -1,0 -2.00556897,0.949207 -2,2 l -1e-6,20 c 1.28e-4,1.120734 1.037763,1.9999 2.1875,2 l 41.625001,0 c 1.1875,0 2.1875,-1 2.1875,-2 l 0,-17 c 0,-1 -1,-2 -2,-2 l -2,0 0,-12.9999996 c 0,-1 -1,-2 -2,-2 z"
       style="color:#000000;font-style:normal;font-variant:normal;font-weight:normal;font-stretch:normal;font-size:medium;line-height:normal;font-family:Sans;-inkscape-font-specification:Sans;text-indent:0;text-align:start;text-decoration:none;text-decoration-line:none;letter-spacing:normal;word-spacing:normal;text-transform:none;direction:ltr;block-progression:tb;writing-mode:lr-tb;baseline-shift:baseline;text-anchor:start;display:inline;overflow:visible;visibility:visible;fill:#42a5f5;fill-opacity:1;fill-rule:nonzero;stroke:none;stroke-width:1;marker:none;enable-background:accumulate" />
    <path
       sodipodi:nodetypes="sscscccsssscsssssscssssssss"
       id="path3779-9"
       d="m 6.000022,6.0000004 c -1,0 -2,1 -2,2 L 4.000023,18 l -1,0 c -1,0 -2.00556897,0.949207 -2,2 l -1e-6,20 c 1.28e-4,1.120734 1.037763,1.9999 2.1875,2 l 41.625001,0 c 1.1875,0 2.1875,-1 2.1875,-2 l 0,-17 c 0,-1 -1,-2 -2,-2 l -2,0 0,-12.9999996 c 0,-1 -1,-2 -2,-2 z M 3.000023,19 l 24,0 c 0.507314,0 1,0.494167 1,1 l 0,2 17,0 c 0.540858,0 1,0.471809 1,1 l 0,17 c 0,0.553755 -0.452115,1 -1,1 L 3.000022,41 c -0.512725,0 -1,-0.446246 -1,-1 l 1e-6,-20 c 0,-0.543318 0.479042,-1 1,-1 z"
       style="color:#000000;font-style:normal;font-variant:normal;font-weight:normal;font-stretch:normal;font-size:medium;line-height:normal;font-family:Sans;-inkscape-font-specification:Sans;text-indent:0;text-align:start;text-decoration:none;text-decoration-line:none;letter-spacing:normal;word-spacing:normal;text-transform:none;direction:ltr;block-progression:tb;writing-mode:lr-tb;baseline-shift:baseline;text-anchor:start;display:inline;overflow:visible;visibility:visible;fill:#000000;fill-opacity:0.32156863;fill-rule:nonzero;stroke:none;stroke-width:1;marker:none;enable-background:accumulate"
       inkscape:connector-curvature="0" />
    <g
       id="g6"
       transform="matrix(1,0,0,0.28570929,-1.42373,7.4758984)">
      <rect
         id="rect8"
         style="fill:#ffffff"
         height="28"
         y="8.835"
         x="11.424"
         width="28" />
    </g>
    <path
       id="rect12"
       d="m 13.00027,13 22,0 0,2 -22,0 z"
       style="fill:#cccccc"
       inkscape:connector-curvature="0" />
    <rect
       width="22"
       x="13"
       y="17"
       height="1"
       id="rect14"
       style="fill:#cccccc" />
    <path
       id="rect3018"
       d="m 29,18 9,0 0,3 -9,0 z"
       style="fill:#ffffff;fill-opacity:1;fill-rule:evenodd;stroke:none"
       inkscape:connector-curvature="0" />
    <path
       sodipodi:nodetypes="cccc"
       inkscape:connector-curvature="0"
       id="path3021"
       d="m 29,20 c 0,-0.998467 -1,-2 -2,-2 l 2,0 z"
       style="fill:#ffffff;fill-opacity:1;stroke:none" />
    <path
       id="rect3797"
       d="m 29,18 6.000001,0 0,0.999999 -6.000001,0 z"
       style="fill:#cccccc;fill-opacity:1;fill-rule:evenodd;stroke:none"
       inkscape:connector-curvature="0" />
    <path
       id="rect3799"
       d="m 27,18 c 0.647293,0 1.280165,0.433194 1.65625,1 L 29,19 l 0,-1 -2,0 z"
       style="fill:#cccccc;fill-opacity:1;fill-rule:evenodd;stroke:none"
       inkscape:connector-curvature="0" />
  </g>
  <path
     style="fill:#859900;fill-rule:evenodd"
     d="M 43.523438 34.339844 C 43.59375 37.835938 41.75 41.097656 38.699219 42.867188 C 35.652344 44.636719 31.875 44.636719 28.824219 42.867188 C 25.773438 41.097656 23.929688 37.835938 24.003906 34.339844 C 23.929688 30.839844 25.773438 27.578125 28.824219 25.808594 C 31.875 24.039062 35.652344 24.039062 38.699219 25.808594 C 41.75 27.578125 43.59375 30.839844 43.523438 34.339844 Z "
     id="path8" />
  <path
     style="fill:#fff"
     d="M 39.101562 28.140625 C 38.894531 28.214844 38.71875 28.355469 38.601562 28.539062 L 33.28125 33.738281 L 29.960938 30.539062 C 29.828125 30.097656 29.410156 29.800781 28.945312 29.824219 C 28.484375 29.851562 28.101562 30.191406 28.015625 30.644531 C 27.933594 31.101562 28.175781 31.554688 28.601562 31.738281 L 32.601562 35.738281 C 32.984375 36.097656 33.578125 36.097656 33.960938 35.738281 L 39.960938 29.738281 C 40.195312 29.429688 40.226562 29.007812 40.042969 28.664062 C 39.859375 28.320312 39.488281 28.117188 39.101562 28.140625 Z "
     id="path10" />
</svg>
