<svg xmlns="http://www.w3.org/2000/svg" width="256" height="256" viewBox="0 0 204.8 204.8">
 <g transform="scale(0.8,0.8)">
  <path d="m 24.25 40 c -4.52 0.445 -8.324 4.711 -8.25 9.25 l 0 157.5 c -0.055 4.859 4.391 9.305 9.25 9.25 l 205.5 0 c 4.859 0.055 9.305 -4.391 9.25 -9.25 l 0 -141.5 c 0.055 -4.859 -4.391 -9.305 -9.25 -9.25 l -78.75 0 0 -6.75 c 0.055 -4.773 -4.227 -9.176 -9 -9.25 l -117.75 0 c -0.332 0 -0.668 0 -1 0 z m 97.75 48 6 0 c 26.473 0 48 21.527 48 48 0 26.473 -21.531 48 -54 48 -20.473 0 -42 -21.527 -42 -48 0 -26.473 21.527 -48 42 -48 z m 9.875 6.75 c -0.027 0.211 0.023 0.266 0 0.5 -0.43 4.07 -2.52 1.316 -3.375 1.75 -0.855 0.43 -6.625 8.355 -6.625 7.5 0 -0.859 1 -2.125 1 -2.125 0 0 0.434 -3.621 -0.25 -7.5 -1.863 0.242 -3.848 0.645 -5.625 1.125 l -5.5 9.125 c 0.48 0.07 1.01 0.273 1.625 0.625 3 1.715 4.27 3.164 5.125 3.375 0.855 0.215 4.785 -5.16 2 0.625 -2.785 5.785 -4.16 7.715 -7.375 9 -0.199 0.059 -0.426 0.027 -0.625 0.125 -0.82 0.984 -1.859 2.141 -3.25 3.375 -3.03 2.703 -4.5 2.926 -4.5 5.625 0 2.699 -0.004 4.773 -2.125 8.375 -2.121 3.602 -3.66 3.672 -2.75 6.375 0.91 2.699 1.516 7.477 0 5.375 -1.516 -2.098 -0.914 -6.273 -2.125 -3.875 -1.063 2.102 -3.559 2.969 -3.75 5.125 -0.027 0.297 -0.074 0.496 0 0.875 0.016 0.059 0.23 0.027 0.25 0.125 0.777 2.598 5 -1.051 5 1 0 2.098 -3.66 2.199 -2.75 4 0.91 1.797 4.219 -3.645 7.25 -2.75 3.03 0.898 1.273 1.551 4 2.75 2.727 1.199 4.125 2.324 4.125 4.125 0 1.801 8.535 0.875 7.625 3.875 -0.91 3 -1.773 2.449 -4.5 5.75 -1.504 1.82 -2.617 2.875 -3.5 3.75 1.234 0.906 1.305 1.355 2.75 0.875 1.93 -0.641 -0.375 -1.52 1.125 -2.375 0.375 -0.215 0.527 -0.438 0.75 -0.625 0.223 -0.18 0.418 -0.238 0.875 -0.375 0.91 -0.27 2.695 -0.5 6.875 -0.5 8.355 0 12.5 0.5 12.5 0.5 0 0 2.695 -0.254 0.125 1.25 -1.879 1.094 -5.645 3.102 -6.125 3.625 0.188 -0.019 0.52 0.012 1 -0.125 3.855 -1.07 9.125 -1.941 10.625 -2.375 0.637 -0.18 4 -1.879 6.75 -3.125 0.113 -0.258 0.262 -0.488 0.375 -0.75 l -0.125 0 c -2.121 -0.906 -3.98 -5.164 -3.375 -6.375 0.605 -1.211 2.109 -2.219 3.625 -5.25 1.516 -3.03 1.242 -0.797 -3 -6.25 -4.242 -5.457 -6.379 0.316 -8.5 -1.5 -2.121 -1.82 -6.684 -3.418 -8.5 -6.75 -1.816 -3.336 -0.875 -0.863 -0.875 -4.5 0 -3.645 -0.285 -0.844 0.625 -3.875 0.91 -3.03 3.219 -3.504 6.25 -5.625 0.418 -0.301 0.953 -0.414 1.375 -0.625 -0.68 -0.645 -1.48 -1.98 -3.375 -3.875 0 0 1.734 -3.895 3.25 -4.5 1.469 -0.578 2.383 -0.195 4.375 0.375 0.086 -0.324 0.031 -0.508 0.125 -1.25 0.305 -2.426 -0.875 -0.984 -0.875 -2.5 0 -1.516 0.754 -0.019 2.875 -0.625 2.121 -0.605 2 -4.855 4.125 -4.25 2.121 0.605 2.059 -0.898 3.875 -3.625 1.816 -2.73 0.051 -1.164 -2.375 -2.375 -2.426 -1.211 -0.27 1.754 -0.875 3.875 -0.605 2.121 -2.379 1.043 -4.5 -3.5 -2.121 -4.547 -0.336 -2.863 0.875 -6.5 0.211 -0.637 0.445 -0.996 0.75 -1.375 -3.941 -1.715 -8.277 -2.711 -12.75 -3.125 z m 7.625 16.13 c 0.176 -0.031 0.348 0.078 0.5 0.125 0.922 0.141 1.672 0.969 2.125 1.875 0.242 0.496 -0.094 0.633 -0.375 0.75 0 0 0.5 1.074 0.5 1.375 0 0.301 -0.684 0.254 -2.125 -0.125 -1.078 -0.281 -0.23 -0.586 0.5 -1.125 l -1.375 0 c -0.531 0 -0.746 -0.027 -0.875 -0.125 0.082 0.063 -0.008 -0.031 0.125 0.125 0.684 0.836 -0.016 0.281 -1 0.5 -0.984 0.227 -0.078 -0.535 0.375 -1.375 0 0 0.387 0.309 0.5 0.5 0.188 -0.418 0.625 -1.188 0.625 -2.25 0.188 -0.078 0.324 -0.219 0.5 -0.25 z m 23.5 2.625 c -1.516 1.125 -3.531 3.656 -5.125 5.25 -2.727 2.723 1.484 2.941 3 3.25 1.516 0.305 2.969 -0.5 6 -0.5 -0.055 -0.141 -0.07 -0.355 -0.125 -0.5 -0.41 0.047 -0.879 0.125 -1.375 0.125 -1.777 0 -0.793 -1.578 -0.375 -4 -0.633 -1.238 -1.25 -2.461 -2 -3.625 z m -19.5 5.5 c -0.578 0.156 -1.258 0.75 -2.125 1.25 0.82 1.195 -1.676 4.488 -3 6.875 -0.055 0.059 -0.074 0.027 -0.125 0.125 2.598 -0.434 6.434 0.359 15.5 2.625 0 0 3.52 -0.961 4.125 0.25 0.215 0.422 1.238 0.652 2.625 0.75 3.664 -1.441 1.875 -2.578 1.875 -5.5 0 -3.03 -4.48 0.266 -3.875 -1.25 0.605 -1.516 -0.754 -1.504 -2.875 -3.625 -2.121 -2.121 -1.859 5.512 -3.375 4 -1.516 -1.5 -1.395 -0.289 -2 -1.5 -0.605 -1.211 -2.75 -3.375 -2.75 -3.375 0 0 1.555 1.844 1.25 4.875 -0.305 3.03 -4.5 0.25 -4.5 0.25 0 0 0.539 -0.324 1.75 -0.625 1.211 -0.305 -0.34 -2 -1.25 -4.125 -0.227 -0.516 -0.473 -0.906 -0.75 -1 -0.16 -0.047 -0.309 -0.051 -0.5 0 z m 26 15.25 c -0.336 0.242 -0.707 0.344 -1.125 0.5 -3.332 1.211 -5.75 4 -5.75 4 0 0 3.898 -0.051 6.625 2.375 0.199 -1.652 0.25 -3.418 0.25 -5.125 0 -0.613 0.027 -1.145 0 -1.75 z m 0 0" style="fill:#c4905e;fill-opacity:1;stroke:none;fill-rule:nonzero"/>
 </g>
</svg>
