<svg xmlns="http://www.w3.org/2000/svg" viewBox="0 0 256 256">
 <g transform="translate(0,-796.3622)">
  <path d="m 24.25 836.36 c -4.518 0.444 -8.324 4.711 -8.25 9.25 l 0 157.5 c -0.056 4.858 4.392 9.306 9.25 9.25 l 205.5 0 c 4.858 0.056 9.306 -4.392 9.25 -9.25 l 0 -141.5 c 0.056 -4.858 -4.392 -9.306 -9.25 -9.25 l -78.75 0 0 -6.75 c 0.055 -4.775 -4.225 -9.174 -9 -9.25 l -117.75 0 c -0.333 0 -0.667 0 -1 0 z m 71.75 48 64 0 c 5.698 0 8 2.682 8 8 l 0 79.999 c 0 5.318 -4.552 8 -10.25 8 l -61.75 0 c -5.698 0 -8 -2.682 -8 -8 l 0 -79.999 c 0 -5.318 2.302 -8 8 -8 z m 6 8 c -3.314 0 -6 2.686 -6 6 0 3.314 2.686 6 6 6 3.314 0 6 -2.686 6 -6 0 -3.314 -2.686 -6 -6 -6 z m 52 0 c -3.314 0 -6 2.686 -6 6 0 3.314 2.686 6 6 6 3.314 0 6 -2.686 6 -6 0 -3.314 -2.686 -6 -6 -6 z m -26 8 c -8.836 0 -16 7.163 -16 16 0 8.837 7.163 16 16 16 8.836 0 16 -7.163 16 -16 0 -8.837 -7.163 -16 -16 -16 z m 0 8 c 4.418 0 8 3.582 8 8 0 4.418 -3.582 8 -8 8 -4.418 0 -8 -3.582 -8 -8 0 -4.418 3.582 -8 8 -8 z m -26 20 c -3.314 0 -6 2.686 -6 6 0 3.314 2.686 6 6 6 3.314 0 6 -2.686 6 -6 0 -3.314 -2.686 -6 -6 -6 z m 52 0 c -3.314 0 -6 2.686 -6 6 0 3.314 2.686 6 6 6 3.314 0 6 -2.686 6 -6 0 -3.314 -2.686 -6 -6 -6 z m -54 36 c -2.216 0 -4 1.784 -4 4 0 2.216 1.784 4 4 4 l 56 0 c 2.216 0 4 -1.784 4 -4 0 -2.216 -1.784 -4 -4 -4 l -56 0 z" style="visibility:visible;fill:#66bb6a;fill-opacity:1;stroke:none;display:inline;color:#000;fill-rule:nonzero"/>
 </g>
</svg>
