<!-- Created with Inkscape (http://www.inkscape.org/) -->
<svg xmlns="http://www.w3.org/2000/svg" viewBox="0 0 256 256">
 <g transform="translate(0,-796.3622)">
  <path d="m 24.25 836.36 c -4.518 0.444 -8.324 4.711 -8.25 9.25 l 0 157.5 c -0.056 4.858 4.392 9.306 9.25 9.25 l 205.5 0 c 4.858 0.056 9.306 -4.392 9.25 -9.25 l 0 -141.5 c 0.056 -4.858 -4.392 -9.306 -9.25 -9.25 l -78.75 0 0 -6.75 c 0.055 -4.775 -4.225 -9.174 -9 -9.25 l -117.75 0 c -0.333 0 -0.667 0 -1 0 z m 90.5 52 31.375 0 31.5 56 -31.5 0 -31.375 -56 z m -5.125 5 13.875 26.375 -30.5 53.37 -14.625 -29.25 31.25 -50.5 z m 4.375 59 63.62 0 -16 24 -63.5 0 15.875 -24 z" style="visibility:visible;fill:#66bb6a;fill-opacity:1;stroke:none;display:inline;color:#000;fill-rule:nonzero"/>
 </g>
</svg>
