<?xml version="1.0" encoding="UTF-8" standalone="no"?>
<svg
   xmlns:dc="http://purl.org/dc/elements/1.1/"
   xmlns:cc="http://creativecommons.org/ns#"
   xmlns:rdf="http://www.w3.org/1999/02/22-rdf-syntax-ns#"
   xmlns:svg="http://www.w3.org/2000/svg"
   xmlns="http://www.w3.org/2000/svg"
   xmlns:sodipodi="http://sodipodi.sourceforge.net/DTD/sodipodi-0.dtd"
   xmlns:inkscape="http://www.inkscape.org/namespaces/inkscape"
   width="256"
   height="256"
   viewBox="0 0 204.8 204.8"
   version="1.1"
   id="svg3138"
   inkscape:version="0.91 r"
   sodipodi:docname="grey-folder-system.svg">
  <metadata
     id="metadata3147">
    <rdf:RDF>
      <cc:Work
         rdf:about="">
        <dc:format>image/svg+xml</dc:format>
        <dc:type
           rdf:resource="http://purl.org/dc/dcmitype/StillImage" />
      </cc:Work>
    </rdf:RDF>
  </metadata>
  <defs
     id="defs3145" />
  <sodipodi:namedview
     pagecolor="#ffffff"
     bordercolor="#666666"
     borderopacity="1"
     objecttolerance="10"
     gridtolerance="10"
     guidetolerance="10"
     inkscape:pageopacity="0"
     inkscape:pageshadow="2"
     inkscape:window-width="1280"
     inkscape:window-height="998"
     id="namedview3143"
     showgrid="true"
     inkscape:zoom="1"
     inkscape:cx="425.21614"
     inkscape:cy="120.83419"
     inkscape:window-x="0"
     inkscape:window-y="0"
     inkscape:window-maximized="1"
     inkscape:current-layer="svg3138">
    <inkscape:grid
       type="xygrid"
       id="grid3468"
       empspacing="5"
       visible="true"
       enabled="true"
       snapvisiblegridlinesonly="true" />
  </sodipodi:namedview>
  <g
     id="surface1"
     transform="scale(0.8,0.8)">
    <path
       inkscape:connector-curvature="0"
       style="fill:#bdbdbd;fill-opacity:1;fill-rule:nonzero;stroke:none"
       d="m 24.25,40 c -4.519531,0.445312 -8.324219,4.710938 -8.25,9.25 l 0,157.5 c -0.05469,4.85937 4.390625,9.30469 9.25,9.25 l 205.5,0 c 4.85937,0.0547 9.30469,-4.39063 9.25,-9.25 l 0,-141.5 c 0.0547,-4.859375 -4.39063,-9.304688 -9.25,-9.25 l -78.75,0 0,-6.75 c 0.0547,-4.773438 -4.22656,-9.175781 -9,-9.25 L 25.25,40 c -0.332031,0 -0.667969,0 -1,0 z m 96.25,48 15.125,0 c 2.66406,0 4.875,2.085938 4.875,4.75 l 0,6.25 c 1.71484,0.574219 3.39844,1.19922 5,2 l 4.25,-4.375 c 1.88281,-1.882812 4.86719,-1.882812 6.75,0 l 11,10.875 c 1.88281,1.88281 1.88281,4.86719 0,6.75 l -4.5,4.375 c 0.77734,1.57422 1.43359,3.19141 2,4.875 l 6.25,0 c 2.66406,0 4.75,2.21484 4.75,4.875 l 0,15.25 c 0,2.66406 -2.08594,4.875 -4.75,4.875 l -6.25,0 c -0.56641,1.68359 -1.22266,3.30078 -2,4.875 l 4.5,4.375 c 1.88281,1.88281 1.88281,4.86719 0,6.75 l -11,10.875 c -1.88281,1.88281 -4.86719,1.88281 -6.75,0 L 145.5,171 c -1.59766,0.79687 -3.28516,1.42578 -5,2 l 0,6.25 c 0,2.66406 -2.21094,4.75 -4.875,4.75 l -15.125,0 c -2.66406,0 -5,-2.08594 -5,-4.75 l 0,-6.25 c -1.68359,-0.56641 -3.30078,-1.21875 -4.875,-2 l -4.25,4.375 c -1.88281,1.88281 -4.99219,1.88281 -6.875,0 L 88.625,164.5 c -1.882812,-1.88281 -1.882812,-4.86719 0,-6.75 L 93,153.5 c -0.796875,-1.59766 -1.425781,-3.28516 -2,-5 l -6.125,0 C 82.210938,148.5 80,146.28906 80,143.625 l 0,-15.25 c 0,-2.66016 2.210938,-4.875 4.875,-4.875 l 6.125,0 c 0.574219,-1.71484 1.203125,-3.40234 2,-5 l -4.375,-4.25 c -1.882812,-1.88281 -1.882812,-4.86719 0,-6.75 L 99.5,96.625 c 1.88281,-1.882812 4.99219,-1.882812 6.875,0 l 4.25,4.375 c 1.57422,-0.77734 3.19141,-1.429688 4.875,-2 l 0,-6.25 c 0,-2.664062 2.33594,-4.75 5,-4.75 z m 7.5,35.5 c -6.87109,0 -12.5,5.62891 -12.5,12.5 0,6.86719 5.62891,12.5 12.5,12.5 6.87109,0 12.5,-5.63281 12.5,-12.5 0,-6.87109 -5.62891,-12.5 -12.5,-12.5 z m 0,0"
       id="path3141" />
  </g>
</svg>
