<svg xmlns="http://www.w3.org/2000/svg" width="256" height="256" viewBox="0 0 204.8 204.8">
 <g transform="scale(0.8,0.8)">
  <path d="m 24.25 40 c -4.52 0.445 -8.324 4.711 -8.25 9.25 l 0 157.5 c -0.055 4.859 4.391 9.305 9.25 9.25 l 205.5 0 c 4.859 0.055 9.305 -4.391 9.25 -9.25 l 0 -141.5 c 0.055 -4.859 -4.391 -9.305 -9.25 -9.25 l -78.75 0 0 -6.75 c 0.055 -4.773 -4.227 -9.176 -9 -9.25 l -117.75 0 c -0.332 0 -0.668 0 -1 0 z m 47.75 40 16.375 16.375 c 10.133 -10.156 24.14 -16.375 39.625 -16.375 c 30.93 0 56 25.07 56 56 0 30.93 -25.07 56 -56 56 -30.93 0 -56 -25.07 -56 -56 0 -1.344 0.031 -2.68 0.125 -4 l 12.13 0 c -0.117 1.32 -0.25 2.648 -0.25 4 0 24.301 19.699 44 44 44 24.301 0 44 -19.699 44 -44 0 -24.301 -19.699 -44 -44 -44 -12.148 0 -23.15 4.914 -31.12 12.875 l 15.13 15.13 -40 0 z m 55.25 19.75 c 2.293 -0.219 4.566 0.563 6.242 2.145 1.676 1.578 2.59 3.805 2.508 6.105 l 0 27.25 16.75 9.75 c 3.867 2.211 5.211 7.133 3 11 -2.211 3.867 -7.133 5.211 -11 3 l -19.75 -11.5 c -0.344 -0.145 -0.68 -0.309 -1 -0.5 -0.168 -0.078 -0.336 -0.16 -0.5 -0.25 -0.086 -0.082 -0.168 -0.164 -0.25 -0.25 -0.086 -0.082 -0.168 -0.164 -0.25 -0.25 -0.168 -0.078 -0.336 -0.16 -0.5 -0.25 -0.086 -0.082 -0.168 -0.164 -0.25 -0.25 -0.086 -0.082 -0.168 -0.164 -0.25 -0.25 -0.086 -0.082 -0.168 -0.164 -0.25 -0.25 -0.086 -0.082 -0.168 -0.164 -0.25 -0.25 -0.09 -0.164 -0.172 -0.332 -0.25 -0.5 -0.086 -0.082 -0.168 -0.164 -0.25 -0.25 -1.109 -1.789 -1.469 -3.945 -1 -6 -0.012 -0.25 -0.012 -0.5 0 -0.75 l 0 -29.5 c -0.094 -3.816 2.523 -7.164 6.25 -8 0.328 -0.105 0.66 -0.188 1 -0.25 z m 0 0" style="fill:#f57c00;fill-opacity:1;stroke:none;fill-rule:nonzero"/>
 </g>
</svg>
