<svg xmlns="http://www.w3.org/2000/svg" width="256" height="256" viewBox="0 0 204.8 204.8">
 <g transform="scale(0.8,0.8)">
  <path d="m 24.25 40 c -4.52 0.445 -8.324 4.711 -8.25 9.25 l 0 157.5 c -0.055 4.859 4.391 9.305 9.25 9.25 l 205.5 0 c 4.859 0.055 9.305 -4.391 9.25 -9.25 l 0 -141.5 c 0.055 -4.859 -4.391 -9.305 -9.25 -9.25 l -78.75 0 0 -6.75 c 0.055 -4.773 -4.227 -9.176 -9 -9.25 l -117.75 0 c -0.332 -0.02 -0.668 -0.02 -1 0 z m 63.75 40 l 80 0 c 8.863 0 16 7.137 16 16 l 0 80 c 0 8.863 -7.137 16 -16 16 l -80 0 c -8.863 0 -16 -7.137 -16 -16 l 0 -80 c 0 -8.863 7.137 -16 16 -16 z m 0 16 0 36 16 -20 26.25 29.375 l 17.75 -17.375 20 28.875 0 -56.875 z m 0 0" style="fill:#f57c00;fill-opacity:1;stroke:none;fill-rule:nonzero"/>
 </g>
</svg>
