<?xml version="1.0" encoding="UTF-8" standalone="no"?>
<!-- Created with Inkscape (http://www.inkscape.org/) -->

<svg
   xmlns:dc="http://purl.org/dc/elements/1.1/"
   xmlns:cc="http://creativecommons.org/ns#"
   xmlns:rdf="http://www.w3.org/1999/02/22-rdf-syntax-ns#"
   xmlns:svg="http://www.w3.org/2000/svg"
   xmlns="http://www.w3.org/2000/svg"
   xmlns:sodipodi="http://sodipodi.sourceforge.net/DTD/sodipodi-0.dtd"
   xmlns:inkscape="http://www.inkscape.org/namespaces/inkscape"
   width="256"
   height="256"
   id="svg2"
   version="1.1"
   inkscape:version="0.91 r"
   sodipodi:docname="orange-folder-vm.svg"
   inkscape:export-filename="/media/Data/Main/Visuals/Icons/Numix/Desktop/repos/numix-wiki/Gjorgi/Numix-folders/48/New/folder-144.png"
   inkscape:export-xdpi="270"
   inkscape:export-ydpi="270">
  <defs
     id="defs4" />
  <sodipodi:namedview
     id="base"
     pagecolor="#ffffff"
     bordercolor="#666666"
     borderopacity="1.0"
     inkscape:pageopacity="0.0"
     inkscape:pageshadow="2"
     inkscape:zoom="2.6377683"
     inkscape:cx="162.1785"
     inkscape:cy="115.15554"
     inkscape:document-units="px"
     inkscape:current-layer="layer1"
     showgrid="true"
     inkscape:window-width="1280"
     inkscape:window-height="998"
     inkscape:window-x="0"
     inkscape:window-y="0"
     inkscape:window-maximized="1"
     showguides="true"
     inkscape:guide-bbox="true">
    <inkscape:grid
       type="xygrid"
       id="grid2985"
       empspacing="5"
       visible="true"
       enabled="true"
       snapvisiblegridlinesonly="true" />
  </sodipodi:namedview>
  <metadata
     id="metadata7">
    <rdf:RDF>
      <cc:Work
         rdf:about="">
        <dc:format>image/svg+xml</dc:format>
        <dc:type
           rdf:resource="http://purl.org/dc/dcmitype/StillImage" />
        <dc:title />
      </cc:Work>
    </rdf:RDF>
  </metadata>
  <g
     inkscape:label="Layer 1"
     inkscape:groupmode="layer"
     id="layer1"
     transform="translate(0,-796.3622)">
    <path
       style="font-size:medium;font-style:normal;font-variant:normal;font-weight:normal;font-stretch:normal;text-indent:0;text-align:start;text-decoration:none;line-height:normal;letter-spacing:normal;word-spacing:normal;text-transform:none;direction:ltr;block-progression:tb;writing-mode:lr-tb;text-anchor:start;baseline-shift:baseline;color:#000000;fill:#f57c00;fill-opacity:1;fill-rule:nonzero;stroke:none;stroke-width:2.28612947;marker:none;visibility:visible;display:inline;overflow:visible;enable-background:accumulate;font-family:Sans;-inkscape-font-specification:Sans"
       d="m 24.250994,836.36277 c -4.517629,0.4436 -8.323592,4.71105 -8.249942,9.24994 l 0,157.49899 c -0.056,4.8583 4.391667,9.3055 9.249934,9.2499 l 205.498574,0 c 4.85827,0.056 9.3058,-4.3916 9.24992,-9.2499 l 0,-141.49911 c 0.056,-4.85837 -4.39165,-9.30554 -9.24992,-9.24994 l -78.74946,0 0,-6.74994 c 0.055,-4.77529 -4.2251,-9.17394 -8.99994,-9.24994 l -117.749174,0 c -0.332997,0 -0.666994,-4e-4 -0.999992,0 z m 79.749446,47.99979 47.99966,0 c 3.99997,0 7.99994,3.99997 7.99994,7.99994 l -63.999549,0 c 0,-3.99997 3.999969,-7.99994 7.999949,-7.99994 z m -7.999949,11.99991 63.999549,0 0,71.99955 -63.999549,0 0,-71.99955 z m 11.999919,7.99994 0,7.99994 39.99972,0 0,-7.99994 -39.99972,0 z m 0,15.99988 0,7.99996 39.99972,0 0,-7.99996 -39.99972,0 z m 19.99986,15.99991 c -4.41825,0 -7.99995,3.58157 -7.99995,7.99994 0,4.41833 3.5817,7.99992 7.99995,7.99992 4.41824,0 7.99994,-3.58159 7.99994,-7.99992 0,-4.41837 -3.5817,-7.99994 -7.99994,-7.99994 z m -31.999779,35.99981 63.999549,0 c 0,3.99999 -3.99997,7.99978 -7.99994,7.99978 l -47.99966,0 c -3.99998,0 -7.999949,-3.99979 -7.999949,-7.99978 z"
       id="path3912"
       inkscape:connector-curvature="0" />
  </g>
</svg>
