<?xml version="1.0" encoding="UTF-8" standalone="no"?>
<!-- Created with Inkscape (http://www.inkscape.org/) -->

<svg
   xmlns:dc="http://purl.org/dc/elements/1.1/"
   xmlns:cc="http://creativecommons.org/ns#"
   xmlns:rdf="http://www.w3.org/1999/02/22-rdf-syntax-ns#"
   xmlns:svg="http://www.w3.org/2000/svg"
   xmlns="http://www.w3.org/2000/svg"
   xmlns:sodipodi="http://sodipodi.sourceforge.net/DTD/sodipodi-0.dtd"
   xmlns:inkscape="http://www.inkscape.org/namespaces/inkscape"
   width="256"
   height="256"
   id="svg2"
   version="1.1"
   inkscape:version="0.91 r"
   sodipodi:docname="orange-folder-cloud.svg"
   inkscape:export-filename="/media/Data/Main/Visuals/Icons/Numix/Desktop/repos/numix-wiki/Gjorgi/Numix-folders/48/New/folder-144.png"
   inkscape:export-xdpi="270"
   inkscape:export-ydpi="270">
  <defs
     id="defs4" />
  <sodipodi:namedview
     id="base"
     pagecolor="#ffffff"
     bordercolor="#666666"
     borderopacity="1.0"
     inkscape:pageopacity="0.0"
     inkscape:pageshadow="2"
     inkscape:zoom="2.6377682"
     inkscape:cx="176.26936"
     inkscape:cy="148.07028"
     inkscape:document-units="px"
     inkscape:current-layer="layer1"
     showgrid="true"
     inkscape:window-width="1280"
     inkscape:window-height="998"
     inkscape:window-x="0"
     inkscape:window-y="0"
     inkscape:window-maximized="1"
     showguides="true"
     inkscape:guide-bbox="true">
    <inkscape:grid
       type="xygrid"
       id="grid2985"
       empspacing="5"
       visible="true"
       enabled="true"
       snapvisiblegridlinesonly="true" />
  </sodipodi:namedview>
  <metadata
     id="metadata7">
    <rdf:RDF>
      <cc:Work
         rdf:about="">
        <dc:format>image/svg+xml</dc:format>
        <dc:type
           rdf:resource="http://purl.org/dc/dcmitype/StillImage" />
        <dc:title />
      </cc:Work>
    </rdf:RDF>
  </metadata>
  <g
     inkscape:label="Layer 1"
     inkscape:groupmode="layer"
     id="layer1"
     transform="translate(0,-796.3622)">
    <path
       style="font-size:medium;font-style:normal;font-variant:normal;font-weight:normal;font-stretch:normal;text-indent:0;text-align:start;text-decoration:none;line-height:normal;letter-spacing:normal;word-spacing:normal;text-transform:none;direction:ltr;block-progression:tb;writing-mode:lr-tb;text-anchor:start;baseline-shift:baseline;color:#000000;fill:#f57c00;fill-opacity:1;fill-rule:nonzero;stroke:none;stroke-width:2.28612947;marker:none;visibility:visible;display:inline;overflow:visible;enable-background:accumulate;font-family:Sans;-inkscape-font-specification:Sans"
       d="m 24.250994,836.36278 c -4.517628,0.4436 -8.32359,4.71104 -8.249942,9.24994 l 0,157.49888 c -0.056,4.8584 4.391668,9.3056 9.249934,9.25 l 205.498554,0 c 4.85828,0.056 9.3058,-4.3916 9.24994,-9.25 l 0,-141.499 c 0.056,-4.85836 -4.39166,-9.30554 -9.24994,-9.24994 l -78.74945,0 0,-6.74994 c 0.055,-4.7753 -4.2251,-9.17394 -8.99993,-9.24994 l -117.749174,0 c -0.332996,0 -0.666994,-4e-4 -0.999992,0 z m 91.749356,55.99972 a 27.999804,27.99964 0 0 1 21.87484,10.74992 19.999858,19.999842 0 0 1 10.12493,-2.74998 19.999858,19.999842 0 0 1 19.99986,19.99986 19.999858,19.999842 0 0 1 -3.99997,11.99992 l 3.99997,0 0,0.376 a 19.999858,19.999842 0 0 1 15.99989,19.6247 19.999858,19.999842 0 0 1 -15.99989,19.625 l 0,0.376 -74.624473,0 -1.37499,0 -3.999972,0 0,-0.376 a 19.999858,20.000092 0 0 1 -15.999888,-19.625 19.999858,20.000092 0 0 1 15.999888,-19.6247 l 0,-0.376 2.624982,0 A 27.999804,27.99964 0 0 1 88.000545,920.3623 27.999804,27.99964 0 0 1 116.00035,892.3625 z"
       id="path3912"
       inkscape:connector-curvature="0" />
  </g>
</svg>
