<?xml version="1.0" encoding="UTF-8" standalone="no"?>
<!-- Created with Inkscape (http://www.inkscape.org/) -->

<svg
   xmlns:dc="http://purl.org/dc/elements/1.1/"
   xmlns:cc="http://creativecommons.org/ns#"
   xmlns:rdf="http://www.w3.org/1999/02/22-rdf-syntax-ns#"
   xmlns:svg="http://www.w3.org/2000/svg"
   xmlns="http://www.w3.org/2000/svg"
   xmlns:sodipodi="http://sodipodi.sourceforge.net/DTD/sodipodi-0.dtd"
   xmlns:inkscape="http://www.inkscape.org/namespaces/inkscape"
   width="256"
   height="256"
   id="svg2"
   version="1.1"
   inkscape:version="0.91 r"
   sodipodi:docname="pink-folder-art.svg"
   inkscape:export-filename="/media/Data/Main/Visuals/Icons/Numix/Desktop/repos/numix-wiki/Gjorgi/Numix-folders/48/New/folder-144.png"
   inkscape:export-xdpi="270"
   inkscape:export-ydpi="270">
  <defs
     id="defs4" />
  <sodipodi:namedview
     id="base"
     pagecolor="#ffffff"
     bordercolor="#666666"
     borderopacity="1.0"
     inkscape:pageopacity="0.0"
     inkscape:pageshadow="2"
     inkscape:zoom="2.6377683"
     inkscape:cx="178.43723"
     inkscape:cy="93.876798"
     inkscape:document-units="px"
     inkscape:current-layer="layer1"
     showgrid="true"
     inkscape:window-width="1280"
     inkscape:window-height="998"
     inkscape:window-x="0"
     inkscape:window-y="0"
     inkscape:window-maximized="1"
     showguides="true"
     inkscape:guide-bbox="true">
    <inkscape:grid
       type="xygrid"
       id="grid2985"
       empspacing="5"
       visible="true"
       enabled="true"
       snapvisiblegridlinesonly="true" />
  </sodipodi:namedview>
  <metadata
     id="metadata7">
    <rdf:RDF>
      <cc:Work
         rdf:about="">
        <dc:format>image/svg+xml</dc:format>
        <dc:type
           rdf:resource="http://purl.org/dc/dcmitype/StillImage" />
        <dc:title />
      </cc:Work>
    </rdf:RDF>
  </metadata>
  <g
     inkscape:label="Layer 1"
     inkscape:groupmode="layer"
     id="layer1"
     transform="translate(0,-796.3622)">
    <path
       style="font-size:medium;font-style:normal;font-variant:normal;font-weight:normal;font-stretch:normal;text-indent:0;text-align:start;text-decoration:none;line-height:normal;letter-spacing:normal;word-spacing:normal;text-transform:none;direction:ltr;block-progression:tb;writing-mode:lr-tb;text-anchor:start;baseline-shift:baseline;color:#000000;fill:#f06292;fill-opacity:1;fill-rule:nonzero;stroke:none;stroke-width:2.28612947;marker:none;visibility:visible;display:inline;overflow:visible;enable-background:accumulate;font-family:Sans;-inkscape-font-specification:Sans"
       d="m 24.250994,836.36296 c -4.517628,0.44362 -8.323592,4.71106 -8.249942,9.24994 l 0,157.4989 c -0.056,4.8584 4.391668,9.3056 9.249934,9.2498 l 205.498554,0 c 4.85828,0.056 9.3058,-4.3914 9.24994,-9.2498 l 0,-141.49902 c 0.056,-4.85836 -4.39166,-9.30554 -9.24994,-9.24994 l -78.74945,0 0,-6.74994 c 0.055,-4.7753 -4.2251,-9.17394 -8.99993,-9.24994 l -117.749174,0 c -0.332996,0 -0.666994,-4e-4 -0.999992,0 z m 97.749316,55.99974 c 35.99974,0 53.99962,22.85824 53.99962,39.99972 0,11.42792 -5.99996,39.9997 -47.99967,39.9997 -11.99991,0 -17.99987,-5.8226 -17.99987,-17.2498 0,-11.43398 -5.99996,-11.24998 -11.999915,-11.24998 -5.999958,0 -17.999872,0.144 -17.999872,-16.9999 0,-17.14148 18.036688,-33.93976 41.999707,-34.49974 z m -11.99992,7.99994 c -3.31369,0 -5.99996,2.68638 -5.99996,5.99996 0,3.31356 2.68627,5.99996 5.99996,5.99996 3.31368,0 5.99996,-2.6864 5.99996,-5.99996 0,-3.31358 -2.68628,-5.99996 -5.99996,-5.99996 z m 23.99983,0 c -3.31368,0 -5.99996,2.68638 -5.99996,5.99996 0,3.31356 2.68628,5.99996 5.99996,5.99996 3.31369,0 5.99996,-2.6864 5.99996,-5.99996 0,-3.31358 -2.68627,-5.99996 -5.99996,-5.99996 z m 23.99983,15.99988 c -3.31368,0 -5.99996,2.68638 -5.99996,5.99996 0,3.31358 2.68628,5.99996 5.99996,5.99996 3.31369,0 5.99996,-2.68638 5.99996,-5.99996 0,-3.31358 -2.68627,-5.99996 -5.99996,-5.99996 z m -63.999547,3.99998 c -3.313684,0 -5.999958,2.68638 -5.999958,5.99996 0,3.31356 2.686274,5.99996 5.999958,5.99996 3.313684,0 5.999957,-2.6864 5.999957,-5.99996 0,-3.31358 -2.686273,-5.99996 -5.999957,-5.99996 z m 35.999747,23.99982 c -5.52281,0 -9.99993,4.4772 -9.99993,10 0,5.5228 4.47712,10 9.99993,10 5.52281,0 9.99993,-4.4772 9.99993,-10 0,-5.5228 -4.47712,-10 -9.99993,-10 z"
       id="path3912"
       inkscape:connector-curvature="0" />
  </g>
</svg>
