<svg xmlns="http://www.w3.org/2000/svg" viewBox="0 0 256 256">
 <g transform="translate(0,-796.3622)">
  <path d="m 24.25 836.36 c -4.518 0.444 -8.324 4.711 -8.25 9.25 l 0 157.5 c -0.056 4.858 4.392 9.306 9.25 9.25 l 205.5 0 c 4.858 0.056 9.306 -4.392 9.25 -9.25 l 0 -141.5 c 0.056 -4.858 -4.392 -9.306 -9.25 -9.25 l -78.75 0 0 -6.75 c 0.055 -4.775 -4.225 -9.174 -9 -9.25 l -117.75 0 c -0.333 0 -0.667 0 -1 0 z m 134.75 48 c 13.11 0 23.875 10.93 23.875 24.375 0 9.991 -6.086 18.574 -14.5 22.375 -0.089 0.04 -0.16 0.152 -0.25 0.248 l -12.5 22.875 -0.25 0 c 2.235 2.959 3.625 6.618 3.625 10.625 0 9.617 -7.626 17.375 -17 17.375 -9.208 0 -16.879 -7.598 -17.12 -17 l -23.75 -11 c -2.844 2.178 -6.454 3.625 -10.25 3.625 -9.361 0 -17.12 -8.01 -17.12 -17.625 0 -9.604 7.768 -17.5 17.12 -17.5 9.373 0 17 7.901 17 17.5 l 23.625 10.875 c 2.029 -1.624 4.525 -2.945 7.125 -3.5 l 0 -26.375 c -2.111 -3.651 -3.5 -7.984 -3.5 -12.5 0 -13.459 10.746 -24.375 23.875 -24.375 z m 0 8.125 c -8.832 0 -15.75 7.207 -15.75 16.25 0 9.06 6.918 16.25 15.75 16.25 8.815 0 15.75 -7.19 15.75 -16.25 0 -9.04 -6.93 -16.25 -15.75 -16.25 z m 0 5.875 c 5.656 0 10.25 4.569 10.25 10.375 0 5.792 -4.594 10.375 -10.25 10.375 -5.639 0 -10.25 -4.588 -10.25 -10.375 0 -5.81 4.611 -10.375 10.25 -10.375 z m -68.12 31.375 c -6.818 0 -10.25 3.509 -10.25 10.5 0 7.01 3.432 10.625 10.25 10.625 0.854 0 1.503 -0.128 2.25 -0.248 l -4.375 -2.25 c -3.869 -1.67 -5.766 -6.282 -4.125 -10.25 1.641 -3.974 6.131 -5.687 10 -4 l 6 2.75 c -1.01 -4.691 -4.151 -7.125 -9.75 -7.125 z m 51.12 23.375 c -1.501 0 -2.944 0.336 -4.25 0.875 l 7.375 3.375 c 3.869 1.669 5.766 6.283 4.125 10.25 -1.641 3.985 -6.131 5.936 -10 4.25 l -8.125 -3.625 c 1.416 4.76 5.75 8.125 10.875 8.125 6.31 0 11.25 -5.03 11.25 -11.5 0 -6.469 -4.939 -11.75 -11.25 -11.75 z" style="visibility:visible;fill:#7e57c2;fill-opacity:1;stroke:none;display:inline;color:#000;fill-rule:nonzero"/>
 </g>
</svg>
