<svg xmlns="http://www.w3.org/2000/svg" viewBox="0 0 256 256">
 <path d="m 24.25 40 c -4.516 0.441 -8.324 4.711 -8.25 9.25 l 0 157.5 c -0.055 4.859 4.395 9.305 9.25 9.25 l 205.5 0 c 4.859 0.055 9.305 -4.391 9.25 -9.25 l 0 -141.5 c 0.055 -4.859 -4.391 -9.309 -9.25 -9.25 l -78.75 0 0 -6.75 c 0.055 -4.777 -4.227 -9.176 -9 -9.25 l -117.75 0 c -0.332 -0.02 -0.664 -0.02 -1 0 z m 0 0" style="fill:#7e57c2;opacity:0.4;fill-opacity:1;stroke:none;fill-rule:nonzero"/>
 <path d="m 24.25 112 c -4.516 0.441 -8.324 4.711 -8.25 9.25 l 0 85.5 c -0.055 4.859 4.395 9.305 9.25 9.25 l 205.5 0 c 4.859 0.055 9.305 -4.391 9.25 -9.25 l 0 -69.5 c 0.055 -4.859 -4.391 -9.309 -9.25 -9.25 l -78.75 0 0 -6.75 c 0.055 -4.777 -4.227 -9.176 -9 -9.25 l -117.75 0 c -0.332 -0.019 -0.664 -0.019 -1 0 z m 0 0" style="fill:#7e57c2;fill-opacity:1;stroke:none;fill-rule:nonzero"/>
</svg>
