<svg xmlns="http://www.w3.org/2000/svg" viewBox="0 0 256 256">
 <g transform="translate(0,-796.3622)">
  <path d="m 24.25 836.36 c -4.518 0.444 -8.324 4.711 -8.25 9.25 l 0 157.5 c -0.056 4.858 4.392 9.306 9.25 9.25 l 205.5 0 c 4.858 0.056 9.306 -4.392 9.25 -9.25 l 0 -141.5 c 0.056 -4.858 -4.392 -9.306 -9.25 -9.25 l -78.75 0 0 -6.75 c 0.055 -4.776 -4.225 -9.174 -9 -9.25 l -117.75 0 c -0.333 0 -0.667 0 -1 0 z m 65 55.625 c 3.083 -0.048 6.204 0.344 9.25 0.625 14.83 1.681 29.569 7.454 40.5 17.875 3.385 -0.64 6.817 -1.448 10.25 -2 5.062 -0.667 10.218 1.576 13.5 5.5 4.065 5.04 8.126 9.929 12.12 15 2.038 2.65 0.629 6.969 -2.625 7.625 -5.498 0.994 -11.139 1.772 -16.625 2.75 0.331 4.498 -0.678 9.135 -3.375 12.75 -3.03 4.238 -8.122 6.743 -13.25 7.375 -0.152 3.877 0.23 7.823 0.25 11.75 -0.026 1.864 0.37 3.797 -0.125 5.625 -0.814 2.778 -4.406 4.375 -7 3 -5.634 -2.906 -11.28 -5.678 -16.875 -8.625 -4.714 -2.519 -7.875 -7.531 -8 -12.875 -0.004 -3.058 -0.062 -6.326 0 -9.375 0.156 -0.73 -0.449 -0.842 -0.875 -1.25 -11.624 -8.759 -19.606 -21.739 -23.875 -35.5 -1.678 -5.998 -3.172 -12.491 -2.25 -18.75 2.934 -1.018 5.917 -1.279 9 -1.375 l 0 -0.124 z m 18.5 11.5 c -3.583 0.328 -7.143 2.02 -9.625 5 -4.965 5.969 -3.962 14.908 2 19.875 5.962 4.97 14.785 3.966 19.75 -2 4.964 -5.967 3.962 -14.78 -2 -19.75 -2.981 -2.483 -6.542 -3.445 -10.125 -3.125 z m 1.625 6.25 c 4.418 0 8 3.582 8 8 0 4.418 -3.582 8 -8 8 -4.418 0 -8 -3.582 -8 -8 0 -4.418 3.582 -8 8 -8 z m 55.625 36.625 c 0.409 0.04 0.9 0.22 1.25 0.5 2.993 2.469 6.05 4.889 9 7.375 1.486 1.19 0.698 3.89 -1.125 4.25 -1.473 0.232 -2.894 0.324 -4.375 0.5 1.469 3.415 2.944 6.692 4.375 10.125 0.694 1.626 -0.919 3.727 -2.625 3.375 -3.619 -0.802 -7.217 -1.841 -10.875 -2.625 0.134 1.472 0.329 3.132 0.375 4.625 -0.024 1.823 -1.94 3.096 -3.375 1.875 -2.95 -2.434 -6.312 -5.301 -9.25 -7.75 -1.432 -1.143 -0.993 -3.448 0.75 -4 6.694 -2.834 11.686 -9.01 13.25 -16.12 0.177 -1.284 1.398 -2.237 2.625 -2.125 z" style="visibility:visible;fill:#ef5350;fill-opacity:1;stroke:none;display:inline;color:#000;fill-rule:nonzero"/>
 </g>
</svg>
