<svg xmlns="http://www.w3.org/2000/svg" width="256" height="256" viewBox="0 0 204.8 204.8">
 <g transform="scale(0.8,0.8)">
  <path d="m 24.25 40 c -4.52 0.445 -8.324 4.711 -8.25 9.25 l 0 157.5 c -0.055 4.859 4.391 9.305 9.25 9.25 l 205.5 0 c 4.859 0.055 9.305 -4.391 9.25 -9.25 l 0 -141.5 c 0.055 -4.859 -4.391 -9.305 -9.25 -9.25 l -78.75 0 0 -6.75 c 0.055 -4.773 -4.227 -9.176 -9 -9.25 l -117.75 0 c -0.332 -0.02 -0.668 -0.02 -1 0 z m 139.88 56 c 0.828 -0.008 1.695 0.063 2.5 0.25 0.023 0.055 0.102 -0.051 0.125 0 5.141 4.5 9.281 9.879 12.25 15.875 0.031 0.066 -0.031 0.188 0 0.25 0.734 1.988 1.617 4.094 2.375 6.625 0.422 1.414 1.047 3.07 1.625 4.625 0.633 3.074 1 6.258 1 9.5 c 0 28.21 -25.12 58.875 -56.12 58.875 -29.02 0 -52.941 -27.922 -55.875 -53.625 c 0.781 -0.344 16.254 -17.563 47.25 -4.625 37.648 15.715 54.31 0.027 55.875 -6.625 1.566 -6.652 -0.484 -19 -6.75 -19 -6.266 0 -14.168 2.855 -13.12 -4.75 0.652 -4.75 4.73 -7.313 8.875 -7.375 z m -40.12 8 c 2.211 0 4 1.789 4 4 0 2.211 -1.789 4 -4 4 -2.211 0 -4 -1.789 -4 -4 0 -2.211 1.789 -4 4 -4 z m 20 8 c 4.418 0 8 3.582 8 8 0 4.418 -3.582 8 -8 8 -4.418 0 -8 -3.582 -8 -8 0 -4.418 3.582 -8 8 -8 z m 0 0" style="fill:#ef5350;fill-opacity:1;stroke:none;fill-rule:nonzero"/>
 </g>
</svg>
