<?xml version="1.0" encoding="UTF-8"?>
<svg xmlns="http://www.w3.org/2000/svg" xmlns:xlink="http://www.w3.org/1999/xlink" width="72pt" height="72pt" viewBox="0 0 72 72" version="1.1">
<g id="surface1">
<path style=" stroke:none;fill-rule:nonzero;fill:rgb(76.862745%,56.470588%,36.862745%);fill-opacity:1;" d="M 8.25 27 C 6.9375 27.0625 6 27.367188 6 28.828125 L 6 60.984375 C 6 62.929688 7.632812 64.5 9.65625 64.5 L 37.5 64.5 L 37.5 42 L 58.5 42 L 58.5 45 L 66 45 L 66 28.828125 C 66 26.882812 64.320312 27 62.296875 27 L 9.65625 27 C 9.152344 27 8.6875 26.980469 8.25 27 Z M 8.25 27 "/>
<path style=" stroke:none;fill-rule:nonzero;fill:rgb(76.862745%,56.470588%,36.862745%);fill-opacity:1;" d="M 15 13.5 L 7.5 24 L 34.5 24 L 34.5 7.5 L 20.980469 7.5 C 19.5 7.5 15 13.5 15 13.5 Z M 37.5 7.5 L 37.5 24 L 64.5 24 L 57 13.5 C 57 13.5 52.5 7.5 50.980469 7.5 Z M 37.5 7.5 "/>
<path style=" stroke:none;fill-rule:nonzero;fill:rgb(76.862745%,56.470588%,36.862745%);fill-opacity:1;" d="M 69 48 L 55.5 48 L 55.5 45 L 40.5 45 L 40.5 67.5 L 69 67.5 Z M 69 48 "/>
</g>
</svg>
