<?xml version="1.0" encoding="UTF-8"?>
<svg xmlns="http://www.w3.org/2000/svg" xmlns:xlink="http://www.w3.org/1999/xlink" width="72pt" height="72pt" viewBox="0 0 72 72" version="1.1">
<g id="surface1">
<path style=" stroke:none;fill-rule:nonzero;fill:rgb(76.862745%,56.470588%,36.862745%);fill-opacity:1;" d="M 36 6 C 25.261719 6 15.839844 11.726562 10.546875 20.25 L 6.328125 15.1875 C 6.285156 15.164062 6.234375 15.160156 6.1875 15.140625 C 5.585938 14.503906 4.292969 14.890625 4.125 15.75 L -0.1875 40.78125 C -0.339844 41.484375 0.3125 42.246094 1.03125 42.234375 L 6.421875 40.875 C 8.765625 55.078125 21.152344 65.953125 36 65.953125 C 52.511719 65.953125 66 52.511719 66 36 C 66 19.488281 52.511719 6 36 6 Z M 39.65625 15.09375 C 41.230469 15.109375 42.886719 15.414062 44.625 15.9375 C 53.730469 19.40625 60.1875 25.65625 60.1875 36 C 60.1875 49.390625 49.390625 60.1875 36 60.1875 C 23.777344 60.1875 13.753906 51.179688 12.09375 39.421875 L 25.5 36 C 26.371094 35.972656 26.960938 34.777344 26.4375 34.078125 L 21 30 C 21.117188 29.546875 19.3125 28.304688 26.578125 20.578125 C 30.003906 16.933594 34.59375 15.039062 39.65625 15.09375 Z M 52.359375 22.734375 C 52.265625 22.742188 52.171875 22.757812 52.078125 22.78125 C 51.726562 22.828125 51.386719 22.957031 51.09375 23.15625 L 35.15625 33.84375 C 33.769531 34.363281 33.292969 36.425781 34.3125 37.5 C 34.3125 37.515625 34.3125 37.53125 34.3125 37.546875 C 34.359375 37.578125 34.40625 37.609375 34.453125 37.640625 C 34.46875 37.65625 34.484375 37.671875 34.5 37.6875 C 34.546875 37.71875 34.59375 37.75 34.640625 37.78125 C 34.65625 37.796875 34.671875 37.8125 34.6875 37.828125 C 34.734375 37.859375 34.78125 37.890625 34.828125 37.921875 C 34.84375 37.9375 34.859375 37.953125 34.875 37.96875 L 34.921875 38.015625 C 34.953125 38.03125 34.984375 38.046875 35.015625 38.0625 L 35.0625 38.0625 L 45.375 43.96875 C 46.40625 44.558594 47.878906 44.15625 48.46875 43.125 C 49.058594 42.09375 48.65625 40.621094 47.625 40.03125 L 40.3125 35.859375 L 53.625 26.90625 C 54.472656 26.394531 54.898438 25.277344 54.609375 24.328125 C 54.320312 23.378906 53.347656 22.691406 52.359375 22.734375 Z M 52.359375 22.734375 "/>
</g>
</svg>
