<?xml version="1.0" encoding="UTF-8"?>
<svg xmlns="http://www.w3.org/2000/svg" xmlns:xlink="http://www.w3.org/1999/xlink" width="96pt" height="96pt" viewBox="0 0 96 96" version="1.1">
<g id="surface1">
<path style=" stroke:none;fill-rule:nonzero;fill:rgb(76.862745%,56.470588%,36.862745%);fill-opacity:1;" d="M 48 8 C 33.683594 8 21.121094 15.636719 14.0625 27 L 8.4375 20.25 C 8.378906 20.21875 8.308594 20.214844 8.25 20.1875 C 7.445312 19.339844 5.722656 19.851562 5.5 21 L -0.25 54.375 C -0.453125 55.3125 0.414062 56.328125 1.375 56.3125 L 8.5625 54.5 C 11.6875 73.433594 28.199219 87.9375 48 87.9375 C 70.015625 87.9375 88 70.015625 88 48 C 88 25.984375 70.015625 8 48 8 Z M 52.875 20.125 C 54.976562 20.148438 57.179688 20.554688 59.5 21.25 C 71.640625 25.875 80.25 34.207031 80.25 48 C 80.25 65.851562 65.851562 80.25 48 80.25 C 31.703125 80.25 18.335938 68.238281 16.125 52.5625 L 34 48 C 35.164062 47.964844 35.945312 46.371094 35.25 45.4375 L 28 40 C 28.15625 39.394531 25.75 37.742188 35.4375 27.4375 C 40.007812 22.578125 46.125 20.050781 52.875 20.125 Z M 69.8125 30.3125 C 69.6875 30.324219 69.5625 30.347656 69.4375 30.375 C 68.96875 30.433594 68.515625 30.609375 68.125 30.875 L 46.875 45.125 C 45.027344 45.816406 44.394531 48.570312 45.75 50 C 45.75 50.019531 45.75 50.042969 45.75 50.0625 C 45.8125 50.105469 45.875 50.148438 45.9375 50.1875 C 45.957031 50.207031 45.980469 50.230469 46 50.25 C 46.0625 50.292969 46.125 50.335938 46.1875 50.375 C 46.207031 50.394531 46.230469 50.417969 46.25 50.4375 C 46.3125 50.480469 46.375 50.523438 46.4375 50.5625 C 46.457031 50.582031 46.480469 50.605469 46.5 50.625 L 46.5625 50.6875 C 46.605469 50.710938 46.644531 50.730469 46.6875 50.75 L 46.75 50.75 L 60.5 58.625 C 61.875 59.410156 63.839844 58.875 64.625 57.5 C 65.410156 56.125 64.875 54.160156 63.5 53.375 L 53.75 47.8125 L 71.5 35.875 C 72.628906 35.191406 73.195312 33.699219 72.8125 32.4375 C 72.429688 31.175781 71.132812 30.253906 69.8125 30.3125 Z M 69.8125 30.3125 "/>
</g>
</svg>
