<?xml version="1.0" encoding="UTF-8" standalone="no"?>
<svg
   xmlns:dc="http://purl.org/dc/elements/1.1/"
   xmlns:cc="http://creativecommons.org/ns#"
   xmlns:rdf="http://www.w3.org/1999/02/22-rdf-syntax-ns#"
   xmlns:svg="http://www.w3.org/2000/svg"
   xmlns="http://www.w3.org/2000/svg"
   xmlns:sodipodi="http://sodipodi.sourceforge.net/DTD/sodipodi-0.dtd"
   xmlns:inkscape="http://www.inkscape.org/namespaces/inkscape"
   width="16"
   height="16"
   viewBox="0 0 12.8 12.8"
   id="svg2"
   version="1.1"
   inkscape:version="0.48.5 r10040"
   sodipodi:docname="folder-ubuntu.svg">
  <metadata
     id="metadata16">
    <rdf:RDF>
      <cc:Work
         rdf:about="">
        <dc:format>image/svg+xml</dc:format>
        <dc:type
           rdf:resource="http://purl.org/dc/dcmitype/StillImage" />
      </cc:Work>
    </rdf:RDF>
  </metadata>
  <defs
     id="defs14" />
  <sodipodi:namedview
     pagecolor="#ffffff"
     bordercolor="#666666"
     borderopacity="1"
     objecttolerance="10"
     gridtolerance="10"
     guidetolerance="10"
     inkscape:pageopacity="0"
     inkscape:pageshadow="2"
     inkscape:window-width="1280"
     inkscape:window-height="998"
     id="namedview12"
     showgrid="true"
     inkscape:zoom="20.538732"
     inkscape:cx="4.6470714"
     inkscape:cy="6.7986974"
     inkscape:window-x="0"
     inkscape:window-y="0"
     inkscape:window-maximized="1"
     inkscape:current-layer="svg2">
    <inkscape:grid
       type="xygrid"
       id="grid2984" />
  </sodipodi:namedview>
  <path
     style="fill:#c4905e;fill-opacity:1"
     d="M 1.2012144,5.2173902 C 0.54214205,5.2173902 0,5.7487686 0,6.3970479 0,7.0559567 0.54214205,7.587332 1.2012144,7.587332 c 0.6697046,0 1.2012141,-0.5313753 1.2012141,-1.1902841 0,-0.6482793 -0.5315095,-1.1796577 -1.2012141,-1.1796577 z m 8.567957,5.3775378 c -0.5740307,0.329453 -0.765377,1.052126 -0.4358379,1.615384 0.3295371,0.56326 1.0630215,0.754554 1.6370555,0.43573 0.57403,-0.329456 0.776007,-1.052128 0.446468,-1.615386 -0.340168,-0.56326 -1.073652,-0.765184 -1.6476856,-0.435728 z M 3.8056179,6.3970479 c 0,-1.1690311 0.5952924,-2.1999018 1.4988631,-2.826925 L 4.422172,2.1247772 C 3.3697794,2.8155668 2.593774,3.8783209 2.2642365,5.1111159 c 0.3826879,0.3081984 0.6271837,0.7651832 0.6271837,1.285932 0,0.5207489 -0.2444958,0.9883601 -0.6271837,1.2965581 0.3295375,1.232798 1.1055429,2.2955496 2.1579355,2.986342 L 5.304481,9.2239721 C 4.4009103,8.607576 3.8056179,7.5660779 3.8056179,6.3970479 z M 7.3135922,2.9430973 c 1.8390278,0 3.3378878,1.3922088 3.4973418,3.1563793 L 12.5224,6.0675927 C 12.437357,4.7710339 11.852699,3.6020029 10.970389,2.7411724 10.513289,2.9112125 9.981779,2.8793304 9.5353083,2.6242685 9.0782072,2.358582 8.7911929,1.9228533 8.7061514,1.4446144 8.2703108,1.3277107 7.8025811,1.2639442 7.3135922,1.2639442 c -0.8291586,0 -1.6157937,0.1912979 -2.30676,0.5313786 L 5.8359908,3.2725493 C 6.293091,3.0600009 6.7927094,2.9430973 7.3135922,2.9430973 z m 0,6.9185307 c -0.5208828,0 -1.0205012,-0.1168999 -1.4776014,-0.329454 L 5.0068322,11.0094 c 0.6909663,0.34008 1.4776014,0.531378 2.30676,0.531378 0.4889889,0 0.9567186,-0.06378 1.3925592,-0.1913 C 8.791193,10.881862 9.0782072,10.435504 9.5353083,10.180443 9.981779,9.9253822 10.513289,9.893498 10.970389,10.063543 11.852699,9.2027121 12.437357,8.033682 12.5224,6.7371235 L 10.810934,6.7052459 C 10.65148,8.46942 9.15262,9.861628 7.3135922,9.861628 z M 9.7691714,2.2097976 C 10.343205,2.5392493 11.076689,2.3373256 11.406226,1.7740662 11.746396,1.2108072 11.544421,0.48813432 10.970389,0.1586797 10.396355,-0.17077192 9.6628706,0.0311497 9.3333335,0.59441113 9.0037944,1.1576702 9.1951387,1.8803431 9.7691714,2.2097976 z"
     id="path10"
     inkscape:connector-curvature="0" />
</svg>
