<?xml version="1.0" encoding="UTF-8" standalone="no"?>
<svg
   xmlns:dc="http://purl.org/dc/elements/1.1/"
   xmlns:cc="http://creativecommons.org/ns#"
   xmlns:rdf="http://www.w3.org/1999/02/22-rdf-syntax-ns#"
   xmlns:svg="http://www.w3.org/2000/svg"
   xmlns="http://www.w3.org/2000/svg"
   xmlns:sodipodi="http://sodipodi.sourceforge.net/DTD/sodipodi-0.dtd"
   xmlns:inkscape="http://www.inkscape.org/namespaces/inkscape"
   width="16"
   height="16"
   viewBox="0 0 12.8 12.8"
   id="svg3009"
   version="1.1"
   inkscape:version="0.48.5 r10040"
   sodipodi:docname="folder-saved-search.svg">
  <metadata
     id="metadata3023">
    <rdf:RDF>
      <cc:Work
         rdf:about="">
        <dc:format>image/svg+xml</dc:format>
        <dc:type
           rdf:resource="http://purl.org/dc/dcmitype/StillImage" />
      </cc:Work>
    </rdf:RDF>
  </metadata>
  <defs
     id="defs3021" />
  <sodipodi:namedview
     pagecolor="#ffffff"
     bordercolor="#666666"
     borderopacity="1"
     objecttolerance="10"
     gridtolerance="10"
     guidetolerance="10"
     inkscape:pageopacity="0"
     inkscape:pageshadow="2"
     inkscape:window-width="672"
     inkscape:window-height="480"
     id="namedview3019"
     showgrid="true"
     inkscape:zoom="10.269366"
     inkscape:cx="7.3798657"
     inkscape:cy="8.5294517"
     inkscape:window-x="0"
     inkscape:window-y="0"
     inkscape:window-maximized="0"
     inkscape:current-layer="svg3009">
    <inkscape:grid
       type="xygrid"
       id="grid4874"
       empspacing="5"
       visible="true"
       enabled="true"
       snapvisiblegridlinesonly="true" />
  </sodipodi:namedview>
  <path
     sodipodi:nodetypes="ccccsssccccccc"
     inkscape:connector-curvature="0"
     id="path3782"
     d="m 1.6000009,0.7999998 c -0.397554,0 -0.80000004,0.3756943 -0.80000004,0.8 l 0,0.8 c -0.37214131,0 -0.80069691117,0.333838 -0.80000001116674,0.8 l 0,8.0000002 C 8.4883326e-7,11.681784 0.38555185,12 0.80000086,12 L 12.000001,12 c 0.430116,0 0.800836,-0.318218 0.8,-0.8 l 0,-7.2000002 c -5.05e-4,-0.4824152 -0.379342,-0.8 -0.8,-0.8 l -0.8,0 0,-1.6 c 0,-0.4458592 -0.382131,-0.8 -0.8,-0.8 z"
     style="font-size:medium;font-style:normal;font-variant:normal;font-weight:normal;font-stretch:normal;text-indent:0;text-align:start;text-decoration:none;line-height:normal;letter-spacing:normal;word-spacing:normal;text-transform:none;direction:ltr;block-progression:tb;writing-mode:lr-tb;text-anchor:start;baseline-shift:baseline;color:#000000;fill:#e9b080;fill-opacity:1;fill-rule:nonzero;stroke:none;stroke-width:0.81800002;marker:none;visibility:visible;display:inline;overflow:visible;enable-background:accumulate;font-family:Sans;-inkscape-font-specification:Sans" />
  <path
     style="font-size:medium;font-style:normal;font-variant:normal;font-weight:normal;font-stretch:normal;text-indent:0;text-align:start;text-decoration:none;line-height:normal;letter-spacing:normal;word-spacing:normal;text-transform:none;direction:ltr;block-progression:tb;writing-mode:lr-tb;text-anchor:start;baseline-shift:baseline;color:#000000;fill:#000000;fill-opacity:0.32038838;fill-rule:nonzero;stroke:none;stroke-width:0.81800002;marker:none;visibility:visible;display:inline;overflow:visible;enable-background:accumulate;font-family:Sans;-inkscape-font-specification:Sans"
     d="m 1.6000009,0.7999998 c -0.397554,0 -0.80000004,0.3756943 -0.80000004,0.8 l 0,0.8 c -0.37214131,0 -0.80069691117,0.333838 -0.80000001116674,0.8 l 0,8.0000002 C 8.4883326e-7,11.681784 0.37612085,12 0.80000086,12 L 12.000001,12 c 0.433242,0 0.800836,-0.318218 0.8,-0.8 l 0,-7.2000002 c -5.05e-4,-0.4824152 -0.379342,-0.8 -0.8,-0.8 l -0.8,0 0,-1.6 c 0,-0.4458592 -0.382131,-0.8 -0.8,-0.8 z m -0.80000004,2.4 6.39999994,0 0,0.8 4.8000002,0 0,7.2000002 -11.20000014,0 z"
     id="path3768"
     inkscape:connector-curvature="0"
     sodipodi:nodetypes="ssccsssccscsssccccccc" />
  <path
     style="fill:#000000;fill-opacity:0.32156864"
     d="M 8.9473202,5.0512354 C 8.0828458,4.1867606 6.6823952,4.1925234 5.8179204,5.0627625 5.0802346,5.7946854 4.970734,6.9185025 5.4836558,7.7656889 L 3.3512835,9.903825 c -0.2017113,0.195948 -0.2017113,0.518685 0,0.714634 l 0.028816,0.03458 c 0.2017114,0.195948 0.5186861,0.195948 0.7203959,0 L 6.2328686,8.5149018 c 0.8529492,0.5186846 1.9825306,0.409184 2.7144516,-0.3227375 0.87024,-0.8644763 0.87024,-2.2706898 0,-3.1351646 z M 8.4632158,5.5411045 c 0.5936055,0.5936069 0.5936055,1.5675823 0,2.1611892 C 7.869609,8.2901378 6.9186848,8.2901378 6.319315,7.7138207 L 6.307789,7.6965307 C 6.302029,7.6907707 6.296263,7.6850047 6.290499,7.6792407 5.7084198,7.0856356 5.7141826,6.1347114 6.3077894,5.5468688 6.9013964,4.9532619 7.869609,4.9474991 8.4632158,5.5411045 z"
     id="path3017"
     inkscape:connector-curvature="0" />
</svg>
