<?xml version="1.0" encoding="UTF-8" standalone="no"?>
<svg
   xmlns:dc="http://purl.org/dc/elements/1.1/"
   xmlns:cc="http://creativecommons.org/ns#"
   xmlns:rdf="http://www.w3.org/1999/02/22-rdf-syntax-ns#"
   xmlns:svg="http://www.w3.org/2000/svg"
   xmlns="http://www.w3.org/2000/svg"
   xmlns:sodipodi="http://sodipodi.sourceforge.net/DTD/sodipodi-0.dtd"
   xmlns:inkscape="http://www.inkscape.org/namespaces/inkscape"
   width="16"
   height="16"
   viewBox="0 0 12.8 12.8"
   id="svg3009"
   version="1.1"
   inkscape:version="0.48.5 r10040"
   sodipodi:docname="folder-dropbox.svg">
  <metadata
     id="metadata3025">
    <rdf:RDF>
      <cc:Work
         rdf:about="">
        <dc:format>image/svg+xml</dc:format>
        <dc:type
           rdf:resource="http://purl.org/dc/dcmitype/StillImage" />
        <dc:title></dc:title>
      </cc:Work>
    </rdf:RDF>
  </metadata>
  <defs
     id="defs3023" />
  <sodipodi:namedview
     pagecolor="#ffffff"
     bordercolor="#666666"
     borderopacity="1"
     objecttolerance="10"
     gridtolerance="10"
     guidetolerance="10"
     inkscape:pageopacity="0"
     inkscape:pageshadow="2"
     inkscape:window-width="1280"
     inkscape:window-height="969"
     id="namedview3021"
     showgrid="true"
     inkscape:zoom="20.538732"
     inkscape:cx="9.988985"
     inkscape:cy="8.8395277"
     inkscape:window-x="0"
     inkscape:window-y="0"
     inkscape:window-maximized="1"
     inkscape:current-layer="svg3009">
    <inkscape:grid
       type="xygrid"
       id="grid3027"
       empspacing="5"
       visible="true"
       enabled="true"
       snapvisiblegridlinesonly="true" />
  </sodipodi:namedview>
  <path
     sodipodi:nodetypes="ccccsssccccccc"
     inkscape:connector-curvature="0"
     id="path3782"
     d="m 1.6000009,0.8000001 c -0.397554,0 -0.8,0.3756943 -0.8,0.8 l 0,0.8 c -0.37214131,0 -0.80069692124,0.333838 -0.80000005123979,0.8 l 0,7.9999999 C 8.4876021e-7,11.681784 0.38555188,12 0.8000009,12 l 11.2000001,0 c 0.430116,0 0.800836,-0.318218 0.8,-0.8 l 0,-7.1999999 c -5.05e-4,-0.4824152 -0.379342,-0.8 -0.8,-0.8 l -0.8,0 0,-1.6 c 0,-0.4458592 -0.382131,-0.8 -0.8,-0.8 z"
     style="font-size:medium;font-style:normal;font-variant:normal;font-weight:normal;font-stretch:normal;text-indent:0;text-align:start;text-decoration:none;line-height:normal;letter-spacing:normal;word-spacing:normal;text-transform:none;direction:ltr;block-progression:tb;writing-mode:lr-tb;text-anchor:start;baseline-shift:baseline;color:#000000;fill:#e9b080;fill-opacity:1;fill-rule:nonzero;stroke:none;stroke-width:0.81800002;marker:none;visibility:visible;display:inline;overflow:visible;enable-background:accumulate;font-family:Sans;-inkscape-font-specification:Sans" />
  <path
     style="font-size:medium;font-style:normal;font-variant:normal;font-weight:normal;font-stretch:normal;text-indent:0;text-align:start;text-decoration:none;line-height:normal;letter-spacing:normal;word-spacing:normal;text-transform:none;direction:ltr;block-progression:tb;writing-mode:lr-tb;text-anchor:start;baseline-shift:baseline;color:#000000;fill:#000000;fill-opacity:0.32038838;fill-rule:nonzero;stroke:none;stroke-width:0.81800002;marker:none;visibility:visible;display:inline;overflow:visible;enable-background:accumulate;font-family:Sans;-inkscape-font-specification:Sans"
     d="m 1.6000009,0.8000001 c -0.397554,0 -0.8,0.3756943 -0.8,0.8 l 0,0.8 c -0.37214131,0 -0.80069692124,0.333838 -0.80000005123979,0.8 l 0,7.9999999 C 8.4876021e-7,11.681784 0.37612086,12 0.8000009,12 l 11.2000001,0 c 0.433242,0 0.800836,-0.318218 0.8,-0.8 l 0,-7.1999999 c -5.05e-4,-0.4824152 -0.379342,-0.8 -0.8,-0.8 l -0.8,0 0,-1.6 c 0,-0.4458592 -0.382131,-0.8 -0.8,-0.8 z m -0.8,2.4 6.4,0 0,0.8 4.8000001,0 0,7.1999999 -11.2000001,0 z"
     id="path3768"
     inkscape:connector-curvature="0"
     sodipodi:nodetypes="ssccsssccscsssccccccc" />
  <path
     inkscape:connector-curvature="0"
     id="path3019"
     d="M 4.8000006,4.5333349 3.2000013,5.7743594 4.8000006,6.8410257 3.2000013,8.2666668 6.4,10.399999 9.5999988,8.2666668 7.9999994,6.8410257 9.5999988,5.7743594 7.9999994,4.5333349 6.4,5.7743594 z"
     style="fill:#000000;fill-opacity:0.32156863;stroke-width:0.80000001" />
</svg>
