<?xml version="1.0" encoding="UTF-8" standalone="no"?>
<svg
   xmlns:dc="http://purl.org/dc/elements/1.1/"
   xmlns:cc="http://creativecommons.org/ns#"
   xmlns:rdf="http://www.w3.org/1999/02/22-rdf-syntax-ns#"
   xmlns:svg="http://www.w3.org/2000/svg"
   xmlns="http://www.w3.org/2000/svg"
   xmlns:sodipodi="http://sodipodi.sourceforge.net/DTD/sodipodi-0.dtd"
   xmlns:inkscape="http://www.inkscape.org/namespaces/inkscape"
   width="16"
   height="16"
   viewBox="0 0 12.8 12.8"
   id="svg2993"
   version="1.1"
   inkscape:version="0.48.5 r10040"
   sodipodi:docname="folder-recent.svg">
  <metadata
     id="metadata3007">
    <rdf:RDF>
      <cc:Work
         rdf:about="">
        <dc:format>image/svg+xml</dc:format>
        <dc:type
           rdf:resource="http://purl.org/dc/dcmitype/StillImage" />
      </cc:Work>
    </rdf:RDF>
  </metadata>
  <defs
     id="defs3005" />
  <sodipodi:namedview
     pagecolor="#ffffff"
     bordercolor="#666666"
     borderopacity="1"
     objecttolerance="10"
     gridtolerance="10"
     guidetolerance="10"
     inkscape:pageopacity="0"
     inkscape:pageshadow="2"
     inkscape:window-width="672"
     inkscape:window-height="480"
     id="namedview3003"
     showgrid="true"
     inkscape:zoom="14.523077"
     inkscape:cx="8.125"
     inkscape:cy="8.125"
     inkscape:window-x="0"
     inkscape:window-y="0"
     inkscape:window-maximized="0"
     inkscape:current-layer="svg2993">
    <inkscape:grid
       type="xygrid"
       id="grid2984"
       empspacing="5"
       visible="true"
       enabled="true"
       snapvisiblegridlinesonly="true" />
  </sodipodi:namedview>
  <path
     sodipodi:nodetypes="ccccsssccccccc"
     inkscape:connector-curvature="0"
     id="path3782"
     d="m 1.6000008,0.8 c -0.397554,0 -0.79999995,0.3756943 -0.79999995,0.8 l 0,0.8 C 0.42785955,2.4 -6.9605117e-4,2.733838 8.4883326e-7,3.2 l 0,8 C 8.4883326e-7,11.681784 0.38555185,12 0.80000085,12 L 12.000001,12 c 0.430116,0 0.800836,-0.318218 0.8,-0.8 l 0,-7.2 c -5.05e-4,-0.4824152 -0.379342,-0.8 -0.8,-0.8 l -0.8,0 0,-1.6 c 0,-0.4458592 -0.382131,-0.8 -0.8,-0.8 z"
     style="font-size:medium;font-style:normal;font-variant:normal;font-weight:normal;font-stretch:normal;text-indent:0;text-align:start;text-decoration:none;line-height:normal;letter-spacing:normal;word-spacing:normal;text-transform:none;direction:ltr;block-progression:tb;writing-mode:lr-tb;text-anchor:start;baseline-shift:baseline;color:#000000;fill:#e9b080;fill-opacity:1;fill-rule:nonzero;stroke:none;stroke-width:0.81800002;marker:none;visibility:visible;display:inline;overflow:visible;enable-background:accumulate;font-family:Sans;-inkscape-font-specification:Sans" />
  <path
     style="font-size:medium;font-style:normal;font-variant:normal;font-weight:normal;font-stretch:normal;text-indent:0;text-align:start;text-decoration:none;line-height:normal;letter-spacing:normal;word-spacing:normal;text-transform:none;direction:ltr;block-progression:tb;writing-mode:lr-tb;text-anchor:start;baseline-shift:baseline;color:#000000;fill:#000000;fill-opacity:0.32038838;fill-rule:nonzero;stroke:none;stroke-width:0.81800002;marker:none;visibility:visible;display:inline;overflow:visible;enable-background:accumulate;font-family:Sans;-inkscape-font-specification:Sans"
     d="m 1.6000008,0.8 c -0.397554,0 -0.79999995,0.3756943 -0.79999995,0.8 l 0,0.8 C 0.42785955,2.4 -6.9605117e-4,2.733838 8.4883326e-7,3.2 l 0,8 C 8.4883326e-7,11.681784 0.37612085,12 0.80000085,12 L 12.000001,12 c 0.433242,0 0.800836,-0.318218 0.8,-0.8 l 0,-7.2 c -5.05e-4,-0.4824152 -0.379342,-0.8 -0.8,-0.8 l -0.8,0 0,-1.6 c 0,-0.4458592 -0.382131,-0.8 -0.8,-0.8 z m -0.79999995,2.4 6.40000025,0 0,0.8 4.7999999,0 0,7.2 -11.20000015,0 z"
     id="path3768"
     inkscape:connector-curvature="0"
     sodipodi:nodetypes="ssccsssccscsssccccccc" />
  <path
     style="fill:#000000;fill-opacity:0.32156863"
     d="m 3.6036043,4.4 0,2.0007209 1.994954,0 -0.686125,-0.6861265 C 5.3218016,5.3917116 5.8407212,5.2014417 6.4,5.2014417 7.7261267,5.2014417 8.7985588,6.2738733 8.7985588,7.6 8.7985588,8.9261267 7.7261267,9.998558 6.4,9.998558 5.0738733,9.998558 4.0014417,8.9261267 4.0014417,7.6 c 0,-0.2825221 0.051891,-0.5477481 0.1383784,-0.8014417 l -0.8360356,0 C 3.2345953,7.0580173 3.2,7.3232433 3.2,7.6 c 0,1.7643234 1.4356766,3.2 3.2,3.2 1.7643238,0 3.1999998,-1.4356766 3.1999998,-3.2 C 9.5999998,5.8356766 8.1643238,4.4 6.4,4.4 5.6158559,4.4 4.8951357,4.6709913 4.3358554,5.1380179 z m 2.7618004,1.1877483 c -0.017296,0.00577 -0.034594,0.00577 -0.051891,0.011531 C 6.129009,5.6454053 5.996396,5.8126126 6.002163,6.0028838 l 0,1.470269 c 0,0.011532 0,0.02883 0,0.040361 -0.023063,0.1037845 -0.00577,0.2075675 0.046126,0.2998197 0.00577,0.00577 0.011531,0.00577 0.017298,0.011532 0,0.00577 0.00577,0.017296 0.011531,0.023063 0,0.00577 0.00577,0.011531 0.011531,0.017298 0.00577,0 0.00577,0.00577 0.011532,0.011531 0.00577,0 0.00577,0.00577 0.011532,0.011531 0.00577,0.00577 0.011531,0.00577 0.011531,0.011532 0.011531,0.00577 0.017298,0.00577 0.028828,0.011532 0,0.00577 0.00577,0.011531 0.011532,0.011531 0.00577,0.00577 0.00577,0.011531 0.011531,0.011531 0.00577,0.00577 0.017298,0.011532 0.023063,0.017298 0.017298,0.00577 0.034595,0.017298 0.051893,0.023063 L 7.2360356,8.5513509 C 7.4320723,8.6609008 7.6742337,8.5917116 7.7837836,8.4014417 7.8990988,8.205405 7.8299097,7.9574782 7.6338745,7.8479283 L 6.7978374,7.363604 l 0,-1.3607206 C 6.8036043,5.8875681 6.7574782,5.7722528 6.6767567,5.6972983 6.5902699,5.6165768 6.4749546,5.5762161 6.3654047,5.5877483 z"
     id="path3001"
     inkscape:connector-curvature="0" />
</svg>
