<?xml version="1.0" encoding="UTF-8" standalone="no"?>
<svg
   xmlns:dc="http://purl.org/dc/elements/1.1/"
   xmlns:cc="http://creativecommons.org/ns#"
   xmlns:rdf="http://www.w3.org/1999/02/22-rdf-syntax-ns#"
   xmlns:svg="http://www.w3.org/2000/svg"
   xmlns="http://www.w3.org/2000/svg"
   xmlns:sodipodi="http://sodipodi.sourceforge.net/DTD/sodipodi-0.dtd"
   xmlns:inkscape="http://www.inkscape.org/namespaces/inkscape"
   width="256px"
   height="256px"
   viewBox="0 0 256 256"
   version="1.1"
   id="svg3007"
   inkscape:version="0.91 r"
   sodipodi:docname="brown-folder-ubuntu.svg">
  <metadata
     id="metadata3020">
    <rdf:RDF>
      <cc:Work
         rdf:about="">
        <dc:format>image/svg+xml</dc:format>
        <dc:type
           rdf:resource="http://purl.org/dc/dcmitype/StillImage" />
      </cc:Work>
    </rdf:RDF>
  </metadata>
  <defs
     id="defs3018" />
  <sodipodi:namedview
     pagecolor="#ffffff"
     bordercolor="#666666"
     borderopacity="1"
     objecttolerance="10"
     gridtolerance="10"
     guidetolerance="10"
     inkscape:pageopacity="0"
     inkscape:pageshadow="2"
     inkscape:window-width="668"
     inkscape:window-height="480"
     id="namedview3016"
     showgrid="false"
     inkscape:zoom="0.921875"
     inkscape:cx="128"
     inkscape:cy="128"
     inkscape:window-x="0"
     inkscape:window-y="0"
     inkscape:window-maximized="0"
     inkscape:current-layer="svg3007" />
  <path
     inkscape:connector-curvature="0"
     id="path3010"
     d="m 36,32 c -5.859375,0 -12,6.046875 -12,12 l 0,4 -12,0 C 6.117188,48 0,53.984375 0,60 l 0,152 c 0,8 4,12 12,12 l 232,0 c 6.27344,0 12,-5.42969 12,-12 l 0,-132 c 0,-6.023438 -5.82031,-12 -12,-12 l -12,0 0,-24 c 0,-5.84375 -5.8125,-12 -12,-12 z m 0,0"
     style="fill:#8d6e63;fill-opacity:1;fill-rule:nonzero;stroke:none" />
  <path
     inkscape:connector-curvature="0"
     id="path3012"
     d="m 36,32 c -5.859375,0 -12,6.046875 -12,12 l 0,4 -12,0 C 6.117188,48 0,53.984375 0,60 l 0,152 c 0,8 4,12 12,12 l 232,0 c 6.27344,0 12,-5.42969 12,-12 l 0,-132 c 0,-6.023438 -5.82031,-12 -12,-12 l -12,0 0,-24 c 0,-5.84375 -5.8125,-12 -12,-12 z m -24,24 136,0 c 2.35937,0 4,2.0625 4,4 l 0,16 92,0 c 2.02344,0 4,2.03125 4,4 l 0,132 c 0,2.08594 -1.91406,4 -4,4 l -232,0 c -1.859375,0 -4,-1.58594 -4,-4 L 8,60 c 0,-1.96875 2.0625,-4 4,-4 z m 0,0"
     style="fill:#000000;fill-opacity:0.32156899;fill-rule:nonzero;stroke:none" />
  <path
     inkscape:connector-curvature="0"
     id="path3014"
     d="m 172,88 c -6.625,0 -12,5.375 -12,12 0,6.625 5.375,12 12,12 6.625,0 12,-5.375 12,-12 0,-6.625 -5.375,-12 -12,-12 z m -44,8 c -9.17187,0 -17.71875,2.53125 -25,7 l 11.875,11.875 C 118.88281,113.07031 123.32031,112 128,112 c 16.3125,0 29.77344,12.21875 31.75,28 l 16,0 c -0.64844,-7.67969 -3.04688,-14.89844 -6.875,-21.125 -1.5,0.67969 -3.11719,1.125 -4.875,1.125 -6.625,0 -12,-5.375 -12,-12 0,-1.75781 0.44531,-3.375 1.125,-4.875 C 145.82031,98.625 137.21094,96 128,96 z m -31.375,11.875 c -7.515625,6.55469 -13.0625,15.32813 -15.375,25.375 3.984375,1.95312 6.75,6.01562 6.75,10.75 0,4.73437 -2.765625,8.79687 -6.75,10.75 2.492188,10.82812 8.570312,20.32812 17,27 l 11.5,-11.5 C 101.44531,164.46875 96,154.88281 96,144 c 0,-10.03906 4.64063,-19.00781 11.875,-24.875 z M 64,132 c -6.625,0 -12,5.375 -12,12 0,6.625 5.375,12 12,12 6.625,0 12,-5.375 12,-12 0,-6.625 -5.375,-12 -12,-12 z m 95.75,16 c -1.97656,15.78125 -15.4375,28 -31.75,28 -3.78125,0 -7.38281,-0.79688 -10.75,-2 l -12.125,12.125 c 6.80469,3.71875 14.57031,5.875 22.875,5.875 6.05469,0 11.78906,-1.07813 17.125,-3.125 -0.67969,-1.5 -1.125,-3.11719 -1.125,-4.875 0,-6.625 5.375,-12 12,-12 3.21875,0 6.09375,1.3125 8.25,3.375 6.48437,-7.48438 10.64062,-16.92188 11.5,-27.375 z m 4.25,32 c -6.625,0 -12,5.375 -12,12 0,6.625 5.375,12 12,12 6.625,0 12,-5.375 12,-12 0,-6.625 -5.375,-12 -12,-12 z m 0,0"
     style="fill:#000000;fill-opacity:0.32156899;fill-rule:nonzero;stroke:none" />
</svg>
