<?xml version="1.0" encoding="UTF-8" standalone="no"?>
<svg
   xmlns:dc="http://purl.org/dc/elements/1.1/"
   xmlns:cc="http://creativecommons.org/ns#"
   xmlns:rdf="http://www.w3.org/1999/02/22-rdf-syntax-ns#"
   xmlns:svg="http://www.w3.org/2000/svg"
   xmlns="http://www.w3.org/2000/svg"
   xmlns:sodipodi="http://sodipodi.sourceforge.net/DTD/sodipodi-0.dtd"
   xmlns:inkscape="http://www.inkscape.org/namespaces/inkscape"
   width="256"
   height="256"
   viewBox="0 0 256 256"
   id="svg2"
   version="1.1"
   inkscape:version="0.91 r"
   sodipodi:docname="custom-folder-move.svg">
  <metadata
     id="metadata32">
    <rdf:RDF>
      <cc:Work
         rdf:about="">
        <dc:format>image/svg+xml</dc:format>
        <dc:type
           rdf:resource="http://purl.org/dc/dcmitype/StillImage" />
      </cc:Work>
    </rdf:RDF>
  </metadata>
  <sodipodi:namedview
     pagecolor="#ffffff"
     bordercolor="#666666"
     borderopacity="1"
     objecttolerance="10"
     gridtolerance="10"
     guidetolerance="10"
     inkscape:pageopacity="0"
     inkscape:pageshadow="2"
     inkscape:window-width="1280"
     inkscape:window-height="969"
     id="namedview30"
     showgrid="true"
     inkscape:zoom="1.84375"
     inkscape:cx="46.429716"
     inkscape:cy="106.17777"
     inkscape:window-x="0"
     inkscape:window-y="0"
     inkscape:window-maximized="1"
     inkscape:current-layer="svg2">
    <inkscape:grid
       type="xygrid"
       id="grid3053" />
  </sodipodi:namedview>
  <defs
     id="defs4" />
  <path
     style="fill:replacecolour1;fill-opacity:1;stroke:none;opacity:0.5"
     d="m 36,31.000003 c -5.85566,0 -12,6 -12,12 l 0,4 -12,0 C 6.1195999,47.000003 -6e-8,52.981323 -6e-8,59.000003 L -6e-8,149 C -6e-8,157 3.9999999,161 12,161 l 137,0 c 6.27046,0 12,-5.43338 12,-12 l 0,-80.999997 c 0,-6.01972 -5.82016,-12 -12,-12 l -12,0 0,-13 c 0,-5.84462 -5.81288,-12 -12,-12 z"
     id="path6-6-7"
     inkscape:connector-curvature="0"
     sodipodi:nodetypes="ssccssssscccsss" />
  <path
     sodipodi:nodetypes="sscsssssssscsssssscssssssss"
     inkscape:connector-curvature="0"
     style="fill:replacecolour2;fill-opacity:1.;stroke:none;opacity:0.5"
     d="m 36,31.000003 c -5.85566,0 -12,6 -12,12 l 0,4 -12,0 C 6.1195999,47.000003 -6e-8,52.981323 -6e-8,59.000003 L -6e-8,149 C -6e-8,157 3.9999999,161 12,161 l 137,0 c 6.27046,0 12,-5.43338 12,-12 l 0,-80.999997 c 0,-6.01972 -5.82016,-12 -12,-12 l -12,0 0,-13 c 0,-5.84462 -5.81288,-12 -12,-12 z m -24,24 76.000001,0 c 2.3607,0 4,4 4,4 l 0,5 56.999999,0 c 2.0222,0 4,2.03496 4,4 L 153,149 c 0,2.08516 -1.91506,4 -4,4 l -137,0 c -1.85718,0 -4.0000001,-1.58538 -4.0000001,-4 l 0,-89.999997 c 0,-1.96962 2.0661201,-4 4.0000001,-4 z"
     id="path3778-8" />
  <path
     style="fill:replacecolour1;fill-opacity:1;stroke:none"
     d="m 132,96 c -5.85566,0 -12,6 -12,12 l 0,4 -12,0 c -5.8804,0 -12,5.98132 -12,12 l 0,90 c 0,8 4,12 12,12 l 137,0 c 6.27046,0 12,-5.43338 12,-12 l 0,-81 c 0,-6.01972 -5.82016,-12 -12,-12 l -12,0 0,-13 c 0,-5.84462 -5.81288,-12 -12,-12 z"
     id="path6-6"
     inkscape:connector-curvature="0"
     sodipodi:nodetypes="ssccssssscccsss" />
  <path
     sodipodi:nodetypes="sscsssssssscsssssscssssssss"
     inkscape:connector-curvature="0"
     style="fill:replacecolour2;fill-opacity:1.;stroke:none"
     d="m 132,96 c -5.85566,0 -12,6 -12,12 l 0,4 -12,0 c -5.8804,0 -12,5.98132 -12,12 l 0,90 c 0,8 4,12 12,12 l 137,0 c 6.27046,0 12,-5.43338 12,-12 l 0,-81 c 0,-6.01972 -5.82016,-12 -12,-12 l -12,0 0,-13 c 0,-5.84462 -5.81288,-12 -12,-12 z m -24,24 76,0 c 2.3607,0 4,4 4,4 l 0,5 57,0 c 2.0222,0 4,2.03496 4,4 l 0,81 c 0,2.08516 -1.91506,4 -4,4 l -137,0 c -1.85718,0 -4,-1.58538 -4,-4 l 0,-90 c 0,-1.96962 2.06612,-4 4,-4 z"
     id="path3778" />
</svg>
