<?xml version="1.0" encoding="UTF-8" standalone="no"?>
<svg
   xmlns:dc="http://purl.org/dc/elements/1.1/"
   xmlns:cc="http://creativecommons.org/ns#"
   xmlns:rdf="http://www.w3.org/1999/02/22-rdf-syntax-ns#"
   xmlns:svg="http://www.w3.org/2000/svg"
   xmlns="http://www.w3.org/2000/svg"
   xmlns:sodipodi="http://sodipodi.sourceforge.net/DTD/sodipodi-0.dtd"
   xmlns:inkscape="http://www.inkscape.org/namespaces/inkscape"
   width="256px"
   height="256px"
   viewBox="0 0 256 256"
   version="1.1"
   id="svg2"
   inkscape:version="0.48.5 r10040"
   sodipodi:docname="folder-system.svg">
  <metadata
     id="metadata15">
    <rdf:RDF>
      <cc:Work
         rdf:about="">
        <dc:format>image/svg+xml</dc:format>
        <dc:type
           rdf:resource="http://purl.org/dc/dcmitype/StillImage" />
      </cc:Work>
    </rdf:RDF>
  </metadata>
  <defs
     id="defs13" />
  <sodipodi:namedview
     pagecolor="#ffffff"
     bordercolor="#666666"
     borderopacity="1"
     objecttolerance="10"
     gridtolerance="10"
     guidetolerance="10"
     inkscape:pageopacity="0"
     inkscape:pageshadow="2"
     inkscape:window-width="668"
     inkscape:window-height="480"
     id="namedview11"
     showgrid="false"
     inkscape:zoom="0.921875"
     inkscape:cx="135.59322"
     inkscape:cy="128"
     inkscape:window-x="0"
     inkscape:window-y="0"
     inkscape:window-maximized="0"
     inkscape:current-layer="svg2" />
  <path
     inkscape:connector-curvature="0"
     id="path5"
     d="m 36,32 c -5.859375,0 -12,6.046875 -12,12 l 0,4 -12,0 C 6.117188,48 0,53.984375 0,60 l 0,152 c 0,8 4,12 12,12 l 232,0 c 6.27344,0 12,-5.42969 12,-12 l 0,-132 c 0,-6.023438 -5.82031,-12 -12,-12 l -12,0 0,-24 c 0,-5.84375 -5.8125,-12 -12,-12 z m 0,0"
     style="fill:replacecolour1;fill-opacity:1;fill-rule:nonzero;stroke:none" />
  <path
     inkscape:connector-curvature="0"
     id="path7"
     d="m 36,32 c -5.859375,0 -12,6.046875 -12,12 l 0,4 -12,0 C 6.117188,48 0,53.984375 0,60 l 0,152 c 0,8 4,12 12,12 l 232,0 c 6.27344,0 12,-5.42969 12,-12 l 0,-132 c 0,-6.023438 -5.82031,-12 -12,-12 l -12,0 0,-24 c 0,-5.84375 -5.8125,-12 -12,-12 z m -24,24 136,0 c 2.35937,0 4,2.0625 4,4 l 0,16 92,0 c 2.02344,0 4,2.03125 4,4 l 0,132 c 0,2.08594 -1.91406,4 -4,4 l -232,0 c -1.859375,0 -4,-1.58594 -4,-4 L 8,60 c 0,-1.96875 2.0625,-4 4,-4 z m 0,0"
     style="fill:replacecolour2;fill-opacity:1.;fill-rule:nonzero;stroke:none" />
  <path
     inkscape:connector-curvature="0"
     id="path9"
     d="m 120.44531,100 c -2.66406,0 -4.89062,2.11719 -4.89062,4.78125 l 0,6.21875 c -1.67969,0.57031 -3.3125,1.21875 -4.89063,2 l -4.32812,-4.33594 c -1.88281,-1.88281 -4.89844,-1.88281 -6.781252,0 l -10.890626,10.78125 c -1.882812,1.88282 -1.882812,4.89844 0,6.77344 L 93,130.55469 c -0.796875,1.60156 -1.421875,3.28906 -2,5 l -6.109375,0 C 82.226562,135.55469 80,137.67187 80,140.33594 l 0,15.32812 c 0,2.66406 2.226562,4.78125 4.890625,4.78125 l 6.109375,0 c 0.578125,1.71094 1.203125,3.39844 2,5 l -4.335938,4.33594 c -1.882812,1.88281 -1.882812,4.89062 0,6.77344 l 10.890626,10.78125 c 1.882812,1.88281 4.898442,1.88281 6.781252,0 L 110.66406,183 c 1.57813,0.78125 3.21094,1.4375 4.89063,2 l 0,6.21875 c 0,2.66406 2.22656,4.78125 4.89062,4.78125 l 15.21875,0 c 2.66406,0 4.78125,-2.11719 4.78125,-4.78125 l 0,-6.21875 c 1.71094,-0.57813 3.39844,-1.20313 5,-2 l 4.33594,4.33594 c 1.88281,1.88281 4.89062,1.88281 6.77344,0 l 10.89062,-10.78125 c 1.88281,-1.88282 1.88281,-4.89844 0,-6.77344 L 163,165.33594 c 0.78125,-1.57813 1.4375,-3.21094 2,-4.89063 l 6.21875,0 c 2.66406,0 4.78125,-2.11719 4.78125,-4.78125 l 0,-15.32812 c 0,-2.66407 -2.11719,-4.78125 -4.78125,-4.78125 l -6.21875,0 c -0.5625,-1.67969 -1.21875,-3.3125 -2,-4.89063 l 4.44531,-4.44531 c 1.88281,-1.88281 1.88281,-4.89062 0,-6.77344 l -10.89062,-10.78125 c -1.88282,-1.88281 -4.89844,-1.88281 -6.77344,0 L 145.44531,113 c -1.60156,-0.79687 -3.28906,-1.42187 -5,-2 l 0,-6.21875 c 0,-2.66406 -2.11719,-4.78125 -4.78125,-4.78125 z M 128,135.55469 c 6.86719,0 12.44531,5.57812 12.44531,12.44531 0,6.86719 -5.57812,12.44531 -12.44531,12.44531 -6.86719,0 -12.44531,-5.57812 -12.44531,-12.44531 0,-6.86719 5.57812,-12.44531 12.44531,-12.44531 z m 0,0"
     style="fill:replacecolour3;fill-opacity:1.;fill-rule:nonzero;stroke:none" />
</svg>
