<?xml version="1.0" encoding="UTF-8" standalone="no"?>
<svg
   xmlns:dc="http://purl.org/dc/elements/1.1/"
   xmlns:cc="http://creativecommons.org/ns#"
   xmlns:rdf="http://www.w3.org/1999/02/22-rdf-syntax-ns#"
   xmlns:svg="http://www.w3.org/2000/svg"
   xmlns="http://www.w3.org/2000/svg"
   xmlns:sodipodi="http://sodipodi.sourceforge.net/DTD/sodipodi-0.dtd"
   xmlns:inkscape="http://www.inkscape.org/namespaces/inkscape"
   width="256px"
   height="256px"
   viewBox="0 0 256 256"
   version="1.1"
   id="svg2992"
   inkscape:version="0.48.5 r10040"
   sodipodi:docname="folder-download.svg">
  <metadata
     id="metadata3005">
    <rdf:RDF>
      <cc:Work
         rdf:about="">
        <dc:format>image/svg+xml</dc:format>
        <dc:type
           rdf:resource="http://purl.org/dc/dcmitype/StillImage" />
      </cc:Work>
    </rdf:RDF>
  </metadata>
  <defs
     id="defs3003" />
  <sodipodi:namedview
     pagecolor="#ffffff"
     bordercolor="#666666"
     borderopacity="1"
     objecttolerance="10"
     gridtolerance="10"
     guidetolerance="10"
     inkscape:pageopacity="0"
     inkscape:pageshadow="2"
     inkscape:window-width="668"
     inkscape:window-height="480"
     id="namedview3001"
     showgrid="false"
     inkscape:zoom="0.921875"
     inkscape:cx="128"
     inkscape:cy="128"
     inkscape:window-x="0"
     inkscape:window-y="0"
     inkscape:window-maximized="0"
     inkscape:current-layer="svg2992" />
  <path
     inkscape:connector-curvature="0"
     id="path2995"
     d="m 36,32 c -5.859375,0 -12,6.046875 -12,12 l 0,4 -12,0 C 6.117188,48 0,53.984375 0,60 l 0,152 c 0,8 4,12 12,12 l 232,0 c 6.27344,0 12,-5.42969 12,-12 l 0,-132 c 0,-6.023438 -5.82031,-12 -12,-12 l -12,0 0,-24 c 0,-5.84375 -5.8125,-12 -12,-12 z m 0,0"
     style="fill:#ff0000;fill-opacity:1;fill-rule:nonzero;stroke:none" />
  <path
     inkscape:connector-curvature="0"
     id="path2997"
     d="m 36,32 c -5.859375,0 -12,6.046875 -12,12 l 0,4 -12,0 C 6.117188,48 0,53.984375 0,60 l 0,152 c 0,8 4,12 12,12 l 232,0 c 6.27344,0 12,-5.42969 12,-12 l 0,-132 c 0,-6.023438 -5.82031,-12 -12,-12 l -12,0 0,-24 c 0,-5.84375 -5.8125,-12 -12,-12 z m -24,24 136,0 c 2.35937,0 4,2.0625 4,4 l 0,16 92,0 c 2.02344,0 4,2.03125 4,4 l 0,132 c 0,2.08594 -1.91406,4 -4,4 l -232,0 c -1.859375,0 -4,-1.58594 -4,-4 L 8,60 c 0,-1.96875 2.0625,-4 4,-4 z m 0,0"
     style="fill:#000000;fill-opacity:0.32156899;fill-rule:nonzero;stroke:none" />
  <path
     inkscape:connector-curvature="0"
     id="path2999"
     d="m 128,96 c -4.42969,0 -8,3.570312 -8,8 l 0,40 -16,0 c -8,0 -8,0 0,8 l 16,16 c 8,8 8,8 16,0 l 16,-16 c 8,-8 8,-8 0,-8 l -16,0 0,-40 c 0,-4.429688 -3.57031,-8 -8,-8 z m -48.25,56 c -4.273438,0 -7.75,3.57031 -7.75,8 l 0,32.375 c 0.01563,0.42187 0.04687,0.85156 0.125,1.25 0.01563,0.0859 -0.01563,0.16406 0,0.25 0.101562,0.4375 0.335938,0.84375 0.5,1.25 0.203125,0.5 0.445312,0.9375 0.75,1.375 0.234375,0.34375 0.460938,0.69531 0.75,1 0.03906,0.0469 0.08594,0.0781 0.125,0.125 0.03906,0.0391 0.08594,0.0859 0.125,0.125 0.3125,0.3125 0.640625,0.625 1,0.875 0.234375,0.15625 0.5,0.24219 0.75,0.375 0.203125,0.10937 0.414062,0.28125 0.625,0.375 0.03906,0.0156 0.08594,-0.0156 0.125,0 0.429688,0.17969 0.789062,0.39844 1.25,0.5 0.07813,0.0156 0.171875,-0.0156 0.25,0 0.429688,0.0781 0.921875,0.125 1.375,0.125 0.08594,0 0.164062,0 0.25,0 l 96,0 c 1.41406,0 2.72656,-0.39063 3.875,-1 0.1875,-0.10156 0.44531,-0.13281 0.625,-0.25 0.0469,-0.0312 0.0781,-0.0937 0.125,-0.125 0.35937,-0.25 0.6875,-0.5625 1,-0.875 0.0234,-0.0234 -0.0234,-0.10156 0,-0.125 0.0234,-0.0234 0.10156,0.0234 0.125,0 0.0391,-0.0391 0.0859,-0.0859 0.125,-0.125 0.27344,-0.29688 0.52344,-0.53125 0.75,-0.875 0.0234,-0.0312 -0.0234,-0.0937 0,-0.125 0.30469,-0.4375 0.54687,-0.875 0.75,-1.375 0.16406,-0.40625 0.39844,-0.8125 0.5,-1.25 0.0156,-0.0859 -0.0156,-0.16406 0,-0.25 0.0781,-0.39844 0.10937,-0.82813 0.125,-1.25 L 184,160 c 0,-4.42969 -3.47656,-8 -7.75,-8 l -0.5,0 c -4.27344,0 -7.75,3.57031 -7.75,8 l 0,24 -80,0 0,-24 c 0,-4.42969 -3.476562,-8 -7.75,-8 z m 0,0"
     style="fill:#000000;fill-opacity:0.32156899;fill-rule:nonzero;stroke:none" />
</svg>
