<?xml version="1.0" encoding="UTF-8" standalone="no"?>
<!-- Created with Inkscape (http://www.inkscape.org/) -->

<svg
   xmlns:dc="http://purl.org/dc/elements/1.1/"
   xmlns:cc="http://creativecommons.org/ns#"
   xmlns:rdf="http://www.w3.org/1999/02/22-rdf-syntax-ns#"
   xmlns:svg="http://www.w3.org/2000/svg"
   xmlns="http://www.w3.org/2000/svg"
   xmlns:sodipodi="http://sodipodi.sourceforge.net/DTD/sodipodi-0.dtd"
   xmlns:inkscape="http://www.inkscape.org/namespaces/inkscape"
   width="256"
   height="256"
   id="svg2"
   version="1.1"
   inkscape:version="0.91 r"
   sodipodi:docname="green-folder-art.svg"
   inkscape:export-filename="/media/Data/Main/Visuals/Icons/Numix/Desktop/repos/numix-wiki/Gjorgi/Numix-folders/48/New/folder-144.png"
   inkscape:export-xdpi="270"
   inkscape:export-ydpi="270">
  <defs
     id="defs4" />
  <sodipodi:namedview
     id="base"
     pagecolor="#ffffff"
     bordercolor="#666666"
     borderopacity="1.0"
     inkscape:pageopacity="0.0"
     inkscape:pageshadow="2"
     inkscape:zoom="2.6377683"
     inkscape:cx="137.34274"
     inkscape:cy="98.023354"
     inkscape:document-units="px"
     inkscape:current-layer="layer1"
     showgrid="true"
     inkscape:window-width="1280"
     inkscape:window-height="998"
     inkscape:window-x="0"
     inkscape:window-y="0"
     inkscape:window-maximized="1"
     showguides="true"
     inkscape:guide-bbox="true">
    <inkscape:grid
       type="xygrid"
       id="grid2985"
       empspacing="5"
       visible="true"
       enabled="true"
       snapvisiblegridlinesonly="true" />
  </sodipodi:namedview>
  <metadata
     id="metadata7">
    <rdf:RDF>
      <cc:Work
         rdf:about="">
        <dc:format>image/svg+xml</dc:format>
        <dc:type
           rdf:resource="http://purl.org/dc/dcmitype/StillImage" />
        <dc:title />
      </cc:Work>
    </rdf:RDF>
  </metadata>
  <g
     inkscape:label="Layer 1"
     inkscape:groupmode="layer"
     id="layer1"
     transform="translate(0,-796.3622)">
    <path
       style="fill:#66bb6a;fill-opacity:1;stroke:none"
       d="m 36,828.3622 c -5.855668,0 -12,6.0448 -12,12 l 0,4 -12,0 c -5.880396,0 -12,5.9812 -12,12 l 0,152 c 0,8 4,12 12,12 l 232,0 c 6.27046,0 12,-5.4332 12,-12 l 0,-132 c 0,-6.0196 -5.82016,-12 -12,-12 l -12,0 0,-24 c 0,-5.8448 -5.81288,-12 -12,-12 z"
       id="path6"
       inkscape:connector-curvature="0"
       sodipodi:nodetypes="ssccssssscccsss" />
    <path
       inkscape:connector-curvature="0"
       style="fill:#000000;fill-opacity:0.32156863;stroke:none"
       d="m 36,828.3622 c -5.855668,0 -12,6.0448 -12,12 l 0,4 -12,0 c -5.880396,0 -12,5.9812 -12,12 l 0,152 c 0,8 4,12 12,12 l 232,0 c 6.27046,0 12,-5.4332 12,-12 l 0,-132 c 0,-6.0196 -5.82016,-12 -12,-12 l -12,0 0,-24 c 0,-5.8448 -5.81288,-12 -12,-12 l -184,0 z m -24,24 136,0 c 2.3607,0 4,2.0592 4,4 l 0,16 92,0 c 2.0222,0 4,2.0348 4,4 l 0,132 c 0,2.0852 -1.91506,4 -4,4 l -232,0 c -1.857184,0 -4,-1.5852 -4,-4 l 0,-152 c 0,-1.9696 2.066112,-4 4,-4 z"
       id="path3778" />
    <path
       style="fill:#000000;fill-opacity:0.32156863;stroke:none"
       d="m 122,904.3622 c -23.963184,0.56 -42,17.3584 -42,34.5 0,17.1432 12,17 18,17 6,0 12,-0.184 12,11.25 0,11.4272 6,17.25 18,17.25 42,0 48,-28.572 48,-40 0,-17.1416 -18,-40 -54,-40 z m -12,8 c 3.31371,0 6,2.6864 6,6 0,3.3136 -2.68629,6 -6,6 -3.31371,0 -6,-2.6864 -6,-6 0,-3.3136 2.68629,-6 6,-6 z m 24,0 c 3.31371,0 6,2.6864 6,6 0,3.3136 -2.68629,6 -6,6 -3.31371,0 -6,-2.6864 -6,-6 0,-3.3136 2.68629,-6 6,-6 z m 24,16 c 3.31371,0 6,2.6864 6,6 0,3.3136 -2.68629,6 -6,6 -3.31371,0 -6,-2.6864 -6,-6 0,-3.3136 2.68629,-6 6,-6 z m -64,4 c 3.313708,0 6,2.6864 6,6 0,3.3136 -2.686292,6 -6,6 -3.313708,0 -6,-2.6864 -6,-6 0,-3.3136 2.686292,-6 6,-6 z m 36,24 c 5.52285,0 10,4.4772 10,10 0,5.5228 -4.47715,10 -10,10 -5.52285,0 -10,-4.4772 -10,-10 0,-5.5228 4.47715,-10 10,-10 z"
       id="path3843"
       inkscape:connector-curvature="0" />
  </g>
</svg>
