<?xml version="1.0" encoding="UTF-8" standalone="no"?>
<!-- Created with Inkscape (http://www.inkscape.org/) -->

<svg
   xmlns:dc="http://purl.org/dc/elements/1.1/"
   xmlns:cc="http://creativecommons.org/ns#"
   xmlns:rdf="http://www.w3.org/1999/02/22-rdf-syntax-ns#"
   xmlns:svg="http://www.w3.org/2000/svg"
   xmlns="http://www.w3.org/2000/svg"
   xmlns:sodipodi="http://sodipodi.sourceforge.net/DTD/sodipodi-0.dtd"
   xmlns:inkscape="http://www.inkscape.org/namespaces/inkscape"
   width="22"
   height="22"
   id="svg2"
   version="1.1"
   inkscape:version="0.91 r"
   sodipodi:docname="default-folder-system.svg"
   inkscape:export-filename="/media/Data/Main/Visuals/Icons/Numix/Desktop/repos/numix-wiki/Gjorgi/Numix-folders/48/New/folder-144.png"
   inkscape:export-xdpi="270"
   inkscape:export-ydpi="270">
  <defs
     id="defs4" />
  <sodipodi:namedview
     id="base"
     pagecolor="#ffffff"
     bordercolor="#666666"
     borderopacity="1.0"
     inkscape:pageopacity="0.0"
     inkscape:pageshadow="2"
     inkscape:zoom="36.7615"
     inkscape:cx="12.611152"
     inkscape:cy="9.7615471"
     inkscape:document-units="px"
     inkscape:current-layer="layer1"
     showgrid="true"
     inkscape:window-width="1280"
     inkscape:window-height="998"
     inkscape:window-x="0"
     inkscape:window-y="0"
     inkscape:window-maximized="1"
     showguides="true"
     inkscape:guide-bbox="true">
    <inkscape:grid
       type="xygrid"
       id="grid2985"
       empspacing="5"
       visible="true"
       enabled="true"
       snapvisiblegridlinesonly="true" />
  </sodipodi:namedview>
  <metadata
     id="metadata7">
    <rdf:RDF>
      <cc:Work
         rdf:about="">
        <dc:format>image/svg+xml</dc:format>
        <dc:type
           rdf:resource="http://purl.org/dc/dcmitype/StillImage" />
        <dc:title />
      </cc:Work>
    </rdf:RDF>
  </metadata>
  <g
     inkscape:label="Layer 1"
     inkscape:groupmode="layer"
     id="layer1"
     transform="translate(0,-1030.3622)">
    <path
       style="font-size:medium;font-style:normal;font-variant:normal;font-weight:normal;font-stretch:normal;text-indent:0;text-align:start;text-decoration:none;line-height:normal;letter-spacing:normal;word-spacing:normal;text-transform:none;direction:ltr;block-progression:tb;writing-mode:lr-tb;text-anchor:start;baseline-shift:baseline;color:#000000;fill:#c4905e;fill-opacity:1;fill-rule:nonzero;stroke:none;stroke-width:1.52408636;marker:none;visibility:visible;display:inline;overflow:visible;enable-background:accumulate;font-family:Sans;-inkscape-font-specification:Sans"
       d="M 1.625 3 C 1.2775698 3.063 0.99985296 3.3968 1 3.75 L 1 18.25 C 1.00617 18.641 1.3590206 18.9938 1.75 19 L 20.25 19 C 20.640979 18.99 20.99383 18.641 21 18.25 L 21 5.8125 C 20.9938 5.4215 20.640979 5.0062 20.25 5 L 13 5 L 13 3.75 C 12.9938 3.359 12.640979 3.0062 12.25 3 L 1.625 3 z M 10.21875 7 L 11.8125 7 C 12.089826 7 12.28125 7.2225 12.28125 7.5 L 12.28125 8.15625 C 12.459867 8.21625 12.645861 8.26075 12.8125 8.34375 L 13.28125 7.90625 C 13.477324 7.71025 13.772661 7.71025 13.96875 7.90625 L 15.09375 9.03125 C 15.289839 9.22745 15.289839 9.52265 15.09375 9.71875 L 14.65625 10.1875 C 14.737394 10.3515 14.78491 10.54335 14.84375 10.71875 L 15.5 10.71875 C 15.777325 10.71875 16.000001 10.9103 16 11.1875 L 16 12.8125 C 16 13.0897 15.77731 13.28125 15.5 13.28125 L 14.84375 13.28125 C 14.784905 13.45675 14.73739 13.6486 14.65625 13.8125 L 15.09375 14.28125 C 15.289834 14.47725 15.289839 14.77255 15.09375 14.96875 L 13.96875 16.09375 C 13.772678 16.28985 13.477339 16.28985 13.28125 16.09375 L 12.8125 15.65625 C 12.645878 15.73925 12.459886 15.78375 12.28125 15.84375 L 12.28125 16.5 C 12.28125 16.7774 12.08981 17 11.8125 17 L 10.21875 17 C 9.9414437 17 9.71875 16.7774 9.71875 16.5 L 9.71875 15.84375 C 9.5434192 15.78485 9.3512958 15.73825 9.1875 15.65625 L 8.75 16.09375 C 8.5539258 16.28985 8.22734 16.28985 8.03125 16.09375 L 6.90625 14.96875 C 6.7101612 14.77255 6.7101612 14.47745 6.90625 14.28125 L 7.34375 13.8125 C 7.260665 13.6458 7.216192 13.45985 7.15625 13.28125 L 6.5 13.28125 C 6.2226875 13.28125 6 13.0897 6 12.8125 L 6 11.1875 C 6 10.9103 6.2226875 10.71875 6.5 10.71875 L 7.15625 10.71875 C 7.2162 10.54015 7.260658 10.3542 7.34375 10.1875 L 6.90625 9.71875 C 6.7101612 9.52275 6.7101612 9.22745 6.90625 9.03125 L 8.03125 7.90625 C 8.227325 7.71025 8.5539108 7.71025 8.75 7.90625 L 9.1875 8.34375 C 9.3512958 8.26275 9.5434192 8.21525 9.71875 8.15625 L 9.71875 7.5 C 9.71875 7.2225 9.9414395 7 10.21875 7 z M 11 10 C 9.8954305 10 9 10.8954 9 12 C 9 13.1046 9.8954305 14 11 14 C 12.104569 14 13 13.1046 13 12 C 13 10.8954 12.104569 10 11 10 z "
       transform="translate(0,1030.3622)"
       id="path3912" />
  </g>
</svg>
