<?xml version="1.0" encoding="UTF-8" standalone="no"?>
<!-- Created with Inkscape (http://www.inkscape.org/) -->

<svg
   xmlns:dc="http://purl.org/dc/elements/1.1/"
   xmlns:cc="http://creativecommons.org/ns#"
   xmlns:rdf="http://www.w3.org/1999/02/22-rdf-syntax-ns#"
   xmlns:svg="http://www.w3.org/2000/svg"
   xmlns="http://www.w3.org/2000/svg"
   xmlns:sodipodi="http://sodipodi.sourceforge.net/DTD/sodipodi-0.dtd"
   xmlns:inkscape="http://www.inkscape.org/namespaces/inkscape"
   width="22"
   height="22"
   id="svg2"
   version="1.1"
   inkscape:version="0.91 r"
   sodipodi:docname="red-folder-ubuntu.svg"
   inkscape:export-filename="/media/Data/Main/Visuals/Icons/Numix/Desktop/repos/numix-wiki/Gjorgi/Numix-folders/48/New/folder-144.png"
   inkscape:export-xdpi="270"
   inkscape:export-ydpi="270">
  <defs
     id="defs4" />
  <sodipodi:namedview
     id="base"
     pagecolor="#ffffff"
     bordercolor="#666666"
     borderopacity="1.0"
     inkscape:pageopacity="0.0"
     inkscape:pageshadow="2"
     inkscape:zoom="22.629357"
     inkscape:cx="10.308316"
     inkscape:cy="10.967329"
     inkscape:document-units="px"
     inkscape:current-layer="layer1"
     showgrid="true"
     inkscape:window-width="1280"
     inkscape:window-height="998"
     inkscape:window-x="0"
     inkscape:window-y="0"
     inkscape:window-maximized="1"
     showguides="true"
     inkscape:guide-bbox="true">
    <inkscape:grid
       type="xygrid"
       id="grid2985"
       empspacing="5"
       visible="true"
       enabled="true"
       snapvisiblegridlinesonly="true" />
  </sodipodi:namedview>
  <metadata
     id="metadata7">
    <rdf:RDF>
      <cc:Work
         rdf:about="">
        <dc:format>image/svg+xml</dc:format>
        <dc:type
           rdf:resource="http://purl.org/dc/dcmitype/StillImage" />
        <dc:title />
      </cc:Work>
    </rdf:RDF>
  </metadata>
  <g
     inkscape:label="Layer 1"
     inkscape:groupmode="layer"
     id="layer1"
     transform="translate(0,-1030.3622)">
    <path
       style="font-size:medium;font-style:normal;font-variant:normal;font-weight:normal;font-stretch:normal;text-indent:0;text-align:start;text-decoration:none;line-height:normal;letter-spacing:normal;word-spacing:normal;text-transform:none;direction:ltr;block-progression:tb;writing-mode:lr-tb;text-anchor:start;baseline-shift:baseline;color:#000000;fill:#ef5350;fill-opacity:1;fill-rule:nonzero;stroke:none;stroke-width:1.52408636;marker:none;visibility:visible;display:inline;overflow:visible;enable-background:accumulate;font-family:Sans;-inkscape-font-specification:Sans"
       d="M 1.625 3 C 1.2775698 3.063 0.99985296 3.3968 1 3.75 L 1 18.25 C 1.00617 18.641 1.3590206 18.9938 1.75 19 L 20.25 19 C 20.640979 18.99 20.99383 18.641 21 18.25 L 21 5.8125 C 20.9938 5.4215 20.640979 5.0062 20.25 5 L 13 5 L 13 3.75 C 12.9938 3.359 12.640979 3.0062 12.25 3 L 1.625 3 z M 14 6 C 14.552285 6 15 6.4477153 15 7 C 15 7.5522847 14.552285 8 14 8 C 13.447715 8 13 7.5522847 13 7 C 13 6.4477153 13.447715 6 14 6 z M 11 7 C 11.345178 7 11.674512 7.02675 12 7.09375 C 12.049335 8.15445 12.927106 9 14 9 C 14.291093 9 14.563018 8.9243 14.8125 8.8125 C 15.542374 9.6815 16 10.7763 16 12 C 16 13.2237 15.542374 14.3185 14.8125 15.1875 C 14.563018 15.076 14.291093 15 14 15 C 12.927106 15 12.04933 15.84545 12 16.90625 C 11.674512 16.97325 11.345178 17 11 17 C 8.7805057 17 6.9343463 15.53265 6.28125 13.53125 C 6.7204655 13.16435 7 12.6171 7 12 C 7 11.3829 6.7204655 10.83555 6.28125 10.46875 C 6.9343463 8.46725 8.7805057 7 11 7 z M 11 9 C 9.3431458 9 8 10.3431 8 12 C 8 13.6569 9.3431458 15 11 15 C 12.656854 15 14 13.6569 14 12 C 14 10.3431 12.656854 9 11 9 z M 5 11 C 5.5522847 11 6 11.447715 6 12 C 6 12.552285 5.5522847 13 5 13 C 4.4477153 13 4 12.552285 4 12 C 4 11.447715 4.4477153 11 5 11 z M 14 16 C 14.552285 16 15 16.447715 15 17 C 15 17.552285 14.552285 18 14 18 C 13.447715 18 13 17.552285 13 17 C 13 16.447715 13.447715 16 14 16 z "
       transform="translate(0,1030.3622)"
       id="path3912" />
  </g>
</svg>
