<?xml version="1.0" encoding="UTF-8"?>
<svg xmlns="http://www.w3.org/2000/svg" xmlns:xlink="http://www.w3.org/1999/xlink" width="72pt" height="72pt" viewBox="0 0 72 72" version="1.1">
<g id="surface1">
<path style=" stroke:none;fill-rule:nonzero;fill:rgb(76.862745%,56.470588%,36.862745%);fill-opacity:1;" d="M 7.78125 12 C 6.765625 12.214844 5.976562 13.214844 6 14.25 L 6 56.25 C 6 57.429688 7.070312 58.5 8.25 58.5 L 63.75 58.5 C 64.929688 58.5 66 57.429688 66 56.25 L 66 18.796875 C 66 17.617188 64.929688 16.546875 63.75 16.546875 L 42 16.546875 L 42 14.25 C 42 13.070312 40.929688 12 39.75 12 L 8.25 12 C 8.09375 11.984375 7.9375 11.984375 7.78125 12 Z M 39.703125 24 C 41.828125 23.996094 43.9375 24.8125 45.5625 26.4375 C 48.8125 29.6875 48.8125 34.953125 45.5625 38.203125 C 42.800781 40.964844 38.59375 41.359375 35.390625 39.421875 L 27.375 47.4375 C 26.628906 48.183594 25.402344 48.183594 24.65625 47.4375 L 24.5625 47.296875 C 23.816406 46.550781 23.816406 45.371094 24.5625 44.625 L 32.578125 36.609375 C 30.644531 33.414062 31.035156 29.199219 33.796875 26.4375 C 35.421875 24.8125 37.578125 24.003906 39.703125 24 Z M 39.75 26.8125 C 38.433594 26.8125 37.117188 27.382812 36 28.5 C 33.785156 30.714844 33.824219 33.761719 36 36 C 36.019531 36.019531 36.027344 36.023438 36.046875 36.046875 L 36.140625 36.140625 C 38.378906 38.3125 41.285156 38.214844 43.5 36 C 45.734375 33.765625 45.734375 30.734375 43.5 28.5 C 42.382812 27.382812 41.066406 26.8125 39.75 26.8125 Z M 39.75 26.8125 "/>
</g>
</svg>
