<?xml version="1.0" encoding="UTF-8"?>
<svg xmlns="http://www.w3.org/2000/svg" xmlns:xlink="http://www.w3.org/1999/xlink" width="72pt" height="72pt" viewBox="0 0 72 72" version="1.1">
<g id="surface1">
<path style=" stroke:none;fill-rule:nonzero;fill:rgb(76.862745%,56.470588%,36.862745%);fill-opacity:1;" d="M 7.78125 12 C 6.765625 12.214844 5.976562 13.214844 6 14.25 L 6 56.25 C 6 57.429688 7.070312 58.5 8.25 58.5 L 63.75 58.5 C 64.929688 58.5 66 57.429688 66 56.25 L 66 18.796875 C 66 17.617188 64.929688 16.546875 63.75 16.546875 L 42 16.546875 L 42 14.25 C 42 13.070312 40.929688 12 39.75 12 L 8.25 12 C 8.09375 11.984375 7.9375 11.984375 7.78125 12 Z M 43.734375 24.703125 C 43.910156 24.699219 44.125 24.707031 44.296875 24.75 C 45.398438 25.808594 46.285156 27.085938 46.921875 28.5 C 46.929688 28.515625 46.914062 28.53125 46.921875 28.546875 C 47.078125 29.015625 47.273438 29.542969 47.4375 30.140625 C 47.527344 30.472656 47.640625 30.804688 47.765625 31.171875 C 47.902344 31.894531 48 32.660156 48 33.421875 C 48 40.066406 42.597656 47.296875 35.953125 47.296875 C 29.734375 47.296875 24.628906 40.738281 24 34.6875 C 24.167969 34.605469 27.484375 30.5625 34.125 33.609375 C 42.191406 37.308594 45.742188 33.582031 46.078125 32.015625 C 46.414062 30.449219 45.96875 27.5625 44.625 27.5625 C 43.28125 27.5625 41.636719 28.226562 41.859375 26.4375 C 42 25.320312 42.847656 24.71875 43.734375 24.703125 Z M 39.890625 26.0625 C 39.949219 26.039062 40.011719 26.0625 40.078125 26.0625 C 40.339844 26.0625 40.546875 26.269531 40.546875 26.53125 C 40.546875 26.792969 40.339844 27 40.078125 27 C 39.816406 27 39.609375 26.792969 39.609375 26.53125 C 39.609375 26.335938 39.71875 26.132812 39.890625 26.0625 Z M 41.25 28.265625 C 41.621094 28.265625 41.90625 28.597656 41.90625 28.96875 C 41.90625 29.339844 41.621094 29.625 41.25 29.625 C 40.878906 29.625 40.546875 29.339844 40.546875 28.96875 C 40.546875 28.597656 40.878906 28.265625 41.25 28.265625 Z M 41.25 28.265625 "/>
</g>
</svg>
