<?xml version="1.0" encoding="UTF-8"?>
<svg xmlns="http://www.w3.org/2000/svg" xmlns:xlink="http://www.w3.org/1999/xlink" width="96pt" height="96pt" viewBox="0 0 96 96" version="1.1">
<g id="surface1">
<path style=" stroke:none;fill-rule:nonzero;fill:rgb(76.862745%,56.470588%,36.862745%);fill-opacity:1;" d="M 10.375 16 C 9.023438 16.289062 7.96875 17.617188 8 19 L 8 75 C 8 76.570312 9.429688 78 11 78 L 85 78 C 86.570312 78 88 76.570312 88 75 L 88 25.0625 C 88 23.492188 86.570312 22.0625 85 22.0625 L 56 22.0625 L 56 19 C 56 17.429688 54.570312 16 53 16 L 11 16 C 10.792969 15.976562 10.582031 15.976562 10.375 16 Z M 48 31.9375 C 49.078125 31.9375 49.976562 32.921875 49.976562 34 L 49.976562 41.851562 C 50.019531 42.894531 49.226562 43.890625 48.1875 43.976562 C 48.125 43.980469 48.0625 43.980469 48 43.976562 C 46.898438 43.984375 45.984375 42.957031 46.023438 41.851562 L 46.023438 34 C 46.023438 32.921875 46.921875 31.9375 48 31.9375 Z M 42.0625 34.3125 C 43.238281 34.3125 44.152344 35.523438 43.980469 36.6875 L 43.980469 41.914062 C 44.023438 42.9375 43.269531 43.921875 42.25 44.039062 C 41.089844 44.152344 39.996094 43.082031 40.042969 41.914062 L 40.042969 36.6875 C 39.871094 35.523438 40.890625 34.3125 42.0625 34.3125 Z M 54 36.8125 C 55.078125 36.8125 55.972656 37.796875 55.972656 38.875 L 55.972656 41.914062 C 56.015625 42.9375 55.265625 43.921875 54.25 44.039062 C 54.1875 44.042969 54.125 44.042969 54.0625 44.039062 C 52.9375 44.082031 52.015625 43.039062 52.054688 41.914062 L 52.054688 38.875 C 52.058594 37.796875 52.921875 36.8125 54 36.8125 Z M 36.9375 46.125 C 37.695312 46.085938 38.472656 46.269531 39.0625 46.75 L 48 56.0625 L 56.625 47.0625 C 57.480469 46.160156 58.914062 45.828125 60.0625 46.3125 C 61.210938 46.796875 61.992188 48.070312 61.9375 49.3125 C 61.914062 50.105469 61.570312 50.886719 61 51.4375 L 50.0625 63.1875 C 49.546875 63.695312 48.847656 64.011719 48.125 64.0625 C 47.238281 64.140625 46.320312 63.8125 45.6875 63.1875 L 34.75 51.125 C 33.769531 49.960938 33.808594 48.082031 34.875 47 C 35.410156 46.457031 36.179688 46.164062 36.9375 46.125 Z M 36.9375 46.125 "/>
</g>
</svg>
