<?xml version="1.0" encoding="UTF-8"?>
<svg xmlns="http://www.w3.org/2000/svg" xmlns:xlink="http://www.w3.org/1999/xlink" width="96pt" height="96pt" viewBox="0 0 96 96" version="1.1">
<g id="surface1">
<path style=" stroke:none;fill-rule:nonzero;fill:rgb(76.862745%,56.470588%,36.862745%);fill-opacity:1;" d="M 10.375 16 C 9.023438 16.289062 7.96875 17.617188 8 19 L 8 75 C 8 76.570312 9.429688 78 11 78 L 85 78 C 86.570312 78 88 76.570312 88 75 L 88 25.0625 C 88 23.492188 86.570312 22.0625 85 22.0625 L 56 22.0625 L 56 19 C 56 17.429688 54.570312 16 53 16 L 11 16 C 10.792969 15.976562 10.582031 15.976562 10.375 16 Z M 54 38.0625 L 58 38.0625 C 64 38.0625 64 44.0625 64 44.0625 L 64 50 C 64 52 60 56.0625 60 56.0625 L 60 58.0625 L 66 62.0625 L 66 66.0625 L 44 66.0625 L 44 62.0625 L 52 58.0625 L 52 56.0625 C 52 56.0625 47.988281 52 48 50 L 48 44.0625 C 48 44.0625 48 38.0625 54 38.0625 Z M 40 42.0625 L 44 42.0625 L 44 50 C 44 52 48 56.0625 48 56.0625 L 40 60.0625 L 40 64.0625 L 30 64 L 30 62 L 38 58.0625 L 38 56.0625 C 38 56.0625 33.988281 52 34 50 L 34 48.0625 C 34 42.0625 40 42.0625 40 42.0625 Z M 40 42.0625 "/>
</g>
</svg>
