<?xml version="1.0" encoding="UTF-8"?>
<svg xmlns="http://www.w3.org/2000/svg" xmlns:xlink="http://www.w3.org/1999/xlink" width="96pt" height="96pt" viewBox="0 0 96 96" version="1.1">
<g id="surface1">
<path style=" stroke:none;fill-rule:nonzero;fill:rgb(76.862745%,56.470588%,36.862745%);fill-opacity:1;" d="M 10.375 16 C 9.023438 16.289062 7.96875 17.617188 8 19 L 8 75 C 8 76.570312 9.429688 78 11 78 L 85 78 C 86.570312 78 88 76.570312 88 75 L 88 25.0625 C 88 23.492188 86.570312 22.0625 85 22.0625 L 56 22.0625 L 56 19 C 56 17.429688 54.570312 16 53 16 L 11 16 C 10.792969 15.976562 10.582031 15.976562 10.375 16 Z M 38 32 L 42 32 L 42 36 L 40 36 L 40 38 L 36 38 L 36 34 C 36 32.074219 38 32 38 32 Z M 44 32 L 48 32 L 48 36 L 44 36 Z M 50 32 L 54 32 L 54 36 L 50 36 Z M 56 32 L 60 32 C 60 32 61.980469 32 62 34 L 62 38 L 58 38 L 58 36 L 56 36 Z M 36 40 L 40 40 L 40 44 L 36 44 Z M 58 40 L 62 40 L 62 44 L 58 44 Z M 36 46 L 40 46 L 40 50 L 36 50 Z M 58 46 L 62 46 L 62 50 L 58 50 Z M 36 52 L 40 52 L 40 56 L 36 56 Z M 58 52 L 62 52 L 62 56 L 58 56 Z M 36 58 L 40 58 L 40 60 L 42 60 L 42 64 L 38 64 C 38 64 36 64 36 62 Z M 58 58 L 62 58 L 62 62 C 62 64 60 64 60 64 L 56 64 L 56 60 L 58 60 Z M 44 60 L 48 60 L 48 64 L 44 64 Z M 50 60 L 54 60 L 54 64 L 50 64 Z M 50 60 "/>
</g>
</svg>
