<?xml version="1.0" encoding="UTF-8"?>
<svg xmlns="http://www.w3.org/2000/svg" xmlns:xlink="http://www.w3.org/1999/xlink" width="72pt" height="72pt" viewBox="0 0 72 72" version="1.1">
<g id="surface1">
<path style=" stroke:none;fill-rule:nonzero;fill:rgb(76.862745%,56.470588%,36.862745%);fill-opacity:1;" d="M 7.78125 12 C 6.765625 12.214844 5.976562 13.214844 6 14.25 L 6 56.25 C 6 57.429688 7.070312 58.5 8.25 58.5 L 63.75 58.5 C 64.929688 58.5 66 57.429688 66 56.25 L 66 18.796875 C 66 17.617188 64.929688 16.546875 63.75 16.546875 L 42 16.546875 L 42 14.25 C 42 13.070312 40.929688 12 39.75 12 L 8.25 12 C 8.09375 11.984375 7.9375 11.984375 7.78125 12 Z M 36 23.953125 C 36.808594 23.953125 37.484375 24.691406 37.484375 25.5 L 37.484375 31.390625 C 37.515625 32.171875 36.917969 32.917969 36.140625 32.984375 C 36.09375 32.984375 36.046875 32.984375 36 32.984375 C 35.171875 32.988281 34.488281 32.214844 34.515625 31.390625 L 34.515625 25.5 C 34.515625 24.691406 35.191406 23.953125 36 23.953125 Z M 31.546875 25.734375 C 32.429688 25.734375 33.113281 26.644531 32.984375 27.515625 L 32.984375 31.4375 C 33.015625 32.203125 32.449219 32.941406 31.6875 33.03125 C 30.816406 33.117188 29.996094 32.3125 30.03125 31.4375 L 30.03125 27.515625 C 29.902344 26.644531 30.667969 25.734375 31.546875 25.734375 Z M 40.5 27.609375 C 41.308594 27.609375 41.980469 28.347656 41.980469 29.15625 L 41.980469 31.4375 C 42.011719 32.203125 41.449219 32.941406 40.6875 33.03125 C 40.640625 33.03125 40.59375 33.03125 40.546875 33.03125 C 39.703125 33.0625 39.011719 32.277344 39.042969 31.4375 L 39.042969 29.15625 C 39.042969 28.347656 39.691406 27.609375 40.5 27.609375 Z M 27.703125 34.59375 C 28.269531 34.5625 28.855469 34.703125 29.296875 35.0625 L 36 42.046875 L 42.46875 35.296875 C 43.109375 34.617188 44.1875 34.371094 45.046875 34.734375 C 45.90625 35.097656 46.492188 36.050781 46.453125 36.984375 C 46.4375 37.578125 46.179688 38.164062 45.75 38.578125 L 37.546875 47.390625 C 37.160156 47.769531 36.636719 48.007812 36.09375 48.046875 C 35.429688 48.105469 34.742188 47.859375 34.265625 47.390625 L 26.0625 38.34375 C 25.328125 37.472656 25.355469 36.0625 26.15625 35.25 C 26.554688 34.84375 27.136719 34.625 27.703125 34.59375 Z M 27.703125 34.59375 "/>
</g>
</svg>
