<?xml version="1.0" encoding="UTF-8"?>
<svg xmlns="http://www.w3.org/2000/svg" xmlns:xlink="http://www.w3.org/1999/xlink" width="72pt" height="72pt" viewBox="0 0 72 72" version="1.1">
<g id="surface1">
<path style=" stroke:none;fill-rule:nonzero;fill:rgb(76.862745%,56.470588%,36.862745%);fill-opacity:1;" d="M 7.78125 12 C 6.765625 12.214844 5.976562 13.214844 6 14.25 L 6 56.25 C 6 57.429688 7.070312 58.5 8.25 58.5 L 63.75 58.5 C 64.929688 58.5 66 57.429688 66 56.25 L 66 18.796875 C 66 17.617188 64.929688 16.546875 63.75 16.546875 L 42 16.546875 L 42 14.25 C 42 13.070312 40.929688 12 39.75 12 L 8.25 12 C 8.09375 11.984375 7.9375 11.984375 7.78125 12 Z M 26.90625 24 L 45.046875 24 C 45.953125 24.011719 46.746094 24.925781 46.734375 25.921875 L 46.734375 46.125 C 46.726562 47.105469 45.941406 47.984375 45.046875 48 L 27.046875 48 C 26.140625 48.015625 25.320312 47.121094 25.3125 46.125 L 25.3125 25.921875 C 25.296875 24.972656 26.042969 24.082031 26.90625 24 Z M 28.546875 27 L 28.546875 42 L 43.734375 42 L 43.734375 27 Z M 28.546875 27 "/>
</g>
</svg>
