<?xml version="1.0" encoding="UTF-8"?>
<svg xmlns="http://www.w3.org/2000/svg" xmlns:xlink="http://www.w3.org/1999/xlink" width="96pt" height="96pt" viewBox="0 0 96 96" version="1.1">
<g id="surface1">
<path style=" stroke:none;fill-rule:nonzero;fill:rgb(76.862745%,56.470588%,36.862745%);fill-opacity:1;" d="M 10.375 16 C 9.023438 16.289062 7.96875 17.617188 8 19 L 8 75 C 8 76.570312 9.429688 78 11 78 L 85 78 C 86.570312 78 88 76.570312 88 75 L 88 25.0625 C 88 23.492188 86.570312 22.0625 85 22.0625 L 56 22.0625 L 56 19 C 56 17.429688 54.570312 16 53 16 L 11 16 C 10.792969 15.976562 10.582031 15.976562 10.375 16 Z M 35.875 32 L 60.0625 32 C 61.273438 32.015625 62.328125 33.238281 62.3125 34.5625 L 62.3125 61.5 C 62.300781 62.804688 61.253906 63.980469 60.0625 64 L 36.0625 64 C 34.851562 64.019531 33.761719 62.824219 33.75 61.5 L 33.75 34.5625 C 33.730469 33.296875 34.722656 32.109375 35.875 32 Z M 38.0625 36 L 38.0625 56 L 58.3125 56 L 58.3125 36 Z M 38.0625 36 "/>
</g>
</svg>
