<?xml version="1.0" encoding="UTF-8"?>
<svg xmlns="http://www.w3.org/2000/svg" xmlns:xlink="http://www.w3.org/1999/xlink" width="96pt" height="96pt" viewBox="0 0 96 96" version="1.1">
<g id="surface1">
<path style=" stroke:none;fill-rule:nonzero;fill:rgb(76.862745%,56.470588%,36.862745%);fill-opacity:1;" d="M 10.375 16 C 9.023438 16.289062 7.96875 17.617188 8 19 L 8 75 C 8 76.570312 9.429688 78 11 78 L 85 78 C 86.570312 78 88 76.570312 88 75 L 88 25.0625 C 88 23.492188 86.570312 22.0625 85 22.0625 L 56 22.0625 L 56 19 C 56 17.429688 54.570312 16 53 16 L 11 16 C 10.792969 15.976562 10.582031 15.976562 10.375 16 Z M 52.9375 32 C 55.773438 31.992188 58.582031 33.085938 60.75 35.25 C 65.082031 39.582031 65.082031 46.605469 60.75 50.9375 C 57.066406 54.621094 51.457031 55.144531 47.1875 52.5625 L 36.5 63.25 C 35.503906 64.246094 33.871094 64.246094 32.875 63.25 L 32.75 63.0625 C 31.753906 62.066406 31.753906 60.496094 32.75 59.5 L 43.4375 48.8125 C 40.863281 44.550781 41.378906 38.933594 45.0625 35.25 C 47.230469 33.082031 50.101562 32.007812 52.9375 32 Z M 53 35.75 C 51.246094 35.75 49.488281 36.511719 48 38 C 45.046875 40.953125 45.097656 45.015625 48 48 C 48.027344 48.027344 48.035156 48.03125 48.0625 48.0625 L 48.1875 48.1875 C 51.175781 51.082031 55.046875 50.953125 58 48 C 60.980469 45.019531 60.980469 40.980469 58 38 C 56.511719 36.511719 54.753906 35.75 53 35.75 Z M 53 35.75 "/>
</g>
</svg>
