<?xml version="1.0" encoding="UTF-8"?>
<svg xmlns="http://www.w3.org/2000/svg" xmlns:xlink="http://www.w3.org/1999/xlink" width="96pt" height="96pt" viewBox="0 0 96 96" version="1.1">
<g id="surface1">
<path style=" stroke:none;fill-rule:nonzero;fill:rgb(76.862745%,56.470588%,36.862745%);fill-opacity:1;" d="M 10.375 16 C 9.023438 16.289062 7.96875 17.617188 8 19 L 8 75 C 8 76.570312 9.429688 78 11 78 L 85 78 C 86.570312 78 88 76.570312 88 75 L 88 25.0625 C 88 23.492188 86.570312 22.0625 85 22.0625 L 56 22.0625 L 56 19 C 56 17.429688 54.570312 16 53 16 L 11 16 C 10.792969 15.976562 10.582031 15.976562 10.375 16 Z M 60.375 30.6875 C 60.375 30.6875 58.695312 36.359375 54.75 36.625 C 51.019531 36.878906 50.589844 37.929688 50.5 38.0625 L 54.4375 53.4375 C 54.464844 53.542969 54.476562 53.644531 54.5 53.75 C 55.210938 57.078125 53.292969 61.117188 49.75 63.6875 C 45.257812 66.949219 39.476562 66.707031 36.875 63.125 C 34.273438 59.542969 35.820312 53.949219 40.3125 50.6875 C 43.789062 48.164062 47.996094 47.835938 50.9375 49.4375 L 46.875 34.0625 L 46.75 34 C 46.75 34 48.929688 31.585938 51.5 30.9375 C 52.355469 30.71875 53.3125 30.691406 54.1875 31 C 57.679688 32.238281 60.375 30.6875 60.375 30.6875 Z M 60.375 30.6875 "/>
</g>
</svg>
