<?xml version="1.0" encoding="UTF-8"?>
<svg xmlns="http://www.w3.org/2000/svg" xmlns:xlink="http://www.w3.org/1999/xlink" width="72pt" height="72pt" viewBox="0 0 72 72" version="1.1">
<g id="surface1">
<path style=" stroke:none;fill-rule:nonzero;fill:rgb(76.862745%,56.470588%,36.862745%);fill-opacity:1;" d="M 32.109375 37.5 C 31.011719 37.613281 30.085938 38.644531 30.09375 39.75 L 30.09375 65.203125 C 30.09375 66.382812 31.164062 67.453125 32.34375 67.453125 L 66.796875 67.453125 C 67.976562 67.453125 69.046875 66.382812 69.046875 65.203125 L 69.046875 42.796875 C 69.046875 41.617188 67.976562 40.546875 66.796875 40.546875 L 52.640625 40.546875 L 52.640625 39.75 C 52.640625 38.570312 51.570312 37.5 50.390625 37.5 L 32.34375 37.5 C 32.265625 37.496094 32.1875 37.496094 32.109375 37.5 Z M 32.109375 37.5 "/>
<path style=" stroke:none;fill-rule:nonzero;fill:rgb(76.862745%,56.470588%,36.862745%);fill-opacity:1;" d="M 5.015625 4.546875 C 3.917969 4.660156 2.992188 5.691406 3 6.796875 L 3 32.25 C 3 33.429688 4.070312 34.5 5.25 34.5 L 39.703125 34.5 C 40.882812 34.5 41.953125 33.429688 41.953125 32.25 L 41.953125 9.796875 C 41.953125 8.617188 40.882812 7.546875 39.703125 7.546875 L 25.546875 7.546875 L 25.546875 6.796875 C 25.546875 5.617188 24.476562 4.546875 23.296875 4.546875 L 5.25 4.546875 C 5.171875 4.542969 5.09375 4.542969 5.015625 4.546875 Z M 5.015625 4.546875 "/>
</g>
</svg>
