<?xml version="1.0" encoding="UTF-8"?>
<svg xmlns="http://www.w3.org/2000/svg" xmlns:xlink="http://www.w3.org/1999/xlink" width="96pt" height="96pt" viewBox="0 0 96 96" version="1.1">
<g id="surface1">
<path style=" stroke:none;fill-rule:nonzero;fill:rgb(76.862745%,56.470588%,36.862745%);fill-opacity:1;" d="M 10.375 16 C 9.023438 16.289062 7.96875 17.617188 8 19 L 8 75 C 8 76.570312 9.429688 78 11 78 L 85 78 C 86.570312 78 88 76.570312 88 75 L 88 25.0625 C 88 23.492188 86.570312 22.0625 85 22.0625 L 56 22.0625 L 56 19 C 56 17.429688 54.570312 16 53 16 L 11 16 C 10.792969 15.976562 10.582031 15.976562 10.375 16 Z M 38 32 L 56 32.0625 L 60 36 L 60 62 C 60.011719 62.570312 60 64 58 64 L 38 64 C 37.40625 64.011719 36 64 36 62 L 36 34 C 35.980469 33.484375 36 32 38 32 Z M 40 36.0625 L 40 60.0625 L 44 60 L 44 48 L 56 48 L 56 38.0625 L 52 38.0625 L 52 36.0625 Z M 46 50 L 46 58 L 54 50 Z M 46 50 "/>
</g>
</svg>
