<?xml version="1.0" encoding="UTF-8"?>
<svg xmlns="http://www.w3.org/2000/svg" xmlns:xlink="http://www.w3.org/1999/xlink" width="72pt" height="72pt" viewBox="0 0 72 72" version="1.1">
<g id="surface1">
<path style=" stroke:none;fill-rule:nonzero;fill:rgb(76.862745%,56.470588%,36.862745%);fill-opacity:1;" d="M 7.78125 12 C 6.765625 12.214844 5.976562 13.214844 6 14.25 L 6 56.25 C 6 57.429688 7.070312 58.5 8.25 58.5 L 63.75 58.5 C 64.929688 58.5 66 57.429688 66 56.25 L 66 18.796875 C 66 17.617188 64.929688 16.546875 63.75 16.546875 L 42 16.546875 L 42 14.25 C 42 13.070312 40.929688 12 39.75 12 L 8.25 12 C 8.09375 11.984375 7.9375 11.984375 7.78125 12 Z M 41.714844 24.667969 C 42.15625 24.636719 42.613281 24.757812 43.027344 24.996094 C 44.125 25.632812 44.503906 27.035156 43.871094 28.136719 C 43.234375 29.238281 41.828125 29.617188 40.730469 28.980469 C 39.628906 28.34375 39.25 26.941406 39.886719 25.839844 C 40.28125 25.152344 40.976562 24.71875 41.714844 24.667969 Z M 35.996094 27.152344 C 36.921875 27.152344 37.816406 27.246094 38.667969 27.480469 C 38.816406 28.40625 39.386719 29.273438 40.261719 29.777344 C 41.132812 30.28125 42.152344 30.34375 43.027344 30.011719 C 44.726562 31.683594 45.816406 33.945312 45.980469 36.480469 L 42.699219 36.527344 C 42.394531 33.09375 39.507812 30.433594 35.996094 30.433594 C 34.984375 30.433594 34.042969 30.640625 33.183594 31.042969 L 31.589844 28.183594 C 32.925781 27.523438 34.402344 27.152344 35.996094 27.152344 Z M 30.464844 28.839844 L 32.152344 31.652344 C 30.421875 32.867188 29.292969 34.863281 29.292969 37.136719 C 29.292969 39.410156 30.421875 41.40625 32.152344 42.621094 L 30.464844 45.433594 C 28.449219 44.089844 26.960938 42.03125 26.339844 39.621094 C 27.066406 39.027344 27.511719 38.148438 27.511719 37.136719 C 27.511719 36.125 27.066406 35.246094 26.339844 34.652344 C 26.960938 32.242188 28.449219 30.1875 30.464844 28.839844 Z M 24.277344 34.839844 C 25.546875 34.839844 26.574219 35.867188 26.574219 37.136719 C 26.574219 38.40625 25.546875 39.433594 24.277344 39.433594 C 23.003906 39.433594 21.980469 38.40625 21.980469 37.136719 C 21.980469 35.867188 23.003906 34.839844 24.277344 34.839844 Z M 42.699219 37.746094 L 45.980469 37.792969 C 45.816406 40.328125 44.726562 42.589844 43.027344 44.261719 C 42.152344 43.929688 41.132812 43.992188 40.261719 44.496094 C 39.386719 45 38.816406 45.867188 38.667969 46.792969 C 37.816406 47.027344 36.921875 47.121094 35.996094 47.121094 C 34.402344 47.121094 32.925781 46.75 31.589844 46.089844 L 33.183594 43.230469 C 34.042969 43.632812 34.984375 43.839844 35.996094 43.839844 C 39.507812 43.839844 42.394531 41.179688 42.699219 37.746094 Z M 41.574219 45.011719 C 42.460938 44.902344 43.394531 45.3125 43.871094 46.136719 C 44.503906 47.238281 44.125 48.640625 43.027344 49.277344 C 41.925781 49.914062 40.519531 49.535156 39.886719 48.433594 C 39.25 47.332031 39.628906 45.929688 40.730469 45.292969 C 41.003906 45.132812 41.277344 45.046875 41.574219 45.011719 Z M 41.574219 45.011719 "/>
</g>
</svg>
