<?xml version="1.0" encoding="UTF-8"?>
<svg xmlns="http://www.w3.org/2000/svg" xmlns:xlink="http://www.w3.org/1999/xlink" width="72pt" height="72pt" viewBox="0 0 72 72" version="1.1">
<g id="surface1">
<path style=" stroke:none;fill-rule:nonzero;fill:rgb(76.862745%,56.470588%,36.862745%);fill-opacity:1;" d="M 7.78125 12 C 6.765625 12.214844 5.976562 13.214844 6 14.25 L 6 56.25 C 6 57.429688 7.070312 58.5 8.25 58.5 L 63.75 58.5 C 64.929688 58.5 66 57.429688 66 56.25 L 66 18.796875 C 66 17.617188 64.929688 16.546875 63.75 16.546875 L 42 16.546875 L 42 14.25 C 42 13.070312 40.929688 12 39.75 12 L 8.25 12 C 8.09375 11.984375 7.9375 11.984375 7.78125 12 Z M 45.28125 23.015625 C 45.28125 23.015625 44.023438 27.269531 41.0625 27.46875 C 38.265625 27.660156 37.945312 28.445312 37.875 28.546875 L 40.828125 40.078125 C 40.847656 40.15625 40.859375 40.234375 40.875 40.3125 C 41.410156 42.808594 39.96875 45.835938 37.3125 47.765625 C 33.941406 50.210938 29.609375 50.03125 27.65625 47.34375 C 25.703125 44.65625 26.863281 40.460938 30.234375 38.015625 C 32.84375 36.121094 35.996094 35.875 38.203125 37.078125 L 35.15625 25.546875 L 35.0625 25.5 C 35.0625 25.5 36.699219 23.691406 38.625 23.203125 C 39.265625 23.039062 39.984375 23.019531 40.640625 23.25 C 43.261719 24.179688 45.28125 23.015625 45.28125 23.015625 Z M 45.28125 23.015625 "/>
</g>
</svg>
