<?xml version="1.0" encoding="UTF-8"?>
<svg xmlns="http://www.w3.org/2000/svg" xmlns:xlink="http://www.w3.org/1999/xlink" width="96pt" height="96pt" viewBox="0 0 96 96" version="1.1">
<g id="surface1">
<path style=" stroke:none;fill-rule:nonzero;fill:rgb(76.862745%,56.470588%,36.862745%);fill-opacity:1;" d="M 10.375 16 C 9.023438 16.289062 7.96875 17.617188 8 19 L 8 75 C 8 76.570312 9.429688 78 11 78 L 85 78 C 86.570312 78 88 76.570312 88 75 L 88 25.0625 C 88 23.492188 86.570312 22.0625 85 22.0625 L 56 22.0625 L 56 19 C 56 17.429688 54.570312 16 53 16 L 11 16 C 10.792969 15.976562 10.582031 15.976562 10.375 16 Z M 48.125 32 C 52.222656 32 56.320312 33.570312 59.4375 36.6875 C 65.667969 42.917969 65.667969 53.082031 59.4375 59.3125 C 53.207031 65.542969 43.042969 65.542969 36.8125 59.3125 L 39.625 56.5 C 44.328125 61.203125 51.921875 61.203125 56.625 56.5 C 61.328125 51.796875 61.328125 44.203125 56.625 39.5 C 51.921875 34.796875 44.328125 34.796875 39.625 39.5 L 44 44 L 32 44 L 32 32 L 36.8125 36.6875 C 39.929688 33.570312 44.027344 32 48.125 32 Z M 47.8125 37.9375 C 48.941406 37.832031 50.039062 38.867188 50 40 L 50 47.125 L 53.4375 50.5625 C 54.191406 51.316406 54.191406 52.683594 53.4375 53.4375 C 52.683594 54.191406 51.316406 54.191406 50.5625 53.4375 L 46.875 49.6875 C 46.683594 49.570312 46.515625 49.421875 46.375 49.25 C 46.351562 49.210938 46.332031 49.167969 46.3125 49.125 C 45.945312 48.632812 45.828125 47.964844 46 47.375 L 46 40 C 45.976562 39.082031 46.667969 38.199219 47.5625 38 C 47.644531 37.972656 47.726562 37.953125 47.8125 37.9375 Z M 47.8125 37.9375 "/>
</g>
</svg>
