<?xml version="1.0" encoding="UTF-8"?>
<svg xmlns="http://www.w3.org/2000/svg" xmlns:xlink="http://www.w3.org/1999/xlink" width="72pt" height="72pt" viewBox="0 0 72 72" version="1.1">
<g id="surface1">
<path style=" stroke:none;fill-rule:nonzero;fill:rgb(76.862745%,56.470588%,36.862745%);fill-opacity:1;" d="M 7.78125 12 C 6.765625 12.214844 5.976562 13.214844 6 14.25 L 6 56.25 C 6 57.429688 7.070312 58.5 8.25 58.5 L 63.75 58.5 C 64.929688 58.5 66 57.429688 66 56.25 L 66 18.796875 C 66 17.617188 64.929688 16.546875 63.75 16.546875 L 42 16.546875 L 42 14.25 C 42 13.070312 40.929688 12 39.75 12 L 8.25 12 C 8.09375 11.984375 7.9375 11.984375 7.78125 12 Z M 40.5 28.546875 L 43.5 28.546875 C 48 28.546875 48 33.046875 48 33.046875 L 48 37.5 C 48 39 45 42.046875 45 42.046875 L 45 43.546875 L 49.5 46.546875 L 49.5 49.546875 L 33 49.546875 L 33 46.546875 L 39 43.546875 L 39 42.046875 C 39 42.046875 35.988281 39 36 37.5 L 36 33.046875 C 36 33.046875 36 28.546875 40.5 28.546875 Z M 30 31.546875 L 33 31.546875 L 33 37.5 C 33 39 36 42.046875 36 42.046875 L 30 45.046875 L 30 48.046875 L 22.5 48 L 22.5 46.5 L 28.5 43.546875 L 28.5 42.046875 C 28.5 42.046875 25.488281 39 25.5 37.5 L 25.5 36.046875 C 25.5 31.546875 30 31.546875 30 31.546875 Z M 30 31.546875 "/>
</g>
</svg>
