<?xml version="1.0" encoding="UTF-8"?>
<svg xmlns="http://www.w3.org/2000/svg" xmlns:xlink="http://www.w3.org/1999/xlink" width="96pt" height="96pt" viewBox="0 0 96 96" version="1.1">
<g id="surface1">
<path style=" stroke:none;fill-rule:nonzero;fill:rgb(76.862745%,56.470588%,36.862745%);fill-opacity:1;" d="M 11.6875 16 C 11.6875 16 8 16 8 20 L 8 24 C 8 24.378906 8.058594 24.6875 8.125 25 C 8.066406 25.3125 8 25.621094 8 26 L 8 34 C 8 38 12 38 12 38 L 83.6875 38 C 83.6875 38 87.6875 38 87.6875 34 L 87.6875 26 C 87.6875 26 87.6875 22 83.6875 22 L 52 22 L 52 20 C 52 20 52 16 48 16 Z M 14 28 C 15.105469 28 16 28.894531 16 30 C 16 31.105469 15.105469 32 14 32 C 12.894531 32 12 31.105469 12 30 C 12 28.894531 12.894531 28 14 28 Z M 14 28 "/>
<path style=" stroke:none;fill-rule:nonzero;fill:rgb(76.862745%,56.470588%,36.862745%);fill-opacity:1;" d="M 12 42 C 12 42 8.3125 42 8.3125 46 L 8.3125 54 C 8.3125 58 12.3125 58 12.3125 58 L 84 58 C 84 58 88 58 88 54 L 88 46 C 88 46 88 42 84 42 Z M 14 48 C 15.105469 48 16 48.894531 16 50 C 16 51.105469 15.105469 52 14 52 C 12.894531 52 12 51.105469 12 50 C 12 48.894531 12.894531 48 14 48 Z M 14 48 "/>
<path style=" stroke:none;fill-rule:nonzero;fill:rgb(76.862745%,56.470588%,36.862745%);fill-opacity:1;" d="M 12 62 C 12 62 8.3125 62 8.3125 66 L 8.3125 74 C 8.3125 78 12.3125 78 12.3125 78 L 84 78 C 84 78 88 78 88 74 L 88 66 C 88 66 88 62 84 62 Z M 14 68 C 15.105469 68 16 68.894531 16 70 C 16 71.105469 15.105469 72 14 72 C 12.894531 72 12 71.105469 12 70 C 12 68.894531 12.894531 68 14 68 Z M 14 68 "/>
</g>
</svg>
