<?xml version="1.0" encoding="UTF-8" standalone="no"?>
<svg
   xmlns:dc="http://purl.org/dc/elements/1.1/"
   xmlns:cc="http://creativecommons.org/ns#"
   xmlns:rdf="http://www.w3.org/1999/02/22-rdf-syntax-ns#"
   xmlns:svg="http://www.w3.org/2000/svg"
   xmlns="http://www.w3.org/2000/svg"
   xmlns:sodipodi="http://sodipodi.sourceforge.net/DTD/sodipodi-0.dtd"
   xmlns:inkscape="http://www.inkscape.org/namespaces/inkscape"
   width="16"
   height="16"
   viewBox="0 0 12.8 12.8"
   id="svg2"
   version="1.1"
   inkscape:version="0.91 r"
   sodipodi:docname="blue-document-open.svg">
  <metadata
     id="metadata30">
    <rdf:RDF>
      <cc:Work
         rdf:about="">
        <dc:format>image/svg+xml</dc:format>
        <dc:type
           rdf:resource="http://purl.org/dc/dcmitype/StillImage" />
      </cc:Work>
    </rdf:RDF>
  </metadata>
  <defs
     id="defs28" />
  <sodipodi:namedview
     pagecolor="#ffffff"
     bordercolor="#666666"
     borderopacity="1"
     objecttolerance="10"
     gridtolerance="10"
     guidetolerance="10"
     inkscape:pageopacity="0"
     inkscape:pageshadow="2"
     inkscape:window-width="1280"
     inkscape:window-height="969"
     id="namedview26"
     showgrid="true"
     inkscape:zoom="20.85965"
     inkscape:cx="13.091184"
     inkscape:cy="5.7631919"
     inkscape:window-x="0"
     inkscape:window-y="0"
     inkscape:window-maximized="1"
     inkscape:current-layer="svg2">
    <inkscape:grid
       type="xygrid"
       id="grid3016" />
  </sodipodi:namedview>
  <path
     sodipodi:nodetypes="ccccsssccccccc"
     inkscape:connector-curvature="0"
     id="path3782"
     d="m 1.6000008,0.8000003 c -0.397554,0 -0.79999995,0.3756943 -0.79999995,0.8 l 0,3.2 c -0.3721413,0 -0.80069690117,0.333838 -0.80000000116674,0.8 l 0,5.5999997 C 8.4883326e-7,11.681784 0.38555185,12 0.80000085,12 L 12.000001,12 c 0.430116,0 0.800836,-0.318218 0.8,-0.8 l 0,-4.7999997 c -5.05e-4,-0.4824152 -0.379342,-0.8 -0.8,-0.8 l -0.8,0 0,-4 c 0,-0.4458592 -0.382131,-0.8 -0.8,-0.8 z"
     style="font-size:medium;font-style:normal;font-variant:normal;font-weight:normal;font-stretch:normal;text-indent:0;text-align:start;text-decoration:none;line-height:normal;letter-spacing:normal;word-spacing:normal;text-transform:none;direction:ltr;block-progression:tb;writing-mode:lr-tb;text-anchor:start;baseline-shift:baseline;color:#000000;fill:#42a5f5;fill-opacity:1;fill-rule:nonzero;stroke:none;stroke-width:0.81800002;marker:none;visibility:visible;display:inline;overflow:visible;enable-background:accumulate;font-family:Sans;-inkscape-font-specification:Sans" />
  <path
     style="font-size:medium;font-style:normal;font-variant:normal;font-weight:normal;font-stretch:normal;text-indent:0;text-align:start;text-decoration:none;line-height:normal;letter-spacing:normal;word-spacing:normal;text-transform:none;direction:ltr;block-progression:tb;writing-mode:lr-tb;text-anchor:start;baseline-shift:baseline;color:#000000;fill:#000000;fill-opacity:0.32038838;fill-rule:nonzero;stroke:none;stroke-width:0.81800002;marker:none;visibility:visible;display:inline;overflow:visible;enable-background:accumulate;font-family:Sans;-inkscape-font-specification:Sans"
     d="m 1.6000008,0.8000003 c -0.397554,0 -0.79999995,0.3756943 -0.79999995,0.8 l 0,3.2 c -0.3721413,0 -0.80069690117,0.333838 -0.80000000116674,0.8 l 0,5.5999997 C 8.4883326e-7,11.681784 0.37612085,12 0.80000085,12 L 12.000001,12 c 0.433242,0 0.800836,-0.318218 0.8,-0.8 l 0,-4.7999997 c -5.05e-4,-0.4824152 -0.379342,-0.8 -0.8,-0.8 l -0.8,0 0,-4 c 0,-0.4458592 -0.382131,-0.8 -0.8,-0.8 z m -0.79999995,4.8 6.39999995,0 0,0.8 4.8000002,0 0,4.7999997 -11.20000015,0 z"
     id="path3768"
     inkscape:connector-curvature="0"
     sodipodi:nodetypes="ssccsssccscsssccccccc" />
  <g
     transform="matrix(0.94912455,0,0,0.31637485,-0.16930959,1.5435635)"
     id="g6">
    <path
       style="fill:#f8f8f8"
       d="m 2.707031,2.707031 7.585938,0 0,7.585938 -7.585938,0 z"
       id="path8"
       inkscape:connector-curvature="0" />
  </g>
  <path
     style="fill:#cccccc"
     inkscape:connector-curvature="0"
     id="path12"
     d="m 3.2,3.2 5.6,0 0,0.8 -5.6,0 z" />
  <path
     style="fill:#f8f8f8;fill-opacity:1;stroke:none"
     d="m 12,6 0,1 -2,0 C 10,6.4534308 9.6097531,6 9,6 z"
     id="path3024"
     inkscape:connector-curvature="0"
     sodipodi:nodetypes="ccccc"
     transform="scale(0.8,0.8)" />
  <path
     transform="scale(0.8,0.8)"
     sodipodi:nodetypes="ccccc"
     inkscape:connector-curvature="0"
     id="path3794"
     d="m 11,6 0,1 -1,0 C 10,6.4534308 9.6097531,6 9,6 z"
     style="fill:#cccccc;fill-opacity:1;stroke:none" />
</svg>
