<!-- Created with Inkscape (http://www.inkscape.org/) -->
<svg xmlns="http://www.w3.org/2000/svg" viewBox="0 0 128 128">
 <g transform="translate(0,-924.3622)">
  <g transform="translate(0,1.7382813e-5)">
   <path transform="translate(0,924.3622)" d="m 17 8 c -2.77 0 -5 2.23 -5 5 l 0 47 c 0 2.77 2.23 5 5 5 l 94 0 c 2.77 0 5 -2.23 5 -5 l 0 -41 -11 -11" style="fill:#e3e1cf;fill-opacity:1;stroke:none"/>
   <rect rx="8" y="977.36" x="4" height="60" width="120" style="fill:#bdbdbd;fill-opacity:1;stroke:none"/>
   <path d="m 12 977.36 c -4.432 0 -8 3.568 -8 8 l 0 2 c 0 -4.432 3.568 -8 8 -8 l 104 0 c 4.432 0 8 3.568 8 8 l 0 -2 c 0 -4.432 -3.568 -8 -8 -8 l -104 0 z" style="fill:#fff;opacity:0.1;fill-opacity:1;stroke:none"/>
   <path d="m 105 932.36 0 11 11 0 z" style="fill:#fff;fill-opacity:1;stroke:none"/>
   <path d="m 105 943.36 11 0 0 11 z" style="fill:#000;opacity:0.2;fill-opacity:1;stroke:none"/>
   <rect rx="1" y="943.36" x="31" height="4" width="60" style="fill:#a1a195;fill-opacity:1;stroke:none"/>
   <rect width="70" height="4" x="31" y="955.36" rx="1" style="fill:#a1a195;fill-opacity:1;stroke:none"/>
   <rect rx="1" y="967.36" x="31" height="4" width="70" style="fill:#a1a195;fill-opacity:1;stroke:none"/>
  </g>
  <path d="m 119.99 1014.36 c 0.234 11.355 -5.813 21.945 -15.805 27.69 -9.996 5.746 -22.38 5.746 -32.376 0 -9.996 -5.746 -16.04 -16.335 -15.805 -27.691 -0.234 -11.355 5.809 -21.945 15.805 -27.691 9.996 -5.746 22.38 -5.746 32.376 0 9.993 5.746 16.04 16.335 15.805 27.691 z" style="fill:#859900;fill-rule:evenodd"/>
  <path d="m 105.5 994.24 c -0.676 0.246 -1.25 0.699 -1.637 1.301 l -17.442 16.878 -10.883 -10.386 c -0.43 -1.441 -1.805 -2.402 -3.32 -2.32 -1.516 0.082 -2.777 1.184 -3.047 2.664 -0.27 1.477 0.52 2.949 1.91 3.551 l 13.11 12.984 c 1.258 1.156 3.199 1.156 4.457 0 l 19.669 -19.476 c 0.77 -1.012 0.875 -2.375 0.27 -3.492 -0.605 -1.113 -1.813 -1.781 -3.09 -1.703 z" style="fill:#fff"/>
 </g>
</svg>
