<?xml version="1.0" encoding="UTF-8" standalone="no"?>
<svg
   xmlns:dc="http://purl.org/dc/elements/1.1/"
   xmlns:cc="http://creativecommons.org/ns#"
   xmlns:rdf="http://www.w3.org/1999/02/22-rdf-syntax-ns#"
   xmlns:svg="http://www.w3.org/2000/svg"
   xmlns="http://www.w3.org/2000/svg"
   xmlns:xlink="http://www.w3.org/1999/xlink"
   xmlns:sodipodi="http://sodipodi.sourceforge.net/DTD/sodipodi-0.dtd"
   xmlns:inkscape="http://www.inkscape.org/namespaces/inkscape"
   viewBox="0 0 48 48"
   id="svg3062"
   version="1.1"
   inkscape:version="0.91 r"
   width="100%"
   height="100%"
   sodipodi:docname="athena.svg">
  <metadata
     id="metadata3145">
    <rdf:RDF>
      <cc:Work
         rdf:about="">
        <dc:format>image/svg+xml</dc:format>
        <dc:type
           rdf:resource="http://purl.org/dc/dcmitype/StillImage" />
      </cc:Work>
    </rdf:RDF>
  </metadata>
  <sodipodi:namedview
     pagecolor="#ffffff"
     bordercolor="#666666"
     borderopacity="1"
     objecttolerance="10"
     gridtolerance="10"
     guidetolerance="10"
     inkscape:pageopacity="0"
     inkscape:pageshadow="2"
     inkscape:window-width="1280"
     inkscape:window-height="998"
     id="namedview3143"
     showgrid="false"
     inkscape:zoom="9.8333331"
     inkscape:cx="21.553195"
     inkscape:cy="25.479767"
     inkscape:window-x="0"
     inkscape:window-y="0"
     inkscape:window-maximized="1"
     inkscape:current-layer="svg3062" />
  <defs
     id="defs3064">
    <linearGradient
       id="linearGradient3764"
       x1="1"
       x2="47"
       gradientUnits="userSpaceOnUse"
       gradientTransform="matrix(0,-1,1,0,-1.5e-6,47.999998)">
      <stop
         stop-color="#b44732"
         stop-opacity="1"
         id="stop3067" />
      <stop
         offset="1"
         stop-color="#c44e36"
         stop-opacity="1"
         id="stop3069" />
    </linearGradient>
    <linearGradient
       inkscape:collect="always"
       xlink:href="#linearGradient3764"
       id="linearGradient5286"
       gradientUnits="userSpaceOnUse"
       gradientTransform="translate(-48.000001,0.00221547)"
       x1="1"
       x2="47" />
  </defs>
  <g
     id="g21">
    <path
       style="opacity:0.02000002"
       inkscape:connector-curvature="0"
       d="m 1,43 0,0.25 c 0,2.216 1.784,4 4,4 l 38,0 c 2.216,0 4,-1.784 4,-4 L 47,43 c 0,2.216 -1.784,4 -4,4 L 5,47 C 2.784,47 1,45.216 1,43 z m 0,0.5 0,0.5 c 0,2.216 1.784,4 4,4 l 38,0 c 2.216,0 4,-1.784 4,-4 l 0,-0.5 c 0,2.216 -1.784,4 -4,4 l -38,0 c -2.216,0 -4,-1.784 -4,-4 z"
       id="path23" />
    <path
       style="opacity:0.05"
       inkscape:connector-curvature="0"
       d="m 1,43.25 0,0.25 c 0,2.216 1.784,4 4,4 l 38,0 c 2.216,0 4,-1.784 4,-4 l 0,-0.25 c 0,2.216 -1.784,4 -4,4 l -38,0 c -2.216,0 -4,-1.784 -4,-4 z"
       id="path25" />
    <path
       style="opacity:0.1"
       inkscape:connector-curvature="0"
       d="m 1,43 0,0.25 c 0,2.216 1.784,4 4,4 l 38,0 c 2.216,0 4,-1.784 4,-4 L 47,43 c 0,2.216 -1.784,4 -4,4 L 5,47 C 2.784,47 1,45.216 1,43 z"
       id="path27" />
  </g>
  <rect
     id="rect31"
     transform="matrix(0,-1,1,0,0,0)"
     rx="4"
     y="1"
     x="-47"
     height="46"
     width="46"
     style="fill:url(#linearGradient5286);fill-opacity:1.0" />
  <g
     id="g53">
    <g
       transform="translate(0,-1004.3622)"
       id="g55">
      <path
         style="opacity:0.1"
         inkscape:connector-curvature="0"
         d="m 1,1043.36 0,4 c 0,2.216 1.784,4 4,4 l 38,0 c 2.216,0 4,-1.784 4,-4 l 0,-4 c 0,2.216 -1.784,4 -4,4 l -38,0 c -2.216,0 -4,-1.784 -4,-4 z"
         id="path57" />
    </g>
  </g>
  <rect
     style="fill:#fffdf0;fill-opacity:1;stroke:none"
     id="rect3799"
     width="10.999998"
     height="3.9999745"
     x="14.000002"
     y="17" />
  <path
     style="fill:none;stroke:none"
     d="m 24.000002,16.5 -2.500001,1.5 1.500001,0 z"
     id="path3801"
     inkscape:connector-curvature="0" />
  <path
     style="fill:#000000;fill-opacity:0.10196078;stroke:none"
     d="m 27.125,13.999998 c -1.904011,0 -2.522056,1.50138 -3.5,3 l -9.125,0 c -1.385,0 -2.5,1.115001 -2.5,2.500001 l 0,0.999999 0,8.500001 0,1.5 0,0.875 L 12,31.5 c 0.0064,0.13867 0.0359,0.274096 0.0625,0.40625 0.119268,0.691079 0.513177,1.280983 1.09375,1.65625 0.27748,0.179355 0.597249,0.308611 0.9375,0.375 0.170125,0.03504 0.319348,0.0625 0.5,0.0625 l 18.812501,0 c 0.180652,0 0.329874,-0.02746 0.5,-0.0625 0.340249,-0.06639 0.660019,-0.195644 0.937499,-0.375 0.580571,-0.375267 0.974484,-0.965171 1.093752,-1.65625 0.02657,-0.132155 0.05609,-0.267577 0.0625,-0.40625 l 0,-0.125001 0,-0.875 0,-13.875 c 0,-1.461945 -1.148532,-2.625001 -2.593748,-2.625001 l -6.28125,0 z"
     id="rect3375"
     inkscape:connector-curvature="0" />
  <path
     inkscape:connector-curvature="0"
     style="fill:#f57c00;fill-opacity:1;stroke:none"
     d="M 14.5,15 C 13.115,15 12,16.115 12,17.5 l 0,9.5 23,0 0,-9.5 C 35,16.115 33.885,15 32.5,15 l -18,0 z"
     id="rect2987-2" />
  <path
     style="opacity:0.2;fill:#ffffff;fill-opacity:1;stroke:none"
     d="M 14.5,15 C 13.115,15 12,16.115 12,17.5 l 0,1 C 12,17.115 13.115,16 14.5,16 l 18.000001,0 C 33.885,16 35,17.115 35,18.5 l 0,-1 C 35,16.115 33.885,15 32.500001,15 L 14.5,15 z"
     id="rect3797"
     inkscape:connector-curvature="0" />
  <path
     style="fill:#ffb300;fill-opacity:1;stroke:none"
     d="m 14.608696,19 4.173913,0 c 5.739133,-0.527778 4.695653,-6 8.347827,-6 l 6.26087,0 c 1.445217,0 2.608693,1.176944 2.608693,2.63889 l 0,14.722223 C 35.999999,31.823055 34.836523,33 33.391306,33 l -18.78261,0 C 13.163479,33 12,31.823055 12,30.361113 l 0,-8.388888 C 12,20.388892 13.043478,19 14.608696,19 z"
     id="rect3776"
     inkscape:connector-curvature="0"
     sodipodi:nodetypes="cccsssssscc" />
  <path
     style="opacity:0.15;fill:#000000;fill-opacity:1;stroke:none"
     d="m 12,29.499999 0,1.000003 C 12,31.885 13.163479,33 14.608696,33 l 18.78261,0 c 1.445217,0 2.608693,-1.115 2.608693,-2.499998 l 0,-1.000003 c 0,1.385001 -1.163476,2.500002 -2.608693,2.500002 l -18.78261,0 C 13.163479,32.000001 12,30.885 12,29.499999 z"
     id="path3786"
     inkscape:connector-curvature="0"
     sodipodi:nodetypes="csssscssc" />
  <path
     d="m 18.394529,21.405736 -0.527737,1.211211 0.140975,0.320333 c -0.850283,0.05757 -0.683475,0.231024 -0.683475,0.231024 0,0 -0.980189,0.181571 -0.980189,0.31738 0,0.0089 0,0.006 0,0.01181 -0.196333,0.09521 -0.388975,0.228071 -0.573499,0.372 -2.465234,3.312566 0.172714,4.079446 -0.412594,6.002919 -0.126953,0.417762 -0.657643,1.127068 -0.657643,1.127068 0,0 1.069499,0.132859 1.510879,-1.11895 0.357238,-1.011926 -0.853236,-3.047589 0.04871,-3.958398 1.279854,-1.291665 2.229043,1.369164 1.828259,1.738212 -0.406691,0.369047 -0.305572,0.470165 -0.305572,0.470165 l 0.605236,1.222285 0.602285,-1.222285 c 0,0 0.104074,-0.101118 -0.302617,-0.470165 -0.403738,-0.369048 0.547666,-3.032829 1.825307,-1.738212 0.905641,0.913761 -0.308524,2.946472 0.05167,3.958398 0.44138,1.251071 1.510877,1.11895 1.510877,1.11895 0,0 -0.527735,-0.715211 -0.657641,-1.127068 C 20.832451,27.951895 23.46228,27.185015 21,23.869497 c -0.184524,-0.138762 -0.377903,-0.273833 -0.570547,-0.369048 0,-0.0059 0,-0.003 0,-0.01181 0,-0.138761 -0.977236,-0.31738 -0.977236,-0.31738 0,0 0.167546,-0.172713 -0.686427,-0.231023 l 0.138762,-0.320332 -0.524786,-1.211212 m 0.01181,-0.003"
     id="path3145"
     inkscape:connector-curvature="0"
     style="fill:#000000;fill-opacity:0.09803922;fill-rule:nonzero;stroke:none" />
  <path
     style="fill:#fff8e1;fill-opacity:1;fill-rule:nonzero;stroke:none"
     inkscape:connector-curvature="0"
     id="path77"
     d="m 18.394529,20.25963 -0.527737,1.211212 0.140975,0.320332 c -0.850283,0.05757 -0.683475,0.231025 -0.683475,0.231025 0,0 -0.980189,0.181571 -0.980189,0.31738 0,0.0089 0,0.006 0,0.01181 -0.196333,0.09521 -0.388975,0.228071 -0.573499,0.371999 -2.465234,3.312566 0.172714,4.079446 -0.412594,6.00292 -0.126953,0.417761 -0.657643,1.127068 -0.657643,1.127068 0,0 1.069499,0.132858 1.510879,-1.11895 0.357238,-1.011927 -0.853236,-3.047589 0.04871,-3.958398 1.279854,-1.291666 2.229043,1.369164 1.828259,1.738212 -0.406691,0.369047 -0.305572,0.470165 -0.305572,0.470165 l 0.605236,1.222285 0.602285,-1.222285 c 0,0 0.104074,-0.101118 -0.302617,-0.470165 -0.403738,-0.369048 0.547666,-3.032829 1.825307,-1.738212 0.905641,0.913761 -0.308524,2.946471 0.05167,3.958398 0.44138,1.25107 1.510877,1.11895 1.510877,1.11895 0,0 -0.527735,-0.715212 -0.657641,-1.127068 C 20.832451,26.80579 23.46228,26.03891 21,22.723391 c -0.184524,-0.138763 -0.377903,-0.273833 -0.570547,-0.369047 0,-0.0059 0,-0.003 0,-0.01181 0,-0.138761 -0.977236,-0.31738 -0.977236,-0.31738 0,0 0.167546,-0.172713 -0.686427,-0.231023 l 0.138762,-0.320333 -0.524786,-1.211212 m 0.01181,-0.003" />
</svg>
