<?xml version="1.0" encoding="UTF-8" standalone="no"?>
<svg
   xmlns:dc="http://purl.org/dc/elements/1.1/"
   xmlns:cc="http://creativecommons.org/ns#"
   xmlns:rdf="http://www.w3.org/1999/02/22-rdf-syntax-ns#"
   xmlns:svg="http://www.w3.org/2000/svg"
   xmlns="http://www.w3.org/2000/svg"
   xmlns:xlink="http://www.w3.org/1999/xlink"
   xmlns:sodipodi="http://sodipodi.sourceforge.net/DTD/sodipodi-0.dtd"
   xmlns:inkscape="http://www.inkscape.org/namespaces/inkscape"
   width="48"
   viewBox="0 0 13.546667 13.546667"
   height="48"
   id="svg2"
   version="1.1"
   inkscape:version="0.91 r"
   sodipodi:docname="dolphin.svg">
  <metadata
     id="metadata331">
    <rdf:RDF>
      <cc:Work
         rdf:about="">
        <dc:format>image/svg+xml</dc:format>
        <dc:type
           rdf:resource="http://purl.org/dc/dcmitype/StillImage" />
        <dc:title />
      </cc:Work>
    </rdf:RDF>
  </metadata>
  <sodipodi:namedview
     pagecolor="#ffffff"
     bordercolor="#666666"
     borderopacity="1"
     objecttolerance="10"
     gridtolerance="10"
     guidetolerance="10"
     inkscape:pageopacity="0"
     inkscape:pageshadow="2"
     inkscape:window-width="1280"
     inkscape:window-height="998"
     id="namedview329"
     showgrid="true"
     inkscape:zoom="8.569263"
     inkscape:cx="20.140668"
     inkscape:cy="23.374777"
     inkscape:window-x="0"
     inkscape:window-y="0"
     inkscape:window-maximized="1"
     inkscape:current-layer="layer3"
     showguides="true"
     inkscape:guide-bbox="true">
    <inkscape:grid
       type="xygrid"
       id="grid3308" />
  </sodipodi:namedview>
  <defs
     id="defs4">
    <linearGradient
       id="linearGradient4140">
      <stop
         style="stop-color:#2684da;stop-opacity:1;"
         offset="0"
         id="stop4143" />
      <stop
         style="stop-color:#3f96e5;stop-opacity:1;"
         offset="1"
         id="stop4145" />
    </linearGradient>
    <linearGradient
       inkscape:collect="always"
       xlink:href="#linearGradient4140"
       id="linearGradient5286"
       gradientUnits="userSpaceOnUse"
       gradientTransform="matrix(0.28222223,0,0,0.28222223,-13.546666,6.2509917e-4)"
       x1="1"
       x2="47" />
  </defs>
  <g
     inkscape:groupmode="layer"
     id="layer3"
     inkscape:label="Symbol">
    <g
       transform="scale(0.28222223,0.28222223)"
       id="g21">
      <path
         style="opacity:0.02000002"
         inkscape:connector-curvature="0"
         d="m 1,43 0,0.25 c 0,2.216 1.784,4 4,4 l 38,0 c 2.216,0 4,-1.784 4,-4 L 47,43 c 0,2.216 -1.784,4 -4,4 L 5,47 C 2.784,47 1,45.216 1,43 z m 0,0.5 0,0.5 c 0,2.216 1.784,4 4,4 l 38,0 c 2.216,0 4,-1.784 4,-4 l 0,-0.5 c 0,2.216 -1.784,4 -4,4 l -38,0 c -2.216,0 -4,-1.784 -4,-4 z"
         id="path23" />
      <path
         style="opacity:0.05"
         inkscape:connector-curvature="0"
         d="m 1,43.25 0,0.25 c 0,2.216 1.784,4 4,4 l 38,0 c 2.216,0 4,-1.784 4,-4 l 0,-0.25 c 0,2.216 -1.784,4 -4,4 l -38,0 c -2.216,0 -4,-1.784 -4,-4 z"
         id="path25" />
      <path
         style="opacity:0.1"
         inkscape:connector-curvature="0"
         d="m 1,43 0,0.25 c 0,2.216 1.784,4 4,4 l 38,0 c 2.216,0 4,-1.784 4,-4 L 47,43 c 0,2.216 -1.784,4 -4,4 L 5,47 C 2.784,47 1,45.216 1,43 z"
         id="path27" />
    </g>
    <rect
       id="rect31"
       transform="matrix(0,-1,1,0,0,0)"
       rx="1.128889"
       y="0.28222239"
       x="-13.264444"
       height="12.982223"
       width="12.982223"
       style="fill:url(#linearGradient5286);fill-opacity:1.0" />
    <g
       transform="scale(0.28222223,0.28222223)"
       id="g53">
      <g
         transform="translate(0,-1004.3622)"
         id="g55">
        <path
           style="opacity:0.1"
           inkscape:connector-curvature="0"
           d="m 1,1043.36 0,4 c 0,2.216 1.784,4 4,4 l 38,0 c 2.216,0 4,-1.784 4,-4 l 0,-4 c 0,2.216 -1.784,4 -4,4 l -38,0 c -2.216,0 -4,-1.784 -4,-4 z"
           id="path57" />
      </g>
    </g>
    <rect
       style="fill:#fffdf0;fill-opacity:1;stroke:none"
       id="rect3799"
       width="3.104444"
       height="1.1288817"
       x="3.9511118"
       y="4.7977762" />
    <path
       style="fill:none;stroke:none"
       d="m 6.773334,4.6566648 -0.7055557,0.4233335 0.4233335,0 z"
       id="path3801"
       inkscape:connector-curvature="0" />
    <path
       style="fill:#000000;fill-opacity:0.10196078;stroke:none"
       d="m 7.6552777,3.951109 c -0.537354,0 -0.7117802,0.4237227 -0.9877778,0.8466667 l -2.5752776,0 c -0.3908778,0 -0.7055556,0.3146778 -0.7055556,0.7055556 l 0,0.2822222 0,2.3988891 0,0.4233333 0,0.2469448 0,0.03528 c 0.00181,0.03914 0.010132,0.07736 0.017639,0.1146522 0.03366,0.1950379 0.1448299,0.3615219 0.3086805,0.4674309 0.078311,0.05062 0.168557,0.0871 0.2645835,0.105833 0.048013,0.0099 0.090127,0.017639 0.1411109,0.017639 l 5.309306,0 c 0.050984,0 0.093098,-0.0077 0.1411111,-0.017639 0.096026,-0.01874 0.186272,-0.05522 0.264583,-0.105833 0.16385,-0.105909 0.2750213,-0.272393 0.3086813,-0.4674309 0.0075,-0.0373 0.01583,-0.07552 0.01764,-0.1146522 l 0,-0.03528 0,-0.2469448 0,-3.9158335 c 0,-0.4125934 -0.3241414,-0.7408334 -0.7320136,-0.7408334 l -1.7727084,0 z"
       id="rect3375"
       inkscape:connector-curvature="0" />
    <path
       inkscape:connector-curvature="0"
       style="fill:#f57c00;fill-opacity:1;stroke:none"
       d="m 4.0922223,4.2333344 c -0.3908777,0 -0.7055555,0.3146779 -0.7055555,0.7055557 l 0,2.6811111 6.4911113,0 0,-2.6811111 c 0,-0.3908778 -0.3146778,-0.7055557 -0.7055556,-0.7055557 l -5.0800003,0 z"
       id="rect2987-2" />
    <path
       style="opacity:0.2;fill:#ffffff;fill-opacity:1;stroke:none"
       d="m 4.0922223,4.2333344 c -0.3908777,0 -0.7055555,0.3146779 -0.7055555,0.7055557 l 0,0.2822223 c 0,-0.3908778 0.3146778,-0.7055557 0.7055555,-0.7055557 l 5.0800005,0 c 0.3908775,0 0.7055553,0.3146779 0.7055553,0.7055557 l 0,-0.2822223 c 0,-0.3908778 -0.3146778,-0.7055557 -0.7055553,-0.7055557 l -5.0800006,0 z"
       id="rect3797"
       inkscape:connector-curvature="0" />
    <path
       style="fill:#ffb300;fill-opacity:1;stroke:none"
       d="m 4.1228987,5.3622206 1.1779711,0 C 6.9205807,5.21327 6.6260874,3.6688872 7.6568122,3.6688872 l 1.7669567,0 c 0.4078722,0 0.7362311,0.3321599 0.7362311,0.7447533 l 0,4.1549384 c 0,0.4125928 -0.3283589,0.7447529 -0.7362311,0.7447529 l -5.3008702,0 c -0.4078724,0 -0.7362318,-0.3321601 -0.7362318,-0.7447529 l 0,-2.3675303 c 0,-0.4468519 0.2944927,-0.838828 0.7362318,-0.838828 z"
       id="rect3776"
       inkscape:connector-curvature="0"
       sodipodi:nodetypes="cccsssssscc" />
    <path
       d="m 5.9223886,6.3285072 c -0.00828,0 -0.013741,0.00212 -0.017975,0.00899 -0.022027,0.038602 0.02132,0.1639256 -0.011632,0.2293193 -0.032418,0.065394 -0.032418,0.081964 -0.2939023,0.049531 C 5.3373949,6.5839131 4.9449914,6.6983085 4.803853,6.8394958 4.6606,6.9813881 4.4170878,7.3407902 4.3668697,7.5480765 4.3187664,7.7553628 4.3407919,7.7662913 4.4061627,7.734035 4.4708291,7.7008976 4.5259802,7.4118247 4.9113363,7.2218121 5.2988062,7.0310945 5.479238,7.1832101 5.479238,7.1832101 c 0,0 -0.3331996,-0.044065 -0.5774166,0.157756 -0.245098,0.2023511 -0.3978658,0.3594021 -0.3924039,0.421447 0.00547,0.059931 0.026783,0.047591 0.066075,0 0.037883,-0.049529 0.266419,-0.3490025 0.5390045,-0.4475339 0.2725859,-0.099236 0.3867652,-0.092186 0.49002,-0.037898 0.1039596,0.054466 0.1259846,0.1073449 -0.020616,0.1452414 -0.1480103,0.039308 -0.2079192,0.022033 -0.2079192,0.022033 0,0 0.1252797,0.1142184 0.3043022,0.1142184 0.1802557,0 0.2898539,-0.011103 0.2898539,-0.011103 0,0 0.4459688,0.4633976 0.561029,0.5562885 0.1136518,0.092186 0.2401643,0.048824 0.2401643,-0.00617 0,-0.054466 -0.055154,-0.2072866 -0.055154,-0.2072866 0,0 0.1141791,-0.2568166 -0.017272,-0.5453603 C 6.5681658,7.0555948 6.2088879,6.7568278 6.2088879,6.7568278 c 0,0 -0.037884,-0.1639256 -0.1191126,-0.2726803 C 6.0237046,6.396016 5.9569239,6.329212 5.9225649,6.3278019 m -1.855592,1.3205689 c -0.015858,7.055e-4 -0.03242,0.00476 -0.047575,0.01375 -0.1252797,0.070857 -0.059909,0.1968867 0.049513,0.1968867 0.1087162,0 0.2285353,-0.044064 0.2285353,-0.044064 0,0 -0.1169985,-0.1707995 -0.2306495,-0.1658642 m 0.2408692,0.2099293 c 0,0 -0.2443934,0.037191 -0.271881,0.1521155 -0.027488,0.1142187 0.1025495,0.1473567 0.1844843,0.087428 0.081935,-0.059931 0.087396,-0.2395426 0.087396,-0.2395426 m 0,0"
       id="path4159"
       inkscape:connector-curvature="0"
       style="fill:#000000;fill-opacity:0.09803922;fill-rule:nonzero;stroke:none" />
    <path
       style="fill:#fff8e1;fill-opacity:1;fill-rule:nonzero;stroke:none"
       inkscape:connector-curvature="0"
       id="path77"
       d="m 5.9223886,6.0151493 c -0.00828,0 -0.013741,0.00212 -0.017975,0.00899 -0.022027,0.038601 0.02132,0.1639253 -0.011632,0.2293191 -0.032418,0.065394 -0.032418,0.081964 -0.2939022,0.049531 C 5.3373949,6.2705556 4.9449914,6.3849509 4.803853,6.526138 4.6606,6.6680303 4.4170878,7.0274324 4.3668697,7.2347187 4.3187667,7.442005 4.3407919,7.4529335 4.4061627,7.4206772 4.4708287,7.38754 4.5259802,7.0984669 4.9113363,6.9084545 5.2988062,6.7177369 5.479238,6.8698525 5.479238,6.8698525 c 0,0 -0.3331996,-0.044065 -0.5774166,0.157756 -0.245098,0.2023511 -0.3978658,0.3594024 -0.3924039,0.4214469 0.00547,0.059931 0.026783,0.047591 0.066075,0 0.037883,-0.049529 0.2664188,-0.3490022 0.5390042,-0.4475336 0.2725859,-0.099236 0.3867653,-0.092186 0.4900201,-0.037897 0.1039596,0.054466 0.1259846,0.107345 -0.020616,0.1452415 -0.1480103,0.039308 -0.2079192,0.022033 -0.2079192,0.022033 0,0 0.1252798,0.1142184 0.3043022,0.1142184 0.1802557,0 0.2898538,-0.011103 0.2898538,-0.011103 0,0 0.4459687,0.4633976 0.5610293,0.5562885 0.1136517,0.092186 0.2401643,0.048824 0.2401643,-0.00617 0,-0.054466 -0.055154,-0.2072863 -0.055154,-0.2072863 0,0 0.1141792,-0.2568163 -0.017272,-0.5453603 C 6.5681655,6.7422361 6.2088877,6.4434691 6.2088877,6.4434691 c 0,0 -0.037884,-0.1639256 -0.1191127,-0.2726804 C 6.0237046,6.0826582 5.9569239,6.0158543 5.9225649,6.0144442 m -1.855592,1.3205687 c -0.015858,7.056e-4 -0.03242,0.00476 -0.047575,0.01375 -0.1252797,0.070857 -0.059909,0.1968867 0.049513,0.1968867 0.1087162,0 0.2285353,-0.044065 0.2285353,-0.044065 0,0 -0.1169985,-0.1707995 -0.2306495,-0.1658643 m 0.2408692,0.2099301 c 0,0 -0.2443934,0.037191 -0.271881,0.1521159 -0.027488,0.1142187 0.1025495,0.1473564 0.1844843,0.087428 0.081935,-0.059931 0.087396,-0.2395426 0.087396,-0.2395426 m 0,0" />
    <path
       style="opacity:0.15;fill:#000000;fill-opacity:1;stroke:none"
       d="m 3.3866668,8.3255537 0,0.2822231 c 0,0.3908769 0.3283595,0.705555 0.7362319,0.705555 l 5.3008702,0 C 9.8316411,9.3133318 10.16,8.9986537 10.16,8.6077768 l 0,-0.2822231 c 0,0.3908781 -0.3283589,0.7055561 -0.7362311,0.7055561 l -5.3008702,0 c -0.4078724,0 -0.7362319,-0.314678 -0.7362319,-0.7055561 z"
       id="path3786"
       inkscape:connector-curvature="0"
       sodipodi:nodetypes="csssscssc" />
  </g>
</svg>
