<?xml version="1.0" encoding="UTF-8" standalone="no"?>
<svg
   xmlns:dc="http://purl.org/dc/elements/1.1/"
   xmlns:cc="http://creativecommons.org/ns#"
   xmlns:rdf="http://www.w3.org/1999/02/22-rdf-syntax-ns#"
   xmlns:svg="http://www.w3.org/2000/svg"
   xmlns="http://www.w3.org/2000/svg"
   xmlns:xlink="http://www.w3.org/1999/xlink"
   xmlns:sodipodi="http://sodipodi.sourceforge.net/DTD/sodipodi-0.dtd"
   xmlns:inkscape="http://www.inkscape.org/namespaces/inkscape"
   viewBox="0 0 48 48"
   id="svg3849"
   version="1.1"
   inkscape:version="0.48.5 r10040"
   width="100%"
   height="100%"
   sodipodi:docname="file-manager-blue.svg">
  <metadata
     id="metadata3928">
    <rdf:RDF>
      <cc:Work
         rdf:about="">
        <dc:format>image/svg+xml</dc:format>
        <dc:type
           rdf:resource="http://purl.org/dc/dcmitype/StillImage" />
      </cc:Work>
    </rdf:RDF>
  </metadata>
  <sodipodi:namedview
     pagecolor="#ffffff"
     bordercolor="#666666"
     borderopacity="1"
     objecttolerance="10"
     gridtolerance="10"
     guidetolerance="10"
     inkscape:pageopacity="0"
     inkscape:pageshadow="2"
     inkscape:window-width="1280"
     inkscape:window-height="998"
     id="namedview3926"
     showgrid="false"
     inkscape:zoom="9.8333333"
     inkscape:cx="27.284298"
     inkscape:cy="27.916963"
     inkscape:window-x="0"
     inkscape:window-y="0"
     inkscape:window-maximized="1"
     inkscape:current-layer="svg3849" />
  <defs
     id="defs3851">
    <linearGradient
       id="linearGradient3764"
       x1="1"
       x2="47"
       gradientUnits="userSpaceOnUse"
       gradientTransform="matrix(0,-1,1,0,-1.5e-6,47.999998)">
      <stop
         stop-color="#51b8df"
         stop-opacity="1"
         id="stop3854" />
      <stop
         offset="1"
         stop-color="#62bee2"
         stop-opacity="1"
         id="stop3856" />
    </linearGradient>
    <clipPath
       id="clipPath-745425309">
      <g
         transform="translate(0,-1004.3622)"
         id="g3859">
        <path
           d="m -24 13 c 0 1.105 -0.672 2 -1.5 2 -0.828 0 -1.5 -0.895 -1.5 -2 0 -1.105 0.672 -2 1.5 -2 0.828 0 1.5 0.895 1.5 2 z"
           transform="matrix(15.333333,0,0,11.5,414.99999,878.8622)"
           fill="#1890d0"
           id="path3861" />
      </g>
    </clipPath>
    <clipPath
       id="clipPath-753614708">
      <g
         transform="translate(0,-1004.3622)"
         id="g3864">
        <path
           d="m -24 13 c 0 1.105 -0.672 2 -1.5 2 -0.828 0 -1.5 -0.895 -1.5 -2 0 -1.105 0.672 -2 1.5 -2 0.828 0 1.5 0.895 1.5 2 z"
           transform="matrix(15.333333,0,0,11.5,414.99999,878.8622)"
           fill="#1890d0"
           id="path3866" />
      </g>
    </clipPath>
    <linearGradient
       inkscape:collect="always"
       xlink:href="#linearGradient4140"
       id="linearGradient5286"
       gradientUnits="userSpaceOnUse"
       gradientTransform="translate(-48,0.00221512)"
       x1="1"
       x2="47" />
    <linearGradient
       id="linearGradient4140-8">
      <stop
         style="stop-color:#6e6196;stop-opacity:1;"
         offset="0"
         id="stop4143-5" />
      <stop
         style="stop-color:#847baf;stop-opacity:1;"
         offset="1"
         id="stop4145-4" />
    </linearGradient>
    <linearGradient
       inkscape:collect="always"
       xlink:href="#linearGradient4140"
       id="linearGradient4147"
       x1="-27"
       y1="13"
       x2="-24"
       y2="13"
       gradientUnits="userSpaceOnUse" />
    <linearGradient
       id="linearGradient4140">
      <stop
         style="stop-color:#2684da;stop-opacity:1;"
         offset="0"
         id="stop4143" />
      <stop
         style="stop-color:#3f96e5;stop-opacity:1;"
         offset="1"
         id="stop4145" />
    </linearGradient>
    <linearGradient
       y2="13"
       x2="-24"
       y1="13"
       x1="-27"
       gradientUnits="userSpaceOnUse"
       id="linearGradient4225"
       xlink:href="#linearGradient4140"
       inkscape:collect="always" />
  </defs>
  <g
     id="g21">
    <path
       style="opacity:0.02000002"
       inkscape:connector-curvature="0"
       d="m 1,43 0,0.25 c 0,2.216 1.784,4 4,4 l 38,0 c 2.216,0 4,-1.784 4,-4 L 47,43 c 0,2.216 -1.784,4 -4,4 L 5,47 C 2.784,47 1,45.216 1,43 z m 0,0.5 0,0.5 c 0,2.216 1.784,4 4,4 l 38,0 c 2.216,0 4,-1.784 4,-4 l 0,-0.5 c 0,2.216 -1.784,4 -4,4 l -38,0 c -2.216,0 -4,-1.784 -4,-4 z"
       id="path23" />
    <path
       style="opacity:0.05"
       inkscape:connector-curvature="0"
       d="m 1,43.25 0,0.25 c 0,2.216 1.784,4 4,4 l 38,0 c 2.216,0 4,-1.784 4,-4 l 0,-0.25 c 0,2.216 -1.784,4 -4,4 l -38,0 c -2.216,0 -4,-1.784 -4,-4 z"
       id="path25" />
    <path
       style="opacity:0.1"
       inkscape:connector-curvature="0"
       d="m 1,43 0,0.25 c 0,2.216 1.784,4 4,4 l 38,0 c 2.216,0 4,-1.784 4,-4 L 47,43 c 0,2.216 -1.784,4 -4,4 L 5,47 C 2.784,47 1,45.216 1,43 z"
       id="path27" />
  </g>
  <rect
     id="rect31"
     transform="matrix(0,-1,1,0,0,0)"
     rx="4"
     y="1"
     x="-47"
     height="46"
     width="46"
     style="fill:url(#linearGradient5286);fill-opacity:1.0" />
  <g
     id="g53">
    <g
       transform="translate(0,-1004.3622)"
       id="g55">
      <path
         style="opacity:0.1"
         inkscape:connector-curvature="0"
         d="m 1,1043.36 0,4 c 0,2.216 1.784,4 4,4 l 38,0 c 2.216,0 4,-1.784 4,-4 l 0,-4 c 0,2.216 -1.784,4 -4,4 l -38,0 c -2.216,0 -4,-1.784 -4,-4 z"
         id="path57" />
    </g>
  </g>
  <rect
     style="fill:#fffdf0;fill-opacity:1;stroke:none"
     id="rect3799"
     width="10.999998"
     height="3.9999745"
     x="14.000002"
     y="17.000002" />
  <path
     style="fill:none;stroke:none"
     d="m 24.000002,16.5 -2.5,1.5 1.5,0 z"
     id="path3801"
     inkscape:connector-curvature="0" />
  <path
     style="fill:#000000;fill-opacity:0.10196078;stroke:none"
     d="m 27.125,13.999999 c -1.904011,0 -2.522056,1.50138 -3.5,3 l -9.125,0 c -1.385,0 -2.5,1.115 -2.5,2.5 l 0,1 0,8.5 0,1.5 0,0.875 L 12,31.5 c 0.0064,0.13867 0.0359,0.274096 0.0625,0.40625 0.119267,0.691079 0.513176,1.280983 1.093749,1.65625 0.27748,0.179355 0.59725,0.308611 0.937501,0.375 C 14.263875,33.97254 14.413098,34 14.593749,34 l 18.812501,0 c 0.180652,0 0.329875,-0.02746 0.5,-0.0625 0.340249,-0.06639 0.660019,-0.195644 0.937499,-0.375 0.580571,-0.375267 0.974485,-0.965171 1.093752,-1.65625 0.02658,-0.132155 0.05609,-0.267577 0.0625,-0.40625 l 0,-0.125001 0,-0.875 0,-13.875 c 0,-1.461945 -1.148531,-2.625 -2.593748,-2.625 l -6.28125,0 z"
     id="rect3375"
     inkscape:connector-curvature="0" />
  <path
     style="fill:#f57c00;fill-opacity:1;stroke:none"
     d="m 14.5,15 c -1.385,0 -2.499999,1.115 -2.499999,2.5 l 0,9.5 L 35,27 35,17.5 C 35,16.115 33.885,15 32.5,15 l -18,0 z"
     id="rect2987-2"
     inkscape:connector-curvature="0" />
  <path
     style="opacity:0.2;fill:#ffffff;fill-opacity:1;stroke:none"
     d="M 14.5,15 C 13.115,15 12,16.115 12,17.5 l 0,1 C 12,17.115 13.115,16 14.5,16 l 18.000001,0 C 33.885,16 35,17.115 35,18.5 l 0,-1 C 35,16.115 33.885,15 32.500001,15 L 14.5,15 z"
     id="rect3797"
     inkscape:connector-curvature="0" />
  <path
     style="fill:#ffb300;fill-opacity:1;stroke:none"
     d="m 14.608696,19 4.173913,0 c 5.739133,-0.527777 4.695653,-6 8.347827,-6 l 6.26087,0 c 1.445217,0 2.608693,1.176945 2.608693,2.63889 l 0,14.722223 C 35.999999,31.823055 34.836523,33 33.391306,33 l -18.78261,0 c -1.445217,0 -2.608695,-1.176945 -2.608695,-2.638887 l 0,-8.388888 C 12.000001,20.388892 13.043479,19 14.608696,19 z"
     id="rect3776"
     inkscape:connector-curvature="0"
     sodipodi:nodetypes="cccsssssscc" />
  <path
     style="opacity:0.15;fill:#000000;fill-opacity:1;stroke:none"
     d="m 12,29.499999 0,1.000003 C 12,31.885 13.163479,33 14.608696,33 l 18.78261,0 c 1.445217,0 2.608693,-1.115 2.608693,-2.499998 l 0,-1.000003 c 0,1.385001 -1.163476,2.500002 -2.608693,2.500002 l -18.78261,0 C 13.163479,32.000001 12,30.885 12,29.499999 z"
     id="path3786"
     inkscape:connector-curvature="0"
     sodipodi:nodetypes="csssscssc" />
</svg>
