<svg xmlns="http://www.w3.org/2000/svg" viewBox="0 0 256 256">
 <g transform="translate(0,-796.3622)">
  <rect width="144" height="96" x="16" y="844.36" rx="15.652" ry="17.5" style="fill:#388e3c;fill-opacity:1;stroke:none"/>
  <path d="m 31.652 844.36 c -8.671 0 -15.652 8.919 -15.652 19.999 l 0 7.999 c 0 -11.08 6.981 -19.998 15.652 -19.998 l 112.7 0 c 8.671 0 15.652 8.919 15.652 19.998 l 0 -7.999 c 0 -11.08 -6.981 -19.999 -15.652 -19.999 z" style="fill:#fff;opacity:0.2;fill-opacity:1;stroke:none"/>
  <path d="m 31.652 868.36 25.04 0 c 34.435 -3.555 28.17 -40 50.09 -40 l 37.565 0 c 8.671 0 15.652 7.929 15.652 17.778 l 0 76.44 c 0 9.849 -6.981 17.778 -15.652 17.778 l -112.7 0 c -8.671 0 -15.652 -7.929 -15.652 -17.778 l 0 -33.774 c 0 -10.666 6.261 -20.448 15.652 -20.448 z" style="fill:#66bb6a;fill-opacity:1;stroke:none"/>
  <path d="m 16 915.47 0 7.111 c 0 9.849 6.981 17.778 15.652 17.778 l 112.7 0 c 8.671 0 15.652 -7.929 15.652 -17.778 l 0 -7.111 c 0 9.849 -6.981 16.889 -15.652 16.889 l -112.7 0 c -8.671 0 -15.652 -7.04 -15.652 -16.889 z" style="fill:#000;opacity:0.15;fill-opacity:1;stroke:none"/>
  <rect width="144" height="96" x="96" y="924.36" rx="15.652" ry="17.5" style="fill:#388e3c;fill-opacity:1;stroke:none"/>
  <path d="m 111.65 924.36 c -8.671 0 -15.652 8.919 -15.652 19.999 l 0 7.999 c 0 -11.08 6.981 -19.998 15.652 -19.998 l 112.7 0 c 8.671 0 15.652 8.919 15.652 19.998 l 0 -7.999 c 0 -11.08 -6.981 -19.999 -15.652 -19.999 z" style="fill:#fff;opacity:0.2;fill-opacity:1;stroke:none"/>
  <path d="m 111.65 948.36 25.04 0 c 34.435 -3.555 28.17 -40 50.09 -40 l 37.565 0 c 8.671 0 15.652 7.929 15.652 17.778 l 0 76.44 c 0 9.849 -6.981 17.778 -15.652 17.778 l -112.7 0 c -8.671 0 -15.652 -7.929 -15.652 -17.778 l 0 -33.776 c 0 -10.666 6.261 -20.444 15.652 -20.445 z" style="fill:#66bb6a;fill-opacity:1;stroke:none"/>
  <path d="m 96 995.47 0 7.111 c 0 9.849 6.981 17.778 15.652 17.778 l 112.7 0 c 8.671 0 15.652 -7.929 15.652 -17.778 l 0 -7.111 c 0 9.849 -6.981 16.889 -15.652 16.889 l -112.7 0 c -8.671 0 -15.652 -7.04 -15.652 -16.889 z" style="fill:#000;opacity:0.15;fill-opacity:1;stroke:none"/>
 </g>
</svg>
