<?xml version="1.0" encoding="UTF-8" standalone="no"?>
<!-- Created with Inkscape (http://www.inkscape.org/) -->

<svg
   xmlns:dc="http://purl.org/dc/elements/1.1/"
   xmlns:cc="http://creativecommons.org/ns#"
   xmlns:rdf="http://www.w3.org/1999/02/22-rdf-syntax-ns#"
   xmlns:svg="http://www.w3.org/2000/svg"
   xmlns="http://www.w3.org/2000/svg"
   xmlns:xlink="http://www.w3.org/1999/xlink"
   xmlns:sodipodi="http://sodipodi.sourceforge.net/DTD/sodipodi-0.dtd"
   xmlns:inkscape="http://www.inkscape.org/namespaces/inkscape"
   width="256"
   height="256"
   id="svg2"
   version="1.1"
   inkscape:version="0.91 r"
   sodipodi:docname="green-folder-templates.svg">
  <defs
     id="defs4">
    <linearGradient
       id="linearGradient3886-9">
      <stop
         style="stop-color:#000000;stop-opacity:1;"
         offset="0"
         id="stop3888-3" />
      <stop
         style="stop-color:#000000;stop-opacity:0.19607843;"
         offset="1"
         id="stop3890-7" />
    </linearGradient>
    <radialGradient
       r="24"
       fy="40.5"
       fx="24"
       cy="40.5"
       cx="24"
       gradientTransform="matrix(6.6666668,0,0,1.1111108,-32,964.6958)"
       gradientUnits="userSpaceOnUse"
       id="radialGradient3098"
       xlink:href="#linearGradient3886-9"
       inkscape:collect="always" />
  </defs>
  <sodipodi:namedview
     id="base"
     pagecolor="#ffffff"
     bordercolor="#666666"
     borderopacity="1.0"
     inkscape:pageopacity="0.0"
     inkscape:pageshadow="2"
     inkscape:zoom="2.2034729"
     inkscape:cx="174.62087"
     inkscape:cy="92.494937"
     inkscape:document-units="px"
     inkscape:current-layer="layer1"
     showgrid="true"
     inkscape:window-width="1280"
     inkscape:window-height="998"
     inkscape:window-x="0"
     inkscape:window-y="0"
     inkscape:window-maximized="1">
    <inkscape:grid
       type="xygrid"
       id="grid2990"
       empspacing="5"
       visible="true"
       enabled="true"
       snapvisiblegridlinesonly="true" />
  </sodipodi:namedview>
  <metadata
     id="metadata7">
    <rdf:RDF>
      <cc:Work
         rdf:about="">
        <dc:format>image/svg+xml</dc:format>
        <dc:type
           rdf:resource="http://purl.org/dc/dcmitype/StillImage" />
        <dc:title />
      </cc:Work>
    </rdf:RDF>
  </metadata>
  <g
     inkscape:label="Body"
     inkscape:groupmode="layer"
     id="layer1"
     transform="translate(0,-796.3622)">
    <path
       inkscape:connector-curvature="0"
       style="opacity:0.1;fill:url(#radialGradient3098);fill-opacity:1;stroke:none"
       d="m 128,983.0286 c -52.40826,0 -98.815842,4.1768 -128,10.6672 l 0,32 c 29.184158,6.4896 75.59174,10.6664 128,10.6664 52.40826,0 98.81584,-4.1768 128,-10.6664 l 0,-32 c -29.18416,-6.4904 -75.59174,-10.6672 -128,-10.6672 z"
       id="path3868" />
    <rect
       style="fill:#388e3c;fill-opacity:1;stroke:none"
       id="rect2987"
       width="240"
       height="167.99963"
       x="8"
       y="852.36218"
       rx="26.086956"
       ry="26.249928" />
    <path
       style="opacity:0.2;fill:#ffffff;fill-opacity:1;stroke:none"
       d="M 34.086956,849.6958 C 19.634782,849.6958 8,861.5886 8,876.3622 l 0,10.6664 c 0,-14.7728 11.634782,-26.6664 26.086956,-26.6664 l 187.826084,0 c 14.45218,0 26.08696,11.8936 26.08696,26.6664 l 0,-10.6664 c 0,-14.7736 -11.63478,-26.6664 -26.08696,-26.6664 l -187.826084,0 z"
       id="rect3797"
       inkscape:connector-curvature="0" />
    <path
       style="fill:#66bb6a;fill-opacity:1;stroke:none"
       d="m 34.086956,892.3622 41.739132,0 c 57.391302,-5.3336 46.956522,-64 83.478252,-64 l 62.6087,0 c 14.45218,0 26.08696,11.8936 26.08696,26.6664 l 0,138.6672 c 0,14.7728 -11.63478,26.6664 -26.08696,26.6664 l -187.826084,0 C 19.634782,1020.3622 8,1008.4686 8,993.6958 l 0,-74.6672 c 0,-16 10.434782,-26.6664 26.086956,-26.6664 z"
       id="rect3776"
       inkscape:connector-curvature="0"
       sodipodi:nodetypes="cccsssssscc" />
    <path
       style="opacity:0.15;fill:#000000;fill-opacity:1;stroke:none"
       d="m 8,983.0286 0,10.6672 c 0,14.7728 11.634782,26.6664 26.086956,26.6664 l 187.826084,0 c 14.45218,0 26.08696,-11.8936 26.08696,-26.6664 l 0,-10.6672 c 0,14.7736 -11.63478,29.3336 -26.08696,29.3336 l -187.826084,0 C 19.634782,1012.3622 8,997.8022 8,983.0286 z"
       id="path3786"
       inkscape:connector-curvature="0"
       sodipodi:nodetypes="csssscssc" />
    <g
       style="fill:#000000;fill-opacity:0.09803922"
       transform="matrix(5.5384616,0,0,5.5384616,32,-4832.1054)"
       id="g3043">
      <path
         sodipodi:nodetypes="csccccccccccccccccccccccscccccccccccccccccccccccscccccccccccscccccccccccc"
         inkscape:connector-curvature="0"
         style="line-height:normal;color:#000000;fill:#000000;fill-opacity:0.09803922"
         d="m 1,1039.3622 c 0,0 -1,0.038 -1,1 l 0,1.8889 1.4444444,0 0,-1.4444 1.4444445,0 0,-1.4445 -1.7951389,0 z m 3.3333333,0 0,1.4445 1.4444445,0 0,-1.4445 z m 2.8888889,0 0,1.4445 1.4444445,0 0,-1.4445 z m 2.8888888,0 0,1.4445 1.444445,0 0,1.4444 1.444444,0 0,-1.8889 c 0,-1 -1,-1 -1,-1 z M 0,1043.6955 l 0,1.4445 1.4444444,0 0,-1.4445 z m 11.555556,0 0,1.4445 1.444444,0 0,-1.4445 z M 0,1046.5844 l 0,1.4445 1.4444444,0 0,-1.4445 z m 11.555556,0 0,1.4445 1.444444,0 0,-1.4445 z M 0,1049.4733 l 0,1.8889 c 0,1 1,1 1,1 l 1.8888889,0 0,-1.4444 -1.4444445,0 0,-1.4445 z m 11.555556,0 0,1.4445 -1.444445,0 0,1.4444 1.888889,0 c 0,0 1,0 1,-1 l 0,-1.8889 z m -7.2222227,1.4445 0,1.4444 1.4444445,0 0,-1.4444 z m 2.8888889,0 0,1.4444 1.4444445,0 0,-1.4444 z"
         id="path3045" />
    </g>
    <g
       id="g4017"
       transform="matrix(5.5384616,0,0,5.5384616,32,-4840.1054)"
       style="fill:#fff8e1;fill-opacity:1">
      <path
         id="path4019"
         d="m 1,1039.3622 c 0,0 -1,0.038 -1,1 l 0,1.8889 1.4444444,0 0,-1.4444 1.4444445,0 0,-1.4445 -1.7951389,0 z m 3.3333333,0 0,1.4445 1.4444445,0 0,-1.4445 z m 2.8888889,0 0,1.4445 1.4444445,0 0,-1.4445 z m 2.8888888,0 0,1.4445 1.444445,0 0,1.4444 1.444444,0 0,-1.8889 c 0,-1 -1,-1 -1,-1 z M 0,1043.6955 l 0,1.4445 1.4444444,0 0,-1.4445 z m 11.555556,0 0,1.4445 1.444444,0 0,-1.4445 z M 0,1046.5844 l 0,1.4445 1.4444444,0 0,-1.4445 z m 11.555556,0 0,1.4445 1.444444,0 0,-1.4445 z M 0,1049.4733 l 0,1.8889 c 0,1 1,1 1,1 l 1.8888889,0 0,-1.4444 -1.4444445,0 0,-1.4445 z m 11.555556,0 0,1.4445 -1.444445,0 0,1.4444 1.888889,0 c 0,0 1,0 1,-1 l 0,-1.8889 z m -7.2222227,1.4445 0,1.4444 1.4444445,0 0,-1.4444 z m 2.8888889,0 0,1.4444 1.4444445,0 0,-1.4444 z"
         style="line-height:normal;color:#000000;fill:#fff8e1;fill-opacity:1"
         inkscape:connector-curvature="0"
         sodipodi:nodetypes="csccccccccccccccccccccccscccccccccccccccccccccccscccccccccccscccccccccccc" />
    </g>
  </g>
</svg>
