<!-- Created with Inkscape (http://www.inkscape.org/) -->
<svg xmlns="http://www.w3.org/2000/svg" viewBox="0 0 256 256">
 <defs>
  <radialGradient r="24" cy="40.5" cx="24" gradientTransform="matrix(6.6666668,0,0,1.1111108,-32,964.6958)" gradientUnits="userSpaceOnUse" id="radialGradient3098">
   <stop style="stop-color:#000;stop-opacity:1"/>
   <stop offset="1" style="stop-color:#000;stop-opacity:0.196"/>
  </radialGradient>
 </defs>
 <g transform="translate(0,-796.3622)">
  <path d="m 128 983.03 c -52.41 0 -98.82 4.177 -128 10.667 l 0 32 c 29.18 6.49 75.59 10.666 128 10.666 52.41 0 98.82 -4.177 128 -10.666 l 0 -32 c -29.18 -6.49 -75.59 -10.667 -128 -10.667 z" style="fill:url(#radialGradient3098);opacity:0.1;fill-opacity:1;stroke:none"/>
  <rect width="240" height="168" x="8" y="852.36" rx="26.09" ry="26.25" style="fill:#757575;fill-opacity:1;stroke:none"/>
  <path d="m 34.09 849.7 c -14.452 0 -26.09 11.893 -26.09 26.666 l 0 10.666 c 0 -14.773 11.635 -26.666 26.09 -26.666 l 187.83 0 c 14.452 0 26.09 11.894 26.09 26.666 l 0 -10.666 c 0 -14.774 -11.635 -26.666 -26.09 -26.666 l -187.83 0 z" style="fill:#fff;opacity:0.2;fill-opacity:1;stroke:none"/>
  <path d="m 34.09 892.36 41.739 0 c 57.39 -5.334 46.957 -64 83.48 -64 l 62.61 0 c 14.452 0 26.09 11.894 26.09 26.666 l 0 138.67 c 0 14.773 -11.635 26.666 -26.09 26.666 l -187.83 0 c -14.452 0 -26.09 -11.894 -26.09 -26.666 l 0 -74.67 c 0 -16 10.435 -26.666 26.09 -26.666 z" style="fill:#bdbdbd;fill-opacity:1;stroke:none"/>
  <path d="m 92.63 932.21 c -2.602 0.08 -5.161 1.746 -5.571 4.922 -0.655 5.082 4.26 3.176 8.193 3.176 3.932 0 5.243 8.258 4.26 12.704 -0.983 4.447 -11.435 14.95 -35.06 4.447 -19.454 -8.647 -29.17 2.866 -29.657 3.096 1.841 17.18 16.852 35.81 35.06 35.81 19.456 0 35.23 -20.526 35.23 -39.38 0 -2.166 -0.258 -4.298 -0.655 -6.352 -0.362 -1.038 -0.718 -2.074 -0.983 -3.02 -0.476 -1.692 -1.014 -3.118 -1.475 -4.446 -0.02 -0.08 0.02 -0.112 0 -0.16 -1.862 -4.01 -4.474 -7.632 -7.701 -10.64 -0.014 -0.08 -0.067 0.08 -0.082 0 -0.504 -0.12 -1.036 -0.168 -1.557 -0.16 z" style="fill:#000;fill-opacity:0.098;color:#000"/>
  <path d="m 8 983.03 0 10.667 c 0 14.773 11.635 26.666 26.09 26.666 l 187.83 0 c 14.452 0 26.09 -11.894 26.09 -26.666 l 0 -10.667 c 0 14.774 -11.635 29.334 -26.09 29.334 l -187.83 0 c -14.452 0 -26.09 -14.56 -26.09 -29.334 z" style="fill:#000;opacity:0.15;fill-opacity:1;stroke:none"/>
  <path d="m 91.63 950.18 c 0 1.962 -1.59 3.552 -3.552 3.552 -1.962 0 -3.552 -1.59 -3.552 -3.552 0 -1.962 1.59 -3.553 3.552 -3.553 1.962 0 3.552 1.59 3.552 3.553 z" style="fill:#000;fill-opacity:0.098;color:#000"/>
  <path d="m 92.63 924.21 c -2.602 0.08 -5.161 1.746 -5.571 4.922 -0.655 5.082 4.26 3.176 8.193 3.176 3.932 0 5.243 8.258 4.26 12.704 -0.983 4.447 -11.435 14.95 -35.06 4.447 -19.454 -8.647 -29.17 2.866 -29.657 3.096 1.841 17.18 16.852 35.81 35.06 35.81 19.456 0 35.23 -20.526 35.23 -39.38 0 -2.166 -0.258 -4.298 -0.655 -6.352 -0.362 -1.038 -0.718 -2.074 -0.983 -3.02 -0.476 -1.692 -1.014 -3.118 -1.475 -4.446 -0.02 -0.08 0.02 -0.112 0 -0.16 -1.862 -4.01 -4.474 -7.632 -7.701 -10.64 -0.014 -0.08 -0.067 0.08 -0.082 0 -0.504 -0.12 -1.036 -0.168 -1.557 -0.16 z" style="fill:#fff8e1;fill-opacity:1;color:#000"/>
  <path d="m 80.969 937.75 c 0 0.982 -0.795 1.776 -1.776 1.776 -0.981 0 -1.776 -0.792 -1.776 -1.776 0 -0.981 0.795 -1.776 1.776 -1.776 0.981 0 1.776 0.792 1.776 1.776 z" style="fill:#000;fill-opacity:0.098;color:#000"/>
  <path d="m 91.63 942.18 c 0 1.962 -1.59 3.552 -3.552 3.552 -1.962 0 -3.552 -1.59 -3.552 -3.552 0 -1.962 1.59 -3.553 3.552 -3.553 1.962 0 3.552 1.59 3.552 3.553 z" style="fill:#fff8e1;fill-opacity:1;color:#000"/>
  <path d="m 80.969 929.75 c 0 0.982 -0.795 1.776 -1.776 1.776 -0.981 0 -1.776 -0.792 -1.776 -1.776 0 -0.981 0.795 -1.776 1.776 -1.776 0.981 0 1.776 0.792 1.776 1.776 z" style="fill:#fff8e1;fill-opacity:1;color:#000"/>
 </g>
</svg>
