<!-- Created with Inkscape (http://www.inkscape.org/) -->
<svg xmlns="http://www.w3.org/2000/svg" viewBox="0 0 256 256">
 <defs>
  <radialGradient r="24" cy="40.5" cx="24" gradientTransform="matrix(6.6666668,0,0,1.1111108,-32,964.6958)" gradientUnits="userSpaceOnUse" id="radialGradient3053">
   <stop style="stop-color:#000;stop-opacity:1"/>
   <stop offset="1" style="stop-color:#000;stop-opacity:0.196"/>
  </radialGradient>
 </defs>
 <g transform="translate(0,-796.3622)">
  <path d="m 128 983.03 c -52.41 0 -98.82 4.177 -128 10.667 l 0 32 c 29.18 6.49 75.59 10.666 128 10.666 52.41 0 98.82 -4.177 128 -10.666 l 0 -32 c -29.18 -6.49 -75.59 -10.667 -128 -10.667 z" style="fill:url(#radialGradient3053);opacity:0.1;fill-opacity:1;stroke:none"/>
  <rect width="240" height="168" x="8" y="852.36" rx="26.09" ry="26.25" style="fill:#ec407a;fill-opacity:1;stroke:none"/>
  <path d="m 34.09 849.7 c -14.452 0 -26.09 11.893 -26.09 26.666 l 0 10.666 c 0 -14.773 11.635 -26.666 26.09 -26.666 l 187.83 0 c 14.452 0 26.09 11.894 26.09 26.666 l 0 -10.666 c 0 -14.774 -11.635 -26.666 -26.09 -26.666 l -187.83 0 z" style="fill:#fff;opacity:0.2;fill-opacity:1;stroke:none"/>
  <path d="m 34.09 892.36 41.739 0 c 57.39 -5.334 46.957 -64 83.48 -64 l 62.61 0 c 14.452 0 26.09 11.894 26.09 26.666 l 0 138.67 c 0 14.773 -11.635 26.666 -26.09 26.666 l -187.83 0 c -14.452 0 -26.09 -11.894 -26.09 -26.666 l 0 -74.67 c 0 -16 10.435 -26.666 26.09 -26.666 z" style="fill:#f06292;fill-opacity:1;stroke:none"/>
  <path d="m 8 983.03 0 10.667 c 0 14.773 11.635 26.666 26.09 26.666 l 187.83 0 c 14.452 0 26.09 -11.894 26.09 -26.666 l 0 -10.667 c 0 14.774 -11.635 29.334 -26.09 29.334 l -187.83 0 c -14.452 0 -26.09 -14.56 -26.09 -29.334 z" style="fill:#000;opacity:0.15;fill-opacity:1;stroke:none"/>
  <path d="m 40 924.36 c -4.986 0 -8 3.02 -8 8 l 0 37 0 19 c 0 4.984 3.01 8 8 8 l 56 0 c 4.986 0 8 -3.02 8 -8 l 0 -5.5 0 -50.5 c 0 -4.985 -3.01 -8 -8 -8 l -56 0 z m 0 8 56 0 0 41 -16.75 -19.75 -10 9.75 -14.75 -16.5 -14.5 14.5 0 -29 z" style="fill:#000;fill-opacity:0.098;fill-rule:evenodd"/>
  <g transform="matrix(4.4999996,0,0,4.4984136,132.89569,-3696.6306)" style="fill:#fff8e1;fill-opacity:1">
   <g transform="translate(-22.421265,1025.4767)">
    <g transform="translate(0,-1036.3622)" style="fill-rule:evenodd">
     <path d="m 0.045 1046.8 c 0.229 -0.168 0.76 -0.668 1.63 -1.533 0.867 -0.87 2.027 -2.06 3.529 -3.624 0.983 1.398 1.706 2.406 2.241 3.069 0.522 0.655 0.812 0.942 0.882 0.862 0.555 -0.497 1.023 -0.92 1.426 -1.29 0.397 -0.37 0.705 -0.674 0.949 -0.922 1.221 1.536 2.235 2.801 3.123 3.87 0.873 1.061 1.566 1.864 2.103 2.455 l -3.324 -2.762 c -0.275 0.707 -0.723 1.072 -1.358 1.105 -0.653 0.019 -1.645 -0.773 -2.445 -0.92 -0.8 -0.146 -1.597 0.304 -2.308 0.061 -0.727 -0.257 -1.288 -1.273 -1.969 -1.536 -0.684 -0.26 -1.377 -0.26 -2.103 0 -0.791 0.387 -1.581 0.776 -2.375 1.166 z"/>
     <path d="m 0 1046.36 5 -5 3.282 3.678 2.218 -2.178 5.5 6.5 -2.286 1.857 l -11.714 0.143 z"/>
    </g>
   </g>
   <path d="m -20.643 1025.47 c -1.108 0 -1.778 0.67 -1.778 1.778 l 0 12.449 c 0 1.108 0.67 1.778 1.778 1.778 l 12.444 0 c 1.108 0 1.778 -0.67 1.778 -1.778 l 0 -12.449 c 0 -1.108 -0.67 -1.778 -1.778 -1.778 z m 0 1.778 12.444 0 0 12.449 -12.444 0 z"/>
  </g>
 </g>
</svg>
