<svg xmlns="http://www.w3.org/2000/svg" viewBox="0 0 256 256">
 <defs>
  <radialGradient r="24" cy="40.5" cx="24" gradientTransform="matrix(6.6666668,0,0,1.1111108,-32,964.6958)" gradientUnits="userSpaceOnUse" id="radialGradient3159">
   <stop style="stop-color:#000;stop-opacity:1"/>
   <stop offset="1" style="stop-color:#000;stop-opacity:0.196"/>
  </radialGradient>
 </defs>
 <g transform="translate(0,-796.3622)">
  <path d="m 128 983.03 c -52.41 0 -98.82 4.177 -128 10.667 l 0 32 c 29.18 6.49 75.59 10.666 128 10.666 52.41 0 98.82 -4.177 128 -10.666 l 0 -32 c -29.18 -6.49 -75.59 -10.667 -128 -10.667 z" style="fill:url(#radialGradient3159);opacity:0.1;fill-opacity:1;stroke:none"/>
  <rect width="240" height="168" x="8" y="852.36" rx="26.09" ry="26.25" style="fill:#ec407a;fill-opacity:1;stroke:none"/>
  <path d="m 34.09 849.7 c -14.452 0 -26.09 11.893 -26.09 26.666 l 0 10.666 c 0 -14.773 11.635 -26.666 26.09 -26.666 l 187.83 0 c 14.452 0 26.09 11.894 26.09 26.666 l 0 -10.666 c 0 -14.774 -11.635 -26.666 -26.09 -26.666 l -187.83 0 z" style="fill:#fff;opacity:0.2;fill-opacity:1;stroke:none"/>
  <path d="m 34.09 892.36 41.739 0 c 57.39 -5.334 46.957 -64 83.48 -64 l 62.61 0 c 14.452 0 26.09 11.894 26.09 26.666 l 0 138.67 c 0 14.773 -11.635 26.666 -26.09 26.666 l -187.83 0 c -14.452 0 -26.09 -11.894 -26.09 -26.666 l 0 -74.67 c 0 -16 10.435 -26.666 26.09 -26.666 z" style="fill:#f06292;fill-opacity:1;stroke:none"/>
  <path d="m 8 983.03 0 10.667 c 0 14.773 11.635 26.666 26.09 26.666 l 187.83 0 c 14.452 0 26.09 -11.894 26.09 -26.666 l 0 -10.667 c 0 14.774 -11.635 29.334 -26.09 29.334 l -187.83 0 c -14.452 0 -26.09 -14.56 -26.09 -29.334 z" style="fill:#000;opacity:0.15;fill-opacity:1;stroke:none"/>
  <path d="m 48 924.36 c -6 0 -8 2.286 -8 8 l 0 56 c 0 5.714 2 8 8 8 l 40 0 c 6 0 8 -2.286 8 -8 l 0 -40 -8 -8 -8 -8 -8 -8 z m 0 8 24 0 0 16 16 0 0 40 -40 0 z m 9 24 c -0.554 0 -1 0.892 -1 2 l 0 4 c 0 1.108 0.446 2 1 2 l 22 0 c 0.554 0 1 -0.892 1 -2 l 0 -4 c 0 -1.108 -0.446 -2 -1 -2 z m 0 16 c -0.554 0 -1 0.892 -1 2 l 0 4 c 0 1.108 0.446 2 1 2 l 22 0 c 0.554 0 1 -0.892 1 -2 l 0 -4 c 0 -1.108 -0.446 -2 -1 -2 z" style="fill:#000;fill-opacity:0.098;stroke:none"/>
  <path d="m 48 916.36 c -6 0 -8 2.286 -8 8 l 0 56 c 0 5.714 2 8 8 8 l 40 0 c 6 0 8 -2.286 8 -8 l 0 -40 -24 -24 z m 0 8 32 0 0 0 8 8 0 48 -40 0 z" style="fill:#fff8e1;fill-opacity:1;stroke:none"/>
  <path d="m 72 916.36 0 24 24 0 z" style="fill:#fff8e1;fill-opacity:1;stroke:none"/>
  <rect ry="2" rx="0.667" y="948.36" x="56" height="8" width="16" style="fill:#fff8e1;fill-opacity:1;stroke:none"/>
  <rect width="24" height="8" x="56" y="964.36" rx="1" ry="2" style="fill:#fff8e1;fill-opacity:1;stroke:none"/>
 </g>
</svg>
