<svg xmlns="http://www.w3.org/2000/svg" viewBox="0 0 256 256">
 <defs>
  <radialGradient r="24" cy="40.5" cx="24" gradientTransform="matrix(6.6666668,0,0,1.1111108,-32.000002,964.6958)" gradientUnits="userSpaceOnUse" id="radialGradient3170">
   <stop style="stop-color:#000;stop-opacity:1"/>
   <stop offset="1" style="stop-color:#000;stop-opacity:0.196"/>
  </radialGradient>
 </defs>
 <g transform="translate(0,-796.3622)">
  <path d="m 128 983.03 c -52.41 0 -98.82 4.177 -128 10.667 l 0 32 c 29.18 6.49 75.59 10.666 128 10.666 52.41 0 98.82 -4.177 128 -10.666 l 0 -32 c -29.18 -6.49 -75.59 -10.667 -128 -10.667 z" style="fill:url(#radialGradient3170);opacity:0.1;fill-opacity:1;stroke:none"/>
  <rect width="240" height="168" x="8" y="852.36" rx="26.09" ry="26.25" style="fill:#ec407a;fill-opacity:1;stroke:none"/>
  <path d="m 34.09 849.7 c -14.452 0 -26.09 11.893 -26.09 26.666 l 0 10.666 c 0 -14.773 11.635 -26.666 26.09 -26.666 l 187.83 0 c 14.452 0 26.09 11.894 26.09 26.666 l 0 -10.666 c 0 -14.774 -11.635 -26.666 -26.09 -26.666 l -187.83 0 z" style="fill:#fff;opacity:0.2;fill-opacity:1;stroke:none"/>
  <path d="m 34.09 892.36 41.739 0 c 57.39 -5.334 46.957 -64 83.48 -64 l 62.61 0 c 14.452 0 26.09 11.894 26.09 26.666 l 0 138.67 c 0 14.773 -11.635 26.666 -26.09 26.666 l -187.83 0 c -14.452 0 -26.09 -11.894 -26.09 -26.666 l 0 -74.67 c 0 -16 10.435 -26.666 26.09 -26.666 z" style="fill:#f06292;fill-opacity:1;stroke:none"/>
  <path d="m 8 983.03 0 10.667 c 0 14.773 11.635 26.666 26.09 26.666 l 187.83 0 c 14.452 0 26.09 -11.894 26.09 -26.666 l 0 -10.667 c 0 14.774 -11.635 29.334 -26.09 29.334 l -187.83 0 c -14.452 0 -26.09 -14.56 -26.09 -29.334 z" style="fill:#000;opacity:0.15;fill-opacity:1;stroke:none"/>
  <path d="m 38.04 928.86 0 0.096 c -2.352 0.072 -4.628 0.272 -6.866 1.049 -0.704 4.776 0.436 9.729 1.717 14.305 3.257 10.498 9.347 20.401 18.215 27.08 0.325 0.312 0.787 0.396 0.668 0.954 -0.047 2.326 -0.004 4.82 0 7.152 0.095 4.077 2.507 7.901 6.103 9.823 4.269 2.249 8.576 4.363 12.874 6.58 1.979 1.049 4.719 -0.168 5.341 -2.289 0.378 -1.395 0.075 -2.869 0.095 -4.292 -0.015 -2.996 -0.307 -6.01 -0.191 -8.964 3.912 -0.482 7.8 -2.393 10.11 -5.627 2.058 -2.758 2.827 -6.296 2.575 -9.727 4.185 -0.746 8.489 -1.34 12.684 -2.098 2.483 -0.501 3.558 -3.795 2 -5.817 -3.051 -3.869 -6.149 -7.602 -9.251 -11.444 -2.504 -2.994 -6.438 -4.705 -10.3 -4.196 -2.619 0.421 -5.238 1.038 -7.82 1.526 -8.339 -7.95 -19.584 -12.355 -30.899 -13.638 -2.324 -0.212 -4.705 -0.513 -7.06 -0.477 z m 14.11 8.774 c 2.733 -0.244 5.45 0.49 7.725 2.384 4.549 3.792 5.313 10.516 1.526 15.07 -3.788 4.552 -10.519 5.317 -15.07 1.526 -4.549 -3.79 -5.313 -10.61 -1.526 -15.16 1.894 -2.275 4.61 -3.564 7.343 -3.815 z m 1.24 4.768 c -3.371 0 -6.103 2.732 -6.103 6.104 0 3.37 2.733 6.103 6.103 6.103 3.371 0 6.103 -2.733 6.103 -6.103 0 -3.371 -2.733 -6.104 -6.103 -6.104 z m 42.44 27.942 c -0.936 -0.084 -1.867 0.642 -2 1.621 -1.193 5.426 -5 10.14 -10.11 12.302 -1.33 0.421 -1.664 2.18 -0.572 3.052 2.241 1.868 4.807 4.056 7.06 5.913 1.095 0.932 2.557 -0.04 2.575 -1.43 -0.035 -1.139 -0.184 -2.406 -0.286 -3.529 2.791 0.598 5.536 1.391 8.297 2 1.301 0.268 2.532 -1.334 2 -2.575 -1.092 -2.619 -2.217 -5.119 -3.338 -7.724 1.13 -0.136 2.214 -0.204 3.338 -0.38 1.391 -0.276 1.992 -2.335 0.858 -3.242 -2.254 -1.897 -4.583 -3.743 -6.866 -5.627 -0.267 -0.212 -0.642 -0.352 -0.954 -0.38 z" style="fill:#000;fill-opacity:0.098;stroke:none;fill-rule:nonzero"/>
  <path d="m 38.04 920.86 0 0.096 c -2.352 0.072 -4.628 0.272 -6.866 1.049 -0.704 4.776 0.436 9.729 1.717 14.305 3.257 10.498 9.347 20.401 18.215 27.08 0.325 0.312 0.787 0.396 0.668 0.954 -0.047 2.326 -0.004 4.82 0 7.152 0.095 4.077 2.507 7.901 6.103 9.823 4.269 2.249 8.576 4.363 12.874 6.58 1.979 1.049 4.719 -0.168 5.341 -2.289 0.378 -1.395 0.075 -2.869 0.095 -4.292 -0.015 -2.996 -0.307 -6.01 -0.191 -8.964 3.912 -0.482 7.8 -2.393 10.11 -5.627 2.058 -2.758 2.827 -6.296 2.575 -9.727 4.185 -0.746 8.489 -1.34 12.684 -2.098 2.483 -0.501 3.558 -3.795 2 -5.817 -3.051 -3.869 -6.149 -7.602 -9.251 -11.444 -2.504 -2.994 -6.438 -4.705 -10.3 -4.196 -2.619 0.421 -5.238 1.038 -7.82 1.526 -8.339 -7.95 -19.584 -12.355 -30.899 -13.638 -2.324 -0.212 -4.705 -0.513 -7.06 -0.477 z m 14.11 8.774 c 2.733 -0.244 5.45 0.49 7.725 2.384 4.549 3.792 5.313 10.516 1.526 15.07 -3.788 4.552 -10.519 5.317 -15.07 1.526 -4.549 -3.79 -5.313 -10.61 -1.526 -15.16 1.894 -2.275 4.61 -3.564 7.343 -3.815 z m 1.24 4.768 c -3.371 0 -6.103 2.732 -6.103 6.104 0 3.37 2.733 6.103 6.103 6.103 3.371 0 6.103 -2.733 6.103 -6.103 0 -3.371 -2.733 -6.104 -6.103 -6.104 z m 42.44 27.942 c -0.936 -0.084 -1.867 0.642 -2 1.621 -1.193 5.426 -5 10.14 -10.11 12.302 -1.33 0.421 -1.664 2.18 -0.572 3.052 2.241 1.868 4.807 4.056 7.06 5.913 1.095 0.932 2.557 -0.04 2.575 -1.43 -0.035 -1.139 -0.184 -2.406 -0.286 -3.529 2.791 0.598 5.536 1.391 8.297 2 1.301 0.268 2.532 -1.334 2 -2.575 -1.092 -2.619 -2.217 -5.119 -3.338 -7.724 1.13 -0.136 2.214 -0.204 3.338 -0.38 1.391 -0.276 1.992 -2.335 0.858 -3.242 -2.254 -1.897 -4.583 -3.743 -6.866 -5.627 -0.267 -0.212 -0.642 -0.352 -0.954 -0.38 z" style="fill:#fff8e1;fill-opacity:1;stroke:none;fill-rule:nonzero"/>
 </g>
</svg>
