<svg xmlns="http://www.w3.org/2000/svg" viewBox="0 0 256 256">
 <defs>
  <radialGradient r="24" cy="40.5" cx="24" gradientTransform="matrix(6.6666668,0,0,1.1111108,-32,964.6958)" gradientUnits="userSpaceOnUse" id="radialGradient3216">
   <stop style="stop-color:#000;stop-opacity:1"/>
   <stop offset="1" style="stop-color:#000;stop-opacity:0.196"/>
  </radialGradient>
 </defs>
 <g transform="translate(0,-796.3622)">
  <path d="m 128 983.03 c -52.41 0 -98.82 4.177 -128 10.667 l 0 32 c 29.18 6.49 75.59 10.666 128 10.666 52.41 0 98.82 -4.177 128 -10.666 l 0 -32 c -29.18 -6.49 -75.59 -10.667 -128 -10.667 z" style="fill:url(#radialGradient3216);opacity:0.1;fill-opacity:1;stroke:none"/>
  <rect width="240" height="168" x="8" y="852.36" rx="26.09" ry="26.25" style="fill:#512da8;fill-opacity:1;stroke:none"/>
  <path d="m 34.09 849.7 c -14.452 0 -26.09 11.893 -26.09 26.666 l 0 10.666 c 0 -14.773 11.635 -26.666 26.09 -26.666 l 187.83 0 c 14.452 0 26.09 11.894 26.09 26.666 l 0 -10.666 c 0 -14.774 -11.635 -26.666 -26.09 -26.666 l -187.83 0 z" style="fill:#fff;opacity:0.2;fill-opacity:1;stroke:none"/>
  <path d="m 34.09 892.36 41.739 0 c 57.39 -5.334 46.957 -64 83.48 -64 l 62.61 0 c 14.452 0 26.09 11.894 26.09 26.666 l 0 138.67 c 0 14.773 -11.635 26.666 -26.09 26.666 l -187.83 0 c -14.452 0 -26.09 -11.894 -26.09 -26.666 l 0 -74.67 c 0 -16 10.435 -26.666 26.09 -26.666 z" style="fill:#7e57c2;fill-opacity:1;stroke:none"/>
  <path d="m 8 983.03 0 10.667 c 0 14.773 11.635 26.666 26.09 26.666 l 187.83 0 c 14.452 0 26.09 -11.894 26.09 -26.666 l 0 -10.667 c 0 14.774 -11.635 29.334 -26.09 29.334 l -187.83 0 c -14.452 0 -26.09 -14.56 -26.09 -29.334 z" style="fill:#000;opacity:0.15;fill-opacity:1;stroke:none"/>
  <path d="m 56.38 924.36 24.25 44 24.375 0 -24.375 -44 -24.25 0 z m -3.875 3.875 -24.12 39 11.25 22.625 23.5 -41.25 l -10.625 -20.375 z m 3.375 44.12 -12.375 20 49.13 0 12.375 -20 -49.12 0 z" style="fill:#000;fill-opacity:0.098;fill-rule:evenodd"/>
  <path d="m 56.38 916.36 24.25 44 24.375 0 -24.375 -44 -24.25 0 z m -3.875 3.875 -24.12 39 11.25 22.625 23.5 -41.25 l -10.625 -20.375 z m 3.375 44.12 -12.375 20 49.13 0 12.375 -20 -49.12 0 z" style="fill:#fff8e1;fill-opacity:1;fill-rule:evenodd"/>
 </g>
</svg>
