<svg xmlns="http://www.w3.org/2000/svg" viewBox="0 0 256 256">
 <defs>
  <radialGradient r="24" cy="40.5" cx="24" gradientTransform="matrix(6.6666668,0,0,1.1111108,-32,964.6958)" gradientUnits="userSpaceOnUse" id="radialGradient3098">
   <stop style="stop-color:#000;stop-opacity:1"/>
   <stop offset="1" style="stop-color:#000;stop-opacity:0.196"/>
  </radialGradient>
 </defs>
 <g transform="translate(0,-796.3622)">
  <path d="m 128 983.03 c -52.41 0 -98.82 4.177 -128 10.667 l 0 32 c 29.18 6.49 75.59 10.666 128 10.666 52.41 0 98.82 -4.177 128 -10.666 l 0 -32 c -29.18 -6.49 -75.59 -10.667 -128 -10.667 z" style="fill:url(#radialGradient3098);opacity:0.1;fill-opacity:1;stroke:none"/>
  <rect width="240" height="168" x="8" y="852.36" rx="26.09" ry="26.25" style="fill:#d32f2f;fill-opacity:1;stroke:none"/>
  <path d="m 34.09 849.7 c -14.452 0 -26.09 11.893 -26.09 26.666 l 0 10.666 c 0 -14.773 11.635 -26.666 26.09 -26.666 l 187.83 0 c 14.452 0 26.09 11.894 26.09 26.666 l 0 -10.666 c 0 -14.774 -11.635 -26.666 -26.09 -26.666 l -187.83 0 z" style="fill:#fff;opacity:0.2;fill-opacity:1;stroke:none"/>
  <path d="m 34.09 892.36 41.739 0 c 57.39 -5.334 46.957 -64 83.48 -64 l 62.61 0 c 14.452 0 26.09 11.894 26.09 26.666 l 0 138.67 c 0 14.773 -11.635 26.666 -26.09 26.666 l -187.83 0 c -14.452 0 -26.09 -11.894 -26.09 -26.666 l 0 -74.67 c 0 -16 10.435 -26.666 26.09 -26.666 z" style="fill:#ef5350;fill-opacity:1;stroke:none"/>
  <path d="m 8 983.03 0 10.667 c 0 14.773 11.635 26.666 26.09 26.666 l 187.83 0 c 14.452 0 26.09 -11.894 26.09 -26.666 l 0 -10.667 c 0 14.774 -11.635 29.334 -26.09 29.334 l -187.83 0 c -14.452 0 -26.09 -14.56 -26.09 -29.334 z" style="fill:#000;opacity:0.15;fill-opacity:1;stroke:none"/>
  <path d="m 96.69 931.63 c -9.743 -9.747 -25.497 -9.686 -35.24 0.08 -8.285 8.286 -9.526 20.902 -3.735 30.49 l -24.04 24.04 c -2.243 2.242 -2.243 5.83 0 8.07 l 0.361 0.352 c 2.243 2.243 5.829 2.243 8.07 0 l 24.04 -24.04 c 9.599 5.806 22.257 4.613 30.541 -3.676 9.743 -9.745 9.743 -25.565 0 -35.31 z m -5.482 5.482 c 6.701 6.703 6.701 17.642 0 24.344 -6.639 6.642 -17.381 6.638 -24.1 0.12 l -0.181 -0.176 c -0.06 -0.08 -0.122 -0.12 -0.181 -0.184 -6.523 -6.716 -6.461 -17.4 0.181 -24.04 6.701 -6.704 17.575 -6.764 24.277 -0.08 z" style="fill:#000;fill-opacity:0.098;color:#000"/>
  <path d="m 96.69 923.63 c -9.743 -9.747 -25.497 -9.686 -35.24 0.08 -8.285 8.286 -9.526 20.902 -3.735 30.49 l -24.04 24.04 c -2.243 2.242 -2.243 5.83 0 8.07 l 0.361 0.352 c 2.243 2.243 5.829 2.243 8.07 0 l 24.04 -24.04 c 9.599 5.806 22.257 4.613 30.541 -3.676 9.743 -9.745 9.743 -25.565 0 -35.31 z m -5.482 5.482 c 6.701 6.703 6.701 17.642 0 24.344 -6.639 6.642 -17.381 6.638 -24.1 0.12 l -0.181 -0.176 c -0.06 -0.08 -0.122 -0.12 -0.181 -0.184 -6.523 -6.716 -6.461 -17.4 0.181 -24.04 6.701 -6.704 17.575 -6.764 24.277 -0.08 z" style="fill:#fff8e1;fill-opacity:1;color:#000"/>
 </g>
</svg>
