<?xml version="1.0" encoding="UTF-8" standalone="no"?>
<!-- Created with Inkscape (http://www.inkscape.org/) -->

<svg
   xmlns:dc="http://purl.org/dc/elements/1.1/"
   xmlns:cc="http://creativecommons.org/ns#"
   xmlns:rdf="http://www.w3.org/1999/02/22-rdf-syntax-ns#"
   xmlns:svg="http://www.w3.org/2000/svg"
   xmlns="http://www.w3.org/2000/svg"
   xmlns:xlink="http://www.w3.org/1999/xlink"
   xmlns:sodipodi="http://sodipodi.sourceforge.net/DTD/sodipodi-0.dtd"
   xmlns:inkscape="http://www.inkscape.org/namespaces/inkscape"
   width="256"
   height="256"
   id="svg2"
   version="1.1"
   inkscape:version="0.91 r"
   sodipodi:docname="red-folder-recent.svg">
  <defs
     id="defs4">
    <linearGradient
       id="linearGradient3886-9">
      <stop
         style="stop-color:#000000;stop-opacity:1;"
         offset="0"
         id="stop3888-3" />
      <stop
         style="stop-color:#000000;stop-opacity:0.19607843;"
         offset="1"
         id="stop3890-7" />
    </linearGradient>
    <radialGradient
       r="24"
       fy="40.5"
       fx="24"
       cy="40.5"
       cx="24"
       gradientTransform="matrix(6.6666668,0,0,1.1111108,-32,964.6958)"
       gradientUnits="userSpaceOnUse"
       id="radialGradient3098"
       xlink:href="#linearGradient3886-9"
       inkscape:collect="always" />
  </defs>
  <sodipodi:namedview
     id="base"
     pagecolor="#ffffff"
     bordercolor="#666666"
     borderopacity="1.0"
     inkscape:pageopacity="0.0"
     inkscape:pageshadow="2"
     inkscape:zoom="1.5580906"
     inkscape:cx="112.98676"
     inkscape:cy="98.006327"
     inkscape:document-units="px"
     inkscape:current-layer="layer1"
     showgrid="true"
     inkscape:window-width="1280"
     inkscape:window-height="998"
     inkscape:window-x="0"
     inkscape:window-y="0"
     inkscape:window-maximized="1">
    <inkscape:grid
       type="xygrid"
       id="grid2990"
       empspacing="5"
       visible="true"
       enabled="true"
       snapvisiblegridlinesonly="true" />
  </sodipodi:namedview>
  <metadata
     id="metadata7">
    <rdf:RDF>
      <cc:Work
         rdf:about="">
        <dc:format>image/svg+xml</dc:format>
        <dc:type
           rdf:resource="http://purl.org/dc/dcmitype/StillImage" />
        <dc:title />
      </cc:Work>
    </rdf:RDF>
  </metadata>
  <g
     inkscape:label="Body"
     inkscape:groupmode="layer"
     id="layer1"
     transform="translate(0,-796.3622)">
    <path
       inkscape:connector-curvature="0"
       style="opacity:0.1;fill:url(#radialGradient3098);fill-opacity:1;stroke:none"
       d="m 128,983.0286 c -52.40826,0 -98.815842,4.1768 -128,10.6672 l 0,32 c 29.184158,6.4896 75.59174,10.6664 128,10.6664 52.40826,0 98.81584,-4.1768 128,-10.6664 l 0,-32 c -29.18416,-6.4904 -75.59174,-10.6672 -128,-10.6672 z"
       id="path3868" />
    <rect
       style="fill:#d32f2f;fill-opacity:1;stroke:none"
       id="rect2987"
       width="240"
       height="167.99963"
       x="8"
       y="852.36218"
       rx="26.086956"
       ry="26.249928" />
    <path
       style="opacity:0.2;fill:#ffffff;fill-opacity:1;stroke:none"
       d="M 34.086956,849.6958 C 19.634782,849.6958 8,861.5886 8,876.3622 l 0,10.6664 c 0,-14.7728 11.634782,-26.6664 26.086956,-26.6664 l 187.826084,0 c 14.45218,0 26.08696,11.8936 26.08696,26.6664 l 0,-10.6664 c 0,-14.7736 -11.63478,-26.6664 -26.08696,-26.6664 l -187.826084,0 z"
       id="rect3797"
       inkscape:connector-curvature="0" />
    <path
       style="fill:#ef5350;fill-opacity:1;stroke:none"
       d="m 34.086956,892.3622 41.739132,0 c 57.391302,-5.3336 46.956522,-64 83.478252,-64 l 62.6087,0 c 14.45218,0 26.08696,11.8936 26.08696,26.6664 l 0,138.6672 c 0,14.7728 -11.63478,26.6664 -26.08696,26.6664 l -187.826084,0 C 19.634782,1020.3622 8,1008.4686 8,993.6958 l 0,-74.6672 c 0,-16 10.434782,-26.6664 26.086956,-26.6664 z"
       id="rect3776"
       inkscape:connector-curvature="0"
       sodipodi:nodetypes="cccsssssscc" />
    <path
       style="opacity:0.15;fill:#000000;fill-opacity:1;stroke:none"
       d="m 8,983.0286 0,10.6672 c 0,14.7728 11.634782,26.6664 26.086956,26.6664 l 187.826084,0 c 14.45218,0 26.08696,-11.8936 26.08696,-26.6664 l 0,-10.6672 c 0,14.7736 -11.63478,29.3336 -26.08696,29.3336 l -187.826084,0 C 19.634782,1012.3622 8,997.8022 8,983.0286 z"
       id="path3786"
       inkscape:connector-curvature="0"
       sodipodi:nodetypes="csssscssc" />
    <path
       sodipodi:nodetypes="ccccssssccssssccccccccccccccccccccsccccc"
       inkscape:connector-curvature="0"
       style="line-height:normal;color:#000000;fill:#000000;fill-opacity:0.09803922"
       d="m 38,924.3622 0,20 20,0 -6.734372,-5.2344 c 4.601872,-3.6128 10.431008,-5.7656 16.734368,-5.7656 14.911684,0 26.999996,12.088 26.999996,27 0,14.912 -12.088312,27 -26.999996,27 -14.911684,0 -26.999996,-12.088 -26.999996,-27 0,-3.1528 0.806632,-7.4728 1.800076,-10.2856 l -9.421878,0 C 32.641524,952.9462 32,957.263 32,960.3622 c 0,19.8824 16.117752,36 35.999996,36 19.882252,0 35.999994,-16.1176 35.999994,-36 0,-19.8824 -16.117742,-36 -35.999994,-36 -8.80592,0 -16.947876,3.0464 -23.203124,8.2968 z m 29.578128,13.3592 c -0.19024,0.08 -0.37824,0.08 -0.562496,0.136 -2.012196,0.456 -3.565268,2.4392 -3.515628,4.5 l 0,16.5944 c -0.0068,0.136 -0.0068,0.28 0,0.424 -0.26068,1.1408 -0.054,2.3808 0.562496,3.3744 0.04576,0.08 0.09272,0.096 0.1406,0.136 0.04368,0.096 0.09056,0.184 0.1406,0.28 0.04576,0.08 0.09272,0.096 0.1406,0.136 0.04576,0.08 0.09272,0.096 0.1406,0.136 0.04576,0.08 0.09272,0.096 0.1406,0.136 0.04576,0.08 0.09272,0.096 0.1406,0.136 0.09212,0.08 0.18592,0.096 0.28128,0.136 0.04576,0.08 0.09272,0.096 0.1406,0.136 0.04576,0.08 0.09272,0.096 0.1406,0.136 0.09212,0.08 0.18592,0.096 0.28128,0.136 0.18072,0.112 0.36884,0.2 0.562496,0.28 l 11.109368,6.4688 c 2.062508,1.1976 5.0317,0.4 6.215084,-1.672 1.183392,-2.0704 0.364,-5.0336 -1.71508,-6.2032 l -9.421876,-5.4848 0,-15.3272 c 0.09104,-2.5504 -2.381652,-4.8816 -4.921868,-4.6416 z"
       id="path3041" />
    <path
       id="path4105"
       d="m 38,916.3622 0,20 20,0 -6.734372,-5.2344 c 4.601872,-3.6128 10.431008,-5.7656 16.734368,-5.7656 14.911684,0 26.999996,12.088 26.999996,27 0,14.912 -12.088312,27 -26.999996,27 -14.911684,0 -26.999996,-12.088 -26.999996,-27 0,-3.1528 0.0066,-7.1872 1,-10 l -8,0 c -0.736674,2.8696 -2,6.9008 -2,10 0,19.8824 16.117752,36 35.999996,36 19.882252,0 35.999994,-16.1176 35.999994,-36 0,-19.8824 -16.117742,-36 -35.999994,-36 -8.80592,0 -16.947876,3.0464 -23.203124,8.2968 z m 29.578128,13.3592 c -0.19024,0.08 -0.37824,0.08 -0.562496,0.136 -2.012196,0.456 -3.565268,2.4392 -3.515628,4.5 l 0,16.5944 c -0.0068,0.136 -0.0068,0.28 0,0.424 -0.26068,1.1408 -0.054,2.3808 0.562496,3.3744 0.04576,0.08 0.09272,0.096 0.1406,0.136 0.04368,0.096 0.09056,0.184 0.1406,0.28 0.04576,0.08 0.09272,0.096 0.1406,0.136 0.04576,0.08 0.09272,0.096 0.1406,0.136 0.04576,0.08 0.09272,0.096 0.1406,0.136 0.04576,0.08 0.09272,0.096 0.1406,0.136 0.09212,0.08 0.18592,0.096 0.28128,0.136 0.04576,0.08 0.09272,0.096 0.1406,0.136 0.04576,0.08 0.09272,0.096 0.1406,0.136 0.09212,0.08 0.18592,0.096 0.28128,0.136 0.18072,0.112 0.36884,0.2 0.562496,0.28 l 11.109368,6.4688 c 2.062508,1.1976 5.0317,0.4 6.215084,-1.672 1.183392,-2.0704 0.364,-5.0336 -1.71508,-6.2032 l -9.421876,-5.4848 0,-15.3272 c 0.09104,-2.5504 -2.381652,-4.8816 -4.921868,-4.6416 z"
       style="line-height:normal;color:#000000;fill:#fff8e1;fill-opacity:1"
       inkscape:connector-curvature="0"
       sodipodi:nodetypes="ccccssssccssssccccccccccccccccccccsccccc" />
  </g>
</svg>
