<svg xmlns="http://www.w3.org/2000/svg" viewBox="0 0 256 256">
 <defs>
  <radialGradient r="24" cy="40.5" cx="24" gradientTransform="matrix(6.6666668,0,0,1.1111108,-32,964.6958)" gradientUnits="userSpaceOnUse" id="radialGradient3098">
   <stop style="stop-color:#000;stop-opacity:1"/>
   <stop offset="1" style="stop-color:#000;stop-opacity:0.196"/>
  </radialGradient>
 </defs>
 <g transform="translate(0,-796.3622)">
  <path d="m 128 983.03 c -52.41 0 -98.82 4.177 -128 10.667 l 0 32 c 29.18 6.49 75.59 10.666 128 10.666 52.41 0 98.82 -4.177 128 -10.666 l 0 -32 c -29.18 -6.49 -75.59 -10.667 -128 -10.667 z" style="fill:url(#radialGradient3098);opacity:0.1;fill-opacity:1;stroke:none"/>
  <rect width="240" height="168" x="8" y="852.36" rx="26.09" ry="26.25" style="fill:#ffb300;fill-opacity:1;stroke:none"/>
  <path d="m 34.09 849.7 c -14.452 0 -26.09 11.893 -26.09 26.666 l 0 10.666 c 0 -14.773 11.635 -26.666 26.09 -26.666 l 187.83 0 c 14.452 0 26.09 11.894 26.09 26.666 l 0 -10.666 c 0 -14.774 -11.635 -26.666 -26.09 -26.666 l -187.83 0 z" style="fill:#fff;opacity:0.2;fill-opacity:1;stroke:none"/>
  <path d="m 34.09 892.36 41.739 0 c 57.39 -5.334 46.957 -64 83.48 -64 l 62.61 0 c 14.452 0 26.09 11.894 26.09 26.666 l 0 138.67 c 0 14.773 -11.635 26.666 -26.09 26.666 l -187.83 0 c -14.452 0 -26.09 -11.894 -26.09 -26.666 l 0 -74.67 c 0 -16 10.435 -26.666 26.09 -26.666 z" style="fill:#ffca28;fill-opacity:1;stroke:none"/>
  <path d="m 63.5 924.36 c -15.355 0 -31.501 16.15 -31.501 36 0 19.853 16.15 35.999 31.501 35.999 24.353 0 40.499 -16.15 40.499 -35.999 0 -19.854 -16.15 -36 -36 -36 z m 7.424 5.064 c 3.356 0.312 6.607 1.076 9.563 2.362 -0.228 0.28 -0.403 0.536 -0.562 1.013 -0.909 2.727 -2.266 1.427 -0.675 4.836 1.591 3.41 2.92 4.29 3.375 2.7 0.455 -1.59 -1.143 -3.834 0.675 -2.925 1.818 0.91 3.164 -0.248 1.8 1.802 -1.364 2.045 -1.334 3.154 -2.925 2.699 -1.591 -0.456 -1.559 2.696 -3.15 3.15 -1.591 0.448 -2.137 -0.688 -2.137 0.448 0 1.136 0.902 0.096 0.675 1.914 -0.069 0.56 -0.049 0.656 -0.112 0.898 -1.493 -0.424 -2.159 -0.664 -3.263 -0.232 -1.136 0.456 -2.475 3.375 -2.475 3.375 1.42 1.419 2.078 2.442 2.588 2.925 -0.318 0.168 -0.7 0.224 -1.013 0.448 -2.273 1.592 -4.04 1.891 -4.725 4.162 -0.682 2.275 -0.45 0.192 -0.45 2.925 0 2.729 -0.689 0.874 0.675 3.376 1.364 2.501 4.709 3.698 6.3 5.062 1.591 1.363 3.231 -2.967 6.413 1.125 3.182 4.091 3.386 2.452 2.25 4.726 -1.136 2.274 -2.245 3.03 -2.7 3.938 -0.455 0.908 0.884 4.04 2.475 4.724 0.034 0 0.077 0 0.113 0 -0.085 0.192 -0.141 0.376 -0.225 0.56 -2.06 0.936 -4.586 2.226 -5.063 2.362 -1.125 0.328 -5.095 0.996 -7.987 1.8 -0.362 0.104 -0.646 0.104 -0.787 0.12 0.36 -0.392 3.203 -1.878 4.612 -2.698 1.929 -1.128 -0.112 -1.014 -0.112 -1.014 0 0 -3.07 -0.344 -9.337 -0.344 -3.134 0 -4.492 0.136 -5.175 0.344 -0.341 0.104 -0.509 0.2 -0.675 0.344 -0.166 0.144 -0.281 0.288 -0.562 0.448 -1.125 0.648 0.659 1.318 -0.787 1.8 -1.085 0.36 -1.211 0 -2.137 -0.68 0.661 -0.656 1.573 -1.45 2.7 -2.814 2.046 -2.474 2.693 -2.023 3.375 -4.273 0.682 -2.252 -5.737 -1.575 -5.737 -2.926 0 -1.35 -1.104 -2.25 -3.15 -3.15 -2.046 -0.901 -0.652 -1.351 -2.925 -2.026 -2.273 -0.68 -4.831 3.374 -5.512 2.026 -0.682 -1.351 2.138 -1.351 2.138 -2.925 0 -1.538 -3.242 1.16 -3.825 -0.784 -0.015 -0.08 -0.101 -0.08 -0.113 -0.12 -0.057 -0.28 -0.02 -0.448 0 -0.68 0.143 -1.618 2.02 -2.25 2.813 -3.826 0.909 -1.798 0.439 1.351 1.575 2.926 1.136 1.575 0.682 -2.024 0 -4.05 -0.682 -2.026 0.434 -2.024 2.025 -4.724 1.591 -2.701 1.575 -4.275 1.575 -6.301 0 -2.025 1.102 -2.249 3.375 -4.275 1.042 -0.927 1.859 -1.736 2.475 -2.474 0.149 -0.08 0.299 -0.08 0.45 -0.12 2.411 -0.964 3.423 -2.41 5.513 -6.75 2.089 -4.338 -0.82 -0.288 -1.462 -0.44 -0.643 -0.16 -1.575 -1.302 -3.825 -2.588 -0.464 -0.264 -0.878 -0.392 -1.237 -0.448 l 4.163 -6.862 c 1.333 -0.36 2.765 -0.608 4.162 -0.792 0.511 2.91 0.225 5.626 0.225 5.626 0 0 -0.788 0.932 -0.788 1.575 0 0.648 4.307 -5.304 4.95 -5.625 0.643 -0.328 2.266 1.703 2.587 -1.35 0.018 -0.176 -0.02 -0.176 0 -0.344 z m 6.075 12.15 c -0.231 -0.08 -0.503 -0.001 -0.787 0.12 0 0.792 -0.308 1.374 -0.45 1.687 -0.084 -0.136 -0.338 -0.344 -0.338 -0.344 -0.341 0.632 -1.076 1.184 -0.338 1.013 0.739 -0.16 1.299 0.288 0.788 -0.344 -0.098 -0.12 -0.052 -0.08 -0.113 -0.12 0.096 0.08 0.277 0.12 0.675 0.12 0.448 0 0.688 0 1.012 0 -0.549 0.408 -1.147 0.576 -0.338 0.784 1.08 0.28 1.575 0.344 1.575 0.12 0 -0.224 -0.337 -1.014 -0.337 -1.014 0.211 -0.088 0.407 -0.192 0.225 -0.56 -0.341 -0.672 -0.882 -1.356 -1.575 -1.462 z m 17.212 1.911 c 0.562 0.874 1.101 1.771 1.575 2.701 -0.313 1.814 -1.108 3.038 0.225 3.038 0.373 0 0.705 -0.088 1.013 -0.12 0.042 0.112 0.072 0.232 0.113 0.344 -2.273 0 -3.364 0.688 -4.5 0.448 -1.136 -0.232 -4.296 -0.432 -2.25 -2.474 1.196 -1.196 2.689 -3.096 3.825 -3.939 z m -14.175 4.164 c 0.209 0.08 0.392 0.28 0.562 0.672 0.682 1.591 1.809 2.923 0.9 3.15 -0.909 0.224 -1.35 0.448 -1.35 0.448 0 0 3.148 2.047 3.375 -0.224 0.227 -2.274 -0.9 -3.601 -0.9 -3.601 0 0 1.57 1.566 2.025 2.476 0.455 0.909 0.439 0 1.575 1.125 1.136 1.136 0.884 -4.516 2.475 -2.926 1.591 1.591 2.592 1.564 2.137 2.7 -0.455 1.137 2.925 -1.372 2.925 0.9 0 2.191 1.397 3.08 -1.35 4.163 -1.04 -0.08 -1.864 -0.248 -2.025 -0.56 -0.455 -0.909 -3.037 -0.224 -3.037 -0.224 -6.799 -1.699 -9.751 -2.238 -11.7 -1.912 0.037 -0.08 0.073 -0.08 0.113 -0.112 0.994 -1.791 2.865 -4.278 2.25 -5.175 0.867 -0.496 1.546 -1.046 2.025 -0.9 z m 19.12 11.361 c 0.02 0.456 0 0.89 0 1.351 0 1.279 -0.077 2.586 -0.225 3.824 -2.045 -1.819 -4.95 -1.8 -4.95 -1.8 0 0 1.775 -2.02 4.275 -2.925 0.313 -0.112 0.647 -0.264 0.9 -0.448 z" style="fill:#000;fill-opacity:0.098;color:#000"/>
  <path d="m 63.5 916.36 c -15.355 0 -31.501 16.15 -31.501 36 0 19.853 16.15 35.999 31.501 35.999 24.353 0 40.499 -16.15 40.499 -35.999 0 -19.854 -16.15 -36 -36 -36 z m 7.424 5.064 c 3.356 0.312 6.607 1.076 9.563 2.362 -0.228 0.28 -0.403 0.536 -0.562 1.013 -0.909 2.727 -2.266 1.427 -0.675 4.836 1.591 3.41 2.92 4.29 3.375 2.7 0.455 -1.59 -1.143 -3.834 0.675 -2.925 1.818 0.91 3.164 -0.248 1.8 1.802 -1.364 2.045 -1.334 3.154 -2.925 2.699 -1.591 -0.456 -1.559 2.696 -3.15 3.15 -1.591 0.448 -2.137 -0.688 -2.137 0.448 0 1.136 0.902 0.096 0.675 1.914 -0.069 0.56 -0.049 0.656 -0.112 0.898 -1.493 -0.424 -2.159 -0.664 -3.263 -0.232 -1.136 0.456 -2.475 3.375 -2.475 3.375 1.42 1.419 2.078 2.442 2.588 2.925 -0.318 0.168 -0.7 0.224 -1.013 0.448 -2.273 1.592 -4.04 1.891 -4.725 4.162 -0.682 2.275 -0.45 0.192 -0.45 2.925 0 2.729 -0.689 0.874 0.675 3.376 1.364 2.501 4.709 3.698 6.3 5.062 1.591 1.363 3.231 -2.967 6.413 1.125 3.182 4.091 3.386 2.452 2.25 4.726 -1.136 2.274 -2.245 3.03 -2.7 3.938 -0.455 0.908 0.884 4.04 2.475 4.724 0.034 0 0.077 0 0.113 0 -0.085 0.192 -0.141 0.376 -0.225 0.56 -2.06 0.936 -4.586 2.226 -5.063 2.362 -1.125 0.328 -5.095 0.996 -7.987 1.8 -0.362 0.104 -0.646 0.104 -0.787 0.12 0.36 -0.392 3.203 -1.878 4.612 -2.698 1.929 -1.128 -0.112 -1.014 -0.112 -1.014 0 0 -3.07 -0.344 -9.337 -0.344 -3.134 0 -4.492 0.136 -5.175 0.344 -0.341 0.104 -0.509 0.2 -0.675 0.344 -0.166 0.144 -0.281 0.288 -0.562 0.448 -1.125 0.648 0.659 1.318 -0.787 1.8 -1.085 0.36 -1.211 0 -2.137 -0.68 0.661 -0.656 1.573 -1.45 2.7 -2.814 2.046 -2.474 2.693 -2.023 3.375 -4.273 0.682 -2.252 -5.737 -1.575 -5.737 -2.926 0 -1.35 -1.104 -2.25 -3.15 -3.15 -2.046 -0.901 -0.652 -1.351 -2.925 -2.026 -2.273 -0.68 -4.831 3.374 -5.512 2.026 -0.682 -1.351 2.138 -1.351 2.138 -2.925 0 -1.538 -3.242 1.16 -3.825 -0.784 -0.015 -0.08 -0.101 -0.08 -0.113 -0.12 -0.057 -0.28 -0.02 -0.448 0 -0.68 0.143 -1.618 2.02 -2.25 2.813 -3.826 0.909 -1.798 0.439 1.351 1.575 2.926 1.136 1.575 0.682 -2.024 0 -4.05 -0.682 -2.026 0.434 -2.024 2.025 -4.724 1.591 -2.701 1.575 -4.275 1.575 -6.301 0 -2.025 1.102 -2.249 3.375 -4.275 1.042 -0.927 1.859 -1.736 2.475 -2.474 0.149 -0.08 0.299 -0.08 0.45 -0.12 2.411 -0.964 3.423 -2.41 5.513 -6.75 2.089 -4.338 -0.82 -0.288 -1.462 -0.44 -0.643 -0.16 -1.575 -1.302 -3.825 -2.588 -0.464 -0.264 -0.878 -0.392 -1.237 -0.448 l 4.163 -6.862 c 1.333 -0.36 2.765 -0.608 4.162 -0.792 0.511 2.91 0.225 5.626 0.225 5.626 0 0 -0.788 0.932 -0.788 1.575 0 0.648 4.307 -5.304 4.95 -5.625 0.643 -0.328 2.266 1.703 2.587 -1.35 0.018 -0.176 -0.02 -0.176 0 -0.344 z m 6.075 12.15 c -0.231 -0.08 -0.503 -0.001 -0.787 0.12 0 0.792 -0.308 1.374 -0.45 1.687 -0.084 -0.136 -0.338 -0.344 -0.338 -0.344 -0.341 0.632 -1.076 1.184 -0.338 1.013 0.739 -0.16 1.299 0.288 0.788 -0.344 -0.098 -0.12 -0.052 -0.08 -0.113 -0.12 0.096 0.08 0.277 0.12 0.675 0.12 0.448 0 0.688 0 1.012 0 -0.549 0.408 -1.147 0.576 -0.338 0.784 1.08 0.28 1.575 0.344 1.575 0.12 0 -0.224 -0.337 -1.014 -0.337 -1.014 0.211 -0.088 0.407 -0.192 0.225 -0.56 -0.341 -0.672 -0.882 -1.356 -1.575 -1.462 z m 17.212 1.911 c 0.562 0.874 1.101 1.771 1.575 2.701 -0.313 1.814 -1.108 3.038 0.225 3.038 0.373 0 0.705 -0.088 1.013 -0.12 0.042 0.112 0.072 0.232 0.113 0.344 -2.273 0 -3.364 0.688 -4.5 0.448 -1.136 -0.232 -4.296 -0.432 -2.25 -2.474 1.196 -1.196 2.689 -3.096 3.825 -3.939 z m -14.175 4.164 c 0.209 0.08 0.392 0.28 0.562 0.672 0.682 1.591 1.809 2.923 0.9 3.15 -0.909 0.224 -1.35 0.448 -1.35 0.448 0 0 3.148 2.047 3.375 -0.224 0.227 -2.274 -0.9 -3.601 -0.9 -3.601 0 0 1.57 1.566 2.025 2.476 0.455 0.909 0.439 0 1.575 1.125 1.136 1.136 0.884 -4.516 2.475 -2.926 1.591 1.591 2.592 1.564 2.137 2.7 -0.455 1.137 2.925 -1.372 2.925 0.9 0 2.191 1.397 3.08 -1.35 4.163 -1.04 -0.08 -1.864 -0.248 -2.025 -0.56 -0.455 -0.909 -3.037 -0.224 -3.037 -0.224 -6.799 -1.699 -9.751 -2.238 -11.7 -1.912 0.037 -0.08 0.073 -0.08 0.113 -0.112 0.994 -1.791 2.865 -4.278 2.25 -5.175 0.867 -0.496 1.546 -1.046 2.025 -0.9 z m 19.12 11.361 c 0.02 0.456 0 0.89 0 1.351 0 1.279 -0.077 2.586 -0.225 3.824 -2.045 -1.819 -4.95 -1.8 -4.95 -1.8 0 0 1.775 -2.02 4.275 -2.925 0.313 -0.112 0.647 -0.264 0.9 -0.448 z" style="fill:#fff8e1;fill-opacity:1;color:#000"/>
  <path d="m 8 983.03 0 10.667 c 0 14.773 11.635 26.666 26.09 26.666 l 187.83 0 c 14.452 0 26.09 -11.894 26.09 -26.666 l 0 -10.667 c 0 14.774 -11.635 29.334 -26.09 29.334 l -187.83 0 c -14.452 0 -26.09 -14.56 -26.09 -29.334 z" style="fill:#000;opacity:0.15;fill-opacity:1;stroke:none"/>
 </g>
</svg>
