<!-- Created with Inkscape (http://www.inkscape.org/) -->
<svg xmlns="http://www.w3.org/2000/svg" viewBox="0 0 256 256">
 <defs>
  <radialGradient r="24" cy="40.5" cx="24" gradientTransform="matrix(6.6666668,0,0,1.1111108,-32,964.6958)" gradientUnits="userSpaceOnUse" id="radialGradient3101">
   <stop style="stop-color:#000;stop-opacity:1"/>
   <stop offset="1" style="stop-color:#000;stop-opacity:0.196"/>
  </radialGradient>
 </defs>
 <g transform="translate(0,-796.3622)">
  <path d="m 128 983.03 c -52.41 0 -98.82 4.177 -128 10.667 l 0 32 c 29.18 6.49 75.59 10.666 128 10.666 52.41 0 98.82 -4.177 128 -10.666 l 0 -32 c -29.18 -6.49 -75.59 -10.667 -128 -10.667 z" style="fill:url(#radialGradient3101);opacity:0.1;fill-opacity:1;stroke:none"/>
  <rect width="240" height="168" x="8" y="852.36" rx="26.09" ry="26.25" style="fill:#ffb300;fill-opacity:1;stroke:none"/>
  <path d="m 34.09 849.7 c -14.452 0 -26.09 11.893 -26.09 26.666 l 0 10.666 c 0 -14.773 11.635 -26.666 26.09 -26.666 l 187.83 0 c 14.452 0 26.09 11.894 26.09 26.666 l 0 -10.666 c 0 -14.774 -11.635 -26.666 -26.09 -26.666 l -187.83 0 z" style="fill:#fff;opacity:0.2;fill-opacity:1;stroke:none"/>
  <path d="m 34.09 892.36 41.739 0 c 57.39 -5.334 46.957 -64 83.48 -64 l 62.61 0 c 14.452 0 26.09 11.894 26.09 26.666 l 0 138.67 c 0 14.773 -11.635 26.666 -26.09 26.666 l -187.83 0 c -14.452 0 -26.09 -11.894 -26.09 -26.666 l 0 -74.67 c 0 -16 10.435 -26.666 26.09 -26.666 z" style="fill:#ffca28;fill-opacity:1;stroke:none"/>
  <path d="m 8 983.03 0 10.667 c 0 14.773 11.635 26.666 26.09 26.666 l 187.83 0 c 14.452 0 26.09 -11.894 26.09 -26.666 l 0 -10.667 c 0 14.774 -11.635 29.334 -26.09 29.334 l -187.83 0 c -14.452 0 -26.09 -14.56 -26.09 -29.334 z" style="fill:#000;opacity:0.15;fill-opacity:1;stroke:none"/>
  <path d="m 92.63 924.11 c -9.691 0 -17.625 8.06 -17.625 18 0 3.334 0.942 6.555 2.5 9.25 l 0 19.5 c -1.919 0.41 -3.752 1.301 -5.25 2.5 l -17.375 -8 c 0 -7.086 -5.706 -12.875 -12.625 -12.875 -6.907 0 -12.625 5.785 -12.625 12.875 0 7.099 5.715 13 12.625 13 2.802 0 5.4 -1.142 7.5 -2.75 l 17.625 8.25 c 0.182 6.94 5.828 12.5 12.625 12.5 6.919 0 12.625 -5.776 12.625 -12.875 0 -2.958 -1.1 -5.691 -2.75 -7.875 l 0.25 0 9.25 -16.75 c 0.066 -0.072 0.059 -0.228 0.125 -0.248 6.211 -2.806 10.75 -9.125 10.75 -16.5 0 -9.926 -7.946 -18 -17.625 -18 z m 0 6 c 6.511 0 11.625 5.325 11.625 12 0 6.688 -5.118 12 -11.625 12 -6.52 0 -11.625 -5.312 -11.625 -12 0 -6.675 5.105 -12 11.625 -12 z m 0 4.375 c -4.163 0 -7.625 3.336 -7.625 7.625 0 4.271 3.462 7.625 7.625 7.625 4.175 0 7.5 -3.35 7.5 -7.625 0 -4.286 -3.325 -7.625 -7.5 -7.625 z m -50.37 23.12 c 4.133 0 6.504 1.787 7.25 5.25 l -4.375 -2 c -2.856 -1.245 -6.164 0.068 -7.375 3 -1.211 2.929 0.019 6.267 2.875 7.5 l 3.375 1.625 c -0.551 0.092 -1.12 0.124 -1.75 0.124 -5.03 0 -7.5 -2.578 -7.5 -7.75 0 -5.16 2.467 -7.75 7.5 -7.75 z m 37.75 17.25 c 4.658 0 8.375 3.85 8.375 8.625 0 4.775 -3.717 8.5 -8.375 8.5 -3.783 0 -6.955 -2.486 -8 -6 l 6 2.75 c 2.856 1.245 6.164 -0.308 7.375 -3.25 1.211 -2.928 -0.144 -6.268 -3 -7.5 l -5.5 -2.5 c 0.964 -0.4 2.02 -0.625 3.125 -0.625 z" style="fill:#000;fill-opacity:0.098;stroke:none;fill-rule:nonzero"/>
  <path d="m 92.63 916.11 c -9.691 0 -17.625 8.06 -17.625 18 0 3.334 0.942 6.555 2.5 9.25 l 0 19.5 c -1.919 0.41 -3.752 1.301 -5.25 2.5 l -17.375 -8 c 0 -7.086 -5.706 -12.875 -12.625 -12.875 -6.907 0 -12.625 5.785 -12.625 12.875 0 7.099 5.715 13 12.625 13 2.802 0 5.4 -1.142 7.5 -2.75 l 17.625 8.25 c 0.182 6.94 5.828 12.5 12.625 12.5 6.919 0 12.625 -5.776 12.625 -12.875 0 -2.958 -1.1 -5.691 -2.75 -7.875 l 0.25 0 9.25 -16.75 c 0.066 -0.072 0.059 -0.228 0.125 -0.248 6.211 -2.806 10.75 -9.125 10.75 -16.5 0 -9.926 -7.946 -18 -17.625 -18 z m 0 6 c 6.511 0 11.625 5.325 11.625 12 0 6.688 -5.118 12 -11.625 12 -6.52 0 -11.625 -5.312 -11.625 -12 0 -6.675 5.105 -12 11.625 -12 z m 0 4.375 c -4.163 0 -7.625 3.336 -7.625 7.625 0 4.271 3.462 7.625 7.625 7.625 4.175 0 7.5 -3.35 7.5 -7.625 0 -4.286 -3.325 -7.625 -7.5 -7.625 z m -50.37 23.12 c 4.133 0 6.504 1.787 7.25 5.25 l -4.375 -2 c -2.856 -1.245 -6.164 0.068 -7.375 3 -1.211 2.929 0.019 6.267 2.875 7.5 l 3.375 1.625 c -0.551 0.092 -1.12 0.124 -1.75 0.124 -5.03 0 -7.5 -2.578 -7.5 -7.75 0 -5.16 2.467 -7.75 7.5 -7.75 z m 37.75 17.25 c 4.658 0 8.375 3.85 8.375 8.625 0 4.775 -3.717 8.5 -8.375 8.5 -3.783 0 -6.955 -2.486 -8 -6 l 6 2.75 c 2.856 1.245 6.164 -0.308 7.375 -3.25 1.211 -2.928 -0.144 -6.268 -3 -7.5 l -5.5 -2.5 c 0.964 -0.4 2.02 -0.625 3.125 -0.625 z" style="fill:#fff8e1;fill-opacity:1;stroke:none;fill-rule:nonzero"/>
 </g>
</svg>
