<?xml version="1.0" encoding="UTF-8" standalone="no"?>
<!-- Created with Inkscape (http://www.inkscape.org/) -->

<svg
   xmlns:dc="http://purl.org/dc/elements/1.1/"
   xmlns:cc="http://creativecommons.org/ns#"
   xmlns:rdf="http://www.w3.org/1999/02/22-rdf-syntax-ns#"
   xmlns:svg="http://www.w3.org/2000/svg"
   xmlns="http://www.w3.org/2000/svg"
   xmlns:sodipodi="http://sodipodi.sourceforge.net/DTD/sodipodi-0.dtd"
   xmlns:inkscape="http://www.inkscape.org/namespaces/inkscape"
   width="22"
   height="22"
   id="svg2"
   version="1.1"
   inkscape:version="0.91 r"
   sodipodi:docname="yellow-folder-copy.svg">
  <defs
     id="defs4" />
  <sodipodi:namedview
     id="base"
     pagecolor="#ffffff"
     bordercolor="#666666"
     borderopacity="1.0"
     inkscape:pageopacity="0.0"
     inkscape:pageshadow="2"
     inkscape:zoom="11.313708"
     inkscape:cx="9.4565824"
     inkscape:cy="14.728954"
     inkscape:document-units="px"
     inkscape:current-layer="layer1"
     showgrid="true"
     inkscape:window-width="1280"
     inkscape:window-height="998"
     inkscape:window-x="0"
     inkscape:window-y="0"
     inkscape:window-maximized="1">
    <inkscape:grid
       type="xygrid"
       id="grid2990"
       empspacing="5"
       visible="true"
       enabled="true"
       snapvisiblegridlinesonly="true" />
  </sodipodi:namedview>
  <metadata
     id="metadata7">
    <rdf:RDF>
      <cc:Work
         rdf:about="">
        <dc:format>image/svg+xml</dc:format>
        <dc:type
           rdf:resource="http://purl.org/dc/dcmitype/StillImage" />
        <dc:title />
      </cc:Work>
    </rdf:RDF>
  </metadata>
  <g
     inkscape:label="Body"
     inkscape:groupmode="layer"
     id="layer1"
     transform="translate(0,-1030.3622)">
    <rect
       style="fill:#ffb300;fill-opacity:1;stroke:none"
       id="rect2987-0-7"
       width="11"
       height="7.5000224"
       x="2"
       y="1034.3619"
       rx="1.1956522"
       ry="1.1718777" />
    <path
       style="opacity:0.2;fill:#ffffff;fill-opacity:1;stroke:none"
       d="m 3.195653,1034.3619 c -0.662392,0 -1.195653,0.5 -1.195653,1.25 l 0,0.75 c 0,-0.6926 0.53326,-1 1.195653,-1 l 8.608694,0 c 0.662392,0 1.195653,0.3074 1.195653,1 l 0,-0.75 c 0,-0.6926 -0.533261,-1.25 -1.195653,-1.25 z"
       id="rect3797-7"
       inkscape:connector-curvature="0"
       sodipodi:nodetypes="sscsscsss" />
    <path
       style="fill:#ffca28;fill-opacity:1;stroke:none"
       d="m 3.195653,1036.3619 1.913043,0 c 2.630435,-0.2361 2.152173,-3 3.826086,-3 l 2.869566,0 c 0.662392,0 1.195652,0.5265 1.195652,1.1805 l 0,6.6392 c 0,0.6541 -0.53326,1.1806 -1.195652,1.1806 l -8.608695,0 C 2.53326,1042.3622 2,1041.8357 2,1041.1816 l 0,-3.8058 c 0,-0.7084 0.478261,-1.0139 1.195653,-1.0139 z"
       id="rect3776-2"
       inkscape:connector-curvature="0"
       sodipodi:nodetypes="cccsssssscc" />
    <path
       style="opacity:0.15;fill:#000000;fill-opacity:1;stroke:none"
       d="m 2,1040.264 0,0.9569 c 0,0.6323 0.52381,1.141 1.195653,1.141 l 8.608694,0 c 0.662392,0 1.195653,-0.5087 1.195653,-1.141 l 0,-0.9569 c 0,0.6323 -0.533261,1.0979 -1.195653,1.0979 l -8.608694,0 C 2.53326,1041.3619 2,1040.8963 2,1040.264 z"
       id="path3786-1"
       inkscape:connector-curvature="0"
       sodipodi:nodetypes="csssscssc" />
    <rect
       style="fill:#ffb300;fill-opacity:1;stroke:none"
       id="rect2987-0"
       width="11"
       height="7.5000224"
       x="9"
       y="1041.3619"
       rx="1.1956522"
       ry="1.1718777" />
    <path
       style="opacity:0.2;fill:#ffffff;fill-opacity:1;stroke:none"
       d="m 10.195653,1041.3619 c -0.662392,0 -1.195653,0.5 -1.195653,1.25 l 0,0.75 c 0,-0.6926 0.53326,-1 1.195653,-1 l 8.608694,0 c 0.662392,0 1.195653,0.3074 1.195653,1 l 0,-0.75 c 0,-0.6926 -0.533261,-1.25 -1.195653,-1.25 z"
       id="rect3797"
       inkscape:connector-curvature="0"
       sodipodi:nodetypes="sscsscsss" />
    <path
       style="fill:#ffca28;fill-opacity:1;stroke:none"
       d="m 10.195653,1043.3619 1.913043,0 c 2.630435,-0.2361 2.152173,-3 3.826086,-3 l 2.869566,0 c 0.662392,0 1.195652,0.5265 1.195652,1.1805 l 0,6.6392 c 0,0.6541 -0.53326,1.1806 -1.195652,1.1806 l -8.608695,0 C 9.53326,1049.3622 9,1048.8357 9,1048.1816 l 0,-3.8058 c 0,-0.7084 0.478261,-1.0139 1.195653,-1.0139 z"
       id="rect3776"
       inkscape:connector-curvature="0"
       sodipodi:nodetypes="cccsssssscc" />
    <path
       style="opacity:0.15;fill:#000000;fill-opacity:1;stroke:none"
       d="m 9,1047.264 0,0.9569 c 0,0.6323 0.52381,1.141 1.195653,1.141 l 8.608694,0 c 0.662392,0 1.195653,-0.5087 1.195653,-1.141 l 0,-0.9569 c 0,0.6323 -0.533261,1.0979 -1.195653,1.0979 l -8.608694,0 C 9.53326,1048.3619 9,1047.8963 9,1047.264 z"
       id="path3786"
       inkscape:connector-curvature="0"
       sodipodi:nodetypes="csssscssc" />
  </g>
</svg>
