<svg xmlns="http://www.w3.org/2000/svg" viewBox="0 0 32 32">
 <g transform="translate(0,-1020.3622)">
  <path d="m 4 1025.36 23.5 0 c 1 0 1.5 0.5 1.5 1.5 l 0 3.499 c 0 0.554 -0.474 0.5 -1 0.5 l -24 0 c -0.526 0 -1 -0.446 -1 -1 l 0 -4.499 z" style="fill:#388e3c;fill-opacity:1;stroke:none"/>
  <path d="m 3 1028.36 0 2.5 26 0 0 -2.5 z" style="fill:#000;opacity:0.03;fill-opacity:1;stroke:none"/>
  <path d="m 3 1027.36 0 -2.5 c 0 -1 0.455 -1.5 0.909 -1.5 l 5.182 0 c 0.455 0 0.909 0.5 0.909 1.5 l 0 2.5 z" style="fill:#388e3c;fill-opacity:1;stroke:none"/>
  <rect width="30" height="20" x="1" y="1029.36" rx="2" ry="1.667" style="fill:#66bb6a;fill-opacity:1;stroke:none"/>
  <path d="m 3 1029.36 c -1.108 0 -2 0.748 -2 1.672 l 0 1 c 0 -0.923 0.892 -1.672 2 -1.672 l 26 0 c 1.108 0 2 0.748 2 1.672 l 0 -1 c 0 -0.923 -0.892 -1.672 -2 -1.672 l -26 0 z" style="fill:#fff;opacity:0.1;fill-opacity:1;stroke:none"/>
  <path d="m 10 1025.36 0 1 1 0 16.5 0 c 1 0 1.5 0.5 1.5 1.5 l 0 -1 c 0 -1 -0.5 -1.5 -1.5 -1.5 l -16.5 0 z" style="fill:#000;opacity:0.05;fill-opacity:1;stroke:none"/>
  <path d="m 3.906 1023.36 c -0.455 0 -0.906 0.5 -0.906 1.5 l 0 1 c 0 -1 0.452 -1.5 0.906 -1.5 l 5.188 0 c 0.455 0 0.906 0.5 0.906 1.5 l 0 -1 c 0 -1 -0.452 -1.5 -0.906 -1.5 l -5.188 0 z" style="fill:#000;opacity:0.05;fill-opacity:1;stroke:none"/>
  <path d="m 9 12 l 0 5 l 5 0 l -2.25 -2.25 c 1.086 -1.086 2.593 -1.75 4.25 -1.75 c 3.314 0 6 2.686 6 6 c 0 3.314 -2.686 6 -6 6 c -3.314 0 -6 -2.686 -6 -6 l -1 0 c 0 3.866 3.134 7 7 7 c 3.866 0 7 -3.134 7 -7 c 0 -3.866 -3.134 -7 -7 -7 c -1.926 0 -3.669 0.802 -4.938 2.063 l -2.063 -2.063 z m 6.906 2.469 a 1 1 0 0 0 -0.125 0.031 a 1 1 0 0 0 -0.781 1 l 0 3.688 a 1 1 0 0 0 0 0.094 a 1 1 0 0 0 0.125 0.75 a 1 1 0 0 0 0.031 0.031 a 1 1 0 0 0 0.031 0.063 a 1 1 0 0 0 0.031 0.031 a 1 1 0 0 0 0.031 0.031 a 1 1 0 0 0 0.031 0.031 a 1 1 0 0 0 0.031 0.031 a 1 1 0 0 0 0.063 0.031 a 1 1 0 0 0 0.031 0.031 a 1 1 0 0 0 0.031 0.031 a 1 1 0 0 0 0.063 0.031 a 1 1 0 0 0 0.125 0.063 l 2.469 1.438 a 1.01 1.01 0 0 0 1 -1.75 l -2.094 -1.219 l 0 -3.406 a 1 1 0 0 0 -1.094 -1.031 z" transform="translate(0,1020.3622)" style="fill:#448647;opacity:1;fill-opacity:1;stroke:none"/>
 </g>
</svg>
