<svg xmlns="http://www.w3.org/2000/svg" viewBox="0 0 32 32">
 <g transform="translate(0,-1020.3622)">
  <path d="m 4 1025.36 23.5 0 c 1 0 1.5 0.5 1.5 1.5 l 0 3.499 c 0 0.554 -0.474 0.5 -1 0.5 l -24 0 c -0.526 0 -1 -0.446 -1 -1 l 0 -4.499 z" style="fill:#e65100;fill-opacity:1;stroke:none"/>
  <path d="m 3 1028.36 0 2.5 26 0 0 -2.5 z" style="fill:#000;opacity:0.03;fill-opacity:1;stroke:none"/>
  <path d="m 3 1027.36 0 -2.5 c 0 -1 0.455 -1.5 0.909 -1.5 l 5.182 0 c 0.455 0 0.909 0.5 0.909 1.5 l 0 2.5 z" style="fill:#e65100;fill-opacity:1;stroke:none"/>
  <rect width="30" height="20" x="1" y="1029.36" rx="2" ry="1.667" style="fill:#f57c00;fill-opacity:1;stroke:none"/>
  <path d="m 3 1029.36 c -1.108 0 -2 0.748 -2 1.672 l 0 1 c 0 -0.923 0.892 -1.672 2 -1.672 l 26 0 c 1.108 0 2 0.748 2 1.672 l 0 -1 c 0 -0.923 -0.892 -1.672 -2 -1.672 l -26 0 z" style="fill:#fff;opacity:0.1;fill-opacity:1;stroke:none"/>
  <path d="m 10 1025.36 0 1 1 0 16.5 0 c 1 0 1.5 0.5 1.5 1.5 l 0 -1 c 0 -1 -0.5 -1.5 -1.5 -1.5 l -16.5 0 z" style="fill:#000;opacity:0.05;fill-opacity:1;stroke:none"/>
  <path d="m 3.906 1023.36 c -0.455 0 -0.906 0.5 -0.906 1.5 l 0 1 c 0 -1 0.452 -1.5 0.906 -1.5 l 5.188 0 c 0.455 0 0.906 0.5 0.906 1.5 l 0 -1 c 0 -1 -0.452 -1.5 -0.906 -1.5 l -5.188 0 z" style="fill:#000;opacity:0.05;fill-opacity:1;stroke:none"/>
  <path d="m 15.06 1033.36 c -0.333 0 -0.611 0.264 -0.611 0.597 l 0 0.778 c -0.21 0.071 -0.415 0.153 -0.611 0.25 l -0.542 -0.542 c -0.235 -0.235 -0.612 -0.235 -0.847 0 l -1.361 1.347 c -0.235 0.235 -0.235 0.612 0 0.847 l 0.542 0.542 c -0.1 0.2 -0.178 0.411 -0.25 0.625 l -0.764 0 c -0.333 0 -0.611 0.264 -0.611 0.597 l 0 1.917 c 0 0.333 0.278 0.597 0.611 0.597 l 0.764 0 c 0.072 0.214 0.15 0.425 0.25 0.625 l -0.542 0.542 c -0.235 0.235 -0.235 0.612 0 0.847 l 1.361 1.347 c 0.235 0.235 0.612 0.235 0.847 0 l 0.542 -0.542 c 0.197 0.098 0.401 0.179 0.611 0.25 l 0 0.778 c 0 0.333 0.278 0.597 0.611 0.597 l 1.903 0 c 0.333 0 0.597 -0.264 0.597 -0.597 l 0 -0.778 c 0.214 -0.072 0.425 -0.15 0.625 -0.25 l 0.542 0.542 c 0.235 0.235 0.612 0.235 0.847 0 l 1.361 -1.347 c 0.235 -0.235 0.235 -0.612 0 -0.847 l -0.556 -0.555 c 0.097 -0.197 0.179 -0.401 0.25 -0.611 l 0.778 0 c 0.333 0 0.597 -0.264 0.597 -0.597 l 0 -1.917 c 0 -0.333 -0.264 -0.597 -0.597 -0.597 l -0.778 0 c -0.071 -0.21 -0.153 -0.415 -0.25 -0.611 l 0.556 -0.555 c 0.235 -0.235 0.235 -0.612 0 -0.847 l -1.361 -1.347 c -0.235 -0.235 -0.612 -0.235 -0.847 0 l -0.542 0.542 c -0.2 -0.1 -0.411 -0.178 -0.625 -0.25 l 0 -0.778 c 0 -0.333 -0.264 -0.597 -0.597 -0.597 l -1.903 0 z m 0.944 4.444 c 0.859 0 1.556 0.697 1.556 1.556 0 0.859 -0.697 1.556 -1.556 1.556 -0.859 0 -1.556 -0.697 -1.556 -1.556 0 -0.859 0.697 -1.556 1.556 -1.556 z" style="fill:#ab5d0b;opacity:0.3;fill-opacity:1;display:block;color:#000"/>
 </g>
</svg>
