<svg xmlns="http://www.w3.org/2000/svg" viewBox="0 0 32 32">
 <g transform="translate(0,-1020.3622)">
  <path d="m 4 1025.36 23.5 0 c 1 0 1.5 0.5 1.5 1.5 l 0 3.499 c 0 0.554 -0.474 0.5 -1 0.5 l -24 0 c -0.526 0 -1 -0.446 -1 -1 l 0 -4.499 z" style="fill:#e65100;fill-opacity:1;stroke:none"/>
  <path d="m 3 1028.36 0 2.5 26 0 0 -2.5 z" style="fill:#000;opacity:0.03;fill-opacity:1;stroke:none"/>
  <path d="m 3 1027.36 0 -2.5 c 0 -1 0.455 -1.5 0.909 -1.5 l 5.182 0 c 0.455 0 0.909 0.5 0.909 1.5 l 0 2.5 z" style="fill:#e65100;fill-opacity:1;stroke:none"/>
  <rect width="30" height="20" x="1" y="1029.36" rx="2" ry="1.667" style="fill:#f57c00;fill-opacity:1;stroke:none"/>
  <path d="m 3 1029.36 c -1.108 0 -2 0.748 -2 1.672 l 0 1 c 0 -0.923 0.892 -1.672 2 -1.672 l 26 0 c 1.108 0 2 0.748 2 1.672 l 0 -1 c 0 -0.923 -0.892 -1.672 -2 -1.672 l -26 0 z" style="fill:#fff;opacity:0.1;fill-opacity:1;stroke:none"/>
  <path d="m 10 1025.36 0 1 1 0 16.5 0 c 1 0 1.5 0.5 1.5 1.5 l 0 -1 c 0 -1 -0.5 -1.5 -1.5 -1.5 l -16.5 0 z" style="fill:#000;opacity:0.05;fill-opacity:1;stroke:none"/>
  <path d="m 3.906 1023.36 c -0.455 0 -0.906 0.5 -0.906 1.5 l 0 1 c 0 -1 0.452 -1.5 0.906 -1.5 l 5.188 0 c 0.455 0 0.906 0.5 0.906 1.5 l 0 -1 c 0 -1 -0.452 -1.5 -0.906 -1.5 l -5.188 0 z" style="fill:#000;opacity:0.05;fill-opacity:1;stroke:none"/>
  <path d="m 17.929 1033.36 c -1.404 0 -2.563 1.094 -2.563 2.464 0.01 0.47 0.036 1.065 0.303 2.322 l 0.028 0 c 0.054 0.166 0.137 0.332 0.276 0.51 0.124 0.159 0.289 0.341 0.441 0.51 0.047 0.355 0.054 0.666 0 1.048 -0.417 0.325 -1.169 0.629 -1.846 0.906 -0.353 0.145 -0.679 0.278 -0.937 0.453 -0.246 0.167 -0.424 0.394 -0.441 0.68 -0.001 0.014 -0.028 0.014 -0.028 0.028 l -0.303 2.408 0 0.028 c 0 0.298 0.193 0.543 0.469 0.736 0.275 0.194 0.648 0.346 1.102 0.482 0.908 0.271 2.139 0.425 3.5 0.425 1.361 0 2.592 -0.154 3.5 -0.425 0.454 -0.135 0.827 -0.287 1.102 -0.482 0.275 -0.194 0.469 -0.438 0.469 -0.736 l 0 -0.028 -0.331 -2.408 c 0 -0.01 0 -0.019 0 -0.028 -0.008 -0.136 -0.056 -0.27 -0.138 -0.368 -0.087 -0.105 -0.202 -0.172 -0.331 -0.255 -0.257 -0.165 -0.584 -0.304 -0.937 -0.453 -0.686 -0.29 -1.437 -0.619 -1.846 -0.963 -0.031 -0.329 -0.032 -0.663 0 -0.991 0.148 -0.18 0.314 -0.365 0.441 -0.538 0.141 -0.192 0.248 -0.367 0.303 -0.538 0.301 -1.309 0.315 -1.843 0.331 -2.322 0 -1.37 -1.159 -2.464 -2.563 -2.464 z m -4.768 0.453 c -1.153 0 -2.094 0.915 -2.094 2.039 0.008 0.385 0.029 0.838 0.248 1.869 l 0 0.028 c 0.045 0.138 0.132 0.248 0.248 0.397 0.101 0.13 0.236 0.289 0.358 0.425 0.037 0.285 0.042 0.572 0 0.878 -0.341 0.269 -0.958 0.51 -1.516 0.736 -0.289 0.118 -0.533 0.225 -0.744 0.368 -0.199 0.135 -0.341 0.336 -0.358 0.566 -0.001 0.014 -0.028 0.014 -0.028 0.029 l -0.276 1.954 l 0 0.028 c 0 0.184 0.086 0.343 0.22 0.482 0.135 0.139 0.322 0.266 0.551 0.368 0.452 0.202 1.095 0.342 1.874 0.425 l 0.028 0 c 0.042 0 0.084 -0.012 0.11 -0.028 0.032 -0.021 0.069 -0.037 0.083 -0.056 0.027 -0.039 0.043 -0.078 0.055 -0.113 0.021 -0.062 0.025 -0.135 0.028 -0.198 0 -0.01 0 -0.019 0 -0.028 l 0.303 -2.407 c 0 -0.099 0.066 -0.217 0.22 -0.34 0.155 -0.123 0.388 -0.247 0.661 -0.368 0.546 -0.243 1.238 -0.469 1.791 -0.765 l 0.303 -0.17 -0.303 -0.142 c -0.219 -0.109 -0.386 -0.229 -0.524 -0.34 -0.027 -0.28 -0.028 -0.571 0 -0.85 0.001 -0.01 -0.001 -0.019 0 -0.028 0.21 -0.291 0.37 -0.593 0.441 -0.765 l 0.028 -0.056 -0.028 -0.056 c -0.024 -0.141 -0.016 -0.248 -0.055 -0.368 -0.264 -1.242 -0.293 -1.755 -0.303 -2.209 0 -0.191 0.044 -0.414 0.11 -0.623 l 0.055 -0.113 -0.11 -0.056 c -0.368 -0.302 -0.855 -0.51 -1.378 -0.51 z" style="fill:#ab5d0b;opacity:1;fill-opacity:1;color:#000"/>
 </g>
</svg>
