<svg xmlns="http://www.w3.org/2000/svg" viewBox="0 0 32 32">
 <g transform="translate(0,-1020.3622)">
  <path d="m 4 1025.36 23.5 0 c 1 0 1.5 0.5 1.5 1.5 l 0 3.499 c 0 0.554 -0.474 0.5 -1 0.5 l -24 0 c -0.526 0 -1 -0.446 -1 -1 l 0 -4.499 z" style="fill:#d32f2f;fill-opacity:1;stroke:none"/>
  <path d="m 3 1028.36 0 2.5 26 0 0 -2.5 z" style="fill:#000;opacity:0.03;fill-opacity:1;stroke:none"/>
  <path d="m 3 1027.36 0 -2.5 c 0 -1 0.455 -1.5 0.909 -1.5 l 5.182 0 c 0.455 0 0.909 0.5 0.909 1.5 l 0 2.5 z" style="fill:#d32f2f;fill-opacity:1;stroke:none"/>
  <rect width="30" height="20" x="1" y="1029.36" rx="2" ry="1.667" style="fill:#ef5350;fill-opacity:1;stroke:none"/>
  <path d="m 3 1029.36 c -1.108 0 -2 0.748 -2 1.672 l 0 1 c 0 -0.923 0.892 -1.672 2 -1.672 l 26 0 c 1.108 0 2 0.748 2 1.672 l 0 -1 c 0 -0.923 -0.892 -1.672 -2 -1.672 l -26 0 z" style="fill:#fff;opacity:0.1;fill-opacity:1;stroke:none"/>
  <path d="m 10 1025.36 0 1 1 0 16.5 0 c 1 0 1.5 0.5 1.5 1.5 l 0 -1 c 0 -1 -0.5 -1.5 -1.5 -1.5 l -16.5 0 z" style="fill:#000;opacity:0.05;fill-opacity:1;stroke:none"/>
  <path d="m 3.906 1023.36 c -0.455 0 -0.906 0.5 -0.906 1.5 l 0 1 c 0 -1 0.452 -1.5 0.906 -1.5 l 5.188 0 c 0.455 0 0.906 0.5 0.906 1.5 l 0 -1 c 0 -1 -0.452 -1.5 -0.906 -1.5 l -5.188 0 z" style="fill:#000;opacity:0.05;fill-opacity:1;stroke:none"/>
  <path d="m 21.5 11.5 c -0.828 0 -1.5 0.672 -1.5 1.5 c 0 0.828 0.672 1.5 1.5 1.5 c 0.828 0 1.5 -0.672 1.5 -1.5 c 0 -0.828 -0.672 -1.5 -1.5 -1.5 z m -5.5 1 c -1.146 0 -2.215 0.316 -3.125 0.875 l 1.5 1.5 c 0.501 -0.226 1.04 -0.375 1.625 -0.375 c 2.039 0 3.722 1.528 3.969 3.5 l 2 0 c -0.081 -0.96 -0.365 -1.847 -0.844 -2.625 c -0.188 0.085 -0.406 0.125 -0.625 0.125 c -0.828 0 -1.5 -0.672 -1.5 -1.5 c 0 -0.219 0.04 -0.406 0.125 -0.594 c -0.913 -0.562 -1.974 -0.906 -3.125 -0.906 z m -3.938 1.5 c -0.939 0.819 -1.617 1.9 -1.906 3.156 c 0.498 0.244 0.844 0.752 0.844 1.344 c 0 0.592 -0.346 1.1 -0.844 1.344 c 0.311 1.353 1.071 2.541 2.125 3.375 l 1.438 -1.438 c -1.038 -0.723 -1.719 -1.921 -1.719 -3.281 c 0 -1.255 0.596 -2.36 1.5 -3.094 l -1.438 -1.406 z m -4.063 3 c -0.828 0 -1.5 0.672 -1.5 1.5 c 0 0.828 0.672 1.5 1.5 1.5 c 0.828 0 1.5 -0.672 1.5 -1.5 c 0 -0.828 -0.672 -1.5 -1.5 -1.5 z m 11.969 2 c -0.247 1.972 -1.93 3.5 -3.969 3.5 c -0.473 0 -0.923 -0.099 -1.344 -0.25 l -1.531 1.531 c 0.851 0.465 1.837 0.719 2.875 0.719 c 0.756 0 1.458 -0.12 2.125 -0.375 c -0.085 -0.188 -0.125 -0.406 -0.125 -0.625 c 0 -0.828 0.672 -1.5 1.5 -1.5 c 0.402 0 0.762 0.18 1.031 0.438 c 0.81 -0.935 1.33 -2.131 1.438 -3.438 l -2 0 z m 0.531 4 c -0.828 0 -1.5 0.672 -1.5 1.5 c 0 0.828 0.672 1.5 1.5 1.5 c 0.828 0 1.5 -0.672 1.5 -1.5 c 0 -0.828 -0.672 -1.5 -1.5 -1.5 z" transform="translate(0,1020.3622)" style="fill:#ab3634;opacity:1;fill-opacity:1;stroke:none"/>
 </g>
</svg>
