<svg version="1.1" viewBox="0 0 32 32" xmlns="http://www.w3.org/2000/svg">
 <g transform="translate(0,-1020.3622)">
  <path d="m4 1025.36h23.5c1 0 1.5 0.5 1.5 1.5v3.499c0 0.554-0.474 0.5-1 0.5h-24c-0.526 0-1-0.446-1-1v-4.499z" style="fill:#ffb300"/>
  <path d="m3 1028.36v2.5h26v-2.5z" style="opacity:.03"/>
  <path d="m3 1027.36v-2.5c0-1 0.455-1.5 0.909-1.5h5.182c0.455 0 0.909 0.5 0.909 1.5v2.5z" style="fill:#ffb300"/>
  <rect x="1" y="1029.36" width="30" height="20" rx="2" ry="1.667" style="fill:#ffca28"/>
  <path d="m3 1029.36c-1.108 0-2 0.748-2 1.672v1c0-0.923 0.892-1.672 2-1.672h26c1.108 0 2 0.748 2 1.672v-1c0-0.923-0.892-1.672-2-1.672h-26z" style="fill:#fff;opacity:.1"/>
  <path d="m10 1025.36v1h1 16.5c1 0 1.5 0.5 1.5 1.5v-1c0-1-0.5-1.5-1.5-1.5h-16.5z" style="opacity:.05"/>
  <path d="m3.906 1023.36c-0.455 0-0.906 0.5-0.906 1.5v1c0-1 0.452-1.5 0.906-1.5h5.188c0.455 0 0.906 0.5 0.906 1.5v-1c0-1-0.452-1.5-0.906-1.5h-5.188z" style="opacity:.05"/>
  <path d="m16 1033.3622a6 6 0 0 0-6 6 6 6 0 0 0 6 6h6v-1h-6a5 5 0 0 1-5-5 5 5 0 0 1 5-5zm0 2c-2.209139 0-4 1.7909-4 4s1.790861 4 4 4h6v-1h-6c-1.656854 0-3-1.3431-3-3s1.343146-3 3-3c0.3409 0 0.679075 0.061 1 0.1758v-1.0449c-0.326477-0.086-0.662481-0.1296-1-0.1309zm0 2a2 2 0 0 0-2 2 2 2 0 0 0 2 2h6v-1h-6a1 1 0 0 1-1-1 1 1 0 0 1 1-1h1.730469a2 2 0 0 0-1.730469-1z" style="-inkscape-stroke:none;fill:#c79a18;font-variation-settings:normal;stop-color:#000000"/>
 </g>
</svg>
