<svg viewBox="0 0 32 32" xmlns="http://www.w3.org/2000/svg">
 <path style="fill:#ffb300;fill-opacity:1;stroke:none" d="m 4.5 6.999 11.75 0 c 0.5 0 0.75 0.25 0.75 0.75 l 0 1.749 c 0 0.277 -0.237 0.25 -0.5 0.25 l -12 0 c -0.263 0 -0.5 -0.223 -0.5 -0.5 l 0 -2.249 z"/>
 <path style="fill:#000;opacity:0.03;fill-opacity:1;stroke:none" d="m 4 8.499 0 1.25 13 0 0 -1.25 z"/>
 <path style="fill:#ffb300;fill-opacity:1;stroke:none" d="m 4 7.999 0 -1.25 c 0 -0.5 0.227 -0.75 0.455 -0.75 l 2.591 0 c 0.227 0 0.455 0.25 0.455 0.75 l 0 1.25 z"/>
 <rect rx="1" ry="0.833" x="3" y="8.999" style="fill:#ffca28;fill-opacity:1;stroke:none" height="10" width="15"/>
 <path style="fill:#fff;opacity:0.1;fill-opacity:1;stroke:none" d="m 4 8.999 c -0.554 0 -1 0.374 -1 0.836 l 0 0.5 c 0 -0.462 0.446 -0.836 1 -0.836 l 13 0 c 0.554 0 1 0.374 1 0.836 l 0 -0.5 c 0 -0.462 -0.446 -0.836 -1 -0.836 l -13 0 z"/>
 <path style="fill:#000;opacity:0.05;fill-opacity:1;stroke:none" d="m 7.5 6.999 0 0.5 0.5 0 8.25 0 c 0.5 0 0.75 0.25 0.75 0.75 l 0 -0.5 c 0 -0.5 -0.25 -0.75 -0.75 -0.75 l -8.25 0 z"/>
 <path style="fill:#000;opacity:0.05;fill-opacity:1;stroke:none" d="m 4.453 5.999 c -0.227 0 -0.453 0.25 -0.453 0.75 l 0 0.5 c 0 -0.5 0.226 -0.75 0.453 -0.75 l 2.594 0 c 0.227 0 0.453 0.25 0.453 0.75 l 0 -0.5 c 0 -0.5 -0.226 -0.75 -0.453 -0.75 l -2.594 0 z"/>
 <path style="fill:#fff;opacity:0.5;fill-opacity:1;stroke:none" d="M 4.469,5.9978 C 4.242,5.9978 4,6.2478 4,6.7478 l 0,0.25 0,1 0,1 c -0.554,0 -1,0.382 -1,0.844 l 0,8.313 c 0,0.462 0.446,0.844 1,0.844 l 13,0 c 0.554,0 1,-0.382 1,-0.844 l 0,-8.313 c 0,-0.462 -0.446,-0.844 -1,-0.844 l 0,-1.25 c 0,-0.5 -0.25,-0.75 -0.75,-0.75 l -8.75,0 0,-0.25 c 0,-0.5 -0.241,-0.75 -0.469,-0.75 l -2.563,0 z"/>
 <path style="fill:#ffb300;fill-opacity:1;stroke:none" d="m 15.5 13.998 11.75 0 c 0.5 0 0.75 0.25 0.75 0.75 l 0 1.749 c 0 0.277 -0.237 0.25 -0.5 0.25 l -12 0 c -0.263 0 -0.5 -0.223 -0.5 -0.5 l 0 -2.249 z"/>
 <path style="fill:#000;opacity:0.03;fill-opacity:1;stroke:none" d="m 15 15.498 0 1.25 13 0 0 -1.25 z"/>
 <path style="fill:#ffb300;fill-opacity:1;stroke:none" d="m 15 14.998 0 -1.25 c 0 -0.5 0.227 -0.75 0.455 -0.75 l 2.591 0 c 0.227 0 0.455 0.25 0.455 0.75 l 0 1.25 z"/>
 <rect rx="1" ry="0.833" x="14" y="15.998" style="fill:#ffca28;fill-opacity:1;stroke:none" height="10" width="15"/>
 <path style="fill:#fff;opacity:0.1;fill-opacity:1;stroke:none" d="m 15 15.998 c -0.554 0 -1 0.374 -1 0.836 l 0 0.5 c 0 -0.462 0.446 -0.836 1 -0.836 l 13 0 c 0.554 0 1 0.374 1 0.836 l 0 -0.5 c 0 -0.462 -0.446 -0.836 -1 -0.836 l -13 0 z"/>
 <path style="fill:#000;opacity:0.05;fill-opacity:1;stroke:none" d="m 18.5 13.998 0 0.5 0.5 0 8.25 0 c 0.5 0 0.75 0.25 0.75 0.75 l 0 -0.5 c 0 -0.5 -0.25 -0.75 -0.75 -0.75 l -8.25 0 z"/>
 <path style="fill:#000;opacity:0.05;fill-opacity:1;stroke:none" d="m 15.453 12.998 c -0.227 0 -0.453 0.25 -0.453 0.75 l 0 0.5 c 0 -0.5 0.226 -0.75 0.453 -0.75 l 2.594 0 c 0.227 0 0.453 0.25 0.453 0.75 l 0 -0.5 c 0 -0.5 -0.226 -0.75 -0.453 -0.75 l -2.594 0 z"/>
</svg>
