<svg xmlns="http://www.w3.org/2000/svg" viewBox="0 0 24 24">
 <path d="m 4 3 c -0.547 0 -1 0.41 -1 1 l 0 1 -1 0 c -0.502 0 -1 0.385 -1 1 0 4.594 0 9.406 0 14 0 0.546 0.493 1 1 1 l 20 0 c 0.516 0 1 -0.437 1 -1 l 0 -13 c 0 -0.577 -0.423 -1 -1 -1 l -2 0 0 -2 c 0 -0.487 -0.402 -1 -1 -1 z" style="visibility:visible;fill:#42a5f5;fill-opacity:1;stroke:none;display:inline;color:#000;fill-rule:nonzero"/>
 <path d="m 4 3 c -0.544 0 -1 0.399 -1 1 l 0 1 -1 0 c -0.507 0 -1 0.396 -1 1 0 4.594 0 9.406 0 14 0 0.487 0.419 1 1 1 l 20 0 c 0.521 0 1 -0.443 1 -1 l 0 -13 c 0 -0.573 -0.394 -1 -1 -1 l -2 0 0 -2 c 0 -0.559 -0.457 -1 -1 -1 z m 10 3 0 1 8 0 0 13 -20 0 0 -14 z" style="visibility:visible;fill:#000;fill-opacity:0.322;stroke:none;display:inline;color:#000;fill-rule:nonzero"/>
 <path d="m 12 8 c -0.554 0 -1 0.446 -1 1 l 0 4 -1.531 0 c -0.632 0 -0.632 -0.007 0 0.625 l 1.906 1.906 c 0.632 0.632 0.618 0.632 1.25 0 l 1.906 -1.906 c 0.632 -0.632 0.632 -0.625 0 -0.625 l -1.531 0 0 -4 c 0 -0.554 -0.446 -1 -1 -1 z m -4.625 4 c -0.209 0 -0.375 0.223 -0.375 0.5 l 0 5 c 0 0.069 0.012 0.128 0.031 0.188 0.009 0.023 0.019 0.041 0.031 0.063 0.016 0.034 0.041 0.066 0.063 0.094 0.054 0.071 0.109 0.107 0.188 0.125 c 0.021 0.005 0.04 0.031 0.063 0.031 l 0.125 0 0.125 0 8.875 0 c 0.199 0 0.388 -0.113 0.469 -0.281 0.003 -0.008 -0.003 -0.023 0 -0.031 c 0.025 -0.06 0.031 -0.118 0.031 -0.188 l 0 -5 c 0 -0.277 -0.223 -0.5 -0.5 -0.5 -0.277 0 -0.5 0.223 -0.5 0.5 l 0 4.5 -8 0 0 -4.5 c 0 -0.277 -0.166 -0.5 -0.375 -0.5 l -0.25 0 z" style="fill:#000;fill-opacity:0.322;stroke:none"/>
</svg>
