<svg version="1.1" viewBox="0 0 24 24" xmlns="http://www.w3.org/2000/svg">
 <path d="m4 3c-0.547 0-1 0.41-1 1v1h-1c-0.502 0-1 0.385-1 1v14c0 0.546 0.493 1 1 1h20c0.516 0 1-0.437 1-1v-13c0-0.577-0.423-1-1-1h-2v-2c0-0.487-0.402-1-1-1z" style="fill:#66bb6a"/>
 <path d="m4 3c-0.544 0-1 0.399-1 1v1h-1c-0.507 0-1 0.396-1 1v14c0 0.487 0.419 1 1 1h20c0.521 0 1-0.443 1-1v-13c0-0.573-0.394-1-1-1h-2v-2c0-0.559-0.457-1-1-1zm10 3v1h8v13h-20v-14z" style="fill-opacity:.322"/>
 <path d="m8.8685355 10.00005c-0.076373 0-0.1528391 0.043-0.1813587 0.1285l-0.9471768 2.8715h2.32l-1.0101057-2.8715c-0.028529-0.086-0.1049859-0.1285-0.1813588-0.1285zm1.1914645 3 1.940002 6 1.940998-6zm3.881 0h2.319l-0.947174-2.8715c-0.05703-0.1714-0.305651-0.1714-0.362717 0zm2.319 0-4.259998 6 4.842751-3.4379c0.133624-0.095 0.189607-0.2629 0.138577-0.4163zm-4.259998 6-4.260002-6-0.7213276 2.1458c-0.05103 0.1532 0.00493 0.3214 0.1385775 0.4163z" style="-inkscape-stroke:none;fill-opacity:.322;font-variation-settings:normal;stop-color:#000000"/>
</svg>
