<svg xmlns="http://www.w3.org/2000/svg" viewBox="0 0 24 24">
 <path d="m 4 3 c -0.547 0 -1 0.41 -1 1 l 0 1 -1 0 c -0.502 0 -1 0.385 -1 1 0 4.594 0 9.406 0 14 0 0.546 0.493 1 1 1 l 20 0 c 0.516 0 1 -0.437 1 -1 l 0 -13 c 0 -0.577 -0.423 -1 -1 -1 l -2 0 0 -2 c 0 -0.487 -0.402 -1 -1 -1 z" style="visibility:visible;fill:#ef5350;fill-opacity:1;stroke:none;display:inline;color:#000;fill-rule:nonzero"/>
 <path d="m 4 3 c -0.544 0 -1 0.399 -1 1 l 0 1 -1 0 c -0.507 0 -1 0.396 -1 1 0 4.594 0 9.406 0 14 0 0.487 0.419 1 1 1 l 20 0 c 0.521 0 1 -0.443 1 -1 l 0 -13 c 0 -0.573 -0.394 -1 -1 -1 l -2 0 0 -2 c 0 -0.559 -0.457 -1 -1 -1 z m 10 3 0 1 8 0 0 13 -20 0 0 -14 z" style="visibility:visible;fill:#000;fill-opacity:0.322;stroke:none;display:inline;color:#000;fill-rule:nonzero"/>
 <path d="M 7,9 C 6.446,9 6,9.446 6,10 l 0,6 0,2 c 0,0.554 0.446,1 1,1 l 0.5,0 8.25,0 1.25,0 c 0.554,0 1,-0.446 1,-1 L 18,17.8125 18,10 C 18,9.446 17.554,9 17,9 L 7,9 z m 1,1 8,0 c 0.554,0 1,0.446 1,1 L 17,16.625 14,13 12,15 10,12 7,15 7,11 c 0,-0.554 0.446,-1 1,-1 z" style="fill:#000;fill-opacity:0.322;stroke:none;fill-rule:evenodd"/>
</svg>
