<svg xmlns="http://www.w3.org/2000/svg" viewBox="0 0 24 24">
 <g transform="translate(0,-1028.3622)">
  <path d="m 4 1031.36 c -0.547 0 -1 0.41 -1 1 l 0 1 -1 0 c -0.502 0 -1 0.385 -1 1 0 4.594 0 9.406 0 14 0 0.546 0.493 1 1 1 l 20 0 c 0.516 0 1 -0.437 1 -1 l 0 -13 c 0 -0.577 -0.423 -1 -1 -1 l -2 0 0 -2 c 0 -0.487 -0.402 -1 -1 -1 z" style="visibility:visible;fill:#ffca28;fill-opacity:1;stroke:none;display:inline;color:#000;fill-rule:nonzero"/>
  <path d="m 4 1031.36 c -0.544 0 -1 0.399 -1 1 l 0 1 -1 0 c -0.507 0 -1 0.397 -1 1 0 4.594 0 9.406 0 14 0 0.487 0.419 1 1 1 l 20 0 c 0.521 0 1 -0.443 1 -1 l 0 -13 c 0 -0.573 -0.394 -1 -1 -1 l -2 0 0 -2 c 0 -0.559 -0.457 -1 -1 -1 z m 10 3 0 1 8 0 0 13 -20 0 0 -14 z" style="visibility:visible;fill:#000;fill-opacity:0.322;stroke:none;display:inline;color:#000;fill-rule:nonzero"/>
  <path d="M 10.5 1038.36 A 3 2.8 0 0 0 7.719 1041.17 3 2.8 0 0 0 8 1042.36 l -0.281 0 0 0.031 A 2.143 2 0 0 0 6 1044.36 a 2.143 2 0 0 0 1.719 1.969 l 0 0.031 0.219 0 0.344 0 8 0 0 -0.031 A 2.143 2 0 0 0 18 1044.36 a 2.143 2 0 0 0 -1.719 -1.969 l 0 -0.031 -0.438 0 a 2.143 2 0 0 0 0.438 -1.188 2.143 2 0 0 0 -2.125 -2 2.143 2 0 0 0 -1.094 0.25 3 2.8 0 0 0 -2.344 -1.063 3 2.8 0 0 0 -0.219 0 z" style="fill:#000;fill-opacity:0.322;stroke:none"/>
 </g>
</svg>
