<?xml version="1.0" encoding="UTF-8" standalone="no"?>
<!-- Created with Inkscape (http://www.inkscape.org/) -->

<svg
   xmlns:dc="http://purl.org/dc/elements/1.1/"
   xmlns:cc="http://creativecommons.org/ns#"
   xmlns:rdf="http://www.w3.org/1999/02/22-rdf-syntax-ns#"
   xmlns:svg="http://www.w3.org/2000/svg"
   xmlns="http://www.w3.org/2000/svg"
   xmlns:sodipodi="http://sodipodi.sourceforge.net/DTD/sodipodi-0.dtd"
   xmlns:inkscape="http://www.inkscape.org/namespaces/inkscape"
   width="16"
   height="16"
   id="svg2"
   version="1.1"
   inkscape:version="0.91 r"
   sodipodi:docname="default-folder-cloud.svg"
   inkscape:export-filename="/media/Data/Main/Visuals/Icons/Numix/Desktop/repos/numix-wiki/Gjorgi/Numix-folders/48/New/folder-144.png"
   inkscape:export-xdpi="270"
   inkscape:export-ydpi="270">
  <defs
     id="defs4" />
  <sodipodi:namedview
     id="base"
     pagecolor="#ffffff"
     bordercolor="#666666"
     borderopacity="1.0"
     inkscape:pageopacity="0.0"
     inkscape:pageshadow="2"
     inkscape:zoom="40.503104"
     inkscape:cx="7.6867206"
     inkscape:cy="8.5018467"
     inkscape:document-units="px"
     inkscape:current-layer="layer1"
     showgrid="true"
     inkscape:window-width="1280"
     inkscape:window-height="998"
     inkscape:window-x="0"
     inkscape:window-y="0"
     inkscape:window-maximized="1"
     showguides="true"
     inkscape:guide-bbox="true">
    <inkscape:grid
       type="xygrid"
       id="grid2985"
       empspacing="5"
       visible="true"
       enabled="true"
       snapvisiblegridlinesonly="true" />
  </sodipodi:namedview>
  <metadata
     id="metadata7">
    <rdf:RDF>
      <cc:Work
         rdf:about="">
        <dc:format>image/svg+xml</dc:format>
        <dc:type
           rdf:resource="http://purl.org/dc/dcmitype/StillImage" />
        <dc:title />
      </cc:Work>
    </rdf:RDF>
  </metadata>
  <g
     inkscape:label="Layer 1"
     inkscape:groupmode="layer"
     id="layer1"
     transform="translate(0,-1036.3622)">
    <g
       style="font-size:40px;font-style:normal;font-weight:normal;line-height:125%;letter-spacing:0px;word-spacing:0px;opacity:1;fill:#e9a439;fill-opacity:1;stroke:none;font-family:Sans"
       id="text3970" />
    <path
       id="rect3408"
       style="fill:#e9a439;fill-opacity:1;stroke:none;opacity:1"
       d="m 7.261661,1042.3623 0.02213,0 c 0.195324,0 0.35257,0.1783 0.35257,0.3999 l 0,3.5999 c 0,0.2217 -0.157246,0.4001 -0.35257,0.4001 l -0.02213,0 c -0.195324,0 -0.35257,-0.1784 -0.35257,-0.4001 l 0,-3.5999 c 0,-0.2216 0.157246,-0.3999 0.35257,-0.3999 z M 6,1046.8622 a 2.9999998,3.4999968 0 0 1 -3.0000005,3.5 2.9999998,3.4999968 0 0 1 -2.9999995,-3.5 2.9999998,3.4999968 0 0 1 2.9999995,-3.5 2.9999998,3.4999968 0 0 1 3.0000005,3.5 z m 4,-4.5 a 4,3.9999966 0 0 1 -4,4 4,3.9999966 0 0 1 -4,-4 4,3.9999966 0 0 1 4,-4 4,3.9999966 0 0 1 4,4 z m 4,1.0001 a 2.9999999,2.9999975 0 0 1 -3,2.9999 2.9999999,2.9999975 0 0 1 -3,-2.9999 2.9999999,2.9999975 0 0 1 3,-3.0001 2.9999999,2.9999975 0 0 1 3,3.0001 z m 2,3.9999 a 2.9999998,2.9999975 0 0 1 -3,3 2.9999998,2.9999975 0 0 1 -3,-3 2.9999998,2.9999975 0 0 1 3,-3 2.9999998,2.9999975 0 0 1 3,3 z m -13.090909,-4.6 9.818182,0 0,7.6 -9.818182,0 z" />
  </g>
</svg>
