<svg xmlns="http://www.w3.org/2000/svg" viewBox="0 0 16 16">
 <g transform="translate(0,-1036.3622)">
  <path transform="translate(0,1036.3622)" d="M 2.8125,0 C 1.3515161,0 1.0563883,0.70864348 1,2 L 4,0 z M 4,0 13.05,0 C 13.95,0 15,1 15,2 l 0,6 c 0,1.108 -0.8974,2 -1.95,2 L 3,10 C 1.9474,10 1,9.108 1,8 L 1,2 z" style="fill:#d32f2f;fill-opacity:1;stroke:none"/>
  <rect rx="1" y="1041.36" height="11" width="16" style="fill:#ef5350;fill-opacity:1;stroke:none"/>
  <path d="M 1 5 C 0.446 5 0 5.446 0 6 L 16 6 C 16 5.446 15.554 5 15 5 L 1 5 z " transform="translate(0,1036.3622)" style="fill:#fff;opacity:0.1;fill-opacity:1;stroke:none"/>
  <path d="m 2.813 0 c -1.461 0 -1.756 0.709 -1.813 2 l 0 1 c 0.056 -1.291 0.352 -2 1.813 -2 l 1.188 0 l 9.06 0 c 0.9 0 1.938 1 1.938 2 l 0 -1 c 0 -1 -1.037 -2 -1.938 -2 l -9.06 0 l -1.188 0 z" transform="translate(0,1036.3622)" style="fill:#000;opacity:0.05;fill-opacity:1;stroke:none"/>
 </g>
</svg>
