<?xml version="1.0" encoding="UTF-8" standalone="no"?>
<!-- Created with Inkscape (http://www.inkscape.org/) -->

<svg
   xmlns:dc="http://purl.org/dc/elements/1.1/"
   xmlns:cc="http://creativecommons.org/ns#"
   xmlns:rdf="http://www.w3.org/1999/02/22-rdf-syntax-ns#"
   xmlns:svg="http://www.w3.org/2000/svg"
   xmlns="http://www.w3.org/2000/svg"
   xmlns:xlink="http://www.w3.org/1999/xlink"
   xmlns:sodipodi="http://sodipodi.sourceforge.net/DTD/sodipodi-0.dtd"
   xmlns:inkscape="http://www.inkscape.org/namespaces/inkscape"
   width="32"
   height="32"
   id="svg2"
   version="1.1"
   inkscape:version="0.91 r"
   sodipodi:docname="grey-network.svg">
  <defs
     id="defs4">
    <linearGradient
       id="linearGradient3886-9">
      <stop
         style="stop-color:#000000;stop-opacity:1;"
         offset="0"
         id="stop3888-3" />
      <stop
         style="stop-color:#000000;stop-opacity:0.19607843;"
         offset="1"
         id="stop3890-7" />
    </linearGradient>
    <radialGradient
       r="24"
       fy="40.5"
       fx="24"
       cy="40.5"
       cx="24"
       gradientTransform="matrix(0.83333334,0,0,0.13888885,-4,1041.4039)"
       gradientUnits="userSpaceOnUse"
       id="radialGradient3098"
       xlink:href="#linearGradient3886-9"
       inkscape:collect="always" />
  </defs>
  <sodipodi:namedview
     id="base"
     pagecolor="#ffffff"
     bordercolor="#666666"
     borderopacity="1.0"
     inkscape:pageopacity="0.0"
     inkscape:pageshadow="2"
     inkscape:zoom="24.92945"
     inkscape:cx="20.581289"
     inkscape:cy="12.162939"
     inkscape:document-units="px"
     inkscape:current-layer="layer1"
     showgrid="true"
     inkscape:window-width="1280"
     inkscape:window-height="998"
     inkscape:window-x="0"
     inkscape:window-y="0"
     inkscape:window-maximized="1">
    <inkscape:grid
       type="xygrid"
       id="grid2990"
       empspacing="5"
       visible="true"
       enabled="true"
       snapvisiblegridlinesonly="true" />
  </sodipodi:namedview>
  <metadata
     id="metadata7">
    <rdf:RDF>
      <cc:Work
         rdf:about="">
        <dc:format>image/svg+xml</dc:format>
        <dc:type
           rdf:resource="http://purl.org/dc/dcmitype/StillImage" />
        <dc:title />
      </cc:Work>
    </rdf:RDF>
  </metadata>
  <g
     inkscape:label="Body"
     inkscape:groupmode="layer"
     id="layer1"
     transform="translate(0,-1020.3622)">
    <path
       inkscape:connector-curvature="0"
       style="opacity:0.1;fill:url(#radialGradient3098);fill-opacity:1;stroke:none"
       d="m 16,1043.6955 c -6.5510326,0 -12.3519802,0.5221 -16,1.3334 l 0,4 c 3.6480198,0.8112 9.4489674,1.3333 16,1.3333 6.551033,0 12.35198,-0.5221 16,-1.3333 l 0,-4 c -3.64802,-0.8113 -9.448967,-1.3334 -16,-1.3334 z"
       id="path3868" />
    <rect
       style="fill:#757575;fill-opacity:1;stroke:none"
       id="rect2987"
       width="30"
       height="20.999954"
       x="1"
       y="1027.3622"
       rx="3.2608695"
       ry="3.2812409" />
    <path
       style="opacity:0.2;fill:#ffffff;fill-opacity:1;stroke:none"
       d="M 4.2608696,1027.0289 C 2.4543478,1027.0289 1,1028.5155 1,1030.3622 l 0,1.3333 c 0,-1.8466 1.4543478,-3.3333 3.2608696,-3.3333 l 23.4782604,0 c 1.806522,0 3.26087,1.4867 3.26087,3.3333 l 0,-1.3333 c 0,-1.8467 -1.454348,-3.3333 -3.26087,-3.3333 l -23.4782604,0 z"
       id="rect3797"
       inkscape:connector-curvature="0" />
    <path
       style="fill:#bdbdbd;fill-opacity:1;stroke:none"
       d="m 4.2608696,1032.3622 5.2173913,0 c 7.1739131,-0.6667 5.8695651,-8 10.4347821,-8 l 7.826087,0 c 1.806522,0 3.26087,1.4867 3.26087,3.3333 l 0,17.3334 c 0,1.8466 -1.454348,3.3333 -3.26087,3.3333 l -23.4782604,0 C 2.4543478,1048.3622 1,1046.8755 1,1045.0289 l 0,-9.3334 c 0,-2 1.3043478,-3.3333 3.2608696,-3.3333 z"
       id="rect3776"
       inkscape:connector-curvature="0"
       sodipodi:nodetypes="cccsssssscc" />
    <path
       inkscape:connector-curvature="0"
       style="line-height:normal;color:#000000;fill:#000000;fill-opacity:0.09803922"
       d="M 7.9376614,1036.3622 C 6.0182564,1036.3622 4,1038.3806 4,1040.8623 c 0,2.4816 2.018259,4.4999 3.9376614,4.4999 3.0440796,0 5.0623386,-2.0183 5.0623386,-4.4999 0,-2.4817 -2.018256,-4.5001 -4.5,-4.5001 z m 0.927963,0.633 c 0.4194424,0.039 0.8258387,0.1345 1.1953136,0.2952 -0.02844,0.035 -0.05042,0.067 -0.07031,0.1266 -0.1136429,0.3409 -0.2832486,0.1784 -0.084376,0.6045 0.198873,0.4262 0.365054,0.5363 0.421874,0.3375 0.05683,-0.1988 -0.142908,-0.4792 0.08438,-0.3656 0.227285,0.1137 0.395464,-0.031 0.225,0.2252 -0.170463,0.2556 -0.16675,0.3942 -0.365625,0.3374 -0.198874,-0.057 -0.194875,0.337 -0.3937499,0.3938 -0.1988732,0.056 -0.2671871,-0.086 -0.2671871,0.056 0,0.142 0.1127848,0.012 0.084377,0.2392 -0.00866,0.07 -0.0061,0.082 -0.014059,0.1123 -0.1866793,-0.053 -0.2699376,-0.083 -0.4078125,-0.029 -0.1420528,0.057 -0.3093751,0.4219 -0.3093751,0.4219 0.1774518,0.1774 0.2597844,0.3052 0.3234376,0.3656 -0.039716,0.021 -0.087499,0.028 -0.1265625,0.056 -0.2841062,0.199 -0.5053944,0.2364 -0.5906251,0.5203 -0.085233,0.2844 -0.056244,0.024 -0.056244,0.3656 0,0.3411 -0.08609,0.1093 0.084376,0.422 0.1704632,0.3126 0.5886256,0.4623 0.7874987,0.6328 0.1988749,0.1704 0.4038159,-0.3709 0.8015629,0.1406 0.397747,0.5114 0.423304,0.3065 0.28125,0.5907 -0.142054,0.2842 -0.280679,0.3786 -0.337499,0.4922 -0.05682,0.1135 0.1105,0.5054 0.309374,0.5905 0.0042,0 0.0096,0 0.01407,0 -0.01059,0.024 -0.01762,0.047 -0.02813,0.07 -0.257532,0.117 -0.5732281,0.2783 -0.632813,0.2952 -0.140625,0.041 -0.6368304,0.1245 -0.9984368,0.225 -0.045205,0.013 -0.080784,0.013 -0.098437,0.015 0.044955,-0.049 0.4003945,-0.2348 0.5765619,-0.3373 0.2410726,-0.141 -0.014059,-0.1267 -0.014059,-0.1267 0,0 -0.3837053,-0.043 -1.1671868,-0.043 -0.3917417,0 -0.5614952,0.017 -0.646875,0.043 -0.042686,0.013 -0.063662,0.025 -0.084376,0.043 -0.020719,0.018 -0.035158,0.036 -0.070312,0.056 -0.1406263,0.081 0.082364,0.1647 -0.098437,0.225 -0.1356017,0.045 -0.1513601,0 -0.2671869,-0.085 0.082624,-0.082 0.1966405,-0.1812 0.3374995,-0.3517 0.2556951,-0.3092 0.3366437,-0.2529 0.4218742,-0.5341 0.085234,-0.2815 -0.7171862,-0.1969 -0.7171862,-0.3657 0,-0.1688 -0.1380561,-0.2812 -0.39375,-0.3937 -0.255695,-0.1126 -0.081523,-0.1689 -0.3656256,-0.2532 -0.2841043,-0.085 -0.60383,0.4217 -0.6890619,0.2532 -0.085233,-0.1689 0.2671876,-0.1689 0.2671876,-0.3656 0,-0.1922 -0.4052044,0.145 -0.4781263,-0.098 -0.00192,-0.01 -0.012639,-0.01 -0.014066,-0.015 -0.00713,-0.035 -0.00251,-0.056 0,-0.085 0.017877,-0.2023 0.252126,-0.2813 0.3515631,-0.4782 0.113643,-0.2247 0.054823,0.1689 0.196875,0.3657 0.1420535,0.1969 0.085234,-0.253 0,-0.5063 -0.085232,-0.2532 0.05425,-0.253 0.2531257,-0.5905 0.1988736,-0.3376 0.196875,-0.5344 0.196875,-0.7876 0,-0.2531 0.13777,-0.2811 0.4218744,-0.5344 0.1302157,-0.1159 0.2323767,-0.217 0.3093749,-0.3092 0.01861,-0.01 0.037421,-0.01 0.05625,-0.015 0.3013406,-0.1205 0.4279018,-0.3012 0.6890626,-0.8438 0.2611619,-0.5422 -0.1024548,-0.036 -0.1828126,-0.055 -0.080358,-0.02 -0.196875,-0.1627 -0.478125,-0.3235 -0.058005,-0.033 -0.1097697,-0.049 -0.1546875,-0.056 l 0.5203131,-0.8578 c 0.166666,-0.045 0.3456078,-0.076 0.5203119,-0.099 0.063919,0.3638 0.028132,0.7033 0.028132,0.7033 0,0 -0.098438,0.1165 -0.098438,0.1969 0,0.081 0.5383928,-0.663 0.6187499,-0.7031 0.080359,-0.041 0.2832584,0.2129 0.3234369,-0.1688 0.00225,-0.022 -0.00251,-0.022 0,-0.043 z m 0.759375,1.5187 c -0.028851,-0.01 -0.062929,-10e-5 -0.098436,0.015 0,0.099 -0.038494,0.1717 -0.056243,0.2109 -0.010562,-0.017 -0.042191,-0.043 -0.042191,-0.043 -0.042609,0.079 -0.1345229,0.148 -0.042191,0.1266 0.092334,-0.02 0.1623612,0.036 0.098438,-0.043 -0.012292,-0.015 -0.0065,-0.01 -0.014066,-0.015 0.011977,0.01 0.034656,0.015 0.084376,0.015 0.055942,0 0.08601,0 0.1265619,0 -0.068587,0.051 -0.1433996,0.072 -0.042191,0.098 0.1349498,0.035 0.1968751,0.043 0.1968751,0.015 0,-0.028 -0.042184,-0.1267 -0.042184,-0.1267 0.026363,-0.011 0.050856,-0.024 0.028132,-0.07 -0.042615,-0.084 -0.1103123,-0.1695 -0.1968763,-0.1828 z m 2.1515626,0.2389 c 0.07026,0.1092 0.137577,0.2214 0.196876,0.3376 -0.03912,0.2268 -0.138457,0.3797 0.02813,0.3797 0.04657,0 0.08812,-0.011 0.126563,-0.015 0.0052,0.014 0.009,0.029 0.01407,0.043 -0.284106,0 -0.420447,0.086 -0.562499,0.056 -0.142054,-0.029 -0.536946,-0.054 -0.281251,-0.3092 0.149442,-0.1495 0.336124,-0.387 0.478125,-0.4924 z m -1.771874,0.5205 c 0.02618,0.01 0.04901,0.035 0.07031,0.084 0.08523,0.1989 0.226142,0.3654 0.112501,0.3937 -0.113643,0.028 -0.168752,0.056 -0.168752,0.056 0,0 0.393465,0.2559 0.421876,-0.028 0.02841,-0.2842 -0.112501,-0.4501 -0.112501,-0.4501 0,0 0.196305,0.1958 0.253126,0.3095 0.05683,0.1136 0.05482,0 0.196875,0.1406 0.142052,0.142 0.110501,-0.5645 0.309376,-0.3657 0.198874,0.1989 0.324009,0.1955 0.267186,0.3375 -0.05683,0.1421 0.365627,-0.1715 0.365627,0.1125 0,0.2739 0.174675,0.385 -0.16875,0.5204 -0.130025,-0.01 -0.23294,-0.031 -0.253127,-0.07 -0.05683,-0.1136 -0.379687,-0.028 -0.379687,-0.028 -0.84989,-0.2124 -1.218858,-0.2797 -1.4625002,-0.239 0.00463,-0.01 0.00908,-0.01 0.014066,-0.014 0.1242965,-0.2239 0.3581589,-0.5347 0.2812501,-0.6469 0.1083208,-0.062 0.1932322,-0.1308 0.2531251,-0.1125 z m 2.390624,1.4201 c 0.0025,0.057 0,0.1112 0,0.1689 0,0.1599 -0.0096,0.3232 -0.02813,0.478 -0.255606,-0.2274 -0.61875,-0.225 -0.61875,-0.225 0,0 0.221859,-0.2519 0.534375,-0.3656 0.03908,-0.014 0.08093,-0.033 0.1125,-0.056 z"
       id="path3041" />
    <path
       id="path4139"
       d="M 7.9376614,1035.3622 C 6.0182564,1035.3622 4,1037.3806 4,1039.8623 c 0,2.4816 2.018259,4.4999 3.9376614,4.4999 3.0440796,0 5.0623386,-2.0183 5.0623386,-4.4999 0,-2.4817 -2.018256,-4.5001 -4.5,-4.5001 z m 0.927963,0.633 c 0.4194424,0.039 0.8258387,0.1345 1.1953136,0.2952 -0.02844,0.035 -0.05042,0.067 -0.07031,0.1266 -0.1136429,0.3409 -0.2832486,0.1784 -0.084376,0.6045 0.198873,0.4262 0.365054,0.5363 0.421874,0.3375 0.05683,-0.1988 -0.142908,-0.4792 0.08438,-0.3656 0.227285,0.1137 0.395464,-0.031 0.225,0.2252 -0.170463,0.2556 -0.16675,0.3942 -0.365625,0.3374 -0.198874,-0.057 -0.194875,0.337 -0.3937499,0.3938 -0.1988732,0.056 -0.2671871,-0.086 -0.2671871,0.056 0,0.142 0.1127848,0.012 0.084377,0.2392 -0.00866,0.07 -0.0061,0.082 -0.014059,0.1123 -0.1866793,-0.053 -0.2699376,-0.083 -0.4078125,-0.029 -0.1420528,0.057 -0.3093751,0.4219 -0.3093751,0.4219 0.1774518,0.1774 0.2597844,0.3052 0.3234376,0.3656 -0.039716,0.021 -0.087499,0.028 -0.1265625,0.056 -0.2841062,0.199 -0.5053944,0.2364 -0.5906251,0.5203 -0.085233,0.2844 -0.056244,0.024 -0.056244,0.3656 0,0.3411 -0.08609,0.1093 0.084376,0.422 0.1704632,0.3126 0.5886256,0.4623 0.7874987,0.6328 0.1988749,0.1704 0.4038159,-0.3709 0.8015629,0.1406 0.397747,0.5114 0.423304,0.3065 0.28125,0.5907 -0.142054,0.2842 -0.280679,0.3786 -0.337499,0.4922 -0.05682,0.1135 0.1105,0.5054 0.309374,0.5905 0.0042,0 0.0096,0 0.01407,0 -0.01059,0.024 -0.01762,0.047 -0.02813,0.07 -0.257532,0.117 -0.5732281,0.2783 -0.632813,0.2952 -0.140625,0.041 -0.6368304,0.1245 -0.9984368,0.225 -0.045205,0.013 -0.080784,0.013 -0.098437,0.015 0.044955,-0.049 0.4003945,-0.2348 0.5765619,-0.3373 0.2410726,-0.141 -0.014059,-0.1267 -0.014059,-0.1267 0,0 -0.3837053,-0.043 -1.1671868,-0.043 -0.3917417,0 -0.5614952,0.017 -0.646875,0.043 -0.042686,0.013 -0.063662,0.025 -0.084376,0.043 -0.020719,0.018 -0.035158,0.036 -0.070312,0.056 -0.1406263,0.081 0.082364,0.1647 -0.098437,0.225 -0.1356017,0.045 -0.1513601,0 -0.2671869,-0.085 0.082624,-0.082 0.1966405,-0.1812 0.3374995,-0.3517 0.2556951,-0.3092 0.3366437,-0.2529 0.4218742,-0.5341 0.085234,-0.2815 -0.7171862,-0.1969 -0.7171862,-0.3657 0,-0.1688 -0.1380561,-0.2812 -0.39375,-0.3937 -0.255695,-0.1126 -0.081523,-0.1689 -0.3656256,-0.2532 -0.2841043,-0.085 -0.60383,0.4217 -0.6890619,0.2532 -0.085233,-0.1689 0.2671876,-0.1689 0.2671876,-0.3656 0,-0.1922 -0.4052044,0.145 -0.4781263,-0.098 -0.00192,-0.01 -0.012639,-0.01 -0.014066,-0.015 -0.00713,-0.035 -0.00251,-0.056 0,-0.085 0.017877,-0.2023 0.252126,-0.2813 0.3515631,-0.4782 0.113643,-0.2247 0.054823,0.1689 0.196875,0.3657 0.1420535,0.1969 0.085234,-0.253 0,-0.5063 -0.085232,-0.2532 0.05425,-0.253 0.2531257,-0.5905 0.1988736,-0.3376 0.196875,-0.5344 0.196875,-0.7876 0,-0.2531 0.13777,-0.2811 0.4218744,-0.5344 0.1302157,-0.1159 0.2323767,-0.217 0.3093749,-0.3092 0.01861,-0.01 0.037421,-0.01 0.05625,-0.015 0.3013406,-0.1205 0.4279018,-0.3012 0.6890626,-0.8438 0.2611619,-0.5422 -0.1024548,-0.036 -0.1828126,-0.055 -0.080358,-0.02 -0.196875,-0.1627 -0.478125,-0.3235 -0.058005,-0.033 -0.1097697,-0.049 -0.1546875,-0.056 l 0.5203131,-0.8578 c 0.166666,-0.045 0.3456078,-0.076 0.5203119,-0.099 0.063919,0.3638 0.028132,0.7033 0.028132,0.7033 0,0 -0.098438,0.1165 -0.098438,0.1969 0,0.081 0.5383928,-0.663 0.6187499,-0.7031 0.080359,-0.041 0.2832584,0.2129 0.3234369,-0.1688 0.00225,-0.022 -0.00251,-0.022 0,-0.043 z m 0.759375,1.5187 c -0.028851,-0.01 -0.062929,-10e-5 -0.098436,0.015 0,0.099 -0.038494,0.1717 -0.056243,0.2109 -0.010562,-0.017 -0.042191,-0.043 -0.042191,-0.043 -0.042609,0.079 -0.1345229,0.148 -0.042191,0.1266 0.092334,-0.02 0.1623612,0.036 0.098438,-0.043 -0.012292,-0.015 -0.0065,-0.01 -0.014066,-0.015 0.011977,0.01 0.034656,0.015 0.084376,0.015 0.055942,0 0.08601,0 0.1265619,0 -0.068587,0.051 -0.1433996,0.072 -0.042191,0.098 0.1349498,0.035 0.1968751,0.043 0.1968751,0.015 0,-0.028 -0.042184,-0.1267 -0.042184,-0.1267 0.026363,-0.011 0.050856,-0.024 0.028132,-0.07 -0.042615,-0.084 -0.1103123,-0.1695 -0.1968763,-0.1828 z m 2.1515626,0.2389 c 0.07026,0.1092 0.137577,0.2214 0.196876,0.3376 -0.03912,0.2268 -0.138457,0.3797 0.02813,0.3797 0.04657,0 0.08812,-0.011 0.126563,-0.015 0.0052,0.014 0.009,0.029 0.01407,0.043 -0.284106,0 -0.420447,0.086 -0.562499,0.056 -0.142054,-0.029 -0.536946,-0.054 -0.281251,-0.3092 0.149442,-0.1495 0.336124,-0.387 0.478125,-0.4924 z m -1.771874,0.5205 c 0.02618,0.01 0.04901,0.035 0.07031,0.084 0.08523,0.1989 0.226142,0.3654 0.112501,0.3937 -0.113643,0.028 -0.168752,0.056 -0.168752,0.056 0,0 0.393465,0.2559 0.421876,-0.028 0.02841,-0.2842 -0.112501,-0.4501 -0.112501,-0.4501 0,0 0.196305,0.1958 0.253126,0.3095 0.05683,0.1136 0.05482,0 0.196875,0.1406 0.142052,0.142 0.110501,-0.5645 0.309376,-0.3657 0.198874,0.1989 0.324009,0.1955 0.267186,0.3375 -0.05683,0.1421 0.365627,-0.1715 0.365627,0.1125 0,0.2739 0.174675,0.385 -0.16875,0.5204 -0.130025,-0.01 -0.23294,-0.031 -0.253127,-0.07 -0.05683,-0.1136 -0.379687,-0.028 -0.379687,-0.028 -0.84989,-0.2124 -1.218858,-0.2797 -1.4625002,-0.239 0.00463,-0.01 0.00908,-0.01 0.014066,-0.014 0.1242965,-0.2239 0.3581589,-0.5347 0.2812501,-0.6469 0.1083208,-0.062 0.1932322,-0.1308 0.2531251,-0.1125 z m 2.390624,1.4201 c 0.0025,0.057 0,0.1112 0,0.1689 0,0.1599 -0.0096,0.3232 -0.02813,0.478 -0.255606,-0.2274 -0.61875,-0.225 -0.61875,-0.225 0,0 0.221859,-0.2519 0.534375,-0.3656 0.03908,-0.014 0.08093,-0.033 0.1125,-0.056 z"
       style="line-height:normal;color:#000000;fill:#fff8e1;fill-opacity:1"
       inkscape:connector-curvature="0" />
    <path
       style="opacity:0.15;fill:#000000;fill-opacity:1;stroke:none"
       d="m 1,1043.6955 0,1.3334 c 0,1.8466 1.4543478,3.3333 3.2608696,3.3333 l 23.4782604,0 c 1.806522,0 3.26087,-1.4867 3.26087,-3.3333 l 0,-1.3334 c 0,1.8467 -1.454348,3.6667 -3.26087,3.6667 l -23.4782604,0 C 2.4543478,1047.3622 1,1045.5422 1,1043.6955 z"
       id="path3786"
       inkscape:connector-curvature="0"
       sodipodi:nodetypes="csssscssc" />
  </g>
</svg>
