<svg xmlns="http://www.w3.org/2000/svg" viewBox="0 0 48 48">
 <defs>
  <linearGradient id="linearGradient3764" x1="1" x2="47" gradientUnits="userSpaceOnUse" gradientTransform="matrix(0,-1,1,0,-1.5e-6,47.999998)">
   <stop style="stop-color:#2986db;stop-opacity:1"/>
   <stop offset="1" style="stop-color:#3a90de;stop-opacity:1"/>
  </linearGradient>
 </defs>
 <g>
  <path d="m 36.31 5 c 5.859 4.062 9.688 10.831 9.688 18.5 c 0 12.426 -10.07 22.5 -22.5 22.5 c -7.669 0 -14.438 -3.828 -18.5 -9.688 c 1.037 1.822 2.306 3.499 3.781 4.969 c 4.085 3.712 9.514 5.969 15.469 5.969 c 12.703 0 23 -10.298 23 -23 c 0 -5.954 -2.256 -11.384 -5.969 -15.469 c -1.469 -1.475 -3.147 -2.744 -4.969 -3.781 z m 4.969 3.781 c 3.854 4.113 6.219 9.637 6.219 15.719 c 0 12.703 -10.297 23 -23 23 c -6.081 0 -11.606 -2.364 -15.719 -6.219 c 4.16 4.144 9.883 6.719 16.219 6.719 c 12.703 0 23 -10.298 23 -23 c 0 -6.335 -2.575 -12.06 -6.719 -16.219 z" style="opacity:0.05"/>
  <path d="m 41.28 8.781 c 3.712 4.085 5.969 9.514 5.969 15.469 c 0 12.703 -10.297 23 -23 23 c -5.954 0 -11.384 -2.256 -15.469 -5.969 c 4.113 3.854 9.637 6.219 15.719 6.219 c 12.703 0 23 -10.298 23 -23 c 0 -6.081 -2.364 -11.606 -6.219 -15.719 z" style="opacity:0.1"/>
  <path d="m 31.25 2.375 c 8.615 3.154 14.75 11.417 14.75 21.13 c 0 12.426 -10.07 22.5 -22.5 22.5 c -9.708 0 -17.971 -6.135 -21.12 -14.75 a 23 23 0 0 0 44.875 -7 a 23 23 0 0 0 -16 -21.875 z" style="opacity:0.2"/>
 </g>
 <g>
  <path d="m 24 1 c 12.703 0 23 10.297 23 23 c 0 12.703 -10.297 23 -23 23 -12.703 0 -23 -10.297 -23 -23 0 -12.703 10.297 -23 23 -23 z" style="fill:url(#linearGradient3764);fill-opacity:1"/>
 </g>
 <g>
  <path d="m 40.03 7.531 c 3.712 4.084 5.969 9.514 5.969 15.469 0 12.703 -10.297 23 -23 23 c -5.954 0 -11.384 -2.256 -15.469 -5.969 4.178 4.291 10.01 6.969 16.469 6.969 c 12.703 0 23 -10.298 23 -23 0 -6.462 -2.677 -12.291 -6.969 -16.469 z" style="opacity:0.1"/>
 </g>
 <g transform="matrix(3.543307,0,0,3.543307,1.7839312e-5,0.00299989)">
  <path d="m 13.813 16 c -0.441 0.051 -0.816 0.465 -0.813 0.938 l 0 17.09 c 0 0.5 0.434 0.969 0.906 0.969 l 22.09 0 c 0.473 0 1 -0.5 1 -1 l 0 -15 c 0 -0.5 -0.527 -1 -1 -1 l -9 0 0 -1 c 0 -0.648 -0.449 -1 -1 -1 l -12.188 0 z m 13.375 5.75 c 0.195 0.008 0.563 0.375 0.938 0.875 0.461 0.617 0.688 1.531 0.688 1.531 0 0 2.04 1.703 2.781 3.344 0.746 1.637 0.094 3.094 0.094 3.094 0 0 0.313 0.878 0.313 1.188 0 0.312 -0.73 0.554 -1.375 0.031 -0.653 -0.527 -3.156 -3.156 -3.156 -3.156 0 0 -0.634 0.063 -1.656 0.063 -1.016 0 -1.719 -0.656 -1.719 -0.656 0 0 0.317 0.098 1.156 -0.125 0.832 -0.215 0.715 -0.503 0.125 -0.813 -0.586 -0.308 -1.235 -0.344 -2.781 0.219 -1.546 0.559 -2.848 2.25 -3.063 2.531 -0.223 0.27 -0.344 0.34 -0.375 0 -0.031 -0.352 0.859 -1.227 2.25 -2.375 1.386 -1.145 3.25 -0.906 3.25 -0.906 0 0 -1.021 -0.863 -3.219 0.219 -2.186 1.078 -2.477 2.718 -2.844 2.906 -0.371 0.183 -0.523 0.113 -0.25 -1.063 0.285 -1.176 1.687 -3.226 2.5 -4.03 0.801 -0.801 3.02 -1.434 4.5 -1.25 1.483 0.184 1.504 0.09 1.688 -0.281 0.187 -0.371 -0.062 -1.093 0.063 -1.313 0.024 -0.039 0.047 -0.031 0.094 -0.031 z m -10.531 7.469 c 0.645 -0.028 1.313 0.969 1.313 0.969 0 0 -0.696 0.25 -1.313 0.25 -0.621 0 -0.992 -0.723 -0.281 -1.125 0.086 -0.051 0.191 -0.09 0.281 -0.094 z m 1.375 1.219 c 0 0 -0.035 1 -0.5 1.344 -0.465 0.34 -1.218 0.148 -1.063 -0.5 0.156 -0.652 1.563 -0.844 1.563 -0.844 z" transform="scale(0.28222223,0.28222223)" style="fill:#000;opacity:0.1"/>
  <path d="m 12.813 15 c -0.441 0.051 -0.816 0.496 -0.813 0.969 l 0 17.06 c 0 0.5 0.434 0.969 0.906 0.969 l 22.09 0 c 0.473 0 1 -0.5 1 -1 l 0 -14.969 c 0 -0.5 -0.527 -1 -1 -1 l -9 0 0 -1.031 c 0 -0.647 -0.449 -1 -1 -1 l -12.188 0 z m 13.375 5.75 c 0.195 0.008 0.563 0.375 0.938 0.875 0.461 0.617 0.688 1.531 0.688 1.531 0 0 2.04 1.703 2.781 3.344 0.746 1.637 0.094 3.094 0.094 3.094 0 0 0.313 0.878 0.313 1.188 0 0.312 -0.73 0.554 -1.375 0.031 -0.653 -0.527 -3.156 -3.156 -3.156 -3.156 0 0 -0.634 0.063 -1.656 0.063 -1.016 0 -1.719 -0.656 -1.719 -0.656 0 0 0.317 0.098 1.156 -0.125 0.832 -0.215 0.715 -0.503 0.125 -0.813 -0.586 -0.308 -1.235 -0.344 -2.781 0.219 -1.546 0.559 -2.848 2.25 -3.063 2.531 -0.223 0.27 -0.344 0.34 -0.375 0 -0.031 -0.352 0.859 -1.227 2.25 -2.375 1.386 -1.145 3.25 -0.906 3.25 -0.906 0 0 -1.021 -0.863 -3.219 0.219 -2.186 1.078 -2.477 2.718 -2.844 2.906 -0.371 0.183 -0.523 0.113 -0.25 -1.063 0.285 -1.176 1.687 -3.226 2.5 -4.03 0.801 -0.801 3.02 -1.434 4.5 -1.25 1.483 0.184 1.504 0.09 1.688 -0.281 0.187 -0.371 -0.062 -1.093 0.063 -1.313 0.024 -0.039 0.047 -0.031 0.094 -0.031 z m -10.531 7.469 c 0.645 -0.028 1.313 0.969 1.313 0.969 0 0 -0.696 0.25 -1.313 0.25 -0.621 0 -0.992 -0.723 -0.281 -1.125 0.086 -0.051 0.191 -0.09 0.281 -0.094 z m 1.375 1.219 c 0 0 -0.035 1 -0.5 1.344 -0.465 0.34 -1.218 0.148 -1.063 -0.5 0.156 -0.652 1.563 -0.844 1.563 -0.844 z" transform="scale(0.28222223,0.28222223)" style="fill:#ececec"/>
 </g>
</svg>
