<svg xmlns="http://www.w3.org/2000/svg" viewBox="0 0 48 48">
 <defs>
  <linearGradient id="linearGradient3764" x1="1" x2="47" gradientUnits="userSpaceOnUse" gradientTransform="matrix(0,-1,1,0,-1.5e-6,47.999998)">
   <stop style="stop-color:#3d3d3d;stop-opacity:1"/>
   <stop offset="1" style="stop-color:#474747;stop-opacity:1"/>
  </linearGradient>
 </defs>
 <g>
  <path d="m 36.31 5 c 5.859 4.062 9.688 10.831 9.688 18.5 c 0 12.426 -10.07 22.5 -22.5 22.5 c -7.669 0 -14.438 -3.828 -18.5 -9.688 c 1.037 1.822 2.306 3.499 3.781 4.969 c 4.085 3.712 9.514 5.969 15.469 5.969 c 12.703 0 23 -10.298 23 -23 c 0 -5.954 -2.256 -11.384 -5.969 -15.469 c -1.469 -1.475 -3.147 -2.744 -4.969 -3.781 z m 4.969 3.781 c 3.854 4.113 6.219 9.637 6.219 15.719 c 0 12.703 -10.297 23 -23 23 c -6.081 0 -11.606 -2.364 -15.719 -6.219 c 4.16 4.144 9.883 6.719 16.219 6.719 c 12.703 0 23 -10.298 23 -23 c 0 -6.335 -2.575 -12.06 -6.719 -16.219 z" style="opacity:0.05"/>
  <path d="m 41.28 8.781 c 3.712 4.085 5.969 9.514 5.969 15.469 c 0 12.703 -10.297 23 -23 23 c -5.954 0 -11.384 -2.256 -15.469 -5.969 c 4.113 3.854 9.637 6.219 15.719 6.219 c 12.703 0 23 -10.298 23 -23 c 0 -6.081 -2.364 -11.606 -6.219 -15.719 z" style="opacity:0.1"/>
  <path d="m 31.25 2.375 c 8.615 3.154 14.75 11.417 14.75 21.13 c 0 12.426 -10.07 22.5 -22.5 22.5 c -9.708 0 -17.971 -6.135 -21.12 -14.75 a 23 23 0 0 0 44.875 -7 a 23 23 0 0 0 -16 -21.875 z" style="opacity:0.2"/>
 </g>
 <g>
  <path d="m 24 1 c 12.703 0 23 10.297 23 23 c 0 12.703 -10.297 23 -23 23 -12.703 0 -23 -10.297 -23 -23 0 -12.703 10.297 -23 23 -23 z" style="fill:url(#linearGradient3764);fill-opacity:1"/>
 </g>
 <path d="m 13.813 16 c -0.441 0.051 -0.816 0.465 -0.813 0.938 l 0 17.09 c 0 0.5 0.434 0.969 0.906 0.969 l 22.09 0 c 0.473 0 1 -0.5 1 -1 l 0 -15 c 0 -0.5 -0.527 -1 -1 -1 l -9 0 l 0 -1 c 0 -0.648 -0.449 -1 -1 -1 l -12.188 0 z m 13.969 5 c 1.774 0 3.211 1.415 3.219 3.188 l 0 0.031 c 0 1.777 -1.442 3.219 -3.219 3.219 c -0.554 0 -1.074 -0.156 -1.531 -0.406 l -1.688 1.688 l 0 0.844 l -0.844 0 l -0.438 0.438 l 0 0.844 l -0.438 0.438 l -0.844 0 l -0.438 0.438 l -0.844 0 l 0 0.844 l -0.438 0.438 l -1.281 0 l 0 -1.281 l 5.969 -5.969 c -0.25 -0.457 -0.406 -0.972 -0.406 -1.531 c 0 -1.773 1.442 -3.219 3.219 -3.219 z m 0.656 1.719 c -0.476 0 -0.875 0.371 -0.875 0.844 c 0 0.476 0.398 0.875 0.875 0.875 c 0.472 0 0.844 -0.398 0.844 -0.875 c -0.003 -0.472 -0.375 -0.844 -0.844 -0.844 z" style="fill:#000;opacity:0.1"/>
 <g>
  <path d="m 40.03 7.531 c 3.712 4.084 5.969 9.514 5.969 15.469 0 12.703 -10.297 23 -23 23 c -5.954 0 -11.384 -2.256 -15.469 -5.969 4.178 4.291 10.01 6.969 16.469 6.969 c 12.703 0 23 -10.298 23 -23 0 -6.462 -2.677 -12.291 -6.969 -16.469 z" style="opacity:0.1"/>
 </g>
 <path d="m 12.813 15 c -0.441 0.051 -0.816 0.496 -0.813 0.969 l 0 17.06 c 0 0.5 0.434 0.969 0.906 0.969 l 22.09 0 c 0.473 0 1 -0.5 1 -1 l 0 -14.969 c 0 -0.5 -0.527 -1 -1 -1 l -9 0 l 0 -1.031 c 0 -0.647 -0.449 -1 -1 -1 l -12.188 0 z m 13.969 5 c 1.774 0 3.211 1.415 3.219 3.188 l 0 0.031 c 0 1.777 -1.442 3.219 -3.219 3.219 c -0.554 0 -1.074 -0.156 -1.531 -0.406 l -1.688 1.688 l 0 0.844 l -0.844 0 l -0.438 0.438 l 0 0.844 l -0.406 0.438 l -0.875 0 l -0.438 0.438 l -0.844 0 l 0 0.844 l -0.438 0.438 l -1.281 0 l 0 -1.281 l 5.969 -5.969 c -0.25 -0.457 -0.406 -0.972 -0.406 -1.531 c 0 -1.773 1.442 -3.219 3.219 -3.219 z m 0.656 1.719 c -0.476 0 -0.875 0.371 -0.875 0.844 c 0 0.476 0.398 0.875 0.875 0.875 c 0.472 0 0.844 -0.398 0.844 -0.875 c -0.003 -0.472 -0.375 -0.844 -0.844 -0.844 z" style="fill:#ececec"/>
</svg>
