<svg xmlns="http://www.w3.org/2000/svg" viewBox="0 0 48 48">
 <defs>
  <linearGradient id="linearGradient3764" x1="1" x2="47" gradientUnits="userSpaceOnUse" gradientTransform="matrix(0,-1,1,0,-1.5e-6,47.999998)">
   <stop style="stop-color:#7568a0;stop-opacity:1"/>
   <stop offset="1" style="stop-color:#8074a8;stop-opacity:1"/>
  </linearGradient>
 </defs>
 <g>
  <path d="m 36.31 5 c 5.859 4.062 9.688 10.831 9.688 18.5 c 0 12.426 -10.07 22.5 -22.5 22.5 c -7.669 0 -14.438 -3.828 -18.5 -9.688 c 1.037 1.822 2.306 3.499 3.781 4.969 c 4.085 3.712 9.514 5.969 15.469 5.969 c 12.703 0 23 -10.298 23 -23 c 0 -5.954 -2.256 -11.384 -5.969 -15.469 c -1.469 -1.475 -3.147 -2.744 -4.969 -3.781 z m 4.969 3.781 c 3.854 4.113 6.219 9.637 6.219 15.719 c 0 12.703 -10.297 23 -23 23 c -6.081 0 -11.606 -2.364 -15.719 -6.219 c 4.16 4.144 9.883 6.719 16.219 6.719 c 12.703 0 23 -10.298 23 -23 c 0 -6.335 -2.575 -12.06 -6.719 -16.219 z" style="opacity:0.05"/>
  <path d="m 41.28 8.781 c 3.712 4.085 5.969 9.514 5.969 15.469 c 0 12.703 -10.297 23 -23 23 c -5.954 0 -11.384 -2.256 -15.469 -5.969 c 4.113 3.854 9.637 6.219 15.719 6.219 c 12.703 0 23 -10.298 23 -23 c 0 -6.081 -2.364 -11.606 -6.219 -15.719 z" style="opacity:0.1"/>
  <path d="m 31.25 2.375 c 8.615 3.154 14.75 11.417 14.75 21.13 c 0 12.426 -10.07 22.5 -22.5 22.5 c -9.708 0 -17.971 -6.135 -21.12 -14.75 a 23 23 0 0 0 44.875 -7 a 23 23 0 0 0 -16 -21.875 z" style="opacity:0.2"/>
 </g>
 <g>
  <path d="m 24 1 c 12.703 0 23 10.297 23 23 c 0 12.703 -10.297 23 -23 23 -12.703 0 -23 -10.297 -23 -23 0 -12.703 10.297 -23 23 -23 z" style="fill:url(#linearGradient3764);fill-opacity:1"/>
 </g>
 <g>
  <path d="m 40.03 7.531 c 3.712 4.084 5.969 9.514 5.969 15.469 0 12.703 -10.297 23 -23 23 c -5.954 0 -11.384 -2.256 -15.469 -5.969 4.178 4.291 10.01 6.969 16.469 6.969 c 12.703 0 23 -10.298 23 -23 0 -6.462 -2.677 -12.291 -6.969 -16.469 z" style="opacity:0.1"/>
 </g>
 <g transform="matrix(3.543307,0,0,3.543307,1.7839312e-5,0.00299989)">
  <path d="M 13.813,16 C 13.372,16.051 12.997,16.465 13,16.938 l 0,17.09 c 0,0.5 0.434,0.969 0.906,0.969 l 22.09,0 c 0.473,0 1,-0.5 1,-1 l 0,-15 c 0,-0.5 -0.527,-1 -1,-1 l -9,0 0,-1 c -10e-5,-0.648 -0.449,-1 -1,-1 l -12.188,0 z m 7.688,6 0.031,0 c 1.017,0.005 1.976,0.262 2.813,0.719 -0.203,0.156 -0.546,0.438 -0.844,0.719 -0.607,-0.27 -1.292,-0.406 -2,-0.406 -0.485,0 -0.934,0.09 -1.375,0.219 0.27,1.332 1.057,2.445 2.156,3.156 0.051,0.032 0.171,0.102 0.313,0.188 0.25,0.156 0.574,0.332 0.938,0.406 0.461,0.137 0.964,0.188 1.469,0.188 0.281,0 0.57,-0.016 0.844,-0.063 0.032,0.121 0.043,0.343 0.031,0.656 -0.008,0.176 -0.015,0.304 -0.031,0.406 -0.281,0.043 -0.55,0.063 -0.844,0.063 -0.541,0 -1.062,-0.082 -1.563,-0.219 0.003,1.41 0.565,2.692 1.5,3.594 0.904,-0.875 1.492,-2.086 1.531,-3.438 l 0,-0.031 0,-0.094 c 0.004,-0.144 0.032,-0.5 -0.031,-0.813 -0.024,-0.125 -0.05,-0.187 -0.063,-0.25 -0.031,-0.133 -0.063,-0.188 -0.063,-0.188 -0.172,-0.687 -0.484,-1.305 -0.906,-1.844 0.027,-0.024 0.413,-0.355 0.844,-0.656 0.517,0.664 0.895,1.469 1.094,2.313 1.279,-0.683 2.195,-1.914 2.5,-3.375 -0.457,-0.141 -0.937,-0.219 -1.438,-0.219 -0.841,0 -1.621,0.227 -2.313,0.594 -0.106,0.055 -0.21,0.125 -0.313,0.188 -0.203,0.133 -0.464,0.32 -0.813,0.625 -0.011,0.011 -0.023,0.019 -0.031,0.031 -0.035,0.031 -0.071,0.067 -0.094,0.094 -0.011,0.012 -0.027,0.023 -0.031,0.031 -0.488,0.516 -0.891,1.133 -1.125,1.813 -0.281,-0.133 -0.59,-0.312 -0.906,-0.5 0.293,-0.774 0.749,-1.445 1.313,-2.031 0.02,-0.02 0.011,-0.043 0.031,-0.063 0.171,-0.164 0.437,-0.434 0.813,-0.719 C 25.915,22.403 27.12,22 28.407,22 c 0.532,0 1.066,0.086 1.563,0.219 0.274,0.09 0.773,0.242 1,0.344 l 0,0.031 c 0.007,0.004 0.023,-0.004 0.031,0 0,0.055 -0.078,0.583 -0.188,1.063 0.004,0.004 -0.008,0.027 0,0.031 -0.441,1.79 -1.67,3.242 -3.313,4 0.003,0.113 0,0.231 0,0.344 0,1.648 -0.652,3.129 -1.719,4.219 -0.082,0.09 -0.395,0.437 -0.75,0.75 -0.011,-0.016 -0.039,-0.019 -0.063,-0.031 -0.086,-0.066 -0.503,-0.399 -0.813,-0.688 0.008,-0.004 -0.008,-0.027 0,-0.031 -1.067,-1.089 -1.75,-2.571 -1.75,-4.219 0,-0.125 0.023,-0.254 0.031,-0.375 -1.615,-0.782 -2.828,-2.247 -3.25,-4.03 -0.039,-0.196 -0.132,-0.629 -0.188,-1.063 0.008,-0.004 0.027,0 0.031,0 l 0,-0.031 c 0.078,-0.035 0.468,-0.238 1,-0.375 l 0,0.031 c 0.467,-0.119 0.963,-0.185 1.469,-0.188 z" transform="scale(0.28222223,0.28222223)" style="fill:#000;opacity:0.1;fill-opacity:1;stroke:none;fill-rule:nonzero"/>
  <path d="m 5.08 4.233 0 0.564 0.564 0 0 -0.564 m -0.564 0.564 -0.564 0 0 0.564 0.564 0 m 0 0 0 0.564 0.564 0 0 -0.564 m -0.564 0.564 -0.564 0 0 0.564 0.564 0 m 0 0 0 0.564 0.564 0 0 -0.564 m -1.129 0.846 0 1.129 1.129 0 0 -1.129 m -1.129 0" style="fill:#000;opacity:0.1;fill-opacity:1;stroke:none;fill-rule:nonzero"/>
  <path d="M 12.813,15 C 12.372,15.051 11.997,15.496 12,15.969 l 0,17.06 c 0,0.5 0.434,0.969 0.906,0.969 l 22.09,0 c 0.473,0 1,-0.5 1,-1 l 0,-14.969 c 0,-0.5 -0.527,-1 -1,-1 l -9,0 0,-1.031 c -10e-5,-0.647 -0.449,-1 -1,-1 l -12.188,0 z m 7.688,6 0.031,0 c 1.017,0.005 1.976,0.262 2.813,0.719 -0.203,0.156 -0.546,0.438 -0.844,0.719 -0.607,-0.27 -1.292,-0.406 -2,-0.406 -0.485,0 -0.934,0.09 -1.375,0.219 0.27,1.332 1.057,2.445 2.156,3.156 0.051,0.032 0.171,0.102 0.313,0.188 0.25,0.156 0.574,0.332 0.938,0.406 0.461,0.137 0.964,0.188 1.469,0.188 0.281,0 0.57,-0.016 0.844,-0.063 0.032,0.121 0.043,0.343 0.031,0.656 -0.008,0.176 -0.015,0.304 -0.031,0.406 -0.281,0.043 -0.55,0.063 -0.844,0.063 -0.541,0 -1.062,-0.082 -1.563,-0.219 0.003,1.41 0.565,2.692 1.5,3.594 0.904,-0.875 1.492,-2.086 1.531,-3.438 l 0,-0.031 0,-0.094 c 0.004,-0.144 0.032,-0.5 -0.031,-0.813 -0.024,-0.125 -0.05,-0.187 -0.063,-0.25 -0.031,-0.133 -0.063,-0.188 -0.063,-0.188 -0.172,-0.687 -0.484,-1.305 -0.906,-1.844 0.027,-0.024 0.413,-0.355 0.844,-0.656 0.517,0.664 0.895,1.469 1.094,2.313 1.279,-0.683 2.195,-1.914 2.5,-3.375 -0.457,-0.141 -0.937,-0.219 -1.438,-0.219 -0.841,0 -1.621,0.227 -2.313,0.594 -0.106,0.055 -0.21,0.125 -0.313,0.188 -0.203,0.133 -0.464,0.32 -0.813,0.625 -0.011,0.011 -0.023,0.019 -0.031,0.031 -0.035,0.031 -0.071,0.067 -0.094,0.094 -0.011,0.012 -0.027,0.023 -0.031,0.031 -0.488,0.516 -0.891,1.133 -1.125,1.813 -0.281,-0.133 -0.59,-0.312 -0.906,-0.5 0.293,-0.774 0.749,-1.445 1.313,-2.031 0.02,-0.02 0.011,-0.043 0.031,-0.063 0.171,-0.164 0.437,-0.434 0.813,-0.719 C 24.915,21.403 26.12,21 27.407,21 c 0.532,0 1.066,0.086 1.563,0.219 0.274,0.09 0.773,0.242 1,0.344 l 0,0.031 c 0.007,0.004 0.023,-0.004 0.031,0 0,0.055 -0.078,0.583 -0.188,1.063 0.004,0.004 -0.008,0.027 0,0.031 -0.441,1.79 -1.67,3.242 -3.313,4 0.003,0.113 0,0.231 0,0.344 0,1.648 -0.652,3.129 -1.719,4.219 -0.082,0.09 -0.395,0.437 -0.75,0.75 -0.011,-0.016 -0.039,-0.019 -0.063,-0.031 -0.086,-0.066 -0.503,-0.399 -0.813,-0.688 0.008,-0.004 -0.008,-0.027 0,-0.031 -1.067,-1.089 -1.75,-2.571 -1.75,-4.219 0,-0.125 0.023,-0.254 0.031,-0.375 -1.615,-0.782 -2.828,-2.247 -3.25,-4.03 -0.039,-0.196 -0.132,-0.629 -0.188,-1.063 0.008,-0.004 0.027,0 0.031,0 l 0,-0.031 c 0.078,-0.035 0.468,-0.238 1,-0.375 l 0,0.031 c 0.467,-0.119 0.963,-0.185 1.469,-0.188 z" transform="scale(0.28222223,0.28222223)" style="fill:#ececec;fill-opacity:1;stroke:none;fill-rule:nonzero"/>
 </g>
</svg>
