<?xml version="1.0" encoding="UTF-8"?>
<svg version="1.1" viewBox="0 0 48 48" xmlns="http://www.w3.org/2000/svg">
 <defs>
  <linearGradient id="linearGradient4312" x1="-19.435" x2="26.565" y1="-23.577" y2="-23.577" gradientTransform="rotate(-90,25.571,1.9941)" gradientUnits="userSpaceOnUse">
   <stop stop-color="#b24432" offset="0"/>
   <stop stop-color="#c24936" offset="1"/>
  </linearGradient>
 </defs>
 <path d="m36.31 5c5.859 4.062 9.688 10.831 9.688 18.5 0 12.426-10.07 22.5-22.5 22.5-7.669 0-14.438-3.828-18.5-9.688 1.037 1.822 2.306 3.499 3.781 4.969 4.085 3.712 9.514 5.969 15.469 5.969 12.703 0 23-10.298 23-23 0-5.954-2.256-11.384-5.969-15.469-1.469-1.475-3.147-2.744-4.969-3.781zm4.969 3.781c3.854 4.113 6.219 9.637 6.219 15.719 0 12.703-10.297 23-23 23-6.081 0-11.606-2.364-15.719-6.219 4.16 4.144 9.883 6.719 16.219 6.719 12.703 0 23-10.298 23-23 0-6.335-2.575-12.06-6.719-16.219z" opacity=".05"/>
 <path d="m41.28 8.781c3.712 4.085 5.969 9.514 5.969 15.469 0 12.703-10.297 23-23 23-5.954 0-11.384-2.256-15.469-5.969 4.113 3.854 9.637 6.219 15.719 6.219 12.703 0 23-10.298 23-23 0-6.081-2.364-11.606-6.219-15.719z" opacity=".1"/>
 <path d="m31.25 2.375c8.615 3.154 14.75 11.417 14.75 21.13 0 12.426-10.07 22.5-22.5 22.5-9.708 0-17.971-6.135-21.12-14.75a23 23 0 0 0 44.875 -7 23 23 0 0 0 -16 -21.875z" opacity=".2"/>
 <g fill="url(#linearGradient4312)">
  <path d="m24 1c12.703 0 23 10.297 23 23s-10.297 23-23 23-23-10.297-23-23 10.297-23 23-23z" fill="url(#linearGradient4312)"/>
 </g>
 <path d="m40.03 7.531c3.712 4.084 5.969 9.514 5.969 15.469 0 12.703-10.297 23-23 23-5.954 0-11.384-2.256-15.469-5.969 4.178 4.291 10.01 6.969 16.469 6.969 12.703 0 23-10.298 23-23 0-6.462-2.677-12.291-6.969-16.469z" opacity=".1"/>
 <path d="m25.998 16-12.186 2e-3c-0.44107 0.051-0.81563 0.49575-0.81263 0.96875v17.06c0 0.5 0.43432 0.96875 0.9064 0.96875h22.093c0.47308 0 1.0002-0.5 1.0002-1v-14.969c0-0.5-0.52708-1-1.0002-1h-9.0015v-1.0312c0-0.647-0.44907-1-1.0002-1zm3.2017 4.9805c0.09552 0 0.19314 0.0078 0.28716 0.03125 2e-3 4e-3 0.01363-6e-3 0.01563 0 0.59812 0.56402 1.08 1.2402 1.4241 1.9902 4e-3 8e-3 -4e-3 0.0213 0 0.0293 0.08601 0.24801 0.18546 0.51552 0.27348 0.83203 0.04851 0.17601 0.11516 0.36894 0.18167 0.56445 0.07401 0.38302 0.12111 0.78298 0.12111 1.1875 0 3.5251-2.922 7.3652-6.5167 7.3652-3.3722 0-6.1453-3.4822-6.4893-6.6953 0.09402-0.043 1.8909-2.1952 5.4892-0.57812 4.3719 1.9631 6.3039 2e-6 6.4854-0.83203 0.18354-0.83203-0.06059-2.377-0.78724-2.377-0.72615 0-1.6349 0.35729-1.5139-0.59375 0.07651-0.59802 0.55082-0.91188 1.0314-0.92188zm-1.9847 0.71484c0.14253 0 0.25785 0.1134 0.25785 0.25391 0 0.1385-0.11482 0.25195-0.25785 0.25195-0.14253 0-0.25786-0.11345-0.25786-0.25195 0-0.14051 0.11483-0.25391 0.25786-0.25391zm0.62315 1.1895c0.19904 0 0.36334 0.15996 0.36334 0.35547 0 0.19751-0.1638 0.35742-0.36334 0.35742-0.20104 0-0.36529-0.15992-0.36529-0.35742 0-0.19551 0.16425-0.35547 0.36529-0.35547z" opacity=".1"/>
 <path d="m24.998 15-12.186 2e-3c-0.44107 0.051-0.81563 0.49575-0.81263 0.96875v17.06c0 0.5 0.43432 0.96875 0.9064 0.96875h22.093c0.47308 0 1.0002-0.5 1.0002-1v-14.969c0-0.5-0.52708-1-1.0002-1h-9.0015v-1.0312c0-0.647-0.44907-1-1.0002-1zm3.2017 4.9805c0.09552 0 0.19314 0.0078 0.28716 0.03125 2e-3 4e-3 0.01362-6e-3 0.01563 0 0.59812 0.56402 1.08 1.2402 1.4241 1.9902 4e-3 8e-3 -4e-3 0.0213 0 0.0293 0.08601 0.24801 0.18546 0.51552 0.27348 0.83203 0.04851 0.17601 0.11516 0.36894 0.18167 0.56445 0.07401 0.38302 0.12111 0.78298 0.12111 1.1875 0 3.5251-2.922 7.3652-6.5167 7.3652-3.3722 0-6.1453-3.4822-6.4893-6.6953 0.09401-0.043 1.8909-2.1952 5.4892-0.57812 4.3719 1.9631 6.3039 2e-6 6.4854-0.83203 0.18354-0.83203-0.06059-2.377-0.78724-2.377-0.72615 0-1.6349 0.35729-1.5139-0.59375 0.07651-0.59802 0.55082-0.91188 1.0314-0.92188zm-1.9847 0.71484c0.14253 0 0.25785 0.1134 0.25785 0.25391 0 0.1385-0.11482 0.25195-0.25785 0.25195-0.14253 0-0.25786-0.11345-0.25786-0.25195 0-0.14051 0.11483-0.25391 0.25786-0.25391zm0.62315 1.1895c0.19904 0 0.36334 0.15996 0.36334 0.35547 0 0.19751-0.1638 0.35742-0.36334 0.35742-0.20104 0-0.36529-0.15992-0.36529-0.35742 0-0.19551 0.16425-0.35547 0.36529-0.35547z" fill="#ececec"/>
</svg>
