<?xml version="1.0" encoding="UTF-8" standalone="no"?>
<svg
   xmlns:dc="http://purl.org/dc/elements/1.1/"
   xmlns:cc="http://creativecommons.org/ns#"
   xmlns:rdf="http://www.w3.org/1999/02/22-rdf-syntax-ns#"
   xmlns:svg="http://www.w3.org/2000/svg"
   xmlns="http://www.w3.org/2000/svg"
   xmlns:sodipodi="http://sodipodi.sourceforge.net/DTD/sodipodi-0.dtd"
   xmlns:inkscape="http://www.inkscape.org/namespaces/inkscape"
   width="128px"
   height="128px"
   viewBox="0 0 128 128"
   version="1.1"
   id="svg2"
   inkscape:version="0.91 r"
   sodipodi:docname="brown-folder-download.svg">
  <metadata
     id="metadata15">
    <rdf:RDF>
      <cc:Work
         rdf:about="">
        <dc:format>image/svg+xml</dc:format>
        <dc:type
           rdf:resource="http://purl.org/dc/dcmitype/StillImage" />
      </cc:Work>
    </rdf:RDF>
  </metadata>
  <defs
     id="defs13" />
  <sodipodi:namedview
     pagecolor="#ffffff"
     bordercolor="#666666"
     borderopacity="1"
     objecttolerance="10"
     gridtolerance="10"
     guidetolerance="10"
     inkscape:pageopacity="0"
     inkscape:pageshadow="2"
     inkscape:window-width="668"
     inkscape:window-height="480"
     id="namedview11"
     showgrid="false"
     inkscape:zoom="1.84375"
     inkscape:cx="46.101695"
     inkscape:cy="64"
     inkscape:window-x="0"
     inkscape:window-y="0"
     inkscape:window-maximized="0"
     inkscape:current-layer="svg2" />
  <path
     inkscape:connector-curvature="0"
     id="path5"
     d="m 18,16 c -2.929688,0 -6,3.023438 -6,6 l 0,2 -6,0 c -2.941406,0 -6,2.992188 -6,6 l 0,76 c 0,4 2,6 6,6 l 116,0 c 3.13672,0 6,-2.71484 6,-6 l 0,-66 c 0,-3.011719 -2.91016,-6 -6,-6 l -6,0 0,-12 c 0,-2.921875 -2.90625,-6 -6,-6 z m 0,0"
     style="fill:#8d6e63;fill-opacity:1;fill-rule:nonzero;stroke:none" />
  <path
     inkscape:connector-curvature="0"
     id="path7"
     d="m 18,16 c -2.929688,0 -6,3.023438 -6,6 l 0,2 -6,0 c -2.941406,0 -6,2.992188 -6,6 l 0,76 c 0,4 2,6 6,6 l 116,0 c 3.13672,0 6,-2.71484 6,-6 l 0,-66 c 0,-3.011719 -2.91016,-6 -6,-6 l -6,0 0,-12 c 0,-2.921875 -2.90625,-6 -6,-6 z M 6,28 74,28 c 1.179688,0 2,1.03125 2,2 l 0,8 46,0 c 1.01172,0 2,1.015625 2,2 l 0,66 c 0,1.04297 -0.95703,2 -2,2 L 6,108 c -0.929688,0 -2,-0.79297 -2,-2 L 4,30 c 0,-0.984375 1.03125,-2 2,-2 z m 0,0"
     style="fill:#000000;fill-opacity:0.32156899;fill-rule:nonzero;stroke:none" />
  <path
     inkscape:connector-curvature="0"
     id="path9"
     d="m 64,48 c -2.214844,0 -4,1.785156 -4,4 l 0,20 -8,0 c -4,0 -4,0 0,4 l 8,8 c 4,4 4,4 8,0 l 8,-8 c 4,-4 4,-4 0,-4 l -8,0 0,-20 c 0,-2.214844 -1.785156,-4 -4,-4 z M 39.875,76 C 37.738281,76 36,77.785156 36,80 l 0,16.1875 c 0.0078,0.210938 0.02344,0.425781 0.0625,0.625 0.0078,0.04297 -0.0078,0.08203 0,0.125 0.05078,0.21875 0.167969,0.421875 0.25,0.625 0.101562,0.25 0.222656,0.46875 0.375,0.6875 0.117188,0.171875 0.230469,0.347656 0.375,0.5 0.01953,0.02344 0.04297,0.03906 0.0625,0.0625 0.01953,0.01953 0.04297,0.04297 0.0625,0.0625 0.15625,0.15625 0.320312,0.3125 0.5,0.4375 0.117188,0.07813 0.25,0.121094 0.375,0.1875 0.101562,0.05469 0.207031,0.140625 0.3125,0.1875 0.01953,0.0078 0.04297,-0.0078 0.0625,0 0.214844,0.08984 0.394531,0.199219 0.625,0.25 0.03906,0.0078 0.08594,-0.0078 0.125,0 0.214844,0.03906 0.460938,0.0625 0.6875,0.0625 0.04297,0 0.08203,0 0.125,0 l 48,0 c 0.707031,0 1.363281,-0.195312 1.9375,-0.5 0.09375,-0.05078 0.222656,-0.06641 0.3125,-0.125 0.02344,-0.01563 0.03906,-0.04687 0.0625,-0.0625 0.179688,-0.125 0.34375,-0.28125 0.5,-0.4375 0.01172,-0.01172 -0.01172,-0.05078 0,-0.0625 0.01172,-0.01172 0.05078,0.01172 0.0625,0 0.01953,-0.01953 0.04297,-0.04297 0.0625,-0.0625 0.136719,-0.148438 0.261719,-0.265625 0.375,-0.4375 0.01172,-0.01563 -0.01172,-0.04687 0,-0.0625 0.152344,-0.21875 0.273438,-0.4375 0.375,-0.6875 0.08203,-0.203125 0.199219,-0.40625 0.25,-0.625 0.0078,-0.04297 -0.0078,-0.08203 0,-0.125 0.03906,-0.199219 0.05469,-0.414062 0.0625,-0.625 L 92,80 c 0,-2.214844 -1.738281,-4 -3.875,-4 l -0.25,0 C 85.738281,76 84,77.785156 84,80 l 0,12 -40,0 0,-12 c 0,-2.214844 -1.738281,-4 -3.875,-4 z m 0,0"
     style="fill:#000000;fill-opacity:0.32156899;fill-rule:nonzero;stroke:none" />
</svg>
