<svg xmlns="http://www.w3.org/2000/svg" viewBox="0 0 128 128">
 <path d="m 18 16 c -2.93 0 -6 3.02 -6 6 l 0 2 -6 0 c -2.941 0 -6 2.992 -6 6 l 0 76 c 0 4 2 6 6 6 l 116 0 c 3.137 0 6 -2.715 6 -6 l 0 -66 c 0 -3.01 -2.91 -6 -6 -6 l -6 0 0 -12 c 0 -2.922 -2.906 -6 -6 -6 z m 0 0" style="fill:replacecolour1;fill-opacity:1;stroke:none;fill-rule:nonzero"/>
 <path d="m 18 16 c -2.93 0 -6 3.02 -6 6 l 0 2 -6 0 c -2.941 0 -6 2.992 -6 6 l 0 76 c 0 4 2 6 6 6 l 116 0 c 3.137 0 6 -2.715 6 -6 l 0 -66 c 0 -3.01 -2.91 -6 -6 -6 l -6 0 0 -12 c 0 -2.922 -2.906 -6 -6 -6 z m -12 12 68 0 c 1.18 0 2 1.031 2 2 l 0 8 46 0 c 1.012 0 2 1.016 2 2 l 0 66 c 0 1.043 -0.957 2 -2 2 l -116 0 c -0.93 0 -2 -0.793 -2 -2 l 0 -76 c 0 -0.984 1.031 -2 2 -2 z m 0 0" style="fill:replacecolour2;fill-opacity:1;stroke:none;fill-rule:nonzero"/>
 <path d="m 42 48 c 0 0 -4 0.152 -4 4 l 0 8 8 0 0 -4 4 0 0 -8 z m 12 0 0 8 8 0 0 -8 z m 12 0 0 8 8 0 0 -8 z m 12 0 0 8 4 0 0 4 8 0 0 -8 c 0 -4 -4 -4 -4 -4 z m -40 16 0 8 8 0 0 -8 z m 44 0 0 8 8 0 0 -8 z m -44 12 0 8 8 0 0 -8 z m 44 0 0 8 8 0 0 -8 z m -44 12 0 8 c 0 4 4 4 4 4 l 8 0 0 -8 -4 0 0 -4 z m 44 0 0 4 -4 0 0 8 8 0 c 0 0 4 0 4 -4 l 0 -8 z m -28 4 0 8 8 0 0 -8 z m 12 0 0 8 8 0 0 -8 z m 0 0" style="fill:replacecolour3;fill-opacity:1;stroke:none;fill-rule:nonzero"/>
</svg>
