<svg xmlns="http://www.w3.org/2000/svg" viewBox="0 0 128 128">
 <path d="m 18 16 c -2.93 0 -6 3.02 -6 6 l 0 2 -6 0 c -2.941 0 -6 2.992 -6 6 l 0 76 c 0 4 2 6 6 6 l 116 0 c 3.137 0 6 -2.715 6 -6 l 0 -66 c 0 -3.01 -2.91 -6 -6 -6 l -6 0 0 -12 c 0 -2.922 -2.906 -6 -6 -6 z m 0 0" style="fill:replacecolour1;fill-opacity:1;stroke:none;fill-rule:nonzero"/>
 <path d="m 18 16 c -2.93 0 -6 3.02 -6 6 l 0 2 -6 0 c -2.941 0 -6 2.992 -6 6 l 0 76 c 0 4 2 6 6 6 l 116 0 c 3.137 0 6 -2.715 6 -6 l 0 -66 c 0 -3.01 -2.91 -6 -6 -6 l -6 0 0 -12 c 0 -2.922 -2.906 -6 -6 -6 z m -12 12 68 0 c 1.18 0 2 1.031 2 2 l 0 8 46 0 c 1.012 0 2 1.016 2 2 l 0 66 c 0 1.043 -0.957 2 -2 2 l -116 0 c -0.93 0 -2 -0.793 -2 -2 l 0 -76 c 0 -0.984 1.031 -2 2 -2 z m 0 0" style="fill:replacecolour2;fill-opacity:1;stroke:none;fill-rule:nonzero"/>
 <path d="m 71.71 48 c -5.617 0 -10.25 4.379 -10.25 9.855 0.043 1.879 0.145 4.262 1.211 9.289 l 0.113 0 c 0.215 0.668 0.547 1.328 1.102 2.039 0.496 0.641 1.156 1.367 1.762 2.039 0.188 1.422 0.219 2.664 0 4.195 -1.668 1.301 -4.676 2.516 -7.383 3.625 -1.414 0.578 -2.719 1.109 -3.75 1.813 -0.984 0.668 -1.695 1.574 -1.762 2.719 -0.004 0.055 -0.113 0.059 -0.113 0.109 l -1.211 9.633 0 0.113 c 0 1.191 0.773 2.168 1.875 2.945 1.098 0.777 2.594 1.383 4.406 1.926 3.633 1.082 8.559 1.699 14 1.699 5.445 0 10.371 -0.617 14 -1.699 c 1.816 -0.543 3.313 -1.148 4.41 -1.926 1.102 -0.777 1.875 -1.754 1.875 -2.945 l 0 -0.113 -1.324 -9.633 c 0 -0.035 0.004 -0.074 0 -0.109 -0.031 -0.547 -0.223 -1.082 -0.551 -1.473 -0.348 -0.422 -0.809 -0.691 -1.32 -1.02 -1.027 -0.66 -2.336 -1.215 -3.75 -1.813 -2.742 -1.164 -5.746 -2.477 -7.387 -3.852 -0.121 -1.316 -0.129 -2.652 0 -3.969 0.594 -0.719 1.258 -1.461 1.766 -2.152 0.563 -0.77 0.988 -1.465 1.211 -2.152 1.207 -5.234 1.262 -7.371 1.324 -9.289 c 0 -5.477 -4.637 -9.855 -10.254 -9.855 z m -19.07 1.813 c -4.613 0 -8.375 3.66 -8.375 8.156 0.031 1.543 0.113 3.352 0.992 7.477 l 0 0.117 c 0.176 0.551 0.527 0.992 0.992 1.586 0.402 0.516 0.941 1.156 1.43 1.699 0.148 1.137 0.168 2.289 0 3.512 -1.359 1.074 -3.828 2.039 -6.06 2.945 -1.156 0.469 -2.133 0.898 -2.977 1.473 -0.797 0.539 -1.363 1.344 -1.434 2.266 -0.004 0.055 -0.109 0.059 -0.109 0.113 l -1.102 7.816 l 0 0.113 c 0 0.734 0.344 1.371 0.883 1.926 0.539 0.555 1.289 1.063 2.203 1.473 1.809 0.809 4.383 1.367 7.496 1.699 l 0.109 0 c 0.172 0 0.34 -0.047 0.441 -0.113 0.129 -0.086 0.277 -0.148 0.332 -0.227 0.109 -0.156 0.172 -0.313 0.219 -0.453 0.082 -0.246 0.102 -0.539 0.113 -0.793 0 -0.035 0 -0.074 0 -0.109 l 1.211 -9.633 c 0 -0.391 0.266 -0.867 0.883 -1.359 0.617 -0.492 1.555 -0.984 2.645 -1.473 2.184 -0.973 4.953 -1.875 7.164 -3.059 l 1.215 -0.68 -1.215 -0.566 c -0.875 -0.438 -1.543 -0.914 -2.094 -1.359 -0.105 -1.117 -0.113 -2.281 0 -3.398 0.004 -0.035 -0.004 -0.074 0 -0.113 0.84 -1.16 1.48 -2.367 1.766 -3.059 l 0.109 -0.223 -0.109 -0.227 c -0.098 -0.563 -0.066 -0.988 -0.223 -1.473 -1.055 -4.969 -1.172 -7.02 -1.211 -8.836 0 -0.766 0.176 -1.652 0.441 -2.492 l 0.219 -0.453 -0.441 -0.223 c -1.473 -1.211 -3.418 -2.043 -5.512 -2.043 z m 0 0" style="fill:replacecolour3;fill-opacity:1;stroke:none;fill-rule:nonzero"/>
</svg>
