<svg xmlns="http://www.w3.org/2000/svg" viewBox="0 0 128 128">
 <g>
  <path d="m 18 16 c -2.93 0 -6 3.02 -6 6 l 0 2 l -6 0 c -2.941 0 -6 2.992 -6 6 l 0 76 c 0 4 2 6 6 6 l 116 0 c 3.137 0 6 -2.715 6 -6 l 0 -66 c 0 -3.01 -2.91 -6 -6 -6 l -6 0 l 0 -12 c 0 -2.922 -2.906 -6 -6 -6 m -92 0" style="fill:#e8b07f;fill-opacity:1;stroke:none;fill-rule:nonzero"/>
  <path d="m 18 16 c -2.93 0 -6 3.02 -6 6 l 0 2 l -6 0 c -2.941 0 -6 2.992 -6 6 l 0 76 c 0 4 2 6 6 6 l 116 0 c 3.137 0 6 -2.715 6 -6 l 0 -66 c 0 -3.01 -2.91 -6 -6 -6 l -6 0 l 0 -12 c 0 -2.922 -2.906 -6 -6 -6 m -104 12 l 68 0 c 1.18 0 2 1.031 2 2 l 0 8 l 46 0 c 1.012 0 2 1.016 2 2 l 0 66 c 0 1.043 -0.957 2 -2 2 l -116 0 c -0.93 0 -2 -0.793 -2 -2 l 0 -76 c 0 -0.984 1.031 -2 2 -2 m 0 0" style="fill:#000;fill-opacity:0.322;stroke:none;fill-rule:nonzero"/>
  <path d="m 60.22 50 c -1.332 0 -2.445 1.059 -2.445 2.391 l 0 3.109 c -0.84 0.285 -1.656 0.609 -2.445 1 l -2.164 -2.168 c -0.941 -0.941 -2.449 -0.941 -3.391 0 l -5.445 5.391 c -0.941 0.941 -0.941 2.449 0 3.387 l 2.168 2.168 c -0.398 0.801 -0.711 1.645 -1 2.5 l -3.055 0 c -1.332 0 -2.445 1.059 -2.445 2.391 l 0 7.664 c 0 1.332 1.113 2.391 2.445 2.391 l 3.055 0 c 0.289 0.855 0.602 1.699 1 2.5 l -2.168 2.168 c -0.941 0.941 -0.941 2.445 0 3.387 l 5.445 5.391 c 0.941 0.941 2.449 0.941 3.391 0 l 2.164 -2.168 c 0.789 0.391 1.605 0.719 2.445 1 l 0 3.109 c 0 1.332 1.113 2.391 2.445 2.391 l 7.609 0 c 1.332 0 2.391 -1.059 2.391 -2.391 l 0 -3.109 c 0.855 -0.289 1.699 -0.602 2.5 -1 l 2.168 2.168 c 0.941 0.941 2.445 0.941 3.387 0 l 5.445 -5.391 c 0.941 -0.941 0.941 -2.449 0 -3.387 l -2.223 -2.223 c 0.391 -0.789 0.719 -1.605 1 -2.445 l 3.109 0 c 1.332 0 2.391 -1.059 2.391 -2.391 l 0 -7.664 c 0 -1.332 -1.059 -2.391 -2.391 -2.391 l -3.109 0 c -0.281 -0.84 -0.609 -1.656 -1 -2.445 l 2.223 -2.223 c 0.941 -0.941 0.941 -2.445 0 -3.387 l -5.445 -5.391 c -0.941 -0.941 -2.449 -0.941 -3.387 0 l -2.168 2.168 c -0.801 -0.398 -1.645 -0.711 -2.5 -1 l 0 -3.109 c 0 -1.332 -1.059 -2.391 -2.391 -2.391 m -3.832 17.777 c 3.434 0 6.223 2.789 6.223 6.223 c 0 3.434 -2.789 6.223 -6.223 6.223 c -3.434 0 -6.223 -2.789 -6.223 -6.223 c 0 -3.434 2.789 -6.223 6.223 -6.223 m 0 0" style="fill:#000;fill-opacity:0.322;stroke:none;fill-rule:nonzero"/>
 </g>
</svg>
