<svg xmlns="http://www.w3.org/2000/svg" viewBox="0 0 128 128">
 <path d="m 18 14 c -2.928 0 -6 3 -6 6 l 0 2 -6 0 c -2.94 0 -6 2.991 -6 6 l 0 78 c 0 4 2 6 6 6 l 116 0 c 3.135 0 6 -2.717 6 -6 l 0 -68 c 0 -3.01 -2.91 -6 -6 -6 l -6 0 0 -12 c 0 -2.922 -2.906 -6 -6 -6 z" style="fill:#66bb6a;fill-opacity:1;stroke:none"/>
 <path d="m 18 14 c -2.928 0 -6 3 -6 6 l 0 2 -6 0 c -2.94 0 -6 2.991 -6 6 l 0 78 c 0 4 2 6 6 6 l 116 0 c 3.135 0 6 -2.717 6 -6 l 0 -68 c 0 -3.01 -2.91 -6 -6 -6 l -6 0 0 -12 c 0 -2.922 -2.906 -6 -6 -6 z m -12 12 68 0 c 1.18 0 2 1.03 2 2 l 0 8 46 0 c 1.011 0 2 1.017 2 2 l 0 68 c 0 1.043 -0.958 2 -2 2 l -116 0 c -0.929 0 -2 -0.793 -2 -2 l 0 -78 c 0 -0.985 1.033 -2 2 -2 z" style="fill:#000;fill-opacity:0.322;stroke:none"/>
 <path d="m 68 98 0 -32 -8 0 0 32 z m -12 -34 -16 -11.998 0 32 16 11.998 z m 32 20 0 -32 -16 11.998 0 32 z m -3 -34 c -9 0 -15 3 -21 8 -6 -5 -12 -8 -21 -8 l 17 12 8 0 z" style="fill:#000;fill-opacity:0.322;stroke:none;fill-rule:nonzero"/>
</svg>
