<svg xmlns="http://www.w3.org/2000/svg" viewBox="0 0 128 128">
 <path d="m 18 16 c -2.93 0 -6 3.02 -6 6 l 0 2 -6 0 c -2.941 0 -6 2.992 -6 6 l 0 76 c 0 4 2 6 6 6 l 116 0 c 3.137 0 6 -2.715 6 -6 l 0 -66 c 0 -3.01 -2.91 -6 -6 -6 l -6 0 0 -12 c 0 -2.922 -2.906 -6 -6 -6 z m 0 0" style="fill:#bdbdbd;fill-opacity:1;stroke:none;fill-rule:nonzero"/>
 <path d="m 18 16 c -2.93 0 -6 3.02 -6 6 l 0 2 -6 0 c -2.941 0 -6 2.992 -6 6 l 0 76 c 0 4 2 6 6 6 l 116 0 c 3.137 0 6 -2.715 6 -6 l 0 -66 c 0 -3.01 -2.91 -6 -6 -6 l -6 0 0 -12 c 0 -2.922 -2.906 -6 -6 -6 z m -12 12 68 0 c 1.18 0 2 1.031 2 2 l 0 8 46 0 c 1.012 0 2 1.016 2 2 l 0 66 c 0 1.043 -0.957 2 -2 2 l -116 0 c -0.93 0 -2 -0.793 -2 -2 l 0 -76 c 0 -0.984 1.031 -2 2 -2 z m 0 0" style="fill:#000;fill-opacity:0.322;stroke:none;fill-rule:nonzero"/>
 <path d="m 86 44 c -3.313 0 -6 2.688 -6 6 0 3.313 2.688 6 6 6 3.313 0 6 -2.688 6 -6 0 -3.313 -2.688 -6 -6 -6 z m -22 4 c -4.586 0 -8.859 1.266 -12.5 3.5 l 5.938 5.938 c 2 -0.902 4.223 -1.438 6.563 -1.438 c 8.156 0 14.887 6.109 15.875 14 l 8 0 c -0.324 -3.84 -1.523 -7.449 -3.438 -10.563 -0.75 0.34 -1.559 0.563 -2.438 0.563 -3.313 0 -6 -2.688 -6 -6 0 -0.879 0.223 -1.688 0.563 -2.438 -3.652 -2.25 -7.957 -3.563 -12.563 -3.563 z m -15.688 5.938 c -3.758 3.277 -6.531 7.664 -7.688 12.688 1.992 0.977 3.375 3.01 3.375 5.375 c 0 2.367 -1.383 4.398 -3.375 5.375 1.246 5.414 4.285 10.164 8.5 13.5 l 5.75 -5.75 c -4.152 -2.891 -6.875 -7.684 -6.875 -13.12 0 -5.02 2.32 -9.504 5.938 -12.438 z m -16.313 12.06 c -3.313 0 -6 2.688 -6 6 0 3.313 2.688 6 6 6 3.313 0 6 -2.688 6 -6 0 -3.313 -2.688 -6 -6 -6 z m 47.875 8 c -0.988 7.891 -7.719 14 -15.875 14 -1.891 0 -3.691 -0.398 -5.375 -1 l -6.06 6.06 c 3.402 1.859 7.285 2.938 11.438 2.938 3.03 0 5.895 -0.539 8.563 -1.563 -0.34 -0.75 -0.563 -1.559 -0.563 -2.438 c 0 -3.313 2.688 -6 6 -6 1.609 0 3.047 0.656 4.125 1.688 c 3.242 -3.742 5.32 -8.461 5.75 -13.688 z m 2.125 16 c -3.313 0 -6 2.688 -6 6 0 3.313 2.688 6 6 6 3.313 0 6 -2.688 6 -6 0 -3.313 -2.688 -6 -6 -6 z m 0 0" style="fill:#000;fill-opacity:0.322;stroke:none;fill-rule:nonzero"/>
</svg>
