<svg xmlns="http://www.w3.org/2000/svg" viewBox="0 0 128 128">
 <g transform="translate(0,-924.3622)">
  <path d="m 18 940.36 c -2.928 0 -6 3.02 -6 6 l 0 2 -6 0 c -2.94 0 -6 2.991 -6 6 l 0 76 c 0 4 2 6 6 6 l 116 0 c 3.135 0 6 -2.717 6 -6 l 0 -66 c 0 -3.01 -2.91 -6 -6 -6 l -6 0 0 -12 c 0 -2.922 -2.906 -6 -6 -6 z" style="fill:#f06292;fill-opacity:1;stroke:none"/>
  <path d="m 18 940.36 c -2.928 0 -6 3.02 -6 6 l 0 2 -6 0 c -2.94 0 -6 2.991 -6 6 l 0 76 c 0 4 2 6 6 6 l 116 0 c 3.135 0 6 -2.717 6 -6 l 0 -66 c 0 -3.01 -2.91 -6 -6 -6 l -6 0 0 -12 c 0 -2.922 -2.906 -6 -6 -6 l -92 0 z m -12 12 l 68 0 c 1.18 0 2 1.03 2 2 l 0 8 46 0 c 1.011 0 2 1.017 2 2 l 0 66 c 0 1.043 -0.958 2 -2 2 l -116 0 c -0.929 0 -2 -0.793 -2 -2 l 0 -76 c 0 -0.985 1.033 -2 2 -2 z" style="fill:#000;fill-opacity:0.322;stroke:none"/>
  <path d="m 48 974.36 c -2.849 0 -4 1.341 -4 4 l 0 40 c 0 2.659 1.151 4 4 4 l 30.875 0 c 2.849 0 5.125 -1.341 5.125 -4 l 0 -40 c 0 -2.659 -1.151 -4 -4 -4 l -32 0 z m 3 4 c 1.657 0 3 1.343 3 3 0 1.657 -1.343 3 -3 3 -1.657 0 -3 -1.343 -3 -3 0 -1.657 1.343 -3 3 -3 z m 26 0 c 1.657 0 3 1.343 3 3 0 1.657 -1.343 3 -3 3 -1.657 0 -3 -1.343 -3 -3 0 -1.657 1.343 -3 3 -3 z m -13 4 c 4.418 0 8 3.582 8 8 0 4.418 -3.582 8 -8 8 -4.418 0 -8 -3.582 -8 -8 0 -4.418 3.582 -8 8 -8 z m -13 14 c 1.657 0 3 1.343 3 3 0 1.657 -1.343 3 -3 3 -1.657 0 -3 -1.343 -3 -3 0 -1.657 1.343 -3 3 -3 z m 26 0 c 1.657 0 3 1.343 3 3 0 1.657 -1.343 3 -3 3 -1.657 0 -3 -1.343 -3 -3 0 -1.657 1.343 -3 3 -3 z m -27 18 28 0 c 1.108 0 2 0.892 2 2 0 1.108 -0.892 2 -2 2 l -28 0 c -1.108 0 -2 -0.892 -2 -2 0 -1.108 0.892 -2 2 -2 z" style="fill:#000;fill-opacity:0.322;stroke:none"/>
  <path d="m 34 34 a 2 2 0 1 1 -4 0 2 2 0 1 1 4 0 z" transform="matrix(2,0,0,2,0,922.3622)" style="fill:#000;fill-opacity:0.322;stroke:none;fill-rule:evenodd"/>
 </g>
</svg>
