<svg xmlns="http://www.w3.org/2000/svg" viewBox="0 0 128 128">
 <path d="m 18 16 c -2.928 0 -6 3 -6 6 l -1 0 l -5 0 c -2.94 0 -6 2.991 -6 6 l 0 47 c 0 4 2 6 6 6 l 75 0 c 3.135 0 6 -2.717 6 -6 l 0 -42 c 0 -3.01 -2.91 -6 -6 -6 l -6 0 0 -5 c 0 -2.922 -2.906 -6 -6 -6 z" style="fill:#ef5350;opacity:0.5;fill-opacity:1;stroke:none"/>
 <path d="m 18 16 c -2.928 0 -6 3 -6 6 l -2 0 l -4 0 c -2.94 0 -6 2.991 -6 6 l 0 47 c 0 4 2 6 6 6 l 75 0 c 3.135 0 6 -2.717 6 -6 l 0 -42 c 0 -3.01 -2.913 -6.125 -6 -6 l -6 0 0 -5 c 0 -2.922 -2.906 -6 -6 -6 z m -12 10 l 45 0 c 1.18 0 1.971 1.03 2 2 l 0 3 28 0 c 1.011 0 2 1.017 2 2 l 0 42 c 0 1.043 -0.958 2 -2 2 l -75 0 c -0.929 0 -2 -0.793 -2 -2 l 0 -47 c 0 -0.985 1.033 -2 2 -2 z" style="fill:#000;opacity:0.5;fill-opacity:0.322;stroke:none"/>
 <path d="m 59 48 c -2.928 0 -6 3 -6 6 l -1 0 l -5 0 c -2.94 0 -6 2.991 -6 6 l 0 47 c 0 4 2 6 6 6 l 75 0 c 3.135 0 6 -2.717 6 -6 l 0 -42 c 0 -3.01 -2.91 -6 -6 -6 l -6 0 0 -5 c 0 -2.922 -2.906 -6 -6 -6 z" style="fill:#ef5350;fill-opacity:1;stroke:none"/>
 <path d="m 59 48 c -2.928 0 -6 3 -6 6 l -2 0 l -4 0 c -2.94 0 -6 2.991 -6 6 l 0 47 c 0 4 2 6 6 6 l 75 0 c 3.135 0 6 -2.717 6 -6 l 0 -42 c 0 -3.01 -2.913 -6.125 -6 -6 l -6 0 0 -5 c 0 -2.922 -2.906 -6 -6 -6 z m -12 10 45 0 c 1.18 0 1.971 1.03 2 2 l 0 3 28 0 c 1.011 0 2 1.017 2 2 l 0 42 c 0 1.043 -0.958 2 -2 2 l -75 0 c -0.929 0 -2 -0.793 -2 -2 l 0 -47 c 0 -0.985 1.033 -2 2 -2 z" style="fill:#000;fill-opacity:0.322;stroke:none"/>
</svg>
