<?xml version="1.0" encoding="UTF-8" standalone="no"?>
<svg
   xmlns:dc="http://purl.org/dc/elements/1.1/"
   xmlns:cc="http://creativecommons.org/ns#"
   xmlns:rdf="http://www.w3.org/1999/02/22-rdf-syntax-ns#"
   xmlns:svg="http://www.w3.org/2000/svg"
   xmlns="http://www.w3.org/2000/svg"
   xmlns:sodipodi="http://sodipodi.sourceforge.net/DTD/sodipodi-0.dtd"
   xmlns:inkscape="http://www.inkscape.org/namespaces/inkscape"
   width="128"
   height="128"
   viewBox="0 0 128 128"
   id="svg2"
   version="1.1"
   inkscape:version="0.91 r"
   sodipodi:docname="yellow-folder-books.svg">
  <metadata
     id="metadata14">
    <rdf:RDF>
      <cc:Work
         rdf:about="">
        <dc:format>image/svg+xml</dc:format>
        <dc:type
           rdf:resource="http://purl.org/dc/dcmitype/StillImage" />
      </cc:Work>
    </rdf:RDF>
  </metadata>
  <defs
     id="defs12" />
  <sodipodi:namedview
     pagecolor="#ffffff"
     bordercolor="#666666"
     borderopacity="1"
     objecttolerance="10"
     gridtolerance="10"
     guidetolerance="10"
     inkscape:pageopacity="0"
     inkscape:pageshadow="2"
     inkscape:window-width="1366"
     inkscape:window-height="747"
     id="namedview10"
     showgrid="true"
     inkscape:zoom="1.4142136"
     inkscape:cx="-31.301788"
     inkscape:cy="48.139676"
     inkscape:window-x="0"
     inkscape:window-y="21"
     inkscape:window-maximized="1"
     inkscape:current-layer="svg2"
     showguides="true"
     inkscape:guide-bbox="true">
    <inkscape:grid
       type="xygrid"
       id="grid2993" />
  </sodipodi:namedview>
  <path
     style="fill:#ffca28;fill-opacity:1;stroke:none"
     d="m 18,14 c -2.927834,0 -6,3 -6,6.000001 l 0,2 -6,0 c -2.9401978,0 -6,2.99066 -6,6 L 0,106 c 0,4 2,6 6,6 l 116,0 c 3.13523,0 6,-2.71669 6,-6 l 0,-67.999999 c 0,-3.009856 -2.91008,-6 -6,-6 l -6,0 0,-12 C 116,17.077688 113.09356,14 110,14 z"
     id="path6-6"
     inkscape:connector-curvature="0"
     sodipodi:nodetypes="ssccssssscccsss" />
  <path
     sodipodi:nodetypes="sscsssssssscsssssscssssssss"
     inkscape:connector-curvature="0"
     style="fill:#000000;fill-opacity:0.32156863;stroke:none"
     d="m 18,14 c -2.927834,0 -6,3 -6,6.000001 l 0,2 -6,0 c -2.9401978,0 -6,2.99066 -6,6 L 0,106 c 0,4 2,6 6,6 l 116,0 c 3.13523,0 6,-2.71669 6,-6 l 0,-67.999999 c 0,-3.009856 -2.91008,-6 -6,-6 l -6,0 0,-12 C 116,17.077688 113.09356,14 110,14 z m -12,12.000001 68,0 c 1.18035,0 2,1.02954 2,2 l 0,8 46,0 c 1.0111,0 2,1.017484 2,2 L 124,106 c 0,1.04258 -0.95753,2 -2,2 L 6,108 c -0.9285902,0 -2,-0.79269 -2,-2 L 4,28.000001 c 0,-0.98481 1.0330572,-2 2,-2 z"
     id="path3778" />
  <path
     sodipodi:nodetypes="ccccccccccccccccccccc"
     id="path53-8"
     d="m 68.000001,97.99999 0,-31.99999 -8,1e-5 0,31.99999 z m -12,-34.00097 -16,-11.99801 0,32.00099 16,11.99801 z m 31.999998,20.00298 0,-32.00099 -16.000001,11.99751 0,32.002 z M 84.999996,50 c -8.999999,0 -14.999995,3 -20.999995,8 -6,-5 -12,-8 -21,-8 l 17,12 8,0 z"
     style="fill:#000000;fill-opacity:0.32156863;fill-rule:nonzero;stroke:none"
     inkscape:connector-curvature="0" />
</svg>
