<?xml version="1.0" encoding="UTF-8" standalone="no"?>
<svg
   xmlns:dc="http://purl.org/dc/elements/1.1/"
   xmlns:cc="http://creativecommons.org/ns#"
   xmlns:rdf="http://www.w3.org/1999/02/22-rdf-syntax-ns#"
   xmlns:svg="http://www.w3.org/2000/svg"
   xmlns="http://www.w3.org/2000/svg"
   xmlns:sodipodi="http://sodipodi.sourceforge.net/DTD/sodipodi-0.dtd"
   xmlns:inkscape="http://www.inkscape.org/namespaces/inkscape"
   width="128"
   height="128"
   viewBox="0 0 128 128"
   id="svg2"
   version="1.1"
   inkscape:version="0.91 r"
   sodipodi:docname="yellow-folder-move.svg">
  <metadata
     id="metadata32">
    <rdf:RDF>
      <cc:Work
         rdf:about="">
        <dc:format>image/svg+xml</dc:format>
        <dc:type
           rdf:resource="http://purl.org/dc/dcmitype/StillImage" />
      </cc:Work>
    </rdf:RDF>
  </metadata>
  <sodipodi:namedview
     pagecolor="#ffffff"
     bordercolor="#666666"
     borderopacity="1"
     objecttolerance="10"
     gridtolerance="10"
     guidetolerance="10"
     inkscape:pageopacity="0"
     inkscape:pageshadow="2"
     inkscape:window-width="1280"
     inkscape:window-height="969"
     id="namedview30"
     showgrid="true"
     inkscape:zoom="2.6074563"
     inkscape:cx="114.48913"
     inkscape:cy="49.665005"
     inkscape:window-x="0"
     inkscape:window-y="0"
     inkscape:window-maximized="1"
     inkscape:current-layer="svg2">
    <inkscape:grid
       type="xygrid"
       id="grid3018" />
  </sodipodi:namedview>
  <defs
     id="defs4" />
  <path
     style="fill:#ffca28;fill-opacity:1;stroke:none;opacity:0.5"
     d="m 18,15.999999 c -2.927834,0 -6,3 -6,6.000001 l -1,-1e-6 L 6,22 c -2.940198,0 -6,2.99066 -6,6 l 0,46.999999 c 0,4 2,6 6,6 l 75,0 c 3.13523,0 6,-2.71669 6,-6 l 0,-42 c 0,-3.009856 -2.91008,-6 -6,-6 l -6,0 0,-5 c 0,-2.922313 -2.90644,-6.000001 -6,-6.000001 z"
     id="path6-6-9"
     inkscape:connector-curvature="0"
     sodipodi:nodetypes="scccssssscccsss" />
  <path
     sodipodi:nodetypes="sccsssssssscsssssscssssssss"
     inkscape:connector-curvature="0"
     style="fill:#000000;fill-opacity:0.32156863000000002;stroke:none;opacity:0.5"
     d="m 18,15.999999 c -2.927834,0 -6,3 -6,6.000001 l -2,-1e-6 L 6,22 c -2.940198,1e-6 -6,2.99066 -6,6 l 0,46.999999 c 0,4 2,6 6,6 l 75,0 c 3.13523,0 6,-2.71669 6,-6 l 0,-42 c 0,-3.009856 -2.91262,-6.125342 -6,-6 l -6,0 0,-5 c 0,-2.922313 -2.90644,-6.000001 -6,-6.000001 z M 6,26 l 45,-1e-6 c 1.18035,0 1.971292,1.029964 2,2 l 0,3 28,0 c 1.0111,0 2,1.017484 2,2 l 0,42 c 0,1.04258 -0.95753,2 -2,2 l -75,0 c -0.92859,0 -2,-0.79269 -2,-2 L 4,28 c 0,-0.98481 1.033057,-2 2,-2 z"
     id="path3778-0" />
  <path
     style="fill:#ffca28;fill-opacity:1;stroke:none"
     d="m 59,48 c -2.927834,0 -6,3 -6,6.000001 L 52,54 l -5,10e-7 c -2.940198,0 -6,2.99066 -6,6 L 41,107 c 0,4 2,6 6,6 l 75,0 c 3.13523,0 6,-2.71669 6,-6 l 0,-42 c 0,-3.009856 -2.91008,-6 -6,-6 l -6,0 0,-5 c 0,-2.922313 -2.90644,-6.000001 -6,-6.000001 z"
     id="path6-6"
     inkscape:connector-curvature="0"
     sodipodi:nodetypes="scccssssscccsss" />
  <path
     sodipodi:nodetypes="sccsssssssscsssssscssssssss"
     inkscape:connector-curvature="0"
     style="fill:#000000;fill-opacity:0.32156863;stroke:none"
     d="m 59,48 c -2.927834,0 -6,3 -6,6.000001 L 51,54 l -4,10e-7 c -2.940198,1e-6 -6,2.99066 -6,6 L 41,107 c 0,4 2,6 6,6 l 75,0 c 3.13523,0 6,-2.71669 6,-6 l 0,-42 c 0,-3.009856 -2.91262,-6.125342 -6,-6 l -6,0 0,-5 c 0,-2.922313 -2.90644,-6.000001 -6,-6.000001 z M 47,58.000001 92,58 c 1.18035,0 1.971292,1.029964 2,2 l 0,3 28,0 c 1.0111,0 2,1.017484 2,2 l 0,42 c 0,1.04258 -0.95753,2 -2,2 l -75,0 c -0.92859,0 -2,-0.79269 -2,-2 l 0,-46.999999 c 0,-0.98481 1.033057,-2 2,-2 z"
     id="path3778" />
</svg>
