<?xml version="1.0" encoding="UTF-8" standalone="no"?>
<!-- Created with Inkscape (http://www.inkscape.org/) -->

<svg
   xmlns:dc="http://purl.org/dc/elements/1.1/"
   xmlns:cc="http://creativecommons.org/ns#"
   xmlns:rdf="http://www.w3.org/1999/02/22-rdf-syntax-ns#"
   xmlns:svg="http://www.w3.org/2000/svg"
   xmlns="http://www.w3.org/2000/svg"
   xmlns:sodipodi="http://sodipodi.sourceforge.net/DTD/sodipodi-0.dtd"
   xmlns:inkscape="http://www.inkscape.org/namespaces/inkscape"
   width="128"
   height="128"
   id="svg2"
   version="1.1"
   inkscape:version="0.91 r"
   sodipodi:docname="yellow-folder-hdd.svg"
   inkscape:export-filename="/media/Data/Main/Visuals/Icons/Numix/Desktop/repos/numix-wiki/Gjorgi/Numix-folders/48/New/folder-144.png"
   inkscape:export-xdpi="270"
   inkscape:export-ydpi="270">
  <defs
     id="defs4" />
  <sodipodi:namedview
     id="base"
     pagecolor="#ffffff"
     bordercolor="#666666"
     borderopacity="1.0"
     inkscape:pageopacity="0.0"
     inkscape:pageshadow="2"
     inkscape:zoom="5.2755365"
     inkscape:cx="79.436364"
     inkscape:cy="56.064336"
     inkscape:document-units="px"
     inkscape:current-layer="layer1"
     showgrid="true"
     inkscape:window-width="1280"
     inkscape:window-height="998"
     inkscape:window-x="0"
     inkscape:window-y="0"
     inkscape:window-maximized="1"
     showguides="true"
     inkscape:guide-bbox="true">
    <inkscape:grid
       type="xygrid"
       id="grid2985"
       empspacing="5"
       visible="true"
       enabled="true"
       snapvisiblegridlinesonly="true" />
  </sodipodi:namedview>
  <metadata
     id="metadata7">
    <rdf:RDF>
      <cc:Work
         rdf:about="">
        <dc:format>image/svg+xml</dc:format>
        <dc:type
           rdf:resource="http://purl.org/dc/dcmitype/StillImage" />
        <dc:title />
      </cc:Work>
    </rdf:RDF>
  </metadata>
  <g
     inkscape:label="Layer 1"
     inkscape:groupmode="layer"
     id="layer1"
     transform="translate(0,-924.3622)">
    <path
       style="fill:#ffca28;fill-opacity:1;stroke:none"
       d="m 17.999999,940.3622 c -2.927834,0 -6,3.02244 -6,6 l 0,2 -5.999999,0 c -2.940198,0 -6,2.9906 -6,6 l 0,76 c 0,4 2,6 6,6 l 116,0 c 3.13523,0 6,-2.7166 6,-6 l 0,-66 c 0,-3.0098 -2.91008,-6 -6,-6 l -6,0 0,-12 c 0,-2.92232 -2.90644,-6 -6,-6 z"
       id="path6"
       inkscape:connector-curvature="0"
       sodipodi:nodetypes="ssccssssscccsss" />
    <path
       inkscape:connector-curvature="0"
       style="fill:#000000;fill-opacity:0.32156863;stroke:none"
       d="m 17.999999,940.3622 c -2.927834,0 -6,3.02244 -6,6 l 0,2 -5.999999,0 c -2.940198,0 -6,2.9906 -6,6 l 0,76 c 0,4 2,6 6,6 l 116,0 c 3.13523,0 6,-2.7166 6,-6 l 0,-66 c 0,-3.0098 -2.91008,-6 -6,-6 l -6,0 0,-12 c 0,-2.92232 -2.90644,-6 -6,-6 l -92.000001,0 z M 6,952.3622 l 68,0 c 1.18035,0 2,1.0296 2,2 l 0,8 46,0 c 1.0111,0 2,1.0174 2,2 l 0,66 c 0,1.0426 -0.95753,2 -2,2 l -116,0 c -0.928592,0 -2,-0.7926 -2,-2 l 0,-76 c 0,-0.9848 1.033056,-2 2,-2 z"
       id="path3778" />
    <path
       style="fill:#000000;fill-opacity:0.32156863;stroke:none"
       d="m 48,974.3622 c -2.84914,0 -4,1.3408 -4,4 l 0,40 c 0,2.6592 1.15086,4 4,4 l 30.875,0 c 2.849144,0 5.125,-1.3408 5.125,-4 l 0,-40 c 0,-2.6592 -1.150856,-4 -4,-4 l -32,0 z m 3,4 c 1.656854,0 3,1.3432 3,3 0,1.6568 -1.343146,3 -3,3 -1.656854,0 -3,-1.3432 -3,-3 0,-1.6568 1.343146,-3 3,-3 z m 26,0 c 1.656854,0 3,1.3432 3,3 0,1.6568 -1.343146,3 -3,3 -1.656854,0 -3,-1.3432 -3,-3 0,-1.6568 1.343146,-3 3,-3 z m -13,4 c 4.418276,0 8,3.5816 8,8 0,4.4184 -3.581724,8 -8,8 -4.418276,0 -8,-3.5816 -8,-8 0,-4.4184 3.581724,-8 8,-8 z m -13,14 c 1.656854,0 3,1.3432 3,3 0,1.6568 -1.343146,3 -3,3 -1.656854,0 -3,-1.3432 -3,-3 0,-1.6568 1.343146,-3 3,-3 z m 26,0 c 1.656854,0 3,1.3432 3,3 0,1.6568 -1.343146,3 -3,3 -1.656854,0 -3,-1.3432 -3,-3 0,-1.6568 1.343146,-3 3,-3 z m -27,18 28,0 c 1.108,0 2,0.892 2,2 0,1.108 -0.892,2 -2,2 l -28,0 c -1.108,0 -2,-0.892 -2,-2 0,-1.108 0.892,-2 2,-2 z"
       id="rect3828"
       inkscape:connector-curvature="0" />
    <path
       sodipodi:type="arc"
       style="fill:#000000;fill-opacity:0.32156863;fill-rule:evenodd;stroke:none"
       id="path2995"
       sodipodi:cx="32"
       sodipodi:cy="34"
       sodipodi:rx="2"
       sodipodi:ry="2"
       d="m 34,34 a 2,2 0 1 1 -4,0 2,2 0 1 1 4,0 z"
       transform="matrix(2,0,0,2,0,922.3622)" />
  </g>
</svg>
