<?xml version="1.0" encoding="UTF-8" standalone="no"?>
<svg
   xmlns:dc="http://purl.org/dc/elements/1.1/"
   xmlns:cc="http://creativecommons.org/ns#"
   xmlns:rdf="http://www.w3.org/1999/02/22-rdf-syntax-ns#"
   xmlns:svg="http://www.w3.org/2000/svg"
   xmlns="http://www.w3.org/2000/svg"
   xmlns:sodipodi="http://sodipodi.sourceforge.net/DTD/sodipodi-0.dtd"
   xmlns:inkscape="http://www.inkscape.org/namespaces/inkscape"
   width="16.25"
   height="16.25"
   viewBox="0 0 13 13"
   id="svg2"
   version="1.1"
   inkscape:version="0.48.4 r9939"
   sodipodi:docname="folder-move.svg">
  <metadata
     id="metadata28">
    <rdf:RDF>
      <cc:Work
         rdf:about="">
        <dc:format>image/svg+xml</dc:format>
        <dc:type
           rdf:resource="http://purl.org/dc/dcmitype/StillImage" />
      </cc:Work>
    </rdf:RDF>
  </metadata>
  <defs
     id="defs26" />
  <sodipodi:namedview
     pagecolor="#ffffff"
     bordercolor="#666666"
     borderopacity="1"
     objecttolerance="10"
     gridtolerance="10"
     guidetolerance="10"
     inkscape:pageopacity="0"
     inkscape:pageshadow="2"
     inkscape:window-width="658"
     inkscape:window-height="480"
     id="namedview24"
     showgrid="false"
     inkscape:zoom="7.2615385"
     inkscape:cx="-12.122395"
     inkscape:cy="4.4421409"
     inkscape:window-x="126"
     inkscape:window-y="194"
     inkscape:window-maximized="0"
     inkscape:current-layer="svg2" />
  <g
     id="g3793"
     style="opacity:0.5">
    <path
       inkscape:connector-curvature="0"
       id="path8"
       d="M 1.0858848,6.4109236 C 0.97286981,6.3993496 0.87934051,6.2913232 0.87934051,6.1717226 l 0,-4.5448218 c 0,-0.1234587 0.1091176,-0.2392009 0.22992699,-0.2392009 l 5.6546443,0 c 0.1208093,0 0.229927,0.1157422 0.229927,0.2392009 l 0,4.1242909 c 0,0.1234587 -0.1091177,0.2392009 -0.229927,0.2392009 l -2.2057398,0 0,0.18133 c 0,0.1273167 -0.1091181,0.239201 -0.229927,0.239201 l -3.2189775,0 c -0.00779,0.00386 -0.015589,0.00386 -0.023383,0 z"
       style="fill:#e9a439;fill-opacity:1;stroke:#e9a439;stroke-width:0.80007379999999984;stroke-opacity:1" />
    <path
       inkscape:connector-curvature="0"
       id="path12"
       d="m 0.64551541,1.9818523 c -0.1325004,0.011575 -0.2455154,0.119601 -0.2455154,0.2392017 l 0,4.540971 c 0,0.127317 0.1286032,0.2430598 0.2688978,0.2430598 l 6.66788789,0 c 0.140295,0 0.268898,-0.1157428 0.268898,-0.2430598 l 0,-4.1204394 c 0,-0.1234588 -0.128603,-0.2392012 -0.268898,-0.2392012 l -2.6032431,0 0,-0.1813304 c 0,-0.1273168 -0.1286033,-0.2392017 -0.2727947,-0.2392017 l -3.79185009,0 c -0.00779,-0.00386 -0.015588,-0.00386 -0.023382,0 z"
       style="fill:#df9a2f;fill-opacity:1;stroke:#e9a439;stroke-width:0.80000000999999998;stroke-opacity:1" />
  </g>
  <path
     style="fill:#e9a439;fill-opacity:1;stroke:#e9a439;stroke-width:0.8000738;stroke-opacity:1"
     d="M 5.9108848,11.205844 C 5.7978699,11.194269 5.7043405,11.086243 5.7043405,10.966643 l 0,-4.5448222 c 0,-0.1234587 0.1091176,-0.2392008 0.229927,-0.2392008 l 5.6546445,0 c 0.120809,0 0.229926,0.1157421 0.229926,0.2392008 l 0,4.1242912 c 0,0.123458 -0.109117,0.239201 -0.229926,0.239201 l -2.2057403,0 0,0.18133 c 0,0.127316 -0.109118,0.239201 -0.229927,0.239201 l -3.2189772,0 c -0.00779,0.0039 -0.015589,0.0039 -0.023383,0 z"
     id="path16"
     inkscape:connector-curvature="0" />
  <path
     style="fill:#f5c14e;fill-opacity:1;stroke:#e9a439;stroke-width:0.80000001;stroke-opacity:1"
     d="M 5.4705155,6.7767673 C 5.338015,6.788342 5.225,6.8963684 5.225,7.0159689 l 0,4.5409711 C 5.225,11.684257 5.3536033,11.8 5.4938978,11.8 l 6.6678882,0 c 0.140295,0 0.268898,-0.115743 0.268898,-0.24306 l 0,-4.1204394 c 0,-0.1234589 -0.128603,-0.2392013 -0.268898,-0.2392013 l -2.6032433,0 0,-0.1813304 c 0,-0.1273168 -0.128604,-0.2392016 -0.272795,-0.2392016 l -3.7918499,0 c -0.00779,-0.00386 -0.015588,-0.00386 -0.023382,0 z"
     id="path20"
     inkscape:connector-curvature="0" />
</svg>
