<?xml version="1.0" encoding="UTF-8" standalone="no"?>
<svg
   xmlns:dc="http://purl.org/dc/elements/1.1/"
   xmlns:cc="http://creativecommons.org/ns#"
   xmlns:rdf="http://www.w3.org/1999/02/22-rdf-syntax-ns#"
   xmlns:svg="http://www.w3.org/2000/svg"
   xmlns="http://www.w3.org/2000/svg"
   xmlns:sodipodi="http://sodipodi.sourceforge.net/DTD/sodipodi-0.dtd"
   xmlns:inkscape="http://www.inkscape.org/namespaces/inkscape"
   width="16.25"
   height="16.25"
   viewBox="0 0 13 13"
   id="svg2"
   version="1.1"
   inkscape:version="0.48.4 r9939"
   sodipodi:docname="folder-publicshare.svg">
  <metadata
     id="metadata16">
    <rdf:RDF>
      <cc:Work
         rdf:about="">
        <dc:format>image/svg+xml</dc:format>
        <dc:type
           rdf:resource="http://purl.org/dc/dcmitype/StillImage" />
      </cc:Work>
    </rdf:RDF>
  </metadata>
  <defs
     id="defs14" />
  <sodipodi:namedview
     pagecolor="#ffffff"
     bordercolor="#666666"
     borderopacity="1"
     objecttolerance="10"
     gridtolerance="10"
     guidetolerance="10"
     inkscape:pageopacity="0"
     inkscape:pageshadow="2"
     inkscape:window-width="658"
     inkscape:window-height="480"
     id="namedview12"
     showgrid="false"
     inkscape:zoom="14.523077"
     inkscape:cx="10.190678"
     inkscape:cy="6.197034"
     inkscape:window-x="543"
     inkscape:window-y="358"
     inkscape:window-maximized="0"
     inkscape:current-layer="svg2" />
  <path
     inkscape:connector-curvature="0"
     id="path6"
     d="m 1.6108503,10.601486 c -0.1745,-0.02071 -0.3205101,-0.223644 -0.3205101,-0.434864 l 0,-8.2375795 c 0,-0.2277866 0.1709388,-0.434865 0.3561224,-0.434865 l 8.7249964,0 c 0.185183,0 0.35256,0.2070784 0.35256,0.434865 l 0,7.4713892 c 0,0.2277865 -0.167377,0.4348646 -0.35256,0.4348646 l -3.4080912,0 0,0.3313257 c 0,0.227787 -0.1673774,0.434864 -0.3525609,0.434864 l -4.9643443,0 c -0.014245,0 -0.024928,0 -0.035612,0 z"
     style="fill:#e9a439;stroke:#e9a439;stroke-width:0.98299998000000000;fill-opacity:1;stroke-opacity:1" />
  <path
     inkscape:connector-curvature="0"
     id="path8"
     d="M 0.81398029,3.0172971 C 0.59500867,3.0373388 0.40676979,3.2297389 0.41061138,3.4381722 l 0,7.9645588 c 0,0.220458 0.21128842,0.420875 0.44946823,0.420875 l 11.08688339,0 c 0.23818,0 0.449468,-0.200417 0.449468,-0.420875 l 0,-7.2270253 c 0,-0.2204586 -0.211288,-0.4208752 -0.449468,-0.4208752 l -4.3294935,0 0,-0.3166583 c 0,-0.2204587 -0.2151299,-0.4208751 -0.4494682,-0.4208751 l -6.30792169,0 c -0.0153663,0 -0.030733,0 -0.0460993,0 z"
     style="fill:#f5c14e;stroke:#e9a439;stroke-width:0.81800002000000005;stroke-opacity:1;fill-opacity:1" />
  <path
     style="fill:#d0a444;fill-opacity:1"
     d="m 7.284363,4.8109096 c -0.6458184,0 -1.1752717,0.4887271 -1.1752717,1.0996357 0.00582,0.2094545 0.017453,0.4712737 0.1396364,1.0298191 l 0.011636,0 c 0.023273,0.075636 0.064,0.1512719 0.1280007,0.2269079 0.058181,0.075636 0.133817,0.1512734 0.1978174,0.2269094 0.023273,0.162909 0.029091,0.2967276 0,0.4654544 C 6.3999996,8.0050903 6.0567266,8.1447266 5.7425456,8.266908 5.5854543,8.330908 5.4341809,8.3890909 5.3178188,8.4647269 5.2014537,8.5403629 5.1199999,8.6450909 5.1141821,8.7672723 c 0,0.011636 -0.011637,0.011636 -0.011637,0.017455 l -0.1396363,1.0705447 0,0.01164 c 0,0.133819 0.087273,0.238547 0.2152736,0.325819 0.1221816,0.08727 0.2967261,0.157091 0.5003628,0.215272 C 6.0974543,10.530182 6.6618173,10.6 7.2843631,10.6 c 0.6225457,0 1.1810907,-0.06982 1.5999997,-0.192001 0.209455,-0.05818 0.378182,-0.127999 0.506181,-0.215272 0.122183,-0.08727 0.209456,-0.192 0.209456,-0.325819 l 0,-0.01164 -0.151273,-1.0705447 c 0,-0.00582 0,-0.011637 0,-0.017455 0,-0.058181 -0.02327,-0.1163636 -0.05818,-0.1629091 -0.04073,-0.046545 -0.09309,-0.075636 -0.151275,-0.1105458 C 9.1170908,8.4181815 8.9716348,8.3599989 8.8087268,8.2901822 8.4945448,8.1621815 8.1512718,8.0167274 7.9650898,7.8596361 c -0.01745,-0.1454541 -0.01745,-0.2909097 0,-0.4363639 0.064,-0.081454 0.139636,-0.162909 0.197819,-0.238545 0.064,-0.087273 0.116364,-0.1687269 0.139636,-0.2443628 0.139637,-0.5818196 0.145454,-0.8203646 0.151272,-1.0298191 0,-0.6109086 -0.529453,-1.0996357 -1.1694538,-1.0996357 z M 5.102545,5.0145463 c -0.5294533,0 -0.9599994,0.4072718 -0.9599994,0.9076361 0.00582,0.1687269 0.011637,0.3723636 0.1163636,0.8320002 l 0,0.011636 c 0.017455,0.064 0.058181,0.1105458 0.1105458,0.1745462 0.046545,0.058181 0.1105458,0.1279992 0.162909,0.1919995 0.017454,0.1279993 0.023273,0.256 0,0.389817 C 4.3810906,7.6443638 4.0960001,7.7490903 3.8400002,7.847999 3.7061817,7.900364 3.5956374,7.952727 3.5025465,8.0109096 3.4094555,8.0749086 3.3454552,8.1621815 3.3396359,8.266908 c -0.00582,0.00582 -0.017453,0.00582 -0.017453,0.011637 L 3.2,9.1512713 l 0,0.011637 c 0,0.081454 0.03491,0.1512737 0.09891,0.2094547 0.064,0.064 0.1454541,0.122181 0.2501821,0.168727 0.209453,0.08727 0.5003628,0.151273 0.8610892,0.186181 l 0.011637,0 c 0.017455,0 0.034908,-0.0058 0.046545,-0.01164 0.017455,-0.01164 0.034908,-0.01745 0.040728,-0.02327 0.011636,-0.01745 0.017455,-0.03491 0.023273,-0.05236 0.011636,-0.02909 0.011636,-0.05818 0.017454,-0.08727 0,-0.0058 0,-0.01164 0,-0.01164 L 4.6836368,8.464728 c 0,-0.040728 0.03491,-0.093091 0.104728,-0.1512734 C 4.8581828,8.26109 4.9629095,8.2087265 5.0909102,8.1505454 5.3410908,8.0458174 5.6552733,7.9410894 5.9112732,7.8130902 l 0.1338186,-0.075636 -0.1338186,-0.064 C 5.8065444,7.6269092 5.7309085,7.5687264 5.6669081,7.5221809 c -0.011636,-0.1221814 -0.011636,-0.2559984 0,-0.3781813 0,-0.00582 0,-0.00582 0,-0.011636 0.09891,-0.1280007 0.1687284,-0.267637 0.2036367,-0.343273 l 0.011637,-0.023272 -0.011637,-0.023273 C 5.8589088,6.6785456 5.8647248,6.6319997 5.8472718,6.5796364 5.7250904,6.0210911 5.7134533,5.7941817 5.7076355,5.5905465 c 0,-0.081455 0.017455,-0.180364 0.052363,-0.2734549 l 0.023274,-0.052363 -0.052365,-0.023274 C 5.5621816,5.1076371 5.34109,5.0145463 5.102545,5.0145463 z"
     id="path10"
     inkscape:connector-curvature="0" />
</svg>
