<?xml version="1.0" encoding="UTF-8" standalone="no"?>
<svg
   xmlns:dc="http://purl.org/dc/elements/1.1/"
   xmlns:cc="http://creativecommons.org/ns#"
   xmlns:rdf="http://www.w3.org/1999/02/22-rdf-syntax-ns#"
   xmlns:svg="http://www.w3.org/2000/svg"
   xmlns="http://www.w3.org/2000/svg"
   xmlns:sodipodi="http://sodipodi.sourceforge.net/DTD/sodipodi-0.dtd"
   xmlns:inkscape="http://www.inkscape.org/namespaces/inkscape"
   width="16.25"
   height="16.25"
   viewBox="0 0 13 13"
   id="svg2"
   version="1.1"
   inkscape:version="0.48.4 r9939"
   sodipodi:docname="folder-saved-search.svg">
  <metadata
     id="metadata16">
    <rdf:RDF>
      <cc:Work
         rdf:about="">
        <dc:format>image/svg+xml</dc:format>
        <dc:type
           rdf:resource="http://purl.org/dc/dcmitype/StillImage" />
      </cc:Work>
    </rdf:RDF>
  </metadata>
  <defs
     id="defs14" />
  <sodipodi:namedview
     pagecolor="#ffffff"
     bordercolor="#666666"
     borderopacity="1"
     objecttolerance="10"
     gridtolerance="10"
     guidetolerance="10"
     inkscape:pageopacity="0"
     inkscape:pageshadow="2"
     inkscape:window-width="658"
     inkscape:window-height="480"
     id="namedview12"
     showgrid="false"
     inkscape:zoom="14.523077"
     inkscape:cx="20.61993"
     inkscape:cy="7.3487488"
     inkscape:window-x="515"
     inkscape:window-y="240"
     inkscape:window-maximized="0"
     inkscape:current-layer="svg2" />
  <path
     inkscape:connector-curvature="0"
     id="path6"
     d="m 1.6108503,10.601486 c -0.1745,-0.02071 -0.3205101,-0.223644 -0.3205101,-0.434864 l 0,-8.2375795 c 0,-0.2277866 0.1709388,-0.434865 0.3561224,-0.434865 l 8.7249964,0 c 0.185183,0 0.35256,0.2070784 0.35256,0.434865 l 0,7.4713892 c 0,0.2277865 -0.167377,0.4348646 -0.35256,0.4348646 l -3.4080912,0 0,0.3313257 c 0,0.227787 -0.1673774,0.434864 -0.3525609,0.434864 l -4.9643443,0 c -0.014245,0 -0.024928,0 -0.035612,0 z"
     style="fill:#e9a439;stroke:#e9a439;stroke-width:0.98299998000000000;fill-opacity:1;stroke-opacity:1" />
  <path
     inkscape:connector-curvature="0"
     id="path8"
     d="M 0.81398029,3.0172971 C 0.59500867,3.0373388 0.40676979,3.2297389 0.41061138,3.4381722 l 0,7.9645588 c 0,0.220458 0.21128842,0.420875 0.44946823,0.420875 l 11.08688339,0 c 0.23818,0 0.449468,-0.200417 0.449468,-0.420875 l 0,-7.2270253 c 0,-0.2204586 -0.211288,-0.4208752 -0.449468,-0.4208752 l -4.3294935,0 0,-0.3166583 c 0,-0.2204587 -0.2151299,-0.4208751 -0.4494682,-0.4208751 l -6.30792169,0 c -0.0153663,0 -0.030733,0 -0.0460993,0 z"
     style="fill:#f5c14e;stroke:#e9a439;stroke-width:0.81800002000000005;fill-opacity:1;stroke-opacity:1" />
  <path
     style="fill:#d0a444;fill-opacity:1"
     d="M 8.9473202,5.2512354 C 8.0828458,4.3867606 6.6823952,4.3925234 5.8179204,5.2627625 5.0802346,5.9946854 4.970734,7.1185025 5.4836558,7.9656889 L 3.3512835,10.103825 c -0.2017113,0.195948 -0.2017113,0.518685 0,0.714634 l 0.028816,0.03458 c 0.2017114,0.195948 0.5186861,0.195948 0.7203959,0 L 6.2328686,8.7149018 c 0.8529492,0.5186846 1.9825306,0.409184 2.7144516,-0.3227375 0.87024,-0.8644763 0.87024,-2.2706898 0,-3.1351646 z M 8.4632158,5.7411045 c 0.5936055,0.5936069 0.5936055,1.5675823 0,2.1611892 C 7.869609,8.4901378 6.9186848,8.4901378 6.319315,7.9138207 L 6.307789,7.8965307 C 6.302029,7.8907707 6.296263,7.8850047 6.290499,7.8792407 5.7084198,7.2856356 5.7141826,6.3347114 6.3077894,5.7468688 6.9013964,5.1532619 7.869609,5.1474991 8.4632158,5.7411045 z"
     id="path10" />
</svg>
