<?xml version="1.0" encoding="UTF-8" standalone="no"?>
<svg
   xmlns:dc="http://purl.org/dc/elements/1.1/"
   xmlns:cc="http://creativecommons.org/ns#"
   xmlns:rdf="http://www.w3.org/1999/02/22-rdf-syntax-ns#"
   xmlns:svg="http://www.w3.org/2000/svg"
   xmlns="http://www.w3.org/2000/svg"
   xmlns:sodipodi="http://sodipodi.sourceforge.net/DTD/sodipodi-0.dtd"
   xmlns:inkscape="http://www.inkscape.org/namespaces/inkscape"
   width="16.25"
   height="16.25"
   viewBox="0 0 13 13"
   id="svg2"
   version="1.1"
   inkscape:version="0.48.4 r9939"
   sodipodi:docname="user-home.svg">
  <metadata
     id="metadata16">
    <rdf:RDF>
      <cc:Work
         rdf:about="">
        <dc:format>image/svg+xml</dc:format>
        <dc:type
           rdf:resource="http://purl.org/dc/dcmitype/StillImage" />
      </cc:Work>
    </rdf:RDF>
  </metadata>
  <defs
     id="defs14" />
  <sodipodi:namedview
     pagecolor="#ffffff"
     bordercolor="#666666"
     borderopacity="1"
     objecttolerance="10"
     gridtolerance="10"
     guidetolerance="10"
     inkscape:pageopacity="0"
     inkscape:pageshadow="2"
     inkscape:window-width="658"
     inkscape:window-height="480"
     id="namedview12"
     showgrid="false"
     inkscape:zoom="14.523077"
     inkscape:cx="11.636653"
     inkscape:cy="8.4004238"
     inkscape:window-x="530"
     inkscape:window-y="270"
     inkscape:window-maximized="0"
     inkscape:current-layer="svg2" />
  <path
     inkscape:connector-curvature="0"
     id="path6"
     d="m 1.6108503,10.601486 c -0.1745,-0.02071 -0.3205101,-0.223644 -0.3205101,-0.434864 l 0,-8.2375795 c 0,-0.2277866 0.1709388,-0.434865 0.3561224,-0.434865 l 8.7249964,0 c 0.185183,0 0.35256,0.2070784 0.35256,0.434865 l 0,7.4713892 c 0,0.2277865 -0.167377,0.4348646 -0.35256,0.4348646 l -3.4080912,0 0,0.3313257 c 0,0.227787 -0.1673774,0.434864 -0.3525609,0.434864 l -4.9643443,0 c -0.014245,0 -0.024928,0 -0.035612,0 z"
     style="fill:#e9a439;stroke:#e9a439;stroke-width:0.98299998000000000;stroke-opacity:1;fill-opacity:1" />
  <path
     inkscape:connector-curvature="0"
     id="path8"
     d="M 0.81398029,3.0172971 C 0.59500867,3.0373388 0.40676979,3.2297389 0.41061138,3.4381722 l 0,7.9645588 c 0,0.220458 0.21128842,0.420875 0.44946823,0.420875 l 11.08688339,0 c 0.23818,0 0.449468,-0.200417 0.449468,-0.420875 l 0,-7.2270253 c 0,-0.2204586 -0.211288,-0.4208752 -0.449468,-0.4208752 l -4.3294935,0 0,-0.3166583 c 0,-0.2204587 -0.2151299,-0.4208751 -0.4494682,-0.4208751 l -6.30792169,0 c -0.0153663,0 -0.030733,0 -0.0460993,0 z"
     style="fill:#f5c14e;stroke:#e9a439;stroke-width:0.81800002000000005;stroke-opacity:1;fill-opacity:1" />
  <path
     style="fill:#d0a444;fill-opacity:1"
     d="m 6.4,5.0014417 -3.2,3.2 0.8014417,0 0,2.3985583 4.7971163,0 0,-2.3985583 0.801442,0 -1.199279,-1.1992791 0,-1.6028835 -0.801442,0 0,0.8014418 z"
     id="path10" />
</svg>
