<?xml version="1.0" encoding="UTF-8" standalone="no"?>
<svg
   xmlns:dc="http://purl.org/dc/elements/1.1/"
   xmlns:cc="http://creativecommons.org/ns#"
   xmlns:rdf="http://www.w3.org/1999/02/22-rdf-syntax-ns#"
   xmlns:svg="http://www.w3.org/2000/svg"
   xmlns="http://www.w3.org/2000/svg"
   xmlns:sodipodi="http://sodipodi.sourceforge.net/DTD/sodipodi-0.dtd"
   xmlns:inkscape="http://www.inkscape.org/namespaces/inkscape"
   viewBox="0 0 48 48"
   id="svg2"
   version="1.1"
   inkscape:version="0.91 r13725"
   sodipodi:docname="blue-folder-open.svg">
  <metadata
     id="metadata31">
    <rdf:RDF>
      <cc:Work
         rdf:about="">
        <dc:format>image/svg+xml</dc:format>
        <dc:type
           rdf:resource="http://purl.org/dc/dcmitype/StillImage" />
      </cc:Work>
    </rdf:RDF>
  </metadata>
  <sodipodi:namedview
     pagecolor="#ffffff"
     bordercolor="#666666"
     borderopacity="1"
     objecttolerance="10"
     gridtolerance="10"
     guidetolerance="10"
     inkscape:pageopacity="0"
     inkscape:pageshadow="2"
     inkscape:window-width="722"
     inkscape:window-height="480"
     id="namedview29"
     showgrid="false"
     inkscape:zoom="4.9166667"
     inkscape:cx="24"
     inkscape:cy="24"
     inkscape:window-x="0"
     inkscape:window-y="24"
     inkscape:window-maximized="0"
     inkscape:current-layer="svg2" />
  <defs
     id="defs4">
    <radialGradient
       r="24"
       cy="40.5"
       cx="24"
       gradientTransform="matrix(1.25,0,0,0.20833327,-6,31.5625)"
       gradientUnits="userSpaceOnUse"
       id="radialGradient3085">
      <stop
         style="stop-color:#000;stop-opacity:1"
         id="stop7" />
      <stop
         offset="1"
         style="stop-color:#000;stop-opacity:0.196"
         id="stop9" />
    </radialGradient>
  </defs>
  <rect
     id="rect13"
     style="fill:#f57c00;fill-opacity:1;stroke:none"
     rx="5"
     y="9.9977856"
     x="1"
     height="32"
     width="46" />
  <path
     style="fill:#fff1ed;fill-opacity:1;stroke:none;opacity:0.6"
     d="M 12 11.998047 L 4 19.998047 L 8 19.998047 L 8 37.998047 L 16 37.998047 L 16 19.998047 L 20 19.998047 L 12 11.998047 z "
     id="rect17" />
  <path
     inkscape:connector-curvature="0"
     id="path21"
     style="opacity:0.2;fill:#ffffff;fill-opacity:1;stroke:none"
     d="m 6,9.9978 c -2.77,0 -5,2.23 -5,5 l 0,2 c 0,-2.77 2.23,-5 5,-5 l 36,0 c 2.77,0 5,2.23 5,5 l 0,-2 c 0,-2.77 -2.23,-5 -5,-5 l -36,0 z" />
  <path
     inkscape:connector-curvature="0"
     id="path23"
     style="opacity:0.1;fill:url(#radialGradient3085);fill-opacity:1;stroke:none"
     d="m 24,34.9978 c -9.827,0 -18.528,0.783 -24,2 l 0,6 c 5.472,1.217 14.173,2 24,2 9.827,0 18.528,-0.783 24,-2 l 0,-6 c -5.472,-1.217 -14.173,-2 -24,-2 z" />
  <path
     inkscape:connector-curvature="0"
     id="path25"
     style="fill:#ffb300;fill-opacity:1;stroke:none"
     d="m 6,23.9978 8,0 c 11,-0.75 9,-9 16,-9 l 12,0 c 2.77,0 5,1.673 5,3.75 l 0,19.5 c 0,2.078 -2.23,3.75 -5,3.75 l -36,0 c -2.77,0 -5,-1.672 -5,-3.75 l 0,-10.5 c 0,-2.25 2,-3.75 5,-3.75 z" />
  <path
     inkscape:connector-curvature="0"
     id="path27"
     style="opacity:0.15;fill:#000000;fill-opacity:1;stroke:none"
     d="m 1,36.7178 0,1.511 c 0,2.092 2.23,3.776 5,3.776 l 36,0 c 2.77,0 5,-1.684 5,-3.776 l 0,-1.511 c 0,2.092 -2.23,3.776 -5,3.776 l -36,0 c -2.77,0 -5,-1.684 -5,-3.776 z" />
</svg>
