<svg xmlns="http://www.w3.org/2000/svg" viewBox="0 0 48 48">
 <defs>
  <linearGradient id="linearGradient3764" x1="1" x2="47" gradientUnits="userSpaceOnUse" gradientTransform="matrix(0,-1,1,0,-1.5e-6,47.999998)">
   <stop style="stop-color:#3e6d94;stop-opacity:1"/>
   <stop offset="1" style="stop-color:#4476a2;stop-opacity:1"/>
  </linearGradient>
  
 </defs>
 <g>
  <path d="m 36.31 5 c 5.859 4.062 9.688 10.831 9.688 18.5 c 0 12.426 -10.07 22.5 -22.5 22.5 c -7.669 0 -14.438 -3.828 -18.5 -9.688 c 1.037 1.822 2.306 3.499 3.781 4.969 c 4.085 3.712 9.514 5.969 15.469 5.969 c 12.703 0 23 -10.298 23 -23 c 0 -5.954 -2.256 -11.384 -5.969 -15.469 c -1.469 -1.475 -3.147 -2.744 -4.969 -3.781 z m 4.969 3.781 c 3.854 4.113 6.219 9.637 6.219 15.719 c 0 12.703 -10.297 23 -23 23 c -6.081 0 -11.606 -2.364 -15.719 -6.219 c 4.16 4.144 9.883 6.719 16.219 6.719 c 12.703 0 23 -10.298 23 -23 c 0 -6.335 -2.575 -12.06 -6.719 -16.219 z" style="opacity:0.05"/>
  <path d="m 41.28 8.781 c 3.712 4.085 5.969 9.514 5.969 15.469 c 0 12.703 -10.297 23 -23 23 c -5.954 0 -11.384 -2.256 -15.469 -5.969 c 4.113 3.854 9.637 6.219 15.719 6.219 c 12.703 0 23 -10.298 23 -23 c 0 -6.081 -2.364 -11.606 -6.219 -15.719 z" style="opacity:0.1"/>
  <path d="m 31.25 2.375 c 8.615 3.154 14.75 11.417 14.75 21.13 c 0 12.426 -10.07 22.5 -22.5 22.5 c -9.708 0 -17.971 -6.135 -21.12 -14.75 a 23 23 0 0 0 44.875 -7 a 23 23 0 0 0 -16 -21.875 z" style="opacity:0.2"/>
 </g>
 <g>
  <path d="m 24 1 c 12.703 0 23 10.297 23 23 c 0 12.703 -10.297 23 -23 23 -12.703 0 -23 -10.297 -23 -23 0 -12.703 10.297 -23 23 -23 z" style="fill:url(#linearGradient3764);fill-opacity:1"/>
 </g>
 <g>
  <path d="m 40.03 7.531 c 3.712 4.084 5.969 9.514 5.969 15.469 0 12.703 -10.297 23 -23 23 c -5.954 0 -11.384 -2.256 -15.469 -5.969 4.178 4.291 10.01 6.969 16.469 6.969 c 12.703 0 23 -10.298 23 -23 0 -6.462 -2.677 -12.291 -6.969 -16.469 z" style="opacity:0.1"/>
 </g>
 <g>
  <g style="clip-path:url(#clipPath-428684738)">
   <g transform="translate(1,1)">
    <g style="opacity:0.1">
     <!-- color: #7373a1 -->
     <g>
      <path d="m 18.273 15 c -0.775 0 -1.077 0.419 -1.195 1 l -3.078 0 l 0 4 l -2 0 l 2 14 l 22 0 l 2 -14 l -2 0 l 0 -4 l -12.08 0 c -0.118 -0.581 -0.417 -1 -1.193 -1 l -4.453 0 z" transform="translate(-1,-1)" style="fill:#000;fill-opacity:1;stroke:none;fill-rule:nonzero"/>
     </g>
    </g>
   </g>
  </g>
 </g>
 <g>
  <path d="m 13 15 22 0 0 9 -22 0 m 0 -9" style="fill:#ea8e36;fill-opacity:1;stroke:none;fill-rule:nonzero"/>
  <path d="M 16,16.25 C 16,15.125 16,14 17.273,14 l 4.453,0 c 1.273,0 1.273,1.121 1.273,2.25 m -7,0" style="fill:#ea8e36;fill-opacity:1;stroke:none;fill-rule:nonzero"/>
  <path d="m 15 16 17 0 0 12 -17 0 m 0 -12" style="fill:#d6d6d7;fill-opacity:1;stroke:none;fill-rule:nonzero"/>
  <path d="m 16 17 18 0 0 4 -18 0 m 0 -4" style="fill:#95959c;fill-opacity:1;stroke:none;fill-rule:nonzero"/>
  <path d="m 17 18 16 0 0 12 -16 0 m 0 -12" style="fill:#f9f9f9;fill-opacity:1;stroke:none;fill-rule:nonzero"/>
  <path d="m 11,19 26,0 -2,14 -22,0 M 11,19" style="fill:#f2b962;fill-opacity:1;stroke:none;fill-rule:nonzero"/>
  <path d="m 25.488,21.375 c 0,0.762 -0.637,1.375 -1.422,1.375 -0.785,0 -1.418,-0.613 -1.418,-1.375 0,-0.758 0.633,-1.371 1.418,-1.371 0.785,0 1.422,0.613 1.422,1.371 m 3.547,1.465 c -0.066,0.008 -0.129,0.035 -0.18,0.07 L 24,23.644 19.172,22.902 c -0.125,-0.09 -0.297,-0.113 -0.438,-0.051 -0.141,0.066 -0.23,0.223 -0.234,0.367 0,0.148 0.098,0.273 0.234,0.34 l 3.781,1.16 -0.027,2.668 -1.332,3.988 c -0.129,0.18 -0.09,0.414 0.102,0.535 0.195,0.121 0.465,0.086 0.598,-0.098 l 2.152,-4.305 2.113,4.297 c 0.113,0.188 0.371,0.254 0.57,0.145 0.199,-0.105 0.27,-0.352 0.152,-0.539 l -1.309,-4.01 -0.051,-2.508 3.836,-1.348 c 0.152,-0.105 0.223,-0.297 0.156,-0.465 -0.066,-0.168 -0.254,-0.262 -0.441,-0.242 m 0,-0.004" style="fill:#000;fill-opacity:0.251;stroke:none;fill-rule:nonzero"/>
 </g>
</svg>
