<?xml version="1.0" encoding="UTF-8" standalone="no"?>
<svg
   xmlns:dc="http://purl.org/dc/elements/1.1/"
   xmlns:cc="http://creativecommons.org/ns#"
   xmlns:rdf="http://www.w3.org/1999/02/22-rdf-syntax-ns#"
   xmlns:svg="http://www.w3.org/2000/svg"
   xmlns="http://www.w3.org/2000/svg"
   xmlns:sodipodi="http://sodipodi.sourceforge.net/DTD/sodipodi-0.dtd"
   xmlns:inkscape="http://www.inkscape.org/namespaces/inkscape"
   viewBox="0 0 48 48"
   id="svg2513"
   version="1.1"
   inkscape:version="0.91 r"
   sodipodi:docname="file-manager-red.svg">
  <metadata
     id="metadata2592">
    <rdf:RDF>
      <cc:Work
         rdf:about="">
        <dc:format>image/svg+xml</dc:format>
        <dc:type
           rdf:resource="http://purl.org/dc/dcmitype/StillImage" />
      </cc:Work>
    </rdf:RDF>
  </metadata>
  <sodipodi:namedview
     pagecolor="#ffffff"
     bordercolor="#666666"
     borderopacity="1"
     objecttolerance="10"
     gridtolerance="10"
     guidetolerance="10"
     inkscape:pageopacity="0"
     inkscape:pageshadow="2"
     inkscape:window-width="640"
     inkscape:window-height="480"
     id="namedview2590" />
  <defs
     id="defs2515">
    <linearGradient
       id="linearGradient3764"
       x1="1"
       x2="47"
       gradientUnits="userSpaceOnUse"
       gradientTransform="matrix(0,-1,1,0,-1.5e-6,47.999998)">
      <stop
         stop-color="#d52f2b"
         stop-opacity="1"
         id="stop2518" />
      <stop
         offset="1"
         stop-color="#d83f3d"
         stop-opacity="1"
         id="stop2520" />
    </linearGradient>
    <clipPath
       id="clipPath-265162442">
      <g
         transform="translate(0,-1004.3622)"
         id="g2523">
        <path
           d="m -24 13 c 0 1.105 -0.672 2 -1.5 2 -0.828 0 -1.5 -0.895 -1.5 -2 0 -1.105 0.672 -2 1.5 -2 0.828 0 1.5 0.895 1.5 2 z"
           transform="matrix(15.333333,0,0,11.5,414.99999,878.8622)"
           fill="#1890d0"
           id="path2525" />
      </g>
    </clipPath>
    <clipPath
       id="clipPath-276333788">
      <g
         transform="translate(0,-1004.3622)"
         id="g2528">
        <path
           d="m -24 13 c 0 1.105 -0.672 2 -1.5 2 -0.828 0 -1.5 -0.895 -1.5 -2 0 -1.105 0.672 -2 1.5 -2 0.828 0 1.5 0.895 1.5 2 z"
           transform="matrix(15.333333,0,0,11.5,414.99999,878.8622)"
           fill="#1890d0"
           id="path2530" />
      </g>
    </clipPath>
  </defs>
  <g
     id="g2532">
    <path
       d="m 36.31 5 c 5.859 4.062 9.688 10.831 9.688 18.5 c 0 12.426 -10.07 22.5 -22.5 22.5 c -7.669 0 -14.438 -3.828 -18.5 -9.688 c 1.037 1.822 2.306 3.499 3.781 4.969 c 4.085 3.712 9.514 5.969 15.469 5.969 c 12.703 0 23 -10.298 23 -23 c 0 -5.954 -2.256 -11.384 -5.969 -15.469 c -1.469 -1.475 -3.147 -2.744 -4.969 -3.781 z m 4.969 3.781 c 3.854 4.113 6.219 9.637 6.219 15.719 c 0 12.703 -10.297 23 -23 23 c -6.081 0 -11.606 -2.364 -15.719 -6.219 c 4.16 4.144 9.883 6.719 16.219 6.719 c 12.703 0 23 -10.298 23 -23 c 0 -6.335 -2.575 -12.06 -6.719 -16.219 z"
       opacity="0.05"
       id="path2534" />
    <path
       d="m 41.28 8.781 c 3.712 4.085 5.969 9.514 5.969 15.469 c 0 12.703 -10.297 23 -23 23 c -5.954 0 -11.384 -2.256 -15.469 -5.969 c 4.113 3.854 9.637 6.219 15.719 6.219 c 12.703 0 23 -10.298 23 -23 c 0 -6.081 -2.364 -11.606 -6.219 -15.719 z"
       opacity="0.1"
       id="path2536" />
    <path
       d="m 31.25 2.375 c 8.615 3.154 14.75 11.417 14.75 21.13 c 0 12.426 -10.07 22.5 -22.5 22.5 c -9.708 0 -17.971 -6.135 -21.12 -14.75 a 23 23 0 0 0 44.875 -7 a 23 23 0 0 0 -16 -21.875 z"
       opacity="0.2"
       id="path2538" />
  </g>
  <g
     id="g2540">
    <path
       d="m 24 1 c 12.703 0 23 10.297 23 23 c 0 12.703 -10.297 23 -23 23 -12.703 0 -23 -10.297 -23 -23 0 -12.703 10.297 -23 23 -23 z"
       fill="url(#linearGradient3764)"
       fill-opacity="1"
       id="path2542" />
  </g>
  <g
     id="g2544" />
  <g
     id="g2546">
    <g
       clip-path="url(#clipPath-265162442)"
       id="g2548">
      <g
         transform="translate(1,1)"
         id="g2550">
        <g
           opacity="0.1"
           id="g2552">
          <!-- color: #d83f3d -->
          <g
             id="g2554">
            <path
               d="m 13 15 l 22 0 l 0 9 l -22 0 m 0 -9"
               fill="#000"
               stroke="none"
               fill-rule="nonzero"
               fill-opacity="1"
               id="path2556" />
            <path
               d="m 16 16.25 c 0 -1.129 0 -2.25 1.273 -2.25 l 4.453 0 c 1.273 0 1.273 1.121 1.273 2.25 m -7 0"
               fill="#000"
               stroke="none"
               fill-rule="nonzero"
               fill-opacity="1"
               id="path2558" />
            <path
               d="m 15 16 l 17 0 l 0 12 l -17 0 m 0 -12"
               fill="#000"
               stroke="none"
               fill-rule="nonzero"
               fill-opacity="1"
               id="path2560" />
            <path
               d="m 16 17 l 18 0 l 0 4 l -18 0 m 0 -4"
               fill="#000"
               stroke="none"
               fill-rule="nonzero"
               fill-opacity="1"
               id="path2562" />
            <path
               d="m 17 18 l 16 0 l 0 12 l -16 0 m 0 -12"
               fill="#000"
               stroke="none"
               fill-rule="nonzero"
               fill-opacity="1"
               id="path2564" />
            <path
               d="m 11 19 l 26 0 l -2 14 l -22 0 m -2 -14"
               fill="#000"
               stroke="none"
               fill-rule="nonzero"
               fill-opacity="1"
               id="path2566" />
          </g>
        </g>
      </g>
    </g>
  </g>
  <g
     id="g2568">
    <g
       clip-path="url(#clipPath-276333788)"
       id="g2570">
      <!-- color: #d83f3d -->
      <g
         id="g2572">
        <path
           d="m 13 15 l 22 0 l 0 9 l -22 0 m 0 -9"
           fill="#ea8e36"
           stroke="none"
           fill-rule="nonzero"
           fill-opacity="1"
           id="path2574" />
        <path
           d="m 16 16.25 c 0 -1.129 0 -2.25 1.273 -2.25 l 4.453 0 c 1.273 0 1.273 1.121 1.273 2.25 m -7 0"
           fill="#ea8e36"
           stroke="none"
           fill-rule="nonzero"
           fill-opacity="1"
           id="path2576" />
        <path
           d="m 15 16 l 17 0 l 0 12 l -17 0 m 0 -12"
           fill="#d6d6d7"
           stroke="none"
           fill-rule="nonzero"
           fill-opacity="1"
           id="path2578" />
        <path
           d="m 16 17 l 18 0 l 0 4 l -18 0 m 0 -4"
           fill="#95959c"
           stroke="none"
           fill-rule="nonzero"
           fill-opacity="1"
           id="path2580" />
        <path
           d="m 17 18 l 16 0 l 0 12 l -16 0 m 0 -12"
           fill="#f9f9f9"
           stroke="none"
           fill-rule="nonzero"
           fill-opacity="1"
           id="path2582" />
        <path
           d="m 11 19 l 26 0 l -2 14 l -22 0 m -2 -14"
           fill="#f2b962"
           stroke="none"
           fill-rule="nonzero"
           fill-opacity="1"
           id="path2584" />
      </g>
    </g>
  </g>
  <g
     id="g2586">
    <path
       d="m 40.03 7.531 c 3.712 4.084 5.969 9.514 5.969 15.469 0 12.703 -10.297 23 -23 23 c -5.954 0 -11.384 -2.256 -15.469 -5.969 4.178 4.291 10.01 6.969 16.469 6.969 c 12.703 0 23 -10.298 23 -23 0 -6.462 -2.677 -12.291 -6.969 -16.469 z"
       opacity="0.1"
       id="path2588" />
  </g>
</svg>
