<?xml version="1.0" encoding="UTF-8" standalone="no"?>
<svg
   xmlns:dc="http://purl.org/dc/elements/1.1/"
   xmlns:cc="http://creativecommons.org/ns#"
   xmlns:rdf="http://www.w3.org/1999/02/22-rdf-syntax-ns#"
   xmlns:svg="http://www.w3.org/2000/svg"
   xmlns="http://www.w3.org/2000/svg"
   xmlns:sodipodi="http://sodipodi.sourceforge.net/DTD/sodipodi-0.dtd"
   xmlns:inkscape="http://www.inkscape.org/namespaces/inkscape"
   width="48"
   viewBox="0 0 48 48"
   height="48"
   id="svg2"
   version="1.1"
   inkscape:version="0.91 r"
   sodipodi:docname="green-folder-books.svg">
  <metadata
     id="metadata14">
    <rdf:RDF>
      <cc:Work
         rdf:about="">
        <dc:format>image/svg+xml</dc:format>
        <dc:type
           rdf:resource="http://purl.org/dc/dcmitype/StillImage" />
      </cc:Work>
    </rdf:RDF>
  </metadata>
  <defs
     id="defs12" />
  <sodipodi:namedview
     pagecolor="#ffffff"
     bordercolor="#666666"
     borderopacity="1"
     objecttolerance="10"
     gridtolerance="10"
     guidetolerance="10"
     inkscape:pageopacity="0"
     inkscape:pageshadow="2"
     inkscape:window-width="1366"
     inkscape:window-height="747"
     id="namedview10"
     showgrid="true"
     inkscape:zoom="4.0000002"
     inkscape:cx="-16.120608"
     inkscape:cy="39.179289"
     inkscape:window-x="0"
     inkscape:window-y="21"
     inkscape:window-maximized="1"
     inkscape:current-layer="svg2">
    <inkscape:grid
       type="xygrid"
       id="grid2991" />
  </sodipodi:namedview>
  <path
     style="font-size:medium;font-style:normal;font-variant:normal;font-weight:normal;font-stretch:normal;text-indent:0;text-align:start;text-decoration:none;line-height:normal;letter-spacing:normal;word-spacing:normal;text-transform:none;direction:ltr;block-progression:tb;writing-mode:lr-tb;text-anchor:start;baseline-shift:baseline;color:#000000;fill:#66bb6a;fill-opacity:1;fill-rule:nonzero;stroke:none;stroke-width:1;marker:none;visibility:visible;display:inline;overflow:visible;enable-background:accumulate;font-family:Sans;-inkscape-font-specification:Sans"
     d="M 6,6 C 5,6 4,7 4,8 l 0,2 -1,0 c -1,0 -2.00556909,0.949207 -2,2 l 0,28 c 1.28e-4,1.120734 1.037763,1.9999 2.1875,2 l 41.625,0 C 46,42 47,41 47,40 l 0,-25 c 0,-1 -1,-2 -2,-2 l -2,0 0,-5 C 43,7 42,6 41,6 z"
     id="path3770"
     inkscape:connector-curvature="0"
     sodipodi:nodetypes="sscsccccccccsss" />
  <path
     style="font-size:medium;font-style:normal;font-variant:normal;font-weight:normal;font-stretch:normal;text-indent:0;text-align:start;text-decoration:none;line-height:normal;letter-spacing:normal;word-spacing:normal;text-transform:none;direction:ltr;block-progression:tb;writing-mode:lr-tb;text-anchor:start;baseline-shift:baseline;color:#000000;fill:#000000;fill-opacity:0.32156864;fill-rule:nonzero;stroke:none;stroke-width:1;marker:none;visibility:visible;display:inline;overflow:visible;enable-background:accumulate;font-family:Sans;-inkscape-font-specification:Sans"
     d="M 6 6 C 5 6 4 7 4 8 L 4 10 L 3 10 C 2 10 0.99443091 10.949207 1 12 L 1 40 C 1.000128 41.120734 2.037763 41.9999 3.1875 42 L 44.8125 42 C 46 42 47 41 47 40 L 47 15 C 47 14 46 13 45 13 L 43 13 L 43 8 C 43 7 42 6 41 6 L 6 6 z M 3 11 L 27 11 C 27.507314 11 28 11.494167 28 12 L 28 14 L 45 14 C 45.540858 14 46 14.471809 46 15 L 46 40 C 46 40.553755 45.547885 41 45 41 L 3 41 C 2.4872742 41 2 40.553754 2 40 L 2 12 C 2 11.456682 2.4790423 11 3 11 z "
     id="path3779" />
  <g
     style="opacity:1;fill:#000000;fill-opacity:0.32156864"
     id="layer3-1"
     inkscape:label="Symbol"
     transform="matrix(3.5433066,0,0,3.5433066,16,-11.999998)">
    <path
       sodipodi:nodetypes="ccccccccccccccccccccc"
       id="path53"
       d="m 2.5400002,13.546668 0,-2.963333 -0.5644445,0 0,2.963333 z M 1.6933336,10.442224 -3.1968253e-7,9.3133348 l 0,2.8222222 L 1.6933336,13.264446 Z m 2.8222227,1.693333 0,-2.8222222 -1.6933337,1.1288412 0,2.822317 z M 4.2333338,9.0311124 C 3.386667,9.0311123 2.8222225,9.3133345 2.257778,9.7837051 1.6933334,9.3133345 1.1288889,9.0311123 0.28222213,9.0311124 l 1.69333357,1.1288886 0.5644445,0 z"
       style="fill:#000000;fill-opacity:0.32156864;fill-rule:nonzero;stroke:none"
       inkscape:connector-curvature="0" />
  </g>
</svg>
