<svg version="1.1" viewBox="0 0 48 48" xmlns="http://www.w3.org/2000/svg">
 <path d="m6 6c-1 0-2 1-2 2v2h-1c-1 0-2.01 0.949-2 2v28c0 1.121 1.038 2 2.188 2h41.625c1.188 0 2.188-1 2.188-2v-25c0-1-1-2-2-2h-2v-5c0-1-1-2-2-2z" style="fill:#bdbdbd"/>
 <path d="m6 6c-1 0-2 1-2 2v2h-1c-1 0-2.01 0.949-2 2v28c0 1.121 1.038 2 2.188 2h41.625c1.188 0 2.188-1 2.188-2v-25c0-1-1-2-2-2h-2v-5c0-1-1-2-2-2h-35zm-3 5h24c0.507 0 1 0.494 1 1v2h17c0.541 0 1 0.472 1 1v25c0 0.554-0.452 1-1 1h-42c-0.513 0-1-0.446-1-1v-28c0-0.543 0.479-1 1-1z" style="fill-opacity:.322"/>
 <path d="m26.545 35.779h-0.07273l-0.07273-0.07373v-2.2857c0-0.51613-0.07273-0.95853-0.29091-1.3272 1.6727-0.29493 3.4909-1.1797 3.4909-4.4977 0-0.88479-0.29091-1.6959-0.8-2.3594 0.14546-0.4424 0.21818-1.2535-0.14546-2.2857l-0.21818-0.2212s-0.14546-0.07373-0.29091-0.07373c-0.43636 0-1.0909 0.14746-2.1818 0.88479-0.58182-0.07374-1.2364-0.2212-1.9636-0.2212s-1.3818 0.07373-2.0364 0.2212c-1.0182-0.6636-1.7455-0.81106-2.1818-0.81106-0.14545 0-0.21818 0.07373-0.29091 0.07373s-0.21818 0.14747-0.21818 0.2212c-0.36364 1.0323-0.29091 1.8433-0.14545 2.2857-0.50909 0.66359-0.8 1.4747-0.8 2.3594 0 3.2442 1.8909 4.129 3.4909 4.4977-0.07273 0.14746-0.14546 0.36866-0.21818 0.58986-0.14546 0.07373-0.36364 0.14747-0.65454 0.14747-0.29091 0-0.58182-0.07373-0.8-0.29493l-0.07273-0.07373c-0.07273-0.07373-0.07273-0.14747-0.14545-0.14747l-0.14546-0.14746c0-0.07373-0.58182-0.95852-1.6-1.0323-0.36364 0-0.65454 0.14747-0.72727 0.36866-0.14545 0.36866 0.29091 0.66359 0.50909 0.81106 0 0 0.43636 0.2212 0.72727 1.0323 0.14546 0.51613 0.8 1.4747 2.3273 1.4747h0.50909v1.0323l-0.07273 0.07373s-0.07273 0 0 0c-3.2727-1.3272-5.4545-4.424-5.4545-7.8894 0-4.4977 3.5636-8.1106 8-8.1106s8 3.6129 8 8.1106c0 3.4654-2.1818 6.5622-5.4545 7.6682z" style="fill-opacity:.322;font-variation-settings:normal;stop-color:#000000"/>
</svg>
