<svg xmlns="http://www.w3.org/2000/svg" viewBox="0 0 48 48">
 <g transform="translate(0,-1004.3622)">
  <path d="m 6 1010.36 c -1 0 -2 1 -2 2 l 0 2 -1 0 c -1 0 -2.01 0.949 -2 2 l 0 28 c 0 1.121 1.038 2 2.188 2 l 41.625 0 c 1.188 0 2.188 -1 2.188 -2 l 0 -25 c 0 -1 -1 -2 -2 -2 l -2 0 0 -5 c 0 -1 -1 -2 -2 -2 z" style="visibility:visible;fill:#bdbdbd;fill-opacity:1;stroke:none;display:inline;color:#000;fill-rule:nonzero"/>
  <path d="m 6 1010.36 c -1 0 -2 1 -2 2 l 0 2 -1 0 c -1 0 -2.01 0.949 -2 2 l 0 28 c 0 1.121 1.038 2 2.188 2 l 41.625 0 c 1.188 0 2.188 -1 2.188 -2 l 0 -25 c 0 -1 -1 -2 -2 -2 l -2 0 0 -5 c 0 -1 -1 -2 -2 -2 l -35 0 z m -3 5 24 0 c 0.507 0 1 0.494 1 1 l 0 2 17 0 c 0.541 0 1 0.472 1 1 l 0 25 c 0 0.554 -0.452 1 -1 1 l -42 0 c -0.513 0 -1 -0.446 -1 -1 l 0 -28 c 0 -0.543 0.479 -1 1 -1 z" style="visibility:visible;fill:#000;fill-opacity:0.322;stroke:none;display:inline;color:#000;fill-rule:nonzero"/>
  <path d="m 29.06 19.625 c -2.166 0 -3.938 1.72 -3.938 3.813 c 0 0.697 0.219 1.342 0.563 1.906 l 0 4.125 c -0.433 0.087 -0.819 0.275 -1.156 0.531 l -3.906 -1.688 c 0 -1.493 -1.266 -2.719 -2.813 -2.719 c -1.544 0 -2.813 1.225 -2.813 2.719 c 0 1.495 1.268 2.719 2.813 2.719 c 0.636 0 1.214 -0.214 1.688 -0.563 l 3.938 1.719 c 0.036 1.466 1.29 2.656 2.813 2.656 c 1.547 0 2.813 -1.223 2.813 -2.719 c 0 -0.609 -0.208 -1.17 -0.563 -1.625 l 2.094 -3.563 l 0.031 0 c 1.398 -0.587 2.375 -1.94 2.375 -3.5 c 0 -2.091 -1.774 -3.813 -3.938 -3.813 z m 0 1.281 c 1.455 0 2.625 1.125 2.625 2.531 c 0 1.409 -1.171 2.531 -2.625 2.531 c -1.457 0 -2.625 -1.122 -2.625 -2.531 c 0 -1.406 1.168 -2.531 2.625 -2.531 z m 0 0.875 c -0.93 0 -1.688 0.722 -1.688 1.625 c 0 0.9 0.757 1.656 1.688 1.656 c 0.933 0 1.688 -0.756 1.688 -1.656 c 0 -0.903 -0.754 -1.625 -1.688 -1.625 z m -11.25 4.906 c 0.922 0 1.458 0.366 1.625 1.094 l -1 -0.438 c -0.638 -0.262 -1.386 0.036 -1.656 0.656 c -0.271 0.617 0.018 1.303 0.656 1.563 l 0.781 0.375 c -0.123 0.017 -0.265 0 -0.406 0 c -1.125 0 -1.688 -0.535 -1.688 -1.625 c 0 -1.087 0.563 -1.625 1.688 -1.625 z m 8.438 3.625 c 1.041 0 1.875 0.807 1.875 1.813 c 0 1.01 -0.834 1.813 -1.875 1.813 c -0.863 0 -1.594 -0.548 -1.813 -1.313 l 1.375 0.594 c 0.638 0.262 1.386 -0.036 1.656 -0.656 c 0.271 -0.617 -0.049 -1.334 -0.688 -1.594 l -1.188 -0.531 c 0.206 -0.075 0.421 -0.125 0.656 -0.125 z" transform="translate(0,1004.3622)" style="fill:#000;fill-opacity:0.322;stroke:none;fill-rule:nonzero"/>
 </g>
</svg>
