<svg xmlns="http://www.w3.org/2000/svg" viewBox="0 0 48 48">
 <g transform="translate(0,-1004.3622)">
  <path d="m 6 1010.36 c -1 0 -2 1 -2 2 l 0 2 -1 0 c -1 0 -2.01 0.949 -2 2 l 0 28 c 0 1.121 1.038 2 2.188 2 l 41.625 0 c 1.188 0 2.188 -1 2.188 -2 l 0 -25 c 0 -1 -1 -2 -2 -2 l -2 0 0 -5 c 0 -1 -1 -2 -2 -2 z" style="visibility:visible;fill:#f06292;fill-opacity:1;stroke:none;display:inline;color:#000;fill-rule:nonzero"/>
  <path d="m 6 1010.36 c -1 0 -2 1 -2 2 l 0 2 -1 0 c -1 0 -2.01 0.949 -2 2 l 0 28 c 0 1.121 1.038 2 2.188 2 l 41.625 0 c 1.188 0 2.188 -1 2.188 -2 l 0 -25 c 0 -1 -1 -2 -2 -2 l -2 0 0 -5 c 0 -1 -1 -2 -2 -2 l -35 0 z m -3 5 24 0 c 0.507 0 1 0.494 1 1 l 0 2 17 0 c 0.541 0 1 0.472 1 1 l 0 25 c 0 0.554 -0.452 1 -1 1 l -42 0 c -0.513 0 -1 -0.446 -1 -1 l 0 -28 c 0 -0.543 0.479 -1 1 -1 z" style="visibility:visible;fill:#000;fill-opacity:0.322;stroke:none;display:inline;color:#000;fill-rule:nonzero"/>
  <path d="m 16 20 l 0 3 c 6.764 0.747 13.03 6.277 13 13 l 3 0 c 0 -9.604 -8.625 -15.696 -16 -16 z m 0 5 l 0 3 c 3.666 0.301 7.959 3.723 8 8 l 3 0 c -0.159 -6.522 -6.447 -10.537 -11 -11 z m 2.563 6 c -1.38 -0.04 -2.524 1.057 -2.563 2.438 c -0.041 1.38 1.056 2.52 2.438 2.563 c 1.38 0.04 2.524 -1.057 2.563 -2.438 c 0.041 -1.379 -1.056 -2.52 -2.438 -2.563 z" transform="translate(0,1004.3622)" style="fill:#000;opacity:1;fill-opacity:0.322;stroke:none;fill-rule:nonzero"/>
 </g>
</svg>
