<svg xmlns="http://www.w3.org/2000/svg" viewBox="0 0 48 48">
 <g transform="translate(0,-1004.3622)">
  <path d="m 6 1010.36 c -1 0 -2 1 -2 2 l 0 2 -1 0 c -1 0 -2.01 0.949 -2 2 l 0 28 c 0 1.121 1.038 2 2.188 2 l 41.625 0 c 1.188 0 2.188 -1 2.188 -2 l 0 -25 c 0 -1 -1 -2 -2 -2 l -2 0 0 -5 c 0 -1 -1 -2 -2 -2 z" style="visibility:visible;fill:#7e57c2;fill-opacity:1;stroke:none;display:inline;color:#000;fill-rule:nonzero"/>
  <path d="m 6 1010.36 c -1 0 -2 1 -2 2 l 0 2 -1 0 c -1 0 -2.01 0.949 -2 2 l 0 28 c 0 1.121 1.038 2 2.188 2 l 41.625 0 c 1.188 0 2.188 -1 2.188 -2 l 0 -25 c 0 -1 -1 -2 -2 -2 l -2 0 0 -5 c 0 -1 -1 -2 -2 -2 l -35 0 z m -3 5 24 0 c 0.507 0 1 0.494 1 1 l 0 2 17 0 c 0.541 0 1 0.472 1 1 l 0 25 c 0 0.554 -0.452 1 -1 1 l -42 0 c -0.513 0 -1 -0.446 -1 -1 l 0 -28 c 0 -0.543 0.479 -1 1 -1 z" style="visibility:visible;fill:#000;fill-opacity:0.322;stroke:none;display:inline;color:#000;fill-rule:nonzero"/>
  <path d="m 23.262 1030.36 0.022 0 c 0.195 0 0.353 0.178 0.353 0.4 l 0 3.6 c 0 0.222 -0.157 0.4 -0.353 0.4 l -0.022 0 c -0.195 0 -0.353 -0.178 -0.353 -0.4 l 0 -3.6 c 0 -0.222 0.157 -0.4 0.353 -0.4 z m -1.262 4.5 a 3 3.5 0 0 1 -3 3.5 3 3.5 0 0 1 -3 -3.5 3 3.5 0 0 1 3 -3.5 3 3.5 0 0 1 3 3.5 z m 4 -4.5 a 4 4 0 0 1 -4 4 4 4 0 0 1 -4 -4 4 4 0 0 1 4 -4 4 4 0 0 1 4 4 z m 4 1 a 3 3 0 0 1 -3 3 3 3 0 0 1 -3 -3 3 3 0 0 1 3 -3 3 3 0 0 1 3 3 z m 2 4 a 3 3 0 0 1 -3 3 3 3 0 0 1 -3 -3 3 3 0 0 1 3 -3 3 3 0 0 1 3 3 z m -13.09 -4.6 9.818 0 0 7.6 -9.818 0 z" style="fill:#000;opacity:1;fill-opacity:0.322;stroke:none"/>
 </g>
</svg>
