<svg xmlns="http://www.w3.org/2000/svg" viewBox="0 0 48 48">
 <path d="m 6 6 c -1 0 -2 1 -2 2 l 0 2 -1 0 c -1 0 -2.01 0.949 -2 2 l 0 28 c 0 1.121 1.038 2 2.188 2 l 41.625 0 c 1.188 0 2.188 -1 2.188 -2 l 0 -25 c 0 -1 -1 -2 -2 -2 l -2 0 0 -5 c 0 -1 -1 -2 -2 -2 z" style="visibility:visible;fill:#ef5350;fill-opacity:1;stroke:none;display:inline;color:#000;fill-rule:nonzero"/>
 <path d="m 15.628 25.708 c -0.899 0 -1.628 0.719 -1.628 1.605 c 0 0.886 0.729 1.605 1.628 1.605 0.899 0 1.628 -0.719 1.628 -1.605 0 -0.887 -0.729 -1.605 -1.628 -1.605 z m 11.626 7.296 c -0.779 0.443 -1.045 1.425 -0.596 2.192 0.45 0.768 1.445 1.031 2.224 0.588 0.779 -0.443 1.045 -1.425 0.596 -2.192 -0.45 -0.768 -1.445 -1.031 -2.224 -0.587 z m -8.089 -5.691 c 0 -1.587 0.8 -2.988 2.022 -3.837 l -1.19 -1.966 c -1.425 0.939 -2.485 2.374 -2.925 4.054 0.514 0.413 0.843 1.043 0.843 1.748 0 0.705 -0.329 1.335 -0.843 1.748 0.44 1.681 1.5 3.116 2.925 4.054 l 1.19 -1.966 c -1.223 -0.848 -2.022 -2.25 -2.022 -3.837 z m 4.756 -4.69 c 2.485 0 4.523 1.878 4.737 4.274 l 2.321 -0.033 c -0.114 -1.768 -0.898 -3.356 -2.102 -4.524 -0.619 0.231 -1.334 0.196 -1.952 -0.156 -0.619 -0.352 -1.01 -0.946 -1.114 -1.591 -0.602 -0.164 -1.235 -0.254 -1.89 -0.254 -1.126 0 -2.19 0.261 -3.135 0.722 l 1.131 1.999 c 0.609 -0.279 1.288 -0.436 2 -0.436 z m 0 9.379 c -0.716 0 -1.395 -0.157 -2 -0.436 l -1.131 1.999 c 0.945 0.461 2.01 0.722 3.135 0.722 0.655 0 1.288 -0.09 1.89 -0.254 0.106 -0.645 0.495 -1.239 1.114 -1.592 0.618 -0.352 1.333 -0.387 1.952 -0.156 1.204 -1.167 1.987 -2.755 2.101 -4.524 l -2.321 -0.033 c -0.213 2.396 -2.252 4.274 -4.737 4.274 z m 3.332 -10.381 c 0.779 0.443 1.774 0.18 2.224 -0.587 0.45 -0.768 0.183 -1.749 -0.596 -2.193 -0.779 -0.443 -1.774 -0.18 -2.224 0.588 -0.45 0.768 -0.183 1.749 0.596 2.192 z" style="fill:#000;fill-opacity:0.322;color:#000"/>
 <path d="m 6 6 c -1 0 -2 1 -2 2 l 0 2 -1 0 c -1 0 -2.01 0.949 -2 2 l 0 28 c 0 1.121 1.038 2 2.188 2 l 41.625 0 c 1.188 0 2.188 -1 2.188 -2 l 0 -25 c 0 -1 -1 -2 -2 -2 l -2 0 0 -5 c 0 -1 -1 -2 -2 -2 l -35 0 z m -3 5 24 0 c 0.507 0 1 0.494 1 1 l 0 2 17 0 c 0.541 0 1 0.472 1 1 l 0 25 c 0 0.554 -0.452 1 -1 1 l -42 0 c -0.513 0 -1 -0.446 -1 -1 l 0 -28 c 0 -0.543 0.479 -1 1 -1 z" style="visibility:visible;fill:#000;fill-opacity:0.322;stroke:none;display:inline;color:#000;fill-rule:nonzero"/>
</svg>
