<?xml version="1.0" encoding="UTF-8" standalone="no"?>
<svg
   xmlns:dc="http://purl.org/dc/elements/1.1/"
   xmlns:cc="http://creativecommons.org/ns#"
   xmlns:rdf="http://www.w3.org/1999/02/22-rdf-syntax-ns#"
   xmlns:svg="http://www.w3.org/2000/svg"
   xmlns="http://www.w3.org/2000/svg"
   xmlns:sodipodi="http://sodipodi.sourceforge.net/DTD/sodipodi-0.dtd"
   xmlns:inkscape="http://www.inkscape.org/namespaces/inkscape"
   viewBox="0 0 64 64"
   id="svg2"
   version="1.1"
   inkscape:version="0.91 r13725"
   sodipodi:docname="blue-folder-open.svg">
  <metadata
     id="metadata33">
    <rdf:RDF>
      <cc:Work
         rdf:about="">
        <dc:format>image/svg+xml</dc:format>
        <dc:type
           rdf:resource="http://purl.org/dc/dcmitype/StillImage" />
      </cc:Work>
    </rdf:RDF>
  </metadata>
  <sodipodi:namedview
     pagecolor="#ffffff"
     bordercolor="#666666"
     borderopacity="1"
     objecttolerance="10"
     gridtolerance="10"
     guidetolerance="10"
     inkscape:pageopacity="0"
     inkscape:pageshadow="2"
     inkscape:window-width="722"
     inkscape:window-height="480"
     id="namedview31"
     showgrid="false"
     inkscape:zoom="3.6875"
     inkscape:cx="32"
     inkscape:cy="32"
     inkscape:window-x="0"
     inkscape:window-y="24"
     inkscape:window-maximized="0"
     inkscape:current-layer="svg2" />
  <defs
     id="defs4">
    <radialGradient
       id="radialGradient3964"
       cx="32.5"
       cy="56.5"
       r="33.5"
       gradientTransform="matrix(1.1343284,0,0,0.11940298,-4.8656716,49.253728)"
       gradientUnits="userSpaceOnUse">
      <stop
         style="stop-color:#000;stop-opacity:1"
         id="stop7" />
      <stop
         offset="1"
         style="stop-color:#000;stop-opacity:0"
         id="stop9" />
    </radialGradient>
  </defs>
  <rect
     id="rect13"
     style="fill:#512da8;fill-opacity:1;stroke:none"
     rx="2"
     y="-0.0022146485"
     x="7"
     height="36"
     width="50" />
  <path
     style="fill:#fff1ed;fill-opacity:1;stroke:none;opacity:0.6"
     d="M 32 5.9980469 L 22 14.998047 L 27 14.998047 L 27 36.009766 L 37 36.009766 L 37 14.998047 L 42 14.998047 L 32 5.9980469 z "
     id="rect17" />
  <path
     inkscape:connector-curvature="0"
     id="path21"
     style="opacity:0.6;fill:url(#radialGradient3964);fill-opacity:1;stroke:none"
     d="m 70.000003,55.999996 c 0,2.209143 -17.012658,4 -38.000002,4 -20.987344,0 -38.000001,-1.790857 -38.000001,-4 0,-2.209143 17.012657,-4 38.000001,-4 20.987344,0 38.000002,1.790857 38.000002,4 z" />
  <path
     inkscape:connector-curvature="0"
     id="path23"
     style="fill:#7e57c2;fill-opacity:1;stroke:none"
     d="m 64,23.1778 0,34.824 -64,0 0,-32 30,0 3,-6 27.952,0.118 c 1.524,0 3.048,1.529 3.048,3.059 z" />
  <path
     inkscape:connector-curvature="0"
     id="path25"
     style="opacity:0.15;fill:#000000;fill-opacity:1;stroke:none"
     d="m 0,55.9978 0,2 64,0 0,-2 z" />
  <path
     inkscape:connector-curvature="0"
     id="path27"
     style="opacity:0.02999998;fill:#000000;fill-opacity:1;stroke:none"
     d="m 33,19.9978 -3,6 -30,0 0,2 31,0 3,-6 26.938,0.125 c 1.524,0 3.063,1.533 3.063,3.063 l 0,-2 c 0,0 -1.539,-3.063 -3.063,-3.063 z" />
  <path
     inkscape:connector-curvature="0"
     id="path29"
     style="opacity:0.02999998;fill:#000000;fill-opacity:1;stroke:none"
     d="M 9,0 C 7.892,0 7,0.892 7,2 L 7,4 C 7,2.892 7.892,2 9,2 l 46,0 c 1.108,0 2,0.892 2,2 L 57,2 C 57,0.892 56.108,0 55,0 L 9,0 Z" />
</svg>
