<?xml version="1.0" encoding="UTF-8" standalone="no"?>
<!-- Created with Inkscape (http://www.inkscape.org/) -->

<svg
   xmlns:dc="http://purl.org/dc/elements/1.1/"
   xmlns:cc="http://creativecommons.org/ns#"
   xmlns:rdf="http://www.w3.org/1999/02/22-rdf-syntax-ns#"
   xmlns:svg="http://www.w3.org/2000/svg"
   xmlns="http://www.w3.org/2000/svg"
   xmlns:xlink="http://www.w3.org/1999/xlink"
   xmlns:sodipodi="http://sodipodi.sourceforge.net/DTD/sodipodi-0.dtd"
   xmlns:inkscape="http://www.inkscape.org/namespaces/inkscape"
   width="64"
   height="64"
   id="svg2"
   version="1.1"
   inkscape:version="0.48.5 r10040"
   sodipodi:docname="network.svg">
  <defs
     id="defs4">
    <linearGradient
       id="linearGradient3855">
      <stop
         style="stop-color:#000000;stop-opacity:1;"
         offset="0"
         id="stop3857" />
      <stop
         style="stop-color:#000000;stop-opacity:0.29411766;"
         offset="1"
         id="stop3859" />
    </linearGradient>
    <linearGradient
       id="linearGradient3833">
      <stop
         id="stop3835"
         offset="0"
         style="stop-color:#fdfeff;stop-opacity:1;" />
      <stop
         id="stop3837"
         offset="1"
         style="stop-color:#dfe4e4;stop-opacity:1;" />
    </linearGradient>
    <linearGradient
       id="linearGradient3823">
      <stop
         style="stop-color:#49b7ef;stop-opacity:1;"
         offset="0"
         id="stop3825" />
      <stop
         style="stop-color:#1d8de2;stop-opacity:1;"
         offset="1"
         id="stop3827" />
    </linearGradient>
    <linearGradient
       id="linearGradient3956">
      <stop
         style="stop-color:#f8f4e1;stop-opacity:1;"
         offset="0"
         id="stop3958" />
      <stop
         style="stop-color:#eae5c8;stop-opacity:1;"
         offset="1"
         id="stop3960" />
    </linearGradient>
    <linearGradient
       id="linearGradient3915">
      <stop
         style="stop-color:#f8f4e1;stop-opacity:1;"
         offset="0"
         id="stop3917" />
      <stop
         style="stop-color:#ad9e57;stop-opacity:1;"
         offset="1"
         id="stop3919" />
    </linearGradient>
    <linearGradient
       inkscape:collect="always"
       id="linearGradient3861">
      <stop
         style="stop-color:#000000;stop-opacity:1;"
         offset="0"
         id="stop3863" />
      <stop
         style="stop-color:#000000;stop-opacity:0;"
         offset="1"
         id="stop3865" />
    </linearGradient>
    <linearGradient
       id="linearGradient3844">
      <stop
         style="stop-color:#000000;stop-opacity:0.39215687;"
         offset="0"
         id="stop3846" />
      <stop
         style="stop-color:#000000;stop-opacity:0;"
         offset="1"
         id="stop3848" />
    </linearGradient>
    <linearGradient
       id="linearGradient3810">
      <stop
         style="stop-color:#f2c66f;stop-opacity:1;"
         offset="0"
         id="stop3812" />
      <stop
         style="stop-color:#fbd68f;stop-opacity:1;"
         offset="1"
         id="stop3814" />
    </linearGradient>
    <linearGradient
       inkscape:collect="always"
       xlink:href="#linearGradient3810"
       id="linearGradient3816"
       x1="24"
       y1="1046.3622"
       x2="24"
       y2="1014.3622"
       gradientUnits="userSpaceOnUse" />
    <radialGradient
       inkscape:collect="always"
       xlink:href="#linearGradient3844"
       id="radialGradient3850"
       cx="24.075672"
       cy="41.38316"
       fx="24.075672"
       fy="41.38316"
       r="21.075672"
       gradientTransform="matrix(1,0,0,0.11307633,0,36.703704)"
       gradientUnits="userSpaceOnUse" />
    <linearGradient
       inkscape:collect="always"
       xlink:href="#linearGradient3810"
       id="linearGradient3856"
       gradientUnits="userSpaceOnUse"
       x1="24"
       y1="1046.3622"
       x2="24"
       y2="1014.3622"
       gradientTransform="translate(0,-3)" />
    <linearGradient
       inkscape:collect="always"
       xlink:href="#linearGradient3810"
       id="linearGradient3858"
       gradientUnits="userSpaceOnUse"
       x1="24"
       y1="1046.3622"
       x2="24"
       y2="1014.3622"
       gradientTransform="translate(0,-1004.3622)" />
    <linearGradient
       inkscape:collect="always"
       xlink:href="#linearGradient3861"
       id="linearGradient3867"
       x1="1.9952807"
       y1="28.5625"
       x2="46.004719"
       y2="28.5625"
       gradientUnits="userSpaceOnUse" />
    <linearGradient
       inkscape:collect="always"
       xlink:href="#linearGradient3915"
       id="linearGradient3921"
       x1="35"
       y1="8"
       x2="38"
       y2="5"
       gradientUnits="userSpaceOnUse" />
    <linearGradient
       inkscape:collect="always"
       xlink:href="#linearGradient3915"
       id="linearGradient3933"
       gradientUnits="userSpaceOnUse"
       x1="35"
       y1="8"
       x2="38"
       y2="5"
       gradientTransform="matrix(1.0436562,0,0,1.2222222,26.301501,1003.2511)" />
    <linearGradient
       inkscape:collect="always"
       xlink:href="#linearGradient3915"
       id="linearGradient3954"
       x1="35"
       y1="11"
       x2="44"
       y2="5"
       gradientUnits="userSpaceOnUse"
       gradientTransform="translate(22,1004.3622)" />
    <linearGradient
       inkscape:collect="always"
       xlink:href="#linearGradient3823"
       id="linearGradient3829"
       x1="21"
       y1="14"
       x2="20"
       y2="24"
       gradientUnits="userSpaceOnUse" />
    <linearGradient
       inkscape:collect="always"
       xlink:href="#linearGradient3833"
       id="linearGradient3839"
       gradientUnits="userSpaceOnUse"
       x1="21"
       y1="14"
       x2="20"
       y2="26" />
    <linearGradient
       inkscape:collect="always"
       xlink:href="#linearGradient3855"
       id="linearGradient3862"
       x1="22"
       y1="15"
       x2="20"
       y2="30"
       gradientUnits="userSpaceOnUse" />
    <radialGradient
       r="24"
       fy="40.5"
       fx="24"
       cy="40.5"
       cx="24"
       gradientTransform="matrix(1.25,0,0,0.20833327,-6,1035.9247)"
       gradientUnits="userSpaceOnUse"
       id="radialGradient3102"
       xlink:href="#linearGradient3886"
       inkscape:collect="always" />
    <linearGradient
       id="linearGradient3886">
      <stop
         style="stop-color:#000000;stop-opacity:1;"
         offset="0"
         id="stop3888" />
      <stop
         style="stop-color:#000000;stop-opacity:0.19607843;"
         offset="1"
         id="stop3890" />
    </linearGradient>
    <radialGradient
       inkscape:collect="always"
       xlink:href="#linearGradient3886-9"
       id="radialGradient3011"
       gradientUnits="userSpaceOnUse"
       gradientTransform="matrix(0.83333334,0,0,0.13888885,-4,1041.4039)"
       cx="24"
       cy="40.5"
       fx="24"
       fy="40.5"
       r="24" />
    <linearGradient
       id="linearGradient3886-9">
      <stop
         style="stop-color:#000000;stop-opacity:1;"
         offset="0"
         id="stop3888-3" />
      <stop
         style="stop-color:#000000;stop-opacity:0.19607843;"
         offset="1"
         id="stop3890-7" />
    </linearGradient>
    <radialGradient
       r="24"
       fy="40.5"
       fx="24"
       cy="40.5"
       cx="24"
       gradientTransform="matrix(1.6666667,0,0,0.2777777,-8,1030.4456)"
       gradientUnits="userSpaceOnUse"
       id="radialGradient3098"
       xlink:href="#linearGradient3886-9"
       inkscape:collect="always" />
  </defs>
  <sodipodi:namedview
     id="base"
     pagecolor="#ffffff"
     bordercolor="#666666"
     borderopacity="1.0"
     inkscape:pageopacity="0.0"
     inkscape:pageshadow="2"
     inkscape:zoom="12.464725"
     inkscape:cx="27.527713"
     inkscape:cy="42.82148"
     inkscape:document-units="px"
     inkscape:current-layer="layer1"
     showgrid="true"
     inkscape:window-width="1280"
     inkscape:window-height="998"
     inkscape:window-x="0"
     inkscape:window-y="0"
     inkscape:window-maximized="1">
    <inkscape:grid
       type="xygrid"
       id="grid2990"
       empspacing="5"
       visible="true"
       enabled="true"
       snapvisiblegridlinesonly="true" />
  </sodipodi:namedview>
  <metadata
     id="metadata7">
    <rdf:RDF>
      <cc:Work
         rdf:about="">
        <dc:format>image/svg+xml</dc:format>
        <dc:type
           rdf:resource="http://purl.org/dc/dcmitype/StillImage" />
        <dc:title />
      </cc:Work>
    </rdf:RDF>
  </metadata>
  <g
     inkscape:label="Body"
     inkscape:groupmode="layer"
     id="layer1"
     transform="translate(0,-988.3622)">
    <path
       inkscape:connector-curvature="0"
       style="opacity:0.1;fill:url(#radialGradient3098);fill-opacity:1;stroke:none"
       d="m 32,1035.0288 c -13.102065,0 -24.7039604,1.0442 -32,2.6668 l 0,8 c 7.2960396,1.6224 18.897935,2.6666 32,2.6666 13.102066,0 24.70396,-1.0442 32,-2.6666 l 0,-8 c -7.29604,-1.6226 -18.897934,-2.6668 -32,-2.6668 z"
       id="path3868" />
    <rect
       style="fill:replacecolour2;fill-opacity:1;stroke:none"
       id="rect2987"
       width="60"
       height="41.999908"
       x="2"
       y="1002.3622"
       rx="6.521739"
       ry="6.5624819" />
    <path
       style="opacity:0.2;fill:#ffffff;fill-opacity:1;stroke:none"
       d="M 8.5217392,1001.6956 C 4.9086956,1001.6956 2,1004.6688 2,1008.3622 l 0,2.6666 c 0,-3.6932 2.9086956,-6.6666 6.5217392,-6.6666 l 46.9565208,0 c 3.613044,0 6.52174,2.9734 6.52174,6.6666 l 0,-2.6666 c 0,-3.6934 -2.908696,-6.6666 -6.52174,-6.6666 l -46.9565208,0 z"
       id="rect3797"
       inkscape:connector-curvature="0" />
    <path
       style="fill:replacecolour1;fill-opacity:1;stroke:none"
       d="m 8.5217392,1012.3622 10.4347828,0 c 14.347826,-1.3334 11.73913,-16 20.869564,-16 l 15.652174,0 c 3.613044,0 6.52174,2.9734 6.52174,6.6666 l 0,34.6668 c 0,3.6932 -2.908696,6.6666 -6.52174,6.6666 l -46.9565208,0 C 4.9086956,1044.3622 2,1041.3888 2,1037.6956 l 0,-18.6668 c 0,-4 2.6086956,-6.6666 6.5217392,-6.6666 z"
       id="rect3776"
       inkscape:connector-curvature="0"
       sodipodi:nodetypes="cccsssssscc" />
    <path
       inkscape:connector-curvature="0"
       style="line-height:normal;color:#000000;fill:#000000;fill-opacity:0.09803922"
       d="m 15.875323,1020.3622 c -3.83881,0 -7.875323,4.0368 -7.875323,9.0002 0,4.9632 4.036518,8.9998 7.875323,8.9998 6.088159,0 10.124677,-4.0366 10.124677,-8.9998 0,-4.9634 -4.036512,-9.0002 -9,-9.0002 z m 1.855926,1.266 c 0.838885,0.078 1.651677,0.269 2.390627,0.5904 -0.05688,0.07 -0.10084,0.134 -0.14062,0.2532 -0.227286,0.6818 -0.566497,0.3568 -0.168752,1.209 0.397746,0.8524 0.730108,1.0726 0.843748,0.675 0.11366,-0.3976 -0.285816,-0.9584 0.16876,-0.7312 0.45457,0.2274 0.790928,-0.062 0.45,0.4504 -0.340926,0.5112 -0.3335,0.7884 -0.73125,0.6748 -0.397748,-0.114 -0.38975,0.674 -0.7875,0.7876 -0.397746,0.112 -0.534374,-0.172 -0.534374,0.112 0,0.284 0.22557,0.024 0.168754,0.4784 -0.01732,0.14 -0.0122,0.164 -0.02812,0.2246 -0.373359,-0.106 -0.539875,-0.166 -0.815625,-0.058 -0.284106,0.114 -0.61875,0.8438 -0.61875,0.8438 0.354903,0.3548 0.519569,0.6104 0.646875,0.7312 -0.07943,0.042 -0.174998,0.056 -0.253125,0.112 -0.568212,0.398 -1.010789,0.4728 -1.18125,1.0406 -0.170466,0.5688 -0.112488,0.048 -0.112488,0.7312 0,0.6822 -0.17218,0.2186 0.168752,0.844 0.340926,0.6252 1.177251,0.9246 1.574997,1.2656 0.39775,0.3408 0.807632,-0.7418 1.603126,0.2812 0.795494,1.0228 0.846608,0.613 0.5625,1.1814 -0.284108,0.5684 -0.561358,0.7572 -0.674998,0.9844 -0.11364,0.227 0.221,1.0108 0.618748,1.181 0.0084,0 0.0192,0 0.02814,0 -0.02118,0.048 -0.03524,0.094 -0.05626,0.14 -0.515064,0.234 -1.146456,0.5566 -1.265626,0.5904 -0.28125,0.082 -1.273661,0.249 -1.996874,0.45 -0.09041,0.026 -0.161568,0.026 -0.196874,0.03 0.08991,-0.098 0.800789,-0.4696 1.153124,-0.6746 0.482145,-0.282 -0.02812,-0.2534 -0.02812,-0.2534 0,0 -0.76741,-0.086 -2.334373,-0.086 -0.783484,0 -1.122991,0.034 -1.29375,0.086 -0.08537,0.026 -0.127324,0.05 -0.168752,0.086 -0.04144,0.036 -0.07032,0.072 -0.140624,0.112 -0.281253,0.162 0.164728,0.3294 -0.196874,0.45 -0.271204,0.09 -0.302721,0 -0.534374,-0.17 0.165248,-0.164 0.393281,-0.3624 0.674999,-0.7034 0.51139,-0.6184 0.673287,-0.5058 0.843748,-1.0682 0.170468,-0.563 -1.434372,-0.3938 -1.434372,-0.7314 0,-0.3376 -0.276112,-0.5624 -0.7875,-0.7874 -0.51139,-0.2252 -0.163046,-0.3378 -0.731251,-0.5064 -0.568209,-0.17 -1.20766,0.8434 -1.378124,0.5064 -0.170466,-0.3378 0.534375,-0.3378 0.534375,-0.7312 0,-0.3844 -0.810409,0.29 -0.956253,-0.196 -0.0038,-0.02 -0.02528,-0.02 -0.02813,-0.03 -0.01426,-0.07 -0.005,-0.112 0,-0.17 0.03575,-0.4046 0.504252,-0.5626 0.703127,-0.9564 0.227286,-0.4494 0.109646,0.3378 0.39375,0.7314 0.284107,0.3938 0.170468,-0.506 0,-1.0126 -0.170464,-0.5064 0.1085,-0.506 0.506251,-1.181 0.397747,-0.6752 0.39375,-1.0688 0.39375,-1.5752 0,-0.5062 0.27554,-0.5622 0.843749,-1.0688 0.260431,-0.2318 0.464753,-0.434 0.61875,-0.6184 0.03722,-0.02 0.07484,-0.02 0.1125,-0.03 0.602681,-0.241 0.855803,-0.6024 1.378125,-1.6876 0.522324,-1.0844 -0.20491,-0.072 -0.365625,-0.11 -0.160716,-0.04 -0.39375,-0.3254 -0.95625,-0.647 -0.11601,-0.066 -0.21954,-0.098 -0.309375,-0.112 l 1.040626,-1.7156 c 0.333332,-0.09 0.691215,-0.152 1.040624,-0.198 0.127838,0.7276 0.05626,1.4066 0.05626,1.4066 0,0 -0.196876,0.233 -0.196876,0.3938 0,0.162 1.076785,-1.326 1.237499,-1.4062 0.160718,-0.082 0.566517,0.4258 0.646874,-0.3376 0.0045,-0.044 -0.005,-0.044 0,-0.086 z m 1.51875,3.0374 c -0.0577,-0.02 -0.125858,-2e-4 -0.196872,0.03 0,0.198 -0.07699,0.3434 -0.112486,0.4218 -0.02112,-0.034 -0.08438,-0.086 -0.08438,-0.086 -0.08522,0.158 -0.269046,0.296 -0.08438,0.2532 0.184668,-0.04 0.324722,0.072 0.196876,-0.086 -0.02458,-0.03 -0.013,-0.02 -0.02813,-0.03 0.02395,0.02 0.06931,0.03 0.168752,0.03 0.111884,0 0.17202,0 0.253124,0 -0.137174,0.102 -0.2868,0.144 -0.08438,0.196 0.269899,0.07 0.39375,0.086 0.39375,0.03 0,-0.056 -0.08437,-0.2534 -0.08437,-0.2534 0.05273,-0.022 0.101712,-0.048 0.05626,-0.14 -0.08523,-0.168 -0.220625,-0.339 -0.393753,-0.3656 z m 4.303125,0.4778 c 0.14052,0.2184 0.275154,0.4428 0.393752,0.6752 -0.07824,0.4536 -0.276914,0.7594 0.05626,0.7594 0.09314,0 0.17624,-0.022 0.253126,-0.03 0.0104,0.028 0.018,0.058 0.02814,0.086 -0.568212,0 -0.840894,0.172 -1.124998,0.112 -0.284108,-0.058 -1.073892,-0.108 -0.562502,-0.6184 0.298884,-0.299 0.672248,-0.774 0.95625,-0.9848 z m -3.543748,1.041 c 0.05236,0.02 0.09802,0.07 0.14062,0.168 0.17046,0.3978 0.452284,0.7308 0.225002,0.7874 -0.227286,0.056 -0.337504,0.112 -0.337504,0.112 0,0 0.78693,0.5118 0.843752,-0.056 0.05682,-0.5684 -0.225002,-0.9002 -0.225002,-0.9002 0,0 0.39261,0.3916 0.506252,0.619 0.11366,0.2272 0.10964,0 0.39375,0.2812 0.284104,0.284 0.221002,-1.129 0.618752,-0.7314 0.397748,0.3978 0.648018,0.391 0.534372,0.675 -0.11366,0.2842 0.731254,-0.343 0.731254,0.225 0,0.5478 0.34935,0.77 -0.3375,1.0408 -0.26005,-0.02 -0.46588,-0.062 -0.506254,-0.14 -0.11366,-0.2272 -0.759374,-0.056 -0.759374,-0.056 -1.69978,-0.4248 -2.437716,-0.5594 -2.925,-0.478 0.0093,-0.02 0.01816,-0.02 0.02813,-0.028 0.248593,-0.4478 0.716317,-1.0694 0.5625,-1.2938 0.216641,-0.124 0.386464,-0.2616 0.50625,-0.225 z m 4.781248,2.8402 c 0.005,0.114 0,0.2224 0,0.3378 0,0.3198 -0.0192,0.6464 -0.05626,0.956 -0.511212,-0.4548 -1.2375,-0.45 -1.2375,-0.45 0,0 0.443718,-0.5038 1.06875,-0.7312 0.07816,-0.028 0.16186,-0.066 0.225,-0.112 z"
       id="path3041" />
    <path
       id="path4139"
       d="m 15.875323,1018.3622 c -3.83881,0 -7.875323,4.0368 -7.875323,9.0002 0,4.9632 4.036518,8.9998 7.875323,8.9998 6.088159,0 10.124677,-4.0366 10.124677,-8.9998 0,-4.9634 -4.036512,-9.0002 -9,-9.0002 z m 1.855926,1.266 c 0.838885,0.078 1.651677,0.269 2.390627,0.5904 -0.05688,0.07 -0.10084,0.134 -0.14062,0.2532 -0.227286,0.6818 -0.566497,0.3568 -0.168752,1.209 0.397746,0.8524 0.730108,1.0726 0.843748,0.675 0.11366,-0.3976 -0.285816,-0.9584 0.16876,-0.7312 0.45457,0.2274 0.790928,-0.062 0.45,0.4504 -0.340926,0.5112 -0.3335,0.7884 -0.73125,0.6748 -0.397748,-0.114 -0.38975,0.674 -0.7875,0.7876 -0.397746,0.112 -0.534374,-0.172 -0.534374,0.112 0,0.284 0.22557,0.024 0.168754,0.4784 -0.01732,0.14 -0.0122,0.164 -0.02812,0.2246 -0.373359,-0.106 -0.539875,-0.166 -0.815625,-0.058 -0.284106,0.114 -0.61875,0.8438 -0.61875,0.8438 0.354903,0.3548 0.519569,0.6104 0.646875,0.7312 -0.07943,0.042 -0.174998,0.056 -0.253125,0.112 -0.568212,0.398 -1.010789,0.4728 -1.18125,1.0406 -0.170466,0.5688 -0.112488,0.048 -0.112488,0.7312 0,0.6822 -0.17218,0.2186 0.168752,0.844 0.340926,0.6252 1.177251,0.9246 1.574997,1.2656 0.39775,0.3408 0.807632,-0.7418 1.603126,0.2812 0.795494,1.0228 0.846608,0.613 0.5625,1.1814 -0.284108,0.5684 -0.561358,0.7572 -0.674998,0.9844 -0.11364,0.227 0.221,1.0108 0.618748,1.181 0.0084,0 0.0192,0 0.02814,0 -0.02118,0.048 -0.03524,0.094 -0.05626,0.14 -0.515064,0.234 -1.146456,0.5566 -1.265626,0.5904 -0.28125,0.082 -1.273661,0.249 -1.996874,0.45 -0.09041,0.026 -0.161568,0.026 -0.196874,0.03 0.08991,-0.098 0.800789,-0.4696 1.153124,-0.6746 0.482145,-0.282 -0.02812,-0.2534 -0.02812,-0.2534 0,0 -0.76741,-0.086 -2.334373,-0.086 -0.783484,0 -1.122991,0.034 -1.29375,0.086 -0.08537,0.026 -0.127324,0.05 -0.168752,0.086 -0.04144,0.036 -0.07032,0.072 -0.140624,0.112 -0.281253,0.162 0.164728,0.3294 -0.196874,0.45 -0.271204,0.09 -0.302721,0 -0.534374,-0.17 0.165248,-0.164 0.393281,-0.3624 0.674999,-0.7034 0.51139,-0.6184 0.673287,-0.5058 0.843748,-1.0682 0.170468,-0.563 -1.434372,-0.3938 -1.434372,-0.7314 0,-0.3376 -0.276112,-0.5624 -0.7875,-0.7874 -0.51139,-0.2252 -0.163046,-0.3378 -0.731251,-0.5064 -0.568209,-0.17 -1.20766,0.8434 -1.378124,0.5064 -0.170466,-0.3378 0.534375,-0.3378 0.534375,-0.7312 0,-0.3844 -0.810409,0.29 -0.956253,-0.196 -0.0038,-0.02 -0.02528,-0.02 -0.02813,-0.03 -0.01426,-0.07 -0.005,-0.112 0,-0.17 0.03575,-0.4046 0.504252,-0.5626 0.703127,-0.9564 0.227286,-0.4494 0.109646,0.3378 0.39375,0.7314 0.284107,0.3938 0.170468,-0.506 0,-1.0126 -0.170464,-0.5064 0.1085,-0.506 0.506251,-1.181 0.397747,-0.6752 0.39375,-1.0688 0.39375,-1.5752 0,-0.5062 0.27554,-0.5622 0.843749,-1.0688 0.260431,-0.2318 0.464753,-0.434 0.61875,-0.6184 0.03722,-0.02 0.07484,-0.02 0.1125,-0.03 0.602681,-0.241 0.855803,-0.6024 1.378125,-1.6876 0.522324,-1.0844 -0.20491,-0.072 -0.365625,-0.11 -0.160716,-0.04 -0.39375,-0.3254 -0.95625,-0.647 -0.11601,-0.066 -0.21954,-0.098 -0.309375,-0.112 l 1.040626,-1.7156 c 0.333332,-0.09 0.691215,-0.152 1.040624,-0.198 0.127838,0.7276 0.05626,1.4066 0.05626,1.4066 0,0 -0.196876,0.233 -0.196876,0.3938 0,0.162 1.076785,-1.326 1.237499,-1.4062 0.160718,-0.082 0.566517,0.4258 0.646874,-0.3376 0.0045,-0.044 -0.005,-0.044 0,-0.086 z m 1.51875,3.0374 c -0.0577,-0.02 -0.125858,-2e-4 -0.196872,0.03 0,0.198 -0.07699,0.3434 -0.112486,0.4218 -0.02112,-0.034 -0.08438,-0.086 -0.08438,-0.086 -0.08522,0.158 -0.269046,0.296 -0.08438,0.2532 0.184668,-0.04 0.324722,0.072 0.196876,-0.086 -0.02458,-0.03 -0.013,-0.02 -0.02813,-0.03 0.02395,0.02 0.06931,0.03 0.168752,0.03 0.111884,0 0.17202,0 0.253124,0 -0.137174,0.102 -0.2868,0.144 -0.08438,0.196 0.269899,0.07 0.39375,0.086 0.39375,0.03 0,-0.056 -0.08437,-0.2534 -0.08437,-0.2534 0.05273,-0.022 0.101712,-0.048 0.05626,-0.14 -0.08523,-0.168 -0.220625,-0.339 -0.393753,-0.3656 z m 4.303125,0.4778 c 0.14052,0.2184 0.275154,0.4428 0.393752,0.6752 -0.07824,0.4536 -0.276914,0.7594 0.05626,0.7594 0.09314,0 0.17624,-0.022 0.253126,-0.03 0.0104,0.028 0.018,0.058 0.02814,0.086 -0.568212,0 -0.840894,0.172 -1.124998,0.112 -0.284108,-0.058 -1.073892,-0.108 -0.562502,-0.6184 0.298884,-0.299 0.672248,-0.774 0.95625,-0.9848 z m -3.543748,1.041 c 0.05236,0.02 0.09802,0.07 0.14062,0.168 0.17046,0.3978 0.452284,0.7308 0.225002,0.7874 -0.227286,0.056 -0.337504,0.112 -0.337504,0.112 0,0 0.78693,0.5118 0.843752,-0.056 0.05682,-0.5684 -0.225002,-0.9002 -0.225002,-0.9002 0,0 0.39261,0.3916 0.506252,0.619 0.11366,0.2272 0.10964,0 0.39375,0.2812 0.284104,0.284 0.221002,-1.129 0.618752,-0.7314 0.397748,0.3978 0.648018,0.391 0.534372,0.675 -0.11366,0.2842 0.731254,-0.343 0.731254,0.225 0,0.5478 0.34935,0.77 -0.3375,1.0408 -0.26005,-0.02 -0.46588,-0.062 -0.506254,-0.14 -0.11366,-0.2272 -0.759374,-0.056 -0.759374,-0.056 -1.69978,-0.4248 -2.437716,-0.5594 -2.925,-0.478 0.0093,-0.02 0.01816,-0.02 0.02813,-0.028 0.248593,-0.4478 0.716317,-1.0694 0.5625,-1.2938 0.216641,-0.124 0.386464,-0.2616 0.50625,-0.225 z m 4.781248,2.8402 c 0.005,0.114 0,0.2224 0,0.3378 0,0.3198 -0.0192,0.6464 -0.05626,0.956 -0.511212,-0.4548 -1.2375,-0.45 -1.2375,-0.45 0,0 0.443718,-0.5038 1.06875,-0.7312 0.07816,-0.028 0.16186,-0.066 0.225,-0.112 z"
       style="line-height:normal;color:#000000;fill:replacecolour3;fill-opacity:1"
       inkscape:connector-curvature="0" />
    <path
       style="opacity:0.15;fill:#000000;fill-opacity:1;stroke:none"
       d="m 2,1035.0288 0,2.6668 c 0,3.6932 2.9086956,6.6666 6.5217392,6.6666 l 46.9565208,0 c 3.613044,0 6.52174,-2.9734 6.52174,-6.6666 l 0,-2.6668 c 0,3.6934 -2.908696,7.3334 -6.52174,7.3334 l -46.9565208,0 C 4.9086956,1042.3622 2,1038.7222 2,1035.0288 z"
       id="path3786"
       inkscape:connector-curvature="0"
       sodipodi:nodetypes="csssscssc" />
  </g>
</svg>
