<?xml version="1.0" encoding="UTF-8" standalone="no"?>
<!-- Created with Inkscape (http://www.inkscape.org/) -->

<svg
   xmlns:dc="http://purl.org/dc/elements/1.1/"
   xmlns:cc="http://creativecommons.org/ns#"
   xmlns:rdf="http://www.w3.org/1999/02/22-rdf-syntax-ns#"
   xmlns:svg="http://www.w3.org/2000/svg"
   xmlns="http://www.w3.org/2000/svg"
   xmlns:xlink="http://www.w3.org/1999/xlink"
   xmlns:sodipodi="http://sodipodi.sourceforge.net/DTD/sodipodi-0.dtd"
   xmlns:inkscape="http://www.inkscape.org/namespaces/inkscape"
   width="64"
   height="64"
   id="svg2"
   version="1.1"
   inkscape:version="0.91 r"
   sodipodi:docname="pink-folder-wine.svg">
  <defs
     id="defs4">
    <linearGradient
       id="linearGradient3886-9">
      <stop
         style="stop-color:#000000;stop-opacity:1;"
         offset="0"
         id="stop3888-3" />
      <stop
         style="stop-color:#000000;stop-opacity:0.19607843;"
         offset="1"
         id="stop3890-7" />
    </linearGradient>
    <radialGradient
       r="24"
       fy="40.5"
       fx="24"
       cy="40.5"
       cx="24"
       gradientTransform="matrix(1.6666667,0,0,0.2777777,-8,1030.4456)"
       gradientUnits="userSpaceOnUse"
       id="radialGradient3098"
       xlink:href="#linearGradient3886-9"
       inkscape:collect="always" />
  </defs>
  <sodipodi:namedview
     id="base"
     pagecolor="#ffffff"
     bordercolor="#666666"
     borderopacity="1.0"
     inkscape:pageopacity="0.0"
     inkscape:pageshadow="2"
     inkscape:zoom="17.627783"
     inkscape:cx="33.169646"
     inkscape:cy="19.015314"
     inkscape:document-units="px"
     inkscape:current-layer="layer1"
     showgrid="true"
     inkscape:window-width="1280"
     inkscape:window-height="998"
     inkscape:window-x="0"
     inkscape:window-y="0"
     inkscape:window-maximized="1">
    <inkscape:grid
       type="xygrid"
       id="grid2990"
       empspacing="5"
       visible="true"
       enabled="true"
       snapvisiblegridlinesonly="true" />
  </sodipodi:namedview>
  <metadata
     id="metadata7">
    <rdf:RDF>
      <cc:Work
         rdf:about="">
        <dc:format>image/svg+xml</dc:format>
        <dc:type
           rdf:resource="http://purl.org/dc/dcmitype/StillImage" />
        <dc:title />
      </cc:Work>
    </rdf:RDF>
  </metadata>
  <g
     inkscape:label="Body"
     inkscape:groupmode="layer"
     id="layer1"
     transform="translate(0,-988.3622)">
    <path
       inkscape:connector-curvature="0"
       style="opacity:0.1;fill:url(#radialGradient3098);fill-opacity:1;stroke:none"
       d="m 32,1035.0288 c -13.102065,0 -24.7039604,1.0442 -32,2.6668 l 0,8 c 7.2960396,1.6224 18.897935,2.6666 32,2.6666 13.102066,0 24.70396,-1.0442 32,-2.6666 l 0,-8 c -7.29604,-1.6226 -18.897934,-2.6668 -32,-2.6668 z"
       id="path3868" />
    <rect
       style="fill:#ec407a;fill-opacity:1;stroke:none"
       id="rect2987"
       width="60"
       height="41.999908"
       x="2"
       y="1002.3622"
       rx="6.521739"
       ry="6.5624819" />
    <path
       style="opacity:0.2;fill:#ffffff;fill-opacity:1;stroke:none"
       d="M 8.5217392,1001.6956 C 4.9086956,1001.6956 2,1004.6688 2,1008.3622 l 0,2.6666 c 0,-3.6932 2.9086956,-6.6666 6.5217392,-6.6666 l 46.9565208,0 c 3.613044,0 6.52174,2.9734 6.52174,6.6666 l 0,-2.6666 c 0,-3.6934 -2.908696,-6.6666 -6.52174,-6.6666 l -46.9565208,0 z"
       id="rect3797"
       inkscape:connector-curvature="0" />
    <path
       style="fill:#f06292;fill-opacity:1;stroke:none"
       d="m 8.5217392,1012.3622 10.4347828,0 c 14.347826,-1.3334 11.73913,-16 20.869564,-16 l 15.652174,0 c 3.613044,0 6.52174,2.9734 6.52174,6.6666 l 0,34.6668 c 0,3.6932 -2.908696,6.6666 -6.52174,6.6666 l -46.9565208,0 C 4.9086956,1044.3622 2,1041.3888 2,1037.6956 l 0,-18.6668 c 0,-4 2.6086956,-6.6666 6.5217392,-6.6666 z"
       id="rect3776"
       inkscape:connector-curvature="0"
       sodipodi:nodetypes="cccsssssscc" />
    <path
       inkscape:connector-curvature="0"
       d="m 23.157432,1022.3232 c -0.650444,0.02 -1.29033,0.4366 -1.392736,1.2306 -0.16386,1.2706 1.065034,0.794 2.048142,0.794 0.983108,0 1.31081,2.0644 1.065034,3.176 -0.245776,1.1118 -2.858858,3.7374 -8.76605,1.1118 -4.863484,-2.1618 -7.2917328,0.7166 -7.414274,0.774 0.4602722,4.2948 4.212957,8.9526 8.766048,8.9526 4.863978,0 8.807012,-5.1316 8.807012,-9.8458 0,-0.5414 -0.06438,-1.0746 -0.16386,-1.588 -0.09044,-0.2594 -0.17938,-0.5184 -0.245778,-0.7544 -0.11902,-0.423 -0.253432,-0.7796 -0.368666,-1.1116 -0.005,-0.02 0.005,-0.028 0,-0.04 -0.465596,-1.0022 -1.118384,-1.908 -1.925252,-2.66 -0.0036,-0.02 -0.0168,0.02 -0.02048,0 -0.12608,-0.03 -0.259058,-0.042 -0.389146,-0.04 z"
       id="path3045"
       style="line-height:normal;color:#000000;fill:#000000;fill-opacity:0.09803922" />
    <path
       style="opacity:0.15;fill:#000000;fill-opacity:1;stroke:none"
       d="m 2,1035.0288 0,2.6668 c 0,3.6932 2.9086956,6.6666 6.5217392,6.6666 l 46.9565208,0 c 3.613044,0 6.52174,-2.9734 6.52174,-6.6666 l 0,-2.6668 c 0,3.6934 -2.908696,7.3334 -6.52174,7.3334 l -46.9565208,0 C 4.9086956,1042.3622 2,1038.7222 2,1035.0288 z"
       id="path3786"
       inkscape:connector-curvature="0"
       sodipodi:nodetypes="csssscssc" />
    <path
       inkscape:connector-curvature="0"
       d="m 22.906498,1026.8176 c 0,0.4904 -0.397598,0.888 -0.88806,0.888 -0.490462,0 -0.88806,-0.3976 -0.88806,-0.888 0,-0.4906 0.397598,-0.8882 0.88806,-0.8882 0.490462,0 0.88806,0.3976 0.88806,0.8882 z"
       id="path3047"
       style="line-height:normal;color:#000000;fill:#000000;fill-opacity:0.09803922" />
    <path
       style="line-height:normal;color:#000000;fill:#fff8e1;fill-opacity:1"
       id="path3974"
       d="m 23.157432,1020.3232 c -0.650444,0.02 -1.29033,0.4366 -1.392736,1.2306 -0.16386,1.2706 1.065034,0.794 2.048142,0.794 0.983108,0 1.31081,2.0644 1.065034,3.176 -0.245776,1.1118 -2.858858,3.7374 -8.76605,1.1118 -4.863484,-2.1618 -7.2917328,0.7166 -7.414274,0.774 0.4602722,4.2948 4.212957,8.9526 8.766048,8.9526 4.863978,0 8.807012,-5.1316 8.807012,-9.8458 0,-0.5414 -0.06438,-1.0746 -0.16386,-1.588 -0.09044,-0.2594 -0.17938,-0.5184 -0.245778,-0.7544 -0.11902,-0.423 -0.253432,-0.7796 -0.368666,-1.1116 -0.005,-0.02 0.005,-0.028 0,-0.04 -0.465596,-1.0022 -1.118384,-1.908 -1.925252,-2.66 -0.0036,-0.02 -0.0168,0.02 -0.02048,0 -0.12608,-0.03 -0.259058,-0.042 -0.389146,-0.04 z"
       inkscape:connector-curvature="0" />
    <path
       inkscape:connector-curvature="0"
       d="m 20.24232,1023.7092 c 0,0.2454 -0.1988,0.444 -0.444031,0.444 -0.24523,0 -0.44403,-0.198 -0.44403,-0.444 0,-0.2452 0.1988,-0.444 0.44403,-0.444 0.245231,0 0.444031,0.198 0.444031,0.444 z"
       id="path3049"
       style="line-height:normal;color:#000000;fill:#000000;fill-opacity:0.09803922" />
    <path
       style="line-height:normal;color:#000000;fill:#fff8e1;fill-opacity:1"
       id="path3976"
       d="m 22.906498,1024.8176 c 0,0.4904 -0.397598,0.888 -0.88806,0.888 -0.490462,0 -0.88806,-0.3976 -0.88806,-0.888 0,-0.4906 0.397598,-0.8882 0.88806,-0.8882 0.490462,0 0.88806,0.3976 0.88806,0.8882 z"
       inkscape:connector-curvature="0" />
    <path
       style="line-height:normal;color:#000000;fill:#fff8e1;fill-opacity:1"
       id="path3978"
       d="m 20.24232,1021.7092 c 0,0.2454 -0.1988,0.444 -0.444031,0.444 -0.24523,0 -0.44403,-0.198 -0.44403,-0.444 0,-0.2452 0.1988,-0.444 0.44403,-0.444 0.245231,0 0.444031,0.198 0.444031,0.444 z"
       inkscape:connector-curvature="0" />
  </g>
</svg>
