<?xml version="1.0" encoding="UTF-8" standalone="no"?>
<!-- Created with Inkscape (http://www.inkscape.org/) -->

<svg
   xmlns:dc="http://purl.org/dc/elements/1.1/"
   xmlns:cc="http://creativecommons.org/ns#"
   xmlns:rdf="http://www.w3.org/1999/02/22-rdf-syntax-ns#"
   xmlns:svg="http://www.w3.org/2000/svg"
   xmlns="http://www.w3.org/2000/svg"
   xmlns:xlink="http://www.w3.org/1999/xlink"
   xmlns:sodipodi="http://sodipodi.sourceforge.net/DTD/sodipodi-0.dtd"
   xmlns:inkscape="http://www.inkscape.org/namespaces/inkscape"
   width="64"
   height="64"
   id="svg2"
   version="1.1"
   inkscape:version="0.48.5 r10040"
   sodipodi:docname="folder-system.svg">
  <defs
     id="defs4">
    <linearGradient
       id="linearGradient3855">
      <stop
         style="stop-color:#000000;stop-opacity:1;"
         offset="0"
         id="stop3857" />
      <stop
         style="stop-color:#000000;stop-opacity:0.29411766;"
         offset="1"
         id="stop3859" />
    </linearGradient>
    <linearGradient
       id="linearGradient3833">
      <stop
         id="stop3835"
         offset="0"
         style="stop-color:#fdfeff;stop-opacity:1;" />
      <stop
         id="stop3837"
         offset="1"
         style="stop-color:#dfe4e4;stop-opacity:1;" />
    </linearGradient>
    <linearGradient
       id="linearGradient3823">
      <stop
         style="stop-color:#49b7ef;stop-opacity:1;"
         offset="0"
         id="stop3825" />
      <stop
         style="stop-color:#1d8de2;stop-opacity:1;"
         offset="1"
         id="stop3827" />
    </linearGradient>
    <linearGradient
       id="linearGradient3956">
      <stop
         style="stop-color:#f8f4e1;stop-opacity:1;"
         offset="0"
         id="stop3958" />
      <stop
         style="stop-color:#eae5c8;stop-opacity:1;"
         offset="1"
         id="stop3960" />
    </linearGradient>
    <linearGradient
       id="linearGradient3915">
      <stop
         style="stop-color:#f8f4e1;stop-opacity:1;"
         offset="0"
         id="stop3917" />
      <stop
         style="stop-color:#ad9e57;stop-opacity:1;"
         offset="1"
         id="stop3919" />
    </linearGradient>
    <linearGradient
       inkscape:collect="always"
       id="linearGradient3861">
      <stop
         style="stop-color:#000000;stop-opacity:1;"
         offset="0"
         id="stop3863" />
      <stop
         style="stop-color:#000000;stop-opacity:0;"
         offset="1"
         id="stop3865" />
    </linearGradient>
    <linearGradient
       id="linearGradient3844">
      <stop
         style="stop-color:#000000;stop-opacity:0.39215687;"
         offset="0"
         id="stop3846" />
      <stop
         style="stop-color:#000000;stop-opacity:0;"
         offset="1"
         id="stop3848" />
    </linearGradient>
    <linearGradient
       id="linearGradient3810">
      <stop
         style="stop-color:#f2c66f;stop-opacity:1;"
         offset="0"
         id="stop3812" />
      <stop
         style="stop-color:#fbd68f;stop-opacity:1;"
         offset="1"
         id="stop3814" />
    </linearGradient>
    <linearGradient
       inkscape:collect="always"
       xlink:href="#linearGradient3810"
       id="linearGradient3816"
       x1="24"
       y1="1046.3622"
       x2="24"
       y2="1014.3622"
       gradientUnits="userSpaceOnUse" />
    <radialGradient
       inkscape:collect="always"
       xlink:href="#linearGradient3844"
       id="radialGradient3850"
       cx="24.075672"
       cy="41.38316"
       fx="24.075672"
       fy="41.38316"
       r="21.075672"
       gradientTransform="matrix(1,0,0,0.11307633,0,36.703704)"
       gradientUnits="userSpaceOnUse" />
    <linearGradient
       inkscape:collect="always"
       xlink:href="#linearGradient3810"
       id="linearGradient3856"
       gradientUnits="userSpaceOnUse"
       x1="24"
       y1="1046.3622"
       x2="24"
       y2="1014.3622"
       gradientTransform="translate(0,-3)" />
    <linearGradient
       inkscape:collect="always"
       xlink:href="#linearGradient3810"
       id="linearGradient3858"
       gradientUnits="userSpaceOnUse"
       x1="24"
       y1="1046.3622"
       x2="24"
       y2="1014.3622"
       gradientTransform="translate(0,-1004.3622)" />
    <linearGradient
       inkscape:collect="always"
       xlink:href="#linearGradient3861"
       id="linearGradient3867"
       x1="1.9952807"
       y1="28.5625"
       x2="46.004719"
       y2="28.5625"
       gradientUnits="userSpaceOnUse" />
    <linearGradient
       inkscape:collect="always"
       xlink:href="#linearGradient3915"
       id="linearGradient3921"
       x1="35"
       y1="8"
       x2="38"
       y2="5"
       gradientUnits="userSpaceOnUse" />
    <linearGradient
       inkscape:collect="always"
       xlink:href="#linearGradient3915"
       id="linearGradient3933"
       gradientUnits="userSpaceOnUse"
       x1="35"
       y1="8"
       x2="38"
       y2="5"
       gradientTransform="matrix(1.0436562,0,0,1.2222222,26.301501,1003.2511)" />
    <linearGradient
       inkscape:collect="always"
       xlink:href="#linearGradient3915"
       id="linearGradient3954"
       x1="35"
       y1="11"
       x2="44"
       y2="5"
       gradientUnits="userSpaceOnUse"
       gradientTransform="translate(22,1004.3622)" />
    <linearGradient
       inkscape:collect="always"
       xlink:href="#linearGradient3823"
       id="linearGradient3829"
       x1="21"
       y1="14"
       x2="20"
       y2="24"
       gradientUnits="userSpaceOnUse" />
    <linearGradient
       inkscape:collect="always"
       xlink:href="#linearGradient3833"
       id="linearGradient3839"
       gradientUnits="userSpaceOnUse"
       x1="21"
       y1="14"
       x2="20"
       y2="26" />
    <linearGradient
       inkscape:collect="always"
       xlink:href="#linearGradient3855"
       id="linearGradient3862"
       x1="22"
       y1="15"
       x2="20"
       y2="30"
       gradientUnits="userSpaceOnUse" />
    <radialGradient
       r="24"
       fy="40.5"
       fx="24"
       cy="40.5"
       cx="24"
       gradientTransform="matrix(1.25,0,0,0.20833327,-6,1035.9247)"
       gradientUnits="userSpaceOnUse"
       id="radialGradient3102"
       xlink:href="#linearGradient3886"
       inkscape:collect="always" />
    <linearGradient
       id="linearGradient3886">
      <stop
         style="stop-color:#000000;stop-opacity:1;"
         offset="0"
         id="stop3888" />
      <stop
         style="stop-color:#000000;stop-opacity:0.19607843;"
         offset="1"
         id="stop3890" />
    </linearGradient>
    <radialGradient
       inkscape:collect="always"
       xlink:href="#linearGradient3886-9"
       id="radialGradient3011"
       gradientUnits="userSpaceOnUse"
       gradientTransform="matrix(0.83333334,0,0,0.13888885,-4,1041.4039)"
       cx="24"
       cy="40.5"
       fx="24"
       fy="40.5"
       r="24" />
    <linearGradient
       id="linearGradient3886-9">
      <stop
         style="stop-color:#000000;stop-opacity:1;"
         offset="0"
         id="stop3888-3" />
      <stop
         style="stop-color:#000000;stop-opacity:0.19607843;"
         offset="1"
         id="stop3890-7" />
    </linearGradient>
    <radialGradient
       r="24"
       fy="40.5"
       fx="24"
       cy="40.5"
       cx="24"
       gradientTransform="matrix(1.6666667,0,0,0.2777777,-8,1030.4456)"
       gradientUnits="userSpaceOnUse"
       id="radialGradient3098"
       xlink:href="#linearGradient3886-9"
       inkscape:collect="always" />
  </defs>
  <sodipodi:namedview
     id="base"
     pagecolor="#ffffff"
     bordercolor="#666666"
     borderopacity="1.0"
     inkscape:pageopacity="0.0"
     inkscape:pageshadow="2"
     inkscape:zoom="6.2323625"
     inkscape:cx="36.081548"
     inkscape:cy="23.991985"
     inkscape:document-units="px"
     inkscape:current-layer="layer1"
     showgrid="true"
     inkscape:window-width="1280"
     inkscape:window-height="998"
     inkscape:window-x="0"
     inkscape:window-y="0"
     inkscape:window-maximized="1">
    <inkscape:grid
       type="xygrid"
       id="grid2990"
       empspacing="5"
       visible="true"
       enabled="true"
       snapvisiblegridlinesonly="true" />
  </sodipodi:namedview>
  <metadata
     id="metadata7">
    <rdf:RDF>
      <cc:Work
         rdf:about="">
        <dc:format>image/svg+xml</dc:format>
        <dc:type
           rdf:resource="http://purl.org/dc/dcmitype/StillImage" />
        <dc:title />
      </cc:Work>
    </rdf:RDF>
  </metadata>
  <g
     inkscape:label="Body"
     inkscape:groupmode="layer"
     id="layer1"
     transform="translate(0,-988.3622)">
    <path
       inkscape:connector-curvature="0"
       style="opacity:0.1;fill:url(#radialGradient3098);fill-opacity:1;stroke:none"
       d="m 32,1035.0288 c -13.102065,0 -24.7039604,1.0442 -32,2.6668 l 0,8 c 7.2960396,1.6224 18.897935,2.6666 32,2.6666 13.102066,0 24.70396,-1.0442 32,-2.6666 l 0,-8 c -7.29604,-1.6226 -18.897934,-2.6668 -32,-2.6668 z"
       id="path3868" />
    <rect
       style="fill:#512da8;fill-opacity:1;stroke:none"
       id="rect2987"
       width="60"
       height="41.999908"
       x="2"
       y="1002.3622"
       rx="6.521739"
       ry="6.5624819" />
    <path
       style="opacity:0.2;fill:#ffffff;fill-opacity:1;stroke:none"
       d="M 8.5217392,1001.6956 C 4.9086956,1001.6956 2,1004.6688 2,1008.3622 l 0,2.6666 c 0,-3.6932 2.9086956,-6.6666 6.5217392,-6.6666 l 46.9565208,0 c 3.613044,0 6.52174,2.9734 6.52174,6.6666 l 0,-2.6666 c 0,-3.6934 -2.908696,-6.6666 -6.52174,-6.6666 l -46.9565208,0 z"
       id="rect3797"
       inkscape:connector-curvature="0" />
    <path
       style="fill:#7e57c2;fill-opacity:1;stroke:none"
       d="m 8.5217392,1012.3622 10.4347828,0 c 14.347826,-1.3334 11.73913,-16 20.869564,-16 l 15.652174,0 c 3.613044,0 6.52174,2.9734 6.52174,6.6666 l 0,34.6668 c 0,3.6932 -2.908696,6.6666 -6.52174,6.6666 l -46.9565208,0 C 4.9086956,1044.3622 2,1041.3888 2,1037.6956 l 0,-18.6668 c 0,-4 2.6086956,-6.6666 6.5217392,-6.6666 z"
       id="rect3776"
       inkscape:connector-curvature="0"
       sodipodi:nodetypes="cccsssssscc" />
    <path
       style="opacity:0.15;fill:#000000;fill-opacity:1;stroke:none"
       d="m 2,1035.0288 0,2.6668 c 0,3.6932 2.9086956,6.6666 6.5217392,6.6666 l 46.9565208,0 c 3.613044,0 6.52174,-2.9734 6.52174,-6.6666 l 0,-2.6668 c 0,3.6934 -2.908696,7.3334 -6.52174,7.3334 l -46.9565208,0 C 4.9086956,1042.3622 2,1038.7222 2,1035.0288 z"
       id="path3786"
       inkscape:connector-curvature="0"
       sodipodi:nodetypes="csssscssc" />
    <path
       inkscape:connector-curvature="0"
       style="line-height:normal;color:#000000;fill:#000000;fill-opacity:0.09803922;display:block"
       d="m 15.583333,1020.3622 c -0.499159,0 -0.916668,0.3966 -0.916668,0.8958 v 1.1666 c -0.315596,0.106 -0.621831,0.2292 -0.916665,0.3752 l -0.812532,-0.8124 c -0.35296,-0.353 -0.917867,-0.353 -1.270798,0 l -2.0416686,2.0204 c -0.352962,0.3532 -0.352962,0.9182 0,1.271 l 0.8125306,0.8126 c -0.149558,0.2998 -0.267087,0.6158 -0.374999,0.9374 H 8.916668 C 8.4175062,1027.0288 8,1027.4256 8,1027.9246 v 2.8752 c 0,0.499 0.4175062,0.8958 0.916668,0.8958 h 1.145865 c 0.107896,0.3214 0.225447,0.6374 0.374999,0.9374 l -0.8125306,0.8128 c -0.352962,0.3528 -0.352962,0.9176 0,1.2706 l 2.0416686,2.0208 c 0.352959,0.3526 0.917865,0.3526 1.270798,0 L 13.75,1035.9248 c 0.294834,0.146 0.601069,0.2688 0.916665,0.3748 v 1.1666 c 0,0.4994 0.417517,0.896 0.916668,0.896 h 2.854132 c 0.49916,0 0.895869,-0.3966 0.895869,-0.896 v -1.1666 c 0.321547,-0.108 0.637547,-0.2254 0.937466,-0.3748 l 0.812534,0.8124 c 0.35296,0.3526 0.91787,0.3526 1.2708,0 l 2.041668,-2.0208 c 0.35296,-0.353 0.352952,-0.918 0,-1.2706 l -0.833334,-0.8334 c 0.14606,-0.295 0.269078,-0.6012 0.375,-0.9168 h 1.166668 c 0.49916,0 0.895864,-0.3968 0.895864,-0.8958 v -2.8752 c 2e-6,-0.499 -0.39668,-0.8958 -0.895864,-0.8958 h -1.166668 c -0.10592,-0.3156 -0.22894,-0.6218 -0.375,-0.9168 l 0.833334,-0.8332 c 0.35296,-0.3532 0.35296,-0.9178 0,-1.271 l -2.041668,-2.0204 c -0.352962,-0.353 -0.917868,-0.353 -1.2708,0 l -0.812534,0.8124 c -0.299951,-0.15 -0.615954,-0.2672 -0.937466,-0.3752 v -1.1666 c 0,-0.4992 -0.39668,-0.8958 -0.895869,-0.8958 h -2.854132 z m 1.416666,6.6666 c 1.287999,0 2.333335,1.0454 2.333335,2.3336 0,1.2878 -1.045336,2.3332 -2.333335,2.3332 -1.288002,0 -2.333334,-1.0454 -2.333334,-2.3332 0,-1.2882 1.045332,-2.3336 2.333334,-2.3336 z"
       id="path3041" />
    <path
       id="path3002"
       d="m 15.583333,1018.362 c -0.499159,0 -0.916668,0.3966 -0.916668,0.8958 v 1.1666 c -0.315596,0.106 -0.621831,0.2292 -0.916665,0.3752 l -0.812532,-0.8124 c -0.35296,-0.353 -0.917867,-0.353 -1.270798,0 l -2.0416686,2.0204 c -0.352962,0.3532 -0.352962,0.9182 0,1.271 l 0.8125306,0.8126 c -0.149558,0.2998 -0.267087,0.6158 -0.374999,0.9374 H 8.916668 C 8.4175062,1025.0286 8,1025.4254 8,1025.9244 v 2.8752 c 0,0.499 0.4175062,0.8958 0.916668,0.8958 h 1.145865 c 0.107896,0.3214 0.225447,0.6374 0.374999,0.9374 l -0.8125306,0.8128 c -0.352962,0.3528 -0.352962,0.9176 0,1.2706 l 2.0416686,2.0208 c 0.352959,0.3526 0.917865,0.3526 1.270798,0 L 13.75,1033.9246 c 0.294834,0.146 0.601069,0.2688 0.916665,0.3748 v 1.1666 c 0,0.4994 0.417517,0.896 0.916668,0.896 h 2.854132 c 0.49916,0 0.895869,-0.3966 0.895869,-0.896 v -1.1666 c 0.321547,-0.108 0.637547,-0.2254 0.937466,-0.3748 l 0.812534,0.8124 c 0.35296,0.3526 0.91787,0.3526 1.2708,0 l 2.041668,-2.0208 c 0.35296,-0.353 0.352952,-0.918 0,-1.2706 l -0.833334,-0.8334 c 0.14606,-0.295 0.269078,-0.6012 0.375,-0.9168 h 1.166668 c 0.49916,0 0.895864,-0.3968 0.895864,-0.8958 v -2.8752 c 2e-6,-0.499 -0.39668,-0.8958 -0.895864,-0.8958 h -1.166668 c -0.10592,-0.3156 -0.22894,-0.6218 -0.375,-0.9168 l 0.833334,-0.8332 c 0.35296,-0.3532 0.35296,-0.9178 0,-1.271 l -2.041668,-2.0204 c -0.352962,-0.353 -0.917868,-0.353 -1.2708,0 l -0.812534,0.8124 c -0.299951,-0.15 -0.615954,-0.2672 -0.937466,-0.3752 v -1.1666 c 0,-0.4992 -0.39668,-0.8958 -0.895869,-0.8958 h -2.854132 z m 1.416666,6.6666 c 1.287999,0 2.333335,1.0454 2.333335,2.3336 0,1.2878 -1.045336,2.3332 -2.333335,2.3332 -1.288002,0 -2.333334,-1.0454 -2.333334,-2.3332 0,-1.2882 1.045332,-2.3336 2.333334,-2.3336 z"
       style="line-height:normal;color:#000000;fill:#fff8e1;fill-opacity:1;display:block"
       inkscape:connector-curvature="0" />
  </g>
</svg>
