<?xml version="1.0" encoding="UTF-8" standalone="no"?>
<!-- Created with Inkscape (http://www.inkscape.org/) -->

<svg
   xmlns:dc="http://purl.org/dc/elements/1.1/"
   xmlns:cc="http://creativecommons.org/ns#"
   xmlns:rdf="http://www.w3.org/1999/02/22-rdf-syntax-ns#"
   xmlns:svg="http://www.w3.org/2000/svg"
   xmlns="http://www.w3.org/2000/svg"
   xmlns:xlink="http://www.w3.org/1999/xlink"
   xmlns:sodipodi="http://sodipodi.sourceforge.net/DTD/sodipodi-0.dtd"
   xmlns:inkscape="http://www.inkscape.org/namespaces/inkscape"
   width="64"
   height="64"
   id="svg2"
   version="1.1"
   inkscape:version="0.91 r"
   sodipodi:docname="red-folder-recent.svg">
  <defs
     id="defs4">
    <linearGradient
       id="linearGradient3886-9">
      <stop
         style="stop-color:#000000;stop-opacity:1;"
         offset="0"
         id="stop3888-3" />
      <stop
         style="stop-color:#000000;stop-opacity:0.19607843;"
         offset="1"
         id="stop3890-7" />
    </linearGradient>
    <radialGradient
       r="24"
       fy="40.5"
       fx="24"
       cy="40.5"
       cx="24"
       gradientTransform="matrix(1.6666667,0,0,0.2777777,-8,1030.4456)"
       gradientUnits="userSpaceOnUse"
       id="radialGradient3098"
       xlink:href="#linearGradient3886-9"
       inkscape:collect="always" />
  </defs>
  <sodipodi:namedview
     id="base"
     pagecolor="#ffffff"
     bordercolor="#666666"
     borderopacity="1.0"
     inkscape:pageopacity="0.0"
     inkscape:pageshadow="2"
     inkscape:zoom="8.8138915"
     inkscape:cx="24.910849"
     inkscape:cy="14.750982"
     inkscape:document-units="px"
     inkscape:current-layer="layer1"
     showgrid="true"
     inkscape:window-width="1280"
     inkscape:window-height="998"
     inkscape:window-x="0"
     inkscape:window-y="0"
     inkscape:window-maximized="1">
    <inkscape:grid
       type="xygrid"
       id="grid2990"
       empspacing="5"
       visible="true"
       enabled="true"
       snapvisiblegridlinesonly="true" />
  </sodipodi:namedview>
  <metadata
     id="metadata7">
    <rdf:RDF>
      <cc:Work
         rdf:about="">
        <dc:format>image/svg+xml</dc:format>
        <dc:type
           rdf:resource="http://purl.org/dc/dcmitype/StillImage" />
        <dc:title />
      </cc:Work>
    </rdf:RDF>
  </metadata>
  <g
     inkscape:label="Body"
     inkscape:groupmode="layer"
     id="layer1"
     transform="translate(0,-988.3622)">
    <path
       inkscape:connector-curvature="0"
       style="opacity:0.1;fill:url(#radialGradient3098);fill-opacity:1;stroke:none"
       d="m 32,1035.0288 c -13.102065,0 -24.7039604,1.0442 -32,2.6668 l 0,8 c 7.2960396,1.6224 18.897935,2.6666 32,2.6666 13.102066,0 24.70396,-1.0442 32,-2.6666 l 0,-8 c -7.29604,-1.6226 -18.897934,-2.6668 -32,-2.6668 z"
       id="path3868" />
    <rect
       style="fill:#d32f2f;fill-opacity:1;stroke:none"
       id="rect2987"
       width="60"
       height="41.999908"
       x="2"
       y="1002.3622"
       rx="6.521739"
       ry="6.5624819" />
    <path
       style="opacity:0.2;fill:#ffffff;fill-opacity:1;stroke:none"
       d="M 8.5217392,1001.6956 C 4.9086956,1001.6956 2,1004.6688 2,1008.3622 l 0,2.6666 c 0,-3.6932 2.9086956,-6.6666 6.5217392,-6.6666 l 46.9565208,0 c 3.613044,0 6.52174,2.9734 6.52174,6.6666 l 0,-2.6666 c 0,-3.6934 -2.908696,-6.6666 -6.52174,-6.6666 l -46.9565208,0 z"
       id="rect3797"
       inkscape:connector-curvature="0" />
    <path
       style="fill:#ef5350;fill-opacity:1;stroke:none"
       d="m 8.5217392,1012.3622 10.4347828,0 c 14.347826,-1.3334 11.73913,-16 20.869564,-16 l 15.652174,0 c 3.613044,0 6.52174,2.9734 6.52174,6.6666 l 0,34.6668 c 0,3.6932 -2.908696,6.6666 -6.52174,6.6666 l -46.9565208,0 C 4.9086956,1044.3622 2,1041.3888 2,1037.6956 l 0,-18.6668 c 0,-4 2.6086956,-6.6666 6.5217392,-6.6666 z"
       id="rect3776"
       inkscape:connector-curvature="0"
       sodipodi:nodetypes="cccsssssscc" />
    <path
       style="opacity:0.15;fill:#000000;fill-opacity:1;stroke:none"
       d="m 2,1035.0288 0,2.6668 c 0,3.6932 2.9086956,6.6666 6.5217392,6.6666 l 46.9565208,0 c 3.613044,0 6.52174,-2.9734 6.52174,-6.6666 l 0,-2.6668 c 0,3.6934 -2.908696,7.3334 -6.52174,7.3334 l -46.9565208,0 C 4.9086956,1042.3622 2,1038.7222 2,1035.0288 z"
       id="path3786"
       inkscape:connector-curvature="0"
       sodipodi:nodetypes="csssscssc" />
    <path
       sodipodi:nodetypes="ccccssssccssssccccccccccccccccccccsccccc"
       inkscape:connector-curvature="0"
       style="line-height:normal;color:#000000;fill:#000000;fill-opacity:0.09803922"
       d="m 9.285713,1020.3622 0,5.1428 5.142857,0 -1.612163,-1.4514 c 1.150468,-0.9032 2.607752,-1.4414 4.183592,-1.4414 3.727921,0 6.749999,3.022 6.749999,6.75 0,3.728 -3.022078,6.75 -6.749999,6.75 -3.727921,0 -6.749999,-3.022 -6.749999,-6.75 0,-0.7882 0.201658,-1.8682 0.450019,-2.5714 l -2.3554694,0 C 8.1603812,1027.5082 8,1028.5874 8,1029.3622 c 0,4.9706 4.029438,9 8.999999,9 4.970563,0 8.999999,-4.0294 8.999999,-9 0,-4.9706 -4.029436,-9 -8.999999,-9 -2.20148,0 -4.236969,0.7616 -5.800781,2.0742 z m 7.608819,3.3398 c -0.04756,0.02 -0.09456,0.02 -0.140624,0.034 -0.503049,0.114 -0.891317,0.6098 -0.878907,1.125 l 0,4.1486 c -0.0017,0.034 -0.0017,0.07 0,0.106 -0.06517,0.2852 -0.0135,0.5952 0.140624,0.8436 0.01144,0.02 0.02318,0.024 0.03515,0.034 0.01092,0.024 0.02264,0.046 0.03515,0.07 0.01144,0.02 0.02318,0.024 0.03515,0.034 0.01144,0.02 0.02318,0.024 0.03515,0.034 0.01144,0.02 0.02318,0.024 0.03515,0.034 0.01144,0.02 0.02318,0.024 0.03515,0.034 0.02303,0.02 0.04648,0.024 0.07032,0.034 0.01144,0.02 0.02318,0.024 0.03515,0.034 0.01144,0.02 0.02318,0.024 0.03515,0.034 0.02303,0.02 0.04648,0.024 0.07032,0.034 0.04518,0.028 0.09221,0.05 0.140624,0.07 l 2.777342,1.6172 c 0.515627,0.2994 1.257925,0.1 1.553771,-0.418 0.295848,-0.5176 0.091,-1.2584 -0.42877,-1.5508 l -2.355469,-1.3712 0,-3.8318 c 0.02276,-0.6376 -0.595413,-1.2204 -1.230467,-1.1604 z"
       id="path3041" />
    <path
       id="path4105"
       d="m 9.285713,1018.3622 0,5.1428 5.142857,0 -1.612163,-1.4514 c 1.150468,-0.9032 2.607752,-1.4414 4.183592,-1.4414 3.727921,0 6.749999,3.022 6.749999,6.75 0,3.728 -3.022078,6.75 -6.749999,6.75 -3.727921,0 -6.749999,-3.022 -6.749999,-6.75 0,-0.7882 0.201658,-1.8682 0.450019,-2.5714 l -2.3554694,0 C 8.1603812,1025.5082 8,1026.5874 8,1027.3622 c 0,4.9706 4.029438,9 8.999999,9 4.970563,0 8.999999,-4.0294 8.999999,-9 0,-4.9706 -4.029436,-9 -8.999999,-9 -2.20148,0 -4.236969,0.7616 -5.800781,2.0742 z m 7.608819,3.3398 c -0.04756,0.02 -0.09456,0.02 -0.140624,0.034 -0.503049,0.114 -0.891317,0.6098 -0.878907,1.125 l 0,4.1486 c -0.0017,0.034 -0.0017,0.07 0,0.106 -0.06517,0.2852 -0.0135,0.5952 0.140624,0.8436 0.01144,0.02 0.02318,0.024 0.03515,0.034 0.01092,0.024 0.02264,0.046 0.03515,0.07 0.01144,0.02 0.02318,0.024 0.03515,0.034 0.01144,0.02 0.02318,0.024 0.03515,0.034 0.01144,0.02 0.02318,0.024 0.03515,0.034 0.01144,0.02 0.02318,0.024 0.03515,0.034 0.02303,0.02 0.04648,0.024 0.07032,0.034 0.01144,0.02 0.02318,0.024 0.03515,0.034 0.01144,0.02 0.02318,0.024 0.03515,0.034 0.02303,0.02 0.04648,0.024 0.07032,0.034 0.04518,0.028 0.09221,0.05 0.140624,0.07 l 2.777342,1.6172 c 0.515627,0.2994 1.257925,0.1 1.553771,-0.418 0.295848,-0.5176 0.091,-1.2584 -0.42877,-1.5508 l -2.355469,-1.3712 0,-3.8318 c 0.02276,-0.6376 -0.595413,-1.2204 -1.230467,-1.1604 z"
       style="line-height:normal;color:#000000;fill:#fff8e1;fill-opacity:1"
       inkscape:connector-curvature="0"
       sodipodi:nodetypes="ccccssssccssssccccccccccccccccccccsccccc" />
  </g>
</svg>
