<svg xmlns="http://www.w3.org/2000/svg" viewBox="0 0 256 256">
 <defs>
  <radialGradient r="24" cy="40.5" cx="24" gradientTransform="matrix(6.6666668,0,0,1.1111101,-32,964.6958)" gradientUnits="userSpaceOnUse" id="radialGradient3152">
   <stop style="stop-color:#000;stop-opacity:1"/>
   <stop offset="1" style="stop-color:#000;stop-opacity:0.196"/>
  </radialGradient>
 </defs>
 <g transform="translate(0,-796.3622)">
  <path d="m 128 983.03 c -52.41 0 -98.82 4.177 -128 10.667 l 0 32 c 29.18 6.49 75.59 10.666 128 10.666 52.41 0 98.82 -4.177 128 -10.666 l 0 -32 c -29.18 -6.49 -75.59 -10.667 -128 -10.667 z" style="fill:url(#radialGradient3152);opacity:0.1;fill-opacity:1;stroke:none"/>
  <rect width="240" height="168" x="8" y="852.36" rx="26.09" ry="26.25" style="fill:replacecolour2;fill-opacity:1;stroke:none"/>
  <path d="m 34.09 849.7 c -14.452 0 -26.09 11.893 -26.09 26.666 l 0 10.666 c 0 -14.773 11.635 -26.666 26.09 -26.666 l 187.83 0 c 14.452 0 26.09 11.894 26.09 26.666 l 0 -10.666 c 0 -14.774 -11.635 -26.666 -26.09 -26.666 l -187.83 0 z" style="fill:#fff;opacity:0.2;fill-opacity:1;stroke:none"/>
  <rect width="160" height="136" x="48" y="820.36" ry="10.88" rx="10.667" style="fill:#eae7d1;fill-opacity:1;stroke:none"/>
  <rect y="892.36" x="64" height="8" width="128" style="fill:#7a7a68;fill-opacity:1;stroke:none"/>
  <rect y="860.36" x="64" height="8" width="128" style="fill:#7a7a68;fill-opacity:1;stroke:none"/>
  <rect width="128" height="8" x="64" y="876.36" style="fill:#7a7a68;fill-opacity:1;stroke:none"/>
  <rect width="128" height="8" x="64" y="908.36" style="fill:#7a7a68;fill-opacity:1;stroke:none"/>
  <path d="m 34.09 924.36 41.739 0 c 57.39 -4 46.957 -48 83.48 -48 l 62.61 0 c 14.452 0 26.09 8.92 26.09 20 l 0 104 c 0 11.08 -11.635 20 -26.09 20 l -187.83 0 c -14.452 0 -26.09 -8.92 -26.09 -20 l 0 -56 c 0 -12 10.435 -20 26.09 -20 z" style="fill:replacecolour1;fill-opacity:1;stroke:none"/>
  <rect width="128" height="8" x="64" y="844.36" style="fill:#7a7a68;fill-opacity:1;stroke:none"/>
  <path d="m 8 983.03 0 10.667 c 0 14.773 11.635 26.666 26.09 26.666 l 187.83 0 c 14.452 0 26.09 -11.894 26.09 -26.666 l 0 -10.667 c 0 14.774 -11.635 29.334 -26.09 29.334 l -187.83 0 c -14.452 0 -26.09 -14.56 -26.09 -29.334 z" style="fill:#000;opacity:0.15;fill-opacity:1;stroke:none"/>
 </g>
</svg>
