<svg xmlns="http://www.w3.org/2000/svg" viewBox="0 0 256 256">
 <g transform="translate(0,-796.3622)">
  <g transform="matrix(8,0,0,8,0,-7366.5354)" style="opacity:0.5">
   <rect ry="2.187" rx="1.957" y="1033.36" x="3" height="12" width="18" style="fill:#512da8;fill-opacity:1;stroke:none"/>
   <path d="m 4.957 1033.36 c -1.084 0 -1.957 1.115 -1.957 2.5 l 0 1 c 0 -1.385 0.873 -2.5 1.957 -2.5 l 14.09 0 c 1.084 0 1.957 1.115 1.957 2.5 l 0 -1 c 0 -1.385 -0.873 -2.5 -1.957 -2.5 z" style="fill:#fff;opacity:0.2;fill-opacity:1;stroke:none"/>
   <path d="m 4.957 1036.36 3.13 0 c 4.304 -0.444 3.522 -5 6.261 -5 l 4.696 0 c 1.084 0 1.957 0.991 1.957 2.222 l 0 9.556 c 0 1.231 -0.873 2.222 -1.957 2.222 l -14.09 0 c -1.084 0 -1.957 -0.991 -1.957 -2.222 l 0 -4.222 c 0 -1.333 0.783 -2.556 1.957 -2.556 z" style="fill:#7e57c2;fill-opacity:1;stroke:none"/>
   <path d="m 3 1042.25 0 0.889 c 0 1.231 0.873 2.222 1.957 2.222 l 14.09 0 c 1.084 0 1.957 -0.991 1.957 -2.222 l 0 -0.889 c 0 1.231 -0.873 2.111 -1.957 2.111 l -14.09 0 c -1.084 0 -1.957 -0.88 -1.957 -2.111 z" style="fill:#000;opacity:0.15;fill-opacity:1;stroke:none"/>
  </g>
  <rect width="63.14" height="23.765" x="114" y="836.36" style="fill:#fffdf0;fill-opacity:1;stroke:none"/>
  <rect width="144" height="96" x="88" y="828.36" rx="15.652" ry="17.5" style="fill:#512da8;fill-opacity:1;stroke:none"/>
  <path d="m 103.65 828.36 c -8.671 0 -15.652 8.919 -15.652 19.999 l 0 7.999 c 0 -11.08 6.981 -19.998 15.652 -19.998 l 112.7 0 c 8.671 0 15.652 8.919 15.652 19.998 l 0 -7.999 c 0 -11.08 -6.981 -19.999 -15.652 -19.999 z" style="fill:#fff;opacity:0.2;fill-opacity:1;stroke:none"/>
  <path d="m 103.65 852.36 25.04 0 c 34.435 -3.555 28.17 -40 50.09 -40 l 37.565 0 c 8.671 0 15.652 7.929 15.652 17.778 l 0 76.44 c 0 9.849 -6.981 17.778 -15.652 17.778 l -112.7 0 c -8.671 0 -15.652 -7.929 -15.652 -17.778 l 0 -33.776 c 0 -10.666 6.261 -20.444 15.652 -20.445 z" style="fill:#7e57c2;fill-opacity:1;stroke:none"/>
  <path d="m 88 899.47 0 7.111 c 0 9.849 6.981 17.778 15.652 17.778 l 112.7 0 c 8.671 0 15.652 -7.929 15.652 -17.778 l 0 -7.111 c 0 9.849 -6.981 16.889 -15.652 16.889 l -112.7 0 c -8.671 0 -15.652 -7.04 -15.652 -16.889 z" style="fill:#000;opacity:0.15;fill-opacity:1;stroke:none"/>
  <path d="m 224 932.36 -48 0 0 -48 -40 0 0 48 -48 0 0 40 48 0 0 48 40 0 0 -48 48 0 z" style="fill:#4caf50;fill-opacity:1"/>
 </g>
</svg>
