<svg version="1.1" viewBox="0 0 22 22" xmlns="http://www.w3.org/2000/svg">
 <g transform="translate(0 -1030.4)">
  <rect x="1" y="1033.4" width="20" height="5" style="fill:#388e3c"/>
  <path d="m4 1034.4c0-1 0-2 0.909-2h3.182c0.909 0 0.909 1 0.909 2z" style="fill:#388e3c"/>
  <path d="m2 1034.4h18v4h-18z" style="fill:#95989f"/>
  <rect x="5" y="1034.4" width="14" height="6" style="fill:#d8d8da"/>
  <rect x="3" y="1035.4" width="14" height="3" style="fill:#f9f9f9"/>
  <path d="m0 1036.4h22l-1 14h-20z" style="fill:#66bb6a"/>
  <path d="m12.591 1048.2h-0.04545l-0.04546-0.046v-1.4286c0-0.3226-0.04546-0.5991-0.18182-0.8295 1.0455-0.1843 2.1818-0.7373 2.1818-2.8111 0-0.553-0.18182-1.0599-0.5-1.4746 0.09091-0.2765 0.13636-0.7834-0.09091-1.4286l-0.13636-0.1382s-0.09091-0.046-0.18182-0.046c-0.27273 0-0.68182 0.092-1.3636 0.553-0.36364-0.046-0.77273-0.1383-1.2273-0.1383s-0.86364 0.046-1.2727 0.1383c-0.63636-0.4148-1.0909-0.5069-1.3636-0.5069-0.090909 0-0.13636 0.046-0.18182 0.046-0.045455 0-0.13636 0.092-0.13636 0.1382-0.22727 0.6452-0.18182 1.1521-0.090909 1.4286-0.31818 0.4147-0.5 0.9216-0.5 1.4746 0 2.0277 1.1818 2.5807 2.1818 2.8111-0.045454 0.092-0.090909 0.2304-0.13636 0.3687-0.090909 0.046-0.22727 0.092-0.40909 0.092s-0.36364-0.046-0.5-0.1843l-0.045455-0.046c-0.045454-0.046-0.045454-0.092-0.090909-0.092l-0.045455-0.046-0.045454-0.046c0-0.046-0.36364-0.5991-1-0.6452-0.22727 0-0.40909 0.092-0.45455 0.2304-0.090909 0.2304 0.18182 0.4148 0.31818 0.5069 0 0 0.27273 0.1383 0.45455 0.6452 0.090909 0.3226 0.5 0.9217 1.4545 0.9217h0.31818v0.6451l-0.045455 0.046s-0.045454 0 0 0c-2.0455-0.8295-3.4091-2.765-3.4091-4.9309 0-2.811 2.2273-5.0691 5-5.0691s5 2.2581 5 5.0691c0 2.1659-1.3636 4.1014-3.4091 4.7927z" style="fill:#103612;font-variation-settings:normal;opacity:.4;stop-color:#000000"/>
 </g>
</svg>
