<svg xmlns="http://www.w3.org/2000/svg" viewBox="0 0 22 22">
 <g transform="translate(-1.00625,-1)" style="opacity:0.5">
  <rect y="5" x="2.01" height="4" width="11" style="fill:#e65100;fill-opacity:1;stroke:none"/>
  <path d="m 3.01 5 c 0 -0.5 0 -1 0.727 -1 l 2.545 0 c 0.727 0 0.727 0.5 0.727 1 z" style="fill:#e65100;fill-opacity:1;stroke:none"/>
  <rect width="9" height="4" x="3.01" y="6" style="fill:#d8d8da;fill-opacity:1;stroke:none"/>
  <rect y="7" x="4.01" height="2.28" width="8" style="fill:#f9f9f9;fill-opacity:1;stroke:none"/>
  <path d="m 1.01 8 13 0 -0.65 7 -11.7 0 z" style="fill:#f57c00;fill-opacity:1;stroke:none"/>
 </g>
 <rect width="11" height="4" x="10" y="10" style="fill:#e65100;fill-opacity:1;stroke:none"/>
 <path d="m 11 10 c 0 -0.5 0 -1 0.727 -1 l 2.545 0 c 0.727 0 0.727 0.5 0.727 1 z" style="fill:#e65100;fill-opacity:1;stroke:none"/>
 <rect y="11" x="11" height="4" width="9" style="fill:#d8d8da;fill-opacity:1;stroke:none"/>
 <rect width="8" height="2.28" x="12" y="12" style="fill:#f9f9f9;fill-opacity:1;stroke:none"/>
 <path d="m 9 13 13 0 l -0.65 7 -11.7 0 z" style="fill:#f57c00;fill-opacity:1;stroke:none"/>
</svg>
