<?xml version="1.0" encoding="UTF-8" standalone="no"?>
<svg
   xmlns:dc="http://purl.org/dc/elements/1.1/"
   xmlns:cc="http://creativecommons.org/ns#"
   xmlns:rdf="http://www.w3.org/1999/02/22-rdf-syntax-ns#"
   xmlns:svg="http://www.w3.org/2000/svg"
   xmlns="http://www.w3.org/2000/svg"
   xmlns:xlink="http://www.w3.org/1999/xlink"
   xmlns:sodipodi="http://sodipodi.sourceforge.net/DTD/sodipodi-0.dtd"
   xmlns:inkscape="http://www.inkscape.org/namespaces/inkscape"
   viewBox="0 0 48 48"
   id="svg2"
   version="1.1"
   inkscape:version="0.91 r"
   width="100%"
   height="100%"
   sodipodi:docname="accessibility-directory.svg">
  <metadata
     id="metadata85">
    <rdf:RDF>
      <cc:Work
         rdf:about="">
        <dc:format>image/svg+xml</dc:format>
        <dc:type
           rdf:resource="http://purl.org/dc/dcmitype/StillImage" />
      </cc:Work>
    </rdf:RDF>
  </metadata>
  <sodipodi:namedview
     pagecolor="#ffffff"
     bordercolor="#666666"
     borderopacity="1"
     objecttolerance="10"
     gridtolerance="10"
     guidetolerance="10"
     inkscape:pageopacity="0"
     inkscape:pageshadow="2"
     inkscape:window-width="1280"
     inkscape:window-height="998"
     id="namedview83"
     showgrid="false"
     inkscape:zoom="9.8333334"
     inkscape:cx="32.408621"
     inkscape:cy="23.36554"
     inkscape:window-x="0"
     inkscape:window-y="0"
     inkscape:window-maximized="1"
     inkscape:current-layer="svg2" />
  <defs
     id="defs4">
    <linearGradient
       id="linearGradient3764"
       x1="1"
       x2="47"
       gradientUnits="userSpaceOnUse"
       gradientTransform="matrix(0,-1,1,0,-1.5e-6,47.999998)">
      <stop
         stop-color="#3e6d94"
         stop-opacity="1"
         id="stop7" />
      <stop
         offset="1"
         stop-color="#4476a2"
         stop-opacity="1"
         id="stop9" />
    </linearGradient>
    <linearGradient
       inkscape:collect="always"
       xlink:href="#linearGradient3764"
       id="linearGradient5286"
       gradientUnits="userSpaceOnUse"
       gradientTransform="translate(-48.000001,0.00221406)"
       x1="1"
       x2="47" />
  </defs>
  <g
     id="g21">
    <path
       style="opacity:0.02000002"
       inkscape:connector-curvature="0"
       d="m 1,43 0,0.25 c 0,2.216 1.784,4 4,4 l 38,0 c 2.216,0 4,-1.784 4,-4 L 47,43 c 0,2.216 -1.784,4 -4,4 L 5,47 C 2.784,47 1,45.216 1,43 z m 0,0.5 0,0.5 c 0,2.216 1.784,4 4,4 l 38,0 c 2.216,0 4,-1.784 4,-4 l 0,-0.5 c 0,2.216 -1.784,4 -4,4 l -38,0 c -2.216,0 -4,-1.784 -4,-4 z"
       id="path23" />
    <path
       style="opacity:0.05"
       inkscape:connector-curvature="0"
       d="m 1,43.25 0,0.25 c 0,2.216 1.784,4 4,4 l 38,0 c 2.216,0 4,-1.784 4,-4 l 0,-0.25 c 0,2.216 -1.784,4 -4,4 l -38,0 c -2.216,0 -4,-1.784 -4,-4 z"
       id="path25" />
    <path
       style="opacity:0.1"
       inkscape:connector-curvature="0"
       d="m 1,43 0,0.25 c 0,2.216 1.784,4 4,4 l 38,0 c 2.216,0 4,-1.784 4,-4 L 47,43 c 0,2.216 -1.784,4 -4,4 L 5,47 C 2.784,47 1,45.216 1,43 z"
       id="path27" />
  </g>
  <rect
     id="rect31"
     transform="matrix(0,-1,1,0,0,0)"
     rx="4"
     y="1"
     x="-46.999996"
     height="46"
     width="46"
     style="fill:url(#linearGradient5286);fill-opacity:1.0" />
  <g
     id="g53">
    <g
       transform="translate(0,-1004.3622)"
       id="g55">
      <path
         style="opacity:0.1"
         inkscape:connector-curvature="0"
         d="m 1,1043.36 0,4 c 0,2.216 1.784,4 4,4 l 38,0 c 2.216,0 4,-1.784 4,-4 l 0,-4 c 0,2.216 -1.784,4 -4,4 l -38,0 c -2.216,0 -4,-1.784 -4,-4 z"
         id="path57" />
    </g>
  </g>
  <path
     style="opacity:0.1;fill:#000000;fill-opacity:1;fill-rule:nonzero;stroke:none"
     d="m 12.812518,15 c -0.440926,0.05099 -0.8155,0.464595 -0.8125,0.9375 l 0,17.09375 C 12.000076,33.53115 12.434347,34 12.906268,34 l 22.09375,0 c 0.472925,0 1,-0.5001 1,-1 l 0,-15 c 0,-0.4999 -0.527075,-1 -1,-1 l -9,0 0,-1 c -0.0013,-0.64787 -0.449091,-1 -1,-1 l -12.1875,0 z m 11.25,5 c 0.785,0 1.4375,0.617 1.4375,1.375 0,0.762 -0.6525,1.375 -1.4375,1.375 -0.785,0 -1.40625,-0.613 -1.40625,-1.375 0,-0.758 0.62125,-1.375 1.40625,-1.375 z m -5.09375,2.8125 c 0.07625,0.0093 0.15625,0.04875 0.21875,0.09375 l 4.8125,0.75 4.84375,-0.75 c 0.051,-0.035 0.1215,-0.0545 0.1875,-0.0625 0.187,-0.02 0.3715,0.082 0.4375,0.25 0.067,0.168 -0.0042,0.3325 -0.15625,0.4375 l -3.84375,1.375 0.0625,2.5 1.3125,4 c 0.118,0.187 0.04275,0.42625 -0.15625,0.53125 -0.199,0.109 -0.4495,0.063 -0.5625,-0.125 l -2.125,-4.3125 -2.15625,4.3125 c -0.133,0.184 -0.39875,0.21475 -0.59375,0.09375 -0.192,-0.121 -0.22275,-0.35125 -0.09375,-0.53125 l 1.34375,-4 0,-2.65625 -3.78125,-1.15625 c -0.136,-0.067 -0.21875,-0.19575 -0.21875,-0.34375 0.004,-0.144 0.07775,-0.309 0.21875,-0.375 0.0705,-0.031 0.17375,-0.0405 0.25,-0.03125 z"
     id="path45"
     inkscape:connector-curvature="0" />
  <path
     style="fill:#ececec;fill-opacity:1;fill-rule:nonzero;stroke:none"
     d="M 12.8125,14 C 12.371574,14.05096 11.997,14.496148 12,14.96875 l 0,17.0625 C 12.000058,32.53083 12.434329,33 12.90625,33 L 35,33 c 0.472922,0 1,-0.500421 1,-1 l 0,-14.96875 c 0,-0.499579 -0.527078,-1 -1,-1 l -9,0 L 26,15 c -0.0013,-0.647454 -0.449093,-1 -1,-1 l -12.1875,0 z m 11.25,5 c 0.785,0 1.4375,0.617 1.4375,1.375 0,0.762 -0.6525,1.375 -1.4375,1.375 -0.785,0 -1.40625,-0.613 -1.40625,-1.375 0,-0.758 0.62125,-1.375 1.40625,-1.375 z m -5.09375,2.8125 c 0.07625,0.0093 0.15625,0.04875 0.21875,0.09375 l 4.8125,0.75 4.84375,-0.75 c 0.051,-0.035 0.1215,-0.0545 0.1875,-0.0625 0.187,-0.02 0.3715,0.05075 0.4375,0.21875 0.067,0.168 -0.0042,0.36375 -0.15625,0.46875 l -3.84375,1.375 0.0625,2.5 1.3125,4 c 0.118,0.187 0.04275,0.42625 -0.15625,0.53125 -0.199,0.109 -0.4495,0.063 -0.5625,-0.125 L 24,26.5 21.84375,30.8125 C 21.71075,30.9965 21.445,31.02725 21.25,30.90625 21.058,30.78525 21.02725,30.555 21.15625,30.375 l 1.34375,-4 0,-2.65625 -3.78125,-1.15625 C 18.58275,22.4955 18.5,22.36675 18.5,22.21875 c 0.004,-0.144 0.07775,-0.309 0.21875,-0.375 0.0705,-0.031 0.17375,-0.0405 0.25,-0.03125 z"
     id="path55"
     inkscape:connector-curvature="0" />
</svg>
