<?xml version="1.0" encoding="UTF-8" standalone="no"?>
<svg
   xmlns:dc="http://purl.org/dc/elements/1.1/"
   xmlns:cc="http://creativecommons.org/ns#"
   xmlns:rdf="http://www.w3.org/1999/02/22-rdf-syntax-ns#"
   xmlns:svg="http://www.w3.org/2000/svg"
   xmlns="http://www.w3.org/2000/svg"
   xmlns:xlink="http://www.w3.org/1999/xlink"
   xmlns:sodipodi="http://sodipodi.sourceforge.net/DTD/sodipodi-0.dtd"
   xmlns:inkscape="http://www.inkscape.org/namespaces/inkscape"
   viewBox="0 0 48 48"
   id="svg3062"
   version="1.1"
   inkscape:version="0.91 r"
   width="100%"
   height="100%"
   sodipodi:docname="athena.svg">
  <metadata
     id="metadata3145">
    <rdf:RDF>
      <cc:Work
         rdf:about="">
        <dc:format>image/svg+xml</dc:format>
        <dc:type
           rdf:resource="http://purl.org/dc/dcmitype/StillImage" />
      </cc:Work>
    </rdf:RDF>
  </metadata>
  <sodipodi:namedview
     pagecolor="#ffffff"
     bordercolor="#666666"
     borderopacity="1"
     objecttolerance="10"
     gridtolerance="10"
     guidetolerance="10"
     inkscape:pageopacity="0"
     inkscape:pageshadow="2"
     inkscape:window-width="1280"
     inkscape:window-height="998"
     id="namedview3143"
     showgrid="false"
     inkscape:zoom="9.8333331"
     inkscape:cx="21.553195"
     inkscape:cy="25.479767"
     inkscape:window-x="0"
     inkscape:window-y="0"
     inkscape:window-maximized="1"
     inkscape:current-layer="svg3062" />
  <defs
     id="defs3064">
    <linearGradient
       id="linearGradient3764"
       x1="1"
       x2="47"
       gradientUnits="userSpaceOnUse"
       gradientTransform="matrix(0,-1,1,0,-1.5e-6,47.999998)">
      <stop
         stop-color="#b44732"
         stop-opacity="1"
         id="stop3067" />
      <stop
         offset="1"
         stop-color="#c44e36"
         stop-opacity="1"
         id="stop3069" />
    </linearGradient>
    <linearGradient
       inkscape:collect="always"
       xlink:href="#linearGradient3764"
       id="linearGradient5286"
       gradientUnits="userSpaceOnUse"
       gradientTransform="translate(-48.000001,0.00221547)"
       x1="1"
       x2="47" />
  </defs>
  <g
     id="g21">
    <path
       style="opacity:0.02000002"
       inkscape:connector-curvature="0"
       d="m 1,43 0,0.25 c 0,2.216 1.784,4 4,4 l 38,0 c 2.216,0 4,-1.784 4,-4 L 47,43 c 0,2.216 -1.784,4 -4,4 L 5,47 C 2.784,47 1,45.216 1,43 z m 0,0.5 0,0.5 c 0,2.216 1.784,4 4,4 l 38,0 c 2.216,0 4,-1.784 4,-4 l 0,-0.5 c 0,2.216 -1.784,4 -4,4 l -38,0 c -2.216,0 -4,-1.784 -4,-4 z"
       id="path23" />
    <path
       style="opacity:0.05"
       inkscape:connector-curvature="0"
       d="m 1,43.25 0,0.25 c 0,2.216 1.784,4 4,4 l 38,0 c 2.216,0 4,-1.784 4,-4 l 0,-0.25 c 0,2.216 -1.784,4 -4,4 l -38,0 c -2.216,0 -4,-1.784 -4,-4 z"
       id="path25" />
    <path
       style="opacity:0.1"
       inkscape:connector-curvature="0"
       d="m 1,43 0,0.25 c 0,2.216 1.784,4 4,4 l 38,0 c 2.216,0 4,-1.784 4,-4 L 47,43 c 0,2.216 -1.784,4 -4,4 L 5,47 C 2.784,47 1,45.216 1,43 z"
       id="path27" />
  </g>
  <rect
     id="rect31"
     transform="matrix(0,-1,1,0,0,0)"
     rx="4"
     y="1"
     x="-47"
     height="46"
     width="46"
     style="fill:url(#linearGradient5286);fill-opacity:1.0" />
  <g
     id="g53">
    <g
       transform="translate(0,-1004.3622)"
       id="g55">
      <path
         style="opacity:0.1"
         inkscape:connector-curvature="0"
         d="m 1,1043.36 0,4 c 0,2.216 1.784,4 4,4 l 38,0 c 2.216,0 4,-1.784 4,-4 l 0,-4 c 0,2.216 -1.784,4 -4,4 l -38,0 c -2.216,0 -4,-1.784 -4,-4 z"
         id="path57" />
    </g>
  </g>
  <path
     style="opacity:0.1;fill:#000000;fill-opacity:1;fill-rule:nonzero;stroke:none"
     d="m 12.812518,15 c -0.440926,0.05099 -0.815501,0.464595 -0.8125,0.9375 l 0,17.09375 C 12.000075,33.53115 12.434347,34 12.906268,34 l 22.09375,0 c 0.472925,0 1,-0.5001 1,-1 l 0,-15 c 0,-0.4999 -0.527075,-1 -1,-1 l -9,0 0,-1 c -0.0013,-0.64787 -0.449091,-1 -1,-1 l -12.1875,0 z m 11.15625,4.03125 0.71875,1.59375 -0.1875,0.4375 c 1.157,0.079 0.9375,0.3125 0.9375,0.3125 0,0 1.3125,0.2495 1.3125,0.4375 0.261,0.129 0.53125,0.312 0.78125,0.5 3.336,4.492 -0.2305,5.523 0.5625,8.125 0.176,0.558 0.90625,1.53125 0.90625,1.53125 0,0 -1.4645,0.195 -2.0625,-1.5 -0.488,-1.371 1.1645,-4.137 -0.0625,-5.375 -1.731,-1.754 -3.01575,1.875 -2.46875,2.375 0.551,0.5 0.40625,0.625 0.40625,0.625 l -0.8125,1.65625 -0.84375,-1.65625 c 0,0 -0.1135,-0.125 0.4375,-0.625 0.543,-0.5 -0.766,-4.125 -2.5,-2.375 -1.222,1.234 0.4215,4.004 -0.0625,5.375 -0.598,1.696 -2.03125,1.5 -2.03125,1.5 0,0 0.703,-0.96525 0.875,-1.53125 0.793,-2.606 -2.7775,-3.637 0.5625,-8.125 0.25,-0.195 0.51525,-0.371 0.78125,-0.5 0,-0.184 1.34375,-0.4375 1.34375,-0.4375 0,0 -0.24575,-0.2345 0.90625,-0.3125 l -0.1875,-0.4375 0.6875,-1.59375 z"
     id="path45"
     inkscape:connector-curvature="0" />
  <path
     style="fill:#ececec;fill-opacity:1;fill-rule:nonzero;stroke:none"
     d="M 12.8125,14 C 12.371575,14.05096 11.997001,14.496148 12,14.96875 l 0,17.0625 C 12.000058,32.53083 12.434329,33 12.90625,33 L 35,33 c 0.472922,0 1,-0.500421 1,-1 l 0,-14.96875 c 0,-0.499579 -0.527078,-1 -1,-1 l -9,0 L 26,15 C 25.9987,14.352546 25.550907,14 25,14 L 12.8125,14 z M 24,18 24.6875,19.625 24.5,20.0625 c 1.157,0.079 0.9375,0.3125 0.9375,0.3125 0,0 1.3125,0.2495 1.3125,0.4375 0.261,0.129 0.53125,0.312 0.78125,0.5 3.336,4.492 -0.2305,5.523 0.5625,8.125 0.176,0.558 0.90625,1.53125 0.90625,1.53125 0,0 -1.4645,0.195 -2.0625,-1.5 -0.488,-1.371 1.1645,-4.137 -0.0625,-5.375 -1.731,-1.754 -3.01575,1.875 -2.46875,2.375 0.551,0.5 0.40625,0.625 0.40625,0.625 L 24,28.75 23.15625,27.09375 c 0,0 -0.1135,-0.125 0.4375,-0.625 0.543,-0.5 -0.766,-4.125 -2.5,-2.375 -1.222,1.234 0.4215,4.004 -0.0625,5.375 -0.598,1.696 -2.03125,1.5 -2.03125,1.5 0,0 0.703,-0.96525 0.875,-1.53125 0.793,-2.606 -2.7775,-3.637 0.5625,-8.125 0.25,-0.195 0.51525,-0.371 0.78125,-0.5 0,-0.184 1.34375,-0.4375 1.34375,-0.4375 0,0 -0.24575,-0.2345 0.90625,-0.3125 L 23.28125,19.625 24,18 z"
     id="path55"
     inkscape:connector-curvature="0" />
</svg>
