<svg xmlns="http://www.w3.org/2000/svg" width="48" viewBox="0 0 13.546667 13.546667" height="48">
 <defs>
  <linearGradient id="linearGradient5286" gradientUnits="userSpaceOnUse" gradientTransform="matrix(0.28222223,0,0,0.28222223,-13.546666,6.2509917e-4)" x1="1" x2="47">
   <stop style="stop-color:#2684da;stop-opacity:1"/>
   <stop offset="1" style="stop-color:#3f96e5;stop-opacity:1"/>
  </linearGradient>
 </defs>
 <g>
  <g transform="scale(0.28222223,0.28222223)">
   <path d="m 1,43 0,0.25 c 0,2.216 1.784,4 4,4 l 38,0 c 2.216,0 4,-1.784 4,-4 L 47,43 c 0,2.216 -1.784,4 -4,4 L 5,47 C 2.784,47 1,45.216 1,43 z m 0,0.5 0,0.5 c 0,2.216 1.784,4 4,4 l 38,0 c 2.216,0 4,-1.784 4,-4 l 0,-0.5 c 0,2.216 -1.784,4 -4,4 l -38,0 c -2.216,0 -4,-1.784 -4,-4 z" style="opacity:0.02"/>
   <path d="m 1 43.25 0 0.25 c 0 2.216 1.784 4 4 4 l 38 0 c 2.216 0 4 -1.784 4 -4 l 0 -0.25 c 0 2.216 -1.784 4 -4 4 l -38 0 c -2.216 0 -4 -1.784 -4 -4 z" style="opacity:0.05"/>
   <path d="m 1,43 0,0.25 c 0,2.216 1.784,4 4,4 l 38,0 c 2.216,0 4,-1.784 4,-4 L 47,43 c 0,2.216 -1.784,4 -4,4 L 5,47 C 2.784,47 1,45.216 1,43 z" style="opacity:0.1"/>
  </g>
  <rect transform="matrix(0,-1,1,0,0,0)" rx="1.129" y="0.282" x="-13.264" height="12.982" width="12.982" style="fill:url(#linearGradient5286);fill-opacity:1"/>
  <g transform="scale(0.28222223,0.28222223)">
   <g transform="translate(0,-1004.3622)">
    <path d="m 1 1043.36 0 4 c 0 2.216 1.784 4 4 4 l 38 0 c 2.216 0 4 -1.784 4 -4 l 0 -4 c 0 2.216 -1.784 4 -4 4 l -38 0 c -2.216 0 -4 -1.784 -4 -4 z" style="opacity:0.1"/>
   </g>
  </g>
  <path d="m 3.616 4.233 c -0.124 0.014 -0.23 0.131 -0.229 0.265 l 0 4.824 c 0 0.141 0.123 0.273 0.256 0.273 l 6.235 0 c 0.133 0 0.282 -0.141 0.282 -0.282 l 0 -4.233 c 0 -0.141 -0.149 -0.282 -0.282 -0.282 l -2.54 0 0 -0.282 c 0 -0.183 -0.127 -0.282 -0.282 -0.282 l -3.44 0 z m 3.775 1.623 c 0.055 0.002 0.159 0.106 0.265 0.247 0.13 0.174 0.194 0.432 0.194 0.432 0 0 0.576 0.481 0.785 0.944 0.21 0.462 0.026 0.873 0.026 0.873 0 0 0.088 0.248 0.088 0.335 0 0.088 -0.206 0.156 -0.388 0.009 c -0.184 -0.149 -0.891 -0.891 -0.891 -0.891 c 0 0 -0.179 0.018 -0.467 0.018 -0.287 0 -0.485 -0.185 -0.485 -0.185 0 0 0.089 0.028 0.326 -0.035 c 0.235 -0.061 0.202 -0.142 0.035 -0.229 -0.165 -0.087 -0.348 -0.097 -0.785 0.062 -0.436 0.158 -0.804 0.635 -0.864 0.714 c -0.063 0.076 -0.097 0.096 -0.106 0 -0.009 -0.099 0.243 -0.346 0.635 -0.67 0.391 -0.323 0.917 -0.256 0.917 -0.256 0 0 -0.288 -0.244 -0.908 0.062 c -0.617 0.304 -0.699 0.767 -0.803 0.82 -0.105 0.052 -0.148 0.032 -0.071 -0.3 0.08 -0.332 0.476 -0.911 0.706 -1.138 0.226 -0.226 0.851 -0.405 1.27 -0.353 c 0.419 0.052 0.424 0.025 0.476 -0.079 0.053 -0.105 -0.018 -0.309 0.018 -0.37 0.007 -0.011 0.013 -0.009 0.026 -0.009 z m -2.972 2.108 c 0.182 -0.008 0.37 0.273 0.37 0.273 0 0 -0.196 0.071 -0.37 0.071 -0.175 0 -0.28 -0.204 -0.079 -0.317 0.024 -0.014 0.054 -0.025 0.079 -0.026 z m 0.388 0.344 c 0 0 -0.001 0.283 -0.141 0.379 -0.131 0.096 -0.344 0.042 -0.3 -0.141 0.044 -0.184 0.441 -0.238 0.441 -0.238 z" style="fill:#000;opacity:0.1;fill-opacity:1;stroke:none;fill-rule:nonzero"/>
  <path d="m 3.616 3.951 c -0.124 0.014 -0.23 0.14 -0.229 0.273 l 0 4.815 c 0 0.141 0.123 0.273 0.256 0.273 l 6.235 0 c 0.133 0 0.282 -0.141 0.282 -0.282 l 0 -4.225 c 0 -0.141 -0.149 -0.282 -0.282 -0.282 l -2.54 0 0 -0.291 c 0 -0.183 -0.127 -0.282 -0.282 -0.282 l -3.44 0 z m 3.775 1.623 c 0.055 0.002 0.159 0.106 0.265 0.247 0.13 0.174 0.194 0.432 0.194 0.432 0 0 0.576 0.481 0.785 0.944 0.21 0.462 0.026 0.873 0.026 0.873 0 0 0.088 0.248 0.088 0.335 0 0.088 -0.206 0.156 -0.388 0.009 c -0.184 -0.149 -0.891 -0.891 -0.891 -0.891 c 0 0 -0.179 0.018 -0.467 0.018 -0.287 0 -0.485 -0.185 -0.485 -0.185 0 0 0.089 0.028 0.326 -0.035 0.235 -0.061 0.202 -0.142 0.035 -0.229 -0.165 -0.087 -0.348 -0.097 -0.785 0.062 -0.436 0.158 -0.804 0.635 -0.864 0.714 -0.063 0.076 -0.097 0.096 -0.106 0 -0.009 -0.099 0.243 -0.346 0.635 -0.67 0.391 -0.323 0.917 -0.256 0.917 -0.256 0 0 -0.288 -0.244 -0.908 0.062 c -0.617 0.304 -0.699 0.767 -0.803 0.82 -0.105 0.052 -0.148 0.032 -0.071 -0.3 0.08 -0.332 0.476 -0.911 0.706 -1.138 c 0.226 -0.226 0.851 -0.405 1.27 -0.353 0.419 0.052 0.424 0.025 0.476 -0.079 0.053 -0.105 -0.018 -0.309 0.018 -0.37 0.007 -0.011 0.013 -0.009 0.026 -0.009 z m -2.972 2.108 c 0.182 -0.008 0.37 0.273 0.37 0.273 0 0 -0.196 0.071 -0.37 0.071 -0.175 0 -0.28 -0.204 -0.079 -0.317 0.024 -0.014 0.054 -0.025 0.079 -0.026 z m 0.388 0.344 c 0 0 -0.001 0.283 -0.141 0.379 -0.131 0.096 -0.344 0.042 -0.3 -0.141 0.044 -0.184 0.441 -0.238 0.441 -0.238 z" style="fill:#ececec;fill-opacity:1;stroke:none;fill-rule:nonzero"/>
 </g>
</svg>
