<?xml version="1.0" encoding="UTF-8" standalone="no"?>
<svg
   xmlns:dc="http://purl.org/dc/elements/1.1/"
   xmlns:cc="http://creativecommons.org/ns#"
   xmlns:rdf="http://www.w3.org/1999/02/22-rdf-syntax-ns#"
   xmlns:svg="http://www.w3.org/2000/svg"
   xmlns="http://www.w3.org/2000/svg"
   xmlns:sodipodi="http://sodipodi.sourceforge.net/DTD/sodipodi-0.dtd"
   xmlns:inkscape="http://www.inkscape.org/namespaces/inkscape"
   width="22"
   height="22"
   viewBox="0 0 22 22"
   id="svg2"
   version="1.1"
   inkscape:version="0.48.5 r10040"
   sodipodi:docname="folder-download.svg">
  <metadata
     id="metadata16">
    <rdf:RDF>
      <cc:Work
         rdf:about="">
        <dc:format>image/svg+xml</dc:format>
        <dc:type
           rdf:resource="http://purl.org/dc/dcmitype/StillImage" />
      </cc:Work>
    </rdf:RDF>
  </metadata>
  <defs
     id="defs14" />
  <sodipodi:namedview
     pagecolor="#ffffff"
     bordercolor="#666666"
     borderopacity="1"
     objecttolerance="10"
     gridtolerance="10"
     guidetolerance="10"
     inkscape:pageopacity="0"
     inkscape:pageshadow="2"
     inkscape:window-width="1280"
     inkscape:window-height="998"
     id="namedview12"
     showgrid="true"
     inkscape:zoom="21.454545"
     inkscape:cx="9.6127287"
     inkscape:cy="14.247814"
     inkscape:window-x="0"
     inkscape:window-y="0"
     inkscape:window-maximized="1"
     inkscape:current-layer="svg2">
    <inkscape:grid
       type="xygrid"
       id="grid3162"
       empspacing="5"
       visible="true"
       enabled="true"
       snapvisiblegridlinesonly="true" />
  </sodipodi:namedview>
  <rect
     style="fill:#ea9036;fill-opacity:1;stroke:none"
     id="rect3757"
     width="18"
     height="5"
     x="2"
     y="4.9999828" />
  <path
     style="fill:#ea9036;fill-opacity:1;stroke:none"
     d="M 4,6 C 4,5 4,4 4.909091,4 L 8.090909,4 C 9,4 9,5 9,6 z"
     id="path3759"
     inkscape:connector-curvature="0"
     sodipodi:nodetypes="ccccc" />
  <path
     style="fill:#95989f;fill-opacity:1;stroke:none"
     d="m 3,6 16,0 0,4 -16,0 z"
     id="path3765"
     inkscape:connector-curvature="0" />
  <rect
     y="5.9999828"
     x="5"
     height="6"
     width="13"
     id="rect3763"
     style="fill:#d8d8da;fill-opacity:1;stroke:none" />
  <rect
     style="fill:#f9f9f9;fill-opacity:1;stroke:none"
     id="rect3761"
     width="13"
     height="3.0000174"
     x="4"
     y="6.9999828" />
  <path
     style="fill:#f2bb64;fill-opacity:1;stroke:none"
     d="M 1,8 21,8 20,19 2,19 z"
     id="path2987"
     inkscape:connector-curvature="0"
     sodipodi:nodetypes="ccccc" />
  <path
     style="fill:#000000;fill-opacity:0.25098039"
     d="m 11.035156,17.495921 c 0.164063,-0.01172 0.324219,-0.08203 0.441406,-0.199219 l 2.058594,-2.179687 c 0.128906,-0.125 0.210938,-0.304688 0.214844,-0.484376 0.01172,-0.285156 -0.167969,-0.566406 -0.429688,-0.679687 -0.261718,-0.109375 -0.589843,-0.04297 -0.789062,0.164063 L 11,15.671702 9.394531,14.046702 C 9.125,13.827952 8.6875,13.851389 8.445312,14.097483 c -0.246093,0.25 -0.261718,0.683594 -0.039062,0.949219 l 2.070312,2.25 c 0.144532,0.144531 0.355469,0.21875 0.558594,0.199219 z M 12.4375,13.398265 c 0.234375,-0.02734 0.425781,-0.25 0.414062,-0.484376 l 0,-1.171874 c 0,-0.246094 -0.222656,-0.46875 -0.472656,-0.46875 -0.246094,0 -0.472656,0.222656 -0.472656,0.46875 l 0,1.171874 c -0.0078,0.257813 0.230469,0.496094 0.488281,0.484376 0.01563,0 0.02734,0 0.04297,0 z m -1.394531,0.09375 c 0.238281,-0.01953 0.4375,-0.246094 0.429687,-0.484376 l 0,-2.371093 c 0,-0.246094 -0.226562,-0.46875 -0.472656,-0.46875 -0.246094,0 -0.472656,0.222656 -0.472656,0.46875 l 0,2.371093 c -0.0078,0.25 0.21875,0.484376 0.472656,0.484376 0.01563,0 0.02734,0 0.04297,0 z m -1.378907,-0.09375 c 0.234376,-0.02734 0.425782,-0.25 0.414063,-0.484376 l 0,-1.671874 c 0.03906,-0.261719 -0.195313,-0.535157 -0.464844,-0.535157 -0.269531,0 -0.503906,0.273438 -0.464843,0.535157 l 0,1.671874 c -0.01172,0.265626 0.25,0.511719 0.515624,0.484376 z"
     id="path10"
     inkscape:connector-curvature="0" />
</svg>
