<?xml version="1.0" encoding="UTF-8" standalone="no"?>
<svg
   xmlns:dc="http://purl.org/dc/elements/1.1/"
   xmlns:cc="http://creativecommons.org/ns#"
   xmlns:rdf="http://www.w3.org/1999/02/22-rdf-syntax-ns#"
   xmlns:svg="http://www.w3.org/2000/svg"
   xmlns="http://www.w3.org/2000/svg"
   xmlns:sodipodi="http://sodipodi.sourceforge.net/DTD/sodipodi-0.dtd"
   xmlns:inkscape="http://www.inkscape.org/namespaces/inkscape"
   width="22"
   height="22"
   viewBox="0 0 22 22"
   id="svg2"
   version="1.1"
   inkscape:version="0.48.5 r10040"
   sodipodi:docname="folder-documents.svg">
  <metadata
     id="metadata16">
    <rdf:RDF>
      <cc:Work
         rdf:about="">
        <dc:format>image/svg+xml</dc:format>
        <dc:type
           rdf:resource="http://purl.org/dc/dcmitype/StillImage" />
      </cc:Work>
    </rdf:RDF>
  </metadata>
  <defs
     id="defs14" />
  <sodipodi:namedview
     pagecolor="#ffffff"
     bordercolor="#666666"
     borderopacity="1"
     objecttolerance="10"
     gridtolerance="10"
     guidetolerance="10"
     inkscape:pageopacity="0"
     inkscape:pageshadow="2"
     inkscape:window-width="1280"
     inkscape:window-height="998"
     id="namedview12"
     showgrid="true"
     inkscape:zoom="21.454545"
     inkscape:cx="22.212418"
     inkscape:cy="8.1849156"
     inkscape:window-x="0"
     inkscape:window-y="0"
     inkscape:window-maximized="1"
     inkscape:current-layer="svg2">
    <inkscape:grid
       type="xygrid"
       id="grid3249"
       empspacing="5"
       visible="true"
       enabled="true"
       snapvisiblegridlinesonly="true" />
  </sodipodi:namedview>
  <rect
     style="fill:#ea9036;fill-opacity:1;stroke:none"
     id="rect3757"
     width="18"
     height="5"
     x="1.9999998"
     y="4.9999824" />
  <path
     style="fill:#ea9036;fill-opacity:1;stroke:none"
     d="m 3.9999996,5.9999999 c 0,-1 0,-2 0.909091,-2 l 3.181819,0 c 0.90909,0 0.90909,1 0.90909,2 z"
     id="path3759"
     inkscape:connector-curvature="0"
     sodipodi:nodetypes="ccccc" />
  <path
     style="fill:#95989f;fill-opacity:1;stroke:none"
     d="M 2.9999996,5.9999999 19,5.9999999 19,10 2.9999996,10 z"
     id="path3765"
     inkscape:connector-curvature="0" />
  <rect
     y="5.9999824"
     x="5"
     height="6"
     width="13"
     id="rect3763"
     style="fill:#d8d8da;fill-opacity:1;stroke:none" />
  <rect
     style="fill:#f9f9f9;fill-opacity:1;stroke:none"
     id="rect3761"
     width="13"
     height="3.0000174"
     x="4"
     y="6.9999828" />
  <path
     style="fill:#f2bb64;fill-opacity:1;stroke:none"
     d="m 1,7.9999999 20,0 L 20,19 1.9999996,19 z"
     id="path2987"
     inkscape:connector-curvature="0"
     sodipodi:nodetypes="ccccc" />
  <path
     style="fill:#000000;fill-opacity:0.25098039"
     d="M 8.710938,10.168409 C 8.25,10.168409 8.246094,10.508252 8.25,10.62544 l 0,6.417969 c 0,0.457031 0.324219,0.460937 0.460938,0.457031 l 4.582031,0 c 0.457031,0 0.460937,-0.328125 0.457031,-0.457031 l 0,-5.960938 -0.917969,-0.902343 z m 0.457031,0.929687 2.75,0 0,0.457032 0.914062,0 0,2.277343 -2.75,0 0,2.75 -0.914062,0.01563 z m 1.375,3.195313 1.832031,0 -1.832031,1.832031 z"
     id="path10"
     inkscape:connector-curvature="0" />
</svg>
