<svg xmlns="http://www.w3.org/2000/svg" width="48" viewBox="0 0 13.546667 13.546667" height="48">
 <defs>
  <linearGradient id="linearGradient5286" gradientUnits="userSpaceOnUse" gradientTransform="matrix(0.28222223,0,0,0.28222223,-13.546666,6.2509917e-4)" x1="1" x2="47">
   <stop style="stop-color:#2684da;stop-opacity:1"/>
   <stop offset="1" style="stop-color:#3f96e5;stop-opacity:1"/>
  </linearGradient>
 </defs>
 <g>
  <g transform="scale(0.28222223,0.28222223)">
   <path d="m 1,43 0,0.25 c 0,2.216 1.784,4 4,4 l 38,0 c 2.216,0 4,-1.784 4,-4 L 47,43 c 0,2.216 -1.784,4 -4,4 L 5,47 C 2.784,47 1,45.216 1,43 z m 0,0.5 0,0.5 c 0,2.216 1.784,4 4,4 l 38,0 c 2.216,0 4,-1.784 4,-4 l 0,-0.5 c 0,2.216 -1.784,4 -4,4 l -38,0 c -2.216,0 -4,-1.784 -4,-4 z" style="opacity:0.02"/>
   <path d="m 1 43.25 0 0.25 c 0 2.216 1.784 4 4 4 l 38 0 c 2.216 0 4 -1.784 4 -4 l 0 -0.25 c 0 2.216 -1.784 4 -4 4 l -38 0 c -2.216 0 -4 -1.784 -4 -4 z" style="opacity:0.05"/>
   <path d="m 1,43 0,0.25 c 0,2.216 1.784,4 4,4 l 38,0 c 2.216,0 4,-1.784 4,-4 L 47,43 c 0,2.216 -1.784,4 -4,4 L 5,47 C 2.784,47 1,45.216 1,43 z" style="opacity:0.1"/>
  </g>
  <rect transform="matrix(0,-1,1,0,0,0)" rx="1.129" y="0.282" x="-13.264" height="12.982" width="12.982" style="fill:url(#linearGradient5286);fill-opacity:1"/>
  <g transform="scale(0.28222223,0.28222223)">
   <g transform="translate(0,-1004.3622)">
    <path d="m 1 1043.36 0 4 c 0 2.216 1.784 4 4 4 l 38 0 c 2.216 0 4 -1.784 4 -4 l 0 -4 c 0 2.216 -1.784 4 -4 4 l -38 0 c -2.216 0 -4 -1.784 -4 -4 z" style="opacity:0.1"/>
   </g>
  </g>
  <path d="m 4.163 3.951 c -0.11 0 -0.212 0.119 -0.212 0.247 l 0 0.317 -0.309 0 -0.026 0 c -0.124 0.012 -0.23 0.118 -0.229 0.238 l 0 4.595 c 0 0.128 0.123 0.247 0.256 0.247 l 6.262 0 c 0.132 0 0.256 -0.119 0.256 -0.247 l 0 -4.01 c 0 -0.127 -0.124 -0.256 -0.256 -0.256 l -0.309 0 0 -0.882 c 0 -0.128 -0.1 -0.247 -0.212 -0.247 l -5.221 0 z" style="fill:#000;opacity:0.1;fill-opacity:1;stroke:none;fill-rule:nonzero"/>
  <path d="m 3.951 5.362 0 -1.448 c 0 -0.128 0.101 -0.245 0.212 -0.245 l 5.221 0 c 0.111 0 0.212 0.117 0.212 0.245 l 0 1.448 m -5.644 0" style="fill:#b29c9c;fill-opacity:1;stroke:none;fill-rule:nonzero"/>
  <path d="m 3.616 4.233 c -0.124 0.012 -0.23 0.122 -0.229 0.242 l 0 4.594 c 0 0.128 0.121 0.244 0.255 0.244 l 6.265 0 c 0.132 0 0.253 -0.116 0.253 -0.244 l 0 -4.02 c 0 -0.127 -0.121 -0.252 -0.253 -0.252 l -2.569 0 0 -0.317 c 0 -0.127 -0.129 -0.247 -0.261 -0.247 l -3.436 0 c -0.008 0 -0.017 0 -0.025 0" style="fill:#ecedf1;fill-opacity:1;stroke:none;fill-rule:nonzero"/>
  <path d="m 7.39 5.571 c -0.013 0 -0.022 0.003 -0.029 0.014 -0.035 0.062 0.034 0.262 -0.019 0.367 c -0.052 0.105 -0.052 0.131 -0.471 0.079 -0.419 -0.052 -1.047 0.131 -1.273 0.357 -0.229 0.227 -0.619 0.803 -0.7 1.135 -0.077 0.332 -0.042 0.349 0.063 0.298 0.104 -0.053 0.192 -0.516 0.809 -0.82 0.62 -0.305 0.909 -0.062 0.909 -0.062 c 0 0 -0.533 -0.071 -0.925 0.253 -0.392 0.324 -0.637 0.575 -0.628 0.675 0.009 0.096 0.043 0.076 0.106 0 0.061 -0.079 0.427 -0.559 0.863 -0.717 0.436 -0.159 0.619 -0.148 0.785 -0.061 0.166 0.087 0.202 0.172 -0.033 0.233 -0.237 0.063 -0.333 0.035 -0.333 0.035 0 0 0.201 0.183 0.487 0.183 0.289 0 0.464 -0.018 0.464 -0.018 0 0 0.714 0.742 0.898 0.891 0.182 0.148 0.385 0.078 0.385 -0.001 0 -0.087 -0.088 -0.332 -0.088 -0.332 0 0 0.183 -0.411 -0.028 -0.873 c -0.209 -0.463 -0.785 -0.941 -0.785 -0.941 c 0 0 -0.061 -0.262 -0.191 -0.437 c -0.106 -0.141 -0.213 -0.248 -0.268 -0.25 m -2.971 2.114 c -0.025 0.0001 -0.052 0.008 -0.076 0.022 -0.201 0.113 -0.096 0.315 0.079 0.315 0.174 0 0.366 -0.071 0.366 -0.071 0 0 -0.187 -0.273 -0.369 -0.266 m 0.386 0.336 c 0 0 -0.391 0.06 -0.435 0.244 -0.044 0.183 0.164 0.236 0.295 0.14 0.131 -0.096 0.14 -0.384 0.14 -0.384 m 0 0" style="fill:#b29c9c;fill-opacity:1;stroke:none;fill-rule:nonzero"/>
 </g>
</svg>
