<?xml version="1.0" encoding="UTF-8" standalone="no"?>
<!-- Created with Inkscape (http://www.inkscape.org/) -->

<svg
   xmlns:dc="http://purl.org/dc/elements/1.1/"
   xmlns:cc="http://creativecommons.org/ns#"
   xmlns:rdf="http://www.w3.org/1999/02/22-rdf-syntax-ns#"
   xmlns:svg="http://www.w3.org/2000/svg"
   xmlns="http://www.w3.org/2000/svg"
   xmlns:sodipodi="http://sodipodi.sourceforge.net/DTD/sodipodi-0.dtd"
   xmlns:inkscape="http://www.inkscape.org/namespaces/inkscape"
   width="24"
   height="24"
   id="svg2"
   version="1.1"
   inkscape:version="0.91 r"
   sodipodi:docname="blue-folder-cloud.svg"
   inkscape:export-filename="/media/Data/Main/Visuals/Icons/Numix/Desktop/repos/numix-wiki/Gjorgi/Numix-folders/48/New/folder-144.png"
   inkscape:export-xdpi="270"
   inkscape:export-ydpi="270">
  <defs
     id="defs4" />
  <sodipodi:namedview
     id="base"
     pagecolor="#ffffff"
     bordercolor="#666666"
     borderopacity="1.0"
     inkscape:pageopacity="0.0"
     inkscape:pageshadow="2"
     inkscape:zoom="17.727408"
     inkscape:cx="-1.4916878"
     inkscape:cy="10.747922"
     inkscape:document-units="px"
     inkscape:current-layer="layer1"
     showgrid="true"
     inkscape:window-width="1280"
     inkscape:window-height="998"
     inkscape:window-x="0"
     inkscape:window-y="0"
     inkscape:window-maximized="1"
     showguides="true"
     inkscape:guide-bbox="true">
    <inkscape:grid
       type="xygrid"
       id="grid2985"
       empspacing="5"
       visible="true"
       enabled="true"
       snapvisiblegridlinesonly="true" />
  </sodipodi:namedview>
  <metadata
     id="metadata7">
    <rdf:RDF>
      <cc:Work
         rdf:about="">
        <dc:format>image/svg+xml</dc:format>
        <dc:type
           rdf:resource="http://purl.org/dc/dcmitype/StillImage" />
        <dc:title />
      </cc:Work>
    </rdf:RDF>
  </metadata>
  <g
     inkscape:label="Layer 1"
     inkscape:groupmode="layer"
     id="layer1"
     transform="translate(0,-1028.3622)">
    <rect
       style="fill:#1976d2;fill-opacity:1;stroke:none"
       id="rect3757"
       width="20"
       height="5"
       x="1.9999993"
       y="1032.3622" />
    <path
       style="fill:#1976d2;fill-opacity:1;stroke:none"
       d="m 4.9999992,1033.3622 c 0,-1 0,-2 0.909091,-2 l 3.1818188,0 c 0.90909,0 0.90909,1 0.90909,2 z"
       id="path3759"
       inkscape:connector-curvature="0"
       sodipodi:nodetypes="ccccc" />
    <path
       style="fill:#95989f;fill-opacity:1;stroke:none"
       d="m 3,1033.3622 17.999998,0 0,4 -17.999998,0 z"
       id="path3765"
       inkscape:connector-curvature="0" />
    <rect
       y="1033.3622"
       x="5.999999"
       height="6"
       width="14"
       id="rect3763"
       style="fill:#d8d8da;fill-opacity:1;stroke:none" />
    <rect
       style="fill:#f9f9f9;fill-opacity:1;stroke:none"
       id="rect3761"
       width="14"
       height="3.0000174"
       x="4"
       y="1034.3622" />
    <path
       style="fill:#42a5f5;fill-opacity:1;stroke:none"
       d="m 1,1035.3622 21.999999,0 -1,14 -19.9999994,0 z"
       id="path2987"
       inkscape:connector-curvature="0"
       sodipodi:nodetypes="ccccc" />
    <path
       style="fill:#2a74b9;fill-opacity:1;stroke:none;opacity:1.0"
       d="M 10.5,1038.3622 A 3,2.7999837 0 0 0 7.71875,1041.1747 3,2.7999837 0 0 0 8,1042.3622 l -0.28125,0 0,0.031 A 2.1428571,2.0000234 0 0 0 6,1044.3622 a 2.1428571,2.0000234 0 0 0 1.71875,1.9688 l 0,0.031 0.21875,0 0.34375,0 8,0 0,-0.031 A 2.1428571,1.9999983 0 0 0 18,1044.3622 a 2.1428571,1.9999983 0 0 0 -1.71875,-1.9687 l 0,-0.031 -0.4375,0 a 2.1428571,1.9999983 0 0 0 0.4375,-1.1875 2.1428571,1.9999983 0 0 0 -2.125,-2 2.1428571,1.9999983 0 0 0 -1.09375,0.25 3,2.7999837 0 0 0 -2.34375,-1.0625 3,2.7999837 0 0 0 -0.21875,0 z"
       id="path3102-7"
       inkscape:connector-curvature="0" />
  </g>
</svg>
