<?xml version="1.0" encoding="UTF-8" standalone="no"?>
<svg
   xmlns:dc="http://purl.org/dc/elements/1.1/"
   xmlns:cc="http://creativecommons.org/ns#"
   xmlns:rdf="http://www.w3.org/1999/02/22-rdf-syntax-ns#"
   xmlns:svg="http://www.w3.org/2000/svg"
   xmlns="http://www.w3.org/2000/svg"
   xmlns:sodipodi="http://sodipodi.sourceforge.net/DTD/sodipodi-0.dtd"
   xmlns:inkscape="http://www.inkscape.org/namespaces/inkscape"
   width="128px"
   height="128px"
   viewBox="0 0 128 128"
   version="1.1"
   id="svg3041"
   inkscape:version="0.91 r"
   sodipodi:docname="yellow-document-open-recent.svg">
  <metadata
     id="metadata3068">
    <rdf:RDF>
      <cc:Work
         rdf:about="">
        <dc:format>image/svg+xml</dc:format>
        <dc:type
           rdf:resource="http://purl.org/dc/dcmitype/StillImage" />
      </cc:Work>
    </rdf:RDF>
  </metadata>
  <defs
     id="defs3066" />
  <sodipodi:namedview
     pagecolor="#ffffff"
     bordercolor="#666666"
     borderopacity="1"
     objecttolerance="10"
     gridtolerance="10"
     guidetolerance="10"
     inkscape:pageopacity="0"
     inkscape:pageshadow="2"
     inkscape:window-width="668"
     inkscape:window-height="480"
     id="namedview3064"
     showgrid="false"
     inkscape:zoom="1.84375"
     inkscape:cx="60.20339"
     inkscape:cy="64"
     inkscape:window-x="0"
     inkscape:window-y="0"
     inkscape:window-maximized="0"
     inkscape:current-layer="svg3041" />
  <path
     inkscape:connector-curvature="0"
     id="path3044"
     d="m 12,24 104,0 0,40 -104,0 z m 0,0"
     style="fill:#ffb300;fill-opacity:1;fill-rule:nonzero;stroke:none" />
  <path
     inkscape:connector-curvature="0"
     id="path3046"
     d="m 24,24 c 0,-4 0,-8 5.816406,-8 l 20.367188,0 C 56,16 56,20 56,24 l 0,4 -32,0 z m 0,0"
     style="fill:#ffb300;fill-opacity:1;fill-rule:nonzero;stroke:none" />
  <path
     inkscape:connector-curvature="0"
     id="path3048"
     d="m 20,32 88,0 0,32 -88,0 z m 0,0"
     style="fill:#94979e;fill-opacity:1;fill-rule:nonzero;stroke:none" />
  <path
     inkscape:connector-curvature="0"
     id="path3050"
     d="m 28,28 76,0 0,52 -76,0 z m 0,0"
     style="fill:#d7d7d9;fill-opacity:1;fill-rule:nonzero;stroke:none" />
  <path
     inkscape:connector-curvature="0"
     id="path3052"
     d="m 24,36 76,0 0,52 -76,0 z m 0,0"
     style="fill:#f8f8f8;fill-opacity:1;fill-rule:nonzero;stroke:none" />
  <path
     inkscape:connector-curvature="0"
     id="path3054"
     d="m 28,40 68,0 0,4 -68,0 z m 0,0"
     style="fill:#cccccc;fill-opacity:1;fill-rule:nonzero;stroke:none" />
  <path
     inkscape:connector-curvature="0"
     id="path3056"
     d="m 4,56 120,0 -8.57031,56 -102.859378,0 z m 0,0"
     style="fill:#ffca28;fill-opacity:1;fill-rule:nonzero;stroke:none" />
  <path
     inkscape:connector-curvature="0"
     id="path3058"
     d="m 28,48 68,0 0,4 -68,0 z m 0,0"
     style="fill:#cccccc;fill-opacity:1;fill-rule:nonzero;stroke:none" />
  <path
     inkscape:connector-curvature="0"
     id="path3060"
     d="m 116.05859,91.589844 c 0.1875,9.324216 -4.73046,18.019536 -12.86718,22.738286 -8.125004,4.71875 -18.195316,4.71875 -26.332035,0 -8.136719,-4.71875 -13.050781,-13.41407 -12.855469,-22.738286 -0.195312,-9.332032 4.71875,-18.03125 12.855469,-22.75 8.136719,-4.71875 18.207031,-4.71875 26.332035,0 8.13672,4.71875 13.05468,13.417968 12.86718,22.75 z m 0,0"
     style="fill:#859900;fill-opacity:1;fill-rule:evenodd;stroke:none" />
  <path
     inkscape:connector-curvature="0"
     id="path3062"
     d="m 104.26563,75.058594 c -0.55079,0.199218 -1.01954,0.574218 -1.33204,1.0625 l -14.187496,13.863281 -8.855469,-8.53125 c -0.355469,-1.175781 -1.46875,-1.96875 -2.707031,-1.90625 -1.230469,0.07422 -2.25,0.980469 -2.480469,2.1875 -0.21875,1.21875 0.425781,2.429687 1.5625,2.917969 l 10.667969,10.667968 c 1.019531,0.957032 2.601562,0.957032 3.625,0 l 15.999996,-16 c 0.625,-0.824218 0.70704,-1.949218 0.21875,-2.867187 -0.49218,-0.914063 -1.48046,-1.457031 -2.51171,-1.394531 z m 0,0"
     style="fill:#ffffff;fill-opacity:1;fill-rule:nonzero;stroke:none" />
</svg>
