<?xml version="1.0" encoding="UTF-8" standalone="no"?>
<svg
   xmlns:dc="http://purl.org/dc/elements/1.1/"
   xmlns:cc="http://creativecommons.org/ns#"
   xmlns:rdf="http://www.w3.org/1999/02/22-rdf-syntax-ns#"
   xmlns:svg="http://www.w3.org/2000/svg"
   xmlns="http://www.w3.org/2000/svg"
   xmlns:sodipodi="http://sodipodi.sourceforge.net/DTD/sodipodi-0.dtd"
   xmlns:inkscape="http://www.inkscape.org/namespaces/inkscape"
   width="48"
   viewBox="0 0 48 48"
   height="48"
   id="svg2"
   version="1.1"
   inkscape:version="0.91 r"
   sodipodi:docname="default-folder-google-drive.svg">
  <metadata
     id="metadata20">
    <rdf:RDF>
      <cc:Work
         rdf:about="">
        <dc:format>image/svg+xml</dc:format>
        <dc:type
           rdf:resource="http://purl.org/dc/dcmitype/StillImage" />
      </cc:Work>
    </rdf:RDF>
  </metadata>
  <defs
     id="defs18" />
  <sodipodi:namedview
     pagecolor="#ffffff"
     bordercolor="#666666"
     borderopacity="1"
     objecttolerance="10"
     gridtolerance="10"
     guidetolerance="10"
     inkscape:pageopacity="0"
     inkscape:pageshadow="2"
     inkscape:window-width="1280"
     inkscape:window-height="998"
     id="namedview16"
     showgrid="true"
     inkscape:zoom="8"
     inkscape:cx="-1.773442"
     inkscape:cy="18.913353"
     inkscape:window-x="0"
     inkscape:window-y="0"
     inkscape:window-maximized="1"
     inkscape:current-layer="svg2">
    <inkscape:grid
       type="xygrid"
       id="grid3104" />
  </sodipodi:namedview>
  <rect
     style="fill:#ea9036;fill-opacity:1;stroke:none"
     id="rect3757"
     width="38"
     height="15"
     x="5"
     y="9.9999828" />
  <path
     style="fill:#ea9036;fill-opacity:1;stroke:none"
     d="m 10,12 c 0,-2 0,-4 2,-4 l 7,0 c 2,0 2,2 2,4 z"
     id="path3759"
     inkscape:connector-curvature="0"
     sodipodi:nodetypes="ccccc" />
  <path
     style="fill:#95989f;fill-opacity:1;stroke:none"
     d="m 9,13 31,0 0,7 -31,0 z"
     id="path3765"
     inkscape:connector-curvature="0" />
  <rect
     y="11.999983"
     x="11"
     height="20"
     width="28"
     id="rect3763"
     style="fill:#d8d8da;fill-opacity:1;stroke:none" />
  <rect
     style="fill:#f9f9f9;fill-opacity:1;stroke:none"
     id="rect3761"
     width="28"
     height="20"
     x="10"
     y="14.999983" />
  <path
     style="fill:#f2bb64;fill-opacity:1;stroke:none"
     d="M 2,16 46,16 42,40 5,40 z"
     id="path2987"
     inkscape:connector-curvature="0"
     sodipodi:nodetypes="ccccc" />
  <path
     style="opacity:1.0;fill:#b58c4b;fill-opacity:1;fill-rule:evenodd"
     d="M 21.25 20 L 27.125 30 L 33 30 L 27.125 20 L 21.25 20 z M 20.28125 20.59375 L 14 30.46875 L 17.15625 35.375 L 23.28125 25.625 L 20.28125 20.59375 z M 21.1875 31 L 18 36 L 30 36 L 33 31 L 21.1875 31 z "
     id="polygon3475-1" />
</svg>
