<?xml version="1.0" encoding="UTF-8" standalone="no"?>
<!-- Created with Inkscape (http://www.inkscape.org/) -->

<svg
   xmlns:dc="http://purl.org/dc/elements/1.1/"
   xmlns:cc="http://creativecommons.org/ns#"
   xmlns:rdf="http://www.w3.org/1999/02/22-rdf-syntax-ns#"
   xmlns:svg="http://www.w3.org/2000/svg"
   xmlns="http://www.w3.org/2000/svg"
   xmlns:sodipodi="http://sodipodi.sourceforge.net/DTD/sodipodi-0.dtd"
   xmlns:inkscape="http://www.inkscape.org/namespaces/inkscape"
   width="48"
   height="48"
   id="svg2"
   version="1.1"
   inkscape:version="0.91 r"
   sodipodi:docname="grey-folder-cloud.svg">
  <defs
     id="defs4" />
  <sodipodi:namedview
     id="base"
     pagecolor="#ffffff"
     bordercolor="#666666"
     borderopacity="1.0"
     inkscape:pageopacity="0.0"
     inkscape:pageshadow="2"
     inkscape:zoom="6.2323625"
     inkscape:cx="2.767958"
     inkscape:cy="36.318101"
     inkscape:document-units="px"
     inkscape:current-layer="layer1"
     showgrid="true"
     inkscape:window-width="1280"
     inkscape:window-height="998"
     inkscape:window-x="0"
     inkscape:window-y="0"
     inkscape:window-maximized="1">
    <inkscape:grid
       type="xygrid"
       id="grid2990"
       empspacing="5"
       visible="true"
       enabled="true"
       snapvisiblegridlinesonly="true" />
  </sodipodi:namedview>
  <metadata
     id="metadata7">
    <rdf:RDF>
      <cc:Work
         rdf:about="">
        <dc:format>image/svg+xml</dc:format>
        <dc:type
           rdf:resource="http://purl.org/dc/dcmitype/StillImage" />
        <dc:title />
      </cc:Work>
    </rdf:RDF>
  </metadata>
  <g
     inkscape:label="Body"
     inkscape:groupmode="layer"
     id="layer1"
     transform="translate(0,-1004.3622)">
    <rect
       style="fill:#757575;fill-opacity:1;stroke:none"
       id="rect3757"
       width="38"
       height="15"
       x="5"
       y="1014.3622" />
    <path
       style="fill:#757575;fill-opacity:1;stroke:none"
       d="m 10,1016.3622 c 0,-2 0,-4 2,-4 l 7,0 c 2,0 2,2 2,4 z"
       id="path3759"
       inkscape:connector-curvature="0"
       sodipodi:nodetypes="ccccc" />
    <path
       style="fill:#95989f;fill-opacity:1;stroke:none"
       d="m 9,1017.3622 31,0 0,7 -31,0 z"
       id="path3765"
       inkscape:connector-curvature="0" />
    <rect
       y="1016.3622"
       x="11"
       height="20"
       width="28"
       id="rect3763"
       style="fill:#d8d8da;fill-opacity:1;stroke:none" />
    <rect
       style="fill:#f9f9f9;fill-opacity:1;stroke:none"
       id="rect3761"
       width="28"
       height="20"
       x="10"
       y="1019.3622" />
    <path
       style="fill:#bdbdbd;fill-opacity:1;stroke:none"
       d="m 2,1020.3622 44,0 -4,24 -37,0 z"
       id="path2987"
       inkscape:connector-curvature="0"
       sodipodi:nodetypes="ccccc" />
    <path
       inkscape:connector-curvature="0"
       id="rect3408"
       style="opacity:1.0;fill:#7f7f7f;fill-opacity:1;stroke:none"
       d="m 23.261661,1030.3623 0.02213,0 c 0.195324,0 0.35257,0.1783 0.35257,0.3999 l 0,3.5999 c 0,0.2217 -0.157246,0.4001 -0.35257,0.4001 l -0.02213,0 c -0.195324,0 -0.35257,-0.1784 -0.35257,-0.4001 l 0,-3.5999 c 0,-0.2216 0.157246,-0.3999 0.35257,-0.3999 z M 22,1034.8622 a 2.9999998,3.4999968 0 0 1 -3,3.5 2.9999998,3.4999968 0 0 1 -3,-3.5 2.9999998,3.4999968 0 0 1 3,-3.5 2.9999998,3.4999968 0 0 1 3,3.5 z m 4,-4.5 a 4,3.9999966 0 0 1 -4,4 4,3.9999966 0 0 1 -4,-4 4,3.9999966 0 0 1 4,-4 4,3.9999966 0 0 1 4,4 z m 4,1.0001 a 2.9999999,2.9999975 0 0 1 -3,2.9999 2.9999999,2.9999975 0 0 1 -3,-2.9999 2.9999999,2.9999975 0 0 1 3,-3.0001 2.9999999,2.9999975 0 0 1 3,3.0001 z m 2,3.9999 a 2.9999998,2.9999975 0 0 1 -3,3 2.9999998,2.9999975 0 0 1 -3,-3 2.9999998,2.9999975 0 0 1 3,-3 2.9999998,2.9999975 0 0 1 3,3 z m -13.090909,-4.6 9.818182,0 0,7.6 -9.818182,0 z" />
  </g>
</svg>
