<!-- Created with Inkscape (http://www.inkscape.org/) -->
<svg xmlns="http://www.w3.org/2000/svg" viewBox="0 0 16 16">
 <g transform="translate(0,-1036.3622)">
  <g transform="translate(-8.6e-5,4.9997852)" style="opacity:0.5">
   <rect ry="1.094" rx="0.978" y="1039.36" x="1" height="6" width="9" style="fill:#1976d2;fill-opacity:1;stroke:none"/>
   <path d="m 1.978 1039.36 c -0.542 0 -0.978 0.557 -0.978 1.25 l 0 1 c 0 -0.693 0.436 -1.25 0.978 -1.25 l 7.04 0 c 0.542 0 0.978 0.557 0.978 1.25 l 0 -1 c 0 -0.693 -0.436 -1.25 -0.978 -1.25 z" style="fill:#fff;opacity:0.2;fill-opacity:1;stroke:none"/>
   <path d="m 1.978 1040.86 1.565 0 c 2.152 -0.222 1.761 -2.5 3.13 -2.5 l 2.348 0 c 0.542 0 0.978 0.496 0.978 1.111 l 0 4.778 c 0 0.616 -0.436 1.111 -0.978 1.111 l -7.04 0 c -0.542 0 -0.978 -0.496 -0.978 -1.111 l 0 -2.111 c 0 -0.667 0.391 -1.278 0.978 -1.278 z" style="fill:#42a5f5;fill-opacity:1;stroke:none"/>
   <path d="m 1 1043.31 0 0.945 c 0 0.616 0.436 1.111 0.978 1.111 l 7.04 0 c 0.542 0 0.978 -0.496 0.978 -1.111 l 0 -0.945 c 0 0.616 -0.436 1.056 -0.978 1.056 l -7.04 0 c -0.542 0 -0.978 -0.44 -0.978 -1.056 z" style="fill:#000;opacity:0.15;fill-opacity:1;stroke:none"/>
  </g>
  <rect width="9" height="6" x="5.978" y="1039.36" rx="0.978" ry="1.094" style="fill:#1976d2;fill-opacity:1;stroke:none"/>
  <path d="m 6.956 1039.36 c -0.542 0 -0.978 0.557 -0.978 1.25 l 0 1 c 0 -0.693 0.436 -1.25 0.978 -1.25 l 7.04 0 c 0.542 0 0.978 0.557 0.978 1.25 l 0 -1 c 0 -0.693 -0.436 -1.25 -0.978 -1.25 z" style="fill:#fff;opacity:0.2;fill-opacity:1;stroke:none"/>
  <path d="m 6.956 1040.86 1.565 0 c 2.152 -0.222 1.761 -2.5 3.13 -2.5 l 2.348 0 c 0.542 0 0.978 0.496 0.978 1.111 l 0 4.778 c 0 0.616 -0.436 1.111 -0.978 1.111 l -7.04 0 c -0.542 0 -0.978 -0.496 -0.978 -1.111 l 0 -2.111 c 0 -0.667 0.391 -1.278 0.978 -1.278 z" style="fill:#42a5f5;fill-opacity:1;stroke:none"/>
  <path d="m 5.978 1043.31 0 0.945 c 0 0.616 0.436 1.111 0.978 1.111 l 7.04 0 c 0.542 0 0.978 -0.496 0.978 -1.111 l 0 -0.945 c 0 0.616 -0.436 1.056 -0.978 1.056 l -7.04 0 c -0.542 0 -0.978 -0.44 -0.978 -1.056 z" style="fill:#000;opacity:0.15;fill-opacity:1;stroke:none"/>
  <path d="m 14 1045.36 -3 0 0 -3 -2 0 0 3 -3 0 0 2 3 0 0 3 2 0 0 -3 3 0 z" style="fill:#4caf50;fill-opacity:1"/>
 </g>
</svg>
