<?xml version="1.0" encoding="UTF-8" standalone="no"?>
<svg
   xmlns:dc="http://purl.org/dc/elements/1.1/"
   xmlns:cc="http://creativecommons.org/ns#"
   xmlns:rdf="http://www.w3.org/1999/02/22-rdf-syntax-ns#"
   xmlns:svg="http://www.w3.org/2000/svg"
   xmlns="http://www.w3.org/2000/svg"
   xmlns:sodipodi="http://sodipodi.sourceforge.net/DTD/sodipodi-0.dtd"
   xmlns:inkscape="http://www.inkscape.org/namespaces/inkscape"
   width="256"
   height="256"
   viewBox="0 0 204.8 204.8"
   version="1.1"
   id="svg3024"
   inkscape:version="0.91 r"
   sodipodi:docname="blue-folder-documents.svg">
  <metadata
     id="metadata3033">
    <rdf:RDF>
      <cc:Work
         rdf:about="">
        <dc:format>image/svg+xml</dc:format>
        <dc:type
           rdf:resource="http://purl.org/dc/dcmitype/StillImage" />
      </cc:Work>
    </rdf:RDF>
  </metadata>
  <defs
     id="defs3031" />
  <sodipodi:namedview
     pagecolor="#ffffff"
     bordercolor="#666666"
     borderopacity="1"
     objecttolerance="10"
     gridtolerance="10"
     guidetolerance="10"
     inkscape:pageopacity="0"
     inkscape:pageshadow="2"
     inkscape:window-width="1280"
     inkscape:window-height="998"
     id="namedview3029"
     showgrid="true"
     inkscape:zoom="2.085965"
     inkscape:cx="64.402356"
     inkscape:cy="124.81898"
     inkscape:window-x="0"
     inkscape:window-y="0"
     inkscape:window-maximized="1"
     inkscape:current-layer="svg3024">
    <inkscape:grid
       type="xygrid"
       id="grid3238"
       empspacing="5"
       visible="true"
       enabled="true"
       snapvisiblegridlinesonly="true" />
  </sodipodi:namedview>
  <g
     id="surface1"
     transform="scale(0.8,0.8)">
    <path
       inkscape:connector-curvature="0"
       style="fill:#42a5f5;fill-opacity:1;fill-rule:nonzero;stroke:none"
       d="m 24.25,40 c -4.519531,0.445312 -8.324219,4.710938 -8.25,9.25 l 0,157.5 c -0.05469,4.85937 4.390625,9.30469 9.25,9.25 l 205.5,0 c 4.85937,0.0547 9.30469,-4.39063 9.25,-9.25 l 0,-141.5 c 0.0547,-4.859375 -4.39063,-9.304688 -9.25,-9.25 l -78.75,0 0,-6.75 c 0.0547,-4.773438 -4.22656,-9.175781 -9,-9.25 L 25.25,40 c -0.332031,0 -0.667969,0 -1,0 z M 96,80 l 40,0 40,40 0,56 c 0,8.86328 -7.13672,16 -16,16 l -64,0 c -8.863281,0 -16,-7.13672 -16,-16 l 0,-80 c 0,-8.863281 7.136719,-16 16,-16 z m 0,16 0,80 64,0 0,-56 -24,0 0,-24 z m 10,32 28,0 c 1.10937,0 2,0.89062 2,2 l 0,4 c 0,1.10937 -0.89063,2 -2,2 l -28,0 c -1.10937,0 -2,-0.89063 -2,-2 l 0,-4 c 0,-1.10938 0.89063,-2 2,-2 z m 0,16 44,0 c 1.10937,0 2,0.89062 2,2 l 0,4 c 0,1.10937 -0.89063,2 -2,2 l -44,0 c -1.10937,0 -2,-0.89063 -2,-2 l 0,-4 c 0,-1.10938 0.89063,-2 2,-2 z m 0,16 44,0 c 1.10937,0 2,0.89062 2,2 l 0,4 c 0,1.10937 -0.89063,2 -2,2 l -44,0 c -1.10937,0 -2,-0.89063 -2,-2 l 0,-4 c 0,-1.10938 0.89063,-2 2,-2 z m 0,0"
       id="path3027" />
  </g>
</svg>
