<?xml version="1.0" encoding="UTF-8" standalone="no"?>
<svg
   xmlns:dc="http://purl.org/dc/elements/1.1/"
   xmlns:cc="http://creativecommons.org/ns#"
   xmlns:rdf="http://www.w3.org/1999/02/22-rdf-syntax-ns#"
   xmlns:svg="http://www.w3.org/2000/svg"
   xmlns="http://www.w3.org/2000/svg"
   xmlns:sodipodi="http://sodipodi.sourceforge.net/DTD/sodipodi-0.dtd"
   xmlns:inkscape="http://www.inkscape.org/namespaces/inkscape"
   width="256"
   height="256"
   viewBox="0 0 204.8 204.8"
   version="1.1"
   id="svg3105"
   inkscape:version="0.48.5 r10040"
   sodipodi:docname="folder-publicshare.svg">
  <metadata
     id="metadata3114">
    <rdf:RDF>
      <cc:Work
         rdf:about="">
        <dc:format>image/svg+xml</dc:format>
        <dc:type
           rdf:resource="http://purl.org/dc/dcmitype/StillImage" />
      </cc:Work>
    </rdf:RDF>
  </metadata>
  <defs
     id="defs3112" />
  <sodipodi:namedview
     pagecolor="#ffffff"
     bordercolor="#666666"
     borderopacity="1"
     objecttolerance="10"
     gridtolerance="10"
     guidetolerance="10"
     inkscape:pageopacity="0"
     inkscape:pageshadow="2"
     inkscape:window-width="1280"
     inkscape:window-height="998"
     id="namedview3110"
     showgrid="true"
     inkscape:zoom="2.085965"
     inkscape:cx="104.73877"
     inkscape:cy="185.59245"
     inkscape:window-x="0"
     inkscape:window-y="0"
     inkscape:window-maximized="1"
     inkscape:current-layer="svg3105">
    <inkscape:grid
       type="xygrid"
       id="grid3519"
       empspacing="5"
       visible="true"
       enabled="true"
       snapvisiblegridlinesonly="true" />
  </sodipodi:namedview>
  <g
     id="surface1"
     transform="scale(0.8,0.8)">
    <path
       inkscape:connector-curvature="0"
       style="fill:#c4905e;fill-opacity:1;fill-rule:nonzero;stroke:none"
       d="m 24.25,40 c -4.519531,0.445312 -8.324219,4.710938 -8.25,9.25 l 0,157.5 c -0.05469,4.85937 4.390625,9.30469 9.25,9.25 l 205.5,0 c 4.85937,0.0547 9.30469,-4.39063 9.25,-9.25 l 0,-141.5 c 0.0547,-4.859375 -4.39063,-9.304688 -9.25,-9.25 l -78.75,0 0,-6.75 c 0.0547,-4.773438 -4.22656,-9.175781 -9,-9.25 L 25.25,40 c -0.332031,-0.01953 -0.667969,-0.01953 -1,0 z m 119.125,48 c 11.23437,0 20.5,8.792969 20.5,19.75 -0.125,3.83203 -0.21484,8.02734 -2.625,18.5 -0.44531,1.37109 -1.24609,2.83594 -2.375,4.375 -1.01172,1.38281 -2.31641,2.8125 -3.5,4.25 -0.25781,2.62891 -0.24609,5.37109 0,8 3.27734,2.75391 9.26172,5.30078 14.75,7.625 2.82422,1.19531 5.44922,2.30859 7.5,3.625 1.02734,0.66016 1.92578,1.28906 2.625,2.125 0.65234,0.78516 1.05859,1.78516 1.125,2.875 0.004,0.0703 0,0.17969 0,0.25 l 2.625,19.25 0,0.25 c 0,2.38672 -1.55078,4.32422 -3.75,5.875 -2.19922,1.55078 -5.24219,2.79297 -8.875,3.875 -7.26172,2.16797 -17.11719,3.375 -28,3.375 -10.88281,0 -20.73828,-1.20703 -28,-3.375 -3.63281,-1.08203 -6.55078,-2.32422 -8.75,-3.875 -2.19922,-1.55078 -3.75,-3.48828 -3.75,-5.875 l 0,-0.25 2.375,-19.25 c 0,-0.10938 0.24219,-0.14063 0.25,-0.25 0.13672,-2.28125 1.53516,-4.03906 3.5,-5.375 2.05859,-1.40234 4.67578,-2.46875 7.5,-3.625 5.41797,-2.21875 11.41406,-4.64844 14.75,-7.25 0.43359,-3.05469 0.375,-5.53125 0,-8.375 -1.21875,-1.34766 -2.50781,-2.84766 -3.5,-4.125 -1.10937,-1.42578 -1.69531,-2.79297 -2.125,-4.125 l -0.25,0 c -2.14062,-10.05859 -2.41797,-14.74219 -2.5,-18.5 0,-10.957031 9.26562,-19.75 20.5,-19.75 z m -38.125,3.625 c 4.18359,0 8.17969,1.707031 11.125,4.125 l 0.875,0.375 -0.5,1 c -0.53125,1.675781 -0.875,3.47266 -0.875,5 0.082,3.63672 0.26172,7.6875 2.375,17.625 0.3125,0.96484 0.30859,1.75 0.5,2.875 l 0.25,0.5 -0.25,0.5 c -0.56641,1.375 -1.82031,3.79688 -3.5,6.125 -0.008,0.0703 0.008,0.0547 0,0.125 -0.22656,2.23047 -0.21484,4.63672 0,6.875 1.10156,0.88672 2.375,1.875 4.125,2.75 l 2.5,1.125 -2.5,1.25 c -4.42578,2.36719 -9.88281,4.17969 -14.25,6.125 -2.18359,0.97266 -4.14062,2.01562 -5.375,3 -1.234375,0.98437 -1.753906,1.96094 -1.75,2.75 L 95.625,173 c 0,0.0703 0.0039,0.17969 0,0.25 -0.02344,0.50391 -0.08594,1.00781 -0.25,1.5 -0.09375,0.28125 -0.28125,0.6875 -0.5,1 -0.109375,0.15234 -0.371094,0.20703 -0.625,0.375 -0.207031,0.13281 -0.535156,0.25 -0.875,0.25 l -0.25,0 c -6.230469,-0.66016 -11.386719,-1.75781 -15,-3.375 -1.832031,-0.82031 -3.296875,-1.89063 -4.375,-3 C 72.671875,168.89062 72,167.59766 72,166.125 L 72,166 74.25,150.25 c 0,-0.11328 0.117188,-0.0156 0.125,-0.125 0.136719,-1.84375 1.277344,-3.54297 2.875,-4.625 1.6875,-1.14453 3.6875,-1.93359 6,-2.875 4.464844,-1.8125 9.398438,-3.72656 12.125,-5.875 0.335938,-2.44531 0.296875,-4.72266 0,-7 -0.976562,-1.08594 -2.066406,-2.46484 -2.875,-3.5 -0.925781,-1.18359 -1.640625,-2.02344 -2,-3.125 l 0,-0.25 c -1.753906,-8.25391 -1.933594,-11.79297 -2,-14.875 0,-8.992188 7.523438,-16.375 16.75,-16.375 z m 0,0"
       id="path3108" />
  </g>
</svg>
