<?xml version="1.0" encoding="UTF-8" standalone="no"?>
<svg
   xmlns:dc="http://purl.org/dc/elements/1.1/"
   xmlns:cc="http://creativecommons.org/ns#"
   xmlns:rdf="http://www.w3.org/1999/02/22-rdf-syntax-ns#"
   xmlns:svg="http://www.w3.org/2000/svg"
   xmlns="http://www.w3.org/2000/svg"
   xmlns:sodipodi="http://sodipodi.sourceforge.net/DTD/sodipodi-0.dtd"
   xmlns:inkscape="http://www.inkscape.org/namespaces/inkscape"
   width="256"
   height="256"
   viewBox="0 0 204.8 204.8"
   version="1.1"
   id="svg3070"
   inkscape:version="0.48.5 r10040"
   sodipodi:docname="folder-music.svg">
  <metadata
     id="metadata3079">
    <rdf:RDF>
      <cc:Work
         rdf:about="">
        <dc:format>image/svg+xml</dc:format>
        <dc:type
           rdf:resource="http://purl.org/dc/dcmitype/StillImage" />
      </cc:Work>
    </rdf:RDF>
  </metadata>
  <defs
     id="defs3077" />
  <sodipodi:namedview
     pagecolor="#ffffff"
     bordercolor="#666666"
     borderopacity="1"
     objecttolerance="10"
     gridtolerance="10"
     guidetolerance="10"
     inkscape:pageopacity="0"
     inkscape:pageshadow="2"
     inkscape:window-width="1280"
     inkscape:window-height="998"
     id="namedview3075"
     showgrid="true"
     inkscape:zoom="2.085965"
     inkscape:cx="230.65331"
     inkscape:cy="120.45439"
     inkscape:window-x="0"
     inkscape:window-y="0"
     inkscape:window-maximized="1"
     inkscape:current-layer="svg3070">
    <inkscape:grid
       type="xygrid"
       id="grid3560"
       empspacing="5"
       visible="true"
       enabled="true"
       snapvisiblegridlinesonly="true" />
  </sodipodi:namedview>
  <g
     id="surface1"
     transform="scale(0.8,0.8)">
    <path
       inkscape:connector-curvature="0"
       style="fill:#f06292;fill-opacity:1;fill-rule:nonzero;stroke:none"
       d="m 24.25,40 c -4.519531,0.445312 -8.324219,4.710938 -8.25,9.25 l 0,157.5 c -0.05469,4.85937 4.390625,9.30469 9.25,9.25 l 205.5,0 c 4.85937,0.0547 9.30469,-4.39063 9.25,-9.25 l 0,-141.5 c 0.0547,-4.859375 -4.39063,-9.304688 -9.25,-9.25 l -78.75,0 0,-6.75 c 0.0547,-4.773438 -4.22656,-9.175781 -9,-9.25 L 25.25,40 c -0.332031,0 -0.667969,0 -1,0 z m 87.75,48 48,0 c 8.86328,0 16,6.988281 16,15.625 0.008,0.12891 0,0.24609 0,0.375 l 0,64 c 0,8.83594 -7.16406,16 -16,16 -8.83594,0 -16,-7.16406 -16,-16 0,-8.83594 7.16406,-16 16,-16 l 0,-32 -48,0 0,48 c 0,0.63672 -0.17578,1.25391 -0.25,1.875 C 110.81641,177.82031 104.19922,184 96,184 c -8.835938,0 -16,-7.16406 -16,-16 0,-8.83594 7.164062,-16 16,-16 l 0,-44 c 0,-0.65234 0.109375,-1.26953 0.25,-1.875 -0.07031,-0.58984 -0.25,-1.14453 -0.25,-1.75 l 0,-0.75 C 96,94.988281 103.13672,88 112,88 z m 0,0"
       id="path3073" />
  </g>
</svg>
