<?xml version="1.0" encoding="UTF-8" standalone="no"?>
<!-- Created with Inkscape (http://www.inkscape.org/) -->

<svg
   xmlns:dc="http://purl.org/dc/elements/1.1/"
   xmlns:cc="http://creativecommons.org/ns#"
   xmlns:rdf="http://www.w3.org/1999/02/22-rdf-syntax-ns#"
   xmlns:svg="http://www.w3.org/2000/svg"
   xmlns="http://www.w3.org/2000/svg"
   xmlns:xlink="http://www.w3.org/1999/xlink"
   xmlns:sodipodi="http://sodipodi.sourceforge.net/DTD/sodipodi-0.dtd"
   xmlns:inkscape="http://www.inkscape.org/namespaces/inkscape"
   width="256"
   height="256"
   id="svg2"
   version="1.1"
   inkscape:version="0.48.5 r10040"
   sodipodi:docname="folder-project.svg"
   inkscape:export-filename="/media/Data/Main/Visuals/Icons/Numix/Desktop/repos/numix-wiki/Gjorgi/Numix-folders/48/New/folder-144.png"
   inkscape:export-xdpi="270"
   inkscape:export-ydpi="270">
  <defs
     id="defs4">
    <linearGradient
       inkscape:collect="always"
       id="linearGradient3958">
      <stop
         style="stop-color:#000000;stop-opacity:1;"
         offset="0"
         id="stop3960" />
      <stop
         style="stop-color:#000000;stop-opacity:0;"
         offset="1"
         id="stop3962" />
    </linearGradient>
    <radialGradient
       inkscape:collect="always"
       xlink:href="#linearGradient3958"
       id="radialGradient3964"
       cx="32.5"
       cy="56.5"
       fx="32.5"
       fy="56.5"
       r="33.5"
       gradientTransform="matrix(1,0,0,0.10447761,0,50.597015)"
       gradientUnits="userSpaceOnUse" />
  </defs>
  <sodipodi:namedview
     id="base"
     pagecolor="#ffffff"
     bordercolor="#666666"
     borderopacity="1.0"
     inkscape:pageopacity="0.0"
     inkscape:pageshadow="2"
     inkscape:zoom="2.6377683"
     inkscape:cx="164.4656"
     inkscape:cy="131.10656"
     inkscape:document-units="px"
     inkscape:current-layer="layer1"
     showgrid="true"
     inkscape:window-width="1280"
     inkscape:window-height="998"
     inkscape:window-x="0"
     inkscape:window-y="0"
     inkscape:window-maximized="1"
     showguides="true"
     inkscape:guide-bbox="true">
    <inkscape:grid
       type="xygrid"
       id="grid2985"
       empspacing="5"
       visible="true"
       enabled="true"
       snapvisiblegridlinesonly="true" />
  </sodipodi:namedview>
  <metadata
     id="metadata7">
    <rdf:RDF>
      <cc:Work
         rdf:about="">
        <dc:format>image/svg+xml</dc:format>
        <dc:type
           rdf:resource="http://purl.org/dc/dcmitype/StillImage" />
        <dc:title />
      </cc:Work>
    </rdf:RDF>
  </metadata>
  <g
     inkscape:label="Layer 1"
     inkscape:groupmode="layer"
     id="layer1"
     transform="translate(0,-796.3622)">
    <path
       style="font-size:medium;font-style:normal;font-variant:normal;font-weight:normal;font-stretch:normal;text-indent:0;text-align:start;text-decoration:none;line-height:normal;letter-spacing:normal;word-spacing:normal;text-transform:none;direction:ltr;block-progression:tb;writing-mode:lr-tb;text-anchor:start;baseline-shift:baseline;color:#000000;fill:#ef5350;fill-opacity:1;fill-rule:nonzero;stroke:none;stroke-width:2.28612947;marker:none;visibility:visible;display:inline;overflow:visible;enable-background:accumulate;font-family:Sans;-inkscape-font-specification:Sans"
       d="m 24.250994,836.36278 c -4.517628,0.4436 -8.323592,4.71064 -8.249942,9.24994 l 0,157.49888 c -0.056,4.8584 4.391668,9.3056 9.249934,9.25 l 205.498554,0 c 4.85828,0.056 9.3058,-4.3916 9.24994,-9.25 l 0,-141.499 c 0.056,-4.85836 -4.39166,-9.30554 -9.24994,-9.24994 l -78.74945,0 0,-6.74994 c 0.055,-4.7757 -4.2251,-9.17394 -8.99993,-9.24994 l -117.749174,0 c -0.332996,0 -0.666994,-4e-4 -0.999992,0 z m 64.999541,55.62492 c 3.08342,-0.048 6.204358,0.344 9.249936,0.6248 14.830419,1.68078 29.569109,7.45434 40.499719,17.87508 3.38473,-0.64 6.81711,-1.448 10.24992,-2 5.06193,-0.66718 10.21773,1.5764 13.49991,5.49998 4.06545,5.03596 8.12602,9.92872 12.12491,14.99988 2.03819,2.65038 0.629,6.96876 -2.62498,7.62476 -5.49796,0.99438 -11.13892,1.77158 -16.62488,2.74998 0.33052,4.49756 -0.67764,9.13474 -3.37498,12.74994 -3.02642,4.2384 -8.12194,6.7432 -13.2499,7.3752 -0.15192,3.8766 0.22999,7.8234 0.24999,11.7498 -0.0264,1.864 0.37036,3.7968 -0.125,5.6248 -0.81411,2.7784 -4.4062,4.3752 -6.99995,3 -5.63444,-2.9064 -11.28,-5.6776 -16.87488,-8.6248 -4.71412,-2.5192 -7.87474,-7.5312 -7.99994,-12.875 -0.004,-3.0576 -0.0616,-6.326 0,-9.3748 0.15632,-0.7304 -0.44892,-0.842 -0.875,-1.25 -11.623953,-8.75914 -19.605577,-21.73906 -23.874827,-35.49976 -1.678308,-5.99836 -3.172498,-12.4907 -2.249984,-18.74986 2.9341,-1.0184 5.916518,-1.2792 8.999936,-1.3752 l 0,-0.124 z m 18.499865,11.49992 c -3.58281,0.328 -7.1427,2.01758 -9.624927,4.99996 -4.964524,5.96876 -3.962172,14.9075 1.999987,19.87466 5.9622,4.96958 14.78537,3.96638 19.74986,-1.99998 4.96448,-5.96716 3.96217,-14.7803 -1.99999,-19.74986 -2.9811,-2.48318 -6.54207,-3.44518 -10.12493,-3.12478 z m 1.62499,6.24996 c 4.41825,0 7.99995,3.58158 7.99995,7.99994 0,4.41798 -3.5817,7.99994 -7.99995,7.99994 -4.41824,0 -7.99994,-3.58196 -7.99994,-7.99994 0,-4.41836 3.5817,-7.99994 7.99994,-7.99994 z M 165,946.36212 c 0.40896,0.04 0.9,0.22 1.24999,0.5 2.9931,2.4688 6.04524,4.8888 8.99994,7.3752 1.48571,1.1896 0.69844,3.89 -1.12499,4.25 -1.47315,0.232 -2.89402,0.324 -4.37497,0.5 1.46919,3.415 2.94414,6.6918 4.37497,10.1246 0.69407,1.6264 -0.91944,3.7272 -2.62498,3.3752 -3.6193,-0.8016 -7.21723,-1.8412 -10.87493,-2.6252 0.1344,1.472 0.3286,3.1324 0.375,4.6252 -0.024,1.8232 -1.93963,3.0964 -3.37498,1.8748 -2.94986,-2.4336 -6.31207,-5.3012 -9.24993,-7.75 -1.43167,-1.1432 -0.99299,-3.448 0.74999,-4 6.69392,-2.8344 11.68648,-9.0134 13.24991,-16.1246 0.17724,-1.284 1.39827,-2.2372 2.62498,-2.1252 z"
       id="path3912"
       inkscape:connector-curvature="0" />
  </g>
</svg>
