<?xml version="1.0" encoding="UTF-8" standalone="no"?>
<svg
   xmlns:dc="http://purl.org/dc/elements/1.1/"
   xmlns:cc="http://creativecommons.org/ns#"
   xmlns:rdf="http://www.w3.org/1999/02/22-rdf-syntax-ns#"
   xmlns:svg="http://www.w3.org/2000/svg"
   xmlns="http://www.w3.org/2000/svg"
   xmlns:sodipodi="http://sodipodi.sourceforge.net/DTD/sodipodi-0.dtd"
   xmlns:inkscape="http://www.inkscape.org/namespaces/inkscape"
   width="256"
   height="256"
   viewBox="0 0 204.8 204.8"
   version="1.1"
   id="svg3149"
   inkscape:version="0.91 r"
   sodipodi:docname="red-folder-templates.svg">
  <metadata
     id="metadata3158">
    <rdf:RDF>
      <cc:Work
         rdf:about="">
        <dc:format>image/svg+xml</dc:format>
        <dc:type
           rdf:resource="http://purl.org/dc/dcmitype/StillImage" />
      </cc:Work>
    </rdf:RDF>
  </metadata>
  <defs
     id="defs3156" />
  <sodipodi:namedview
     pagecolor="#ffffff"
     bordercolor="#666666"
     borderopacity="1"
     objecttolerance="10"
     gridtolerance="10"
     guidetolerance="10"
     inkscape:pageopacity="0"
     inkscape:pageshadow="2"
     inkscape:window-width="1280"
     inkscape:window-height="998"
     id="namedview3154"
     showgrid="true"
     inkscape:zoom="3.63125"
     inkscape:cx="112.78861"
     inkscape:cy="133.8509"
     inkscape:window-x="0"
     inkscape:window-y="0"
     inkscape:window-maximized="1"
     inkscape:current-layer="svg3149">
    <inkscape:grid
       type="xygrid"
       id="grid3451"
       empspacing="5"
       visible="true"
       enabled="true"
       snapvisiblegridlinesonly="true" />
  </sodipodi:namedview>
  <g
     id="surface1"
     transform="scale(0.8,0.8)">
    <path
       inkscape:connector-curvature="0"
       style="fill:#ef5350;fill-opacity:1;fill-rule:nonzero;stroke:none"
       d="m 24.25,40 c -4.519531,0.445312 -8.324219,4.710938 -8.25,9.25 l 0,157.5 c -0.05469,4.85937 4.390625,9.30469 9.25,9.25 l 205.5,0 c 4.85937,0.0547 9.30469,-4.39063 9.25,-9.25 l 0,-141.5 c 0.0547,-4.859375 -4.39063,-9.304688 -9.25,-9.25 l -78.75,0 0,-6.75 c 0.0547,-4.773438 -4.22656,-9.175781 -9,-9.25 L 25.25,40 c -0.332031,-0.01953 -0.667969,-0.01953 -1,0 z M 84,84 l 16,0 0,16 -8,0 0,8 -16,0 0,-16 c 0,-7.695312 8,-8 8,-8 z m 24,0 16,0 0,16 -16,0 z m 24,0 16,0 0,16 -16,0 z m 24,0 16,0 c 0,0 8,0 8,8 l 0,16 -16,0 0,-8 -8,0 z m -80,32 16,0 0,16 -16,0 z m 88,0 16,0 0,16 -16,0 z m -88,24 16,0 0,16 -16,0 z m 88,0 16,0 0,16 -16,0 z m -88,24 16,0 0,8 8,0 0,16 -16,0 c 0,0 -8,0 -8,-8 z m 88,0 16,0 0,16 c 0,8 -8,8 -8,8 l -16,0 0,-16 8,0 z m -56,8 16,0 0,16 -16,0 z m 24,0 16,0 0,16 -16,0 z m 0,0"
       id="path3152" />
  </g>
</svg>
