<?xml version="1.0" encoding="UTF-8" standalone="no"?>
<!-- Created with Inkscape (http://www.inkscape.org/) -->

<svg
   xmlns:dc="http://purl.org/dc/elements/1.1/"
   xmlns:cc="http://creativecommons.org/ns#"
   xmlns:rdf="http://www.w3.org/1999/02/22-rdf-syntax-ns#"
   xmlns:svg="http://www.w3.org/2000/svg"
   xmlns="http://www.w3.org/2000/svg"
   xmlns:xlink="http://www.w3.org/1999/xlink"
   xmlns:sodipodi="http://sodipodi.sourceforge.net/DTD/sodipodi-0.dtd"
   xmlns:inkscape="http://www.inkscape.org/namespaces/inkscape"
   width="48"
   height="48"
   id="svg2"
   version="1.1"
   inkscape:version="0.48.5 r10040"
   sodipodi:docname="folder-recent.svg">
  <defs
     id="defs4">
    <linearGradient
       id="linearGradient3855">
      <stop
         style="stop-color:#000000;stop-opacity:1;"
         offset="0"
         id="stop3857" />
      <stop
         style="stop-color:#000000;stop-opacity:0.29411766;"
         offset="1"
         id="stop3859" />
    </linearGradient>
    <linearGradient
       id="linearGradient3833">
      <stop
         id="stop3835"
         offset="0"
         style="stop-color:#fdfeff;stop-opacity:1;" />
      <stop
         id="stop3837"
         offset="1"
         style="stop-color:#dfe4e4;stop-opacity:1;" />
    </linearGradient>
    <linearGradient
       id="linearGradient3823">
      <stop
         style="stop-color:#49b7ef;stop-opacity:1;"
         offset="0"
         id="stop3825" />
      <stop
         style="stop-color:#1d8de2;stop-opacity:1;"
         offset="1"
         id="stop3827" />
    </linearGradient>
    <linearGradient
       id="linearGradient3956">
      <stop
         style="stop-color:#f8f4e1;stop-opacity:1;"
         offset="0"
         id="stop3958" />
      <stop
         style="stop-color:#eae5c8;stop-opacity:1;"
         offset="1"
         id="stop3960" />
    </linearGradient>
    <linearGradient
       id="linearGradient3915">
      <stop
         style="stop-color:#f8f4e1;stop-opacity:1;"
         offset="0"
         id="stop3917" />
      <stop
         style="stop-color:#ad9e57;stop-opacity:1;"
         offset="1"
         id="stop3919" />
    </linearGradient>
    <linearGradient
       inkscape:collect="always"
       id="linearGradient3861">
      <stop
         style="stop-color:#000000;stop-opacity:1;"
         offset="0"
         id="stop3863" />
      <stop
         style="stop-color:#000000;stop-opacity:0;"
         offset="1"
         id="stop3865" />
    </linearGradient>
    <linearGradient
       id="linearGradient3844">
      <stop
         style="stop-color:#000000;stop-opacity:0.39215687;"
         offset="0"
         id="stop3846" />
      <stop
         style="stop-color:#000000;stop-opacity:0;"
         offset="1"
         id="stop3848" />
    </linearGradient>
    <linearGradient
       id="linearGradient3810">
      <stop
         style="stop-color:#f2c66f;stop-opacity:1;"
         offset="0"
         id="stop3812" />
      <stop
         style="stop-color:#fbd68f;stop-opacity:1;"
         offset="1"
         id="stop3814" />
    </linearGradient>
    <linearGradient
       inkscape:collect="always"
       xlink:href="#linearGradient3810"
       id="linearGradient3816"
       x1="24"
       y1="1046.3622"
       x2="24"
       y2="1014.3622"
       gradientUnits="userSpaceOnUse" />
    <radialGradient
       inkscape:collect="always"
       xlink:href="#linearGradient3844"
       id="radialGradient3850"
       cx="24.075672"
       cy="41.38316"
       fx="24.075672"
       fy="41.38316"
       r="21.075672"
       gradientTransform="matrix(1,0,0,0.11307633,0,36.703704)"
       gradientUnits="userSpaceOnUse" />
    <linearGradient
       inkscape:collect="always"
       xlink:href="#linearGradient3810"
       id="linearGradient3856"
       gradientUnits="userSpaceOnUse"
       x1="24"
       y1="1046.3622"
       x2="24"
       y2="1014.3622"
       gradientTransform="translate(0,-3)" />
    <linearGradient
       inkscape:collect="always"
       xlink:href="#linearGradient3810"
       id="linearGradient3858"
       gradientUnits="userSpaceOnUse"
       x1="24"
       y1="1046.3622"
       x2="24"
       y2="1014.3622"
       gradientTransform="translate(0,-1004.3622)" />
    <linearGradient
       inkscape:collect="always"
       xlink:href="#linearGradient3861"
       id="linearGradient3867"
       x1="1.9952808"
       y1="28.5625"
       x2="46.004719"
       y2="28.5625"
       gradientUnits="userSpaceOnUse" />
    <linearGradient
       inkscape:collect="always"
       xlink:href="#linearGradient3915"
       id="linearGradient3921"
       x1="35"
       y1="8"
       x2="38"
       y2="5"
       gradientUnits="userSpaceOnUse" />
    <linearGradient
       inkscape:collect="always"
       xlink:href="#linearGradient3915"
       id="linearGradient3933"
       gradientUnits="userSpaceOnUse"
       x1="35"
       y1="8"
       x2="38"
       y2="5"
       gradientTransform="matrix(1.0436562,0,0,1.2222222,26.301501,1003.2511)" />
    <linearGradient
       inkscape:collect="always"
       xlink:href="#linearGradient3915"
       id="linearGradient3954"
       x1="35"
       y1="11"
       x2="44"
       y2="5"
       gradientUnits="userSpaceOnUse"
       gradientTransform="translate(22,1004.3622)" />
    <linearGradient
       inkscape:collect="always"
       xlink:href="#linearGradient3823"
       id="linearGradient3829"
       x1="21"
       y1="14"
       x2="20"
       y2="24"
       gradientUnits="userSpaceOnUse" />
    <linearGradient
       inkscape:collect="always"
       xlink:href="#linearGradient3833"
       id="linearGradient3839"
       gradientUnits="userSpaceOnUse"
       x1="21"
       y1="14"
       x2="20"
       y2="26" />
    <linearGradient
       inkscape:collect="always"
       xlink:href="#linearGradient3855"
       id="linearGradient3862"
       x1="22"
       y1="15"
       x2="20"
       y2="30"
       gradientUnits="userSpaceOnUse" />
    <radialGradient
       r="24"
       fy="40.5"
       fx="24"
       cy="40.5"
       cx="24"
       gradientTransform="matrix(1.25,0,0,0.20833327,-6,1035.9247)"
       gradientUnits="userSpaceOnUse"
       id="radialGradient3102"
       xlink:href="#linearGradient3886"
       inkscape:collect="always" />
    <linearGradient
       id="linearGradient3886">
      <stop
         style="stop-color:#000000;stop-opacity:1;"
         offset="0"
         id="stop3888" />
      <stop
         style="stop-color:#000000;stop-opacity:0.19607843;"
         offset="1"
         id="stop3890" />
    </linearGradient>
    <radialGradient
       r="24"
       fy="40.5"
       fx="24"
       cy="40.5"
       cx="24"
       gradientTransform="matrix(1.25,0,0,0.20833327,-6,1035.9247)"
       gradientUnits="userSpaceOnUse"
       id="radialGradient3963"
       xlink:href="#linearGradient3886"
       inkscape:collect="always" />
  </defs>
  <sodipodi:namedview
     id="base"
     pagecolor="#ffffff"
     bordercolor="#666666"
     borderopacity="1.0"
     inkscape:pageopacity="0.0"
     inkscape:pageshadow="2"
     inkscape:zoom="16"
     inkscape:cx="15.666168"
     inkscape:cy="16.968465"
     inkscape:document-units="px"
     inkscape:current-layer="layer1"
     showgrid="true"
     inkscape:window-width="1280"
     inkscape:window-height="998"
     inkscape:window-x="0"
     inkscape:window-y="0"
     inkscape:window-maximized="1">
    <inkscape:grid
       type="xygrid"
       id="grid2990"
       empspacing="5"
       visible="true"
       enabled="true"
       snapvisiblegridlinesonly="true" />
  </sodipodi:namedview>
  <metadata
     id="metadata7">
    <rdf:RDF>
      <cc:Work
         rdf:about="">
        <dc:format>image/svg+xml</dc:format>
        <dc:type
           rdf:resource="http://purl.org/dc/dcmitype/StillImage" />
        <dc:title />
      </cc:Work>
    </rdf:RDF>
  </metadata>
  <g
     inkscape:label="Body"
     inkscape:groupmode="layer"
     id="layer1"
     transform="translate(0,-1004.3622)">
    <path
       inkscape:connector-curvature="0"
       style="opacity:0.1;fill:url(#radialGradient3963);fill-opacity:1;stroke:none"
       d="m 24,1039.3622 c -9.826549,0 -18.5279703,0.7831 -24,2 l 0,6 c 5.4720297,1.2169 14.173451,2 24,2 9.826549,0 18.52797,-0.7831 24,-2 l 0,-6 c -5.47203,-1.2169 -14.173451,-2 -24,-2 z"
       id="path3868" />
    <rect
       style="fill:#5d4037;fill-opacity:1;stroke:none"
       id="rect2987"
       width="46"
       height="32.000019"
       x="1"
       y="1014.3622"
       rx="5"
       ry="5" />
    <path
       style="opacity:0.2;fill:#ffffff;fill-opacity:1;stroke:none"
       d="m 6,1014.3622 c -2.77,0 -5,2.23 -5,5 l 0,2 c 0,-2.77 2.23,-5 5,-5 l 36,0 c 2.77,0 5,2.23 5,5 l 0,-2 c 0,-2.77 -2.23,-5 -5,-5 l -36,0 z"
       id="rect3797"
       inkscape:connector-curvature="0" />
    <path
       style="fill:#8d6e63;fill-opacity:1;stroke:none"
       d="m 6,1022.3622 8,0 c 11,-1 9,-12 16,-12 l 12,0 c 2.77,0 5,2.23 5,5 l 0,26 c 0,2.77 -2.23,5 -5,5 l -36,0 c -2.77,0 -5,-2.23 -5,-5 l 0,-14 c 0,-3 2,-5 5,-5 z"
       id="rect3776"
       inkscape:connector-curvature="0"
       sodipodi:nodetypes="cccsssssscc" />
    <path
       style="opacity:0.15;fill:#000000;fill-opacity:1;stroke:none"
       d="m 1,1039.3622 0,2 c 0,2.77 2.23,5 5,5 l 36,0 c 2.77,0 5,-2.23 5,-5 l 0,-2 c 0,2.77 -2.23,5 -5,5 l -36,0 c -2.77,0 -5,-2.23 -5,-5 z"
       id="path3786"
       inkscape:connector-curvature="0" />
    <path
       sodipodi:nodetypes="ccccssssccssssccccccccccccccccccccsccccc"
       inkscape:connector-curvature="0"
       style="line-height:normal;color:#000000;fill:#000000;fill-opacity:0.09803922"
       d="m 7.0000001,1027.3622 0,4 3.9999999,0 -1.253905,-1.1289 c 0.894809,-0.7025 2.028252,-1.1211 3.253905,-1.1211 2.899495,0 5.250001,2.3505 5.250001,5.25 0,2.8995 -2.350506,5.25 -5.250001,5.25 -2.899494,0 -5.2499989,-2.3505 -5.2499989,-5.25 0,-0.6131 0.1568446,-1.453 0.3500147,-2 l -1.8320314,0 c -0.1432419,0.558 -0.2679834,1.3973 -0.2679834,2 0,3.866 3.1340069,7 6.999999,7 3.865994,0 7.000001,-3.134 7.000001,-7 0,-3.866 -3.134007,-7 -7.000001,-7 -1.712262,0 -3.2954194,0.5923 -4.5117176,1.6132 z m 5.9179699,2.5976 c -0.03699,0.01 -0.07355,0.016 -0.109375,0.027 -0.39126,0.088 -0.693246,0.4742 -0.683594,0.875 l 0,3.2266 c -0.0013,0.027 -0.0013,0.055 0,0.082 -0.05069,0.2218 -0.0105,0.4629 0.109375,0.6562 0.0089,0.01 0.01803,0.018 0.02734,0.027 0.0085,0.018 0.01761,0.036 0.02734,0.054 0.0089,0.01 0.01803,0.018 0.02734,0.027 0.0089,0.01 0.01803,0.018 0.02734,0.027 0.0089,0.01 0.01803,0.018 0.02734,0.027 0.0089,0.01 0.01803,0.018 0.02734,0.027 0.01791,0.01 0.03615,0.019 0.05469,0.027 0.0089,0.01 0.01803,0.018 0.02734,0.027 0.0089,0.01 0.01803,0.018 0.02734,0.027 0.01791,0.01 0.03615,0.019 0.05469,0.027 0.03514,0.021 0.07172,0.039 0.109375,0.054 l 2.160156,1.2578 c 0.401043,0.2329 0.978386,0.078 1.208489,-0.325 0.230103,-0.4027 0.07078,-0.9789 -0.333489,-1.2062 l -1.832031,-1.0665 0,-2.9804 c 0.0177,-0.4958 -0.463099,-0.9492 -0.957031,-0.9024 z"
       id="path3837" />
    <path
       id="path4105"
       d="m 7,1026.3622 0,4 4,0 -1.2539053,-1.1289 c 0.8948093,-0.7025 2.0282523,-1.1211 3.2539053,-1.1211 2.899494,0 5.25,2.3505 5.25,5.25 0,2.8995 -2.350506,5.25 -5.25,5.25 -2.899494,0 -5.249999,-2.3505 -5.249999,-5.25 0,-0.6131 0.1568446,-1.453 0.3500146,-2 l -1.8320312,0 c -0.1432419,0.558 -0.2679834,1.3973 -0.2679834,2 0,3.866 3.1340067,7 6.999999,7 3.865993,0 7,-3.134 7,-7 0,-3.866 -3.134007,-7 -7,-7 -1.712262,0 -3.2954197,0.5923 -4.5117178,1.6132 z m 5.91797,2.5976 c -0.03699,0.01 -0.07355,0.016 -0.109375,0.027 -0.39126,0.088 -0.693246,0.4742 -0.683594,0.875 l 0,3.2266 c -0.0013,0.027 -0.0013,0.055 0,0.082 -0.05069,0.2218 -0.0105,0.4629 0.109375,0.6562 0.0089,0.01 0.01803,0.018 0.02734,0.027 0.0085,0.018 0.01761,0.036 0.02734,0.054 0.0089,0.01 0.01803,0.018 0.02734,0.027 0.0089,0.01 0.01803,0.018 0.02734,0.027 0.0089,0.01 0.01803,0.018 0.02734,0.027 0.0089,0.01 0.01803,0.018 0.02734,0.027 0.01791,0.01 0.03615,0.019 0.05469,0.027 0.0089,0.01 0.01803,0.018 0.02734,0.027 0.0089,0.01 0.01803,0.018 0.02734,0.027 0.01791,0.01 0.03615,0.019 0.05469,0.027 0.03514,0.021 0.07172,0.039 0.109375,0.054 l 2.160155,1.2578 c 0.401043,0.2329 0.978386,0.078 1.208489,-0.325 0.230103,-0.4027 0.07078,-0.9789 -0.333489,-1.2062 l -1.832031,-1.0665 0,-2.9804 c 0.0177,-0.4958 -0.463099,-0.9492 -0.95703,-0.9024 z"
       style="line-height:normal;color:#000000;fill:#fff8e1;fill-opacity:1"
       inkscape:connector-curvature="0"
       sodipodi:nodetypes="ccccssssccssssccccccccccccccccccccsccccc" />
  </g>
</svg>
