<?xml version="1.0" encoding="UTF-8" standalone="no"?>
<!-- Created with Inkscape (http://www.inkscape.org/) -->

<svg
   xmlns:dc="http://purl.org/dc/elements/1.1/"
   xmlns:cc="http://creativecommons.org/ns#"
   xmlns:rdf="http://www.w3.org/1999/02/22-rdf-syntax-ns#"
   xmlns:svg="http://www.w3.org/2000/svg"
   xmlns="http://www.w3.org/2000/svg"
   xmlns:xlink="http://www.w3.org/1999/xlink"
   xmlns:sodipodi="http://sodipodi.sourceforge.net/DTD/sodipodi-0.dtd"
   xmlns:inkscape="http://www.inkscape.org/namespaces/inkscape"
   width="48"
   height="48"
   id="svg2"
   version="1.1"
   inkscape:version="0.48.5 r10040"
   sodipodi:docname="folder-projects.svg">
  <defs
     id="defs4">
    <linearGradient
       id="linearGradient3855">
      <stop
         style="stop-color:#000000;stop-opacity:1;"
         offset="0"
         id="stop3857" />
      <stop
         style="stop-color:#000000;stop-opacity:0.29411766;"
         offset="1"
         id="stop3859" />
    </linearGradient>
    <linearGradient
       id="linearGradient3833">
      <stop
         id="stop3835"
         offset="0"
         style="stop-color:#fdfeff;stop-opacity:1;" />
      <stop
         id="stop3837"
         offset="1"
         style="stop-color:#dfe4e4;stop-opacity:1;" />
    </linearGradient>
    <linearGradient
       id="linearGradient3823">
      <stop
         style="stop-color:#49b7ef;stop-opacity:1;"
         offset="0"
         id="stop3825" />
      <stop
         style="stop-color:#1d8de2;stop-opacity:1;"
         offset="1"
         id="stop3827" />
    </linearGradient>
    <linearGradient
       id="linearGradient3956">
      <stop
         style="stop-color:#f8f4e1;stop-opacity:1;"
         offset="0"
         id="stop3958" />
      <stop
         style="stop-color:#eae5c8;stop-opacity:1;"
         offset="1"
         id="stop3960" />
    </linearGradient>
    <linearGradient
       id="linearGradient3915">
      <stop
         style="stop-color:#f8f4e1;stop-opacity:1;"
         offset="0"
         id="stop3917" />
      <stop
         style="stop-color:#ad9e57;stop-opacity:1;"
         offset="1"
         id="stop3919" />
    </linearGradient>
    <linearGradient
       inkscape:collect="always"
       id="linearGradient3861">
      <stop
         style="stop-color:#000000;stop-opacity:1;"
         offset="0"
         id="stop3863" />
      <stop
         style="stop-color:#000000;stop-opacity:0;"
         offset="1"
         id="stop3865" />
    </linearGradient>
    <linearGradient
       id="linearGradient3844">
      <stop
         style="stop-color:#000000;stop-opacity:0.39215687;"
         offset="0"
         id="stop3846" />
      <stop
         style="stop-color:#000000;stop-opacity:0;"
         offset="1"
         id="stop3848" />
    </linearGradient>
    <linearGradient
       id="linearGradient3810">
      <stop
         style="stop-color:#f2c66f;stop-opacity:1;"
         offset="0"
         id="stop3812" />
      <stop
         style="stop-color:#fbd68f;stop-opacity:1;"
         offset="1"
         id="stop3814" />
    </linearGradient>
    <linearGradient
       inkscape:collect="always"
       xlink:href="#linearGradient3810"
       id="linearGradient3816"
       x1="24"
       y1="1046.3622"
       x2="24"
       y2="1014.3622"
       gradientUnits="userSpaceOnUse" />
    <radialGradient
       inkscape:collect="always"
       xlink:href="#linearGradient3844"
       id="radialGradient3850"
       cx="24.075672"
       cy="41.38316"
       fx="24.075672"
       fy="41.38316"
       r="21.075672"
       gradientTransform="matrix(1,0,0,0.11307633,0,36.703704)"
       gradientUnits="userSpaceOnUse" />
    <linearGradient
       inkscape:collect="always"
       xlink:href="#linearGradient3810"
       id="linearGradient3856"
       gradientUnits="userSpaceOnUse"
       x1="24"
       y1="1046.3622"
       x2="24"
       y2="1014.3622"
       gradientTransform="translate(0,-3)" />
    <linearGradient
       inkscape:collect="always"
       xlink:href="#linearGradient3810"
       id="linearGradient3858"
       gradientUnits="userSpaceOnUse"
       x1="24"
       y1="1046.3622"
       x2="24"
       y2="1014.3622"
       gradientTransform="translate(0,-1004.3622)" />
    <linearGradient
       inkscape:collect="always"
       xlink:href="#linearGradient3861"
       id="linearGradient3867"
       x1="1.9952808"
       y1="28.5625"
       x2="46.004719"
       y2="28.5625"
       gradientUnits="userSpaceOnUse" />
    <linearGradient
       inkscape:collect="always"
       xlink:href="#linearGradient3915"
       id="linearGradient3921"
       x1="35"
       y1="8"
       x2="38"
       y2="5"
       gradientUnits="userSpaceOnUse" />
    <linearGradient
       inkscape:collect="always"
       xlink:href="#linearGradient3915"
       id="linearGradient3933"
       gradientUnits="userSpaceOnUse"
       x1="35"
       y1="8"
       x2="38"
       y2="5"
       gradientTransform="matrix(1.0436562,0,0,1.2222222,26.301501,1003.2511)" />
    <linearGradient
       inkscape:collect="always"
       xlink:href="#linearGradient3915"
       id="linearGradient3954"
       x1="35"
       y1="11"
       x2="44"
       y2="5"
       gradientUnits="userSpaceOnUse"
       gradientTransform="translate(22,1004.3622)" />
    <linearGradient
       inkscape:collect="always"
       xlink:href="#linearGradient3823"
       id="linearGradient3829"
       x1="21"
       y1="14"
       x2="20"
       y2="24"
       gradientUnits="userSpaceOnUse" />
    <linearGradient
       inkscape:collect="always"
       xlink:href="#linearGradient3833"
       id="linearGradient3839"
       gradientUnits="userSpaceOnUse"
       x1="21"
       y1="14"
       x2="20"
       y2="26" />
    <linearGradient
       inkscape:collect="always"
       xlink:href="#linearGradient3855"
       id="linearGradient3862"
       x1="22"
       y1="15"
       x2="20"
       y2="30"
       gradientUnits="userSpaceOnUse" />
    <clipPath
       id="clipPath-069049578">
      <g
         id="g3352"
         transform="translate(0,-1004.3622)">
        <path
           id="path3354"
           fill="#1890d0"
           transform="matrix(15.333333,0,0,11.5,414.99999,878.8622)"
           d="m -24 13 c 0 1.105 -0.672 2 -1.5 2 -0.828 0 -1.5 -0.895 -1.5 -2 0 -1.105 0.672 -2 1.5 -2 0.828 0 1.5 0.895 1.5 2 z" />
      </g>
    </clipPath>
    <clipPath
       id="clipPath-059275953">
      <g
         id="g3347"
         transform="translate(0,-1004.3622)">
        <path
           id="path3349"
           fill="#1890d0"
           transform="matrix(15.333333,0,0,11.5,414.99999,878.8622)"
           d="m -24 13 c 0 1.105 -0.672 2 -1.5 2 -0.828 0 -1.5 -0.895 -1.5 -2 0 -1.105 0.672 -2 1.5 -2 0.828 0 1.5 0.895 1.5 2 z" />
      </g>
    </clipPath>
    <linearGradient
       gradientTransform="matrix(0,-1,1,0,-1.5e-6,47.999998)"
       gradientUnits="userSpaceOnUse"
       x2="47"
       x1="1"
       id="linearGradient3764">
      <stop
         id="stop3342"
         stop-opacity="1"
         stop-color="#d6740a" />
      <stop
         id="stop3344"
         stop-opacity="1"
         stop-color="#e87e0b"
         offset="1" />
    </linearGradient>
    <clipPath
       id="clipPath-483879499">
      <g
         id="g3401"
         transform="translate(0,-1004.3622)">
        <path
           id="path3403"
           fill="#1890d0"
           transform="matrix(15.333333,0,0,11.5,414.99999,878.8622)"
           d="m -24 13 c 0 1.105 -0.672 2 -1.5 2 -0.828 0 -1.5 -0.895 -1.5 -2 0 -1.105 0.672 -2 1.5 -2 0.828 0 1.5 0.895 1.5 2 z" />
      </g>
    </clipPath>
    <clipPath
       id="clipPath-478329641">
      <g
         id="g3396"
         transform="translate(0,-1004.3622)">
        <path
           id="path3398"
           fill="#1890d0"
           transform="matrix(15.333333,0,0,11.5,414.99999,878.8622)"
           d="m -24 13 c 0 1.105 -0.672 2 -1.5 2 -0.828 0 -1.5 -0.895 -1.5 -2 0 -1.105 0.672 -2 1.5 -2 0.828 0 1.5 0.895 1.5 2 z" />
      </g>
    </clipPath>
    <linearGradient
       gradientTransform="matrix(0,-1,1,0,-1.5e-6,47.999998)"
       gradientUnits="userSpaceOnUse"
       x2="47"
       x1="1"
       id="linearGradient3764-2">
      <stop
         id="stop3391"
         stop-opacity="1"
         stop-color="#333" />
      <stop
         id="stop3393"
         stop-opacity="1"
         stop-color="#3d3d3d"
         offset="1" />
    </linearGradient>
    <clipPath
       id="clipPath-826434300">
      <g
         id="g10603"
         transform="translate(0,-1004.3622)">
        <path
           id="path10605"
           fill="#1890d0"
           transform="matrix(15.333333,0,0,11.5,414.99999,878.8622)"
           d="m -24 13 c 0 1.105 -0.672 2 -1.5 2 -0.828 0 -1.5 -0.895 -1.5 -2 0 -1.105 0.672 -2 1.5 -2 0.828 0 1.5 0.895 1.5 2 z" />
      </g>
    </clipPath>
    <clipPath
       id="clipPath-810928594">
      <g
         id="g10598"
         transform="translate(0,-1004.3622)">
        <path
           id="path10600"
           fill="#1890d0"
           transform="matrix(15.333333,0,0,11.5,414.99999,878.8622)"
           d="m -24 13 c 0 1.105 -0.672 2 -1.5 2 -0.828 0 -1.5 -0.895 -1.5 -2 0 -1.105 0.672 -2 1.5 -2 0.828 0 1.5 0.895 1.5 2 z" />
      </g>
    </clipPath>
    <linearGradient
       gradientTransform="matrix(0,-1,1,0,-1.5e-6,47.999998)"
       gradientUnits="userSpaceOnUse"
       x2="47"
       x1="1"
       id="linearGradient3764-0">
      <stop
         id="stop10593"
         stop-opacity="1"
         stop-color="#3a3a3a" />
      <stop
         id="stop10595"
         stop-opacity="1"
         stop-color="#444"
         offset="1" />
    </linearGradient>
    <radialGradient
       r="24"
       fy="40.5"
       fx="24"
       cy="40.5"
       cx="24"
       gradientTransform="matrix(1.25,0,0,0.20833327,-6,1035.9247)"
       gradientUnits="userSpaceOnUse"
       id="radialGradient3150"
       xlink:href="#linearGradient3886"
       inkscape:collect="always" />
    <linearGradient
       id="linearGradient3886">
      <stop
         style="stop-color:#000000;stop-opacity:1;"
         offset="0"
         id="stop3888" />
      <stop
         style="stop-color:#000000;stop-opacity:0.19607843;"
         offset="1"
         id="stop3890" />
    </linearGradient>
    <radialGradient
       r="24"
       fy="40.5"
       fx="24"
       cy="40.5"
       cx="24"
       gradientTransform="matrix(1.25,0,0,0.20833327,-6,1035.9247)"
       gradientUnits="userSpaceOnUse"
       id="radialGradient3166"
       xlink:href="#linearGradient3886"
       inkscape:collect="always" />
  </defs>
  <sodipodi:namedview
     id="base"
     pagecolor="#ffffff"
     bordercolor="#666666"
     borderopacity="1.0"
     inkscape:pageopacity="0.0"
     inkscape:pageshadow="2"
     inkscape:zoom="8.8150004"
     inkscape:cx="21.830523"
     inkscape:cy="23.020931"
     inkscape:document-units="px"
     inkscape:current-layer="layer1"
     showgrid="true"
     inkscape:window-width="1280"
     inkscape:window-height="998"
     inkscape:window-x="0"
     inkscape:window-y="0"
     inkscape:window-maximized="1">
    <inkscape:grid
       type="xygrid"
       id="grid2990"
       empspacing="5"
       visible="true"
       enabled="true"
       snapvisiblegridlinesonly="true" />
  </sodipodi:namedview>
  <metadata
     id="metadata7">
    <rdf:RDF>
      <cc:Work
         rdf:about="">
        <dc:format>image/svg+xml</dc:format>
        <dc:type
           rdf:resource="http://purl.org/dc/dcmitype/StillImage" />
        <dc:title />
      </cc:Work>
    </rdf:RDF>
  </metadata>
  <g
     inkscape:label="Body"
     inkscape:groupmode="layer"
     id="layer1"
     transform="translate(0,-1004.3622)">
    <path
       inkscape:connector-curvature="0"
       style="opacity:0.1;fill:url(#radialGradient3166);fill-opacity:1;stroke:none"
       d="m 24,1039.3622 c -9.826549,0 -18.52797,0.7831 -24,2 l 0,6 c 5.47203,1.2169 14.173451,2 24,2 9.826549,0 18.52797,-0.7831 24,-2 l 0,-6 c -5.47203,-1.2169 -14.173451,-2 -24,-2 z"
       id="path3868" />
    <rect
       style="fill:#d32f2f;fill-opacity:1;stroke:none"
       id="rect2987"
       width="46"
       height="32.000019"
       x="1"
       y="1014.3622"
       rx="5"
       ry="5" />
    <path
       style="opacity:0.2;fill:#ffffff;fill-opacity:1;stroke:none"
       d="m 6,1014.3622 c -2.77,0 -5,2.23 -5,5 l 0,2 c 0,-2.77 2.23,-5 5,-5 l 36,0 c 2.77,0 5,2.23 5,5 l 0,-2 c 0,-2.77 -2.23,-5 -5,-5 l -36,0 z"
       id="rect3797"
       inkscape:connector-curvature="0" />
    <path
       style="fill:#ef5350;fill-opacity:1;stroke:none"
       d="m 6,1022.3622 8,0 c 11,-1 9,-12 16,-12 l 12,0 c 2.77,0 5,2.23 5,5 l 0,26 c 0,2.77 -2.23,5 -5,5 l -36,0 c -2.77,0 -5,-2.23 -5,-5 l 0,-14 c 0,-3 2,-5 5,-5 z"
       id="rect3776"
       inkscape:connector-curvature="0"
       sodipodi:nodetypes="cccsssssscc" />
    <path
       style="opacity:0.15;fill:#000000;fill-opacity:1;stroke:none"
       d="m 1,1039.3622 0,2 c 0,2.77 2.23,5 5,5 l 36,0 c 2.77,0 5,-2.23 5,-5 l 0,-2 c 0,2.77 -2.23,5 -5,5 l -36,0 c -2.77,0 -5,-2.23 -5,-5 z"
       id="path3786"
       inkscape:connector-curvature="0" />
    <path
       inkscape:connector-curvature="0"
       id="path5984"
       d="m 7.5127579,1028.3361 c -0.4514607,0.01 -0.8781095,0.056 -1.3077106,0.2051 -0.1350714,0.9158 0.087597,1.866 0.333338,2.7436 0.6250828,2.013 1.7852984,3.9237 3.4872287,5.2052 0.06238,0.059 0.151088,0.073 0.128207,0.1795 -0.009,0.446 -9.03e-4,0.9119 0,1.359 0.01831,0.782 0.489285,1.5289 1.179503,1.8975 0.819176,0.4312 1.636602,0.831 2.461573,1.2564 0.379764,0.2011 0.906456,-0.03 1.025655,-0.4359 0.07253,-0.2672 0.0218,-0.5479 0.02564,-0.8205 -0.0028,-0.5746 -0.07354,-1.151 -0.05128,-1.718 0.750813,-0.093 1.505628,-0.4569 1.948745,-1.077 0.394934,-0.529 0.535577,-1.2137 0.487187,-1.8718 0.803228,-0.1434 1.630947,-0.2646 2.435931,-0.4102 0.476435,-0.095 0.683041,-0.7149 0.384621,-1.1026 -0.585498,-0.742 -1.17401,-1.4685 -1.769256,-2.2052 -0.480563,-0.5742 -1.233235,-0.8927 -1.974386,-0.7948 -0.502614,0.08 -1.01726,0.1885 -1.512842,0.282 -1.600408,-1.5246 -3.751753,-2.3695 -5.9231597,-2.6154 -0.4459238,-0.04 -0.9075327,-0.084 -1.3589934,-0.077 z m 2.7179871,1.6666 c 0.524584,-0.048 1.050722,0.098 1.4872,0.4616 0.872956,0.7269 1.008935,2.0245 0.282055,2.8975 -0.72688,0.8729 -2.0245197,1.0089 -2.8974763,0.282 -0.8729558,-0.7269 -1.0089347,-2.0245 -0.2820552,-2.8974 0.3634406,-0.4366 0.885692,-0.6958 1.4102765,-0.7437 z m 0.05128,0.6924 c -0.349602,0.032 -0.6805777,0.1958 -0.9230902,0.4871 -0.4850259,0.5825 -0.4030079,1.4381 0.1794897,1.9232 0.5824975,0.485 1.4380775,0.403 1.9231035,-0.1796 0.485026,-0.5825 0.403008,-1.4379 -0.17949,-1.923 -0.291249,-0.2426 -0.650412,-0.3397 -1.000013,-0.3077 z m 8.333449,5.5898 c -0.17961,-0.016 -0.358675,0.1197 -0.38462,0.3077 -0.228911,1.0403 -0.968649,1.9441 -1.948746,2.359 -0.255199,0.08 -0.312192,0.4223 -0.102565,0.5897 0.430151,0.3582 0.927086,0.7722 1.358993,1.1282 0.210158,0.1787 0.483658,-0.01 0.487186,-0.282 -0.0067,-0.2181 -0.03161,-0.4512 -0.05128,-0.6667 0.535539,0.1148 1.059846,0.2674 1.589766,0.3846 0.249718,0.052 0.486245,-0.249 0.38462,-0.4871 -0.209494,-0.5021 -0.42592,-0.9876 -0.641034,-1.4872 0.216839,-0.025 0.425339,-0.044 0.641034,-0.077 0.266979,-0.053 0.371382,-0.4413 0.153849,-0.6153 -0.432614,-0.3638 -0.869477,-0.7157 -1.307711,-1.077 -0.05127,-0.04 -0.119619,-0.071 -0.17949,-0.077 z"
       style="fill:#000000;fill-opacity:0.09803922;fill-rule:nonzero;stroke:none" />
    <path
       style="fill:#fff8e1;fill-opacity:1;fill-rule:nonzero;stroke:none"
       d="m 7.5127579,1027.3365 c -0.4514607,0.01 -0.8781095,0.056 -1.3077106,0.2051 -0.1350714,0.9158 0.087597,1.866 0.333338,2.7436 0.6250828,2.013 1.7852984,3.9237 3.4872287,5.2052 0.06238,0.059 0.151088,0.073 0.128207,0.1795 -0.009,0.446 -9.03e-4,0.9119 0,1.359 0.01831,0.782 0.489285,1.5289 1.179503,1.8975 0.819176,0.4312 1.636602,0.831 2.461573,1.2564 0.379764,0.2011 0.906456,-0.03 1.025655,-0.4359 0.07253,-0.2672 0.0218,-0.5479 0.02564,-0.8205 -0.0028,-0.5746 -0.07354,-1.151 -0.05128,-1.718 0.750813,-0.093 1.505628,-0.4569 1.948745,-1.077 0.394934,-0.529 0.535577,-1.2137 0.487187,-1.8718 0.803228,-0.1434 1.630947,-0.2646 2.435931,-0.4102 0.476435,-0.095 0.683041,-0.7149 0.384621,-1.1026 -0.585498,-0.742 -1.17401,-1.4685 -1.769256,-2.2052 -0.480563,-0.5742 -1.233235,-0.8927 -1.974386,-0.7948 -0.502614,0.08 -1.01726,0.1885 -1.512842,0.282 -1.600408,-1.5246 -3.751753,-2.3695 -5.9231597,-2.6154 -0.4459238,-0.04 -0.9075327,-0.084 -1.3589934,-0.077 z m 2.7179871,1.6666 c 0.524584,-0.048 1.050722,0.098 1.4872,0.4616 0.872956,0.7269 1.008935,2.0245 0.282055,2.8975 -0.72688,0.8729 -2.0245197,1.0089 -2.8974763,0.282 -0.8729558,-0.7269 -1.0089347,-2.0245 -0.2820552,-2.8974 0.3634406,-0.4366 0.885692,-0.6958 1.4102765,-0.7437 z m 0.05128,0.6924 c -0.349602,0.032 -0.6805777,0.1958 -0.9230902,0.4871 -0.4850259,0.5825 -0.4030079,1.4381 0.1794897,1.9232 0.5824975,0.485 1.4380775,0.403 1.9231035,-0.1796 0.485026,-0.5825 0.403008,-1.4379 -0.17949,-1.923 -0.291249,-0.2426 -0.650412,-0.3397 -1.000013,-0.3077 z m 8.333449,5.5898 c -0.17961,-0.016 -0.358675,0.1197 -0.38462,0.3077 -0.228911,1.0403 -0.968649,1.9441 -1.948746,2.359 -0.255199,0.08 -0.312192,0.4223 -0.102565,0.5897 0.430151,0.3582 0.927086,0.7722 1.358993,1.1282 0.210158,0.1787 0.483658,-0.01 0.487186,-0.282 -0.0067,-0.2181 -0.03161,-0.4512 -0.05128,-0.6667 0.535539,0.1148 1.059846,0.2674 1.589766,0.3846 0.249718,0.052 0.486245,-0.249 0.38462,-0.4871 -0.209494,-0.5021 -0.42592,-0.9876 -0.641034,-1.4872 0.216839,-0.025 0.425339,-0.044 0.641034,-0.077 0.266979,-0.053 0.371382,-0.4413 0.153849,-0.6153 -0.432614,-0.3638 -0.869477,-0.7157 -1.307711,-1.077 -0.05127,-0.04 -0.119619,-0.071 -0.17949,-0.077 z"
       id="path10643"
       inkscape:connector-curvature="0" />
  </g>
</svg>
