<?xml version="1.0" encoding="UTF-8" standalone="no"?>
<!-- Created with Inkscape (http://www.inkscape.org/) -->

<svg
   xmlns:dc="http://purl.org/dc/elements/1.1/"
   xmlns:cc="http://creativecommons.org/ns#"
   xmlns:rdf="http://www.w3.org/1999/02/22-rdf-syntax-ns#"
   xmlns:svg="http://www.w3.org/2000/svg"
   xmlns="http://www.w3.org/2000/svg"
   xmlns:sodipodi="http://sodipodi.sourceforge.net/DTD/sodipodi-0.dtd"
   xmlns:inkscape="http://www.inkscape.org/namespaces/inkscape"
   width="64"
   height="64"
   id="svg2"
   version="1.1"
   inkscape:version="0.91 r"
   sodipodi:docname="purple-folder-system.svg"
   inkscape:export-filename="/media/Data/Main/Visuals/Icons/Numix/Desktop/repos/numix-wiki/Gjorgi/Numix-folders/48/New/folder-144.png"
   inkscape:export-xdpi="270"
   inkscape:export-ydpi="270">
  <defs
     id="defs4" />
  <sodipodi:namedview
     id="base"
     pagecolor="#ffffff"
     bordercolor="#666666"
     borderopacity="1.0"
     inkscape:pageopacity="0.0"
     inkscape:pageshadow="2"
     inkscape:zoom="5.2755363"
     inkscape:cx="-8.4933976"
     inkscape:cy="30.738425"
     inkscape:document-units="px"
     inkscape:current-layer="layer1"
     showgrid="true"
     inkscape:window-width="1280"
     inkscape:window-height="998"
     inkscape:window-x="0"
     inkscape:window-y="0"
     inkscape:window-maximized="1"
     showguides="true"
     inkscape:guide-bbox="true">
    <inkscape:grid
       type="xygrid"
       id="grid2985"
       empspacing="5"
       visible="true"
       enabled="true"
       snapvisiblegridlinesonly="true" />
  </sodipodi:namedview>
  <metadata
     id="metadata7">
    <rdf:RDF>
      <cc:Work
         rdf:about="">
        <dc:format>image/svg+xml</dc:format>
        <dc:type
           rdf:resource="http://purl.org/dc/dcmitype/StillImage" />
        <dc:title />
      </cc:Work>
    </rdf:RDF>
  </metadata>
  <g
     inkscape:label="Layer 1"
     inkscape:groupmode="layer"
     id="layer1"
     transform="translate(0,-988.3622)">
    <path
       style="font-size:medium;font-style:normal;font-variant:normal;font-weight:normal;font-stretch:normal;text-indent:0;text-align:start;text-decoration:none;line-height:normal;letter-spacing:normal;word-spacing:normal;text-transform:none;direction:ltr;block-progression:tb;writing-mode:lr-tb;text-anchor:start;baseline-shift:baseline;color:#000000;fill:#7e57c2;fill-opacity:1;fill-rule:nonzero;stroke:none;stroke-width:2.28612947;marker:none;visibility:visible;display:inline;overflow:visible;enable-background:accumulate;font-family:Sans;-inkscape-font-specification:Sans"
       d="M 6.0625 10 C 4.9330852 10.1109 3.9815877 11.17777 4 12.3125 L 4 51.6875 C 3.986 52.9021 5.097925 54.0139 6.3125 54 L 57.6875 54 C 58.902076 54.014 60.013966 52.9021 60 51.6875 L 60 16.3125 C 60.014 15.0979 58.902076 13.9861 57.6875 14 L 38 14 L 38 12.3125 C 38.01375 11.11867 36.943717 10.019 35.75 10 L 6.3125 10 C 6.22925 10 6.14575 9.9999 6.0625 10 z M 30.125 22 L 33.90625 22 C 34.571835 22 35.125 22.5218 35.125 23.1875 L 35.125 24.75 C 35.553683 24.894 35.975065 25.0502 36.375 25.25 L 37.4375 24.15625 C 37.908076 23.68565 38.654385 23.68565 39.125 24.15625 L 41.875 26.875 C 42.345613 27.3457 42.345613 28.0918 41.875 28.5625 L 40.75 29.65625 C 40.944747 30.04945 41.108775 30.4543 41.25 30.875 L 42.8125 30.875 C 43.47808 30.875 44.000001 31.42825 44 32.09375 L 44 35.90625 C 44 36.57185 43.478047 37.125 42.8125 37.125 L 41.25 37.125 C 41.108772 37.5458 40.944744 37.95065 40.75 38.34375 L 41.875 39.4375 C 42.345602 39.9079 42.345613 40.6543 41.875 41.125 L 39.125 43.84375 C 38.654424 44.31425 37.908112 44.31425 37.4375 43.84375 L 36.375 42.75 C 35.975108 42.9492 35.55373 43.106 35.125 43.25 L 35.125 44.8125 C 35.125 45.4782 34.571797 46 33.90625 46 L 30.125 46 C 29.459464 46 28.875 45.4782 28.875 44.8125 L 28.875 43.25 C 28.454204 43.1086 28.049359 42.945 27.65625 42.75 L 26.59375 43.84375 C 26.123173 44.31425 25.345613 44.31425 24.875 43.84375 L 22.15625 41.125 C 21.685636 40.6543 21.685636 39.9082 22.15625 39.4375 L 23.25 38.375 C 23.050596 37.9751 22.893865 37.5536 22.75 37.125 L 21.21875 37.125 C 20.5532 37.125 20 36.57185 20 35.90625 L 20 32.09375 C 20 31.42825 20.5532 30.875 21.21875 30.875 L 22.75 30.875 C 22.893883 30.4465 23.050587 30.0249 23.25 29.625 L 22.15625 28.5625 C 21.685636 28.0921 21.685636 27.3457 22.15625 26.875 L 24.875 24.15625 C 25.345577 23.68565 26.123137 23.68565 26.59375 24.15625 L 27.65625 25.25 C 28.049359 25.0556 28.454204 24.8925 28.875 24.75 L 28.875 23.1875 C 28.875 22.5218 29.459455 22 30.125 22 z M 32 30.875 C 30.282666 30.875 28.875 32.2825 28.875 34 C 28.875 35.7172 30.282666 37.125 32 37.125 C 33.717334 37.125 35.125 35.7172 35.125 34 C 35.125 32.2825 33.717334 30.875 32 30.875 z "
       transform="translate(0,988.3622)"
       id="path3912" />
  </g>
</svg>
