<?xml version="1.0" encoding="UTF-8" standalone="no"?>
<svg
   xmlns:dc="http://purl.org/dc/elements/1.1/"
   xmlns:cc="http://creativecommons.org/ns#"
   xmlns:rdf="http://www.w3.org/1999/02/22-rdf-syntax-ns#"
   xmlns:svg="http://www.w3.org/2000/svg"
   xmlns="http://www.w3.org/2000/svg"
   xmlns:xlink="http://www.w3.org/1999/xlink"
   xmlns:sodipodi="http://sodipodi.sourceforge.net/DTD/sodipodi-0.dtd"
   xmlns:inkscape="http://www.inkscape.org/namespaces/inkscape"
   viewBox="0 0 48 48"
   id="svg4399"
   version="1.1"
   inkscape:version="0.48.5 r10040"
   width="100%"
   height="100%"
   sodipodi:docname="marlin.svg">
  <metadata
     id="metadata4466">
    <rdf:RDF>
      <cc:Work
         rdf:about="">
        <dc:format>image/svg+xml</dc:format>
        <dc:type
           rdf:resource="http://purl.org/dc/dcmitype/StillImage" />
      </cc:Work>
    </rdf:RDF>
  </metadata>
  <sodipodi:namedview
     pagecolor="#ffffff"
     bordercolor="#666666"
     borderopacity="1"
     objecttolerance="10"
     gridtolerance="10"
     guidetolerance="10"
     inkscape:pageopacity="0"
     inkscape:pageshadow="2"
     inkscape:window-width="1280"
     inkscape:window-height="998"
     id="namedview4464"
     showgrid="false"
     inkscape:zoom="13.906433"
     inkscape:cx="34.599532"
     inkscape:cy="20.342373"
     inkscape:window-x="0"
     inkscape:window-y="0"
     inkscape:window-maximized="1"
     inkscape:current-layer="svg4399" />
  <defs
     id="defs4401">
    <linearGradient
       id="linearGradient3764"
       x1="1"
       x2="47"
       gradientUnits="userSpaceOnUse"
       gradientTransform="matrix(0,-1,1,0,-1.5e-6,47.999998)">
      <stop
         stop-color="#019ad3"
         stop-opacity="1"
         id="stop4404" />
      <stop
         offset="1"
         stop-color="#01ace8"
         stop-opacity="1"
         id="stop4406" />
    </linearGradient>
    <clipPath
       id="clipPath-148109135">
      <g
         transform="translate(0,-1004.3622)"
         id="g4409">
        <path
           d="m -24 13 c 0 1.105 -0.672 2 -1.5 2 -0.828 0 -1.5 -0.895 -1.5 -2 0 -1.105 0.672 -2 1.5 -2 0.828 0 1.5 0.895 1.5 2 z"
           transform="matrix(15.333333,0,0,11.5,414.99999,878.8622)"
           fill="#1890d0"
           id="path4411" />
      </g>
    </clipPath>
    <clipPath
       id="clipPath-159946470">
      <g
         transform="translate(0,-1004.3622)"
         id="g4414">
        <path
           d="m -24 13 c 0 1.105 -0.672 2 -1.5 2 -0.828 0 -1.5 -0.895 -1.5 -2 0 -1.105 0.672 -2 1.5 -2 0.828 0 1.5 0.895 1.5 2 z"
           transform="matrix(15.333333,0,0,11.5,414.99999,878.8622)"
           fill="#1890d0"
           id="path4416" />
      </g>
    </clipPath>
    <linearGradient
       inkscape:collect="always"
       xlink:href="#linearGradient3764"
       id="linearGradient5286"
       gradientUnits="userSpaceOnUse"
       gradientTransform="translate(-48,0.00221437)"
       x1="1"
       x2="47" />
    <linearGradient
       id="linearGradient4140-8">
      <stop
         style="stop-color:#6e6196;stop-opacity:1;"
         offset="0"
         id="stop4143-5" />
      <stop
         style="stop-color:#847baf;stop-opacity:1;"
         offset="1"
         id="stop4145-4" />
    </linearGradient>
  </defs>
  <g
     id="g21">
    <path
       style="opacity:0.02000002"
       inkscape:connector-curvature="0"
       d="m 1,43 0,0.25 c 0,2.216 1.784,4 4,4 l 38,0 c 2.216,0 4,-1.784 4,-4 L 47,43 c 0,2.216 -1.784,4 -4,4 L 5,47 C 2.784,47 1,45.216 1,43 z m 0,0.5 0,0.5 c 0,2.216 1.784,4 4,4 l 38,0 c 2.216,0 4,-1.784 4,-4 l 0,-0.5 c 0,2.216 -1.784,4 -4,4 l -38,0 c -2.216,0 -4,-1.784 -4,-4 z"
       id="path23" />
    <path
       style="opacity:0.05"
       inkscape:connector-curvature="0"
       d="m 1,43.25 0,0.25 c 0,2.216 1.784,4 4,4 l 38,0 c 2.216,0 4,-1.784 4,-4 l 0,-0.25 c 0,2.216 -1.784,4 -4,4 l -38,0 c -2.216,0 -4,-1.784 -4,-4 z"
       id="path25" />
    <path
       style="opacity:0.1"
       inkscape:connector-curvature="0"
       d="m 1,43 0,0.25 c 0,2.216 1.784,4 4,4 l 38,0 c 2.216,0 4,-1.784 4,-4 L 47,43 c 0,2.216 -1.784,4 -4,4 L 5,47 C 2.784,47 1,45.216 1,43 z"
       id="path27" />
  </g>
  <rect
     id="rect31"
     transform="matrix(0,-1,1,0,0,0)"
     rx="4"
     y="1"
     x="-46.999996"
     height="46"
     width="46"
     style="fill:url(#linearGradient5286);fill-opacity:1.0" />
  <g
     id="g53">
    <g
       transform="translate(0,-1004.3622)"
       id="g55">
      <path
         style="opacity:0.1"
         inkscape:connector-curvature="0"
         d="m 1,1043.36 0,4 c 0,2.216 1.784,4 4,4 l 38,0 c 2.216,0 4,-1.784 4,-4 l 0,-4 c 0,2.216 -1.784,4 -4,4 l -38,0 c -2.216,0 -4,-1.784 -4,-4 z"
         id="path57" />
    </g>
  </g>
  <path
     inkscape:connector-curvature="0"
     style="opacity:0.1;fill:#000000;fill-opacity:1;fill-rule:nonzero;stroke:none"
     d="m 14.750018,14 c -0.391,0 -0.75,0.421843 -0.75,0.875 l 0,1.125 -1.09375,0 -0.09375,0 c -0.440999,0.04301 -0.8155,0.418726 -0.8125,0.84375 l 0,16.28125 c 0,0.453026 0.434251,0.875 0.90625,0.875 l 22.187501,0 c 0.468999,0 0.90625,-0.421974 0.90625,-0.875 l 0,-14.21875 C 36.000019,18.457227 35.561768,18 35.093769,18 l -1.09375,0 0,-3.125 c 0,-0.454175 -0.355,-0.875 -0.75,-0.875 l -18.500001,0 z"
     id="path3060" />
  <path
     style="fill:#b29c9c;fill-opacity:1;fill-rule:nonzero;stroke:none"
     inkscape:connector-curvature="0"
     id="path57-2"
     d="m 14.000018,19 0,-5.132383 c 0,-0.453157 0.359,-0.867617 0.75,-0.867617 l 18.500001,0 c 0.395,0 0.75,0.413442 0.75,0.867617 l 0,5.132383 m -20.000001,0" />
  <path
     style="fill:#ecedf1;fill-opacity:1;fill-rule:nonzero;stroke:none"
     inkscape:connector-curvature="0"
     id="path59"
     d="m 12.813017,15 c -0.440999,0.04301 -0.815999,0.434024 -0.812999,0.859048 l 0,16.277904 c 0,0.453026 0.43,0.863048 0.901999,0.863048 l 22.199985,0 c 0.468999,0 0.897999,-0.410022 0.897999,-0.863048 l 0,-14.242792 c 0,-0.449023 -0.43,-0.89416 -0.897999,-0.89416 l -9.101983,0 0,-1.124951 C 26.000019,15.426024 25.543009,15 25.075009,15 l -12.175992,0 c -0.027,0 -0.059,0 -0.09,0"
     sodipodi:nodetypes="ccsssssscsssc" />
  <path
     style="fill:#a38c8d;fill-opacity:1;fill-rule:nonzero;stroke:none"
     inkscape:connector-curvature="0"
     id="path4458"
     d="m 19.711,17.934 3.5,1.727 c 0,0 2.152,-0.605 2.738,0.637 0,0 1.141,-0.398 2.34,-0.023 0,0 -0.469,0.551 -0.434,1.816 0,0 0.297,5.227 -3.723,7.04 0,0 1.215,1.387 0.461,2.797 0,0 -0.168,-0.691 -0.785,-1.355 0,0 -0.93,-0.895 -0.965,-1.27 0,0 -1.203,0.16 -1.75,-0.59 0,0 -0.551,-0.434 -1.027,-0.484 0,0 1.703,-0.398 3.215,0.266 0,0 1.23,-0.777 1.402,-1.641 l -1.027,0.039 c 0,0 0.238,-0.664 1.203,-0.984 0,0 -0.07,-1.387 -0.414,-1.707 0,0 -1.398,-0.027 -2.188,0.547 0,0 1.039,-1.059 1.555,-1.289 0,0 -1.27,-0.055 -1.992,0.348 0,0 0.707,-1.125 1.227,-1.355 0,0 -0.656,-0.891 -0.656,-1.379 0,0 -0.723,-0.605 -0.965,-1.27 l 1.074,0.637 c 0,0 -1.336,-1.883 -2.777,-2.516 m -0.012,0.008" />
</svg>
