<?xml version="1.0" encoding="UTF-8" standalone="no"?>
<!-- Created with Inkscape (http://www.inkscape.org/) -->

<svg
   xmlns:dc="http://purl.org/dc/elements/1.1/"
   xmlns:cc="http://creativecommons.org/ns#"
   xmlns:rdf="http://www.w3.org/1999/02/22-rdf-syntax-ns#"
   xmlns:svg="http://www.w3.org/2000/svg"
   xmlns="http://www.w3.org/2000/svg"
   xmlns:xlink="http://www.w3.org/1999/xlink"
   xmlns:sodipodi="http://sodipodi.sourceforge.net/DTD/sodipodi-0.dtd"
   xmlns:inkscape="http://www.inkscape.org/namespaces/inkscape"
   id="svg3692"
   height="32"
   width="32"
   version="1.1"
   inkscape:version="0.48.4 r9939"
   sodipodi:docname="bookmark-missing.svg">
  <sodipodi:namedview
     pagecolor="#ffffff"
     bordercolor="#666666"
     borderopacity="1"
     objecttolerance="10"
     gridtolerance="10"
     guidetolerance="10"
     inkscape:pageopacity="0"
     inkscape:pageshadow="2"
     inkscape:window-width="1366"
     inkscape:window-height="709"
     id="namedview42"
     showgrid="true"
     inkscape:zoom="9.9345611"
     inkscape:cx="18.034814"
     inkscape:cy="19.151101"
     inkscape:window-x="0"
     inkscape:window-y="27"
     inkscape:window-maximized="1"
     inkscape:current-layer="svg3692">
    <inkscape:grid
       type="xygrid"
       id="grid3811"
       empspacing="5"
       visible="true"
       enabled="true"
       snapvisiblegridlinesonly="true" />
  </sodipodi:namedview>
  <defs
     id="defs3694">
    <linearGradient
       id="linearGradient3619"
       y2="33.955002"
       gradientUnits="userSpaceOnUse"
       x2="15.215"
       gradientTransform="translate(2.9799,-3.1217)"
       y1="22.292"
       x1="11.566">
      <stop
         id="stop2687"
         style="stop-color:#fff;stop-opacity:.27451"
         offset="0" />
      <stop
         id="stop2689"
         style="stop-color:#fff;stop-opacity:0"
         offset="1" />
    </linearGradient>
    <linearGradient
       id="linearGradient3648"
       y2="43.444"
       gradientUnits="userSpaceOnUse"
       x2="29.646999"
       y1="2"
       x1="29.646999">
      <stop
         id="stop3644"
         style="stop-color:#fff"
         offset="0" />
      <stop
         id="stop3646"
         style="stop-color:#fff;stop-opacity:0"
         offset="1" />
    </linearGradient>
    <radialGradient
       id="radialGradient3627"
       gradientUnits="userSpaceOnUse"
       cy="25.625"
       cx="13.139"
       gradientTransform="matrix(0,2.6541,-3.1628,0,97.183,-26.676)"
       r="13.931">
      <stop
         id="stop3692"
         style="stop-color:#ffeb9f"
         offset="0" />
      <stop
         id="stop3694"
         style="stop-color:#ffd57e"
         offset=".26238" />
      <stop
         id="stop3696"
         style="stop-color:#ffbc43"
         offset=".66094" />
      <stop
         id="stop3698"
         style="stop-color:#ff921a"
         offset="1" />
    </radialGradient>
    <linearGradient
       id="linearGradient3629"
       y2="9.5799999"
       gradientUnits="userSpaceOnUse"
       x2="21.483"
       gradientTransform="matrix(1.6509,0,0,1.6568,-11.466,-15.046)"
       y1="36.255001"
       x1="21.483">
      <stop
         id="stop3605"
         style="stop-color:#a7651c"
         offset="0" />
      <stop
         id="stop3607"
         style="stop-color:#c8a700"
         offset="1" />
    </linearGradient>
    <radialGradient
       id="radialGradient3690"
       gradientUnits="userSpaceOnUse"
       cx="62.625"
       cy="4.625"
       r="10.625"
       gradientTransform="matrix(2.1647,0,0,0.84706,-111.56,35.082)">
      <stop
         id="stop8840"
         offset="0" />
      <stop
         id="stop8842"
         style="stop-opacity:0"
         offset="1" />
    </radialGradient>
    <linearGradient
       id="linearGradient5530"
       y2="38.273998"
       gradientUnits="userSpaceOnUse"
       x2="22.368999"
       gradientTransform="matrix(0.59882,0,0,0.5952,23.605,21.219)"
       y1="8.0323"
       x1="22.368999">
      <stop
         id="stop3945"
         style="stop-color:#fff"
         offset="0" />
      <stop
         id="stop3947"
         style="stop-color:#fff;stop-opacity:0"
         offset="1" />
    </linearGradient>
    <radialGradient
       id="radialGradient2885"
       gradientUnits="userSpaceOnUse"
       cx="69.447998"
       cy="51.695"
       r="31"
       gradientTransform="matrix(0,0.67924,-0.73892,0,72.903,-19.49)">
      <stop
         id="stop3244-5"
         style="stop-color:#eef87e"
         offset="0" />
      <stop
         id="stop3246-9"
         style="stop-color:#cde34f"
         offset=".26238" />
      <stop
         id="stop3248-7"
         style="stop-color:#93b723"
         offset=".66094" />
      <stop
         id="stop3250-8"
         style="stop-color:#5a7e0d"
         offset="1" />
    </radialGradient>
    <linearGradient
       id="linearGradient2887"
       y2="52.808998"
       gradientUnits="userSpaceOnUse"
       y1="123.19"
       gradientTransform="matrix(0.28214,0,0,0.28445,12.171,9.9582)"
       x2="72.421997"
       x1="72.421997">
      <stop
         id="stop2492-3"
         style="stop-color:#365f0e"
         offset="0" />
      <stop
         id="stop2494-8"
         style="stop-color:#84a718"
         offset="1" />
    </linearGradient>
    <linearGradient
       inkscape:collect="always"
       xlink:href="#linearGradient5530"
       id="linearGradient3020"
       gradientUnits="userSpaceOnUse"
       gradientTransform="matrix(0.59882,0,0,0.5952,-29.886525,43.388492)"
       x1="22.368999"
       y1="8.0323"
       x2="22.368999"
       y2="38.273998" />
    <linearGradient
       inkscape:collect="always"
       xlink:href="#linearGradient3619"
       id="linearGradient3028"
       gradientUnits="userSpaceOnUse"
       gradientTransform="translate(-65.359083,-18.579327)"
       x1="11.566"
       y1="22.292"
       x2="15.215"
       y2="33.955002" />
    <linearGradient
       inkscape:collect="always"
       xlink:href="#linearGradient3648"
       id="linearGradient3031"
       gradientUnits="userSpaceOnUse"
       x1="29.646999"
       y1="2"
       x2="29.646999"
       y2="43.444"
       gradientTransform="translate(-68.338983,-15.457627)" />
    <radialGradient
       inkscape:collect="always"
       xlink:href="#radialGradient3690"
       id="radialGradient3041"
       gradientUnits="userSpaceOnUse"
       gradientTransform="matrix(2.1647,0,0,0.84706,-179.89898,19.624373)"
       cx="62.625"
       cy="4.625"
       r="10.625" />
  </defs>
  <metadata
     id="metadata3697">
    <rdf:RDF>
      <cc:Work
         rdf:about="">
        <dc:format>image/svg+xml</dc:format>
        <dc:type
           rdf:resource="http://purl.org/dc/dcmitype/StillImage" />
        <dc:title />
      </cc:Work>
    </rdf:RDF>
  </metadata>
  <path
     style="font-size:medium;font-style:normal;font-variant:normal;font-weight:normal;font-stretch:normal;text-indent:0;text-align:start;text-decoration:none;line-height:normal;letter-spacing:normal;word-spacing:normal;text-transform:none;direction:ltr;block-progression:tb;writing-mode:lr-tb;text-anchor:start;baseline-shift:baseline;color:#000000;fill:#c4905e;fill-opacity:1;stroke:none;stroke-width:2.25000048000000019;marker:none;visibility:visible;display:inline;overflow:visible;enable-background:accumulate;font-family:Sans;-inkscape-font-specification:Sans;opacity:0.4"
     d="m 15.84375,1.75 c -0.02297,0.00332 -0.0397,0.027205 -0.0625,0.03125 -0.05272,0.00935 -0.104522,0.018067 -0.15625,0.03125 -0.179887,0.031286 -0.364563,0.080785 -0.53125,0.15625 C 15.064036,1.9822025 15.029192,1.9851719 15,2 L 14.875,2.09375 14.75,2.1875 c -0.01279,0.012425 -0.04611,0.045671 -0.0625,0.0625 -0.282487,0.1909252 -0.61497,0.4030257 -0.75,0.5625 -0.277629,0.3278878 -0.516326,0.7058704 -0.75,1.09375 -0.462988,0.7685199 -0.893738,1.6622266 -1.34375,2.5625 -0.453209,0.906672 -0.898301,1.8246936 -1.25,2.5 -0.106079,0.2036844 -0.190664,0.3450761 -0.28125,0.5 -0.185517,0.041368 -0.3588654,0.087116 -0.59375,0.125 -0.7395937,0.1192858 -1.7548063,0.2265235 -2.78125,0.375 -1.0251275,0.148285 -2.0214221,0.308102 -2.875,0.5 -0.4081306,0.09175 -0.846181,0.201438 -1.28125,0.375 -0.1970122,0.07859 -0.4515744,0.189189 -0.71875,0.375 -0.1996236,0.13883 -0.7188461,0.584004 -0.9375,1.25 -0.22075418,0.672353 -0.057876,1.305135 0.03125,1.5625 0.095328,0.275273 0.2130824,0.54353 0.34375,0.75 0.2403578,0.379795 0.5251191,0.675268 0.8125,1 0.5889524,0.665501 1.2991917,1.386554 2.03125,2.09375 0.7358557,0.710864 1.4960352,1.403118 2.03125,1.9375 0.1630712,0.162817 0.2536271,0.275001 0.375,0.40625 -0.017251,0.177183 -0.028067,0.340923 -0.0625,0.5625 -0.115846,0.745509 -0.296102,1.749043 -0.46875,2.75 -0.1717391,0.995696 -0.3247874,2.020775 -0.40625,2.90625 -0.03794,0.412449 -0.094881,0.818286 -0.0625,1.28125 0.018466,0.263926 0.069381,0.533296 0.15625,0.8125 0.070486,0.226538 0.3411599,0.875603 0.90625,1.28125 0.5746254,0.413323 1.2540509,0.441331 1.5,0.4375 0.2697692,-0.0041 0.5266575,-0.03072 0.78125,-0.09375 0.45705,-0.113138 0.8342524,-0.274434 1.21875,-0.4375 0.80186,-0.340067 1.766575,-0.803233 2.6875,-1.28125 0.921692,-0.478416 1.803777,-0.981065 2.46875,-1.3125 0.217322,-0.108317 0.363789,-0.175171 0.53125,-0.25 0.167488,0.07484 0.313983,0.141703 0.53125,0.25 0.664969,0.331454 1.547055,0.834087 2.46875,1.3125 0.920914,0.478008 1.885538,0.941164 2.6875,1.28125 0.384471,0.163042 0.761628,0.324357 1.21875,0.4375 0.254711,0.06304 0.511778,0.08955 0.78125,0.09375 0.246289,0.0038 0.925531,-0.02459 1.5,-0.4375 0.56413,-0.405545 0.835387,-1.053302 0.90625,-1.28125 0.08667,-0.278797 0.137781,-0.548136 0.15625,-0.8125 0.03233,-0.462808 0.0067,-0.868692 -0.03125,-1.28125 l -0.03125,0 c -0.08149,-0.885497 -0.234513,-1.910516 -0.40625,-2.90625 -0.17265,-1.001031 -0.35294,-2.004567 -0.46875,-2.75 -0.03443,-0.221618 -0.04525,-0.385327 -0.0625,-0.5625 0.121384,-0.131267 0.211967,-0.243486 0.375,-0.40625 0.535299,-0.534413 1.295401,-1.226665 2.03125,-1.9375 0.732086,-0.707202 1.442248,-1.428142 2.03125,-2.09375 0.287295,-0.324662 0.572058,-0.619981 0.8125,-1 0.130489,-0.206229 0.248377,-0.474447 0.34375,-0.75 0.08908,-0.257345 0.252077,-0.890111 0.03125,-1.5625 -0.218606,-0.666181 -0.738089,-1.111338 -0.9375,-1.25 -0.267081,-0.185718 -0.521585,-0.296363 -0.71875,-0.375 -0.434909,-0.173458 -0.872982,-0.283241 -1.28125,-0.375 -0.853451,-0.191814 -1.84979,-0.351729 -2.875,-0.5 -1.026438,-0.1484494 -2.041752,-0.2556943 -2.78125,-0.375 -0.23495,-0.037904 -0.408302,-0.083649 -0.59375,-0.125 -0.09059,-0.154929 -0.175155,-0.2963009 -0.28125,-0.5 -0.351656,-0.6751615 -0.796719,-1.593306 -1.25,-2.5 C 19.706261,5.5686405 19.275576,4.6748287 18.8125,3.90625 18.578862,3.5184644 18.340198,3.1404448 18.0625,2.8125 18.043534,2.7901024 17.862301,2.5050127 17.5,2.21875 17.137699,1.9324873 16.589562,1.75 16,1.75 l -0.09375,0 -0.0625,0 z M 16.03125,4 c 0.0676,0.00217 0.110978,0.013612 0.09375,0 -0.02297,-0.01815 0.01253,0.037719 0.21875,0.28125 0.172668,0.2039116 0.339618,0.4631844 0.53125,0.78125 0.387486,0.6431199 0.830109,1.5038377 1.28125,2.40625 l 0.03125,0.0625 c 0.436608,0.8742045 0.885559,1.7690417 1.25,2.46875 0.19705,0.378329 0.367802,0.690423 0.5,0.90625 0.127326,0.20791 0.270702,0.341953 0.21875,0.28125 l 0.1875,0.21875 0.25,0.09375 c 0.117086,0.04461 0.244855,0.07803 0.3125,0.09375 0.229245,0.05326 0.595993,0.148531 1.03125,0.21875 0.824034,0.132944 1.8279,0.232601 2.8125,0.375 0.98583,0.142575 1.953841,0.328086 2.71875,0.5 0.40091,0.0901 0.692329,0.13343 0.90625,0.21875 0.127251,0.05075 0.206005,0.103928 0.28125,0.15625 0.142913,0.09938 0.06085,-0.0065 0.09375,0.09375 0.03083,0.09388 0.01611,0.01942 -0.03125,0.15625 -0.04106,0.118621 -0.06929,0.161953 -0.125,0.25 -0.131944,0.208537 -0.334049,0.456522 -0.59375,0.75 -0.504992,0.570672 -1.184052,1.2711 -1.90625,1.96875 -0.718435,0.694013 -1.451749,1.358957 -2.03125,1.9375 -0.296417,0.295928 -0.572344,0.577551 -0.75,0.78125 -0.130957,0.150139 -0.212861,0.289582 -0.1875,0.25 l -0.15625,0.25 0,0.3125 c -0.0018,0.03689 -0.01126,0.179394 0,0.3125 0.01986,0.234748 0.05827,0.570493 0.125,1 0.124718,0.802771 0.299496,1.799905 0.46875,2.78125 0.170169,0.986644 0.337061,1.966919 0.40625,2.71875 0.03736,0.406102 0.04738,0.70653 0.03125,0.9375 -0.0058,0.08252 -0.02535,0.192989 -0.0625,0.3125 -0.05296,0.17036 0.02597,0.03015 -0.0625,0.09375 -0.0782,0.0562 0.04545,0.03387 -0.125,0.03125 -0.147264,-0.0023 -0.228039,-0.01035 -0.3125,-0.03125 -0.22122,-0.05476 -0.496661,-0.183308 -0.875,-0.34375 -0.723658,-0.30688 -1.621118,-0.73131 -2.5,-1.1875 l -0.03125,0 c -0.869613,-0.452105 -1.757706,-0.942503 -2.5,-1.3125 -0.376126,-0.187481 -0.68827,-0.33391 -0.9375,-0.4375 -0.169046,-0.07027 -0.32769,-0.09752 -0.3125,-0.09375 L 16,24.5 15.71875,24.59375 c 0.01558,-0.0039 -0.143309,0.02343 -0.3125,0.09375 -0.249391,0.103639 -0.561417,0.250053 -0.9375,0.4375 -0.749661,0.373645 -1.653168,0.85672 -2.53125,1.3125 -0.878849,0.456177 -1.776364,0.880607 -2.5,1.1875 -0.3782504,0.160416 -0.653772,0.288988 -0.875,0.34375 C 8.4779525,27.989681 8.3969968,27.997743 8.25,28 c -0.1708149,0.0027 -0.046869,0.02495 -0.125,-0.03125 -0.08806,-0.06321 -0.00903,0.07811 -0.0625,-0.09375 C 8.0254138,27.755802 8.0058043,27.64546 8,27.5625 7.9838567,27.331692 7.9938899,27.031145 8.03125,26.625 8.1004068,25.873287 8.2673291,24.892854 8.4375,23.90625 8.606764,22.924911 8.781514,21.927719 8.90625,21.125 c 0.066757,-0.429584 0.1051373,-0.765353 0.125,-1 l 0,-0.03125 c 0.010893,-0.13125 0.00187,-0.242911 0,-0.28125 l 0,-0.3125 L 8.875,19.25 C 8.9004668,19.289735 8.8184598,19.150169 8.6875,19 8.5097283,18.796142 8.2338418,18.514629 7.9375,18.21875 7.3579444,17.640096 6.6246165,16.975218 5.90625,16.28125 5.1840865,15.583612 4.5049942,14.883131 4,14.3125 3.7404075,14.019168 3.5382734,13.771113 3.40625,13.5625 c -0.055523,-0.08773 -0.083856,-0.131193 -0.125,-0.25 -0.047344,-0.136713 -0.062168,-0.06208 -0.03125,-0.15625 0.032899,-0.100206 -0.048925,0.0055 0.09375,-0.09375 0.075122,-0.05224 0.1538398,-0.105423 0.28125,-0.15625 0.2137764,-0.08528 0.5051938,-0.128585 0.90625,-0.21875 0.7647955,-0.171938 1.7328519,-0.357389 2.71875,-0.5 0.9845843,-0.142421 1.9884817,-0.242098 2.8125,-0.375 0.435391,-0.07022 0.802283,-0.165593 1.03125,-0.21875 0.06819,-0.01584 0.196082,-0.04945 0.3125,-0.09375 l 0.25,-0.09375 0.1875,-0.21875 c -0.05191,0.06067 0.09145,-0.07344 0.21875,-0.28125 0.132168,-0.215781 0.302932,-0.527857 0.5,-0.90625 0.373577,-0.7173148 0.833381,-1.6352622 1.28125,-2.53125 0.451066,-0.9023834 0.893702,-1.7629533 1.28125,-2.40625 0.191594,-0.3180292 0.358503,-0.5772306 0.53125,-0.78125 0.107356,-0.1267901 0.123428,-0.1680724 0.25,-0.21875 L 16,4.03125 16.03125,4 z"
     id="path1307"
     inkscape:connector-curvature="0" />
</svg>
