<svg xmlns="http://www.w3.org/2000/svg" viewBox="0 0 48 48">
 <defs>
  <linearGradient id="linearGradient3764" x1="1" x2="47" gradientUnits="userSpaceOnUse" gradientTransform="matrix(0,-1,1,0,-1.5e-6,47.999998)">
   <stop style="stop-color:#b44732;stop-opacity:1"/>
   <stop offset="1" style="stop-color:#c44e36;stop-opacity:1"/>
  </linearGradient>
 </defs>
 <g>
  <path d="m 36.31 5 c 5.859 4.062 9.688 10.831 9.688 18.5 c 0 12.426 -10.07 22.5 -22.5 22.5 c -7.669 0 -14.438 -3.828 -18.5 -9.688 c 1.037 1.822 2.306 3.499 3.781 4.969 c 4.085 3.712 9.514 5.969 15.469 5.969 c 12.703 0 23 -10.298 23 -23 c 0 -5.954 -2.256 -11.384 -5.969 -15.469 c -1.469 -1.475 -3.147 -2.744 -4.969 -3.781 z m 4.969 3.781 c 3.854 4.113 6.219 9.637 6.219 15.719 c 0 12.703 -10.297 23 -23 23 c -6.081 0 -11.606 -2.364 -15.719 -6.219 c 4.16 4.144 9.883 6.719 16.219 6.719 c 12.703 0 23 -10.298 23 -23 c 0 -6.335 -2.575 -12.06 -6.719 -16.219 z" style="opacity:0.05"/>
  <path d="m 41.28 8.781 c 3.712 4.085 5.969 9.514 5.969 15.469 c 0 12.703 -10.297 23 -23 23 c -5.954 0 -11.384 -2.256 -15.469 -5.969 c 4.113 3.854 9.637 6.219 15.719 6.219 c 12.703 0 23 -10.298 23 -23 c 0 -6.081 -2.364 -11.606 -6.219 -15.719 z" style="opacity:0.1"/>
  <path d="m 31.25 2.375 c 8.615 3.154 14.75 11.417 14.75 21.13 c 0 12.426 -10.07 22.5 -22.5 22.5 c -9.708 0 -17.971 -6.135 -21.12 -14.75 a 23 23 0 0 0 44.875 -7 a 23 23 0 0 0 -16 -21.875 z" style="opacity:0.2"/>
 </g>
 <g>
  <path d="m 24 1 c 12.703 0 23 10.297 23 23 c 0 12.703 -10.297 23 -23 23 -12.703 0 -23 -10.297 -23 -23 0 -12.703 10.297 -23 23 -23 z" style="fill:url(#linearGradient3764);fill-opacity:1"/>
 </g>
 <g>
  <path d="m 40.03 7.531 c 3.712 4.084 5.969 9.514 5.969 15.469 0 12.703 -10.297 23 -23 23 c -5.954 0 -11.384 -2.256 -15.469 -5.969 4.178 4.291 10.01 6.969 16.469 6.969 c 12.703 0 23 -10.298 23 -23 0 -6.462 -2.677 -12.291 -6.969 -16.469 z" style="opacity:0.1"/>
 </g>
 <path d="m 15.75 15 c -0.391 0 -0.75 0.422 -0.75 0.875 l 0 1.125 -1.094 0 -0.094 0 c -0.441 0.043 -0.816 0.419 -0.813 0.844 l 0 16.281 c 0 0.453 0.434 0.875 0.906 0.875 l 22.19 0 c 0.469 0 0.906 -0.422 0.906 -0.875 l 0 -14.219 c 0 -0.449 -0.438 -0.906 -0.906 -0.906 l -1.094 0 0 -3.125 c 0 -0.454 -0.355 -0.875 -0.75 -0.875 l -18.5 0 z" style="fill:#000;opacity:0.1"/>
 <path d="m 14 20 0 -5.132 c 0 -0.453 0.359 -0.868 0.75 -0.868 l 18.5 0 c 0.395 0 0.75 0.413 0.75 0.868 l 0 5.132 m -20 0" style="fill:#b29c9c"/>
 <path d="m 12.813 16 c -0.441 0.043 -0.816 0.434 -0.813 0.859 l 0 16.278 c 0 0.453 0.43 0.863 0.902 0.863 l 22.2 0 c 0.469 0 0.898 -0.41 0.898 -0.863 l 0 -14.243 c 0 -0.449 -0.43 -0.894 -0.898 -0.894 l -9.102 0 0 -1.125 c 0 -0.449 -0.457 -0.875 -0.925 -0.875 l -12.176 0 c -0.027 0 -0.059 0 -0.09 0" style="fill:#ecedf1"/>
 <path d="m 24 18.98 -0.715 1.641 0.191 0.434 c -1.152 0.078 -0.926 0.313 -0.926 0.313 0 0 -1.328 0.246 -1.328 0.43 0 0.012 0 0.008 0 0.016 -0.266 0.129 -0.527 0.309 -0.777 0.504 -3.34 4.488 0.234 5.527 -0.559 8.133 -0.172 0.566 -0.891 1.527 -0.891 1.527 0 0 1.449 0.18 2.047 -1.516 0.484 -1.371 -1.156 -4.129 0.066 -5.363 1.734 -1.75 3.02 1.855 2.477 2.355 -0.551 0.5 -0.414 0.637 -0.414 0.637 l 0.82 1.656 0.816 -1.656 c 0 0 0.141 -0.137 -0.41 -0.637 -0.547 -0.5 0.742 -4.109 2.473 -2.355 1.227 1.238 -0.418 3.992 0.07 5.363 0.598 1.695 2.047 1.516 2.047 1.516 0 0 -0.715 -0.969 -0.891 -1.527 -0.793 -2.602 2.77 -3.641 -0.566 -8.133 -0.25 -0.188 -0.512 -0.371 -0.773 -0.5 0 -0.008 0 -0.004 0 -0.016 0 -0.188 -1.324 -0.43 -1.324 -0.43 0 0 0.227 -0.234 -0.93 -0.313 l 0.188 -0.434 -0.711 -1.641 m 0.016 -0.004" style="fill:#b29c9c"/>
</svg>
