<svg xmlns="http://www.w3.org/2000/svg" viewBox="0 0 48 48">
 <defs>
  <linearGradient id="linearGradient3764" x1="1" x2="47" gradientUnits="userSpaceOnUse" gradientTransform="matrix(0,-1,1,0,-1.5e-6,47.999998)">
   <stop style="stop-color:#2986db;stop-opacity:1"/>
   <stop offset="1" style="stop-color:#3a90de;stop-opacity:1"/>
  </linearGradient>
 </defs>
 <g>
  <path d="m 36.31 5 c 5.859 4.062 9.688 10.831 9.688 18.5 c 0 12.426 -10.07 22.5 -22.5 22.5 c -7.669 0 -14.438 -3.828 -18.5 -9.688 c 1.037 1.822 2.306 3.499 3.781 4.969 c 4.085 3.712 9.514 5.969 15.469 5.969 c 12.703 0 23 -10.298 23 -23 c 0 -5.954 -2.256 -11.384 -5.969 -15.469 c -1.469 -1.475 -3.147 -2.744 -4.969 -3.781 z m 4.969 3.781 c 3.854 4.113 6.219 9.637 6.219 15.719 c 0 12.703 -10.297 23 -23 23 c -6.081 0 -11.606 -2.364 -15.719 -6.219 c 4.16 4.144 9.883 6.719 16.219 6.719 c 12.703 0 23 -10.298 23 -23 c 0 -6.335 -2.575 -12.06 -6.719 -16.219 z" style="opacity:0.05"/>
  <path d="m 41.28 8.781 c 3.712 4.085 5.969 9.514 5.969 15.469 c 0 12.703 -10.297 23 -23 23 c -5.954 0 -11.384 -2.256 -15.469 -5.969 c 4.113 3.854 9.637 6.219 15.719 6.219 c 12.703 0 23 -10.298 23 -23 c 0 -6.081 -2.364 -11.606 -6.219 -15.719 z" style="opacity:0.1"/>
  <path d="m 31.25 2.375 c 8.615 3.154 14.75 11.417 14.75 21.13 c 0 12.426 -10.07 22.5 -22.5 22.5 c -9.708 0 -17.971 -6.135 -21.12 -14.75 a 23 23 0 0 0 44.875 -7 a 23 23 0 0 0 -16 -21.875 z" style="opacity:0.2"/>
 </g>
 <g>
  <path d="m 24 1 c 12.703 0 23 10.297 23 23 c 0 12.703 -10.297 23 -23 23 -12.703 0 -23 -10.297 -23 -23 0 -12.703 10.297 -23 23 -23 z" style="fill:url(#linearGradient3764);fill-opacity:1"/>
 </g>
 <g>
  <path d="m 40.03 7.531 c 3.712 4.084 5.969 9.514 5.969 15.469 0 12.703 -10.297 23 -23 23 c -5.954 0 -11.384 -2.256 -15.469 -5.969 4.178 4.291 10.01 6.969 16.469 6.969 c 12.703 0 23 -10.298 23 -23 0 -6.462 -2.677 -12.291 -6.969 -16.469 z" style="opacity:0.1"/>
 </g>
 <g transform="matrix(3.543307,0,0,3.543307,-0.00115594,0.00275676)">
  <path d="m 4.445,4.233 c -0.11,0 -0.212,0.119 -0.212,0.247 l 0,0.317 -0.309,0 -0.026,0 C 3.774,4.809 3.668,4.915 3.669,5.035 l 0,4.595 c 0,0.128 0.123,0.247 0.256,0.247 l 6.262,0 c 0.132,0 0.256,-0.119 0.256,-0.247 l 0,-4.01 c 0,-0.127 -0.124,-0.256 -0.256,-0.256 l -0.309,0 0,-0.882 c 0,-0.128 -0.1,-0.247 -0.212,-0.247 l -5.221,0 z" style="fill:#000;opacity:0.1"/>
  <path d="m 3.951 5.644 0 -1.448 c 0 -0.128 0.101 -0.245 0.212 -0.245 l 5.221 0 c 0.111 0 0.212 0.117 0.212 0.245 l 0 1.448 m -5.644 0" style="fill:#b29c9c"/>
  <path d="M 3.616,4.516 C 3.492,4.528 3.386,4.638 3.387,4.758 l 0,4.594 c 0,0.128 0.121,0.244 0.255,0.244 l 6.265,0 c 0.132,0 0.253,-0.116 0.253,-0.244 l 0,-4.02 C 10.16,5.205 10.039,5.08 9.907,5.08 l -2.569,0 0,-0.317 C 7.338,4.636 7.209,4.516 7.077,4.516 l -3.436,0 c -0.008,0 -0.017,0 -0.025,0" style="fill:#ecedf1"/>
  <path d="M 7.39,5.854 C 7.377,5.854 7.368,5.857 7.361,5.868 7.326,5.93 7.395,6.13 7.342,6.235 7.29,6.34 7.29,6.366 6.871,6.314 6.452,6.262 5.824,6.445 5.598,6.671 5.369,6.898 4.979,7.474 4.898,7.806 4.821,8.138 4.856,8.155 4.961,8.104 5.065,8.051 5.153,7.588 5.77,7.284 6.39,6.979 6.679,7.222 6.679,7.222 c 0,0 -0.533,-0.071 -0.925,0.253 C 5.362,7.799 5.117,8.05 5.126,8.15 5.135,8.246 5.169,8.226 5.232,8.15 5.293,8.071 5.659,7.591 6.095,7.433 6.531,7.274 6.714,7.285 6.88,7.372 7.046,7.459 7.082,7.544 6.847,7.605 6.61,7.668 6.514,7.64 6.514,7.64 c 0,0 0.201,0.183 0.487,0.183 0.289,0 0.464,-0.018 0.464,-0.018 0,0 0.714,0.742 0.898,0.891 C 8.545,8.844 8.748,8.774 8.748,8.695 8.748,8.608 8.66,8.363 8.66,8.363 8.66,8.363 8.843,7.952 8.632,7.49 8.423,7.027 7.847,6.549 7.847,6.549 7.847,6.549 7.786,6.287 7.656,6.112 7.55,5.971 7.443,5.864 7.388,5.862 M 4.417,7.976 C 4.392,7.9761 4.365,7.984 4.341,7.998 4.14,8.111 4.245,8.313 4.42,8.313 c 0.174,0 0.366,-0.071 0.366,-0.071 0,0 -0.187,-0.273 -0.369,-0.266 m 0.386,0.336 c 0,0 -0.391,0.06 -0.435,0.244 C 4.324,8.739 4.532,8.792 4.663,8.696 4.794,8.6 4.803,8.312 4.803,8.312 m 0,0" style="fill:#b29c9c;opacity:1"/>
 </g>
</svg>
