<?xml version="1.0" encoding="UTF-8"?>
<svg version="1.1" viewBox="0 0 48 48" xmlns="http://www.w3.org/2000/svg" xmlns:xlink="http://www.w3.org/1999/xlink">
 <defs>
  <linearGradient id="linearGradient9290" x1="25" x2="25" y1="47" y2="1" gradientTransform="rotate(-90,25.571,1.9941)" gradientUnits="userSpaceOnUse">
   <stop stop-color="#b24432" offset="0"/>
   <stop stop-color="#c24936" offset="1"/>
  </linearGradient>
 </defs>
 <path d="m36.31 5c5.859 4.062 9.688 10.831 9.688 18.5 0 12.426-10.07 22.5-22.5 22.5-7.669 0-14.438-3.828-18.5-9.688 1.037 1.822 2.306 3.499 3.781 4.969 4.085 3.712 9.514 5.969 15.469 5.969 12.703 0 23-10.298 23-23 0-5.954-2.256-11.384-5.969-15.469-1.469-1.475-3.147-2.744-4.969-3.781zm4.969 3.781c3.854 4.113 6.219 9.637 6.219 15.719 0 12.703-10.297 23-23 23-6.081 0-11.606-2.364-15.719-6.219 4.16 4.144 9.883 6.719 16.219 6.719 12.703 0 23-10.298 23-23 0-6.335-2.575-12.06-6.719-16.219z" opacity=".05"/>
 <path d="m41.28 8.781c3.712 4.085 5.969 9.514 5.969 15.469 0 12.703-10.297 23-23 23-5.954 0-11.384-2.256-15.469-5.969 4.113 3.854 9.637 6.219 15.719 6.219 12.703 0 23-10.298 23-23 0-6.081-2.364-11.606-6.219-15.719z" opacity=".1"/>
 <path d="m31.25 2.375c8.615 3.154 14.75 11.417 14.75 21.13 0 12.426-10.07 22.5-22.5 22.5-9.708 0-17.971-6.135-21.12-14.75a23 23 0 0 0 44.875 -7 23 23 0 0 0 -16 -21.875z" opacity=".2"/>
 <g fill="url(#linearGradient9290)">
  <path d="m24 1c12.703 0 23 10.297 23 23s-10.297 23-23 23-23-10.297-23-23 10.297-23 23-23z" fill="url(#linearGradient9290)"/>
 </g>
 <path d="m40.03 7.531c3.712 4.084 5.969 9.514 5.969 15.469 0 12.703-10.297 23-23 23-5.954 0-11.384-2.256-15.469-5.969 4.178 4.291 10.01 6.969 16.469 6.969 12.703 0 23-10.298 23-23 0-6.462-2.677-12.291-6.969-16.469z" opacity=".1"/>
 <g>
  <g>
   <path d="m15.75 15c-0.391 0-0.75 0.422-0.75 0.875v1.125h-1.094-0.094c-0.441 0.043-0.816 0.419-0.813 0.844v16.281c0 0.453 0.434 0.875 0.906 0.875h22.19c0.469 0 0.906-0.422 0.906-0.875v-14.219c0-0.449-0.438-0.906-0.906-0.906h-1.094v-3.125c0-0.454-0.355-0.875-0.75-0.875h-18.5z" opacity=".1"/>
   <path d="m14 20v-5.132c0-0.453 0.359-0.868 0.75-0.868h18.5c0.395 0 0.75 0.413 0.75 0.868v5.132m-20 0" fill="#b29c9c"/>
   <path d="m12.813 16c-0.441 0.043-0.816 0.434-0.813 0.859v16.278c0 0.453 0.43 0.863 0.902 0.863h22.2c0.469 0 0.898-0.41 0.898-0.863v-14.243c0-0.449-0.43-0.894-0.898-0.894h-9.102v-1.125c0-0.449-0.457-0.875-0.925-0.875h-12.176-0.09" fill="#ecedf1"/>
  </g>
  <g transform="matrix(.50002 0 0 .50002 12.077 13.996)" fill="#b29c9c">
   <path d="m32.395 12.01c-0.961 0.02-1.91 0.648-2.063 1.844-0.242 1.902 1.578 1.188 3.03 1.188 1.453 0 1.941 3.09 1.574 4.754-0.363 1.664-4.227 5.59-12.969 1.664-7.195-3.234-10.789 1.07-10.977 1.156 0.688 6.426 6.234 13.391 12.977 13.391 7.188 0 13.03-7.68 13.03-14.73 0-0.809-0.094-1.609-0.242-2.375-0.133-0.391-0.266-0.777-0.363-1.129-0.176-0.633-0.375-1.168-0.547-1.664-8e-3 -0.016 8e-3 -0.043 0-0.059-0.688-1.5-1.652-2.852-2.848-3.98-4e-3 -0.012-0.027 8e-3 -0.031 0-0.188-0.047-0.383-0.063-0.574-0.063m0 4e-3"/>
   <path d="m30.395 16.527c0 0.395-0.328 0.715-0.727 0.715-0.402 0-0.73-0.32-0.73-0.715 0-0.391 0.328-0.711 0.73-0.711 0.398 0 0.727 0.32 0.727 0.711"/>
   <path d="m28.938 13.945c0 0.277-0.23 0.504-0.516 0.504-0.285 0-0.516-0.227-0.516-0.504 0-0.281 0.23-0.508 0.516-0.508 0.285 0 0.516 0.227 0.516 0.508"/>
  </g>
 </g>
</svg>
