<?xml version="1.0" encoding="UTF-8" standalone="no"?>
<svg
   xmlns:dc="http://purl.org/dc/elements/1.1/"
   xmlns:cc="http://creativecommons.org/ns#"
   xmlns:rdf="http://www.w3.org/1999/02/22-rdf-syntax-ns#"
   xmlns:svg="http://www.w3.org/2000/svg"
   xmlns="http://www.w3.org/2000/svg"
   xmlns:sodipodi="http://sodipodi.sourceforge.net/DTD/sodipodi-0.dtd"
   xmlns:inkscape="http://www.inkscape.org/namespaces/inkscape"
   width="256"
   height="256"
   viewBox="0 0 256 256"
   id="svg2"
   version="1.1"
   inkscape:version="0.91 r"
   sodipodi:docname="custom-add-folders-to-archive.svg">
  <metadata
     id="metadata20">
    <rdf:RDF>
      <cc:Work
         rdf:about="">
        <dc:format>image/svg+xml</dc:format>
        <dc:type
           rdf:resource="http://purl.org/dc/dcmitype/StillImage" />
      </cc:Work>
    </rdf:RDF>
  </metadata>
  <defs
     id="defs18" />
  <sodipodi:namedview
     pagecolor="#ffffff"
     bordercolor="#666666"
     borderopacity="1"
     objecttolerance="10"
     gridtolerance="10"
     guidetolerance="10"
     inkscape:pageopacity="0"
     inkscape:pageshadow="2"
     inkscape:window-width="1366"
     inkscape:window-height="747"
     id="namedview16"
     showgrid="false"
     inkscape:zoom="0.921875"
     inkscape:cx="-111.07128"
     inkscape:cy="134.68259"
     inkscape:window-x="0"
     inkscape:window-y="21"
     inkscape:window-maximized="1"
     inkscape:current-layer="svg2">
    <inkscape:grid
       type="xygrid"
       id="grid3006" />
  </sodipodi:namedview>
  <path
     style="fill:replacecolour1;fill-opacity:1;stroke:none"
     d="m 36,96 c -5.85566,0 -12,5.86641 -12,12 l 0,9 -12,0 c -5.8804,0 -12,5.98132 -12,12 l 0,115 c 0,8 4,12 12,12 l 195,0 c 6.27046,0 12,-5.43338 12,-12 l 0,-100 c 0,-6.01972 -5.82016,-12 -12,-12 l -12,0 0,-24 c 0,-5.84462 -5.81288,-12 -12,-12 z"
     id="path6-6-1"
     inkscape:connector-curvature="0"
     sodipodi:nodetypes="ssccssssscccsss" />
  <path
     style="fill:#000000;fill-opacity:0.10196079;stroke:none"
     d="m 36,96 c -0.365979,0 -0.727086,0.01804 -1.09375,0.0625 -0.733327,0.08893 -1.470281,0.280868 -2.1875,0.53125 -0.717219,0.250382 -1.417767,0.578787 -2.09375,0.96875 -0.337991,0.194982 -0.67703,0.399224 -1,0.625 -0.652135,0.455882 -1.240939,0.966644 -1.8125,1.53125 -0.277637,0.274259 -0.558407,0.54778 -0.8125,0.84375 -0.005,0.006 0.005,0.0255 0,0.0312 -0.253277,0.29604 -0.523229,0.59117 -0.75,0.90625 -0.0047,0.007 0.0047,0.0247 0,0.0312 -0.225796,0.31498 -0.459886,0.63741 -0.65625,0.96875 -0.0044,0.007 0.0044,0.0239 0,0.0312 -0.195186,0.33099 -0.368365,0.65533 -0.53125,1 -0.004,0.008 0.004,0.0228 0,0.0312 -0.162018,0.34491 -0.342012,0.70652 -0.46875,1.0625 -0.0032,0.009 0.0031,0.0225 0,0.0312 -0.125449,0.35541 -0.225147,0.69866 -0.3125,1.0625 -0.0024,0.01 0.0024,0.0215 0,0.0312 -0.08623,0.3639 -0.173561,0.72402 -0.21875,1.09375 -0.0013,0.0101 0.0012,0.0212 0,0.0312 C 24.018497,107.24478 24,107.62698 24,108 l 0,9 -12,0 c -5.8804,0 -12,5.98132 -12,12 l 0,115 c 0,8 4,12 12,12 l 195,0 c 0.78381,0 1.55573,-0.0886 2.3125,-0.25 C 214.60989,254.62024 219,249.74579 219,244 l 0,-100 c 0,-0.37623 -0.0172,-0.75053 -0.0625,-1.125 -0.53192,-4.513 -4.17846,-8.77306 -8.59375,-10.28125 -0.35247,-0.12375 -0.70295,-0.22612 -1.0625,-0.3125 -0.01,-0.002 -0.0212,0.002 -0.0312,0 -0.35958,-0.0853 -0.72985,-0.17355 -1.09375,-0.21875 -0.0103,-0.001 -0.0209,0.001 -0.0312,0 C 207.75101,132.01723 207.3756,132 207,132 l -12,0 0,-24 c 0,-5.84462 -5.81288,-12 -12,-12 L 36,96 Z"
     id="path3029"
     inkscape:connector-curvature="0" />
  <path
     sodipodi:nodetypes="sscsssssssscsssssscssssssss"
     inkscape:connector-curvature="0"
     style="stroke:none;fill:replacecolour2;fill-opacity:1"
     d="m 36,96 c -5.85566,0 -12,5.9415 -12,12 l 0,9 -12,0 c -5.8804,0 -12,5.98132 -12,12 l 0,115 c 0,8 4,12 12,12 l 195,0 c 6.27046,0 12,-5.43338 12,-12 l 0,-100 c 0,-6.01972 -5.99045,-12 -12,-12 l -12,0 0,-24 c 0,-5.84462 -5.81288,-12 -12,-12 z m -24,29 114,0 c 2.3607,0 4.80316,2.23305 4,4 l 0,11 77,0 c 2.0222,0 4,2.03496 4,4 l 0,100 c 0,2.08516 -1.91506,4 -4,4 l -195,0 c -1.85718,0 -4,-1.58538 -4,-4 L 8,129 c 0,-1.96962 2.06612,-4 4,-4 z"
     id="path3778-8" />
  <path
     style="fill-opacity:1;stroke:none;fill:replacecolour1"
     d="M 73,0 C 67.14434,0 61,5.866406 61,12 l 0,9 -12,0 c -5.8804,0 -12,5.98132 -12,12 l 0,115 c 0,8 4,12 12,12 l 195,0 c 6.27046,0 12,-5.43338 12,-12 l 0,-100 c 0,-6.01972 -5.82016,-12 -12,-12 l -12,0 0,-24 C 232,6.15538 226.18712,0 220,0 Z"
     id="path6-6"
     inkscape:connector-curvature="0"
     sodipodi:nodetypes="ssccssssscccsss" />
  <path
     sodipodi:nodetypes="sscsssssssscsssssscssssssss"
     inkscape:connector-curvature="0"
     style="fill:replacecolour2;stroke:none"
     d="M 73,0 C 67.14434,0 61,5.941497 61,12 l 0,9 -12,0 c -5.8804,0 -12,5.98132 -12,12 l 0,115 c 0,8 4,12 12,12 l 195,0 c 6.27046,0 12,-5.43338 12,-12 l 0,-100 c 0,-6.01972 -5.99045,-12 -12,-12 l -12,0 0,-24 C 232,6.15538 226.18712,0 220,0 Z m -24,29 114,0 c 2.3607,0 4.80316,2.233048 4,4 l 0,11 77,0 c 2.0222,0 4,2.03496 4,4 l 0,100 c 0,2.08516 -1.91506,4 -4,4 l -195,0 c -1.85718,0 -4,-1.58538 -4,-4 L 45,33 c 0,-1.96962 2.06612,-4 4,-4 z"
     id="path3778" />
  <path
     style="fill:#859900"
     d="M 256 160 L 208 160 L 208 112 L 160 112 L 160 160 L 112 160 L 112 208 L 160 208 L 160 256 L 208 256 L 208 208 L 256 208 Z "
     id="path14" />
</svg>
