<svg xmlns="http://www.w3.org/2000/svg" viewBox="0 0 96 96">
 <g transform="translate(0,-956.3622)">
  <rect width="68" height="40" x="14" y="966.36" rx="4" style="fill:#388e3c;fill-opacity:1;stroke:none"/>
  <rect width="84" height="40" x="6" y="996.36" rx="4" style="fill:#66bb6a;fill-opacity:1;stroke:none"/>
  <path d="m 10 996.36 c -2.216 0 -4 1.784 -4 4 l 0 2 c 0 -2.216 1.784 -4 4 -4 l 76 0 c 2.216 0 4 1.784 4 4 l 0 -2 c 0 -2.216 -1.784 -4 -4 -4 l -76 0 z" style="fill:#fff;opacity:0.1;fill-opacity:1;stroke:none"/>
  <path d="m 18 966.36 c -2.216 0 -4 1.784 -4 4 l 0 2 c 0 -2.216 1.784 -4 4 -4 l 60 0 c 2.216 0 4 1.784 4 4 l 0 -2 c 0 -2.216 -1.784 -4 -4 -4 l -60 0 z" style="fill:#000;opacity:0.05;fill-opacity:1;stroke:none"/>
 </g>
</svg>
