<svg xmlns="http://www.w3.org/2000/svg" viewBox="0 0 96 96">
 <g transform="translate(0,-956.3622)">
  <path d="m 13.8 974.36 68.4 0 c 1.8 0 3.8 2 3.8 4 l 0 8 c 0 2.216 -1.695 4 -3.8 4 l -68.4 0 c -2.105 0 -3.8 -1.784 -3.8 -4 l 0 -12 z" style="fill:#757575;fill-opacity:1;stroke:none"/>
  <path d="m 10 976.36 c 0 -4 0 -6 3.636 -6 l 12.727 0 c 3.636 0 3.636 2 3.636 6 z" style="fill:#757575;fill-opacity:1;stroke:none"/>
  <path d="m 10 982.36 0 10 76 0 0 -10 z" style="fill:#000;opacity:0.03;fill-opacity:1;stroke:none"/>
  <rect width="84" height="50" x="6" y="986.36" rx="4" style="fill:#bdbdbd;fill-opacity:1;stroke:none"/>
  <path d="m 30 974.36 0 2 3.813 0 48.38 0 c 1.8 0 3.813 2 3.813 4 l 0 -2 c 0 -2 -2.01 -4 -3.813 -4 l -48.37 0 z" style="fill:#000;opacity:0.05;fill-opacity:1;stroke:none"/>
  <path d="m 13.625 970.36 c -3.636 0 -3.625 2 -3.625 6 l 0.063 0 c 0.107 -2.621 0.619 -4 3.563 -4 l 12.75 0 c 2.944 0 3.456 1.379 3.563 4 l 0.063 0 c 0 -4 0.011 -6 -3.625 -6 l -12.75 0 z" style="fill:#000;opacity:0.05;fill-opacity:1;stroke:none"/>
  <path d="m 10 986.36 c -2.216 0 -4 1.784 -4 4 l 0 2 c 0 -2.216 1.784 -4 4 -4 l 76 0 c 2.216 0 4 1.784 4 4 l 0 -2 c 0 -2.216 -1.784 -4 -4 -4 l -76 0 z" style="fill:#fff;opacity:0.1;fill-opacity:1;stroke:none"/>
  <path d="m 40 994.36 c -1.108 0 -2 0.892 -2 2 l 20 0 c 0 -1.108 -0.892 -2 -2 -2 z m -2 4 0 24 20 0 0 -24 z m 4 4 12 0 0 2 -12 0 z m 0 4 12 0 0 2 -12 0 z m 6 6 c 1.105 0 2 0.895 2 2 0 1.105 -0.895 2 -2 2 -1.105 0 -2 -0.895 -2 -2 0 -1.105 0.895 -2 2 -2 z m -10 12 c 0 1.108 0.892 2 2 2 l 16 0 c 1.108 0 2 -0.892 2 -2 z" style="fill:#7f7f7f;opacity:1;fill-opacity:1;stroke:none;fill-rule:evenodd"/>
 </g>
</svg>
