<svg xmlns="http://www.w3.org/2000/svg" viewBox="0 0 96 96">
 <g transform="matrix(2,0,0,2.0000013,0,-4.9e-5)" style="opacity:0.6">
  <path d="m 7.95 11 17.1 0 c 0.45 0 0.958 0.5 0.95 1 l -0.05 3 c -0.009 0.554 -0.424 1 -0.95 1 l -17.1 0 c -0.526 0 -0.957 -0.446 -0.95 -1 l 0.05 -4 z" style="fill:#ec407a;fill-opacity:1;stroke:none"/>
  <path d="m 7 11.5 c 0 -1 0 -1.5 0.909 -1.5 l 3.182 0 c 0.909 0 0.909 0.5 0.909 1.5 z" style="fill:#ec407a;fill-opacity:1;stroke:none"/>
  <rect width="21" height="12.5" x="6" y="14.5" rx="1" style="fill:#ec407a;fill-opacity:1;stroke:none"/>
 </g>
 <path d="m 43.9 42 34.2 0 c 0.9 0 1.917 1 1.9 2 l -0.1 6 c -0.018 1.108 -0.847 2 -1.9 2 l -34.2 0 c -1.053 0 -1.914 -0.892 -1.9 -2 l 0.1 -8 z" style="fill:#ec407a;fill-opacity:1;stroke:none"/>
 <path d="m 42 43 c 0 -2 0 -3 1.818 -3 l 6.364 0 c 1.818 0 1.818 1 1.818 3 z" style="fill:#ec407a;fill-opacity:1;stroke:none"/>
 <path d="m 42 46 0 6 38 0 0 -6 z" style="fill:#000;opacity:0.03;fill-opacity:1;stroke:none"/>
 <rect width="42" height="25" x="40" y="49" rx="2" style="fill:#f06292;fill-opacity:1;stroke:none"/>
 <path d="m 52 42 0 1 1.906 0 24.19 0 c 0.9 0 1.906 1 1.906 2 l 0 -1 c 0 -1 -1.01 -2 -1.906 -2 l -24.19 0 z" style="fill:#000;opacity:0.05;fill-opacity:1;stroke:none"/>
 <path d="m 43.813 40 c -1.818 0 -1.813 1 -1.813 3 l 0.031 0 c 0.053 -1.311 0.309 -2 1.781 -2 l 6.375 0 c 1.472 0 1.728 0.689 1.781 2 l 0.031 0 c 0 -2 0.006 -3 -1.813 -3 l -6.375 0 z" style="fill:#000;opacity:0.05;fill-opacity:1;stroke:none"/>
 <path d="m 42 49 c -1.108 0 -2 0.892 -2 2 l 0 1 c 0 -1.108 0.892 -2 2 -2 l 38 0 c 1.108 0 2 0.892 2 2 l 0 -1 c 0 -1.108 -0.892 -2 -2 -2 l -38 0 z" style="fill:#fff;opacity:0.1;fill-opacity:1;stroke:none"/>
</svg>
