<!-- Created with Inkscape (http://www.inkscape.org/) -->
<svg xmlns="http://www.w3.org/2000/svg" viewBox="0 0 96 96">
 <g transform="translate(0,-956.3622)">
  <path d="m 13.8 974.36 68.4 0 c 1.8 0 3.8 2 3.8 4 l 0 8 c 0 2.216 -1.695 4 -3.8 4 l -68.4 0 c -2.105 0 -3.8 -1.784 -3.8 -4 l 0 -12 z" style="fill:#512da8;fill-opacity:1;stroke:none"/>
  <path d="m 10 976.36 c 0 -4 0 -6 3.636 -6 l 12.727 0 c 3.636 0 3.636 2 3.636 6 z" style="fill:#512da8;fill-opacity:1;stroke:none"/>
  <path d="m 10 982.36 0 10 76 0 0 -10 z" style="fill:#000;opacity:0.03;fill-opacity:1;stroke:none"/>
  <rect width="84" height="50" x="6" y="986.36" rx="4" style="fill:#7e57c2;fill-opacity:1;stroke:none"/>
  <path d="m 30 974.36 0 2 3.813 0 48.38 0 c 1.8 0 3.813 2 3.813 4 l 0 -2 c 0 -2 -2.01 -4 -3.813 -4 l -48.37 0 z" style="fill:#000;opacity:0.05;fill-opacity:1;stroke:none"/>
  <path d="m 13.625 970.36 c -3.636 0 -3.625 2 -3.625 6 l 0.063 0 c 0.107 -2.621 0.619 -4 3.563 -4 l 12.75 0 c 2.944 0 3.456 1.379 3.563 4 l 0.063 0 c 0 -4 0.011 -6 -3.625 -6 l -12.75 0 z" style="fill:#000;opacity:0.05;fill-opacity:1;stroke:none"/>
  <path d="m 10 986.36 c -2.216 0 -4 1.784 -4 4 l 0 2 c 0 -2.216 1.784 -4 4 -4 l 76 0 c 2.216 0 4 1.784 4 4 l 0 -2 c 0 -2.216 -1.784 -4 -4 -4 l -76 0 z" style="fill:#fff;opacity:0.1;fill-opacity:1;stroke:none"/>
  <path d="m 33.26 1007.78 c -1.799 0 -3.257 1.437 -3.257 3.211 0 1.773 1.458 3.21 3.257 3.21 1.798 0 3.256 -1.437 3.256 -3.21 0 -1.774 -1.458 -3.211 -3.256 -3.211 z m 23.25 14.593 c -1.558 0.887 -2.091 2.849 -1.192 4.384 0.899 1.536 2.89 2.062 4.448 1.175 1.557 -0.887 2.091 -2.849 1.191 -4.385 -0.899 -1.535 -2.89 -2.061 -4.447 -1.175 z m -16.178 -11.383 c 0 -3.173 1.599 -5.976 4.045 -7.673 l -2.381 -3.932 c -2.85 1.877 -4.97 4.747 -5.85 8.109 1.029 0.827 1.686 2.086 1.686 3.497 0 1.411 -0.657 2.67 -1.686 3.496 0.88 3.362 3 6.232 5.85 8.109 l 2.381 -3.932 c -2.446 -1.697 -4.045 -4.499 -4.045 -7.673 z m 9.513 -9.379 c 4.97 0 9.05 3.757 9.473 8.547 l 4.641 -0.066 c -0.228 -3.537 -1.795 -6.713 -4.203 -9.05 -1.238 0.461 -2.668 0.391 -3.905 -0.313 -1.238 -0.704 -2.01 -1.893 -2.227 -3.183 -1.203 -0.328 -2.47 -0.507 -3.779 -0.507 -2.252 0 -4.38 0.521 -6.27 1.444 l 2.262 3.998 c 1.218 -0.559 2.575 -0.873 4.01 -0.873 z m 0 18.758 c -1.432 0 -2.789 -0.314 -4.01 -0.873 l -2.263 3.998 c 1.89 0.923 4.02 1.444 6.27 1.444 1.309 0 2.576 -0.18 3.779 -0.507 0.213 -1.29 0.99 -2.478 2.227 -3.183 1.236 -0.703 2.666 -0.773 3.905 -0.312 2.408 -2.334 3.975 -5.511 4.203 -9.05 l -4.641 -0.066 c -0.427 4.791 -4.504 8.547 -9.473 8.547 z m 6.665 -20.762 c 1.557 0.887 3.548 0.361 4.447 -1.174 0.899 -1.536 0.366 -3.499 -1.191 -4.385 -1.557 -0.886 -3.548 -0.36 -4.448 1.175 -0.899 1.535 -0.366 3.498 1.192 4.384 z" style="fill:#54398d;opacity:1;fill-opacity:1;color:#000"/>
 </g>
</svg>
