
<svg xmlns="http://www.w3.org/2000/svg" xmlns:xlink="http://www.w3.org/1999/xlink" width="96px" height="96px" viewBox="0 0 96 96" version="1.1">
<g id="surface1">
<path style=" stroke:none;fill-rule:nonzero;fill:rgb(91.372549%,69.019608%,50.196078%);fill-opacity:1;" d="M 12 12 C 10 12 8 14 8 16 L 8 32 L 6 32 C 4 32 1.988281 33.898438 2 36 L 2 80 C 2 82.242188 4.074219 84 6.375 84 L 89.625 84 C 92 84 94 82 94 80 L 94 42 C 94 40 92 38 90 38 L 86 38 L 86 16 C 86 14 84 12 82 12 Z M 12 12 "/>
<path style=" stroke:none;fill-rule:nonzero;fill:rgb(0%,0%,0%);fill-opacity:0.321569;" d="M 12 12 C 10 12 8 14 8 16 L 8 32 L 6 32 C 4 32 1.988281 33.898438 2 36 L 2 80 C 2 82.242188 4.074219 84 6.375 84 L 89.625 84 C 92 84 94 82 94 80 L 94 42 C 94 40 92 38.011719 90 38 L 86 38 L 86 16 C 86 14 84 12 82 12 Z M 6 34 L 54 34 C 55.015625 34 56.144531 35 56 36 L 56 40 L 90 40 C 91.082031 40 92 40.945312 92 42 L 92 80 C 92 81.109375 91.097656 82 90 82 L 6 82 C 4.976562 82 4 81.109375 4 80 L 4 36 C 4 34.914062 4.957031 34 6 34 Z M 6 34 "/>
<path style=" stroke:none;fill-rule:evenodd;fill:rgb(52.156863%,60%,0%);fill-opacity:1;" d="M 87.046875 68.679688 C 87.1875 75.671875 83.5 82.195312 77.398438 85.734375 C 71.304688 89.273438 63.75 89.273438 57.648438 85.734375 C 51.546875 82.195312 47.859375 75.671875 48.007812 68.679688 C 47.859375 61.679688 51.546875 55.15625 57.648438 51.617188 C 63.75 48.078125 71.304688 48.078125 77.398438 51.617188 C 83.5 55.15625 87.1875 61.679688 87.046875 68.679688 Z M 87.046875 68.679688 "/>
<path style=" stroke:none;fill-rule:nonzero;fill:rgb(100%,100%,100%);fill-opacity:1;" d="M 78.203125 56.28125 C 77.789062 56.429688 77.4375 56.710938 77.203125 57.078125 L 66.5625 67.476562 L 59.921875 61.078125 C 59.65625 60.195312 58.820312 59.601562 57.890625 59.648438 C 56.96875 59.703125 56.203125 60.382812 56.03125 61.289062 C 55.867188 62.203125 56.351562 63.109375 57.203125 63.476562 L 65.203125 71.476562 C 65.96875 72.195312 67.15625 72.195312 67.921875 71.476562 L 79.921875 59.476562 C 80.390625 58.859375 80.453125 58.015625 80.085938 57.328125 C 79.71875 56.640625 78.976562 56.234375 78.203125 56.28125 Z M 78.203125 56.28125 "/>
</g>
</svg>
