<?xml version="1.0" encoding="UTF-8" standalone="no"?>
<svg
   xmlns:dc="http://purl.org/dc/elements/1.1/"
   xmlns:cc="http://creativecommons.org/ns#"
   xmlns:rdf="http://www.w3.org/1999/02/22-rdf-syntax-ns#"
   xmlns:svg="http://www.w3.org/2000/svg"
   xmlns="http://www.w3.org/2000/svg"
   xmlns:sodipodi="http://sodipodi.sourceforge.net/DTD/sodipodi-0.dtd"
   xmlns:inkscape="http://www.inkscape.org/namespaces/inkscape"
   width="96px"
   height="96px"
   viewBox="0 0 96 96"
   version="1.1"
   id="svg3011"
   inkscape:version="0.48.5 r10040"
   sodipodi:docname="blue-document-open-recent.svg">
  <metadata
     id="metadata3026">
    <rdf:RDF>
      <cc:Work
         rdf:about="">
        <dc:format>image/svg+xml</dc:format>
        <dc:type
           rdf:resource="http://purl.org/dc/dcmitype/StillImage" />
      </cc:Work>
    </rdf:RDF>
  </metadata>
  <defs
     id="defs3024" />
  <sodipodi:namedview
     pagecolor="#ffffff"
     bordercolor="#666666"
     borderopacity="1"
     objecttolerance="10"
     gridtolerance="10"
     guidetolerance="10"
     inkscape:pageopacity="0"
     inkscape:pageshadow="2"
     inkscape:window-width="668"
     inkscape:window-height="480"
     id="namedview3022"
     showgrid="false"
     inkscape:zoom="2.4583333"
     inkscape:cx="48"
     inkscape:cy="48"
     inkscape:window-x="0"
     inkscape:window-y="0"
     inkscape:window-maximized="0"
     inkscape:current-layer="svg3011" />
  <path
     inkscape:connector-curvature="0"
     id="path3014"
     d="m 12,12 c -2,0 -4,2 -4,4 l 0,16 -2,0 c -2,0 -4.011719,1.898438 -4,4 l 0,44 c 0,2.242188 2.074219,4 4.375,4 l 83.25,0 C 92,84 94,82 94,80 l 0,-38 c 0,-2 -2,-4 -4,-4 l -4,0 0,-22 c 0,-2 -2,-4 -4,-4 z m 0,0"
     style="fill:#ffca28;fill-opacity:1;fill-rule:nonzero;stroke:none" />
  <path
     inkscape:connector-curvature="0"
     id="path3016"
     d="m 12,12 c -2,0 -4,2 -4,4 l 0,16 -2,0 c -2,0 -4.011719,1.898438 -4,4 l 0,44 c 0,2.242188 2.074219,4 4.375,4 l 83.25,0 C 92,84 94,82 94,80 l 0,-38 c 0,-2 -2,-3.988281 -4,-4 l -4,0 0,-22 c 0,-2 -2,-4 -4,-4 z m -6,22 48,0 c 1.015625,0 2.144531,1 2,2 l 0,4 34,0 c 1.082031,0 2,0.945312 2,2 l 0,38 c 0,1.109375 -0.902344,2 -2,2 L 6,82 C 4.976562,82 4,81.109375 4,80 L 4,36 c 0,-1.085938 0.957031,-2 2,-2 z m 0,0"
     style="fill:#000000;fill-opacity:0.32156899;fill-rule:nonzero;stroke:none" />
  <path
     inkscape:connector-curvature="0"
     id="path3018"
     d="M 87.046875,68.679688 C 87.1875,75.671875 83.5,82.195312 77.398438,85.734375 c -6.09375,3.539063 -13.648438,3.539063 -19.75,0 -6.101563,-3.539063 -9.789063,-10.0625 -9.640626,-17.054687 -0.148437,-7 3.539063,-13.523438 9.640626,-17.0625 6.101562,-3.539063 13.65625,-3.539063 19.75,0 6.101562,3.539062 9.789062,10.0625 9.648437,17.0625 z m 0,0"
     style="fill:#859900;fill-opacity:1;fill-rule:evenodd;stroke:none" />
  <path
     inkscape:connector-curvature="0"
     id="path3020"
     d="m 78.203125,56.28125 c -0.414063,0.148438 -0.765625,0.429688 -1,0.796875 L 66.5625,67.476562 59.921875,61.078125 c -0.265625,-0.882813 -1.101563,-1.476563 -2.03125,-1.429687 -0.921875,0.05469 -1.6875,0.734374 -1.859375,1.640624 -0.164062,0.914063 0.320312,1.820313 1.171875,2.1875 l 8,8 c 0.765625,0.71875 1.953125,0.71875 2.71875,0 l 12,-12 c 0.46875,-0.617187 0.53125,-1.460937 0.164063,-2.148437 -0.367188,-0.6875 -1.109376,-1.09375 -1.882813,-1.046875 z m 0,0"
     style="fill:#ffffff;fill-opacity:1;fill-rule:nonzero;stroke:none" />
</svg>
