<svg xmlns="http://www.w3.org/2000/svg" viewBox="0 0 64 64">
 <path d="m 9 24 c -1.464 0 -3 1.527 -3 3 l -1 0 -2 0 c -1.47 0 -3 1.495 -3 3 l 0 31 c 0 2 1 3 3 3 l 50 0 c 1.568 0 3 -1.358 3 -3 l 0 -27 c 0 -1.505 -1.455 -3 -3 -3 l -3 0 0 -4 c 0 -1.461 -1.453 -3 -3 -3 z" style="fill:#66bb6a;fill-opacity:1;stroke:none"/>
 <path d="m 9 24 c -1.464 0 -3 1.559 -3 3 l -1 0 -2 0 c -1.47 0 -3 1.495 -3 3 l 0 31 c 0 2 1 3 3 3 l 50 0 c 1.568 0 3 -1.358 3 -3 l 0 -27 c 0 -1.505 -1.455 -3 -3 -3 l -3 0 0 -4 c 0 -1.461 -1.453 -3 -3 -3 z m -6 5 29 0 c 0.59 0 1.022 0.515 1 1 l 0 3 20 0 c 0.506 0 1 0.509 1 1 l 0 27 c 0 0.521 -0.479 1 -1 1 l -50 0 c -0.464 0 -1 -0.396 -1 -1 l 0 -31 c 0 -0.492 0.517 -1 1 -1 z" style="fill:#000;fill-opacity:0.322;stroke:none"/>
 <path d="m 9 24 c -1.464 0 -3 1.527 -3 3 l -1 0 l -2 0 c -1.47 0 -3 1.495 -3 3 l 0 31 c 0 2 1 3 3 3 l 50 0 c 1.568 0 3 -1.358 3 -3 l 0 -27 c 0 -1.505 -1.455 -3 -3 -3 l -3 0 l 0 -4 c 0 -1.461 -1.453 -3 -3 -3 l -38 0 z" style="fill:#000;fill-opacity:0.102;stroke:none"/>
 <path d="m 17 0 c -1.464 0 -3 1.527 -3 3 l -1 0 -2 0 c -1.47 0 -3 1.495 -3 3 l 0 31 c 0 2 1 3 3 3 l 50 0 c 1.568 0 3 -1.358 3 -3 l 0 -27 c 0 -1.505 -1.455 -3 -3 -3 l -3 0 l 0 -4 c 0 -1.461 -1.453 -3 -3 -3 z" style="fill:#66bb6a;fill-opacity:1;stroke:none"/>
 <path d="m 17 0 c -1.464 0 -3 1.559 -3 3 l -1 0 -2 0 c -1.47 0 -3 1.495 -3 3 l 0 31 c 0 2 1 3 3 3 l 50 0 c 1.568 0 3 -1.358 3 -3 l 0 -27 c 0 -1.505 -1.455 -3 -3 -3 l -3 0 l 0 -4 c 0 -1.461 -1.453 -3 -3 -3 z m -6 5 29 0 c 0.59 0 1.022 0.515 1 1 l 0 3 20 0 c 0.506 0 1 0.509 1 1 l 0 27 c 0 0.521 -0.479 1 -1 1 l -50 0 c -0.464 0 -1 -0.396 -1 -1 l 0 -31 c 0 -0.492 0.517 -1 1 -1 z" style="fill:#000;fill-opacity:0.322;stroke:none"/>
 <path d="m 64 40 l -12 0 l 0 -12 l -12 0 l 0 12 l -12 0 l 0 12 l 12 0 l 0 12 l 12 0 l 0 -12 l 12 0 Z" style="fill:#859900"/>
</svg>
