<?xml version="1.0" encoding="UTF-8" standalone="no"?>
<!-- Created with Inkscape (http://www.inkscape.org/) -->

<svg
   xmlns:dc="http://purl.org/dc/elements/1.1/"
   xmlns:cc="http://creativecommons.org/ns#"
   xmlns:rdf="http://www.w3.org/1999/02/22-rdf-syntax-ns#"
   xmlns:svg="http://www.w3.org/2000/svg"
   xmlns="http://www.w3.org/2000/svg"
   xmlns:xlink="http://www.w3.org/1999/xlink"
   xmlns:sodipodi="http://sodipodi.sourceforge.net/DTD/sodipodi-0.dtd"
   xmlns:inkscape="http://www.inkscape.org/namespaces/inkscape"
   width="128"
   height="128"
   id="svg2"
   version="1.1"
   inkscape:version="0.48.5 r10040"
   sodipodi:docname="folder-google-drive.svg"
   inkscape:export-filename="/media/Data/Main/Visuals/Icons/Numix/Desktop/repos/numix-wiki/Gjorgi/Numix-folders/48/New/folder-144.png"
   inkscape:export-xdpi="270"
   inkscape:export-ydpi="270">
  <defs
     id="defs4">
    <linearGradient
       inkscape:collect="always"
       id="linearGradient3958">
      <stop
         style="stop-color:#000000;stop-opacity:1;"
         offset="0"
         id="stop3960" />
      <stop
         style="stop-color:#000000;stop-opacity:0;"
         offset="1"
         id="stop3962" />
    </linearGradient>
    <radialGradient
       inkscape:collect="always"
       xlink:href="#linearGradient3958"
       id="radialGradient3964"
       cx="32.5"
       cy="56.5"
       fx="32.5"
       fy="56.5"
       r="33.5"
       gradientTransform="matrix(1,0,0,0.10447761,0,50.597015)"
       gradientUnits="userSpaceOnUse" />
  </defs>
  <sodipodi:namedview
     id="base"
     pagecolor="#ffffff"
     bordercolor="#666666"
     borderopacity="1.0"
     inkscape:pageopacity="0.0"
     inkscape:pageshadow="2"
     inkscape:zoom="5.2755365"
     inkscape:cx="78.313187"
     inkscape:cy="66.702877"
     inkscape:document-units="px"
     inkscape:current-layer="layer1"
     showgrid="true"
     inkscape:window-width="1280"
     inkscape:window-height="998"
     inkscape:window-x="0"
     inkscape:window-y="0"
     inkscape:window-maximized="1"
     showguides="true"
     inkscape:guide-bbox="true">
    <inkscape:grid
       type="xygrid"
       id="grid2985"
       empspacing="5"
       visible="true"
       enabled="true"
       snapvisiblegridlinesonly="true" />
  </sodipodi:namedview>
  <metadata
     id="metadata7">
    <rdf:RDF>
      <cc:Work
         rdf:about="">
        <dc:format>image/svg+xml</dc:format>
        <dc:type
           rdf:resource="http://purl.org/dc/dcmitype/StillImage" />
        <dc:title />
      </cc:Work>
    </rdf:RDF>
  </metadata>
  <g
     inkscape:label="Layer 1"
     inkscape:groupmode="layer"
     id="layer1"
     transform="translate(0,-924.3622)">
    <path
       style="fill:#66bb6a;fill-opacity:1;stroke:none"
       d="m 17.999999,940.3622 c -2.927834,0 -6,3.0224 -6,6 l 0,2 -5.999999,0 c -2.940198,0 -6,2.9906 -6,6 l 0,76 c 0,4 2,6 6,6 l 116,0 c 3.13523,0 6,-2.7166 6,-6 l 0,-66 c 0,-3.0098 -2.91008,-6 -6,-6 l -6,0 0,-12 c 0,-2.9224 -2.90644,-6 -6,-6 z"
       id="path6"
       inkscape:connector-curvature="0"
       sodipodi:nodetypes="ssccssssscccsss" />
    <path
       inkscape:connector-curvature="0"
       style="fill:#000000;fill-opacity:0.32156863;stroke:none"
       d="m 17.999999,940.3622 c -2.927834,0 -6,3.0224 -6,6 l 0,2 -5.999999,0 c -2.940198,0 -6,2.9906 -6,6 l 0,76 c 0,4 2,6 6,6 l 116,0 c 3.13523,0 6,-2.7166 6,-6 l 0,-66 c 0,-3.0098 -2.91008,-6 -6,-6 l -6,0 0,-12 c 0,-2.9224 -2.90644,-6 -6,-6 l -92.000001,0 z M 6,952.3622 l 68,0 c 1.18035,0 2,1.0296 2,2 l 0,8 46,0 c 1.0111,0 2,1.0174 2,2 l 0,66 c 0,1.0426 -0.95753,2 -2,2 l -116,0 c -0.928592,0 -2,-0.7926 -2,-2 l 0,-76 c 0,-0.9848 1.033056,-2 2,-2 z"
       id="path3778" />
    <path
       style="fill:#000000;fill-opacity:0.32156863;fill-rule:evenodd"
       d="m 57.375,976.3622 15.6875,28 15.75,0 -15.75,-28 -15.6875,0 z m -2.5625,2.5 -15.625,25.25 7.3125,14.625 15.25,-26.6874 -6.9375,-13.1876 z m 2.1875,29.5 -7.9375,12 31.75,0 8,-12 -31.8125,0 z"
       id="polygon3475-1"
       inkscape:connector-curvature="0" />
  </g>
</svg>
