<svg xmlns="http://www.w3.org/2000/svg" viewBox="0 0 96 96">
 <g transform="translate(0,-956.3622)">
  <g transform="translate(0,-1.6906738e-6)">
   <path d="m 18 966.36 c -2.216 0 -4 1.784 -4 4 l 0 32 c 0 2.216 1.784 4 4 4 l 60 0 c 2.216 0 4 -1.784 4 -4 l 0 -28 -8 -8 z" style="fill:#e3e1cf;fill-opacity:1;stroke:none"/>
   <rect rx="4" y="996.36" x="6" height="40" width="84" style="fill:#f57c00;fill-opacity:1;stroke:none"/>
   <path d="m 10 996.36 c -2.216 0 -4 1.784 -4 4 l 0 2 c 0 -2.216 1.784 -4 4 -4 l 76 0 c 2.216 0 4 1.784 4 4 l 0 -2 c 0 -2.216 -1.784 -4 -4 -4 l -76 0 z" style="fill:#fff;opacity:0.1;fill-opacity:1;stroke:none"/>
   <path d="m 74 966.36 0 8 8 0 z" style="fill:#fff;fill-opacity:1;stroke:none"/>
   <path d="m 82 982.36 0 -8 -8 0 z" style="fill:#000;opacity:0.2;fill-opacity:1;stroke:none"/>
   <rect rx="2" y="972.36" x="20" height="4" width="48" style="fill:#a1a195;fill-opacity:1;stroke:none"/>
   <rect width="56" height="4" x="20" y="980.36" rx="2" style="fill:#a1a195;fill-opacity:1;stroke:none"/>
   <rect rx="2" y="988.36" x="20" height="4" width="56" style="fill:#a1a195;fill-opacity:1;stroke:none"/>
  </g>
  <path d="m 85.996 1021.37 c 0.137 6.739 -3.452 13.03 -9.39 16.438 -5.93 3.411 -13.282 3.411 -19.22 0 -5.938 -3.411 -9.527 -9.699 -9.382 -16.438 -0.144 -6.747 3.444 -13.03 9.382 -16.445 5.938 -3.411 13.29 -3.411 19.22 0 5.938 3.411 9.527 9.698 9.39 16.445 z" style="fill:#859900;fill-rule:evenodd"/>
  <path d="m 77.39 1009.42 c -0.403 0.142 -0.745 0.414 -0.973 0.768 l -10.355 10.02 -6.463 -6.167 c -0.259 -0.851 -1.072 -1.423 -1.977 -1.378 -0.897 0.052 -1.642 0.708 -1.81 1.581 -0.16 0.881 0.312 1.755 1.14 2.108 l 7.785 7.711 c 0.745 0.693 1.901 0.693 2.646 0 l 11.678 -11.566 c 0.456 -0.595 0.517 -1.408 0.16 -2.071 -0.357 -0.663 -1.08 -1.054 -1.832 -1.01 z" style="fill:#fff"/>
 </g>
</svg>
