<?xml version="1.0" encoding="UTF-8" standalone="no"?>
<svg
   xmlns:dc="http://purl.org/dc/elements/1.1/"
   xmlns:cc="http://creativecommons.org/ns#"
   xmlns:rdf="http://www.w3.org/1999/02/22-rdf-syntax-ns#"
   xmlns:svg="http://www.w3.org/2000/svg"
   xmlns="http://www.w3.org/2000/svg"
   xmlns:sodipodi="http://sodipodi.sourceforge.net/DTD/sodipodi-0.dtd"
   xmlns:inkscape="http://www.inkscape.org/namespaces/inkscape"
   viewBox="0 0 64 64"
   id="svg2"
   version="1.1"
   inkscape:version="0.91 r13725"
   sodipodi:docname="blue-add-folders-to-archive.svg">
  <metadata
     id="metadata38">
    <rdf:RDF>
      <cc:Work
         rdf:about="">
        <dc:format>image/svg+xml</dc:format>
        <dc:type
           rdf:resource="http://purl.org/dc/dcmitype/StillImage" />
      </cc:Work>
    </rdf:RDF>
  </metadata>
  <defs
     id="defs36" />
  <sodipodi:namedview
     pagecolor="#ffffff"
     bordercolor="#666666"
     borderopacity="1"
     objecttolerance="10"
     gridtolerance="10"
     guidetolerance="10"
     inkscape:pageopacity="0"
     inkscape:pageshadow="2"
     inkscape:window-width="722"
     inkscape:window-height="480"
     id="namedview34"
     showgrid="false"
     inkscape:zoom="3.6875"
     inkscape:cx="32"
     inkscape:cy="32"
     inkscape:window-x="10"
     inkscape:window-y="34"
     inkscape:window-maximized="0"
     inkscape:current-layer="svg2" />
  <path
     d="m 6,29.5278 0,21.412 32,0 0,-10.706 -1.524,-9.177 -11.976,-0.059 -1.5,-3 -15.476,0 c -0.762,0 -1.524,0.765 -1.524,1.53 z"
     style="fill:#512da8;fill-opacity:1;stroke:none"
     id="path8"
     inkscape:connector-curvature="0" />
  <rect
     width="15.786"
     height="5.941"
     x="8.5"
     y="31.997786"
     style="fill:#fffdf0;fill-opacity:1;stroke:none"
     id="rect10" />
  <path
     d="M 7.531,27.9978 C 6.769,27.9978 6,28.7638 6,29.5288 l 0,1 c 0,-0.765 0.769,-1.531 1.531,-1.531 l 14.969,0 1.5,3 12.469,0.062 1.531,9.172 0,-1 -1.531,-9.172 -11.969,-0.062 -1.5,-3 z"
     style="opacity:0.01499999;fill:#000000;fill-opacity:1;stroke:none"
     id="path12"
     inkscape:connector-curvature="0" />
  <path
     d="m 38,32.5878 0,21.412 -32,0 0,-20 15,0 1.5,-3 13.976,0.059 c 0.762,0 1.524,0.765 1.524,1.53 z"
     style="fill:#7e57c2;fill-opacity:1;stroke:none"
     id="path14"
     inkscape:connector-curvature="0" />
  <path
     d="m 6,52.9978 0,1 32,0 0,-1 z"
     style="opacity:0.075;fill:#000000;fill-opacity:1;stroke:none"
     id="path16"
     inkscape:connector-curvature="0" />
  <path
     d="m 22.5,30.9978 -1.5,3 -15,0 0,1 15.5,0 1.5,-3 13.469,0.062 c 0.762,0 1.531,0.767 1.531,1.531 l 0,-1 c 0,-0.765 -0.769,-1.531 -1.531,-1.531 z"
     style="opacity:0.01499999;fill:#000000;fill-opacity:1;stroke:none"
     id="path18"
     inkscape:connector-curvature="0" />
  <path
     inkscape:connector-curvature="0"
     id="path20"
     style="fill:#512da8;fill-opacity:1;stroke:none"
     d="m 26,11.5278 0,21.412 32,0 0,-10.706 -1.524,-9.177 -11.976,-0.059 -1.5,-3 -15.476,0 c -0.762,0 -1.524,0.765 -1.524,1.53 z" />
  <rect
     id="rect22"
     style="fill:#fffdf0;fill-opacity:1;stroke:none"
     y="13.997786"
     x="28.5"
     height="5.941"
     width="15.786" />
  <path
     inkscape:connector-curvature="0"
     id="path24"
     style="opacity:0.02999998;fill:#000000;fill-opacity:1;stroke:none"
     d="m 27.531,9.9978 c -0.762,0 -1.531,0.766 -1.531,1.531 l 0,1 c 0,-0.765 0.769,-1.531 1.531,-1.531 l 14.969,0 1.5,3 12.469,0.062 1.531,9.172 0,-1 -1.531,-9.172 -11.969,-0.062 -1.5,-3 z" />
  <path
     style="fill:#ffffff;fill-opacity:1;stroke:none;opacity:0.5"
     d="M 7.5234375 27.998047 C 7.4301315 27.998047 7.3380008 28.009714 7.2460938 28.03125 C 6.6812478 28.163606 6.1695572 28.675481 6.0351562 29.242188 C 6.0350144 29.242777 6.0352973 29.243551 6.0351562 29.244141 C 6.0131223 29.337656 6 29.432364 6 29.527344 C 5.9999989 29.527989 6 29.528652 6 29.529297 L 6 30.529297 L 6 33.998047 L 6 34 L 6 34.998047 L 6 50.939453 L 6 52.998047 L 6 53.998047 L 6 54 L 38 54 L 38 53.998047 L 38 52.998047 L 38 50.939453 L 38 41.232422 L 38 40.234375 L 38 40.232422 L 38 33.589844 L 38 32.589844 C 38 32.589844 38 32.587891 38 32.587891 C 38 32.492911 37.986878 32.398203 37.964844 32.304688 C 37.964844 32.304688 37.964844 32.302734 37.964844 32.302734 C 37.808574 31.643818 37.143313 31.058594 36.476562 31.058594 L 36.476562 31.056641 L 24.5 30.998047 L 23 27.998047 L 7.5234375 27.998047 z "
     id="path4182" />
  <path
     inkscape:connector-curvature="0"
     id="path26"
     style="fill:#7e57c2;fill-opacity:1;stroke:none"
     d="m 58,14.5878 0,21.412 -32,0 0,-20 15,0 1.5,-3 13.976,0.059 c 0.762,0 1.524,0.765 1.524,1.529 z" />
  <path
     inkscape:connector-curvature="0"
     id="path28"
     style="opacity:0.15;fill:#000000;fill-opacity:1;stroke:none"
     d="m 26,34.9978 0,1 32,0 0,-1 z" />
  <path
     inkscape:connector-curvature="0"
     id="path30"
     style="opacity:0.02999998;fill:#000000;fill-opacity:1;stroke:none"
     d="m 42.5,12.9978 -1.5,3 -15,0 0,1 15.5,0 1.5,-3 13.469,0.062 c 0.762,0 1.531,0.767 1.531,1.531 l 0,-1 c 0,-0.765 -0.769,-1.531 -1.531,-1.531 z" />
  <path
     inkscape:connector-curvature="0"
     id="path32"
     style="fill:#4caf50;fill-opacity:1"
     d="m 56,35.9978 -11,0 0,-11 -13,0 0,11 -11,0 0,13 11,0 0,11 13,0 0,-11 11,0 z" />
</svg>
