<?xml version="1.0" encoding="UTF-8" standalone="no"?>
<svg
   xmlns:dc="http://purl.org/dc/elements/1.1/"
   xmlns:cc="http://creativecommons.org/ns#"
   xmlns:rdf="http://www.w3.org/1999/02/22-rdf-syntax-ns#"
   xmlns:svg="http://www.w3.org/2000/svg"
   xmlns="http://www.w3.org/2000/svg"
   xmlns:sodipodi="http://sodipodi.sourceforge.net/DTD/sodipodi-0.dtd"
   xmlns:inkscape="http://www.inkscape.org/namespaces/inkscape"
   width="22"
   height="22"
   viewBox="0 0 22 22"
   id="svg3071"
   version="1.1"
   inkscape:version="0.48.5 r10040"
   sodipodi:docname="folder-templates.svg">
  <metadata
     id="metadata3085">
    <rdf:RDF>
      <cc:Work
         rdf:about="">
        <dc:format>image/svg+xml</dc:format>
        <dc:type
           rdf:resource="http://purl.org/dc/dcmitype/StillImage" />
      </cc:Work>
    </rdf:RDF>
  </metadata>
  <defs
     id="defs3083" />
  <sodipodi:namedview
     pagecolor="#ffffff"
     bordercolor="#666666"
     borderopacity="1"
     objecttolerance="10"
     gridtolerance="10"
     guidetolerance="10"
     inkscape:pageopacity="0"
     inkscape:pageshadow="2"
     inkscape:window-width="1280"
     inkscape:window-height="969"
     id="namedview3081"
     showgrid="true"
     inkscape:zoom="30.341309"
     inkscape:cx="12.075456"
     inkscape:cy="9.8845709"
     inkscape:window-x="0"
     inkscape:window-y="0"
     inkscape:window-maximized="1"
     inkscape:current-layer="svg3071">
    <inkscape:grid
       type="xygrid"
       id="grid6013" />
  </sodipodi:namedview>
  <path
     style="font-size:medium;font-style:normal;font-variant:normal;font-weight:normal;font-stretch:normal;text-indent:0;text-align:start;text-decoration:none;line-height:normal;letter-spacing:normal;word-spacing:normal;text-transform:none;direction:ltr;block-progression:tb;writing-mode:lr-tb;text-anchor:start;baseline-shift:baseline;color:#000000;fill:#e9b080;fill-opacity:1;fill-rule:nonzero;stroke:none;stroke-width:1.03313816;marker:none;visibility:visible;display:inline;overflow:visible;enable-background:accumulate;font-family:Sans;-inkscape-font-specification:Sans"
     d="m 3.0000115,2.0000005 c -0.5473306,0 -1,0.4096882 -1,1 l 0,1 -1,0 c -0.50192724,0 -0.999999944444,0.3847489 -0.999999944444,1 -1.53000004e-5,4.5937493 0,9.4062495 0,13.9999995 0,0.545771 0.493417304444,1 0.999999944444,1 l 20.0000005,0 c 0.515688,0 1,-0.437034 1,-1 l 0,-12.9999995 c 0,-0.5770209 -0.423105,-1 -1,-1 l -2,0 0,-2 c 0,-0.4874255 -0.401824,-1 -1,-1 z"
     id="path2995"
     inkscape:connector-curvature="0"
     sodipodi:nodetypes="ccccccssssscssc" />
  <path
     style="fill:#000000;fill-opacity:0.32156864"
     d="M 7.792969 9.167969 C 7.792969 9.167969 7.332031 9.183594 7.332031 9.625 L 7.332031 10.542969 L 8.25 10.542969 L 8.25 10.082031 L 8.707031 10.082031 L 8.707031 9.167969 Z M 9.167969 9.167969 L 9.167969 10.082031 L 10.082031 10.082031 L 10.082031 9.167969 Z M 10.542969 9.167969 L 10.542969 10.082031 L 11.457031 10.082031 L 11.457031 9.167969 Z M 11.917969 9.167969 L 11.917969 10.082031 L 12.832031 10.082031 L 12.832031 9.167969 Z M 13.292969 9.167969 L 13.292969 10.082031 L 13.75 10.082031 L 13.75 10.542969 L 14.667969 10.542969 L 14.667969 9.625 C 14.667969 9.167969 14.207031 9.167969 14.207031 9.167969 Z M 7.332031 11 L 7.332031 11.917969 L 8.25 11.917969 L 8.25 11 Z M 13.75 11 L 13.75 11.917969 L 14.667969 11.917969 L 14.667969 11 Z M 7.332031 12.375 L 7.332031 13.292969 L 8.25 13.292969 L 8.25 12.375 Z M 13.75 12.375 L 13.75 13.292969 L 14.667969 13.292969 L 14.667969 12.375 Z M 7.332031 13.75 L 7.332031 14.667969 L 8.25 14.667969 L 8.25 13.75 Z M 13.75 13.75 L 13.75 14.667969 L 14.667969 14.667969 L 14.667969 13.75 Z M 7.332031 15.125 L 7.332031 16.042969 C 7.332031 16.5 7.792969 16.5 7.792969 16.5 L 8.707031 16.5 L 8.707031 15.582031 L 8.25 15.582031 L 8.25 15.125 Z M 13.75 15.125 L 13.75 15.582031 L 13.292969 15.582031 L 13.292969 16.5 L 14.207031 16.5 C 14.207031 16.5 14.667969 16.5 14.667969 16.042969 L 14.667969 15.125 Z M 9.167969 15.582031 L 9.167969 16.5 L 10.082031 16.5 L 10.082031 15.582031 Z M 10.542969 15.582031 L 10.542969 16.5 L 11.457031 16.5 L 11.457031 15.582031 Z M 11.917969 15.582031 L 11.917969 16.5 L 12.832031 16.5 L 12.832031 15.582031 Z "
     id="path3079" />
  <path
     style="font-size:medium;font-style:normal;font-variant:normal;font-weight:normal;font-stretch:normal;text-indent:0;text-align:start;text-decoration:none;line-height:normal;letter-spacing:normal;word-spacing:normal;text-transform:none;direction:ltr;block-progression:tb;writing-mode:lr-tb;text-anchor:start;baseline-shift:baseline;color:#000000;fill:#000000;fill-opacity:0.32156863;fill-rule:nonzero;stroke:none;stroke-width:1.03313816;marker:none;visibility:visible;display:inline;overflow:visible;enable-background:accumulate;font-family:Sans;-inkscape-font-specification:Sans"
     d="m 3.0000115,2.0000005 c -0.5444543,0 -1,0.3988699 -1,1 l 0,1 -1,0 c -0.50675944,0 -0.999999944444,0.3964676 -0.999999944444,1 -2.6e-5,4.5937491 0,9.4062495 0,13.9999995 0,0.487177 0.419198504444,1 0.999999944444,1 l 20.0000005,0 c 0.521212,0 1,-0.442558 1,-1 l 0,-12.9999995 c 0,-0.5731146 -0.393904,-1 -1,-1 l -2,0 0,-2 c 0,-0.5585119 -0.457433,-1 -1,-1 z m 10.0000005,3 0,1 8,0 0,12.9999995 -20.0000005,0 0,-13.9999995 z"
     id="path3786"
     inkscape:connector-curvature="0"
     sodipodi:nodetypes="ssccccssssscsssccccccc" />
</svg>
