<?xml version="1.0" encoding="UTF-8" standalone="no"?>
<svg
   xmlns:dc="http://purl.org/dc/elements/1.1/"
   xmlns:cc="http://creativecommons.org/ns#"
   xmlns:rdf="http://www.w3.org/1999/02/22-rdf-syntax-ns#"
   xmlns:svg="http://www.w3.org/2000/svg"
   xmlns="http://www.w3.org/2000/svg"
   xmlns:sodipodi="http://sodipodi.sourceforge.net/DTD/sodipodi-0.dtd"
   xmlns:inkscape="http://www.inkscape.org/namespaces/inkscape"
   width="22"
   height="22"
   viewBox="0 0 22 22"
   id="svg3039"
   version="1.1"
   inkscape:version="0.48.5 r10040"
   sodipodi:docname="folder-saved-search.svg">
  <metadata
     id="metadata3053">
    <rdf:RDF>
      <cc:Work
         rdf:about="">
        <dc:format>image/svg+xml</dc:format>
        <dc:type
           rdf:resource="http://purl.org/dc/dcmitype/StillImage" />
      </cc:Work>
    </rdf:RDF>
  </metadata>
  <defs
     id="defs3051" />
  <sodipodi:namedview
     pagecolor="#ffffff"
     bordercolor="#666666"
     borderopacity="1"
     objecttolerance="10"
     gridtolerance="10"
     guidetolerance="10"
     inkscape:pageopacity="0"
     inkscape:pageshadow="2"
     inkscape:window-width="1280"
     inkscape:window-height="969"
     id="namedview3049"
     showgrid="false"
     inkscape:zoom="21.454545"
     inkscape:cx="7.5977502"
     inkscape:cy="11.874479"
     inkscape:window-x="0"
     inkscape:window-y="0"
     inkscape:window-maximized="1"
     inkscape:current-layer="svg3039" />
  <path
     style="font-size:medium;font-style:normal;font-variant:normal;font-weight:normal;font-stretch:normal;text-indent:0;text-align:start;text-decoration:none;line-height:normal;letter-spacing:normal;word-spacing:normal;text-transform:none;direction:ltr;block-progression:tb;writing-mode:lr-tb;text-anchor:start;baseline-shift:baseline;color:#000000;fill:#e9b080;fill-opacity:1;fill-rule:nonzero;stroke:none;stroke-width:1.03313816;marker:none;visibility:visible;display:inline;overflow:visible;enable-background:accumulate;font-family:Sans;-inkscape-font-specification:Sans"
     d="m 3.0000115,2.0000005 c -0.5473306,0 -1,0.4096882 -1,1 l 0,1 -1,0 c -0.50192724,0 -0.999999944444,0.3847489 -0.999999944444,1 -1.53000004e-5,4.5937493 0,9.4062505 0,13.9999995 0,0.545771 0.493417304444,1 0.999999944444,1 l 20.0000005,0 c 0.515688,0 1,-0.437034 1,-1 l 0,-12.9999995 c 0,-0.5770209 -0.423105,-1 -1,-1 l -2,0 0,-2 c 0,-0.4874255 -0.401824,-1 -1,-1 z"
     id="path2995"
     inkscape:connector-curvature="0"
     sodipodi:nodetypes="ccccccssssscssc" />
  <path
     style="fill:#000000;fill-opacity:0.32156864"
     d="M 13.925781 9.90625 C 12.929688 8.914062 11.324219 8.921875 10.332031 9.914062 C 9.488281 10.757812 9.363281 12.042969 9.953125 13.019531 L 7.503906 15.46875 C 7.273438 15.699219 7.273438 16.0625 7.503906 16.292969 L 7.539062 16.328125 C 7.769531 16.558594 8.132812 16.558594 8.363281 16.328125 L 10.8125 13.878906 C 11.789062 14.472656 13.078125 14.347656 13.925781 13.503906 C 14.917969 12.511719 14.917969 10.902344 13.925781 9.910156 Z M 13.367188 10.464844 C 14.046875 11.148438 14.046875 12.261719 13.367188 12.945312 C 12.6875 13.621094 11.59375 13.621094 10.910156 12.957031 L 10.890625 12.941406 C 10.886719 12.933594 10.878906 12.925781 10.871094 12.921875 C 10.207031 12.238281 10.214844 11.148438 10.890625 10.472656 C 11.574219 9.789062 12.683594 9.785156 13.367188 10.464844 Z "
     id="path3047" />
  <path
     style="font-size:medium;font-style:normal;font-variant:normal;font-weight:normal;font-stretch:normal;text-indent:0;text-align:start;text-decoration:none;line-height:normal;letter-spacing:normal;word-spacing:normal;text-transform:none;direction:ltr;block-progression:tb;writing-mode:lr-tb;text-anchor:start;baseline-shift:baseline;color:#000000;fill:#000000;fill-opacity:0.32156863;fill-rule:nonzero;stroke:none;stroke-width:1.03313816;marker:none;visibility:visible;display:inline;overflow:visible;enable-background:accumulate;font-family:Sans;-inkscape-font-specification:Sans"
     d="m 3.0000115,2.0000005 c -0.5444543,0 -1,0.3988699 -1,1 l 0,1 -1,0 c -0.50675944,0 -0.999999944444,0.3964676 -0.999999944444,1 -2.6e-5,4.5937491 0,9.4062505 0,13.9999995 0,0.487177 0.419198504444,1 0.999999944444,1 l 20.0000005,0 c 0.521212,0 1,-0.442558 1,-1 l 0,-12.9999995 c 0,-0.5731146 -0.393904,-1 -1,-1 l -2,0 0,-2 c 0,-0.5585119 -0.457433,-1 -1,-1 z m 10.0000005,3 0,1 8,0 0,12.9999995 -20.0000005,0 0,-13.9999995 z"
     id="path3786"
     inkscape:connector-curvature="0"
     sodipodi:nodetypes="ssccccssssscsssccccccc" />
</svg>
