<?xml version="1.0" encoding="UTF-8" standalone="no"?>
<svg
   xmlns:dc="http://purl.org/dc/elements/1.1/"
   xmlns:cc="http://creativecommons.org/ns#"
   xmlns:rdf="http://www.w3.org/1999/02/22-rdf-syntax-ns#"
   xmlns:svg="http://www.w3.org/2000/svg"
   xmlns="http://www.w3.org/2000/svg"
   xmlns:sodipodi="http://sodipodi.sourceforge.net/DTD/sodipodi-0.dtd"
   xmlns:inkscape="http://www.inkscape.org/namespaces/inkscape"
   width="22"
   height="22"
   viewBox="0 0 22 22"
   id="svg3009"
   version="1.1"
   inkscape:version="0.48.5 r10040"
   sodipodi:docname="folder-dropbox.svg">
  <metadata
     id="metadata3023">
    <rdf:RDF>
      <cc:Work
         rdf:about="">
        <dc:format>image/svg+xml</dc:format>
        <dc:type
           rdf:resource="http://purl.org/dc/dcmitype/StillImage" />
      </cc:Work>
    </rdf:RDF>
  </metadata>
  <defs
     id="defs3021" />
  <sodipodi:namedview
     pagecolor="#ffffff"
     bordercolor="#666666"
     borderopacity="1"
     objecttolerance="10"
     gridtolerance="10"
     guidetolerance="10"
     inkscape:pageopacity="0"
     inkscape:pageshadow="2"
     inkscape:window-width="1280"
     inkscape:window-height="998"
     id="namedview3019"
     showgrid="true"
     inkscape:zoom="8"
     inkscape:cx="-32.009634"
     inkscape:cy="13.00949"
     inkscape:window-x="0"
     inkscape:window-y="0"
     inkscape:window-maximized="1"
     inkscape:current-layer="svg3009">
    <inkscape:grid
       type="xygrid"
       id="grid3027" />
  </sodipodi:namedview>
  <path
     style="font-size:medium;font-style:normal;font-variant:normal;font-weight:normal;font-stretch:normal;text-indent:0;text-align:start;text-decoration:none;line-height:normal;letter-spacing:normal;word-spacing:normal;text-transform:none;direction:ltr;block-progression:tb;writing-mode:lr-tb;text-anchor:start;baseline-shift:baseline;color:#000000;fill:#c4905e;fill-opacity:1;fill-rule:nonzero;stroke:none;stroke-width:1.52408636;marker:none;visibility:visible;display:inline;overflow:visible;enable-background:accumulate;font-family:Sans;-inkscape-font-specification:Sans"
     d="M 1.625 3 C 1.2775698 3.063546 0.99985299 3.3968062 1 3.75 L 1 18.25 C 1.00617 18.640979 1.3590206 18.99383 1.75 19 L 20.25 19 C 20.640979 18.9938 20.99383 18.640979 21 18.25 L 21 5.8125 C 20.9938 5.4215206 20.640979 5.0686695 20.25 5.0625 L 13 5.0625 L 13 3.75 C 12.9938 3.3590206 12.640979 3.0061695 12.25 3 L 1.75 3 C 1.708427 2.99658 1.666573 2.99658 1.625 3 z M 8.9375 7.9375 L 11 9.53125 L 13.0625 7.9375 L 15.125 9.53125 L 13.0625 10.90625 L 15.125 12.75 L 11 15.5 L 6.875 12.75 L 8.9375 10.90625 L 6.875 9.53125 L 8.9375 7.9375 z "
     id="path3912" />
</svg>
