<!-- Created with Inkscape (http://www.inkscape.org/) -->
<svg xmlns="http://www.w3.org/2000/svg" viewBox="0 0 128 128">
 <g transform="translate(0,-924.3622)">
  <rect width="104" height="40" x="12" y="948.36" style="fill:#1976d2;fill-opacity:1;stroke:none"/>
  <path d="m 24 948.36 c 0 -4 0 -8 5.818 -8 l 20.364 0 c 5.818 0 5.818 4 5.818 8 l 0 4 -32 0 z" style="fill:#1976d2;fill-opacity:1;stroke:none"/>
  <path d="m 20 956.36 88 0 0 19.871 -88 0 z" style="fill:#95989f;fill-opacity:1;stroke:none"/>
  <rect y="952.36" x="28" height="52" width="76" style="fill:#d8d8da;fill-opacity:1;stroke:none"/>
  <rect width="76" height="52" x="24" y="960.36" style="fill:#f9f9f9;fill-opacity:1;stroke:none"/>
  <path d="m 4 964.36 120 0 -8.571 72 -102.86 0 z" style="fill:#42a5f5;fill-opacity:1;stroke:none"/>
  <path d="m 58 982.36 a 14 14 0 0 0 -14 14 14 14 0 0 0 1.313 6 l -1.313 0 0 0.188 a 10 10 0 0 0 -8 9.812 10 10 0 0 0 8 9.813 l 0 0.188 2 0 0.688 0 37.31 0 0 -0.188 a 10 10 0 0 0 8 -9.813 10 10 0 0 0 -8 -9.812 l 0 -0.188 -2 0 a 10 10 0 0 0 2 -6 10 10 0 0 0 -10 -10 10 10 0 0 0 -5.063 1.375 A 14 14 0 0 0 58 982.36 z" style="fill:#2a74b9;opacity:1;fill-opacity:1;stroke:none"/>
 </g>
</svg>
