<!-- Created with Inkscape (http://www.inkscape.org/) -->
<svg xmlns="http://www.w3.org/2000/svg" viewBox="0 0 128 128">
 <g transform="translate(0,-924.3622)">
  <path d="m 12 948.36 104 0 0 40 -104 0 z m 0 0" style="fill:#1976d2;fill-opacity:1;stroke:none;fill-rule:nonzero"/>
  <path d="m 24 948.36 c 0 -4 0 -8 5.816 -8 l 20.367 0 c 5.816 0 5.816 4 5.816 8 l 0 4 -32 0 z m 0 0" style="fill:#1976d2;fill-opacity:1;stroke:none;fill-rule:nonzero"/>
  <path d="m 20 956.36 88 0 0 19.871 -88 0 z m 0 0" style="fill:#94979e;fill-opacity:1;stroke:none;fill-rule:nonzero"/>
  <path d="m 28 952.36 76 0 0 52 -76 0 z m 0 0" style="fill:#d7d7d9;fill-opacity:1;stroke:none;fill-rule:nonzero"/>
  <path d="m 24 960.36 76 0 0 52 -76 0 z m 0 0" style="fill:#f8f8f8;fill-opacity:1;stroke:none;fill-rule:nonzero"/>
  <path d="m 4 964.36 120 0 -8.57 72 -102.86 0 z m 0 0" style="fill:#42a5f5;fill-opacity:1;stroke:none;fill-rule:nonzero"/>
  <path d="m 64 49 c -1 0 -2 1 -4 3 l -16 16 c -8.814 8 -12 8 0 8 l 0 20 c 0 4.432 3.568 8 8 8 l 6 0 l 0 -20 l 12 0 l 0 20 l 6 0 c 4.432 0 8 -3.568 8 -8 l 0 -20 c 12 0 9.153 0 0 -8 l 0 -12 c 0 -2.216 0 -4 -4 -4 c -4 0 -4 1.784 -4 4 l 0 4 l -8 -8 c -2 -2 -3 -3 -4 -3 z" transform="translate(0,924.3622)" style="fill:#2a74b9;opacity:1;fill-opacity:1"/>
 </g>
</svg>
