<!-- Created with Inkscape (http://www.inkscape.org/) -->
<svg xmlns="http://www.w3.org/2000/svg" viewBox="0 0 128 128">
 <g transform="translate(0,-924.3622)">
  <rect width="104" height="40" x="12" y="948.36" style="fill:#ea9036;fill-opacity:1;stroke:none"/>
  <path d="m 24 948.36 c 0 -4 0 -8 5.818 -8 l 20.364 0 c 5.818 0 5.818 4 5.818 8 l 0 4 -32 0 z" style="fill:#ea9036;fill-opacity:1;stroke:none"/>
  <path d="m 20 956.36 88 0 0 19.871 -88 0 z" style="fill:#95989f;fill-opacity:1;stroke:none"/>
  <rect y="952.36" x="28" height="52" width="76" style="fill:#d8d8da;fill-opacity:1;stroke:none"/>
  <rect width="76" height="52" x="24" y="960.36" style="fill:#f9f9f9;fill-opacity:1;stroke:none"/>
  <path d="m 4 964.36 120 0 -8.571 72 -102.86 0 z" style="fill:#f2bb64;fill-opacity:1;stroke:none"/>
  <path d="m 48 976.36 c -2.849 0 -4 1.341 -4 4 l 0 40 c 0 2.659 1.151 4 4 4 l 30.875 0 c 2.849 0 5.125 -1.341 5.125 -4 l 0 -40 c 0 -2.659 -1.151 -4 -4 -4 l -32 0 z m 3 4 c 1.657 0 3 1.343 3 3 0 1.657 -1.343 3 -3 3 -1.657 0 -3 -1.343 -3 -3 0 -1.657 1.343 -3 3 -3 z m 26 0 c 1.657 0 3 1.343 3 3 0 1.657 -1.343 3 -3 3 -1.657 0 -3 -1.343 -3 -3 0 -1.657 1.343 -3 3 -3 z m -13 4 c 4.418 0 8 3.582 8 8 0 4.418 -3.582 8 -8 8 -4.418 0 -8 -3.582 -8 -8 0 -4.418 3.582 -8 8 -8 z m -13 14 c 1.657 0 3 1.343 3 3 0 1.657 -1.343 3 -3 3 -1.657 0 -3 -1.343 -3 -3 0 -1.657 1.343 -3 3 -3 z m 26 0 c 1.657 0 3 1.343 3 3 0 1.657 -1.343 3 -3 3 -1.657 0 -3 -1.343 -3 -3 0 -1.657 1.343 -3 3 -3 z m -27 18 28 0 c 1.108 0 2 0.892 2 2 0 1.108 -0.892 2 -2 2 l -28 0 c -1.108 0 -2 -0.892 -2 -2 0 -1.108 0.892 -2 2 -2 z" style="fill:#b58c4b;opacity:1;fill-opacity:1;stroke:none"/>
  <path d="m 34 34 c 0 1.105 -0.895 2 -2 2 -1.105 0 -2 -0.895 -2 -2 0 -1.105 0.895 -2 2 -2 1.105 0 2 0.895 2 2 z" transform="matrix(2,0,0,2,0,924.3622)" style="fill:#b58c4b;opacity:1;fill-opacity:1;stroke:none;fill-rule:evenodd"/>
 </g>
</svg>
