<svg xmlns="http://www.w3.org/2000/svg" viewBox="0 0 128 128">
 <g transform="translate(0,-924.3622)">
  <rect width="104" height="40" x="12" y="948.36" style="fill:#ea9036;fill-opacity:1;stroke:none"/>
  <path d="m 24 948.36 c 0 -4 0 -8 5.818 -8 l 20.364 0 c 5.818 0 5.818 4 5.818 8 l 0 4 -32 0 z" style="fill:#ea9036;fill-opacity:1;stroke:none"/>
  <path d="m 20 956.36 88 0 0 19.871 -88 0 z" style="fill:#95989f;fill-opacity:1;stroke:none"/>
  <rect y="952.36" x="28" height="52" width="76" style="fill:#d8d8da;fill-opacity:1;stroke:none"/>
  <rect width="76" height="52" x="24" y="960.36" style="fill:#f9f9f9;fill-opacity:1;stroke:none"/>
  <path d="m 4 964.36 120 0 -8.571 72 -102.86 0 z" style="fill:#f2bb64;fill-opacity:1;stroke:none"/>
  <polygon transform="matrix(3.582032e-4,0,0,3.121142e-4,41.08756,986.3626)" points="110963,115341 22194,115341 44385,76894 133156,76894 " style="fill:#b58c4b;opacity:1;fill-opacity:1;fill-rule:evenodd"/>
  <polygon transform="matrix(3.54043e-4,0,0,3.641393e-4,41.641516,978.362)" points="88772,0 44385,0 88772,76894 133156,76894 " style="fill:#b58c4b;opacity:1;fill-opacity:1;fill-rule:evenodd"/>
  <path d="m 54.841 980.88 -15.641 25.22 l 7.324 14.662 15.232 -26.686 z" style="fill:#b58c4b;opacity:1;fill-opacity:1;fill-rule:evenodd"/>
 </g>
</svg>
