<svg xmlns="http://www.w3.org/2000/svg" viewBox="0 0 128 128">
 <g transform="translate(0,-924.3622)">
  <path d="m 12 948.36 104 0 0 40 -104 0 z m 0 0" style="fill:#757575;fill-opacity:1;stroke:none;fill-rule:nonzero"/>
  <path d="m 24 948.36 c 0 -4 0 -8 5.816 -8 l 20.367 0 c 5.816 0 5.816 4 5.816 8 l 0 4 -32 0 z m 0 0" style="fill:#757575;fill-opacity:1;stroke:none;fill-rule:nonzero"/>
  <path d="m 20 956.36 88 0 0 19.871 -88 0 z m 0 0" style="fill:#94979e;fill-opacity:1;stroke:none;fill-rule:nonzero"/>
  <path d="m 28 952.36 76 0 0 52 -76 0 z m 0 0" style="fill:#d7d7d9;fill-opacity:1;stroke:none;fill-rule:nonzero"/>
  <path d="m 24 960.36 76 0 0 52 -76 0 z m 0 0" style="fill:#f8f8f8;fill-opacity:1;stroke:none;fill-rule:nonzero"/>
  <path d="m 4 964.36 120 0 -8.57 72 -102.86 0 z m 0 0" style="fill:#bdbdbd;fill-opacity:1;stroke:none;fill-rule:nonzero"/>
  <g transform="matrix(4,0,0,4,32,-3177.0866)" style="fill:#7f7f7f;opacity:1;fill-opacity:1">
   <path d="m 2.5 1037.86 c 0 0 -1 0.038 -1 1 l 0 2 2 0 0 -1 1 0 0 -2 -1.906 0 z m 3 0 0 2 2 0 0 -2 z m 3 0 0 2 2 0 0 -2 z m 3 0 0 2 1 0 0 1 2 0 0 -2 c 0 -1 -1 -1 -1 -1 z m -10 4 0 2 2 0 0 -2 z m 11 0 0 2 2 0 0 -2 z m -11 3 0 2 2 0 0 -2 z m 11 0 0 2 2 0 0 -2 z m -11 3 0 2 c 0 1 1 1 1 1 l 2 0 0 -2 -1 0 0 -1 z m 11 0 0 1 -1 0 0 2 2 0 c 0 0 1 0 1 -1 l 0 -2 z m -7 1 0 2 2 0 0 -2 z m 3 0 0 2 2 0 0 -2 z" style="color:#000"/>
  </g>
 </g>
</svg>
