<svg xmlns="http://www.w3.org/2000/svg" viewBox="0 0 128 128">
 <g transform="translate(0,-924.3622)">
  <path d="m 12 948.36 104 0 0 40 -104 0 z m 0 0" style="fill:#757575;fill-opacity:1;stroke:none;fill-rule:nonzero"/>
  <path d="m 24 948.36 c 0 -4 0 -8 5.816 -8 l 20.367 0 c 5.816 0 5.816 4 5.816 8 l 0 4 -32 0 z m 0 0" style="fill:#757575;fill-opacity:1;stroke:none;fill-rule:nonzero"/>
  <path d="m 20 956.36 88 0 0 19.871 -88 0 z m 0 0" style="fill:#94979e;fill-opacity:1;stroke:none;fill-rule:nonzero"/>
  <path d="m 28 952.36 76 0 0 52 -76 0 z m 0 0" style="fill:#d7d7d9;fill-opacity:1;stroke:none;fill-rule:nonzero"/>
  <path d="m 24 960.36 76 0 0 52 -76 0 z m 0 0" style="fill:#f8f8f8;fill-opacity:1;stroke:none;fill-rule:nonzero"/>
  <path d="m 4 964.36 120 0 -8.57 72 -102.86 0 z m 0 0" style="fill:#bdbdbd;fill-opacity:1;stroke:none;fill-rule:nonzero"/>
  <path d="m 82.08 976.37 c -2.073 0.032 -4.112 1.307 -4.438 3.683 -0.522 3.802 3.394 2.376 6.527 2.376 3.133 0 4.177 6.178 3.394 9.504 -0.783 3.327 -9.11 11.184 -27.935 3.327 c -15.498 -6.469 -23.24 2.144 -23.627 2.317 c 1.467 12.852 13.425 26.79 27.935 26.79 15.5 0 28.07 -15.356 28.07 -29.463 0 -1.62 -0.205 -3.216 -0.522 -4.752 -0.288 -0.777 -0.572 -1.551 -0.783 -2.257 -0.379 -1.266 -0.808 -2.333 -1.175 -3.327 -0.016 -0.032 0.016 -0.086 0 -0.12 -1.484 -2.999 -3.564 -5.71 -6.135 -7.96 -0.012 -0.026 -0.054 0.028 -0.065 0 -0.402 -0.094 -0.826 -0.124 -1.24 -0.12 z" style="fill:#7f7f7f;opacity:1;fill-opacity:1;color:#000"/>
  <path d="m 76 988.36 c 0 2.209 -1.791 4 -4 4 -2.209 0 -4 -1.79 -4 -4 0 -2.209 1.791 -4 4 -4 2.209 0 4 1.791 4 4 z" style="fill:#7f7f7f;opacity:1;fill-opacity:1;color:#000"/>
  <path d="m 64 982.36 c 0 1.105 -0.895 2 -2 2 -1.105 0 -2 -0.895 -2 -2 0 -1.105 0.895 -2 2 -2 1.105 0 2 0.895 2 2 z" style="fill:#7f7f7f;opacity:1;fill-opacity:1;color:#000"/>
 </g>
</svg>
