<!-- Created with Inkscape (http://www.inkscape.org/) -->
<svg xmlns="http://www.w3.org/2000/svg" viewBox="0 0 128 128">
 <g transform="translate(0,-924.3622)">
  <path d="m 12 948.36 104 0 0 40 -104 0 z m 0 0" style="fill:#e65100;fill-opacity:1;stroke:none;fill-rule:nonzero"/>
  <path d="m 24 948.36 c 0 -4 0 -8 5.816 -8 l 20.367 0 c 5.816 0 5.816 4 5.816 8 l 0 4 -32 0 z m 0 0" style="fill:#e65100;fill-opacity:1;stroke:none;fill-rule:nonzero"/>
  <path d="m 20 956.36 88 0 0 19.871 -88 0 z m 0 0" style="fill:#94979e;fill-opacity:1;stroke:none;fill-rule:nonzero"/>
  <path d="m 28 952.36 76 0 0 52 -76 0 z m 0 0" style="fill:#d7d7d9;fill-opacity:1;stroke:none;fill-rule:nonzero"/>
  <path d="m 24 960.36 76 0 0 52 -76 0 z m 0 0" style="fill:#f8f8f8;fill-opacity:1;stroke:none;fill-rule:nonzero"/>
  <path d="m 4 964.36 120 0 -8.57 72 -102.86 0 z m 0 0" style="fill:#f57c00;fill-opacity:1;stroke:none;fill-rule:nonzero"/>
  <path transform="matrix(2,0,0,2,4,923.3622)" d="m 17 38 c 0 1.657 -1.343 3 -3 3 -1.657 0 -3 -1.343 -3 -3 0 -1.657 1.343 -3 3 -3 1.657 0 3 1.343 3 3 z" style="fill:#ab5d0b;opacity:1;fill-opacity:1;stroke:none"/>
  <path d="m 64 975.36 c -4.584 0 -8.86 1.265 -12.5 3.5 l 5.938 5.938 c 2 -0.903 4.223 -1.438 6.563 -1.438 8.157 0 14.887 6.111 15.875 14 l 8 0 c -0.325 -3.839 -1.522 -7.451 -3.438 -10.562 -0.751 0.339 -1.56 0.562 -2.438 0.562 -3.314 0 -6 -2.686 -6 -6 0 -0.878 0.224 -1.686 0.563 -2.437 c -3.654 -2.249 -7.957 -3.563 -12.563 -3.563 z m -15.688 5.938 c -3.758 3.276 -6.532 7.663 -7.688 12.687 1.991 0.976 3.375 3.01 3.375 5.375 0 2.367 -1.384 4.399 -3.375 5.375 1.245 5.413 4.283 10.166 8.5 13.5 l 5.75 -5.75 c -4.15 -2.891 -6.875 -7.684 -6.875 -13.12 c 0 -5.02 2.32 -9.504 5.938 -12.437 l -5.625 -5.625 z m 31.563 20.06 c -0.988 7.889 -7.718 14 -15.875 14 -1.892 0 -3.691 -0.397 -5.375 -1 l -6.06 6.06 c 3.404 1.86 7.286 2.937 11.438 2.937 3.03 0 5.896 -0.541 8.563 -1.562 c -0.339 -0.752 -0.563 -1.56 -0.563 -2.438 c 0 -3.314 2.686 -6 6 -6 1.608 0 3.048 0.658 4.125 1.688 3.241 -3.742 5.319 -8.463 5.75 -13.688 l -8 0 z" style="fill:#ab5d0b;opacity:1;fill-opacity:1;stroke:none"/>
  <path d="m 17 38 c 0 1.657 -1.343 3 -3 3 -1.657 0 -3 -1.343 -3 -3 0 -1.657 1.343 -3 3 -3 1.657 0 3 1.343 3 3 z" transform="matrix(2,0,0,2,58,901.3622)" style="fill:#ab5d0b;opacity:1;fill-opacity:1;stroke:none"/>
  <path d="m 17 38 c 0 1.657 -1.343 3 -3 3 -1.657 0 -3 -1.343 -3 -3 0 -1.657 1.343 -3 3 -3 1.657 0 3 1.343 3 3 z" transform="matrix(2,0,0,2,54,947.3622)" style="fill:#ab5d0b;opacity:1;fill-opacity:1;stroke:none"/>
 </g>
</svg>
