<svg xmlns="http://www.w3.org/2000/svg" viewBox="0 0 128 128">
 <g transform="translate(0,-924.3622)">
  <path d="m 12 948.36 104 0 0 40 -104 0 z m 0 0" style="fill:#ec407a;fill-opacity:1;stroke:none;fill-rule:nonzero"/>
  <path d="m 24 948.36 c 0 -4 0 -8 5.816 -8 l 20.367 0 c 5.816 0 5.816 4 5.816 8 l 0 4 -32 0 z m 0 0" style="fill:#ec407a;fill-opacity:1;stroke:none;fill-rule:nonzero"/>
  <path d="m 20 956.36 88 0 0 19.871 -88 0 z m 0 0" style="fill:#94979e;fill-opacity:1;stroke:none;fill-rule:nonzero"/>
  <path d="m 28 952.36 76 0 0 52 -76 0 z m 0 0" style="fill:#d7d7d9;fill-opacity:1;stroke:none;fill-rule:nonzero"/>
  <path d="m 24 960.36 76 0 0 52 -76 0 z m 0 0" style="fill:#f8f8f8;fill-opacity:1;stroke:none;fill-rule:nonzero"/>
  <path d="m 4 964.36 120 0 -8.57 72 -102.86 0 z m 0 0" style="fill:#f06292;fill-opacity:1;stroke:none;fill-rule:nonzero"/>
  <path d="m 72 48 c -11.05 0 -20 8.954 -20 20 c 0 4.198 1.29 8.095 3.5 11.313 c -0.492 0.196 -0.944 0.476 -1.344 0.875 l -16.969 16.969 c -1.567 1.567 -1.567 4.089 0 5.656 c 1.567 1.567 4.089 1.567 5.656 0 l 16.969 -16.969 c 0.399 -0.399 0.679 -0.852 0.875 -1.344 c 3.217 2.21 7.114 3.5 11.313 3.5 c 11.05 0 20 -8.954 20 -20 c 0 -11.05 -8.954 -20 -20 -20 z m 0 6 c 7.732 0 14 6.268 14 14 c 0 7.732 -6.268 14 -14 14 c -7.732 0 -14 -6.268 -14 -14 c 0 -7.732 6.268 -14 14 -14 z" transform="translate(0,924.3622)" style="fill:#c64077;opacity:1;fill-opacity:1;stroke:none"/>
 </g>
</svg>
