<svg xmlns="http://www.w3.org/2000/svg" viewBox="0 0 128 128">
 <g style="opacity:0.5">
  <path d="m 4 20 68 0 0 28 -68 0 z m 0 0" style="fill:#d32f2f;opacity:1;fill-opacity:1;stroke:none;fill-rule:nonzero"/>
  <path d="m 12.054688,20 c 0,-2 0,-4 3.625,-4 L 28.375,16 C 32,16 32,18 32,20 z m 0,0" style="fill:#d32f2f;opacity:1;fill-opacity:1;stroke:none;fill-rule:nonzero"/>
  <path d="m 8 28 60 0 0 12 -60 0 z m 0 0" style="fill:#94979e;opacity:1;fill-opacity:1;stroke:none;fill-rule:nonzero"/>
  <path d="m 16 24 48 0 0 36 -48 0 z m 0 0" style="fill:#d7d7d9;opacity:1;fill-opacity:1;stroke:none;fill-rule:nonzero"/>
  <path d="m 12 32 48 0 0 36 -48 0 z m 0 0" style="fill:#f8f8f8;opacity:1;fill-opacity:1;stroke:none;fill-rule:nonzero"/>
  <path d="m 0 36 76 0 -5.43 40 -65.14 0 z m 0 0" style="fill:#ef5350;opacity:1;fill-opacity:1;stroke:none;fill-rule:nonzero"/>
 </g>
 <path d="m 56 60 68 0 0 28 -68 0 z m 0 0" style="fill:#d32f2f;fill-opacity:1;stroke:none;fill-rule:nonzero"/>
 <path d="m 64.054688,60 c 0,-2 0,-4 3.625,-4 L 80.375,56 C 84,56 84,58 84,60 z m 0,0" style="fill:#d32f2f;fill-opacity:1;stroke:none;fill-rule:nonzero"/>
 <path d="m 60 68 60 0 0 12 -60 0 z m 0 0" style="fill:#94979e;fill-opacity:1;stroke:none;fill-rule:nonzero"/>
 <path d="m 68 64 48 0 0 36 -48 0 z m 0 0" style="fill:#d7d7d9;fill-opacity:1;stroke:none;fill-rule:nonzero"/>
 <path d="m 64 72 48 0 0 36 -48 0 z m 0 0" style="fill:#f8f8f8;fill-opacity:1;stroke:none;fill-rule:nonzero"/>
 <path d="m 52 76 76 0 -5.43 40 -65.14 0 z m 0 0" style="fill:#ef5350;fill-opacity:1;stroke:none;fill-rule:nonzero"/>
</svg>
