<svg version="1.1" viewBox="0 0 48 48" xmlns="http://www.w3.org/2000/svg">
 <g transform="translate(0 -1004.4)">
  <path d="m6.9 1013.4h34.2c0.9 0 1.9 1 1.9 2v4c0 1.108-0.847 2-1.9 2h-34.2c-1.053 0-1.9-0.892-1.9-2v-6z"/>
  <path d="m5 1014.4c0-2 0-3 1.818-3h6.364c1.818 0 1.818 1 1.818 3z"/>
  <path d="m5 1017.4v5h38v-5z" style="opacity:.03"/>
  <rect x="3" y="1019.4" width="42" height="25" rx="2"/>
  <path d="m15 1013.4v1h26.096c0.9 0 1.906 1 1.906 2v-1c0-1-1.01-2-1.906-2h-24.19z" style="opacity:.05"/>
  <path d="m6.813 1011.4c-1.818 0-1.813 1-1.813 3h0.031c0.053-1.311 0.309-2 1.781-2h6.375c1.472 0 1.728 0.689 1.781 2h0.031c0-2 6e-3 -3-1.813-3h-6.375z" style="opacity:.05"/>
  <path d="m5 1019.4c-1.108 0-2 0.892-2 2v1c0-1.108 0.892-2 2-2h38c1.108 0 2 0.892 2 2v-1c0-1.108-0.892-2-2-2z" style="fill:#fff;opacity:.1"/>
  <path d="m26.545 1039.1h-0.07273l-0.07273-0.074v-2.2857c0-0.5162-0.07273-0.9586-0.29091-1.3272 1.6727-0.295 3.4909-1.1798 3.4909-4.4977 0-0.8848-0.29091-1.6959-0.8-2.3595 0.14546-0.4424 0.21818-1.2534-0.14546-2.2857l-0.21818-0.2212s-0.14546-0.074-0.29091-0.074c-0.43636 0-1.0909 0.1474-2.1818 0.8848-0.58182-0.074-1.2364-0.2212-1.9636-0.2212s-1.3818 0.074-2.0364 0.2212c-1.0182-0.6636-1.7455-0.8111-2.1818-0.8111-0.14545 0-0.21818 0.074-0.29091 0.074-0.07273 0-0.21818 0.1475-0.21818 0.2212-0.36364 1.0323-0.29091 1.8434-0.14545 2.2858-0.50909 0.6636-0.8 1.4746-0.8 2.3594 0 3.2442 1.8909 4.129 3.4909 4.4977-0.07273 0.1475-0.14546 0.3687-0.21818 0.5899-0.14546 0.074-0.36364 0.1474-0.65454 0.1474-0.29091 0-0.58182-0.074-0.8-0.2949l-0.07273-0.074c-0.07273-0.074-0.07273-0.1475-0.14545-0.1475l-0.14546-0.148c0-0.074-0.58182-0.9585-1.6-1.0322-0.36364 0-0.65454 0.1474-0.72727 0.3686-0.14545 0.3687 0.29091 0.6636 0.50909 0.8111 0 0 0.43636 0.2212 0.72727 1.0323 0.14546 0.5161 0.8 1.4746 2.3273 1.4746h0.50909v1.0323l-0.07273 0.074s-0.07273 0 0 0c-3.2727-1.3272-5.4545-4.424-5.4545-7.8894 0-4.4977 3.5636-8.1106 8-8.1106s8 3.6129 8 8.1106c0 3.4654-2.1818 6.5622-5.4545 7.6682z" style="stroke-width:.73228"/>
 </g>
</svg>
