<svg xmlns="http://www.w3.org/2000/svg" viewBox="0 0 48 48">
 <g transform="translate(0,-1004.3622)">
  <path d="m 6.9 1013.36 34.2 0 c 0.9 0 1.9 1 1.9 2 l 0 4 c 0 1.108 -0.847 2 -1.9 2 l -34.2 0 c -1.053 0 -1.9 -0.892 -1.9 -2 l 0 -6 z" style="fill:#757575;fill-opacity:1;stroke:none"/>
  <path d="m 5 1014.36 c 0 -2 0 -3 1.818 -3 l 6.364 0 c 1.818 0 1.818 1 1.818 3 z" style="fill:#757575;fill-opacity:1;stroke:none"/>
  <path d="m 5 1017.36 0 5 38 0 0 -5 z" style="fill:#000;opacity:0.03;fill-opacity:1;stroke:none"/>
  <rect width="42" height="25" x="3" y="1019.36" rx="2" style="fill:#bdbdbd;fill-opacity:1;stroke:none"/>
  <path d="m 15 1013.36 0 1 1.906 0 24.19 0 c 0.9 0 1.906 1 1.906 2 l 0 -1 c 0 -1 -1.01 -2 -1.906 -2 l -24.19 0 z" style="fill:#000;opacity:0.05;fill-opacity:1;stroke:none"/>
  <path d="m 6.813 1011.36 c -1.818 0 -1.813 1 -1.813 3 l 0.031 0 c 0.053 -1.311 0.309 -2 1.781 -2 l 6.375 0 c 1.472 0 1.728 0.689 1.781 2 l 0.031 0 c 0 -2 0.006 -3 -1.813 -3 l -6.375 0 z" style="fill:#000;opacity:0.05;fill-opacity:1;stroke:none"/>
  <path d="m 5 1019.36 c -1.108 0 -2 0.892 -2 2 l 0 1 c 0 -1.108 0.892 -2 2 -2 l 38 0 c 1.108 0 2 0.892 2 2 l 0 -1 c 0 -1.108 -0.892 -2 -2 -2 l -38 0 z" style="fill:#fff;opacity:0.1;fill-opacity:1;stroke:none"/>
  <path d="m 16.875 1023.77 c -0.55 0.01 -1.07 0.068 -1.594 0.25 -0.165 1.116 0.107 2.274 0.406 3.344 0.762 2.453 2.176 4.782 4.25 6.344 0.076 0.072 0.184 0.089 0.156 0.219 -0.011 0.544 -0.001 1.111 0 1.656 0.022 0.953 0.596 1.863 1.438 2.313 0.998 0.526 1.995 1.013 3 1.531 0.463 0.245 1.105 -0.036 1.25 -0.531 0.088 -0.326 0.027 -0.668 0.031 -1 -0.003 -0.7 -0.09 -1.403 -0.063 -2.094 0.915 -0.114 1.835 -0.557 2.375 -1.313 0.481 -0.645 0.653 -1.479 0.594 -2.281 0.979 -0.175 1.988 -0.322 2.969 -0.5 0.581 -0.116 0.832 -0.871 0.469 -1.344 -0.714 -0.904 -1.431 -1.79 -2.156 -2.688 -0.586 -0.7 -1.503 -1.088 -2.406 -0.969 -0.613 0.098 -1.24 0.23 -1.844 0.344 -1.95 -1.858 -4.572 -2.888 -7.219 -3.188 -0.543 -0.049 -1.106 -0.103 -1.656 -0.094 z m 3.313 2.031 c 0.639 -0.058 1.281 0.12 1.813 0.563 1.064 0.886 1.23 2.467 0.344 3.531 -0.886 1.064 -2.467 1.23 -3.531 0.344 -1.064 -0.886 -1.23 -2.467 -0.344 -3.531 0.443 -0.532 1.079 -0.848 1.719 -0.906 z m 0.063 0.844 c -0.426 0.039 -0.829 0.239 -1.125 0.594 -0.591 0.71 -0.491 1.753 0.219 2.344 0.71 0.591 1.753 0.491 2.344 -0.219 0.591 -0.71 0.491 -1.753 -0.219 -2.344 -0.355 -0.296 -0.793 -0.414 -1.219 -0.375 z m 10.156 6.813 c -0.219 -0.02 -0.437 0.146 -0.469 0.375 -0.279 1.268 -1.181 2.369 -2.375 2.875 -0.311 0.098 -0.38 0.515 -0.125 0.719 0.524 0.437 1.13 0.941 1.656 1.375 0.256 0.218 0.589 -0.01 0.594 -0.344 -0.008 -0.266 -0.039 -0.55 -0.063 -0.813 0.653 0.14 1.292 0.326 1.938 0.469 0.304 0.063 0.593 -0.303 0.469 -0.594 -0.255 -0.612 -0.519 -1.204 -0.781 -1.813 0.264 -0.031 0.518 -0.054 0.781 -0.094 0.325 -0.064 0.453 -0.538 0.188 -0.75 -0.527 -0.443 -1.06 -0.872 -1.594 -1.313 -0.062 -0.049 -0.146 -0.087 -0.219 -0.094 z" style="fill:#7f7f7f;opacity:1;fill-opacity:1;stroke:none;fill-rule:nonzero"/>
 </g>
</svg>
