<svg xmlns="http://www.w3.org/2000/svg" viewBox="0 0 48 48">
 <g transform="translate(0,-1004.3622)">
  <path d="m 6.9 1013.36 34.2 0 c 0.9 0 1.9 1 1.9 2 l 0 4 c 0 1.108 -0.847 2 -1.9 2 l -34.2 0 c -1.053 0 -1.9 -0.892 -1.9 -2 l 0 -6 z" style="fill:#757575;fill-opacity:1;stroke:none"/>
  <path d="m 5 1014.36 c 0 -2 0 -3 1.818 -3 l 6.364 0 c 1.818 0 1.818 1 1.818 3 z" style="fill:#757575;fill-opacity:1;stroke:none"/>
  <path d="m 5 1017.36 0 5 38 0 0 -5 z" style="fill:#000;opacity:0.03;fill-opacity:1;stroke:none"/>
  <rect width="42" height="25" x="3" y="1019.36" rx="2" style="fill:#bdbdbd;fill-opacity:1;stroke:none"/>
  <path d="m 15 1013.36 0 1 1.906 0 24.19 0 c 0.9 0 1.906 1 1.906 2 l 0 -1 c 0 -1 -1.01 -2 -1.906 -2 l -24.19 0 z" style="fill:#000;opacity:0.05;fill-opacity:1;stroke:none"/>
  <path d="m 6.813 1011.36 c -1.818 0 -1.813 1 -1.813 3 l 0.031 0 c 0.053 -1.311 0.309 -2 1.781 -2 l 6.375 0 c 1.472 0 1.728 0.689 1.781 2 l 0.031 0 c 0 -2 0.006 -3 -1.813 -3 l -6.375 0 z" style="fill:#000;opacity:0.05;fill-opacity:1;stroke:none"/>
  <path d="m 5 1019.36 c -1.108 0 -2 0.892 -2 2 l 0 1 c 0 -1.108 0.892 -2 2 -2 l 38 0 c 1.108 0 2 0.892 2 2 l 0 -1 c 0 -1.108 -0.892 -2 -2 -2 l -38 0 z" style="fill:#fff;opacity:0.1;fill-opacity:1;stroke:none"/>
  <path d="m 22.741 1023.36 c -0.444 0 -0.815 0.353 -0.815 0.796 l 0 1.037 c -0.281 0.095 -0.553 0.204 -0.815 0.333 l -0.722 -0.722 c -0.314 -0.314 -0.816 -0.314 -1.13 0 l -1.815 1.796 c -0.314 0.314 -0.314 0.816 0 1.13 l 0.722 0.722 c -0.133 0.267 -0.237 0.547 -0.333 0.833 l -1.019 0 c -0.444 0 -0.815 0.353 -0.815 0.796 l 0 2.556 c 0 0.444 0.371 0.796 0.815 0.796 l 1.019 0 c 0.096 0.286 0.2 0.567 0.333 0.833 l -0.722 0.722 c -0.314 0.314 -0.314 0.816 0 1.13 l 1.815 1.796 c 0.314 0.314 0.816 0.314 1.13 0 l 0.722 -0.722 c 0.262 0.13 0.534 0.239 0.815 0.333 l 0 1.037 c 0 0.444 0.371 0.796 0.815 0.796 l 2.537 0 c 0.444 0 0.796 -0.353 0.796 -0.796 l 0 -1.037 c 0.286 -0.096 0.567 -0.2 0.833 -0.333 l 0.722 0.722 c 0.314 0.314 0.816 0.314 1.13 0 l 1.815 -1.796 c 0.314 -0.314 0.314 -0.816 0 -1.13 l -0.741 -0.741 c 0.13 -0.262 0.239 -0.534 0.333 -0.815 l 1.037 0 c 0.444 0 0.796 -0.353 0.796 -0.796 l 0 -2.556 c 0 -0.444 -0.353 -0.796 -0.796 -0.796 l -1.037 0 c -0.094 -0.281 -0.204 -0.553 -0.333 -0.815 l 0.741 -0.741 c 0.314 -0.314 0.314 -0.816 0 -1.13 l -1.815 -1.796 c -0.314 -0.314 -0.816 -0.314 -1.13 0 l -0.722 0.722 c -0.267 -0.133 -0.548 -0.237 -0.833 -0.333 l 0 -1.037 c 0 -0.444 -0.353 -0.796 -0.796 -0.796 l -2.537 0 z m 1.259 5.926 c 1.145 0 2.074 0.929 2.074 2.074 0 1.145 -0.929 2.074 -2.074 2.074 -1.145 0 -2.074 -0.929 -2.074 -2.074 0 -1.145 0.929 -2.074 2.074 -2.074 z" style="fill:#7f7f7f;opacity:1;fill-opacity:1;display:block;color:#000"/>
 </g>
</svg>
