<svg xmlns="http://www.w3.org/2000/svg" viewBox="0 0 48 48">
 <g transform="translate(0,-1004.3622)">
  <path d="m 6.9 1013.36 34.2 0 c 0.9 0 1.9 1 1.9 2 l 0 4 c 0 1.108 -0.847 2 -1.9 2 l -34.2 0 c -1.053 0 -1.9 -0.892 -1.9 -2 l 0 -6 z" style="fill:#e65100;fill-opacity:1;stroke:none"/>
  <path d="m 5 1014.36 c 0 -2 0 -3 1.818 -3 l 6.364 0 c 1.818 0 1.818 1 1.818 3 z" style="fill:#e65100;fill-opacity:1;stroke:none"/>
  <path d="m 5 1017.36 0 5 38 0 0 -5 z" style="fill:#000;opacity:0.03;fill-opacity:1;stroke:none"/>
  <rect width="42" height="25" x="3" y="1019.36" rx="2" style="fill:#f57c00;fill-opacity:1;stroke:none"/>
  <path d="m 15 1013.36 0 1 1.906 0 24.19 0 c 0.9 0 1.906 1 1.906 2 l 0 -1 c 0 -1 -1.01 -2 -1.906 -2 l -24.19 0 z" style="fill:#000;opacity:0.05;fill-opacity:1;stroke:none"/>
  <path d="m 6.813 1011.36 c -1.818 0 -1.813 1 -1.813 3 l 0.031 0 c 0.053 -1.311 0.309 -2 1.781 -2 l 6.375 0 c 1.472 0 1.728 0.689 1.781 2 l 0.031 0 c 0 -2 0.006 -3 -1.813 -3 l -6.375 0 z" style="fill:#000;opacity:0.05;fill-opacity:1;stroke:none"/>
  <path d="m 5 1019.36 c -1.108 0 -2 0.892 -2 2 l 0 1 c 0 -1.108 0.892 -2 2 -2 l 38 0 c 1.108 0 2 0.892 2 2 l 0 -1 c 0 -1.108 -0.892 -2 -2 -2 l -38 0 z" style="fill:#fff;opacity:0.1;fill-opacity:1;stroke:none"/>
  <path d="m 16.628 1030.07 c -0.899 0 -1.628 0.719 -1.628 1.605 0 0.887 0.729 1.605 1.628 1.605 0.899 0 1.628 -0.719 1.628 -1.605 0 -0.887 -0.729 -1.605 -1.628 -1.605 z m 11.626 7.296 c -0.779 0.443 -1.045 1.425 -0.596 2.192 0.45 0.768 1.445 1.031 2.224 0.588 0.779 -0.443 1.045 -1.425 0.596 -2.193 -0.45 -0.767 -1.445 -1.031 -2.224 -0.587 z m -8.089 -5.691 c 0 -1.587 0.8 -2.988 2.022 -3.836 l -1.19 -1.966 c -1.425 0.939 -2.485 2.374 -2.925 4.054 0.514 0.413 0.843 1.043 0.843 1.748 0 0.705 -0.329 1.335 -0.843 1.748 0.44 1.681 1.5 3.116 2.925 4.054 l 1.19 -1.966 c -1.223 -0.848 -2.022 -2.25 -2.022 -3.837 z m 4.756 -4.689 c 2.485 0 4.523 1.878 4.737 4.274 l 2.321 -0.033 c -0.114 -1.768 -0.898 -3.356 -2.102 -4.524 -0.619 0.231 -1.334 0.196 -1.952 -0.156 -0.619 -0.352 -1.01 -0.946 -1.114 -1.591 -0.602 -0.164 -1.235 -0.254 -1.89 -0.254 -1.126 0 -2.19 0.261 -3.135 0.722 l 1.131 1.999 c 0.609 -0.279 1.288 -0.436 2 -0.436 z m 0 9.379 c -0.716 0 -1.395 -0.157 -2 -0.436 l -1.131 1.999 c 0.945 0.461 2.01 0.722 3.135 0.722 0.655 0 1.288 -0.09 1.89 -0.254 0.106 -0.645 0.495 -1.239 1.114 -1.592 0.618 -0.352 1.333 -0.387 1.952 -0.156 1.204 -1.167 1.987 -2.755 2.101 -4.524 l -2.321 -0.033 c -0.213 2.396 -2.252 4.274 -4.737 4.274 z m 3.332 -10.381 c 0.779 0.443 1.774 0.18 2.224 -0.587 0.45 -0.768 0.183 -1.749 -0.596 -2.193 -0.779 -0.443 -1.774 -0.18 -2.224 0.588 -0.45 0.768 -0.183 1.749 0.596 2.192 z" style="fill:#ab5d0b;opacity:1;fill-opacity:1;color:#000"/>
 </g>
</svg>
