<svg version="1.1" viewBox="0 0 48 48" xmlns="http://www.w3.org/2000/svg">
 <g transform="translate(0,-1004.3622)">
  <path d="m6.9 1013.36h34.2c0.9 0 1.9 1 1.9 2v4c0 1.108-0.847 2-1.9 2h-34.2c-1.053 0-1.9-0.892-1.9-2v-6z" style="fill:#ec407a"/>
  <path d="m5 1014.36c0-2 0-3 1.818-3h6.364c1.818 0 1.818 1 1.818 3z" style="fill:#ec407a"/>
  <path d="m5 1017.36v5h38v-5z" style="opacity:.03"/>
  <rect x="3" y="1019.36" width="42" height="25" rx="2" style="fill:#f06292"/>
  <path d="m15 1013.36v1h1.906 24.19c0.9 0 1.906 1 1.906 2v-1c0-1-1.01-2-1.906-2h-24.19z" style="opacity:.05"/>
  <path d="m6.813 1011.36c-1.818 0-1.813 1-1.813 3h0.031c0.053-1.311 0.309-2 1.781-2h6.375c1.472 0 1.728 0.689 1.781 2h0.031c0-2 6e-3 -3-1.813-3h-6.375z" style="opacity:.05"/>
  <path d="m5 1019.36c-1.108 0-2 0.892-2 2v1c0-1.108 0.892-2 2-2h38c1.108 0 2 0.892 2 2v-1c0-1.108-0.892-2-2-2h-38z" style="fill:#fff;opacity:.1"/>
  <path d="m24 1023.3622a7.9999994 7.9999994 0 0 0-6.927734 4 7.9999994 7.9999994 0 0 0 0 8 7.9999994 7.9999994 0 0 0 6.927734 4h8v-1h-8a7.0000002 7.0000002 0 0 1-6.0625-3.5 7.0000002 7.0000002 0 0 1 0-7 7.0000002 7.0000002 0 0 1 6.0625-3.5zm0.146484 2.002a5.9999997 5.9999997 0 0 0-4.388672 1.7558 5.9999997 5.9999997 0 0 0-1.300781 6.5391 5.9999997 5.9999997 0 0 0 5.542969 3.7031h8v-1h-8a5.0000001 5.0000001 0 0 1-4.619141-3.0859 5.0000001 5.0000001 0 0 1 1.083985-5.4493 5.0000001 5.0000001 0 0 1 5.449218-1.0839 5.0000001 5.0000001 0 0 1 0.08594 0.043v-1.0683a5.9999997 5.9999997 0 0 0-1.853516-0.3535zm-0.146484 1.998a3.9999996 3.9999996 0 0 0-4 4 3.9999996 3.9999996 0 0 0 4 4h8v-1h-8a3.0000004 3.0000004 0 0 1-2.771484-1.8516 3.0000004 3.0000004 0 0 1 0.65039-3.2695 3.0000004 3.0000004 0 0 1 3.269532-0.6504 3.0000004 3.0000004 0 0 1 1.679687 1.7715h1.042969a3.9999996 3.9999996 0 0 0-3.871094-3z" style="-inkscape-stroke:none;fill:#c64077;font-variation-settings:normal;stop-color:#000000"/>
 </g>
</svg>
