<svg xmlns="http://www.w3.org/2000/svg" viewBox="0 0 48 48">
 <path d="m 7.95 11 17.1 0 c 0.45 0 0.958 0.5 0.95 1 l -0.05 3 c -0.009 0.554 -0.424 1 -0.95 1 l -17.1 0 c -0.526 0 -0.957 -0.446 -0.95 -1 l 0.05 -4 z" style="fill:#ec407a;fill-opacity:1;stroke:none"/>
 <path d="m 7 11.5 c 0 -1 0 -1.5 0.909 -1.5 l 3.182 0 c 0.909 0 0.909 0.5 0.909 1.5 z" style="fill:#ec407a;fill-opacity:1;stroke:none"/>
 <rect rx="1" y="14.5" x="6" height="12.5" width="21" style="fill:#ec407a;fill-opacity:1;stroke:none"/>
 <path d="m 21.95 21 17.1 0 c 0.45 0 0.958 0.5 0.95 1 l -0.05 3 c -0.009 0.554 -0.424 1 -0.95 1 l -17.1 0 c -0.526 0 -0.957 -0.446 -0.95 -1 l 0.05 -4 z" style="fill:#ec407a;fill-opacity:1;stroke:none"/>
 <path d="m 21 21.5 c 0 -1 0 -1.5 0.909 -1.5 l 3.182 0 c 0.909 0 0.909 0.5 0.909 1.5 z" style="fill:#ec407a;fill-opacity:1;stroke:none"/>
 <path d="m 21 23 0 3 19 0 0 -3 z" style="fill:#000;opacity:0.03;fill-opacity:1;stroke:none"/>
 <rect width="21" height="12.5" x="20" y="24.5" rx="1" style="fill:#f06292;fill-opacity:1;stroke:none"/>
 <path d="m 26 21 0 0.5 0.953 0 12.09 0 c 0.45 0 0.953 0.5 0.953 1 l 0 -0.5 c 0 -0.5 -0.503 -1 -0.953 -1 l -12.09 0 z" style="fill:#000;opacity:0.05;fill-opacity:1;stroke:none"/>
 <path d="m 21.906 20 c -0.909 0 -0.906 0.5 -0.906 1.5 l 0.016 0 c 0.027 -0.655 0.155 -1 0.891 -1 l 3.188 0 c 0.736 0 0.864 0.345 0.891 1 l 0.016 0 c 0 -1 0.003 -1.5 -0.906 -1.5 l -3.188 0 z" style="fill:#000;opacity:0.05;fill-opacity:1;stroke:none"/>
 <path d="m 21 24.5 c -0.554 0 -1 0.446 -1 1 l 0 0.5 c 0 -0.554 0.446 -1 1 -1 l 19 0 c 0.554 0 1 0.446 1 1 l 0 -0.5 c 0 -0.554 -0.446 -1 -1 -1 l -19 0 z" style="fill:#fff;opacity:0.1;fill-opacity:1;stroke:none"/>
</svg>
