<svg viewBox="0 0 48 48" xmlns="http://www.w3.org/2000/svg">
 <g transform="matrix(1 0 0 1 -14 -10)">
  <path style="fill:#d32f2f;fill-opacity:1;stroke:none" d="m 21.95,21 17.1,0 c 0.45,0 0.958,0.5 0.95,1 l -0.05,3 c -0.009,0.554 -0.424,1 -0.95,1 l -17.1,0 c -0.526,0 -0.957,-0.446 -0.95,-1 L 21,21 Z"/>
  <path style="fill:#d32f2f;fill-opacity:1;stroke:none" d="m 21,21.5 c 0,-1 0,-1.5 0.909,-1.5 l 3.182,0 C 26,20 26,20.5 26,21.5 Z"/>
  <path style="fill:#000;opacity:0.03;fill-opacity:1;stroke:none" d="m 21 23 0 3 19 0 0 -3 z"/>
  <rect rx="1" height="12.5" style="fill:#ef5350;fill-opacity:1;stroke:none" x="20" y="24.5" width="21"/>
  <path style="fill:#000;opacity:0.05;fill-opacity:1;stroke:none" d="m 26 21 0 0.5 0.953 0 12.09 0 c 0.45 0 0.953 0.5 0.953 1 l 0 -0.5 c 0 -0.5 -0.503 -1 -0.953 -1 l -12.09 0 z"/>
  <path style="fill:#000;opacity:0.05;fill-opacity:1;stroke:none" d="M 21.906,20 C 20.997,20 21,20.5 21,21.5 l 0.016,0 c 0.027,-0.655 0.155,-1 0.891,-1 l 3.188,0 c 0.736,0 0.864,0.345 0.891,1 l 0.016,0 c 0,-1 0.003,-1.5 -0.906,-1.5 l -3.188,0 z"/>
  <path style="fill:#fff;opacity:0.1;fill-opacity:1;stroke:none" d="m 21 24.5 c -0.554 0 -1 0.446 -1 1 l 0 0.5 c 0 -0.554 0.446 -1 1 -1 l 19 0 c 0.554 0 1 0.446 1 1 l 0 -0.5 c 0 -0.554 -0.446 -1 -1 -1 l -19 0 z"/>
 </g>
 <path style="fill:#fff;opacity:0.5;fill-opacity:1;stroke:none" d="m 7.908 10 c -0.736 0 -0.872 0.345 -0.898 1 l -0.01 0 l -0.045 3.51 c -0.532 0.025 -0.955 0.452 -0.955 0.99 l 0 10.5 c 0 0.554 0.446 1 1 1 l 19 0 c 0.554 0 1 -0.446 1 -1 l 0 -10.5 c 0 -0.554 -0.446 -1 -1 -1 l -0.043 0 l 0.043 -2.5 c 0.008 -0.5 -0.499 -1 -0.949 -1 l -13.06 0 c -0.027 -0.655 -0.163 -1 -0.898 -1 l -3.184 0 z"/>
 <path style="fill:#d32f2f;fill-opacity:1;stroke:none" d="m 21.95 21 17.1 0 c 0.45 0 0.958 0.5 0.95 1 l -0.05 3 c -0.009 0.554 -0.424 1 -0.95 1 l -17.1 0 c -0.526 0 -0.957 -0.446 -0.95 -1 l 0.05 -4 z"/>
 <path style="fill:#d32f2f;fill-opacity:1;stroke:none" d="m 21 21.5 c 0 -1 0 -1.5 0.909 -1.5 l 3.182 0 c 0.909 0 0.909 0.5 0.909 1.5 z"/>
 <path style="fill:#000;opacity:0.03;fill-opacity:1;stroke:none" d="m 21 23 0 3 19 0 0 -3 z"/>
 <rect rx="1" height="12.5" style="fill:#ef5350;fill-opacity:1;stroke:none" x="20" y="24.5" width="21"/>
 <path style="fill:#000;opacity:0.05;fill-opacity:1;stroke:none" d="m 26 21 0 0.5 0.953 0 12.09 0 c 0.45 0 0.953 0.5 0.953 1 l 0 -0.5 c 0 -0.5 -0.503 -1 -0.953 -1 l -12.09 0 z"/>
 <path style="fill:#000;opacity:0.05;fill-opacity:1;stroke:none" d="m 21.906 20 c -0.909 0 -0.906 0.5 -0.906 1.5 l 0.016 0 c 0.027 -0.655 0.155 -1 0.891 -1 l 3.188 0 c 0.736 0 0.864 0.345 0.891 1 l 0.016 0 c 0 -1 0.003 -1.5 -0.906 -1.5 l -3.188 0 z"/>
 <path style="fill:#fff;opacity:0.1;fill-opacity:1;stroke:none" d="m 21 24.5 c -0.554 0 -1 0.446 -1 1 l 0 0.5 c 0 -0.554 0.446 -1 1 -1 l 19 0 c 0.554 0 1 0.446 1 1 l 0 -0.5 c 0 -0.554 -0.446 -1 -1 -1 l -19 0 z"/>
</svg>
