<svg xmlns="http://www.w3.org/2000/svg" viewBox="0 0 48 48">
 <g transform="translate(0,-1004.3622)">
  <path d="m 6.9 1013.36 34.2 0 c 0.9 0 1.9 1 1.9 2 l 0 4 c 0 1.108 -0.847 2 -1.9 2 l -34.2 0 c -1.053 0 -1.9 -0.892 -1.9 -2 l 0 -6 z" style="fill:#ffb300;fill-opacity:1;stroke:none"/>
  <path d="m 5 1014.36 c 0 -2 0 -3 1.818 -3 l 6.364 0 c 1.818 0 1.818 1 1.818 3 z" style="fill:#ffb300;fill-opacity:1;stroke:none"/>
  <path d="m 5 1017.36 0 5 38 0 0 -5 z" style="fill:#000;opacity:0.03;fill-opacity:1;stroke:none"/>
  <rect width="42" height="25" x="3" y="1019.36" rx="2" style="fill:#ffca28;fill-opacity:1;stroke:none"/>
  <path d="m 15 1013.36 0 1 1.906 0 24.19 0 c 0.9 0 1.906 1 1.906 2 l 0 -1 c 0 -1 -1.01 -2 -1.906 -2 l -24.19 0 z" style="fill:#000;opacity:0.05;fill-opacity:1;stroke:none"/>
  <path d="m 6.813 1011.36 c -1.818 0 -1.813 1 -1.813 3 l 0.031 0 c 0.053 -1.311 0.309 -2 1.781 -2 l 6.375 0 c 1.472 0 1.728 0.689 1.781 2 l 0.031 0 c 0 -2 0.006 -3 -1.813 -3 l -6.375 0 z" style="fill:#000;opacity:0.05;fill-opacity:1;stroke:none"/>
  <path d="m 5 1019.36 c -1.108 0 -2 0.892 -2 2 l 0 1 c 0 -1.108 0.892 -2 2 -2 l 38 0 c 1.108 0 2 0.892 2 2 l 0 -1 c 0 -1.108 -0.892 -2 -2 -2 l -38 0 z" style="fill:#fff;opacity:0.1;fill-opacity:1;stroke:none"/>
  <g transform="translate(31.607183,1.8748953)" style="opacity:1">
   <rect rx="1" y="1034.49" x="-15.607" height="2" width="16" style="fill:#c79a18;fill-opacity:1;stroke:none"/>
   <rect transform="matrix(0,1,-1,0,0,0)" width="7" height="2" x="1029.49" y="13.607" rx="1" style="fill:#c79a18;fill-opacity:1;stroke:none"/>
   <rect rx="1" y="-0.393" x="1029.49" height="2" width="7" transform="matrix(0,1,-1,0,0,0)" style="fill:#c79a18;fill-opacity:1;stroke:none"/>
   <path d="m -6.607 1032.49 c -1 1 -1 1 -2 0 l -3 -3 c -1 -1 -1 -1 0 -1 l 8 0 c 1 0 1 0 0 1 z" style="fill:#c79a18;fill-opacity:1;stroke:none"/>
   <rect rx="2" y="1021.49" x="-9.607" height="10" width="4" style="fill:#c79a18;fill-opacity:1;stroke:none"/>
  </g>
 </g>
</svg>
