<?xml version="1.0" encoding="UTF-8" standalone="no"?>
<!-- Created with Inkscape (http://www.inkscape.org/) -->

<svg
   xmlns:dc="http://purl.org/dc/elements/1.1/"
   xmlns:cc="http://creativecommons.org/ns#"
   xmlns:rdf="http://www.w3.org/1999/02/22-rdf-syntax-ns#"
   xmlns:svg="http://www.w3.org/2000/svg"
   xmlns="http://www.w3.org/2000/svg"
   xmlns:sodipodi="http://sodipodi.sourceforge.net/DTD/sodipodi-0.dtd"
   xmlns:inkscape="http://www.inkscape.org/namespaces/inkscape"
   width="96"
   height="96"
   id="svg2"
   version="1.1"
   inkscape:version="0.48.5 r10040"
   sodipodi:docname="folder-saved-search.svg"
   inkscape:export-filename="/media/Data/Main/Visuals/Icons/Numix/Desktop/repos/numix-wiki/Gjorgi/Numix-folders/48/New/folder-144.png"
   inkscape:export-xdpi="270"
   inkscape:export-ydpi="270">
  <defs
     id="defs4" />
  <sodipodi:namedview
     id="base"
     pagecolor="#ffffff"
     bordercolor="#666666"
     borderopacity="1.0"
     inkscape:pageopacity="0.0"
     inkscape:pageshadow="2"
     inkscape:zoom="9.848163"
     inkscape:cx="86.077225"
     inkscape:cy="34.118006"
     inkscape:document-units="px"
     inkscape:current-layer="layer1"
     showgrid="true"
     inkscape:window-width="1280"
     inkscape:window-height="998"
     inkscape:window-x="0"
     inkscape:window-y="0"
     inkscape:window-maximized="1"
     showguides="true"
     inkscape:guide-bbox="true">
    <inkscape:grid
       type="xygrid"
       id="grid2985"
       empspacing="5"
       visible="true"
       enabled="true"
       snapvisiblegridlinesonly="true" />
  </sodipodi:namedview>
  <metadata
     id="metadata7">
    <rdf:RDF>
      <cc:Work
         rdf:about="">
        <dc:format>image/svg+xml</dc:format>
        <dc:type
           rdf:resource="http://purl.org/dc/dcmitype/StillImage" />
        <dc:title />
      </cc:Work>
    </rdf:RDF>
  </metadata>
  <g
     inkscape:label="Layer 1"
     inkscape:groupmode="layer"
     id="layer1"
     transform="translate(0,-956.3622)">
    <path
       style="fill:#512da8;fill-opacity:1;stroke:none"
       d="m 13.8,974.36222 68.4,0 c 1.8,0 3.8,2 3.8,4 l 0,8 c 0,2.216 -1.6948,4 -3.8,4 l -68.4,0 c -2.1052,0 -3.8,-1.784 -3.8,-4 l 0,-12 z"
       id="path3811"
       inkscape:connector-curvature="0" />
    <path
       style="fill:#512da8;fill-opacity:1;stroke:none"
       d="m 10,976.36222 c 0,-4 0,-6 3.636364,-6 l 12.727272,0 c 3.636364,0 3.636364,2 3.636364,6 z"
       id="rect3760"
       inkscape:connector-curvature="0"
       sodipodi:nodetypes="csscc" />
    <path
       style="opacity:0.02999998;fill:#000000;fill-opacity:1;stroke:none"
       d="m 10,982.36222 0,10 76,0 0,-10 z"
       id="path3807"
       inkscape:connector-curvature="0" />
    <rect
       style="fill:#7e57c2;fill-opacity:1;stroke:none"
       id="rect2990"
       width="84"
       height="50"
       x="6"
       y="986.36218"
       rx="4"
       ry="4" />
    <path
       style="opacity:0.05;fill:#000000;fill-opacity:1;stroke:none"
       d="m 30,974.36222 0,2 3.8125,0 48.375,0 c 1.8,0 3.8125,2 3.8125,4 l 0,-2 c 0,-2 -2.0125,-4 -3.8125,-4 l -48.375,0 z"
       id="path3813"
       inkscape:connector-curvature="0"
       sodipodi:nodetypes="cccscsscc" />
    <path
       style="opacity:0.05;fill:#000000;fill-opacity:1;stroke:none"
       d="m 13.625,970.36222 c -3.6363636,0 -3.625,2 -3.625,6 l 0.0625,0 c 0.106836,-2.621 0.6189,-4 3.5625,-4 l 12.75,0 c 2.9436,0 3.455664,1.379 3.5625,4 l 0.0625,0 c 0,-4 0.0114,-6 -3.625,-6 l -12.75,0 z"
       id="path3818"
       inkscape:connector-curvature="0" />
    <path
       style="opacity:0.1;fill:#ffffff;fill-opacity:1;stroke:none"
       d="m 10,986.36222 c -2.216,0 -4,1.784 -4,4 l 0,2 c 0,-2.216 1.784,-4 4,-4 l 76,0 c 2.216,0 4,1.784 4,4 l 0,-2 c 0,-2.216 -1.784,-4 -4,-4 l -76,0 z"
       id="rect2991"
       inkscape:connector-curvature="0" />
    <path
       id="path4156"
       d="m 60.752258,997.59642 c -4.330298,-4.3318 -11.331976,-4.3048 -15.662286,0.032 -3.68213,3.68318 -4.233936,9.28958 -1.659936,13.55118 l -10.682488,10.6862 c -0.99673,0.997 -0.99673,2.5916 0,3.5886 l 0.16064,0.16 c 0.996732,0.9972 2.59087,0.9972 3.587602,0 l 10.682488,-10.686 c 4.26616,2.5808 9.89186,2.0498 13.573988,-1.6336 4.330312,-4.3314 4.330306,-11.3624 0,-15.69398 z m -2.436352,2.43678 c 2.978404,2.9796 2.978374,7.8408 0,10.8198 -2.950522,2.9516 -7.724672,2.9504 -10.709256,0.054 l -0.08034,-0.08 c -0.02664,-0.032 -0.05424,-0.054 -0.08034,-0.082 -2.89928,-2.9848 -2.871522,-7.7334 0.08034,-10.6856 2.978372,-2.97978 7.811178,-3.00658 10.78958,-0.032 z"
       style="line-height:normal;opacity:0.25;color:#000000;fill:#3c2f1b;fill-opacity:1"
       inkscape:connector-curvature="0" />
  </g>
</svg>
