<?xml version="1.0" encoding="UTF-8" standalone="no"?>
<!-- Created with Inkscape (http://www.inkscape.org/) -->

<svg
   xmlns:dc="http://purl.org/dc/elements/1.1/"
   xmlns:cc="http://creativecommons.org/ns#"
   xmlns:rdf="http://www.w3.org/1999/02/22-rdf-syntax-ns#"
   xmlns:svg="http://www.w3.org/2000/svg"
   xmlns="http://www.w3.org/2000/svg"
   xmlns:xlink="http://www.w3.org/1999/xlink"
   xmlns:sodipodi="http://sodipodi.sourceforge.net/DTD/sodipodi-0.dtd"
   xmlns:inkscape="http://www.inkscape.org/namespaces/inkscape"
   width="96"
   height="96"
   id="svg2"
   version="1.1"
   inkscape:version="0.91 r"
   sodipodi:docname="custom-folder-saved-search.svg">
  <defs
     id="defs4">
    <linearGradient
       id="linearGradient3886">
      <stop
         style="stop-color:#000000;stop-opacity:1;"
         offset="0"
         id="stop3888" />
      <stop
         style="stop-color:#000000;stop-opacity:0.19607843;"
         offset="1"
         id="stop3890" />
    </linearGradient>
    <radialGradient
       r="24"
       fy="40.5"
       fx="24"
       cy="40.5"
       cx="24"
       gradientTransform="matrix(2.5,0,0,0.41666654,-12,1019.4872)"
       gradientUnits="userSpaceOnUse"
       id="radialGradient3063"
       xlink:href="#linearGradient3886"
       inkscape:collect="always" />
  </defs>
  <sodipodi:namedview
     id="base"
     pagecolor="#ffffff"
     bordercolor="#666666"
     borderopacity="1.0"
     inkscape:pageopacity="0.0"
     inkscape:pageshadow="2"
     inkscape:zoom="4.4069458"
     inkscape:cx="37.395161"
     inkscape:cy="62.460435"
     inkscape:document-units="px"
     inkscape:current-layer="layer1"
     showgrid="true"
     inkscape:window-width="1280"
     inkscape:window-height="998"
     inkscape:window-x="0"
     inkscape:window-y="0"
     inkscape:window-maximized="1">
    <inkscape:grid
       type="xygrid"
       id="grid2990"
       empspacing="5"
       visible="true"
       enabled="true"
       snapvisiblegridlinesonly="true" />
  </sodipodi:namedview>
  <metadata
     id="metadata7">
    <rdf:RDF>
      <cc:Work
         rdf:about="">
        <dc:format>image/svg+xml</dc:format>
        <dc:type
           rdf:resource="http://purl.org/dc/dcmitype/StillImage" />
        <dc:title />
      </cc:Work>
    </rdf:RDF>
  </metadata>
  <g
     inkscape:label="Body"
     inkscape:groupmode="layer"
     id="layer1"
     transform="translate(0,-956.3622)">
    <path
       inkscape:connector-curvature="0"
       style="opacity:0.1;fill:url(#radialGradient3063);fill-opacity:1;stroke:none"
       d="m 48,1026.3622 c -19.653098,0 -37.055941,1.5662 -48,4 l 0,12 c 10.944059,2.4338 28.346902,4 48,4 19.653098,0 37.05594,-1.5662 48,-4 l 0,-12 c -10.94406,-2.4338 -28.346902,-4 -48,-4 z"
       id="path3868" />
    <rect
       style="fill:replacecolour2;fill-opacity:1;stroke:none"
       id="rect2987"
       width="92"
       height="64.000038"
       x="2"
       y="976.36218"
       rx="10"
       ry="10" />
    <path
       style="opacity:0.2;fill:#ffffff;fill-opacity:1;stroke:none"
       d="m 12,976.3622 c -5.54,0 -10,4.46 -10,10 l 0,4 c 0,-5.54 4.46,-10 10,-10 l 72,0 c 5.54,0 10,4.46 10,10 l 0,-4 c 0,-5.54 -4.46,-10 -10,-10 l -72,0 z"
       id="rect3797"
       inkscape:connector-curvature="0" />
    <path
       style="fill:replacecolour1;fill-opacity:1;stroke:none"
       d="m 12,992.3622 16,0 c 22,-2 18,-24 32,-24 l 24,0 c 5.54,0 10,4.46 10,10 l 0,52 c 0,5.54 -4.46,10 -10,10 l -72,0 c -5.54,0 -10,-4.46 -10,-10 l 0,-28 c 0,-6 4,-10 10,-10 z"
       id="rect3776"
       inkscape:connector-curvature="0"
       sodipodi:nodetypes="cccsssssscc" />
    <path
       style="opacity:0.15;fill:#000000;fill-opacity:1;stroke:none"
       d="m 2,1026.3622 0,4 c 0,5.54 4.46,10 10,10 l 72,0 c 5.54,0 10,-4.46 10,-10 l 0,-4 c 0,5.54 -4.46,10 -10,10 l -72,0 c -5.54,0 -10,-4.46 -10,-10 z"
       id="path3786"
       inkscape:connector-curvature="0" />
    <path
       inkscape:connector-curvature="0"
       style="line-height:normal;color:#000000;fill:#000000;fill-opacity:0.09803922"
       d="m 37.158234,1005.1926 c -3.789012,-3.7904 -9.915482,-3.7666 -13.704504,0.028 -3.221866,3.2226 -3.704696,8.1282 -1.452444,11.857 l -9.347183,9.3504 c -0.872138,0.8722 -0.872138,2.2674 0,3.1398 l 0.14056,0.14 c 0.872142,0.8726 2.267014,0.8726 3.13915,0 l 9.347185,-9.35 c 3.73289,2.2582 8.655382,1.7936 11.877244,-1.4294 3.789026,-3.7898 3.78902,-9.942 0,-13.732 z m -2.131806,2.1322 c 2.606104,2.607 2.606078,6.8606 0,9.467 -2.581708,2.5828 -6.759094,2.5816 -9.370604,0.048 l -0.0703,-0.07 c -0.02332,-0.028 -0.04746,-0.048 -0.0703,-0.072 -2.536874,-2.6116 -2.512586,-6.7666 0.0703,-9.3496 2.606076,-2.6072 6.834784,-2.6308 9.440884,-0.028 z"
       id="path3837" />
    <path
       id="path4156"
       d="m 37.158234,1003.1926 c -3.789012,-3.7904 -9.915482,-3.7666 -13.704504,0.028 -3.221866,3.2226 -3.704696,8.1282 -1.452444,11.857 l -9.347183,9.3504 c -0.872138,0.8722 -0.872138,2.2674 0,3.1398 l 0.14056,0.14 c 0.872142,0.8726 2.267014,0.8726 3.13915,0 l 9.347185,-9.35 c 3.73289,2.2582 8.655382,1.7936 11.877244,-1.4294 3.789026,-3.7898 3.78902,-9.942 0,-13.732 z m -2.131806,2.1322 c 2.606104,2.607 2.606078,6.8606 0,9.467 -2.581708,2.5828 -6.759094,2.5816 -9.370604,0.048 l -0.0703,-0.07 c -0.02332,-0.028 -0.04746,-0.048 -0.0703,-0.072 -2.536874,-2.6116 -2.512586,-6.7666 0.0703,-9.3496 2.606076,-2.6072 6.834784,-2.6308 9.440884,-0.028 z"
       style="line-height:normal;color:#000000;fill:replacecolour3;fill-opacity:1"
       inkscape:connector-curvature="0" />
  </g>
</svg>
