<?xml version="1.0" encoding="UTF-8" standalone="no"?>
<!-- Created with Inkscape (http://www.inkscape.org/) -->

<svg
   xmlns:dc="http://purl.org/dc/elements/1.1/"
   xmlns:cc="http://creativecommons.org/ns#"
   xmlns:rdf="http://www.w3.org/1999/02/22-rdf-syntax-ns#"
   xmlns:svg="http://www.w3.org/2000/svg"
   xmlns="http://www.w3.org/2000/svg"
   xmlns:xlink="http://www.w3.org/1999/xlink"
   xmlns:sodipodi="http://sodipodi.sourceforge.net/DTD/sodipodi-0.dtd"
   xmlns:inkscape="http://www.inkscape.org/namespaces/inkscape"
   width="96"
   height="96"
   id="svg2"
   version="1.1"
   inkscape:version="0.91 r"
   sodipodi:docname="custom-folder-documents.svg">
  <defs
     id="defs4">
    <linearGradient
       id="linearGradient3886-9">
      <stop
         style="stop-color:#000000;stop-opacity:1;"
         offset="0"
         id="stop3888-3" />
      <stop
         style="stop-color:#000000;stop-opacity:0.19607843;"
         offset="1"
         id="stop3890-8" />
    </linearGradient>
    <radialGradient
       r="24"
       fy="40.5"
       fx="24"
       cy="40.5"
       cx="24"
       gradientTransform="matrix(2.5,0,0,0.41666654,-12,1019.4872)"
       gradientUnits="userSpaceOnUse"
       id="radialGradient3070"
       xlink:href="#linearGradient3886-9"
       inkscape:collect="always" />
  </defs>
  <sodipodi:namedview
     id="base"
     pagecolor="#ffffff"
     bordercolor="#666666"
     borderopacity="1.0"
     inkscape:pageopacity="0.0"
     inkscape:pageshadow="2"
     inkscape:zoom="4.0000001"
     inkscape:cx="25.594083"
     inkscape:cy="28.169047"
     inkscape:document-units="px"
     inkscape:current-layer="layer1"
     showgrid="true"
     inkscape:window-width="1280"
     inkscape:window-height="998"
     inkscape:window-x="0"
     inkscape:window-y="0"
     inkscape:window-maximized="1">
    <inkscape:grid
       type="xygrid"
       id="grid2990"
       empspacing="5"
       visible="true"
       enabled="true"
       snapvisiblegridlinesonly="true" />
  </sodipodi:namedview>
  <metadata
     id="metadata7">
    <rdf:RDF>
      <cc:Work
         rdf:about="">
        <dc:format>image/svg+xml</dc:format>
        <dc:type
           rdf:resource="http://purl.org/dc/dcmitype/StillImage" />
        <dc:title />
      </cc:Work>
    </rdf:RDF>
  </metadata>
  <g
     inkscape:label="Body"
     inkscape:groupmode="layer"
     id="layer1"
     transform="translate(0,-956.3622)">
    <path
       inkscape:connector-curvature="0"
       style="opacity:0.1;fill:url(#radialGradient3070);fill-opacity:1;stroke:none"
       d="m 48,1026.3622 c -19.653098,0 -37.05594,1.5662 -48,4 l 0,12 c 10.94406,2.4338 28.346902,4 48,4 19.653098,0 37.05594,-1.5662 48,-4 l 0,-12 c -10.94406,-2.4338 -28.346902,-4 -48,-4 z"
       id="path3868" />
    <rect
       style="fill:replacecolour2;fill-opacity:1;stroke:none"
       id="rect2987-4"
       width="92"
       height="64.000038"
       x="2"
       y="976.36218"
       rx="10"
       ry="10" />
    <path
       style="opacity:0.2;fill:#ffffff;fill-opacity:1;stroke:none"
       d="m 12,976.3622 c -5.54,0 -10,4.46 -10,10 l 0,4 c 0,-5.54 4.46,-10 10,-10 l 72,0 c 5.54,0 10,4.46 10,10 l 0,-4 c 0,-5.54 -4.46,-10 -10,-10 l -72,0 z"
       id="rect3797"
       inkscape:connector-curvature="0" />
    <path
       style="fill:replacecolour1;fill-opacity:1;stroke:none"
       d="m 12,992.3622 16,0 c 22,-2 18,-24 32,-24 l 24,0 c 5.54,0 10,4.46 10,10 l 0,52 c 0,5.54 -4.46,10 -10,10 l -72,0 c -5.54,0 -10,-4.46 -10,-10 l 0,-28 c 0,-6 4,-10 10,-10 z"
       id="rect3776"
       inkscape:connector-curvature="0"
       sodipodi:nodetypes="cccsssssscc" />
    <path
       style="opacity:0.15;fill:#000000;fill-opacity:1;stroke:none"
       d="m 2,1026.3622 0,4 c 0,5.54 4.46,10 10,10 l 72,0 c 5.54,0 10,-4.46 10,-10 l 0,-4 c 0,5.54 -4.46,10 -10,10 l -72,0 c -5.54,0 -10,-4.46 -10,-10 z"
       id="path3786"
       inkscape:connector-curvature="0" />
    <g
       style="fill:#000000;fill-opacity:0.09803922"
       transform="matrix(2,0,0,2,10,1000.3622)"
       id="g3089">
      <path
         style="fill:#000000;fill-opacity:0.09803922;stroke:none"
         d="M 5,1 C 4,1 3,2 3,3 l 0,10 c 0,1 1,2 2,2 l 6,0 c 1,0 2,-1 2,-2 L 13,5 9,1 z m 0,2 5,0 1,0 0,1 0,9 -6,0 z"
         id="path3091"
         inkscape:connector-curvature="0"
         sodipodi:nodetypes="cssssscccccccccc" />
      <path
         style="fill:#000000;fill-opacity:0.09803922;stroke:none"
         d="m 9,1 0,4 4,0 z"
         id="path3093"
         inkscape:connector-curvature="0"
         sodipodi:nodetypes="cccc" />
      <rect
         style="fill:#000000;fill-opacity:0.09803922;stroke:none"
         id="rect3095"
         width="3"
         height="1"
         x="6"
         y="7"
         rx="0.25"
         ry="0.25" />
      <rect
         ry="0.25"
         rx="0.25"
         y="9"
         x="6"
         height="1"
         width="4"
         id="rect3097"
         style="fill:#000000;fill-opacity:0.09803922;stroke:none" />
      <rect
         style="fill:#000000;fill-opacity:0.09803922;stroke:none"
         id="rect3099"
         width="4"
         height="1"
         x="6"
         y="11"
         rx="0.25"
         ry="0.25" />
    </g>
    <g
       id="g3768"
       transform="matrix(2,0,0,2,10,998.3622)"
       style="fill:replacecolour3;fill-opacity:1">
      <path
         sodipodi:nodetypes="cssssscccccccccc"
         inkscape:connector-curvature="0"
         id="rect2991-3"
         d="M 5,1 C 4,1 3,2 3,3 l 0,10 c 0,1 1,2 2,2 l 6,0 c 1,0 2,-1 2,-2 L 13,5 9,1 z m 0,2 5,0 1,0 0,1 0,9 -6,0 z"
         style="fill:replacecolour3;fill-opacity:1;stroke:none" />
      <path
         sodipodi:nodetypes="cccc"
         inkscape:connector-curvature="0"
         id="path2997"
         d="m 9,1 0,4 4,0 z"
         style="fill:replacecolour3;fill-opacity:1;stroke:none" />
      <rect
         ry="0.25"
         rx="0.25"
         y="7"
         x="6"
         height="1"
         width="3"
         id="rect3767"
         style="fill:replacecolour3;fill-opacity:1;stroke:none" />
      <rect
         style="fill:replacecolour3;fill-opacity:1;stroke:none"
         id="rect3771"
         width="4"
         height="1"
         x="6"
         y="9"
         rx="0.25"
         ry="0.25" />
      <rect
         ry="0.25"
         rx="0.25"
         y="11"
         x="6"
         height="1"
         width="4"
         id="rect3775"
         style="fill:replacecolour3;fill-opacity:1;stroke:none" />
    </g>
  </g>
</svg>
