<?xml version="1.0" encoding="UTF-8" standalone="no"?>
<!-- Created with Inkscape (http://www.inkscape.org/) -->

<svg
   xmlns:dc="http://purl.org/dc/elements/1.1/"
   xmlns:cc="http://creativecommons.org/ns#"
   xmlns:rdf="http://www.w3.org/1999/02/22-rdf-syntax-ns#"
   xmlns:svg="http://www.w3.org/2000/svg"
   xmlns="http://www.w3.org/2000/svg"
   xmlns:xlink="http://www.w3.org/1999/xlink"
   xmlns:sodipodi="http://sodipodi.sourceforge.net/DTD/sodipodi-0.dtd"
   xmlns:inkscape="http://www.inkscape.org/namespaces/inkscape"
   width="96"
   height="96"
   id="svg2"
   version="1.1"
   inkscape:version="0.91 r"
   sodipodi:docname="default-folder-projects.svg">
  <defs
     id="defs4">
    <linearGradient
       id="linearGradient3886">
      <stop
         style="stop-color:#000000;stop-opacity:1;"
         offset="0"
         id="stop3888" />
      <stop
         style="stop-color:#000000;stop-opacity:0.19607843;"
         offset="1"
         id="stop3890" />
    </linearGradient>
    <radialGradient
       r="24"
       fy="40.5"
       fx="24"
       cy="40.5"
       cx="24"
       gradientTransform="matrix(2.5,0,0,0.41666654,-12,1019.4872)"
       gradientUnits="userSpaceOnUse"
       id="radialGradient3166"
       xlink:href="#linearGradient3886"
       inkscape:collect="always" />
  </defs>
  <sodipodi:namedview
     id="base"
     pagecolor="#ffffff"
     bordercolor="#666666"
     borderopacity="1.0"
     inkscape:pageopacity="0.0"
     inkscape:pageshadow="2"
     inkscape:zoom="8.8150004"
     inkscape:cx="37.372213"
     inkscape:cy="38.222292"
     inkscape:document-units="px"
     inkscape:current-layer="layer1"
     showgrid="true"
     inkscape:window-width="1280"
     inkscape:window-height="998"
     inkscape:window-x="0"
     inkscape:window-y="0"
     inkscape:window-maximized="1">
    <inkscape:grid
       type="xygrid"
       id="grid2990"
       empspacing="5"
       visible="true"
       enabled="true"
       snapvisiblegridlinesonly="true" />
  </sodipodi:namedview>
  <metadata
     id="metadata7">
    <rdf:RDF>
      <cc:Work
         rdf:about="">
        <dc:format>image/svg+xml</dc:format>
        <dc:type
           rdf:resource="http://purl.org/dc/dcmitype/StillImage" />
        <dc:title />
      </cc:Work>
    </rdf:RDF>
  </metadata>
  <g
     inkscape:label="Body"
     inkscape:groupmode="layer"
     id="layer1"
     transform="translate(0,-956.3622)">
    <path
       inkscape:connector-curvature="0"
       style="opacity:0.1;fill:url(#radialGradient3166);fill-opacity:1;stroke:none"
       d="m 48,1026.3622 c -19.653098,0 -37.05594,1.5662 -48,4 l 0,12 c 10.94406,2.4338 28.346902,4 48,4 19.653098,0 37.05594,-1.5662 48,-4 l 0,-12 c -10.94406,-2.4338 -28.346902,-4 -48,-4 z"
       id="path3868" />
    <rect
       style="fill:#f57c00;fill-opacity:1;stroke:none"
       id="rect2987"
       width="92"
       height="64.000038"
       x="2"
       y="976.36218"
       rx="10"
       ry="10" />
    <path
       style="opacity:0.2;fill:#ffffff;fill-opacity:1;stroke:none"
       d="m 12,976.3622 c -5.54,0 -10,4.46 -10,10 l 0,4 c 0,-5.54 4.46,-10 10,-10 l 72,0 c 5.54,0 10,4.46 10,10 l 0,-4 c 0,-5.54 -4.46,-10 -10,-10 l -72,0 z"
       id="rect3797"
       inkscape:connector-curvature="0" />
    <path
       style="fill:#ffb300;fill-opacity:1;stroke:none"
       d="m 12,992.3622 16,0 c 22,-2 18,-24 32,-24 l 24,0 c 5.54,0 10,4.46 10,10 l 0,52 c 0,5.54 -4.46,10 -10,10 l -72,0 c -5.54,0 -10,-4.46 -10,-10 l 0,-28 c 0,-6 4,-10 10,-10 z"
       id="rect3776"
       inkscape:connector-curvature="0"
       sodipodi:nodetypes="cccsssssscc" />
    <path
       style="opacity:0.15;fill:#000000;fill-opacity:1;stroke:none"
       d="m 2,1026.3622 0,4 c 0,5.54 4.46,10 10,10 l 72,0 c 5.54,0 10,-4.46 10,-10 l 0,-4 c 0,5.54 -4.46,10 -10,10 l -72,0 c -5.54,0 -10,-4.46 -10,-10 z"
       id="path3786"
       inkscape:connector-curvature="0" />
    <path
       inkscape:connector-curvature="0"
       id="path5984"
       d="m 15.025516,1004.31 c -0.902922,0.02 -1.756219,0.112 -2.615421,0.4102 -0.270143,1.8316 0.175194,3.732 0.666676,5.4872 1.250165,4.026 3.570596,7.8474 6.974457,10.4104 0.12476,0.118 0.302176,0.146 0.256414,0.359 -0.018,0.892 -0.0018,1.8238 0,2.718 0.03662,1.564 0.97857,3.0578 2.359006,3.795 1.638352,0.8624 3.273204,1.662 4.923146,2.5128 0.759528,0.4022 1.812912,-0.06 2.05131,-0.8718 0.14506,-0.5344 0.0436,-1.0958 0.05128,-1.641 -0.0056,-1.1492 -0.14708,-2.302 -0.10256,-3.436 1.501626,-0.186 3.011256,-0.9138 3.89749,-2.154 0.789868,-1.058 1.071154,-2.4274 0.974374,-3.7436 1.606456,-0.2868 3.261894,-0.5292 4.871862,-0.8204 0.95287,-0.19 1.366082,-1.4298 0.769242,-2.2052 -1.170996,-1.484 -2.34802,-2.937 -3.538512,-4.4104 -0.961126,-1.1484 -2.46647,-1.7854 -3.948772,-1.5896 -1.005228,0.16 -2.03452,0.377 -3.025684,0.564 -3.200816,-3.0492 -7.503506,-4.739 -11.846319,-5.2308 -0.891848,-0.08 -1.815066,-0.168 -2.717987,-0.154 z m 5.435974,3.3332 c 1.049168,-0.096 2.101444,0.196 2.9744,0.9232 1.745912,1.4538 2.01787,4.049 0.56411,5.795 -1.45376,1.7458 -4.049039,2.0178 -5.794953,0.564 -1.745911,-1.4538 -2.017869,-4.049 -0.56411,-5.7948 0.726881,-0.8732 1.771384,-1.3916 2.820553,-1.4874 z m 0.10256,1.3848 c -0.699204,0.064 -1.361155,0.3916 -1.84618,0.9742 -0.970052,1.165 -0.806016,2.8762 0.358979,3.8464 1.164995,0.97 2.876155,0.806 3.846207,-0.3592 0.970052,-1.165 0.806016,-2.8758 -0.35898,-3.846 -0.582498,-0.4852 -1.300824,-0.6794 -2.000026,-0.6154 z m 16.666898,11.1796 c -0.35922,-0.032 -0.71735,0.2394 -0.76924,0.6154 -0.457822,2.0806 -1.937298,3.8882 -3.897492,4.718 -0.510398,0.16 -0.624384,0.8446 -0.20513,1.1794 0.860302,0.7164 1.854172,1.5444 2.717986,2.2564 0.420316,0.3574 0.967316,-0.02 0.974372,-0.564 -0.0134,-0.4362 -0.06322,-0.9024 -0.10256,-1.3334 1.071078,0.2296 2.119692,0.5348 3.179532,0.7692 0.499436,0.104 0.97249,-0.498 0.76924,-0.9742 -0.418988,-1.0042 -0.85184,-1.9752 -1.282068,-2.9744 0.433678,-0.05 0.850678,-0.088 1.282068,-0.154 0.533958,-0.106 0.742764,-0.8826 0.307698,-1.2306 -0.865228,-0.7276 -1.738954,-1.4314 -2.615422,-2.154 -0.10254,-0.08 -0.239238,-0.142 -0.35898,-0.154 z"
       style="fill:#000000;fill-opacity:0.09803922;fill-rule:nonzero;stroke:none" />
    <path
       style="fill:#fff8e1;fill-opacity:1;fill-rule:nonzero;stroke:none"
       d="m 15.025516,1002.3108 c -0.902922,0.02 -1.756219,0.112 -2.615421,0.4102 -0.270143,1.8316 0.175194,3.732 0.666676,5.4872 1.250165,4.026 3.570596,7.8474 6.974457,10.4104 0.12476,0.118 0.302176,0.146 0.256414,0.359 -0.018,0.892 -0.0018,1.8238 0,2.718 0.03662,1.564 0.97857,3.0578 2.359006,3.795 1.638352,0.8624 3.273204,1.662 4.923146,2.5128 0.759528,0.4022 1.812912,-0.06 2.05131,-0.8718 0.14506,-0.5344 0.0436,-1.0958 0.05128,-1.641 -0.0056,-1.1492 -0.14708,-2.302 -0.10256,-3.436 1.501626,-0.186 3.011256,-0.9138 3.89749,-2.154 0.789868,-1.058 1.071154,-2.4274 0.974374,-3.7436 1.606456,-0.2868 3.261894,-0.5292 4.871862,-0.8204 0.95287,-0.19 1.366082,-1.4298 0.769242,-2.2052 -1.170996,-1.484 -2.34802,-2.937 -3.538512,-4.4104 -0.961126,-1.1484 -2.46647,-1.7854 -3.948772,-1.5896 -1.005228,0.16 -2.03452,0.377 -3.025684,0.564 -3.200816,-3.0492 -7.503506,-4.739 -11.846319,-5.2308 -0.891848,-0.08 -1.815066,-0.168 -2.717987,-0.154 z m 5.435974,3.3332 c 1.049168,-0.096 2.101444,0.196 2.9744,0.9232 1.745912,1.4538 2.01787,4.049 0.56411,5.795 -1.45376,1.7458 -4.049039,2.0178 -5.794953,0.564 -1.745911,-1.4538 -2.017869,-4.049 -0.56411,-5.7948 0.726881,-0.8732 1.771384,-1.3916 2.820553,-1.4874 z m 0.10256,1.3848 c -0.699204,0.064 -1.361155,0.3916 -1.84618,0.9742 -0.970052,1.165 -0.806016,2.8762 0.358979,3.8464 1.164995,0.97 2.876155,0.806 3.846207,-0.3592 0.970052,-1.165 0.806016,-2.8758 -0.35898,-3.846 -0.582498,-0.4852 -1.300824,-0.6794 -2.000026,-0.6154 z m 16.666898,11.1796 c -0.35922,-0.032 -0.71735,0.2394 -0.76924,0.6154 -0.457822,2.0806 -1.937298,3.8882 -3.897492,4.718 -0.510398,0.16 -0.624384,0.8446 -0.20513,1.1794 0.860302,0.7164 1.854172,1.5444 2.717986,2.2564 0.420316,0.3574 0.967316,-0.02 0.974372,-0.564 -0.0134,-0.4362 -0.06322,-0.9024 -0.10256,-1.3334 1.071078,0.2296 2.119692,0.5348 3.179532,0.7692 0.499436,0.104 0.97249,-0.498 0.76924,-0.9742 -0.418988,-1.0042 -0.85184,-1.9752 -1.282068,-2.9744 0.433678,-0.05 0.850678,-0.088 1.282068,-0.154 0.533958,-0.106 0.742764,-0.8826 0.307698,-1.2306 -0.865228,-0.7276 -1.738954,-1.4314 -2.615422,-2.154 -0.10254,-0.08 -0.239238,-0.142 -0.35898,-0.154 z"
       id="path10643"
       inkscape:connector-curvature="0" />
  </g>
</svg>
