<?xml version="1.0" encoding="UTF-8" standalone="no"?>
<!-- Created with Inkscape (http://www.inkscape.org/) -->

<svg
   xmlns:dc="http://purl.org/dc/elements/1.1/"
   xmlns:cc="http://creativecommons.org/ns#"
   xmlns:rdf="http://www.w3.org/1999/02/22-rdf-syntax-ns#"
   xmlns:svg="http://www.w3.org/2000/svg"
   xmlns="http://www.w3.org/2000/svg"
   xmlns:sodipodi="http://sodipodi.sourceforge.net/DTD/sodipodi-0.dtd"
   xmlns:inkscape="http://www.inkscape.org/namespaces/inkscape"
   width="128"
   height="128"
   id="svg2"
   version="1.1"
   inkscape:version="0.91 r"
   sodipodi:docname="blue-folder-vm.svg"
   inkscape:export-filename="/media/Data/Main/Visuals/Icons/Numix/Desktop/repos/numix-wiki/Gjorgi/Numix-folders/48/New/folder-144.png"
   inkscape:export-xdpi="270"
   inkscape:export-ydpi="270">
  <defs
     id="defs4" />
  <sodipodi:namedview
     id="base"
     pagecolor="#ffffff"
     bordercolor="#666666"
     borderopacity="1.0"
     inkscape:pageopacity="0.0"
     inkscape:pageshadow="2"
     inkscape:zoom="7.4607353"
     inkscape:cx="62.19387"
     inkscape:cy="64.016432"
     inkscape:document-units="px"
     inkscape:current-layer="layer1"
     showgrid="true"
     inkscape:window-width="1280"
     inkscape:window-height="998"
     inkscape:window-x="0"
     inkscape:window-y="0"
     inkscape:window-maximized="1"
     showguides="true"
     inkscape:guide-bbox="true">
    <inkscape:grid
       type="xygrid"
       id="grid2985"
       empspacing="5"
       visible="true"
       enabled="true"
       snapvisiblegridlinesonly="true" />
  </sodipodi:namedview>
  <metadata
     id="metadata7">
    <rdf:RDF>
      <cc:Work
         rdf:about="">
        <dc:format>image/svg+xml</dc:format>
        <dc:type
           rdf:resource="http://purl.org/dc/dcmitype/StillImage" />
        <dc:title />
      </cc:Work>
    </rdf:RDF>
  </metadata>
  <g
     inkscape:label="Layer 1"
     inkscape:groupmode="layer"
     id="layer1"
     transform="translate(0,-924.3622)">
    <path
       style="font-size:medium;font-style:normal;font-variant:normal;font-weight:normal;font-stretch:normal;text-indent:0;text-align:start;text-decoration:none;line-height:normal;letter-spacing:normal;word-spacing:normal;text-transform:none;direction:ltr;block-progression:tb;writing-mode:lr-tb;text-anchor:start;baseline-shift:baseline;color:#000000;fill:#42a5f5;fill-opacity:1;fill-rule:nonzero;stroke:none;stroke-width:2.28612947;marker:none;visibility:visible;display:inline;overflow:visible;enable-background:accumulate;font-family:Sans;-inkscape-font-specification:Sans"
       d="m 12.125507,944.36232 c -2.2588197,0.2218 -4.1618058,2.35553 -4.1249814,4.62498 l 0,78.7497 c -0.028,2.4292 2.1958394,4.6528 4.6249784,4.625 l 102.749526,0 c 2.42914,0.028 4.65291,-2.1958 4.62497,-4.625 l 0,-70.74974 c 0.028,-2.42919 -2.19583,-4.65278 -4.62497,-4.62498 l -39.374821,0 0,-3.37498 c 0.0275,-2.38765 -2.112556,-4.58698 -4.499979,-4.62498 l -58.874726,0 c -0.166499,0 -0.333498,-2e-4 -0.499997,0 z m 39.874814,23.99995 23.999888,0 c 1.99999,0 3.999981,1.99999 3.999981,3.99998 l -31.999851,0 c 0,-1.99999 1.999991,-3.99998 3.999982,-3.99998 z m -3.999982,5.99997 31.999851,0 0,35.99986 -31.999851,0 0,-35.99986 z m 5.999972,3.99998 0,3.99998 19.999907,0 0,-3.99998 -19.999907,0 z m 0,7.99996 0,3.99999 19.999907,0 0,-3.99999 -19.999907,0 z m 9.999954,7.99997 c -2.209128,0 -3.999982,1.79079 -3.999982,3.99998 0,2.20917 1.790854,3.99997 3.999982,3.99997 2.209127,0 3.999981,-1.7908 3.999981,-3.99997 0,-2.20919 -1.790854,-3.99998 -3.999981,-3.99998 z m -15.999926,17.99995 31.999851,0 c 0,2 -1.999991,3.9999 -3.999981,3.9999 l -23.999888,0 c -1.999991,0 -3.999982,-1.9999 -3.999982,-3.9999 z"
       id="path3912"
       inkscape:connector-curvature="0" />
  </g>
</svg>
