<?xml version="1.0" encoding="UTF-8" standalone="no"?>
<!-- Created with Inkscape (http://www.inkscape.org/) -->

<svg
   xmlns:dc="http://purl.org/dc/elements/1.1/"
   xmlns:cc="http://creativecommons.org/ns#"
   xmlns:rdf="http://www.w3.org/1999/02/22-rdf-syntax-ns#"
   xmlns:svg="http://www.w3.org/2000/svg"
   xmlns="http://www.w3.org/2000/svg"
   xmlns:xlink="http://www.w3.org/1999/xlink"
   xmlns:sodipodi="http://sodipodi.sourceforge.net/DTD/sodipodi-0.dtd"
   xmlns:inkscape="http://www.inkscape.org/namespaces/inkscape"
   width="128"
   height="128"
   id="svg2"
   version="1.1"
   inkscape:version="0.48.5 r10040"
   sodipodi:docname="folder-art.svg"
   inkscape:export-filename="/media/Data/Main/Visuals/Icons/Numix/Desktop/repos/numix-wiki/Gjorgi/Numix-folders/48/New/folder-144.png"
   inkscape:export-xdpi="270"
   inkscape:export-ydpi="270">
  <defs
     id="defs4">
    <linearGradient
       inkscape:collect="always"
       id="linearGradient3958">
      <stop
         style="stop-color:#000000;stop-opacity:1;"
         offset="0"
         id="stop3960" />
      <stop
         style="stop-color:#000000;stop-opacity:0;"
         offset="1"
         id="stop3962" />
    </linearGradient>
    <radialGradient
       inkscape:collect="always"
       xlink:href="#linearGradient3958"
       id="radialGradient3964"
       cx="32.5"
       cy="56.5"
       fx="32.5"
       fy="56.5"
       r="33.5"
       gradientTransform="matrix(1,0,0,0.10447761,0,50.597015)"
       gradientUnits="userSpaceOnUse" />
  </defs>
  <sodipodi:namedview
     id="base"
     pagecolor="#ffffff"
     bordercolor="#666666"
     borderopacity="1.0"
     inkscape:pageopacity="0.0"
     inkscape:pageshadow="2"
     inkscape:zoom="5.2755365"
     inkscape:cx="88.34992"
     inkscape:cy="62.522023"
     inkscape:document-units="px"
     inkscape:current-layer="layer1"
     showgrid="true"
     inkscape:window-width="1280"
     inkscape:window-height="998"
     inkscape:window-x="0"
     inkscape:window-y="0"
     inkscape:window-maximized="1"
     showguides="true"
     inkscape:guide-bbox="true">
    <inkscape:grid
       type="xygrid"
       id="grid2985"
       empspacing="5"
       visible="true"
       enabled="true"
       snapvisiblegridlinesonly="true" />
  </sodipodi:namedview>
  <metadata
     id="metadata7">
    <rdf:RDF>
      <cc:Work
         rdf:about="">
        <dc:format>image/svg+xml</dc:format>
        <dc:type
           rdf:resource="http://purl.org/dc/dcmitype/StillImage" />
        <dc:title />
      </cc:Work>
    </rdf:RDF>
  </metadata>
  <g
     inkscape:label="Layer 1"
     inkscape:groupmode="layer"
     id="layer1"
     transform="translate(0,-924.3622)">
    <path
       style="font-size:medium;font-style:normal;font-variant:normal;font-weight:normal;font-stretch:normal;text-indent:0;text-align:start;text-decoration:none;line-height:normal;letter-spacing:normal;word-spacing:normal;text-transform:none;direction:ltr;block-progression:tb;writing-mode:lr-tb;text-anchor:start;baseline-shift:baseline;color:#000000;fill:#42a5f5;fill-opacity:1;fill-rule:nonzero;stroke:none;stroke-width:2.28612947;marker:none;visibility:visible;display:inline;overflow:visible;enable-background:accumulate;font-family:Sans;-inkscape-font-specification:Sans"
       d="m 12.125497,944.36252 c -2.258814,0.22181 -4.1617957,2.35553 -4.1249714,4.62497 l 0,78.74951 c -0.028,2.4292 2.1958344,4.6528 4.6249674,4.6249 l 102.749277,0 c 2.42914,0.028 4.6529,-2.1957 4.62497,-4.6249 l 0,-70.74957 c 0.028,-2.42918 -2.19583,-4.65277 -4.62497,-4.62497 l -39.374722,0 0,-3.37497 c 0.0275,-2.38765 -2.112551,-4.58697 -4.499968,-4.62497 l -58.874587,0 c -0.166498,0 -0.333497,-2e-4 -0.499996,0 z m 48.874657,27.99987 c 17.999874,0 26.99981,11.42912 26.99981,19.99986 0,5.71396 -2.999979,19.99985 -23.999831,19.99985 -5.999959,0 -8.999937,-2.9113 -8.999937,-8.6249 0,-5.71699 -2.999979,-5.62499 -5.999958,-5.62499 -2.999979,0 -8.999936,0.072 -8.999936,-8.49995 0,-8.57074 9.018344,-16.96988 20.999852,-17.24987 z m -5.999958,3.99997 c -1.656843,0 -2.999979,1.34319 -2.999979,2.99998 0,1.65678 1.343136,2.99998 2.999979,2.99998 1.656842,0 2.999978,-1.3432 2.999978,-2.99998 0,-1.65679 -1.343136,-2.99998 -2.999978,-2.99998 z m 11.999915,0 c -1.656842,0 -2.999978,1.34319 -2.999978,2.99998 0,1.65678 1.343136,2.99998 2.999978,2.99998 1.656843,0 2.99998,-1.3432 2.99998,-2.99998 0,-1.65679 -1.343137,-2.99998 -2.99998,-2.99998 z m 11.999917,7.99994 c -1.656843,0 -2.99998,1.34319 -2.99998,2.99998 0,1.65679 1.343137,2.99998 2.99998,2.99998 1.656842,0 2.999978,-1.34319 2.999978,-2.99998 0,-1.65679 -1.343136,-2.99998 -2.999978,-2.99998 z m -31.999776,1.99999 c -1.656842,0 -2.999979,1.34319 -2.999979,2.99998 0,1.65678 1.343137,2.99998 2.999979,2.99998 1.656842,0 2.999979,-1.3432 2.999979,-2.99998 0,-1.65679 -1.343137,-2.99998 -2.999979,-2.99998 z m 17.999873,11.99991 c -2.761404,0 -4.999964,2.2386 -4.999964,5 0,2.7614 2.23856,5 4.999964,5 2.761405,0 4.999966,-2.2386 4.999966,-5 0,-2.7614 -2.238561,-5 -4.999966,-5 z"
       id="path3912"
       inkscape:connector-curvature="0" />
  </g>
</svg>
