<?xml version="1.0" encoding="UTF-8" standalone="no"?>
<!-- Created with Inkscape (http://www.inkscape.org/) -->

<svg
   xmlns:dc="http://purl.org/dc/elements/1.1/"
   xmlns:cc="http://creativecommons.org/ns#"
   xmlns:rdf="http://www.w3.org/1999/02/22-rdf-syntax-ns#"
   xmlns:svg="http://www.w3.org/2000/svg"
   xmlns="http://www.w3.org/2000/svg"
   xmlns:sodipodi="http://sodipodi.sourceforge.net/DTD/sodipodi-0.dtd"
   xmlns:inkscape="http://www.inkscape.org/namespaces/inkscape"
   width="128"
   height="128"
   id="svg2"
   version="1.1"
   inkscape:version="0.91 r"
   sodipodi:docname="brown-folder-download.svg"
   inkscape:export-filename="/media/Data/Main/Visuals/Icons/Numix/Desktop/repos/numix-wiki/Gjorgi/Numix-folders/48/New/folder-144.png"
   inkscape:export-xdpi="270"
   inkscape:export-ydpi="270">
  <defs
     id="defs4" />
  <sodipodi:namedview
     id="base"
     pagecolor="#ffffff"
     bordercolor="#666666"
     borderopacity="1.0"
     inkscape:pageopacity="0.0"
     inkscape:pageshadow="2"
     inkscape:zoom="4.5918875"
     inkscape:cx="86.638166"
     inkscape:cy="56.188303"
     inkscape:document-units="px"
     inkscape:current-layer="layer1"
     showgrid="true"
     inkscape:window-width="1280"
     inkscape:window-height="998"
     inkscape:window-x="0"
     inkscape:window-y="0"
     inkscape:window-maximized="1"
     showguides="true"
     inkscape:guide-bbox="true">
    <inkscape:grid
       type="xygrid"
       id="grid2985"
       empspacing="5"
       visible="true"
       enabled="true"
       snapvisiblegridlinesonly="true" />
  </sodipodi:namedview>
  <metadata
     id="metadata7">
    <rdf:RDF>
      <cc:Work
         rdf:about="">
        <dc:format>image/svg+xml</dc:format>
        <dc:type
           rdf:resource="http://purl.org/dc/dcmitype/StillImage" />
        <dc:title />
      </cc:Work>
    </rdf:RDF>
  </metadata>
  <g
     inkscape:label="Layer 1"
     inkscape:groupmode="layer"
     id="layer1"
     transform="translate(0,-924.3622)">
    <path
       style="font-size:medium;font-style:normal;font-variant:normal;font-weight:normal;font-stretch:normal;text-indent:0;text-align:start;text-decoration:none;line-height:normal;letter-spacing:normal;word-spacing:normal;text-transform:none;direction:ltr;block-progression:tb;writing-mode:lr-tb;text-anchor:start;baseline-shift:baseline;color:#000000;fill:#8d6e63;fill-opacity:1;fill-rule:nonzero;stroke:none;stroke-width:2.28612947;marker:none;visibility:visible;display:inline;overflow:visible;enable-background:accumulate;font-family:Sans;-inkscape-font-specification:Sans"
       d="m 12.125497,944.36253 c -2.2588145,0.2218 -4.1617971,2.35552 -4.1249714,4.62497 l 0,78.7495 c -0.028,2.4292 2.1958344,4.6528 4.6249684,4.625 l 102.749276,0 c 2.42914,0.028 4.6529,-2.1958 4.62497,-4.625 l 0,-70.74956 c 0.028,-2.42918 -2.19583,-4.65277 -4.62497,-4.62497 l -39.374722,0 0,-3.37497 c 0.0275,-2.38765 -2.112551,-4.58697 -4.499969,-4.62497 l -58.874585,0 c -0.166499,0 -0.333498,-2e-4 -0.499997,0 z m 51.874635,21.99984 c 2.215985,0 3.999972,1.78405 3.999972,4.00004 l 0,19.99985 7.999944,0 c 3.999972,0 3.999972,0 0,3.99998 l -7.999944,7.99996 c -3.999972,4 -3.999972,4 -7.999944,0 l -7.999943,-7.99996 c -3.999972,-3.99998 -3.999972,-3.99998 0,-3.99998 l 7.999943,0 0,-19.99985 c 0,-2.21599 1.783988,-4.00004 3.999972,-4.00004 z m -24.12483,27.99987 0.249998,0 c 2.137213,0 3.874973,1.78398 3.874973,3.99997 l 0,11.99989 39.999719,0 0,-11.99989 c 0,-2.21599 1.737759,-3.99997 3.874972,-3.99997 l 0.249999,0 c 2.137212,0 3.874972,1.78398 3.874972,3.99997 l 0,15.81249 0,0.375 c -0.0094,0.2108 -0.02302,0.4238 -0.0625,0.625 -0.0074,0.042 0.0088,0.084 0,0.124 -0.0497,0.2192 -0.167259,0.4214 -0.249999,0.625 -0.101299,0.249 -0.223716,0.467 -0.374997,0.6874 -0.0104,0.02 0.0106,0.048 0,0.062 -0.113919,0.17 -0.237548,0.288 -0.374997,0.4374 -0.02022,0.02 -0.04178,0.042 -0.0625,0.062 -0.0108,0.02 -0.05156,-0.02 -0.0625,0 -0.011,0.02 0.0112,0.052 0,0.062 -0.157319,0.156 -0.31888,0.3108 -0.499997,0.4376 -0.02454,0.02 -0.03756,0.046 -0.0625,0.062 -0.08886,0.06 -0.218791,0.074 -0.312498,0.124 -0.575528,0.3046 -1.229814,0.5 -1.937487,0.5 l -0.124999,0 -47.749664,0 -0.124999,0 c -0.04236,0 -0.08296,0 -0.124999,0 -0.226293,0 -0.472093,-0.024 -0.687495,-0.062 -0.03912,0 -0.0863,0 -0.124999,0 -0.231385,-0.048 -0.410914,-0.16 -0.624996,-0.25 -0.018,0 -0.0446,0 -0.0625,0 -0.107379,-0.048 -0.210398,-0.132 -0.312497,-0.188 -0.126699,-0.068 -0.257303,-0.108 -0.374998,-0.188 -0.181118,-0.126 -0.342685,-0.2816 -0.499996,-0.4376 -0.0212,-0.02 -0.04178,-0.042 -0.0625,-0.062 -0.02146,-0.022 -0.04156,-0.04 -0.0625,-0.062 -0.144719,-0.15 -0.257083,-0.3282 -0.374998,-0.5 -0.151279,-0.2204 -0.273702,-0.4384 -0.374997,-0.6874 -0.08274,-0.2036 -0.200303,-0.4058 -0.249998,-0.625 -0.0088,-0.042 0.0074,-0.084 0,-0.124 -0.03948,-0.2012 -0.0531,-0.4142 -0.0625,-0.625 l 0,-0.188 0,-0.188 0,-15.81249 c 0,-2.21599 1.73776,-3.99997 3.874973,-3.99997 z"
       id="path3912"
       inkscape:connector-curvature="0" />
  </g>
</svg>
