<?xml version="1.0" encoding="UTF-8" standalone="no"?>
<!-- Created with Inkscape (http://www.inkscape.org/) -->

<svg
   xmlns:dc="http://purl.org/dc/elements/1.1/"
   xmlns:cc="http://creativecommons.org/ns#"
   xmlns:rdf="http://www.w3.org/1999/02/22-rdf-syntax-ns#"
   xmlns:svg="http://www.w3.org/2000/svg"
   xmlns="http://www.w3.org/2000/svg"
   xmlns:xlink="http://www.w3.org/1999/xlink"
   xmlns:sodipodi="http://sodipodi.sourceforge.net/DTD/sodipodi-0.dtd"
   xmlns:inkscape="http://www.inkscape.org/namespaces/inkscape"
   width="128"
   height="128"
   id="svg2"
   version="1.1"
   inkscape:version="0.48.5 r10040"
   sodipodi:docname="folder-saved-search.svg"
   inkscape:export-filename="/media/Data/Main/Visuals/Icons/Numix/Desktop/repos/numix-wiki/Gjorgi/Numix-folders/48/New/folder-144.png"
   inkscape:export-xdpi="270"
   inkscape:export-ydpi="270">
  <defs
     id="defs4">
    <linearGradient
       inkscape:collect="always"
       id="linearGradient3958">
      <stop
         style="stop-color:#000000;stop-opacity:1;"
         offset="0"
         id="stop3960" />
      <stop
         style="stop-color:#000000;stop-opacity:0;"
         offset="1"
         id="stop3962" />
    </linearGradient>
    <radialGradient
       inkscape:collect="always"
       xlink:href="#linearGradient3958"
       id="radialGradient3964"
       cx="32.5"
       cy="56.5"
       fx="32.5"
       fy="56.5"
       r="33.5"
       gradientTransform="matrix(1,0,0,0.10447761,0,50.597015)"
       gradientUnits="userSpaceOnUse" />
  </defs>
  <sodipodi:namedview
     id="base"
     pagecolor="#ffffff"
     bordercolor="#666666"
     borderopacity="1.0"
     inkscape:pageopacity="0.0"
     inkscape:pageshadow="2"
     inkscape:zoom="6.0600002"
     inkscape:cx="86.863152"
     inkscape:cy="71.298701"
     inkscape:document-units="px"
     inkscape:current-layer="layer1"
     showgrid="true"
     inkscape:window-width="1280"
     inkscape:window-height="998"
     inkscape:window-x="0"
     inkscape:window-y="0"
     inkscape:window-maximized="1"
     showguides="true"
     inkscape:guide-bbox="true">
    <inkscape:grid
       type="xygrid"
       id="grid2985"
       empspacing="5"
       visible="true"
       enabled="true"
       snapvisiblegridlinesonly="true" />
  </sodipodi:namedview>
  <metadata
     id="metadata7">
    <rdf:RDF>
      <cc:Work
         rdf:about="">
        <dc:format>image/svg+xml</dc:format>
        <dc:type
           rdf:resource="http://purl.org/dc/dcmitype/StillImage" />
        <dc:title />
      </cc:Work>
    </rdf:RDF>
  </metadata>
  <g
     inkscape:label="Layer 1"
     inkscape:groupmode="layer"
     id="layer1"
     transform="translate(0,-924.3622)">
    <path
       style="font-size:medium;font-style:normal;font-variant:normal;font-weight:normal;font-stretch:normal;text-indent:0;text-align:start;text-decoration:none;line-height:normal;letter-spacing:normal;word-spacing:normal;text-transform:none;direction:ltr;block-progression:tb;writing-mode:lr-tb;text-anchor:start;baseline-shift:baseline;color:#000000;fill:#ff0000;fill-opacity:1;fill-rule:nonzero;stroke:none;stroke-width:2.28612947;marker:none;visibility:visible;display:inline;overflow:visible;enable-background:accumulate;font-family:Sans;-inkscape-font-specification:Sans"
       d="m 12.125497,944.36253 c -2.2588145,0.2218 -4.1617971,2.35552 -4.1249714,4.62497 l 0,78.7495 c -0.028,2.4292 2.1958344,4.6528 4.6249684,4.625 l 102.749276,0 c 2.42914,0.028 4.6529,-2.1958 4.62497,-4.625 l 0,-70.74956 c 0.028,-2.42918 -2.19583,-4.65277 -4.62497,-4.62497 l -39.374722,0 0,-3.37497 c 0.0275,-2.38765 -2.112551,-4.58697 -4.499969,-4.62497 l -58.874585,0 c -0.166499,0 -0.333498,-2e-4 -0.499997,0 z m 59.874579,19.99986 c 11.045616,0 19.999859,8.95439 19.999859,19.99992 0,11.04552 -8.954243,19.99989 -19.999859,19.99989 -4.191573,0 -8.098211,-1.296 -11.312421,-3.5 -0.195858,0.4814 -0.483258,0.9834 -0.874993,1.375 l -16.999881,16.9375 c -1.566937,1.567 -4.058023,1.567 -5.62496,0 -1.566937,-1.567 -1.566937,-4.058 0,-5.625 l 16.937381,-16.99988 c 0.391735,-0.3918 0.893631,-0.67899 1.37499,-0.87499 -2.203861,-3.21418 -3.499975,-7.12095 -3.499975,-11.31252 0,-11.04553 8.954243,-19.99992 19.999859,-19.99992 z m 0,6.00002 c -7.731932,0 -13.999902,6.26795 -13.999902,13.9999 0,7.73194 6.26797,13.9999 13.999902,13.9999 7.731932,0 13.999901,-6.26796 13.999901,-13.9999 0,-7.73195 -6.267969,-13.9999 -13.999901,-13.9999 z"
       id="path3912"
       inkscape:connector-curvature="0" />
  </g>
</svg>
