<?xml version="1.0" encoding="UTF-8" standalone="no"?>
<svg
   xmlns:dc="http://purl.org/dc/elements/1.1/"
   xmlns:cc="http://creativecommons.org/ns#"
   xmlns:rdf="http://www.w3.org/1999/02/22-rdf-syntax-ns#"
   xmlns:svg="http://www.w3.org/2000/svg"
   xmlns="http://www.w3.org/2000/svg"
   xmlns:sodipodi="http://sodipodi.sourceforge.net/DTD/sodipodi-0.dtd"
   xmlns:inkscape="http://www.inkscape.org/namespaces/inkscape"
   width="256px"
   height="256px"
   viewBox="0 0 256 256"
   version="1.1"
   id="svg3041"
   inkscape:version="0.91 r"
   sodipodi:docname="blue-document-open-recent.svg">
  <metadata
     id="metadata3068">
    <rdf:RDF>
      <cc:Work
         rdf:about="">
        <dc:format>image/svg+xml</dc:format>
        <dc:type
           rdf:resource="http://purl.org/dc/dcmitype/StillImage" />
      </cc:Work>
    </rdf:RDF>
  </metadata>
  <defs
     id="defs3066" />
  <sodipodi:namedview
     pagecolor="#ffffff"
     bordercolor="#666666"
     borderopacity="1"
     objecttolerance="10"
     gridtolerance="10"
     guidetolerance="10"
     inkscape:pageopacity="0"
     inkscape:pageshadow="2"
     inkscape:window-width="668"
     inkscape:window-height="480"
     id="namedview3064"
     showgrid="false"
     inkscape:zoom="0.921875"
     inkscape:cx="128"
     inkscape:cy="128"
     inkscape:window-x="0"
     inkscape:window-y="0"
     inkscape:window-maximized="0"
     inkscape:current-layer="svg3041" />
  <path
     inkscape:connector-curvature="0"
     id="path3044"
     d="m 24,48 208,0 0,80 -208,0 z m 0,0"
     style="fill:#1976d2;fill-opacity:1;fill-rule:nonzero;stroke:none" />
  <path
     inkscape:connector-curvature="0"
     id="path3046"
     d="m 48,48 c 0,-8 0,-16 11.632812,-16 l 40.734378,0 C 112,32 112,40 112,48 l 0,8 -64,0 z m 0,0"
     style="fill:#1976d2;fill-opacity:1;fill-rule:nonzero;stroke:none" />
  <path
     inkscape:connector-curvature="0"
     id="path3048"
     d="m 40,64 176,0 0,64 -176,0 z m 0,0"
     style="fill:#94979e;fill-opacity:1;fill-rule:nonzero;stroke:none" />
  <path
     inkscape:connector-curvature="0"
     id="path3050"
     d="m 56,56 152,0 0,104 -152,0 z m 0,0"
     style="fill:#d7d7d9;fill-opacity:1;fill-rule:nonzero;stroke:none" />
  <path
     inkscape:connector-curvature="0"
     id="path3052"
     d="m 48,72 152,0 0,104 -152,0 z m 0,0"
     style="fill:#f8f8f8;fill-opacity:1;fill-rule:nonzero;stroke:none" />
  <path
     inkscape:connector-curvature="0"
     id="path3054"
     d="m 56,80 136,0 0,8 -136,0 z m 0,0"
     style="fill:#cccccc;fill-opacity:1;fill-rule:nonzero;stroke:none" />
  <path
     inkscape:connector-curvature="0"
     id="path3056"
     d="m 8,112 240,0 -17.14063,112 -205.718745,0 z m 0,0"
     style="fill:#42a5f5;fill-opacity:1;fill-rule:nonzero;stroke:none" />
  <path
     inkscape:connector-curvature="0"
     id="path3058"
     d="m 56,96 136,0 0,8 -136,0 z m 0,0"
     style="fill:#cccccc;fill-opacity:1;fill-rule:nonzero;stroke:none" />
  <path
     inkscape:connector-curvature="0"
     id="path3060"
     d="m 232.11719,183.17969 c 0.375,18.64843 -9.46094,36.03906 -25.73438,45.47656 -16.25,9.4375 -36.39062,9.4375 -52.66406,0 -16.27344,-9.4375 -26.10156,-26.82813 -25.71094,-45.47656 -0.39062,-18.66407 9.4375,-36.0625 25.71094,-45.5 16.27344,-9.4375 36.41406,-9.4375 52.66406,0 16.27344,9.4375 26.10938,26.83593 25.73438,45.5 z m 0,0"
     style="fill:#859900;fill-opacity:1;fill-rule:evenodd;stroke:none" />
  <path
     inkscape:connector-curvature="0"
     id="path3062"
     d="m 208.53125,150.11719 c -1.10156,0.39843 -2.03906,1.14843 -2.66406,2.125 l -28.375,27.72656 -17.71094,-17.0625 c -0.71094,-2.35156 -2.9375,-3.9375 -5.41406,-3.8125 -2.46094,0.14844 -4.5,1.96094 -4.96094,4.375 -0.4375,2.4375 0.85156,4.85937 3.125,5.83594 l 21.33594,21.33593 c 2.03906,1.91407 5.20312,1.91407 7.25,0 l 32,-32 c 1.25,-1.64843 1.41406,-3.89843 0.4375,-5.73437 -0.98438,-1.82813 -2.96094,-2.91406 -5.02344,-2.78906 z m 0,0"
     style="fill:#ffffff;fill-opacity:1;fill-rule:nonzero;stroke:none" />
</svg>
