<svg xmlns="http://www.w3.org/2000/svg" viewBox="0 0 256 256">
 <path d="m 24 48 208 0 0 80 -208 0 z m 0 0" style="fill:replacecolour2;fill-opacity:1;stroke:none;fill-rule:nonzero"/>
 <path d="m 48,48 c 0,-8 0,-16 11.632812,-16 l 40.734378,0 C 112,32 112,40 112,48 l 0,8 -64,0 z m 0,0" style="fill:replacecolour2;fill-opacity:1;stroke:none;fill-rule:nonzero"/>
 <path d="m 40 64 176 0 0 64 -176 0 z m 0 0" style="fill:#94979e;fill-opacity:1;stroke:none;fill-rule:nonzero"/>
 <path d="m 56 56 152 0 0 104 -152 0 z m 0 0" style="fill:#d7d7d9;fill-opacity:1;stroke:none;fill-rule:nonzero"/>
 <path d="m 48 72 152 0 0 104 -152 0 z m 0 0" style="fill:#f8f8f8;fill-opacity:1;stroke:none;fill-rule:nonzero"/>
 <path d="m 56 80 136 0 0 8 -136 0 z m 0 0" style="fill:#ccc;fill-opacity:1;stroke:none;fill-rule:nonzero"/>
 <path d="m 8 112 240 0 -17.14 112 -205.72 0 z m 0 0" style="fill:replacecolour1;fill-opacity:1;stroke:none;fill-rule:nonzero"/>
 <path d="m 56 96 136 0 0 8 -136 0 z m 0 0" style="fill:#ccc;fill-opacity:1;stroke:none;fill-rule:nonzero"/>
 <path d="m 232.12 183.18 c 0.375 18.648 -9.461 36.04 -25.734 45.48 -16.25 9.438 -36.39 9.438 -52.664 0 -16.273 -9.438 -26.1 -26.828 -25.711 -45.48 -0.391 -18.664 9.438 -36.06 25.711 -45.5 16.273 -9.438 36.414 -9.438 52.664 0 16.273 9.438 26.11 26.836 25.734 45.5 z m 0 0" style="fill:#859900;fill-opacity:1;stroke:none;fill-rule:evenodd"/>
 <path d="m 208.53 150.12 c -1.102 0.398 -2.039 1.148 -2.664 2.125 l -28.375 27.727 -17.711 -17.06 c -0.711 -2.352 -2.938 -3.938 -5.414 -3.813 -2.461 0.148 -4.5 1.961 -4.961 4.375 -0.438 2.438 0.852 4.859 3.125 5.836 l 21.336 21.336 c 2.039 1.914 5.203 1.914 7.25 0 l 32 -32 c 1.25 -1.648 1.414 -3.898 0.438 -5.734 -0.984 -1.828 -2.961 -2.914 -5.02 -2.789 z m 0 0" style="fill:#fff;fill-opacity:1;stroke:none;fill-rule:nonzero"/>
</svg>
