<?xml version="1.0" encoding="UTF-8" standalone="no"?>
<svg
   xmlns:dc="http://purl.org/dc/elements/1.1/"
   xmlns:cc="http://creativecommons.org/ns#"
   xmlns:rdf="http://www.w3.org/1999/02/22-rdf-syntax-ns#"
   xmlns:svg="http://www.w3.org/2000/svg"
   xmlns="http://www.w3.org/2000/svg"
   xmlns:sodipodi="http://sodipodi.sourceforge.net/DTD/sodipodi-0.dtd"
   xmlns:inkscape="http://www.inkscape.org/namespaces/inkscape"
   width="24"
   height="24"
   viewBox="0 0 24 24"
   id="svg3235"
   version="1.1"
   inkscape:version="0.48.4 r9939"
   sodipodi:docname="folder-templates.svg">
  <metadata
     id="metadata3249">
    <rdf:RDF>
      <cc:Work
         rdf:about="">
        <dc:format>image/svg+xml</dc:format>
        <dc:type
           rdf:resource="http://purl.org/dc/dcmitype/StillImage" />
      </cc:Work>
    </rdf:RDF>
  </metadata>
  <defs
     id="defs3247" />
  <sodipodi:namedview
     pagecolor="#ffffff"
     bordercolor="#666666"
     borderopacity="1"
     objecttolerance="10"
     gridtolerance="10"
     guidetolerance="10"
     inkscape:pageopacity="0"
     inkscape:pageshadow="2"
     inkscape:window-width="658"
     inkscape:window-height="480"
     id="namedview3245"
     showgrid="false"
     inkscape:zoom="9.8333333"
     inkscape:cx="28.983051"
     inkscape:cy="10.372882"
     inkscape:window-x="0"
     inkscape:window-y="0"
     inkscape:window-maximized="0"
     inkscape:current-layer="svg3235" />
  <path
     inkscape:connector-curvature="0"
     id="path3367-1"
     d="M 3.143606,19.497225 C 2.792548,19.463515 2.5,19.133907 2.5,18.781824 L 2.5,5.2154306 C 2.5,4.8408752 2.839356,4.5000301 3.213817,4.5000301 l 17.576268,0 c 0.37056,0 0.709915,0.3408451 0.709915,0.7154005 l 0,12.3078874 c 0,0.374556 -0.339355,0.715401 -0.709915,0.715401 l -6.86512,0 0,0.543105 c 0,0.374556 -0.339356,0.715401 -0.709916,0.715401 l -10.001232,0 c -0.0234,0.0037 -0.04681,0.0037 -0.07021,0 z"
     style="fill:#e9a439;fill-opacity:1;stroke:#e9a439;stroke-opacity:1" />
  <path
     inkscape:connector-curvature="0"
     id="path3369-5"
     d="M 1.278408,6.5000002 C 0.85529095,6.5340552 0.49604095,6.8632696 0.50003295,7.218971 l 0,13.565843 c 0,0.374622 0.411141,0.715186 0.86220005,0.715186 l 21.275568,0 C 23.08886,21.5 23.5,21.159436 23.5,20.784814 l 0,-12.3095362 C 23.5,8.100656 23.08886,7.7600909 22.637801,7.7600909 l -8.306651,0 0,-0.5411199 c 0,-0.3784057 -0.411142,-0.7189708 -0.8622,-0.7189708 l -12.106717,0 c -0.02794,0 -0.05588,0 -0.08383,0 z"
     style="fill:#f5c14e;fill-opacity:1;stroke:#e9a439;stroke-opacity:1" />
  <path
     style="fill:#d0a444;fill-opacity:1"
     d="M 8.5 10 C 8.5 10 8 10.019531 8 10.5 L 8 11.5 L 9 11.5 L 9 11 L 9.5 11 L 9.5 10 Z M 10 10 L 10 11 L 11 11 L 11 10 Z M 11.5 10 L 11.5 11 L 12.5 11 L 12.5 10 Z M 13 10 L 13 11 L 14 11 L 14 10 Z M 14.5 10 L 14.5 11 L 15 11 L 15 11.5 L 16 11.5 L 16 10.5 C 16 10 15.5 10 15.5 10 Z M 8 12 L 8 13 L 9 13 L 9 12 Z M 15 12 L 15 13 L 16 13 L 16 12 Z M 8 13.5 L 8 14.5 L 9 14.5 L 9 13.5 Z M 15 13.5 L 15 14.5 L 16 14.5 L 16 13.5 Z M 8 15 L 8 16 L 9 16 L 9 15 Z M 15 15 L 15 16 L 16 16 L 16 15 Z M 8 16.5 L 8 17.5 C 8 18 8.5 18 8.5 18 L 9.5 18 L 9.5 17 L 9 17 L 9 16.5 Z M 15 16.5 L 15 17 L 14.5 17 L 14.5 18 L 15.5 18 C 15.5 18 16 18 16 17.5 L 16 16.5 Z M 10 17 L 10 18 L 11 18 L 11 17 Z M 11.5 17 L 11.5 18 L 12.5 18 L 12.5 17 Z M 13 17 L 13 18 L 14 18 L 14 17 Z "
     id="path3243" />
</svg>
