<?xml version="1.0" encoding="UTF-8" standalone="no"?>
<svg
   xmlns:dc="http://purl.org/dc/elements/1.1/"
   xmlns:cc="http://creativecommons.org/ns#"
   xmlns:rdf="http://www.w3.org/1999/02/22-rdf-syntax-ns#"
   xmlns:svg="http://www.w3.org/2000/svg"
   xmlns="http://www.w3.org/2000/svg"
   xmlns:sodipodi="http://sodipodi.sourceforge.net/DTD/sodipodi-0.dtd"
   xmlns:inkscape="http://www.inkscape.org/namespaces/inkscape"
   width="24"
   height="24"
   viewBox="0 0 24 24"
   id="svg3123"
   version="1.1"
   inkscape:version="0.48.4 r9939"
   sodipodi:docname="folder-open.svg">
  <metadata
     id="metadata3135">
    <rdf:RDF>
      <cc:Work
         rdf:about="">
        <dc:format>image/svg+xml</dc:format>
        <dc:type
           rdf:resource="http://purl.org/dc/dcmitype/StillImage" />
      </cc:Work>
    </rdf:RDF>
  </metadata>
  <defs
     id="defs3133" />
  <sodipodi:namedview
     pagecolor="#ffffff"
     bordercolor="#666666"
     borderopacity="1"
     objecttolerance="10"
     gridtolerance="10"
     guidetolerance="10"
     inkscape:pageopacity="0"
     inkscape:pageshadow="2"
     inkscape:window-width="658"
     inkscape:window-height="480"
     id="namedview3131"
     showgrid="false"
     inkscape:zoom="9.8333333"
     inkscape:cx="15.966102"
     inkscape:cy="11.491525"
     inkscape:window-x="0"
     inkscape:window-y="0"
     inkscape:window-maximized="0"
     inkscape:current-layer="svg3123" />
  <path
     inkscape:connector-curvature="0"
     id="path3127"
     d="M 3.1435617,18.5 C 2.7940779,18.463473 2.5,18.134741 2.5,17.781655 L 2.5,4.2142856 C 2.5,3.8409088 2.84096,3.5 3.2117538,3.5 l 17.5764892,0 C 21.15904,3.5 21.5,3.8409088 21.5,4.2142856 l 0,12.3092524 c 0,0.373375 -0.34096,0.714286 -0.711757,0.714286 l -6.861819,0 0,0.543831 c 0,0.373376 -0.340961,0.718345 -0.711754,0.718345 l -10.0029163,0 c -0.021311,0 -0.042619,0 -0.068192,0 z"
     style="fill:#e9a439;stroke:#e9a439;stroke-opacity:1;fill-opacity:1" />
  <path
     inkscape:connector-curvature="0"
     id="path3129"
     d="M 1.2800302,9.5 C 0.8573321,9.529211 0.5,9.792089 0.5,10.074442 l 0,10.851116 C 0.5,21.227383 0.9096247,21.5 1.3628267,21.5 l 21.2743473,0 C 23.090375,21.5 23.5,21.227383 23.5,20.925558 l 0,-9.843407 c 0,-0.301827 -0.409625,-0.574444 -0.862826,-0.574444 l -8.305798,0 0,-0.433265 C 14.331376,9.7726162 13.917394,9.5 13.468549,9.5 l -12.1057223,0 c -0.026147,0 -0.05665,0 -0.082797,0 z"
     style="fill:#f5c14e;stroke:#e9a439;stroke-opacity:1;fill-opacity:1" />
</svg>
