<?xml version="1.0" encoding="UTF-8" standalone="no"?>
<svg
   xmlns:dc="http://purl.org/dc/elements/1.1/"
   xmlns:cc="http://creativecommons.org/ns#"
   xmlns:rdf="http://www.w3.org/1999/02/22-rdf-syntax-ns#"
   xmlns:svg="http://www.w3.org/2000/svg"
   xmlns="http://www.w3.org/2000/svg"
   xmlns:sodipodi="http://sodipodi.sourceforge.net/DTD/sodipodi-0.dtd"
   xmlns:inkscape="http://www.inkscape.org/namespaces/inkscape"
   width="24"
   height="24"
   viewBox="0 0 24 24"
   id="svg3203"
   version="1.1"
   inkscape:version="0.48.4 r9939"
   sodipodi:docname="folder-saved-search.svg">
  <metadata
     id="metadata3217">
    <rdf:RDF>
      <cc:Work
         rdf:about="">
        <dc:format>image/svg+xml</dc:format>
        <dc:type
           rdf:resource="http://purl.org/dc/dcmitype/StillImage" />
      </cc:Work>
    </rdf:RDF>
  </metadata>
  <defs
     id="defs3215" />
  <sodipodi:namedview
     pagecolor="#ffffff"
     bordercolor="#666666"
     borderopacity="1"
     objecttolerance="10"
     gridtolerance="10"
     guidetolerance="10"
     inkscape:pageopacity="0"
     inkscape:pageshadow="2"
     inkscape:window-width="658"
     inkscape:window-height="480"
     id="namedview3213"
     showgrid="false"
     inkscape:zoom="9.8333333"
     inkscape:cx="28.983051"
     inkscape:cy="10.372882"
     inkscape:window-x="0"
     inkscape:window-y="0"
     inkscape:window-maximized="0"
     inkscape:current-layer="svg3203" />
  <path
     inkscape:connector-curvature="0"
     id="path3367-1"
     d="M 3.143606,19.497225 C 2.792548,19.463515 2.5,19.133907 2.5,18.781824 L 2.5,5.2154303 C 2.5,4.8408749 2.839356,4.5000298 3.213817,4.5000298 l 17.576268,0 c 0.37056,0 0.709915,0.3408451 0.709915,0.7154005 l 0,12.3078877 c 0,0.374556 -0.339355,0.715401 -0.709915,0.715401 l -6.86512,0 0,0.543105 c 0,0.374556 -0.339356,0.715401 -0.709916,0.715401 l -10.001232,0 c -0.0234,0.0037 -0.04681,0.0037 -0.07021,0 z"
     style="fill:#e9a439;fill-opacity:1;stroke:#e9a439;stroke-opacity:1" />
  <path
     inkscape:connector-curvature="0"
     id="path3369-5"
     d="M 1.278408,6.4999999 C 0.85529095,6.5340549 0.49604095,6.8632693 0.50003295,7.2189707 l 0,13.5658433 c 0,0.374622 0.411141,0.715186 0.86220005,0.715186 l 21.275568,0 C 23.08886,21.5 23.5,21.159436 23.5,20.784814 l 0,-12.3095365 c 0,-0.3746218 -0.41114,-0.7151869 -0.862199,-0.7151869 l -8.306651,0 0,-0.5411199 c 0,-0.3784057 -0.411142,-0.7189708 -0.8622,-0.7189708 l -12.106717,0 c -0.02794,0 -0.05588,0 -0.08383,0 z"
     style="fill:#f5c14e;fill-opacity:1;stroke:#e9a439;stroke-opacity:1" />
  <path
     style="fill:#d0a444;fill-opacity:1"
     d="M 15.191406 10.808594 C 14.105469 9.726562 12.355469 9.730469 11.273438 10.816406 C 10.351562 11.738281 10.214844 13.140625 10.855469 14.203125 L 8.183594 16.875 C 7.933594 17.125 7.933594 17.523438 8.183594 17.773438 L 8.226562 17.8125 C 8.472656 18.0625 8.871094 18.0625 9.121094 17.8125 L 11.792969 15.140625 C 12.863281 15.785156 14.269531 15.652344 15.191406 14.734375 C 16.273438 13.648438 16.273438 11.890625 15.191406 10.808594 Z M 14.582031 11.417969 C 15.324219 12.164062 15.324219 13.378906 14.582031 14.121094 C 13.84375 14.859375 12.648438 14.859375 11.902344 14.136719 L 11.882812 14.117188 C 11.875 14.109375 11.867188 14.101562 11.863281 14.09375 C 11.136719 13.347656 11.144531 12.164062 11.882812 11.425781 C 12.625 10.679688 13.835938 10.671875 14.582031 11.417969 Z "
     id="path3211" />
</svg>
