<?xml version="1.0" encoding="UTF-8" standalone="no"?>
<svg
   xmlns:dc="http://purl.org/dc/elements/1.1/"
   xmlns:cc="http://creativecommons.org/ns#"
   xmlns:rdf="http://www.w3.org/1999/02/22-rdf-syntax-ns#"
   xmlns:svg="http://www.w3.org/2000/svg"
   xmlns="http://www.w3.org/2000/svg"
   xmlns:sodipodi="http://sodipodi.sourceforge.net/DTD/sodipodi-0.dtd"
   xmlns:inkscape="http://www.inkscape.org/namespaces/inkscape"
   width="24"
   height="24"
   viewBox="0 0 24 24"
   id="svg3023"
   version="1.1"
   inkscape:version="0.48.5 r10040"
   sodipodi:docname="folder-recent.svg">
  <metadata
     id="metadata3037">
    <rdf:RDF>
      <cc:Work
         rdf:about="">
        <dc:format>image/svg+xml</dc:format>
        <dc:type
           rdf:resource="http://purl.org/dc/dcmitype/StillImage" />
      </cc:Work>
    </rdf:RDF>
  </metadata>
  <defs
     id="defs3035" />
  <sodipodi:namedview
     pagecolor="#ffffff"
     bordercolor="#666666"
     borderopacity="1"
     objecttolerance="10"
     gridtolerance="10"
     guidetolerance="10"
     inkscape:pageopacity="0"
     inkscape:pageshadow="2"
     inkscape:window-width="1280"
     inkscape:window-height="969"
     id="namedview3033"
     showgrid="true"
     inkscape:zoom="21.454545"
     inkscape:cx="6.7642554"
     inkscape:cy="9.0590328"
     inkscape:window-x="0"
     inkscape:window-y="0"
     inkscape:window-maximized="1"
     inkscape:current-layer="svg3023">
    <inkscape:grid
       type="xygrid"
       id="grid3160"
       empspacing="5"
       visible="true"
       enabled="true"
       snapvisiblegridlinesonly="true" />
  </sodipodi:namedview>
  <path
     style="font-size:medium;font-style:normal;font-variant:normal;font-weight:normal;font-stretch:normal;text-indent:0;text-align:start;text-decoration:none;line-height:normal;letter-spacing:normal;word-spacing:normal;text-transform:none;direction:ltr;block-progression:tb;writing-mode:lr-tb;text-anchor:start;baseline-shift:baseline;color:#000000;fill:#e9b080;fill-opacity:1;fill-rule:nonzero;stroke:none;stroke-width:1.03313816;marker:none;visibility:visible;display:inline;overflow:visible;enable-background:accumulate;font-family:Sans;-inkscape-font-specification:Sans"
     d="m 4.0000115,2.9999998 c -0.5473306,0 -1,0.4096882 -1,1 l 0,1 -1,0 c -0.5019272,0 -0.9999999,0.3847489 -0.9999999,1 -1.534e-5,4.5937492 0,9.4062502 0,14.0000002 0,0.545771 0.4934173,1 0.9999999,1 l 20.0000005,0 c 0.515688,0 1,-0.437034 1,-1 l 0,-13.0000002 c 0,-0.5770209 -0.423105,-1 -1,-1 l -2,0 0,-2 c 0,-0.4874255 -0.401824,-1 -1,-1 z"
     id="path2995"
     inkscape:connector-curvature="0"
     sodipodi:nodetypes="ccccccssssscssc" />
  <path
     style="fill:#000000;fill-opacity:0.32156863"
     d="m 8.792969,10.167969 0,2.289062 2.289062,0 -0.785156,-0.785156 c 0.46875,-0.371094 1.0625,-0.589844 1.703125,-0.589844 1.519531,0 2.75,1.234375 2.75,2.75 0,1.519531 -1.230469,2.75 -2.75,2.75 -1.519531,0 -2.75,-1.230469 -2.75,-2.75 0,-0.320312 0.054688,-0.628906 0.15625,-0.914062 l -0.957031,0 C 8.371094,13.207031 8.332031,13.519531 8.332031,13.832031 8.332031,15.859375 9.976562,17.5 12,17.5 c 2.023438,0 3.667969,-1.640625 3.667969,-3.667969 0,-2.023437 -1.644531,-3.664062 -3.667969,-3.664062 -0.898438,0 -1.726562,0.308593 -2.363281,0.84375 z m 3.164062,1.359375 c -0.01953,0.0039 -0.03906,0.0078 -0.05859,0.01563 C 11.6875,11.589844 11.535156,11.78125 11.542969,12 l 0,1.691406 c -0.0039,0.01172 -0.0039,0.02734 0,0.04297 -0.02734,0.117187 -0.0078,0.238281 0.05469,0.34375 0.0078,0.0039 0.01172,0.0078 0.01563,0.01172 0.0039,0.01172 0.0078,0.01953 0.01563,0.03125 0.0039,0.0039 0.0078,0.0078 0.01172,0.01172 0.0078,0.0078 0.01172,0.01172 0.01563,0.01563 0.0039,0.0039 0.0078,0.0078 0.01563,0.01562 0.0039,0.0039 0.0078,0.0078 0.01172,0.01172 0.01172,0.0078 0.01953,0.01172 0.03125,0.01563 0.0039,0.0039 0.0078,0.0078 0.01172,0.01563 0.0078,0.0039 0.01172,0.0078 0.01563,0.01172 0.0078,0.0078 0.01953,0.01172 0.02734,0.01563 0.01953,0.01172 0.03906,0.01953 0.05859,0.02734 l 1.132813,0.660156 c 0.21875,0.125 0.503906,0.05078 0.628906,-0.171875 0.125,-0.222656 0.05078,-0.503906 -0.171875,-0.628906 l -0.960938,-0.558594 0,-1.5625 c 0.0078,-0.132812 -0.04687,-0.257812 -0.140625,-0.351562 -0.09766,-0.08984 -0.226562,-0.132813 -0.359375,-0.121094 z"
     id="path3031"
     inkscape:connector-curvature="0" />
  <path
     style="font-size:medium;font-style:normal;font-variant:normal;font-weight:normal;font-stretch:normal;text-indent:0;text-align:start;text-decoration:none;line-height:normal;letter-spacing:normal;word-spacing:normal;text-transform:none;direction:ltr;block-progression:tb;writing-mode:lr-tb;text-anchor:start;baseline-shift:baseline;color:#000000;fill:#000000;fill-opacity:0.32156863;fill-rule:nonzero;stroke:none;stroke-width:1.03313816;marker:none;visibility:visible;display:inline;overflow:visible;enable-background:accumulate;font-family:Sans;-inkscape-font-specification:Sans"
     d="m 4.0000115,2.9999998 c -0.5444543,0 -1,0.3988699 -1,1 l 0,1 -1,0 c -0.5067594,0 -0.9999999,0.3964676 -0.9999999,1 -2.604e-5,4.5937492 0,9.4062502 0,14.0000002 0,0.487177 0.4191985,1 0.9999999,1 l 20.0000005,0 c 0.521212,0 1,-0.442558 1,-1 l 0,-13.0000002 c 0,-0.5731146 -0.393904,-1 -1,-1 l -2,0 0,-2 c 0,-0.5585119 -0.457433,-1 -1,-1 z m 10.0000005,3 0,1 8,0 0,13.0000002 -20.0000005,0 0,-14.0000002 z"
     id="path3786"
     inkscape:connector-curvature="0"
     sodipodi:nodetypes="ssccccssssscsssccccccc" />
</svg>
