<?xml version="1.0" encoding="UTF-8" standalone="no"?>
<svg
   xmlns:dc="http://purl.org/dc/elements/1.1/"
   xmlns:cc="http://creativecommons.org/ns#"
   xmlns:rdf="http://www.w3.org/1999/02/22-rdf-syntax-ns#"
   xmlns:svg="http://www.w3.org/2000/svg"
   xmlns="http://www.w3.org/2000/svg"
   xmlns:sodipodi="http://sodipodi.sourceforge.net/DTD/sodipodi-0.dtd"
   xmlns:inkscape="http://www.inkscape.org/namespaces/inkscape"
   width="24"
   height="24"
   viewBox="0 0 24 24"
   id="svg3107"
   version="1.1"
   inkscape:version="0.48.4 r9939"
   sodipodi:docname="folder-music.svg">
  <metadata
     id="metadata3121">
    <rdf:RDF>
      <cc:Work
         rdf:about="">
        <dc:format>image/svg+xml</dc:format>
        <dc:type
           rdf:resource="http://purl.org/dc/dcmitype/StillImage" />
      </cc:Work>
    </rdf:RDF>
  </metadata>
  <defs
     id="defs3119" />
  <sodipodi:namedview
     pagecolor="#ffffff"
     bordercolor="#666666"
     borderopacity="1"
     objecttolerance="10"
     gridtolerance="10"
     guidetolerance="10"
     inkscape:pageopacity="0"
     inkscape:pageshadow="2"
     inkscape:window-width="658"
     inkscape:window-height="480"
     id="namedview3117"
     showgrid="false"
     inkscape:zoom="9.8333333"
     inkscape:cx="17.288136"
     inkscape:cy="11.389831"
     inkscape:window-x="0"
     inkscape:window-y="0"
     inkscape:window-maximized="0"
     inkscape:current-layer="svg3107" />
  <path
     inkscape:connector-curvature="0"
     id="path3367-1"
     d="m 3.1436061,19.497225 c -0.351058,-0.03371 -0.643606,-0.363318 -0.643606,-0.715401 l 0,-13.5663936 c 0,-0.3745554 0.339356,-0.7154005 0.713817,-0.7154005 l 17.5762679,0 c 0.37056,0 0.709915,0.3408451 0.709915,0.7154005 l 0,12.3078876 c 0,0.374556 -0.339355,0.715401 -0.709915,0.715401 l -6.86512,0 0,0.543105 c 0,0.374556 -0.339356,0.715401 -0.709916,0.715401 l -10.0012319,0 c -0.0234,0.0037 -0.04681,0.0037 -0.07021,0 z"
     style="fill:#e9a439;fill-opacity:1;stroke:#e9a439;stroke-opacity:1" />
  <path
     inkscape:connector-curvature="0"
     id="path3369-5"
     d="M 1.2784081,6.5 C 0.85529095,6.534055 0.49604095,6.8632694 0.50003295,7.2189708 l 0,13.5658432 c 0,0.374622 0.411141,0.715186 0.86220015,0.715186 l 21.2755679,0 C 23.08886,21.5 23.5,21.159436 23.5,20.784814 l 0,-12.3095364 c 0,-0.3746218 -0.41114,-0.7151869 -0.862199,-0.7151869 l -8.306651,0 0,-0.5411199 C 14.33115,6.8405651 13.920008,6.5 13.46895,6.5 l -12.1067169,0 c -0.02794,0 -0.05588,0 -0.08383,0 z"
     style="fill:#f5c14e;fill-opacity:1;stroke:#e9a439;stroke-opacity:1" />
  <path
     style="fill:#d0a444;fill-opacity:1"
     d="M 12.601562 10.089844 C 12.019531 10.238281 11.53125 10.769531 11.53125 10.769531 L 11.542969 10.789062 L 12.476562 14.253906 C 11.808594 13.894531 10.859375 13.984375 10.070312 14.554688 C 9.050781 15.289062 8.695312 16.546875 9.285156 17.355469 C 9.875 18.164062 11.175781 18.21875 12.195312 17.484375 C 13 16.902344 13.445312 15.988281 13.285156 15.234375 C 13.28125 15.210938 13.273438 15.191406 13.265625 15.167969 L 12.371094 11.703125 C 12.390625 11.671875 12.652344 11.550781 13.5 11.496094 C 14.394531 11.433594 15 10 15 10 C 15 10 13.992188 10.386719 13.203125 10.105469 C 13.003906 10.035156 12.792969 10.039062 12.601562 10.089844 Z "
     id="path3115" />
</svg>
