<?xml version="1.0" encoding="UTF-8" standalone="no"?>
<svg
   xmlns:dc="http://purl.org/dc/elements/1.1/"
   xmlns:cc="http://creativecommons.org/ns#"
   xmlns:rdf="http://www.w3.org/1999/02/22-rdf-syntax-ns#"
   xmlns:svg="http://www.w3.org/2000/svg"
   xmlns="http://www.w3.org/2000/svg"
   xmlns:sodipodi="http://sodipodi.sourceforge.net/DTD/sodipodi-0.dtd"
   xmlns:inkscape="http://www.inkscape.org/namespaces/inkscape"
   width="24"
   height="24"
   viewBox="0 0 24 24"
   id="svg2"
   version="1.1"
   inkscape:version="0.48.5 r10040"
   sodipodi:docname="network-server.svg">
  <metadata
     id="metadata22">
    <rdf:RDF>
      <cc:Work
         rdf:about="">
        <dc:format>image/svg+xml</dc:format>
        <dc:type
           rdf:resource="http://purl.org/dc/dcmitype/StillImage" />
      </cc:Work>
    </rdf:RDF>
  </metadata>
  <defs
     id="defs20" />
  <sodipodi:namedview
     pagecolor="#ffffff"
     bordercolor="#666666"
     borderopacity="1"
     objecttolerance="10"
     gridtolerance="10"
     guidetolerance="10"
     inkscape:pageopacity="0"
     inkscape:pageshadow="2"
     inkscape:window-width="1280"
     inkscape:window-height="969"
     id="namedview18"
     showgrid="true"
     inkscape:zoom="22.627417"
     inkscape:cx="17.713175"
     inkscape:cy="8.5690238"
     inkscape:window-x="0"
     inkscape:window-y="0"
     inkscape:window-maximized="1"
     inkscape:current-layer="svg2">
    <inkscape:grid
       type="xygrid"
       id="grid2999"
       empspacing="5"
       visible="true"
       enabled="true"
       snapvisiblegridlinesonly="true" />
  </sodipodi:namedview>
  <rect
     style="fill:#777777;fill-opacity:1;fill-rule:evenodd;stroke:none"
     id="rect3785"
     width="4"
     height="3"
     x="10.000011"
     y="16" />
  <rect
     style="fill:#dcdcdc;fill-opacity:1;fill-rule:evenodd;stroke:none"
     id="rect3787"
     width="2"
     height="3"
     x="11.000011"
     y="16" />
  <rect
     style="fill:#777777;fill-opacity:1;fill-rule:evenodd;stroke:none"
     id="rect3781"
     width="18"
     height="3"
     x="3.0000114"
     y="19"
     rx="1"
     ry="1" />
  <rect
     style="fill:#dcdcdc;fill-opacity:1;fill-rule:evenodd;stroke:none"
     id="rect3783"
     width="16"
     height="1"
     x="4.0000114"
     y="20" />
  <path
     style="font-size:medium;font-style:normal;font-variant:normal;font-weight:normal;font-stretch:normal;text-indent:0;text-align:start;text-decoration:none;line-height:normal;letter-spacing:normal;word-spacing:normal;text-transform:none;direction:ltr;block-progression:tb;writing-mode:lr-tb;text-anchor:start;baseline-shift:baseline;color:#000000;fill:#777777;fill-opacity:1;fill-rule:nonzero;stroke:none;stroke-width:1;marker:none;visibility:visible;display:inline;overflow:visible;enable-background:accumulate;font-family:Sans;-inkscape-font-specification:Sans"
     d="m 8.8437615,18 c -0.5178467,0 -0.84375,0.45627 -0.84375,0.90625 l 0,3.1875 c 0,0.44998 0.3259033,0.90625 0.84375,0.90625 l 6.3125005,0 c 0.517847,0 0.84375,-0.45627 0.84375,-0.90625 l 0,-3.1875 C 16.000012,18.45627 15.674109,18 15.156262,18 l -6.3125005,0 z m 0.15625,1 6.0000005,0 0,3 -6.0000005,0 0,-3 z"
     id="path3006"
     inkscape:connector-curvature="0" />
  <path
     style="fill:#dcdcdc;stroke:none"
     d="m 9.0000115,19 0,3 6.0000005,0 0,-3 -6.0000005,0 z"
     id="path10"
     inkscape:connector-curvature="0" />
  <path
     style="font-size:medium;font-style:normal;font-variant:normal;font-weight:normal;font-stretch:normal;text-indent:0;text-align:start;text-decoration:none;line-height:normal;letter-spacing:normal;word-spacing:normal;text-transform:none;direction:ltr;block-progression:tb;writing-mode:lr-tb;text-anchor:start;baseline-shift:baseline;color:#000000;fill:#e9b080;fill-opacity:1;fill-rule:nonzero;stroke:none;stroke-width:1.03313816;marker:none;visibility:visible;display:inline;overflow:visible;enable-background:accumulate;font-family:Sans;-inkscape-font-specification:Sans"
     d="m 5.0000115,3 c -0.5473306,0 -1,0.4096882 -1,1 l 0,1 -1,0 c -0.5019272,0 -1,0.3847489 -1,1 -1.52e-5,4.593749 0,5.40625 0,10 0,0.545771 0.4934174,1 1,1 l 18.0000005,0 c 0.515688,0 1,-0.437034 1,-1 l 0,-9 c 0,-0.5770209 -0.423105,-1 -1,-1 l -2,0 0,-2 c 0,-0.4874255 -0.401824,-1 -1,-1 z"
     id="path2995"
     inkscape:connector-curvature="0"
     sodipodi:nodetypes="ccccccssssscssc" />
  <path
     style="font-size:medium;font-style:normal;font-variant:normal;font-weight:normal;font-stretch:normal;text-indent:0;text-align:start;text-decoration:none;line-height:normal;letter-spacing:normal;word-spacing:normal;text-transform:none;direction:ltr;block-progression:tb;writing-mode:lr-tb;text-anchor:start;baseline-shift:baseline;color:#000000;fill:#000000;fill-opacity:0.32156863;fill-rule:nonzero;stroke:none;stroke-width:1.03313816;marker:none;visibility:visible;display:inline;overflow:visible;enable-background:accumulate;font-family:Sans;-inkscape-font-specification:Sans"
     d="m 5.0000115,3 c -0.5444543,0 -0.9999996,0.3988699 -1,1 l 0,1 -1,0 c -0.5067594,0 -1,0.3964676 -1,1 -2.59e-5,4.593749 0,5.40625 0,10 0,0.487177 0.4191986,1 1,1 l 18.0000005,0 c 0.521212,0 1,-0.442558 1,-1 l 0,-9 c 0,-0.5731146 -0.395745,-1.0472074 -1,-1 l -2,0 0,-2 c 0,-0.5585119 -0.457433,-1 -1,-1 z m 9.0000005,3 0,1 7,0 0,9 -18.0000005,0 0,-10 z"
     id="path3786"
     inkscape:connector-curvature="0"
     sodipodi:nodetypes="ssccccssssscsssccccccc" />
</svg>
