<?xml version="1.0" encoding="UTF-8" standalone="no"?>
<!-- Created with Inkscape (http://www.inkscape.org/) -->

<svg
   xmlns:dc="http://purl.org/dc/elements/1.1/"
   xmlns:cc="http://creativecommons.org/ns#"
   xmlns:rdf="http://www.w3.org/1999/02/22-rdf-syntax-ns#"
   xmlns:svg="http://www.w3.org/2000/svg"
   xmlns="http://www.w3.org/2000/svg"
   xmlns:sodipodi="http://sodipodi.sourceforge.net/DTD/sodipodi-0.dtd"
   xmlns:inkscape="http://www.inkscape.org/namespaces/inkscape"
   id="svg3396"
   height="96"
   width="96"
   version="1.0"
   inkscape:version="0.91 r"
   sodipodi:docname="blue-folder-open.svg">
  <metadata
     id="metadata64">
    <rdf:RDF>
      <cc:Work
         rdf:about="">
        <dc:format>image/svg+xml</dc:format>
        <dc:type
           rdf:resource="http://purl.org/dc/dcmitype/StillImage" />
        <dc:title />
      </cc:Work>
    </rdf:RDF>
  </metadata>
  <sodipodi:namedview
     pagecolor="#ffffff"
     bordercolor="#666666"
     borderopacity="1"
     objecttolerance="10"
     gridtolerance="10"
     guidetolerance="10"
     inkscape:pageopacity="0"
     inkscape:pageshadow="2"
     inkscape:window-width="1280"
     inkscape:window-height="998"
     id="namedview62"
     showgrid="true"
     inkscape:zoom="8"
     inkscape:cx="51.728709"
     inkscape:cy="44.552362"
     inkscape:window-x="0"
     inkscape:window-y="0"
     inkscape:window-maximized="1"
     inkscape:current-layer="svg3396">
    <inkscape:grid
       type="xygrid"
       id="grid3906"
       empspacing="5"
       visible="true"
       enabled="true"
       snapvisiblegridlinesonly="true" />
  </sodipodi:namedview>
  <defs
     id="defs3398" />
  <path
     inkscape:connector-curvature="0"
     style="font-size:medium;font-style:normal;font-variant:normal;font-weight:normal;font-stretch:normal;text-indent:0;text-align:start;text-decoration:none;line-height:normal;letter-spacing:normal;word-spacing:normal;text-transform:none;direction:ltr;block-progression:tb;writing-mode:lr-tb;text-anchor:start;baseline-shift:baseline;opacity:0.4;color:#000000;fill:#42a5f5;fill-opacity:1;stroke:none;stroke-width:3.00000024;marker:none;visibility:visible;display:inline;overflow:visible;enable-background:accumulate;font-family:Sans;-inkscape-font-specification:Sans"
     d="M 10.375614,16.000491 C 9.0228881,16.288402 7.970471,17.61777 8.0006324,19.000467 l 0,55.999557 C 8.0007896,76.570765 9.4298677,77.999842 11.000609,78 l 73.999415,0 C 86.570765,77.999842 87.999842,76.570765 88,75.000024 L 88,25.062918 C 87.999842,23.492177 86.570741,22.000158 85,22 l -29,0 2.53e-4,-2.999533 c -1.58e-4,-1.570741 -1.429235,-2.999819 -2.999977,-2.999976 l -41.999667,0 c -0.207575,-0.02174 -0.41742,-0.02174 -0.624995,0 z"
     id="path3912-0"
     sodipodi:nodetypes="ccccccccccccc" />
  <path
     style="font-size:medium;font-style:normal;font-variant:normal;font-weight:normal;font-stretch:normal;text-indent:0;text-align:start;text-decoration:none;line-height:normal;letter-spacing:normal;word-spacing:normal;text-transform:none;direction:ltr;block-progression:tb;writing-mode:lr-tb;text-anchor:start;baseline-shift:baseline;color:#000000;fill:#42a5f5;fill-opacity:1;stroke:none;stroke-width:3.00000024;marker:none;visibility:visible;display:inline;overflow:visible;enable-background:accumulate;font-family:Sans;-inkscape-font-specification:Sans"
     d="m 12.0006,40.0003 c -3.9999676,0 -3.9999676,3.999969 -3.9999676,3.999969 l 0,3.187474 0,27.812281 A 3.0002765,3.0002765 0 0 0 11.000609,78 l 73.999415,0 A 3.0002765,3.0002765 0 0 0 88,75.000024 l 0,-20.999834 0,-3.999969 c 0,-3.999968 -3.999968,-3.999968 -3.999968,-3.999968 l -1.999985,0 -3.999968,0 -5.999953,0 -15.999873,0 0,-1.999984 c 0,-3.999969 -3.999969,-3.999969 -3.999969,-3.999969 l -35.999715,0 -1.999984,0 -1.999985,0 z"
     id="path3912"
     inkscape:connector-curvature="0" />
</svg>
