<?xml version="1.0" encoding="UTF-8" standalone="no"?>
<svg
   xmlns:dc="http://purl.org/dc/elements/1.1/"
   xmlns:cc="http://creativecommons.org/ns#"
   xmlns:rdf="http://www.w3.org/1999/02/22-rdf-syntax-ns#"
   xmlns:svg="http://www.w3.org/2000/svg"
   xmlns="http://www.w3.org/2000/svg"
   xmlns:sodipodi="http://sodipodi.sourceforge.net/DTD/sodipodi-0.dtd"
   xmlns:inkscape="http://www.inkscape.org/namespaces/inkscape"
   width="96"
   viewBox="0 0 96 96"
   height="96"
   id="svg2"
   version="1.1"
   inkscape:version="0.91 r"
   sodipodi:docname="default-folder-google-drive.svg">
  <metadata
     id="metadata20">
    <rdf:RDF>
      <cc:Work
         rdf:about="">
        <dc:format>image/svg+xml</dc:format>
        <dc:type
           rdf:resource="http://purl.org/dc/dcmitype/StillImage" />
      </cc:Work>
    </rdf:RDF>
  </metadata>
  <defs
     id="defs18" />
  <sodipodi:namedview
     pagecolor="#ffffff"
     bordercolor="#666666"
     borderopacity="1"
     objecttolerance="10"
     gridtolerance="10"
     guidetolerance="10"
     inkscape:pageopacity="0"
     inkscape:pageshadow="2"
     inkscape:window-width="1280"
     inkscape:window-height="998"
     id="namedview16"
     showgrid="true"
     inkscape:zoom="8"
     inkscape:cx="58.090437"
     inkscape:cy="47.389247"
     inkscape:window-x="0"
     inkscape:window-y="0"
     inkscape:window-maximized="1"
     inkscape:current-layer="svg2">
    <inkscape:grid
       type="xygrid"
       id="grid3104"
       empspacing="5"
       visible="true"
       enabled="true"
       snapvisiblegridlinesonly="true" />
  </sodipodi:namedview>
  <path
     style="font-size:medium;font-style:normal;font-variant:normal;font-weight:normal;font-stretch:normal;text-indent:0;text-align:start;text-decoration:none;line-height:normal;letter-spacing:normal;word-spacing:normal;text-transform:none;direction:ltr;block-progression:tb;writing-mode:lr-tb;text-anchor:start;baseline-shift:baseline;color:#000000;fill:#c4905e;fill-opacity:1;fill-rule:nonzero;stroke:none;stroke-width:3.00000024;marker:none;visibility:visible;display:inline;overflow:visible;enable-background:accumulate;font-family:Sans;-inkscape-font-specification:Sans"
     d="m 10.375614,16.00049 c -1.3527259,0.287798 -2.405143,1.617187 -2.3749816,2.999976 l 0,55.999558 C 8.0007896,76.570611 9.4298677,77.9998 11.000609,78 l 73.999415,0 C 86.570765,77.9998 87.999842,76.570611 88,75.000024 l 0,-49.937106 c -1.58e-4,-1.570787 -1.429235,-2.999776 -2.999976,-2.999976 l -28.999771,0 0,-3.062476 C 56.000095,17.429678 54.571018,16.00049 53.000276,16.00049 l -41.999667,0 c -0.207575,-0.022 -0.41742,-0.022 -0.624995,0 z m 32.124745,17.999858 11.749908,0 11.749907,19.999842 -11.749907,0 -11.749908,-19.999842 z m -1.937484,1.18749 5.999952,10.062421 -12.249903,19.499846 -6.31245,-9.812423 12.562401,-19.749844 z m 1.812485,20.812336 23.624814,0 -5.999953,9.999921 -23.99981,0 6.374949,-9.999921 z"
     id="path3912"
     inkscape:connector-curvature="0" />
</svg>
