<?xml version="1.0" encoding="UTF-8" standalone="no"?>
<!-- Created with Inkscape (http://www.inkscape.org/) -->

<svg
   xmlns:dc="http://purl.org/dc/elements/1.1/"
   xmlns:cc="http://creativecommons.org/ns#"
   xmlns:rdf="http://www.w3.org/1999/02/22-rdf-syntax-ns#"
   xmlns:svg="http://www.w3.org/2000/svg"
   xmlns="http://www.w3.org/2000/svg"
   xmlns:sodipodi="http://sodipodi.sourceforge.net/DTD/sodipodi-0.dtd"
   xmlns:inkscape="http://www.inkscape.org/namespaces/inkscape"
   width="96"
   height="96"
   id="svg2"
   version="1.1"
   inkscape:version="0.91 r"
   sodipodi:docname="default-folder-recent.svg">
  <defs
     id="defs4" />
  <sodipodi:namedview
     id="base"
     pagecolor="#ffffff"
     bordercolor="#666666"
     borderopacity="1.0"
     inkscape:pageopacity="0.0"
     inkscape:pageshadow="2"
     inkscape:zoom="12.464726"
     inkscape:cx="47.421315"
     inkscape:cy="43.342201"
     inkscape:document-units="px"
     inkscape:current-layer="layer1"
     showgrid="true"
     inkscape:window-width="1280"
     inkscape:window-height="998"
     inkscape:window-x="0"
     inkscape:window-y="0"
     inkscape:window-maximized="1">
    <inkscape:grid
       type="xygrid"
       id="grid2990"
       empspacing="5"
       visible="true"
       enabled="true"
       snapvisiblegridlinesonly="true" />
  </sodipodi:namedview>
  <metadata
     id="metadata7">
    <rdf:RDF>
      <cc:Work
         rdf:about="">
        <dc:format>image/svg+xml</dc:format>
        <dc:type
           rdf:resource="http://purl.org/dc/dcmitype/StillImage" />
        <dc:title />
      </cc:Work>
    </rdf:RDF>
  </metadata>
  <g
     inkscape:label="Body"
     inkscape:groupmode="layer"
     id="layer1"
     transform="translate(0,-956.3622)">
    <path
       style="font-size:medium;font-style:normal;font-variant:normal;font-weight:normal;font-stretch:normal;text-indent:0;text-align:start;text-decoration:none;line-height:normal;letter-spacing:normal;word-spacing:normal;text-transform:none;direction:ltr;block-progression:tb;writing-mode:lr-tb;text-anchor:start;baseline-shift:baseline;color:#000000;fill:#c4905e;fill-opacity:1;fill-rule:nonzero;stroke:none;stroke-width:3.00000024;marker:none;visibility:visible;display:inline;overflow:visible;enable-background:accumulate;font-family:Sans;-inkscape-font-specification:Sans"
       d="m 10.375614,972.36269 c -1.3527259,0.2878 -2.405143,1.61719 -2.3749816,2.99998 l 0,55.99953 c 1.572e-4,1.5706 1.4292353,2.9998 2.9999766,3 l 73.999415,0 c 1.570741,-2e-4 2.999818,-1.4294 2.999976,-3 l 0,-49.93698 c -1.58e-4,-1.57079 -1.429235,-2.99998 -2.999976,-2.99998 l -28.999771,0 0,-3.06257 c -1.58e-4,-1.57079 -1.429235,-2.99998 -2.999977,-2.99998 l -41.999667,0 c -0.207575,-0.022 -0.41742,-0.022 -0.624995,0 z m 23.624813,17.99986 3.68747,3.68757 c 2.780089,-2.33358 6.398708,-3.68757 10.312419,-3.68757 8.836486,0 15.999874,7.16334 15.999874,15.99985 0,8.8366 -7.163388,15.9999 -15.999874,15.9999 -8.836484,0 -15.999874,-7.1633 -15.999874,-15.9999 0,-1.3776 0.172579,-2.7246 0.499996,-3.9999 l 4.187467,0 c -0.441528,1.2501 -0.687494,2.5985 -0.687494,3.9999 0,6.6274 5.372541,11.9999 11.999905,11.9999 6.627364,0 11.999905,-5.3725 11.999905,-11.9999 0,-6.62733 -5.372541,-11.99988 -11.999905,-11.99988 -2.80147,0 -5.392179,0.95679 -7.437441,2.56258 l 3.437473,3.4374 -9.999921,0 0,-9.99995 z m 13.81239,5.93755 a 2.0001842,2.0001842 0 0 1 2.187483,2.06238 l 0,6.81252 4.187467,2.4374 a 2.0155605,2.0155605 0 0 1 -1.999984,3.5 l -4.937461,-2.875 a 2.0001842,2.0001842 0 0 1 -0.249998,-0.124 2.0001842,2.0001842 0 0 1 -0.124999,-0.062 2.0001842,2.0001842 0 0 1 -0.0625,-0.062 2.0001842,2.0001842 0 0 1 -0.0625,-0.062 2.0001842,2.0001842 0 0 1 -0.124999,-0.062 2.0001842,2.0001842 0 0 1 -0.0625,-0.062 2.0001842,2.0001842 0 0 1 -0.0625,-0.062 2.0001842,2.0001842 0 0 1 -0.0625,-0.062 2.0001842,2.0001842 0 0 1 -0.0625,-0.062 2.0001842,2.0001842 0 0 1 -0.0625,-0.124 2.0001842,2.0001842 0 0 1 -0.0625,-0.062 2.0001842,2.0001842 0 0 1 -0.249998,-1.5 2.0001842,2.0001842 0 0 1 0,-0.188 l 0,-7.37492 a 2.0001842,2.0001842 0 0 1 1.562487,-1.99998 2.0001842,2.0001842 0 0 1 0.249998,-0.062 z"
       id="path3912"
       inkscape:connector-curvature="0" />
  </g>
</svg>
