<?xml version="1.0" encoding="UTF-8" standalone="no"?>
<!-- Created with Inkscape (http://www.inkscape.org/) -->

<svg
   xmlns:dc="http://purl.org/dc/elements/1.1/"
   xmlns:cc="http://creativecommons.org/ns#"
   xmlns:rdf="http://www.w3.org/1999/02/22-rdf-syntax-ns#"
   xmlns:svg="http://www.w3.org/2000/svg"
   xmlns="http://www.w3.org/2000/svg"
   xmlns:xlink="http://www.w3.org/1999/xlink"
   xmlns:sodipodi="http://sodipodi.sourceforge.net/DTD/sodipodi-0.dtd"
   xmlns:inkscape="http://www.inkscape.org/namespaces/inkscape"
   width="96"
   height="96"
   id="svg2"
   version="1.1"
   inkscape:version="0.48.5 r10040"
   sodipodi:docname="network.svg">
  <defs
     id="defs4">
    <linearGradient
       id="linearGradient3855">
      <stop
         style="stop-color:#000000;stop-opacity:1;"
         offset="0"
         id="stop3857" />
      <stop
         style="stop-color:#000000;stop-opacity:0.29411766;"
         offset="1"
         id="stop3859" />
    </linearGradient>
    <linearGradient
       id="linearGradient3833">
      <stop
         id="stop3835"
         offset="0"
         style="stop-color:#fdfeff;stop-opacity:1;" />
      <stop
         id="stop3837"
         offset="1"
         style="stop-color:#dfe4e4;stop-opacity:1;" />
    </linearGradient>
    <linearGradient
       id="linearGradient3823">
      <stop
         style="stop-color:#49b7ef;stop-opacity:1;"
         offset="0"
         id="stop3825" />
      <stop
         style="stop-color:#1d8de2;stop-opacity:1;"
         offset="1"
         id="stop3827" />
    </linearGradient>
    <linearGradient
       id="linearGradient3956">
      <stop
         style="stop-color:#f8f4e1;stop-opacity:1;"
         offset="0"
         id="stop3958" />
      <stop
         style="stop-color:#eae5c8;stop-opacity:1;"
         offset="1"
         id="stop3960" />
    </linearGradient>
    <linearGradient
       id="linearGradient3915">
      <stop
         style="stop-color:#f8f4e1;stop-opacity:1;"
         offset="0"
         id="stop3917" />
      <stop
         style="stop-color:#ad9e57;stop-opacity:1;"
         offset="1"
         id="stop3919" />
    </linearGradient>
    <linearGradient
       inkscape:collect="always"
       id="linearGradient3861">
      <stop
         style="stop-color:#000000;stop-opacity:1;"
         offset="0"
         id="stop3863" />
      <stop
         style="stop-color:#000000;stop-opacity:0;"
         offset="1"
         id="stop3865" />
    </linearGradient>
    <linearGradient
       id="linearGradient3844">
      <stop
         style="stop-color:#000000;stop-opacity:0.39215687;"
         offset="0"
         id="stop3846" />
      <stop
         style="stop-color:#000000;stop-opacity:0;"
         offset="1"
         id="stop3848" />
    </linearGradient>
    <linearGradient
       id="linearGradient3810">
      <stop
         style="stop-color:#f2c66f;stop-opacity:1;"
         offset="0"
         id="stop3812" />
      <stop
         style="stop-color:#fbd68f;stop-opacity:1;"
         offset="1"
         id="stop3814" />
    </linearGradient>
    <linearGradient
       inkscape:collect="always"
       xlink:href="#linearGradient3810"
       id="linearGradient3816"
       x1="24"
       y1="1046.3622"
       x2="24"
       y2="1014.3622"
       gradientUnits="userSpaceOnUse" />
    <radialGradient
       inkscape:collect="always"
       xlink:href="#linearGradient3844"
       id="radialGradient3850"
       cx="24.075672"
       cy="41.38316"
       fx="24.075672"
       fy="41.38316"
       r="21.075672"
       gradientTransform="matrix(1,0,0,0.11307633,0,36.703704)"
       gradientUnits="userSpaceOnUse" />
    <linearGradient
       inkscape:collect="always"
       xlink:href="#linearGradient3810"
       id="linearGradient3856"
       gradientUnits="userSpaceOnUse"
       x1="24"
       y1="1046.3622"
       x2="24"
       y2="1014.3622"
       gradientTransform="translate(0,-3)" />
    <linearGradient
       inkscape:collect="always"
       xlink:href="#linearGradient3810"
       id="linearGradient3858"
       gradientUnits="userSpaceOnUse"
       x1="24"
       y1="1046.3622"
       x2="24"
       y2="1014.3622"
       gradientTransform="translate(0,-1004.3622)" />
    <linearGradient
       inkscape:collect="always"
       xlink:href="#linearGradient3861"
       id="linearGradient3867"
       x1="1.9952807"
       y1="28.5625"
       x2="46.004719"
       y2="28.5625"
       gradientUnits="userSpaceOnUse" />
    <linearGradient
       inkscape:collect="always"
       xlink:href="#linearGradient3915"
       id="linearGradient3921"
       x1="35"
       y1="8"
       x2="38"
       y2="5"
       gradientUnits="userSpaceOnUse" />
    <linearGradient
       inkscape:collect="always"
       xlink:href="#linearGradient3915"
       id="linearGradient3933"
       gradientUnits="userSpaceOnUse"
       x1="35"
       y1="8"
       x2="38"
       y2="5"
       gradientTransform="matrix(1.0436562,0,0,1.2222222,26.301501,1003.2511)" />
    <linearGradient
       inkscape:collect="always"
       xlink:href="#linearGradient3915"
       id="linearGradient3954"
       x1="35"
       y1="11"
       x2="44"
       y2="5"
       gradientUnits="userSpaceOnUse"
       gradientTransform="translate(22,1004.3622)" />
    <linearGradient
       inkscape:collect="always"
       xlink:href="#linearGradient3823"
       id="linearGradient3829"
       x1="21"
       y1="14"
       x2="20"
       y2="24"
       gradientUnits="userSpaceOnUse" />
    <linearGradient
       inkscape:collect="always"
       xlink:href="#linearGradient3833"
       id="linearGradient3839"
       gradientUnits="userSpaceOnUse"
       x1="21"
       y1="14"
       x2="20"
       y2="26" />
    <linearGradient
       inkscape:collect="always"
       xlink:href="#linearGradient3855"
       id="linearGradient3862"
       x1="22"
       y1="15"
       x2="20"
       y2="30"
       gradientUnits="userSpaceOnUse" />
  </defs>
  <sodipodi:namedview
     id="base"
     pagecolor="#ffffff"
     bordercolor="#666666"
     borderopacity="1.0"
     inkscape:pageopacity="0.0"
     inkscape:pageshadow="2"
     inkscape:zoom="4.4069459"
     inkscape:cx="62.976901"
     inkscape:cy="41.719095"
     inkscape:document-units="px"
     inkscape:current-layer="layer1"
     showgrid="true"
     inkscape:window-width="1280"
     inkscape:window-height="998"
     inkscape:window-x="0"
     inkscape:window-y="0"
     inkscape:window-maximized="1">
    <inkscape:grid
       type="xygrid"
       id="grid2990"
       empspacing="5"
       visible="true"
       enabled="true"
       snapvisiblegridlinesonly="true" />
  </sodipodi:namedview>
  <metadata
     id="metadata7">
    <rdf:RDF>
      <cc:Work
         rdf:about="">
        <dc:format>image/svg+xml</dc:format>
        <dc:type
           rdf:resource="http://purl.org/dc/dcmitype/StillImage" />
        <dc:title />
      </cc:Work>
    </rdf:RDF>
  </metadata>
  <g
     inkscape:label="Body"
     inkscape:groupmode="layer"
     id="layer1"
     transform="translate(0,-956.3622)">
    <path
       style="font-size:medium;font-style:normal;font-variant:normal;font-weight:normal;font-stretch:normal;text-indent:0;text-align:start;text-decoration:none;line-height:normal;letter-spacing:normal;word-spacing:normal;text-transform:none;direction:ltr;block-progression:tb;writing-mode:lr-tb;text-anchor:start;baseline-shift:baseline;color:#000000;fill:#7e57c2;fill-opacity:1;fill-rule:nonzero;stroke:none;stroke-width:3.00000024;marker:none;visibility:visible;display:inline;overflow:visible;enable-background:accumulate;font-family:Sans;-inkscape-font-specification:Sans"
       d="m 10.375614,972.36269 c -1.3527257,0.2878 -2.4051434,1.61719 -2.3749816,2.99998 l 0,55.99953 c 1.58e-4,1.5706 1.4292347,2.9998 2.9999766,3 l 73.999415,0 c 1.570741,-2e-4 2.999818,-1.4294 2.999976,-3 l 0,-49.93698 c -1.58e-4,-1.57079 -1.429259,-3.06302 -3,-3.06302 l -29,0 2.53e-4,-2.99953 c -1.58e-4,-1.57079 -1.429235,-2.99998 -2.999977,-2.99998 l -41.999667,0 c -0.207575,-0.022 -0.417421,-0.022 -0.624995,0 z m 35.624718,17.99986 1.999984,0 c 8.82391,0 15.999874,7.17614 15.999874,15.99985 0,8.8236 -7.17655,15.9999 -17.999858,15.9999 -6.824488,0 -13.99989,-7.1763 -13.99989,-15.9999 0,-8.82371 7.175392,-15.99985 13.99989,-15.99985 z m 3.312474,2.24998 c -0.009,0.07 0.008,0.048 0,0.124 -0.142859,1.35719 -0.901773,0.481 -1.187491,0.62499 -0.285712,0.144 -2.187483,2.78578 -2.187483,2.49998 0,-0.28579 0.374997,-0.68739 0.374997,-0.68739 0,0 0.10228,-1.20679 -0.124999,-2.49998 -0.621167,0.08 -1.2199,0.152 -1.812485,0.3124 l -1.874986,3.06257 c 0.159699,0.024 0.35625,0.07 0.562496,0.188 0.999994,0.5716 1.401771,1.11759 1.687487,1.18759 0.285715,0.072 1.553563,-1.74078 0.624995,0.188 -0.928565,1.92879 -1.366057,2.57121 -2.437481,3.00001 -0.06696,0.02 -0.121319,0.03 -0.187499,0.062 -0.273769,0.3282 -0.662006,0.6504 -1.124991,1.0624 -1.010142,0.9008 -1.499988,1.0377 -1.499988,1.9375 0,0.9002 0.0196,1.6122 -0.687494,2.8124 -0.707097,1.2 -1.178041,1.1622 -0.874993,2.0626 0.303051,0.9 0.505074,2.5124 0,1.8124 -0.505076,-0.6998 -0.283434,-2.1116 -0.687495,-1.3124 -0.353551,0.7004 -1.186431,0.9682 -1.24999,1.6874 -0.009,0.098 -0.02536,0.186 0,0.3126 0.005,0.02 -0.0068,0.03 0,0.062 0.259274,0.8656 1.749986,-0.3082 1.749986,0.375 0,0.6996 -1.303042,0.6498 -0.999992,1.25 0.303044,0.5996 1.489838,-1.1738 2.49998,-0.875 1.010134,0.3 0.340859,0.4748 1.24999,0.875 0.909127,0.4002 1.437489,0.8376 1.437489,1.4376 0,0.6002 2.865529,0.312 2.56248,1.3123 -0.303042,1 -0.590858,0.7752 -1.499988,1.875 -0.500828,0.6062 -0.956219,0.9578 -1.249991,1.25 0.411825,0.3014 0.517856,0.4726 0.999993,0.3126 0.642838,-0.214 -0.187499,-0.527 0.312497,-0.8126 0.124999,-0.072 0.176339,-0.126 0.249998,-0.188 0.07366,-0.06 0.160719,-0.142 0.312498,-0.188 0.303571,-0.09 0.919632,-0.124 2.312481,-0.124 2.785688,0 4.124968,0.124 4.124968,0.124 0,0 0.919641,-10e-4 0.0625,0.5 -0.626367,0.3648 -1.902645,1.0136 -2.062483,1.1876 0.06276,0 0.214278,-0.02 0.374997,-0.062 1.285703,-0.3574 3.062475,-0.6684 3.562471,-0.8124 0.211857,-0.06 1.334322,-0.6468 2.249983,-1.0626 0.03734,-0.086 0.02486,-0.164 0.0625,-0.25 l -0.0625,0 c -0.707103,-0.3026 -1.264536,-1.6584 -1.062492,-2.0623 0.202026,-0.404 0.682415,-0.7398 1.187491,-1.75 0.505074,-1.0106 0.41421,-0.307 -0.999992,-2.125 -1.414201,-1.8186 -2.167873,0.106 -2.874978,-0.5 -0.7071,-0.6062 -2.143893,-1.1388 -2.749978,-2.25 -0.606097,-1.1116 -0.312497,-0.2876 -0.312497,-1.5 0,-1.214 -0.11556,-0.3016 0.187498,-1.3126 0.303042,-1.0094 1.114837,-1.105 2.124983,-1.8124 0.138899,-0.1 0.296278,-0.118 0.437497,-0.188 -0.22632,-0.215 -0.556558,-0.6814 -1.187491,-1.3123 0,0 0.619917,-1.2976 1.124991,-1.5 0.490216,-0.194 0.773746,-0.128 1.437489,0.062 0.02818,-0.108 0.0317,-0.128 0.0625,-0.375 0.101,-0.80803 -0.312497,-0.3702 -0.312497,-0.87503 0,-0.50519 0.230394,0.02 0.937492,-0.18799 0.707107,-0.202 0.730387,-1.57739 1.437489,-1.37499 0.707101,0.20219 0.706403,-0.2786 1.31249,-1.18759 0.606089,-0.9106 -0.0044,-0.4084 -0.812494,-0.8124 -0.808115,-0.4042 -0.110459,0.6058 -0.312497,1.31239 -0.202027,0.707 -0.792888,0.265 -1.499989,-1.24999 -0.707094,-1.51519 -0.09156,-0.91319 0.312498,-2.12498 0.07072,-0.2128 0.148879,-0.3114 0.249998,-0.4374 -1.313678,-0.57159 -2.758628,-0.92459 -4.249966,-1.06259 z m 2.687478,5.37496 c 0.30778,0.048 0.535976,0.38599 0.687495,0.68759 0.0808,0.164 0.03124,0.212 -0.0625,0.25 0,0 0.124999,0.3374 0.124999,0.4374 0,0.1 -0.207678,0.064 -0.687494,-0.062 -0.359843,-0.094 -0.118859,-0.132 0.124999,-0.3126 l -0.437497,0 c -0.176778,0 -0.269917,-0.03 -0.312497,-0.062 0.02688,0.022 0.0188,0.02 0.0625,0.062 0.05682,0.07 0.059,0.104 0.0625,0.124 -0.07488,0 -0.273348,-0.038 -0.437497,0 -0.328281,0.076 0.036,-0.158 0.187499,-0.4374 0,0 0.08744,0.062 0.124999,0.124 0.06312,-0.138 0.187498,-0.3964 0.187498,-0.74999 0.126259,-0.052 0.272418,-0.094 0.374997,-0.062 z m 7.62494,0.87499 c -0.504888,0.3746 -1.156139,1.21842 -1.687487,1.75002 -0.909128,0.9078 0.494919,1.023 0.999993,1.125 0.505074,0.102 0.989836,-0.25 1.999984,-0.25 -0.0178,-0.048 -0.0439,-0.078 -0.0625,-0.124 -0.136679,0.02 -0.271898,0.062 -0.437496,0.062 -0.592308,0 -0.201579,-0.5682 -0.0625,-1.375 -0.21084,-0.41303 -0.500162,-0.79942 -0.749994,-1.18762 z m -6.24995,1.87502 c -0.212953,-0.064 -0.552356,0.154 -0.937493,0.375 0.27345,0.3988 -0.558054,1.5166 -0.999992,2.3125 -0.0178,0.02 -0.0461,0.03 -0.0625,0.062 0.866275,-0.144 2.228149,0.058 5.249959,0.8126 0,0 1.110449,-0.2786 1.312489,0.124 0.07178,0.14 0.475187,0.218 0.937493,0.25 1.22106,-0.4812 0.562496,-0.9012 0.562496,-1.875 0,-1.0099 -1.514534,0.13 -1.31249,-0.3749 0.202032,-0.505 -0.23039,-0.4806 -0.937493,-1.1876 -0.707102,-0.7072 -0.557421,1.7545 -1.062491,1.25 -0.505078,-0.5002 -0.547952,-0.096 -0.749994,-0.5 -0.202027,-0.4042 -0.874993,-1.0624 -0.874993,-1.0624 0,0 0.476016,0.5518 0.374997,1.5624 -0.10102,1.0095 -1.499988,0.124 -1.499988,0.124 0,0 0.220934,-0.088 0.624995,-0.188 0.404056,-0.102 -0.07194,-0.7302 -0.374997,-1.4376 -0.07574,-0.172 -0.156899,-0.22 -0.249998,-0.25 z m 8.499932,4.9999 c -0.112259,0.082 -0.298577,0.198 -0.437496,0.25 -1.111161,0.4042 -1.874985,1.25 -1.874985,1.25 0,0 1.278668,0 2.187482,0.8126 0.06592,-0.5504 0.124999,-1.119 0.124999,-1.6876 0,-0.2052 0.009,-0.4228 0,-0.625 z"
       id="path3912"
       inkscape:connector-curvature="0"
       sodipodi:nodetypes="cccccccsccsccsssssscscsccccccscccscccccccsccsscccccccscccccccccccccscccccccscccccccccccccsccscccccccccccsccsccccccccccscccccccccccccccsc" />
  </g>
</svg>
