<?xml version="1.0" encoding="UTF-8" standalone="no"?>
<!-- Created with Inkscape (http://www.inkscape.org/) -->

<svg
   xmlns:dc="http://purl.org/dc/elements/1.1/"
   xmlns:cc="http://creativecommons.org/ns#"
   xmlns:rdf="http://www.w3.org/1999/02/22-rdf-syntax-ns#"
   xmlns:svg="http://www.w3.org/2000/svg"
   xmlns="http://www.w3.org/2000/svg"
   xmlns:xlink="http://www.w3.org/1999/xlink"
   xmlns:sodipodi="http://sodipodi.sourceforge.net/DTD/sodipodi-0.dtd"
   xmlns:inkscape="http://www.inkscape.org/namespaces/inkscape"
   width="32"
   height="32"
   id="svg2"
   version="1.1"
   inkscape:version="0.48.5 r10040"
   sodipodi:docname="folder-publicshare.svg">
  <defs
     id="defs4">
    <linearGradient
       id="linearGradient3855">
      <stop
         style="stop-color:#000000;stop-opacity:1;"
         offset="0"
         id="stop3857" />
      <stop
         style="stop-color:#000000;stop-opacity:0.29411766;"
         offset="1"
         id="stop3859" />
    </linearGradient>
    <linearGradient
       id="linearGradient3833">
      <stop
         id="stop3835"
         offset="0"
         style="stop-color:#fdfeff;stop-opacity:1;" />
      <stop
         id="stop3837"
         offset="1"
         style="stop-color:#dfe4e4;stop-opacity:1;" />
    </linearGradient>
    <linearGradient
       id="linearGradient3823">
      <stop
         style="stop-color:#49b7ef;stop-opacity:1;"
         offset="0"
         id="stop3825" />
      <stop
         style="stop-color:#1d8de2;stop-opacity:1;"
         offset="1"
         id="stop3827" />
    </linearGradient>
    <linearGradient
       id="linearGradient3956">
      <stop
         style="stop-color:#f8f4e1;stop-opacity:1;"
         offset="0"
         id="stop3958" />
      <stop
         style="stop-color:#eae5c8;stop-opacity:1;"
         offset="1"
         id="stop3960" />
    </linearGradient>
    <linearGradient
       id="linearGradient3915">
      <stop
         style="stop-color:#f8f4e1;stop-opacity:1;"
         offset="0"
         id="stop3917" />
      <stop
         style="stop-color:#ad9e57;stop-opacity:1;"
         offset="1"
         id="stop3919" />
    </linearGradient>
    <linearGradient
       inkscape:collect="always"
       id="linearGradient3861">
      <stop
         style="stop-color:#000000;stop-opacity:1;"
         offset="0"
         id="stop3863" />
      <stop
         style="stop-color:#000000;stop-opacity:0;"
         offset="1"
         id="stop3865" />
    </linearGradient>
    <linearGradient
       id="linearGradient3844">
      <stop
         style="stop-color:#000000;stop-opacity:0.39215687;"
         offset="0"
         id="stop3846" />
      <stop
         style="stop-color:#000000;stop-opacity:0;"
         offset="1"
         id="stop3848" />
    </linearGradient>
    <linearGradient
       id="linearGradient3810">
      <stop
         style="stop-color:#f2c66f;stop-opacity:1;"
         offset="0"
         id="stop3812" />
      <stop
         style="stop-color:#fbd68f;stop-opacity:1;"
         offset="1"
         id="stop3814" />
    </linearGradient>
    <linearGradient
       inkscape:collect="always"
       xlink:href="#linearGradient3810"
       id="linearGradient3816"
       x1="24"
       y1="1046.3622"
       x2="24"
       y2="1014.3622"
       gradientUnits="userSpaceOnUse" />
    <radialGradient
       inkscape:collect="always"
       xlink:href="#linearGradient3844"
       id="radialGradient3850"
       cx="24.075672"
       cy="41.38316"
       fx="24.075672"
       fy="41.38316"
       r="21.075672"
       gradientTransform="matrix(1,0,0,0.11307633,0,36.703704)"
       gradientUnits="userSpaceOnUse" />
    <linearGradient
       inkscape:collect="always"
       xlink:href="#linearGradient3810"
       id="linearGradient3856"
       gradientUnits="userSpaceOnUse"
       x1="24"
       y1="1046.3622"
       x2="24"
       y2="1014.3622"
       gradientTransform="translate(0,-3)" />
    <linearGradient
       inkscape:collect="always"
       xlink:href="#linearGradient3810"
       id="linearGradient3858"
       gradientUnits="userSpaceOnUse"
       x1="24"
       y1="1046.3622"
       x2="24"
       y2="1014.3622"
       gradientTransform="translate(0,-1004.3622)" />
    <linearGradient
       inkscape:collect="always"
       xlink:href="#linearGradient3861"
       id="linearGradient3867"
       x1="1.9952807"
       y1="28.5625"
       x2="46.004719"
       y2="28.5625"
       gradientUnits="userSpaceOnUse" />
    <linearGradient
       inkscape:collect="always"
       xlink:href="#linearGradient3915"
       id="linearGradient3921"
       x1="35"
       y1="8"
       x2="38"
       y2="5"
       gradientUnits="userSpaceOnUse" />
    <linearGradient
       inkscape:collect="always"
       xlink:href="#linearGradient3915"
       id="linearGradient3933"
       gradientUnits="userSpaceOnUse"
       x1="35"
       y1="8"
       x2="38"
       y2="5"
       gradientTransform="matrix(1.0436562,0,0,1.2222222,26.301501,1003.2511)" />
    <linearGradient
       inkscape:collect="always"
       xlink:href="#linearGradient3915"
       id="linearGradient3954"
       x1="35"
       y1="11"
       x2="44"
       y2="5"
       gradientUnits="userSpaceOnUse"
       gradientTransform="translate(22,1004.3622)" />
    <linearGradient
       inkscape:collect="always"
       xlink:href="#linearGradient3823"
       id="linearGradient3829"
       x1="21"
       y1="14"
       x2="20"
       y2="24"
       gradientUnits="userSpaceOnUse" />
    <linearGradient
       inkscape:collect="always"
       xlink:href="#linearGradient3833"
       id="linearGradient3839"
       gradientUnits="userSpaceOnUse"
       x1="21"
       y1="14"
       x2="20"
       y2="26" />
    <linearGradient
       inkscape:collect="always"
       xlink:href="#linearGradient3855"
       id="linearGradient3862"
       x1="22"
       y1="15"
       x2="20"
       y2="30"
       gradientUnits="userSpaceOnUse" />
    <radialGradient
       r="24"
       fy="40.5"
       fx="24"
       cy="40.5"
       cx="24"
       gradientTransform="matrix(1.25,0,0,0.20833327,-6,1035.9247)"
       gradientUnits="userSpaceOnUse"
       id="radialGradient3102"
       xlink:href="#linearGradient3886"
       inkscape:collect="always" />
    <linearGradient
       id="linearGradient3886">
      <stop
         style="stop-color:#000000;stop-opacity:1;"
         offset="0"
         id="stop3888" />
      <stop
         style="stop-color:#000000;stop-opacity:0.19607843;"
         offset="1"
         id="stop3890" />
    </linearGradient>
    <radialGradient
       inkscape:collect="always"
       xlink:href="#linearGradient3886-9"
       id="radialGradient3011"
       gradientUnits="userSpaceOnUse"
       gradientTransform="matrix(0.83333334,0,0,0.13888885,-4,1041.4039)"
       cx="24"
       cy="40.5"
       fx="24"
       fy="40.5"
       r="24" />
    <linearGradient
       id="linearGradient3886-9">
      <stop
         style="stop-color:#000000;stop-opacity:1;"
         offset="0"
         id="stop3888-3" />
      <stop
         style="stop-color:#000000;stop-opacity:0.19607843;"
         offset="1"
         id="stop3890-7" />
    </linearGradient>
    <radialGradient
       r="24"
       fy="40.5"
       fx="24"
       cy="40.5"
       cx="24"
       gradientTransform="matrix(0.83333334,0,0,0.13888885,-4,1041.4039)"
       gradientUnits="userSpaceOnUse"
       id="radialGradient3098"
       xlink:href="#linearGradient3886-9"
       inkscape:collect="always" />
  </defs>
  <sodipodi:namedview
     id="base"
     pagecolor="#ffffff"
     bordercolor="#666666"
     borderopacity="1.0"
     inkscape:pageopacity="0.0"
     inkscape:pageshadow="2"
     inkscape:zoom="17.627783"
     inkscape:cx="18.122392"
     inkscape:cy="18.804864"
     inkscape:document-units="px"
     inkscape:current-layer="layer1"
     showgrid="true"
     inkscape:window-width="1280"
     inkscape:window-height="998"
     inkscape:window-x="0"
     inkscape:window-y="0"
     inkscape:window-maximized="1">
    <inkscape:grid
       type="xygrid"
       id="grid2990"
       empspacing="5"
       visible="true"
       enabled="true"
       snapvisiblegridlinesonly="true" />
  </sodipodi:namedview>
  <metadata
     id="metadata7">
    <rdf:RDF>
      <cc:Work
         rdf:about="">
        <dc:format>image/svg+xml</dc:format>
        <dc:type
           rdf:resource="http://purl.org/dc/dcmitype/StillImage" />
        <dc:title />
      </cc:Work>
    </rdf:RDF>
  </metadata>
  <g
     inkscape:label="Body"
     inkscape:groupmode="layer"
     id="layer1"
     transform="translate(0,-1020.3622)">
    <path
       inkscape:connector-curvature="0"
       style="opacity:0.1;fill:url(#radialGradient3098);fill-opacity:1;stroke:none"
       d="m 16,1043.6955 c -6.5510326,0 -12.3519802,0.5221 -16,1.3334 l 0,4 c 3.6480198,0.8112 9.4489674,1.3333 16,1.3333 6.551033,0 12.35198,-0.5221 16,-1.3333 l 0,-4 c -3.64802,-0.8113 -9.448967,-1.3334 -16,-1.3334 z"
       id="path3868" />
    <rect
       style="fill:#f57c00;fill-opacity:1;stroke:none"
       id="rect2987"
       width="30"
       height="20.999954"
       x="1"
       y="1027.3622"
       rx="3.2608695"
       ry="3.2812409" />
    <path
       style="opacity:0.2;fill:#ffffff;fill-opacity:1;stroke:none"
       d="M 4.2608696,1027.0289 C 2.4543478,1027.0289 1,1028.5155 1,1030.3622 l 0,1.3333 c 0,-1.8466 1.4543478,-3.3333 3.2608696,-3.3333 l 23.4782604,0 c 1.806522,0 3.26087,1.4867 3.26087,3.3333 l 0,-1.3333 c 0,-1.8467 -1.454348,-3.3333 -3.26087,-3.3333 l -23.4782604,0 z"
       id="rect3797"
       inkscape:connector-curvature="0" />
    <path
       style="fill:#ffb300;fill-opacity:1;stroke:none"
       d="m 4.2608696,1032.3622 5.2173913,0 c 7.1739131,-0.6667 5.8695651,-8 10.4347821,-8 l 7.826087,0 c 1.806522,0 3.26087,1.4867 3.26087,3.3333 l 0,17.3334 c 0,1.8466 -1.454348,3.3333 -3.26087,3.3333 l -23.4782604,0 C 2.4543478,1048.3622 1,1046.8755 1,1045.0289 l 0,-9.3334 c 0,-2 1.3043478,-3.3333 3.2608696,-3.3333 z"
       id="rect3776"
       inkscape:connector-curvature="0"
       sodipodi:nodetypes="cccsssssscc" />
    <path
       style="fill:#fff8e1;fill-opacity:1"
       d="m 38.125,1027.3622 c -0.62325,0 -1.125,0.5018 -1.125,1.125 l 0,6.75 c 0,0.6233 0.50175,1.125 1.125,1.125 l 6.75,0 c 0.623249,0 1.125,-0.5017 1.125,-1.125 l 0,-6.75 c 0,-0.6232 -0.501751,-1.125 -1.125,-1.125 l -6.75,0 z m -0.125,1 1,0 0,1 -1,0 0,-1 z m 6,0 1,0 0,1 -1,0 0,-1 z m -6,2 1,0 0,1 -1,0 0,-1 z m 6,0 1,0 0,1 -1,0 0,-1 z m -6,2 1,0 0,1 -1,0 0,-1 z m 6,0 1,0 0,1 -1,0 0,-1 z m -6,2 1,0 0,1 -1,0 0,-1 z m 6,0 1,0 0,1 -1,0 0,-1 z"
       id="rect3007"
       inkscape:connector-curvature="0" />
    <path
       style="opacity:0.15;fill:#000000;fill-opacity:1;stroke:none"
       d="m 1,1043.6955 0,1.3334 c 0,1.8466 1.4543478,3.3333 3.2608696,3.3333 l 23.4782604,0 c 1.806522,0 3.26087,-1.4867 3.26087,-3.3333 l 0,-1.3334 c 0,1.8467 -1.454348,3.6667 -3.26087,3.6667 l -23.4782604,0 C 2.4543478,1047.3622 1,1045.5422 1,1043.6955 z"
       id="path3786"
       inkscape:connector-curvature="0"
       sodipodi:nodetypes="csssscssc" />
    <path
       inkscape:connector-curvature="0"
       style="line-height:normal;color:#000000;fill:#000000;fill-opacity:0.09803922"
       d="m 10.334183,1036.3889 c -0.9962262,0 -1.818145,0.7554 -1.818145,1.7007 0.00736,0.3244 0.025388,0.7353 0.2150494,1.6031 l 0.019548,0 c 0.038267,0.1148 0.097076,0.229 0.1954992,0.352 0.088091,0.1101 0.2048928,0.2354 0.3127996,0.3519 0.033155,0.2453 0.038289,0.4596 0,0.7233 -0.2958158,0.2247 -0.8292551,0.4342 -1.3098471,0.6256 -0.2504576,0.1 -0.4820013,0.1919 -0.6646982,0.3128 -0.1743011,0.1153 -0.3005909,0.2723 -0.312799,0.4692 -5.883e-4,0.01 -0.019592,0.01 -0.019548,0.02 l -0.2150491,1.6618 0,0.02 c 0,0.206 0.1372206,0.3745 0.3323489,0.5083 0.1951297,0.1339 0.4599807,0.2389 0.781998,0.3324 0.6440355,0.1869 1.5176671,0.2932 2.4828433,0.2932 0.965178,0 1.838808,-0.1063 2.482844,-0.2932 0.322018,-0.093 0.58687,-0.1985 0.781998,-0.3324 0.195128,-0.1338 0.332349,-0.3023 0.332349,-0.5083 l 0,-0.02 -0.2346,-1.6618 c -3.5e-5,-0.01 3.95e-4,-0.013 0,-0.02 -0.0058,-0.094 -0.03976,-0.1865 -0.09775,-0.2542 -0.06191,-0.072 -0.143595,-0.1191 -0.2346,-0.1759 -0.18201,-0.1137 -0.414155,-0.2096 -0.664698,-0.3128 -0.486604,-0.2005 -1.01908,-0.4271 -1.309846,-0.6647 -0.02182,-0.2268 -0.02286,-0.4576 0,-0.6843 0.104965,-0.1241 0.22303,-0.2521 0.312798,-0.3714 0.09996,-0.1328 0.175621,-0.2532 0.21505,-0.3715 0.213854,-0.9036 0.223344,-1.2724 0.234599,-1.6031 0,-0.9453 -0.821917,-1.7007 -1.818145,-1.7007 z m -3.3821411,0.3127 c -0.8182648,0 -1.4857958,0.6319 -1.4857958,1.4076 0.00601,0.2658 0.02032,0.5782 0.1759496,1.2903 l 0,0.02 c 0.031705,0.095 0.093962,0.1714 0.1759495,0.2737 0.071779,0.089 0.1673813,0.1995 0.2541493,0.2933 0.026257,0.1966 0.029654,0.3952 0,0.606 -0.2416792,0.1854 -0.6794617,0.3518 -1.0752471,0.5083 -0.205165,0.081 -0.3781173,0.1555 -0.5278486,0.2542 -0.1415041,0.093 -0.2421948,0.2318 -0.2541494,0.391 -6.881e-4,0.01 -0.019594,0.01 -0.01955,0.02 L 4,1043.1137 l 0,0.02 c 0,0.1269 0.060683,0.2366 0.1563996,0.3324 0.095714,0.096 0.2285805,0.1835 0.390999,0.2541 0.320342,0.1393 0.7769343,0.2362 1.3293965,0.2933 l 0.01955,0 c 0.030029,0 0.059926,-0.01 0.0782,-0.02 0.022628,-0.014 0.049015,-0.025 0.05865,-0.039 0.019275,-0.027 0.030798,-0.054 0.0391,-0.078 0.014564,-0.043 0.017536,-0.093 0.01955,-0.1368 2.821e-4,-0.01 0,-0.013 0,-0.02 l 0.2150494,-1.6616 c -3.016e-4,-0.068 0.046782,-0.1497 0.1563996,-0.2347 0.1096167,-0.085 0.2755742,-0.1703 0.4691985,-0.2542 0.3872487,-0.1678 0.8781659,-0.3236 1.2707467,-0.5277 l 0.2150494,-0.1173 -0.2150494,-0.098 c -0.1551326,-0.075 -0.2737916,-0.158 -0.3714488,-0.2346 -0.018959,-0.193 -0.020115,-0.3941 0,-0.5865 6.879e-4,-0.01 -6.887e-4,-0.013 0,-0.02 0.1490726,-0.2008 0.2625056,-0.4092 0.3127989,-0.5279 l 0.019548,-0.039 -0.019548,-0.038 c -0.016974,-0.097 -0.011352,-0.1708 -0.039103,-0.2541 -0.1873993,-0.8575 -0.2079319,-1.2111 -0.2150501,-1.5249 0,-0.1319 0.030951,-0.2855 0.0782,-0.4301 l 0.039103,-0.078 -0.078199,-0.038 c -0.2610679,-0.2087 -0.6066621,-0.3519 -0.9774979,-0.3519 z"
       id="path3837" />
    <path
       id="path4054"
       d="m 10.334183,1035.3879 c -0.9962262,0 -1.818145,0.7555 -1.818145,1.7008 0.00736,0.3243 0.025388,0.7352 0.2150494,1.6031 l 0.019548,0 c 0.038267,0.1148 0.097076,0.2289 0.1954992,0.3519 0.088091,0.1101 0.2048928,0.2355 0.3127996,0.3519 0.033155,0.2453 0.038289,0.4597 0,0.7234 -0.2958158,0.2246 -0.8292551,0.4342 -1.3098471,0.6256 -0.2504576,0.1 -0.4820013,0.1919 -0.6646982,0.3128 -0.1743011,0.1153 -0.3005909,0.2722 -0.312799,0.4692 -5.883e-4,0.01 -0.019592,0.01 -0.019548,0.02 l -0.2150491,1.6617 0,0.02 c 0,0.2059 0.1372206,0.3744 0.3323489,0.5083 0.1951297,0.1339 0.4599807,0.2389 0.781998,0.3323 0.6440355,0.1869 1.5176671,0.2933 2.4828433,0.2933 0.965178,0 1.838808,-0.1064 2.482844,-0.2933 0.322018,-0.093 0.58687,-0.1984 0.781998,-0.3323 0.195128,-0.1339 0.332349,-0.3024 0.332349,-0.5083 l 0,-0.02 -0.2346,-1.6617 c -3.5e-5,-0.01 3.95e-4,-0.013 0,-0.02 -0.0058,-0.094 -0.03976,-0.1866 -0.09775,-0.2542 -0.06191,-0.072 -0.143595,-0.1191 -0.2346,-0.1759 -0.18201,-0.1137 -0.414155,-0.2096 -0.664698,-0.3128 -0.486604,-0.2005 -1.01908,-0.4272 -1.309846,-0.6647 -0.02182,-0.2268 -0.02286,-0.4576 0,-0.6843 0.104965,-0.1242 0.22303,-0.2522 0.312798,-0.3714 0.09996,-0.1328 0.175621,-0.2532 0.21505,-0.3715 0.213854,-0.9036 0.223344,-1.2724 0.234599,-1.6031 0,-0.9453 -0.821917,-1.7008 -1.818145,-1.7008 z m -3.3821411,0.3128 c -0.8182648,0 -1.4857958,0.6318 -1.4857958,1.4076 0.00601,0.2658 0.02032,0.5782 0.1759496,1.2903 l 0,0.02 c 0.031705,0.095 0.093962,0.1715 0.1759495,0.2738 0.071779,0.089 0.1673813,0.1995 0.2541493,0.2933 0.026257,0.1965 0.029654,0.3951 0,0.606 -0.2416792,0.1854 -0.6794617,0.3518 -1.0752471,0.5083 -0.205165,0.081 -0.3781173,0.1555 -0.5278486,0.2542 -0.1415041,0.093 -0.2421948,0.2317 -0.2541494,0.3909 -6.881e-4,0.01 -0.019594,0.01 -0.01955,0.02 L 4,1042.1128 l 0,0.02 c 0,0.127 0.060683,0.2367 0.1563996,0.3324 0.095714,0.096 0.2285805,0.1835 0.390999,0.2541 0.320342,0.1394 0.7769343,0.2363 1.3293965,0.2933 l 0.01955,0 c 0.030029,10e-5 0.059926,-0.01 0.0782,-0.02 0.022628,-0.014 0.049015,-0.025 0.05865,-0.039 0.019275,-0.027 0.030798,-0.054 0.0391,-0.078 0.014564,-0.043 0.017536,-0.093 0.01955,-0.1368 2.821e-4,-0.01 0,-0.013 0,-0.02 l 0.2150494,-1.6617 c -3.016e-4,-0.068 0.046782,-0.1496 0.1563996,-0.2346 0.1096167,-0.085 0.2755742,-0.1703 0.4691985,-0.2542 0.3872487,-0.1679 0.8781659,-0.3236 1.2707467,-0.5278 l 0.2150494,-0.1173 -0.2150494,-0.098 c -0.1551326,-0.075 -0.2737916,-0.158 -0.3714488,-0.2346 -0.018959,-0.193 -0.020115,-0.3941 0,-0.5865 6.879e-4,-0.01 -6.887e-4,-0.013 0,-0.02 0.1490726,-0.2008 0.2625056,-0.4092 0.3127989,-0.5279 l 0.019548,-0.039 -0.019548,-0.038 c -0.016974,-0.097 -0.011352,-0.1709 -0.039103,-0.2541 -0.1873993,-0.8576 -0.2079319,-1.2112 -0.2150501,-1.525 0,-0.1318 0.030951,-0.2854 0.0782,-0.43 l 0.039103,-0.078 -0.078199,-0.039 c -0.2610679,-0.2086 -0.6066621,-0.3519 -0.9774979,-0.3519 z"
       style="line-height:normal;color:#000000;fill:#fff8e1;fill-opacity:1"
       inkscape:connector-curvature="0" />
  </g>
</svg>
