<svg xmlns="http://www.w3.org/2000/svg" viewBox="0 0 96 96">
 <defs>
  <radialGradient r="24" cy="40.5" cx="24" gradientTransform="matrix(2.5,0,0,0.41666654,-12,1019.4872)" gradientUnits="userSpaceOnUse" id="radialGradient3097">
   <stop style="stop-color:#000;stop-opacity:1"/>
   <stop offset="1" style="stop-color:#000;stop-opacity:0.196"/>
  </radialGradient>
 </defs>
 <g transform="translate(0,-956.3622)">
  <path d="m 48 1026.36 c -19.653 0 -37.06 1.566 -48 4 l 0 12 c 10.944 2.434 28.347 4 48 4 19.653 0 37.06 -1.566 48 -4 l 0 -12 c -10.944 -2.434 -28.347 -4 -48 -4 z" style="fill:url(#radialGradient3097);opacity:0.1;fill-opacity:1;stroke:none"/>
  <rect width="92" height="64" x="2" y="976.36" rx="10" style="fill:replacecolour2;fill-opacity:1;stroke:none"/>
  <path d="m 12 976.36 c -5.54 0 -10 4.46 -10 10 l 0 4 c 0 -5.54 4.46 -10 10 -10 l 72 0 c 5.54 0 10 4.46 10 10 l 0 -4 c 0 -5.54 -4.46 -10 -10 -10 l -72 0 z" style="fill:#fff;opacity:0.2;fill-opacity:1;stroke:none"/>
  <path d="m 12 992.36 16 0 c 22 -2 18 -24 32 -24 l 24 0 c 5.54 0 10 4.46 10 10 l 0 52 c 0 5.54 -4.46 10 -10 10 l -72 0 c -5.54 0 -10 -4.46 -10 -10 l 0 -28 c 0 -6 4 -10 10 -10 z" style="fill:replacecolour1;fill-opacity:1;stroke:none"/>
  <path d="m 2 1026.36 0 4 c 0 5.54 4.46 10 10 10 l 72 0 c 5.54 0 10 -4.46 10 -10 l 0 -4 c 0 5.54 -4.46 10 -10 10 l -72 0 c -5.54 0 -10 -4.46 -10 -10 z" style="fill:#000;opacity:0.15;fill-opacity:1;stroke:none"/>
  <path d="m 34.938 1004.55 c -3.554 0 -6.5 2.816 -6.5 6.25 0 1.137 0.38 2.14 0.938 3.062 l 0 6.813 c -0.704 0.14 -1.326 0.461 -1.875 0.875 l -6.438 -2.813 c -0.037 -2.419 -2.11 -4.375 -4.625 -4.375 -2.533 0 -4.563 1.988 -4.563 4.438 0 2.453 2.028 4.437 4.563 4.437 1.046 0 2.036 -0.364 2.813 -0.937 l 6.438 2.812 c 0.036 2.424 2.113 4.375 4.625 4.375 2.537 0 4.625 -1.984 4.625 -4.437 0 -1 -0.355 -1.94 -0.938 -2.688 l 3.438 -5.812 c 2.316 -0.953 3.938 -3.174 3.938 -5.75 0 -3.43 -2.888 -6.25 -6.438 -6.25 z m 0 2.062 c 2.388 0 4.25 1.881 4.25 4.188 0 2.311 -1.864 4.125 -4.25 4.125 -2.391 0 -4.313 -1.814 -4.313 -4.125 0 -2.307 1.922 -4.188 4.313 -4.188 z m -0.563 1.5 c -1.261 0.249 -2.25 1.328 -2.25 2.625 0 1.477 1.286 2.688 2.813 2.688 1.531 0 2.75 -1.21 2.75 -2.688 0 -1.481 -1.219 -2.625 -2.75 -2.625 -0.191 0 -0.382 -0.036 -0.563 0 z m -17.938 8 c 1.486 0 2.396 0.599 2.688 1.75 l -1.625 -0.687 c -1.047 -0.43 -2.243 0.046 -2.688 1.062 -0.444 1.012 0.015 2.199 1.063 2.625 l 1.188 0.5 c -0.203 0.028 -0.392 0.124 -0.625 0.124 -1.846 0 -2.75 -0.9 -2.75 -2.687 0 -1.783 0.904 -2.688 2.75 -2.688 z m 13.25 6 c 0.2 -0.04 0.412 0 0.625 0 1.708 0 3.063 1.287 3.063 2.938 0 1.65 -1.354 2.937 -3.063 2.937 -1.412 0 -2.576 -0.877 -2.938 -2.125 l 2.188 0.938 c 1.047 0.431 2.306 0.02 2.75 -1 0.444 -1.012 -0.078 -2.199 -1.125 -2.625 l -2 -0.875 c 0.167 -0.064 0.32 -0.152 0.5 -0.188 z" style="fill:#000;fill-opacity:0.098;stroke:none;fill-rule:nonzero"/>
  <g transform="matrix(1.1358298,0,0,1.1358298,-0.6394008,988.8908)" style="fill:replacecolour3;fill-opacity:1">
   <g style="fill:replacecolour3">
    <!-- color: #3d3d3d -->
    <g style="fill:replacecolour3">
     <path d="m 31.31 12 c -3.129 0 -5.691 2.477 -5.691 5.5 0 3.02 2.566 5.504 5.691 5.504 3.125 0 5.688 -2.48 5.688 -5.504 0 -3.02 -2.563 -5.5 -5.688 -5.5 m 0 1.848 c 2.102 0 3.777 1.621 3.777 3.652 0 2.035 -1.676 3.656 -3.777 3.656 -2.105 0 -3.781 -1.621 -3.781 -3.656 0 -2.031 1.676 -3.652 3.781 -3.652 m 0 0" style="fill:replacecolour3;stroke:none;fill-rule:nonzero"/>
     <path d="m 33.746 17.496 c 0 1.301 -1.09 2.355 -2.438 2.355 -1.344 0 -2.438 -1.055 -2.438 -2.355 0 -1.305 1.094 -2.359 2.438 -2.359 1.348 0 2.438 1.055 2.438 2.359 m 0 0" style="fill:replacecolour3;stroke:none;fill-rule:nonzero"/>
     <path d="m 26.434 19.852 0 7.07 4.063 0.785 3.473 -5.867 -3.625 0 m -3.91 -1.992" style="fill:replacecolour3;stroke:none;fill-rule:nonzero"/>
     <path d="m 27.25 26.14 c -2.23 0 -4.063 1.77 -4.063 3.93 0 2.16 1.832 3.93 4.063 3.93 2.234 0 4.066 -1.77 4.066 -3.93 0 -2.16 -1.832 -3.93 -4.066 -3.93 m 0 1.32 c 1.504 0 2.699 1.156 2.699 2.609 0 1.453 -1.195 2.609 -2.699 2.609 -1.5 0 -2.699 -1.156 -2.699 -2.609 0 -1.453 1.199 -2.609 2.699 -2.609 m 0 0" style="fill:replacecolour3;stroke:none;fill-rule:nonzero"/>
     <path d="m 15.06 20.637 c -2.23 0 -4.063 1.773 -4.063 3.93 0 2.16 1.832 3.934 4.063 3.934 2.234 0 4.066 -1.773 4.066 -3.934 0 -2.156 -1.832 -3.93 -4.066 -3.93 m -0.008 1.574 c 1.629 0 2.441 0.785 2.441 2.355 0 1.574 -0.813 2.359 -2.441 2.359 -1.625 0 -2.438 -0.785 -2.438 -2.359 0 -1.57 0.813 -2.355 2.438 -2.355 m 0 0" style="fill:replacecolour3;stroke:none;fill-rule:nonzero"/>
     <path d="m 15.953 23.16 c -0.922 -0.379 -1.984 0.035 -2.375 0.93 -0.391 0.891 0.039 1.922 0.961 2.297 l 12.07 5.25 c 0.922 0.379 1.988 -0.035 2.379 -0.93 0.391 -0.891 -0.039 -1.922 -0.961 -2.297 m -12.08 -5.25" style="fill:replacecolour3;stroke:none;fill-rule:nonzero"/>
    </g>
   </g>
  </g>
 </g>
</svg>
