<!-- Created with Inkscape (http://www.inkscape.org/) -->
<svg xmlns="http://www.w3.org/2000/svg" viewBox="0 0 96 96">
 <defs>
  <radialGradient r="24" cy="40.5" cx="24" gradientTransform="matrix(2.5,0,0,0.41666654,-12,1019.4872)" gradientUnits="userSpaceOnUse" id="radialGradient3266">
   <stop style="stop-color:#000;stop-opacity:1"/>
   <stop offset="1" style="stop-color:#000;stop-opacity:0.196"/>
  </radialGradient>
 </defs>
 <g transform="translate(0,-956.3622)">
  <path d="m 48 1026.36 c -19.653 0 -37.06 1.566 -48 4 l 0 12 c 10.944 2.434 28.347 4 48 4 19.653 0 37.06 -1.566 48 -4 l 0 -12 c -10.944 -2.434 -28.347 -4 -48 -4 z" style="fill:url(#radialGradient3266);opacity:0.1;fill-opacity:1;stroke:none"/>
  <rect width="92" height="64" x="2" y="976.36" rx="10" style="fill:#f57c00;fill-opacity:1;stroke:none"/>
  <path d="m 12 976.36 c -5.54 0 -10 4.46 -10 10 l 0 4 c 0 -5.54 4.46 -10 10 -10 l 72 0 c 5.54 0 10 4.46 10 10 l 0 -4 c 0 -5.54 -4.46 -10 -10 -10 l -72 0 z" style="fill:#fff;opacity:0.2;fill-opacity:1;stroke:none"/>
  <path d="m 12 992.36 16 0 c 22 -2 18 -24 32 -24 l 24 0 c 5.54 0 10 4.46 10 10 l 0 52 c 0 5.54 -4.46 10 -10 10 l -72 0 c -5.54 0 -10 -4.46 -10 -10 l 0 -28 c 0 -6 4 -10 10 -10 z" style="fill:#ffb300;fill-opacity:1;stroke:none"/>
  <path d="m 2 1026.36 0 4 c 0 5.54 4.46 10 10 10 l 72 0 c 5.54 0 10 -4.46 10 -10 l 0 -4 c 0 5.54 -4.46 10 -10 10 l -72 0 c -5.54 0 -10 -4.46 -10 -10 z" style="fill:#000;opacity:0.15;fill-opacity:1;stroke:none"/>
  <path d="m 26 1000.86 c -0.5 0 -1 0.5 -2 1.5 l -10 10 c -4.407 4 -6 4 0 4 l 0 10 c 0 2.216 1.784 4 4 4 l 4 0 0 -10 8 0 0 10 4 0 c 2.216 0 4 -1.784 4 -4 l 0 -10 c 6 0 4.576 0 0 -4 l 0 -8 c 0 -1.108 0 -2 -2 -2 -2 0 -2 0.892 -2 2 l 0 4 -6 -6 c -1 -1 -1.5 -1.5 -2 -1.5 z" style="fill:#000;fill-opacity:0.098"/>
  <g transform="matrix(2,0,0,2,10,996.3622)" style="fill:#fff8e1;fill-opacity:1">
   <path d="m 2 8 0 6 c 0 1.108 0.892 2 2 2 l 2 0 0 -5 4 0 0 5 2 0 c 1.108 0 2 -0.892 2 -2 l 0 -6 z"/>
   <path d="m 2 7 c -2.203 2 -3 2 0 2 l 12 0 c 3 0 2.288 0 0 -2 l -5 -5 c -1 -1 -1 -1 -2 0 z" style="stroke:none"/>
   <path d="m 13 2 c 1 0 1 0.446 1 1 l 0 4 -2 0 0 -4 c 0 -0.554 0 -1 1 -1 z" style="stroke:none"/>
  </g>
 </g>
</svg>
