<!-- Created with Inkscape (http://www.inkscape.org/) -->
<svg xmlns="http://www.w3.org/2000/svg" viewBox="0 0 96 96">
 <g transform="translate(0,-956.3622)">
  <rect width="42" height="30" x="12" y="978.36" rx="4.565" ry="4.688" style="fill:#388e3c;fill-opacity:1;stroke:none"/>
  <path d="m 16.565 978.36 c -2.529 0 -4.565 2 -4.565 5 l 0 2 c 0 -2.77 2.036 -5 4.565 -5 l 32.87 0 c 2.529 0 4.565 2.23 4.565 5 l 0 -2 c 0 -2.77 -2.036 -5 -4.565 -5 z" style="fill:#fff;opacity:0.2;fill-opacity:1;stroke:none"/>
  <path d="m 16.565 986.36 7.304 0 c 10.04 -0.944 8.217 -12 14.609 -12 l 10.957 0 c 2.529 0 4.565 2.106 4.565 4.722 l 0 24.556 c 0 2.616 -2.036 4.722 -4.565 4.722 l -32.87 0 c -2.529 0 -4.565 -2.106 -4.565 -4.722 l 0 -13.222 c 0 -2.833 1.826 -4.056 4.565 -4.056 z" style="fill:#66bb6a;fill-opacity:1;stroke:none"/>
  <path d="m 12 1001.97 0 1.826 c 0 2.529 2.036 4.565 4.565 4.565 l 32.87 0 c 2.529 0 4.565 -2.036 4.565 -4.565 l 0 -1.826 c 0 2.529 -2.036 4.391 -4.565 4.391 l -32.87 0 c -2.529 0 -4.565 -1.862 -4.565 -4.391 z" style="fill:#000;opacity:0.15;fill-opacity:1;stroke:none"/>
  <rect width="42" height="30" x="42" y="1004.36" rx="4.565" ry="4.688" style="fill:#388e3c;fill-opacity:1;stroke:none"/>
  <path d="m 46.565 1004.36 c -2.529 0 -4.565 2 -4.565 5 l 0 2 c 0 -2.77 2.036 -5 4.565 -5 l 32.87 0 c 2.529 0 4.565 2.23 4.565 5 l 0 -2 c 0 -2.77 -2.036 -5 -4.565 -5 z" style="fill:#fff;opacity:0.2;fill-opacity:1;stroke:none"/>
  <path d="m 46.565 1012.36 7.304 0 c 10.04 -0.944 8.217 -12 14.609 -12 l 10.957 0 c 2.529 0 4.565 2.106 4.565 4.722 l 0 24.556 c 0 2.616 -2.036 4.722 -4.565 4.722 l -32.87 0 c -2.529 0 -4.565 -2.106 -4.565 -4.722 l 0 -13.222 c 0 -2.833 1.826 -4.056 4.565 -4.056 z" style="fill:#66bb6a;fill-opacity:1;stroke:none"/>
  <path d="m 42 1027.97 0 1.826 c 0 2.529 2.036 4.565 4.565 4.565 l 32.87 0 c 2.529 0 4.565 -2.036 4.565 -4.565 l 0 -1.826 c 0 2.529 -2.036 4.391 -4.565 4.391 l -32.87 0 c -2.529 0 -4.565 -1.862 -4.565 -4.391 z" style="fill:#000;opacity:0.15;fill-opacity:1;stroke:none"/>
 </g>
</svg>
