<svg xmlns="http://www.w3.org/2000/svg" viewBox="0 0 96 96">
 <defs>
  <radialGradient r="24" cy="40.5" cx="24" gradientTransform="matrix(2.5,0,0,0.41666654,-12,1019.4872)" gradientUnits="userSpaceOnUse" id="radialGradient3092">
   <stop style="stop-color:#000;stop-opacity:1"/>
   <stop offset="1" style="stop-color:#000;stop-opacity:0.196"/>
  </radialGradient>
 </defs>
 <g transform="translate(0,-956.3622)">
  <path d="m 48 1026.36 c -19.653 0 -37.06 1.566 -48 4 l 0 12 c 10.944 2.434 28.347 4 48 4 19.653 0 37.06 -1.566 48 -4 l 0 -12 c -10.944 -2.434 -28.347 -4 -48 -4 z" style="fill:url(#radialGradient3092);opacity:0.1;fill-opacity:1;stroke:none"/>
  <rect width="92" height="64" x="2" y="976.36" rx="10" style="fill:#388e3c;fill-opacity:1;stroke:none"/>
  <path d="m 12 976.36 c -5.54 0 -10 4.46 -10 10 l 0 4 c 0 -5.54 4.46 -10 10 -10 l 72 0 c 5.54 0 10 4.46 10 10 l 0 -4 c 0 -5.54 -4.46 -10 -10 -10 l -72 0 z" style="fill:#fff;opacity:0.2;fill-opacity:1;stroke:none"/>
  <path d="m 12 992.36 16 0 c 22 -2 18 -24 32 -24 l 24 0 c 5.54 0 10 4.46 10 10 l 0 52 c 0 5.54 -4.46 10 -10 10 l -72 0 c -5.54 0 -10 -4.46 -10 -10 l 0 -28 c 0 -6 4 -10 10 -10 z" style="fill:#66bb6a;fill-opacity:1;stroke:none"/>
  <path d="m 2 1026.36 0 4 c 0 5.54 4.46 10 10 10 l 72 0 c 5.54 0 10 -4.46 10 -10 l 0 -4 c 0 5.54 -4.46 10 -10 10 l -72 0 c -5.54 0 -10 -4.46 -10 -10 z" style="fill:#000;opacity:0.15;fill-opacity:1;stroke:none"/>
  <path d="m 23.796 1002.36 c -0.776 0 -1.426 0.617 -1.426 1.394 l 0 1.815 c -0.491 0.166 -0.967 0.356 -1.426 0.583 l -1.264 -1.264 c -0.549 -0.549 -1.428 -0.549 -1.977 0 l -3.176 3.143 c -0.549 0.549 -0.549 1.428 0 1.977 l 1.264 1.264 c -0.233 0.467 -0.415 0.958 -0.583 1.458 l -1.782 0 c -0.776 0 -1.426 0.617 -1.426 1.394 l 0 4.472 c 0 0.776 0.649 1.394 1.426 1.394 l 1.782 0 c 0.168 0.5 0.351 0.992 0.583 1.458 l -1.264 1.264 c -0.549 0.549 -0.549 1.428 0 1.977 l 3.176 3.143 c 0.549 0.549 1.428 0.549 1.977 0 l 1.264 -1.264 c 0.459 0.228 0.935 0.418 1.426 0.583 l 0 1.815 c 0 0.777 0.649 1.394 1.426 1.394 l 4.44 0 c 0.776 0 1.394 -0.617 1.394 -1.394 l 0 -1.815 c 0.5 -0.168 0.992 -0.351 1.458 -0.583 l 1.264 1.264 c 0.549 0.549 1.428 0.549 1.977 0 l 3.176 -3.143 c 0.549 -0.549 0.549 -1.428 0 -1.977 l -1.296 -1.296 c 0.227 -0.459 0.419 -0.935 0.583 -1.426 l 1.815 0 c 0.776 0 1.394 -0.617 1.394 -1.394 l 0 -4.472 c 0 -0.776 -0.617 -1.394 -1.394 -1.394 l -1.815 0 c -0.165 -0.491 -0.356 -0.967 -0.583 -1.426 l 1.296 -1.296 c 0.549 -0.549 0.549 -1.428 0 -1.977 l -3.176 -3.143 c -0.549 -0.549 -1.428 -0.549 -1.977 0 l -1.264 1.264 c -0.467 -0.233 -0.958 -0.415 -1.458 -0.583 l 0 -1.815 c 0 -0.777 -0.617 -1.394 -1.394 -1.394 l -4.44 0 z m 2.204 10.37 c 2 0 3.63 1.626 3.63 3.63 0 2 -1.626 3.63 -3.63 3.63 -2 0 -3.63 -1.626 -3.63 -3.63 0 -2 1.626 -3.63 3.63 -3.63 z" style="fill:#000;fill-opacity:0.098;display:block;color:#000"/>
  <path d="m 23.796 1000.36 c -0.776 0 -1.426 0.617 -1.426 1.394 l 0 1.815 c -0.491 0.166 -0.967 0.356 -1.426 0.583 l -1.264 -1.264 c -0.549 -0.549 -1.428 -0.549 -1.977 0 l -3.176 3.143 c -0.549 0.549 -0.549 1.428 0 1.977 l 1.264 1.264 c -0.233 0.467 -0.415 0.958 -0.583 1.458 l -1.782 0 c -0.776 0 -1.426 0.617 -1.426 1.394 l 0 4.472 c 0 0.776 0.649 1.394 1.426 1.394 l 1.782 0 c 0.168 0.5 0.351 0.992 0.583 1.458 l -1.264 1.264 c -0.549 0.549 -0.549 1.428 0 1.977 l 3.176 3.143 c 0.549 0.549 1.428 0.549 1.977 0 l 1.264 -1.264 c 0.459 0.228 0.935 0.418 1.426 0.583 l 0 1.815 c 0 0.777 0.649 1.394 1.426 1.394 l 4.44 0 c 0.776 0 1.394 -0.617 1.394 -1.394 l 0 -1.815 c 0.5 -0.168 0.992 -0.351 1.458 -0.583 l 1.264 1.264 c 0.549 0.549 1.428 0.549 1.977 0 l 3.176 -3.143 c 0.549 -0.549 0.549 -1.428 0 -1.977 l -1.296 -1.296 c 0.227 -0.459 0.419 -0.935 0.583 -1.426 l 1.815 0 c 0.776 0 1.394 -0.617 1.394 -1.394 l 0 -4.472 c 0 -0.776 -0.617 -1.394 -1.394 -1.394 l -1.815 0 c -0.165 -0.491 -0.356 -0.967 -0.583 -1.426 l 1.296 -1.296 c 0.549 -0.549 0.549 -1.428 0 -1.977 l -3.176 -3.143 c -0.549 -0.549 -1.428 -0.549 -1.977 0 l -1.264 1.264 c -0.467 -0.233 -0.958 -0.415 -1.458 -0.583 l 0 -1.815 c 0 -0.777 -0.617 -1.394 -1.394 -1.394 l -4.44 0 z m 2.204 10.37 c 2 0 3.63 1.626 3.63 3.63 0 2 -1.626 3.63 -3.63 3.63 -2 0 -3.63 -1.626 -3.63 -3.63 0 -2 1.626 -3.63 3.63 -3.63 z" style="fill:#fff8e1;fill-opacity:1;display:block;color:#000"/>
 </g>
</svg>
