<svg xmlns="http://www.w3.org/2000/svg" viewBox="0 0 96 96">
 <defs>
  <radialGradient r="24" cy="40.5" cx="24" gradientTransform="matrix(2.5,0,0,0.41666654,-12,1019.4872)" gradientUnits="userSpaceOnUse" id="radialGradient3179">
   <stop style="stop-color:#000;stop-opacity:1"/>
   <stop offset="1" style="stop-color:#000;stop-opacity:0.196"/>
  </radialGradient>
 </defs>
 <g transform="translate(0,-956.3622)">
  <path d="m 48 1026.36 c -19.653 0 -37.06 1.566 -48 4 l 0 12 c 10.944 2.434 28.347 4 48 4 19.653 0 37.06 -1.566 48 -4 l 0 -12 c -10.944 -2.434 -28.347 -4 -48 -4 z" style="fill:url(#radialGradient3179);opacity:0.1;fill-opacity:1;stroke:none"/>
  <rect width="92" height="64" x="2" y="976.36" rx="10" style="fill:#388e3c;fill-opacity:1;stroke:none"/>
  <path d="m 12 976.36 c -5.54 0 -10 4.46 -10 10 l 0 4 c 0 -5.54 4.46 -10 10 -10 l 72 0 c 5.54 0 10 4.46 10 10 l 0 -4 c 0 -5.54 -4.46 -10 -10 -10 l -72 0 z" style="fill:#fff;opacity:0.2;fill-opacity:1;stroke:none"/>
  <path d="m 12 992.36 16 0 c 22 -2 18 -24 32 -24 l 24 0 c 5.54 0 10 4.46 10 10 l 0 52 c 0 5.54 -4.46 10 -10 10 l -72 0 c -5.54 0 -10 -4.46 -10 -10 l 0 -28 c 0 -6 4 -10 10 -10 z" style="fill:#66bb6a;fill-opacity:1;stroke:none"/>
  <path d="m 2 1026.36 0 4 c 0 5.54 4.46 10 10 10 l 72 0 c 5.54 0 10 -4.46 10 -10 l 0 -4 c 0 5.54 -4.46 10 -10 10 l -72 0 c -5.54 0 -10 -4.46 -10 -10 z" style="fill:#000;opacity:0.15;fill-opacity:1;stroke:none"/>
  <path d="m 14.626 1013.76 c -1.451 0 -2.626 1.159 -2.626 2.589 0 1.43 1.175 2.589 2.626 2.589 1.45 0 2.626 -1.159 2.626 -2.589 0 -1.43 -1.175 -2.589 -2.626 -2.589 z m 18.749 11.767 c -1.256 0.715 -1.686 2.298 -0.961 3.535 0.725 1.238 2.33 1.663 3.586 0.948 1.256 -0.715 1.686 -2.298 0.961 -3.536 -0.725 -1.238 -2.33 -1.662 -3.586 -0.947 z m -13.05 -9.178 c 0 -2.559 1.29 -4.819 3.262 -6.187 l -1.92 -3.171 c -2.298 1.514 -4.01 3.828 -4.718 6.538 0.829 0.666 1.359 1.682 1.359 2.82 0 1.138 -0.53 2.153 -1.36 2.819 0.71 2.711 2.42 5.03 4.718 6.539 l 1.92 -3.171 c -1.972 -1.368 -3.262 -3.628 -3.262 -6.187 z m 7.671 -7.563 c 4.01 0 7.294 3.03 7.639 6.892 l 3.742 -0.054 c -0.184 -2.852 -1.448 -5.413 -3.39 -7.295 -0.998 0.372 -2.152 0.316 -3.148 -0.252 -0.998 -0.568 -1.624 -1.526 -1.796 -2.566 -0.97 -0.265 -1.992 -0.409 -3.047 -0.409 -1.816 0 -3.532 0.42 -5.056 1.165 l 1.824 3.224 c 0.982 -0.451 2.076 -0.704 3.231 -0.704 z m 0 15.13 c -1.155 0 -2.249 -0.253 -3.231 -0.704 l -1.825 3.224 c 1.524 0.744 3.24 1.164 5.056 1.164 1.056 0 2.077 -0.144 3.048 -0.409 0.172 -1.04 0.798 -1.998 1.796 -2.567 0.997 -0.567 2.15 -0.624 3.148 -0.252 1.942 -1.882 3.205 -4.443 3.389 -7.295 l -3.742 -0.054 c -0.344 3.863 -3.632 6.892 -7.639 6.892 z m 5.374 -16.742 c 1.256 0.715 2.861 0.291 3.586 -0.947 0.725 -1.238 0.295 -2.821 -0.961 -3.536 -1.256 -0.715 -2.861 -0.291 -3.586 0.948 -0.725 1.238 -0.295 2.821 0.961 3.535 z" style="fill:#000;fill-opacity:0.098;color:#000"/>
  <path d="m 14.626 1011.76 c -1.451 0 -2.626 1.159 -2.626 2.589 0 1.43 1.175 2.589 2.626 2.589 1.45 0 2.626 -1.159 2.626 -2.589 0 -1.43 -1.175 -2.589 -2.626 -2.589 z m 18.749 11.767 c -1.256 0.715 -1.686 2.298 -0.961 3.535 0.725 1.238 2.33 1.663 3.586 0.948 1.256 -0.715 1.686 -2.298 0.961 -3.536 -0.725 -1.238 -2.33 -1.662 -3.586 -0.947 z m -13.05 -9.178 c 0 -2.559 1.29 -4.819 3.262 -6.187 l -1.92 -3.171 c -2.298 1.514 -4.01 3.828 -4.718 6.538 0.829 0.666 1.359 1.682 1.359 2.82 0 1.138 -0.53 2.153 -1.36 2.819 0.71 2.711 2.419 5.02 4.718 6.539 l 1.92 -3.171 c -1.972 -1.368 -3.262 -3.628 -3.262 -6.187 z m 7.671 -7.563 c 4.01 0 7.294 3.03 7.639 6.892 l 3.742 -0.054 c -0.184 -2.852 -1.448 -5.413 -3.389 -7.295 -0.998 0.372 -2.152 0.316 -3.148 -0.252 -0.998 -0.568 -1.624 -1.526 -1.796 -2.566 -0.97 -0.265 -1.992 -0.409 -3.047 -0.409 -1.816 0 -3.532 0.42 -5.056 1.165 l 1.824 3.224 c 0.982 -0.451 2.076 -0.704 3.231 -0.704 z m 0 15.13 c -1.155 0 -2.249 -0.253 -3.231 -0.704 l -1.825 3.224 c 1.524 0.744 3.24 1.164 5.056 1.164 1.056 0 2.077 -0.144 3.048 -0.409 0.172 -1.04 0.798 -1.998 1.796 -2.567 0.997 -0.567 2.15 -0.624 3.148 -0.252 1.942 -1.882 3.205 -4.443 3.389 -7.295 l -3.742 -0.054 c -0.344 3.863 -3.632 6.892 -7.639 6.892 z m 5.374 -16.742 c 1.256 0.715 2.861 0.291 3.586 -0.947 0.725 -1.238 0.295 -2.821 -0.961 -3.536 -1.256 -0.715 -2.861 -0.291 -3.586 0.948 -0.725 1.238 -0.295 2.821 0.961 3.535 z" style="fill:#fff8e1;fill-opacity:1;color:#000"/>
 </g>
</svg>
