<svg xmlns="http://www.w3.org/2000/svg" viewBox="0 0 96 96">
 <defs>
  <radialGradient r="24" cy="40.5" cx="24" gradientTransform="matrix(2.5,0,0,0.41666654,-12,1019.4872)" gradientUnits="userSpaceOnUse" id="radialGradient3934">
   <stop style="stop-color:#000;stop-opacity:1"/>
   <stop offset="1" style="stop-color:#000;stop-opacity:0.196"/>
  </radialGradient>
 </defs>
 <g transform="translate(0,-956.3622)">
  <path d="m 48 1026.36 c -19.653 0 -37.06 1.566 -48 4 l 0 12 c 10.944 2.434 28.347 4 48 4 19.653 0 37.06 -1.566 48 -4 l 0 -12 c -10.944 -2.434 -28.347 -4 -48 -4 z" style="fill:url(#radialGradient3934);opacity:0.1;fill-opacity:1;stroke:none"/>
  <rect width="92" height="64" x="2" y="976.36" rx="10" style="fill:#757575;fill-opacity:1;stroke:none"/>
  <path d="m 12 976.36 c -5.54 0 -10 4.46 -10 10 l 0 4 c 0 -5.54 4.46 -10 10 -10 l 72 0 c 5.54 0 10 4.46 10 10 l 0 -4 c 0 -5.54 -4.46 -10 -10 -10 l -72 0 z" style="fill:#fff;opacity:0.2;fill-opacity:1;stroke:none"/>
  <path d="m 12 992.36 16 0 c 22 -2 18 -24 32 -24 l 24 0 c 5.54 0 10 4.46 10 10 l 0 52 c 0 5.54 -4.46 10 -10 10 l -72 0 c -5.54 0 -10 -4.46 -10 -10 l 0 -28 c 0 -6 4 -10 10 -10 z" style="fill:#bdbdbd;fill-opacity:1;stroke:none"/>
  <path d="m 2 1026.36 0 4 c 0 5.54 4.46 10 10 10 l 72 0 c 5.54 0 10 -4.46 10 -10 l 0 -4 c 0 5.54 -4.46 10 -10 10 l -72 0 c -5.54 0 -10 -4.46 -10 -10 z" style="fill:#000;opacity:0.15;fill-opacity:1;stroke:none"/>
  <path d="m 29.42 1003.69 c -2.74 0 -5 2.078 -5 4.677 0.02 0.892 0.07 2.02 0.591 4.409 l 0.054 0 c 0.105 0.316 0.267 0.63 0.538 0.968 0.242 0.303 0.563 0.648 0.86 0.968 0.091 0.675 0.105 1.264 0 1.989 -0.814 0.618 -2.281 1.194 -3.602 1.72 -0.689 0.274 -1.326 0.528 -1.828 0.86 -0.479 0.317 -0.827 0.749 -0.86 1.29 -0.002 0.026 -0.054 0.028 -0.054 0.054 l -0.591 4.57 0 0.054 c 0 0.566 0.377 1.03 0.914 1.398 0.537 0.368 1.265 0.657 2.151 0.914 1.771 0.514 4.174 0.806 6.828 0.806 2.654 0 5.057 -0.292 6.828 -0.806 0.886 -0.257 1.614 -0.546 2.151 -0.914 0.537 -0.368 0.914 -0.832 0.914 -1.398 l 0 -0.054 -0.645 -4.57 c 0 -0.02 0.001 -0.036 0 -0.054 -0.016 -0.259 -0.109 -0.513 -0.269 -0.699 -0.17 -0.198 -0.395 -0.328 -0.645 -0.484 -0.501 -0.313 -1.139 -0.576 -1.828 -0.86 -1.338 -0.551 -2.803 -1.175 -3.602 -1.828 -0.06 -0.624 -0.063 -1.259 0 -1.882 0.289 -0.341 0.613 -0.693 0.86 -1.021 0.275 -0.365 0.483 -0.696 0.591 -1.022 0.588 -2.485 0.614 -3.499 0.645 -4.409 0 -2.6 -2.26 -4.677 -5 -4.677 z m -9.301 0.86 c -2.25 0 -4.086 1.738 -4.086 3.871 0.017 0.731 0.056 1.59 0.484 3.549 l 0 0.054 c 0.087 0.262 0.258 0.472 0.484 0.753 0.197 0.246 0.46 0.549 0.699 0.807 0.072 0.541 0.082 1.087 0 1.667 -0.665 0.51 -1.869 0.968 -2.957 1.398 -0.564 0.223 -1.04 0.428 -1.452 0.699 -0.389 0.256 -0.666 0.637 -0.699 1.075 -0.002 0.026 -0.054 0.028 -0.054 0.054 l -0.538 3.708 l 0 0.054 c 0 0.349 0.167 0.651 0.43 0.914 0.263 0.263 0.629 0.505 1.075 0.699 0.881 0.383 2.137 0.65 3.656 0.807 l 0.054 0 c 0.083 0 0.165 -0.022 0.215 -0.054 0.062 -0.04 0.135 -0.07 0.161 -0.106 0.053 -0.074 0.085 -0.148 0.108 -0.215 0.04 -0.118 0.048 -0.256 0.054 -0.376 0.001 -0.02 0 -0.036 0 -0.054 l 0.591 -4.57 c -0.001 -0.188 0.129 -0.412 0.43 -0.645 0.301 -0.234 0.758 -0.468 1.29 -0.699 1.065 -0.462 2.415 -0.89 3.495 -1.451 l 0.591 -0.323 -0.591 -0.269 c -0.427 -0.207 -0.753 -0.435 -1.022 -0.645 -0.052 -0.531 -0.055 -1.084 0 -1.613 0.002 -0.02 -0.002 -0.036 0 -0.054 0.41 -0.552 0.722 -1.125 0.86 -1.452 l 0.054 -0.106 -0.054 -0.106 c -0.047 -0.267 -0.031 -0.47 -0.108 -0.699 -0.515 -2.358 -0.572 -3.331 -0.591 -4.194 0 -0.363 0.085 -0.785 0.215 -1.183 l 0.108 -0.215 -0.215 -0.106 c -0.718 -0.574 -1.668 -0.968 -2.688 -0.968 z" style="fill:#000;fill-opacity:0.098;color:#000"/>
  <path d="m 29.42 1001.69 c -2.74 0 -5 2.078 -5 4.677 0.02 0.892 0.07 2.02 0.591 4.409 l 0.054 0 c 0.105 0.316 0.267 0.63 0.538 0.968 0.242 0.303 0.563 0.648 0.86 0.968 0.091 0.675 0.105 1.264 0 1.989 -0.814 0.618 -2.281 1.194 -3.602 1.72 -0.689 0.274 -1.326 0.528 -1.828 0.86 -0.479 0.317 -0.827 0.749 -0.86 1.29 -0.002 0.026 -0.054 0.028 -0.054 0.054 l -0.591 4.57 0 0.054 c 0 0.566 0.377 1.03 0.914 1.398 0.537 0.368 1.265 0.657 2.151 0.914 1.771 0.514 4.174 0.806 6.828 0.806 2.654 0 5.057 -0.292 6.828 -0.806 0.886 -0.257 1.614 -0.546 2.151 -0.914 0.537 -0.368 0.914 -0.832 0.914 -1.398 l 0 -0.054 -0.645 -4.57 c 0 -0.02 0.001 -0.036 0 -0.054 -0.016 -0.259 -0.109 -0.513 -0.269 -0.699 -0.17 -0.198 -0.395 -0.328 -0.645 -0.484 -0.501 -0.313 -1.139 -0.576 -1.828 -0.86 -1.338 -0.551 -2.803 -1.175 -3.602 -1.828 -0.06 -0.624 -0.063 -1.259 0 -1.882 0.289 -0.341 0.613 -0.693 0.86 -1.021 0.275 -0.365 0.483 -0.696 0.591 -1.022 0.588 -2.485 0.614 -3.499 0.645 -4.409 0 -2.6 -2.26 -4.677 -5 -4.677 z m -9.301 0.86 c -2.25 0 -4.086 1.738 -4.086 3.871 0.017 0.731 0.056 1.59 0.484 3.549 l 0 0.054 c 0.087 0.262 0.258 0.472 0.484 0.753 0.197 0.246 0.46 0.549 0.699 0.807 0.072 0.541 0.082 1.087 0 1.667 -0.665 0.51 -1.869 0.968 -2.957 1.398 -0.564 0.223 -1.04 0.428 -1.452 0.699 -0.389 0.256 -0.666 0.637 -0.699 1.075 -0.002 0.026 -0.054 0.028 -0.054 0.054 l -0.538 3.708 l 0 0.054 c 0 0.349 0.167 0.651 0.43 0.914 0.263 0.263 0.629 0.505 1.075 0.699 0.881 0.383 2.137 0.65 3.656 0.807 l 0.054 0 c 0.083 0 0.165 -0.022 0.215 -0.054 0.062 -0.04 0.135 -0.07 0.161 -0.106 0.053 -0.074 0.085 -0.148 0.108 -0.215 0.04 -0.118 0.048 -0.256 0.054 -0.376 0.001 -0.02 0 -0.036 0 -0.054 l 0.591 -4.57 c -0.001 -0.188 0.129 -0.412 0.43 -0.645 0.301 -0.234 0.758 -0.468 1.29 -0.699 1.065 -0.462 2.415 -0.89 3.495 -1.451 l 0.591 -0.323 -0.591 -0.269 c -0.427 -0.207 -0.753 -0.435 -1.022 -0.645 -0.052 -0.531 -0.055 -1.084 0 -1.613 0.002 -0.02 -0.002 -0.036 0 -0.054 0.41 -0.552 0.722 -1.125 0.86 -1.452 l 0.054 -0.106 -0.054 -0.106 c -0.047 -0.267 -0.031 -0.47 -0.108 -0.699 -0.515 -2.358 -0.572 -3.331 -0.591 -4.194 0 -0.363 0.085 -0.785 0.215 -1.183 l 0.108 -0.215 -0.215 -0.106 c -0.718 -0.574 -1.668 -0.968 -2.688 -0.968 z" style="fill:#fff8e1;fill-opacity:1;color:#000"/>
 </g>
</svg>
