<?xml version="1.0" encoding="UTF-8" standalone="no"?>
<!-- Created with Inkscape (http://www.inkscape.org/) -->

<svg
   xmlns:dc="http://purl.org/dc/elements/1.1/"
   xmlns:cc="http://creativecommons.org/ns#"
   xmlns:rdf="http://www.w3.org/1999/02/22-rdf-syntax-ns#"
   xmlns:svg="http://www.w3.org/2000/svg"
   xmlns="http://www.w3.org/2000/svg"
   xmlns:xlink="http://www.w3.org/1999/xlink"
   xmlns:sodipodi="http://sodipodi.sourceforge.net/DTD/sodipodi-0.dtd"
   xmlns:inkscape="http://www.inkscape.org/namespaces/inkscape"
   width="96"
   height="96"
   id="svg2"
   version="1.1"
   inkscape:version="0.91 r"
   sodipodi:docname="grey-network.svg">
  <defs
     id="defs4">
    <linearGradient
       id="linearGradient3886">
      <stop
         style="stop-color:#000000;stop-opacity:1;"
         offset="0"
         id="stop3888" />
      <stop
         style="stop-color:#000000;stop-opacity:0.19607843;"
         offset="1"
         id="stop3890" />
    </linearGradient>
    <radialGradient
       r="24"
       fy="40.5"
       fx="24"
       cy="40.5"
       cx="24"
       gradientTransform="matrix(2.5,0,0,0.41666654,-12,1019.4872)"
       gradientUnits="userSpaceOnUse"
       id="radialGradient3208"
       xlink:href="#linearGradient3886"
       inkscape:collect="always" />
  </defs>
  <sodipodi:namedview
     id="base"
     pagecolor="#ffffff"
     bordercolor="#666666"
     borderopacity="1.0"
     inkscape:pageopacity="0.0"
     inkscape:pageshadow="2"
     inkscape:zoom="12.464725"
     inkscape:cx="50.515301"
     inkscape:cy="62.890159"
     inkscape:document-units="px"
     inkscape:current-layer="layer1"
     showgrid="true"
     inkscape:window-width="1280"
     inkscape:window-height="998"
     inkscape:window-x="0"
     inkscape:window-y="0"
     inkscape:window-maximized="1">
    <inkscape:grid
       type="xygrid"
       id="grid2990"
       empspacing="5"
       visible="true"
       enabled="true"
       snapvisiblegridlinesonly="true" />
  </sodipodi:namedview>
  <metadata
     id="metadata7">
    <rdf:RDF>
      <cc:Work
         rdf:about="">
        <dc:format>image/svg+xml</dc:format>
        <dc:type
           rdf:resource="http://purl.org/dc/dcmitype/StillImage" />
        <dc:title />
      </cc:Work>
    </rdf:RDF>
  </metadata>
  <g
     inkscape:label="Body"
     inkscape:groupmode="layer"
     id="layer1"
     transform="translate(0,-956.3622)">
    <path
       inkscape:connector-curvature="0"
       style="opacity:0.1;fill:url(#radialGradient3208);fill-opacity:1;stroke:none"
       d="m 48,1026.3622 c -19.653098,0 -37.05594,1.5662 -48,4 l 0,12 c 10.94406,2.4338 28.346902,4 48,4 19.653098,0 37.05594,-1.5662 48,-4 l 0,-12 c -10.94406,-2.4338 -28.346902,-4 -48,-4 z"
       id="path3868" />
    <rect
       style="fill:#757575;fill-opacity:1;stroke:none"
       id="rect2987"
       width="92"
       height="64.000038"
       x="2"
       y="976.36218"
       rx="10"
       ry="10" />
    <path
       style="opacity:0.2;fill:#ffffff;fill-opacity:1;stroke:none"
       d="m 12,976.3622 c -5.54,0 -10,4.46 -10,10 l 0,4 c 0,-5.54 4.46,-10 10,-10 l 72,0 c 5.54,0 10,4.46 10,10 l 0,-4 c 0,-5.54 -4.46,-10 -10,-10 l -72,0 z"
       id="rect3797"
       inkscape:connector-curvature="0" />
    <path
       style="fill:#bdbdbd;fill-opacity:1;stroke:none"
       d="m 12,992.3622 16,0 c 22,-2 18,-24 32,-24 l 24,0 c 5.54,0 10,4.46 10,10 l 0,52 c 0,5.54 -4.46,10 -10,10 l -72,0 c -5.54,0 -10,-4.46 -10,-10 l 0,-28 c 0,-6 4,-10 10,-10 z"
       id="rect3776"
       inkscape:connector-curvature="0"
       sodipodi:nodetypes="cccsssssscc" />
    <path
       style="opacity:0.15;fill:#000000;fill-opacity:1;stroke:none"
       d="m 2,1026.3622 0,4 c 0,5.54 4.46,10 10,10 l 72,0 c 5.54,0 10,-4.46 10,-10 l 0,-4 c 0,5.54 -4.46,10 -10,10 l -72,0 c -5.54,0 -10,-4.46 -10,-10 z"
       id="path3786"
       inkscape:connector-curvature="0" />
    <path
       inkscape:connector-curvature="0"
       style="line-height:normal;color:#000000;fill:#000000;fill-opacity:0.09803922"
       d="M 24.250502,1002.3622 C 18.27902,1002.3622 12,1008.6416 12,1016.3624 c 0,7.7206 6.279028,13.9998 12.250502,13.9998 9.47047,0 15.749498,-6.2792 15.749498,-13.9998 0,-7.7208 -6.279018,-14.0002 -14,-14.0002 z m 2.886996,1.9692 c 1.304932,0.12 2.569276,0.4186 3.718752,0.9186 -0.08848,0.11 -0.15688,0.2076 -0.218744,0.3938 -0.353556,1.0604 -0.881218,0.555 -0.262506,1.8808 0.618718,1.3256 1.135724,1.6684 1.312498,1.0498 0.1768,-0.6184 -0.444604,-1.491 0.262502,-1.1374 0.70711,0.3536 1.230332,-0.096 0.7,0.7006 -0.53033,0.7954 -0.51878,1.2266 -1.137498,1.0496 -0.61872,-0.178 -0.60628,1.0484 -1.225002,1.2252 -0.618716,0.176 -0.831248,-0.2668 -0.831248,0.176 0,0.4416 0.350886,0.036 0.262504,0.7438 -0.02694,0.2164 -0.019,0.255 -0.04374,0.3498 -0.58078,-0.166 -0.839806,-0.2584 -1.26875,-0.09 -0.441942,0.178 -0.9625,1.3128 -0.9625,1.3128 0.552072,0.552 0.808218,0.9494 1.00625,1.1376 -0.12356,0.062 -0.27222,0.088 -0.39375,0.176 -0.883886,0.619 -1.572338,0.7354 -1.8375,1.6186 -0.26517,0.8846 -0.17498,0.076 -0.17498,1.1374 0,1.061 -0.267836,0.3402 0.262502,1.313 0.53033,0.9722 1.83128,1.438 2.449996,1.9684 0.618722,0.5302 1.256316,-1.1536 2.49375,0.4378 1.237438,1.5908 1.316946,0.9534 0.875002,1.8376 -0.441944,0.884 -0.873224,1.1776 -1.049998,1.5312 -0.17678,0.3534 0.34378,1.5724 0.9625,1.8372 0.013,0 0.0299,0 0.04376,0 -0.03294,0.076 -0.05484,0.144 -0.08752,0.2194 -0.801208,0.3638 -1.783376,0.8658 -1.968752,0.9184 -0.4375,0.126 -1.98125,0.3872 -3.106248,0.6998 -0.14064,0.04 -0.251328,0.04 -0.30625,0.046 0.13986,-0.152 1.245672,-0.7304 1.793748,-1.0496 0.750004,-0.4384 -0.04374,-0.394 -0.04374,-0.394 0,0 -1.19375,-0.134 -3.631248,-0.134 -1.218752,0 -1.746874,0.054 -2.0125,0.134 -0.1328,0.04 -0.19806,0.078 -0.262502,0.132 -0.06446,0.054 -0.10938,0.112 -0.218748,0.176 -0.437504,0.25 0.256242,0.5124 -0.306248,0.6998 -0.421872,0.14 -0.470898,0 -0.831248,-0.2638 0.257052,-0.2556 0.61177,-0.5636 1.049998,-1.094 0.795496,-0.9622 1.047336,-0.787 1.312498,-1.662 0.265172,-0.8754 -2.231246,-0.6124 -2.231246,-1.1376 0,-0.525 -0.429508,-0.8748 -1.225,-1.225 -0.795496,-0.3502 -0.253626,-0.5252 -1.137502,-0.7876 -0.88388,-0.2616 -1.878582,1.3122 -2.143748,0.7876 -0.26517,-0.5252 0.83125,-0.5252 0.83125,-1.1374 0,-0.5978 -1.260636,0.4512 -1.487504,-0.3062 -0.006,-0.028 -0.03932,-0.028 -0.04376,-0.046 -0.02218,-0.11 -0.0078,-0.176 0,-0.2616 0.05562,-0.6292 0.784392,-0.8748 1.093752,-1.4876 0.353556,-0.6992 0.17056,0.5256 0.6125,1.1378 0.441944,0.6126 0.265174,-0.7874 0,-1.575 -0.265168,-0.7878 0.16878,-0.7874 0.787502,-1.8374 0.618718,-1.0502 0.6125,-1.6626 0.6125,-2.4502 0,-0.7874 0.428618,-0.8744 1.312498,-1.6626 0.405116,-0.3604 0.72295,-0.675 0.9625,-0.9622 0.0579,-0.028 0.11642,-0.028 0.175,-0.046 0.937504,-0.3752 1.33125,-0.9374 2.14375,-2.6252 0.812504,-1.687 -0.318748,-0.112 -0.56875,-0.174 -0.250004,-0.062 -0.6125,-0.5062 -1.4875,-1.0064 -0.18046,-0.104 -0.341506,-0.152 -0.48125,-0.174 l 1.618752,-2.6688 c 0.518516,-0.14 1.075224,-0.2358 1.618748,-0.3064 0.19886,1.1316 0.08752,2.1878 0.08752,2.1878 0,0 -0.30625,0.3624 -0.30625,0.6124 0,0.25 1.675,-2.0624 1.925,-2.1874 0.250006,-0.126 0.881248,0.6624 1.006248,-0.525 0.007,-0.068 -0.0078,-0.07 0,-0.132 z m 2.3625,4.7248 c -0.08976,-0.028 -0.19578,-2e-4 -0.306246,0.046 0,0.3094 -0.11976,0.5344 -0.17498,0.6562 -0.03286,-0.056 -0.13126,-0.132 -0.13126,-0.132 -0.13256,0.2446 -0.418516,0.4602 -0.13126,0.3938 0.287262,-0.064 0.505124,0.112 0.306252,-0.132 -0.03824,-0.046 -0.02022,-0.026 -0.04376,-0.046 0.03726,0.028 0.10782,0.046 0.262502,0.046 0.17404,0 0.267586,0 0.393748,0 -0.213382,0.158 -0.446132,0.2246 -0.13126,0.3062 0.419844,0.11 0.6125,0.132 0.6125,0.046 0,-0.088 -0.13124,-0.3938 -0.13124,-0.3938 0.08202,-0.034 0.15822,-0.076 0.08752,-0.2192 -0.13258,-0.2638 -0.343194,-0.5272 -0.612504,-0.5686 z m 6.693752,0.7434 c 0.218604,0.3396 0.428016,0.6888 0.612502,1.0502 -0.1217,0.7058 -0.430756,1.1814 0.08752,1.1814 0.1449,0 0.274156,-0.032 0.39375,-0.046 0.0162,0.042 0.02808,0.09 0.04376,0.132 -0.883888,0 -1.30806,0.2644 -1.750002,0.176 -0.441944,-0.09 -1.670494,-0.168 -0.875,-0.9622 0.464932,-0.4652 1.045718,-1.2038 1.4875,-1.5316 z m -5.5125,1.6192 c 0.08146,0.026 0.15248,0.11 0.218746,0.261 0.265172,0.619 0.703554,1.1368 0.350002,1.2252 -0.353556,0.088 -0.525004,0.176 -0.525004,0.176 0,0 1.224114,0.796 1.312502,-0.088 0.0884,-0.8844 -0.35,-1.4006 -0.35,-1.4006 0,0 0.610726,0.6092 0.7875,0.9628 0.1768,0.3536 0.17056,0 0.612502,0.4378 0.44194,0.4414 0.34378,-1.7566 0.9625,-1.1378 0.61872,0.6188 1.008028,0.6082 0.831248,1.05 -0.17678,0.4418 1.137504,-0.5338 1.137504,0.35 0,0.852 0.543436,1.1978 -0.525,1.6188 -0.404522,-0.028 -0.7247,-0.096 -0.787504,-0.2192 -0.17678,-0.3532 -1.181248,-0.088 -1.181248,-0.088 -2.644104,-0.6608 -3.792004,-0.8702 -4.550002,-0.7436 0.0144,-0.028 0.02824,-0.028 0.04376,-0.046 0.3867,-0.6966 1.114272,-1.6636 0.875,-2.0126 0.336998,-0.194 0.601166,-0.4068 0.7875,-0.3502 z m 7.4375,4.4184 c 0.0078,0.178 0,0.3456 0,0.5252 0,0.4976 -0.02984,1.0056 -0.08752,1.4872 -0.795218,-0.7074 -1.925002,-0.6998 -1.925002,-0.6998 0,0 0.690228,-0.784 1.662502,-1.1376 0.12156,-0.046 0.251774,-0.104 0.35,-0.176 z"
       id="path3837" />
    <path
       id="path4139"
       d="M 24.250502,1000.3622 C 18.27902,1000.3622 12,1006.6416 12,1014.3624 c 0,7.7206 6.279028,13.9998 12.250502,13.9998 9.47047,0 15.749498,-6.2792 15.749498,-13.9998 0,-7.7208 -6.279018,-14.0002 -14,-14.0002 z m 2.886996,1.9692 c 1.304932,0.12 2.569276,0.4186 3.718752,0.9186 -0.08848,0.11 -0.15688,0.2076 -0.218744,0.3938 -0.353556,1.0604 -0.881218,0.555 -0.262506,1.8808 0.618718,1.3256 1.135724,1.6684 1.312498,1.0498 0.1768,-0.6184 -0.444604,-1.491 0.262502,-1.1374 0.70711,0.3536 1.230332,-0.096 0.7,0.7006 -0.53033,0.7954 -0.51878,1.2266 -1.137498,1.0496 -0.61872,-0.178 -0.60628,1.0484 -1.225002,1.2252 -0.618716,0.176 -0.831248,-0.2668 -0.831248,0.176 0,0.4416 0.350886,0.036 0.262504,0.7438 -0.02694,0.2164 -0.019,0.255 -0.04374,0.3498 -0.58078,-0.166 -0.839806,-0.2584 -1.26875,-0.09 -0.441942,0.178 -0.9625,1.3128 -0.9625,1.3128 0.552072,0.552 0.808218,0.9494 1.00625,1.1376 -0.12356,0.062 -0.27222,0.088 -0.39375,0.176 -0.883886,0.619 -1.572338,0.7354 -1.8375,1.6186 -0.26517,0.8846 -0.17498,0.076 -0.17498,1.1374 0,1.061 -0.267836,0.3402 0.262502,1.313 0.53033,0.9722 1.83128,1.438 2.449996,1.9684 0.618722,0.5302 1.256316,-1.1536 2.49375,0.4378 1.237438,1.5908 1.316946,0.9534 0.875002,1.8376 -0.441944,0.884 -0.873224,1.1776 -1.049998,1.5312 -0.17678,0.3534 0.34378,1.5724 0.9625,1.8372 0.013,0 0.0299,0 0.04376,0 -0.03294,0.076 -0.05484,0.144 -0.08752,0.2194 -0.801208,0.3638 -1.783376,0.8658 -1.968752,0.9184 -0.4375,0.126 -1.98125,0.3872 -3.106248,0.6998 -0.14064,0.04 -0.251328,0.04 -0.30625,0.046 0.13986,-0.152 1.245672,-0.7304 1.793748,-1.0496 0.750004,-0.4384 -0.04374,-0.394 -0.04374,-0.394 0,0 -1.19375,-0.134 -3.631248,-0.134 -1.218752,0 -1.746874,0.054 -2.0125,0.134 -0.1328,0.04 -0.19806,0.078 -0.262502,0.132 -0.06446,0.054 -0.10938,0.112 -0.218748,0.176 -0.437504,0.25 0.256242,0.5124 -0.306248,0.6998 -0.421872,0.14 -0.470898,0 -0.831248,-0.2638 0.257052,-0.2556 0.61177,-0.5636 1.049998,-1.094 0.795496,-0.9622 1.047336,-0.787 1.312498,-1.662 0.265172,-0.8754 -2.231246,-0.6124 -2.231246,-1.1376 0,-0.525 -0.429508,-0.8748 -1.225,-1.225 -0.795496,-0.3502 -0.253626,-0.5252 -1.137502,-0.7876 -0.88388,-0.2616 -1.878582,1.3122 -2.143748,0.7876 -0.26517,-0.5252 0.83125,-0.5252 0.83125,-1.1374 0,-0.5978 -1.260636,0.4512 -1.487504,-0.3062 -0.006,-0.028 -0.03932,-0.028 -0.04376,-0.046 -0.02218,-0.11 -0.0078,-0.176 0,-0.2616 0.05562,-0.6292 0.784392,-0.8748 1.093752,-1.4876 0.353556,-0.6992 0.17056,0.5256 0.6125,1.1378 0.441944,0.6126 0.265174,-0.7874 0,-1.575 -0.265168,-0.7878 0.16878,-0.7874 0.787502,-1.8374 0.618718,-1.0502 0.6125,-1.6626 0.6125,-2.4502 0,-0.7874 0.428618,-0.8744 1.312498,-1.6626 0.405116,-0.3604 0.72295,-0.675 0.9625,-0.9622 0.0579,-0.028 0.11642,-0.028 0.175,-0.046 0.937504,-0.3752 1.33125,-0.9374 2.14375,-2.6252 0.812504,-1.687 -0.318748,-0.112 -0.56875,-0.174 -0.250004,-0.062 -0.6125,-0.5062 -1.4875,-1.0064 -0.18046,-0.104 -0.341506,-0.152 -0.48125,-0.174 l 1.618752,-2.6688 c 0.518516,-0.14 1.075224,-0.2358 1.618748,-0.3064 0.19886,1.1316 0.08752,2.1878 0.08752,2.1878 0,0 -0.30625,0.3624 -0.30625,0.6124 0,0.25 1.675,-2.0624 1.925,-2.1874 0.250006,-0.126 0.881248,0.6624 1.006248,-0.525 0.007,-0.068 -0.0078,-0.07 0,-0.132 z m 2.3625,4.7248 c -0.08976,-0.028 -0.19578,-2e-4 -0.306246,0.046 0,0.3094 -0.11976,0.5344 -0.17498,0.6562 -0.03286,-0.056 -0.13126,-0.132 -0.13126,-0.132 -0.13256,0.2446 -0.418516,0.4602 -0.13126,0.3938 0.287262,-0.064 0.505124,0.112 0.306252,-0.132 -0.03824,-0.046 -0.02022,-0.026 -0.04376,-0.046 0.03726,0.028 0.10782,0.046 0.262502,0.046 0.17404,0 0.267586,0 0.393748,0 -0.213382,0.158 -0.446132,0.2246 -0.13126,0.3062 0.419844,0.11 0.6125,0.132 0.6125,0.046 0,-0.088 -0.13124,-0.3938 -0.13124,-0.3938 0.08202,-0.034 0.15822,-0.076 0.08752,-0.2192 -0.13258,-0.2638 -0.343194,-0.5272 -0.612504,-0.5686 z m 6.693752,0.7434 c 0.218604,0.3396 0.428016,0.6888 0.612502,1.0502 -0.1217,0.7058 -0.430756,1.1814 0.08752,1.1814 0.1449,0 0.274156,-0.032 0.39375,-0.046 0.0162,0.042 0.02808,0.09 0.04376,0.132 -0.883888,0 -1.30806,0.2644 -1.750002,0.176 -0.441944,-0.09 -1.670494,-0.168 -0.875,-0.9622 0.464932,-0.4652 1.045718,-1.2038 1.4875,-1.5316 z m -5.5125,1.6192 c 0.08146,0.026 0.15248,0.11 0.218746,0.261 0.265172,0.619 0.703554,1.1368 0.350002,1.2252 -0.353556,0.088 -0.525004,0.176 -0.525004,0.176 0,0 1.224114,0.796 1.312502,-0.088 0.0884,-0.8844 -0.35,-1.4006 -0.35,-1.4006 0,0 0.610726,0.6092 0.7875,0.9628 0.1768,0.3536 0.17056,0 0.612502,0.4378 0.44194,0.4414 0.34378,-1.7566 0.9625,-1.1378 0.61872,0.6188 1.008028,0.6082 0.831248,1.05 -0.17678,0.4418 1.137504,-0.5338 1.137504,0.35 0,0.852 0.543436,1.1978 -0.525,1.6188 -0.404522,-0.028 -0.7247,-0.096 -0.787504,-0.2192 -0.17678,-0.3532 -1.181248,-0.088 -1.181248,-0.088 -2.644104,-0.6608 -3.792004,-0.8702 -4.550002,-0.7436 0.0144,-0.028 0.02824,-0.028 0.04376,-0.046 0.3867,-0.6966 1.114272,-1.6636 0.875,-2.0126 0.336998,-0.194 0.601166,-0.4068 0.7875,-0.3502 z m 7.4375,4.4184 c 0.0078,0.178 0,0.3456 0,0.5252 0,0.4976 -0.02984,1.0056 -0.08752,1.4872 -0.795218,-0.7074 -1.925002,-0.6998 -1.925002,-0.6998 0,0 0.690228,-0.784 1.662502,-1.1376 0.12156,-0.046 0.251774,-0.104 0.35,-0.176 z"
       style="line-height:normal;color:#000000;fill:#fff8e1;fill-opacity:1"
       inkscape:connector-curvature="0" />
  </g>
</svg>
