<!-- Created with Inkscape (http://www.inkscape.org/) -->
<svg xmlns="http://www.w3.org/2000/svg" viewBox="0 0 96 96">
 <defs>
  <radialGradient r="24" cy="40.5" cx="24" gradientTransform="matrix(2.5,0,0,0.41666633,-12,1019.4872)" gradientUnits="userSpaceOnUse" id="radialGradient3085">
   <stop style="stop-color:#000;stop-opacity:1"/>
   <stop offset="1" style="stop-color:#000;stop-opacity:0.196"/>
  </radialGradient>
 </defs>
 <g transform="translate(0,-956.3622)">
  <rect width="92" height="64" x="2" y="976.36" rx="10" style="fill:#e65100;fill-opacity:1;stroke:none"/>
  <g transform="matrix(2,0,0,1.999999,-24,-1038.3612)" style="fill:#fff1ed;opacity:0.6;fill-opacity:1">
   <rect y="1017.36" x="20" height="18" width="8" rx="0" style="stroke:none"/>
   <path d="m 22 1017.36 -6 0 8 -8 8 8 -6 0 -2 2 z" style="stroke:none"/>
  </g>
  <path d="m 12 976.36 c -5.54 0 -10 4.46 -10 10 l 0 4 c 0 -5.54 4.46 -10 10 -10 l 72 0 c 5.54 0 10 4.46 10 10 l 0 -4 c 0 -5.54 -4.46 -10 -10 -10 l -72 0 z" style="fill:#fff;opacity:0.2;fill-opacity:1;stroke:none"/>
  <path d="m 48 1026.36 c -19.653 0 -37.06 1.566 -48 4 l 0 12 c 10.944 2.434 28.347 4 48 4 19.653 0 37.06 -1.566 48 -4 l 0 -12 c -10.944 -2.434 -28.347 -4 -48 -4 z" style="fill:url(#radialGradient3085);opacity:0.1;fill-opacity:1;stroke:none"/>
  <path d="m 12 1004.36 16 0 c 22 -1.5 18 -18 32 -18 l 24 0 c 5.54 0 10 3.345 10 7.5 l 0 39 c 0 4.155 -4.46 7.5 -10 7.5 l -72 0 c -5.54 0 -10 -3.345 -10 -7.5 l 0 -21 c 0 -4.5 4 -7.5 10 -7.5 z" style="fill:#f57c00;fill-opacity:1;stroke:none"/>
  <path d="m 2 1029.79 0 3.02 c 0 4.184 4.46 7.553 10 7.553 l 72 0 c 5.54 0 10 -3.369 10 -7.553 l 0 -3.02 c 0 4.184 -4.46 7.553 -10 7.553 l -72 0 c -5.54 0 -10 -3.369 -10 -7.553 z" style="fill:#000;opacity:0.15;fill-opacity:1;stroke:none"/>
 </g>
</svg>
