<svg xmlns="http://www.w3.org/2000/svg" viewBox="0 0 96 96">
 <defs>
  <radialGradient r="24" cy="40.5" cx="24" gradientTransform="matrix(2.5,0,0,0.41666654,-12,1019.4872)" gradientUnits="userSpaceOnUse" id="radialGradient3150">
   <stop style="stop-color:#000;stop-opacity:1"/>
   <stop offset="1" style="stop-color:#000;stop-opacity:0.196"/>
  </radialGradient>
 </defs>
 <g transform="translate(0,-956.3622)">
  <path d="m 48 1026.36 c -19.653 0 -37.06 1.566 -48 4 l 0 12 c 10.944 2.434 28.347 4 48 4 19.653 0 37.06 -1.566 48 -4 l 0 -12 c -10.944 -2.434 -28.347 -4 -48 -4 z" style="fill:url(#radialGradient3150);opacity:0.1;fill-opacity:1;stroke:none"/>
  <rect width="92" height="64" x="2" y="976.36" rx="10" style="fill:#e65100;fill-opacity:1;stroke:none"/>
  <path d="m 12 976.36 c -5.54 0 -10 4.46 -10 10 l 0 4 c 0 -5.54 4.46 -10 10 -10 l 72 0 c 5.54 0 10 4.46 10 10 l 0 -4 c 0 -5.54 -4.46 -10 -10 -10 l -72 0 z" style="fill:#fff;opacity:0.2;fill-opacity:1;stroke:none"/>
  <path d="m 12 992.36 16 0 c 22 -2 18 -24 32 -24 l 24 0 c 5.54 0 10 4.46 10 10 l 0 52 c 0 5.54 -4.46 10 -10 10 l -72 0 c -5.54 0 -10 -4.46 -10 -10 l 0 -28 c 0 -6 4 -10 10 -10 z" style="fill:#f57c00;fill-opacity:1;stroke:none"/>
  <path d="m 2 1026.36 0 4 c 0 5.54 4.46 10 10 10 l 72 0 c 5.54 0 10 -4.46 10 -10 l 0 -4 c 0 5.54 -4.46 10 -10 10 l -72 0 c -5.54 0 -10 -4.46 -10 -10 z" style="fill:#000;opacity:0.15;fill-opacity:1;stroke:none"/>
  <path d="m 15.5 1002.36 c -1.939 0 -3.5 1.561 -3.5 3.5 l 0 21 c 0 1.939 1.561 3.5 3.5 3.5 l 21 0 c 1.939 0 3.5 -1.561 3.5 -3.5 l 0 -21 c 0 -1.939 -1.561 -3.5 -3.5 -3.5 z m 0.5 4 4 0 0 4 -4 0 z m 16 0 4 0 0 4 -4 0 z m -16 8 4 0 0 4 -4 0 z m 16 0 4 0 0 4 -4 0 z m -16 8 4 0 0 4 -4 0 z m 16 0 4 0 0 4 -4 0 z" style="fill:#000;fill-opacity:0.098"/>
  <path d="m 15.5 1000.36 c -1.939 0 -3.5 1.561 -3.5 3.5 l 0 21 c 0 1.939 1.561 3.5 3.5 3.5 l 21 0 c 1.939 0 3.5 -1.561 3.5 -3.5 l 0 -21 c 0 -1.939 -1.561 -3.5 -3.5 -3.5 z m 0.5 4 4 0 0 4 -4 0 z m 16 0 4 0 0 4 -4 0 z m -16 8 4 0 0 4 -4 0 z m 16 0 4 0 0 4 -4 0 z m -16 8 4 0 0 4 -4 0 z m 16 0 4 0 0 4 -4 0 z" style="fill:#fff8e1;fill-opacity:1"/>
 </g>
</svg>
