<svg xmlns="http://www.w3.org/2000/svg" viewBox="0 0 96 96">
 <defs>
  <radialGradient r="24" cy="40.5" cx="24" gradientTransform="matrix(2.5,0,0,0.41666654,-12,1019.4872)" gradientUnits="userSpaceOnUse" id="radialGradient3208">
   <stop style="stop-color:#000;stop-opacity:1"/>
   <stop offset="1" style="stop-color:#000;stop-opacity:0.196"/>
  </radialGradient>
 </defs>
 <g transform="translate(0,-956.3622)">
  <path d="m 48 1026.36 c -19.653 0 -37.06 1.566 -48 4 l 0 12 c 10.944 2.434 28.347 4 48 4 19.653 0 37.06 -1.566 48 -4 l 0 -12 c -10.944 -2.434 -28.347 -4 -48 -4 z" style="fill:url(#radialGradient3208);opacity:0.1;fill-opacity:1;stroke:none"/>
  <rect width="92" height="64" x="2" y="976.36" rx="10" style="fill:#d32f2f;fill-opacity:1;stroke:none"/>
  <path d="m 12 976.36 c -5.54 0 -10 4.46 -10 10 l 0 4 c 0 -5.54 4.46 -10 10 -10 l 72 0 c 5.54 0 10 4.46 10 10 l 0 -4 c 0 -5.54 -4.46 -10 -10 -10 l -72 0 z" style="fill:#fff;opacity:0.2;fill-opacity:1;stroke:none"/>
  <path d="m 12 992.36 16 0 c 22 -2 18 -24 32 -24 l 24 0 c 5.54 0 10 4.46 10 10 l 0 52 c 0 5.54 -4.46 10 -10 10 l -72 0 c -5.54 0 -10 -4.46 -10 -10 l 0 -28 c 0 -6 4 -10 10 -10 z" style="fill:#ef5350;fill-opacity:1;stroke:none"/>
  <path d="m 2 1026.36 0 4 c 0 5.54 4.46 10 10 10 l 72 0 c 5.54 0 10 -4.46 10 -10 l 0 -4 c 0 5.54 -4.46 10 -10 10 l -72 0 c -5.54 0 -10 -4.46 -10 -10 z" style="fill:#000;opacity:0.15;fill-opacity:1;stroke:none"/>
  <path d="m 24.25 1002.36 c -5.971 0 -12.251 6.279 -12.251 14 c 0 7.721 6.279 14 12.251 14 9.47 0 15.749 -6.279 15.749 -14 0 -7.721 -6.279 -14 -14 -14 z m 2.887 1.969 c 1.305 0.12 2.569 0.419 3.719 0.919 -0.088 0.11 -0.157 0.208 -0.219 0.394 -0.354 1.06 -0.881 0.555 -0.263 1.881 0.619 1.326 1.136 1.668 1.312 1.05 0.177 -0.618 -0.445 -1.491 0.263 -1.137 0.707 0.354 1.23 -0.096 0.7 0.701 -0.53 0.795 -0.519 1.227 -1.137 1.05 -0.619 -0.178 -0.606 1.048 -1.225 1.225 -0.619 0.176 -0.831 -0.267 -0.831 0.176 0 0.442 0.351 0.036 0.263 0.744 -0.027 0.216 -0.019 0.255 -0.044 0.35 -0.581 -0.166 -0.84 -0.258 -1.269 -0.09 -0.442 0.178 -0.962 1.313 -0.962 1.313 0.552 0.552 0.808 0.949 1.01 1.138 -0.124 0.062 -0.272 0.088 -0.394 0.176 -0.884 0.619 -1.572 0.735 -1.837 1.619 -0.265 0.885 -0.175 0.076 -0.175 1.137 0 1.061 -0.268 0.34 0.263 1.313 0.53 0.972 1.831 1.438 2.45 1.968 0.619 0.53 1.256 -1.154 2.494 0.438 1.237 1.591 1.317 0.953 0.875 1.838 -0.442 0.884 -0.873 1.178 -1.05 1.531 -0.177 0.353 0.344 1.572 0.963 1.837 0.013 0 0.03 0 0.044 0 -0.033 0.076 -0.055 0.144 -0.088 0.219 -0.801 0.364 -1.783 0.866 -1.969 0.918 -0.438 0.126 -1.981 0.387 -3.106 0.7 -0.141 0.04 -0.251 0.04 -0.306 0.046 0.14 -0.152 1.246 -0.73 1.794 -1.05 0.75 -0.438 -0.044 -0.394 -0.044 -0.394 0 0 -1.194 -0.134 -3.631 -0.134 -1.219 0 -1.747 0.054 -2.01 0.134 -0.133 0.04 -0.198 0.078 -0.263 0.132 -0.064 0.054 -0.109 0.112 -0.219 0.176 -0.438 0.25 0.256 0.512 -0.306 0.7 -0.422 0.14 -0.471 0 -0.831 -0.264 0.257 -0.256 0.612 -0.564 1.05 -1.094 0.795 -0.962 1.047 -0.787 1.312 -1.662 0.265 -0.875 -2.231 -0.612 -2.231 -1.138 0 -0.525 -0.43 -0.875 -1.225 -1.225 -0.795 -0.35 -0.254 -0.525 -1.138 -0.788 -0.884 -0.262 -1.879 1.312 -2.144 0.788 -0.265 -0.525 0.831 -0.525 0.831 -1.137 0 -0.598 -1.261 0.451 -1.488 -0.306 -0.006 -0.028 -0.039 -0.028 -0.044 -0.046 -0.022 -0.11 -0.008 -0.176 0 -0.262 0.056 -0.629 0.784 -0.875 1.094 -1.488 0.354 -0.699 0.171 0.526 0.613 1.138 0.442 0.613 0.265 -0.787 0 -1.575 -0.265 -0.788 0.169 -0.787 0.788 -1.837 0.619 -1.05 0.613 -1.663 0.613 -2.45 0 -0.787 0.429 -0.874 1.312 -1.663 0.405 -0.36 0.723 -0.675 0.962 -0.962 0.058 -0.028 0.116 -0.028 0.175 -0.046 0.938 -0.375 1.331 -0.937 2.144 -2.625 0.813 -1.687 -0.319 -0.112 -0.569 -0.174 -0.25 -0.062 -0.613 -0.506 -1.488 -1.01 -0.18 -0.104 -0.342 -0.152 -0.481 -0.174 l 1.619 -2.669 c 0.519 -0.14 1.075 -0.236 1.619 -0.306 0.199 1.132 0.088 2.188 0.088 2.188 0 0 -0.306 0.362 -0.306 0.612 0 0.25 1.675 -2.062 1.925 -2.187 0.25 -0.126 0.881 0.662 1.01 -0.525 0.007 -0.068 -0.008 -0.07 0 -0.132 z m 2.363 4.725 c -0.09 -0.028 -0.196 0 -0.306 0.046 0 0.309 -0.12 0.534 -0.175 0.656 -0.033 -0.056 -0.131 -0.132 -0.131 -0.132 -0.133 0.245 -0.419 0.46 -0.131 0.394 0.287 -0.064 0.505 0.112 0.306 -0.132 -0.038 -0.046 -0.02 -0.026 -0.044 -0.046 0.037 0.028 0.108 0.046 0.263 0.046 0.174 0 0.268 0 0.394 0 -0.213 0.158 -0.446 0.225 -0.131 0.306 0.42 0.11 0.613 0.132 0.613 0.046 0 -0.088 -0.131 -0.394 -0.131 -0.394 0.082 -0.034 0.158 -0.076 0.088 -0.219 -0.133 -0.264 -0.343 -0.527 -0.613 -0.569 z m 6.694 0.743 c 0.219 0.34 0.428 0.689 0.613 1.05 -0.122 0.706 -0.431 1.181 0.088 1.181 0.145 0 0.274 -0.032 0.394 -0.046 0.016 0.042 0.028 0.09 0.044 0.132 -0.884 0 -1.308 0.264 -1.75 0.176 -0.442 -0.09 -1.67 -0.168 -0.875 -0.962 0.465 -0.465 1.046 -1.204 1.487 -1.532 z m -5.512 1.619 c 0.081 0.026 0.152 0.11 0.219 0.261 0.265 0.619 0.704 1.137 0.35 1.225 -0.354 0.088 -0.525 0.176 -0.525 0.176 0 0 1.224 0.796 1.313 -0.088 0.088 -0.884 -0.35 -1.401 -0.35 -1.401 0 0 0.611 0.609 0.788 0.963 0.177 0.354 0.171 0 0.613 0.438 0.442 0.441 0.344 -1.757 0.962 -1.138 0.619 0.619 1.01 0.608 0.831 1.05 -0.177 0.442 1.138 -0.534 1.138 0.35 0 0.852 0.543 1.198 -0.525 1.619 -0.405 -0.028 -0.725 -0.096 -0.788 -0.219 -0.177 -0.353 -1.181 -0.088 -1.181 -0.088 -2.644 -0.661 -3.792 -0.87 -4.55 -0.744 0.014 -0.028 0.028 -0.028 0.044 -0.046 0.387 -0.697 1.114 -1.664 0.875 -2.01 0.337 -0.194 0.601 -0.407 0.788 -0.35 z m 7.438 4.418 c 0.008 0.178 0 0.346 0 0.525 0 0.498 -0.03 1.01 -0.088 1.487 -0.795 -0.707 -1.925 -0.7 -1.925 -0.7 0 0 0.69 -0.784 1.663 -1.138 0.122 -0.046 0.252 -0.104 0.35 -0.176 z" style="fill:#000;fill-opacity:0.098;color:#000"/>
  <path d="m 24.25 1000.36 c -5.971 0 -12.251 6.279 -12.251 14 c 0 7.721 6.279 14 12.251 14 9.47 0 15.749 -6.279 15.749 -14 0 -7.721 -6.279 -14 -14 -14 z m 2.887 1.969 c 1.305 0.12 2.569 0.419 3.719 0.919 -0.088 0.11 -0.157 0.208 -0.219 0.394 -0.354 1.06 -0.881 0.555 -0.263 1.881 0.619 1.326 1.136 1.668 1.312 1.05 0.177 -0.618 -0.445 -1.491 0.263 -1.137 0.707 0.354 1.23 -0.096 0.7 0.701 -0.53 0.795 -0.519 1.227 -1.137 1.05 -0.619 -0.178 -0.606 1.048 -1.225 1.225 -0.619 0.176 -0.831 -0.267 -0.831 0.176 0 0.442 0.351 0.036 0.263 0.744 -0.027 0.216 -0.019 0.255 -0.044 0.35 -0.581 -0.166 -0.84 -0.258 -1.269 -0.09 -0.442 0.178 -0.962 1.313 -0.962 1.313 0.552 0.552 0.808 0.949 1.01 1.138 -0.124 0.062 -0.272 0.088 -0.394 0.176 -0.884 0.619 -1.572 0.735 -1.837 1.619 -0.265 0.885 -0.175 0.076 -0.175 1.137 0 1.061 -0.268 0.34 0.263 1.313 0.53 0.972 1.831 1.438 2.45 1.968 0.619 0.53 1.256 -1.154 2.494 0.438 1.237 1.591 1.317 0.953 0.875 1.838 -0.442 0.884 -0.873 1.178 -1.05 1.531 -0.177 0.353 0.344 1.572 0.963 1.837 0.013 0 0.03 0 0.044 0 -0.033 0.076 -0.055 0.144 -0.088 0.219 -0.801 0.364 -1.783 0.866 -1.969 0.918 -0.438 0.126 -1.981 0.387 -3.106 0.7 -0.141 0.04 -0.251 0.04 -0.306 0.046 0.14 -0.152 1.246 -0.73 1.794 -1.05 0.75 -0.438 -0.044 -0.394 -0.044 -0.394 0 0 -1.194 -0.134 -3.631 -0.134 -1.219 0 -1.747 0.054 -2.01 0.134 -0.133 0.04 -0.198 0.078 -0.263 0.132 -0.064 0.054 -0.109 0.112 -0.219 0.176 -0.438 0.25 0.256 0.512 -0.306 0.7 -0.422 0.14 -0.471 0 -0.831 -0.264 0.257 -0.256 0.612 -0.564 1.05 -1.094 0.795 -0.962 1.047 -0.787 1.312 -1.662 0.265 -0.875 -2.231 -0.612 -2.231 -1.138 0 -0.525 -0.43 -0.875 -1.225 -1.225 -0.795 -0.35 -0.254 -0.525 -1.138 -0.788 -0.884 -0.262 -1.879 1.312 -2.144 0.788 -0.265 -0.525 0.831 -0.525 0.831 -1.137 0 -0.598 -1.261 0.451 -1.488 -0.306 -0.006 -0.028 -0.039 -0.028 -0.044 -0.046 -0.022 -0.11 -0.008 -0.176 0 -0.262 0.056 -0.629 0.784 -0.875 1.094 -1.488 0.354 -0.699 0.171 0.526 0.613 1.138 0.442 0.613 0.265 -0.787 0 -1.575 -0.265 -0.788 0.169 -0.787 0.788 -1.837 0.619 -1.05 0.613 -1.663 0.613 -2.45 0 -0.787 0.429 -0.874 1.312 -1.663 0.405 -0.36 0.723 -0.675 0.962 -0.962 0.058 -0.028 0.116 -0.028 0.175 -0.046 0.938 -0.375 1.331 -0.937 2.144 -2.625 0.813 -1.687 -0.319 -0.112 -0.569 -0.174 -0.25 -0.062 -0.613 -0.506 -1.488 -1.01 -0.18 -0.104 -0.342 -0.152 -0.481 -0.174 l 1.619 -2.669 c 0.519 -0.14 1.075 -0.236 1.619 -0.306 0.199 1.132 0.088 2.188 0.088 2.188 0 0 -0.306 0.362 -0.306 0.612 0 0.25 1.675 -2.062 1.925 -2.187 0.25 -0.126 0.881 0.662 1.01 -0.525 0.007 -0.068 -0.008 -0.07 0 -0.132 z m 2.363 4.725 c -0.09 -0.028 -0.196 0 -0.306 0.046 0 0.309 -0.12 0.534 -0.175 0.656 -0.033 -0.056 -0.131 -0.132 -0.131 -0.132 -0.133 0.245 -0.419 0.46 -0.131 0.394 0.287 -0.064 0.505 0.112 0.306 -0.132 -0.038 -0.046 -0.02 -0.026 -0.044 -0.046 0.037 0.028 0.108 0.046 0.263 0.046 0.174 0 0.268 0 0.394 0 -0.213 0.158 -0.446 0.225 -0.131 0.306 0.42 0.11 0.613 0.132 0.613 0.046 0 -0.088 -0.131 -0.394 -0.131 -0.394 0.082 -0.034 0.158 -0.076 0.088 -0.219 -0.133 -0.264 -0.343 -0.527 -0.613 -0.569 z m 6.694 0.743 c 0.219 0.34 0.428 0.689 0.613 1.05 -0.122 0.706 -0.431 1.181 0.088 1.181 0.145 0 0.274 -0.032 0.394 -0.046 0.016 0.042 0.028 0.09 0.044 0.132 -0.884 0 -1.308 0.264 -1.75 0.176 -0.442 -0.09 -1.67 -0.168 -0.875 -0.962 0.465 -0.465 1.046 -1.204 1.487 -1.532 z m -5.512 1.619 c 0.081 0.026 0.152 0.11 0.219 0.261 0.265 0.619 0.704 1.137 0.35 1.225 -0.354 0.088 -0.525 0.176 -0.525 0.176 0 0 1.224 0.796 1.313 -0.088 0.088 -0.884 -0.35 -1.401 -0.35 -1.401 0 0 0.611 0.609 0.788 0.963 0.177 0.354 0.171 0 0.613 0.438 0.442 0.441 0.344 -1.757 0.962 -1.138 0.619 0.619 1.01 0.608 0.831 1.05 -0.177 0.442 1.138 -0.534 1.138 0.35 0 0.852 0.543 1.198 -0.525 1.619 -0.405 -0.028 -0.725 -0.096 -0.788 -0.219 -0.177 -0.353 -1.181 -0.088 -1.181 -0.088 -2.644 -0.661 -3.792 -0.87 -4.55 -0.744 0.014 -0.028 0.028 -0.028 0.044 -0.046 0.387 -0.697 1.114 -1.664 0.875 -2.01 0.337 -0.194 0.601 -0.407 0.788 -0.35 z m 7.438 4.418 c 0.008 0.178 0 0.346 0 0.525 0 0.498 -0.03 1.01 -0.088 1.487 -0.795 -0.707 -1.925 -0.7 -1.925 -0.7 0 0 0.69 -0.784 1.663 -1.138 0.122 -0.046 0.252 -0.104 0.35 -0.176 z" style="fill:#fff8e1;fill-opacity:1;color:#000"/>
 </g>
</svg>
