<!-- Created with Inkscape (http://www.inkscape.org/) -->
<svg xmlns="http://www.w3.org/2000/svg" viewBox="0 0 96 96">
 <g transform="translate(0,-956.3622)">
  <g transform="matrix(2,0,0,1.9999963,0,-1052.3585)" style="opacity:0.5">
   <rect ry="2.344" rx="2.283" y="1015.36" x="6" height="15" width="21" style="fill:#ffb300;fill-opacity:1;stroke:none"/>
   <path d="m 8.283 1015.36 c -1.265 0 -2.283 1 -2.283 2.5 l 0 1 c 0 -1.385 1.018 -2.5 2.283 -2.5 l 16.435 0 c 1.265 0 2.283 1.115 2.283 2.5 l 0 -1 c 0 -1.385 -1.018 -2.5 -2.283 -2.5 z" style="fill:#fff;opacity:0.2;fill-opacity:1;stroke:none"/>
   <path d="m 8.283 1019.36 3.652 0 c 5.02 -0.472 4.109 -6 7.304 -6 l 5.478 0 c 1.265 0 2.283 1.053 2.283 2.361 l 0 12.278 c 0 1.308 -1.018 2.361 -2.283 2.361 l -16.435 0 c -1.265 0 -2.283 -1.053 -2.283 -2.361 l 0 -6.611 c 0 -1.417 0.913 -2.028 2.283 -2.028 z" style="fill:#ffca28;fill-opacity:1;stroke:none"/>
   <path d="m 6 1027.17 0 0.913 c 0 1.265 1.018 2.283 2.283 2.283 l 16.435 0 c 1.265 0 2.283 -1.018 2.283 -2.283 l 0 -0.913 c 0 1.265 -1.018 2.196 -2.283 2.196 l -16.435 0 c -1.265 0 -2.283 -0.931 -2.283 -2.196 z" style="fill:#000;opacity:0.15;fill-opacity:1;stroke:none"/>
  </g>
  <rect width="42" height="30" x="42" y="1004.36" rx="4.565" ry="4.688" style="fill:#ffb300;fill-opacity:1;stroke:none"/>
  <path d="m 46.565 1004.36 c -2.529 0 -4.565 2 -4.565 5 l 0 2 c 0 -2.77 2.036 -5 4.565 -5 l 32.87 0 c 2.529 0 4.565 2.23 4.565 5 l 0 -2 c 0 -2.77 -2.036 -5 -4.565 -5 z" style="fill:#fff;opacity:0.2;fill-opacity:1;stroke:none"/>
  <path d="m 46.565 1012.36 7.304 0 c 10.04 -0.944 8.217 -12 14.609 -12 l 10.957 0 c 2.529 0 4.565 2.106 4.565 4.722 l 0 24.556 c 0 2.616 -2.036 4.722 -4.565 4.722 l -32.87 0 c -2.529 0 -4.565 -2.106 -4.565 -4.722 l 0 -13.222 c 0 -2.833 1.826 -4.056 4.565 -4.056 z" style="fill:#ffca28;fill-opacity:1;stroke:none"/>
  <path d="m 42 1027.97 0 1.826 c 0 2.529 2.036 4.565 4.565 4.565 l 32.87 0 c 2.529 0 4.565 -2.036 4.565 -4.565 l 0 -1.826 c 0 2.529 -2.036 4.391 -4.565 4.391 l -32.87 0 c -2.529 0 -4.565 -1.862 -4.565 -4.391 z" style="fill:#000;opacity:0.15;fill-opacity:1;stroke:none"/>
 </g>
</svg>
