<?xml version="1.0" encoding="UTF-8" standalone="no"?>
<!-- Created with Inkscape (http://www.inkscape.org/) -->

<svg
   xmlns:dc="http://purl.org/dc/elements/1.1/"
   xmlns:cc="http://creativecommons.org/ns#"
   xmlns:rdf="http://www.w3.org/1999/02/22-rdf-syntax-ns#"
   xmlns:svg="http://www.w3.org/2000/svg"
   xmlns="http://www.w3.org/2000/svg"
   xmlns:xlink="http://www.w3.org/1999/xlink"
   xmlns:sodipodi="http://sodipodi.sourceforge.net/DTD/sodipodi-0.dtd"
   xmlns:inkscape="http://www.inkscape.org/namespaces/inkscape"
   width="96"
   height="96"
   id="svg2"
   version="1.1"
   inkscape:version="0.91 r"
   sodipodi:docname="yellow-folder-open.svg">
  <defs
     id="defs4">
    <radialGradient
       r="24"
       fy="40.5"
       fx="24"
       cy="40.5"
       cx="24"
       gradientTransform="matrix(2.5,0,0,0.41666633,-12,1019.4872)"
       gradientUnits="userSpaceOnUse"
       id="radialGradient3085"
       xlink:href="#linearGradient3886"
       inkscape:collect="always" />
    <linearGradient
       id="linearGradient3886">
      <stop
         style="stop-color:#000000;stop-opacity:1;"
         offset="0"
         id="stop3888" />
      <stop
         style="stop-color:#000000;stop-opacity:0.19607843;"
         offset="1"
         id="stop3890" />
    </linearGradient>
  </defs>
  <sodipodi:namedview
     id="base"
     pagecolor="#ffffff"
     bordercolor="#666666"
     borderopacity="1.0"
     inkscape:pageopacity="0.0"
     inkscape:pageshadow="2"
     inkscape:zoom="8.8149999"
     inkscape:cx="49.030584"
     inkscape:cy="37.353746"
     inkscape:document-units="px"
     inkscape:current-layer="layer1"
     showgrid="true"
     inkscape:window-width="1280"
     inkscape:window-height="998"
     inkscape:window-x="0"
     inkscape:window-y="0"
     inkscape:window-maximized="1">
    <inkscape:grid
       type="xygrid"
       id="grid2990"
       empspacing="5"
       visible="true"
       enabled="true"
       snapvisiblegridlinesonly="true" />
  </sodipodi:namedview>
  <metadata
     id="metadata7">
    <rdf:RDF>
      <cc:Work
         rdf:about="">
        <dc:format>image/svg+xml</dc:format>
        <dc:type
           rdf:resource="http://purl.org/dc/dcmitype/StillImage" />
        <dc:title />
      </cc:Work>
    </rdf:RDF>
  </metadata>
  <g
     inkscape:label="Body"
     inkscape:groupmode="layer"
     id="layer1"
     transform="translate(0,-956.3622)">
    <rect
       style="fill:#ffb300;fill-opacity:1;stroke:none"
       id="rect2987-0"
       width="92"
       height="64.000008"
       x="2"
       y="976.36218"
       rx="10"
       ry="9.9999952" />
    <g
       id="g3836"
       style="opacity:0.6;fill:#fff1ed;fill-opacity:1"
       transform="matrix(2,0,0,1.999999,-24,-1038.3612)">
      <rect
         ry="1.5644517e-05"
         y="1017.3622"
         x="20"
         height="18"
         width="8"
         id="rect3832"
         style="fill:#fff1ed;fill-opacity:1;stroke:none" />
      <path
         sodipodi:nodetypes="ccccccc"
         inkscape:connector-curvature="0"
         id="path3834"
         d="m 22,1017.3622 -6,0 8,-8 8,8 -6,0 -2,2 z"
         style="fill:#fff1ed;fill-opacity:1;stroke:none" />
    </g>
    <path
       style="opacity:0.2;fill:#ffffff;fill-opacity:1;stroke:none"
       d="m 12,976.36223 c -5.54,0 -10,4.46 -10,10 l 0,4 c 0,-5.54 4.46,-10 10,-10 l 72,0 c 5.54,0 10,4.46 10,10 l 0,-4 c 0,-5.54 -4.46,-10 -10,-10 l -72,0 z"
       id="rect3797"
       inkscape:connector-curvature="0" />
    <path
       inkscape:connector-curvature="0"
       style="opacity:0.1;fill:url(#radialGradient3085);fill-opacity:1;stroke:none"
       d="m 48,1026.3622 c -19.653098,0 -37.055941,1.5662 -48,4 l 0,12 c 10.944059,2.4338 28.346902,4 48,4 19.653098,0 37.05594,-1.5662 48,-4 l 0,-12 c -10.94406,-2.4338 -28.346902,-4 -48,-4 z"
       id="path3868" />
    <path
       style="fill:#ffca28;fill-opacity:1;stroke:none"
       d="m 12,1004.3622 16,0 c 22,-1.5 18,-17.99997 32,-17.99997 l 24,0 c 5.54,0 10,3.345 10,7.5 l 0,38.99997 c 0,4.155 -4.46,7.5 -10,7.5 l -72,0 c -5.54,0 -10,-3.345 -10,-7.5 l 0,-21 c 0,-4.5 4,-7.5 10,-7.5 z"
       id="rect3776"
       inkscape:connector-curvature="0"
       sodipodi:nodetypes="cccsssssscc" />
    <path
       style="opacity:0.15;fill:#000000;fill-opacity:1;stroke:none"
       d="m 2,1029.7882 0,3.0212 c 0,4.1842 4.46,7.5528 10,7.5528 l 72,0 c 5.54,0 10,-3.3686 10,-7.5528 l 0,-3.0212 c 0,4.1842 -4.46,7.5528 -10,7.5528 l -72,0 c -5.54,0 -10,-3.3686 -10,-7.5528 z"
       id="path3786"
       inkscape:connector-curvature="0" />
  </g>
</svg>
