<?xml version="1.0" encoding="UTF-8" standalone="no"?>
<svg
   xmlns:dc="http://purl.org/dc/elements/1.1/"
   xmlns:cc="http://creativecommons.org/ns#"
   xmlns:rdf="http://www.w3.org/1999/02/22-rdf-syntax-ns#"
   xmlns:svg="http://www.w3.org/2000/svg"
   xmlns="http://www.w3.org/2000/svg"
   xmlns:sodipodi="http://sodipodi.sourceforge.net/DTD/sodipodi-0.dtd"
   xmlns:inkscape="http://www.inkscape.org/namespaces/inkscape"
   width="64"
   height="64"
   viewBox="0 0 64 64"
   id="svg2"
   version="1.1"
   inkscape:version="0.91 r"
   sodipodi:docname="blue-user-desktop.svg">
  <metadata
     id="metadata20">
    <rdf:RDF>
      <cc:Work
         rdf:about="">
        <dc:format>image/svg+xml</dc:format>
        <dc:type
           rdf:resource="http://purl.org/dc/dcmitype/StillImage" />
      </cc:Work>
    </rdf:RDF>
  </metadata>
  <defs
     id="defs18" />
  <sodipodi:namedview
     pagecolor="#ffffff"
     bordercolor="#666666"
     borderopacity="1"
     objecttolerance="10"
     gridtolerance="10"
     guidetolerance="10"
     inkscape:pageopacity="0"
     inkscape:pageshadow="2"
     inkscape:window-width="1280"
     inkscape:window-height="998"
     id="namedview16"
     showgrid="false"
     inkscape:zoom="7.375"
     inkscape:cx="9.4916912"
     inkscape:cy="20.480221"
     inkscape:window-x="0"
     inkscape:window-y="0"
     inkscape:window-maximized="1"
     inkscape:current-layer="svg2" />
  <path
     style="fill:#42a5f5;fill-opacity:1;stroke:none"
     d="M 9,8 C 7.536083,8 6,9.5112221 6,11 l 0,1 -3,0 c -1.470099,0 -3,1.49533 -3,3 l 0,38 c 0,2 1,3 3,3 l 58,0 c 1.567614,0 3,-1.358342 3,-3 l 0,-33 c 0,-1.504928 -1.455038,-3 -3,-3 l -3,0 0,-6 C 58,9.5388435 56.546781,8 55,8 z"
     id="path6"
     inkscape:connector-curvature="0"
     sodipodi:nodetypes="ssccssssscccsss" />
  <path
     inkscape:connector-curvature="0"
     style="fill:#000000;fill-opacity:0.32156863;stroke:none"
     d="M 9,8 C 7.536083,8 6,9.5112221 6,11 l 0,1 -3,0 c -1.470099,0 -3,1.49533 -3,3 l 0,38 c 0,2 1,3 3,3 l 58,0 c 1.567614,0 3,-1.358342 3,-3 l 0,-33 c 0,-1.504928 -1.455038,-3 -3,-3 l -3,0 0,-6 C 58,9.5388435 56.546781,8 55,8 L 9,8 z m -6,6 34,0 c 0.590175,0 1,0.51477 1,1 l 0,4 23,0 c 0.505551,0 1,0.508742 1,1 l 0,33 c 0,0.521292 -0.478766,1 -1,1 L 3,54 C 2.535705,54 2,53.603654 2,53 L 2,15 c 0,-0.492405 0.516528,-1 1,-1 z"
     id="path3778" />
  <path
     style="opacity:1;fill:#000000;fill-opacity:0.32156863000000002"
     d="M 22 23 C 19.784 23 18 24.784 18 27 L 18 41 C 18 43.216 19.784 45 22 45 L 28 45 L 24 49 C 22 51 22 51 24 51 L 40 51 C 42 51 42 51 40 49 L 36 45 L 42 45 C 44.216 45 46 43.216 46 41 L 46 27 C 46 24.784 44.216 23 42 23 L 22 23 z M 22 27 L 42 27 L 42 41 L 22 41 L 22 27 z M 27 29 C 27 29 24.999867 29 25 31 L 25 37 C 25.000133 39 27 39 27 39 L 33 39 C 35 39 35 37 35 37 L 35 33 L 31 29 L 27 29 z M 27 31 L 30 31 L 30 34 L 33 34 L 33 37 L 27 37 L 27 31 z "
     id="path8" />
</svg>
