<?xml version="1.0" encoding="UTF-8" standalone="no"?>
<svg
   xmlns:dc="http://purl.org/dc/elements/1.1/"
   xmlns:cc="http://creativecommons.org/ns#"
   xmlns:rdf="http://www.w3.org/1999/02/22-rdf-syntax-ns#"
   xmlns:svg="http://www.w3.org/2000/svg"
   xmlns="http://www.w3.org/2000/svg"
   xmlns:sodipodi="http://sodipodi.sourceforge.net/DTD/sodipodi-0.dtd"
   xmlns:inkscape="http://www.inkscape.org/namespaces/inkscape"
   width="64"
   height="64"
   viewBox="0 0 64 64"
   id="svg2"
   version="1.1"
   inkscape:version="0.48.5 r10040"
   sodipodi:docname="folder-move.svg">
  <metadata
     id="metadata32">
    <rdf:RDF>
      <cc:Work
         rdf:about="">
        <dc:format>image/svg+xml</dc:format>
        <dc:type
           rdf:resource="http://purl.org/dc/dcmitype/StillImage" />
      </cc:Work>
    </rdf:RDF>
  </metadata>
  <sodipodi:namedview
     pagecolor="#ffffff"
     bordercolor="#666666"
     borderopacity="1"
     objecttolerance="10"
     gridtolerance="10"
     guidetolerance="10"
     inkscape:pageopacity="0"
     inkscape:pageshadow="2"
     inkscape:window-width="1280"
     inkscape:window-height="969"
     id="namedview30"
     showgrid="true"
     showguides="true"
     inkscape:guide-bbox="true"
     inkscape:zoom="10.429825"
     inkscape:cx="27.767979"
     inkscape:cy="30.941415"
     inkscape:window-x="0"
     inkscape:window-y="0"
     inkscape:window-maximized="1"
     inkscape:current-layer="svg2">
    <inkscape:grid
       type="xygrid"
       id="grid3009" />
  </sodipodi:namedview>
  <defs
     id="defs4">
    <clipPath
       id="clip1">
      <rect
         width="64"
         height="64"
         id="rect7" />
    </clipPath>
    <filter
       width="100%"
       x="0"
       y="0"
       height="100%"
       filterUnits="objectBoundingBox"
       id="alpha">
      <feColorMatrix
         values="0 0 0 0 1 0 0 0 0 1 0 0 0 0 1 0 0 0 1 0"
         in="SourceGraphic"
         type="matrix"
         id="feColorMatrix10" />
    </filter>
    <g
       style="clip-path:url(#clip1)"
       id="surface6"
       clip-path="url(#clip1)">
      <path
         style="fill:#a57953;stroke:#a57953"
         d="M 3.007812 17.5 C 2.730469 17.472656 2.496094 17.185547 2.5 16.876953 L 2.5 5.123047 C 2.5 4.798828 2.767578 4.5 3.0625 4.5 L 16.9375 4.5 C 17.230469 4.5 17.5 4.798828 17.5 5.123047 L 17.5 15.791016 C 17.5 16.113281 17.230469 16.408203 16.9375 16.408203 L 11.517578 16.408203 L 11.517578 16.876953 C 11.517578 17.205078 11.25 17.5 10.955078 17.5 L 3.0625 17.5 C 3.042969 17.5 3.023438 17.5 3.007812 17.5 Z "
         transform="scale(2)"
         id="path13" />
      <path
         style="fill:#a57953;stroke:#a57953"
         d="M 1.142578 6.5 C 0.792969 6.527344 0.496094 6.814453 0.5 7.123047 L 0.5 18.876953 C 0.5 19.201172 0.837891 19.5 1.212891 19.5 L 18.787109 19.5 C 19.158203 19.5 19.5 19.201172 19.5 18.876953 L 19.5 8.208984 C 19.5 7.886719 19.158203 7.591797 18.787109 7.591797 L 11.921875 7.591797 L 11.921875 7.123047 C 11.921875 6.794922 11.583984 6.5 11.208984 6.5 L 1.212891 6.5 C 1.1875 6.5 1.164062 6.5 1.142578 6.5 Z "
         transform="scale(2)"
         id="path15" />
    </g>
    <mask
       id="mask0">
      <g
         style="filter:url(#alpha)"
         id="g18">
        <rect
           width="64"
           x="0"
           y="0"
           height="64"
           style="fill:#000;fill-opacity:.502"
           id="rect20" />
      </g>
    </mask>
  </defs>
  <path
     style="opacity:0.5;fill:replacecolour1;fill-opacity:1;stroke:none"
     d="M 9,8 C 7.536083,8 6,9.560499 6,11 l -1,0 -2,0 c -1.470099,0 -3,1.49533 -3,3 l 0,24 c 0,2 1,3 3,3 l 37,0 c 1.567614,0 3,-1.358342 3,-3 l 0,-21 c 0,-1.504928 -1.455038,-3 -3,-3 l -2,0 0,-3 C 38,9.538844 36.546781,8 35,8 z"
     id="path6-8"
     inkscape:connector-curvature="0"
     sodipodi:nodetypes="scccssssscccsss" />
  <path
     inkscape:connector-curvature="0"
     style="opacity:0.5;fill:replacecolour3;fill-opacity:1.;stroke:none"
     d="M 9,8 C 7.536083,8 6,9.526901 6,11 6,11 5.333333,11 5,11 4.333333,11 3,11 3,11 1.529901,11 0,12.49533 0,14 l 0,24 c 0,2 1,3 3,3 l 37,0 c 1.567614,0 3,-1.358342 3,-3 l 0,-21 c 0,-1.504928 -1.455038,-3 -3,-3 l -2,0 0,-3 C 38,9.538844 36.546781,8 35,8 z m -6,5 21,0 c 0.590175,0 1,0.51477 1,1 l 0,2 15,0 c 0.505551,0 1,0.508742 1,1 l 0,21 c 0,0.521292 -0.478766,1 -1,1 L 3,39 C 2.535705,39 2,38.603654 2,38 L 2,14 c 0,-0.492405 0.516529,-1 1,-1 z"
     id="path3778-8"
     sodipodi:nodetypes="sccsssssssscsssssscssssssss" />
  <path
     style="fill:replacecolour1;fill-opacity:1;stroke:none"
     d="m 30,23 c -1.463917,0 -3,1.560499 -3,3 l -1,0 -2,0 c -1.470099,0 -3,1.49533 -3,3 l 0,24 c 0,2 1,3 3,3 l 37,0 c 1.567614,0 3,-1.358342 3,-3 l 0,-21 c 0,-1.504928 -1.455038,-3 -3,-3 l -2,0 0,-3 c 0,-1.461156 -1.453219,-3 -3,-3 z"
     id="path6"
     inkscape:connector-curvature="0"
     sodipodi:nodetypes="scccssssscccsss" />
  <path
     inkscape:connector-curvature="0"
     style="fill:replacecolour3;fill-opacity:1.;stroke:none"
     d="m 30,23 c -1.463917,0 -3,1.526901 -3,3 0,0 -0.666667,0 -1,0 -0.666667,0 -2,0 -2,0 -1.470099,0 -3,1.49533 -3,3 l 0,24 c 0,2 1,3 3,3 l 37,0 c 1.567614,0 3,-1.358342 3,-3 l 0,-21 c 0,-1.504928 -1.455038,-3 -3,-3 l -2,0 0,-3 c 0,-1.461156 -1.453219,-3 -3,-3 z m -6,5 21,0 c 0.590175,0 1,0.51477 1,1 l 0,2 15,0 c 0.505551,0 1,0.508742 1,1 l 0,21 c 0,0.521292 -0.478766,1 -1,1 l -37,0 c -0.464295,0 -1,-0.396346 -1,-1 l 0,-24 c 0,-0.492405 0.516529,-1 1,-1 z"
     id="path3778"
     sodipodi:nodetypes="sccsssssssscsssssscssssssss" />
</svg>
