<?xml version="1.0" encoding="UTF-8" standalone="no"?>
<svg
   xmlns:dc="http://purl.org/dc/elements/1.1/"
   xmlns:cc="http://creativecommons.org/ns#"
   xmlns:rdf="http://www.w3.org/1999/02/22-rdf-syntax-ns#"
   xmlns:svg="http://www.w3.org/2000/svg"
   xmlns="http://www.w3.org/2000/svg"
   xmlns:sodipodi="http://sodipodi.sourceforge.net/DTD/sodipodi-0.dtd"
   xmlns:inkscape="http://www.inkscape.org/namespaces/inkscape"
   width="64"
   height="64"
   viewBox="0 0 64 64"
   id="svg2"
   version="1.1"
   inkscape:version="0.48.5 r10040"
   sodipodi:docname="folder-music.svg">
  <metadata
     id="metadata16">
    <rdf:RDF>
      <cc:Work
         rdf:about="">
        <dc:format>image/svg+xml</dc:format>
        <dc:type
           rdf:resource="http://purl.org/dc/dcmitype/StillImage" />
      </cc:Work>
    </rdf:RDF>
  </metadata>
  <defs
     id="defs14" />
  <sodipodi:namedview
     pagecolor="#ffffff"
     bordercolor="#666666"
     borderopacity="1"
     objecttolerance="10"
     gridtolerance="10"
     guidetolerance="10"
     inkscape:pageopacity="0"
     inkscape:pageshadow="2"
     inkscape:window-width="1280"
     inkscape:window-height="998"
     id="namedview12"
     showgrid="true"
     inkscape:zoom="5.2149125"
     inkscape:cx="-20.539202"
     inkscape:cy="20.244293"
     inkscape:window-x="0"
     inkscape:window-y="0"
     inkscape:window-maximized="1"
     inkscape:current-layer="svg2">
    <inkscape:grid
       type="xygrid"
       id="grid3001" />
  </sodipodi:namedview>
  <path
     style="fill:#7e57c2;fill-opacity:1;stroke:none"
     d="M 9,8 C 7.5360831,8 6,9.511223 6,11 l 0,1 -3,0 c -1.4700989,0 -3,1.49533 -3,3 l 0,38 c 0,2 0.99999998,3 3,3 l 58,0 c 1.567614,0 3,-1.358342 3,-3 l 0,-33 c 0,-1.504928 -1.455038,-3 -3,-3 l -3,0 0,-6 C 58,9.538844 56.546781,8 55,8 z"
     id="path6"
     inkscape:connector-curvature="0"
     sodipodi:nodetypes="ssccssssscccsss" />
  <path
     inkscape:connector-curvature="0"
     style="fill:#000000;fill-opacity:0.32156863;stroke:none"
     d="M 9,8 C 7.5360831,8 6,9.511223 6,11 l 0,1 -3,0 c -1.4700989,0 -3,1.49533 -3,3 l 0,38 c 0,2 0.99999998,3 3,3 l 58,0 c 1.567614,0 3,-1.358342 3,-3 l 0,-33 c 0,-1.504928 -1.455038,-3 -3,-3 l -3,0 0,-6 C 58,9.538844 56.546781,8 55,8 L 9,8 z m -6,6 34,0 c 0.590175,0 1,0.51477 1,1 l 0,4 23,0 c 0.505551,0 1,0.508742 1,1 l 0,33 c 0,0.521292 -0.478766,1 -1,1 L 3,54 C 2.5357049,54 2,53.603654 2,53 L 2,15 c 0,-0.492405 0.5165286,-1 1,-1 z"
     id="path3778" />
  <path
     style="opacity:1;fill:#000000;fill-opacity:0.32156863000000002;stroke:none"
     d="M 28 25 C 25.784 25 24 26.74742 24 28.90625 L 24 29.09375 C 24 29.245277 24.04539 29.384325 24.0625 29.53125 C 24.027657 29.682526 24 29.837263 24 30 L 24 41 C 21.790861 41 20 42.790861 20 45 C 20 47.209139 21.790861 49 24 49 C 26.0495 49 27.704028 47.455517 27.9375 45.46875 C 27.955685 45.313998 28 45.159639 28 45 L 28 33 L 40 33 L 40 41 C 37.790861 41 36 42.790861 36 45 C 36 47.209139 37.790861 49 40 49 C 42.209139 49 44 47.209139 44 45 L 44 29.09375 L 44 29 C 44 28.968226 44.001451 28.937652 44 28.90625 C 44 26.74742 42.216 25 40 25 L 28 25 z "
     id="path3001" />
</svg>
