<?xml version="1.0" encoding="UTF-8" standalone="no"?>
<!-- Created with Inkscape (http://www.inkscape.org/) -->

<svg
   xmlns:dc="http://purl.org/dc/elements/1.1/"
   xmlns:cc="http://creativecommons.org/ns#"
   xmlns:rdf="http://www.w3.org/1999/02/22-rdf-syntax-ns#"
   xmlns:svg="http://www.w3.org/2000/svg"
   xmlns="http://www.w3.org/2000/svg"
   xmlns:sodipodi="http://sodipodi.sourceforge.net/DTD/sodipodi-0.dtd"
   xmlns:inkscape="http://www.inkscape.org/namespaces/inkscape"
   width="64"
   height="64"
   id="svg2"
   version="1.1"
   inkscape:version="0.91 r"
   sodipodi:docname="purple-folder-cloud.svg"
   inkscape:export-filename="/media/Data/Main/Visuals/Icons/Numix/Desktop/repos/numix-wiki/Gjorgi/Numix-folders/48/New/folder-144.png"
   inkscape:export-xdpi="270"
   inkscape:export-ydpi="270">
  <defs
     id="defs4" />
  <sodipodi:namedview
     id="base"
     pagecolor="#ffffff"
     bordercolor="#666666"
     borderopacity="1.0"
     inkscape:pageopacity="0.0"
     inkscape:pageshadow="2"
     inkscape:zoom="10.551073"
     inkscape:cx="28.375202"
     inkscape:cy="24.122947"
     inkscape:document-units="px"
     inkscape:current-layer="layer1"
     showgrid="true"
     inkscape:window-width="1280"
     inkscape:window-height="998"
     inkscape:window-x="0"
     inkscape:window-y="0"
     inkscape:window-maximized="1"
     showguides="true"
     inkscape:guide-bbox="true"
     inkscape:snap-object-midpoints="true">
    <inkscape:grid
       type="xygrid"
       id="grid2985"
       empspacing="5"
       visible="true"
       enabled="true"
       snapvisiblegridlinesonly="true" />
  </sodipodi:namedview>
  <metadata
     id="metadata7">
    <rdf:RDF>
      <cc:Work
         rdf:about="">
        <dc:format>image/svg+xml</dc:format>
        <dc:type
           rdf:resource="http://purl.org/dc/dcmitype/StillImage" />
        <dc:title />
      </cc:Work>
    </rdf:RDF>
  </metadata>
  <g
     inkscape:label="Layer 1"
     inkscape:groupmode="layer"
     id="layer1"
     transform="translate(0,-988.3622)">
    <path
       style="fill:#7e57c2;fill-opacity:1;stroke:none"
       d="m 9,996.3622 c -1.4639174,0 -3.0000005,1.5112 -3.0000005,3 l 0,1 -2.9999995,0 c -1.470099,0 -3,1.4953 -3,3 l 0,38 c 0,2 1,3 3,3 l 58,0 c 1.567614,0 3,-1.3583 3,-3 l 0,-33 c 0,-1.5049 -1.455038,-3 -3,-3 l -3,0 0,-6 c 0,-1.4612 -1.453219,-3 -3,-3 z"
       id="path6"
       inkscape:connector-curvature="0"
       sodipodi:nodetypes="ssccssssscccsss" />
    <path
       inkscape:connector-curvature="0"
       style="fill:#000000;fill-opacity:0.32156863;stroke:none"
       d="m 9,996.3622 c -1.4639174,0 -3.0000005,1.5112 -3.0000005,3 l 0,1 -2.9999995,0 c -1.470099,0 -3,1.4953 -3,3 l 0,38 c 0,2 1,3 3,3 l 58,0 c 1.567614,0 3,-1.3583 3,-3 l 0,-33 c 0,-1.5049 -1.455038,-3 -3,-3 l -3,0 0,-6 c 0,-1.4612 -1.453219,-3 -3,-3 l -46,0 z m -6,6 34,0 c 0.590175,0 1,0.5148 1,1 l 0,4 23,0 c 0.505551,0 1,0.5087 1,1 l 0,33 c 0,0.5213 -0.478766,1 -1,1 l -58,0 c -0.464296,0 -1,-0.3963 -1,-1 l 0,-38 c 0,-0.4924 0.516528,-1 1,-1 z"
       id="path3778" />
    <path
       style="opacity:1;fill:#000000;fill-opacity:0.32156864000000002;stroke:none"
       d="m 29,1015.3617 a 7,6.9999592 0 0 0 -7,7 7,6.9999592 0 0 0 0.65625,3 l -0.65625,0 0,0.094 a 4.9999998,5.0000584 0 0 0 -4,4.9062 4.9999998,5.0000584 0 0 0 4,4.9063 l 0,0.094 1,0 0.34375,0 18.65625,0 0,-0.094 a 4.9999998,4.9999958 0 0 0 4,-4.9063 4.9999998,4.9999958 0 0 0 -4,-4.9062 l 0,-0.094 -1,0 a 4.9999998,4.9999958 0 0 0 1,-3 4.9999998,4.9999958 0 0 0 -5,-5 4.9999998,4.9999958 0 0 0 -2.53125,0.6875 A 7,6.9999592 0 0 0 29,1015.3617 z"
       id="path3102"
       inkscape:connector-curvature="0" />
  </g>
</svg>
