<?xml version="1.0" encoding="UTF-8" standalone="no"?>
<svg
   xmlns:dc="http://purl.org/dc/elements/1.1/"
   xmlns:cc="http://creativecommons.org/ns#"
   xmlns:rdf="http://www.w3.org/1999/02/22-rdf-syntax-ns#"
   xmlns:svg="http://www.w3.org/2000/svg"
   xmlns="http://www.w3.org/2000/svg"
   xmlns:sodipodi="http://sodipodi.sourceforge.net/DTD/sodipodi-0.dtd"
   xmlns:inkscape="http://www.inkscape.org/namespaces/inkscape"
   width="64"
   height="64"
   viewBox="0 0 64 64"
   id="svg2"
   version="1.1"
   inkscape:version="0.91 r"
   sodipodi:docname="red-folder-copy.svg">
  <metadata
     id="metadata20">
    <rdf:RDF>
      <cc:Work
         rdf:about="">
        <dc:format>image/svg+xml</dc:format>
        <dc:type
           rdf:resource="http://purl.org/dc/dcmitype/StillImage" />
      </cc:Work>
    </rdf:RDF>
  </metadata>
  <defs
     id="defs18" />
  <sodipodi:namedview
     pagecolor="#ffffff"
     bordercolor="#666666"
     borderopacity="1"
     objecttolerance="10"
     gridtolerance="10"
     guidetolerance="10"
     inkscape:pageopacity="0"
     inkscape:pageshadow="2"
     inkscape:window-width="1280"
     inkscape:window-height="969"
     id="namedview16"
     showgrid="false"
     inkscape:zoom="7.375"
     inkscape:cx="17.553114"
     inkscape:cy="45.461168"
     inkscape:window-x="0"
     inkscape:window-y="0"
     inkscape:window-maximized="1"
     inkscape:current-layer="svg2" />
  <path
     style="opacity:1;fill:#ef5350;fill-opacity:1;stroke:none"
     d="M 9,8 C 7.536083,8 6,9.560499 6,11 l -1,0 -2,0 c -1.470099,0 -3,1.49533 -3,3 l 0,24 c 0,2 1,3 3,3 l 37,0 c 1.567614,0 3,-1.358342 3,-3 l 0,-21 c 0,-1.504928 -1.455038,-3 -3,-3 l -2,0 0,-3 C 38,9.538844 36.546781,8 35,8 z"
     id="path6-8"
     inkscape:connector-curvature="0"
     sodipodi:nodetypes="scccssssscccsss" />
  <path
     inkscape:connector-curvature="0"
     style="opacity:1;fill:#000000;fill-opacity:0.32156863000000002;stroke:none"
     d="M 9,8 C 7.536083,8 6,9.526901 6,11 6,11 5.333333,11 5,11 4.333333,11 3,11 3,11 1.529901,11 0,12.49533 0,14 l 0,24 c 0,2 1,3 3,3 l 37,0 c 1.567614,0 3,-1.358342 3,-3 l 0,-21 c 0,-1.504928 -1.455038,-3 -3,-3 l -2,0 0,-3 C 38,9.538844 36.546781,8 35,8 z m -6,5 21,0 c 0.590175,0 1,0.51477 1,1 l 0,2 15,0 c 0.505551,0 1,0.508742 1,1 l 0,21 c 0,0.521292 -0.478766,1 -1,1 L 3,39 C 2.535705,39 2,38.603654 2,38 L 2,14 c 0,-0.492405 0.516529,-1 1,-1 z"
     id="path3778-8"
     sodipodi:nodetypes="sccsssssssscsssssscssssssss" />
  <path
     style="opacity:1;fill:#000000;fill-opacity:0.10196079;stroke:none"
     d="M 9 8 C 8.8170104 8 8.6196037 8.0170186 8.4375 8.0625 C 8.0732926 8.1517567 7.7292204 8.3317777 7.40625 8.5625 C 7.2382004 8.6825507 7.0840419 8.8205653 6.9375 8.96875 C 6.7957474 9.1112656 6.6782378 9.2445264 6.5625 9.40625 C 6.4467622 9.5676455 6.3334407 9.7310992 6.25 9.90625 C 6.2462861 9.9138518 6.2536465 9.92988 6.25 9.9375 C 6.1726887 10.10401 6.1050149 10.264327 6.0625 10.4375 C 6.0600397 10.44693 6.0648466 10.459312 6.0625 10.46875 C 6.0222733 10.641678 6 10.825968 6 11 L 5 11 L 3 11 C 1.529901 11 0 12.49533 0 14 L 0 38 C 0 40 1 41 3 41 L 40 41 C 40.391903 41 40.770268 40.902995 41.125 40.75 C 42.189196 40.291014 43 39.231243 43 38 L 43 17 C 43 16.811884 42.980304 16.622407 42.9375 16.4375 C 42.637874 15.14315 41.351842 14 40 14 L 38 14 L 38 11 C 38 9.538844 36.546781 8 35 8 L 9 8 z "
     id="path3779" />
  <path
     style="fill:#ef5350;fill-opacity:1;stroke:none"
     d="m 30,23 c -1.463917,0 -3,1.560499 -3,3 l -1,0 -2,0 c -1.470099,0 -3,1.49533 -3,3 l 0,24 c 0,2 1,3 3,3 l 37,0 c 1.567614,0 3,-1.358342 3,-3 l 0,-21 c 0,-1.504928 -1.455038,-3 -3,-3 l -2,0 0,-3 c 0,-1.461156 -1.453219,-3 -3,-3 z"
     id="path6"
     inkscape:connector-curvature="0"
     sodipodi:nodetypes="scccssssscccsss" />
  <path
     inkscape:connector-curvature="0"
     style="fill:#000000;fill-opacity:0.32156863;stroke:none"
     d="m 30,23 c -1.463917,0 -3,1.526901 -3,3 0,0 -0.666667,0 -1,0 -0.666667,0 -2,0 -2,0 -1.470099,0 -3,1.49533 -3,3 l 0,24 c 0,2 1,3 3,3 l 37,0 c 1.567614,0 3,-1.358342 3,-3 l 0,-21 c 0,-1.504928 -1.455038,-3 -3,-3 l -2,0 0,-3 c 0,-1.461156 -1.453219,-3 -3,-3 z m -6,5 21,0 c 0.590175,0 1,0.51477 1,1 l 0,2 15,0 c 0.505551,0 1,0.508742 1,1 l 0,21 c 0,0.521292 -0.478766,1 -1,1 l -37,0 c -0.464295,0 -1,-0.396346 -1,-1 l 0,-24 c 0,-0.492405 0.516529,-1 1,-1 z"
     id="path3778"
     sodipodi:nodetypes="sccsssssssscsssssscssssssss" />
</svg>
