<svg version="1.1" viewBox="0 0 32 32" xmlns="http://www.w3.org/2000/svg">
 <g transform="translate(0 -1020.4)">
  <rect x="3" y="1026.4" width="26" height="10" style="fill:#1976d2"/>
  <path d="m6 1026.4c0-1 0-2 1.455-2h5.091c1.455 0 1.455 1 1.455 2v1h-8z" style="fill:#1976d2"/>
  <path d="m5 1028.4h22v4.968h-22z" style="fill:#95989f"/>
  <rect x="7" y="1027.4" width="19" height="13" style="fill:#d8d8da"/>
  <rect x="6" y="1029.4" width="19" height="13" style="fill:#f9f9f9"/>
  <path d="m1 1030.4h30l-2.143 18h-25.714z" style="fill:#42a5f5"/>
  <path d="m17.909 1045.2h-0.05455l-0.05455-0.055v-1.7143c0-0.3871-0.05455-0.7189-0.21818-0.9954 1.2545-0.2212 2.6182-0.8848 2.6182-3.3732 0-0.6636-0.21818-1.2719-0.6-1.7696 0.10909-0.3318 0.16364-0.9401-0.10909-1.7143l-0.16364-0.1659s-0.10909-0.055-0.21818-0.055c-0.32727 0-0.81818 0.1106-1.6364 0.6636-0.43636-0.055-0.92727-0.1659-1.4727-0.1659s-1.0364 0.055-1.5273 0.1659c-0.76364-0.4977-1.3091-0.6083-1.6364-0.6083-0.10909 0-0.16364 0.055-0.21818 0.055-0.05455 0-0.16364 0.1106-0.16364 0.1659-0.27273 0.7742-0.21818 1.3825-0.10909 1.7143-0.38182 0.4977-0.6 1.106-0.6 1.7696 0 2.4331 1.4182 3.0967 2.6182 3.3732-0.05454 0.1106-0.10909 0.2765-0.16364 0.4424-0.10909 0.055-0.27273 0.1106-0.49091 0.1106s-0.43636-0.055-0.6-0.2212l-0.05455-0.055c-0.05454-0.055-0.05454-0.1106-0.10909-0.1106l-0.1091-0.11c0-0.055-0.43636-0.7189-1.2-0.7742-0.27273 0-0.49091 0.1106-0.54546 0.2765-0.10909 0.2765 0.21818 0.4977 0.38182 0.6083 0 0 0.32727 0.1659 0.54546 0.7742 0.10909 0.3871 0.6 1.106 1.7455 1.106h0.38182v0.7742l-0.05455 0.055s-0.05454 0 0 0c-2.4545-0.9954-4.0909-3.318-4.0909-5.9171 0-3.3732 2.6727-6.0829 6-6.0829s6 2.7097 6 6.0829c0 2.5991-1.6364 4.9217-4.0909 5.7512z" style="fill:#2a74b9;font-variation-settings:normal;stop-color:#000000"/>
 </g>
</svg>
