<svg version="1.1" viewBox="0 0 32 32" xmlns="http://www.w3.org/2000/svg">
 <g transform="translate(0,-1020.3622)">
  <rect x="3" y="1026.36" width="26" height="10" style="fill:#512da8"/>
  <path d="m6 1026.36c0-1 0-2 1.455-2h5.091c1.455 0 1.455 1 1.455 2v1h-8z" style="fill:#512da8"/>
  <path d="m5 1028.36h22v4.968h-22z" style="fill:#95989f"/>
  <rect x="7" y="1027.36" width="19" height="13" style="fill:#d8d8da"/>
  <rect x="6" y="1029.36" width="19" height="13" style="fill:#f9f9f9"/>
  <path d="m1 1030.36h30l-2.143 18h-25.714z" style="fill:#7e57c2"/>
  <path d="m12.242242 1034.3623c-0.09165 0-0.183407 0.052-0.217631 0.1571l-1.221153 3.8428h2.986754l-1.330339-3.8428c-0.03424-0.1048-0.125983-0.1571-0.217631-0.1571zm1.54797 3.9999 2.209789 7 2.209791-7zm4.41958 0h2.986753l-1.221153-3.8428c-0.06844-0.2096-0.366782-0.2096-0.435262 0zm2.986753 0-5.196544 7 5.811303-4.2019c0.160349-0.1159 0.227528-0.3213 0.166292-0.5089zm-5.196544 7-5.196543-7-0.781052 2.2893c-0.061236 0.1875 0.0059 0.3929 0.166293 0.5088z" style="-inkscape-stroke:none;fill:#54398d;font-variation-settings:normal;stop-color:#000000"/>
 </g>
</svg>
