<svg xmlns="http://www.w3.org/2000/svg" viewBox="0 0 96 96">
 <g transform="translate(0,-956.3622)">
  <rect width="76" height="30" x="10" y="976.36" style="fill:#5d4037;fill-opacity:1;stroke:none"/>
  <path d="m 20 980.36 c 0 -4 0 -8 4 -8 l 14 0 c 4 0 4 4 4 8 z" style="fill:#5d4037;fill-opacity:1;stroke:none"/>
  <path d="m 18 982.36 62 0 0 14 -62 0 z" style="fill:#95989f;fill-opacity:1;stroke:none"/>
  <rect y="980.36" x="22" height="40" width="56" style="fill:#d8d8da;fill-opacity:1;stroke:none"/>
  <rect width="56" height="40" x="20" y="986.36" style="fill:#f9f9f9;fill-opacity:1;stroke:none"/>
  <path d="m 4 988.36 88 0 -8 48 -74 0 z" style="fill:#8d6e63;fill-opacity:1;stroke:none"/>
  <path d="m 60.57 994.24 c -1.465 0.024 -2.906 0.983 -3.137 2.772 -0.369 2.861 2.399 1.788 4.613 1.788 2.214 0 2.952 4.649 2.399 7.153 -0.554 2.504 -6.438 8.417 -19.742 2.504 -10.953 -4.869 -16.422 1.614 -16.698 1.743 1.037 9.672 9.488 20.16 19.742 20.16 10.954 0 19.834 -11.557 19.834 -22.17 0 -1.219 -0.145 -2.42 -0.369 -3.576 -0.204 -0.584 -0.404 -1.167 -0.554 -1.699 -0.268 -0.953 -0.571 -1.756 -0.83 -2.504 -0.011 -0.024 0.011 -0.064 0 -0.09 -1.049 -2.257 -2.519 -4.297 -4.336 -5.991 -0.008 -0.02 -0.038 0.02 -0.046 0 -0.284 -0.07 -0.583 -0.094 -0.876 -0.09 z" style="fill:#634b43;opacity:1;fill-opacity:1;color:#000"/>
  <path d="m 60 1004.36 c 0 1.105 -0.895 2 -2 2 -1.105 0 -2 -0.895 -2 -2 0 -1.105 0.895 -2 2 -2 1.105 0 2 0.896 2 2 z" style="fill:#634b43;opacity:1;fill-opacity:1;color:#000"/>
  <path d="m 54 997.36 c 0 0.552 -0.448 1 -1 1 -0.552 0 -1 -0.448 -1 -1 0 -0.552 0.448 -1 1 -1 0.552 0 1 0.448 1 1 z" style="fill:#634b43;opacity:1;fill-opacity:1;color:#000"/>
 </g>
</svg>
