<svg xmlns="http://www.w3.org/2000/svg" viewBox="0 0 96 96">
 <g transform="translate(0,-956.3622)">
  <rect width="76" height="30" x="10" y="976.36" style="fill:#5d4037;fill-opacity:1;stroke:none"/>
  <path d="m 20 980.36 c 0 -4 0 -8 4 -8 l 14 0 c 4 0 4 4 4 8 z" style="fill:#5d4037;fill-opacity:1;stroke:none"/>
  <path d="m 18 982.36 62 0 0 14 -62 0 z" style="fill:#95989f;fill-opacity:1;stroke:none"/>
  <rect y="980.36" x="22" height="40" width="56" style="fill:#d8d8da;fill-opacity:1;stroke:none"/>
  <rect width="56" height="40" x="20" y="986.36" style="fill:#f9f9f9;fill-opacity:1;stroke:none"/>
  <path d="m 4 988.36 88 0 -8 48 -74 0 z" style="fill:#8d6e63;fill-opacity:1;stroke:none"/>
  <path d="m 46.523 1008.36 0.044 0 c 0.391 0 0.705 0.357 0.705 0.8 l 0 7.2 c 0 0.443 -0.314 0.8 -0.705 0.8 l -0.044 0 c -0.391 0 -0.705 -0.357 -0.705 -0.8 l 0 -7.2 c 0 -0.443 0.314 -0.8 0.705 -0.8 z m -2.523 9 a 6 7 0 0 1 -6 7 6 7 0 0 1 -6 -7 6 7 0 0 1 6 -7 6 7 0 0 1 6 7 z m 8 -9 a 8 8 0 0 1 -8 8 8 8 0 0 1 -8 -8 8 8 0 0 1 8 -8 8 8 0 0 1 8 8 z m 8 2 a 6 6 0 0 1 -6 6 6 6 0 0 1 -6 -6 6 6 0 0 1 6 -6 6 6 0 0 1 6 6 z m 4 8 a 6 6 0 0 1 -6 6 6 6 0 0 1 -6 -6 6 6 0 0 1 6 -6 6 6 0 0 1 6 6 z m -26.18 -9.2 19.636 0 0 15.2 -19.636 0 z" style="fill:#634b43;opacity:1;fill-opacity:1;stroke:none"/>
 </g>
</svg>
