<!-- Created with Inkscape (http://www.inkscape.org/) -->
<svg xmlns="http://www.w3.org/2000/svg" viewBox="0 0 96 96">
 <g transform="translate(0,-956.3622)">
  <rect width="76" height="30" x="10" y="976.36" style="fill:replacecolour2;fill-opacity:1;stroke:none"/>
  <path d="m 20 980.36 c 0 -4 0 -8 4 -8 l 14 0 c 4 0 4 4 4 8 z" style="fill:replacecolour2;fill-opacity:1;stroke:none"/>
  <path d="m 18 982.36 62 0 0 14 -62 0 z" style="fill:#95989f;fill-opacity:1;stroke:none"/>
  <rect y="980.36" x="22" height="40" width="56" style="fill:#d8d8da;fill-opacity:1;stroke:none"/>
  <rect width="56" height="40" x="20" y="986.36" style="fill:#f9f9f9;fill-opacity:1;stroke:none"/>
  <path d="m 4 988.36 88 0 -8 48 -74 0 z" style="fill:replacecolour1;fill-opacity:1;stroke:none"/>
  <path d="m 60.752 999.6 c -4.33 -4.332 -11.332 -4.305 -15.662 0.032 -3.682 3.683 -4.234 9.29 -1.66 13.551 l -10.682 10.686 c -0.997 0.997 -0.997 2.592 0 3.589 l 0.161 0.16 c 0.997 0.997 2.591 0.997 3.588 0 l 10.682 -10.686 c 4.266 2.581 9.892 2.05 13.574 -1.634 4.33 -4.331 4.33 -11.362 0 -15.694 z m -2.436 2.437 c 2.978 2.98 2.978 7.841 0 10.82 -2.951 2.952 -7.725 2.95 -10.709 0.054 l -0.08 -0.08 c -0.027 -0.032 -0.054 -0.054 -0.08 -0.082 -2.899 -2.985 -2.872 -7.733 0.08 -10.686 2.978 -2.98 7.811 -3.01 10.79 -0.032 z" style="fill:replacecolour3;opacity:1;fill-opacity:1;color:#000"/>
 </g>
</svg>
