<svg xmlns="http://www.w3.org/2000/svg" viewBox="0 0 96 96">
 <rect width="48" height="20" x="4" y="16" style="fill:#757575;fill-opacity:1;stroke:none"/>
 <path d="m 10 18 c 0 -2 0 -4 2.545 -4 l 8.909 0 c 2.545 0 2.545 2 2.545 4 z" style="fill:#757575;fill-opacity:1;stroke:none"/>
 <path d="m 8 20 42 0 0 10 -42 0 z" style="fill:#95989f;fill-opacity:1;stroke:none"/>
 <rect y="18" x="12" height="26" width="36" style="fill:#d8d8da;fill-opacity:1;stroke:none"/>
 <rect width="36" height="24" x="10" y="22" style="fill:#f9f9f9;fill-opacity:1;stroke:none"/>
 <path d="M 0,24 55.804878,24 50,54 4,54 z" style="fill:#bdbdbd;fill-opacity:1;stroke:none"/>
 <path d="m 12.563 14 c -1.648 0 -2.233 0.866 -2.438 2 l -6.125 0 0 8 -4 0 4 30 46 0 5.813 -30 -3.813 0 0 -8 -28.12 0 c -0.205 -1.134 -0.789 -2 -2.438 -2 z" style="fill:#000;fill-opacity:0.102;stroke:none"/>
 <rect width="48" height="20" x="44" y="46" style="fill:#757575;fill-opacity:1;stroke:none"/>
 <path d="m 50 48 c 0 -2 0 -4 2.545 -4 l 8.909 0 c 2.545 0 2.545 2 2.545 4 z" style="fill:#757575;fill-opacity:1;stroke:none"/>
 <path d="m 48 50 42 0 0 10 -42 0 z" style="fill:#95989f;fill-opacity:1;stroke:none"/>
 <rect y="48" x="52" height="26" width="36" style="fill:#d8d8da;fill-opacity:1;stroke:none"/>
 <rect width="36" height="24" x="50" y="52" style="fill:#f9f9f9;fill-opacity:1;stroke:none"/>
 <path d="m 40 54 55.805 0 -5.805 30 -46 0 z" style="fill:#bdbdbd;fill-opacity:1;stroke:none"/>
</svg>
