<!-- Created with Inkscape (http://www.inkscape.org/) -->
<svg xmlns="http://www.w3.org/2000/svg" viewBox="0 0 96 96">
 <g transform="translate(0,-956.3622)">
  <rect width="76" height="30" x="10" y="976.36" style="fill:#e65100;fill-opacity:1;stroke:none"/>
  <path d="m 20 980.36 c 0 -4 0 -8 4 -8 l 14 0 c 4 0 4 4 4 8 z" style="fill:#e65100;fill-opacity:1;stroke:none"/>
  <path d="m 18 982.36 62 0 0 14 -62 0 z" style="fill:#95989f;fill-opacity:1;stroke:none"/>
  <rect y="980.36" x="22" height="40" width="56" style="fill:#d8d8da;fill-opacity:1;stroke:none"/>
  <rect width="56" height="40" x="20" y="986.36" style="fill:#f9f9f9;fill-opacity:1;stroke:none"/>
  <path d="m 4 988.36 88 0 -8 48 -74 0 z" style="fill:#f57c00;fill-opacity:1;stroke:none"/>
  <path d="m 34 996.36 0 10 10 0 -3.438 -3.438 c 2.045 -1.606 4.636 -2.562 7.437 -2.562 6.627 0 12 5.373 12 12 0 6.627 -5.373 12 -12 12 -6.627 0 -12 -5.373 -12 -12 0 -1.401 0.246 -2.75 0.688 -4 l -4.188 0 c -0.327 1.275 -0.5 2.622 -0.5 4 0 8.837 7.163 16 16 16 8.837 0 16 -7.163 16 -16 0 -8.837 -7.163 -16 -16 -16 -3.914 0 -7.532 1.354 -10.312 3.687 l -3.688 -3.687 z m 13.813 5.937 a 2 2 0 0 0 -0.25 0.062 2 2 0 0 0 -1.563 2 l 0 7.375 a 2 2 0 0 0 0 0.188 2 2 0 0 0 0.25 1.5 2 2 0 0 0 0.063 0.062 2 2 0 0 0 0.063 0.124 2 2 0 0 0 0.063 0.062 2 2 0 0 0 0.063 0.062 2 2 0 0 0 0.063 0.062 2 2 0 0 0 0.063 0.062 2 2 0 0 0 0.125 0.062 2 2 0 0 0 0.063 0.062 2 2 0 0 0 0.063 0.062 2 2 0 0 0 0.125 0.062 2 2 0 0 0 0.25 0.124 l 4.937 2.875 a 2.02 2.02 0 1 0 2 -3.5 l -4.188 -2.438 0 -6.812 a 2 2 0 0 0 -2.187 -2.063 z" style="fill:#ab5d0b;opacity:1;fill-opacity:1;color:#000"/>
 </g>
</svg>
