<!-- Created with Inkscape (http://www.inkscape.org/) -->
<svg xmlns="http://www.w3.org/2000/svg" viewBox="0 0 96 96">
 <g transform="translate(0,-956.3622)">
  <rect width="76" height="30" x="10" y="976.36" style="fill:#ec407a;fill-opacity:1;stroke:none"/>
  <path d="m 20 980.36 c 0 -4 0 -8 4 -8 l 14 0 c 4 0 4 4 4 8 z" style="fill:#ec407a;fill-opacity:1;stroke:none"/>
  <path d="m 18 982.36 62 0 0 14 -62 0 z" style="fill:#95989f;fill-opacity:1;stroke:none"/>
  <rect y="980.36" x="22" height="40" width="56" style="fill:#d8d8da;fill-opacity:1;stroke:none"/>
  <rect width="56" height="40" x="20" y="986.36" style="fill:#f9f9f9;fill-opacity:1;stroke:none"/>
  <path d="m 4 988.36 88 0 -8 48 -74 0 z" style="fill:#f06292;fill-opacity:1;stroke:none"/>
  <path d="m 41.998 1023.5 c -0.078 2.76 -2.381 4.935 -5.142 4.855 -2.762 -0.084 -4.936 -2.382 -4.854 -5.141 0.078 -2.76 2.381 -4.935 5.142 -4.855 2.762 0.084 4.936 2.382 4.854 5.141 m 0 0" style="fill:#c64077;opacity:1;fill-opacity:1;stroke:none;fill-rule:nonzero"/>
  <path d="m 54 1028.36 c -0.319 -13.04 -12.893 -21.07 -22 -22 l 0 6 c 7.332 0.603 15.918 7.445 16 16" style="fill:#c64077;opacity:1;fill-opacity:1;stroke:none;fill-rule:nonzero"/>
  <path d="m 64 1028.36 c 0 -19.21 -17.25 -31.392 -32 -32 l 0 6 c 13.529 1.494 26.05 12.553 26 26" style="fill:#c64077;opacity:1;fill-opacity:1;stroke:none;fill-rule:nonzero"/>
 </g>
</svg>
