<svg xmlns="http://www.w3.org/2000/svg" viewBox="0 0 96 96">
 <g transform="translate(0,-956.3622)">
  <rect width="76" height="30" x="10" y="976.36" style="fill:#d32f2f;fill-opacity:1;stroke:none"/>
  <path d="m 20 980.36 c 0 -4 0 -8 4 -8 l 14 0 c 4 0 4 4 4 8 z" style="fill:#d32f2f;fill-opacity:1;stroke:none"/>
  <path d="m 18 982.36 62 0 0 14 -62 0 z" style="fill:#95989f;fill-opacity:1;stroke:none"/>
  <rect y="980.36" x="22" height="40" width="56" style="fill:#d8d8da;fill-opacity:1;stroke:none"/>
  <rect width="56" height="40" x="20" y="986.36" style="fill:#f9f9f9;fill-opacity:1;stroke:none"/>
  <path d="m 4 988.36 88 0 -8 48 -74 0 z" style="fill:#ef5350;fill-opacity:1;stroke:none"/>
  <path d="m 45.48 996.36 c -0.887 0 -1.63 0.705 -1.63 1.593 l 0 2.074 c -0.561 0.19 -1.105 0.407 -1.63 0.666 l -1.445 -1.444 c -0.627 -0.627 -1.632 -0.627 -2.259 0 l -3.63 3.592 c -0.627 0.628 -0.627 1.632 0 2.259 l 1.445 1.445 c -0.266 0.533 -0.475 1.095 -0.667 1.666 l -2.037 0 c -0.887 0 -1.63 0.705 -1.63 1.593 l 0 5.111 c 0 0.887 0.742 1.593 1.63 1.593 l 2.037 0 c 0.192 0.571 0.401 1.133 0.667 1.666 l -1.445 1.445 c -0.627 0.628 -0.627 1.632 0 2.259 l 3.63 3.592 c 0.627 0.627 1.632 0.627 2.259 0 l 1.445 -1.444 c 0.524 0.26 1.069 0.478 1.63 0.666 l 0 2.074 c 0 0.888 0.742 1.593 1.63 1.593 l 5.074 0 c 0.887 0 1.593 -0.705 1.593 -1.593 l 0 -2.074 c 0.572 -0.192 1.133 -0.401 1.667 -0.666 l 1.445 1.444 c 0.627 0.627 1.632 0.627 2.259 0 l 3.63 -3.592 c 0.627 -0.628 0.627 -1.632 0 -2.259 l -1.481 -1.481 c 0.26 -0.524 0.478 -1.069 0.667 -1.63 l 2.074 0 c 0.887 0 1.593 -0.705 1.593 -1.593 l 0 -5.111 c 0 -0.887 -0.705 -1.593 -1.593 -1.593 l -2.074 0 c -0.188 -0.561 -0.407 -1.105 -0.667 -1.63 l 1.481 -1.481 c 0.627 -0.628 0.627 -1.632 0 -2.259 l -3.63 -3.592 c -0.627 -0.627 -1.632 -0.627 -2.259 0 l -1.445 1.444 c -0.533 -0.266 -1.095 -0.474 -1.667 -0.666 l 0 -2.074 c 0 -0.888 -0.705 -1.593 -1.593 -1.593 l -5.074 0 z m 2.519 11.852 c 2.29 0 4.148 1.859 4.148 4.149 0 2.29 -1.858 4.148 -4.148 4.148 -2.29 0 -4.148 -1.859 -4.148 -4.148 0 -2.29 1.858 -4.149 4.148 -4.149 z" style="fill:#ab3634;opacity:1;fill-opacity:1;display:block;color:#000"/>
 </g>
</svg>
