<svg xmlns="http://www.w3.org/2000/svg" viewBox="0 0 96 96">
 <g transform="translate(0,-956.3622)">
  <rect width="76" height="30" x="10" y="976.36" style="fill:#ffb300;fill-opacity:1;stroke:none"/>
  <path d="m 20 980.36 c 0 -4 0 -8 4 -8 l 14 0 c 4 0 4 4 4 8 z" style="fill:#ffb300;fill-opacity:1;stroke:none"/>
  <path d="m 18 982.36 62 0 0 14 -62 0 z" style="fill:#95989f;fill-opacity:1;stroke:none"/>
  <rect y="980.36" x="22" height="40" width="56" style="fill:#d8d8da;fill-opacity:1;stroke:none"/>
  <rect width="56" height="40" x="20" y="986.36" style="fill:#f9f9f9;fill-opacity:1;stroke:none"/>
  <path d="m 4 988.36 88 0 -8 48 -74 0 z" style="fill:#ffca28;fill-opacity:1;stroke:none"/>
  <path d="m 36 996.36 c -2.216 0 -4 1.784 -4 4 l 0 18 c 0 2.216 1.784 4 4 4 l 8 0 -4 4 c -2 2 -2 2 0 2 l 16 0 c 2 0 2 0 0 -2 l -4 -4 8 0 c 2.216 0 4 -1.784 4 -4 l 0 -18 c 0 -2.216 -1.784 -4 -4 -4 l -24 0 z m 0 4 24 0 0 18 -24 0 0 -18 z m 5.688 2 c -0.563 0.094 -1.688 0.5 -1.688 2 l 0 10 c 0 2 2 2 2 2 l 8 0 c 2 0 2 -2 2 -2 l 0 -8 -4 -4 -6 0 c 0 0 -0.125 -0.032 -0.313 0 z m 0.313 2 4 0 0 4 4 0 0 6 -8 0 0 -10 z" style="fill:#745100;opacity:0.4;fill-opacity:1"/>
 </g>
</svg>
