<?xml version="1.0" encoding="UTF-8" standalone="no"?>
<!-- Created with Inkscape (http://www.inkscape.org/) -->

<svg
   xmlns:dc="http://purl.org/dc/elements/1.1/"
   xmlns:cc="http://creativecommons.org/ns#"
   xmlns:rdf="http://www.w3.org/1999/02/22-rdf-syntax-ns#"
   xmlns:svg="http://www.w3.org/2000/svg"
   xmlns="http://www.w3.org/2000/svg"
   xmlns:xlink="http://www.w3.org/1999/xlink"
   xmlns:sodipodi="http://sodipodi.sourceforge.net/DTD/sodipodi-0.dtd"
   xmlns:inkscape="http://www.inkscape.org/namespaces/inkscape"
   width="32"
   height="32"
   id="svg2"
   version="1.1"
   inkscape:version="0.48.5 r10040"
   sodipodi:docname="folder-hdd.svg"
   inkscape:export-filename="/media/Data/Main/Visuals/Icons/Numix/Desktop/repos/numix-wiki/Gjorgi/Numix-folders/48/New/folder-144.png"
   inkscape:export-xdpi="270"
   inkscape:export-ydpi="270">
  <defs
     id="defs4">
    <linearGradient
       id="linearGradient3958"
       inkscape:collect="always">
      <stop
         id="stop3960"
         offset="0"
         style="stop-color:#000000;stop-opacity:1;" />
      <stop
         id="stop3962"
         offset="1"
         style="stop-color:#000000;stop-opacity:0;" />
    </linearGradient>
    <radialGradient
       gradientUnits="userSpaceOnUse"
       gradientTransform="matrix(1,0,0,0.10447761,0,50.597015)"
       r="33.5"
       fy="56.5"
       fx="32.5"
       cy="56.5"
       cx="32.5"
       id="radialGradient3964"
       xlink:href="#linearGradient3958"
       inkscape:collect="always" />
    <radialGradient
       inkscape:collect="always"
       xlink:href="#linearGradient3958"
       id="radialGradient3031"
       gradientUnits="userSpaceOnUse"
       gradientTransform="matrix(1,0,0,0.10447761,0,50.597015)"
       cx="32.5"
       cy="56.5"
       fx="32.5"
       fy="56.5"
       r="33.5" />
    <radialGradient
       gradientUnits="userSpaceOnUse"
       gradientTransform="matrix(1,0,0,0.10447761,0,50.597015)"
       r="33.5"
       fy="56.5"
       fx="32.5"
       cy="56.5"
       cx="32.5"
       id="radialGradient3964-4"
       xlink:href="#linearGradient3958-4"
       inkscape:collect="always" />
    <linearGradient
       id="linearGradient3958-4"
       inkscape:collect="always">
      <stop
         id="stop3960-2"
         offset="0"
         style="stop-color:#000000;stop-opacity:1;" />
      <stop
         id="stop3962-1"
         offset="1"
         style="stop-color:#000000;stop-opacity:0;" />
    </linearGradient>
  </defs>
  <sodipodi:namedview
     id="base"
     pagecolor="#ffffff"
     bordercolor="#666666"
     borderopacity="1.0"
     inkscape:pageopacity="0.0"
     inkscape:pageshadow="2"
     inkscape:zoom="11.313709"
     inkscape:cx="15.749295"
     inkscape:cy="13.770175"
     inkscape:document-units="px"
     inkscape:current-layer="layer1"
     showgrid="true"
     inkscape:window-width="1280"
     inkscape:window-height="998"
     inkscape:window-x="0"
     inkscape:window-y="0"
     inkscape:window-maximized="1"
     showguides="true"
     inkscape:guide-bbox="true">
    <inkscape:grid
       type="xygrid"
       id="grid2985"
       empspacing="5"
       visible="true"
       enabled="true"
       snapvisiblegridlinesonly="true" />
  </sodipodi:namedview>
  <metadata
     id="metadata7">
    <rdf:RDF>
      <cc:Work
         rdf:about="">
        <dc:format>image/svg+xml</dc:format>
        <dc:type
           rdf:resource="http://purl.org/dc/dcmitype/StillImage" />
        <dc:title />
      </cc:Work>
    </rdf:RDF>
  </metadata>
  <g
     inkscape:label="Layer 1"
     inkscape:groupmode="layer"
     id="layer1"
     transform="translate(0,-1020.3622)">
    <path
       style="font-size:medium;font-style:normal;font-variant:normal;font-weight:normal;font-stretch:normal;text-indent:0;text-align:start;text-decoration:none;line-height:normal;letter-spacing:normal;word-spacing:normal;text-transform:none;direction:ltr;block-progression:tb;writing-mode:lr-tb;text-anchor:start;baseline-shift:baseline;color:#000000;fill:#8d6e63;fill-opacity:1;fill-rule:nonzero;stroke:none;stroke-width:1;marker:none;visibility:visible;display:inline;overflow:visible;enable-background:accumulate;font-family:Sans;-inkscape-font-specification:Sans"
       d="m 4,1024.3622 c -0.4916,0 -1,0.4731 -1,1 l 0,1 c -0.6666667,0 -0.8333333,0 -1.5,0 -0.9791617,0 -1.5,0.494 -1.5,1.5 l 0,19 c 0,1.0315 0.5230687,1.5 1.5,1.5 l 28.84375,0 c 0.871969,0 1.65625,-0.6232 1.65625,-1.5 l 0,-17 c 0,-0.9413 -0.425107,-1.5 -1.5,-1.5 l -2.5,0 0,-3 c 0,-0.5269 -0.508401,-1 -1,-1 z"
       id="path3004"
       inkscape:connector-curvature="0"
       sodipodi:nodetypes="ssccssssscccsss" />
    <path
       style="font-size:medium;font-style:normal;font-variant:normal;font-weight:normal;font-stretch:normal;text-indent:0;text-align:start;text-decoration:none;line-height:normal;letter-spacing:normal;word-spacing:normal;text-transform:none;direction:ltr;block-progression:tb;writing-mode:lr-tb;text-anchor:start;baseline-shift:baseline;color:#000000;fill:#000000;fill-opacity:0.32156863;fill-rule:nonzero;stroke:none;stroke-width:1;marker:none;visibility:visible;display:inline;overflow:visible;enable-background:accumulate;font-family:Sans;-inkscape-font-specification:Sans"
       d="m 4,1024.3622 c -0.4916,0 -1,0.4731 -1,1 l 0,1 c -0.6868035,0 -0.8835353,0 -1.5,0 -0.9791617,0 -1.5,0.483 -1.5,1.5 l 0,19 c 0,1.0038 0.5009716,1.5 1.5,1.5 l 28.84375,0 c 0.871969,0 1.65625,-0.6232 1.65625,-1.5 l 0,-16.9482 c 0,-1.014 -0.419084,-1.5518 -1.5,-1.5518 l -2.5,0 0,-3 c 0,-0.5269 -0.508401,-1 -1,-1 z m 15,3 0,2 12,0 0,18 -30,0 0,-20 z"
       id="path3784"
       inkscape:connector-curvature="0"
       sodipodi:nodetypes="ssccssssscccsssccccccc" />
    <path
       style="opacity:1;fill:#000000;fill-opacity:0.32156864000000002;stroke:none"
       d="m 12,1032.3622 c -0.712285,0 -1,0.3352 -1,1 l 0,10 c 0,0.6648 0.287715,1 1,1 l 7.71875,0 c 0.712286,0 1.28125,-0.3352 1.28125,-1 l 0,-10 c 0,-0.6648 -0.287714,-1 -1,-1 l -8,0 z m 0.5,1 c 0.276142,0 0.5,0.2239 0.5,0.5 0,0.2761 -0.223858,0.5 -0.5,0.5 -0.276142,0 -0.5,-0.2239 -0.5,-0.5 0,-0.2761 0.223858,-0.5 0.5,-0.5 z m 7,0 c 0.276142,0 0.5,0.2239 0.5,0.5 0,0.2761 -0.223858,0.5 -0.5,0.5 -0.276142,0 -0.5,-0.2239 -0.5,-0.5 0,-0.2761 0.223858,-0.5 0.5,-0.5 z m -3.5,1 c 1.104569,0 2,0.8954 2,2 0,1.1046 -0.895431,2 -2,2 -1.104569,0 -2,-0.8954 -2,-2 0,-1.1046 0.895431,-2 2,-2 z m -3.5,4 c 0.276142,0 0.5,0.2239 0.5,0.5 0,0.2761 -0.223858,0.5 -0.5,0.5 -0.276142,0 -0.5,-0.2239 -0.5,-0.5 0,-0.2761 0.223858,-0.5 0.5,-0.5 z m 7,0 c 0.276142,0 0.5,0.2239 0.5,0.5 0,0.2761 -0.223858,0.5 -0.5,0.5 -0.276142,0 -0.5,-0.2239 -0.5,-0.5 0,-0.2761 0.223858,-0.5 0.5,-0.5 z m -7,4 7,0 c 0.277,0 0.5,0.223 0.5,0.5 0,0.277 -0.223,0.5 -0.5,0.5 l -7,0 c -0.277,0 -0.5,-0.223 -0.5,-0.5 0,-0.277 0.223,-0.5 0.5,-0.5 z"
       id="rect3828"
       inkscape:connector-curvature="0" />
  </g>
</svg>
