<?xml version="1.0" encoding="UTF-8" standalone="no"?>
<svg
   xmlns:dc="http://purl.org/dc/elements/1.1/"
   xmlns:cc="http://creativecommons.org/ns#"
   xmlns:rdf="http://www.w3.org/1999/02/22-rdf-syntax-ns#"
   xmlns:svg="http://www.w3.org/2000/svg"
   xmlns="http://www.w3.org/2000/svg"
   xmlns:sodipodi="http://sodipodi.sourceforge.net/DTD/sodipodi-0.dtd"
   xmlns:inkscape="http://www.inkscape.org/namespaces/inkscape"
   width="32"
   height="32"
   viewBox="0 0 32 32"
   id="svg2995"
   version="1.1"
   inkscape:version="0.48.5 r10040"
   sodipodi:docname="folder-download.svg">
  <metadata
     id="metadata3019">
    <rdf:RDF>
      <cc:Work
         rdf:about="">
        <dc:format>image/svg+xml</dc:format>
        <dc:type
           rdf:resource="http://purl.org/dc/dcmitype/StillImage" />
      </cc:Work>
    </rdf:RDF>
  </metadata>
  <defs
     id="defs3017" />
  <sodipodi:namedview
     pagecolor="#ffffff"
     bordercolor="#666666"
     borderopacity="1"
     objecttolerance="10"
     gridtolerance="10"
     guidetolerance="10"
     inkscape:pageopacity="0"
     inkscape:pageshadow="2"
     inkscape:window-width="1280"
     inkscape:window-height="998"
     id="namedview3015"
     showgrid="true"
     inkscape:zoom="20.85965"
     inkscape:cx="13.718864"
     inkscape:cy="13.639436"
     inkscape:window-x="0"
     inkscape:window-y="0"
     inkscape:window-maximized="1"
     inkscape:current-layer="svg2995">
    <inkscape:grid
       type="xygrid"
       id="grid3004" />
  </sodipodi:namedview>
  <path
     style="font-size:medium;font-style:normal;font-variant:normal;font-weight:normal;font-stretch:normal;text-indent:0;text-align:start;text-decoration:none;line-height:normal;letter-spacing:normal;word-spacing:normal;text-transform:none;direction:ltr;block-progression:tb;writing-mode:lr-tb;text-anchor:start;baseline-shift:baseline;color:replacecolour3;fill:replacecolour1;fill-opacity:1;fill-rule:nonzero;stroke:none;stroke-width:1;marker:none;visibility:visible;display:inline;overflow:visible;enable-background:accumulate;font-family:Sans;-inkscape-font-specification:Sans"
     d="m 3.9999998,4.0000005 c -0.4916,0 -1,0.4731187 -1,1 l 0,1 c -0.666666,0 -0.833333,0 -1.4999998,0 -0.9791617,0 -1.5,0.4940342 -1.5,1.5 L 0,26.5 C 0,27.531461 0.5230687,28 1.5,28 l 28.84375,0 C 31.21572,28 32,27.376781 32,26.5 L 32,9.5000005 c 0,-0.9413229 -0.425107,-1.5 -1.5,-1.5 l -2.5,0 0,-3 c 0,-0.5268813 -0.5084,-1 -1,-1 z"
     id="path3004"
     inkscape:connector-curvature="0"
     sodipodi:nodetypes="ssccssssscccsss" />
  <path
     style="font-size:medium;font-style:normal;font-variant:normal;font-weight:normal;font-stretch:normal;text-indent:0;text-align:start;text-decoration:none;line-height:normal;letter-spacing:normal;word-spacing:normal;text-transform:none;direction:ltr;block-progression:tb;writing-mode:lr-tb;text-anchor:start;baseline-shift:baseline;color:replacecolour3;fill:replacecolour3;fill-opacity:1.;fill-rule:nonzero;stroke:none;stroke-width:1;marker:none;visibility:visible;display:inline;overflow:visible;enable-background:accumulate;font-family:Sans;-inkscape-font-specification:Sans"
     d="m 3.9999998,4.0000005 c -0.4916,0 -1,0.4731186 -1,1 l 0,1 c -0.686803,0 -0.883535,0 -1.4999998,0 -0.9791617,0 -1.5,0.4829856 -1.5,1.5 L 0,26.5 C 0,27.503839 0.5009716,28 1.5,28 l 28.84375,0 C 31.21572,28 32,27.376781 32,26.5 L 32,9.5517772 C 32,8.5377945 31.580916,8.0000005 30.5,8.0000005 l -2.5,0 0,-3 c 0,-0.5268814 -0.5084,-1 -1,-1 z m 15.0000002,3 0,2 12,0 L 31,27 1,27 1,7.0000005 z"
     id="path3784"
     inkscape:connector-curvature="0"
     sodipodi:nodetypes="ssccssssscccsssccccccc" />
  <path
     style="opacity:1;fill:replacecolour3;fill-opacity:1.;stroke:none"
     d="m 16,10.998636 c -0.554,0 -1,0.446 -1,1 l 0,5 -2,0 c -1,0 -1,0 0,1 l 2,2 c 1,1 1,1 2,0 l 2,-2 c 1,-1 1,-1 0,-1 l -2,0 0,-5 c 0,-0.554 -0.446,-1 -1,-1 z m -6.03125,7 c -0.5343069,0 -0.96875,0.446 -0.96875,1 l 0,3.9375 0,0.0625 0,0.0625 c 0,0.03654 0.027087,0.05831 0.03125,0.09375 0.01486,0.09062 0.025932,0.169549 0.0625,0.25 0.1008279,0.221823 0.2812993,0.404406 0.5,0.5 0.1010252,0.04536 0.1961268,0.08286 0.3125,0.09375 0.032814,0.0031 0.060061,0 0.09375,0 l 0.03125,0 11.9375,0 0.03125,0 c 0.01123,0 0.02011,3.46e-4 0.03125,0 0.02095,0 0.04189,0.0014 0.0625,0 0.116373,-0.01089 0.211475,-0.04839 0.3125,-0.09375 0.115463,-0.05047 0.225338,-0.09713 0.3125,-0.1875 0.09038,-0.08609 0.137031,-0.198455 0.1875,-0.3125 0.03657,-0.08045 0.04764,-0.159377 0.0625,-0.25 0.0056,-0.03387 0.02905,-0.05879 0.03125,-0.09375 l 0,-0.125 0,-3.9375 c 0,-0.554 -0.434443,-1 -0.96875,-1 l -0.0625,0 c -0.534307,0 -0.96875,0.446 -0.96875,1 l 0,3 -10,0 0,-3 c 0,-0.554 -0.434443,-1 -0.96875,-1 l -0.0625,0 z"
     id="rect2989"
     inkscape:connector-curvature="0" />
</svg>
