<?xml version="1.0" encoding="UTF-8" standalone="no"?>
<svg
   xmlns:dc="http://purl.org/dc/elements/1.1/"
   xmlns:cc="http://creativecommons.org/ns#"
   xmlns:rdf="http://www.w3.org/1999/02/22-rdf-syntax-ns#"
   xmlns:svg="http://www.w3.org/2000/svg"
   xmlns="http://www.w3.org/2000/svg"
   xmlns:sodipodi="http://sodipodi.sourceforge.net/DTD/sodipodi-0.dtd"
   xmlns:inkscape="http://www.inkscape.org/namespaces/inkscape"
   width="32"
   height="32"
   viewBox="0 0 32 32"
   id="svg3075"
   version="1.1"
   inkscape:version="0.91 r"
   sodipodi:docname="custom-folder-templates.svg">
  <metadata
     id="metadata3119">
    <rdf:RDF>
      <cc:Work
         rdf:about="">
        <dc:format>image/svg+xml</dc:format>
        <dc:type
           rdf:resource="http://purl.org/dc/dcmitype/StillImage" />
      </cc:Work>
    </rdf:RDF>
  </metadata>
  <defs
     id="defs3117" />
  <sodipodi:namedview
     pagecolor="#ffffff"
     bordercolor="#666666"
     borderopacity="1"
     objecttolerance="10"
     gridtolerance="10"
     guidetolerance="10"
     inkscape:pageopacity="0"
     inkscape:pageshadow="2"
     inkscape:window-width="1280"
     inkscape:window-height="998"
     id="namedview3115"
     showgrid="false"
     inkscape:zoom="5.2149125"
     inkscape:cx="17.315831"
     inkscape:cy="13.604549"
     inkscape:window-x="0"
     inkscape:window-y="0"
     inkscape:window-maximized="1"
     inkscape:current-layer="svg3075" />
  <path
     style="font-size:medium;font-style:normal;font-variant:normal;font-weight:normal;font-stretch:normal;text-indent:0;text-align:start;text-decoration:none;line-height:normal;letter-spacing:normal;word-spacing:normal;text-transform:none;direction:ltr;block-progression:tb;writing-mode:lr-tb;text-anchor:start;baseline-shift:baseline;color:replacecolour3;fill:replacecolour1;fill-opacity:1;fill-rule:nonzero;stroke:none;stroke-width:1;marker:none;visibility:visible;display:inline;overflow:visible;enable-background:accumulate;font-family:Sans;-inkscape-font-specification:Sans"
     d="M 4,4 C 3.5084,4 3,4.473118 3,5 L 3,6 C 2.3333333,6 2.1666667,6 1.5,6 0.5208383,6 0,6.4940338 0,7.4999996 L 0,26.5 C 0,27.531461 0.5230687,28 1.5,28 l 28.84375,0 C 31.21572,28 32,27.376781 32,26.5 L 32,9.4999996 c 0,-0.9413229 -0.425107,-1.5 -1.5,-1.5 l -2.5,0 L 28,5 C 28,4.473118 27.4916,4 27,4 z"
     id="path3004"
     inkscape:connector-curvature="0"
     sodipodi:nodetypes="ssccssssscccsss" />
  <path
     style="font-size:medium;font-style:normal;font-variant:normal;font-weight:normal;font-stretch:normal;text-indent:0;text-align:start;text-decoration:none;line-height:normal;letter-spacing:normal;word-spacing:normal;text-transform:none;direction:ltr;block-progression:tb;writing-mode:lr-tb;text-anchor:start;baseline-shift:baseline;color:replacecolour3;fill:replacecolour2;fill-opacity:1.;fill-rule:nonzero;stroke:none;stroke-width:1;marker:none;visibility:visible;display:inline;overflow:visible;enable-background:accumulate;font-family:Sans;-inkscape-font-specification:Sans"
     d="M 4,4 C 3.5084,4 3,4.473118 3,5 L 3,6 C 2.3131965,6 2.1164647,6 1.5,6 0.5208383,6 0,6.4829852 0,7.4999996 L 0,26.5 C 0,27.503839 0.5009716,28 1.5,28 l 28.84375,0 C 31.21572,28 32,27.376781 32,26.5 L 32,9.5517763 C 32,8.5377936 31.580916,7.9999996 30.5,7.9999996 l -2.5,0 L 28,5 C 28,4.473118 27.4916,4 27,4 z m 15,2.9999996 0,2 12,0 L 31,27 1,27 1,6.9999996 z"
     id="path3784"
     inkscape:connector-curvature="0"
     sodipodi:nodetypes="ssccssssscccsssccccccc" />
  <path
     inkscape:connector-curvature="0"
     style="opacity:1;fill:replacecolour3;fill-opacity:1.;stroke:none"
     d="m 10,11 c -0.554,0 -1,0.446 -1,1 l 0,1 2,0 0,-2 -1,0 z m 3,0 0,2 2,0 0,-2 -2,0 z m 4,0 0,2 2,0 0,-2 -2,0 z m 4,0 0,2 2,0 0,-1 c 0,-0.554 -0.446,-1 -1,-1 l -1,0 z m -12,4 0,2 2,0 0,-2 -2,0 z m 12,0 0,2 2,0 0,-2 -2,0 z m -12,4 0,2 2,0 0,-2 -2,0 z m 12,0 0,2 2,0 0,-2 -2,0 z m -12,4 0,1 c 0,0.554 0.446,1 1,1 l 1,0 0,-2 -2,0 z m 4,0 0,2 2,0 0,-2 -2,0 z m 4,0 0,2 2,0 0,-2 -2,0 z m 4,0 0,2 1,0 c 0.554,0 1,-0.446 1,-1 l 0,-1 -2,0 z"
     id="rect3039" />
</svg>
