<?xml version="1.0" encoding="UTF-8" standalone="no"?>
<svg
   xmlns:dc="http://purl.org/dc/elements/1.1/"
   xmlns:cc="http://creativecommons.org/ns#"
   xmlns:rdf="http://www.w3.org/1999/02/22-rdf-syntax-ns#"
   xmlns:svg="http://www.w3.org/2000/svg"
   xmlns="http://www.w3.org/2000/svg"
   xmlns:sodipodi="http://sodipodi.sourceforge.net/DTD/sodipodi-0.dtd"
   xmlns:inkscape="http://www.inkscape.org/namespaces/inkscape"
   width="32"
   height="32"
   viewBox="0 0 32 32"
   id="svg3121"
   version="1.1"
   inkscape:version="0.91 r"
   sodipodi:docname="purple-folder-ubuntu.svg">
  <metadata
     id="metadata3135">
    <rdf:RDF>
      <cc:Work
         rdf:about="">
        <dc:format>image/svg+xml</dc:format>
        <dc:type
           rdf:resource="http://purl.org/dc/dcmitype/StillImage" />
      </cc:Work>
    </rdf:RDF>
  </metadata>
  <defs
     id="defs3133" />
  <sodipodi:namedview
     pagecolor="#ffffff"
     bordercolor="#666666"
     borderopacity="1"
     objecttolerance="10"
     gridtolerance="10"
     guidetolerance="10"
     inkscape:pageopacity="0"
     inkscape:pageshadow="2"
     inkscape:window-width="1280"
     inkscape:window-height="998"
     id="namedview3131"
     showgrid="true"
     inkscape:zoom="14.75"
     inkscape:cx="22.693702"
     inkscape:cy="10.669127"
     inkscape:window-x="0"
     inkscape:window-y="0"
     inkscape:window-maximized="1"
     inkscape:current-layer="svg3121">
    <inkscape:grid
       type="xygrid"
       id="grid3765" />
  </sodipodi:namedview>
  <path
     style="font-size:medium;font-style:normal;font-variant:normal;font-weight:normal;font-stretch:normal;text-indent:0;text-align:start;text-decoration:none;line-height:normal;letter-spacing:normal;word-spacing:normal;text-transform:none;direction:ltr;block-progression:tb;writing-mode:lr-tb;text-anchor:start;baseline-shift:baseline;color:#000000;fill:#7e57c2;fill-opacity:1;fill-rule:nonzero;stroke:none;stroke-width:1;marker:none;visibility:visible;display:inline;overflow:visible;enable-background:accumulate;font-family:Sans;-inkscape-font-specification:Sans"
     d="m 4.0000003,4.0000002 c -0.4916,0 -1,0.4731187 -1,1 l 0,1 c -0.666667,0 -0.833334,0 -1.5000003,0 -0.9791618,0 -1.5,0.4940342 -1.5,1.5 L 0,26.5 C 0,27.531461 0.5230686,28 1.5,28 l 28.84375,0 C 31.21572,28 32,27.376781 32,26.5 L 32,9.5000002 c 0,-0.9413229 -0.425107,-1.5 -1.5,-1.5 l -2.5,0 0,-3 c 0,-0.5268813 -0.5084,-1 -1,-1 z"
     id="path3004"
     inkscape:connector-curvature="0"
     sodipodi:nodetypes="ssccssssscccsss" />
  <path
     style="font-size:medium;font-style:normal;font-variant:normal;font-weight:normal;font-stretch:normal;text-indent:0;text-align:start;text-decoration:none;line-height:normal;letter-spacing:normal;word-spacing:normal;text-transform:none;direction:ltr;block-progression:tb;writing-mode:lr-tb;text-anchor:start;baseline-shift:baseline;color:#000000;fill:#000000;fill-opacity:0.32156863;fill-rule:nonzero;stroke:none;stroke-width:1;marker:none;visibility:visible;display:inline;overflow:visible;enable-background:accumulate;font-family:Sans;-inkscape-font-specification:Sans"
     d="m 4.0000003,4.0000002 c -0.4916,0 -1,0.4731186 -1,1 l 0,1 c -0.686804,0 -0.883536,0 -1.5000003,0 -0.9791618,0 -1.5,0.4829856 -1.5,1.5 L 0,26.5 C 0,27.503839 0.5009716,28 1.5,28 l 28.84375,0 C 31.21572,28 32,27.376781 32,26.5 L 32,9.5517769 C 32,8.5377942 31.580916,8.0000002 30.5,8.0000002 l -2.5,0 0,-3 c 0,-0.5268814 -0.5084,-1 -1,-1 z m 14.9999997,3 0,2 12,0 L 31,27 1,27 1,7.0000002 z"
     id="path3784"
     inkscape:connector-curvature="0"
     sodipodi:nodetypes="ssccssssscccsssccccccc" />
  <path
     transform="matrix(0.5,0,0,0.5,1,-1)"
     d="m 17,38 a 3,3 0 1 1 -6,0 3,3 0 1 1 6,0 z"
     sodipodi:ry="3"
     sodipodi:rx="3"
     sodipodi:cy="38"
     sodipodi:cx="14"
     id="path3007"
     style="opacity:1;fill:#000000;fill-opacity:0.32156864000000002;stroke:none"
     sodipodi:type="arc" />
  <path
     style="opacity:1;fill:#000000;fill-opacity:0.32156864000000002;stroke:none"
     d="m 16,12 c -1.146007,0 -2.214948,0.3163 -3.125,0.875 l 1.484375,1.4844 C 14.86017,14.1338 15.41508,14 16,14 c 2.039144,0 3.721845,1.5278 3.96875,3.5 l 2,0 C 21.88752,16.5402 21.588149,15.6373 21.109375,14.8594 20.92152,14.9444 20.719426,15 20.5,15 19.671572,15 19,14.3285 19,13.5 19,13.2806 19.05596,13.0785 19.140625,12.8907 18.227142,12.3285 17.151303,12 16,12 z m -3.921875,1.4844 C 11.138634,14.3035 10.44518,15.4001 10.15625,16.6563 10.653892,16.9004 11,17.4083 11,18 c 0,0.5917 -0.346108,1.0997 -0.84375,1.3438 0.311283,1.3533 1.070871,2.5414 2.125,3.375 l 1.4375,-1.4375 C 12.681129,20.5586 12,19.3604 12,18 c 0,-1.2551 0.579906,-2.376 1.484375,-3.1093 l -1.40625,-1.4063 z M 19.96875,18.5 C 19.721845,20.4722 18.039144,22 16,22 15.527106,22 15.077347,21.901 14.65625,21.75 l -1.515625,1.5157 C 13.991586,23.7306 14.962019,24 16,24 16.756371,24 17.474116,23.8648 18.140625,23.6094 18.055955,23.4215 18,23.2195 18,23 c 0,-0.8284 0.671573,-1.5 1.5,-1.5 0.402031,0 0.761929,0.1644 1.03125,0.4219 0.810237,-0.9354 1.329627,-2.1156 1.4375,-3.4219 l -2,0 z"
     id="path3030"
     inkscape:connector-curvature="0" />
  <path
     sodipodi:type="arc"
     style="opacity:1;fill:#000000;fill-opacity:0.32156864000000002;stroke:none"
     id="path3046"
     sodipodi:cx="14"
     sodipodi:cy="38"
     sodipodi:rx="3"
     sodipodi:ry="3"
     d="m 17,38 a 3,3 0 1 1 -6,0 3,3 0 1 1 6,0 z"
     transform="matrix(0.5,0,0,0.5,14.5,-6.5000004)" />
  <path
     sodipodi:type="arc"
     style="opacity:1;fill:#000000;fill-opacity:0.32156864000000002;stroke:none"
     id="path3050"
     sodipodi:cx="14"
     sodipodi:cy="38"
     sodipodi:rx="3"
     sodipodi:ry="3"
     d="m 17,38 a 3,3 0 1 1 -6,0 3,3 0 1 1 6,0 z"
     transform="matrix(0.5,0,0,0.5,13.5,5)" />
</svg>
