<?xml version="1.0" encoding="UTF-8" standalone="no"?>
<svg
   xmlns:dc="http://purl.org/dc/elements/1.1/"
   xmlns:cc="http://creativecommons.org/ns#"
   xmlns:rdf="http://www.w3.org/1999/02/22-rdf-syntax-ns#"
   xmlns:svg="http://www.w3.org/2000/svg"
   xmlns="http://www.w3.org/2000/svg"
   xmlns:sodipodi="http://sodipodi.sourceforge.net/DTD/sodipodi-0.dtd"
   xmlns:inkscape="http://www.inkscape.org/namespaces/inkscape"
   viewBox="0 0 96 96"
   id="svg3175"
   version="1.1"
   inkscape:version="0.48.5 r10040"
   width="100%"
   height="100%"
   sodipodi:docname="network.svg">
  <metadata
     id="metadata3193">
    <rdf:RDF>
      <cc:Work
         rdf:about="">
        <dc:format>image/svg+xml</dc:format>
        <dc:type
           rdf:resource="http://purl.org/dc/dcmitype/StillImage" />
      </cc:Work>
    </rdf:RDF>
  </metadata>
  <defs
     id="defs3191" />
  <sodipodi:namedview
     pagecolor="#ffffff"
     bordercolor="#666666"
     borderopacity="1"
     objecttolerance="10"
     gridtolerance="10"
     guidetolerance="10"
     inkscape:pageopacity="0"
     inkscape:pageshadow="2"
     inkscape:window-width="1280"
     inkscape:window-height="998"
     id="namedview3189"
     showgrid="false"
     inkscape:zoom="9.8333333"
     inkscape:cx="22.037452"
     inkscape:cy="28.207669"
     inkscape:window-x="0"
     inkscape:window-y="0"
     inkscape:window-maximized="1"
     inkscape:current-layer="svg3175" />
  <path
     style="font-size:medium;font-style:normal;font-variant:normal;font-weight:normal;font-stretch:normal;text-indent:0;text-align:start;text-decoration:none;line-height:normal;letter-spacing:normal;word-spacing:normal;text-transform:none;direction:ltr;block-progression:tb;writing-mode:lr-tb;text-anchor:start;baseline-shift:baseline;color:#000000;fill:#66bb6a;fill-opacity:1;fill-rule:nonzero;stroke:none;stroke-width:1;marker:none;visibility:visible;display:inline;overflow:visible;enable-background:accumulate;font-family:Sans;-inkscape-font-specification:Sans"
     d="m 12.000041,12.000037 c -1.999999,0 -3.999998,1.999999 -3.999998,3.999998 l 0,3.999997 -1.999999,0 c -1.999999,0 -4.0111358,1.898413 -3.999998,3.999998 l 0,55.999972 C 2.000302,82.241469 4.075571,83.9998 6.3750438,84 L 89.625002,84 C 92.000001,84 94,82.000001 94,80.000002 l 0,-49.999975 c 0,-1.999999 -1.999999,-3.999998 -3.999998,-3.999998 l -3.999998,0 0,-9.999994 c 0,-1.999999 -1.999999,-3.999998 -3.999998,-3.999998 z"
     id="path3770"
     inkscape:connector-curvature="0"
     sodipodi:nodetypes="sscsccccccccsss" />
  <path
     inkscape:connector-curvature="0"
     style="font-size:medium;font-style:normal;font-variant:normal;font-weight:normal;font-stretch:normal;text-indent:0;text-align:start;text-decoration:none;line-height:normal;letter-spacing:normal;word-spacing:normal;text-transform:none;direction:ltr;block-progression:tb;writing-mode:lr-tb;text-anchor:start;baseline-shift:baseline;color:#000000;fill:#000000;fill-opacity:0.32156863;fill-rule:nonzero;stroke:none;stroke-width:1;marker:none;visibility:visible;display:inline;overflow:visible;enable-background:accumulate;font-family:Sans;-inkscape-font-specification:Sans"
     d="m 12.000041,12.000037 c -1.999999,0 -3.999998,1.999999 -3.999998,3.999998 l 0,3.999997 -1.999999,0 c -1.999999,0 -4.0111358,1.898413 -3.999998,3.999998 l 0,55.999972 C 2.000302,82.241469 4.075571,83.9998 6.3750438,84 L 89.625002,84 C 92.000001,84 94,82.000001 94,80.000002 l 0,-49.999975 c 0,-1.999999 -1.999999,-3.999998 -3.999998,-3.999998 l -3.999998,0 0,-9.999994 c 0,-1.999999 -1.999999,-3.999998 -3.999998,-3.999998 l -69.999965,0 z m -5.999997,9.999994 47.999976,0 c 1.014627,0 1.999999,0.988334 1.999999,1.999999 l 0,3.999998 33.999983,0 c 1.081715,0 1.999999,0.943618 1.999999,1.999999 l 0,49.999975 c 0,1.107509 -0.90423,1.999999 -1.999999,1.999999 l -83.999958,0 c -1.0254515,0 -1.999999,-0.892492 -1.999999,-1.999999 l 0,-55.999972 c 0,-1.086635 0.9580835,-1.999999 1.999999,-1.999999 z"
     id="path3779" />
  <path
     id="path4139"
     d="m 46.000552,40.000022 c -6.824549,0 -14.000567,7.176396 -14.000567,16.000192 0,8.823596 7.176028,15.999792 14.000567,15.999792 10.823389,0 17.999417,-7.176196 17.999417,-15.999792 0,-8.823796 -7.176016,-16.000192 -15.999992,-16.000192 z m 3.299422,2.250399 c 1.49135,0.138 2.936313,0.4784 4.25,1.049999 -0.10112,0.126 -0.17928,0.2372 -0.249994,0.45 -0.404061,1.2118 -1.007105,0.6342 -0.300006,2.149399 0.707106,1.514999 1.29797,1.906799 1.499998,1.199799 0.202048,-0.706599 -0.50812,-1.703999 0.300002,-1.299799 0.808125,0.404 1.406093,-0.11 0.799999,0.8006 -0.606092,0.908999 -0.592892,1.401799 -1.299997,1.199599 -0.707108,-0.2024 -0.69289,1.1982 -1.400001,1.400199 -0.707104,0.2024 -0.949998,-0.304999 -0.949998,0.2002 0,0.5048 0.401012,0.042 0.300004,0.85 -0.0308,0.2474 -0.02182,0.2916 -0.05,0.4 -0.663748,-0.19 -0.959778,-0.2954 -1.449997,-0.102 -0.505078,0.2024 -1.1,1.500199 -1.1,1.500199 0.630938,0.631 0.923676,1.085199 1.149998,1.300199 -0.14122,0.07 -0.311108,0.1 -0.45,0.2002 -1.010154,0.7074 -1.796955,0.8404 -2.099999,1.849799 -0.30305,1.011 -0.19998,0.086 -0.19998,1.3 0,1.212399 -0.3061,0.3888 0.300002,1.500399 0.60609,1.111199 2.092889,1.643599 2.799994,2.249799 0.70711,0.605799 1.435788,-1.3184 2.849999,0.5002 1.414213,1.817999 1.505079,1.089599 1.000001,2.100198 -0.505079,1.0102 -0.997969,1.3458 -1.199997,1.7498 -0.202046,0.403999 0.392892,1.797199 1.1,2.099799 0.0148,0 0.03416,0 0.05,0 -0.03764,0.086 -0.06268,0.163999 -0.10002,0.250599 -0.915668,0.4158 -2.038145,0.9896 -2.250003,1.0498 -0.5,0.144 -2.264283,0.4424 -3.549997,0.7998 -0.160719,0.046 -0.287231,0.046 -0.349999,0.052 0.15984,-0.173999 1.423625,-0.834799 2.049997,-1.199599 0.857147,-0.501 -0.05,-0.4502 -0.05,-0.4502 0,0 -1.364286,-0.152 -4.149994,-0.152 -1.39286,0 -1.996427,0.062 -2.300001,0.152 -0.15178,0.046 -0.226342,0.09 -0.300002,0.15 -0.07366,0.062 -0.125,0.128 -0.249996,0.2 -0.500006,0.2856 0.292846,0.5856 -0.349998,0.7996 -0.482139,0.16 -0.538169,0 -0.949997,-0.3014 0.293774,-0.2922 0.699165,-0.644 1.199997,-1.250199 0.909138,-1.0998 1.196954,-0.8996 1.499997,-1.8996 0.303052,-1.000399 -2.549994,-0.699799 -2.549994,-1.299999 0,-0.6 -0.490866,-0.999799 -1.4,-1.399999 -0.909137,-0.4002 -0.289859,-0.6002 -1.300001,-0.9002 -1.010149,-0.2988 -2.146951,1.4998 -2.449997,0.9002 -0.303052,-0.6002 0.95,-0.6002 0.95,-1.2998 0,-0.683199 -1.440727,0.5156 -1.700003,-0.349999 -0.0068,-0.032 -0.04494,-0.032 -0.05,-0.052 -0.02536,-0.126 -0.009,-0.2002 0,-0.2988 0.06356,-0.7192 0.896447,-0.9998 1.250001,-1.700199 0.404064,-0.7992 0.19492,0.600599 0.7,1.300399 0.505077,0.7 0.303054,-0.9 0,-1.799999 -0.30305,-0.9004 0.1929,-0.9 0.900001,-2.099999 0.707106,-1.200199 0.7,-1.899999 0.7,-2.800199 0,-0.899799 0.489848,-0.999199 1.499997,-1.899999 0.462988,-0.411999 0.826228,-0.771599 1.1,-1.099799 0.06618,-0.032 0.13304,-0.032 0.2,-0.052 1.071431,-0.4288 1.521427,-1.0714 2.449998,-3.000199 0.928576,-1.928199 -0.364284,-0.128 -0.650001,-0.200199 -0.285718,-0.07 -0.699998,-0.5784 -1.7,-1.15 -0.206247,-0.118 -0.390291,-0.174 -0.549997,-0.198 l 1.850001,-3.049998 c 0.59259,-0.16 1.228825,-0.2696 1.849997,-0.3502 0.227274,1.293199 0.10002,2.500199 0.10002,2.500199 0,0 -0.35,0.414199 -0.35,0.699999 0,0.2858 1.914285,-2.356998 2.199999,-2.499998 0.28572,-0.144 1.007139,0.757199 1.149997,-0.6 0.008,-0.078 -0.009,-0.08 0,-0.15 z m 2.699999,5.399797 c -0.10258,-0.032 -0.223742,-2e-4 -0.349996,0.052 0,0.3536 -0.13686,0.6108 -0.19998,0.7498 -0.03756,-0.064 -0.15002,-0.15 -0.15002,-0.15 -0.1515,0.2794 -0.478303,0.5258 -0.15002,0.45 0.3283,-0.074 0.577284,0.128 0.350002,-0.15 -0.0437,-0.052 -0.02312,-0.03 -0.05,-0.052 0.04258,0.032 0.12322,0.052 0.300002,0.052 0.1989,0 0.305812,0 0.449998,0 -0.243866,0.18 -0.509866,0.2568 -0.15002,0.35 0.47982,0.126 0.7,0.151999 0.7,0.052 0,-0.1 -0.14998,-0.45 -0.14998,-0.45 0.09374,-0.038 0.18082,-0.086 0.10002,-0.2504 -0.15152,-0.3016 -0.392222,-0.6026 -0.700004,-0.6498 z m 7.649998,0.8496 c 0.249834,0.3882 0.48916,0.787199 0.700002,1.200199 -0.13908,0.8068 -0.492292,1.350199 0.10002,1.350199 0.1656,0 0.313322,-0.036 0.45,-0.052 0.0186,0.048 0.0321,0.102001 0.05,0.15 -1.010156,0 -1.494924,0.302 -2.000001,0.2 -0.505078,-0.102 -1.909136,-0.192 -1,-1.099799 0.531352,-0.5316 1.195107,-1.375799 1.699999,-1.750399 z m -6.299997,1.850599 c 0.0931,0.03 0.17426,0.126 0.249996,0.2982 0.303052,0.707399 0.804062,1.299199 0.400002,1.400399 -0.404064,0.1 -0.600004,0.2002 -0.600004,0.2002 0,0 1.398986,0.909599 1.500002,-0.1 0.101019,-1.0106 -0.4,-1.600599 -0.4,-1.600599 0,0 0.697971,0.696199 0.899999,1.100399 0.202044,0.404 0.19492,0 0.700002,0.5002 0.505074,0.5046 0.392892,-2.007399 1.099999,-1.300199 0.707108,0.706999 1.152032,0.694999 0.949998,1.199999 -0.202046,0.5048 1.300003,-0.6102 1.300003,0.3998 0,0.973799 0.62107,1.368999 -0.599999,1.850199 -0.46231,-0.032 -0.828228,-0.11 -0.900004,-0.2506 -0.202042,-0.4036 -1.349997,-0.1 -1.349997,-0.1 -3.021833,-0.7552 -4.333718,-0.994599 -5.2,-0.8498 0.0164,-0.032 0.03228,-0.032 0.05,-0.052 0.441942,-0.796 1.273452,-1.9012 1,-2.299999 0.38514,-0.2218 0.687045,-0.465 0.899999,-0.4004 z m 8.499996,5.049597 c 0.009,0.2022 0,0.395 0,0.6002 0,0.5686 -0.0341,1.149399 -0.10002,1.699799 -0.908821,-0.808599 -2.200001,-0.799799 -2.200001,-0.799799 0,0 0.788832,-0.896 1.900001,-1.3002 0.13892,-0.052 0.287742,-0.118 0.4,-0.2 z"
     style="line-height:normal;color:#000000;fill:#000000;fill-opacity:0.32156863"
     inkscape:connector-curvature="0" />
</svg>
