<?xml version="1.0" encoding="UTF-8" standalone="no"?>
<svg
   xmlns:dc="http://purl.org/dc/elements/1.1/"
   xmlns:cc="http://creativecommons.org/ns#"
   xmlns:rdf="http://www.w3.org/1999/02/22-rdf-syntax-ns#"
   xmlns:svg="http://www.w3.org/2000/svg"
   xmlns="http://www.w3.org/2000/svg"
   xmlns:sodipodi="http://sodipodi.sourceforge.net/DTD/sodipodi-0.dtd"
   xmlns:inkscape="http://www.inkscape.org/namespaces/inkscape"
   width="96px"
   height="96px"
   viewBox="0 0 96 96"
   version="1.1"
   id="svg3004"
   inkscape:version="0.48.5 r10040"
   sodipodi:docname="folder.svg">
  <metadata
     id="metadata3015">
    <rdf:RDF>
      <cc:Work
         rdf:about="">
        <dc:format>image/svg+xml</dc:format>
        <dc:type
           rdf:resource="http://purl.org/dc/dcmitype/StillImage" />
      </cc:Work>
    </rdf:RDF>
  </metadata>
  <defs
     id="defs3013" />
  <sodipodi:namedview
     pagecolor="#ffffff"
     bordercolor="#666666"
     borderopacity="1"
     objecttolerance="10"
     gridtolerance="10"
     guidetolerance="10"
     inkscape:pageopacity="0"
     inkscape:pageshadow="2"
     inkscape:window-width="668"
     inkscape:window-height="480"
     id="namedview3011"
     showgrid="false"
     inkscape:zoom="2.4583333"
     inkscape:cx="48"
     inkscape:cy="48"
     inkscape:window-x="153"
     inkscape:window-y="169"
     inkscape:window-maximized="0"
     inkscape:current-layer="svg3004" />
  <path
     inkscape:connector-curvature="0"
     id="path3007"
     d="m 12,12 c -2,0 -4,2 -4,4 l 0,4 -2,0 c -2,0 -4.011719,1.898438 -4,4 l 0,56 c 0,2.242188 2.074219,4 4.375,4 l 83.25,0 C 92,84 94,82 94,80 l 0,-50 c 0,-2 -2,-4 -4,-4 l -4,0 0,-10 c 0,-2 -2,-4 -4,-4 z m 0,0"
     style="fill:#ffca28;fill-opacity:1;fill-rule:nonzero;stroke:none" />
  <path
     inkscape:connector-curvature="0"
     id="path3009"
     d="m 12,12 c -2,0 -4,2 -4,4 l 0,4 -2,0 c -2,0 -4.011719,1.898438 -4,4 l 0,56 c 0,2.242188 2.074219,4 4.375,4 l 83.25,0 C 92,84 94,82 94,80 l 0,-50 c 0,-2 -2,-4 -4,-4 l -4,0 0,-10 c 0,-2 -2,-4 -4,-4 z m -6,10 48,0 c 1.015625,0 2,0.988281 2,2 l 0,4 34,0 c 1.082031,0 2,0.945312 2,2 l 0,50 c 0,1.109375 -0.902344,2 -2,2 L 6,82 C 4.972656,82 4,81.109375 4,80 L 4,24 c 0,-1.085938 0.957031,-2 2,-2 z m 0,0"
     style="fill:#000000;fill-opacity:0.32156899;fill-rule:nonzero;stroke:none" />
</svg>
