<?xml version="1.0" encoding="UTF-8" standalone="no"?>
<!-- Created with Inkscape (http://www.inkscape.org/) -->

<svg
   xmlns:dc="http://purl.org/dc/elements/1.1/"
   xmlns:cc="http://creativecommons.org/ns#"
   xmlns:rdf="http://www.w3.org/1999/02/22-rdf-syntax-ns#"
   xmlns:svg="http://www.w3.org/2000/svg"
   xmlns="http://www.w3.org/2000/svg"
   xmlns:sodipodi="http://sodipodi.sourceforge.net/DTD/sodipodi-0.dtd"
   xmlns:inkscape="http://www.inkscape.org/namespaces/inkscape"
   width="48"
   height="48"
   id="svg2"
   version="1.1"
   inkscape:version="0.91 r"
   sodipodi:docname="yellow-folder-copy.svg">
  <defs
     id="defs4" />
  <sodipodi:namedview
     id="base"
     pagecolor="#ffffff"
     bordercolor="#666666"
     borderopacity="1.0"
     inkscape:pageopacity="0.0"
     inkscape:pageshadow="2"
     inkscape:zoom="16.454264"
     inkscape:cx="28.316698"
     inkscape:cy="22.321326"
     inkscape:document-units="px"
     inkscape:current-layer="layer1"
     showgrid="true"
     inkscape:window-width="1920"
     inkscape:window-height="1052"
     inkscape:window-x="0"
     inkscape:window-y="28"
     inkscape:window-maximized="1">
    <inkscape:grid
       type="xygrid"
       id="grid2990"
       empspacing="5"
       visible="true"
       enabled="true"
       snapvisiblegridlinesonly="true" />
  </sodipodi:namedview>
  <metadata
     id="metadata7">
    <rdf:RDF>
      <cc:Work
         rdf:about="">
        <dc:format>image/svg+xml</dc:format>
        <dc:type
           rdf:resource="http://purl.org/dc/dcmitype/StillImage" />
        <dc:title />
      </cc:Work>
    </rdf:RDF>
  </metadata>
  <g
     inkscape:label="Body"
     inkscape:groupmode="layer"
     id="layer1"
     transform="translate(0,-1004.3622)">
    <g
       id="g3825"
       transform="translate(-15,-13)">
      <path
         sodipodi:nodetypes="ccccccccc"
         inkscape:connector-curvature="0"
         id="path3811"
         d="m 21,1027.3622 0,14 21,0 0,-7 -1,-6 -8,0 -1,-2 -10,0 c -0.5,0 -1,0.5 -1,1 z"
         style="fill:#ffb300;fill-opacity:1;stroke:none" />
      <path
         style="opacity:0.02999998;fill:#000000;fill-opacity:1;stroke:none"
         d="m 22,22 c -0.5,0 -1,0.5 -1,1 l 0,1 c 0,-0.5 0.5,-1 1,-1 l 9,0 1,2 9,0 1,6 0,-1 -1,-6 -8,0 -1,-2 z"
         transform="translate(0,1004.3622)"
         id="path3813"
         inkscape:connector-curvature="0"
         sodipodi:nodetypes="sscsccccccccs" />
      <rect
         style="fill:#fffdf0;fill-opacity:1;stroke:none"
         id="rect3815"
         width="10"
         height="3.9999914"
         x="23"
         y="1029.3622" />
      <path
         style="fill:#ffca28;fill-opacity:1;stroke:none"
         d="m 42,1029.3622 0,14 -21,0 0,-13 10,0 1,-2 9,0 c 0.5,0 1,0.5 1,1 z"
         id="path3817"
         inkscape:connector-curvature="0"
         sodipodi:nodetypes="cccccccc" />
      <path
         sodipodi:nodetypes="ccccc"
         id="path3819"
         d="m 21,1042.3622 0,1 21,0 0,-1 z"
         style="opacity:0.15;fill:#000000;fill-opacity:1;stroke:none"
         inkscape:connector-curvature="0" />
      <path
         style="fill:none;stroke:none"
         d="m 32,1028.8622 -2.5,1.5 1.5,0 z"
         id="path3821"
         inkscape:connector-curvature="0" />
      <path
         style="opacity:0.02999998;fill:#000000;fill-opacity:1;stroke:none"
         d="m 32,24 -1,2 -10,0 0,1 11,0 1,-2 8,0 c 0.5,0 1,0.5 1,1 l 0,-1 c 0,-0.5 -0.5,-1 -1,-1 z"
         transform="translate(0,1004.3622)"
         id="path3823"
         inkscape:connector-curvature="0"
         sodipodi:nodetypes="ccccccscssc" />
    </g>
    <path
       sodipodi:nodetypes="ccccccccc"
       inkscape:connector-curvature="0"
       id="path3029"
       d="m 21,1027.3622 0,14 21,0 0,-7 -1,-6 -8,0 -1,-2 -10,0 c -0.5,0 -1,0.5 -1,1 z"
       style="fill:#ffb300;fill-opacity:1;stroke:none" />
    <path
       style="fill:#000000;fill-opacity:1;stroke:none;opacity:0.03"
       d="m 22,22 c -0.5,0 -1,0.5 -1,1 l 0,1 c 0,-0.5 0.5,-1 1,-1 l 9,0 1,2 9,0 1,6 0,-1 -1,-6 -8,0 -1,-2 z"
       transform="translate(0,1004.3622)"
       id="path3806"
       inkscape:connector-curvature="0"
       sodipodi:nodetypes="sscsccccccccs" />
    <rect
       style="fill:#fffdf0;fill-opacity:1;stroke:none"
       id="rect3799"
       width="10"
       height="3.9999914"
       x="23"
       y="1029.3622" />
    <path
       style="fill:#ffca28;fill-opacity:1;stroke:none"
       d="m 42,1029.3622 0,14 -21,0 0,-13 10,0 1,-2 9,0 c 0.5,0 1,0.5 1,1 z"
       id="rect2987"
       inkscape:connector-curvature="0"
       sodipodi:nodetypes="cccccccc" />
    <path
       sodipodi:nodetypes="ccccc"
       id="path3794"
       d="m 21,1042.3622 0,1 21,0 0,-1 z"
       style="opacity:0.15;fill:#000000;fill-opacity:1;stroke:none"
       inkscape:connector-curvature="0" />
    <path
       style="fill:none;stroke:none"
       d="m 32,1028.8622 -2.5,1.5 1.5,0 z"
       id="path3801"
       inkscape:connector-curvature="0" />
    <path
       style="opacity:0.02999998;fill:#000000;fill-opacity:1;stroke:none"
       d="m 32,24 -1,2 -10,0 0,1 11,0 1,-2 8,0 c 0.5,0 1,0.5 1,1 l 0,-1 c 0,-0.5 -0.5,-1 -1,-1 z"
       transform="translate(0,1004.3622)"
       id="path3033"
       inkscape:connector-curvature="0"
       sodipodi:nodetypes="ccccccscssc" />
  </g>
</svg>
