<?xml version="1.0" encoding="UTF-8" standalone="no"?>
<svg
   xmlns:dc="http://purl.org/dc/elements/1.1/"
   xmlns:cc="http://creativecommons.org/ns#"
   xmlns:rdf="http://www.w3.org/1999/02/22-rdf-syntax-ns#"
   xmlns:svg="http://www.w3.org/2000/svg"
   xmlns="http://www.w3.org/2000/svg"
   xmlns:sodipodi="http://sodipodi.sourceforge.net/DTD/sodipodi-0.dtd"
   xmlns:inkscape="http://www.inkscape.org/namespaces/inkscape"
   width="32"
   height="32"
   viewBox="0 0 32 32"
   id="svg3011"
   version="1.1"
   inkscape:version="0.48.5 r10040"
   sodipodi:docname="folder-publicshare.svg">
  <metadata
     id="metadata3025">
    <rdf:RDF>
      <cc:Work
         rdf:about="">
        <dc:format>image/svg+xml</dc:format>
        <dc:type
           rdf:resource="http://purl.org/dc/dcmitype/StillImage" />
      </cc:Work>
    </rdf:RDF>
  </metadata>
  <defs
     id="defs3023" />
  <sodipodi:namedview
     pagecolor="#ffffff"
     bordercolor="#666666"
     borderopacity="1"
     objecttolerance="10"
     gridtolerance="10"
     guidetolerance="10"
     inkscape:pageopacity="0"
     inkscape:pageshadow="2"
     inkscape:window-width="1280"
     inkscape:window-height="998"
     id="namedview3021"
     showgrid="true"
     inkscape:zoom="14.75"
     inkscape:cx="8.9515321"
     inkscape:cy="16.531024"
     inkscape:window-x="0"
     inkscape:window-y="0"
     inkscape:window-maximized="1"
     inkscape:current-layer="svg3011">
    <inkscape:grid
       type="xygrid"
       id="grid3759" />
  </sodipodi:namedview>
  <path
     style="font-size:medium;font-style:normal;font-variant:normal;font-weight:normal;font-stretch:normal;text-indent:0;text-align:start;text-decoration:none;line-height:normal;letter-spacing:normal;word-spacing:normal;text-transform:none;direction:ltr;block-progression:tb;writing-mode:lr-tb;text-anchor:start;baseline-shift:baseline;color:#000000;fill:#8d6e63;fill-opacity:1;fill-rule:nonzero;stroke:none;stroke-width:1;marker:none;visibility:visible;display:inline;overflow:visible;enable-background:accumulate;font-family:Sans;-inkscape-font-specification:Sans"
     d="m 4,4.0000004 c -0.4916,0 -1,0.4731187 -1,1 l 0,1 c -0.6666667,0 -0.8333333,0 -1.5,0 -0.9791617,0 -1.5,0.4940342 -1.5,1.5 L 0,26.5 C 0,27.531461 0.5230687,28 1.5,28 l 28.84375,0 C 31.21572,28 32,27.376781 32,26.5 L 32,9.5000004 c 0,-0.9413229 -0.425107,-1.5 -1.5,-1.5 l -2.5,0 0,-3 c 0,-0.5268813 -0.5084,-1 -1,-1 z"
     id="path3004"
     inkscape:connector-curvature="0"
     sodipodi:nodetypes="ssccssssscccsss" />
  <path
     style="font-size:medium;font-style:normal;font-variant:normal;font-weight:normal;font-stretch:normal;text-indent:0;text-align:start;text-decoration:none;line-height:normal;letter-spacing:normal;word-spacing:normal;text-transform:none;direction:ltr;block-progression:tb;writing-mode:lr-tb;text-anchor:start;baseline-shift:baseline;color:#000000;fill:#000000;fill-opacity:0.32156863;fill-rule:nonzero;stroke:none;stroke-width:1;marker:none;visibility:visible;display:inline;overflow:visible;enable-background:accumulate;font-family:Sans;-inkscape-font-specification:Sans"
     d="m 4,4.0000004 c -0.4916,0 -1,0.4731186 -1,1 l 0,1 c -0.6868035,0 -0.8835353,0 -1.5,0 -0.9791617,0 -1.5,0.4829856 -1.5,1.5 L 0,26.5 C 0,27.503839 0.5009716,28 1.5,28 l 28.84375,0 C 31.21572,28 32,27.376781 32,26.5 L 32,9.5517771 C 32,8.5377944 31.580916,8.0000004 30.5,8.0000004 l -2.5,0 0,-3 c 0,-0.5268814 -0.5084,-1 -1,-1 z m 15,3 0,2 12,0 L 31,27 1,27 1,7.0000004 z"
     id="path3784"
     inkscape:connector-curvature="0"
     sodipodi:nodetypes="ssccssssscccsssccccccc" />
  <path
     id="path4054"
     d="m 17.929135,12.0005 c -1.404356,0 -2.562992,1.0945 -2.562992,2.464 0.01037,0.47 0.0358,1.0652 0.30315,2.3225 l 0.02756,0 c 0.05395,0.1663 0.136848,0.3317 0.275591,0.5098 0.124179,0.1595 0.288832,0.3412 0.440945,0.5098 0.04674,0.3553 0.05398,0.666 0,1.048 -0.417001,0.3254 -1.16898,0.629 -1.846457,0.9062 -0.353064,0.1445 -0.679465,0.2781 -0.937007,0.4532 -0.245708,0.1671 -0.423735,0.3944 -0.440945,0.6798 -9e-4,0.014 -0.0276,0.014 -0.02756,0.028 l -0.30315,2.4075 0,0.028 c 0,0.2984 0.193438,0.5425 0.468504,0.7364 0.27507,0.194 0.648423,0.3461 1.102362,0.4815 0.907879,0.2708 2.139416,0.4248 3.5,0.4248 1.360584,0 2.592121,-0.154 3.5,-0.4248 0.453939,-0.1354 0.827296,-0.2875 1.102362,-0.4815 0.275066,-0.1939 0.468504,-0.438 0.468504,-0.7364 l 0,-0.028 -0.330709,-2.4075 c -4.8e-5,-0.01 4.42e-4,-0.019 0,-0.028 -0.0082,-0.1363 -0.05605,-0.2703 -0.137795,-0.3683 -0.08727,-0.1047 -0.20242,-0.1725 -0.330708,-0.2548 -0.256577,-0.1647 -0.583825,-0.3036 -0.937009,-0.4532 -0.685951,-0.2904 -1.436571,-0.6188 -1.846456,-0.9629 -0.03073,-0.3286 -0.03224,-0.663 0,-0.9914 0.147968,-0.1798 0.314403,-0.3653 0.440945,-0.5381 0.140913,-0.1924 0.247568,-0.3668 0.30315,-0.5381 0.301465,-1.3092 0.314843,-1.8434 0.330708,-2.3225 0,-1.3695 -1.158635,-2.464 -2.562992,-2.464 z m -4.767716,0.4532 c -1.153486,0 -2.094489,0.9154 -2.094489,2.0392 0.0085,0.3851 0.02865,0.8376 0.248032,1.8693 l 0,0.028 c 0.0447,0.1378 0.132455,0.2484 0.248031,0.3965 0.101184,0.1295 0.235954,0.2891 0.358268,0.4249 0.037,0.2847 0.0418,0.5725 0,0.8779 -0.340687,0.2686 -0.957819,0.5097 -1.515748,0.7364 -0.289216,0.1175 -0.533022,0.2253 -0.744094,0.3682 -0.199475,0.1351 -0.341416,0.3358 -0.358268,0.5665 -9.5e-4,0.014 -0.02762,0.014 -0.02756,0.029 L 9,21.7438 l 0,0.028 c 0,0.184 0.08554,0.3428 0.220473,0.4816 0.134925,0.1387 0.322224,0.2658 0.551181,0.3681 0.451578,0.2019 1.095224,0.3423 1.874016,0.4249 l 0.02756,0 c 0.04233,1e-4 0.08448,-0.012 0.110236,-0.028 0.03188,-0.021 0.0691,-0.037 0.08268,-0.056 0.02717,-0.039 0.04343,-0.078 0.05512,-0.1133 0.02055,-0.062 0.02473,-0.1351 0.02756,-0.1982 3.97e-4,-0.01 0,-0.019 0,-0.028 l 0.30315,-2.4074 c -4.24e-4,-0.099 0.06595,-0.2168 0.220472,-0.3399 0.154525,-0.1232 0.388468,-0.2467 0.661418,-0.3682 0.545894,-0.2432 1.237926,-0.4689 1.791338,-0.7647 l 0.30315,-0.1699 -0.30315,-0.1417 c -0.218687,-0.1091 -0.385955,-0.2289 -0.523622,-0.3398 -0.02672,-0.2797 -0.02835,-0.571 0,-0.8497 9e-4,-0.01 -9e-4,-0.019 0,-0.028 0.210146,-0.2908 0.37005,-0.5927 0.440945,-0.7648 l 0.02756,-0.056 -0.02756,-0.056 c -0.02394,-0.1407 -0.016,-0.2476 -0.05512,-0.3682 -0.26417,-1.2423 -0.293114,-1.7547 -0.30315,-2.2092 0,-0.191 0.04361,-0.4135 0.110236,-0.623 l 0.05512,-0.1134 -0.110237,-0.056 c -0.368021,-0.3023 -0.855195,-0.5098 -1.377952,-0.5098 z"
     style="line-height:normal;opacity:1;color:#000000;fill:#000000;fill-opacity:0.32156864000000002"
     inkscape:connector-curvature="0" />
</svg>
