<?xml version="1.0" encoding="UTF-8" standalone="no"?>
<!-- Created with Inkscape (http://www.inkscape.org/) -->

<svg
   xmlns:dc="http://purl.org/dc/elements/1.1/"
   xmlns:cc="http://creativecommons.org/ns#"
   xmlns:rdf="http://www.w3.org/1999/02/22-rdf-syntax-ns#"
   xmlns:svg="http://www.w3.org/2000/svg"
   xmlns="http://www.w3.org/2000/svg"
   xmlns:sodipodi="http://sodipodi.sourceforge.net/DTD/sodipodi-0.dtd"
   xmlns:inkscape="http://www.inkscape.org/namespaces/inkscape"
   width="96"
   height="96"
   id="svg2"
   version="1.1"
   inkscape:version="0.91 r"
   sodipodi:docname="custom-add-folders-to-archive.svg">
  <defs
     id="defs4" />
  <sodipodi:namedview
     id="base"
     pagecolor="#ffffff"
     bordercolor="#666666"
     borderopacity="1.0"
     inkscape:pageopacity="0.0"
     inkscape:pageshadow="2"
     inkscape:zoom="3.5814958"
     inkscape:cx="6.6123627"
     inkscape:cy="52.324947"
     inkscape:document-units="px"
     inkscape:current-layer="layer1"
     showgrid="true"
     inkscape:window-width="1280"
     inkscape:window-height="998"
     inkscape:window-x="0"
     inkscape:window-y="0"
     inkscape:window-maximized="1">
    <inkscape:grid
       type="xygrid"
       id="grid2990"
       empspacing="5"
       visible="true"
       enabled="true"
       snapvisiblegridlinesonly="true" />
  </sodipodi:namedview>
  <metadata
     id="metadata7">
    <rdf:RDF>
      <cc:Work
         rdf:about="">
        <dc:format>image/svg+xml</dc:format>
        <dc:type
           rdf:resource="http://purl.org/dc/dcmitype/StillImage" />
        <dc:title />
      </cc:Work>
    </rdf:RDF>
  </metadata>
  <g
     inkscape:label="Body"
     inkscape:groupmode="layer"
     id="layer1"
     transform="translate(0,-956.3622)">
    <rect
       style="opacity:0.5;fill:#fffdf0;fill-opacity:1;stroke:none"
       id="rect3799-9-4"
       width="20"
       height="7.9999828"
       x="16"
       y="1004.3622" />
    <path
       style="opacity:0.5;fill:none;stroke:none"
       d="m 34,1003.3622 -5,3 3,0 z"
       id="path3801-9-4"
       inkscape:connector-curvature="0" />
    <path
       style="opacity:0.01499999;fill:#000000;fill-opacity:1;stroke:none"
       d="m 34,1002.3622 -2,4 -20,0 0,2 22,0 2,-4 16,0 c 1,0 2,1 2,2 l 0,-2 c 0,-1 -1,-2 -2,-2 z"
       id="path3033-3"
       inkscape:connector-curvature="0"
       sodipodi:nodetypes="ccccccscssc" />
    <rect
       style="opacity:0.5;fill:replacecolour2;fill-opacity:1;stroke:none"
       id="rect2987-5"
       width="42"
       height="29.999968"
       x="12"
       y="1002.3622"
       rx="4.5652175"
       ry="4.6874919" />
    <path
       style="opacity:0.1;fill:#ffffff;fill-opacity:1;stroke:none"
       d="m 16.068998,1002.3622 c -2.254226,0 -4.068998,2.23 -4.068998,5.0002 l 0,2.0002 c 0,-2.7702 1.814772,-5.0004 4.068998,-5.0004 l 29.296786,0 c 2.254226,0 4.068998,2.2302 4.068998,5.0004 l 0,-2.0002 c 0,-2.7702 -1.814772,-5.0002 -4.068998,-5.0002 l -29.296786,0 z"
       id="rect3797-1"
       inkscape:connector-curvature="0" />
    <path
       style="opacity:0.5;fill:replacecolour1;fill-opacity:1;stroke:none"
       d="m 16.565218,1009.6956 7.304348,0 c 10.043478,-0.9444 8.21739,-11.3334 14.608694,-11.3334 l 10.956522,0 c 2.529132,0 4.565218,2.1062 4.565218,4.7222 l 0,24.5556 c 0,2.6162 -2.036086,4.7222 -4.565218,4.7222 l -32.869564,0 C 14.036086,1032.3622 12,1030.2562 12,1027.64 l 0,-13.2222 c 0,-2.8334 1.826086,-4.7222 4.565218,-4.7222 z"
       id="rect3776-3"
       inkscape:connector-curvature="0"
       sodipodi:nodetypes="cccsssssscc" />
    <path
       style="opacity:0.075;fill:#000000;fill-opacity:1;stroke:none"
       d="m 12,1025.3618 0,2.0002 c 0,2.7702 2.036086,5.0002 4.565218,5.0002 l 32.869564,0 c 2.529132,0 4.565218,-2.23 4.565218,-5.0002 l 0,-2.0002 c 0,2.7702 -2.036086,5.0004 -4.565218,5.0004 l -32.869564,0 C 14.036086,1030.3622 12,1028.132 12,1025.3618 z"
       id="path3786-5"
       inkscape:connector-curvature="0" />
    <rect
       style="fill:#fffdf0;fill-opacity:1;stroke:none"
       id="rect3799-9"
       width="20"
       height="7.9999828"
       x="46"
       y="978.36218" />
    <path
       style="fill:none;stroke:none"
       d="m 64,977.3622 -5,3 3,0 z"
       id="path3801-9"
       inkscape:connector-curvature="0" />
    <path
       style="opacity:0.02999998;fill:#000000;fill-opacity:1;stroke:none"
       d="m 64,976.3622 -2,4 -20,0 0,2 22,0 2,-4 16,0 c 1,0 2,1 2,2 l 0,-2 c 0,-1 -1,-2 -2,-2 z"
       id="path3033"
       inkscape:connector-curvature="0"
       sodipodi:nodetypes="ccccccscssc" />
    <rect
       style="fill:replacecolour2;fill-opacity:1;stroke:none"
       id="rect2987"
       width="42"
       height="29.999968"
       x="42"
       y="976.36218"
       rx="4.5652175"
       ry="4.6874919" />
    <path
       style="opacity:0.2;fill:#ffffff;fill-opacity:1;stroke:none"
       d="m 46,976.3622 c -2.529132,0 -4.565218,2.23 -4.565218,5.0002 l 0,2.0002 c 0,-2.7702 2.036086,-5.0004 4.565218,-5.0004 l 32.869564,0 c 2.529132,0 4.565218,2.2302 4.565218,5.0004 l 0,-2.0002 c 0,-2.7702 -2.036086,-5.0002 -4.565218,-5.0002 L 46,976.3622 z"
       id="rect3797"
       inkscape:connector-curvature="0" />
    <path
       style="fill:replacecolour1;fill-opacity:1;stroke:none"
       d="m 46.565218,983.6956 7.304348,0 c 10.043478,-0.9444 8.21739,-11.3334 14.608694,-11.3334 l 10.956522,0 c 2.529132,0 4.565218,2.1062 4.565218,4.7222 l 0,24.5556 c 0,2.6162 -2.036086,4.7222 -4.565218,4.7222 l -32.869564,0 C 44.036086,1006.3622 42,1004.2562 42,1001.64 l 0,-13.2222 c 0,-2.8334 1.826086,-4.7222 4.565218,-4.7222 z"
       id="rect3776"
       inkscape:connector-curvature="0"
       sodipodi:nodetypes="cccsssssscc" />
    <path
       style="opacity:0.15;fill:#000000;fill-opacity:1;stroke:none"
       d="m 42,999.3618 0,2.0002 c 0,2.7702 2.036086,5.0002 4.565218,5.0002 l 32.869564,0 c 2.529132,0 4.565218,-2.23 4.565218,-5.0002 l 0,-2.0002 c 0,2.7702 -2.036086,5.0004 -4.565218,5.0004 l -32.869564,0 C 44.036086,1004.3622 42,1002.132 42,999.3618 z"
       id="path3786"
       inkscape:connector-curvature="0" />
    <path
       inkscape:connector-curvature="0"
       style="fill:#4caf50;fill-opacity:1"
       d="m 84,1008.3622 -16,0 0,-16 -8,0 0,16 -16,0 0,8 16,0 0,16 8,0 0,-16 16,0 z"
       id="path2996"
       sodipodi:nodetypes="ccccccccccccc" />
  </g>
</svg>
