<?xml version="1.0" encoding="UTF-8" standalone="no"?>
<!-- Created with Inkscape (http://www.inkscape.org/) -->

<svg
   xmlns:dc="http://purl.org/dc/elements/1.1/"
   xmlns:cc="http://creativecommons.org/ns#"
   xmlns:rdf="http://www.w3.org/1999/02/22-rdf-syntax-ns#"
   xmlns:svg="http://www.w3.org/2000/svg"
   xmlns="http://www.w3.org/2000/svg"
   xmlns:xlink="http://www.w3.org/1999/xlink"
   xmlns:sodipodi="http://sodipodi.sourceforge.net/DTD/sodipodi-0.dtd"
   xmlns:inkscape="http://www.inkscape.org/namespaces/inkscape"
   width="96"
   height="96"
   id="svg2"
   version="1.1"
   inkscape:version="0.91 r"
   sodipodi:docname="grey-document-open-recent.svg">
  <defs
     id="defs4">
    <linearGradient
       id="linearGradient3886-2">
      <stop
         style="stop-color:#000000;stop-opacity:1;"
         offset="0"
         id="stop3888-2" />
      <stop
         style="stop-color:#000000;stop-opacity:0.19607843;"
         offset="1"
         id="stop3890-3" />
    </linearGradient>
    <radialGradient
       inkscape:collect="always"
       xlink:href="#linearGradient3886-2"
       id="radialGradient3190"
       gradientUnits="userSpaceOnUse"
       gradientTransform="matrix(2.5,0,0,0.41666636,-12,1019.4872)"
       cx="24"
       cy="40.5"
       fx="24"
       fy="40.5"
       r="24" />
  </defs>
  <sodipodi:namedview
     id="base"
     pagecolor="#ffffff"
     bordercolor="#666666"
     borderopacity="1.0"
     inkscape:pageopacity="0.0"
     inkscape:pageshadow="2"
     inkscape:zoom="4.4075"
     inkscape:cx="54.108597"
     inkscape:cy="40.666768"
     inkscape:document-units="px"
     inkscape:current-layer="layer1"
     showgrid="true"
     inkscape:window-width="1280"
     inkscape:window-height="998"
     inkscape:window-x="0"
     inkscape:window-y="0"
     inkscape:window-maximized="1">
    <inkscape:grid
       type="xygrid"
       id="grid2990"
       empspacing="5"
       visible="true"
       enabled="true"
       snapvisiblegridlinesonly="true" />
  </sodipodi:namedview>
  <metadata
     id="metadata7">
    <rdf:RDF>
      <cc:Work
         rdf:about="">
        <dc:format>image/svg+xml</dc:format>
        <dc:type
           rdf:resource="http://purl.org/dc/dcmitype/StillImage" />
        <dc:title />
      </cc:Work>
    </rdf:RDF>
  </metadata>
  <g
     inkscape:label="Body"
     inkscape:groupmode="layer"
     id="layer1"
     transform="translate(0,-956.3622)">
    <rect
       style="fill:#757575;fill-opacity:1;stroke:none"
       id="rect2987"
       width="92"
       height="64.000008"
       x="2"
       y="976.36218"
       rx="10"
       ry="9.9999952" />
    <path
       style="opacity:0.2;fill:#ffffff;fill-opacity:1;stroke:none"
       d="m 12,976.36223 c -5.54,0 -10,4.46 -10,10 l 0,3.99999 c 0,-5.53999 4.46,-9.99999 10,-9.99999 l 72,0 c 5.54,0 10,4.46 10,9.99999 l 0,-3.99999 c 0,-5.54 -4.46,-10 -10,-10 l -72,0 z"
       id="rect3797"
       inkscape:connector-curvature="0" />
    <path
       inkscape:connector-curvature="0"
       style="opacity:0.1;fill:url(#radialGradient3190);fill-opacity:1;stroke:none"
       d="m 48,1026.3622 c -19.653098,0 -37.05594,1.5662 -48,4 l 0,12 c 10.94406,2.4338 28.346902,4 48,4 19.653098,0 37.05594,-1.5662 48,-4 l 0,-12 c -10.94406,-2.4338 -28.346902,-4 -48,-4 z"
       id="path3868" />
    <rect
       style="fill:#eae7d1;fill-opacity:1;stroke:none"
       id="rect3799"
       width="60"
       height="50.000011"
       x="18"
       y="966.36218"
       ry="3.9999983"
       rx="4" />
    <rect
       style="fill:#7a7a68;fill-opacity:1;stroke:none"
       id="rect3810"
       width="48"
       height="3.9999983"
       x="24"
       y="988.36218" />
    <rect
       y="996.36218"
       x="24"
       height="3.9999983"
       width="48"
       id="rect3812"
       style="fill:#7a7a68;fill-opacity:1;stroke:none" />
    <path
       style="fill:#bdbdbd;fill-opacity:1;stroke:none"
       d="m 12,1004.3622 16,0 c 22,-1.5 18,-17.99997 32,-17.99997 l 24,0 c 5.54,0 10,3.34499 10,7.49999 l 0,38.99998 c 0,4.155 -4.46,7.5 -10,7.5 l -72,0 c -5.54,0 -10,-3.345 -10,-7.5 l 0,-21 c 0,-4.5 4,-7.5 10,-7.5 z"
       id="rect3776"
       inkscape:connector-curvature="0"
       sodipodi:nodetypes="cccsssssscc" />
    <path
       style="opacity:0.15;fill:#000000;fill-opacity:1;stroke:none"
       d="m 2,1029.7882 0,3.0212 c 0,4.1842 4.46,7.5528 10,7.5528 l 72,0 c 5.54,0 10,-3.3686 10,-7.5528 l 0,-3.0212 c 0,4.1842 -4.46,7.5528 -10,7.5528 l -72,0 c -5.54,0 -10,-3.3686 -10,-7.5528 z"
       id="path3786"
       inkscape:connector-curvature="0" />
    <path
       style="fill:none;stroke:none"
       d="m 50,988.36223 -10,5.99999 6,0 z"
       id="path3801"
       inkscape:connector-curvature="0" />
    <rect
       style="fill:#7a7a68;fill-opacity:1;stroke:none"
       id="rect3794"
       width="48"
       height="3.9999983"
       x="24"
       y="972.36218" />
    <rect
       y="980.36218"
       x="24"
       height="3.9999983"
       width="48"
       id="rect3808"
       style="fill:#7a7a68;fill-opacity:1;stroke:none" />
    <path
       inkscape:connector-curvature="0"
       style="fill:#4caf50;fill-opacity:1;fill-rule:evenodd"
       d="m 85.99622,1015.366 c 0.13686,6.7392 -3.451746,13.027 -9.389662,16.438 -5.930312,3.411 -13.28238,3.411 -19.220296,0 -5.937916,-3.411 -9.526514,-9.6988 -9.38206,-16.438 -0.14446,-6.747 3.444144,-13.0344 9.38206,-16.44538 5.937916,-3.4112 13.289984,-3.4112 19.220296,0 5.937916,3.41098 9.526514,9.69838 9.389662,16.44538 z"
       id="path2993" />
    <path
       inkscape:connector-curvature="0"
       style="fill:#ffffff"
       d="m 77.389662,1003.4158 c -0.402956,0.142 -0.74509,0.4144 -0.97318,0.7682 l -10.355238,10.0224 -6.462518,-6.167 c -0.258502,-0.8508 -1.07202,-1.4232 -1.976774,-1.3782 -0.897148,0.052 -1.64224,0.708 -1.809504,1.5814 -0.15966,0.8812 0.31172,1.7546 1.140444,2.1084 l 7.785436,7.7108 c 0.745092,0.6928 1.900742,0.6928 2.645834,0 l 11.678154,-11.566 c 0.456176,-0.595 0.517,-1.4082 0.15966,-2.0708 -0.35734,-0.6628 -1.079622,-1.0542 -1.832316,-1.0092 z"
       id="path2995" />
  </g>
</svg>
