<!-- Created with Inkscape (http://www.inkscape.org/) -->
<svg xmlns="http://www.w3.org/2000/svg" viewBox="0 0 96 96">
 <g transform="translate(0,-956.3622)">
  <rect width="20" height="8" x="16" y="1004.36" style="fill:#fffdf0;opacity:0.5;fill-opacity:1;stroke:none"/>
  <path d="m 34 1002.36 -2 4 -20 0 0 2 22 0 2 -4 16 0 c 1 0 2 1 2 2 l 0 -2 c 0 -1 -1 -2 -2 -2 z" style="fill:#000;opacity:0.015;fill-opacity:1;stroke:none"/>
  <rect width="42" height="30" x="12" y="1002.36" rx="4.565" ry="4.687" style="fill:#e65100;opacity:0.5;fill-opacity:1;stroke:none"/>
  <path d="m 16.07 1002.36 c -2.254 0 -4.069 2.23 -4.069 5 l 0 2 c 0 -2.77 1.815 -5 4.069 -5 l 29.3 0 c 2.254 0 4.069 2.23 4.069 5 l 0 -2 c 0 -2.77 -1.815 -5 -4.069 -5 l -29.3 0 z" style="fill:#fff;opacity:0.1;fill-opacity:1;stroke:none"/>
  <path d="m 16.565 1009.7 7.304 0 c 10.04 -0.944 8.217 -11.333 14.609 -11.333 l 10.957 0 c 2.529 0 4.565 2.106 4.565 4.722 l 0 24.556 c 0 2.616 -2.036 4.722 -4.565 4.722 l -32.87 0 c -2.529 0 -4.565 -2.106 -4.565 -4.722 l 0 -13.222 c 0 -2.833 1.826 -4.722 4.565 -4.722 z" style="fill:#f57c00;opacity:0.5;fill-opacity:1;stroke:none"/>
  <path d="m 12 1025.36 0 2 c 0 2.77 2.036 5 4.565 5 l 32.87 0 c 2.529 0 4.565 -2.23 4.565 -5 l 0 -2 c 0 2.77 -2.036 5 -4.565 5 l -32.87 0 c -2.529 0 -4.565 -2.23 -4.565 -5 z" style="fill:#000;opacity:0.075;fill-opacity:1;stroke:none"/>
  <rect width="20" height="8" x="46" y="978.36" style="fill:#fffdf0;fill-opacity:1;stroke:none"/>
  <path d="m 64 976.36 -2 4 -20 0 0 2 22 0 2 -4 16 0 c 1 0 2 1 2 2 l 0 -2 c 0 -1 -1 -2 -2 -2 z" style="fill:#000;opacity:0.03;fill-opacity:1;stroke:none"/>
  <rect width="42" height="30" x="42" y="976.36" rx="4.565" ry="4.687" style="fill:#e65100;fill-opacity:1;stroke:none"/>
  <path d="m 46 976.36 c -2.529 0 -4.565 2.23 -4.565 5 l 0 2 c 0 -2.77 2.036 -5 4.565 -5 l 32.87 0 c 2.529 0 4.565 2.23 4.565 5 l 0 -2 c 0 -2.77 -2.036 -5 -4.565 -5 l -32.87 0 z" style="fill:#fff;opacity:0.2;fill-opacity:1;stroke:none"/>
  <path d="m 46.565 983.7 7.304 0 c 10.04 -0.944 8.217 -11.333 14.609 -11.333 l 10.957 0 c 2.529 0 4.565 2.106 4.565 4.722 l 0 24.556 c 0 2.616 -2.036 4.722 -4.565 4.722 l -32.87 0 c -2.529 0 -4.565 -2.106 -4.565 -4.722 l 0 -13.222 c 0 -2.833 1.826 -4.722 4.565 -4.722 z" style="fill:#f57c00;fill-opacity:1;stroke:none"/>
  <path d="m 42 999.36 0 2 c 0 2.77 2.036 5 4.565 5 l 32.87 0 c 2.529 0 4.565 -2.23 4.565 -5 l 0 -2 c 0 2.77 -2.036 5 -4.565 5 l -32.87 0 c -2.529 0 -4.565 -2.23 -4.565 -5 z" style="fill:#000;opacity:0.15;fill-opacity:1;stroke:none"/>
  <path d="m 84 1008.36 -16 0 0 -16 -8 0 0 16 -16 0 0 8 16 0 0 16 8 0 0 -16 16 0 z" style="fill:#4caf50;fill-opacity:1"/>
 </g>
</svg>
