<?xml version="1.0" encoding="UTF-8" standalone="no"?>
<svg
   xmlns:dc="http://purl.org/dc/elements/1.1/"
   xmlns:cc="http://creativecommons.org/ns#"
   xmlns:rdf="http://www.w3.org/1999/02/22-rdf-syntax-ns#"
   xmlns:svg="http://www.w3.org/2000/svg"
   xmlns="http://www.w3.org/2000/svg"
   xmlns:sodipodi="http://sodipodi.sourceforge.net/DTD/sodipodi-0.dtd"
   xmlns:inkscape="http://www.inkscape.org/namespaces/inkscape"
   width="64"
   height="64"
   viewBox="0 0 64 64"
   id="svg3095"
   version="1.1"
   inkscape:version="0.48.4 r9939"
   sodipodi:docname="folder-move.svg">
  <metadata
     id="metadata3125">
    <rdf:RDF>
      <cc:Work
         rdf:about="">
        <dc:format>image/svg+xml</dc:format>
        <dc:type
           rdf:resource="http://purl.org/dc/dcmitype/StillImage" />
      </cc:Work>
    </rdf:RDF>
  </metadata>
  <sodipodi:namedview
     pagecolor="#ffffff"
     bordercolor="#666666"
     borderopacity="1"
     objecttolerance="10"
     gridtolerance="10"
     guidetolerance="10"
     inkscape:pageopacity="0"
     inkscape:pageshadow="2"
     inkscape:window-width="658"
     inkscape:window-height="480"
     id="namedview3123"
     showgrid="false"
     inkscape:zoom="2.6074563"
     inkscape:cx="-2.2133373"
     inkscape:cy="21.509588"
     inkscape:window-x="0"
     inkscape:window-y="0"
     inkscape:window-maximized="0"
     inkscape:current-layer="svg3095" />
  <defs
     id="defs3097">
    <clipPath
       id="clip1">
      <rect
         width="64"
         height="64"
         id="rect3100" />
    </clipPath>
    <filter
       width="100%"
       x="0"
       y="0"
       height="100%"
       filterUnits="objectBoundingBox"
       id="alpha">
      <feColorMatrix
         values="0 0 0 0 1 0 0 0 0 1 0 0 0 0 1 0 0 0 1 0"
         in="SourceGraphic"
         type="matrix"
         id="feColorMatrix3103" />
    </filter>
    <g
       style="clip-path:url(#clip1)"
       id="surface6"
       clip-path="url(#clip1)">
      <path
         style="fill:#a57953;stroke:#a57953"
         d="M 3.007812 17.5 C 2.730469 17.472656 2.496094 17.185547 2.5 16.876953 L 2.5 5.123047 C 2.5 4.798828 2.767578 4.5 3.0625 4.5 L 16.9375 4.5 C 17.230469 4.5 17.5 4.798828 17.5 5.123047 L 17.5 15.791016 C 17.5 16.113281 17.230469 16.408203 16.9375 16.408203 L 11.517578 16.408203 L 11.517578 16.876953 C 11.517578 17.205078 11.25 17.5 10.955078 17.5 L 3.0625 17.5 C 3.042969 17.5 3.023438 17.5 3.007812 17.5 Z "
         transform="scale(2)"
         id="path3106" />
      <path
         style="fill:#a57953;stroke:#a57953"
         d="M 1.142578 6.5 C 0.792969 6.527344 0.496094 6.814453 0.5 7.123047 L 0.5 18.876953 C 0.5 19.201172 0.837891 19.5 1.212891 19.5 L 18.787109 19.5 C 19.158203 19.5 19.5 19.201172 19.5 18.876953 L 19.5 8.208984 C 19.5 7.886719 19.158203 7.591797 18.787109 7.591797 L 11.921875 7.591797 L 11.921875 7.123047 C 11.921875 6.794922 11.583984 6.5 11.208984 6.5 L 1.212891 6.5 C 1.1875 6.5 1.164062 6.5 1.142578 6.5 Z "
         transform="scale(2)"
         id="path3108" />
    </g>
    <mask
       id="mask0">
      <g
         style="filter:url(#alpha)"
         id="g3111">
        <rect
           width="64"
           x="0"
           y="0"
           height="64"
           style="fill:#000;fill-opacity:.502"
           id="rect3113" />
      </g>
    </mask>
  </defs>
  <path
     style="fill:#e9a439;fill-opacity:1;stroke:#e9a439;stroke-width:2;stroke-opacity:1;opacity:0.5"
     d="m 6.1250768,8.9999997 c -0.589844,0 -1.125,0.601562 -1.125,1.2500003 l 0,2.75 -2.5625,0 -0.15625,0 c -0.699218,0.05469 -1.28906208,0.632812 -1.2812501,1.25 l 0,23.5 c 0,0.648438 0.6875001,1.25 1.4375001,1.25 l 35.1250012,0 c 0.742188,0 1.4375,-0.601562 1.4375,-1.25 l 0,-21.34375 c 0,-0.64453 -0.695312,-1.21875 -1.4375,-1.21875 l -2.5625,0 0,-4.9375 c 0,-0.6484383 -0.539062,-1.2500003 -1.125,-1.2500003 l -27.7500012,0 z"
     id="path2998"
     inkscape:connector-curvature="0" />
  <path
     inkscape:connector-curvature="0"
     id="path3119"
     d="M 30.015624,51 C 29.460938,50.945312 28.992188,50.371094 29,49.753906 L 29,26.246094 C 29,25.597656 29.535156,25 30.125,25 l 27.75,0 C 58.460938,25 59,25.597656 59,26.246094 l 0,21.335938 c 0,0.64453 -0.539062,1.234374 -1.125,1.234374 l -10.839844,0 0,0.9375 C 47.035156,50.410156 46.5,51 45.910156,51 L 30.125,51 c -0.03906,0 -0.07812,0 -0.10938,0 z"
     style="fill:#e9a439;stroke:#e9a439;stroke-width:2;stroke-opacity:1;fill-opacity:1" />
  <path
     inkscape:connector-curvature="0"
     id="path3121"
     d="M 26.285156,29 C 25.585938,29.054688 24.992188,29.628906 25,30.246094 l 0,23.507812 C 25,54.402344 25.675782,55 26.425782,55 l 35.148436,0 C 62.316406,55 63,54.402344 63,53.753906 l 0,-21.335938 c 0,-0.64453 -0.683594,-1.234374 -1.425782,-1.234374 l -13.730468,0 0,-0.9375 C 47.84375,29.589844 47.167968,29 46.417968,29 l -19.992186,0 c -0.05078,0 -0.09766,0 -0.14062,0 z"
     style="fill:#f5c14e;stroke:#e9a439;stroke-width:2;stroke-opacity:1;fill-opacity:1" />
</svg>
