<?xml version="1.0" encoding="UTF-8" standalone="no"?>
<svg
   xmlns:dc="http://purl.org/dc/elements/1.1/"
   xmlns:cc="http://creativecommons.org/ns#"
   xmlns:rdf="http://www.w3.org/1999/02/22-rdf-syntax-ns#"
   xmlns:svg="http://www.w3.org/2000/svg"
   xmlns="http://www.w3.org/2000/svg"
   xmlns:sodipodi="http://sodipodi.sourceforge.net/DTD/sodipodi-0.dtd"
   xmlns:inkscape="http://www.inkscape.org/namespaces/inkscape"
   width="64"
   height="64"
   viewBox="0 0 64 64"
   id="svg3203"
   version="1.1"
   inkscape:version="0.48.4 r9939"
   sodipodi:docname="folder-recent.svg">
  <metadata
     id="metadata3217">
    <rdf:RDF>
      <cc:Work
         rdf:about="">
        <dc:format>image/svg+xml</dc:format>
        <dc:type
           rdf:resource="http://purl.org/dc/dcmitype/StillImage" />
      </cc:Work>
    </rdf:RDF>
  </metadata>
  <defs
     id="defs3215" />
  <sodipodi:namedview
     pagecolor="#ffffff"
     bordercolor="#666666"
     borderopacity="1"
     objecttolerance="10"
     gridtolerance="10"
     guidetolerance="10"
     inkscape:pageopacity="0"
     inkscape:pageshadow="2"
     inkscape:window-width="658"
     inkscape:window-height="480"
     id="namedview3213"
     showgrid="false"
     inkscape:zoom="3.6875"
     inkscape:cx="1.6271186"
     inkscape:cy="30.372881"
     inkscape:window-x="0"
     inkscape:window-y="0"
     inkscape:window-maximized="0"
     inkscape:current-layer="svg3203" />
  <path
     inkscape:connector-curvature="0"
     id="path3009"
     d="M 8.691406,51 C 7.773438,50.90625 7,49.984376 7,48.996094 L 7,11.011718 C 7,9.9609384 7.890624,9.0000004 8.875,9.0000004 l 46.25,0 c 0.984376,0 1.875,0.960938 1.875,2.0117176 l 0,32.472658 c 0,1.054686 -1.4375,2.566406 -2.417968,2.566406 l -16.929688,-0.03126 0,2.648436 c 0,1.046876 -0.82422,2.332032 -1.800782,2.332032 L 8.875,51 c -0.05859,0 -0.117188,0 -0.183594,0 z"
     style="fill:#e9a439;fill-opacity:1;stroke:#e9a439;stroke-width:2;stroke-opacity:1" />
  <path
     inkscape:connector-curvature="0"
     id="path3011"
     d="M 3.097656,13 C 1.960938,13.09375 1,14.015624 1,15.003906 L 1,52.988282 C 1,54.039062 2.105468,55 3.324218,55 l 57.351564,0 C 61.894532,55 63,54.039062 63,52.988282 l 0,-32.472658 c 0,-1.054686 -1.78125,-2.566406 -3,-2.566406 l -20.992188,0.03125 0,-2.648436 C 39.007812,14.285156 37.988282,13 36.773438,13 l -33.44922,0 c -0.07031,0 -0.14453,0 -0.226562,0 z"
     style="fill:#f5c14e;fill-opacity:1;stroke:#e9a439;stroke-width:2;stroke-opacity:1" />
  <path
     style="fill:#d0a444;fill-opacity:1"
     d="M 23.246094 26 L 23.246094 32.253906 L 29.5 32.253906 L 27.347656 30.101562 C 28.628906 29.097656 30.25 28.503906 32 28.503906 C 36.148438 28.503906 39.5 31.859375 39.5 36.003906 C 39.5 40.140625 36.148438 43.503906 32 43.503906 C 27.851562 43.503906 24.5 40.140625 24.5 36.003906 C 24.5 35.125 24.652344 34.28125 24.929688 33.5 L 22.308594 33.5 C 22.101562 34.296875 22 35.140625 22 36.003906 C 22 41.527344 26.476562 46 32 46 C 37.523438 46 42 41.527344 42 36.003906 C 42 30.480469 37.523438 26 32 26 C 29.554688 26 27.289062 26.847656 25.554688 28.308594 Z M 31.882812 29.714844 C 31.832031 29.71875 31.78125 29.734375 31.730469 29.75 C 31.144531 29.882812 30.734375 30.410156 30.746094 31 L 30.746094 35.609375 C 30.746094 35.652344 30.746094 35.6875 30.746094 35.726562 C 30.675781 36.046875 30.734375 36.382812 30.910156 36.664062 C 30.914062 36.675781 30.929688 36.691406 30.945312 36.707031 C 30.960938 36.730469 30.96875 36.757812 30.980469 36.78125 C 30.996094 36.792969 31.011719 36.808594 31.027344 36.824219 C 31.03125 36.832031 31.046875 36.847656 31.0625 36.859375 C 31.078125 36.875 31.089844 36.890625 31.097656 36.898438 C 31.113281 36.910156 31.128906 36.925781 31.144531 36.941406 C 31.164062 36.957031 31.195312 36.964844 31.214844 36.976562 C 31.230469 36.992188 31.246094 37.007812 31.261719 37.015625 C 31.265625 37.027344 31.28125 37.042969 31.296875 37.058594 C 31.320312 37.074219 31.347656 37.082031 31.378906 37.09375 C 31.429688 37.125 31.480469 37.152344 31.53125 37.175781 L 34.617188 38.96875 C 35.222656 39.3125 35.992188 39.101562 36.335938 38.5 C 36.679688 37.902344 36.46875 37.125 35.867188 36.78125 L 33.253906 35.257812 L 33.253906 31 C 33.261719 30.644531 33.121094 30.292969 32.855469 30.050781 C 32.59375 29.800781 32.242188 29.675781 31.882812 29.714844 Z "
     id="path3211" />
</svg>
