<?xml version="1.0" encoding="UTF-8" standalone="no"?>
<svg
   xmlns:dc="http://purl.org/dc/elements/1.1/"
   xmlns:cc="http://creativecommons.org/ns#"
   xmlns:rdf="http://www.w3.org/1999/02/22-rdf-syntax-ns#"
   xmlns:svg="http://www.w3.org/2000/svg"
   xmlns="http://www.w3.org/2000/svg"
   xmlns:sodipodi="http://sodipodi.sourceforge.net/DTD/sodipodi-0.dtd"
   xmlns:inkscape="http://www.inkscape.org/namespaces/inkscape"
   width="64"
   height="64"
   viewBox="0 0 64 64"
   id="svg3055"
   version="1.1"
   inkscape:version="0.48.5 r10040"
   sodipodi:docname="folder-system.svg">
  <metadata
     id="metadata3069">
    <rdf:RDF>
      <cc:Work
         rdf:about="">
        <dc:format>image/svg+xml</dc:format>
        <dc:type
           rdf:resource="http://purl.org/dc/dcmitype/StillImage" />
      </cc:Work>
    </rdf:RDF>
  </metadata>
  <defs
     id="defs3067" />
  <sodipodi:namedview
     pagecolor="#ffffff"
     bordercolor="#666666"
     borderopacity="1"
     objecttolerance="10"
     gridtolerance="10"
     guidetolerance="10"
     inkscape:pageopacity="0"
     inkscape:pageshadow="2"
     inkscape:window-width="1280"
     inkscape:window-height="969"
     id="namedview3065"
     showgrid="false"
     inkscape:zoom="3.6875"
     inkscape:cx="-12.745763"
     inkscape:cy="31.457627"
     inkscape:window-x="0"
     inkscape:window-y="0"
     inkscape:window-maximized="1"
     inkscape:current-layer="svg3055" />
  <path
     style="fill:#e9b080;fill-opacity:1;stroke:none"
     d="M 9,8 C 7.536083,8 6,9.5112224 6,11 l 0,1 -3,0 c -1.470099,0 -3,1.49533 -3,3 l 0,38 c 0,2 1,3 3,3 l 58,0 c 1.567614,0 3,-1.358342 3,-3 l 0,-33 c 0,-1.504928 -1.455038,-3 -3,-3 l -3,0 0,-6 C 58,9.5388438 56.546781,8 55,8 z"
     id="path6"
     inkscape:connector-curvature="0"
     sodipodi:nodetypes="ssccssssscccsss" />
  <path
     style="fill:#000000;fill-opacity:0.32156864"
     d="M 30.425781 26 C 29.871094 26 29.410156 26.445312 29.410156 26.996094 L 29.410156 28.292969 C 29.058594 28.410156 28.71875 28.546875 28.390625 28.710938 L 27.492188 27.808594 C 27.09375 27.414062 26.464844 27.414062 26.078125 27.808594 L 23.808594 30.050781 C 23.414062 30.445312 23.414062 31.074219 23.808594 31.464844 L 24.707031 32.363281 C 24.539062 32.699219 24.414062 33.050781 24.292969 33.410156 L 23.015625 33.410156 C 22.46875 33.410156 22 33.851562 22 34.40625 L 22 37.601562 C 22 38.148438 22.46875 38.597656 23.015625 38.597656 L 24.292969 38.597656 C 24.414062 38.949219 24.539062 39.300781 24.707031 39.636719 L 23.808594 40.535156 C 23.414062 40.933594 23.414062 41.554688 23.808594 41.949219 L 26.078125 44.191406 C 26.464844 44.585938 27.09375 44.585938 27.492188 44.191406 L 28.390625 43.289062 C 28.71875 43.453125 29.058594 43.589844 29.410156 43.707031 L 29.410156 45.003906 C 29.410156 45.5625 29.871094 46 30.425781 46 L 33.597656 46 C 34.152344 46 34.589844 45.5625 34.589844 45.003906 L 34.589844 43.707031 C 34.949219 43.589844 35.300781 43.457031 35.632812 43.289062 L 36.539062 44.191406 C 36.925781 44.585938 37.554688 44.585938 37.945312 44.191406 L 40.214844 41.949219 C 40.609375 41.554688 40.609375 40.933594 40.214844 40.535156 L 39.292969 39.613281 C 39.453125 39.285156 39.589844 38.949219 39.707031 38.597656 L 41.003906 38.597656 C 41.5625 38.597656 42 38.148438 42 37.601562 L 42 34.40625 C 42 33.851562 41.5625 33.410156 41.003906 33.410156 L 39.707031 33.410156 C 39.589844 33.058594 39.453125 32.714844 39.292969 32.394531 L 40.214844 31.464844 C 40.609375 31.074219 40.609375 30.445312 40.214844 30.050781 L 37.945312 27.808594 C 37.554688 27.414062 36.925781 27.414062 36.539062 27.808594 L 35.632812 28.710938 C 35.300781 28.542969 34.949219 28.417969 34.589844 28.292969 L 34.589844 26.996094 C 34.589844 26.445312 34.152344 26 33.597656 26 Z M 32 33.410156 C 33.425781 33.410156 34.589844 34.566406 34.589844 36.003906 C 34.589844 37.433594 33.425781 38.597656 32 38.597656 C 30.574219 38.597656 29.410156 37.433594 29.410156 36.003906 C 29.410156 34.566406 30.574219 33.410156 32 33.410156 Z "
     id="path3063" />
  <path
     inkscape:connector-curvature="0"
     style="fill:#000000;fill-opacity:0.32156863;stroke:none"
     d="M 9,8 C 7.536083,8 6,9.5112224 6,11 l 0,1 -3,0 c -1.470099,0 -3,1.49533 -3,3 l 0,38 c 0,2 1,3 3,3 l 58,0 c 1.567614,0 3,-1.358342 3,-3 l 0,-33 c 0,-1.504928 -1.455038,-3 -3,-3 l -3,0 0,-6 C 58,9.5388438 56.546781,8 55,8 L 9,8 z m -6,6 34,0 c 0.590175,0 1,0.51477 1,1 l 0,4 23,0 c 0.505551,0 1,0.508742 1,1 l 0,33 c 0,0.521292 -0.478766,1 -1,1 L 3,54 C 2.535705,54 2,53.603654 2,53 L 2,15 c 0,-0.492405 0.516528,-1 1,-1 z"
     id="path3778" />
</svg>
