<?xml version="1.0" encoding="UTF-8" standalone="no"?>
<svg
   xmlns:dc="http://purl.org/dc/elements/1.1/"
   xmlns:cc="http://creativecommons.org/ns#"
   xmlns:rdf="http://www.w3.org/1999/02/22-rdf-syntax-ns#"
   xmlns:svg="http://www.w3.org/2000/svg"
   xmlns="http://www.w3.org/2000/svg"
   xmlns:sodipodi="http://sodipodi.sourceforge.net/DTD/sodipodi-0.dtd"
   xmlns:inkscape="http://www.inkscape.org/namespaces/inkscape"
   width="64"
   height="64"
   viewBox="0 0 64 64"
   id="svg2"
   version="1.1"
   inkscape:version="0.48.5 r10040"
   sodipodi:docname="folder-music.svg">
  <metadata
     id="metadata16">
    <rdf:RDF>
      <cc:Work
         rdf:about="">
        <dc:format>image/svg+xml</dc:format>
        <dc:type
           rdf:resource="http://purl.org/dc/dcmitype/StillImage" />
      </cc:Work>
    </rdf:RDF>
  </metadata>
  <defs
     id="defs14" />
  <sodipodi:namedview
     pagecolor="#ffffff"
     bordercolor="#666666"
     borderopacity="1"
     objecttolerance="10"
     gridtolerance="10"
     guidetolerance="10"
     inkscape:pageopacity="0"
     inkscape:pageshadow="2"
     inkscape:window-width="1280"
     inkscape:window-height="969"
     id="namedview12"
     showgrid="false"
     inkscape:zoom="3.6875"
     inkscape:cx="-12.745763"
     inkscape:cy="31.457627"
     inkscape:window-x="0"
     inkscape:window-y="0"
     inkscape:window-maximized="1"
     inkscape:current-layer="svg2" />
  <path
     style="fill:#e9b080;fill-opacity:1;stroke:none"
     d="M 9,8 C 7.5360831,8 6,9.511223 6,11 l 0,1 -3,0 c -1.4700989,0 -3,1.49533 -3,3 l 0,38 c 0,2 0.99999998,3 3,3 l 58,0 c 1.567614,0 3,-1.358342 3,-3 l 0,-33 c 0,-1.504928 -1.455038,-3 -3,-3 l -3,0 0,-6 C 58,9.538844 56.546781,8 55,8 z"
     id="path6"
     inkscape:connector-curvature="0"
     sodipodi:nodetypes="ssccssssscccsss" />
  <path
     style="fill:#000000;fill-opacity:0.32156864"
     d="M 33.601562 26.226562 C 32.046875 26.59375 30.742188 27.933594 30.742188 27.933594 L 30.789062 27.96875 L 33.273438 36.640625 C 31.492188 35.730469 28.953125 35.957031 26.851562 37.386719 C 24.132812 39.226562 23.1875 42.359375 24.757812 44.378906 C 26.335938 46.410156 29.804688 46.546875 32.523438 44.710938 C 34.664062 43.253906 35.859375 40.96875 35.429688 39.09375 C 35.414062 39.035156 35.390625 38.976562 35.375 38.917969 L 32.992188 30.253906 C 33.046875 30.179688 33.742188 29.882812 36 29.734375 C 38.382812 29.589844 40 26 40 26 C 40 26 37.3125 26.964844 35.203125 26.269531 C 34.671875 26.09375 34.117188 26.101562 33.601562 26.226562 Z "
     id="path10" />
  <path
     inkscape:connector-curvature="0"
     style="fill:#000000;fill-opacity:0.32156863;stroke:none"
     d="M 9,8 C 7.5360831,8 6,9.511223 6,11 l 0,1 -3,0 c -1.4700989,0 -3,1.49533 -3,3 l 0,38 c 0,2 0.99999998,3 3,3 l 58,0 c 1.567614,0 3,-1.358342 3,-3 l 0,-33 c 0,-1.504928 -1.455038,-3 -3,-3 l -3,0 0,-6 C 58,9.538844 56.546781,8 55,8 L 9,8 z m -6,6 34,0 c 0.590175,0 1,0.51477 1,1 l 0,4 23,0 c 0.505551,0 1,0.508742 1,1 l 0,33 c 0,0.521292 -0.478766,1 -1,1 L 3,54 C 2.5357049,54 2,53.603654 2,53 L 2,15 c 0,-0.492405 0.5165286,-1 1,-1 z"
     id="path3778" />
</svg>
