<?xml version="1.0" encoding="UTF-8" standalone="no"?>
<svg
   xmlns:dc="http://purl.org/dc/elements/1.1/"
   xmlns:cc="http://creativecommons.org/ns#"
   xmlns:rdf="http://www.w3.org/1999/02/22-rdf-syntax-ns#"
   xmlns:svg="http://www.w3.org/2000/svg"
   xmlns="http://www.w3.org/2000/svg"
   xmlns:sodipodi="http://sodipodi.sourceforge.net/DTD/sodipodi-0.dtd"
   xmlns:inkscape="http://www.inkscape.org/namespaces/inkscape"
   width="64"
   height="64"
   viewBox="0 0 64 64"
   id="svg3323"
   version="1.1"
   inkscape:version="0.48.4 r9939"
   sodipodi:docname="folder-wine.svg">
  <metadata
     id="metadata3343">
    <rdf:RDF>
      <cc:Work
         rdf:about="">
        <dc:format>image/svg+xml</dc:format>
        <dc:type
           rdf:resource="http://purl.org/dc/dcmitype/StillImage" />
      </cc:Work>
    </rdf:RDF>
  </metadata>
  <defs
     id="defs3341" />
  <sodipodi:namedview
     pagecolor="#ffffff"
     bordercolor="#666666"
     borderopacity="1"
     objecttolerance="10"
     gridtolerance="10"
     guidetolerance="10"
     inkscape:pageopacity="0"
     inkscape:pageshadow="2"
     inkscape:window-width="658"
     inkscape:window-height="480"
     id="namedview3339"
     showgrid="false"
     inkscape:zoom="3.6875"
     inkscape:cx="43.661017"
     inkscape:cy="25.220339"
     inkscape:window-x="0"
     inkscape:window-y="0"
     inkscape:window-maximized="0"
     inkscape:current-layer="svg3323" />
  <path
     inkscape:connector-curvature="0"
     id="path3009"
     d="M 8.691406,51 C 7.773438,50.90625 7,49.984376 7,48.996094 L 7,11.011718 C 7,9.9609377 7.890624,8.9999997 8.875,8.9999997 l 46.25,0 c 0.984376,0 1.875,0.960938 1.875,2.0117183 l 0,32.472658 c 0,1.054686 -1.4375,2.566406 -2.417968,2.566406 l -16.929688,-0.03126 0,2.648436 c 0,1.046876 -0.82422,2.332032 -1.800782,2.332032 L 8.875,51 c -0.05859,0 -0.117188,0 -0.183594,0 z"
     style="fill:#e9a439;fill-opacity:1;stroke:#e9a439;stroke-width:2;stroke-opacity:1" />
  <path
     inkscape:connector-curvature="0"
     id="path3011"
     d="M 3.097656,13 C 1.960938,13.09375 1,14.015624 1,15.003906 L 1,52.988282 C 1,54.039062 2.105468,55 3.324218,55 l 57.351564,0 C 61.894532,55 63,54.039062 63,52.988282 l 0,-32.472658 c 0,-1.054686 -1.78125,-2.566406 -3,-2.566406 l -20.992188,0.03125 0,-2.648436 C 39.007812,14.285156 37.988282,13 36.773438,13 l -33.44922,0 c -0.07031,0 -0.14453,0 -0.226562,0 z"
     style="fill:#f5c14e;fill-opacity:1;stroke:#e9a439;stroke-width:2;stroke-opacity:1" />
  <path
     style="fill:#d0a444;fill-opacity:1"
     inkscape:connector-curvature="0"
     id="path3333"
     d="m 39.742188,26.007812 c -0.886719,0.01172 -1.761719,0.542969 -1.894532,1.53125 -0.226562,1.582032 1.449219,0.992188 2.792969,0.992188 1.339844,0 1.789063,2.566406 1.457031,3.957031 C 41.761719,33.875 38.195312,37.144531 30.125,33.875 23.488281,31.175781 20.171875,34.765625 20,34.84375 20.632812,40.195312 25.753906,46 31.972656,46 38.613281,46 44,39.605469 44,33.726562 c 0,-0.675781 -0.09375,-1.34375 -0.226562,-1.980468 -0.121094,-0.324219 -0.242188,-0.648438 -0.335938,-0.9375 -0.164062,-0.535156 -0.347656,-0.976563 -0.503906,-1.390625 -0.0078,-0.01172 0.0078,-0.03125 0,-0.05078 -0.632813,-1.246094 -1.527344,-2.375 -2.628906,-3.316407 -0.0078,-0.0039 -0.01953,0.0078 -0.02734,0 C 40.105469,26.011719 39.921875,26 39.742188,26 z" />
  <path
     style="fill:#d0a444;fill-opacity:1"
     inkscape:connector-curvature="0"
     id="path3335"
     d="m 37.902344,29.761719 c 0,0.332031 -0.304688,0.597656 -0.671875,0.597656 -0.371094,0 -0.667969,-0.265625 -0.667969,-0.597656 0,-0.324219 0.296875,-0.589844 0.667969,-0.589844 0.367187,0 0.671875,0.265625 0.671875,0.589844 z" />
  <path
     style="fill:#d0a444;fill-opacity:1"
     inkscape:connector-curvature="0"
     id="path3337"
     d="m 36.5625,27.617188 c 0,0.226562 -0.214844,0.414062 -0.476562,0.414062 -0.265626,0 -0.476563,-0.1875 -0.476563,-0.414062 0,-0.234376 0.210937,-0.421876 0.476563,-0.421876 0.261718,0 0.476562,0.1875 0.476562,0.421876 z" />
</svg>
