<?xml version="1.0" encoding="UTF-8" standalone="no"?>
<svg
   xmlns:dc="http://purl.org/dc/elements/1.1/"
   xmlns:cc="http://creativecommons.org/ns#"
   xmlns:rdf="http://www.w3.org/1999/02/22-rdf-syntax-ns#"
   xmlns:svg="http://www.w3.org/2000/svg"
   xmlns="http://www.w3.org/2000/svg"
   xmlns:sodipodi="http://sodipodi.sourceforge.net/DTD/sodipodi-0.dtd"
   xmlns:inkscape="http://www.inkscape.org/namespaces/inkscape"
   width="64"
   height="64"
   viewBox="0 0 64 64"
   id="svg3187"
   version="1.1"
   inkscape:version="0.48.4 r9939"
   sodipodi:docname="folder-publicshare.svg">
  <metadata
     id="metadata3201">
    <rdf:RDF>
      <cc:Work
         rdf:about="">
        <dc:format>image/svg+xml</dc:format>
        <dc:type
           rdf:resource="http://purl.org/dc/dcmitype/StillImage" />
      </cc:Work>
    </rdf:RDF>
  </metadata>
  <defs
     id="defs3199" />
  <sodipodi:namedview
     pagecolor="#ffffff"
     bordercolor="#666666"
     borderopacity="1"
     objecttolerance="10"
     gridtolerance="10"
     guidetolerance="10"
     inkscape:pageopacity="0"
     inkscape:pageshadow="2"
     inkscape:window-width="678"
     inkscape:window-height="480"
     id="namedview3197"
     showgrid="false"
     inkscape:zoom="3.6875"
     inkscape:cx="43.661017"
     inkscape:cy="33.355932"
     inkscape:window-x="0"
     inkscape:window-y="0"
     inkscape:window-maximized="0"
     inkscape:current-layer="svg3187" />
  <path
     inkscape:connector-curvature="0"
     id="path3009"
     d="M 8.691406,51 C 7.773438,50.90625 7,49.984376 7,48.996094 L 7,11.011718 C 7,9.9609377 7.890624,8.9999997 8.875,8.9999997 l 46.25,0 c 0.984376,0 1.875,0.960938 1.875,2.0117183 l 0,32.472658 c 0,1.054686 -1.4375,2.566406 -2.417968,2.566406 l -16.929688,-0.03126 0,2.648436 c 0,1.046876 -0.82422,2.332032 -1.800782,2.332032 L 8.875,51 c -0.05859,0 -0.117188,0 -0.183594,0 z"
     style="fill:#e9a439;fill-opacity:1;stroke:#e9a439;stroke-width:2;stroke-opacity:1" />
  <path
     inkscape:connector-curvature="0"
     id="path3011"
     d="M 3.097656,13 C 1.960938,13.09375 1,14.015624 1,15.003906 L 1,52.988282 C 1,54.039062 2.105468,55 3.324218,55 l 57.351564,0 C 61.894532,55 63,54.039062 63,52.988282 l 0,-32.472658 c 0,-1.054686 -1.78125,-2.566406 -3,-2.566406 l -20.992188,0.03125 0,-2.648436 C 39.007812,14.285156 37.988282,13 36.773438,13 l -33.44922,0 c -0.07031,0 -0.14453,0 -0.226562,0 z"
     style="fill:#f5c14e;fill-opacity:1;stroke:#e9a439;stroke-width:2;stroke-opacity:1" />
  <path
     style="fill:#d0a444;fill-opacity:1"
     d="M 34.753906 28 C 32.753906 28 31.09375 29.515625 31.09375 31.410156 C 31.105469 32.066406 31.144531 32.890625 31.527344 34.632812 L 31.566406 34.632812 C 31.644531 34.859375 31.765625 35.089844 31.964844 35.339844 C 32.140625 35.558594 32.375 35.808594 32.589844 36.042969 C 32.65625 36.535156 32.664062 36.964844 32.589844 37.492188 C 31.992188 37.941406 30.921875 38.359375 29.957031 38.75 C 29.445312 38.949219 28.980469 39.132812 28.613281 39.375 C 28.265625 39.601562 28.007812 39.917969 27.984375 40.316406 C 27.984375 40.339844 27.949219 40.339844 27.949219 40.351562 L 27.511719 43.691406 L 27.511719 43.726562 C 27.511719 44.140625 27.785156 44.476562 28.183594 44.75 C 28.574219 45.015625 29.105469 45.226562 29.757812 45.410156 C 31.054688 45.785156 32.8125 46 34.753906 46 C 36.699219 46 38.457031 45.785156 39.757812 45.410156 C 40.40625 45.226562 40.9375 45.015625 41.328125 44.75 C 41.71875 44.476562 42 44.140625 42 43.726562 L 42 43.691406 L 41.527344 40.351562 C 41.527344 40.34375 41.527344 40.332031 41.527344 40.316406 C 41.511719 40.125 41.445312 39.941406 41.328125 39.808594 C 41.203125 39.660156 41.039062 39.566406 40.855469 39.457031 C 40.488281 39.226562 40.023438 39.03125 39.519531 38.824219 C 38.539062 38.425781 37.46875 37.96875 36.878906 37.492188 C 36.832031 37.035156 36.832031 36.574219 36.878906 36.117188 C 37.09375 35.867188 37.328125 35.617188 37.511719 35.375 C 37.710938 35.109375 37.867188 34.867188 37.941406 34.632812 C 38.375 32.816406 38.390625 32.082031 38.414062 31.410156 C 38.414062 29.515625 36.761719 28 34.753906 28 Z M 27.949219 28.632812 C 26.296875 28.632812 24.953125 29.898438 24.953125 31.457031 C 24.964844 31.984375 24.996094 32.609375 25.304688 34.042969 L 25.304688 34.082031 C 25.371094 34.273438 25.5 34.425781 25.660156 34.632812 C 25.808594 34.808594 26 35.03125 26.175781 35.21875 C 26.230469 35.609375 26.234375 36.007812 26.175781 36.433594 C 25.691406 36.808594 24.804688 37.140625 24.007812 37.457031 C 23.59375 37.617188 23.246094 37.765625 22.945312 37.964844 C 22.664062 38.148438 22.457031 38.425781 22.433594 38.75 C 22.433594 38.765625 22.398438 38.765625 22.398438 38.785156 L 22 41.492188 L 22 41.53125 C 22 41.785156 22.125 42.007812 22.316406 42.199219 C 22.507812 42.390625 22.773438 42.566406 23.105469 42.707031 C 23.75 42.984375 24.671875 43.183594 25.777344 43.292969 L 25.824219 43.292969 C 25.882812 43.292969 25.941406 43.28125 25.976562 43.257812 C 26.023438 43.226562 26.074219 43.207031 26.097656 43.175781 C 26.132812 43.125 26.15625 43.074219 26.175781 43.023438 C 26.207031 42.933594 26.207031 42.839844 26.214844 42.75 C 26.214844 42.734375 26.214844 42.71875 26.214844 42.707031 L 26.648438 39.375 C 26.648438 39.234375 26.738281 39.074219 26.960938 38.90625 C 27.179688 38.734375 27.519531 38.566406 27.902344 38.398438 C 28.6875 38.058594 29.675781 37.742188 30.464844 37.339844 L 30.898438 37.101562 L 30.464844 36.90625 C 30.15625 36.75 29.910156 36.589844 29.71875 36.433594 C 29.675781 36.042969 29.675781 35.640625 29.71875 35.257812 C 29.71875 35.242188 29.710938 35.226562 29.71875 35.21875 C 30.015625 34.816406 30.242188 34.398438 30.347656 34.160156 L 30.382812 34.082031 L 30.347656 34 C 30.308594 33.808594 30.324219 33.660156 30.265625 33.492188 C 29.890625 31.773438 29.851562 31.066406 29.835938 30.433594 C 29.835938 30.167969 29.898438 29.859375 29.992188 29.574219 L 30.074219 29.410156 L 29.910156 29.339844 C 29.386719 28.917969 28.695312 28.632812 27.949219 28.632812 Z "
     id="path3195" />
</svg>
