<?xml version="1.0" encoding="UTF-8" standalone="no"?>
<svg
   xmlns:dc="http://purl.org/dc/elements/1.1/"
   xmlns:cc="http://creativecommons.org/ns#"
   xmlns:rdf="http://www.w3.org/1999/02/22-rdf-syntax-ns#"
   xmlns:svg="http://www.w3.org/2000/svg"
   xmlns="http://www.w3.org/2000/svg"
   xmlns:sodipodi="http://sodipodi.sourceforge.net/DTD/sodipodi-0.dtd"
   xmlns:inkscape="http://www.inkscape.org/namespaces/inkscape"
   width="64"
   height="64"
   viewBox="0 0 64 64"
   id="svg3345"
   version="1.1"
   inkscape:version="0.48.4 r9939"
   sodipodi:docname="network.svg">
  <metadata
     id="metadata3359">
    <rdf:RDF>
      <cc:Work
         rdf:about="">
        <dc:format>image/svg+xml</dc:format>
        <dc:type
           rdf:resource="http://purl.org/dc/dcmitype/StillImage" />
      </cc:Work>
    </rdf:RDF>
  </metadata>
  <defs
     id="defs3357" />
  <sodipodi:namedview
     pagecolor="#ffffff"
     bordercolor="#666666"
     borderopacity="1"
     objecttolerance="10"
     gridtolerance="10"
     guidetolerance="10"
     inkscape:pageopacity="0"
     inkscape:pageshadow="2"
     inkscape:window-width="658"
     inkscape:window-height="480"
     id="namedview3355"
     showgrid="false"
     inkscape:zoom="3.6875"
     inkscape:cx="48"
     inkscape:cy="29.016949"
     inkscape:window-x="0"
     inkscape:window-y="0"
     inkscape:window-maximized="0"
     inkscape:current-layer="svg3345" />
  <path
     inkscape:connector-curvature="0"
     id="path3009"
     d="M 8.691406,51 C 7.773438,50.90625 7,49.984376 7,48.996094 L 7,11.011718 C 7,9.9609383 7.890624,9.0000003 8.875,9.0000003 l 46.25,0 c 0.984376,0 1.875,0.960938 1.875,2.0117177 l 0,32.472658 c 0,1.054686 -1.4375,2.566406 -2.417968,2.566406 l -16.929688,-0.03126 0,2.648436 c 0,1.046876 -0.82422,2.332032 -1.800782,2.332032 L 8.875,51 c -0.05859,0 -0.117188,0 -0.183594,0 z"
     style="fill:#e9a439;fill-opacity:1;stroke:#e9a439;stroke-width:2;stroke-opacity:1" />
  <path
     inkscape:connector-curvature="0"
     id="path3011"
     d="M 3.097656,13 C 1.960938,13.09375 1,14.015624 1,15.003906 L 1,52.988282 C 1,54.039062 2.105468,55 3.324218,55 l 57.351564,0 C 61.894532,55 63,54.039062 63,52.988282 l 0,-32.472658 c 0,-1.054686 -1.78125,-2.566406 -3,-2.566406 l -20.992188,0.03125 0,-2.648436 C 39.007812,14.285156 37.988282,13 36.773438,13 l -33.44922,0 c -0.07031,0 -0.14453,0 -0.226562,0 z"
     style="fill:#f5c14e;fill-opacity:1;stroke:#e9a439;stroke-width:2;stroke-opacity:1" />
  <path
     style="fill:#d0a444;fill-opacity:1"
     d="M 30.746094 26 C 26.484375 26 22 30.492188 22 36 C 22 41.515625 26.484375 46 30.746094 46 C 37.515625 46 42 41.515625 42 36 C 42 30.492188 37.515625 26 32 26 Z M 32.8125 27.40625 C 33.742188 27.496094 34.644531 27.707031 35.472656 28.066406 C 35.40625 28.148438 35.355469 28.210938 35.3125 28.34375 C 35.0625 29.105469 34.679688 28.738281 35.128906 29.691406 C 35.566406 30.636719 35.933594 30.878906 36.066406 30.441406 C 36.191406 30 35.742188 29.378906 36.25 29.625 C 36.753906 29.882812 37.128906 29.558594 36.753906 30.125 C 36.375 30.695312 36.382812 31.003906 35.941406 30.878906 C 35.496094 30.753906 35.5 31.625 35.0625 31.75 C 34.621094 31.882812 34.46875 31.558594 34.46875 31.875 C 34.46875 32.191406 34.71875 31.90625 34.660156 32.410156 C 34.636719 32.5625 34.644531 32.59375 34.621094 32.660156 C 34.210938 32.542969 34.023438 32.476562 33.722656 32.59375 C 33.40625 32.726562 33.03125 33.53125 33.03125 33.53125 C 33.429688 33.925781 33.613281 34.210938 33.75 34.34375 C 33.664062 34.386719 33.554688 34.410156 33.472656 34.46875 C 32.835938 34.914062 32.34375 34.996094 32.152344 35.625 C 31.964844 36.257812 32.03125 35.675781 32.03125 36.441406 C 32.03125 37.195312 31.839844 36.679688 32.21875 37.378906 C 32.601562 38.074219 33.523438 38.402344 33.972656 38.785156 C 34.410156 39.164062 34.863281 37.957031 35.75 39.097656 C 36.636719 40.234375 36.6875 39.78125 36.375 40.410156 C 36.058594 41.039062 35.75 41.253906 35.625 41.5 C 35.5 41.75 35.867188 42.621094 36.316406 42.8125 C 36.324219 42.8125 36.335938 42.8125 36.34375 42.8125 C 36.324219 42.871094 36.308594 42.914062 36.285156 42.972656 C 35.707031 43.230469 35.011719 43.589844 34.878906 43.625 C 34.5625 43.714844 33.457031 43.90625 32.660156 44.125 C 32.558594 44.152344 32.476562 44.152344 32.441406 44.160156 C 32.535156 44.050781 33.324219 43.640625 33.722656 43.40625 C 34.257812 43.097656 33.683594 43.128906 33.683594 43.128906 C 33.683594 43.128906 32.835938 43.03125 31.089844 43.03125 C 30.21875 43.03125 29.847656 43.070312 29.65625 43.128906 C 29.558594 43.15625 29.515625 43.1875 29.464844 43.222656 C 29.421875 43.261719 29.390625 43.304688 29.3125 43.347656 C 28.996094 43.523438 29.496094 43.714844 29.089844 43.847656 C 28.792969 43.949219 28.753906 43.847656 28.5 43.65625 C 28.679688 43.472656 28.9375 43.253906 29.253906 42.878906 C 29.816406 42.191406 30 42.316406 30.191406 41.691406 C 30.375 41.0625 28.59375 41.253906 28.59375 40.878906 C 28.59375 40.503906 28.285156 40.25 27.714844 40 C 27.148438 39.75 27.539062 39.625 26.910156 39.441406 C 26.269531 39.253906 25.558594 40.375 25.371094 40 C 25.1875 39.625 25.972656 39.625 25.972656 39.1875 C 25.972656 38.761719 25.070312 39.507812 24.902344 38.972656 C 24.902344 38.953125 24.878906 38.953125 24.871094 38.9375 C 24.855469 38.855469 24.863281 38.8125 24.871094 38.753906 C 24.914062 38.300781 25.4375 38.125 25.65625 37.691406 C 25.90625 37.1875 25.78125 38.066406 26.09375 38.503906 C 26.410156 38.9375 26.277344 37.941406 26.09375 37.378906 C 25.90625 36.8125 26.210938 36.8125 26.652344 36.066406 C 27.097656 35.3125 27.089844 34.878906 27.089844 34.316406 C 27.089844 33.75 27.398438 33.691406 28.03125 33.128906 C 28.324219 32.871094 28.550781 32.644531 28.71875 32.441406 C 28.761719 32.417969 28.796875 32.417969 28.84375 32.410156 C 29.507812 32.140625 29.792969 31.734375 30.375 30.535156 C 30.953125 29.324219 30.148438 30.453125 29.972656 30.410156 C 29.789062 30.367188 29.53125 30.042969 28.910156 29.683594 C 28.777344 29.613281 28.660156 29.582031 28.5625 29.566406 L 29.722656 27.65625 C 30.089844 27.558594 30.484375 27.488281 30.871094 27.441406 C 31.019531 28.25 30.9375 29.003906 30.9375 29.003906 C 30.9375 29.003906 30.71875 29.261719 30.71875 29.441406 C 30.71875 29.617188 31.914062 27.964844 32.09375 27.875 C 32.269531 27.789062 32.726562 28.351562 32.8125 27.5 C 32.820312 27.449219 32.804688 27.449219 32.8125 27.40625 Z M 34.5 30.785156 C 34.441406 30.761719 34.359375 30.785156 34.277344 30.820312 C 34.277344 31.039062 34.199219 31.203125 34.152344 31.28125 C 34.132812 31.246094 34.066406 31.195312 34.066406 31.195312 C 33.96875 31.363281 33.765625 31.523438 33.96875 31.472656 C 34.175781 31.429688 34.328125 31.554688 34.191406 31.378906 C 34.160156 31.347656 34.175781 31.363281 34.152344 31.347656 C 34.183594 31.371094 34.234375 31.378906 34.34375 31.378906 C 34.46875 31.378906 34.535156 31.378906 34.621094 31.378906 C 34.476562 31.496094 34.308594 31.539062 34.535156 31.597656 C 34.835938 31.675781 34.96875 31.691406 34.96875 31.632812 C 34.96875 31.566406 34.878906 31.347656 34.878906 31.347656 C 34.9375 31.324219 34.988281 31.296875 34.9375 31.195312 C 34.84375 31.003906 34.695312 30.8125 34.5 30.785156 Z M 39.28125 31.320312 C 39.4375 31.558594 39.589844 31.808594 39.722656 32.066406 C 39.632812 32.570312 39.414062 32.910156 39.78125 32.910156 C 39.890625 32.910156 39.976562 32.886719 40.066406 32.878906 C 40.074219 32.910156 40.089844 32.9375 40.09375 32.96875 C 39.464844 32.96875 39.164062 33.15625 38.84375 33.097656 C 38.527344 33.03125 37.648438 32.972656 38.21875 32.410156 C 38.550781 32.074219 38.96875 31.546875 39.28125 31.3125 Z M 35.347656 32.46875 C 35.398438 32.492188 35.449219 32.550781 35.5 32.660156 C 35.691406 33.097656 36 33.472656 35.75 33.53125 C 35.5 33.597656 35.378906 33.65625 35.378906 33.65625 C 35.378906 33.65625 36.25 34.226562 36.316406 33.597656 C 36.375 32.96875 36.066406 32.59375 36.066406 32.59375 C 36.066406 32.59375 36.5 33.03125 36.621094 33.28125 C 36.753906 33.539062 36.746094 33.28125 37.0625 33.597656 C 37.378906 33.910156 37.3125 32.34375 37.75 32.785156 C 38.191406 33.222656 38.46875 33.214844 38.34375 33.53125 C 38.21875 33.847656 39.15625 33.148438 39.15625 33.78125 C 39.15625 34.394531 39.546875 34.636719 38.785156 34.9375 C 38.492188 34.921875 38.265625 34.871094 38.21875 34.785156 C 38.09375 34.527344 37.378906 34.71875 37.378906 34.71875 C 35.488281 34.25 34.667969 34.101562 34.125 34.191406 C 34.140625 34.167969 34.148438 34.167969 34.152344 34.152344 C 34.433594 33.664062 34.953125 32.96875 34.785156 32.71875 C 35.027344 32.578125 35.207031 32.433594 35.347656 32.46875 Z M 40.660156 35.625 C 40.667969 35.75 40.660156 35.875 40.660156 36 C 40.660156 36.359375 40.636719 36.71875 40.59375 37.0625 C 40.03125 36.558594 39.222656 36.5625 39.222656 36.5625 C 39.222656 36.5625 39.714844 36.007812 40.410156 35.75 C 40.5 35.722656 40.585938 35.675781 40.660156 35.625 Z "
     id="path3353" />
</svg>
