<?xml version="1.0" encoding="UTF-8" standalone="no"?>
<svg
   xmlns:dc="http://purl.org/dc/elements/1.1/"
   xmlns:cc="http://creativecommons.org/ns#"
   xmlns:rdf="http://www.w3.org/1999/02/22-rdf-syntax-ns#"
   xmlns:svg="http://www.w3.org/2000/svg"
   xmlns="http://www.w3.org/2000/svg"
   xmlns:sodipodi="http://sodipodi.sourceforge.net/DTD/sodipodi-0.dtd"
   xmlns:inkscape="http://www.inkscape.org/namespaces/inkscape"
   width="24"
   height="24"
   viewBox="0 0 24 24"
   id="svg3023"
   version="1.1"
   inkscape:version="0.48.5 r10040"
   sodipodi:docname="folder-recent.svg">
  <metadata
     id="metadata3037">
    <rdf:RDF>
      <cc:Work
         rdf:about="">
        <dc:format>image/svg+xml</dc:format>
        <dc:type
           rdf:resource="http://purl.org/dc/dcmitype/StillImage" />
      </cc:Work>
    </rdf:RDF>
  </metadata>
  <defs
     id="defs3035" />
  <sodipodi:namedview
     pagecolor="#ffffff"
     bordercolor="#666666"
     borderopacity="1"
     objecttolerance="10"
     gridtolerance="10"
     guidetolerance="10"
     inkscape:pageopacity="0"
     inkscape:pageshadow="2"
     inkscape:window-width="1280"
     inkscape:window-height="998"
     id="namedview3033"
     showgrid="true"
     inkscape:zoom="21.454545"
     inkscape:cx="20.35348"
     inkscape:cy="11.747173"
     inkscape:window-x="0"
     inkscape:window-y="0"
     inkscape:window-maximized="1"
     inkscape:current-layer="svg3023">
    <inkscape:grid
       type="xygrid"
       id="grid2991"
       empspacing="5"
       visible="true"
       enabled="true"
       snapvisiblegridlinesonly="true" />
  </sodipodi:namedview>
  <path
     style="font-size:medium;font-style:normal;font-variant:normal;font-weight:normal;font-stretch:normal;text-indent:0;text-align:start;text-decoration:none;line-height:normal;letter-spacing:normal;word-spacing:normal;text-transform:none;direction:ltr;block-progression:tb;writing-mode:lr-tb;text-anchor:start;baseline-shift:baseline;color:#000000;fill:#c4905e;fill-opacity:1;fill-rule:nonzero;stroke:none;stroke-width:1.52408636;marker:none;visibility:visible;display:inline;overflow:visible;enable-background:accumulate;font-family:Sans;-inkscape-font-specification:Sans"
     d="m 2.6250001,4 c -0.3474302,0.063546 -0.6251471,0.3968062 -0.625,0.75 l 0,14.5 c 0.00617,0.390979 0.3590206,0.74383 0.75,0.75 L 21.25,20 C 21.640979,19.9938 21.99383,19.640979 22,19.25 L 22,6.8125 C 21.9938,6.4215206 21.640979,6.0686695 21.25,6.0625 L 14,6.0625 14,4.75 C 13.9938,4.3590206 13.640979,4.0061695 13.25,4 L 2.7500001,4 c -0.041573,-0.00342 -0.083427,-0.00342 -0.125,0 z m 5.875,5 0.9375,0.90625 C 10.131856,9.32265 11.020234,9 12,9 c 2.206603,0 4,1.793398 4,4 0,2.210863 -1.793397,4 -4,4 -2.2066031,0 -3.9999999,-1.789137 -3.9999999,-4 0,-0.340788 0.039803,-0.684772 0.125,-1 l 1.03125,0 c -0.110756,0.310968 -0.15625,0.650693 -0.15625,1 0,1.657082 1.3429179,3 2.9999999,3 1.657082,0 3,-1.342918 3,-3 0,-1.652822 -1.342918,-3 -3,-3 -0.698616,0 -1.332568,0.220314 -1.84375,0.625 L 11,11.5 l -2.4999999,0 0,-2.5 z m 3.4687499,1.46875 c 0.144836,-0.01278 0.268504,0.05827 0.375,0.15625 C 12.445984,10.727237 12.5085,10.855166 12.5,11 l 0,1.6875 1.03125,0.625 c 0.242813,0.136315 0.323816,0.444689 0.1875,0.6875 -0.136315,0.242814 -0.417699,0.323815 -0.65625,0.1875 l -1.25,-0.71875 c -0.0213,-0.0085 -0.0412,-0.01847 -0.0625,-0.03125 -0.0085,-0.0043 -0.02275,-0.02275 -0.03125,-0.03125 -0.0043,-0.0043 -0.02275,0.0043 -0.03125,0 -0.0043,-0.0085 0.0043,-0.02695 0,-0.03125 -0.01278,-0.0043 -0.01847,0.0085 -0.03125,0 l 0,-0.03125 -0.03125,0 -0.03125,-0.03125 c -0.0085,-0.01278 0.0043,-0.01847 0,-0.03125 C 11.58949,13.27697 11.571,13.2543 11.5625,13.25 11.49436,13.134984 11.47018,13.002795 11.5,12.875 c -0.0043,-0.01704 -0.0043,-0.01847 0,-0.03125 L 11.5,11 c -0.0085,-0.238551 0.144968,-0.44888 0.375,-0.5 0.0213,-0.0085 0.07245,-0.02695 0.09375,-0.03125 z"
     id="path3912"
     inkscape:connector-curvature="0" />
</svg>
