<?xml version="1.0" encoding="UTF-8" standalone="no"?>
<svg
   xmlns:dc="http://purl.org/dc/elements/1.1/"
   xmlns:cc="http://creativecommons.org/ns#"
   xmlns:rdf="http://www.w3.org/1999/02/22-rdf-syntax-ns#"
   xmlns:svg="http://www.w3.org/2000/svg"
   xmlns="http://www.w3.org/2000/svg"
   xmlns:sodipodi="http://sodipodi.sourceforge.net/DTD/sodipodi-0.dtd"
   xmlns:inkscape="http://www.inkscape.org/namespaces/inkscape"
   width="24"
   height="24"
   viewBox="0 0 24 24"
   id="svg3087"
   version="1.1"
   inkscape:version="0.48.5 r10040"
   sodipodi:docname="folder-ubuntu.svg">
  <metadata
     id="metadata3101">
    <rdf:RDF>
      <cc:Work
         rdf:about="">
        <dc:format>image/svg+xml</dc:format>
        <dc:type
           rdf:resource="http://purl.org/dc/dcmitype/StillImage" />
      </cc:Work>
    </rdf:RDF>
  </metadata>
  <defs
     id="defs3099" />
  <sodipodi:namedview
     pagecolor="#ffffff"
     bordercolor="#666666"
     borderopacity="1"
     objecttolerance="10"
     gridtolerance="10"
     guidetolerance="10"
     inkscape:pageopacity="0"
     inkscape:pageshadow="2"
     inkscape:window-width="1280"
     inkscape:window-height="998"
     id="namedview3097"
     showgrid="false"
     inkscape:zoom="21.454545"
     inkscape:cx="5.0106705"
     inkscape:cy="13.749862"
     inkscape:window-x="0"
     inkscape:window-y="0"
     inkscape:window-maximized="1"
     inkscape:current-layer="svg3087" />
  <path
     style="font-size:medium;font-style:normal;font-variant:normal;font-weight:normal;font-stretch:normal;text-indent:0;text-align:start;text-decoration:none;line-height:normal;letter-spacing:normal;word-spacing:normal;text-transform:none;direction:ltr;block-progression:tb;writing-mode:lr-tb;text-anchor:start;baseline-shift:baseline;color:#000000;fill:#c4905e;fill-opacity:1;fill-rule:nonzero;stroke:none;stroke-width:1.52408636;marker:none;visibility:visible;display:inline;overflow:visible;enable-background:accumulate;font-family:Sans;-inkscape-font-specification:Sans"
     d="m 2.6250001,4 c -0.3474302,0.063546 -0.6251471,0.3968062 -0.625,0.75 l 0,14.5 c 0.00617,0.390979 0.3590206,0.74383 0.75,0.75 L 21.25,20 C 21.640979,19.9938 21.99383,19.640979 22,19.25 L 22,6.8125 C 21.9938,6.4215206 21.640979,6.0686695 21.25,6.0625 L 14,6.0625 14,4.75 C 13.9938,4.3590206 13.640979,4.0061695 13.25,4 L 2.7500001,4 c -0.041573,-0.00342 -0.083427,-0.00342 -0.125,0 z M 13.96875,9.53125 C 14.065,9.54297 14.160156,9.57422 14.25,9.625 c 0.355469,0.203125 0.453125,0.648437 0.25,1 -0.207031,0.351563 -0.644532,0.484375 -1,0.28125 -0.359376,-0.203125 -0.488281,-0.648438 -0.28125,-1 0.155273,-0.263671 0.461243,-0.410156 0.75,-0.375 z m -2,0.78125 c 0.300781,0 0.597657,0.05078 0.875,0.125 0.04687,0.296875 0.21875,0.558593 0.5,0.71875 0.285156,0.160156 0.625,0.199219 0.90625,0.09375 0.554687,0.535157 0.882812,1.253906 0.9375,2.0625 l -1.0625,0 c -0.101563,-1.097656 -1.019532,-1.9375 -2.15625,-1.9375 -0.328125,0 -0.628906,0.05859 -0.90625,0.1875 l -0.53125,-0.90625 c 0.433594,-0.210938 0.921875,-0.34375 1.4375,-0.34375 z m -1.8125,0.5625 0.5625,0.875 c -0.558594,0.386719 -0.9374999,1.054688 -0.9374999,1.78125 0,0.726563 0.3789059,1.359375 0.9374999,1.75 l -0.5625,0.90625 c -0.6523429,-0.429688 -1.1406249,-1.105468 -1.3437499,-1.875 0.234375,-0.191406 0.40625,-0.457031 0.40625,-0.78125 0,-0.324219 -0.171875,-0.625 -0.40625,-0.8125 0.203125,-0.773438 0.691407,-1.414063 1.3437499,-1.84375 z m -1.9999999,1.90625 c 0.410157,0 0.75,0.34375 0.75,0.75 0,0.40625 -0.339843,0.71875 -0.75,0.71875 -0.414062,0 -0.75,-0.3125 -0.75,-0.71875 0,-0.40625 0.335938,-0.75 0.75,-0.75 z m 5.9687499,0.9375 1.0625,0 c -0.05469,0.808594 -0.382813,1.558594 -0.9375,2.09375 -0.28125,-0.105469 -0.621094,-0.101563 -0.90625,0.0625 -0.28125,0.160156 -0.453125,0.425782 -0.5,0.71875 -0.277343,0.07813 -0.574219,0.125 -0.875,0.125 -0.515625,0 -1.003906,-0.128906 -1.4375,-0.34375 l 0.53125,-0.90625 c 0.277344,0.128906 0.578125,0.1875 0.90625,0.1875 1.136718,0 2.058593,-0.839844 2.15625,-1.9375 z m -0.34375,2.3125 c 0.288208,-0.03626 0.563477,0.111328 0.71875,0.375 0.203125,0.355469 0.105469,0.796875 -0.25,1 -0.359375,0.203125 -0.824219,0.07031 -1.03125,-0.28125 -0.207031,-0.351562 -0.07813,-0.796875 0.28125,-1 0.08887,-0.05078 0.185181,-0.08166 0.28125,-0.09375 z"
     id="path3912"
     inkscape:connector-curvature="0" />
</svg>
