<?xml version="1.0" encoding="UTF-8" standalone="no"?>
<svg
   xmlns:dc="http://purl.org/dc/elements/1.1/"
   xmlns:cc="http://creativecommons.org/ns#"
   xmlns:rdf="http://www.w3.org/1999/02/22-rdf-syntax-ns#"
   xmlns:svg="http://www.w3.org/2000/svg"
   xmlns="http://www.w3.org/2000/svg"
   xmlns:sodipodi="http://sodipodi.sourceforge.net/DTD/sodipodi-0.dtd"
   xmlns:inkscape="http://www.inkscape.org/namespaces/inkscape"
   width="24"
   height="24"
   viewBox="0 0 24 24"
   id="svg3087"
   version="1.1"
   inkscape:version="0.48.5 r10040"
   sodipodi:docname="folder-ubuntu.svg">
  <metadata
     id="metadata3101">
    <rdf:RDF>
      <cc:Work
         rdf:about="">
        <dc:format>image/svg+xml</dc:format>
        <dc:type
           rdf:resource="http://purl.org/dc/dcmitype/StillImage" />
      </cc:Work>
    </rdf:RDF>
  </metadata>
  <defs
     id="defs3099" />
  <sodipodi:namedview
     pagecolor="#ffffff"
     bordercolor="#666666"
     borderopacity="1"
     objecttolerance="10"
     gridtolerance="10"
     guidetolerance="10"
     inkscape:pageopacity="0"
     inkscape:pageshadow="2"
     inkscape:window-width="1280"
     inkscape:window-height="969"
     id="namedview3097"
     showgrid="false"
     inkscape:zoom="21.454545"
     inkscape:cx="5.1038908"
     inkscape:cy="13.656642"
     inkscape:window-x="0"
     inkscape:window-y="0"
     inkscape:window-maximized="1"
     inkscape:current-layer="svg3087" />
  <path
     style="font-size:medium;font-style:normal;font-variant:normal;font-weight:normal;font-stretch:normal;text-indent:0;text-align:start;text-decoration:none;line-height:normal;letter-spacing:normal;word-spacing:normal;text-transform:none;direction:ltr;block-progression:tb;writing-mode:lr-tb;text-anchor:start;baseline-shift:baseline;color:#000000;fill:#e9b080;fill-opacity:1;fill-rule:nonzero;stroke:none;stroke-width:1.03313816;marker:none;visibility:visible;display:inline;overflow:visible;enable-background:accumulate;font-family:Sans;-inkscape-font-specification:Sans"
     d="m 4.0000113,3.0000002 c -0.54733,0 -1,0.4096882 -1,1 l 0,1 -0.9999998,0 c -0.5019272,0 -1,0.3847489 -1,1 -1.519e-5,4.5937498 0,9.4062498 0,13.9999998 0,0.545771 0.4934173,1 1,1 l 20.0000005,0 c 0.515688,0 1,-0.437034 1,-1 l 0,-12.9999998 c 0,-0.5770209 -0.423105,-1 -1,-1 l -2,0 0,-2 c 0,-0.4874255 -0.401824,-1 -1,-1 z"
     id="path2995"
     inkscape:connector-curvature="0"
     sodipodi:nodetypes="ccccccssssscssc" />
  <path
     style="fill:#000000;fill-opacity:0.32156863"
     d="m 8.164062,12.78125 c -0.414062,0 -0.746093,0.332031 -0.746093,0.738281 0,0.40625 0.332031,0.734375 0.746093,0.734375 0.410157,0 0.746094,-0.328125 0.746094,-0.734375 0,-0.40625 -0.335937,-0.738281 -0.746094,-0.738281 z m 5.328126,3.347656 c -0.359376,0.203125 -0.480469,0.652344 -0.273438,1.003906 0.207031,0.351563 0.660156,0.472657 1.019531,0.269532 0.355469,-0.203125 0.476563,-0.652344 0.273438,-1.007813 -0.207031,-0.351562 -0.664063,-0.46875 -1.019531,-0.265625 z M 9.785156,13.519531 c 0,-0.726562 0.367188,-1.371093 0.925782,-1.757812 l -0.546876,-0.902344 c -0.652343,0.429687 -1.136718,1.085937 -1.339843,1.859375 0.234375,0.1875 0.386719,0.476562 0.386719,0.800781 0,0.324219 -0.152344,0.609375 -0.386719,0.800781 0.203125,0.769532 0.6875,1.429688 1.339843,1.859376 l 0.546876,-0.902344 C 10.152344,14.886719 9.785156,14.246094 9.785156,13.519531 z m 2.179688,-2.148437 c 1.136718,0 2.070312,0.859375 2.171875,1.957031 l 1.0625,-0.01563 c -0.05469,-0.808589 -0.410157,-1.539057 -0.964844,-2.074214 -0.28125,0.105469 -0.609375,0.08984 -0.894531,-0.07031 -0.28125,-0.160157 -0.460938,-0.433594 -0.507813,-0.730469 -0.277343,-0.07422 -0.566406,-0.117188 -0.867187,-0.117188 -0.515625,0 -1.003906,0.121094 -1.4375,0.332032 l 0.519531,0.917968 c 0.277344,-0.128906 0.589844,-0.199218 0.917969,-0.199218 z m 0,4.296875 c -0.328125,0 -0.640625,-0.07031 -0.917969,-0.199219 l -0.519531,0.914062 c 0.433594,0.214844 0.921875,0.332032 1.4375,0.332032 0.300781,0 0.589844,-0.03906 0.867187,-0.117188 0.04687,-0.292968 0.226563,-0.566406 0.507813,-0.726562 0.285156,-0.164063 0.613281,-0.179688 0.894531,-0.07422 0.554687,-0.535156 0.910156,-1.261719 0.964844,-2.070313 l -1.0625,-0.01562 c -0.09766,1.097656 -1.035157,1.957031 -2.171875,1.957031 z m 1.527344,-4.757813 c 0.355468,0.203125 0.8125,0.08203 1.019531,-0.269531 0.203125,-0.351563 0.08203,-0.800781 -0.273438,-1.003906 -0.359375,-0.203125 -0.8125,-0.08203 -1.019531,0.269531 -0.207031,0.351562 -0.08594,0.800781 0.273438,1.003906 z"
     id="path3095"
     inkscape:connector-curvature="0" />
  <path
     style="font-size:medium;font-style:normal;font-variant:normal;font-weight:normal;font-stretch:normal;text-indent:0;text-align:start;text-decoration:none;line-height:normal;letter-spacing:normal;word-spacing:normal;text-transform:none;direction:ltr;block-progression:tb;writing-mode:lr-tb;text-anchor:start;baseline-shift:baseline;color:#000000;fill:#000000;fill-opacity:0.32156863;fill-rule:nonzero;stroke:none;stroke-width:1.03313816;marker:none;visibility:visible;display:inline;overflow:visible;enable-background:accumulate;font-family:Sans;-inkscape-font-specification:Sans"
     d="m 4.0000113,3.0000002 c -0.544454,0 -1,0.3988699 -1,1 l 0,1 -0.9999998,0 c -0.5067594,0 -1,0.3964676 -1,1 -2.589e-5,4.5937488 0,9.4062498 0,13.9999998 0,0.487177 0.4191986,1 1,1 l 20.0000005,0 c 0.521212,0 1,-0.442558 1,-1 l 0,-12.9999998 c 0,-0.5731146 -0.393904,-1 -1,-1 l -2,0 0,-2 c 0,-0.5585119 -0.457433,-1 -1,-1 z m 10.0000007,3 0,1 8,0 0,12.9999998 -20.0000005,0 0,-13.9999998 z"
     id="path3786"
     inkscape:connector-curvature="0"
     sodipodi:nodetypes="ssccccssssscsssccccccc" />
</svg>
