<?xml version="1.0" encoding="UTF-8" standalone="no"?>
<svg
   xmlns:dc="http://purl.org/dc/elements/1.1/"
   xmlns:cc="http://creativecommons.org/ns#"
   xmlns:rdf="http://www.w3.org/1999/02/22-rdf-syntax-ns#"
   xmlns:svg="http://www.w3.org/2000/svg"
   xmlns="http://www.w3.org/2000/svg"
   xmlns:sodipodi="http://sodipodi.sourceforge.net/DTD/sodipodi-0.dtd"
   xmlns:inkscape="http://www.inkscape.org/namespaces/inkscape"
   width="24"
   height="24"
   viewBox="0 0 24 24"
   id="svg3103"
   version="1.1"
   inkscape:version="0.48.5 r10040"
   sodipodi:docname="folder-video.svg">
  <metadata
     id="metadata3117">
    <rdf:RDF>
      <cc:Work
         rdf:about="">
        <dc:format>image/svg+xml</dc:format>
        <dc:type
           rdf:resource="http://purl.org/dc/dcmitype/StillImage" />
      </cc:Work>
    </rdf:RDF>
  </metadata>
  <defs
     id="defs3115" />
  <sodipodi:namedview
     pagecolor="#ffffff"
     bordercolor="#666666"
     borderopacity="1"
     objecttolerance="10"
     gridtolerance="10"
     guidetolerance="10"
     inkscape:pageopacity="0"
     inkscape:pageshadow="2"
     inkscape:window-width="1280"
     inkscape:window-height="969"
     id="namedview3113"
     showgrid="true"
     inkscape:zoom="15.170655"
     inkscape:cx="14.32344"
     inkscape:cy="14.737053"
     inkscape:window-x="0"
     inkscape:window-y="0"
     inkscape:window-maximized="1"
     inkscape:current-layer="svg3103">
    <inkscape:grid
       type="xygrid"
       id="grid4973"
       empspacing="5"
       visible="true"
       enabled="true"
       snapvisiblegridlinesonly="true" />
  </sodipodi:namedview>
  <path
     style="font-size:medium;font-style:normal;font-variant:normal;font-weight:normal;font-stretch:normal;text-indent:0;text-align:start;text-decoration:none;line-height:normal;letter-spacing:normal;word-spacing:normal;text-transform:none;direction:ltr;block-progression:tb;writing-mode:lr-tb;text-anchor:start;baseline-shift:baseline;color:#000000;fill:#e9b080;fill-opacity:1;fill-rule:nonzero;stroke:none;stroke-width:1.03313816;marker:none;visibility:visible;display:inline;overflow:visible;enable-background:accumulate;font-family:Sans;-inkscape-font-specification:Sans"
     d="m 4.0000118,2.9999997 c -0.547331,0 -1,0.4096882 -1,1 l 0,1 -1,0 c -0.5019275,0 -1.0000002,0.3847489 -1.0000002,1 -1.534e-5,4.5937493 0,9.4062503 0,14.0000003 0,0.545771 0.4934173,1 1.0000002,1 l 20.0000002,0 c 0.515688,0 1,-0.437034 1,-1 l 0,-13.0000003 c 0,-0.5770209 -0.423105,-1 -1,-1 l -2,0 0,-2 c 0,-0.4874255 -0.401824,-1 -1,-1 z"
     id="path2995"
     inkscape:connector-curvature="0"
     sodipodi:nodetypes="ccccccssssscssc" />
  <path
     style="fill:#000000;fill-opacity:0.32156863"
     d="m 12,10.167969 c -2.019531,0 -3.667969,1.644531 -3.667969,3.664062 C 8.332031,15.851562 9.980469,17.5 12,17.5 c 2.019531,0 3.667969,-1.648438 3.667969,-3.667969 0,-2.019531 -1.648438,-3.664062 -3.667969,-3.664062 z m 0,0.914062 c 1.523438,0 2.75,1.226563 2.75,2.75 0,1.523438 -1.226562,2.75 -2.75,2.75 -1.523438,0 -2.75,-1.226562 -2.75,-2.75 0,-1.523437 1.226562,-2.75 2.75,-2.75 z M 11.082031,12 l 0,3.667969 2.75,-1.835938 z"
     id="path3111"
     inkscape:connector-curvature="0" />
  <path
     style="font-size:medium;font-style:normal;font-variant:normal;font-weight:normal;font-stretch:normal;text-indent:0;text-align:start;text-decoration:none;line-height:normal;letter-spacing:normal;word-spacing:normal;text-transform:none;direction:ltr;block-progression:tb;writing-mode:lr-tb;text-anchor:start;baseline-shift:baseline;color:#000000;fill:#000000;fill-opacity:0.32156863;fill-rule:nonzero;stroke:none;stroke-width:1.03313816;marker:none;visibility:visible;display:inline;overflow:visible;enable-background:accumulate;font-family:Sans;-inkscape-font-specification:Sans"
     d="m 4.0000118,2.9999997 c -0.544455,0 -1,0.3988699 -1,1 l 0,1 -1,0 c -0.5067597,0 -1.0000002,0.3964676 -1.0000002,1 -2.604e-5,4.5937493 0,9.4062503 0,14.0000003 0,0.487177 0.4191985,1 1.0000002,1 l 20.0000002,0 c 0.521212,0 1,-0.442558 1,-1 l 0,-13.0000003 c 0,-0.5731146 -0.393904,-1 -1,-1 l -2,0 0,-2 c 0,-0.5585119 -0.457433,-1 -1,-1 z m 10.0000002,3 0,1 8,0 0,13.0000003 -20.0000002,0 0,-14.0000003 z"
     id="path3786"
     inkscape:connector-curvature="0"
     sodipodi:nodetypes="ssccccssssscsssccccccc" />
</svg>
