<?xml version="1.0" encoding="UTF-8" standalone="no"?>
<svg
   xmlns:dc="http://purl.org/dc/elements/1.1/"
   xmlns:cc="http://creativecommons.org/ns#"
   xmlns:rdf="http://www.w3.org/1999/02/22-rdf-syntax-ns#"
   xmlns:svg="http://www.w3.org/2000/svg"
   xmlns="http://www.w3.org/2000/svg"
   xmlns:sodipodi="http://sodipodi.sourceforge.net/DTD/sodipodi-0.dtd"
   xmlns:inkscape="http://www.inkscape.org/namespaces/inkscape"
   width="24"
   height="24"
   viewBox="0 0 24 24"
   id="svg3119"
   version="1.1"
   inkscape:version="0.48.5 r10040"
   sodipodi:docname="folder-wine.svg">
  <metadata
     id="metadata3139">
    <rdf:RDF>
      <cc:Work
         rdf:about="">
        <dc:format>image/svg+xml</dc:format>
        <dc:type
           rdf:resource="http://purl.org/dc/dcmitype/StillImage" />
      </cc:Work>
    </rdf:RDF>
  </metadata>
  <defs
     id="defs3137" />
  <sodipodi:namedview
     pagecolor="#ffffff"
     bordercolor="#666666"
     borderopacity="1"
     objecttolerance="10"
     gridtolerance="10"
     guidetolerance="10"
     inkscape:pageopacity="0"
     inkscape:pageshadow="2"
     inkscape:window-width="1280"
     inkscape:window-height="998"
     id="namedview3135"
     showgrid="false"
     inkscape:zoom="21.454545"
     inkscape:cx="10.619983"
     inkscape:cy="10.286948"
     inkscape:window-x="0"
     inkscape:window-y="0"
     inkscape:window-maximized="1"
     inkscape:current-layer="svg3119" />
  <path
     style="font-size:medium;font-style:normal;font-variant:normal;font-weight:normal;font-stretch:normal;text-indent:0;text-align:start;text-decoration:none;line-height:normal;letter-spacing:normal;word-spacing:normal;text-transform:none;direction:ltr;block-progression:tb;writing-mode:lr-tb;text-anchor:start;baseline-shift:baseline;color:#000000;fill:#c4905e;fill-opacity:1;fill-rule:nonzero;stroke:none;stroke-width:1.52408636;marker:none;visibility:visible;display:inline;overflow:visible;enable-background:accumulate;font-family:Sans;-inkscape-font-specification:Sans"
     d="m 2.6250001,4 c -0.3474302,0.063546 -0.6251472,0.3968062 -0.625,0.75 l 0,14.5 c 0.00617,0.390979 0.3590206,0.74383 0.75,0.75 L 21.25,20 C 21.640979,19.9938 21.99383,19.640979 22,19.25 L 22,6.8125 C 21.9938,6.4215206 21.640979,6.0686695 21.25,6.0625 L 14,6.0625 14,4.75 C 13.9938,4.3590206 13.640979,4.0061695 13.25,4 L 2.7500001,4 c -0.041573,-0.00342 -0.083427,-0.00342 -0.125,0 z M 14.9375,9.21875 c 0.06641,0 0.121098,0.01562 0.1875,0.03125 0.414063,0.386718 0.761719,0.855468 1,1.375 0.05859,0.171875 0.125,0.375 0.1875,0.59375 0.03516,0.121093 0.07813,0.242188 0.125,0.375 0.05078,0.265625 0.09375,0.535156 0.09375,0.8125 0,2.433593 -2.019531,5.09375 -4.53125,5.09375 -2.3476559,0 -4.2929689,-2.40625 -4.5312499,-4.625 0.0625,-0.02734 1.300781,-1.523438 3.8124999,-0.40625 3.046875,1.355469 4.402344,0.01172 4.53125,-0.5625 0.125,-0.574219 -0.05469,-1.625 -0.5625,-1.625 -0.507813,0 -1.11719,0.21875 -1.03125,-0.4375 0.05078,-0.40625 0.382812,-0.62109 0.71875,-0.625 z m -1.40625,0.5 c 0.09766,0 0.1875,0.0625 0.1875,0.15625 0,0.09766 -0.08984,0.1875 -0.1875,0.1875 -0.09766,0 -0.15625,-0.08984 -0.15625,-0.1875 0,-0.09375 0.05859,-0.15625 0.15625,-0.15625 z m 0.4375,0.8125 c 0.140626,0 0.25,0.113281 0.25,0.25 0,0.132812 -0.109374,0.25 -0.25,0.25 -0.140624,0 -0.25,-0.117188 -0.25,-0.25 0,-0.136719 0.109376,-0.25 0.25,-0.25 z"
     id="path3912"
     inkscape:connector-curvature="0" />
</svg>
