<?xml version="1.0" encoding="UTF-8" standalone="no"?>
<svg
   xmlns:dc="http://purl.org/dc/elements/1.1/"
   xmlns:cc="http://creativecommons.org/ns#"
   xmlns:rdf="http://www.w3.org/1999/02/22-rdf-syntax-ns#"
   xmlns:svg="http://www.w3.org/2000/svg"
   xmlns="http://www.w3.org/2000/svg"
   xmlns:sodipodi="http://sodipodi.sourceforge.net/DTD/sodipodi-0.dtd"
   xmlns:inkscape="http://www.inkscape.org/namespaces/inkscape"
   width="24"
   height="24"
   viewBox="0 0 24 24"
   id="svg3055"
   version="1.1"
   inkscape:version="0.48.5 r10040"
   sodipodi:docname="folder-system.svg">
  <metadata
     id="metadata3069">
    <rdf:RDF>
      <cc:Work
         rdf:about="">
        <dc:format>image/svg+xml</dc:format>
        <dc:type
           rdf:resource="http://purl.org/dc/dcmitype/StillImage" />
      </cc:Work>
    </rdf:RDF>
  </metadata>
  <defs
     id="defs3067" />
  <sodipodi:namedview
     pagecolor="#ffffff"
     bordercolor="#666666"
     borderopacity="1"
     objecttolerance="10"
     gridtolerance="10"
     guidetolerance="10"
     inkscape:pageopacity="0"
     inkscape:pageshadow="2"
     inkscape:window-width="1280"
     inkscape:window-height="969"
     id="namedview3065"
     showgrid="true"
     inkscape:zoom="30.341309"
     inkscape:cx="12.213443"
     inkscape:cy="8.9428323"
     inkscape:window-x="0"
     inkscape:window-y="0"
     inkscape:window-maximized="1"
     inkscape:current-layer="svg3055">
    <inkscape:grid
       type="xygrid"
       id="grid3158"
       empspacing="5"
       visible="true"
       enabled="true"
       snapvisiblegridlinesonly="true" />
  </sodipodi:namedview>
  <path
     style="font-size:medium;font-style:normal;font-variant:normal;font-weight:normal;font-stretch:normal;text-indent:0;text-align:start;text-decoration:none;line-height:normal;letter-spacing:normal;word-spacing:normal;text-transform:none;direction:ltr;block-progression:tb;writing-mode:lr-tb;text-anchor:start;baseline-shift:baseline;color:#000000;fill:#e9b080;fill-opacity:1;fill-rule:nonzero;stroke:none;stroke-width:1.03313816;marker:none;visibility:visible;display:inline;overflow:visible;enable-background:accumulate;font-family:Sans;-inkscape-font-specification:Sans"
     d="m 4.0000115,2.9999999 c -0.5473306,0 -1,0.4096882 -1,1 l 0,1 -1,0 c -0.5019272,0 -1,0.3847489 -1,1 -1.519e-5,4.5937491 0,9.4062501 0,14.0000001 0,0.545771 0.4934174,1 1,1 l 20.0000005,0 c 0.515688,0 1,-0.437034 1,-1 l 0,-13.0000001 c 0,-0.5770209 -0.423105,-1 -1,-1 l -2,0 0,-2 c 0,-0.4874255 -0.401824,-1 -1,-1 z"
     id="path2995"
     inkscape:connector-curvature="0"
     sodipodi:nodetypes="ccccccssssscssc" />
  <path
     style="fill:#000000;fill-opacity:0.32156863"
     d="m 11.421875,10.167969 c -0.203125,0 -0.371094,0.160156 -0.371094,0.363281 l 0,0.476562 c -0.128906,0.04297 -0.253906,0.09375 -0.375,0.152344 L 10.34375,10.828125 c -0.144531,-0.144531 -0.375,-0.144531 -0.515625,0 l -0.832031,0.824219 c -0.144532,0.144531 -0.144532,0.375 0,0.515625 L 9.324219,12.5 c -0.058594,0.121094 -0.109375,0.25 -0.152344,0.382812 l -0.464844,0 c -0.203125,0 -0.375,0.160157 -0.375,0.363282 l 0,1.171875 c 0,0.203125 0.171875,0.367187 0.375,0.367187 l 0.464844,0 c 0.042969,0.128906 0.09375,0.257813 0.152344,0.378906 l -0.328125,0.332032 c -0.144532,0.144531 -0.144532,0.375 0,0.519531 l 0.832031,0.824219 c 0.140625,0.140625 0.371094,0.140625 0.515625,0 l 0.332031,-0.332032 c 0.121094,0.05859 0.246094,0.109376 0.375,0.152344 l 0,0.476563 c 0,0.203125 0.167969,0.363281 0.371094,0.363281 l 1.164063,0 c 0.203124,0 0.363281,-0.160156 0.363281,-0.363281 l 0,-0.476563 c 0.132812,-0.04297 0.261719,-0.09375 0.382812,-0.152344 l 0.332031,0.332032 c 0.144532,0.140625 0.375,0.140625 0.519532,0 l 0.832031,-0.824219 c 0.140625,-0.144531 0.140625,-0.375 0,-0.519531 L 14.675781,15.15625 c 0.05859,-0.117188 0.109375,-0.242188 0.152344,-0.371094 l 0.472656,0 c 0.207031,0 0.367188,-0.164062 0.367188,-0.367187 l 0,-1.171875 c 0,-0.203125 -0.160157,-0.363282 -0.367188,-0.363282 l -0.472656,0 c -0.04297,-0.128906 -0.09375,-0.253906 -0.152344,-0.375 l 0.339844,-0.339843 c 0.140625,-0.140625 0.140625,-0.371094 0,-0.515625 l -0.832031,-0.824219 c -0.144532,-0.144531 -0.375,-0.144531 -0.519532,0 l -0.332031,0.332031 c -0.121093,-0.0625 -0.25,-0.109375 -0.382812,-0.152344 l 0,-0.476562 c 0,-0.203125 -0.160157,-0.363281 -0.363281,-0.363281 z M 12,12.882812 c 0.523438,0 0.949219,0.425782 0.949219,0.949219 0,0.527344 -0.425781,0.953125 -0.949219,0.953125 -0.523438,0 -0.949219,-0.425781 -0.949219,-0.953125 0,-0.523437 0.425781,-0.949219 0.949219,-0.949219 z"
     id="path3063"
     inkscape:connector-curvature="0" />
  <path
     style="font-size:medium;font-style:normal;font-variant:normal;font-weight:normal;font-stretch:normal;text-indent:0;text-align:start;text-decoration:none;line-height:normal;letter-spacing:normal;word-spacing:normal;text-transform:none;direction:ltr;block-progression:tb;writing-mode:lr-tb;text-anchor:start;baseline-shift:baseline;color:#000000;fill:#000000;fill-opacity:0.32156863;fill-rule:nonzero;stroke:none;stroke-width:1.03313816;marker:none;visibility:visible;display:inline;overflow:visible;enable-background:accumulate;font-family:Sans;-inkscape-font-specification:Sans"
     d="m 4.0000115,2.9999999 c -0.5444543,0 -1,0.3988699 -1,1 l 0,1 -1,0 c -0.5067594,0 -1,0.3964676 -1,1 -2.589e-5,4.5937491 0,9.4062501 0,14.0000001 0,0.487177 0.4191986,1 1,1 l 20.0000005,0 c 0.521212,0 1,-0.442558 1,-1 l 0,-13.0000001 c 0,-0.5731146 -0.393904,-1 -1,-1 l -2,0 0,-2 c 0,-0.5585119 -0.457433,-1 -1,-1 z m 10.0000005,3 0,1 8,0 0,13.0000001 -20.0000005,0 0,-14.0000001 z"
     id="path3786"
     inkscape:connector-curvature="0"
     sodipodi:nodetypes="ssccccssssscsssccccccc" />
</svg>
