<?xml version="1.0" encoding="UTF-8" standalone="no"?>
<!-- Created with Inkscape (http://www.inkscape.org/) -->

<svg
   xmlns:dc="http://purl.org/dc/elements/1.1/"
   xmlns:cc="http://creativecommons.org/ns#"
   xmlns:rdf="http://www.w3.org/1999/02/22-rdf-syntax-ns#"
   xmlns:svg="http://www.w3.org/2000/svg"
   xmlns="http://www.w3.org/2000/svg"
   xmlns:sodipodi="http://sodipodi.sourceforge.net/DTD/sodipodi-0.dtd"
   xmlns:inkscape="http://www.inkscape.org/namespaces/inkscape"
   id="svg3396"
   height="24"
   width="24"
   version="1.0"
   inkscape:version="0.48.5 r10040"
   sodipodi:docname="network.svg">
  <metadata
     id="metadata64">
    <rdf:RDF>
      <cc:Work
         rdf:about="">
        <dc:format>image/svg+xml</dc:format>
        <dc:type
           rdf:resource="http://purl.org/dc/dcmitype/StillImage" />
        <dc:title />
      </cc:Work>
    </rdf:RDF>
  </metadata>
  <sodipodi:namedview
     pagecolor="#ffffff"
     bordercolor="#666666"
     borderopacity="1"
     objecttolerance="10"
     gridtolerance="10"
     guidetolerance="10"
     inkscape:pageopacity="0"
     inkscape:pageshadow="2"
     inkscape:window-width="1280"
     inkscape:window-height="998"
     id="namedview62"
     showgrid="true"
     inkscape:zoom="23.74981"
     inkscape:cx="16.26033"
     inkscape:cy="9.8634041"
     inkscape:window-x="0"
     inkscape:window-y="0"
     inkscape:window-maximized="1"
     inkscape:current-layer="svg3396">
    <inkscape:grid
       type="xygrid"
       id="grid3906"
       empspacing="5"
       visible="true"
       enabled="true"
       snapvisiblegridlinesonly="true" />
  </sodipodi:namedview>
  <defs
     id="defs3398">
    <radialGradient
       id="radialGradient2661"
       gradientUnits="userSpaceOnUse"
       cy="35.126999"
       cx="23.070999"
       gradientTransform="matrix(1.0638,0.013724,-0.009553,0.23168,118.76592,36.591726)"
       r="10.319">
      <stop
         id="stop2093"
         offset="0" />
      <stop
         id="stop2095"
         style="stop-opacity:0"
         offset="1" />
    </radialGradient>
    <linearGradient
       id="linearGradient2658"
       y2="46.073002"
       gradientUnits="userSpaceOnUse"
       x2="28.857"
       y1="26"
       x1="28.857"
       gradientTransform="translate(106.84292,-0.48127441)">
      <stop
         id="stop3499"
         style="stop-color:#699536"
         offset="0" />
      <stop
         id="stop3501"
         style="stop-color:#587d2d"
         offset="1" />
    </linearGradient>
    <linearGradient
       id="linearGradient2656"
       y2="32.485001"
       gradientUnits="userSpaceOnUse"
       x2="24.104"
       gradientTransform="matrix(0.89889,0,0,0.89347,121.37892,14.952726)"
       y1="15.169"
       x1="24.104">
      <stop
         id="stop2266"
         style="stop-color:#d7e866"
         offset="0" />
      <stop
         id="stop2268"
         style="stop-color:#8cab2a"
         offset="1" />
    </linearGradient>
    <linearGradient
       id="linearGradient2653"
       y2="47.272999"
       gradientUnits="userSpaceOnUse"
       x2="24.139"
       gradientTransform="matrix(0.53994,0,0,0.53668,129.99392,23.012726)"
       y1="6.5317001"
       x1="24.139">
      <stop
         id="stop4224"
         style="stop-color:#fff"
         offset="0" />
      <stop
         id="stop4226"
         style="stop-color:#fff;stop-opacity:0"
         offset="1" />
    </linearGradient>
    <radialGradient
       id="radialGradient2455"
       gradientUnits="userSpaceOnUse"
       cy="5.0172"
       cx="3"
       gradientTransform="matrix(-1.2749e-8,1.7143,-2.1593,-1.46e-8,12.809,2.857)"
       r="21">
      <stop
         id="stop3486"
         style="stop-color:#bdbdbd"
         offset="0" />
      <stop
         id="stop3488"
         style="stop-color:#d0d0d0"
         offset="1" />
    </radialGradient>
    <linearGradient
       id="linearGradient2453"
       y2="16.190001"
       gradientUnits="userSpaceOnUse"
       x2="62.988998"
       gradientTransform="translate(-50.941,0)"
       y1="13.183"
       x1="62.988998">
      <stop
         id="stop6406"
         style="stop-color:#f9f9f9"
         offset="0" />
      <stop
         id="stop6408"
         style="stop-color:#c9c9c9"
         offset="1" />
    </linearGradient>
    <radialGradient
       id="radialGradient7600-312"
       gradientUnits="userSpaceOnUse"
       cy="486.64999"
       cx="605.71002"
       gradientTransform="matrix(-0.03213,0,0,0.037059,23.363,25.412)"
       r="117.14">
      <stop
         id="stop2681"
         offset="0" />
      <stop
         id="stop2683"
         style="stop-opacity:0"
         offset="1" />
    </radialGradient>
    <radialGradient
       id="radialGradient7598-526"
       gradientUnits="userSpaceOnUse"
       cy="486.64999"
       cx="605.71002"
       gradientTransform="matrix(0.03213,0,0,0.037059,24.637,25.412)"
       r="117.14">
      <stop
         id="stop2675"
         offset="0" />
      <stop
         id="stop2677"
         style="stop-opacity:0"
         offset="1" />
    </radialGradient>
    <linearGradient
       id="linearGradient7596-975"
       y2="609.51001"
       gradientUnits="userSpaceOnUse"
       x2="302.85999"
       gradientTransform="matrix(0.08284,0,0,0.037059,-5.9408,25.412)"
       y1="366.64999"
       x1="302.85999">
      <stop
         id="stop2667"
         style="stop-opacity:0"
         offset="0" />
      <stop
         id="stop2669"
         offset=".5" />
      <stop
         id="stop2671"
         style="stop-opacity:0"
         offset="1" />
    </linearGradient>
    <linearGradient
       id="linearGradient2446"
       y2="15.944"
       gradientUnits="userSpaceOnUse"
       x2="65.339996"
       gradientTransform="translate(-53.765,-0.11419)"
       y1="45.113998"
       x1="82.453003">
      <stop
         id="stop3624"
         style="stop-color:#bb2b12"
         offset="0" />
      <stop
         id="stop3626"
         style="stop-color:#cd7233"
         offset="1" />
    </linearGradient>
    <radialGradient
       id="radialGradient2444"
       gradientUnits="userSpaceOnUse"
       cy="14.113"
       cx="63.969002"
       gradientTransform="matrix(1.5647,-9.5143e-8,6.1772e-8,1.0159,-86.213,8.1461)"
       r="23.097">
      <stop
         id="stop3618"
         style="stop-color:#f0c178"
         offset="0" />
      <stop
         id="stop3270"
         style="stop-color:#e18941"
         offset=".5" />
      <stop
         id="stop3620"
         style="stop-color:#ec4f18"
         offset="1" />
    </radialGradient>
    <linearGradient
       id="linearGradient2441"
       y2="36.658001"
       gradientUnits="userSpaceOnUse"
       x2="22.809"
       gradientTransform="matrix(1.1447,0,0,0.99775,-3.4661,1.0988)"
       y1="49.629002"
       x1="22.934999">
      <stop
         id="stop2661"
         style="stop-color:#0a0a0a;stop-opacity:.498"
         offset="0" />
      <stop
         id="stop2663"
         style="stop-color:#0a0a0a;stop-opacity:0"
         offset="1" />
    </linearGradient>
    <radialGradient
       id="radialGradient2438"
       gradientUnits="userSpaceOnUse"
       cy="8.3021002"
       cx="7.2646999"
       gradientTransform="matrix(0,1.208,-1.6272,0,26.372,8.2665)"
       r="20.98">
      <stop
         id="stop2693"
         style="stop-color:#fff;stop-opacity:0.4"
         offset="0" />
      <stop
         id="stop2695"
         style="stop-color:#fff;stop-opacity:0"
         offset="1" />
    </radialGradient>
    <linearGradient
       id="linearGradient2435"
       y2="33.955002"
       gradientUnits="userSpaceOnUse"
       x2="15.215"
       y1="22.292"
       x1="11.566">
      <stop
         id="stop2687"
         style="stop-color:#fff;stop-opacity:.27451"
         offset="0" />
      <stop
         id="stop2689"
         style="stop-color:#fff;stop-opacity:.078431"
         offset="1" />
    </linearGradient>
  </defs>
  <path
     style="font-size:medium;font-style:normal;font-variant:normal;font-weight:normal;font-stretch:normal;text-indent:0;text-align:start;text-decoration:none;line-height:normal;letter-spacing:normal;word-spacing:normal;text-transform:none;direction:ltr;block-progression:tb;writing-mode:lr-tb;text-anchor:start;baseline-shift:baseline;color:#000000;fill:#c4905e;fill-opacity:1;fill-rule:nonzero;stroke:none;stroke-width:1.52408636;marker:none;visibility:visible;display:inline;overflow:visible;enable-background:accumulate;font-family:Sans;-inkscape-font-specification:Sans"
     d="m 2.6250001,3.9999998 c -0.3474302,0.063546 -0.625147,0.3968062 -0.625,0.75 l 0,14.5000002 c 0.00617,0.390979 0.3590206,0.74383 0.75,0.75 L 21.25,20 C 21.640979,19.9938 21.99383,19.640979 22,19.25 L 22,6.8124998 c -0.0062,-0.3909794 -0.359021,-0.7438305 -0.75,-0.75 l -7.25,0 0,-1.3125 c -0.0062,-0.3909794 -0.359021,-0.7438305 -0.75,-0.75 l -10.4999999,0 c -0.041573,-0.00342 -0.083427,-0.00342 -0.125,0 z m 8.8749999,4 0.5,0 c 2.205995,0 4,1.7946502 4,4.0000002 0,2.2053 -1.794152,4 -4.5,4 -1.7061361,0 -3.4999999,-1.7947 -3.4999999,-4 0,-2.20535 1.7938613,-4.0000002 3.4999999,-4.0000002 z m 0.0625,0.5625 c -0.155293,0.02015 -0.320603,0.05375 -0.46875,0.09375 L 10.625,9.4375 c 0.03993,0.006 0.07344,0.0017 0.125,0.03125 C 11,9.6116 11.11607,9.7325 11.1875,9.75 c 0.07143,0.018 0.388395,-0.4194 0.15625,0.0625 -0.232143,0.4821 -0.325893,0.64285 -0.59375,0.75 -0.01674,0.005 -0.04595,-0.008 -0.0625,0 -0.06844,0.08205 -0.165504,0.17825 -0.28125,0.28125 -0.252538,0.2251 -0.375,0.24385 -0.375,0.46875 0,0.225 0.02053,0.4188 -0.1562499,0.71875 -0.176775,0.2999 -0.325765,0.3062 -0.25,0.53125 0.075763,0.22495 0.1262693,0.61245 0,0.4375 -0.1262689,-0.1749 -0.055234,-0.51225 -0.15625,-0.3125 -0.088389,0.17505 -0.296613,0.2265 -0.3125,0.40625 -0.00225,0.02465 -0.00634,0.06225 0,0.09375 0.064819,0.21635 0.4375,-0.077 0.4375,0.09375 0,0.17485 -0.325763,0.1625 -0.25,0.3125 0.075761,0.14985 0.3724624,-0.2934 0.625,-0.21875 0.2525399,0.075 0.085216,0.11875 0.3124999,0.21875 0.227284,0.1 0.34375,0.1938 0.34375,0.34375 0,0.15 0.73201,0.09375 0.65625,0.34375 -0.07576,0.24995 -0.147715,0.19385 -0.375,0.46875 -0.125208,0.1515 -0.23906,0.23945 -0.3125,0.3125 0.102957,0.0753 0.129465,0.1025 0.25,0.0625 0.16071,-0.05345 -0.03125,-0.11615 0.09375,-0.1875 0.03125,-0.018 0.04408,-0.047 0.0625,-0.0625 0.01841,-0.015 0.02455,-0.01975 0.0625,-0.03125 0.07589,-0.0225 0.214285,-0.03125 0.5625,-0.03125 0.696428,0 1.0625,0.03125 1.0625,0.03125 0,0 0.214287,-2e-4 0,0.125 -0.156593,0.0912 -0.46004,0.23775 -0.5,0.28125 0.01569,-0.0015 0.02232,0.0115 0.0625,0 0.321429,-0.08935 0.78125,-0.1515 0.90625,-0.1875 0.05296,-0.01505 0.333583,-0.1773 0.5625,-0.28125 0.0093,-0.0216 0.02185,-0.041 0.03125,-0.0625 l -0.03125,0 c -0.17678,-0.07565 -0.33176,-0.4303 -0.28125,-0.53125 0.05051,-0.101 0.18623,-0.185 0.3125,-0.4375 0.12627,-0.25255 0.103553,-0.0456 -0.25,-0.5 -0.353553,-0.4545 -0.541973,0.0264 -0.71875,-0.125 -0.176777,-0.1515 -0.535978,-0.2848 -0.6875,-0.5625 C 11.94222,12.2847 12,12.4905 12,12.1875 12,11.8841 11.98674,12.0964 12.0625,11.84375 12.13826,11.59145 12.341211,11.5518 12.59375,11.375 12.62847,11.35 12.6522,11.36125 12.6875,11.34375 12.63092,11.29 12.563985,11.1577 12.40625,11 c 0,0 0.15498,-0.32445 0.28125,-0.375 0.122555,-0.04835 0.209063,-0.01625 0.375,0.03125 0.0071,-0.0271 -0.0077,-0.0319 0,-0.09375 C 13.087754,10.36055 13,10.46995 13,10.34375 13,10.2175 13.04197,10.36305 13.21875,10.3125 13.395528,10.262 13.385723,9.8869 13.5625,9.9375 13.739276,9.988 13.754728,9.88345 13.90625,9.65625 14.057774,9.42865 13.88953,9.5385 13.6875,9.4375 13.48547,9.3365 13.67551,9.60465 13.625,9.78125 13.57449,9.95795 13.426777,9.8474 13.25,9.46875 13.073223,9.09005 13.21148,9.2404 13.3125,8.9374998 c 0.01768,-0.05315 0.03722,-0.0935 0.0625,-0.125 -0.328422,-0.14285 -0.689663,-0.2155 -1.0625,-0.25 -0.0023,0.0175 0.002,0.01175 0,0.03125 -0.03571,0.3392 -0.20982,0.12025 -0.28125,0.15625 C 11.95982,8.7857498 11.5,9.4464 11.5,9.375 c 0,-0.07145 0.0625,-0.1875 0.0625,-0.1875 0,0 0.05682,-0.3018002 0,-0.6250002 z M 13,9.90625 c 0.07695,0.0118 0.14962,0.08085 0.1875,0.15625 0.02019,0.0411 -0.0078,0.053 -0.03125,0.0625 0,0 0.03125,0.1 0.03125,0.125 0,0.025 -0.06755,0.0315 -0.1875,0 -0.08997,-0.0233 0.0015,-0.04875 0.0625,-0.09375 l -0.125,0 c -0.0442,0 -0.05185,-0.02325 -0.0625,-0.03125 0.0067,0.0055 -0.01093,0.01825 0,0.03125 0.05682,0.0695 -0.01168,0.01275 -0.09375,0.03125 -0.08207,0.01895 -0.0066,-0.0552 0.03125,-0.125 0,0 0.0531,0.0465 0.0625,0.0625 0.01578,-0.03475 0.03125,-0.09915 0.03125,-0.1875 C 12.93781,9.92445 12.97435,9.89825 13,9.90625 z m 1.90625,0.21875 c -0.126223,0.0936 -0.273412,0.30465 -0.40625,0.4375 -0.227284,0.2269 0.123731,0.25575 0.25,0.28125 0.126269,0.02545 0.247462,-0.0625 0.5,-0.0625 -0.0045,-0.012 -0.02665,-0.01925 -0.03125,-0.03125 -0.03417,0.004 -0.05235,0 -0.09375,0 -0.148082,0 -0.06602,-0.11085 -0.03125,-0.3125 -0.05271,-0.10325 -0.12504,-0.2155 -0.1875,-0.3125 z m -1.5625,0.46875 C 13.29051,10.5776 13.22128,10.6321 13.125,10.6875 c 0.06836,0.0997 -0.139514,0.36355 -0.25,0.5625 -0.0044,0.005 -0.02715,0.02325 -0.03125,0.03125 0.216571,-0.0362 0.557041,0.03 1.3125,0.21875 0,0 0.29324,-0.1009 0.34375,0 0.01794,0.0351 0.103173,0.0545 0.21875,0.0625 0.305268,-0.12025 0.15625,-0.1941 0.15625,-0.4375 0,-0.25245 -0.39426,0.0012 -0.34375,-0.125 0.05051,-0.12625 -0.04197,-0.10455 -0.21875,-0.28125 -0.17678,-0.17675 -0.154982,0.43865 -0.28125,0.3125 -0.126271,-0.125 -0.13699,-0.024 -0.1875,-0.125 C 13.79324,10.80525 13.625,10.625 13.625,10.625 c 0,0 0.119,0.1537 0.09375,0.40625 -0.02525,0.25235 -0.375,0.03125 -0.375,0.03125 0,0 0.05523,-0.0375 0.15625,-0.0625 0.101015,-0.0253 -0.01799,-0.16695 -0.09375,-0.34375 -0.01894,-0.04305 -0.03923,-0.055 -0.0625,-0.0625 z m 2.125,1.25 c -0.02806,0.0205 -0.05902,0.0495 -0.09375,0.0625 -0.277793,0.101 -0.5,0.3125 -0.5,0.3125 0,0 0.335294,0.01665 0.5625,0.21875 0.01651,-0.1376 0.03125,-0.2954 0.03125,-0.4375 0,-0.0513 0.0023,-0.1057 0,-0.15625 z"
     id="path3912"
     inkscape:connector-curvature="0" />
</svg>
