<?xml version="1.0" encoding="UTF-8" standalone="no"?>
<svg
   xmlns:dc="http://purl.org/dc/elements/1.1/"
   xmlns:cc="http://creativecommons.org/ns#"
   xmlns:rdf="http://www.w3.org/1999/02/22-rdf-syntax-ns#"
   xmlns:svg="http://www.w3.org/2000/svg"
   xmlns="http://www.w3.org/2000/svg"
   xmlns:sodipodi="http://sodipodi.sourceforge.net/DTD/sodipodi-0.dtd"
   xmlns:inkscape="http://www.inkscape.org/namespaces/inkscape"
   viewBox="0 0 22 22"
   id="svg2"
   version="1.1"
   inkscape:version="0.91 r13725"
   sodipodi:docname="blue-folder-move.svg">
  <metadata
     id="metadata28">
    <rdf:RDF>
      <cc:Work
         rdf:about="">
        <dc:format>image/svg+xml</dc:format>
        <dc:type
           rdf:resource="http://purl.org/dc/dcmitype/StillImage" />
        <dc:title></dc:title>
      </cc:Work>
    </rdf:RDF>
  </metadata>
  <defs
     id="defs26" />
  <sodipodi:namedview
     pagecolor="#ffffff"
     bordercolor="#666666"
     borderopacity="1"
     objecttolerance="10"
     gridtolerance="10"
     guidetolerance="10"
     inkscape:pageopacity="0"
     inkscape:pageshadow="2"
     inkscape:window-width="722"
     inkscape:window-height="480"
     id="namedview24"
     showgrid="false"
     inkscape:zoom="10.727273"
     inkscape:cx="11"
     inkscape:cy="11"
     inkscape:window-x="0"
     inkscape:window-y="24"
     inkscape:window-maximized="0"
     inkscape:current-layer="svg2" />
  <rect
     ry="1.1720001"
     rx="1.196"
     y="3.9977853"
     x="2"
     height="7.5"
     width="11"
     style="fill:replacecolour2;fill-opacity:1;stroke:none"
     id="rect8" />
  <path
     d="M 3.196,3.9978 C 2.534,3.9978 2,4.4978 2,5.2478 l 0,0.75 c 0,-0.693 0.533,-1 1.196,-1 l 8.609,0 c 0.662,0 1.196,0.307 1.196,1 l 0,-0.75 c 0,-0.693 -0.533,-1.25 -1.196,-1.25 z"
     style="opacity:0.1;fill:#ffffff;fill-opacity:1;stroke:none"
     id="path10"
     inkscape:connector-curvature="0" />
  <path
     d="m 3.196,5.9978 1.913,0 c 2.63,-0.236 2.152,-3 3.826,-3 l 2.87,0 c 0.662,0 1.196,0.526 1.196,1.18 l 0,6.639 c 0,0.654 -0.533,1.181 -1.196,1.181 l -8.609,0 C 2.534,11.9978 2,11.4718 2,10.8168 l 0,-3.806 c 0,-0.708 0.478,-1.014 1.196,-1.014 z"
     style="fill:replacecolour1;fill-opacity:1;stroke:none"
     id="path12"
     inkscape:connector-curvature="0" />
  <path
     d="m 2,9.8978 0,0.957 c 0,0.632 0.524,1.141 1.196,1.141 l 8.609,0 c 0.662,0 1.196,-0.509 1.196,-1.141 l 0,-0.957 c 0,0.632 -0.533,1.098 -1.196,1.098 l -8.609,0 C 2.534,10.9958 2,10.5298 2,9.8978 Z"
     style="opacity:0.075;fill:#000000;fill-opacity:1;stroke:none"
     id="path14"
     inkscape:connector-curvature="0" />
  <path
     style="opacity:0.5;fill:#ffffff;fill-opacity:1;stroke:none"
     d="m 8.9355469,2.998047 c -0.6727985,0 -0.9993083,0.450615 -1.3183594,1 l -4.421875,0 c -0.2485438,0 -0.4652777,0.08907 -0.65625,0.216797 C 2.4752615,4.257074 2.4037708,4.288574 2.3496094,4.341797 2.2231773,4.46603 2.13753,4.623067 2.078125,4.792969 2.0439006,4.89233 2.0220394,4.999601 2.0117188,5.113281 2.010706,5.13315 2,5.149798 2,5.169922 l 0,0.07813 0,0.75 0,1.013672 0,2.886719 0,0.427734 0,0.490234 0,0.03906 c 0,0.518762 0.36122,0.936626 0.859375,1.076172 0.1088577,0.032 0.216328,0.06641 0.3359375,0.06641 l 8.6093755,0 c 0.08321,0 0.156058,-0.03106 0.234374,-0.04687 0.545227,-0.106412 0.962891,-0.543022 0.962891,-1.095703 l 0,-0.03906 0,-4.818359 0,-0.75 0,-1.070313 c 0,-0.654 -0.535265,-1.179687 -1.197265,-1.179687 l -2.8691411,0 z"
     id="rect4167"
     inkscape:connector-curvature="0" />
  <rect
     id="rect16"
     style="fill:replacecolour2;fill-opacity:1;stroke:none"
     ry="1.1720001"
     rx="1.196"
     y="10.997786"
     x="9"
     height="7.5"
     width="11" />
  <path
     inkscape:connector-curvature="0"
     id="path18"
     style="opacity:0.2;fill:#ffffff;fill-opacity:1;stroke:none"
     d="m 10.196,10.9978 c -0.662,0 -1.196,0.5 -1.196,1.25 l 0,0.75 c 0,-0.693 0.533,-1 1.196,-1 l 8.609,0 c 0.662,0 1.196,0.307 1.196,1 l 0,-0.75 c 0,-0.693 -0.533,-1.25 -1.196,-1.25 z" />
  <path
     inkscape:connector-curvature="0"
     id="path20"
     style="fill:replacecolour1;fill-opacity:1;stroke:none"
     d="m 10.196,12.9978 1.913,0 c 2.63,-0.236 2.152,-3 3.826,-3 l 2.87,0 c 0.662,0 1.196,0.526 1.196,1.18 l 0,6.639 c 0,0.654 -0.533,1.181 -1.196,1.181 l -8.609,0 C 9.534,18.9978 9,18.4718 9,17.8168 l 0,-3.806 c 0,-0.708 0.478,-1.014 1.196,-1.014 z" />
  <path
     inkscape:connector-curvature="0"
     id="path22"
     style="opacity:0.15;fill:#000000;fill-opacity:1;stroke:none"
     d="m 9,16.8978 0,0.957 c 0,0.632 0.524,1.141 1.196,1.141 l 8.609,0 c 0.662,0 1.196,-0.509 1.196,-1.141 l 0,-0.957 c 0,0.632 -0.533,1.098 -1.196,1.098 l -8.609,0 C 9.534,17.9958 9,17.5298 9,16.8978 Z" />
</svg>
