<?xml version="1.0" encoding="UTF-8" standalone="no"?>
<!-- Created with Inkscape (http://www.inkscape.org/) -->

<svg
   xmlns:dc="http://purl.org/dc/elements/1.1/"
   xmlns:cc="http://creativecommons.org/ns#"
   xmlns:rdf="http://www.w3.org/1999/02/22-rdf-syntax-ns#"
   xmlns:svg="http://www.w3.org/2000/svg"
   xmlns="http://www.w3.org/2000/svg"
   xmlns:xlink="http://www.w3.org/1999/xlink"
   xmlns:sodipodi="http://sodipodi.sourceforge.net/DTD/sodipodi-0.dtd"
   xmlns:inkscape="http://www.inkscape.org/namespaces/inkscape"
   width="22"
   height="22"
   id="svg2"
   version="1.1"
   inkscape:version="0.91 r"
   sodipodi:docname="custom-folder-music.svg">
  <defs
     id="defs4">
    <linearGradient
       id="linearGradient3886-9">
      <stop
         style="stop-color:#000000;stop-opacity:1;"
         offset="0"
         id="stop3888-1" />
      <stop
         style="stop-color:#000000;stop-opacity:0.19607843;"
         offset="1"
         id="stop3890-9" />
    </linearGradient>
    <radialGradient
       r="24"
       fy="40.5"
       fx="24"
       cy="40.5"
       cx="24"
       gradientTransform="matrix(0.625,0,0,0.10416663,-4,1045.1435)"
       gradientUnits="userSpaceOnUse"
       id="radialGradient3053"
       xlink:href="#linearGradient3886-9"
       inkscape:collect="always" />
  </defs>
  <sodipodi:namedview
     id="base"
     pagecolor="#ffffff"
     bordercolor="#666666"
     borderopacity="1.0"
     inkscape:pageopacity="0.0"
     inkscape:pageshadow="2"
     inkscape:zoom="35.255566"
     inkscape:cx="12.876238"
     inkscape:cy="10.643491"
     inkscape:document-units="px"
     inkscape:current-layer="layer1"
     showgrid="true"
     inkscape:window-width="1280"
     inkscape:window-height="998"
     inkscape:window-x="0"
     inkscape:window-y="0"
     inkscape:window-maximized="1">
    <inkscape:grid
       type="xygrid"
       id="grid2990"
       empspacing="5"
       visible="true"
       enabled="true"
       snapvisiblegridlinesonly="true" />
  </sodipodi:namedview>
  <metadata
     id="metadata7">
    <rdf:RDF>
      <cc:Work
         rdf:about="">
        <dc:format>image/svg+xml</dc:format>
        <dc:type
           rdf:resource="http://purl.org/dc/dcmitype/StillImage" />
        <dc:title />
      </cc:Work>
    </rdf:RDF>
  </metadata>
  <g
     inkscape:label="Body"
     inkscape:groupmode="layer"
     id="layer1"
     transform="translate(0,-1030.3622)">
    <path
       inkscape:connector-curvature="0"
       style="opacity:0.1;fill:url(#radialGradient3053);fill-opacity:1;stroke:none"
       d="m 11,1046.8622 c -4.9132745,0 -9.2639851,0.3915 -12,1 l 0,3 c 2.7360149,0.6085 7.0867255,1 12,1 4.913274,0 9.263985,-0.3915 12,-1 l 0,-3 c -2.736015,-0.6085 -7.086726,-1 -12,-1 z"
       id="path3868" />
    <rect
       style="fill:replacecolour2;fill-opacity:1;stroke:none"
       id="rect2987"
       width="22"
       height="16.00001"
       x="0"
       y="1034.3622"
       rx="2.3913043"
       ry="2.5" />
    <path
       style="opacity:0.2;fill:#ffffff;fill-opacity:1;stroke:none"
       d="M 2.3913043,1034.3622 C 1.0665217,1034.3622 0,1035.4772 0,1036.8622 l 0,1 c 0,-1.385 1.0665217,-2.5 2.3913043,-2.5 l 17.2173917,0 c 1.324782,0 2.391304,1.115 2.391304,2.5 l 0,-1 c 0,-1.385 -1.066522,-2.5 -2.391304,-2.5 l -17.2173917,0 z"
       id="rect3797"
       inkscape:connector-curvature="0" />
    <path
       style="fill:replacecolour1;fill-opacity:1;stroke:none"
       d="m 2.3913043,1038.3622 3.826087,0 c 5.2608697,-0.5 4.3043477,-6 7.6521737,-6 l 5.739131,0 c 1.324782,0 2.391304,1.115 2.391304,2.5 l 0,13 c 0,1.385 -1.066522,2.5 -2.391304,2.5 l -17.2173917,0 C 1.0665217,1050.3622 0,1049.2472 0,1047.8622 l 0,-7 c 0,-1.5 0.9565217,-2.5 2.3913043,-2.5 z"
       id="rect3776"
       inkscape:connector-curvature="0"
       sodipodi:nodetypes="cccsssssscc" />
    <path
       style="opacity:0.15;fill:#000000;fill-opacity:1;stroke:none"
       d="m 0,1046.8622 0,1 c 0,1.385 1.0665217,2.5 2.3913043,2.5 l 17.2173917,0 c 1.324782,0 2.391304,-1.115 2.391304,-2.5 l 0,-1 c 0,1.385 -1.066522,2.5 -2.391304,2.5 l -17.2173917,0 C 1.0665217,1049.3622 0,1048.2472 0,1046.8622 z"
       id="path3786"
       inkscape:connector-curvature="0" />
    <path
       style="fill:#000000;fill-opacity:0.09803922;stroke:none"
       d="m 5,1041.3622 c -0.4725294,0 -0.8318489,0.3421 -0.9375,0.7813 -0.036667,0.07 -0.0625,0.1342 -0.0625,0.2187 l 0,3.5625 c -0.1176764,-0.031 -0.2152844,-0.062 -0.34375,-0.062 -0.7434603,0 -1.34375,0.5596 -1.34375,1.25 0,0.6904 0.6002897,1.25 1.34375,1.25 0.7434603,0 1.34375,-0.5596 1.34375,-1.25 0,-0.054 -0.023983,-0.1037 -0.03125,-0.1562 C 4.97574,1046.9225 5,1046.8985 5,1046.8625 l 0,-3.5 3,0 0,2.5625 c -0.1086712,-0.026 -0.2262177,-0.062 -0.34375,-0.062 -0.7434603,0 -1.34375,0.5596 -1.34375,1.25 0,0.6904 0.6002897,1.25 1.34375,1.25 0.7434603,0 1.34375,-0.5596 1.34375,-1.25 0,-0.054 -0.023983,-0.1037 -0.03125,-0.1562 C 8.97558,1046.9228 9,1046.8988 9,1046.8628 l 0,-4.5 c 0,-0.082 -0.044284,-0.143 -0.0625,-0.2187 -0.1056511,-0.4392 -0.4649706,-0.7813 -0.9375,-0.7813 l -3,0 z"
       id="path3059"
       inkscape:connector-curvature="0" />
    <path
       sodipodi:type="arc"
       style="fill:replacecolour3;fill-opacity:1;stroke:none"
       id="path3001"
       sodipodi:cx="-6.8228297"
       sodipodi:cy="8.2585173"
       sodipodi:rx="1.8228298"
       sodipodi:ry="1.7414824"
       d="m -4.9999999,8.2585173 c 0,0.9617941 -0.8161087,1.7414823 -1.8228298,1.7414823 -1.0067211,0 -1.8228299,-0.7796882 -1.8228299,-1.7414823 0,-0.9617942 0.8161088,-1.7414824 1.8228299,-1.7414824 1.0067211,0 1.8228298,0.7796882 1.8228298,1.7414824 z"
       transform="matrix(0.73849673,0,0,0.71777944,8.6847913,1040.1844)" />
    <path
       transform="matrix(0.73849673,0,0,0.71777944,12.692483,1040.1844)"
       d="m -4.9999999,8.2585173 c 0,0.9617941 -0.8161087,1.7414823 -1.8228298,1.7414823 -1.0067211,0 -1.8228299,-0.7796882 -1.8228299,-1.7414823 0,-0.9617942 0.8161088,-1.7414824 1.8228299,-1.7414824 1.0067211,0 1.8228298,0.7796882 1.8228298,1.7414824 z"
       sodipodi:ry="1.7414824"
       sodipodi:rx="1.8228298"
       sodipodi:cy="8.2585173"
       sodipodi:cx="-6.8228297"
       id="path3003"
       style="fill:replacecolour3;fill-opacity:1;stroke:none"
       sodipodi:type="arc" />
    <rect
       style="fill:replacecolour3;fill-opacity:1;stroke:none"
       id="rect3005"
       width="1.0000002"
       height="5.5000095"
       x="4"
       y="1040.8622"
       rx="0.50000012"
       ry="0.50000012" />
    <rect
       ry="0.50000012"
       rx="0.4882074"
       y="1040.8622"
       x="8"
       height="5.5000095"
       width="0.99999976"
       id="rect3007-5"
       style="fill:replacecolour3;fill-opacity:1;stroke:none" />
    <rect
       style="fill:replacecolour3;fill-opacity:1;stroke:none"
       id="rect3009"
       width="5"
       height="2.0000091"
       x="4"
       y="1040.3622"
       rx="1"
       ry="0.99999583" />
  </g>
</svg>
