<?xml version="1.0" encoding="UTF-8" standalone="no"?>
<!-- Created with Inkscape (http://www.inkscape.org/) -->

<svg
   xmlns:dc="http://purl.org/dc/elements/1.1/"
   xmlns:cc="http://creativecommons.org/ns#"
   xmlns:rdf="http://www.w3.org/1999/02/22-rdf-syntax-ns#"
   xmlns:svg="http://www.w3.org/2000/svg"
   xmlns="http://www.w3.org/2000/svg"
   xmlns:xlink="http://www.w3.org/1999/xlink"
   xmlns:sodipodi="http://sodipodi.sourceforge.net/DTD/sodipodi-0.dtd"
   xmlns:inkscape="http://www.inkscape.org/namespaces/inkscape"
   width="22"
   height="22"
   id="svg2"
   version="1.1"
   inkscape:version="0.91 r"
   sodipodi:docname="grey-folder-open.svg">
  <defs
     id="defs4">
    <linearGradient
       id="linearGradient3886-2">
      <stop
         style="stop-color:#000000;stop-opacity:1;"
         offset="0"
         id="stop3888-5" />
      <stop
         style="stop-color:#000000;stop-opacity:0.19607843;"
         offset="1"
         id="stop3890-3" />
    </linearGradient>
    <radialGradient
       r="24"
       fy="40.5"
       fx="24"
       cy="40.5"
       cx="24"
       gradientTransform="matrix(0.625,0,0,0.10416663,-4,1045.1435)"
       gradientUnits="userSpaceOnUse"
       id="radialGradient3129"
       xlink:href="#linearGradient3886-2"
       inkscape:collect="always" />
  </defs>
  <sodipodi:namedview
     id="base"
     pagecolor="#ffffff"
     bordercolor="#666666"
     borderopacity="1.0"
     inkscape:pageopacity="0.0"
     inkscape:pageshadow="2"
     inkscape:zoom="17.63"
     inkscape:cx="19.277381"
     inkscape:cy="11.137992"
     inkscape:document-units="px"
     inkscape:current-layer="layer1"
     showgrid="true"
     inkscape:window-width="1280"
     inkscape:window-height="998"
     inkscape:window-x="0"
     inkscape:window-y="0"
     inkscape:window-maximized="1">
    <inkscape:grid
       type="xygrid"
       id="grid2990"
       empspacing="5"
       visible="true"
       enabled="true"
       snapvisiblegridlinesonly="true" />
  </sodipodi:namedview>
  <metadata
     id="metadata7">
    <rdf:RDF>
      <cc:Work
         rdf:about="">
        <dc:format>image/svg+xml</dc:format>
        <dc:type
           rdf:resource="http://purl.org/dc/dcmitype/StillImage" />
        <dc:title />
      </cc:Work>
    </rdf:RDF>
  </metadata>
  <g
     inkscape:label="Body"
     inkscape:groupmode="layer"
     id="layer1"
     transform="translate(0,-1030.3622)">
    <path
       inkscape:connector-curvature="0"
       style="opacity:0.1;fill:url(#radialGradient3129);fill-opacity:1;stroke:none"
       d="m 11,1046.8622 c -4.913274,0 -9.263985,0.3915 -12,1 l 0,3 c 2.736015,0.6085 7.086726,1 12,1 4.913274,0 9.263985,-0.3915 12,-1 l 0,-3 c -2.736015,-0.6085 -7.086726,-1 -12,-1 z"
       id="path3868-2" />
    <rect
       style="fill:#757575;fill-opacity:1;stroke:none"
       id="rect2987-0"
       width="22"
       height="16.00001"
       x="0"
       y="1034.3622"
       rx="2.3913043"
       ry="2.5" />
    <path
       style="opacity:0.2;fill:#ffffff;fill-opacity:1;stroke:none"
       d="m 2.391304,1034.3622 c -1.324782,0 -2.391304,1.115 -2.391304,2.5 l 0,1 c 0,-1.385 1.066522,-2.5 2.391304,-2.5 l 17.217392,0 c 1.324782,0 2.391304,1.115 2.391304,2.5 l 0,-1 c 0,-1.385 -1.066522,-2.5 -2.391304,-2.5 l -17.217392,0 z"
       id="rect3797-2"
       inkscape:connector-curvature="0" />
    <g
       id="g3836"
       style="opacity:0.6;fill:#fff1ed;fill-opacity:1"
       transform="matrix(0.50000033,0,0,0.50000033,-7.0000073,530.68076)">
      <rect
         ry="1.5644517e-05"
         y="1017.3622"
         x="20"
         height="18"
         width="8"
         id="rect3832"
         style="fill:#fff1ed;fill-opacity:1;stroke:none" />
      <path
         sodipodi:nodetypes="ccccccc"
         inkscape:connector-curvature="0"
         id="path3834"
         d="m 22,1017.3622 -6,0 8,-8 8,8 -6,0 -2,2 z"
         style="fill:#fff1ed;fill-opacity:1;stroke:none" />
    </g>
    <path
       style="fill:#bdbdbd;fill-opacity:1;stroke:none"
       d="m 2.391304,1041.3622 3.826087,0 c 5.26087,-0.3611 4.304348,-4 7.652174,-4 l 5.739131,0 c 1.324782,0 2.391304,0.8054 2.391304,1.8056 l 0,9.3888 c 0,1.0003 -1.066522,1.8056 -2.391304,1.8056 l -17.217392,0 C 1.066522,1050.3622 0,1049.5569 0,1048.5566 l 0,-5.0555 c 0,-1.0833 0.956522,-2.1389 2.391304,-2.1389 z"
       id="rect3776-9"
       inkscape:connector-curvature="0"
       sodipodi:nodetypes="cccsssssscc" />
    <path
       style="opacity:0.15;fill:#000000;fill-opacity:1;stroke:none"
       d="m 0,1046.8622 0,1 c 0,1.385 1.066522,2.5 2.391304,2.5 l 17.217392,0 c 1.324782,0 2.391304,-1.115 2.391304,-2.5 l 0,-1 c 0,1.385 -1.066522,2.5 -2.391304,2.5 l -17.217392,0 C 1.066522,1049.3622 0,1048.2472 0,1046.8622 z"
       id="path3786-7"
       inkscape:connector-curvature="0" />
    <path
       style="fill:none;stroke:none"
       d="m 11.5,1037.3622 -2.5,1.5 1.5,0 z"
       id="path3801"
       inkscape:connector-curvature="0" />
  </g>
</svg>
