<?xml version="1.0" encoding="UTF-8" standalone="no"?>
<svg
   xmlns:dc="http://purl.org/dc/elements/1.1/"
   xmlns:cc="http://creativecommons.org/ns#"
   xmlns:rdf="http://www.w3.org/1999/02/22-rdf-syntax-ns#"
   xmlns:svg="http://www.w3.org/2000/svg"
   xmlns="http://www.w3.org/2000/svg"
   xmlns:sodipodi="http://sodipodi.sourceforge.net/DTD/sodipodi-0.dtd"
   xmlns:inkscape="http://www.inkscape.org/namespaces/inkscape"
   viewBox="0 0 22 22"
   id="svg2"
   version="1.1"
   inkscape:version="0.91 r13725"
   sodipodi:docname="blue-folder-open.svg">
  <metadata
     id="metadata31">
    <rdf:RDF>
      <cc:Work
         rdf:about="">
        <dc:format>image/svg+xml</dc:format>
        <dc:type
           rdf:resource="http://purl.org/dc/dcmitype/StillImage" />
      </cc:Work>
    </rdf:RDF>
  </metadata>
  <sodipodi:namedview
     pagecolor="#ffffff"
     bordercolor="#666666"
     borderopacity="1"
     objecttolerance="10"
     gridtolerance="10"
     guidetolerance="10"
     inkscape:pageopacity="0"
     inkscape:pageshadow="2"
     inkscape:window-width="722"
     inkscape:window-height="480"
     id="namedview29"
     showgrid="false"
     inkscape:zoom="10.727273"
     inkscape:cx="11"
     inkscape:cy="11"
     inkscape:window-x="10"
     inkscape:window-y="34"
     inkscape:window-maximized="0"
     inkscape:current-layer="svg2" />
  <defs
     id="defs4">
    <radialGradient
       r="24"
       cy="40.5"
       cx="24"
       gradientTransform="matrix(0.625,0,0,0.10416663,-4,14.7813)"
       gradientUnits="userSpaceOnUse"
       id="radialGradient3129">
      <stop
         style="stop-color:#000;stop-opacity:1"
         id="stop7" />
      <stop
         offset="1"
         style="stop-color:#000;stop-opacity:0.196"
         id="stop9" />
    </radialGradient>
  </defs>
  <path
     inkscape:connector-curvature="0"
     id="path13"
     style="opacity:0.1;fill:url(#radialGradient3129);fill-opacity:1;stroke:none"
     d="m 11,16.4978 c -4.913,0 -9.264,0.391 -12,1 l 0,3 c 2.736,0.609 7.087,1 12,1 4.913,0 9.264,-0.391 12,-1 l 0,-3 c -2.736,-0.609 -7.087,-1 -12,-1 z" />
  <rect
     x="0"
     id="rect15"
     style="fill:#e65100;fill-opacity:1;stroke:none"
     ry="2.5"
     rx="2.391"
     y="3.9977853"
     height="16"
     width="22" />
  <path
     inkscape:connector-curvature="0"
     id="path17"
     style="opacity:0.2;fill:#ffffff;fill-opacity:1;stroke:none"
     d="M 2.391,3.9978 C 1.066,3.9978 0,5.1128 0,6.4978 l 0,1 c 0,-1.385 1.067,-2.5 2.391,-2.5 l 17.217,0 c 1.325,0 2.391,1.115 2.391,2.5 l 0,-1 c 0,-1.385 -1.067,-2.5 -2.391,-2.5 l -17.217,0 z" />
  <path
     style="fill:#fff1ed;fill-opacity:1;stroke:none;opacity:0.6"
     d="M 5 4.9980469 L 1 8.9980469 L 3 8.9980469 L 3 17.998047 L 7 17.998047 L 7 8.9980469 L 9 8.9980469 L 5 4.9980469 z "
     id="rect21" />
  <path
     inkscape:connector-curvature="0"
     id="path25"
     style="fill:#f57c00;fill-opacity:1;stroke:none"
     d="m 2.391,10.9978 3.826,0 c 5.261,-0.361 4.304,-4 7.652,-4 l 5.739,0 c 1.325,0 2.391,0.805 2.391,1.806 l 0,9.389 c 0,1 -1.067,1.806 -2.391,1.806 l -17.217,0 C 1.066,19.9988 0,19.1938 0,18.1928 l 0,-5.055 c 0,-1.083 0.957,-2.139 2.391,-2.139 z" />
  <path
     inkscape:connector-curvature="0"
     id="path27"
     style="opacity:0.15;fill:#000000;fill-opacity:1;stroke:none"
     d="m 0,16.4978 0,1 c 0,1.385 1.067,2.5 2.391,2.5 l 17.217,0 c 1.325,0 2.391,-1.115 2.391,-2.5 l 0,-1 c 0,1.385 -1.067,2.5 -2.391,2.5 l -17.217,0 C 1.066,18.9978 0,17.8828 0,16.4978 Z" />
</svg>
