<svg xmlns="http://www.w3.org/2000/svg" viewBox="0 0 48 48">
 <defs>
  <linearGradient id="linearGradient3764" x1="1" x2="47" gradientUnits="userSpaceOnUse" gradientTransform="matrix(0,-1,1,0,-1.5e-6,47.999998)">
   <stop style="stop-color:#2986db;stop-opacity:1"/>
   <stop offset="1" style="stop-color:#3a90de;stop-opacity:1"/>
  </linearGradient>
  <clipPath id="clipPath-378271329">
   <g transform="translate(0,-1004.3622)">
    <path d="m -24 13 c 0 1.105 -0.672 2 -1.5 2 -0.828 0 -1.5 -0.895 -1.5 -2 0 -1.105 0.672 -2 1.5 -2 0.828 0 1.5 0.895 1.5 2 z" transform="matrix(15.333333,0,0,11.5,414.99999,878.8622)" style="fill:#1890d0"/>
   </g>
  </clipPath>
 </defs>
 <g>
  <path d="m 36.31 5 c 5.859 4.062 9.688 10.831 9.688 18.5 c 0 12.426 -10.07 22.5 -22.5 22.5 c -7.669 0 -14.438 -3.828 -18.5 -9.688 c 1.037 1.822 2.306 3.499 3.781 4.969 c 4.085 3.712 9.514 5.969 15.469 5.969 c 12.703 0 23 -10.298 23 -23 c 0 -5.954 -2.256 -11.384 -5.969 -15.469 c -1.469 -1.475 -3.147 -2.744 -4.969 -3.781 z m 4.969 3.781 c 3.854 4.113 6.219 9.637 6.219 15.719 c 0 12.703 -10.297 23 -23 23 c -6.081 0 -11.606 -2.364 -15.719 -6.219 c 4.16 4.144 9.883 6.719 16.219 6.719 c 12.703 0 23 -10.298 23 -23 c 0 -6.335 -2.575 -12.06 -6.719 -16.219 z" style="opacity:0.05"/>
  <path d="m 41.28 8.781 c 3.712 4.085 5.969 9.514 5.969 15.469 c 0 12.703 -10.297 23 -23 23 c -5.954 0 -11.384 -2.256 -15.469 -5.969 c 4.113 3.854 9.637 6.219 15.719 6.219 c 12.703 0 23 -10.298 23 -23 c 0 -6.081 -2.364 -11.606 -6.219 -15.719 z" style="opacity:0.1"/>
  <path d="m 31.25 2.375 c 8.615 3.154 14.75 11.417 14.75 21.13 c 0 12.426 -10.07 22.5 -22.5 22.5 c -9.708 0 -17.971 -6.135 -21.12 -14.75 a 23 23 0 0 0 44.875 -7 a 23 23 0 0 0 -16 -21.875 z" style="opacity:0.2"/>
 </g>
 <g>
  <path d="m 24 1 c 12.703 0 23 10.297 23 23 c 0 12.703 -10.297 23 -23 23 -12.703 0 -23 -10.297 -23 -23 0 -12.703 10.297 -23 23 -23 z" style="fill:url(#linearGradient3764);fill-opacity:1"/>
 </g>
 <g>
  <path d="m 40.03 7.531 c 3.712 4.084 5.969 9.514 5.969 15.469 0 12.703 -10.297 23 -23 23 c -5.954 0 -11.384 -2.256 -15.469 -5.969 4.178 4.291 10.01 6.969 16.469 6.969 c 12.703 0 23 -10.298 23 -23 0 -6.462 -2.677 -12.291 -6.969 -16.469 z" style="opacity:0.1"/>
 </g>
 <g>
  <g style="clip-path:url(#clipPath-378271329)">
   <g transform="translate(1,1)">
    <g style="opacity:0.1">
     <!-- color: #ce6137 -->
     <g>
      <path d="m 18.273 15 c -0.775 0 -1.077 0.419 -1.195 1 l -3.078 0 l 0 4 -2 0 2 14 22 0 2 -14 -2 0 0 -4 -12.08 0 c -0.118 -0.581 -0.418 -1 -1.193 -1 l -4.453 0 z" transform="translate(-1,-1)"/>
     </g>
    </g>
   </g>
  </g>
 </g>
 <g>
  <path d="m 13 15 22 0 0 9 -22 0 m 0 -9" style="fill:#ea8e36;fill-opacity:1;stroke:none;fill-rule:nonzero"/>
  <path d="M 16,16.25 C 16,15.125 16,14 17.273,14 l 4.453,0 c 1.273,0 1.273,1.125 1.273,2.25 m -7,0" style="fill:#ea8e36;fill-opacity:1;stroke:none;fill-rule:nonzero"/>
  <path d="m 15 16 17 0 0 12 -17 0 m 0 -12" style="fill:#d6d6d6;fill-opacity:1;stroke:none;fill-rule:nonzero"/>
  <path d="m 16 17 18 0 0 4 -18 0 m 0 -4" style="fill:#95959c;fill-opacity:1;stroke:none;fill-rule:nonzero"/>
  <path d="m 17 18 16 0 0 12 -16 0 m 0 -12" style="fill:#f9f9f9;fill-opacity:1;stroke:none;fill-rule:nonzero"/>
  <path d="m 11,19 26,0 -2,14 -22,0 M 11,19" style="fill:#f2b962;fill-opacity:1;stroke:none;fill-rule:nonzero"/>
  <path d="m 27.19,19.961 c -0.047,0 -0.078,0.012 -0.102,0.051 -0.125,0.219 0.121,0.93 -0.066,1.301 -0.184,0.371 -0.184,0.465 -1.668,0.281 -1.484,-0.184 -3.711,0.465 -4.512,1.266 -0.813,0.805 -2.195,2.844 -2.48,4.02 -0.273,1.176 -0.148,1.238 0.223,1.055 0.367,-0.188 0.68,-1.828 2.867,-2.906 2.199,-1.082 3.223,-0.219 3.223,-0.219 0,0 -1.891,-0.25 -3.277,0.895 -1.391,1.148 -2.258,2.039 -2.227,2.391 0.031,0.34 0.152,0.27 0.375,0 0.215,-0.281 1.512,-1.98 3.059,-2.539 1.547,-0.563 2.195,-0.523 2.781,-0.215 0.59,0.309 0.715,0.609 -0.117,0.824 -0.84,0.223 -1.18,0.125 -1.18,0.125 0,0 0.711,0.648 1.727,0.648 1.023,0 1.645,-0.063 1.645,-0.063 0,0 2.531,2.629 3.184,3.156 0.645,0.523 1.363,0.277 1.363,-0.035 0,-0.309 -0.313,-1.176 -0.313,-1.176 0,0 0.648,-1.457 -0.098,-3.094 -0.742,-1.641 -2.781,-3.336 -2.781,-3.336 0,0 -0.215,-0.93 -0.676,-1.547 -0.375,-0.5 -0.754,-0.879 -0.949,-0.887 M 16.66,27.449 c -0.09,0.004 -0.184,0.027 -0.27,0.078 -0.711,0.402 -0.34,1.117 0.281,1.117 0.617,0 1.297,-0.25 1.297,-0.25 0,0 -0.664,-0.969 -1.309,-0.941 m 1.367,1.191 c 0,0 -1.387,0.211 -1.543,0.863 -0.156,0.648 0.582,0.836 1.047,0.496 0.465,-0.34 0.496,-1.359 0.496,-1.359 m 0,0" style="fill:#000;fill-opacity:0.251;stroke:none;fill-rule:nonzero"/>
 </g>
</svg>
