<svg version="1.1" viewBox="0 0 48 48" xmlns="http://www.w3.org/2000/svg" xmlns:xlink="http://www.w3.org/1999/xlink">
 <defs>
  <linearGradient id="linearGradient4180" x1="1" x2="47" y1="-1.9073e-6" y2="-1.9073e-6" gradientTransform="translate(-48 1.9073e-6)" gradientUnits="userSpaceOnUse">
   <stop style="stop-color:#77a4ff" offset="0"/>
   <stop style="stop-color:#8bb1ff" offset="1"/>
  </linearGradient>
 </defs>
 <path d="m36.31 5c5.859 4.062 9.688 10.831 9.688 18.5 0 12.426-10.07 22.5-22.5 22.5-7.669 0-14.438-3.828-18.5-9.688 1.037 1.822 2.306 3.499 3.781 4.969 4.085 3.712 9.514 5.969 15.469 5.969 12.703 0 23-10.298 23-23 0-5.954-2.256-11.384-5.969-15.469-1.469-1.475-3.147-2.744-4.969-3.781zm4.969 3.781c3.854 4.113 6.219 9.637 6.219 15.719 0 12.703-10.297 23-23 23-6.081 0-11.606-2.364-15.719-6.219 4.16 4.144 9.883 6.719 16.219 6.719 12.703 0 23-10.298 23-23 0-6.335-2.575-12.06-6.719-16.219z" style="opacity:.05"/>
 <path d="m41.28 8.781c3.712 4.085 5.969 9.514 5.969 15.469 0 12.703-10.297 23-23 23-5.954 0-11.384-2.256-15.469-5.969 4.113 3.854 9.637 6.219 15.719 6.219 12.703 0 23-10.298 23-23 0-6.081-2.364-11.606-6.219-15.719z" style="opacity:.1"/>
 <path d="m31.25 2.375c8.615 3.154 14.75 11.417 14.75 21.13 0 12.426-10.07 22.5-22.5 22.5-9.708 0-17.971-6.135-21.12-14.75a23 23 0 0 0 44.875-7 23 23 0 0 0-16-21.875z" style="opacity:.2"/>
 <ellipse transform="rotate(-90)" cx="-24" cy="24" rx="23" ry="23" style="fill:url(#linearGradient4180)"/>
 <path d="m40.03 7.531c3.712 4.084 5.969 9.514 5.969 15.469 0 12.703-10.297 23-23 23-5.954 0-11.384-2.256-15.469-5.969 4.178 4.291 10.01 6.969 16.469 6.969 12.703 0 23-10.298 23-23 0-6.462-2.677-12.291-6.969-16.469z" style="opacity:.1"/>
 <g clip-path="url(#clipPath-428684738)">
  <g transform="translate(1,1)">
   <g style="opacity:.1">
    <path transform="translate(-1,-1)" d="m12 20 2 14h11v1.832c0 0.64652 0.52145 1.168 1.168 1.168h11.664c0.64652 0 1.168-0.52145 1.168-1.168v-7.6641c0-0.64652-0.52145-1.168-1.168-1.168h-0.83203l1-7h-2v-4h-12.08z"/>
   </g>
  </g>
 </g>
 <path d="m17.273 14c-0.77549 0-1.0769 0.41934-1.1953 1h-3.0781v9h22v-9h-12.08c-0.11817-0.5814-0.41702-1-1.1934-1z" style="fill:#ea8e36"/>
 <path d="m15 16v12h17v-12z" style="fill:#d6d6d7"/>
 <path d="m16 17v4h18v-4z" style="fill:#95959c"/>
 <path d="m17 18v12h16v-12z" style="fill:#f9f9f9"/>
 <path d="m11 19 2 14h22l2-14z" style="fill:#f2b962"/>
 <path d="m32 22a5 5 0 0 0-5 5 5 5 0 0 0 5 5 5 5 0 0 0 3.3242-1.2734l0.91016-6.373a5 5 0 0 0-4.2344-2.3535zm0 1a3.5 3.5 0 0 1 3.5 3.5 3.5 3.5 0 0 1-3.5 3.5 3.5 3.5 0 0 1-3.5-3.5 3.5 3.5 0 0 1 3.5-3.5z" style="opacity:.1"/>
 <path d="m31 21a5 5 0 0 0-5 5 5 5 0 0 0 5 5 5 5 0 0 0 5-5 5 5 0 0 0-5-5zm0 1a3.5 3.5 0 0 1 3.5 3.5 3.5 3.5 0 0 1-3.5 3.5 3.5 3.5 0 0 1-3.5-3.5 3.5 3.5 0 0 1 3.5-3.5" style="fill:#b3b3b3"/>
 <rect x="24" y="26" width="14" height="10" rx="1.167" style="fill:#b3b3b3"/>
 <circle cx="31" cy="31" r="4" style="fill:#808080"/>
 <rect x="30" y="31" width="2" height="3" style="fill:#333"/>
 <circle cx="31" cy="30" r="2" style="fill:#333"/>
</svg>
