<svg version="1.1" viewBox="0 0 48 48" xmlns="http://www.w3.org/2000/svg">
 <defs>
  <linearGradient id="linearGradient3886" x1="1" x2="47" gradientUnits="userSpaceOnUse">
   <stop style="stop-color:#bc4b00" offset="0"/>
   <stop style="stop-color:#d05300" offset="1"/>
  </linearGradient>
 </defs>
 <path d="m36.31 5c5.859 4.062 9.688 10.831 9.688 18.5 0 12.426-10.07 22.5-22.5 22.5-7.669 0-14.438-3.828-18.5-9.688 1.037 1.822 2.306 3.499 3.781 4.969 4.085 3.712 9.514 5.969 15.469 5.969 12.703 0 23-10.298 23-23 0-5.954-2.256-11.384-5.969-15.469-1.469-1.475-3.147-2.744-4.969-3.781zm4.969 3.781c3.854 4.113 6.219 9.637 6.219 15.719 0 12.703-10.297 23-23 23-6.081 0-11.606-2.364-15.719-6.219 4.16 4.144 9.883 6.719 16.219 6.719 12.703 0 23-10.298 23-23 0-6.335-2.575-12.06-6.719-16.219z" style="opacity:.05"/>
 <path d="m41.28 8.781c3.712 4.085 5.969 9.514 5.969 15.469 0 12.703-10.297 23-23 23-5.954 0-11.384-2.256-15.469-5.969 4.113 3.854 9.637 6.219 15.719 6.219 12.703 0 23-10.298 23-23 0-6.081-2.364-11.606-6.219-15.719z" style="opacity:.1"/>
 <path d="m31.25 2.375c8.615 3.154 14.75 11.417 14.75 21.13 0 12.426-10.07 22.5-22.5 22.5-9.708 0-17.971-6.135-21.12-14.75a23 23 0 0 0 44.875-7 23 23 0 0 0-16-21.875z" style="opacity:.2"/>
 <g transform="matrix(0,-1,1,0,0,48)" style="fill:url(#linearGradient3886)">
  <path d="m24 1c12.703 0 23 10.297 23 23s-10.297 23-23 23-23-10.297-23-23 10.297-23 23-23z"/>
 </g>
 <path d="m40.03 7.531c3.712 4.084 5.969 9.514 5.969 15.469 0 12.703-10.297 23-23 23-5.954 0-11.384-2.256-15.469-5.969 4.178 4.291 10.01 6.969 16.469 6.969 12.703 0 23-10.298 23-23 0-6.462-2.677-12.291-6.969-16.469z" style="opacity:.1"/>
 <g transform="translate(1,1)" style="opacity:.1">
  <path transform="translate(-1,-1)" d="m18.273 15c-0.775 0-1.077 0.419-1.195 1h-3.078v4h-2l2 14h22l2-14h-2v-4h-12.08c-0.118-0.581-0.417-1-1.193-1h-4.453z"/>
 </g>
 <path d="m13 15h22v9h-22" style="fill:#ea8e36"/>
 <path d="m16 16.25c0-1.125 0-2.25 1.273-2.25h4.453c1.273 0 1.273 1.121 1.273 2.25" style="fill:#ea8e36"/>
 <path d="m15 16h17v12h-17" style="fill:#d6d6d7"/>
 <path d="m16 17h18v4h-18" style="fill:#95959c"/>
 <path d="m17 18h16v12h-16" style="fill:#f9f9f9"/>
 <path d="m11 19h26l-2 14h-22" style="fill:#f2b962"/>
 <path d="m27.75 20c-1.238 0-2.25 1.01-2.25 2.25 0 0.093 0.019 0.191 0.031 0.281l-3.719 1.844c-0.41-0.395-0.953-0.625-1.563-0.625-1.234 0-2.25 1.01-2.25 2.25 0 1.238 1.012 2.25 2.25 2.25 0.613 0 1.157-0.23 1.563-0.625l3.719 1.844c-0.011 0.09-0.031 0.187-0.031 0.281 0 1.238 1.01 2.25 2.25 2.25 1.238 0 2.25-1.01 2.25-2.25 0-1.238-1.01-2.25-2.25-2.25-0.606 0-1.157 0.234-1.563 0.625l-3.719-1.844c3e-3 -0.09 0.031-0.187 0.031-0.281 0-0.093-0.019-0.191-0.031-0.281l3.719-1.844c0.407 0.391 0.957 0.625 1.563 0.625 1.238 0 2.25-1.01 2.25-2.25 0-1.238-1.01-2.25-2.25-2.25" style="fill-opacity:.329"/>
</svg>
