<svg xmlns="http://www.w3.org/2000/svg" viewBox="0 0 256 256">
 <g transform="translate(0,-796.3622)">
  <g transform="translate(-10,53.000017)" style="opacity:0.6">
   <path d="m 44 862.36 94 0 c 4 0 6 2 6 5.998 l 0 13.996 c 0 2.215 -1.895 1.999 -4 1.999 l -96 0 c -2.105 0 -4 -1.784 -4 -3.999 l 0 -17.995 z" style="fill:#ec407a;fill-opacity:1;stroke:none"/>
   <path d="m 40 870.36 0 -10 c 0 -4 1.818 -6 3.636 -6 l 20.727 0 c 1.818 0 3.636 2 3.636 6 l 0 10 z" style="fill:#ec407a;fill-opacity:1;stroke:none"/>
   <rect width="120" height="80" x="32" y="878.36" rx="8" ry="6.667" style="fill:#ec407a;fill-opacity:1;stroke:none"/>
  </g>
  <path d="m 126 845.36 94 0 c 4 0 6 2 6 5.998 l 0 13.996 c 0 2.215 -1.895 1.999 -4 1.999 l -96 0 c -2.105 0 -4 -1.784 -4 -3.999 l 0 -17.995 z" style="fill:#ec407a;fill-opacity:1;stroke:none"/>
  <path d="m 122 857.36 0 10 104 0 0 -10 z" style="fill:#000;opacity:0.03;fill-opacity:1;stroke:none"/>
  <path d="m 122 853.36 0 -10 c 0 -4 1.818 -6 3.636 -6 l 20.727 0 c 1.818 0 3.636 2 3.636 6 l 0 10 z" style="fill:#ec407a;fill-opacity:1;stroke:none"/>
  <rect width="120" height="80" x="114" y="861.36" rx="8" ry="6.667" style="fill:#f06292;fill-opacity:1;stroke:none"/>
  <path d="m 122 861.36 c -4.432 0 -8 2.994 -8 6.688 l 0 4 c 0 -3.693 3.568 -6.688 8 -6.688 l 104 0 c 4.432 0 8 2.994 8 6.688 l 0 -4 c 0 -3.693 -3.568 -6.688 -8 -6.688 l -104 0 z" style="fill:#fff;opacity:0.1;fill-opacity:1;stroke:none"/>
  <path d="m 150 845.36 0 4 4 0 66 0 c 4 0 6 2 6 6 l 0 -4 c 0 -3.999 -2 -6 -6 -6 l -66 0 z" style="fill:#000;opacity:0.05;fill-opacity:1;stroke:none"/>
  <path d="m 125.63 837.36 c -1.818 0 -3.625 2 -3.625 6 l 0 4 c 0 -4 1.807 -6 3.625 -6 l 20.75 0 c 1.818 0 3.625 2 3.625 6 l 0 -4 c 0 -4 -1.807 -6 -3.625 -6 l -20.75 0 z" style="fill:#000;opacity:0.05;fill-opacity:1;stroke:none"/>
  <path d="m 252 929.36 -53 0 0 -53 -54 0 0 53 -53 0 0 54 53 0 0 53 54 0 0 -53 53 0 z" style="fill:#859900"/>
 </g>
</svg>
