
<svg xmlns="http://www.w3.org/2000/svg" xmlns:xlink="http://www.w3.org/1999/xlink" width="64px" height="64px" viewBox="0 0 64 64" version="1.1">
<g id="surface1">
<path style=" stroke:none;fill-rule:nonzero;fill:rgb(91.764706%,56.470588%,21.176471%);fill-opacity:1;" d="M 6 14 L 58 14 L 58 34 L 6 34 Z M 6 14 "/>
<path style=" stroke:none;fill-rule:nonzero;fill:rgb(91.764706%,56.470588%,21.176471%);fill-opacity:1;" d="M 12 14 C 12 12 12 10 14.910156 10 L 25.089844 10 C 28 10 28 12 28 14 Z M 12 14 "/>
<path style=" stroke:none;fill-rule:nonzero;fill:rgb(58.431373%,59.607843%,62.352941%);fill-opacity:1;" d="M 10 18 L 54 18 L 54 27.933594 L 10 27.933594 Z M 10 18 "/>
<path style=" stroke:none;fill-rule:nonzero;fill:rgb(84.705882%,84.705882%,85.490196%);fill-opacity:1;" d="M 14 16 L 52 16 L 52 42 L 14 42 Z M 14 16 "/>
<path style=" stroke:none;fill-rule:nonzero;fill:rgb(97.647059%,97.647059%,97.647059%);fill-opacity:1;" d="M 12 20 L 50 20 L 50 46 L 12 46 Z M 12 20 "/>
<path style=" stroke:none;fill-rule:nonzero;fill:rgb(94.901961%,73.333333%,39.215686%);fill-opacity:1;" d="M 4 22 L 60 22 L 56 54 L 8 54 Z M 4 22 "/>
<path style=" stroke:none;fill-rule:nonzero;fill:rgb(0%,0%,0%);fill-opacity:0.25098;" d="M 34.753906 30 C 32.753906 30 31.09375 31.515625 31.09375 33.410156 C 31.105469 34.066406 31.144531 34.890625 31.527344 36.632812 L 31.566406 36.632812 C 31.644531 36.859375 31.765625 37.089844 31.964844 37.339844 C 32.140625 37.558594 32.375 37.808594 32.589844 38.042969 C 32.65625 38.535156 32.664062 38.964844 32.589844 39.492188 C 31.992188 39.941406 30.921875 40.359375 29.957031 40.75 C 29.445312 40.949219 28.980469 41.132812 28.613281 41.375 C 28.265625 41.601562 28.007812 41.917969 27.984375 42.316406 C 27.984375 42.339844 27.949219 42.339844 27.949219 42.351562 L 27.511719 45.691406 L 27.511719 45.726562 C 27.511719 46.140625 27.785156 46.476562 28.183594 46.75 C 28.574219 47.015625 29.105469 47.226562 29.757812 47.410156 C 31.054688 47.785156 32.8125 48 34.753906 48 C 36.699219 48 38.457031 47.785156 39.757812 47.410156 C 40.40625 47.226562 40.9375 47.015625 41.328125 46.75 C 41.71875 46.476562 42 46.140625 42 45.726562 L 42 45.691406 L 41.527344 42.351562 C 41.527344 42.34375 41.527344 42.332031 41.527344 42.316406 C 41.511719 42.125 41.445312 41.941406 41.328125 41.808594 C 41.203125 41.660156 41.039062 41.566406 40.855469 41.457031 C 40.488281 41.226562 40.023438 41.03125 39.519531 40.824219 C 38.539062 40.425781 37.46875 39.96875 36.878906 39.492188 C 36.832031 39.035156 36.832031 38.574219 36.878906 38.117188 C 37.09375 37.867188 37.328125 37.617188 37.511719 37.375 C 37.710938 37.109375 37.867188 36.867188 37.941406 36.632812 C 38.375 34.816406 38.390625 34.082031 38.414062 33.410156 C 38.414062 31.515625 36.761719 30 34.753906 30 Z M 27.949219 30.632812 C 26.296875 30.632812 24.953125 31.898438 24.953125 33.457031 C 24.964844 33.984375 24.996094 34.609375 25.304688 36.042969 L 25.304688 36.082031 C 25.371094 36.273438 25.5 36.425781 25.660156 36.632812 C 25.808594 36.808594 26 37.03125 26.175781 37.21875 C 26.230469 37.609375 26.234375 38.007812 26.175781 38.433594 C 25.691406 38.808594 24.804688 39.140625 24.007812 39.457031 C 23.59375 39.617188 23.246094 39.765625 22.945312 39.964844 C 22.664062 40.148438 22.457031 40.425781 22.433594 40.75 C 22.433594 40.765625 22.398438 40.765625 22.398438 40.785156 L 22 43.492188 L 22 43.53125 C 22 43.785156 22.125 44.007812 22.316406 44.199219 C 22.507812 44.390625 22.773438 44.566406 23.105469 44.707031 C 23.75 44.984375 24.671875 45.183594 25.777344 45.292969 L 25.824219 45.292969 C 25.882812 45.292969 25.941406 45.28125 25.976562 45.257812 C 26.023438 45.226562 26.074219 45.207031 26.097656 45.175781 C 26.132812 45.125 26.15625 45.074219 26.175781 45.023438 C 26.207031 44.933594 26.207031 44.839844 26.214844 44.75 C 26.214844 44.734375 26.214844 44.71875 26.214844 44.707031 L 26.648438 41.375 C 26.648438 41.234375 26.738281 41.074219 26.960938 40.90625 C 27.179688 40.734375 27.519531 40.566406 27.902344 40.398438 C 28.6875 40.058594 29.675781 39.742188 30.464844 39.339844 L 30.898438 39.101562 L 30.464844 38.90625 C 30.15625 38.75 29.910156 38.589844 29.71875 38.433594 C 29.675781 38.042969 29.675781 37.640625 29.71875 37.257812 C 29.71875 37.242188 29.710938 37.226562 29.71875 37.21875 C 30.015625 36.816406 30.242188 36.398438 30.347656 36.160156 L 30.382812 36.082031 L 30.347656 36 C 30.308594 35.808594 30.324219 35.660156 30.265625 35.492188 C 29.890625 33.773438 29.851562 33.066406 29.835938 32.433594 C 29.835938 32.167969 29.898438 31.859375 29.992188 31.574219 L 30.074219 31.410156 L 29.910156 31.339844 C 29.386719 30.917969 28.695312 30.632812 27.949219 30.632812 Z M 27.949219 30.632812 "/>
</g>
</svg>
