
<svg xmlns="http://www.w3.org/2000/svg" xmlns:xlink="http://www.w3.org/1999/xlink" width="64px" height="64px" viewBox="0 0 64 64" version="1.1">
<g id="surface1">
<path style=" stroke:none;fill-rule:nonzero;fill:rgb(91.764706%,56.470588%,21.176471%);fill-opacity:1;" d="M 6 14 L 58 14 L 58 34 L 6 34 Z M 6 14 "/>
<path style=" stroke:none;fill-rule:nonzero;fill:rgb(91.764706%,56.470588%,21.176471%);fill-opacity:1;" d="M 12 14 C 12 12 12 10 14.910156 10 L 25.089844 10 C 28 10 28 12 28 14 Z M 12 14 "/>
<path style=" stroke:none;fill-rule:nonzero;fill:rgb(58.431373%,59.607843%,62.352941%);fill-opacity:1;" d="M 10 18 L 54 18 L 54 27.933594 L 10 27.933594 Z M 10 18 "/>
<path style=" stroke:none;fill-rule:nonzero;fill:rgb(84.705882%,84.705882%,85.490196%);fill-opacity:1;" d="M 14 16 L 52 16 L 52 42 L 14 42 Z M 14 16 "/>
<path style=" stroke:none;fill-rule:nonzero;fill:rgb(97.647059%,97.647059%,97.647059%);fill-opacity:1;" d="M 12 20 L 50 20 L 50 46 L 12 46 Z M 12 20 "/>
<path style=" stroke:none;fill-rule:nonzero;fill:rgb(94.901961%,73.333333%,39.215686%);fill-opacity:1;" d="M 4 22 L 60 22 L 56 54 L 8 54 Z M 4 22 "/>
<path style=" stroke:none;fill-rule:nonzero;fill:rgb(0%,0%,0%);fill-opacity:0.25098;" d="M 33.601562 28.226562 C 32.046875 28.59375 30.742188 29.933594 30.742188 29.933594 L 30.789062 29.96875 L 33.273438 38.640625 C 31.492188 37.730469 28.953125 37.957031 26.851562 39.386719 C 24.132812 41.226562 23.1875 44.359375 24.757812 46.378906 C 26.335938 48.410156 29.804688 48.546875 32.523438 46.710938 C 34.664062 45.253906 35.859375 42.96875 35.429688 41.09375 C 35.414062 41.035156 35.390625 40.976562 35.375 40.917969 L 32.992188 32.253906 C 33.046875 32.179688 33.742188 31.882812 36 31.734375 C 38.382812 31.589844 40 28 40 28 C 40 28 37.3125 28.964844 35.203125 28.269531 C 34.671875 28.09375 34.117188 28.101562 33.601562 28.226562 Z M 33.601562 28.226562 "/>
</g>
</svg>
