
<svg xmlns="http://www.w3.org/2000/svg" xmlns:xlink="http://www.w3.org/1999/xlink" width="64px" height="64px" viewBox="0 0 64 64" version="1.1">
<g id="surface1">
<path style=" stroke:none;fill-rule:nonzero;fill:rgb(91.764706%,56.470588%,21.176471%);fill-opacity:1;" d="M 6 14 L 58 14 L 58 34 L 6 34 Z M 6 14 "/>
<path style=" stroke:none;fill-rule:nonzero;fill:rgb(91.764706%,56.470588%,21.176471%);fill-opacity:1;" d="M 12 14 C 12 12 12 10 14.910156 10 L 25.089844 10 C 28 10 28 12 28 14 Z M 12 14 "/>
<path style=" stroke:none;fill-rule:nonzero;fill:rgb(58.431373%,59.607843%,62.352941%);fill-opacity:1;" d="M 10 18 L 54 18 L 54 27.933594 L 10 27.933594 Z M 10 18 "/>
<path style=" stroke:none;fill-rule:nonzero;fill:rgb(84.705882%,84.705882%,85.490196%);fill-opacity:1;" d="M 14 16 L 52 16 L 52 42 L 14 42 Z M 14 16 "/>
<path style=" stroke:none;fill-rule:nonzero;fill:rgb(97.647059%,97.647059%,97.647059%);fill-opacity:1;" d="M 12 20 L 50 20 L 50 46 L 12 46 Z M 12 20 "/>
<path style=" stroke:none;fill-rule:nonzero;fill:rgb(94.901961%,73.333333%,39.215686%);fill-opacity:1;" d="M 4 22 L 60 22 L 56 54 L 8 54 Z M 4 22 "/>
<path style=" stroke:none;fill-rule:nonzero;fill:rgb(0%,0%,0%);fill-opacity:0.25098;" d="M 23.375 28 C 22.671875 28.066406 22.046875 28.832031 22.0625 29.625 L 22.0625 46.4375 C 22.070312 47.265625 22.765625 48.015625 23.5 48 L 40.625 48 C 41.351562 47.992188 41.992188 47.25 42 46.4375 L 42 29.625 C 42.015625 28.796875 41.363281 28.007812 40.625 28 Z M 24 30 L 40 30 L 40 41.8125 C 39.722656 41.484375 39.5625 41.316406 39.25 40.9375 C 38.144531 39.605469 36.84375 37.980469 35.3125 36.0625 C 35.011719 36.363281 34.625 36.78125 34.125 37.25 C 33.625 37.710938 33.070312 38.253906 32.375 38.875 C 32.285156 38.96875 31.902344 38.570312 31.25 37.75 C 30.574219 36.921875 29.667969 35.679688 28.4375 33.9375 C 26.5625 35.894531 25.148438 37.351562 24.0625 38.4375 C 24.027344 38.472656 24.035156 38.46875 24 38.5 Z M 24 30 "/>
</g>
</svg>
