
<svg xmlns="http://www.w3.org/2000/svg" xmlns:xlink="http://www.w3.org/1999/xlink" width="64px" height="64px" viewBox="0 0 64 64" version="1.1">
<g id="surface1">
<path style=" stroke:none;fill-rule:nonzero;fill:rgb(91.764706%,56.470588%,21.176471%);fill-opacity:1;" d="M 6 14 L 58 14 L 58 34 L 6 34 Z M 6 14 "/>
<path style=" stroke:none;fill-rule:nonzero;fill:rgb(91.764706%,56.470588%,21.176471%);fill-opacity:1;" d="M 12 14 C 12 12 12 10 14.910156 10 L 25.089844 10 C 28 10 28 12 28 14 Z M 12 14 "/>
<path style=" stroke:none;fill-rule:nonzero;fill:rgb(58.431373%,59.607843%,62.352941%);fill-opacity:1;" d="M 10 18 L 54 18 L 54 27.933594 L 10 27.933594 Z M 10 18 "/>
<path style=" stroke:none;fill-rule:nonzero;fill:rgb(84.705882%,84.705882%,85.490196%);fill-opacity:1;" d="M 14 16 L 52 16 L 52 42 L 14 42 Z M 14 16 "/>
<path style=" stroke:none;fill-rule:nonzero;fill:rgb(97.647059%,97.647059%,97.647059%);fill-opacity:1;" d="M 12 20 L 50 20 L 50 46 L 12 46 Z M 12 20 "/>
<path style=" stroke:none;fill-rule:nonzero;fill:rgb(94.901961%,73.333333%,39.215686%);fill-opacity:1;" d="M 4 22 L 60 22 L 56 54 L 8 54 Z M 4 22 "/>
<path style=" stroke:none;fill-rule:evenodd;fill:rgb(0%,0%,0%);fill-opacity:0.25098;" d="M 21.335938 30 L 21.335938 32.664062 L 22.664062 32.664062 L 22.664062 30.664062 C 22.664062 29.992188 23.335938 29.992188 23.335938 29.992188 L 25.335938 30 L 25.335938 28.664062 L 22.664062 28.664062 C 22.664062 28.664062 21.335938 28.664062 21.335938 30 Z M 38.664062 28.664062 L 38.664062 30 L 40.664062 30 C 40.664062 30 41.335938 29.992188 41.335938 30.664062 L 41.335938 32.664062 L 42.664062 32.664062 L 42.664062 30 C 42.664062 28.664062 41.335938 28.664062 41.335938 28.664062 Z M 21.335938 43.335938 L 21.335938 46 C 21.335938 47.335938 22.664062 47.335938 22.664062 47.335938 L 25.335938 47.335938 L 25.335938 46 L 23.335938 46.007812 C 22.664062 46 22.664062 45.34375 22.664062 45.34375 L 22.664062 43.335938 Z M 41.335938 43.335938 L 41.335938 45.335938 C 41.335938 45.992188 40.664062 46 40.664062 46 L 38.664062 46 L 38.664062 47.335938 L 41.335938 47.335938 C 41.335938 47.335938 42.664062 47.335938 42.664062 46 L 42.664062 43.335938 Z M 41.335938 43.335938 "/>
<path style=" stroke:none;fill-rule:nonzero;fill:rgb(0%,0%,0%);fill-opacity:0.25098;" d="M 25.335938 33.992188 L 25.335938 39.328125 C 25.335938 40.65625 26.664062 40.65625 26.664062 40.65625 L 30.664062 40.65625 C 32 40.65625 32 39.328125 32 39.328125 L 32 35.328125 L 29.335938 32.65625 L 26.664062 32.65625 C 26.664062 32.65625 25.335938 32.65625 25.335938 33.992188 Z M 26.664062 33.992188 L 29.335938 33.992188 L 29.335938 35.328125 L 30.664062 35.328125 L 30.664062 39.328125 L 26.664062 39.328125 Z M 26.664062 33.992188 "/>
</g>
</svg>
