<?xml version="1.0" encoding="UTF-8" standalone="no"?>
<!-- Created with Inkscape (http://www.inkscape.org/) -->

<svg
   xmlns:dc="http://purl.org/dc/elements/1.1/"
   xmlns:cc="http://creativecommons.org/ns#"
   xmlns:rdf="http://www.w3.org/1999/02/22-rdf-syntax-ns#"
   xmlns:svg="http://www.w3.org/2000/svg"
   xmlns="http://www.w3.org/2000/svg"
   xmlns:sodipodi="http://sodipodi.sourceforge.net/DTD/sodipodi-0.dtd"
   xmlns:inkscape="http://www.inkscape.org/namespaces/inkscape"
   width="48"
   height="48"
   id="svg2"
   version="1.1"
   inkscape:version="0.91 r"
   sodipodi:docname="purple-folder-wine.svg">
  <defs
     id="defs4" />
  <sodipodi:namedview
     id="base"
     pagecolor="#ffffff"
     bordercolor="#666666"
     borderopacity="1.0"
     inkscape:pageopacity="0.0"
     inkscape:pageshadow="2"
     inkscape:zoom="17.627784"
     inkscape:cx="16.697526"
     inkscape:cy="12.753703"
     inkscape:document-units="px"
     inkscape:current-layer="layer1"
     showgrid="true"
     inkscape:window-width="1280"
     inkscape:window-height="998"
     inkscape:window-x="0"
     inkscape:window-y="0"
     inkscape:window-maximized="1">
    <inkscape:grid
       type="xygrid"
       id="grid2990"
       empspacing="5"
       visible="true"
       enabled="true"
       snapvisiblegridlinesonly="true" />
  </sodipodi:namedview>
  <metadata
     id="metadata7">
    <rdf:RDF>
      <cc:Work
         rdf:about="">
        <dc:format>image/svg+xml</dc:format>
        <dc:type
           rdf:resource="http://purl.org/dc/dcmitype/StillImage" />
        <dc:title />
      </cc:Work>
    </rdf:RDF>
  </metadata>
  <g
     inkscape:label="Body"
     inkscape:groupmode="layer"
     id="layer1"
     transform="translate(0,-1004.3622)">
    <path
       style="font-size:medium;font-style:normal;font-variant:normal;font-weight:normal;font-stretch:normal;text-indent:0;text-align:start;text-decoration:none;line-height:normal;letter-spacing:normal;word-spacing:normal;text-transform:none;direction:ltr;block-progression:tb;writing-mode:lr-tb;text-anchor:start;baseline-shift:baseline;color:#000000;fill:#7e57c2;fill-opacity:1;fill-rule:nonzero;stroke:none;stroke-width:3.00000024;marker:none;visibility:visible;display:inline;overflow:visible;enable-background:accumulate;font-family:Sans;-inkscape-font-specification:Sans"
       d="M 5.1875,8 C 4.5111319,8.1439 3.9849192,8.8086 4,9.5 l 0,28 c 7.86e-5,0.7853 0.7146233,1.4999 1.5,1.5 l 37,0 c 0.785377,-1e-4 1.499921,-0.7147 1.5,-1.5 l 0,-24.96875 c -7.9e-5,-0.7854 -0.714623,-1.4999 -1.5,-1.5 l -14.5,0 L 28,9.5 C 27.999921,8.7146 27.285377,8 26.5,8 L 5.5,8 C 5.3962117,7.989 5.2912883,7.989 5.1875,8 z m 25.09375,7.93775 c 0.146487,-0.002 0.295517,-0.0038 0.4375,0.03125 0.0041,0.01 0.02715,-0.01 0.03125,0 0.908575,0.8466 1.631964,1.8715 2.15625,3 0.0057,0.013 -0.0056,0.0505 0,0.0625 0.129758,0.3737 0.272224,0.7737 0.40625,1.25 0.07477,0.2657 0.179412,0.55155 0.28125,0.84375 0.111995,0.5781 0.1875,1.17155 0.1875,1.78125 0,5.3083 -4.429163,11.09375 -9.90625,11.09375 -5.127013,0 -9.35671,-5.25755 -9.875,-10.09375 0.137988,-0.0648 2.867218,-3.27805 8.34375,-0.84375 6.651797,2.9567 9.598242,-0.02945 9.875,-1.28125 0.276757,-1.2517 -0.08047,-3.5625 -1.1875,-3.5625 -1.10703,0 -2.497005,0.52435 -2.3125,-0.90625 0.115315,-0.8941 0.830066,-1.363 1.5625,-1.375 z M 26.5,17.00025 c 0.276142,0 0.5,0.2238 0.5,0.5 0,0.2762 -0.223858,0.5 -0.5,0.5 -0.276142,0 -0.5,-0.2238 -0.5,-0.5 0,-0.2762 0.223858,-0.5 0.5,-0.5 z m 2.5,3 c 0.552285,0 1,0.4477 1,1 0,0.5523 -0.447715,1 -1,1 -0.552285,0 -1,-0.4477 -1,-1 0,-0.5523 0.447715,-1 1,-1 z"
       transform="translate(0,1004.3622)"
       id="path3912"
       inkscape:connector-curvature="0"
       sodipodi:nodetypes="ccccccccccscccccccscsscscsscssssssssss" />
  </g>
</svg>
