<?xml version="1.0" encoding="UTF-8" standalone="no"?>
<!-- Created with Inkscape (http://www.inkscape.org/) -->

<svg
   xmlns:dc="http://purl.org/dc/elements/1.1/"
   xmlns:cc="http://creativecommons.org/ns#"
   xmlns:rdf="http://www.w3.org/1999/02/22-rdf-syntax-ns#"
   xmlns:svg="http://www.w3.org/2000/svg"
   xmlns="http://www.w3.org/2000/svg"
   xmlns:sodipodi="http://sodipodi.sourceforge.net/DTD/sodipodi-0.dtd"
   xmlns:inkscape="http://www.inkscape.org/namespaces/inkscape"
   width="48"
   height="48"
   id="svg2"
   version="1.1"
   inkscape:version="0.91 r"
   sodipodi:docname="red-folder-publicshare.svg">
  <defs
     id="defs4" />
  <sodipodi:namedview
     id="base"
     pagecolor="#ffffff"
     bordercolor="#666666"
     borderopacity="1.0"
     inkscape:pageopacity="0.0"
     inkscape:pageshadow="2"
     inkscape:zoom="17.627784"
     inkscape:cx="24.024116"
     inkscape:cy="18.05019"
     inkscape:document-units="px"
     inkscape:current-layer="layer1"
     showgrid="true"
     inkscape:window-width="1280"
     inkscape:window-height="998"
     inkscape:window-x="0"
     inkscape:window-y="0"
     inkscape:window-maximized="1">
    <inkscape:grid
       type="xygrid"
       id="grid2990"
       empspacing="5"
       visible="true"
       enabled="true"
       snapvisiblegridlinesonly="true" />
  </sodipodi:namedview>
  <metadata
     id="metadata7">
    <rdf:RDF>
      <cc:Work
         rdf:about="">
        <dc:format>image/svg+xml</dc:format>
        <dc:type
           rdf:resource="http://purl.org/dc/dcmitype/StillImage" />
        <dc:title />
      </cc:Work>
    </rdf:RDF>
  </metadata>
  <g
     inkscape:label="Body"
     inkscape:groupmode="layer"
     id="layer1"
     transform="translate(0,-1004.3622)">
    <path
       style="font-size:medium;font-style:normal;font-variant:normal;font-weight:normal;font-stretch:normal;text-indent:0;text-align:start;text-decoration:none;line-height:normal;letter-spacing:normal;word-spacing:normal;text-transform:none;direction:ltr;block-progression:tb;writing-mode:lr-tb;text-anchor:start;baseline-shift:baseline;color:#000000;fill:#ef5350;fill-opacity:1;fill-rule:nonzero;stroke:none;stroke-width:3.00000024;marker:none;visibility:visible;display:inline;overflow:visible;enable-background:accumulate;font-family:Sans;-inkscape-font-specification:Sans"
       d="M 5.1875 8 C 4.511132 8.1439 3.984919 8.8086 4 9.5 L 4 37.5 C 4.000079 38.2853 4.714623 38.9999 5.5 39 L 42.5 39 C 43.285377 38.9999 43.999921 38.2853 44 37.5 L 44 12.53125 C 43.999921 11.74585 43.285377 11.03135 42.5 11.03125 L 28 11.03125 L 28 9.5 C 27.999921 8.7146 27.285377 8 26.5 8 L 5.5 8 C 5.396212 7.989 5.291288 7.989 5.1875 8 z M 26.125 18.65625 C 27.71744 18.65625 29.03125 19.8639 29.03125 21.375 C 29.013258 21.9036 28.998088 22.493 28.65625 23.9375 C 28.593225 24.1265 28.472283 24.31895 28.3125 24.53125 C 28.169008 24.72185 27.980284 24.9266 27.8125 25.125 C 27.77596 25.4873 27.77763 25.85625 27.8125 26.21875 C 28.277281 26.59845 29.128428 26.96085 29.90625 27.28125 C 30.306735 27.44625 30.677812 27.59955 30.96875 27.78125 C 31.114219 27.87205 31.24479 27.947 31.34375 28.0625 C 31.43644 28.1706 31.4907 28.31835 31.5 28.46875 C 31.500631 28.47875 31.499943 28.49 31.5 28.5 L 31.875 31.15625 L 31.875 31.1875 C 31.875 31.5167 31.655657 31.786 31.34375 32 C 31.031843 32.2141 30.608486 32.38185 30.09375 32.53125 C 29.064279 32.83005 27.667807 33 26.125 33 C 24.582194 33 23.185721 32.83005 22.15625 32.53125 C 21.641515 32.38185 21.218158 32.2141 20.90625 32 C 20.594343 31.786 20.375 31.5167 20.375 31.1875 L 20.375 31.15625 L 20.71875 28.5 C 20.71868 28.485 20.74906 28.48375 20.75 28.46875 C 20.769514 28.15395 20.971385 27.90305 21.25 27.71875 C 21.542035 27.52555 21.912151 27.37815 22.3125 27.21875 C 23.080711 26.91285 23.933398 26.57785 24.40625 26.21875 C 24.46746 25.79735 24.45925 25.4546 24.40625 25.0625 C 24.233765 24.8765 24.047061 24.676 23.90625 24.5 C 23.748924 24.3035 23.65492 24.121 23.59375 23.9375 L 23.5625 23.9375 C 23.25933 22.5503 23.23051 21.8935 23.21875 21.375 C 23.21875 19.8639 24.532562 18.65625 26.125 18.65625 z M 20.71875 19.15625 C 21.311519 19.15625 21.863941 19.38525 22.28125 19.71875 L 22.40625 19.78125 L 22.34375 19.90625 C 22.26822 20.13745 22.21875 20.38295 22.21875 20.59375 C 22.230128 21.09525 22.262948 21.66055 22.5625 23.03125 C 22.60685 23.16435 22.59787 23.2823 22.625 23.4375 L 22.65625 23.5 L 22.625 23.5625 C 22.544608 23.7524 22.363289 24.08535 22.125 24.40625 C 22.1239 24.41625 22.1261 24.4275 22.125 24.4375 C 22.09285 24.745 22.0947 25.0665 22.125 25.375 C 22.281103 25.4974 22.470775 25.6296 22.71875 25.75 L 23.0625 25.90625 L 22.71875 26.09375 C 22.091222 26.42005 21.306506 26.6692 20.6875 26.9375 C 20.377997 27.0716 20.112719 27.20785 19.9375 27.34375 C 19.76228 27.47955 19.687018 27.61005 19.6875 27.71875 L 19.34375 30.375 C 19.34375 30.385 19.344201 30.39625 19.34375 30.40625 C 19.34053 30.47585 19.33578 30.557 19.3125 30.625 C 19.29923 30.664 19.28081 30.707 19.25 30.75 C 19.2346 30.771 19.19242 30.7895 19.15625 30.8125 C 19.12704 30.8305 19.07925 30.84385 19.03125 30.84375 L 19 30.84375 C 18.116906 30.75265 17.387057 30.5978 16.875 30.375 C 16.615379 30.2621 16.402996 30.12185 16.25 29.96875 C 16.097 29.81565 16 29.6405 16 29.4375 L 16 29.40625 L 16.3125 27.25 C 16.31243 27.235 16.34265 27.23375 16.34375 27.21875 C 16.362859 26.96425 16.52381 26.74275 16.75 26.59375 C 16.989341 26.43605 17.2658 26.3171 17.59375 26.1875 C 18.226401 25.9374 18.926183 25.6714 19.3125 25.375 C 19.3599 25.038 19.35447 24.72045 19.3125 24.40625 C 19.173804 24.25645 19.020986 24.0804 18.90625 23.9375 C 18.775196 23.7741 18.67568 23.6521 18.625 23.5 L 18.625 23.46875 C 18.37623 22.33045 18.35335 21.83115 18.34375 21.40625 C 18.34375 20.16625 19.410778 19.15625 20.71875 19.15625 z "
       transform="translate(0,1004.3622)"
       id="path3912" />
  </g>
</svg>
