<svg xmlns="http://www.w3.org/2000/svg" viewBox="0 0 256 256">
 <path d="m 24.25 39.998 c -4.516 0.445 -8.32 4.711 -8.25 9.25 l 0 157.5 c -0.055 4.859 4.391 9.305 9.25 9.25 l 205.5 0 c 4.859 0.055 9.305 -4.391 9.25 -9.25 l 0 -141.5 c 0.055 -4.852 -4.391 -9.305 -9.25 -9.25 l -78.75 0 0 -6.75 c 0.055 -4.773 -4.227 -9.172 -9 -9.25 l -117.75 0 c -0.328 -0.016 -0.664 -0.016 -1 0 z m 0 0" style="fill:replacecolour1;opacity:0.4;fill-opacity:1;stroke:none;fill-rule:nonzero"/>
 <path d="m 32 31.998 192 0 0 104 -192 0 z m 0 0" style="fill:#e8e6cf;fill-opacity:1;stroke:none;fill-rule:nonzero"/>
 <path d="m 48 116 160 0 0 8 -160 0 z m 0 0" style="fill:#787866;fill-opacity:1;stroke:none;fill-rule:nonzero"/>
 <path d="m 24.25 112 c -4.516 0.445 -8.32 4.711 -8.25 9.25 l 0 85.5 c -0.055 4.859 4.391 9.305 9.25 9.25 l 205.5 0 c 4.859 0.055 9.305 -4.391 9.25 -9.25 l 0 -69.5 c 0.055 -4.852 -4.391 -9.305 -9.25 -9.25 l -78.75 0 0 -6.75 c 0.055 -4.773 -4.227 -9.172 -9 -9.25 l -117.75 0 c -0.328 -0.016 -0.664 -0.016 -1 0 z m 0 0" style="fill:replacecolour1;fill-opacity:1;stroke:none;fill-rule:nonzero"/>
 <path d="m 48 67.998 160 0 0 8 -160 0 z m 0 0" style="fill:#787866;fill-opacity:1;stroke:none;fill-rule:nonzero"/>
 <path d="m 48 83.998 160 0 0 8 -160 0 z m 0 0" style="fill:#787866;fill-opacity:1;stroke:none;fill-rule:nonzero"/>
 <path d="m 48 100 160 0 0 8 -160 0 z m 0 0" style="fill:#787866;fill-opacity:1;stroke:none;fill-rule:nonzero"/>
 <path d="m 48 51.998 160 0 0 8 -160 0 z m 0 0" style="fill:#787866;fill-opacity:1;stroke:none;fill-rule:nonzero"/>
 <path d="m 255.99 192 c 0.469 22.703 -11.625 43.891 -31.609 55.39 -20 11.484 -44.766 11.484 -64.75 0 -19.984 -11.5 -32.08 -32.688 -31.609 -55.39 -0.469 -22.703 11.625 -43.891 31.609 -55.38 19.984 -11.5 44.75 -11.5 64.75 0 19.984 11.484 32.08 32.672 31.609 55.38 z m 0 0" style="fill:#859900;fill-opacity:1;stroke:none;fill-rule:evenodd"/>
 <path d="m 227 151.76 c -1.359 0.477 -2.5 1.391 -3.281 2.594 l -34.875 33.766 -21.766 -20.781 c -0.875 -2.891 -3.609 -4.797 -6.641 -4.641 -3.03 0.156 -5.563 2.359 -6.109 5.328 -0.531 2.953 1.047 5.891 3.828 7.094 l 26.22 25.984 c 2.516 2.297 6.406 2.297 8.922 0 l 39.34 -38.969 c 1.531 -2.02 1.75 -4.75 0.531 -6.969 -1.219 -2.234 -3.625 -3.563 -6.172 -3.406 z m 0 0" style="fill:#fff;fill-opacity:1;stroke:none;fill-rule:nonzero"/>
</svg>
