<svg version="1.1" viewBox="0 0 22 22" xmlns="http://www.w3.org/2000/svg">
 <g transform="translate(0 -1030.4)">
  <path transform="translate(0 1030.4)" d="m1.625 2.998v0.0019531c-0.347 0.063-0.625 0.397-0.625 0.75v14.5c6e-3 0.391 0.359 0.744 0.75 0.75h18.5c0.391-0.01 0.744-0.359 0.75-0.75v-12.438c-6e-3 -0.391-0.359-0.80745-0.75-0.81445h-7.25v-1.25c-6e-3 -0.391-0.359-0.744-0.75-0.75zm9.375 4.002c2.7727 0 5 2.2574 5 5.0684 0 2.1659-1.3627 4.1017-3.4082 4.793h-0.04687l-0.044927-0.044922v-1.4297c0-0.3226-0.04528-0.59968-0.18164-0.83008 1.0455-0.1843 2.1816-0.73675 2.1816-2.8105 0-0.553-0.18182-1.0599-0.5-1.4746 0.09091-0.2765 0.13548-0.78253-0.0918-1.4277l-0.13476-0.13867s-0.09073-0.046875-0.18164-0.046875c-0.27273 0-0.68342 0.091734-1.3652 0.55273-0.36364-0.046-0.77202-0.13672-1.2266-0.13672-0.45455 0-0.86435 0.044419-1.2734 0.13672-0.63636-0.4148-1.0906-0.50586-1.3633-0.50586-0.09091 0-0.13619 0.046875-0.18164 0.046875-0.04545 0-0.13672 0.090519-0.13672 0.13672-0.22727 0.6452-0.18075 1.1532-0.089844 1.4297-0.31818 0.4147-0.5 0.92161-0.5 1.4746 0 2.0277 1.1816 2.5801 2.1816 2.8105-0.04545 0.092-0.091267 0.23084-0.13672 0.36914-0.09091 0.046-0.22639 0.0918-0.4082 0.0918s-0.36364-0.04529-0.5-0.18359l-0.046875-0.04687c-0.04545-0.046-0.044384-0.0918-0.089844-0.0918l-0.046875-0.04688-0.044922-0.04492c0-0.046-0.36364-0.60038-1-0.64648-0.22727 0-0.40962 0.09207-0.45508 0.23047-0.090909 0.2304 0.182 0.41571 0.31836 0.50781 0 0 0.27326 0.13763 0.45508 0.64453 0.090909 0.3226 0.50053 0.92188 1.4551 0.92188h0.31836v0.64453l-0.046874 0.046874c-2.0454-0.8295-3.4082-2.7657-3.4082-4.9316 0-2.811 2.2273-5.0684 5-5.0684z" style="color:#000000;fill:#42a5f5"/>
 </g>
</svg>
