<svg version="1.1" viewBox="0 0 22 22" xmlns="http://www.w3.org/2000/svg">
 <g transform="translate(0,-1030.3622)">
  <path d="m12.25 1033.3602h-10.625c-0.347 0.064-0.625 0.397-0.625 0.75v14.5c6e-3 0.391 0.359 0.744 0.75 0.75h18.5c0.391-0.01 0.744-0.359 0.75-0.75v-12.4375c-6e-3 -0.391-0.359-0.8075-0.75-0.8145h-7.25v-1.25c-6e-3 -0.391-0.359-0.744-0.75-0.75zm-1.152344 5.004a4.0000852 3.9999996 0 0 1 0.902344 0.1289v1.0507a3.0000642 3 0 0 0-3.1210938 0.6973 3.0000642 3 0 0 0-0.6503906 3.2695 3.0000642 3 0 0 0 2.7714844 1.8516h4v1h-4a4.0000852 3.9999996 0 0 1-3.6953125-2.4687 4.0000852 3.9999996 0 0 1 0.8671875-4.3594 4.0000852 3.9999996 0 0 1 2.925781-1.1699zm-0.097656 1.9921a2.0000427 1.9999999 0 0 1 1.732422 1h-1.732422v0.012a1.0000213 0.99999993 0 0 0-0.707031 0.2871 1.0000213 0.99999993 0 0 0-0.216797 1.0898 1.0000213 0.99999993 0 0 0 0.923828 0.617h4v1h-4a2.0000427 1.9999999 0 0 1-2-2 2.0000427 1.9999999 0 0 1 2-2z" style="-inkscape-stroke:none;color:#000000;fill:#8d6e63;font-variation-settings:normal;stop-color:#000000"/>
 </g>
</svg>
