<svg version="1.1" viewBox="0 0 22 22" xmlns="http://www.w3.org/2000/svg">
 <g transform="translate(0 -1030.4)">
  <path d="m1.625 1033.4c-0.347 0.063-0.625 0.397-0.625 0.75v14.5c6e-3 0.391 0.359 0.744 0.75 0.75h18.5c0.391-0.01 0.744-0.359 0.75-0.75v-12.438c-6e-3 -0.391-0.359-0.8075-0.75-0.8145h-7.25v-1.25c-6e-3 -0.391-0.359-0.744-0.75-0.75zm9.375 4.002c2.7727 0 5 2.2574 5 5.0684 0 2.1659-1.3627 4.1017-3.4082 4.793h-0.04687l-0.04493-0.0449v-1.4297c0-0.3226-0.04528-0.5997-0.18164-0.8301 1.0455-0.1843 2.1816-0.7368 2.1816-2.8105 0-0.553-0.18182-1.0599-0.5-1.4746 0.09091-0.2765 0.13548-0.7825-0.0918-1.4277l-0.13476-0.1387s-0.09073-0.047-0.18164-0.047c-0.27273 0-0.68342 0.092-1.3652 0.5527-0.36364-0.046-0.77202-0.1367-1.2266-0.1367-0.45455 0-0.86435 0.044-1.2734 0.1367-0.63636-0.4148-1.0906-0.5059-1.3633-0.5059-0.09091 0-0.13619 0.047-0.18164 0.047s-0.13672 0.091-0.13672 0.1367c-0.22727 0.6452-0.18075 1.1532-0.089844 1.4297-0.31818 0.4147-0.5 0.9216-0.5 1.4746 0 2.0277 1.1816 2.5801 2.1816 2.8105-0.04545 0.092-0.091267 0.2309-0.13672 0.3692-0.09091 0.046-0.22639 0.092-0.4082 0.092s-0.36364-0.045-0.5-0.1836l-0.046875-0.047c-0.04545-0.046-0.044384-0.092-0.089844-0.092l-0.046875-0.047-0.044922-0.045c0-0.046-0.36364-0.6004-1-0.6465-0.22727 0-0.40962 0.092-0.45508 0.2305-0.090909 0.2304 0.182 0.4157 0.31836 0.5078 0 0 0.27326 0.1376 0.45508 0.6445 0.090909 0.3226 0.50053 0.9219 1.4551 0.9219h0.31836v0.6445l-0.046874 0.047c-2.0454-0.8295-3.4082-2.7657-3.4082-4.9316 0-2.811 2.2273-5.0684 5-5.0684z" style="color:#000000;fill:#c4905e;font-variation-settings:normal;stop-color:#000000"/>
 </g>
</svg>
