<svg xmlns="http://www.w3.org/2000/svg" width="256" height="256" viewBox="0 0 204.8 204.8">
 <path d="m 19.2 38.4 166.4 0 0 64 -166.4 0 z m 0 0" style="fill:#1976d2;fill-opacity:1;stroke:none;fill-rule:nonzero"/>
 <path d="m 38.4 38.4 c 0 -6.4 0 -12.8 9.306 -12.8 l 32.588 0 c 9.306 0 9.306 6.4 9.306 12.8 l 0 6.4 -51.2 0 z m 0 0" style="fill:#1976d2;fill-opacity:1;stroke:none;fill-rule:nonzero"/>
 <path d="m 32 51.2 140.8 0 0 31.794 -140.8 0 z m 0 0" style="fill:#94979c;fill-opacity:1;stroke:none;fill-rule:nonzero"/>
 <path d="m 44.8 44.8 121.6 0 0 83.2 -121.6 0 z m 0 0" style="fill:#d7d7d9;fill-opacity:1;stroke:none;fill-rule:nonzero"/>
 <path d="m 38.4 57.6 121.6 0 0 83.2 -121.6 0 z m 0 0" style="fill:#f8f8f8;fill-opacity:1;stroke:none;fill-rule:nonzero"/>
 <path d="m 6.4 64 192 0 -13.713 115.2 -164.57 0 z m 0 0" style="fill:#42a5f5;fill-opacity:1;stroke:none;fill-rule:nonzero"/>
 <path d="m 60.8 120 c 0 5.303 -4.297 9.6 -9.6 9.6 -5.303 0 -9.6 -4.297 -9.6 -9.6 0 -5.303 4.297 -9.6 9.6 -9.6 5.303 0 9.6 4.297 9.6 9.6 z m 0 0" style="fill:#2a74b9;opacity:1;fill-opacity:1;stroke:none;fill-rule:nonzero"/>
 <path d="m 102.4 81.6 c -7.334 0 -14.175 2.025 -20 5.6 l 9.5 9.5 c 3.206 -1.444 6.756 -2.3 10.5 -2.3 13.05 0 23.819 9.778 25.4 22.4 l 12.8 0 c -0.519 -6.144 -2.434 -11.922 -5.5 -16.9 -1.203 0.541 -2.497 0.9 -3.9 0.9 -5.303 0 -9.6 -4.297 -9.6 -9.6 0 -1.403 0.359 -2.697 0.9 -3.9 -5.847 -3.597 -12.731 -5.7 -20.1 -5.7 z m -25.1 9.5 c -6.01 5.244 -10.45 12.259 -12.3 20.3 3.184 1.563 5.4 4.813 5.4 8.6 0 3.787 -2.216 7.04 -5.4 8.6 1.994 8.662 6.853 16.266 13.6 21.6 l 9.2 -9.2 c -6.641 -4.625 -11 -12.294 -11 -21 0 -8.03 3.713 -15.206 9.5 -19.9 z m 50.5 32.1 c -1.581 12.622 -12.35 22.4 -25.4 22.4 -3.03 0 -5.906 -0.634 -8.6 -1.6 l -9.7 9.7 c 5.447 2.975 11.656 4.7 18.3 4.7 4.841 0 9.434 -0.866 13.7 -2.5 -0.541 -1.203 -0.9 -2.497 -0.9 -3.9 0 -5.303 4.297 -9.6 9.6 -9.6 2.572 0 4.875 1.053 6.6 2.7 5.184 -5.988 8.509 -13.541 9.2 -21.9 z m 0 0" style="fill:#2a74b9;opacity:1;fill-opacity:1;stroke:none;fill-rule:nonzero"/>
 <path d="m 147.2 84.8 c 0 5.303 -4.297 9.6 -9.6 9.6 -5.303 0 -9.6 -4.297 -9.6 -9.6 0 -5.303 4.297 -9.6 9.6 -9.6 5.303 0 9.6 4.297 9.6 9.6 z m 0 0" style="fill:#2a74b9;opacity:1;fill-opacity:1;stroke:none;fill-rule:nonzero"/>
 <path d="m 140.8 158.4 c 0 5.303 -4.297 9.6 -9.6 9.6 -5.303 0 -9.6 -4.297 -9.6 -9.6 0 -5.303 4.297 -9.6 9.6 -9.6 5.303 0 9.6 4.297 9.6 9.6 z m 0 0" style="fill:#2a74b9;opacity:1;fill-opacity:1;stroke:none;fill-rule:nonzero"/>
</svg>
