<svg xmlns="http://www.w3.org/2000/svg" width="256" height="256" viewBox="0 0 204.8 204.8">
 <path d="m 19.2 38.4 166.4 0 0 64 -166.4 0 z m 0 0" style="fill:#1976d2;fill-opacity:1;stroke:none;fill-rule:nonzero"/>
 <path d="m 38.4 38.4 c 0 -6.4 0 -12.8 9.306 -12.8 l 32.588 0 c 9.306 0 9.306 6.4 9.306 12.8 l 0 6.4 -51.2 0 z m 0 0" style="fill:#1976d2;fill-opacity:1;stroke:none;fill-rule:nonzero"/>
 <path d="m 32 51.2 140.8 0 0 31.794 -140.8 0 z m 0 0" style="fill:#94979c;fill-opacity:1;stroke:none;fill-rule:nonzero"/>
 <path d="m 44.8 44.8 121.6 0 0 83.2 -121.6 0 z m 0 0" style="fill:#d7d7d9;fill-opacity:1;stroke:none;fill-rule:nonzero"/>
 <path d="m 38.4 57.6 121.6 0 0 83.2 -121.6 0 z m 0 0" style="fill:#f8f8f8;fill-opacity:1;stroke:none;fill-rule:nonzero"/>
 <path d="m 6.4 64 192 0 -13.713 115.2 -164.57 0 z m 0 0" style="fill:#42a5f5;fill-opacity:1;stroke:none;fill-rule:nonzero"/>
 <path d="m 73.6 83.2 c -5.319 0 -9.6 4.281 -9.6 9.6 l 0 57.6 c 0 5.319 4.281 9.6 9.6 9.6 l 57.6 0 c 5.319 0 9.6 -4.281 9.6 -9.6 l 0 -57.6 c 0 -5.319 -4.281 -9.6 -9.6 -9.6 z m 0 9.6 9.6 0 0 9.6 -9.6 0 z m 48 0 9.6 0 0 9.6 -9.6 0 z m -48 24 9.6 0 0 9.6 -9.6 0 z m 48 0 9.6 0 0 9.6 -9.6 0 z m -48 24 9.6 0 0 9.6 -9.6 0 z m 48 0 9.6 0 0 9.6 -9.6 0 z m 0 0" style="fill:#2a74b9;opacity:1;fill-opacity:1;stroke:none;fill-rule:nonzero"/>
</svg>
