<svg xmlns="http://www.w3.org/2000/svg" viewBox="0 0 256 256">
 <path d="m 8 40 136 0 0 56 -136 0 z m 0 0" style="fill:#1976d2;fill-opacity:1;stroke:none;fill-rule:nonzero"/>
 <path d="m 24.11 40 c 0 -4 0 -8 7.25 -8 l 25.391 0 c 7.25 0 7.25 4 7.25 8 z m 0 0" style="fill:#1976d2;fill-opacity:1;stroke:none;fill-rule:nonzero"/>
 <path d="m 16 56 120 0 0 24 -120 0 z m 0 0" style="fill:#94979e;fill-opacity:1;stroke:none;fill-rule:nonzero"/>
 <path d="m 32 48 96 0 0 72 -96 0 z m 0 0" style="fill:#d7d7d9;fill-opacity:1;stroke:none;fill-rule:nonzero"/>
 <path d="m 24 64 96 0 0 72 -96 0 z m 0 0" style="fill:#f8f8f8;fill-opacity:1;stroke:none;fill-rule:nonzero"/>
 <path d="m 0 72 152 0 -10.859 80 -130.28 0 z m 0 0" style="fill:#42a5f5;fill-opacity:1;stroke:none;fill-rule:nonzero"/>
 <path d="m 31.25 32 c -7.25 0 -7.25 4 -7.25 8 l -16 0 0 32 l -8 0 10.75 80 l 130.5 0 4.25 -32 22.5 0 c 0 -4 0 -8 -7.25 -8 l -14.25 0 5.5 -40 -8 0 0 -32 -80 0 c 0 -4 0 -8 -7.25 -8 z m 0 0" style="fill:#000;fill-opacity:0.102;stroke:none;fill-rule:nonzero"/>
 <path d="m 112 120 136 0 0 56 -136 0 z m 0 0" style="fill:#1976d2;fill-opacity:1;stroke:none;fill-rule:nonzero"/>
 <path d="m 128.11 120 c 0 -4 0 -8 7.25 -8 l 25.391 0 c 7.25 0 7.25 4 7.25 8 z m 0 0" style="fill:#1976d2;fill-opacity:1;stroke:none;fill-rule:nonzero"/>
 <path d="m 120 136 120 0 0 24 -120 0 z m 0 0" style="fill:#94979e;fill-opacity:1;stroke:none;fill-rule:nonzero"/>
 <path d="m 136 128 96 0 0 72 -96 0 z m 0 0" style="fill:#d7d7d9;fill-opacity:1;stroke:none;fill-rule:nonzero"/>
 <path d="m 128 144 96 0 0 72 -96 0 z m 0 0" style="fill:#f8f8f8;fill-opacity:1;stroke:none;fill-rule:nonzero"/>
 <path d="m 104 152 152 0 -10.859 80 -130.28 0 z m 0 0" style="fill:#42a5f5;fill-opacity:1;stroke:none;fill-rule:nonzero"/>
</svg>
