<svg xmlns="http://www.w3.org/2000/svg" width="256" height="256" viewBox="0 0 204.8 204.8">
 <path d="m 19.2 38.4 166.4 0 0 64 -166.4 0 z m 0 0" style="fill:replacecolour2;fill-opacity:1;stroke:none;fill-rule:nonzero"/>
 <path d="m 38.4 38.4 c 0 -6.4 0 -12.8 9.306 -12.8 l 32.588 0 c 9.306 0 9.306 6.4 9.306 12.8 l 0 6.4 -51.2 0 z m 0 0" style="fill:replacecolour2;fill-opacity:1;stroke:none;fill-rule:nonzero"/>
 <path d="m 32 51.2 140.8 0 0 31.794 -140.8 0 z m 0 0" style="fill:#94979c;fill-opacity:1;stroke:none;fill-rule:nonzero"/>
 <path d="m 44.8 44.8 121.6 0 0 83.2 -121.6 0 z m 0 0" style="fill:#d7d7d9;fill-opacity:1;stroke:none;fill-rule:nonzero"/>
 <path d="m 38.4 57.6 121.6 0 0 83.2 -121.6 0 z m 0 0" style="fill:#f8f8f8;fill-opacity:1;stroke:none;fill-rule:nonzero"/>
 <path d="m 6.4 64 192 0 -13.713 115.2 -164.57 0 z m 0 0" style="fill:replacecolour1;fill-opacity:1;stroke:none;fill-rule:nonzero"/>
 <path d="m 96.36 83.2 c -2.131 0 -3.912 1.694 -3.912 3.822 l 0 4.978 c -1.347 0.456 -2.653 0.978 -3.909 1.6 l -3.469 -3.466 c -1.506 -1.506 -3.916 -1.506 -5.422 0 l -8.709 8.622 c -1.506 1.506 -1.506 3.916 0 5.422 l 3.466 3.466 c -0.638 1.281 -1.141 2.628 -1.6 4 l -4.888 0 c -2.131 0 -3.912 1.694 -3.912 3.822 l 0 12.269 c 0 2.128 1.781 3.822 3.912 3.822 l 4.888 0 c 0.459 1.372 0.963 2.719 1.6 4 l -3.466 3.466 c -1.506 1.506 -1.506 3.916 0 5.422 l 8.709 8.622 c 1.506 1.506 3.916 1.506 5.422 0 l 3.469 -3.466 c 1.256 0.625 2.562 1.147 3.909 1.6 l 0 4.978 c 0 2.128 1.781 3.822 3.912 3.822 l 12.178 0 c 2.128 0 3.822 -1.694 3.822 -3.822 l 0 -4.978 c 1.372 -0.463 2.719 -0.963 4 -1.6 l 3.466 3.466 c 1.506 1.506 3.916 1.506 5.422 0 l 8.713 -8.622 c 1.506 -1.506 1.506 -3.916 0 -5.422 l -3.556 -3.553 c 0.622 -1.259 1.147 -2.566 1.6 -3.912 l 4.978 0 c 2.128 0 3.822 -1.694 3.822 -3.822 l 0 -12.269 c 0 -2.128 -1.694 -3.822 -3.822 -3.822 l -4.978 0 c -0.453 -1.347 -0.978 -2.653 -1.6 -3.912 l 3.556 -3.553 c 1.506 -1.506 1.506 -3.916 0 -5.422 l -8.713 -8.622 c -1.506 -1.506 -3.916 -1.506 -5.422 0 l -3.466 3.466 c -1.281 -0.641 -2.628 -1.137 -4 -1.6 l 0 -4.978 c 0 -2.128 -1.694 -3.822 -3.822 -3.822 z m 6.04 28.444 c 5.497 0 9.956 4.459 9.956 9.956 0 5.497 -4.459 9.956 -9.956 9.956 -5.497 0 -9.956 -4.459 -9.956 -9.956 0 -5.497 4.459 -9.956 9.956 -9.956 z m 0 0" style="fill:replacecolour3;opacity:1;fill-opacity:1;stroke:none;fill-rule:nonzero"/>
</svg>
