<!-- Created with Inkscape (http://www.inkscape.org/) -->
<svg xmlns="http://www.w3.org/2000/svg" viewBox="0 0 256 256">
 <g transform="translate(0,-796.3622)">
  <rect width="208" height="80" x="24" y="844.36" style="fill:#ea9036;fill-opacity:1;stroke:none"/>
  <path d="m 48 844.36 c 0 -8 0 -16 11.636 -16 l 40.727 0 c 11.636 0 11.636 8 11.636 16 l 0 8 -64 0 z" style="fill:#ea9036;fill-opacity:1;stroke:none"/>
  <path d="m 40 860.36 176 0 0 39.742 -176 0 z" style="fill:#95989f;fill-opacity:1;stroke:none"/>
  <rect y="852.36" x="56" height="104" width="152" style="fill:#d8d8da;fill-opacity:1;stroke:none"/>
  <rect width="152" height="104" x="48" y="868.36" style="fill:#f9f9f9;fill-opacity:1;stroke:none"/>
  <path d="m 8 876.36 240 0 -17.14 144 -205.71 0 z" style="fill:#f2bb64;fill-opacity:1;stroke:none"/>
  <path d="m 96 900.36 c -5.698 0 -8 2.682 -8 8 l 0 80 c 0 5.318 2.302 8 8 8 l 61.75 0 c 5.698 0 10.25 -2.682 10.25 -8 l 0 -80 c 0 -5.318 -2.302 -8 -8 -8 l -64 0 z m 6 8 c 3.314 0 6 2.686 6 6 0 3.314 -2.686 6 -6 6 -3.314 0 -6 -2.686 -6 -6 0 -3.314 2.686 -6 6 -6 z m 52 0 c 3.314 0 6 2.686 6 6 0 3.314 -2.686 6 -6 6 -3.314 0 -6 -2.686 -6 -6 0 -3.314 2.686 -6 6 -6 z m -26 8 c 8.837 0 16 7.163 16 16 0 8.837 -7.163 16 -16 16 -8.837 0 -16 -7.163 -16 -16 0 -8.837 7.163 -16 16 -16 z m -26 28 c 3.314 0 6 2.686 6 6 0 3.314 -2.686 6 -6 6 -3.314 0 -6 -2.686 -6 -6 0 -3.314 2.686 -6 6 -6 z m 52 0 c 3.314 0 6 2.686 6 6 0 3.314 -2.686 6 -6 6 -3.314 0 -6 -2.686 -6 -6 0 -3.314 2.686 -6 6 -6 z m -54 36 56 0 c 2.216 0 4 1.784 4 4 0 2.216 -1.784 4 -4 4 l -56 0 c -2.216 0 -4 -1.784 -4 -4 0 -2.216 1.784 -4 4 -4 z" style="fill:#b58c4b;opacity:1;fill-opacity:1;stroke:none"/>
  <path d="m 34 34 c 0 1.105 -0.895 2 -2 2 -1.105 0 -2 -0.895 -2 -2 0 -1.105 0.895 -2 2 -2 1.105 0 2 0.895 2 2 z" transform="matrix(4,0,0,4,0,796.3622)" style="fill:#b58c4b;opacity:1;fill-opacity:1;stroke:none;fill-rule:evenodd"/>
 </g>
</svg>
