<svg xmlns="http://www.w3.org/2000/svg" width="256" height="256" viewBox="0 0 204.8 204.8">
 <path d="m 19.2 38.4 166.4 0 0 64 -166.4 0 z m 0 0" style="fill:#388e3c;fill-opacity:1;stroke:none;fill-rule:nonzero"/>
 <path d="m 38.4 38.4 c 0 -6.4 0 -12.8 9.306 -12.8 l 32.588 0 c 9.306 0 9.306 6.4 9.306 12.8 l 0 6.4 -51.2 0 z m 0 0" style="fill:#388e3c;fill-opacity:1;stroke:none;fill-rule:nonzero"/>
 <path d="m 32 51.2 140.8 0 0 31.794 -140.8 0 z m 0 0" style="fill:#94979c;fill-opacity:1;stroke:none;fill-rule:nonzero"/>
 <path d="m 44.8 44.8 121.6 0 0 83.2 -121.6 0 z m 0 0" style="fill:#d7d7d9;fill-opacity:1;stroke:none;fill-rule:nonzero"/>
 <path d="m 38.4 57.6 121.6 0 0 83.2 -121.6 0 z m 0 0" style="fill:#f8f8f8;fill-opacity:1;stroke:none;fill-rule:nonzero"/>
 <path d="m 6.4 64 192 0 -13.713 115.2 -164.57 0 z m 0 0" style="fill:#66bb6a;fill-opacity:1;stroke:none;fill-rule:nonzero"/>
 <path d="m 67.2 80 c 0 0 -6.4 0.244 -6.4 6.4 l 0 12.8 12.8 0 0 -6.4 6.4 0 0 -12.8 z m 19.2 0 0 12.8 12.8 0 0 -12.8 z m 19.2 0 0 12.8 12.8 0 0 -12.8 z m 19.2 0 0 12.8 6.4 0 0 6.4 12.8 0 0 -12.8 c 0 -6.4 -6.4 -6.4 -6.4 -6.4 z m -64 25.6 0 12.8 12.8 0 0 -12.8 z m 70.4 0 0 12.8 12.8 0 0 -12.8 z m -70.4 19.2 0 12.8 12.8 0 0 -12.8 z m 70.4 0 0 12.8 12.8 0 0 -12.8 z m -70.4 19.2 0 12.8 c 0 6.4 6.4 6.4 6.4 6.4 l 12.8 0 0 -12.8 -6.4 0 0 -6.4 z m 70.4 0 0 6.4 -6.4 0 0 12.8 12.8 0 c 0 0 6.4 0 6.4 -6.4 l 0 -12.8 z m -44.8 6.4 0 12.8 12.8 0 0 -12.8 z m 19.2 0 0 12.8 12.8 0 0 -12.8 z m 0 0" style="fill:#103612;opacity:0.4;fill-opacity:1;stroke:none;fill-rule:nonzero"/>
</svg>
