<svg xmlns="http://www.w3.org/2000/svg" width="256" height="256" viewBox="0 0 204.8 204.8">
 <path d="m 19.2 38.4 166.4 0 0 64 -166.4 0 z m 0 0" style="fill:#e65100;fill-opacity:1;stroke:none;fill-rule:nonzero"/>
 <path d="m 38.4 38.4 c 0 -6.4 0 -12.8 9.306 -12.8 l 32.588 0 c 9.306 0 9.306 6.4 9.306 12.8 l 0 6.4 -51.2 0 z m 0 0" style="fill:#e65100;fill-opacity:1;stroke:none;fill-rule:nonzero"/>
 <path d="m 32 51.2 140.8 0 0 31.794 -140.8 0 z m 0 0" style="fill:#94979c;fill-opacity:1;stroke:none;fill-rule:nonzero"/>
 <path d="m 44.8 44.8 121.6 0 0 83.2 -121.6 0 z m 0 0" style="fill:#d7d7d9;fill-opacity:1;stroke:none;fill-rule:nonzero"/>
 <path d="m 38.4 57.6 121.6 0 0 83.2 -121.6 0 z m 0 0" style="fill:#f8f8f8;fill-opacity:1;stroke:none;fill-rule:nonzero"/>
 <path d="m 6.4 64 192 0 l -13.713 115.2 l -164.57 0 z m 0 0" style="fill:#f57c00;fill-opacity:1;stroke:none;fill-rule:nonzero"/>
 <path d="m 70.4 76.8 c -7.091 0 -12.8 5.709 -12.8 12.8 l 0 44.8 c 0 7.091 5.709 12.8 12.8 12.8 l 19.2 0 -12.8 12.8 c -6.4 6.4 -6.4 6.4 0 6.4 l 51.2 0 c 6.4 0 6.4 0 0 -6.4 l -12.8 -12.8 19.2 0 c 7.091 0 12.8 -5.709 12.8 -12.8 l 0 -44.8 c 0 -7.091 -5.709 -12.8 -12.8 -12.8 z m 0 12.8 64 0 0 44.8 -64 0 z m 16 6.4 c 0 0 -6.4 0 -6.4 6.4 l 0 19.2 c 0 6.4 6.4 6.4 6.4 6.4 l 19.2 0 c 6.4 0 6.4 -6.4 6.4 -6.4 l 0 -12.8 -12.8 -12.8 z m 0 6.4 9.6 0 0 9.6 9.6 0 0 9.6 -19.2 0 z m 0 0" style="fill:#ab5d0b;opacity:1;fill-opacity:1;stroke:none;fill-rule:nonzero"/>
</svg>
