<svg xmlns="http://www.w3.org/2000/svg" width="256" height="256" viewBox="0 0 204.8 204.8">
 <path d="m 19.2 38.4 166.4 0 0 64 -166.4 0 z m 0 0" style="fill:#e65100;fill-opacity:1;stroke:none;fill-rule:nonzero"/>
 <path d="m 38.4 38.4 c 0 -6.4 0 -12.8 9.306 -12.8 l 32.588 0 c 9.306 0 9.306 6.4 9.306 12.8 l 0 6.4 -51.2 0 z m 0 0" style="fill:#e65100;fill-opacity:1;stroke:none;fill-rule:nonzero"/>
 <path d="m 32 51.2 140.8 0 0 31.794 -140.8 0 z m 0 0" style="fill:#94979c;fill-opacity:1;stroke:none;fill-rule:nonzero"/>
 <path d="m 44.8 44.8 121.6 0 0 83.2 -121.6 0 z m 0 0" style="fill:#d7d7d9;fill-opacity:1;stroke:none;fill-rule:nonzero"/>
 <path d="m 38.4 57.6 121.6 0 0 83.2 -121.6 0 z m 0 0" style="fill:#f8f8f8;fill-opacity:1;stroke:none;fill-rule:nonzero"/>
 <path d="m 6.4 64 192 0 -13.713 115.2 -164.57 0 z m 0 0" style="fill:#f57c00;fill-opacity:1;stroke:none;fill-rule:nonzero"/>
 <path d="m 131.33 83.21 c -3.319 0.05 -6.581 2.091 -7.103 5.891 -0.834 6.084 5.431 3.803 10.444 3.803 5.01 0 6.684 9.884 5.431 15.206 c -1.253 5.322 -14.578 17.894 -44.697 5.322 -24.797 -10.35 -37.18 3.431 -37.803 3.706 2.347 20.566 21.481 42.866 44.697 42.866 c 24.8 0 44.903 -24.569 44.903 -47.14 0 -2.594 -0.328 -5.147 -0.834 -7.603 -0.462 -1.244 -0.916 -2.481 -1.253 -3.612 -0.609 -2.025 -1.294 -3.734 -1.881 -5.322 -0.025 -0.053 0.025 -0.137 0 -0.194 -2.375 -4.797 -5.703 -9.134 -9.816 -12.734 -0.019 -0.044 -0.088 0.044 -0.103 0 -0.644 -0.153 -1.322 -0.2 -1.984 -0.194 z m 0 0" style="fill:#ab5d0b;opacity:1;fill-opacity:1;stroke:none;fill-rule:nonzero"/>
 <path d="m 121.6 102.4 c 0 3.534 -2.866 6.4 -6.4 6.4 -3.534 0 -6.4 -2.866 -6.4 -6.4 0 -3.534 2.866 -6.4 6.4 -6.4 3.534 0 6.4 2.866 6.4 6.4 z m 0 0" style="fill:#ab5d0b;opacity:1;fill-opacity:1;stroke:none;fill-rule:nonzero"/>
 <path d="m 102.4 92.8 c 0 1.769 -1.431 3.2 -3.2 3.2 -1.769 0 -3.2 -1.431 -3.2 -3.2 0 -1.769 1.431 -3.2 3.2 -3.2 1.769 0 3.2 1.431 3.2 3.2 z m 0 0" style="fill:#ab5d0b;opacity:1;fill-opacity:1;stroke:none;fill-rule:nonzero"/>
</svg>
