<svg xmlns="http://www.w3.org/2000/svg" viewBox="0 0 256 256">
 <path d="m 24 48 208 0 0 80 -208 0 z m 0 0" style="fill:#ec407a;fill-opacity:1;stroke:none;fill-rule:nonzero"/>
 <path d="m 48,48 c 0,-8 0,-16 11.632812,-16 l 40.734378,0 C 112,32 112,40 112,48 l 0,8 -64,0 z m 0,0" style="fill:#ec407a;fill-opacity:1;stroke:none;fill-rule:nonzero"/>
 <path d="m 40 64 176 0 0 39.742 -176 0 z m 0 0" style="fill:#94979c;fill-opacity:1;stroke:none;fill-rule:nonzero"/>
 <path d="m 56 56 152 0 0 104 -152 0 z m 0 0" style="fill:#d7d7d9;fill-opacity:1;stroke:none;fill-rule:nonzero"/>
 <path d="m 48 72 152 0 0 104 -152 0 z m 0 0" style="fill:#f8f8f8;fill-opacity:1;stroke:none;fill-rule:nonzero"/>
 <path d="m 8 80 240 0 -17.14 144 -205.72 0 z m 0 0" style="fill:#f06292;fill-opacity:1;stroke:none;fill-rule:nonzero"/>
</svg>
