<!-- Created with Inkscape (http://www.inkscape.org/) -->
<svg xmlns="http://www.w3.org/2000/svg" viewBox="0 0 256 256">
 <g transform="translate(0,-796.3622)">
  <rect width="208" height="80" x="24" y="844.36" style="fill:#512da8;fill-opacity:1;stroke:none"/>
  <path d="m 48 844.36 c 0 -8 0 -16 11.636 -16 l 40.727 0 c 11.636 0 11.636 8 11.636 16 l 0 8 -64 0 z" style="fill:#512da8;fill-opacity:1;stroke:none"/>
  <path d="m 40 860.36 176 0 0 39.742 -176 0 z" style="fill:#95989f;fill-opacity:1;stroke:none"/>
  <rect y="852.36" x="56" height="104" width="152" style="fill:#d8d8da;fill-opacity:1;stroke:none"/>
  <rect width="152" height="104" x="48" y="868.36" style="fill:#f9f9f9;fill-opacity:1;stroke:none"/>
  <path d="m 8 876.36 240 0 -17.14 144 -205.71 0 z" style="fill:#7e57c2;fill-opacity:1;stroke:none"/>
  <path d="m 80 900.36 0 20 c 40.587 4.482 76.16 35.66 76 76 l 20 0 c 0 -57.63 -51.751 -94.18 -96 -96 z m 0 32 0 20 c 21.995 1.809 43.755 18.336 44 44 l 20 0 c -0.957 -39.13 -36.679 -61.22 -64 -64 z" style="fill:#54398d;opacity:1;fill-opacity:1;stroke:none;fill-rule:nonzero"/>
  <path transform="matrix(9.3333332,0,0,9.3333332,-13.333333,763.02888)" d="m 13 23.5 c 0 0.828 -0.672 1.5 -1.5 1.5 -0.828 0 -1.5 -0.672 -1.5 -1.5 0 -0.828 0.672 -1.5 1.5 -1.5 c 0.828 0 1.5 0.672 1.5 1.5 z" style="fill:#54398d;opacity:1;fill-opacity:1;stroke:none;fill-rule:evenodd"/>
 </g>
</svg>
