<svg xmlns="http://www.w3.org/2000/svg" width="256" height="256" viewBox="0 0 204.8 204.8">
 <path d="m 19.2 38.4 166.4 0 0 64 -166.4 0 z m 0 0" style="fill:#d32f2f;fill-opacity:1;stroke:none;fill-rule:nonzero"/>
 <path d="m 38.4 38.4 c 0 -6.4 0 -12.8 9.306 -12.8 l 32.588 0 c 9.306 0 9.306 6.4 9.306 12.8 l 0 6.4 -51.2 0 z m 0 0" style="fill:#d32f2f;fill-opacity:1;stroke:none;fill-rule:nonzero"/>
 <path d="m 32 51.2 140.8 0 0 31.794 -140.8 0 z m 0 0" style="fill:#94979c;fill-opacity:1;stroke:none;fill-rule:nonzero"/>
 <path d="m 44.8 44.8 121.6 0 0 83.2 -121.6 0 z m 0 0" style="fill:#d7d7d9;fill-opacity:1;stroke:none;fill-rule:nonzero"/>
 <path d="m 38.4 57.6 121.6 0 0 83.2 -121.6 0 z m 0 0" style="fill:#f8f8f8;fill-opacity:1;stroke:none;fill-rule:nonzero"/>
 <path d="m 6.4 64 192 0 -13.713 115.2 -164.57 0 z m 0 0" style="fill:#ef5350;fill-opacity:1;stroke:none;fill-rule:nonzero"/>
 <path d="m 115.2 76.8 c -17.672 0 -32 14.328 -32 32 0 6.719 2.063 12.953 5.6 18.1 -0.787 0.313 -1.512 0.763 -2.15 1.4 l -27.15 27.15 c -2.506 2.506 -2.506 6.544 0 9.05 2.506 2.506 6.544 2.506 9.05 0 l 27.15 -27.15 c 0.638 -0.637 1.088 -1.363 1.4 -2.15 5.147 3.537 11.381 5.6 18.1 5.6 17.672 0 32 -14.328 32 -32 0 -17.672 -14.328 -32 -32 -32 z m 0 9.6 c 12.372 0 22.4 10.03 22.4 22.4 0 12.372 -10.03 22.4 -22.4 22.4 -12.372 0 -22.4 -10.03 -22.4 -22.4 0 -12.372 10.03 -22.4 22.4 -22.4 z m 0 0" style="fill:#ab3634;opacity:1;fill-opacity:1;stroke:none;fill-rule:nonzero"/>
</svg>
