<?xml version="1.0" encoding="UTF-8" standalone="no"?>
<svg
   xmlns:dc="http://purl.org/dc/elements/1.1/"
   xmlns:cc="http://creativecommons.org/ns#"
   xmlns:rdf="http://www.w3.org/1999/02/22-rdf-syntax-ns#"
   xmlns:svg="http://www.w3.org/2000/svg"
   xmlns="http://www.w3.org/2000/svg"
   xmlns:sodipodi="http://sodipodi.sourceforge.net/DTD/sodipodi-0.dtd"
   xmlns:inkscape="http://www.inkscape.org/namespaces/inkscape"
   width="256"
   height="256"
   viewBox="0 0 204.8 204.8"
   version="1.1"
   id="svg3081"
   inkscape:version="0.91 r"
   sodipodi:docname="red-folder-download.svg">
  <metadata
     id="metadata3102">
    <rdf:RDF>
      <cc:Work
         rdf:about="">
        <dc:format>image/svg+xml</dc:format>
        <dc:type
           rdf:resource="http://purl.org/dc/dcmitype/StillImage" />
      </cc:Work>
    </rdf:RDF>
  </metadata>
  <defs
     id="defs3100" />
  <sodipodi:namedview
     pagecolor="#ffffff"
     bordercolor="#666666"
     borderopacity="1"
     objecttolerance="10"
     gridtolerance="10"
     guidetolerance="10"
     inkscape:pageopacity="0"
     inkscape:pageshadow="2"
     inkscape:window-width="1280"
     inkscape:window-height="998"
     id="namedview3098"
     showgrid="false"
     inkscape:zoom="1.475"
     inkscape:cx="68.434074"
     inkscape:cy="144.72893"
     inkscape:window-x="0"
     inkscape:window-y="0"
     inkscape:window-maximized="1"
     inkscape:current-layer="svg3081" />
  <path
     id="path3084"
     d="m 19.2,38.4 166.4,0 0,64 -166.4,0 z m 0,0"
     style="fill:#d32f2f;fill-opacity:1;fill-rule:nonzero;stroke:none"
     inkscape:connector-curvature="0" />
  <path
     id="path3086"
     d="m 38.4,38.4 c 0,-6.4 0,-12.8 9.30625,-12.8 l 32.587502,0 C 89.6,25.6 89.6,32 89.6,38.4 l 0,6.4 -51.2,0 z m 0,0"
     style="fill:#d32f2f;fill-opacity:1;fill-rule:nonzero;stroke:none"
     inkscape:connector-curvature="0" />
  <path
     id="path3088"
     d="m 32,51.2 140.8,0 0,31.793752 -140.8,0 z m 0,0"
     style="fill:#94979c;fill-opacity:1;fill-rule:nonzero;stroke:none"
     inkscape:connector-curvature="0" />
  <path
     id="path3090"
     d="m 44.8,44.8 121.6,0 0,83.2 -121.6,0 z m 0,0"
     style="fill:#d7d7d9;fill-opacity:1;fill-rule:nonzero;stroke:none"
     inkscape:connector-curvature="0" />
  <path
     id="path3092"
     d="m 38.4,57.6 121.6,0 0,83.2 -121.6,0 z m 0,0"
     style="fill:#f8f8f8;fill-opacity:1;fill-rule:nonzero;stroke:none"
     inkscape:connector-curvature="0" />
  <path
     id="path3094"
     d="m 6.4,64 192,0 -13.7125,115.2 -164.575,0 z m 0,0"
     style="fill:#ef5350;fill-opacity:1;fill-rule:nonzero;stroke:none"
     inkscape:connector-curvature="0" />
  <path
     id="path3096"
     d="M 102.4,80 C 98.853128,80 96,82.853128 96,86.4 l 0,32 -12.8,0 c -6.4,0 -6.4,0 0,6.4 L 96,137.6 c 6.4,6.4 6.4,6.4 12.8,0 l 12.8,-12.8 c 6.4,-6.4 6.4,-6.4 0,-6.4 l -12.8,0 0,-32 c 0,-3.546872 -2.85313,-6.4 -6.4,-6.4 z m -38.65,44.8 c -3.41875,0 -6.15,2.85313 -6.15,6.4 l 0,25.9 c 0,0.18438 0.03438,0.36875 0.05,0.55 0.025,0.18438 0.0625,0.36875 0.1,0.55 0.215625,1.14062 0.721875,2.125 1.5,2.95 0.05625,0.0625 0.09375,0.14062 0.15,0.2 0.075,0.075 0.16875,0.12813 0.25,0.2 0.2125,0.2 0.4125,0.38438 0.65,0.55 0.03125,0.0187 0.06875,0.0313 0.1,0.05 0.634375,0.42813 1.38125,0.7375 2.15,0.9 0.259375,0.0562 0.53125,0.075 0.8,0.1 0.140625,0.009 0.25625,0.05 0.4,0.05 0.08438,0.003 0.165625,0 0.25,0 l 76.8,0 c 0.5,0 0.98438,-0.0469 1.45,-0.15 0.76875,-0.1625 1.51562,-0.47187 2.15,-0.9 0.26875,-0.175 0.5125,-0.39062 0.75,-0.6 0.0625,-0.0594 0.14062,-0.0906 0.2,-0.15 0.0782,-0.075 0.125,-0.17187 0.2,-0.25 0.1875,-0.2125 0.39062,-0.4125 0.55,-0.65 0.5875,-0.83125 0.95313,-1.79375 1.05,-2.85 0.0218,-0.18125 0.0406,-0.36562 0.05,-0.55 l 0,-25.9 c 0,-3.54687 -2.73125,-6.4 -6.15,-6.4 l -0.5,0 c -3.41875,0 -6.15,2.85313 -6.15,6.4 l 0,19.2 -64,0 0,-19.2 c 0,-3.54687 -2.73125,-6.4 -6.15,-6.4 z m 0,0"
     style="fill:#ab3634;fill-opacity:1;fill-rule:nonzero;stroke:none;opacity:1.0"
     inkscape:connector-curvature="0" />
</svg>
