
<svg xmlns="http://www.w3.org/2000/svg" xmlns:xlink="http://www.w3.org/1999/xlink" width="48px" height="48px" viewBox="0 0 48 48" version="1.1">
<g id="surface1">
<path style=" stroke:none;fill-rule:nonzero;fill:rgb(76.862745%,56.470588%,36.862745%);fill-opacity:1;" d="M 3.046875 6 C 2.199219 6.082031 1.484375 6.882812 1.5 7.734375 L 1.5 40.265625 C 1.488281 41.175781 2.324219 42.011719 3.234375 42 L 44.765625 42 C 45.675781 42.011719 46.511719 41.175781 46.5 40.265625 L 46.5 10.734375 C 46.511719 9.824219 45.675781 8.988281 44.765625 9 L 28.5 9 L 28.5 7.734375 C 28.511719 6.839844 27.707031 6.015625 26.8125 6 L 3.234375 6 C 3.171875 5.996094 3.109375 5.996094 3.046875 6 Z M 29.109375 18.75 C 29.292969 18.773438 29.453125 18.835938 29.625 18.9375 C 30.3125 19.335938 30.585938 20.257812 30.1875 20.953125 C 29.789062 21.648438 28.90625 21.871094 28.21875 21.46875 C 27.53125 21.070312 27.304688 20.195312 27.703125 19.5 C 28 18.976562 28.554688 18.679688 29.109375 18.75 Z M 25.265625 20.296875 C 25.839844 20.296875 26.421875 20.382812 26.953125 20.53125 C 27.046875 21.117188 27.394531 21.664062 27.9375 21.984375 C 28.484375 22.304688 29.082031 22.332031 29.625 22.125 C 30.691406 23.183594 31.402344 24.597656 31.5 26.203125 L 29.4375 26.25 C 29.25 24.078125 27.460938 22.359375 25.265625 22.359375 C 24.628906 22.359375 24.023438 22.527344 23.484375 22.78125 L 22.5 20.953125 C 23.332031 20.539062 24.265625 20.296875 25.265625 20.296875 Z M 21.796875 21.375 L 22.828125 23.15625 C 21.746094 23.925781 21.046875 25.183594 21.046875 26.625 C 21.046875 28.058594 21.746094 29.324219 22.828125 30.09375 L 21.796875 31.875 C 20.539062 31.023438 19.605469 29.742188 19.21875 28.21875 C 19.667969 27.839844 19.96875 27.261719 19.96875 26.625 C 19.96875 25.980469 19.667969 25.410156 19.21875 25.03125 C 19.605469 23.507812 20.539062 22.226562 21.796875 21.375 Z M 17.953125 25.171875 C 18.75 25.171875 19.359375 25.816406 19.359375 26.625 C 19.359375 27.425781 18.75 28.078125 17.953125 28.078125 C 17.160156 28.078125 16.5 27.425781 16.5 26.625 C 16.5 25.816406 17.160156 25.171875 17.953125 25.171875 Z M 29.4375 27 L 31.5 27.046875 C 31.402344 28.652344 30.691406 30.066406 29.625 31.125 C 29.082031 30.917969 28.484375 30.945312 27.9375 31.265625 C 27.394531 31.585938 27.046875 32.128906 26.953125 32.71875 C 26.421875 32.867188 25.839844 32.953125 25.265625 32.953125 C 24.265625 32.953125 23.332031 32.710938 22.5 32.296875 L 23.484375 30.46875 C 24.023438 30.722656 24.628906 30.890625 25.265625 30.890625 C 27.460938 30.890625 29.25 29.171875 29.4375 27 Z M 28.734375 31.59375 C 29.289062 31.523438 29.886719 31.773438 30.1875 32.296875 C 30.585938 32.992188 30.3125 33.914062 29.625 34.3125 C 28.9375 34.714844 28.097656 34.445312 27.703125 33.75 C 27.304688 33.054688 27.53125 32.179688 28.21875 31.78125 C 28.390625 31.679688 28.550781 31.617188 28.734375 31.59375 Z M 28.734375 31.59375 "/>
</g>
</svg>
