<?xml version="1.0" encoding="UTF-8"?>
<svg xmlns="http://www.w3.org/2000/svg" xmlns:xlink="http://www.w3.org/1999/xlink" width="48pt" height="48pt" viewBox="0 0 48 48" version="1.1">
<g id="surface1">
<path style=" stroke:none;fill-rule:nonzero;fill:rgb(76.862745%,56.470588%,36.862745%);fill-opacity:1;" d="M 3.046875 6 C 2.199219 6.082031 1.484375 6.882812 1.5 7.734375 L 1.5 40.265625 C 1.488281 41.175781 2.324219 42.011719 3.234375 42 L 44.765625 42 C 45.675781 42.011719 46.511719 41.175781 46.5 40.265625 L 46.5 10.734375 C 46.511719 9.824219 45.675781 8.988281 44.765625 9 L 28.5 9 L 28.5 7.734375 C 28.511719 6.839844 27.707031 6.015625 26.8125 6 L 3.234375 6 C 3.171875 5.996094 3.109375 5.996094 3.046875 6 Z M 22.828125 18.015625 L 25.21875 18.015625 C 25.632812 18.015625 25.921875 18.351562 25.921875 18.765625 L 25.921875 19.75 C 26.191406 19.839844 26.46875 19.90625 26.71875 20.03125 L 27.421875 19.375 C 27.714844 19.082031 28.160156 19.082031 28.453125 19.375 L 30.140625 21.0625 C 30.433594 21.355469 30.433594 21.800781 30.140625 22.09375 L 29.484375 22.796875 C 29.605469 23.042969 29.675781 23.332031 29.765625 23.59375 L 30.75 23.59375 C 31.164062 23.59375 31.5 23.882812 31.5 24.296875 L 31.5 26.734375 C 31.5 27.152344 31.164062 27.4375 30.75 27.4375 L 29.765625 27.4375 C 29.675781 27.699219 29.605469 27.988281 29.484375 28.234375 L 30.140625 28.9375 C 30.433594 29.230469 30.433594 29.675781 30.140625 29.96875 L 28.453125 31.65625 C 28.160156 31.949219 27.714844 31.949219 27.421875 31.65625 L 26.71875 31 C 26.46875 31.125 26.191406 31.191406 25.921875 31.28125 L 25.921875 32.265625 C 25.921875 32.683594 25.632812 33.015625 25.21875 33.015625 L 22.828125 33.015625 C 22.414062 33.015625 22.078125 32.683594 22.078125 32.265625 L 22.078125 31.28125 C 21.816406 31.191406 21.527344 31.121094 21.28125 31 L 20.625 31.65625 C 20.332031 31.949219 19.839844 31.949219 19.546875 31.65625 L 17.859375 29.96875 C 17.566406 29.675781 17.566406 29.230469 17.859375 28.9375 L 18.515625 28.234375 C 18.390625 27.984375 18.324219 27.707031 18.234375 27.4375 L 17.25 27.4375 C 16.835938 27.4375 16.5 27.152344 16.5 26.734375 L 16.5 24.296875 C 16.5 23.882812 16.835938 23.59375 17.25 23.59375 L 18.234375 23.59375 C 18.324219 23.324219 18.390625 23.046875 18.515625 22.796875 L 17.859375 22.09375 C 17.566406 21.800781 17.566406 21.355469 17.859375 21.0625 L 19.546875 19.375 C 19.839844 19.082031 20.332031 19.082031 20.625 19.375 L 21.28125 20.03125 C 21.527344 19.910156 21.816406 19.839844 22.078125 19.75 L 22.078125 18.765625 C 22.078125 18.351562 22.414062 18.015625 22.828125 18.015625 Z M 23.625 23.59375 C 22.738281 23.773438 22.078125 24.578125 22.078125 25.515625 C 22.078125 26.589844 22.925781 27.4375 24 27.4375 C 25.074219 27.4375 25.921875 26.589844 25.921875 25.515625 C 25.921875 24.441406 25.074219 23.59375 24 23.59375 C 23.867188 23.59375 23.75 23.566406 23.625 23.59375 Z M 23.625 23.59375 "/>
</g>
</svg>
