
<svg xmlns="http://www.w3.org/2000/svg" xmlns:xlink="http://www.w3.org/1999/xlink" width="64px" height="64px" viewBox="0 0 64 64" version="1.1">
<g id="surface1">
<path style=" stroke:none;fill-rule:nonzero;fill:rgb(76.862745%,56.470588%,36.862745%);fill-opacity:1;" d="M 4.0625 8 C 2.933594 8.109375 1.980469 9.179688 2 10.3125 L 2 53.6875 C 1.984375 54.902344 3.097656 56.015625 4.3125 56 L 59.6875 56 C 60.902344 56.015625 62.015625 54.902344 62 53.6875 L 62 14.3125 C 62.015625 13.097656 60.902344 11.984375 59.6875 12 L 38 12 L 38 10.3125 C 38.015625 9.117188 36.945312 8.019531 35.75 8 L 4.3125 8 C 4.230469 7.996094 4.144531 7.996094 4.0625 8 Z M 39.75 26 C 39.925781 26 40.078125 26.023438 40.25 26.0625 C 40.257812 26.070312 40.304688 26.054688 40.3125 26.0625 C 41.414062 27.003906 42.304688 28.128906 42.9375 29.375 C 42.945312 29.394531 42.929688 29.425781 42.9375 29.4375 C 43.09375 29.851562 43.273438 30.28125 43.4375 30.8125 C 43.53125 31.105469 43.628906 31.425781 43.75 31.75 C 43.886719 32.386719 44 33.074219 44 33.75 C 44 39.628906 38.644531 46 32 46 C 25.785156 46 20.632812 40.164062 20 34.8125 C 20.171875 34.734375 23.488281 31.175781 30.125 33.875 C 38.195312 37.144531 41.792969 33.886719 42.125 32.5 C 42.457031 31.113281 41.96875 28.5 40.625 28.5 C 39.28125 28.5 37.648438 29.144531 37.875 27.5625 C 38.011719 26.578125 38.863281 26.011719 39.75 26 Z M 36.0625 27.1875 C 36.324219 27.1875 36.5625 27.390625 36.5625 27.625 C 36.5625 27.851562 36.324219 28 36.0625 28 C 35.800781 28 35.625 27.851562 35.625 27.625 C 35.625 27.390625 35.800781 27.1875 36.0625 27.1875 Z M 37.25 29.1875 C 37.621094 29.1875 37.875 29.425781 37.875 29.75 C 37.875 30.082031 37.621094 30.375 37.25 30.375 C 36.878906 30.375 36.5625 30.082031 36.5625 29.75 C 36.5625 29.425781 36.878906 29.1875 37.25 29.1875 Z M 37.25 29.1875 "/>
</g>
</svg>
