
<svg xmlns="http://www.w3.org/2000/svg" xmlns:xlink="http://www.w3.org/1999/xlink" width="64px" height="64px" viewBox="0 0 64 64" version="1.1">
<g id="surface1">
<path style=" stroke:none;fill-rule:nonzero;fill:rgb(76.862745%,56.470588%,36.862745%);fill-opacity:1;" d="M 4.0625 8 C 2.933594 8.109375 1.980469 9.179688 2 10.3125 L 2 53.6875 C 1.984375 54.902344 3.097656 56.015625 4.3125 56 L 59.6875 56 C 60.902344 56.015625 62.015625 54.902344 62 53.6875 L 62 14.3125 C 62.015625 13.097656 60.902344 11.984375 59.6875 12 L 38 12 L 38 10.3125 C 38.015625 9.117188 36.945312 8.019531 35.75 8 L 4.3125 8 C 4.230469 7.996094 4.144531 7.996094 4.0625 8 Z M 23.25 26 L 25.5625 28.3125 C 27.296875 26.855469 29.554688 26 32 26 C 37.523438 26 42 30.476562 42 36 C 42 41.523438 37.523438 46 32 46 C 26.476562 46 22 41.523438 22 36 C 22 35.136719 22.105469 34.296875 22.3125 33.5 L 24.9375 33.5 C 24.660156 34.285156 24.5 35.121094 24.5 36 C 24.5 40.136719 27.851562 43.5 32 43.5 C 36.148438 43.5 39.5 40.136719 39.5 36 C 39.5 31.855469 36.148438 28.5 32 28.5 C 30.25 28.5 28.65625 29.121094 27.375 30.125 L 29.5 32.25 L 23.25 32.25 Z M 31.875 29.6875 C 32.234375 29.652344 32.609375 29.8125 32.875 30.0625 C 33.140625 30.304688 33.257812 30.640625 33.25 31 L 33.25 35.25 L 35.875 36.75 C 36.476562 37.09375 36.65625 37.898438 36.3125 38.5 C 35.96875 39.101562 35.234375 39.34375 34.625 39 L 31.5 37.1875 C 31.449219 37.164062 31.425781 37.15625 31.375 37.125 C 31.34375 37.109375 31.335938 37.078125 31.3125 37.0625 C 31.296875 37.046875 31.257812 37.015625 31.25 37 C 31.234375 36.992188 31.203125 37.015625 31.1875 37 C 31.164062 36.984375 31.148438 36.953125 31.125 36.9375 L 31.125 36.875 L 31.0625 36.875 L 31 36.8125 L 31 36.75 C 30.984375 36.726562 30.953125 36.710938 30.9375 36.6875 C 30.761719 36.410156 30.675781 36.070312 30.75 35.75 L 30.75 31 C 30.734375 30.40625 31.164062 29.882812 31.75 29.75 C 31.800781 29.734375 31.824219 29.695312 31.875 29.6875 Z M 31.875 29.6875 "/>
</g>
</svg>
