<?xml version="1.0" encoding="UTF-8"?>
<svg xmlns="http://www.w3.org/2000/svg" xmlns:xlink="http://www.w3.org/1999/xlink" width="48pt" height="48pt" viewBox="0 0 48 48" version="1.1">
<g id="surface1">
<path style=" stroke:none;fill-rule:nonzero;fill:rgb(76.862745%,56.470588%,36.862745%);fill-opacity:1;" d="M 3.046875 6 C 2.199219 6.082031 1.484375 6.882812 1.5 7.734375 L 1.5 40.265625 C 1.488281 41.175781 2.324219 42.011719 3.234375 42 L 44.765625 42 C 45.675781 42.011719 46.511719 41.175781 46.5 40.265625 L 46.5 10.734375 C 46.511719 9.824219 45.675781 8.988281 44.765625 9 L 28.5 9 L 28.5 7.734375 C 28.511719 6.839844 27.707031 6.015625 26.8125 6 L 3.234375 6 C 3.171875 5.996094 3.109375 5.996094 3.046875 6 Z M 27.328125 18.078125 C 27.742188 18.082031 28.1875 18.207031 28.546875 18.453125 C 29.980469 19.4375 31.5 19.578125 31.5 19.578125 C 31.5 19.578125 30.320312 21.4375 28.5 21.078125 C 26.78125 20.742188 25.652344 21.121094 25.59375 21.171875 L 25.546875 28.625 C 25.546875 28.675781 25.550781 28.714844 25.546875 28.765625 C 25.464844 30.359375 24.460938 31.96875 22.546875 32.703125 C 20.117188 33.636719 17.570312 32.8125 16.828125 30.875 C 16.085938 28.9375 17.445312 26.605469 19.875 25.671875 C 21.757812 24.953125 22.863281 25.292969 24 26.375 L 24 18.125 C 24 18.125 26.085938 18.0625 27.328125 18.078125 Z M 27.328125 18.078125 "/>
</g>
</svg>
