<?xml version="1.0" encoding="UTF-8" standalone="no"?>
<svg
   xmlns:dc="http://purl.org/dc/elements/1.1/"
   xmlns:cc="http://creativecommons.org/ns#"
   xmlns:rdf="http://www.w3.org/1999/02/22-rdf-syntax-ns#"
   xmlns:svg="http://www.w3.org/2000/svg"
   xmlns="http://www.w3.org/2000/svg"
   xmlns:sodipodi="http://sodipodi.sourceforge.net/DTD/sodipodi-0.dtd"
   xmlns:inkscape="http://www.inkscape.org/namespaces/inkscape"
   width="64"
   height="64"
   viewBox="0 0 64 64"
   id="svg2"
   version="1.1"
   inkscape:version="0.48.5 r10040"
   sodipodi:docname="folder-pictures.svg">
  <metadata
     id="metadata30">
    <rdf:RDF>
      <cc:Work
         rdf:about="">
        <dc:format>image/svg+xml</dc:format>
        <dc:type
           rdf:resource="http://purl.org/dc/dcmitype/StillImage" />
      </cc:Work>
    </rdf:RDF>
  </metadata>
  <defs
     id="defs28" />
  <sodipodi:namedview
     pagecolor="#ffffff"
     bordercolor="#666666"
     borderopacity="1"
     objecttolerance="10"
     gridtolerance="10"
     guidetolerance="10"
     inkscape:pageopacity="0"
     inkscape:pageshadow="2"
     inkscape:window-width="1280"
     inkscape:window-height="969"
     id="namedview26"
     showgrid="false"
     inkscape:zoom="3.6875"
     inkscape:cx="-12.745763"
     inkscape:cy="31.457627"
     inkscape:window-x="0"
     inkscape:window-y="0"
     inkscape:window-maximized="1"
     inkscape:current-layer="svg2" />
  <path
     style="fill:#e9b080;fill-opacity:1;stroke:none"
     d="M 9,8.0000003 C 7.536083,8.0000003 6,9.5112227 6,11 l 0,1 -3,0 c -1.470099,0 -3,1.49533 -3,3 l 0,38 c 0,2 1,3 3,3 l 58,0 c 1.567614,0 3,-1.358342 3,-3 l 0,-33 c 0,-1.504928 -1.455038,-3 -3,-3 l -3,0 0,-6 C 58,9.5388441 56.546781,8.0000003 55,8.0000003 z"
     id="path6"
     inkscape:connector-curvature="0"
     sodipodi:nodetypes="ssccssssscccsss" />
  <path
     style="fill:#000000;fill-opacity:0.32156864"
     d="M 23.375 26 C 22.671876 26.06641 22.078125 26.800782 22.09375 27.59375 L 22.09375 38.28125 C 22.070318 38.299868 22.019798 38.360355 22 38.375 C 22.029362 38.360493 22.064388 38.35825 22.09375 38.34375 L 22.09375 44.4375 C 22.09765 45.265625 22.765625 46.015625 23.5 46 L 40.625 46 C 41.351563 45.992188 41.992188 45.253906 42 44.4375 L 42 27.59375 C 42.015625 26.765625 41.367188 26.007812 40.625 26 L 23.375 26 z M 24 28 L 40 28 L 40 39.84375 C 39.714329 39.505306 39.543199 39.331473 39.21875 38.9375 C 38.113282 37.605469 36.84375 36.015624 35.3125 34.09375 C 35.011719 34.394531 34.621094 34.78125 34.125 35.25 C 33.625 35.710938 33.039063 36.21875 32.34375 36.84375 C 32.257813 36.9375 31.902344 36.601562 31.25 35.78125 C 30.574219 34.953124 29.667969 33.679687 28.4375 31.9375 C 26.5625 33.894531 25.117188 35.386718 24.03125 36.46875 C 24.018121 36.481832 24.013004 36.487053 24 36.5 L 24 28 z "
     id="path12" />
  <path
     inkscape:connector-curvature="0"
     style="fill:#000000;fill-opacity:0.32156863;stroke:none"
     d="M 9,8.0000003 C 7.536083,8.0000003 6,9.5112227 6,11 l 0,1 -3,0 c -1.470099,0 -3,1.49533 -3,3 l 0,38 c 0,2 1,3 3,3 l 58,0 c 1.567614,0 3,-1.358342 3,-3 l 0,-33 c 0,-1.504928 -1.455038,-3 -3,-3 l -3,0 0,-6 C 58,9.5388441 56.546781,8.0000003 55,8.0000003 l -46,0 z M 3,14 37,14 c 0.590175,0 1,0.51477 1,1 l 0,4 23,0 c 0.505551,0 1,0.508742 1,1 l 0,33 c 0,0.521292 -0.478766,1 -1,1 L 3,54 C 2.535705,54 2,53.603654 2,53 L 2,15 c 0,-0.492405 0.516529,-1 1,-1 z"
     id="path3778" />
</svg>
