<?xml version="1.0" encoding="UTF-8"?>
<svg xmlns="http://www.w3.org/2000/svg" xmlns:xlink="http://www.w3.org/1999/xlink" width="48pt" height="48pt" viewBox="0 0 48 48" version="1.1">
<g id="surface1">
<path style=" stroke:none;fill-rule:nonzero;fill:rgb(76.862745%,56.470588%,36.862745%);fill-opacity:1;" d="M 3.046875 6 C 2.199219 6.082031 1.484375 6.882812 1.5 7.734375 L 1.5 40.265625 C 1.488281 41.175781 2.324219 42.011719 3.234375 42 L 44.765625 42 C 45.675781 42.011719 46.511719 41.175781 46.5 40.265625 L 46.5 10.734375 C 46.511719 9.824219 45.675781 8.988281 44.765625 9 L 28.5 9 L 28.5 7.734375 C 28.511719 6.839844 27.707031 6.015625 26.8125 6 L 3.234375 6 C 3.171875 5.996094 3.109375 5.996094 3.046875 6 Z M 26.1875 18.015625 C 29.066406 18.015625 31.4375 20.382812 31.4375 23.265625 C 31.4375 26.148438 29.066406 28.515625 26.1875 28.515625 C 25.269531 28.515625 24.457031 28.230469 23.703125 27.8125 C 23.636719 27.914062 23.558594 28.011719 23.46875 28.09375 L 20.46875 31.09375 C 19.902344 31.660156 18.875 31.660156 18.3125 31.09375 C 17.746094 30.53125 17.746094 29.503906 18.3125 28.9375 L 21.3125 25.9375 C 21.398438 25.863281 21.492188 25.800781 21.59375 25.75 C 21.179688 25 20.9375 24.171875 20.9375 23.265625 C 20.9375 20.382812 23.304688 18.015625 26.1875 18.015625 Z M 26.1875 19.515625 C 23.90625 19.515625 22.4375 21.03125 22.4375 23.265625 C 22.4375 25.53125 23.90625 27.015625 26.1875 27.015625 C 28.40625 27.015625 29.9375 25.5 29.9375 23.359375 C 29.9375 21 28.40625 19.515625 26.1875 19.515625 Z M 26.1875 19.515625 "/>
</g>
</svg>
