<?xml version="1.0" encoding="UTF-8" standalone="no"?>
<svg
   xmlns:dc="http://purl.org/dc/elements/1.1/"
   xmlns:cc="http://creativecommons.org/ns#"
   xmlns:rdf="http://www.w3.org/1999/02/22-rdf-syntax-ns#"
   xmlns:svg="http://www.w3.org/2000/svg"
   xmlns="http://www.w3.org/2000/svg"
   xmlns:sodipodi="http://sodipodi.sourceforge.net/DTD/sodipodi-0.dtd"
   xmlns:inkscape="http://www.inkscape.org/namespaces/inkscape"
   width="64"
   height="64"
   viewBox="0 0 64 64"
   id="svg3023"
   version="1.1"
   inkscape:version="0.48.5 r10040"
   sodipodi:docname="folder-recent.svg">
  <metadata
     id="metadata3037">
    <rdf:RDF>
      <cc:Work
         rdf:about="">
        <dc:format>image/svg+xml</dc:format>
        <dc:type
           rdf:resource="http://purl.org/dc/dcmitype/StillImage" />
      </cc:Work>
    </rdf:RDF>
  </metadata>
  <defs
     id="defs3035" />
  <sodipodi:namedview
     pagecolor="#ffffff"
     bordercolor="#666666"
     borderopacity="1"
     objecttolerance="10"
     gridtolerance="10"
     guidetolerance="10"
     inkscape:pageopacity="0"
     inkscape:pageshadow="2"
     inkscape:window-width="1280"
     inkscape:window-height="969"
     id="namedview3033"
     showgrid="false"
     inkscape:zoom="10.429825"
     inkscape:cx="25.955071"
     inkscape:cy="29.582787"
     inkscape:window-x="0"
     inkscape:window-y="0"
     inkscape:window-maximized="1"
     inkscape:current-layer="svg3023" />
  <path
     style="fill:#e9b080;fill-opacity:1;stroke:none"
     d="M 9,8.0000001 C 7.536083,8.0000001 6,9.5112225 6,11 l 0,1 -3,0 c -1.470099,0 -3,1.49533 -3,3 l 0,38 c 0,2 1,3 3,3 l 58,0 c 1.567614,0 3,-1.358342 3,-3 l 0,-33 c 0,-1.504928 -1.455038,-3 -3,-3 l -3,0 0,-6 C 58,9.5388439 56.546781,8.0000001 55,8.0000001 z"
     id="path6"
     inkscape:connector-curvature="0"
     sodipodi:nodetypes="ssccssssscccsss" />
  <path
     style="fill:#000000;fill-opacity:0.32156864"
     d="M 23.246094 26 L 23.246094 32.253906 L 29.5 32.253906 L 27.347656 30.101562 C 28.628906 29.097656 30.25 28.503906 32 28.503906 C 36.148438 28.503906 39.5 31.859375 39.5 36.003906 C 39.5 40.140625 36.148438 43.503906 32 43.503906 C 27.851562 43.503906 24.5 40.140625 24.5 36.003906 C 24.5 35.125 24.652344 34.28125 24.929688 33.5 L 22.308594 33.5 C 22.101562 34.296875 22 35.140625 22 36.003906 C 22 41.527344 26.476562 46 32 46 C 37.523438 46 42 41.527344 42 36.003906 C 42 30.480469 37.523438 26 32 26 C 29.554688 26 27.289062 26.847656 25.554688 28.308594 Z M 31.882812 29.714844 C 31.832031 29.71875 31.78125 29.734375 31.730469 29.75 C 31.144531 29.882812 30.734375 30.410156 30.746094 31 L 30.746094 35.609375 C 30.746094 35.652344 30.746094 35.6875 30.746094 35.726562 C 30.675781 36.046875 30.734375 36.382812 30.910156 36.664062 C 30.914062 36.675781 30.929688 36.691406 30.945312 36.707031 C 30.960938 36.730469 30.96875 36.757812 30.980469 36.78125 C 30.996094 36.792969 31.011719 36.808594 31.027344 36.824219 C 31.03125 36.832031 31.046875 36.847656 31.0625 36.859375 C 31.078125 36.875 31.089844 36.890625 31.097656 36.898438 C 31.113281 36.910156 31.128906 36.925781 31.144531 36.941406 C 31.164062 36.957031 31.195312 36.964844 31.214844 36.976562 C 31.230469 36.992188 31.246094 37.007812 31.261719 37.015625 C 31.265625 37.027344 31.28125 37.042969 31.296875 37.058594 C 31.320312 37.074219 31.347656 37.082031 31.378906 37.09375 C 31.429688 37.125 31.480469 37.152344 31.53125 37.175781 L 34.617188 38.96875 C 35.222656 39.3125 35.992188 39.101562 36.335938 38.5 C 36.679688 37.902344 36.46875 37.125 35.867188 36.78125 L 33.253906 35.257812 L 33.253906 31 C 33.261719 30.644531 33.121094 30.292969 32.855469 30.050781 C 32.59375 29.800781 32.242188 29.675781 31.882812 29.714844 Z "
     id="path3031" />
  <path
     inkscape:connector-curvature="0"
     style="fill:#000000;fill-opacity:0.32156863;stroke:none"
     d="M 9,8.0000001 C 7.536083,8.0000001 6,9.5112225 6,11 l 0,1 -3,0 c -1.470099,0 -3,1.49533 -3,3 l 0,38 c 0,2 1,3 3,3 l 58,0 c 1.567614,0 3,-1.358342 3,-3 l 0,-33 c 0,-1.504928 -1.455038,-3 -3,-3 l -3,0 0,-6 C 58,9.5388439 56.546781,8.0000001 55,8.0000001 l -46,0 z M 3,14 37,14 c 0.590175,0 1,0.51477 1,1 l 0,4 23,0 c 0.505551,0 1,0.508742 1,1 l 0,33 c 0,0.521292 -0.478766,1 -1,1 L 3,54 C 2.535705,54 2,53.603654 2,53 L 2,15 c 0,-0.492405 0.516529,-1 1,-1 z"
     id="path3778" />
</svg>
