<?xml version="1.0" encoding="UTF-8"?>
<svg xmlns="http://www.w3.org/2000/svg" xmlns:xlink="http://www.w3.org/1999/xlink" width="48pt" height="48pt" viewBox="0 0 48 48" version="1.1">
<g id="surface1">
<path style=" stroke:none;fill-rule:nonzero;fill:rgb(76.862745%,56.470588%,36.862745%);fill-opacity:1;" d="M 3.046875 6 C 2.199219 6.082031 1.484375 6.882812 1.5 7.734375 L 1.5 40.265625 C 1.488281 41.175781 2.324219 42.011719 3.234375 42 L 44.765625 42 C 45.675781 42.011719 46.511719 41.175781 46.5 40.265625 L 46.5 10.734375 C 46.511719 9.824219 45.675781 8.988281 44.765625 9 L 28.5 9 L 28.5 7.734375 C 28.511719 6.839844 27.707031 6.015625 26.8125 6 L 3.234375 6 C 3.171875 5.996094 3.109375 5.996094 3.046875 6 Z M 30.46875 16.453125 C 31.035156 16.460938 31.507812 17.050781 31.5 17.671875 L 31.476562 31.828125 C 31.472656 32.441406 31.003906 32.992188 30.445312 33 L 17.507812 33.046875 C 16.941406 33.054688 16.4375 32.496094 16.429688 31.875 L 16.453125 17.71875 C 16.445312 17.125 16.898438 16.550781 17.4375 16.5 L 17.53125 16.5 Z M 18 18 L 18 28.5 L 30 28.5 L 30 18 Z M 18 18 "/>
</g>
</svg>
