<?xml version="1.0" encoding="UTF-8" standalone="no"?>
<svg
   xmlns:dc="http://purl.org/dc/elements/1.1/"
   xmlns:cc="http://creativecommons.org/ns#"
   xmlns:rdf="http://www.w3.org/1999/02/22-rdf-syntax-ns#"
   xmlns:svg="http://www.w3.org/2000/svg"
   xmlns="http://www.w3.org/2000/svg"
   xmlns:sodipodi="http://sodipodi.sourceforge.net/DTD/sodipodi-0.dtd"
   xmlns:inkscape="http://www.inkscape.org/namespaces/inkscape"
   width="64"
   height="64"
   viewBox="0 0 64 64"
   id="svg3111"
   version="1.1"
   inkscape:version="0.48.5 r10040"
   sodipodi:docname="folder-ubuntu.svg">
  <metadata
     id="metadata3125">
    <rdf:RDF>
      <cc:Work
         rdf:about="">
        <dc:format>image/svg+xml</dc:format>
        <dc:type
           rdf:resource="http://purl.org/dc/dcmitype/StillImage" />
      </cc:Work>
    </rdf:RDF>
  </metadata>
  <defs
     id="defs3123" />
  <sodipodi:namedview
     pagecolor="#ffffff"
     bordercolor="#666666"
     borderopacity="1"
     objecttolerance="10"
     gridtolerance="10"
     guidetolerance="10"
     inkscape:pageopacity="0"
     inkscape:pageshadow="2"
     inkscape:window-width="1280"
     inkscape:window-height="969"
     id="namedview3121"
     showgrid="false"
     inkscape:zoom="10.429825"
     inkscape:cx="46.413882"
     inkscape:cy="27.692748"
     inkscape:window-x="0"
     inkscape:window-y="0"
     inkscape:window-maximized="1"
     inkscape:current-layer="svg3111" />
  <path
     style="fill:#e9b080;fill-opacity:1;stroke:none"
     d="M 9,8.0000004 C 7.536083,8.0000004 6,9.5112224 6,11 l 0,1 -3,0 c -1.470099,0 -3,1.49533 -3,3 l 0,38 c 0,2 1,3 3,3 l 58,0 c 1.567614,0 3,-1.358342 3,-3 l 0,-33 c 0,-1.504928 -1.455038,-3 -3,-3 l -3,0 0,-6 C 58,9.5388434 56.546781,8.0000004 55,8.0000004 z"
     id="path6"
     inkscape:connector-curvature="0"
     sodipodi:nodetypes="ssccssssscccsss" />
  <path
     style="fill:#000000;fill-opacity:0.32156864"
     d="M 23.917969 33.5625 C 22.863281 33.5625 22 34.425781 22 35.503906 C 22 36.574219 22.863281 37.445312 23.917969 37.445312 C 24.980469 37.445312 25.835938 36.574219 25.835938 35.503906 C 25.835938 34.425781 24.980469 33.5625 23.917969 33.5625 Z M 37.609375 42.382812 C 36.691406 42.914062 36.382812 44.101562 36.914062 45.03125 C 37.4375 45.957031 38.613281 46.277344 39.53125 45.738281 C 40.445312 45.207031 40.765625 44.015625 40.234375 43.089844 C 39.703125 42.160156 38.527344 41.84375 37.609375 42.382812 Z M 28.085938 35.503906 C 28.085938 33.585938 29.027344 31.890625 30.46875 30.863281 L 29.066406 28.484375 C 27.390625 29.617188 26.140625 31.351562 25.625 33.386719 C 26.222656 33.886719 26.609375 34.648438 26.609375 35.503906 C 26.609375 36.351562 26.222656 37.113281 25.625 37.613281 C 26.140625 39.648438 27.390625 41.382812 29.066406 42.515625 L 30.46875 40.136719 C 29.027344 39.109375 28.085938 37.414062 28.085938 35.503906 Z M 33.691406 29.832031 C 36.617188 29.832031 39.019531 32.105469 39.265625 35 L 42 34.957031 C 41.867188 32.820312 40.945312 30.898438 39.523438 29.492188 C 38.796875 29.765625 37.957031 29.722656 37.222656 29.300781 C 36.5 28.875 36.039062 28.160156 35.914062 27.378906 C 35.203125 27.179688 34.457031 27.066406 33.691406 27.066406 C 32.359375 27.066406 31.109375 27.386719 30 27.9375 L 31.332031 30.363281 C 32.046875 30.019531 32.84375 29.832031 33.691406 29.832031 Z M 33.691406 41.167969 C 32.84375 41.167969 32.046875 40.980469 31.332031 40.636719 L 30 43.0625 C 31.109375 43.613281 32.359375 43.933594 33.691406 43.933594 C 34.457031 43.933594 35.203125 43.824219 35.914062 43.628906 C 36.039062 42.839844 36.5 42.125 37.222656 41.699219 C 37.957031 41.277344 38.796875 41.234375 39.523438 41.507812 C 40.945312 40.101562 41.867188 38.179688 42 36.042969 L 39.265625 36 C 39.019531 38.894531 36.617188 41.167969 33.691406 41.167969 Z M 37.609375 28.617188 C 38.527344 29.15625 39.703125 28.839844 40.234375 27.910156 C 40.765625 26.984375 40.445312 25.792969 39.53125 25.261719 C 38.613281 24.722656 37.4375 25.042969 36.914062 25.96875 C 36.382812 26.898438 36.691406 28.085938 37.609375 28.617188 Z "
     id="path3119" />
  <path
     inkscape:connector-curvature="0"
     style="fill:#000000;fill-opacity:0.32156863;stroke:none"
     d="M 9,8.0000004 C 7.536083,8.0000004 6,9.5112224 6,11 l 0,1 -3,0 c -1.470099,0 -3,1.49533 -3,3 l 0,38 c 0,2 1,3 3,3 l 58,0 c 1.567614,0 3,-1.358342 3,-3 l 0,-33 c 0,-1.504928 -1.455038,-3 -3,-3 l -3,0 0,-6 C 58,9.5388434 56.546781,8.0000004 55,8.0000004 l -46,0 z M 3,14 37,14 c 0.590175,0 1,0.51477 1,1 l 0,4 23,0 c 0.505551,0 1,0.508742 1,1 l 0,33 c 0,0.521292 -0.478766,1 -1,1 L 3,54 C 2.535705,54 2,53.603654 2,53 L 2,15 c 0,-0.492405 0.516529,-1 1,-1 z"
     id="path3778" />
</svg>
