<?xml version="1.0" encoding="UTF-8"?>
<svg xmlns="http://www.w3.org/2000/svg" xmlns:xlink="http://www.w3.org/1999/xlink" width="64pt" height="64pt" viewBox="0 0 64 64" version="1.1">
<g id="surface1">
<path style=" stroke:none;fill-rule:nonzero;fill:rgb(76.862745%,56.470588%,36.862745%);fill-opacity:1;" d="M 4.0625 8 C 2.933594 8.109375 1.980469 9.179688 2 10.3125 L 2 53.6875 C 1.984375 54.902344 3.097656 56.015625 4.3125 56 L 59.6875 56 C 60.902344 56.015625 62.015625 54.902344 62 53.6875 L 62 14.3125 C 62.015625 13.097656 60.902344 11.984375 59.6875 12 L 38 12 L 38 10.3125 C 38.015625 9.117188 36.945312 8.019531 35.75 8 L 4.3125 8 C 4.230469 7.996094 4.144531 7.996094 4.0625 8 Z M 26 22 L 38 22 L 40 24 L 40 42 C 40 42 40 44 38 44 L 25.75 44 C 25.75 44 24 44 24 42 L 24 24 C 24 24 24 22 26 22 Z M 26 24 L 26 42 L 28 42 L 28 32 L 38 32 L 38 26 L 32 26 L 32 24 Z M 30 34 L 30 42 L 38 34 Z M 30 34 "/>
</g>
</svg>
