
<svg xmlns="http://www.w3.org/2000/svg" xmlns:xlink="http://www.w3.org/1999/xlink" width="48px" height="48px" viewBox="0 0 48 48" version="1.1">
<g id="surface1">
<path style=" stroke:none;fill-rule:nonzero;fill:rgb(76.862745%,56.470588%,36.862745%);fill-opacity:1;" d="M 3.046875 6 C 2.199219 6.082031 1.484375 6.882812 1.5 7.734375 L 1.5 40.265625 C 1.488281 41.175781 2.324219 42.011719 3.234375 42 L 44.765625 42 C 45.675781 42.011719 46.511719 41.175781 46.5 40.265625 L 46.5 10.734375 C 46.511719 9.824219 45.675781 8.988281 44.765625 9 L 28.5 9 L 28.5 7.734375 C 28.511719 6.839844 27.707031 6.015625 26.8125 6 L 3.234375 6 C 3.171875 5.996094 3.109375 5.996094 3.046875 6 Z M 17.4375 19.5 L 19.171875 21.234375 C 20.472656 20.140625 22.164062 19.5 24 19.5 C 28.144531 19.5 31.5 22.859375 31.5 27 C 31.5 31.140625 28.144531 34.5 24 34.5 C 19.855469 34.5 16.5 31.140625 16.5 27 C 16.5 26.351562 16.582031 25.722656 16.734375 25.125 L 18.703125 25.125 C 18.496094 25.710938 18.375 26.339844 18.375 27 C 18.375 30.101562 20.890625 32.625 24 32.625 C 27.109375 32.625 29.625 30.101562 29.625 27 C 29.625 23.890625 27.109375 21.375 24 21.375 C 22.6875 21.375 21.492188 21.839844 20.53125 22.59375 L 22.125 24.1875 L 17.4375 24.1875 Z M 23.90625 22.265625 C 24.175781 22.238281 24.457031 22.359375 24.65625 22.546875 C 24.855469 22.726562 24.941406 22.980469 24.9375 23.25 L 24.9375 26.4375 L 26.90625 27.5625 C 27.355469 27.820312 27.492188 28.425781 27.234375 28.875 C 26.976562 29.324219 26.425781 29.507812 25.96875 29.25 L 23.625 27.890625 C 23.585938 27.875 23.570312 27.867188 23.53125 27.84375 C 23.507812 27.832031 23.5 27.808594 23.484375 27.796875 C 23.472656 27.785156 23.441406 27.761719 23.4375 27.75 C 23.425781 27.746094 23.402344 27.761719 23.390625 27.75 C 23.375 27.738281 23.359375 27.714844 23.34375 27.703125 L 23.34375 27.65625 L 23.296875 27.65625 L 23.25 27.609375 L 23.25 27.5625 C 23.238281 27.546875 23.214844 27.53125 23.203125 27.515625 C 23.070312 27.308594 23.007812 27.054688 23.0625 26.8125 L 23.0625 23.25 C 23.050781 22.804688 23.371094 22.410156 23.8125 22.3125 C 23.851562 22.300781 23.867188 22.269531 23.90625 22.265625 Z M 23.90625 22.265625 "/>
</g>
</svg>
