<?xml version="1.0" encoding="UTF-8"?>
<svg xmlns="http://www.w3.org/2000/svg" xmlns:xlink="http://www.w3.org/1999/xlink" width="64pt" height="64pt" viewBox="0 0 64 64" version="1.1">
<g id="surface1">
<path style=" stroke:none;fill-rule:nonzero;fill:rgb(76.862745%,56.470588%,36.862745%);fill-opacity:1;" d="M 6.421875 6.007812 C 5.308594 6.210938 4 7.441406 4 8.570312 L 4 24 L 60 24 L 60 16.40625 C 59.980469 15.15625 58.851562 14.027344 57.601562 14.007812 L 36 14.007812 L 36 8.550781 C 35.980469 7.296875 34.53125 6.027344 33.28125 6.007812 L 8.46875 6.007812 C 8.335938 5.996094 6.554688 5.996094 6.421875 6.007812 Z M 12 14.007812 L 16 14.007812 L 16 20 L 12 20 Z M 4 28 L 4 40 L 60 40 L 60 28 Z M 12 32 L 16 32 L 16 36 L 12 36 Z M 4 44 L 4 55.597656 C 4.019531 56.847656 5.148438 57.976562 6.398438 57.996094 L 57.601562 57.996094 C 58.851562 57.976562 59.980469 56.847656 60 55.597656 L 60 44 Z M 12 48 L 16 48 L 16 54 L 12 54 Z M 12 48 "/>
</g>
</svg>
