<?xml version="1.0" encoding="UTF-8"?>
<svg xmlns="http://www.w3.org/2000/svg" xmlns:xlink="http://www.w3.org/1999/xlink" width="64pt" height="64pt" viewBox="0 0 64 64" version="1.1">
<g id="surface1">
<path style=" stroke:none;fill-rule:nonzero;fill:rgb(76.862745%,56.470588%,36.862745%);fill-opacity:1;" d="M 4.0625 8 C 2.933594 8.109375 1.980469 9.179688 2 10.3125 L 2 53.6875 C 1.984375 54.902344 3.097656 56.015625 4.3125 56 L 59.6875 56 C 60.902344 56.015625 62.015625 54.902344 62 53.6875 L 62 14.3125 C 62.015625 13.097656 60.902344 11.984375 59.6875 12 L 38 12 L 38 10.3125 C 38.015625 9.117188 36.945312 8.019531 35.75 8 L 4.3125 8 C 4.230469 7.996094 4.144531 7.996094 4.0625 8 Z M 6 18 L 58 18 L 58 50 L 6 50 Z M 6 18 "/>
<path style=" stroke:none;fill-rule:nonzero;fill:rgb(76.862745%,56.470588%,36.862745%);fill-opacity:1;" d="M 20 56 L 44 56 L 44 58 L 20 58 Z M 20 56 "/>
<path style=" stroke:none;fill-rule:nonzero;fill:rgb(76.862745%,56.470588%,36.862745%);fill-opacity:1;" d="M 10 60 L 54 60 L 54 64 L 10 64 Z M 10 60 "/>
</g>
</svg>
