<?xml version="1.0" encoding="UTF-8" standalone="no"?>
<svg
   xmlns:dc="http://purl.org/dc/elements/1.1/"
   xmlns:cc="http://creativecommons.org/ns#"
   xmlns:rdf="http://www.w3.org/1999/02/22-rdf-syntax-ns#"
   xmlns:svg="http://www.w3.org/2000/svg"
   xmlns="http://www.w3.org/2000/svg"
   xmlns:sodipodi="http://sodipodi.sourceforge.net/DTD/sodipodi-0.dtd"
   xmlns:inkscape="http://www.inkscape.org/namespaces/inkscape"
   width="128"
   height="128"
   viewBox="0 0 128 128"
   id="svg3055"
   version="1.1"
   inkscape:version="0.48.5 r10040"
   sodipodi:docname="folder-system.svg">
  <metadata
     id="metadata3069">
    <rdf:RDF>
      <cc:Work
         rdf:about="">
        <dc:format>image/svg+xml</dc:format>
        <dc:type
           rdf:resource="http://purl.org/dc/dcmitype/StillImage" />
      </cc:Work>
    </rdf:RDF>
  </metadata>
  <defs
     id="defs3067" />
  <sodipodi:namedview
     pagecolor="#ffffff"
     bordercolor="#666666"
     borderopacity="1"
     objecttolerance="10"
     gridtolerance="10"
     guidetolerance="10"
     inkscape:pageopacity="0"
     inkscape:pageshadow="2"
     inkscape:window-width="1280"
     inkscape:window-height="969"
     id="namedview3065"
     showgrid="false"
     inkscape:zoom="1.84375"
     inkscape:cx="1.0847458"
     inkscape:cy="104.67797"
     inkscape:window-x="0"
     inkscape:window-y="0"
     inkscape:window-maximized="1"
     inkscape:current-layer="svg3055" />
  <path
     style="fill:#e9b080;fill-opacity:1;stroke:none"
     d="m 18,14.999998 c -2.927834,0 -6,3 -6,6.000001 l 0,2 -6,0 c -2.940198,0 -6,2.99066 -6,6 L 0,107 c 0,4 2,6 6,6 l 116,0 c 3.13523,0 6,-2.71669 6,-6 l 0,-68.000001 c 0,-3.009856 -2.91008,-6 -6,-6 l -6,0 0,-12 c 0,-2.922313 -2.90644,-6.000001 -6,-6.000001 z"
     id="path6-6"
     inkscape:connector-curvature="0"
     sodipodi:nodetypes="ssccssssscccsss" />
  <path
     style="fill:#000000;fill-opacity:0.32156864"
     d="M 60.851562 52 C 59.738281 52 58.816406 52.894531 58.816406 53.992188 L 58.816406 56.585938 C 58.113281 56.820312 57.441406 57.097656 56.78125 57.417969 L 54.980469 55.617188 C 54.191406 54.828125 52.929688 54.828125 52.15625 55.617188 L 47.617188 60.097656 C 46.824219 60.890625 46.824219 62.148438 47.617188 62.925781 L 49.417969 64.726562 C 49.082031 65.402344 48.832031 66.105469 48.582031 66.824219 L 46.035156 66.824219 C 44.9375 66.824219 44 67.703125 44 68.8125 L 44 75.199219 C 44 76.296875 44.9375 77.191406 46.035156 77.191406 L 48.582031 77.191406 C 48.832031 77.894531 49.082031 78.597656 49.417969 79.273438 L 47.617188 81.074219 C 46.824219 81.863281 46.824219 83.109375 47.617188 83.902344 L 52.15625 88.382812 C 52.929688 89.171875 54.191406 89.171875 54.980469 88.382812 L 56.78125 86.582031 C 57.441406 86.902344 58.113281 87.179688 58.816406 87.414062 L 58.816406 90.007812 C 58.816406 91.121094 59.738281 92 60.851562 92 L 67.191406 92 C 68.304688 92 69.183594 91.121094 69.183594 90.007812 L 69.183594 87.414062 C 69.902344 87.179688 70.601562 86.917969 71.261719 86.582031 L 73.078125 88.382812 C 73.855469 89.171875 75.113281 89.171875 75.890625 88.382812 L 80.425781 83.902344 C 81.21875 83.109375 81.21875 81.863281 80.425781 81.074219 L 78.582031 79.226562 C 78.90625 78.570312 79.183594 77.894531 79.417969 77.191406 L 82.007812 77.191406 C 83.121094 77.191406 84 76.296875 84 75.199219 L 84 68.8125 C 84 67.703125 83.121094 66.824219 82.007812 66.824219 L 79.417969 66.824219 C 79.183594 66.121094 78.90625 65.429688 78.582031 64.785156 L 80.425781 62.925781 C 81.21875 62.148438 81.21875 60.890625 80.425781 60.097656 L 75.890625 55.617188 C 75.113281 54.828125 73.855469 54.828125 73.078125 55.617188 L 71.261719 57.417969 C 70.601562 57.082031 69.902344 56.832031 69.183594 56.585938 L 69.183594 53.992188 C 69.183594 52.894531 68.304688 52 67.191406 52 Z M 64 66.824219 C 66.855469 66.824219 69.183594 69.136719 69.183594 72.007812 C 69.183594 74.863281 66.855469 77.191406 64 77.191406 C 61.144531 77.191406 58.816406 74.863281 58.816406 72.007812 C 58.816406 69.136719 61.144531 66.824219 64 66.824219 Z "
     id="path3063" />
  <path
     sodipodi:nodetypes="sscsssssssscsssssscssssssss"
     inkscape:connector-curvature="0"
     style="fill:#000000;fill-opacity:0.32156863;stroke:none"
     d="m 18,14.999998 c -2.927834,0 -6,3 -6,6.000001 l 0,2 -6,0 c -2.940198,0 -6,2.99066 -6,6 L 0,107 c 0,4 2,6 6,6 l 116,0 c 3.13523,0 6,-2.71669 6,-6 l 0,-68.000001 c 0,-3.009856 -2.91008,-6 -6,-6 l -6,0 0,-12 c 0,-2.922313 -2.90644,-6.000001 -6,-6.000001 z m -12,12.000001 67.999999,0 c 1.18035,0 2,1.02954 2,2 l 0,8 46.000001,0 c 1.0111,0 2,1.017484 2,2 L 124,107 c 0,1.04258 -0.95753,2 -2,2 L 6,109 c -0.928591,0 -2,-0.79269 -2,-2 L 4,28.999999 c 0,-0.98481 1.033057,-2 2,-2 z"
     id="path3778" />
</svg>
