<?xml version="1.0" encoding="UTF-8" standalone="no"?>
<svg
   xmlns:dc="http://purl.org/dc/elements/1.1/"
   xmlns:cc="http://creativecommons.org/ns#"
   xmlns:rdf="http://www.w3.org/1999/02/22-rdf-syntax-ns#"
   xmlns:svg="http://www.w3.org/2000/svg"
   xmlns="http://www.w3.org/2000/svg"
   xmlns:sodipodi="http://sodipodi.sourceforge.net/DTD/sodipodi-0.dtd"
   xmlns:inkscape="http://www.inkscape.org/namespaces/inkscape"
   width="128"
   height="128"
   viewBox="0 0 128 128"
   id="svg3071"
   version="1.1"
   inkscape:version="0.48.5 r10040"
   sodipodi:docname="folder-templates.svg">
  <metadata
     id="metadata3109">
    <rdf:RDF>
      <cc:Work
         rdf:about="">
        <dc:format>image/svg+xml</dc:format>
        <dc:type
           rdf:resource="http://purl.org/dc/dcmitype/StillImage" />
      </cc:Work>
    </rdf:RDF>
  </metadata>
  <defs
     id="defs3107" />
  <sodipodi:namedview
     pagecolor="#ffffff"
     bordercolor="#666666"
     borderopacity="1"
     objecttolerance="10"
     gridtolerance="10"
     guidetolerance="10"
     inkscape:pageopacity="0"
     inkscape:pageshadow="2"
     inkscape:window-width="1280"
     inkscape:window-height="969"
     id="namedview3105"
     showgrid="false"
     inkscape:zoom="3.6875"
     inkscape:cx="18.874859"
     inkscape:cy="81.18645"
     inkscape:window-x="0"
     inkscape:window-y="0"
     inkscape:window-maximized="1"
     inkscape:current-layer="svg3071" />
  <path
     style="fill:#e9b080;fill-opacity:1;stroke:none"
     d="m 18,15 c -2.927834,0 -6,3 -6,6.000001 l 0,2 -6,0 c -2.940197,0 -6,2.99066 -6,6 L 0,107 c 0,4 2,6 6,6 l 116,0 c 3.13523,0 6,-2.71669 6,-6 l 0,-67.999999 c 0,-3.009856 -2.91008,-6 -6,-6 l -6,0 0,-12 C 116,18.077688 113.09356,15 110,15 z"
     id="path6-6"
     inkscape:connector-curvature="0"
     sodipodi:nodetypes="ssccssssscccsss" />
  <path
     style="fill:#000000;fill-opacity:0.32156864"
     inkscape:connector-curvature="0"
     id="path3081"
     d="m 56,56 0,4 4,0 0,-4 z" />
  <path
     style="fill:#000000;fill-opacity:0.32156864"
     inkscape:connector-curvature="0"
     id="path3083"
     d="m 72,56 0,4 4,0 0,4 4,0 0,-5.328125 C 80,56 77.34375,56 77.34375,56 z" />
  <path
     style="fill:#000000;fill-opacity:0.32156864"
     inkscape:connector-curvature="0"
     id="path3085"
     d="m 64,56 0,4 4,0 0,-4 z" />
  <path
     style="fill:#000000;fill-opacity:0.32156864"
     inkscape:connector-curvature="0"
     id="path3087"
     d="m 44,64 4,0 0,-4 4,0 0,-4 -5.328125,0 C 44,56 44,58.65625 44,58.65625 z" />
  <path
     style="fill:#000000;fill-opacity:0.32156864"
     inkscape:connector-curvature="0"
     id="path3089"
     d="m 52,92 0,-4 -4,0 0,-4 -4,0 0,5.328125 C 44,92 46.65625,92 46.65625,92 z" />
  <path
     style="fill:#000000;fill-opacity:0.32156864"
     inkscape:connector-curvature="0"
     id="path3091"
     d="m 68,92 0,-4 -4,0 0,4 z" />
  <path
     style="fill:#000000;fill-opacity:0.32156864"
     inkscape:connector-curvature="0"
     id="path3093"
     d="m 60,92 0,-4 -4,0 0,4 z" />
  <path
     style="fill:#000000;fill-opacity:0.32156864"
     inkscape:connector-curvature="0"
     id="path3095"
     d="m 44,80 4,0 0,-4 -4,0 z" />
  <path
     style="fill:#000000;fill-opacity:0.32156864"
     inkscape:connector-curvature="0"
     id="path3097"
     d="m 44,72 4,0 0,-4 -4,0 z" />
  <path
     style="fill:#000000;fill-opacity:0.32156864"
     inkscape:connector-curvature="0"
     id="path3099"
     d="m 80,84 -4,0 0,4 -4,0 0,4 5.328125,0 C 80,92 80,89.34375 80,89.34375 z" />
  <path
     style="fill:#000000;fill-opacity:0.32156864"
     inkscape:connector-curvature="0"
     id="path3101"
     d="m 80,68 -4,0 0,4 4,0 z" />
  <path
     style="fill:#000000;fill-opacity:0.32156864"
     inkscape:connector-curvature="0"
     id="path3103"
     d="m 80,76 -4,0 0,4 4,0 z" />
  <path
     sodipodi:nodetypes="sscsssssssscsssssscssssssss"
     inkscape:connector-curvature="0"
     style="fill:#000000;fill-opacity:0.32156863;stroke:none"
     d="m 18,15 c -2.927834,0 -6,3 -6,6.000001 l 0,2 -6,0 c -2.940197,0 -6,2.99066 -6,6 L 0,107 c 0,4 2,6 6,6 l 116,0 c 3.13523,0 6,-2.71669 6,-6 l 0,-67.999999 c 0,-3.009856 -2.91008,-6 -6,-6 l -6,0 0,-12 C 116,18.077688 113.09356,15 110,15 z m -12,12.000001 68.000004,0 c 1.18035,0 2,1.02954 2,2 l 0,8 45.999996,0 c 1.0111,0 2,1.017484 2,2 L 124,107 c 0,1.04258 -0.95753,2 -2,2 L 6,109 c -0.92859,0 -2,-0.79269 -2,-2 L 4,29.000001 c 0,-0.98481 1.033058,-2 2,-2 z"
     id="path3778" />
</svg>
