
<svg xmlns="http://www.w3.org/2000/svg" xmlns:xlink="http://www.w3.org/1999/xlink" width="128px" height="128px" viewBox="0 0 128 128" version="1.1">
<g id="surface1">
<path style=" stroke:none;fill-rule:nonzero;fill:rgb(76.862745%,56.470588%,36.862745%);fill-opacity:1;" d="M 8.125 16 C 5.863281 16.21875 3.957031 18.355469 4 20.625 L 4 107.375 C 3.96875 109.800781 6.199219 112.03125 8.625 112 L 119.375 112 C 121.800781 112.03125 124.03125 109.800781 124 107.375 L 124 28.625 C 124.03125 26.199219 121.800781 23.96875 119.375 24 L 76 24 L 76 20.625 C 76.03125 18.238281 73.886719 16.042969 71.5 16 L 8.625 16 C 8.457031 15.988281 8.292969 15.988281 8.125 16 Z M 77.625 50 C 78.113281 50.0625 78.542969 50.230469 79 50.5 C 80.832031 51.5625 81.5625 54.019531 80.5 55.875 C 79.4375 57.730469 77.082031 58.324219 75.25 57.25 C 73.417969 56.1875 72.8125 53.855469 73.875 52 C 74.667969 50.605469 76.144531 49.8125 77.625 50 Z M 67.375 54.125 C 68.90625 54.125 70.457031 54.355469 71.875 54.75 C 72.125 56.3125 73.050781 57.769531 74.5 58.625 C 75.957031 59.480469 77.550781 59.550781 79 59 C 81.84375 61.824219 83.738281 65.59375 84 69.875 L 78.5 70 C 78 64.207031 73.230469 59.625 67.375 59.625 C 65.675781 59.625 64.0625 60.074219 62.625 60.75 L 60 55.875 C 62.21875 54.769531 64.707031 54.125 67.375 54.125 Z M 58.125 57 L 60.875 61.75 C 57.988281 63.800781 56.125 67.15625 56.125 71 C 56.125 74.824219 57.988281 78.199219 60.875 80.25 L 58.125 85 C 54.769531 82.730469 52.28125 79.3125 51.25 75.25 C 52.449219 74.238281 53.25 72.699219 53.25 71 C 53.25 69.28125 52.449219 67.761719 51.25 66.75 C 52.28125 62.6875 54.769531 59.269531 58.125 57 Z M 47.875 67.125 C 50 67.125 51.625 68.84375 51.625 71 C 51.625 73.136719 50 74.875 47.875 74.875 C 45.761719 74.875 44 73.136719 44 71 C 44 68.84375 45.761719 67.125 47.875 67.125 Z M 78.5 72 L 84 72.125 C 83.738281 76.40625 81.84375 80.175781 79 83 C 77.550781 82.449219 75.957031 82.519531 74.5 83.375 C 73.050781 84.230469 72.125 85.675781 71.875 87.25 C 70.457031 87.644531 68.90625 87.875 67.375 87.875 C 64.707031 87.875 62.21875 87.230469 60 86.125 L 62.625 81.25 C 64.0625 81.925781 65.675781 82.375 67.375 82.375 C 73.230469 82.375 78 77.792969 78.5 72 Z M 76.625 84.25 C 78.105469 84.0625 79.699219 84.730469 80.5 86.125 C 81.5625 87.980469 80.832031 90.4375 79 91.5 C 77.167969 92.574219 74.925781 91.855469 73.875 90 C 72.8125 88.144531 73.417969 85.8125 75.25 84.75 C 75.707031 84.480469 76.136719 84.3125 76.625 84.25 Z M 76.625 84.25 "/>
</g>
</svg>
