
<svg xmlns="http://www.w3.org/2000/svg" xmlns:xlink="http://www.w3.org/1999/xlink" width="128px" height="128px" viewBox="0 0 128 128" version="1.1">
<g id="surface1">
<path style=" stroke:none;fill-rule:nonzero;fill:rgb(76.862745%,56.470588%,36.862745%);fill-opacity:1;" d="M 8.125 16 C 5.863281 16.21875 3.957031 18.355469 4 20.625 L 4 107.375 C 3.96875 109.800781 6.199219 112.03125 8.625 112 L 119.375 112 C 121.800781 112.03125 124.03125 109.800781 124 107.375 L 124 28.625 C 124.03125 26.199219 121.800781 23.96875 119.375 24 L 76 24 L 76 20.625 C 76.03125 18.238281 73.886719 16.042969 71.5 16 L 8.625 16 C 8.457031 15.988281 8.292969 15.988281 8.125 16 Z M 64 44 L 76 44 L 80 48 L 80 64 L 76 68 L 76 72 L 84 76 L 84 84 L 56 84 L 56 76 L 64 72 L 64 68 L 60 64 L 60 48 Z M 48 48 L 56 48 L 56 64 L 60 68 L 52 72 L 52 80 L 40 80 L 40 76 L 48 72 L 48 68 L 44 64 L 44 52 Z M 48 48 "/>
</g>
</svg>
