
<svg xmlns="http://www.w3.org/2000/svg" xmlns:xlink="http://www.w3.org/1999/xlink" width="96px" height="96px" viewBox="0 0 96 96" version="1.1">
<g id="surface1">
<path style=" stroke:none;fill-rule:nonzero;fill:rgb(76.862745%,56.470588%,36.862745%);fill-opacity:1;" d="M 6.09375 12 C 4.398438 12.164062 2.96875 13.765625 3 15.46875 L 3 80.53125 C 2.976562 82.351562 4.648438 84.023438 6.46875 84 L 89.53125 84 C 91.351562 84.023438 93.023438 82.351562 93 80.53125 L 93 21.46875 C 93.023438 19.648438 91.351562 17.976562 89.53125 18 L 57 18 L 57 15.46875 C 57.023438 13.679688 55.414062 12.03125 53.625 12 L 6.46875 12 C 6.34375 11.992188 6.21875 11.992188 6.09375 12 Z M 34.875 39 L 38.34375 42.46875 C 40.945312 40.28125 44.328125 39 48 39 C 56.289062 39 63 45.71875 63 54 C 63 62.28125 56.289062 69 48 69 C 39.710938 69 33 62.28125 33 54 C 33 52.703125 33.164062 51.445312 33.46875 50.25 L 37.40625 50.25 C 36.992188 51.421875 36.75 52.679688 36.75 54 C 36.75 60.203125 41.78125 65.25 48 65.25 C 54.21875 65.25 59.25 60.203125 59.25 54 C 59.25 47.78125 54.21875 42.75 48 42.75 C 45.375 42.75 42.984375 43.679688 41.0625 45.1875 L 44.25 48.375 L 34.875 48.375 Z M 47.8125 44.53125 C 48.351562 44.476562 48.914062 44.71875 49.3125 45.09375 C 49.710938 45.453125 49.882812 45.960938 49.875 46.5 L 49.875 52.875 L 53.8125 55.125 C 54.710938 55.640625 54.984375 56.851562 54.46875 57.75 C 53.953125 58.648438 52.851562 59.015625 51.9375 58.5 L 47.25 55.78125 C 47.171875 55.75 47.140625 55.734375 47.0625 55.6875 C 47.015625 55.664062 47 55.617188 46.96875 55.59375 C 46.945312 55.570312 46.882812 55.523438 46.875 55.5 C 46.851562 55.492188 46.804688 55.523438 46.78125 55.5 C 46.75 55.476562 46.71875 55.429688 46.6875 55.40625 L 46.6875 55.3125 L 46.59375 55.3125 L 46.5 55.21875 L 46.5 55.125 C 46.476562 55.09375 46.429688 55.0625 46.40625 55.03125 C 46.140625 54.617188 46.015625 54.109375 46.125 53.625 L 46.125 46.5 C 46.101562 45.609375 46.742188 44.820312 47.625 44.625 C 47.703125 44.601562 47.734375 44.539062 47.8125 44.53125 Z M 47.8125 44.53125 "/>
</g>
</svg>
