
<svg xmlns="http://www.w3.org/2000/svg" xmlns:xlink="http://www.w3.org/1999/xlink" width="96px" height="96px" viewBox="0 0 96 96" version="1.1">
<g id="surface1">
<path style=" stroke:none;fill-rule:nonzero;fill:rgb(76.862745%,56.470588%,36.862745%);fill-opacity:1;" d="M 6.09375 12 C 4.398438 12.164062 2.96875 13.765625 3 15.46875 L 3 80.53125 C 2.976562 82.351562 4.648438 84.023438 6.46875 84 L 89.53125 84 C 91.351562 84.023438 93.023438 82.351562 93 80.53125 L 93 21.46875 C 93.023438 19.648438 91.351562 17.976562 89.53125 18 L 57 18 L 57 15.46875 C 57.023438 13.679688 55.414062 12.03125 53.625 12 L 6.46875 12 C 6.34375 11.992188 6.21875 11.992188 6.09375 12 Z M 54.65625 36.15625 C 55.484375 36.164062 56.375 36.414062 57.09375 36.90625 C 59.960938 38.875 63 39.15625 63 39.15625 C 63 39.15625 60.640625 42.875 57 42.15625 C 53.5625 41.484375 51.304688 42.242188 51.1875 42.34375 L 51.09375 57.25 C 51.09375 57.351562 51.101562 57.429688 51.09375 57.53125 C 50.929688 60.71875 48.921875 63.9375 45.09375 65.40625 C 40.234375 67.273438 35.140625 65.625 33.65625 61.75 C 32.171875 57.875 34.890625 53.210938 39.75 51.34375 C 43.515625 49.90625 45.726562 50.585938 48 52.75 L 48 36.25 C 48 36.25 52.171875 36.125 54.65625 36.15625 Z M 54.65625 36.15625 "/>
</g>
</svg>
