
<svg xmlns="http://www.w3.org/2000/svg" xmlns:xlink="http://www.w3.org/1999/xlink" width="128px" height="128px" viewBox="0 0 128 128" version="1.1">
<g id="surface1">
<path style=" stroke:none;fill-rule:nonzero;fill:rgb(76.862745%,56.470588%,36.862745%);fill-opacity:1;" d="M 4 52 L 4 107.375 C 3.96875 109.800781 6.199219 112.03125 8.625 112 L 119.375 112 C 121.800781 112.03125 124.03125 109.800781 124 107.375 L 124 60 L 76 60 L 76 56 C 76 56 76 52 72 52 Z M 4 52 "/>
<path style=" stroke:none;fill-rule:nonzero;fill:rgb(76.862745%,56.470588%,36.862745%);fill-opacity:0.4;" d="M 4 52 L 72 52 L 76 56 L 76 60 L 124 60 L 124 28.625 C 124.03125 26.199219 121.800781 23.96875 119.375 24 L 76 24 L 76 20.625 C 76.03125 18.238281 73.886719 16.042969 71.5 16 L 8.625 16 C 8.457031 15.988281 8.292969 15.988281 8.125 16 C 5.863281 16.21875 3.957031 18.355469 4 20.625 Z M 4 52 "/>
</g>
</svg>
