<?xml version="1.0" encoding="UTF-8" standalone="no"?>
<svg
   xmlns:dc="http://purl.org/dc/elements/1.1/"
   xmlns:cc="http://creativecommons.org/ns#"
   xmlns:rdf="http://www.w3.org/1999/02/22-rdf-syntax-ns#"
   xmlns:svg="http://www.w3.org/2000/svg"
   xmlns="http://www.w3.org/2000/svg"
   xmlns:sodipodi="http://sodipodi.sourceforge.net/DTD/sodipodi-0.dtd"
   xmlns:inkscape="http://www.inkscape.org/namespaces/inkscape"
   width="128"
   height="128"
   viewBox="0 0 128 128"
   id="svg3111"
   version="1.1"
   inkscape:version="0.48.5 r10040"
   sodipodi:docname="folder-ubuntu.svg">
  <metadata
     id="metadata3125">
    <rdf:RDF>
      <cc:Work
         rdf:about="">
        <dc:format>image/svg+xml</dc:format>
        <dc:type
           rdf:resource="http://purl.org/dc/dcmitype/StillImage" />
      </cc:Work>
    </rdf:RDF>
  </metadata>
  <defs
     id="defs3123" />
  <sodipodi:namedview
     pagecolor="#ffffff"
     bordercolor="#666666"
     borderopacity="1"
     objecttolerance="10"
     gridtolerance="10"
     guidetolerance="10"
     inkscape:pageopacity="0"
     inkscape:pageshadow="2"
     inkscape:window-width="1280"
     inkscape:window-height="969"
     id="namedview3121"
     showgrid="true"
     inkscape:zoom="5.2149125"
     inkscape:cx="61.090902"
     inkscape:cy="63.066395"
     inkscape:window-x="0"
     inkscape:window-y="0"
     inkscape:window-maximized="1"
     inkscape:current-layer="svg3111">
    <inkscape:grid
       type="xygrid"
       id="grid5019" />
  </sodipodi:namedview>
  <path
     style="fill:#e9b080;fill-opacity:1;stroke:none"
     d="m 18,14.999997 c -2.927834,0 -6,3 -6,6.000001 l 0,2 -6,0 c -2.940198,0 -6,2.99066 -6,6 L 0,107 c 0,4 2,6 6,6 l 116.00001,0 C 125.13524,113 128,110.28331 128,107 l 0,-68.000002 c 0,-3.009856 -2.91007,-6 -5.99999,-6 l -6,0 0,-12 c 0,-2.922313 -2.90645,-6.000001 -6,-6.000001 z"
     id="path6-6"
     inkscape:connector-curvature="0"
     sodipodi:nodetypes="ssccssssscccsss" />
  <path
     sodipodi:nodetypes="sscsssssssscsssssscssssssss"
     inkscape:connector-curvature="0"
     style="fill:#000000;fill-opacity:0.32156863;stroke:none"
     d="m 18,14.999997 c -2.927834,0 -6,3 -6,6.000001 l 0,2 -6,0 c -2.940198,0 -6,2.99066 -6,6 L 0,107 c 0,4 2,6 6,6 l 116.00001,0 C 125.13524,113 128,110.28331 128,107 l 0,-68.000002 c 0,-3.009856 -2.91007,-6 -5.99999,-6 l -6,0 0,-12 c 0,-2.922313 -2.90645,-6.000001 -6,-6.000001 z m -12,12.000001 68.000005,0 c 1.18035,0 2,1.02954 2,2 l 0,8 46.000005,0 c 1.0111,0 2,1.017484 2,2 l 0,68.000002 c 0,1.04258 -0.95753,2 -2,2 L 6,109 c -0.92859,0 -2,-0.79269 -2,-2 L 4,28.999998 c 0,-0.98481 1.033057,-2 2,-2 z"
     id="path3778" />
  <path
     style="fill:#000000;fill-opacity:0.32156864"
     d="M 47.835938 67.125 C 45.726562 67.125 44 68.855469 44 71.007812 C 44 73.144531 45.726562 74.886719 47.835938 74.886719 C 49.960938 74.886719 51.675781 73.144531 51.675781 71.007812 C 51.675781 68.855469 49.960938 67.125 47.835938 67.125 Z M 75.222656 84.761719 C 73.386719 85.824219 72.765625 88.203125 73.828125 90.058594 C 74.875 91.914062 77.222656 92.554688 79.058594 91.476562 C 80.894531 90.414062 81.53125 88.035156 80.464844 86.179688 C 79.402344 84.324219 77.058594 83.683594 75.222656 84.761719 Z M 56.175781 71.007812 C 56.175781 67.167969 58.050781 63.78125 60.9375 61.730469 L 58.132812 56.96875 C 54.78125 59.234375 52.28125 62.707031 51.246094 66.773438 C 52.445312 67.777344 53.21875 69.292969 53.21875 71.007812 C 53.21875 72.707031 52.445312 74.222656 51.246094 75.226562 C 52.28125 79.292969 54.78125 82.765625 58.132812 85.03125 L 60.9375 80.269531 C 58.050781 78.21875 56.175781 74.832031 56.175781 71.007812 Z M 67.382812 59.660156 C 73.234375 59.660156 78.039062 64.207031 78.535156 70 L 84 69.917969 C 83.738281 65.636719 81.886719 61.800781 79.042969 58.980469 C 77.59375 59.53125 75.910156 59.449219 74.449219 58.597656 C 73 57.75 72.074219 56.316406 71.824219 54.757812 C 70.40625 54.363281 68.914062 54.136719 67.382812 54.136719 C 64.71875 54.136719 62.21875 54.773438 59.996094 55.878906 L 62.660156 60.722656 C 64.097656 60.042969 65.683594 59.660156 67.382812 59.660156 Z M 67.382812 82.339844 C 65.683594 82.339844 64.097656 81.957031 62.660156 81.277344 L 59.996094 86.121094 C 62.21875 87.226562 64.71875 87.863281 67.382812 87.863281 C 68.914062 87.863281 70.40625 87.652344 71.824219 87.253906 C 72.074219 85.683594 73 84.25 74.449219 83.402344 C 75.910156 82.550781 77.59375 82.46875 79.042969 83.019531 C 81.886719 80.199219 83.738281 76.363281 84 72.082031 L 78.535156 72 C 78.039062 77.792969 73.234375 82.339844 67.382812 82.339844 Z M 75.222656 57.238281 C 77.058594 58.316406 79.402344 57.675781 80.464844 55.820312 C 81.53125 53.964844 80.894531 51.585938 79.058594 50.523438 C 77.222656 49.445312 74.875 50.085938 73.828125 51.941406 C 72.765625 53.796875 73.386719 56.175781 75.222656 57.238281 Z "
     id="path3119" />
</svg>
