
<svg xmlns="http://www.w3.org/2000/svg" xmlns:xlink="http://www.w3.org/1999/xlink" width="128px" height="128px" viewBox="0 0 128 128" version="1.1">
<g id="surface1">
<path style=" stroke:none;fill-rule:nonzero;fill:rgb(76.862745%,56.470588%,36.862745%);fill-opacity:1;" d="M 8.125 16 C 5.863281 16.21875 3.957031 18.355469 4 20.625 L 4 107.375 C 3.96875 109.800781 6.199219 112.03125 8.625 112 L 119.375 112 C 121.800781 112.03125 124.03125 109.800781 124 107.375 L 124 28.625 C 124.03125 26.199219 121.800781 23.96875 119.375 24 L 76 24 L 76 20.625 C 76.03125 18.238281 73.886719 16.042969 71.5 16 L 8.625 16 C 8.457031 15.988281 8.292969 15.988281 8.125 16 Z M 79.5 52 C 79.855469 52 80.15625 52.050781 80.5 52.125 C 80.511719 52.136719 80.613281 52.113281 80.625 52.125 C 82.824219 54.011719 84.613281 56.261719 85.875 58.75 C 85.886719 58.792969 85.863281 58.855469 85.875 58.875 C 86.1875 59.707031 86.550781 60.5625 86.875 61.625 C 87.0625 62.207031 87.261719 62.855469 87.5 63.5 C 87.769531 64.769531 88 66.144531 88 67.5 C 88 79.25 77.28125 92 64 92 C 51.5625 92 41.261719 80.332031 40 69.625 C 40.34375 69.46875 46.980469 62.355469 60.25 67.75 C 76.394531 74.292969 83.582031 67.78125 84.25 65 C 84.917969 62.21875 83.9375 57 81.25 57 C 78.5625 57 75.292969 58.292969 75.75 55.125 C 76.019531 53.15625 77.71875 52.019531 79.5 52 Z M 72.125 54.375 C 72.644531 54.375 73.125 54.78125 73.125 55.25 C 73.125 55.707031 72.644531 56 72.125 56 C 71.605469 56 71.25 55.707031 71.25 55.25 C 71.25 54.78125 71.605469 54.375 72.125 54.375 Z M 74.5 58.375 C 75.238281 58.375 75.75 58.855469 75.75 59.5 C 75.75 60.167969 75.238281 60.75 74.5 60.75 C 73.761719 60.75 73.125 60.167969 73.125 59.5 C 73.125 58.855469 73.761719 58.375 74.5 58.375 Z M 74.5 58.375 "/>
</g>
</svg>
