<?xml version="1.0" encoding="UTF-8" standalone="no"?>
<svg
   xmlns:dc="http://purl.org/dc/elements/1.1/"
   xmlns:cc="http://creativecommons.org/ns#"
   xmlns:rdf="http://www.w3.org/1999/02/22-rdf-syntax-ns#"
   xmlns:svg="http://www.w3.org/2000/svg"
   xmlns="http://www.w3.org/2000/svg"
   xmlns:sodipodi="http://sodipodi.sourceforge.net/DTD/sodipodi-0.dtd"
   xmlns:inkscape="http://www.inkscape.org/namespaces/inkscape"
   width="128"
   height="128"
   viewBox="0 0 128 128"
   id="svg2"
   version="1.1"
   inkscape:version="0.48.5 r10040"
   sodipodi:docname="network-server.svg">
  <metadata
     id="metadata22">
    <rdf:RDF>
      <cc:Work
         rdf:about="">
        <dc:format>image/svg+xml</dc:format>
        <dc:type
           rdf:resource="http://purl.org/dc/dcmitype/StillImage" />
      </cc:Work>
    </rdf:RDF>
  </metadata>
  <defs
     id="defs20" />
  <sodipodi:namedview
     pagecolor="#ffffff"
     bordercolor="#666666"
     borderopacity="1"
     objecttolerance="10"
     gridtolerance="10"
     guidetolerance="10"
     inkscape:pageopacity="0"
     inkscape:pageshadow="2"
     inkscape:window-width="1280"
     inkscape:window-height="969"
     id="namedview18"
     showgrid="true"
     inkscape:zoom="5.6568543"
     inkscape:cx="79.418441"
     inkscape:cy="82.41103"
     inkscape:window-x="0"
     inkscape:window-y="0"
     inkscape:window-maximized="1"
     inkscape:current-layer="svg2">
    <inkscape:grid
       type="xygrid"
       id="grid3008" />
  </sodipodi:namedview>
  <path
     style="font-size:medium;font-style:normal;font-variant:normal;font-weight:normal;font-stretch:normal;text-indent:0;text-align:start;text-decoration:none;line-height:normal;letter-spacing:normal;word-spacing:normal;text-transform:none;direction:ltr;block-progression:tb;writing-mode:lr-tb;text-anchor:start;baseline-shift:baseline;color:#000000;fill:#777777;fill-opacity:1;fill-rule:nonzero;stroke:none;stroke-width:4;marker:none;visibility:visible;display:inline;overflow:visible;enable-background:accumulate;font-family:Sans;-inkscape-font-specification:Sans"
     d="m 56,92.09375 0,19.84375 16,0 0,-19.84375 z"
     id="path6"
     inkscape:connector-curvature="0"
     sodipodi:nodetypes="ccccc" />
  <rect
     style="fill:#dcdcdc;fill-opacity:1;fill-rule:evenodd;stroke:none"
     id="rect3027"
     width="10"
     height="15"
     x="59"
     y="92" />
  <path
     style="font-size:medium;font-style:normal;font-variant:normal;font-weight:normal;font-stretch:normal;text-indent:0;text-align:start;text-decoration:none;line-height:normal;letter-spacing:normal;word-spacing:normal;text-transform:none;direction:ltr;block-progression:tb;writing-mode:lr-tb;text-anchor:start;baseline-shift:baseline;color:#000000;fill:#777777;fill-opacity:1;fill-rule:nonzero;stroke:none;stroke-width:4;marker:none;visibility:visible;display:inline;overflow:visible;enable-background:accumulate;font-family:Sans;-inkscape-font-specification:Sans"
     d="m 15,106 c -1.440678,0 -3,1.52325 -3,3 l 0,10 c 0,1.54065 1.518861,3 3,3 l 37.625,0 c 0.760995,0 1.471947,-0.24766 2.0625,-0.71875 C 56.767432,118.24389 57.738867,106.13282 52.625,106 z m 60.65625,0 c -5.60268,0.43618 -4.528135,15.85724 0.46875,16 L 113,122 c 1.5148,0 3,-1.49546 3,-3 l 0,-10 c 0,-1.48759 -1.4852,-3 -3,-3 z"
     id="path8"
     inkscape:connector-curvature="0"
     sodipodi:nodetypes="sssssccsccssssc" />
  <path
     style="font-size:medium;font-style:normal;font-variant:normal;font-weight:normal;font-stretch:normal;text-indent:0;text-align:start;text-decoration:none;line-height:normal;letter-spacing:normal;word-spacing:normal;text-transform:none;direction:ltr;block-progression:tb;writing-mode:lr-tb;text-anchor:start;baseline-shift:baseline;color:#000000;fill:#777777;fill-opacity:1;fill-rule:nonzero;stroke:none;stroke-width:4;marker:none;visibility:visible;display:inline;overflow:visible;enable-background:accumulate;font-family:Sans;-inkscape-font-specification:Sans"
     d="m 51,102 c -1.442999,0 -3,1.46476 -3,3 l 0,18 c 0,1.51913 1.519051,3 3,3 l 26,0 c 1.55296,0 3,-1.50083 3,-3 l 0,-18 c 0,-1.47813 -1.449256,-3 -3,-3 z"
     id="path10"
     inkscape:connector-curvature="0"
     sodipodi:nodetypes="ccccccccc" />
  <path
     style="fill:#e9b080;fill-opacity:1;stroke:none"
     d="m 24,9 c -2.927834,0 -6,3 -6,6.000001 L 18,17 11,17 c -2.9401968,0 -5.9999999,2.990661 -5.9999999,6 l 0,65 c 0,4 2,6 5.9999999,6 l 106,0 c 3.13523,0 6,-2.71669 6,-6 l 0,-58.999999 c 0,-3.009856 -2.91008,-6 -6,-6 l -7,0 0,-8 C 110,12.077688 107.09356,9 104,9 z"
     id="path6-6"
     inkscape:connector-curvature="0"
     sodipodi:nodetypes="ssccssssscccsss" />
  <path
     sodipodi:nodetypes="sscsssssssscsssssscssssssss"
     inkscape:connector-curvature="0"
     style="fill:#000000;fill-opacity:0.32156863;stroke:none"
     d="m 24,9 c -3,0 -6,3 -6,6.000001 L 18,17 11,17 c -2.9401968,0 -5.9999999,2.990661 -5.9999999,6 l 0,65 c 0,4 2,6 5.9999999,6 l 106,0 c 3.13523,0 6,-2.71669 6,-6 l 0,-58.999999 c 0,-3.009855 -2.91008,-6 -6,-6 l -7,0 0,-8 C 110,12.077688 107.09356,9 104,9 z m -13,12 62.999995,0 c 1.18035,0 2,1.02954 2,2 l 0,4.000001 41.000005,0 c 1.0111,0 2,1.017485 2,2 L 119,88 c 0,1.04258 -0.95753,2 -2,2 L 11,90 C 10.07141,90 8.9999999,89.20731 8.9999999,88 l 0,-65 c 0,-0.984808 1.0330581,-2 2.0000001,-2 z"
     id="path3778" />
  <path
     style="fill:#dcdcdc;fill-opacity:1;fill-rule:evenodd;stroke:none"
     d="m 15,109 33,0 0,10 -33,0 z"
     id="rect3015"
     inkscape:connector-curvature="0" />
  <path
     style="fill:#dcdcdc;fill-opacity:1;fill-rule:evenodd;stroke:none"
     d="m 80,109 33,0 0,10 -33,0 z"
     id="rect3017"
     inkscape:connector-curvature="0" />
  <rect
     style="fill:#dcdcdc;fill-opacity:1;fill-rule:evenodd;stroke:none"
     id="rect3023"
     width="26"
     height="18"
     x="51"
     y="105" />
</svg>
