<?xml version="1.0" encoding="UTF-8" standalone="no"?>
<svg
   xmlns:dc="http://purl.org/dc/elements/1.1/"
   xmlns:cc="http://creativecommons.org/ns#"
   xmlns:rdf="http://www.w3.org/1999/02/22-rdf-syntax-ns#"
   xmlns:svg="http://www.w3.org/2000/svg"
   xmlns="http://www.w3.org/2000/svg"
   xmlns:xlink="http://www.w3.org/1999/xlink"
   xmlns:sodipodi="http://sodipodi.sourceforge.net/DTD/sodipodi-0.dtd"
   xmlns:inkscape="http://www.inkscape.org/namespaces/inkscape"
   width="48"
   viewBox="0 0 13.546667 13.546667"
   height="48"
   id="svg2"
   version="1.1"
   inkscape:version="0.91 r"
   sodipodi:docname="thunar.svg">
  <metadata
     id="metadata331">
    <rdf:RDF>
      <cc:Work
         rdf:about="">
        <dc:format>image/svg+xml</dc:format>
        <dc:type
           rdf:resource="http://purl.org/dc/dcmitype/StillImage" />
        <dc:title />
      </cc:Work>
    </rdf:RDF>
  </metadata>
  <sodipodi:namedview
     pagecolor="#ffffff"
     bordercolor="#666666"
     borderopacity="1"
     objecttolerance="10"
     gridtolerance="10"
     guidetolerance="10"
     inkscape:pageopacity="0"
     inkscape:pageshadow="2"
     inkscape:window-width="1280"
     inkscape:window-height="998"
     id="namedview329"
     showgrid="true"
     inkscape:zoom="6.059384"
     inkscape:cx="-3.5855253"
     inkscape:cy="35.09453"
     inkscape:window-x="0"
     inkscape:window-y="0"
     inkscape:window-maximized="1"
     inkscape:current-layer="layer3"
     showguides="true"
     inkscape:guide-bbox="true">
    <inkscape:grid
       type="xygrid"
       id="grid3308" />
  </sodipodi:namedview>
  <defs
     id="defs4">
    <linearGradient
       inkscape:collect="always"
       xlink:href="#linearGradient4140-9"
       id="linearGradient4147"
       x1="-27"
       y1="13"
       x2="-24"
       y2="13"
       gradientUnits="userSpaceOnUse" />
    <linearGradient
       id="linearGradient4140-9">
      <stop
         style="stop-color:#6e6196;stop-opacity:1;"
         offset="0"
         id="stop4143-1" />
      <stop
         style="stop-color:#847baf;stop-opacity:1;"
         offset="1"
         id="stop4145-8" />
    </linearGradient>
  </defs>
  <g
     inkscape:groupmode="layer"
     id="layer1"
     inkscape:label="Shadow"
     sodipodi:insensitive="true">
    <path
       style="opacity:0.05;fill:#000000;fill-opacity:1;stroke:none"
       d="M 25,2 C 12.297451,2 2,12.297451 2,25 2,31.367153 4.6007106,37.116628 8.78125,41.28125 12.865755,44.99361 18.29568,47.25 24.25,47.25 c 12.702549,0 23,-10.297451 23,-23 0,-5.95432 -2.25639,-11.384245 -5.96875,-15.46875 C 37.116628,4.6007105 31.367153,2 25,2 z M 41.28125,8.78125 C 45.135604,12.894061 47.5,18.418655 47.5,24.5 c 0,12.702549 -10.297451,23 -23,23 C 18.418655,47.5 12.894061,45.135604 8.78125,41.28125 12.940939,45.4251 18.664604,48 25,48 37.702549,48 48,37.702549 48,25 48,18.664604 45.4251,12.940939 41.28125,8.78125 z"
       transform="scale(0.28222223,0.28222223)"
       id="path3978"
       inkscape:connector-curvature="0" />
    <path
       style="opacity:0.1;fill:#000000;fill-opacity:1;stroke:none"
       d="M 41.28125,8.78125 C 44.99361,12.865755 47.25,18.29568 47.25,24.25 c 0,12.702549 -10.297451,23 -23,23 -5.95432,0 -11.384245,-2.25639 -15.46875,-5.96875 C 12.894061,45.135604 18.418655,47.5 24.5,47.5 c 12.702549,0 23,-10.297451 23,-23 0,-6.081345 -2.364396,-11.605939 -6.21875,-15.71875 z"
       transform="scale(0.28222223,0.28222223)"
       id="path3976"
       inkscape:connector-curvature="0" />
    <path
       transform="matrix(4.3274074,0,0,3.2455556,117.19278,-35.348334)"
       d="m -24,13 a 1.5,2 0 1 1 -3,0 1.5,2 0 1 1 3,0 z"
       sodipodi:ry="2"
       sodipodi:rx="1.5"
       sodipodi:cy="13"
       sodipodi:cx="-25.5"
       id="path3952"
       style="opacity:0.2;fill:#000000;fill-opacity:1;stroke:none"
       sodipodi:type="arc" />
  </g>
  <g
     inkscape:groupmode="layer"
     id="layer2"
     inkscape:label="Base">
    <path
       sodipodi:type="arc"
       style="fill:url(#linearGradient4147);fill-opacity:1.0;stroke:none"
       id="path3942"
       sodipodi:cx="-25.5"
       sodipodi:cy="13"
       sodipodi:rx="1.5"
       sodipodi:ry="2"
       d="m -24,13 a 1.5,2 0 1 1 -3,0 1.5,2 0 1 1 3,0 z"
       transform="matrix(0,-4.3274075,3.2455556,0,-35.429918,-103.60974)" />
    <path
       style="opacity:0.1;fill:#000000;fill-opacity:1;stroke:none"
       d="M 40.03125 7.53125 C 43.74361 11.615755 46 17.04568 46 23 C 46 35.702549 35.702549 46 23 46 C 17.04568 46 11.615755 43.74361 7.53125 40.03125 C 11.709416 44.322508 17.537578 47 24 47 C 36.702549 47 47 36.702549 47 24 C 47 17.537578 44.322508 11.709416 40.03125 7.53125 z "
       transform="scale(0.28222223,0.28222223)"
       id="path4027" />
  </g>
  <g
     inkscape:groupmode="layer"
     id="layer3"
     inkscape:label="Symbol">
    <path
       inkscape:connector-curvature="0"
       style="opacity:0.1;fill:#000000;fill-opacity:1;fill-rule:nonzero;stroke:none"
       d="m 4.4450048,4.2333338 c -0.110349,0 -0.211666,0.1190535 -0.211666,0.2469445 l 0,0.3175 -0.308681,0 -0.02646,0 c -0.12446,0.012138 -0.230153,0.1181738 -0.229306,0.238125 l 0,4.5949307 c 0,0.127854 0.122555,0.246944 0.255764,0.246944 l 6.2618062,0 c 0.132362,0 0.255764,-0.11909 0.255764,-0.246944 l 0,-4.0128474 c 0,-0.1267242 -0.123685,-0.2557639 -0.255764,-0.2557639 l -0.3086812,0 0,-0.8819444 c 0,-0.1281783 -0.100189,-0.2469445 -0.211667,-0.2469445 l -5.221111,0 z"
       id="path3060" />
    <path
       style="fill:#b29c9c;fill-opacity:1;fill-rule:nonzero;stroke:none"
       inkscape:connector-curvature="0"
       id="path57"
       d="m 3.9511158,5.644445 0,-1.4484726 c 0,-0.127891 0.101318,-0.2448608 0.211667,-0.2448608 l 5.221111,0 c 0.111478,0 0.211667,0.1166825 0.211667,0.2448608 l 0,1.4484726 m -5.644445,0" />
    <path
       style="fill:#ecedf1;fill-opacity:1;fill-rule:nonzero;stroke:none"
       inkscape:connector-curvature="0"
       id="path59"
       d="m 3.6161178,4.515556 c -0.12446,0.012138 -0.230293,0.1224913 -0.229446,0.2424425 l 0,4.5939865 c 0,0.127854 0.121355,0.243571 0.254564,0.243571 l 6.265329,0 C 10.038927,9.595556 10.16,9.479839 10.16,9.351985 l 0,-4.0196327 c 0,-0.1267242 -0.121355,-0.2523518 -0.2534352,-0.2523518 l -2.568782,0 0,-0.3174862 c 0,-0.1267248 -0.128978,-0.2469583 -0.261058,-0.2469583 l -3.436336,0 c -0.0076,0 -0.01665,0 -0.0254,0"
       sodipodi:nodetypes="ccsssssscsssc" />
    <path
       style="opacity:1;fill:#b29c9c;fill-opacity:1;fill-rule:nonzero;stroke:none"
       inkscape:connector-curvature="0"
       id="path77-9"
       d="m 5.7929842,5.9266641 c -0.145771,0 -0.2870221,0.019751 -0.421493,0.053889 0,-0.00226 0,-0.00339 0,-0.00564 -0.150009,0.038653 -0.263857,0.090286 -0.285891,0.1001612 0,0.00339 0,0.00649 0,0.00988 -0.0011,0 -0.0034,0.00113 -0.0056,0.00226 0.01553,0.1224502 0.03758,0.2434901 0.04859,0.2987904 0.119215,0.5036273 0.463585,0.9192258 0.919262,1.1398626 -0.0023,0.03414 -0.0056,0.06715 -0.0056,0.1024184 0,0.4649736 0.187581,0.8862149 0.488728,1.19347 -0.0023,0.00113 0.0023,0.00226 0,0.00339 0.0873,0.08154 0.20538,0.1763402 0.229675,0.1949616 0.0065,0.00339 0.01667,0.00649 0.01978,0.011004 0.100281,-0.08832 0.189833,-0.1839661 0.212998,-0.2093591 0.301148,-0.3075372 0.48873,-0.7284964 0.48873,-1.19347 0,-0.031882 -0.0056,-0.062919 -0.0065,-0.094801 0.463585,-0.2138654 0.813324,-0.6291816 0.937907,-1.1342198 -0.0023,-0.00113 0.0011,-0.00226 0,-0.00339 0.03079,-0.1354292 0.05311,-0.2821441 0.05311,-0.2976621 -0.0023,-0.00113 -0.0056,-0.00226 -0.0076,-0.00339 0,-0.00762 0,0.00113 0,-0.00649 -0.06413,-0.028779 -0.209616,-0.078154 -0.287022,-0.103547 0,0.00564 0,-0.00226 0,0.00339 -0.140123,-0.037528 -0.288155,-0.060664 -0.438163,-0.060664 -0.363016,0 -0.698628,0.1168077 -0.97435,0.3117694 -0.105938,0.080411 -0.182214,0.14869 -0.230522,0.1949617 -0.0056,0.00564 -0.0088,0.012133 -0.0144,0.017775 -0.159048,0.1653365 -0.282502,0.3625553 -0.365275,0.580935 0.08927,0.053043 0.177693,0.097057 0.257077,0.1345828 0.06611,-0.1918582 0.175434,-0.3648126 0.313294,-0.510399 0.0011,-0.00226 0.0056,-0.00762 0.0087,-0.011004 0.0065,-0.00762 0.01328,-0.016646 0.02316,-0.025393 0.0023,-0.00339 0.0056,-0.00339 0.0087,-0.00649 0.09831,-0.086054 0.175434,-0.1422007 0.232782,-0.1797258 0.02882,-0.017775 0.05848,-0.035268 0.08843,-0.050786 0.195209,-0.103547 0.414996,-0.1630794 0.652297,-0.1630794 0.141252,0 0.279112,0.020878 0.408216,0.060661 -0.08619,0.4122138 -0.349762,0.7561476 -0.7108,0.9488522 -0.05622,-0.2381298 -0.161026,-0.459613 -0.306798,-0.6469568 -0.121475,0.084926 -0.225154,0.1706973 -0.232781,0.1774688 0.119216,0.1520757 0.207356,0.3295445 0.255947,0.5233775 0,0 0.0056,0.01975 0.0144,0.057275 0.0034,0.017775 0.0065,0.028779 0.01327,0.064046 0.0178,0.088312 0.01554,0.1896009 0.01441,0.2302297 0,0.00762 0,0.028779 0,0.028779 l -0.0034,0.00452 c -0.01101,0.3814549 -0.17204,0.7231315 -0.42714,0.9700077 -0.2638559,-0.2544941 -0.429403,-0.6116886 -0.43025,-1.0095119 0.141251,0.038653 0.2889991,0.060661 0.44155,0.060661 0.08277,0 0.165546,-0.00875 0.2449301,-0.020878 0.0045,-0.028779 0.0065,-0.06179 0.0087,-0.111447 0.0034,-0.088312 -0.0076,-0.14869 -0.01667,-0.1828295 -0.07713,0.01326 -0.156789,0.019751 -0.2361719,0.019751 -0.1423811,0 -0.2802421,-0.020878 -0.410475,-0.059533 -0.10255,-0.020879 -0.19973,-0.071666 -0.270356,-0.1156801 -0.03983,-0.024264 -0.06611,-0.041757 -0.08051,-0.050786 -0.310187,-0.2006047 -0.538449,-0.5168883 -0.614725,-0.8927044 0.1245839,-0.036397 0.255948,-0.057275 0.3929599,-0.057275 0.199729,0 0.3873111,0.041758 0.558508,0.1179363 0.0839,-0.079283 0.18532,-0.1588473 0.242669,-0.2028618 -0.238435,-0.1300673 -0.511049,-0.205964 -0.8011799,-0.205964 m 0.0023,0.00113" />
  </g>
</svg>
