<!-- Created with Inkscape (http://www.inkscape.org/) -->
<svg xmlns="http://www.w3.org/2000/svg" viewBox="0 0 128 128">
 <defs>
  <radialGradient r="24" cy="40.5" cx="24" gradientTransform="matrix(3.3333334,0,0,0.5555554,-16,1008.529)" gradientUnits="userSpaceOnUse" id="radialGradient3152">
   <stop style="stop-color:#000;stop-opacity:1"/>
   <stop offset="1" style="stop-color:#000;stop-opacity:0.196"/>
  </radialGradient>
 </defs>
 <g transform="translate(0,-924.3622)">
  <path d="m 64 1017.7 c -26.2 0 -49.41 2.088 -64 5.334 l 0 16 c 14.592 3.245 37.796 5.333 64 5.333 26.2 0 49.41 -2.088 64 -5.333 l 0 -16 c -14.592 -3.245 -37.796 -5.334 -64 -5.334 z" style="fill:url(#radialGradient3152);opacity:0.1;fill-opacity:1;stroke:none"/>
  <rect width="120" height="84" x="4" y="952.36" rx="13.04" ry="13.12" style="fill:#1976d2;fill-opacity:1;stroke:none"/>
  <path d="m 17.04 951.03 c -7.226 0 -13.04 5.946 -13.04 13.333 l 0 5.333 c 0 -7.386 5.817 -13.333 13.04 -13.333 l 93.91 0 c 7.226 0 13.04 5.947 13.04 13.333 l 0 -5.333 c 0 -7.387 -5.817 -13.333 -13.04 -13.333 l -93.91 0 z" style="fill:#fff;opacity:0.2;fill-opacity:1;stroke:none"/>
  <rect width="80" height="68" x="24" y="936.36" ry="5.44" rx="5.333" style="fill:#eae7d1;fill-opacity:1;stroke:none"/>
  <rect y="972.36" x="32" height="4" width="64" style="fill:#7a7a68;fill-opacity:1;stroke:none"/>
  <rect y="956.36" x="32" height="4" width="64" style="fill:#7a7a68;fill-opacity:1;stroke:none"/>
  <rect width="64" height="4" x="32" y="964.36" style="fill:#7a7a68;fill-opacity:1;stroke:none"/>
  <rect width="64" height="4" x="32" y="980.36" style="fill:#7a7a68;fill-opacity:1;stroke:none"/>
  <path d="m 17.04 988.36 20.87 0 c 28.696 -2 23.478 -24 41.739 -24 l 31.3 0 c 7.226 0 13.04 4.46 13.04 10 l 0 52 c 0 5.54 -5.817 10 -13.04 10 l -93.91 0 c -7.226 0 -13.04 -4.46 -13.04 -10 l 0 -28 c 0 -6 5.217 -10 13.04 -10 z" style="fill:#42a5f5;fill-opacity:1;stroke:none"/>
  <rect width="64" height="4" x="32" y="948.36" style="fill:#7a7a68;fill-opacity:1;stroke:none"/>
  <path d="m 4 1017.7 0 5.334 c 0 7.386 5.817 13.333 13.04 13.333 l 93.91 0 c 7.226 0 13.04 -5.947 13.04 -13.333 l 0 -5.334 c 0 7.387 -5.817 14.667 -13.04 14.667 l -93.91 0 c -7.226 0 -13.04 -7.28 -13.04 -14.667 z" style="fill:#000;opacity:0.15;fill-opacity:1;stroke:none"/>
  <path d="m 120 1008.36 c 0.176 8.514 -4.36 16.46 -11.854 20.772 -7.5 4.307 -16.788 4.307 -24.282 0 -7.494 -4.313 -12.03 -12.258 -11.854 -20.772 -0.176 -8.514 4.36 -16.46 11.854 -20.766 7.494 -4.312 16.782 -4.312 24.282 0 7.494 4.307 12.03 12.252 11.854 20.766 z" style="fill:#4caf50;fill-opacity:1;fill-rule:evenodd"/>
  <path d="m 109.13 993.27 c -0.51 0.18 -0.938 0.522 -1.231 0.973 l -13.08 12.662 -8.162 -7.793 c -0.328 -1.084 -1.354 -1.799 -2.49 -1.74 -1.137 0.056 -2.086 0.885 -2.291 1.998 -0.199 1.107 0.393 2.209 1.436 2.66 l 9.832 9.745 c 0.943 0.861 2.402 0.861 3.346 0 l 14.754 -14.614 c 0.574 -0.756 0.656 -1.782 0.199 -2.613 -0.457 -0.839 -1.359 -1.336 -2.315 -1.278 z" style="fill:#fff"/>
 </g>
</svg>
