<svg xmlns="http://www.w3.org/2000/svg" viewBox="0 0 128 128">
 <defs>
  <radialGradient r="24" cy="40.5" cx="24" gradientTransform="matrix(3.3333334,0,0,0.5555554,-16,1008.529)" gradientUnits="userSpaceOnUse" id="radialGradient3056">
   <stop style="stop-color:#000;stop-opacity:1"/>
   <stop offset="1" style="stop-color:#000;stop-opacity:0.196"/>
  </radialGradient>
 </defs>
 <g transform="translate(0,-924.3622)">
  <path d="m 64 1017.7 c -26.2 0 -49.41 2.088 -64 5.334 l 0 16 c 14.592 3.245 37.796 5.333 64 5.333 26.2 0 49.41 -2.088 64 -5.333 l 0 -16 c -14.592 -3.245 -37.796 -5.334 -64 -5.334 z" style="fill:url(#radialGradient3056);opacity:0.1;fill-opacity:1;stroke:none"/>
  <rect width="120" height="84" x="4" y="952.36" rx="13.04" ry="13.12" style="fill:#512da8;fill-opacity:1;stroke:none"/>
  <path d="m 17.04 952.36 c -7.226 0 -13.04 4.46 -13.04 10 l 0 4 c 0 -5.54 5.817 -10 13.04 -10 l 93.91 0 c 7.226 0 13.04 4.46 13.04 10 l 0 -4 c 0 -5.54 -5.817 -10 -13.04 -10 l -93.91 0 z" style="fill:#fff;opacity:0.2;fill-opacity:1;stroke:none"/>
  <path d="m 17.04 972.36 20.87 0 c 28.696 -2.667 23.478 -32 41.739 -32 l 31.3 0 c 7.226 0 13.04 5.947 13.04 13.333 l 0 69.33 c 0 7.386 -5.817 13.333 -13.04 13.333 l -93.91 0 c -7.226 0 -13.04 -5.947 -13.04 -13.333 l 0 -37.33 c 0 -8 5.217 -13.333 13.04 -13.333 z" style="fill:#7e57c2;fill-opacity:1;stroke:none"/>
  <path d="m 4 1017.7 0 5.334 c 0 7.386 5.817 13.333 13.04 13.333 l 93.91 0 c 7.226 0 13.04 -5.947 13.04 -13.333 l 0 -5.334 c 0 7.387 -5.817 14.667 -13.04 14.667 l -93.91 0 c -7.226 0 -13.04 -7.28 -13.04 -14.667 z" style="fill:#000;opacity:0.15;fill-opacity:1;stroke:none"/>
  <path d="m 120 1000.36 -24 0 0 -24 -20 0 0 24 -24 0 0 20 24 0 0 24 20 0 0 -24 24 0 z" style="fill:#4caf50;fill-opacity:1"/>
 </g>
</svg>
