
<svg xmlns="http://www.w3.org/2000/svg" xmlns:xlink="http://www.w3.org/1999/xlink" width="128px" height="128px" viewBox="0 0 128 128" version="1.1">
<g id="surface1">
<path style=" stroke:none;fill-rule:nonzero;fill:rgb(91.764706%,56.470588%,21.176471%);fill-opacity:1;" d="M 12 24 L 116 24 L 116 64 L 12 64 Z M 12 24 "/>
<path style=" stroke:none;fill-rule:nonzero;fill:rgb(91.764706%,56.470588%,21.176471%);fill-opacity:1;" d="M 24 24 C 24 20 24 16 29.816406 16 L 50.183594 16 C 56 16 56 20 56 24 L 56 28 L 24 28 Z M 24 24 "/>
<path style=" stroke:none;fill-rule:nonzero;fill:rgb(58.431373%,59.607843%,62.352941%);fill-opacity:1;" d="M 20 32 L 108 32 L 108 64 L 20 64 Z M 20 32 "/>
<path style=" stroke:none;fill-rule:nonzero;fill:rgb(84.705882%,84.705882%,85.490196%);fill-opacity:1;" d="M 28 28 L 104 28 L 104 80 L 28 80 Z M 28 28 "/>
<path style=" stroke:none;fill-rule:nonzero;fill:rgb(97.647059%,97.647059%,97.647059%);fill-opacity:1;" d="M 24 36 L 100 36 L 100 88 L 24 88 Z M 24 36 "/>
<path style=" stroke:none;fill-rule:nonzero;fill:rgb(80%,80%,80%);fill-opacity:1;" d="M 28 40 L 96 40 L 96 44 L 28 44 Z M 28 40 "/>
<path style=" stroke:none;fill-rule:nonzero;fill:rgb(94.901961%,73.333333%,39.215686%);fill-opacity:1;" d="M 4 56 L 124 56 L 115.429688 112 L 12.570312 112 Z M 4 56 "/>
<path style=" stroke:none;fill-rule:nonzero;fill:rgb(80%,80%,80%);fill-opacity:1;" d="M 28 48 L 96 48 L 96 52 L 28 52 Z M 28 48 "/>
<path style=" stroke:none;fill-rule:evenodd;fill:rgb(52.156863%,60%,0%);fill-opacity:1;" d="M 116.058594 91.589844 C 116.246094 100.914062 111.328125 109.609375 103.191406 114.328125 C 95.066406 119.046875 84.996094 119.046875 76.859375 114.328125 C 68.722656 109.609375 63.808594 100.914062 64.003906 91.589844 C 63.808594 82.257812 68.722656 73.558594 76.859375 68.839844 C 84.996094 64.121094 95.066406 64.121094 103.191406 68.839844 C 111.328125 73.558594 116.246094 82.257812 116.058594 91.589844 Z M 116.058594 91.589844 "/>
<path style=" stroke:none;fill-rule:nonzero;fill:rgb(100%,100%,100%);fill-opacity:1;" d="M 104.265625 75.058594 C 103.714844 75.257812 103.246094 75.632812 102.933594 76.121094 L 88.746094 89.984375 L 79.890625 81.453125 C 79.535156 80.277344 78.421875 79.484375 77.183594 79.546875 C 75.953125 79.621094 74.933594 80.527344 74.703125 81.734375 C 74.484375 82.953125 75.128906 84.164062 76.265625 84.652344 L 86.933594 95.320312 C 87.953125 96.277344 89.535156 96.277344 90.558594 95.320312 L 106.558594 79.320312 C 107.183594 78.496094 107.265625 77.371094 106.777344 76.453125 C 106.285156 75.539062 105.296875 74.996094 104.265625 75.058594 Z M 104.265625 75.058594 "/>
</g>
</svg>
