
<svg xmlns="http://www.w3.org/2000/svg" xmlns:xlink="http://www.w3.org/1999/xlink" width="128px" height="128px" viewBox="0 0 128 128" version="1.1">
<g id="surface1">
<path style=" stroke:none;fill-rule:nonzero;fill:rgb(91.764706%,56.470588%,21.176471%);fill-opacity:1;" d="M 12 28 L 116 28 L 116 68 L 12 68 Z M 12 28 "/>
<path style=" stroke:none;fill-rule:nonzero;fill:rgb(91.764706%,56.470588%,21.176471%);fill-opacity:1;" d="M 24 28 C 24 24 24 20 29.820312 20 L 50.179688 20 C 56 20 56 24 56 28 Z M 24 28 "/>
<path style=" stroke:none;fill-rule:nonzero;fill:rgb(58.431373%,59.607843%,62.352941%);fill-opacity:1;" d="M 20 36 L 108 36 L 108 64 L 20 64 Z M 20 36 "/>
<path style=" stroke:none;fill-rule:nonzero;fill:rgb(84.705882%,84.705882%,85.490196%);fill-opacity:1;" d="M 28 32 L 104 32 L 104 84 L 28 84 Z M 28 32 "/>
<path style=" stroke:none;fill-rule:nonzero;fill:rgb(97.647059%,97.647059%,97.647059%);fill-opacity:1;" d="M 24 40 L 100 40 L 100 92 L 24 92 Z M 24 40 "/>
<path style=" stroke:none;fill-rule:nonzero;fill:rgb(94.901961%,73.333333%,39.215686%);fill-opacity:1;" d="M 8 60 L 120 60 L 112 108 L 16 108 Z M 8 60 "/>
<path style=" stroke:none;fill-rule:nonzero;fill:rgb(80%,80%,80%);fill-opacity:1;" d="M 28 44 L 96 44 L 96 48 L 28 48 Z M 28 44 "/>
<path style=" stroke:none;fill-rule:nonzero;fill:rgb(80%,80%,80%);fill-opacity:1;" d="M 28 52 L 96 52 L 96 56 L 28 56 Z M 28 52 "/>
<path style=" stroke:none;fill-rule:evenodd;fill:rgb(52.156863%,60%,0%);fill-opacity:1;" d="M 116.054688 91.585938 C 116.242188 100.914062 111.328125 109.609375 103.195312 114.328125 C 95.070312 119.046875 84.992188 119.046875 76.859375 114.328125 C 68.726562 109.609375 63.804688 100.914062 64.007812 91.585938 C 63.804688 82.257812 68.726562 73.554688 76.859375 68.835938 C 84.992188 64.117188 95.070312 64.117188 103.195312 68.835938 C 111.328125 73.554688 116.242188 82.257812 116.054688 91.585938 Z M 116.054688 91.585938 "/>
<path style=" stroke:none;fill-rule:nonzero;fill:rgb(100%,100%,100%);fill-opacity:1;" d="M 104.265625 75.054688 C 103.710938 75.257812 103.242188 75.632812 102.929688 76.117188 L 88.742188 89.984375 L 79.890625 81.453125 C 79.539062 80.273438 78.421875 79.484375 77.179688 79.546875 C 75.953125 79.617188 74.929688 80.523438 74.703125 81.734375 C 74.484375 82.953125 75.132812 84.164062 76.265625 84.648438 L 86.929688 95.320312 C 87.953125 96.273438 89.539062 96.273438 90.554688 95.320312 L 106.554688 79.320312 C 107.179688 78.492188 107.265625 77.367188 106.773438 76.453125 C 106.289062 75.539062 105.296875 74.992188 104.265625 75.054688 Z M 104.265625 75.054688 "/>
</g>
</svg>
