<?xml version="1.0" encoding="UTF-8" standalone="no"?>
<svg
   xmlns:dc="http://purl.org/dc/elements/1.1/"
   xmlns:cc="http://creativecommons.org/ns#"
   xmlns:rdf="http://www.w3.org/1999/02/22-rdf-syntax-ns#"
   xmlns:svg="http://www.w3.org/2000/svg"
   xmlns="http://www.w3.org/2000/svg"
   xmlns:sodipodi="http://sodipodi.sourceforge.net/DTD/sodipodi-0.dtd"
   xmlns:inkscape="http://www.inkscape.org/namespaces/inkscape"
   width="24"
   height="24"
   viewBox="0 0 24 24"
   id="svg2"
   version="1.1"
   inkscape:version="0.48.5 r10040"
   sodipodi:docname="document-open-recent.svg">
  <metadata
     id="metadata20">
    <rdf:RDF>
      <cc:Work
         rdf:about="">
        <dc:format>image/svg+xml</dc:format>
        <dc:type
           rdf:resource="http://purl.org/dc/dcmitype/StillImage" />
      </cc:Work>
    </rdf:RDF>
  </metadata>
  <defs
     id="defs18" />
  <sodipodi:namedview
     pagecolor="#ffffff"
     bordercolor="#666666"
     borderopacity="1"
     objecttolerance="10"
     gridtolerance="10"
     guidetolerance="10"
     inkscape:pageopacity="0"
     inkscape:pageshadow="2"
     inkscape:window-width="1280"
     inkscape:window-height="998"
     id="namedview16"
     showgrid="true"
     inkscape:zoom="21.454545"
     inkscape:cx="16.134605"
     inkscape:cy="12.569515"
     inkscape:window-x="0"
     inkscape:window-y="0"
     inkscape:window-maximized="1"
     inkscape:current-layer="svg2">
    <inkscape:grid
       type="xygrid"
       id="grid3012"
       empspacing="5"
       visible="true"
       enabled="true"
       snapvisiblegridlinesonly="true" />
  </sodipodi:namedview>
  <rect
     style="fill:#ea9036;fill-opacity:1;stroke:none"
     id="rect3757"
     width="18"
     height="5"
     x="3"
     y="5.9999828" />
  <path
     style="fill:#95989f;fill-opacity:1;stroke:none"
     d="m 4,7 16,0 0,4 -16,0 z"
     id="path3765"
     inkscape:connector-curvature="0" />
  <rect
     y="6.9999828"
     x="6"
     height="6"
     width="13"
     id="rect3763"
     style="fill:#d8d8da;fill-opacity:1;stroke:none" />
  <rect
     style="fill:#f9f9f9;fill-opacity:1;stroke:none"
     id="rect3761"
     width="13"
     height="3.0000174"
     x="5"
     y="7.9999828" />
  <path
     style="fill:#f2bb64;fill-opacity:1;stroke:none"
     d="m 2,11 20,0 -1,9 -18,0 z"
     id="path2987"
     inkscape:connector-curvature="0"
     sodipodi:nodetypes="ccccc" />
  <path
     inkscape:connector-curvature="0"
     id="path16-4"
     d="m 6,9 11,0 0,1 -11,0 z"
     style="fill:#cccccc" />
  <path
     style="fill:#ea9036;fill-opacity:1;stroke:none"
     d="M 5,7 C 5,6 5,5 5.909091,5 L 9.090909,5 C 10,5 10,6 10,7 z"
     id="path3759"
     inkscape:connector-curvature="0"
     sodipodi:nodetypes="ccccc" />
  <g
     transform="matrix(1,0,0,0.99457,0,0.02220527)"
     id="g10">
    <path
       style="fill:#859900;fill-rule:evenodd"
       d="m 20.95,13.17 a 4.881,4.831 0 1 1 -9.76,0 4.881,4.831 0 1 1 9.76,0 z"
       transform="translate(0.811,3.999)"
       id="path12"
       inkscape:connector-curvature="0" />
    <path
       style="line-height:normal;color:#000000;fill:#ffffff"
       d="m 19.55,14.07 a 0.5,0.5 0 0 0 -0.25,0.2 l -2.66,2.6 -1.66,-1.6 a 0.5,0.5 0 1 0 -0.68,0.6 l 2,2 a 0.5,0.5 0 0 0 0.68,0 l 3,-3 a 0.5,0.5 0 0 0 -0.43,-0.8 z"
       id="path14"
       inkscape:connector-curvature="0" />
  </g>
</svg>
