<?xml version="1.0" encoding="UTF-8" standalone="no"?>
<svg
   xmlns:dc="http://purl.org/dc/elements/1.1/"
   xmlns:cc="http://creativecommons.org/ns#"
   xmlns:rdf="http://www.w3.org/1999/02/22-rdf-syntax-ns#"
   xmlns:svg="http://www.w3.org/2000/svg"
   xmlns="http://www.w3.org/2000/svg"
   xmlns:xlink="http://www.w3.org/1999/xlink"
   xmlns:sodipodi="http://sodipodi.sourceforge.net/DTD/sodipodi-0.dtd"
   xmlns:inkscape="http://www.inkscape.org/namespaces/inkscape"
   viewBox="0 0 48 48"
   id="svg4119"
   version="1.1"
   inkscape:version="0.48.5 r10040"
   width="100%"
   height="100%"
   sodipodi:docname="gnome-encfs-manager.svg">
  <metadata
     id="metadata4186">
    <rdf:RDF>
      <cc:Work
         rdf:about="">
        <dc:format>image/svg+xml</dc:format>
        <dc:type
           rdf:resource="http://purl.org/dc/dcmitype/StillImage" />
      </cc:Work>
    </rdf:RDF>
  </metadata>
  <sodipodi:namedview
     pagecolor="#ffffff"
     bordercolor="#666666"
     borderopacity="1"
     objecttolerance="10"
     gridtolerance="10"
     guidetolerance="10"
     inkscape:pageopacity="0"
     inkscape:pageshadow="2"
     inkscape:window-width="1280"
     inkscape:window-height="998"
     id="namedview4184"
     showgrid="false"
     inkscape:zoom="9.8333332"
     inkscape:cx="17.099108"
     inkscape:cy="26.860506"
     inkscape:window-x="0"
     inkscape:window-y="0"
     inkscape:window-maximized="1"
     inkscape:current-layer="svg4119" />
  <defs
     id="defs4121">
    <linearGradient
       id="linearGradient3764"
       x1="1"
       x2="47"
       gradientUnits="userSpaceOnUse"
       gradientTransform="matrix(0,-1,1,0,-1.5e-6,47.999998)">
      <stop
         stop-color="#3d3d3d"
         stop-opacity="1"
         id="stop4124" />
      <stop
         offset="1"
         stop-color="#474747"
         stop-opacity="1"
         id="stop4126" />
    </linearGradient>
    <clipPath
       id="clipPath-779654603">
      <g
         transform="translate(0,-1004.3622)"
         id="g4129">
        <path
           d="m -24 13 c 0 1.105 -0.672 2 -1.5 2 -0.828 0 -1.5 -0.895 -1.5 -2 0 -1.105 0.672 -2 1.5 -2 0.828 0 1.5 0.895 1.5 2 z"
           transform="matrix(15.333333,0,0,11.5,414.99999,878.8622)"
           fill="#1890d0"
           id="path4131" />
      </g>
    </clipPath>
    <clipPath
       id="clipPath-789387630">
      <g
         transform="translate(0,-1004.3622)"
         id="g4134">
        <path
           d="m -24 13 c 0 1.105 -0.672 2 -1.5 2 -0.828 0 -1.5 -0.895 -1.5 -2 0 -1.105 0.672 -2 1.5 -2 0.828 0 1.5 0.895 1.5 2 z"
           transform="matrix(15.333333,0,0,11.5,414.99999,878.8622)"
           fill="#1890d0"
           id="path4136" />
      </g>
    </clipPath>
    <linearGradient
       inkscape:collect="always"
       xlink:href="#linearGradient3764"
       id="linearGradient5286"
       gradientUnits="userSpaceOnUse"
       gradientTransform="translate(-48,0.00221435)"
       x1="1"
       x2="47" />
    <linearGradient
       id="linearGradient4140-8">
      <stop
         style="stop-color:#6e6196;stop-opacity:1;"
         offset="0"
         id="stop4143-5" />
      <stop
         style="stop-color:#847baf;stop-opacity:1;"
         offset="1"
         id="stop4145-4" />
    </linearGradient>
  </defs>
  <g
     id="g21">
    <path
       style="opacity:0.02000002"
       inkscape:connector-curvature="0"
       d="m 1,43 0,0.25 c 0,2.216 1.784,4 4,4 l 38,0 c 2.216,0 4,-1.784 4,-4 L 47,43 c 0,2.216 -1.784,4 -4,4 L 5,47 C 2.784,47 1,45.216 1,43 z m 0,0.5 0,0.5 c 0,2.216 1.784,4 4,4 l 38,0 c 2.216,0 4,-1.784 4,-4 l 0,-0.5 c 0,2.216 -1.784,4 -4,4 l -38,0 c -2.216,0 -4,-1.784 -4,-4 z"
       id="path23" />
    <path
       style="opacity:0.05"
       inkscape:connector-curvature="0"
       d="m 1,43.25 0,0.25 c 0,2.216 1.784,4 4,4 l 38,0 c 2.216,0 4,-1.784 4,-4 l 0,-0.25 c 0,2.216 -1.784,4 -4,4 l -38,0 c -2.216,0 -4,-1.784 -4,-4 z"
       id="path25" />
    <path
       style="opacity:0.1"
       inkscape:connector-curvature="0"
       d="m 1,43 0,0.25 c 0,2.216 1.784,4 4,4 l 38,0 c 2.216,0 4,-1.784 4,-4 L 47,43 c 0,2.216 -1.784,4 -4,4 L 5,47 C 2.784,47 1,45.216 1,43 z"
       id="path27" />
  </g>
  <rect
     id="rect31"
     transform="matrix(0,-1,1,0,0,0)"
     rx="4"
     y="1"
     x="-47"
     height="46"
     width="46"
     style="fill:url(#linearGradient5286);fill-opacity:1.0" />
  <g
     id="g53">
    <g
       transform="translate(0,-1004.3622)"
       id="g55">
      <path
         style="opacity:0.1"
         inkscape:connector-curvature="0"
         d="m 1,1043.36 0,4 c 0,2.216 1.784,4 4,4 l 38,0 c 2.216,0 4,-1.784 4,-4 l 0,-4 c 0,2.216 -1.784,4 -4,4 l -38,0 c -2.216,0 -4,-1.784 -4,-4 z"
         id="path57" />
    </g>
  </g>
  <path
     style="opacity:0.1;fill:#000000;fill-opacity:1;fill-rule:nonzero;stroke:none"
     d="m 12.812518,15 c -0.440926,0.05099 -0.8155,0.464595 -0.8125,0.9375 l 0,17.09375 C 12.000076,33.53115 12.434347,34 12.906268,34 l 22.09375,0 c 0.472925,0 1,-0.5001 1,-1 l 0,-15 c 0,-0.4999 -0.527075,-1 -1,-1 l -9,0 0,-1 c -0.0013,-0.64787 -0.449091,-1 -1,-1 l -12.1875,0 z m 13.96875,5 c 1.774,0 3.21075,1.4145 3.21875,3.1875 l 0,0.03125 c 0,1.777 -1.44175,3.21875 -3.21875,3.21875 -0.554,0 -1.07425,-0.15625 -1.53125,-0.40625 l -1.6875,1.6875 0,0.84375 -0.84375,0 -0.4375,0.4375 0,0.84375 -0.4375,0.4375 -0.84375,0 -0.4375,0.4375 -0.84375,0 0,0.84375 -0.4375,0.4375 -1.28125,0 0,-1.28125 5.96875,-5.96875 c -0.25,-0.457 -0.40625,-0.97225 -0.40625,-1.53125 0,-1.773 1.44175,-3.21875 3.21875,-3.21875 z m 0.65625,1.71875 c -0.476,0 -0.875,0.37075 -0.875,0.84375 0,0.476 0.398,0.875 0.875,0.875 0.472,0 0.84375,-0.398 0.84375,-0.875 -0.003,-0.472 -0.37475,-0.84375 -0.84375,-0.84375 z"
     id="path45"
     inkscape:connector-curvature="0" />
  <path
     style="fill:#ececec;fill-opacity:1;fill-rule:nonzero;stroke:none"
     d="M 12.8125,14 C 12.371574,14.05096 11.997,14.496148 12,14.96875 l 0,17.0625 C 12.000058,32.53083 12.434329,33 12.90625,33 L 35,33 c 0.472922,0 1,-0.500421 1,-1 l 0,-14.96875 c 0,-0.499579 -0.527078,-1 -1,-1 l -9,0 L 26,15 c -0.0013,-0.647454 -0.449093,-1 -1,-1 l -12.1875,0 z m 13.96875,5 c 1.774,0 3.21075,1.4145 3.21875,3.1875 l 0,0.03125 c 0,1.777 -1.44175,3.21875 -3.21875,3.21875 -0.554,0 -1.07425,-0.15625 -1.53125,-0.40625 l -1.6875,1.6875 0,0.84375 -0.84375,0 -0.4375,0.4375 0,0.84375 -0.40625,0.4375 -0.875,0 -0.4375,0.4375 -0.84375,0 0,0.84375 L 19.28125,31 18,31 18,29.71875 23.96875,23.75 C 23.71875,23.293 23.5625,22.77775 23.5625,22.21875 23.5625,20.44575 25.00425,19 26.78125,19 z m 0.65625,1.71875 c -0.476,0 -0.875,0.37075 -0.875,0.84375 0,0.476 0.398,0.875 0.875,0.875 0.472,0 0.84375,-0.398 0.84375,-0.875 -0.003,-0.472 -0.37475,-0.84375 -0.84375,-0.84375 z"
     id="path55"
     inkscape:connector-curvature="0" />
</svg>
