<svg xmlns="http://www.w3.org/2000/svg" viewBox="0 0 22 22">
 <g transform="translate(0,-1030.3622)">
  <path d="m 3 1030.36 16 0 c 1 0 2 1 2 2 l 0 8 c 0 1.108 -0.446 2 -1 2 l -18 0 c -0.554 0 -1 -0.892 -1 -2 l 0 -8 c 0 -1 1 -2 2 -2 z" style="fill:#388e3c;fill-opacity:1;stroke:none"/>
  <rect width="22" height="15" y="1037.36" rx="2" style="fill:#66bb6a;fill-opacity:1;stroke:none"/>
  <path d="m 2 1037.36 c -1.108 0 -2 0.892 -2 2 l 0 1 c 0 -1.108 0.892 -2 2 -2 l 18 0 c 1.108 0 2 0.892 2 2 l 0 -1 c 0 -1.108 -0.892 -2 -2 -2 l -18 0 z" style="fill:#fff;opacity:0.1;fill-opacity:1;stroke:none"/>
  <path d="m 3 1030.36 c -1 0 -2 1 -2 2 l 0 1 c 0 -1 1 -2 2 -2 l 16 0 c 1 0 2 1 2 2 l 0 -1 c 0 -1 -1 -2 -2 -2 l -16 0 z" style="fill:#000;opacity:0.05;fill-opacity:1;stroke:none"/>
 </g>
</svg>
