<svg version="1.1" viewBox="0 0 22 22" xmlns="http://www.w3.org/2000/svg">
 <g transform="translate(0,-1030.3622)">
  <path d="m2 1032.36h17c1 0 2 1 2 2v4c0 1.108-0.446 2-1 2h-18c-0.554 0-1-0.892-1-2v-6z" style="fill:#ffb300"/>
  <path d="m1 1034.36v5h20v-5z" style="opacity:.03"/>
  <rect y="1035.36" width="22" height="17" rx="2" style="fill:#ffca28"/>
  <path d="m1 1033.36v-1c0-1 0-2 1-2h4c1 0 1 1 1 2v1z" style="fill:#ffb300"/>
  <path d="m7 1032.36v1h1 11c1 0 2 1 2 2v-1c0-1-1-2-2-2h-11z" style="opacity:.05"/>
  <path d="m2 1030.36c-1 0-1 1-1 2v0.25c0.047-0.703 0.25-1.25 1-1.25h4c0.75 0 0.953 0.547 1 1.25v-0.25c0-1 0-2-1-2h-4z" style="opacity:.05"/>
  <path d="m2 1035.36c-0.742 0-1.373 0.403-1.719 1h21.438c-0.345-0.597-0.977-1-1.719-1h-18z" style="fill:#fff;opacity:.1"/>
  <path d="m7.8685359 1040.3623c-0.076373 0-0.1528391 0.043-0.1813587 0.1285l-0.9471769 2.8715h2.3200001l-1.0101057-2.8715c-0.028529-0.086-0.1049859-0.1285-0.1813588-0.1285zm1.1914645 3 1.9400016 6 1.940998-6zm3.8809996 0h2.319l-0.947174-2.8715c-0.05703-0.1714-0.305651-0.1714-0.362717 0zm2.319 0-4.259998 6 4.842751-3.4379c0.133624-0.095 0.189607-0.2629 0.138577-0.4163zm-4.259998 6-4.2600017-6-0.7213276 2.1458c-0.05103 0.1531 0.00493 0.3214 0.1385775 0.4163z" style="-inkscape-stroke:none;fill:#c79a18;font-variation-settings:normal;stop-color:#000000"/>
 </g>
</svg>
