<svg xmlns="http://www.w3.org/2000/svg" viewBox="0 0 128 128">
 <path d="m 18 15 c -2.928 0 -6 3 -6 6 l 0 27 -6 0 c -2.94 0 -6 2.991 -6 6 l 0 53 c 0 4 2 6 6 6 l 116 0 c 3.135 0 6 -2.717 6 -6 l 0 -43 c 0 -3.01 -2.91 -6 -6 -6 l -6 0 0 -37 c 0 -2.922 -2.906 -6 -6 -6 z" style="fill:#f57c00;fill-opacity:1;stroke:none"/>
 <path d="m 18 15 c -2.928 0 -6 3 -6 6 l 0 27 -6 0 c -2.94 0 -6 2.991 -6 6 l 0 53 c 0 4 2 6 6 6 l 116 0 c 3.135 0 6 -2.717 6 -6 l 0 -43 c 0 -3.01 -2.91 -6 -6 -6 l -6 0 0 -37 c 0 -2.922 -2.906 -6 -6 -6 z m -12 37 68 0 c 1.18 0 2 1.03 2 2 l 0 8 46 0 c 1.011 0 2 1.017 2 2 l 0 43 c 0 1.043 -0.958 2 -2 2 l -116 0 c -0.929 0 -2 -0.793 -2 -2 l 0 -53 c 0 -0.985 1.033 -2 2 -2 z" style="fill:#000;fill-opacity:0.322;stroke:none"/>
 <path d="m 28 24 72 0 0 24 -72 0 z" style="fill:#fff"/>
 <path d="m 36 40 56 0 0 4 -56 0 z" style="fill:#ccc"/>
 <path d="m 36 32 56 0 0 4 -56 0 z" style="fill:#ccc"/>
 <rect width="20" height="10" x="80" y="48" style="fill:#fff;fill-opacity:1;stroke:none;fill-rule:evenodd"/>
 <path d="m 80 48 12 0 0 4 -12 0 z" style="fill:#ccc"/>
 <path d="m 76 48 c 2 0 4 2 4 4 l 0 -4 z" style="fill:#ccc;fill-opacity:1;stroke:none"/>
 <path d="m 80 56 12 0 0 2 -12 0 z" style="fill:#ccc"/>
 <path d="m 127.99 96 c 0.234 11.355 -5.813 21.945 -15.805 27.691 c -9.996 5.746 -22.379 5.746 -32.375 0 c -9.996 -5.746 -16.04 -16.336 -15.805 -27.691 c -0.234 -11.355 5.809 -21.945 15.805 -27.691 c 9.996 -5.746 22.379 -5.746 32.375 0 c 9.992 5.746 16.04 16.336 15.805 27.691 Z" style="fill:#859900;fill-rule:evenodd"/>
 <path d="m 113.5 75.879 c -0.676 0.246 -1.25 0.699 -1.637 1.301 l -17.441 16.879 l -10.883 -10.387 c -0.43 -1.441 -1.805 -2.402 -3.32 -2.32 c -1.516 0.082 -2.777 1.184 -3.047 2.664 c -0.27 1.477 0.52 2.949 1.91 3.551 l 13.11 12.984 c 1.258 1.156 3.199 1.156 4.457 0 l 19.668 -19.477 c 0.77 -1.012 0.875 -2.375 0.27 -3.492 c -0.605 -1.113 -1.813 -1.781 -3.09 -1.703 Z" style="fill:#fff"/>
</svg>
