<?xml version="1.0" encoding="UTF-8" standalone="no"?>
<svg
   xmlns:dc="http://purl.org/dc/elements/1.1/"
   xmlns:cc="http://creativecommons.org/ns#"
   xmlns:rdf="http://www.w3.org/1999/02/22-rdf-syntax-ns#"
   xmlns:svg="http://www.w3.org/2000/svg"
   xmlns="http://www.w3.org/2000/svg"
   xmlns:sodipodi="http://sodipodi.sourceforge.net/DTD/sodipodi-0.dtd"
   xmlns:inkscape="http://www.inkscape.org/namespaces/inkscape"
   width="48"
   viewBox="0 0 48 48"
   height="48"
   id="svg2"
   version="1.1"
   inkscape:version="0.48.5 r10040"
   sodipodi:docname="folder-copy.svg">
  <metadata
     id="metadata22">
    <rdf:RDF>
      <cc:Work
         rdf:about="">
        <dc:format>image/svg+xml</dc:format>
        <dc:type
           rdf:resource="http://purl.org/dc/dcmitype/StillImage" />
      </cc:Work>
    </rdf:RDF>
  </metadata>
  <defs
     id="defs20" />
  <sodipodi:namedview
     pagecolor="#ffffff"
     bordercolor="#666666"
     borderopacity="1"
     objecttolerance="10"
     gridtolerance="10"
     guidetolerance="10"
     inkscape:pageopacity="0"
     inkscape:pageshadow="2"
     inkscape:window-width="1280"
     inkscape:window-height="969"
     id="namedview18"
     showgrid="false"
     inkscape:zoom="6.9532167"
     inkscape:cx="0.43440588"
     inkscape:cy="37.831037"
     inkscape:window-x="0"
     inkscape:window-y="0"
     inkscape:window-maximized="1"
     inkscape:current-layer="svg2" />
  <path
     style="font-size:medium;font-style:normal;font-variant:normal;font-weight:normal;font-stretch:normal;text-indent:0;text-align:start;text-decoration:none;line-height:normal;letter-spacing:normal;word-spacing:normal;text-transform:none;direction:ltr;block-progression:tb;writing-mode:lr-tb;text-anchor:start;baseline-shift:baseline;opacity:1;color:#000000;fill:#e9b080;fill-opacity:1;fill-rule:nonzero;stroke:none;stroke-width:1;marker:none;visibility:visible;display:inline;overflow:visible;enable-background:accumulate;font-family:Sans;-inkscape-font-specification:Sans"
     d="m 5.000023,6.000001 c -1,0 -2,1 -2,2 l -0.40678,0 -0.59322,0 c -1,0 -2.00556897,0.949207 -1.999999974622,2 l 0,15 C 1.5102538e-4,26.120735 1.037786,26.999901 2.187523,27.000001 l 23.625,0 c 1.1875,0 2.1875,-1 2.1875,-2 l 0,-13.000001 c 0,-1 -1,-2 -2,-2 l -2,0 0,-1.999999 c 0,-1.000001 -1,-2 -2,-2 z"
     id="path3770-1"
     inkscape:connector-curvature="0"
     sodipodi:nodetypes="sccsccccccccsss" />
  <path
     inkscape:connector-curvature="0"
     style="font-size:medium;font-style:normal;font-variant:normal;font-weight:normal;font-stretch:normal;text-indent:0;text-align:start;text-decoration:none;line-height:normal;letter-spacing:normal;word-spacing:normal;text-transform:none;direction:ltr;block-progression:tb;writing-mode:lr-tb;text-anchor:start;baseline-shift:baseline;opacity:1;color:#000000;fill:#000000;fill-opacity:0.32156863000000002;fill-rule:nonzero;stroke:none;stroke-width:1;marker:none;visibility:visible;display:inline;overflow:visible;enable-background:accumulate;font-family:Sans;-inkscape-font-specification:Sans"
     d="m 5.000023,6.000001 c -1,0 -2,1 -2,2 l -0.470339,0 -0.529661,0 c -1,0 -2.00556897,0.949207 -1.999999974622,2 l 0,15 C 1.5102538e-4,26.120735 1.037786,26.999901 2.187523,27.000001 l 23.625,0 c 1.1875,-1e-6 2.1875,-1 2.1875,-2 l 0,-13.000001 c 0,-1 -1,-2 -2,-2 l -2,0 0,-1.999999 c 0,-1.000001 -1,-2 -2,-2 z m -3,3 14,-10e-7 c 0.507314,0 1,0.494167 1,1 l 0,1 9,0 c 0.540858,0 1,0.471809 1,1 l 0,13.000001 c 0,0.553754 -0.452115,0.999999 -1,1 l -24,0 c -0.512726,0 -1,-0.446246 -1,-1 l 0,-15 c 0,-0.543318 0.479042,-1 1,-1 z"
     id="path3779-8"
     sodipodi:nodetypes="sccscccsssscsssssscssssssss" />
  <path
     style="font-size:medium;font-style:normal;font-variant:normal;font-weight:normal;font-stretch:normal;text-indent:0;text-align:start;text-decoration:none;line-height:normal;letter-spacing:normal;word-spacing:normal;text-transform:none;direction:ltr;block-progression:tb;writing-mode:lr-tb;text-anchor:start;baseline-shift:baseline;opacity:1;color:#000000;fill:#000000;fill-opacity:0.10196079;fill-rule:nonzero;stroke:none;stroke-width:1;marker:none;visibility:visible;display:inline;overflow:visible;enable-background:accumulate;font-family:Sans;-inkscape-font-specification:Sans"
     d="M 5 6 C 4.125 6 3.2363281 6.7636719 3.03125 7.625 C 3.0019531 7.7480469 3 7.875 3 8 L 2.59375 8 L 2 8 C 1 8 -0.0055689954 8.949207 0 10 L 0 25 C 0.000128 26.120734 1.037763 26.9999 2.1875 27 L 25.8125 27 C 26.257812 27 26.681519 26.853516 27.03125 26.625 C 27.497559 26.320312 27.850098 25.867188 27.96875 25.375 C 27.998413 25.251953 28 25.125 28 25 L 28 12 C 28 11.75 27.953125 11.515625 27.84375 11.28125 C 27.515625 10.578125 26.75 10 26 10 L 24 10 L 24 8 C 24 6.999999 23 6 22 6 L 5 6 z "
     id="path3780" />
  <path
     style="font-size:medium;font-style:normal;font-variant:normal;font-weight:normal;font-stretch:normal;text-indent:0;text-align:start;text-decoration:none;line-height:normal;letter-spacing:normal;word-spacing:normal;text-transform:none;direction:ltr;block-progression:tb;writing-mode:lr-tb;text-anchor:start;baseline-shift:baseline;color:#000000;fill:#e9b080;fill-opacity:1;fill-rule:nonzero;stroke:none;stroke-width:1;marker:none;visibility:visible;display:inline;overflow:visible;enable-background:accumulate;font-family:Sans;-inkscape-font-specification:Sans"
     d="m 25.000023,21 c -1,0 -2,1 -2,2 l -0.40678,0 -0.59322,0 c -1,0 -2.005569,0.949207 -2,2 l 0,15 c 1.28e-4,1.120734 1.037763,1.9999 2.1875,2 l 23.625,0 c 1.1875,0 2.1875,-1 2.1875,-2 l 0,-13.000001 c 0,-1 -1,-2 -2,-2 l -2,0 0,-1.999999 c 0,-1.000001 -1,-2 -2,-2 z"
     id="path3770"
     inkscape:connector-curvature="0"
     sodipodi:nodetypes="sccsccccccccsss" />
  <path
     inkscape:connector-curvature="0"
     style="font-size:medium;font-style:normal;font-variant:normal;font-weight:normal;font-stretch:normal;text-indent:0;text-align:start;text-decoration:none;line-height:normal;letter-spacing:normal;word-spacing:normal;text-transform:none;direction:ltr;block-progression:tb;writing-mode:lr-tb;text-anchor:start;baseline-shift:baseline;color:#000000;fill:#000000;fill-opacity:0.32156863;fill-rule:nonzero;stroke:none;stroke-width:1;marker:none;visibility:visible;display:inline;overflow:visible;enable-background:accumulate;font-family:Sans;-inkscape-font-specification:Sans"
     d="m 25.000023,21 c -1,0 -2,1 -2,2 l -0.470339,0 -0.529661,0 c -1,0 -2.005569,0.949207 -2,2 l 0,15 c 1.28e-4,1.120734 1.037763,1.9999 2.1875,2 l 23.625,0 c 1.1875,-10e-7 2.1875,-1 2.1875,-2 l 0,-13.000001 c 0,-1 -1,-2 -2,-2 l -2,0 0,-1.999999 c 0,-1.000001 -1,-2 -2,-2 z m -3,3 14,-1e-6 c 0.507314,0 1,0.494167 1,1 l 0,1 9,0 c 0.540858,0 1,0.471809 1,1 l 0,13.000001 c 0,0.553754 -0.452115,0.999999 -1,1 l -24,0 c -0.512726,0 -1,-0.446246 -1,-1 l 0,-15 c 0,-0.543318 0.479042,-1 1,-1 z"
     id="path3779"
     sodipodi:nodetypes="sccscccsssscsssssscssssssss" />
</svg>
