<?xml version="1.0" encoding="UTF-8" standalone="no"?>
<svg
   xmlns:dc="http://purl.org/dc/elements/1.1/"
   xmlns:cc="http://creativecommons.org/ns#"
   xmlns:rdf="http://www.w3.org/1999/02/22-rdf-syntax-ns#"
   xmlns:svg="http://www.w3.org/2000/svg"
   xmlns="http://www.w3.org/2000/svg"
   xmlns:sodipodi="http://sodipodi.sourceforge.net/DTD/sodipodi-0.dtd"
   xmlns:inkscape="http://www.inkscape.org/namespaces/inkscape"
   width="48"
   viewBox="0 0 48 48"
   height="48"
   id="svg2"
   version="1.1"
   inkscape:version="0.48.5 r10040"
   sodipodi:docname="user-desktop.svg">
  <metadata
     id="metadata22">
    <rdf:RDF>
      <cc:Work
         rdf:about="">
        <dc:format>image/svg+xml</dc:format>
        <dc:type
           rdf:resource="http://purl.org/dc/dcmitype/StillImage" />
      </cc:Work>
    </rdf:RDF>
  </metadata>
  <defs
     id="defs20" />
  <sodipodi:namedview
     pagecolor="#ffffff"
     bordercolor="#666666"
     borderopacity="1"
     objecttolerance="10"
     gridtolerance="10"
     guidetolerance="10"
     inkscape:pageopacity="0"
     inkscape:pageshadow="2"
     inkscape:window-width="672"
     inkscape:window-height="480"
     id="namedview18"
     showgrid="false"
     inkscape:zoom="4.9166667"
     inkscape:cx="24"
     inkscape:cy="24"
     inkscape:window-x="0"
     inkscape:window-y="0"
     inkscape:window-maximized="0"
     inkscape:current-layer="svg2" />
  <path
     style="font-size:medium;font-style:normal;font-variant:normal;font-weight:normal;font-stretch:normal;text-indent:0;text-align:start;text-decoration:none;line-height:normal;letter-spacing:normal;word-spacing:normal;text-transform:none;direction:ltr;block-progression:tb;writing-mode:lr-tb;text-anchor:start;baseline-shift:baseline;color:#000000;fill:#e9b080;fill-opacity:1;fill-rule:nonzero;stroke:none;stroke-width:1;marker:none;visibility:visible;display:inline;overflow:visible;enable-background:accumulate;font-family:Sans;-inkscape-font-specification:Sans"
     d="m 6.000023,6.0000002 c -1,0 -2,1 -2,2 l 0,1.9999998 -1,0 c -1,0 -2.00556997,0.949207 -2,2 l 0,28 c 1.28e-4,1.120734 1.037763,1.9999 2.1875,2 l 41.625,0 c 1.1875,0 2.1875,-1 2.1875,-2 l 0,-25 c 0,-1 -1,-2 -2,-2 l -2,0 0,-4.9999998 c 0,-1 -1,-2 -2,-2 z"
     id="path3770"
     inkscape:connector-curvature="0"
     sodipodi:nodetypes="sscsccccccccsss" />
  <path
     style="line-height:normal;color:#000000;fill:#000000;fill-rule:evenodd;fill-opacity:0.32156864"
     d="m 16.0001,21 -2e-4,2 1,0 0,-1.5 c 2e-4,-0.50672 0.5,-0.50672 0.5,-0.50672 l 1.5,0.007 0,-1 -1.9998,0 c 0,0 -1,0 -1,1 z m 12.9998,-1 0,1 1.5,0 c 0,0 0.5002,-0.007 0.5002,0.5 l -2e-4,1.5 1,0 2e-4,-2 c 0,-1 -1,-1 -1,-1 z m -13,11 2e-4,2 c 0,1 1,1 1,1 l 2,0 0,-1 -1.5002,0.007 c -0.4998,-0.007 -0.4998,-0.5 -0.4998,-0.5 l -2e-4,-1.5067 z m 15,0 0,1.5 c 2e-4,0.49328 -0.5,0.5 -0.5,0.5 l -1.5,0 0,1 2.0002,0 c 0,0 1,0 1,-1 l -2e-4,-2 z"
     id="path14"
     inkscape:connector-curvature="0" />
  <path
     style="line-height:normal;color:#000000;fill:#000000;fill-opacity:0.32156864"
     d="m 18.9999,23.99328 2e-4,4 c 5e-5,1 1,1 1,1 l 3,0 c 1,0 1,-1 1,-1 l -2e-4,-3 -2,-2 -1.9998,0 c 0,0 -1.00025,0 -1.0002,1 z m 1,0 2,0 0,1 1,0 2e-4,3 -3,0 z"
     id="path16"
     inkscape:connector-curvature="0" />
  <path
     inkscape:connector-curvature="0"
     style="font-size:medium;font-style:normal;font-variant:normal;font-weight:normal;font-stretch:normal;text-indent:0;text-align:start;text-decoration:none;line-height:normal;letter-spacing:normal;word-spacing:normal;text-transform:none;direction:ltr;block-progression:tb;writing-mode:lr-tb;text-anchor:start;baseline-shift:baseline;color:#000000;fill:#000000;fill-opacity:0.32156863;fill-rule:nonzero;stroke:none;stroke-width:1;marker:none;visibility:visible;display:inline;overflow:visible;enable-background:accumulate;font-family:Sans;-inkscape-font-specification:Sans"
     d="m 6.000023,6.0000002 c -1,0 -2,1 -2,2 l 0,1.9999998 -1,0 c -1,0 -2.00556997,0.949207 -2,2 l 0,28 c 1.28e-4,1.120734 1.037763,1.9999 2.1875,2 l 41.625,0 c 1.1875,0 2.1875,-1 2.1875,-2 l 0,-25 c 0,-1 -1,-2 -2,-2 l -2,0 0,-4.9999998 c 0,-1 -1,-2 -2,-2 l -35,0 z m -3,4.9999998 24,0 c 0.507314,0 1,0.494167 1,1 l 0,2 17,0 c 0.540858,0 1,0.471809 1,1 l 0,25 c 0,0.553755 -0.452115,1 -1,1 l -42,0 c -0.512726,0 -1,-0.446246 -1,-1 l 0,-28 c 0,-0.543318 0.479042,-1 1,-1 z"
     id="path3779" />
</svg>
