
<svg xmlns="http://www.w3.org/2000/svg" xmlns:xlink="http://www.w3.org/1999/xlink" width="256px" height="256px" viewBox="0 0 256 256" version="1.1">
<g id="surface1">
<path style=" stroke:none;fill-rule:nonzero;fill:rgb(91.372549%,69.019608%,50.196078%);fill-opacity:1;" d="M 36 32 C 30.140625 32 24 38.046875 24 44 L 24 48 L 12 48 C 6.117188 48 0 53.984375 0 60 L 0 212 C 0 220 4 224 12 224 L 244 224 C 250.273438 224 256 218.570312 256 212 L 256 80 C 256 73.976562 250.179688 68 244 68 L 232 68 L 232 44 C 232 38.15625 226.1875 32 220 32 Z M 36 32 "/>
<path style=" stroke:none;fill-rule:nonzero;fill:rgb(0%,0%,0%);fill-opacity:0.321569;" d="M 36 32 C 30.140625 32 24 38.046875 24 44 L 24 48 L 12 48 C 6.117188 48 0 53.984375 0 60 L 0 212 C 0 220 4 224 12 224 L 244 224 C 250.273438 224 256 218.570312 256 212 L 256 80 C 256 73.976562 250.179688 68 244 68 L 232 68 L 232 44 C 232 38.15625 226.1875 32 220 32 Z M 12 56 L 148 56 C 150.359375 56 152 58.0625 152 60 L 152 76 L 244 76 C 246.023438 76 248 78.03125 248 80 L 248 212 C 248 214.085938 246.085938 216 244 216 L 12 216 C 10.140625 216 8 214.414062 8 212 L 8 60 C 8 58.03125 10.0625 56 12 56 Z M 12 56 "/>
<path style=" stroke:none;fill-rule:nonzero;fill:rgb(0%,0%,0%);fill-opacity:0.321569;" d="M 128 96 C 123.570312 96 120 99.570312 120 104 L 120 144 L 104 144 C 96 144 96 144 104 152 L 120 168 C 128 176 128 176 136 168 L 152 152 C 160 144 160 144 152 144 L 136 144 L 136 104 C 136 99.570312 132.429688 96 128 96 Z M 79.75 152 C 75.476562 152 72 155.570312 72 160 L 72 192.375 C 72.015625 192.796875 72.046875 193.226562 72.125 193.625 C 72.140625 193.710938 72.109375 193.789062 72.125 193.875 C 72.226562 194.3125 72.460938 194.71875 72.625 195.125 C 72.828125 195.625 73.070312 196.0625 73.375 196.5 C 73.609375 196.84375 73.835938 197.195312 74.125 197.5 C 74.164062 197.546875 74.210938 197.578125 74.25 197.625 C 74.289062 197.664062 74.335938 197.710938 74.375 197.75 C 74.6875 198.0625 75.015625 198.375 75.375 198.625 C 75.609375 198.78125 75.875 198.867188 76.125 199 C 76.328125 199.109375 76.539062 199.28125 76.75 199.375 C 76.789062 199.390625 76.835938 199.359375 76.875 199.375 C 77.304688 199.554688 77.664062 199.773438 78.125 199.875 C 78.203125 199.890625 78.296875 199.859375 78.375 199.875 C 78.804688 199.953125 79.296875 200 79.75 200 C 79.835938 200 79.914062 200 80 200 L 176 200 C 177.414062 200 178.726562 199.609375 179.875 199 C 180.0625 198.898438 180.320312 198.867188 180.5 198.75 C 180.546875 198.71875 180.578125 198.65625 180.625 198.625 C 180.984375 198.375 181.3125 198.0625 181.625 197.75 C 181.648438 197.726562 181.601562 197.648438 181.625 197.625 C 181.648438 197.601562 181.726562 197.648438 181.75 197.625 C 181.789062 197.585938 181.835938 197.539062 181.875 197.5 C 182.148438 197.203125 182.398438 196.96875 182.625 196.625 C 182.648438 196.59375 182.601562 196.53125 182.625 196.5 C 182.929688 196.0625 183.171875 195.625 183.375 195.125 C 183.539062 194.71875 183.773438 194.3125 183.875 193.875 C 183.890625 193.789062 183.859375 193.710938 183.875 193.625 C 183.953125 193.226562 183.984375 192.796875 184 192.375 L 184 160 C 184 155.570312 180.523438 152 176.25 152 L 175.75 152 C 171.476562 152 168 155.570312 168 160 L 168 184 L 88 184 L 88 160 C 88 155.570312 84.523438 152 80.25 152 Z M 79.75 152 "/>
</g>
</svg>
