
<svg xmlns="http://www.w3.org/2000/svg" xmlns:xlink="http://www.w3.org/1999/xlink" width="256px" height="256px" viewBox="0 0 256 256" version="1.1">
<g id="surface1">
<path style=" stroke:none;fill-rule:nonzero;fill:rgb(91.372549%,69.019608%,50.196078%);fill-opacity:1;" d="M 36 32 C 30.140625 32 24 38.046875 24 44 L 24 48 L 12 48 C 6.117188 48 0 53.984375 0 60 L 0 212 C 0 220 4 224 12 224 L 244 224 C 250.273438 224 256 218.570312 256 212 L 256 80 C 256 73.976562 250.179688 68 244 68 L 232 68 L 232 44 C 232 38.15625 226.1875 32 220 32 Z M 36 32 "/>
<path style=" stroke:none;fill-rule:nonzero;fill:rgb(0%,0%,0%);fill-opacity:0.321569;" d="M 36 32 C 30.140625 32 24 38.046875 24 44 L 24 48 L 12 48 C 6.117188 48 0 53.984375 0 60 L 0 212 C 0 220 4 224 12 224 L 244 224 C 250.273438 224 256 218.570312 256 212 L 256 80 C 256 73.976562 250.179688 68 244 68 L 232 68 L 232 44 C 232 38.15625 226.1875 32 220 32 Z M 12 56 L 148 56 C 150.359375 56 152 58.0625 152 60 L 152 76 L 244 76 C 246.023438 76 248 78.03125 248 80 L 248 212 C 248 214.085938 246.085938 216 244 216 L 12 216 C 10.140625 216 8 214.414062 8 212 L 8 60 C 8 58.03125 10.0625 56 12 56 Z M 12 56 "/>
<path style=" stroke:none;fill-rule:nonzero;fill:rgb(0%,0%,0%);fill-opacity:0.321569;" d="M 120.445312 100 C 117.78125 100 115.554688 102.117188 115.554688 104.78125 L 115.554688 111 C 113.875 111.570312 112.242188 112.21875 110.664062 113 L 106.335938 108.664062 C 104.453125 106.78125 101.4375 106.78125 99.554688 108.664062 L 88.664062 119.445312 C 86.78125 121.328125 86.78125 124.34375 88.664062 126.21875 L 93 130.554688 C 92.203125 132.15625 91.578125 133.84375 91 135.554688 L 84.890625 135.554688 C 82.226562 135.554688 80 137.671875 80 140.335938 L 80 155.664062 C 80 158.328125 82.226562 160.445312 84.890625 160.445312 L 91 160.445312 C 91.578125 162.15625 92.203125 163.84375 93 165.445312 L 88.664062 169.78125 C 86.78125 171.664062 86.78125 174.671875 88.664062 176.554688 L 99.554688 187.335938 C 101.4375 189.21875 104.453125 189.21875 106.335938 187.335938 L 110.664062 183 C 112.242188 183.78125 113.875 184.4375 115.554688 185 L 115.554688 191.21875 C 115.554688 193.882812 117.78125 196 120.445312 196 L 135.664062 196 C 138.328125 196 140.445312 193.882812 140.445312 191.21875 L 140.445312 185 C 142.15625 184.421875 143.84375 183.796875 145.445312 183 L 149.78125 187.335938 C 151.664062 189.21875 154.671875 189.21875 156.554688 187.335938 L 167.445312 176.554688 C 169.328125 174.671875 169.328125 171.65625 167.445312 169.78125 L 163 165.335938 C 163.78125 163.757812 164.4375 162.125 165 160.445312 L 171.21875 160.445312 C 173.882812 160.445312 176 158.328125 176 155.664062 L 176 140.335938 C 176 137.671875 173.882812 135.554688 171.21875 135.554688 L 165 135.554688 C 164.4375 133.875 163.78125 132.242188 163 130.664062 L 167.445312 126.21875 C 169.328125 124.335938 169.328125 121.328125 167.445312 119.445312 L 156.554688 108.664062 C 154.671875 106.78125 151.65625 106.78125 149.78125 108.664062 L 145.445312 113 C 143.84375 112.203125 142.15625 111.578125 140.445312 111 L 140.445312 104.78125 C 140.445312 102.117188 138.328125 100 135.664062 100 Z M 128 135.554688 C 134.867188 135.554688 140.445312 141.132812 140.445312 148 C 140.445312 154.867188 134.867188 160.445312 128 160.445312 C 121.132812 160.445312 115.554688 154.867188 115.554688 148 C 115.554688 141.132812 121.132812 135.554688 128 135.554688 Z M 128 135.554688 "/>
</g>
</svg>
