<?xml version="1.0" encoding="UTF-8" standalone="no"?>
<svg
   xmlns:dc="http://purl.org/dc/elements/1.1/"
   xmlns:cc="http://creativecommons.org/ns#"
   xmlns:rdf="http://www.w3.org/1999/02/22-rdf-syntax-ns#"
   xmlns:svg="http://www.w3.org/2000/svg"
   xmlns="http://www.w3.org/2000/svg"
   xmlns:sodipodi="http://sodipodi.sourceforge.net/DTD/sodipodi-0.dtd"
   xmlns:inkscape="http://www.inkscape.org/namespaces/inkscape"
   width="256px"
   height="256px"
   viewBox="0 0 256 256"
   version="1.1"
   id="svg2992"
   inkscape:version="0.48.5 r10040"
   sodipodi:docname="folder-saved-search.svg">
  <metadata
     id="metadata3005">
    <rdf:RDF>
      <cc:Work
         rdf:about="">
        <dc:format>image/svg+xml</dc:format>
        <dc:type
           rdf:resource="http://purl.org/dc/dcmitype/StillImage" />
      </cc:Work>
    </rdf:RDF>
  </metadata>
  <defs
     id="defs3003" />
  <sodipodi:namedview
     pagecolor="#ffffff"
     bordercolor="#666666"
     borderopacity="1"
     objecttolerance="10"
     gridtolerance="10"
     guidetolerance="10"
     inkscape:pageopacity="0"
     inkscape:pageshadow="2"
     inkscape:window-width="668"
     inkscape:window-height="480"
     id="namedview3001"
     showgrid="false"
     inkscape:zoom="0.921875"
     inkscape:cx="128"
     inkscape:cy="128"
     inkscape:window-x="0"
     inkscape:window-y="0"
     inkscape:window-maximized="0"
     inkscape:current-layer="svg2992" />
  <path
     inkscape:connector-curvature="0"
     id="path2995"
     d="m 36,32 c -5.859375,0 -12,6.046875 -12,12 l 0,4 -12,0 C 6.117188,48 0,53.984375 0,60 l 0,152 c 0,8 4,12 12,12 l 232,0 c 6.27344,0 12,-5.42969 12,-12 l 0,-132 c 0,-6.023438 -5.82031,-12 -12,-12 l -12,0 0,-24 c 0,-5.84375 -5.8125,-12 -12,-12 z m 0,0"
     style="fill:#bdbdbd;fill-opacity:1;fill-rule:nonzero;stroke:none" />
  <path
     inkscape:connector-curvature="0"
     id="path2997"
     d="m 36,32 c -5.859375,0 -12,6.046875 -12,12 l 0,4 -12,0 C 6.117188,48 0,53.984375 0,60 l 0,152 c 0,8 4,12 12,12 l 232,0 c 6.27344,0 12,-5.42969 12,-12 l 0,-132 c 0,-6.023438 -5.82031,-12 -12,-12 l -12,0 0,-24 c 0,-5.84375 -5.8125,-12 -12,-12 z m -24,24 136,0 c 2.35937,0 4,2.0625 4,4 l 0,16 92,0 c 2.02344,0 4,2.03125 4,4 l 0,132 c 0,2.08594 -1.91406,4 -4,4 l -232,0 c -1.859375,0 -4,-1.58594 -4,-4 L 8,60 c 0,-1.96875 2.0625,-4 4,-4 z m 0,0"
     style="fill:#000000;fill-opacity:0.32156899;fill-rule:nonzero;stroke:none" />
  <path
     inkscape:connector-curvature="0"
     id="path2999"
     d="m 144,92 c -22.09375,0 -40,17.90625 -40,40 0,8.38281 2.59375,16.19531 7,22.625 -0.96094,0.39062 -1.96875,0.96875 -2.75,1.75 l -33.875,34 c -3.132812,3.13281 -3.132812,8.11719 0,11.25 3.132812,3.13281 8.117188,3.13281 11.25,0 l 34,-33.875 c 0.78125,-0.78125 1.35938,-1.78906 1.75,-2.75 6.42969,4.40625 14.24219,7 22.625,7 22.09375,0 40,-17.90625 40,-40 0,-22.09375 -17.90625,-40 -40,-40 z m 0,12 c 15.46094,0 28,12.53906 28,28 0,15.46094 -12.53906,28 -28,28 -15.46094,0 -28,-12.53906 -28,-28 0,-15.46094 12.53906,-28 28,-28 z m 0,0"
     style="fill:#000000;fill-opacity:0.32156899;fill-rule:nonzero;stroke:none" />
</svg>
