<?xml version="1.0" encoding="UTF-8" standalone="no"?>
<svg
   xmlns:dc="http://purl.org/dc/elements/1.1/"
   xmlns:cc="http://creativecommons.org/ns#"
   xmlns:rdf="http://www.w3.org/1999/02/22-rdf-syntax-ns#"
   xmlns:svg="http://www.w3.org/2000/svg"
   xmlns="http://www.w3.org/2000/svg"
   xmlns:sodipodi="http://sodipodi.sourceforge.net/DTD/sodipodi-0.dtd"
   xmlns:inkscape="http://www.inkscape.org/namespaces/inkscape"
   width="256px"
   height="256px"
   viewBox="0 0 256 256"
   version="1.1"
   id="svg3056"
   inkscape:version="0.48.5 r10040"
   sodipodi:docname="network.svg">
  <metadata
     id="metadata3069">
    <rdf:RDF>
      <cc:Work
         rdf:about="">
        <dc:format>image/svg+xml</dc:format>
        <dc:type
           rdf:resource="http://purl.org/dc/dcmitype/StillImage" />
      </cc:Work>
    </rdf:RDF>
  </metadata>
  <defs
     id="defs3067" />
  <sodipodi:namedview
     pagecolor="#ffffff"
     bordercolor="#666666"
     borderopacity="1"
     objecttolerance="10"
     gridtolerance="10"
     guidetolerance="10"
     inkscape:pageopacity="0"
     inkscape:pageshadow="2"
     inkscape:window-width="668"
     inkscape:window-height="480"
     id="namedview3065"
     showgrid="false"
     inkscape:zoom="0.921875"
     inkscape:cx="128.15097"
     inkscape:cy="122.84174"
     inkscape:window-x="0"
     inkscape:window-y="0"
     inkscape:window-maximized="0"
     inkscape:current-layer="svg3056" />
  <path
     inkscape:connector-curvature="0"
     id="path3059"
     d="m 36,32 c -5.859375,0 -12,6.046875 -12,12 l 0,4 -12,0 C 6.117188,48 0,53.984375 0,60 l 0,152 c 0,8 4,12 12,12 l 232,0 c 6.27344,0 12,-5.42969 12,-12 l 0,-132 c 0,-6.023438 -5.82031,-12 -12,-12 l -12,0 0,-24 c 0,-5.84375 -5.8125,-12 -12,-12 z m 0,0"
     style="fill:#ffca28;fill-opacity:1;fill-rule:nonzero;stroke:none" />
  <path
     inkscape:connector-curvature="0"
     id="path3061"
     d="m 36,32 c -5.859375,0 -12,6.046875 -12,12 l 0,4 -12,0 C 6.117188,48 0,53.984375 0,60 l 0,152 c 0,8 4,12 12,12 l 232,0 c 6.27344,0 12,-5.42969 12,-12 l 0,-132 c 0,-6.023438 -5.82031,-12 -12,-12 l -12,0 0,-24 c 0,-5.84375 -5.8125,-12 -12,-12 z m -24,24 136,0 c 2.35937,0 4,2.0625 4,4 l 0,16 92,0 c 2.02344,0 4,2.03125 4,4 l 0,132 c 0,2.08594 -1.91406,4 -4,4 l -232,0 c -1.859375,0 -4,-1.58594 -4,-4 L 8,60 c 0,-1.96875 2.0625,-4 4,-4 z m 0,0"
     style="fill:#000000;fill-opacity:0.32156899;fill-rule:nonzero;stroke:none" />
  <path
     inkscape:connector-curvature="0"
     id="path3063"
     d="m 122,100 c -20.46875,0 -42,21.53125 -42,48 0,26.46875 21.53125,48 42,48 32.46875,0 54,-21.53125 54,-48 0,-26.46875 -21.53125,-48 -48,-48 z m 9.89844,6.75 c 4.47656,0.41406 8.8125,1.4375 12.75,3.14844 -0.30469,0.38281 -0.53907,0.71094 -0.75,1.35156 -1.21094,3.64063 -3.02344,1.90625 -0.89844,6.45313 2.125,4.53906 3.89062,5.71875 4.5,3.59375 0.60937,-2.11719 -1.52344,-5.10938 0.89844,-3.89844 2.42968,1.21094 4.21875,-0.32813 2.39843,2.40625 -1.8125,2.72656 -1.77343,4.20312 -3.89843,3.59375 -2.11719,-0.60938 -2.07813,3.59375 -4.19532,4.20312 -2.125,0.60938 -2.85156,-0.91406 -2.85156,0.60156 0,1.51563 1.20313,0.125 0.89844,2.54688 -0.0937,0.74219 -0.0625,0.875 -0.14844,1.20312 -1.99219,-0.57031 -2.88281,-0.89062 -4.35156,-0.3125 -1.51563,0.60938 -3.29688,4.5 -3.29688,4.5 1.89063,1.89844 2.76563,3.25782 3.44532,3.90625 -0.42188,0.21094 -0.92969,0.29688 -1.35157,0.60157 -3.02343,2.11718 -5.39062,2.51562 -6.29687,5.54687 -0.90625,3.03125 -0.60156,0.25781 -0.60156,3.89844 0,3.64062 -0.91406,1.16406 0.89843,4.5 1.82032,3.33594 6.28125,4.92969 8.40625,6.75 2.11719,1.82031 4.30469,-3.95313 8.54688,1.5 4.24219,5.45312 4.51562,3.27344 3,6.30469 -1.51563,3.03125 -2.99219,4.03906 -3.60156,5.25 -0.60157,1.21093 1.17968,5.39062 3.30468,6.29687 0.0391,0 0.10157,0 0.14844,0 -0.11719,0.25781 -0.1875,0.49219 -0.30469,0.75 -2.74218,1.25 -6.10937,2.96875 -6.75,3.14844 -1.5,0.4375 -6.78906,1.32812 -10.64843,2.39844 -0.48438,0.14062 -0.85938,0.14062 -1.04688,0.15625 0.47656,-0.51563 4.26563,-2.5 6.14844,-3.59375 2.57031,-1.50782 -0.14844,-1.35157 -0.14844,-1.35157 0,0 -4.09375,-0.45312 -12.45312,-0.45312 -4.17969,0 -5.98438,0.1875 -6.89844,0.45312 -0.45312,0.13282 -0.67969,0.27344 -0.89844,0.45313 -0.21875,0.1875 -0.375,0.38281 -0.75,0.59375 -1.5,0.85937 0.875,1.75781 -1.05468,2.39844 -1.44532,0.48437 -1.60938,0 -2.84375,-0.89844 0.875,-0.88281 2.09375,-1.9375 3.59375,-3.75 2.73437,-3.30469 3.59375,-2.70313 4.5,-5.70313 0.91406,-3 -7.64844,-2.10156 -7.64844,-3.89843 0,-1.80469 -1.46875,-3 -4.19531,-4.20313 -2.73438,-1.19531 -0.875,-1.79687 -3.90625,-2.69531 -3.02344,-0.89844 -6.437505,4.5 -7.343755,2.69531 -0.914063,-1.79687 2.84375,-1.79687 2.84375,-3.89844 0,-2.04687 -4.320313,1.54688 -5.09375,-1.04687 -0.02344,-0.10156 -0.140625,-0.10156 -0.15625,-0.15625 -0.07031,-0.38281 -0.02344,-0.60156 0,-0.89844 0.195313,-2.15625 2.695313,-3 3.75,-5.10156 1.21875,-2.39844 0.585937,1.80469 2.101563,3.90625 1.515622,2.09375 0.914062,-2.70313 0,-5.40625 -0.90625,-2.69531 0.578122,-2.69531 2.703122,-6.29688 2.11719,-3.60156 2.10157,-5.70312 2.10157,-8.39843 0,-2.70313 1.46875,-3 4.5,-5.70313 1.38281,-1.23437 2.47656,-2.3125 3.29687,-3.29687 0.19531,-0.10157 0.39844,-0.10157 0.60156,-0.15625 3.21094,-1.28907 4.5625,-3.21875 7.35157,-9 2.78125,-5.78906 -1.09375,-0.38281 -1.95313,-0.60156 -0.85937,-0.21094 -2.10156,-1.73438 -5.10156,-3.45313 -0.61719,-0.35156 -1.17188,-0.52344 -1.64844,-0.59375 l 5.54688,-9.14844 c 1.78125,-0.47656 3.6875,-0.8125 5.55468,-1.05468 0.67969,3.88281 0.29688,7.50781 0.29688,7.50781 0,0 -1.04688,1.24219 -1.04688,2.09375 0,0.85937 5.74219,-7.07031 6.60156,-7.5 0.85157,-0.42969 3.01563,2.27344 3.44532,-1.79688 0.0234,-0.23437 -0.0234,-0.24218 0,-0.45312 z M 140,122.95313 c -0.30469,-0.10157 -0.67188,0 -1.04688,0.15625 0,1.05468 -0.41406,1.82812 -0.60156,2.25 -0.11719,-0.19532 -0.45312,-0.45313 -0.45312,-0.45313 -0.45313,0.83594 -1.42969,1.57813 -0.44532,1.35156 0.98438,-0.21875 1.72657,0.38282 1.04688,-0.45312 -0.13281,-0.15625 -0.0703,-0.0937 -0.14844,-0.15625 0.125,0.0937 0.36719,0.15625 0.89844,0.15625 0.59375,0 0.91406,0 1.35156,0 -0.73437,0.53906 -1.53125,0.77344 -0.45312,1.05469 1.4375,0.375 2.10156,0.45312 2.10156,0.15625 0,-0.30469 -0.45313,-1.35157 -0.45313,-1.35157 0.28125,-0.11718 0.54688,-0.25781 0.30469,-0.75 -0.45312,-0.90625 -1.17969,-1.8125 -2.10156,-1.95312 z M 162.95312,125.5 c 0.75,1.16406 1.46094,2.35938 2.09375,3.60156 -0.41406,2.42188 -1.47656,4.04688 0.30469,4.04688 0.49219,0 0.9375,-0.10938 1.35156,-0.15625 0.0547,0.14843 0.0937,0.3125 0.14844,0.45312 -3.03125,0 -4.48437,0.90625 -6,0.60156 -1.51562,-0.3125 -5.72656,-0.57812 -3,-3.30468 1.59375,-1.59375 3.58594,-4.125 5.10156,-5.25 z m -18.90625,5.55469 c 0.28125,0.0859 0.52344,0.375 0.75,0.89062 0.91407,2.125 2.41407,3.89844 1.20313,4.20313 -1.21094,0.29687 -1.79688,0.60156 -1.79688,0.60156 0,0 4.19532,2.72656 4.5,-0.30469 C 149,133.41406 147.5,131.64844 147.5,131.64844 c 0,0 2.09375,2.08593 2.70312,3.29687 0.60157,1.21094 0.57813,0 2.09375,1.5 1.51563,1.51563 1.17969,-6.02344 3.30469,-3.89844 2.11719,2.125 3.45313,2.08594 2.85156,3.60157 -0.60937,1.51562 3.89844,-1.83594 3.89844,1.19531 0,2.92187 1.85938,4.10937 -1.80469,5.55469 -1.38281,-0.0937 -2.48437,-0.32813 -2.69531,-0.75 -0.60937,-1.21094 -4.05469,-0.30469 -4.05469,-0.30469 -9.0625,-2.26563 -13,-2.98438 -15.59375,-2.54688 0.0469,-0.0937 0.0937,-0.0937 0.14844,-0.15625 1.32813,-2.39062 3.82031,-5.70312 3,-6.89843 1.15625,-0.66407 2.0625,-1.39844 2.69531,-1.20313 z m 25.5,15.14843 c 0.0312,0.60157 0,1.17969 0,1.79688 0,1.70312 -0.10156,3.44531 -0.29687,5.10156 -2.72656,-2.42969 -6.60156,-2.39844 -6.60156,-2.39844 0,0 2.36718,-2.6875 5.70312,-3.90625 0.41406,-0.15625 0.85938,-0.35156 1.19531,-0.59375 z m 0,0"
     style="fill:#000000;fill-opacity:0.32156899;fill-rule:nonzero;stroke:none" />
</svg>
