<?xml version="1.0" encoding="UTF-8" standalone="no"?>
<!-- Created with Inkscape (http://www.inkscape.org/) -->

<svg
   xmlns:dc="http://purl.org/dc/elements/1.1/"
   xmlns:cc="http://creativecommons.org/ns#"
   xmlns:rdf="http://www.w3.org/1999/02/22-rdf-syntax-ns#"
   xmlns:svg="http://www.w3.org/2000/svg"
   xmlns="http://www.w3.org/2000/svg"
   xmlns:sodipodi="http://sodipodi.sourceforge.net/DTD/sodipodi-0.dtd"
   xmlns:inkscape="http://www.inkscape.org/namespaces/inkscape"
   width="64"
   height="64"
   id="svg2"
   version="1.1"
   inkscape:version="0.48.5 r10040"
   sodipodi:docname="folder-ubuntu.svg"
   inkscape:export-filename="/media/Data/Main/Visuals/Icons/Numix/Desktop/repos/numix-wiki/Gjorgi/Numix-folders/48/New/folder-144.png"
   inkscape:export-xdpi="270"
   inkscape:export-ydpi="270">
  <defs
     id="defs4" />
  <sodipodi:namedview
     id="base"
     pagecolor="#ffffff"
     bordercolor="#666666"
     borderopacity="1.0"
     inkscape:pageopacity="0.0"
     inkscape:pageshadow="2"
     inkscape:zoom="12.988574"
     inkscape:cx="30.79887"
     inkscape:cy="21.399289"
     inkscape:document-units="px"
     inkscape:current-layer="layer1"
     showgrid="true"
     inkscape:window-width="1280"
     inkscape:window-height="998"
     inkscape:window-x="0"
     inkscape:window-y="0"
     inkscape:window-maximized="1"
     showguides="true"
     inkscape:guide-bbox="true">
    <inkscape:grid
       type="xygrid"
       id="grid2985"
       empspacing="5"
       visible="true"
       enabled="true"
       snapvisiblegridlinesonly="true" />
  </sodipodi:namedview>
  <metadata
     id="metadata7">
    <rdf:RDF>
      <cc:Work
         rdf:about="">
        <dc:format>image/svg+xml</dc:format>
        <dc:type
           rdf:resource="http://purl.org/dc/dcmitype/StillImage" />
        <dc:title />
      </cc:Work>
    </rdf:RDF>
  </metadata>
  <g
     inkscape:label="Layer 1"
     inkscape:groupmode="layer"
     id="layer1"
     transform="translate(0,-988.3622)">
    <path
       style="fill:#d32f2f;fill-opacity:1;stroke:none"
       d="m 8,998.36219 47,0 c 2,0 3,0.99975 3,2.99921 l 0,6.9982 c 0,1.1077 -0.9474,0.9997 -2,0.9997 l -48,0 c -1.0526,0 -2,-0.8918 -2,-1.9995 l 0,-8.99761 z"
       id="path3811"
       inkscape:connector-curvature="0"
       sodipodi:nodetypes="csssssscc" />
    <path
       style="opacity:0.02999998;fill:#000000;fill-opacity:1;stroke:none"
       d="m 6,1004.3623 0,4.9999 52,0 0,-4.9999 z"
       id="path3807"
       inkscape:connector-curvature="0" />
    <path
       style="fill:#d32f2f;fill-opacity:1;stroke:none"
       d="m 6,1002.3622 0,-4.99998 c 0,-2 0.909091,-3 1.8181819,-3 l 10.3636361,0 c 0.909091,0 1.818182,1 1.818182,3 l 0,4.99998 z"
       id="rect3760"
       inkscape:connector-curvature="0"
       sodipodi:nodetypes="csssscc" />
    <rect
       style="fill:#ef5350;fill-opacity:1;stroke:none"
       id="rect2990"
       width="60"
       height="40"
       x="2"
       y="1006.3622"
       rx="4"
       ry="3.3333333" />
    <path
       style="opacity:0.1;fill:#ffffff;fill-opacity:1;stroke:none"
       d="m 6,1006.3622 c -2.216,0 -4,1.4971 -4,3.3438 l 0,2 c 0,-1.8467 1.784,-3.3438 4,-3.3438 l 52,0 c 2.216,0 4,1.4971 4,3.3438 l 0,-2 c 0,-1.8467 -1.784,-3.3438 -4,-3.3438 l -52,0 z"
       id="rect3004"
       inkscape:connector-curvature="0" />
    <path
       style="opacity:0.05;fill:#000000;fill-opacity:1;stroke:none"
       d="m 20,998.3622 0,2 2,0 33,0 c 2,0 3,1.0005 3,3 l 0,-2 c 0,-1.99946 -1,-3 -3,-3 l -33,0 z"
       id="path3781"
       inkscape:connector-curvature="0"
       sodipodi:nodetypes="cccscsscc" />
    <path
       style="opacity:0.05;fill:#000000;fill-opacity:1;stroke:none"
       d="m 7.8125,994.3622 c -0.9090909,0 -1.8125,1 -1.8125,3 l 0,2 c 0,-2 0.9034091,-3 1.8125,-3 l 10.375,0 c 0.909091,0 1.8125,1 1.8125,3 l 0,-2 c 0,-2 -0.903409,-3 -1.8125,-3 l -10.375,0 z"
       id="path3801"
       inkscape:connector-curvature="0" />
    <path
       style="opacity:1;fill:#3c301c;fill-opacity:0.25098040999999999;stroke:none"
       d="M 43 23 C 41.343146 23 40 24.343146 40 26 C 40 27.656854 41.343146 29 43 29 C 44.656854 29 46 27.656854 46 26 C 46 24.343146 44.656854 23 43 23 z M 32 25 C 29.707986 25 27.570103 25.6326 25.75 26.75 L 28.71875 29.71875 C 29.720341 29.26745 30.83016 29 32 29 C 36.078288 29 39.443689 32.0556 39.9375 36 L 43.9375 36 C 43.775046 34.0804 43.176298 32.27455 42.21875 30.71875 C 41.843043 30.88805 41.438855 31 41 31 C 39.343146 31 38 29.6569 38 28 C 38 27.5611 38.111916 27.15695 38.28125 26.78125 C 36.454287 25.65685 34.302609 25 32 25 z M 24.15625 27.96875 C 22.277268 29.60695 20.890361 31.8001 20.3125 34.3125 C 21.307783 34.8007 22 35.8166 22 37 C 22 38.1834 21.307783 39.1993 20.3125 39.6875 C 20.935065 42.3942 22.454243 44.7703 24.5625 46.4375 L 27.4375 43.5625 C 25.362257 42.1172 24 39.7207 24 37 C 24 34.4897 25.159812 32.24795 26.96875 30.78125 L 24.15625 27.96875 z M 16 34 C 14.343146 34 13 35.343146 13 37 C 13 38.656854 14.343146 40 16 40 C 17.656854 40 19 38.656854 19 37 C 19 35.343146 17.656854 34 16 34 z M 39.9375 38 C 39.443689 41.9444 36.078288 45 32 45 C 31.054212 45 30.154694 44.8013 29.3125 44.5 L 26.28125 47.53125 C 27.983173 48.46115 29.924037 49 32 49 C 33.512741 49 34.948232 48.72955 36.28125 48.21875 C 36.111916 47.84295 36 47.4389 36 47 C 36 45.3431 37.343146 44 39 44 C 39.804062 44 40.523858 44.32875 41.0625 44.84375 C 42.682973 42.97295 43.721756 40.6125 43.9375 38 L 39.9375 38 z M 41 46 C 39.343146 46 38 47.343146 38 49 C 38 50.656854 39.343146 52 41 52 C 42.656854 52 44 50.656854 44 49 C 44 47.343146 42.656854 46 41 46 z "
       transform="translate(0,988.3622)"
       id="path3007" />
  </g>
</svg>
