
<svg xmlns="http://www.w3.org/2000/svg" xmlns:xlink="http://www.w3.org/1999/xlink" width="256px" height="256px" viewBox="0 0 256 256" version="1.1">
<g id="surface1">
<path style=" stroke:none;fill-rule:nonzero;fill:rgb(91.764706%,56.470588%,21.176471%);fill-opacity:1;" d="M 16 104 L 184 104 L 184 176 L 16 176 Z M 16 104 "/>
<path style=" stroke:none;fill-rule:nonzero;fill:rgb(91.764706%,56.470588%,21.176471%);fill-opacity:1;" d="M 32 112 C 32 104 32 96 42.1875 96 L 77.8125 96 C 88 96 88 104 88 112 Z M 32 112 "/>
<path style=" stroke:none;fill-rule:nonzero;fill:rgb(58.431373%,59.607843%,62.352941%);fill-opacity:1;" d="M 24 112 L 176 112 L 176 144.359375 L 24 144.359375 Z M 24 112 "/>
<path style=" stroke:none;fill-rule:nonzero;fill:rgb(84.705882%,84.705882%,85.490196%);fill-opacity:1;" d="M 40 120 L 168 120 L 168 210.671875 L 40 210.671875 Z M 40 120 "/>
<path style=" stroke:none;fill-rule:nonzero;fill:rgb(97.647059%,97.647059%,97.647059%);fill-opacity:1;" d="M 32 128 L 160 128 L 160 220.4375 L 32 220.4375 Z M 32 128 "/>
<path style=" stroke:none;fill-rule:nonzero;fill:rgb(94.901961%,73.333333%,39.215686%);fill-opacity:1;" d="M 0 136 L 200 136 L 184 240 L 16 240 Z M 0 136 "/>
<path style=" stroke:none;fill-rule:nonzero;fill:rgb(91.764706%,56.470588%,21.176471%);fill-opacity:1;" d="M 37.328125 112 C 37.328125 104 37.328125 96 47.03125 96 L 80.96875 96 C 90.671875 96 90.671875 104 90.671875 112 Z M 37.328125 112 "/>
<path style=" stroke:none;fill-rule:nonzero;fill:rgb(91.764706%,56.470588%,21.176471%);fill-opacity:1;" d="M 72 24 L 240 24 L 240 96 L 72 96 Z M 72 24 "/>
<path style=" stroke:none;fill-rule:nonzero;fill:rgb(91.764706%,56.470588%,21.176471%);fill-opacity:1;" d="M 88 32 C 88 24 88 16 98.1875 16 L 133.8125 16 C 144 16 144 24 144 32 Z M 88 32 "/>
<path style=" stroke:none;fill-rule:nonzero;fill:rgb(58.431373%,59.607843%,62.352941%);fill-opacity:1;" d="M 80 32 L 232 32 L 232 64.359375 L 80 64.359375 Z M 80 32 "/>
<path style=" stroke:none;fill-rule:nonzero;fill:rgb(84.705882%,84.705882%,85.490196%);fill-opacity:1;" d="M 96 40 L 224 40 L 224 130.671875 L 96 130.671875 Z M 96 40 "/>
<path style=" stroke:none;fill-rule:nonzero;fill:rgb(97.647059%,97.647059%,97.647059%);fill-opacity:1;" d="M 88 48 L 216 48 L 216 140.4375 L 88 140.4375 Z M 88 48 "/>
<path style=" stroke:none;fill-rule:nonzero;fill:rgb(0%,0%,0%);fill-opacity:0.101961;" d="M 42.25 96 C 35.640625 96 33.3125 99.4375 32.5 104 L 16 104 L 16 136 L 0 136 L 16 240 L 184 240 L 200 136 L 184 136 L 184 104 L 90.25 104 C 89.484375 99.4375 87.296875 96 81 96 Z M 42.25 96 "/>
<path style=" stroke:none;fill-rule:nonzero;fill:rgb(94.901961%,73.333333%,39.215686%);fill-opacity:1;" d="M 56 56 L 256 56 L 240 160 L 72 160 Z M 56 56 "/>
<path style=" stroke:none;fill-rule:nonzero;fill:rgb(52.156863%,60%,0%);fill-opacity:1;" d="M 240 168 L 200 168 L 200 128 L 160 128 L 160 168 L 120 168 L 120 208 L 160 208 L 160 248 L 200 248 L 200 208 L 240 208 Z M 240 168 "/>
</g>
</svg>
