
<svg xmlns="http://www.w3.org/2000/svg" xmlns:xlink="http://www.w3.org/1999/xlink" width="256px" height="256px" viewBox="0 0 256 256" version="1.1">
<g id="surface1">
<path style=" stroke:none;fill-rule:nonzero;fill:rgb(91.764706%,56.470588%,21.176471%);fill-opacity:1;" d="M 24 56 L 232 56 L 232 136 L 24 136 Z M 24 56 "/>
<path style=" stroke:none;fill-rule:nonzero;fill:rgb(91.764706%,56.470588%,21.176471%);fill-opacity:1;" d="M 48 56 C 48 48 48 40 59.640625 40 L 100.359375 40 C 112 40 112 48 112 56 Z M 48 56 "/>
<path style=" stroke:none;fill-rule:nonzero;fill:rgb(58.431373%,59.607843%,62.352941%);fill-opacity:1;" d="M 40 72 L 216 72 L 216 128 L 40 128 Z M 40 72 "/>
<path style=" stroke:none;fill-rule:nonzero;fill:rgb(84.705882%,84.705882%,85.490196%);fill-opacity:1;" d="M 56 64 L 208 64 L 208 168 L 56 168 Z M 56 64 "/>
<path style=" stroke:none;fill-rule:nonzero;fill:rgb(97.647059%,97.647059%,97.647059%);fill-opacity:1;" d="M 48 80 L 200 80 L 200 184 L 48 184 Z M 48 80 "/>
<path style=" stroke:none;fill-rule:nonzero;fill:rgb(94.901961%,73.333333%,39.215686%);fill-opacity:1;" d="M 16 120 L 240 120 L 224 216 L 32 216 Z M 16 120 "/>
<path style=" stroke:none;fill-rule:nonzero;fill:rgb(80%,80%,80%);fill-opacity:1;" d="M 56 88 L 192 88 L 192 96 L 56 96 Z M 56 88 "/>
<path style=" stroke:none;fill-rule:nonzero;fill:rgb(80%,80%,80%);fill-opacity:1;" d="M 56 104 L 192 104 L 192 112 L 56 112 Z M 56 104 "/>
<path style=" stroke:none;fill-rule:evenodd;fill:rgb(52.156863%,60%,0%);fill-opacity:1;" d="M 232.109375 183.171875 C 232.484375 201.828125 222.65625 219.21875 206.390625 228.65625 C 190.140625 238.09375 169.984375 238.09375 153.71875 228.65625 C 137.453125 219.21875 127.609375 201.828125 128.015625 183.171875 C 127.609375 164.515625 137.453125 147.109375 153.71875 137.671875 C 169.984375 128.234375 190.140625 128.234375 206.390625 137.671875 C 222.65625 147.109375 232.484375 164.515625 232.109375 183.171875 Z M 232.109375 183.171875 "/>
<path style=" stroke:none;fill-rule:nonzero;fill:rgb(100%,100%,100%);fill-opacity:1;" d="M 208.53125 150.109375 C 207.421875 150.515625 206.484375 151.265625 205.859375 152.234375 L 177.484375 179.96875 L 159.78125 162.90625 C 159.078125 160.546875 156.84375 158.96875 154.359375 159.09375 C 151.90625 159.234375 149.859375 161.046875 149.40625 163.46875 C 148.96875 165.90625 150.265625 168.328125 152.53125 169.296875 L 173.859375 190.640625 C 175.90625 192.546875 179.078125 192.546875 181.109375 190.640625 L 213.109375 158.640625 C 214.359375 156.984375 214.53125 154.734375 213.546875 152.90625 C 212.578125 151.078125 210.59375 149.984375 208.53125 150.109375 Z M 208.53125 150.109375 "/>
</g>
</svg>
