
<svg xmlns="http://www.w3.org/2000/svg" xmlns:xlink="http://www.w3.org/1999/xlink" width="256px" height="256px" viewBox="0 0 256 256" version="1.1">
<g id="surface1">
<path style=" stroke:none;fill-rule:nonzero;fill:rgb(91.764706%,56.470588%,21.176471%);fill-opacity:1;" d="M 24 48 L 232 48 L 232 128 L 24 128 Z M 24 48 "/>
<path style=" stroke:none;fill-rule:nonzero;fill:rgb(91.764706%,56.470588%,21.176471%);fill-opacity:1;" d="M 48 48 C 48 40 48 32 59.632812 32 L 100.367188 32 C 112 32 112 40 112 48 L 112 56 L 48 56 Z M 48 48 "/>
<path style=" stroke:none;fill-rule:nonzero;fill:rgb(58.431373%,59.607843%,62.352941%);fill-opacity:1;" d="M 40 64 L 216 64 L 216 103.742188 L 40 103.742188 Z M 40 64 "/>
<path style=" stroke:none;fill-rule:nonzero;fill:rgb(84.705882%,84.705882%,85.490196%);fill-opacity:1;" d="M 56 56 L 208 56 L 208 160 L 56 160 Z M 56 56 "/>
<path style=" stroke:none;fill-rule:nonzero;fill:rgb(97.647059%,97.647059%,97.647059%);fill-opacity:1;" d="M 48 72 L 200 72 L 200 176 L 48 176 Z M 48 72 "/>
<path style=" stroke:none;fill-rule:nonzero;fill:rgb(94.901961%,73.333333%,39.215686%);fill-opacity:1;" d="M 8 80 L 248 80 L 230.859375 224 L 25.140625 224 Z M 8 80 "/>
<path style=" stroke:none;fill-rule:nonzero;fill:rgb(52.156863%,60%,0%);fill-opacity:1;" d="M 256 152 L 200 152 L 200 96 L 152 96 L 152 152 L 96 152 L 96 200 L 152 200 L 152 256 L 200 256 L 200 200 L 256 200 Z M 256 152 "/>
</g>
</svg>
