<?xml version="1.0" encoding="UTF-8" standalone="no"?>
<svg
   xmlns:dc="http://purl.org/dc/elements/1.1/"
   xmlns:cc="http://creativecommons.org/ns#"
   xmlns:rdf="http://www.w3.org/1999/02/22-rdf-syntax-ns#"
   xmlns:svg="http://www.w3.org/2000/svg"
   xmlns="http://www.w3.org/2000/svg"
   xmlns:xlink="http://www.w3.org/1999/xlink"
   xmlns:sodipodi="http://sodipodi.sourceforge.net/DTD/sodipodi-0.dtd"
   xmlns:inkscape="http://www.inkscape.org/namespaces/inkscape"
   width="48"
   viewBox="0 0 13.546667 13.546667"
   height="48"
   id="svg2"
   version="1.1"
   inkscape:version="0.91 r"
   sodipodi:docname="dolphin.svg">
  <metadata
     id="metadata331">
    <rdf:RDF>
      <cc:Work
         rdf:about="">
        <dc:format>image/svg+xml</dc:format>
        <dc:type
           rdf:resource="http://purl.org/dc/dcmitype/StillImage" />
        <dc:title />
      </cc:Work>
    </rdf:RDF>
  </metadata>
  <sodipodi:namedview
     pagecolor="#ffffff"
     bordercolor="#666666"
     borderopacity="1"
     objecttolerance="10"
     gridtolerance="10"
     guidetolerance="10"
     inkscape:pageopacity="0"
     inkscape:pageshadow="2"
     inkscape:window-width="1280"
     inkscape:window-height="998"
     id="namedview329"
     showgrid="true"
     inkscape:zoom="17.138526"
     inkscape:cx="33.531536"
     inkscape:cy="21.399609"
     inkscape:window-x="0"
     inkscape:window-y="0"
     inkscape:window-maximized="1"
     inkscape:current-layer="layer3"
     showguides="true"
     inkscape:guide-bbox="true">
    <inkscape:grid
       type="xygrid"
       id="grid3308" />
  </sodipodi:namedview>
  <defs
     id="defs4">
    <linearGradient
       id="linearGradient4140">
      <stop
         style="stop-color:#2684da;stop-opacity:1;"
         offset="0"
         id="stop4143" />
      <stop
         style="stop-color:#3f96e5;stop-opacity:1;"
         offset="1"
         id="stop4145" />
    </linearGradient>
    <linearGradient
       inkscape:collect="always"
       xlink:href="#linearGradient4140"
       id="linearGradient5286"
       gradientUnits="userSpaceOnUse"
       gradientTransform="matrix(0.28222223,0,0,0.28222223,-13.546666,6.2509917e-4)"
       x1="1"
       x2="47" />
    <clipPath
       id="clipPath-378271329">
      <g
         transform="translate(0,-1004.3622)"
         id="g3072">
        <path
           style="fill:#1890d0"
           inkscape:connector-curvature="0"
           d="m -24,13 c 0,1.105 -0.672,2 -1.5,2 -0.828,0 -1.5,-0.895 -1.5,-2 0,-1.105 0.672,-2 1.5,-2 0.828,0 1.5,0.895 1.5,2 z"
           transform="matrix(15.333333,0,0,11.5,414.99999,878.8622)"
           id="path3074" />
      </g>
    </clipPath>
  </defs>
  <g
     inkscape:groupmode="layer"
     id="layer3"
     inkscape:label="Symbol">
    <g
       transform="scale(0.28222223,0.28222223)"
       id="g21">
      <path
         style="opacity:0.02000002"
         inkscape:connector-curvature="0"
         d="m 1,43 0,0.25 c 0,2.216 1.784,4 4,4 l 38,0 c 2.216,0 4,-1.784 4,-4 L 47,43 c 0,2.216 -1.784,4 -4,4 L 5,47 C 2.784,47 1,45.216 1,43 z m 0,0.5 0,0.5 c 0,2.216 1.784,4 4,4 l 38,0 c 2.216,0 4,-1.784 4,-4 l 0,-0.5 c 0,2.216 -1.784,4 -4,4 l -38,0 c -2.216,0 -4,-1.784 -4,-4 z"
         id="path23" />
      <path
         style="opacity:0.05"
         inkscape:connector-curvature="0"
         d="m 1,43.25 0,0.25 c 0,2.216 1.784,4 4,4 l 38,0 c 2.216,0 4,-1.784 4,-4 l 0,-0.25 c 0,2.216 -1.784,4 -4,4 l -38,0 c -2.216,0 -4,-1.784 -4,-4 z"
         id="path25" />
      <path
         style="opacity:0.1"
         inkscape:connector-curvature="0"
         d="m 1,43 0,0.25 c 0,2.216 1.784,4 4,4 l 38,0 c 2.216,0 4,-1.784 4,-4 L 47,43 c 0,2.216 -1.784,4 -4,4 L 5,47 C 2.784,47 1,45.216 1,43 z"
         id="path27" />
    </g>
    <rect
       id="rect31"
       transform="matrix(0,-1,1,0,0,0)"
       rx="1.128889"
       y="0.28222239"
       x="-13.264444"
       height="12.982223"
       width="12.982223"
       style="fill:url(#linearGradient5286);fill-opacity:1.0" />
    <g
       transform="scale(0.28222223,0.28222223)"
       id="g53">
      <g
         transform="translate(0,-1004.3622)"
         id="g55">
        <path
           style="opacity:0.1"
           inkscape:connector-curvature="0"
           d="m 1,1043.36 0,4 c 0,2.216 1.784,4 4,4 l 38,0 c 2.216,0 4,-1.784 4,-4 l 0,-4 c 0,2.216 -1.784,4 -4,4 l -38,0 c -2.216,0 -4,-1.784 -4,-4 z"
           id="path57" />
      </g>
    </g>
    <g
       transform="matrix(0.28222223,0,0,0.28222223,-0.28222224,-0.28222226)"
       id="g3095">
      <g
         clip-path="url(#clipPath-378271329)"
         id="g3097">
        <g
           transform="translate(1,1)"
           id="g3099">
          <g
             style="opacity:0.1"
             id="g3101">
            <!-- color: #ce6137 -->
            <g
               id="g3103">
              <path
                 style="fill:#000000;fill-opacity:1;fill-rule:nonzero;stroke:none"
                 inkscape:connector-curvature="0"
                 d="m 13,15 22,0 0,9 -22,0 m 0,-9"
                 id="path3105" />
              <path
                 style="fill:#000000;fill-opacity:1;fill-rule:nonzero;stroke:none"
                 inkscape:connector-curvature="0"
                 d="M 16,16.25 C 16,15.125 16,14 17.273,14 l 4.453,0 c 1.273,0 1.273,1.125 1.273,2.25 m -7,0"
                 id="path3107" />
              <path
                 style="fill:#000000;fill-opacity:1;fill-rule:nonzero;stroke:none"
                 inkscape:connector-curvature="0"
                 d="m 15,16 17,0 0,12 -17,0 m 0,-12"
                 id="path3109" />
              <path
                 style="fill:#000000;fill-opacity:1;fill-rule:nonzero;stroke:none"
                 inkscape:connector-curvature="0"
                 d="m 16,17 18,0 0,4 -18,0 m 0,-4"
                 id="path3111" />
              <path
                 style="fill:#000000;fill-opacity:1;fill-rule:nonzero;stroke:none"
                 inkscape:connector-curvature="0"
                 d="m 17,18 16,0 0,12 -16,0 m 0,-12"
                 id="path3113" />
              <path
                 style="fill:#000000;fill-opacity:1;fill-rule:nonzero;stroke:none"
                 inkscape:connector-curvature="0"
                 d="m 11,19 26,0 -2,14 -22,0 M 11,19"
                 id="path3115" />
              <path
                 style="fill:#000000;fill-opacity:0.72899996;fill-rule:nonzero;stroke:none"
                 inkscape:connector-curvature="0"
                 d="m 27.19,19.961 c -0.047,0 -0.078,0.012 -0.102,0.051 -0.125,0.219 0.121,0.93 -0.066,1.301 -0.184,0.371 -0.184,0.465 -1.668,0.281 -1.484,-0.184 -3.711,0.465 -4.512,1.266 -0.813,0.805 -2.195,2.844 -2.48,4.02 -0.273,1.176 -0.148,1.238 0.223,1.055 0.367,-0.188 0.68,-1.828 2.867,-2.906 2.199,-1.082 3.223,-0.219 3.223,-0.219 0,0 -1.891,-0.25 -3.277,0.895 -1.391,1.148 -2.258,2.039 -2.227,2.391 0.031,0.34 0.152,0.27 0.375,0 0.215,-0.281 1.512,-1.98 3.059,-2.539 1.547,-0.563 2.195,-0.523 2.781,-0.215 0.59,0.309 0.715,0.609 -0.117,0.824 -0.84,0.223 -1.18,0.125 -1.18,0.125 0,0 0.711,0.648 1.727,0.648 1.023,0 1.645,-0.063 1.645,-0.063 0,0 2.531,2.629 3.184,3.156 0.645,0.523 1.363,0.277 1.363,-0.035 0,-0.309 -0.313,-1.176 -0.313,-1.176 0,0 0.648,-1.457 -0.098,-3.094 -0.742,-1.641 -2.781,-3.336 -2.781,-3.336 0,0 -0.215,-0.93 -0.676,-1.547 -0.375,-0.5 -0.754,-0.879 -0.949,-0.887 M 16.66,27.449 c -0.09,0.004 -0.184,0.027 -0.27,0.078 -0.711,0.402 -0.34,1.117 0.281,1.117 0.617,0 1.297,-0.25 1.297,-0.25 0,0 -0.664,-0.969 -1.309,-0.941 m 1.367,1.191 c 0,0 -1.387,0.211 -1.543,0.863 -0.156,0.648 0.582,0.836 1.047,0.496 0.465,-0.34 0.496,-1.359 0.496,-1.359 m 0,0"
                 id="path3117" />
            </g>
          </g>
        </g>
      </g>
    </g>
    <path
       style="fill:#ea8e36;fill-opacity:1;fill-rule:nonzero;stroke:none"
       inkscape:connector-curvature="0"
       id="path3125"
       d="m 3.668889,3.9511111 6.208889,0 0,2.5400001 -6.208889,0 m 0,-2.5400001" />
    <path
       style="fill:#ea8e36;fill-opacity:1;fill-rule:nonzero;stroke:none"
       inkscape:connector-curvature="0"
       id="path3127"
       d="m 4.5155556,4.3038889 c 0,-0.3175 0,-0.635 0.3592689,-0.635 l 1.2567356,0 c 0.3592689,0 0.3592689,0.3175 0.3592689,0.635 m -1.9755556,0" />
    <path
       style="fill:#d6d6d6;fill-opacity:1;fill-rule:nonzero;stroke:none"
       inkscape:connector-curvature="0"
       id="path3129"
       d="m 4.2333334,4.2333333 4.7977779,0 0,3.3866668 -4.7977779,0 m 0,-3.3866668" />
    <path
       style="fill:#95959c;fill-opacity:1;fill-rule:nonzero;stroke:none"
       inkscape:connector-curvature="0"
       id="path3131"
       d="m 4.5155556,4.5155556 5.0800002,0 0,1.1288889 -5.0800002,0 m 0,-1.1288889" />
    <path
       style="fill:#f9f9f9;fill-opacity:1;fill-rule:nonzero;stroke:none"
       inkscape:connector-curvature="0"
       id="path3133"
       d="m 4.7977779,4.7977778 4.5155556,0 0,3.3866668 -4.5155556,0 m 0,-3.3866668" />
    <path
       style="fill:#f2b962;fill-opacity:1;fill-rule:nonzero;stroke:none"
       inkscape:connector-curvature="0"
       id="path3135"
       d="m 3.1044445,5.08 7.3377775,0 -0.564444,3.9511113 -6.208889,0 M 3.1044445,5.08" />
    <path
       style="fill:#000000;fill-opacity:0.25098039;fill-rule:nonzero;stroke:none"
       inkscape:connector-curvature="0"
       id="path3137"
       d="m 7.6736224,5.3512156 c -0.013265,0 -0.022013,0.00339 -0.028787,0.014393 -0.035278,0.061807 0.034149,0.2624667 -0.018627,0.3671712 -0.051928,0.1047047 -0.051928,0.1312336 -0.470746,0.079305 C 6.7366446,5.7601556 6.1081357,5.9433178 5.8820757,6.1693779 5.652629,6.3965667 5.2625979,6.9720179 5.1821646,7.3039112 5.1051179,7.6358046 5.1403957,7.6533023 5.2451001,7.6016557 5.3486757,7.5485979 5.4370112,7.0857534 6.0542312,6.7815179 6.6748379,6.4761534 6.9638335,6.7197112 6.9638335,6.7197112 c 0,0 -0.5336823,-0.070556 -0.9248423,0.2525889 -0.3925711,0.3239911 -0.6372578,0.5754511 -0.6285089,0.6747933 0.00875,0.095956 0.042898,0.0762 0.1058334,0 0.060678,-0.079304 0.42672,-0.5588 0.8633178,-0.7165622 0.4365978,-0.1588911 0.6194778,-0.1476022 0.78486,-0.060678 0.1665111,0.087207 0.2017889,0.1718734 -0.03302,0.2325511 -0.2370667,0.062936 -0.3330222,0.035278 -0.3330222,0.035278 0,0 0.20066,0.18288 0.4873977,0.18288 0.2887134,0 0.4642556,-0.01778 0.4642556,-0.01778 0,0 0.7143045,0.7419623 0.8985956,0.8906934 0.1820333,0.1476022 0.3846689,0.078176 0.3846689,-0.00988 0,-0.087207 -0.088336,-0.3318933 -0.088336,-0.3318933 0,0 0.18288,-0.4111978 -0.027658,-0.8731956 C 8.7079669,6.5153823 8.1325157,6.0370156 8.1325157,6.0370156 c 0,0 -0.060678,-0.2624666 -0.1907822,-0.4365978 C 7.8359002,5.4593067 7.7289379,5.3523445 7.6739046,5.3500867 m -2.9720823,2.114409 c -0.0254,0.00113 -0.051929,0.00762 -0.0762,0.022013 -0.20066,0.1134533 -0.095956,0.3152422 0.079304,0.3152422 0.1741311,0 0.3660422,-0.070556 0.3660422,-0.070556 0,0 -0.1873956,-0.2734734 -0.3694289,-0.2655712 m 0.3857978,0.3361267 c 0,0 -0.3914422,0.059549 -0.4354689,0.2435578 -0.044027,0.18288 0.1642533,0.2359378 0.2954867,0.1399822 0.1312333,-0.095956 0.1399822,-0.38354 0.1399822,-0.38354 m 0,0" />
  </g>
</svg>
