<?xml version="1.0" encoding="UTF-8" standalone="no"?>
<svg
   xmlns:dc="http://purl.org/dc/elements/1.1/"
   xmlns:cc="http://creativecommons.org/ns#"
   xmlns:rdf="http://www.w3.org/1999/02/22-rdf-syntax-ns#"
   xmlns:svg="http://www.w3.org/2000/svg"
   xmlns="http://www.w3.org/2000/svg"
   xmlns:xlink="http://www.w3.org/1999/xlink"
   xmlns:sodipodi="http://sodipodi.sourceforge.net/DTD/sodipodi-0.dtd"
   xmlns:inkscape="http://www.inkscape.org/namespaces/inkscape"
   width="48"
   viewBox="0 0 13.546667 13.546667"
   height="48"
   id="svg2"
   version="1.1"
   inkscape:version="0.91 r"
   sodipodi:docname="file-manager.svg">
  <metadata
     id="metadata331">
    <rdf:RDF>
      <cc:Work
         rdf:about="">
        <dc:format>image/svg+xml</dc:format>
        <dc:type
           rdf:resource="http://purl.org/dc/dcmitype/StillImage" />
        <dc:title />
      </cc:Work>
    </rdf:RDF>
  </metadata>
  <sodipodi:namedview
     pagecolor="#ffffff"
     bordercolor="#666666"
     borderopacity="1"
     objecttolerance="10"
     gridtolerance="10"
     guidetolerance="10"
     inkscape:pageopacity="0"
     inkscape:pageshadow="2"
     inkscape:window-width="1280"
     inkscape:window-height="998"
     id="namedview329"
     showgrid="true"
     inkscape:zoom="11.313708"
     inkscape:cx="26.689832"
     inkscape:cy="23.315738"
     inkscape:window-x="0"
     inkscape:window-y="0"
     inkscape:window-maximized="1"
     inkscape:current-layer="layer3"
     showguides="true"
     inkscape:guide-bbox="true">
    <inkscape:grid
       type="xygrid"
       id="grid3308" />
  </sodipodi:namedview>
  <defs
     id="defs4">
    <linearGradient
       inkscape:collect="always"
       xlink:href="#linearGradient4140-8"
       id="linearGradient5286"
       gradientUnits="userSpaceOnUse"
       gradientTransform="matrix(0.28222223,0,0,0.28222223,-13.546667,6.2515369e-4)"
       x1="1"
       x2="47" />
    <linearGradient
       id="linearGradient4140-8">
      <stop
         style="stop-color:#6e6196;stop-opacity:1;"
         offset="0"
         id="stop4143-5" />
      <stop
         style="stop-color:#847baf;stop-opacity:1;"
         offset="1"
         id="stop4145-4" />
    </linearGradient>
  </defs>
  <g
     inkscape:groupmode="layer"
     id="layer3"
     inkscape:label="Symbol">
    <g
       transform="scale(0.28222223,0.28222223)"
       id="g21">
      <path
         style="opacity:0.02000002"
         inkscape:connector-curvature="0"
         d="m 1,43 0,0.25 c 0,2.216 1.784,4 4,4 l 38,0 c 2.216,0 4,-1.784 4,-4 L 47,43 c 0,2.216 -1.784,4 -4,4 L 5,47 C 2.784,47 1,45.216 1,43 z m 0,0.5 0,0.5 c 0,2.216 1.784,4 4,4 l 38,0 c 2.216,0 4,-1.784 4,-4 l 0,-0.5 c 0,2.216 -1.784,4 -4,4 l -38,0 c -2.216,0 -4,-1.784 -4,-4 z"
         id="path23" />
      <path
         style="opacity:0.05"
         inkscape:connector-curvature="0"
         d="m 1,43.25 0,0.25 c 0,2.216 1.784,4 4,4 l 38,0 c 2.216,0 4,-1.784 4,-4 l 0,-0.25 c 0,2.216 -1.784,4 -4,4 l -38,0 c -2.216,0 -4,-1.784 -4,-4 z"
         id="path25" />
      <path
         style="opacity:0.1"
         inkscape:connector-curvature="0"
         d="m 1,43 0,0.25 c 0,2.216 1.784,4 4,4 l 38,0 c 2.216,0 4,-1.784 4,-4 L 47,43 c 0,2.216 -1.784,4 -4,4 L 5,47 C 2.784,47 1,45.216 1,43 z"
         id="path27" />
    </g>
    <rect
       id="rect31"
       transform="matrix(0,-1,1,0,0,0)"
       rx="1.128889"
       y="0.28222224"
       x="-13.264444"
       height="12.982223"
       width="12.982223"
       style="fill:url(#linearGradient5286);fill-opacity:1" />
    <g
       transform="scale(0.28222223,0.28222223)"
       id="g53">
      <g
         transform="translate(0,-1004.3622)"
         id="g55">
        <path
           style="opacity:0.1"
           inkscape:connector-curvature="0"
           d="m 1,1043.36 0,4 c 0,2.216 1.784,4 4,4 l 38,0 c 2.216,0 4,-1.784 4,-4 l 0,-4 c 0,2.216 -1.784,4 -4,4 l -38,0 c -2.216,0 -4,-1.784 -4,-4 z"
           id="path57" />
      </g>
    </g>
    <rect
       y="4.2333336"
       x="3.668889"
       height="2.54"
       width="6.208889"
       id="rect4203"
       style="opacity:0.1;fill:#000000;fill-opacity:1;stroke:none" />
    <path
       sodipodi:nodetypes="ccccc"
       inkscape:connector-curvature="0"
       id="path4205"
       d="m 3.1044445,5.3622224 7.3377785,0 -0.5644452,3.9511112 -6.2088887,0 z"
       style="opacity:0.1;fill:#000000;fill-opacity:1;stroke:none" />
    <rect
       style="fill:#ea9036;fill-opacity:1;stroke:none"
       id="rect3757"
       width="6.208889"
       height="2.54"
       x="3.6688893"
       y="3.9511116" />
    <path
       style="fill:#ea9036;fill-opacity:1;stroke:none"
       d="m 4.5155557,4.303889 c 0,-0.3175001 0,-0.635 0.3591922,-0.635 l 1.2571715,0 c 0.3591918,0 0.3591918,0.3174999 0.3591918,0.635 z"
       id="path3759"
       inkscape:connector-curvature="0"
       sodipodi:nodetypes="ccccc" />
    <rect
       y="4.2333336"
       x="4.2333336"
       height="3.3866668"
       width="4.7977781"
       id="rect3763"
       style="fill:#d8d8da;fill-opacity:1;stroke:none" />
    <path
       style="fill:#95989f;fill-opacity:1;stroke:none"
       d="m 4.5155557,4.5155557 5.0800001,0 0,1.1288889 -5.0800001,0 z"
       id="path3765"
       inkscape:connector-curvature="0" />
    <rect
       style="fill:#f9f9f9;fill-opacity:1;stroke:none"
       id="rect3761"
       width="4.5155559"
       height="3.3866668"
       x="4.7977781"
       y="4.7977777" />
    <path
       style="fill:#f2bb64;fill-opacity:1;stroke:none"
       d="m 3.1044445,5.0800002 7.3377785,0 -0.564445,3.9511114 -6.208889,0 z"
       id="path2987"
       inkscape:connector-curvature="0"
       sodipodi:nodetypes="ccccc" />
  </g>
</svg>
