<svg xmlns="http://www.w3.org/2000/svg" viewBox="0 0 48 48">
 <defs>
  <linearGradient id="linearGradient5286" gradientUnits="userSpaceOnUse" gradientTransform="translate(-48,0.00221437)" x1="1" x2="47">
   <stop style="stop-color:#019ad3;stop-opacity:1"/>
   <stop offset="1" style="stop-color:#01ace8;stop-opacity:1"/>
  </linearGradient>
  <clipPath id="clipPath-428684738">
   <g transform="translate(0,-1004.3622)">
    <path d="m -24 13 c 0 1.105 -0.672 2 -1.5 2 -0.828 0 -1.5 -0.895 -1.5 -2 0 -1.105 0.672 -2 1.5 -2 0.828 0 1.5 0.895 1.5 2 z" transform="matrix(15.333333,0,0,11.5,414.99999,878.8622)" style="fill:#1890d0"/>
   </g>
  </clipPath>
 </defs>
 <g>
  <path d="m 1,43 0,0.25 c 0,2.216 1.784,4 4,4 l 38,0 c 2.216,0 4,-1.784 4,-4 L 47,43 c 0,2.216 -1.784,4 -4,4 L 5,47 C 2.784,47 1,45.216 1,43 z m 0,0.5 0,0.5 c 0,2.216 1.784,4 4,4 l 38,0 c 2.216,0 4,-1.784 4,-4 l 0,-0.5 c 0,2.216 -1.784,4 -4,4 l -38,0 c -2.216,0 -4,-1.784 -4,-4 z" style="opacity:0.02"/>
  <path d="m 1 43.25 0 0.25 c 0 2.216 1.784 4 4 4 l 38 0 c 2.216 0 4 -1.784 4 -4 l 0 -0.25 c 0 2.216 -1.784 4 -4 4 l -38 0 c -2.216 0 -4 -1.784 -4 -4 z" style="opacity:0.05"/>
  <path d="m 1,43 0,0.25 c 0,2.216 1.784,4 4,4 l 38,0 c 2.216,0 4,-1.784 4,-4 L 47,43 c 0,2.216 -1.784,4 -4,4 L 5,47 C 2.784,47 1,45.216 1,43 z" style="opacity:0.1"/>
 </g>
 <rect transform="matrix(0,-1,1,0,0,0)" rx="4" y="1" x="-47" height="46" width="46" style="fill:url(#linearGradient5286);fill-opacity:1"/>
 <g>
  <g transform="translate(0,-1004.3622)">
   <path d="m 1 1043.36 0 4 c 0 2.216 1.784 4 4 4 l 38 0 c 2.216 0 4 -1.784 4 -4 l 0 -4 c 0 2.216 -1.784 4 -4 4 l -38 0 c -2.216 0 -4 -1.784 -4 -4 z" style="opacity:0.1"/>
  </g>
 </g>
 <g transform="translate(-1,-1)">
  <g style="clip-path:url(#clipPath-428684738)">
   <g transform="translate(1,1)">
    <g style="opacity:0.1">
     <!-- color: #7373a1 -->
     <g>
      <path d="m 13 15 22 0 0 9 -22 0 m 0 -9" style="fill:#000;fill-opacity:1;stroke:none;fill-rule:nonzero"/>
      <path d="M 16,16.25 C 16,15.125 16,14 17.273,14 l 4.453,0 c 1.273,0 1.273,1.121 1.273,2.25 m -7,0" style="fill:#000;fill-opacity:1;stroke:none;fill-rule:nonzero"/>
      <path d="m 15 16 17 0 0 12 -17 0 m 0 -12" style="fill:#000;fill-opacity:1;stroke:none;fill-rule:nonzero"/>
      <path d="m 16 17 18 0 0 4 -18 0 m 0 -4" style="fill:#000;fill-opacity:1;stroke:none;fill-rule:nonzero"/>
      <path d="m 17 18 16 0 0 12 -16 0 m 0 -12" style="fill:#000;fill-opacity:1;stroke:none;fill-rule:nonzero"/>
      <path d="m 11,19 26,0 -2,14 -22,0 M 11,19" style="fill:#000;fill-opacity:1;stroke:none;fill-rule:nonzero"/>
      <path d="m 20.523 21 c -0.516 0 -1.016 0.07 -1.492 0.191 0 -0.008 0 -0.012 0 -0.02 -0.531 0.137 -0.934 0.32 -1.012 0.355 0 0.012 0 0.023 0 0.035 -0.004 0 -0.012 0.004 -0.02 0.008 0.055 0.434 0.133 0.863 0.172 1.059 0.422 1.785 1.641 3.258 3.254 4.04 -0.008 0.121 -0.02 0.238 -0.02 0.363 0 1.648 0.664 3.141 1.73 4.23 -0.008 0.004 0.008 0.008 0 0.012 0.309 0.289 0.727 0.625 0.813 0.691 0.023 0.012 0.059 0.023 0.07 0.039 0.355 -0.313 0.672 -0.652 0.754 -0.742 1.066 -1.09 1.73 -2.582 1.73 -4.23 0 -0.113 -0.02 -0.223 -0.023 -0.336 1.641 -0.758 2.879 -2.23 3.32 -4.02 -0.008 -0.004 0.004 -0.008 0 -0.012 0.109 -0.48 0.188 -1 0.188 -1.055 -0.008 -0.004 -0.02 -0.008 -0.027 -0.012 0 -0.027 0 0.004 0 -0.023 -0.227 -0.102 -0.742 -0.277 -1.016 -0.367 0 0.02 0 -0.008 0 0.012 -0.496 -0.133 -1.02 -0.215 -1.551 -0.215 -1.285 0 -2.473 0.414 -3.449 1.105 -0.375 0.285 -0.645 0.527 -0.816 0.691 -0.02 0.02 -0.031 0.043 -0.051 0.063 -0.563 0.586 -1 1.285 -1.293 2.059 0.316 0.188 0.629 0.344 0.91 0.477 0.234 -0.68 0.621 -1.293 1.109 -1.809 0.004 -0.008 0.02 -0.027 0.031 -0.039 0.023 -0.027 0.047 -0.059 0.082 -0.09 0.008 -0.012 0.02 -0.012 0.031 -0.023 0.348 -0.305 0.621 -0.504 0.824 -0.637 0.102 -0.063 0.207 -0.125 0.313 -0.18 0.691 -0.367 1.469 -0.578 2.309 -0.578 0.5 0 0.988 0.074 1.445 0.215 -0.305 1.461 -1.238 2.68 -2.516 3.363 -0.199 -0.844 -0.57 -1.629 -1.086 -2.293 -0.43 0.301 -0.797 0.605 -0.824 0.629 0.422 0.539 0.734 1.168 0.906 1.855 0 0 0.02 0.07 0.051 0.203 0.012 0.063 0.023 0.102 0.047 0.227 0.063 0.313 0.055 0.672 0.051 0.816 0 0.027 0 0.102 0 0.102 l -0.012 0.016 c -0.039 1.352 -0.609 2.563 -1.512 3.438 -0.934 -0.902 -1.52 -2.168 -1.523 -3.578 0.5 0.137 1.023 0.215 1.563 0.215 0.293 0 0.586 -0.031 0.867 -0.074 0.016 -0.102 0.023 -0.219 0.031 -0.395 0.012 -0.313 -0.027 -0.527 -0.059 -0.648 -0.273 0.047 -0.555 0.07 -0.836 0.07 -0.504 0 -0.992 -0.074 -1.453 -0.211 -0.363 -0.074 -0.707 -0.254 -0.957 -0.41 -0.141 -0.086 -0.234 -0.148 -0.285 -0.18 -1.098 -0.711 -1.906 -1.832 -2.176 -3.164 0.441 -0.129 0.906 -0.203 1.391 -0.203 0.707 0 1.371 0.148 1.977 0.418 0.297 -0.281 0.656 -0.563 0.859 -0.719 -0.844 -0.461 -1.809 -0.73 -2.836 -0.73 m 0.008 0.004" style="fill:#000;fill-opacity:1;stroke:none;fill-rule:nonzero"/>
     </g>
    </g>
   </g>
  </g>
 </g>
 <path d="m 13 14 22 0 0 9 -22 0 m 0 -9" style="fill:#ea8e36;fill-opacity:1;stroke:none;fill-rule:nonzero"/>
 <path d="M 16,15.25 C 16,14.125 16,13 17.273,13 l 4.453,0 c 1.273,0 1.273,1.121 1.273,2.25 m -7,0" style="fill:#ea8e36;fill-opacity:1;stroke:none;fill-rule:nonzero"/>
 <path d="m 15 15 17 0 0 12 -17 0 m 0 -12" style="fill:#d6d6d7;fill-opacity:1;stroke:none;fill-rule:nonzero"/>
 <path d="m 16 16 18 0 0 4 -18 0 m 0 -4" style="fill:#95959c;fill-opacity:1;stroke:none;fill-rule:nonzero"/>
 <path d="m 17 17 16 0 0 12 -16 0 m 0 -12" style="fill:#f9f9f9;fill-opacity:1;stroke:none;fill-rule:nonzero"/>
 <path d="m 11,18 26,0 -2,14 -22,0 M 11,18" style="fill:#f2b962;fill-opacity:1;stroke:none;fill-rule:nonzero"/>
 <path d="m 19.711 17.934 3.5 1.727 c 0 0 2.152 -0.605 2.738 0.637 0 0 1.141 -0.398 2.34 -0.023 0 0 -0.469 0.551 -0.434 1.816 0 0 0.297 5.227 -3.723 7.04 0 0 1.215 1.387 0.461 2.797 0 0 -0.168 -0.691 -0.785 -1.355 0 0 -0.93 -0.895 -0.965 -1.27 0 0 -1.203 0.16 -1.75 -0.59 0 0 -0.551 -0.434 -1.027 -0.484 0 0 1.703 -0.398 3.215 0.266 0 0 1.23 -0.777 1.402 -1.641 l -1.027 0.039 c 0 0 0.238 -0.664 1.203 -0.984 0 0 -0.07 -1.387 -0.414 -1.707 0 0 -1.398 -0.027 -2.188 0.547 0 0 1.039 -1.059 1.555 -1.289 0 0 -1.27 -0.055 -1.992 0.348 0 0 0.707 -1.125 1.227 -1.355 0 0 -0.656 -0.891 -0.656 -1.379 0 0 -0.723 -0.605 -0.965 -1.27 l 1.074 0.637 c 0 0 -1.336 -1.883 -2.777 -2.516 m -0.012 0.008" style="fill:#000;fill-opacity:0.251;stroke:none;fill-rule:nonzero"/>
</svg>
