<svg xmlns="http://www.w3.org/2000/svg" width="48" viewBox="0 0 13.546667 13.546667" height="48">
 <defs>
  <linearGradient id="linearGradient5286" gradientUnits="userSpaceOnUse" gradientTransform="matrix(0.28222223,0,0,0.28222223,-13.546667,6.2502911e-4)" x1="1" x2="47">
   <stop style="stop-color:#6e6196;stop-opacity:1"/>
   <stop offset="1" style="stop-color:#847baf;stop-opacity:1"/>
  </linearGradient>
  
 </defs>
 <g>
  <g transform="scale(0.28222223,0.28222223)">
   <path d="m 1,43 0,0.25 c 0,2.216 1.784,4 4,4 l 38,0 c 2.216,0 4,-1.784 4,-4 L 47,43 c 0,2.216 -1.784,4 -4,4 L 5,47 C 2.784,47 1,45.216 1,43 z m 0,0.5 0,0.5 c 0,2.216 1.784,4 4,4 l 38,0 c 2.216,0 4,-1.784 4,-4 l 0,-0.5 c 0,2.216 -1.784,4 -4,4 l -38,0 c -2.216,0 -4,-1.784 -4,-4 z" style="opacity:0.02"/>
   <path d="m 1 43.25 0 0.25 c 0 2.216 1.784 4 4 4 l 38 0 c 2.216 0 4 -1.784 4 -4 l 0 -0.25 c 0 2.216 -1.784 4 -4 4 l -38 0 c -2.216 0 -4 -1.784 -4 -4 z" style="opacity:0.05"/>
   <path d="m 1,43 0,0.25 c 0,2.216 1.784,4 4,4 l 38,0 c 2.216,0 4,-1.784 4,-4 L 47,43 c 0,2.216 -1.784,4 -4,4 L 5,47 C 2.784,47 1,45.216 1,43 z" style="opacity:0.1"/>
  </g>
  <rect transform="matrix(0,-1,1,0,0,0)" rx="1.129" y="0.282" x="-13.264" height="12.982" width="12.982" style="fill:url(#linearGradient5286);fill-opacity:1"/>
  <g transform="scale(0.28222223,0.28222223)">
   <g transform="translate(0,-1004.3622)">
    <path d="m 1 1043.36 0 4 c 0 2.216 1.784 4 4 4 l 38 0 c 2.216 0 4 -1.784 4 -4 l 0 -4 c 0 2.216 -1.784 4 -4 4 l -38 0 c -2.216 0 -4 -1.784 -4 -4 z" style="opacity:0.1"/>
   </g>
  </g>
  <g transform="matrix(0.28222223,0,0,0.28222223,-0.28222224,-0.28222226)">
   <g style="clip-path:url(#clipPath-428684738)">
    <g transform="translate(1,1)">
     <g style="opacity:0.1">
      <!-- color: #7373a1 -->
      <g>
       <path d="m 13 15 22 0 0 9 -22 0 m 0 -9" style="fill:#000;fill-opacity:1;stroke:none;fill-rule:nonzero"/>
       <path d="M 16,16.25 C 16,15.125 16,14 17.273,14 l 4.453,0 c 1.273,0 1.273,1.121 1.273,2.25 m -7,0" style="fill:#000;fill-opacity:1;stroke:none;fill-rule:nonzero"/>
       <path d="m 15 16 17 0 0 12 -17 0 m 0 -12" style="fill:#000;fill-opacity:1;stroke:none;fill-rule:nonzero"/>
       <path d="m 16 17 18 0 0 4 -18 0 m 0 -4" style="fill:#000;fill-opacity:1;stroke:none;fill-rule:nonzero"/>
       <path d="m 17 18 16 0 0 12 -16 0 m 0 -12" style="fill:#000;fill-opacity:1;stroke:none;fill-rule:nonzero"/>
       <path d="m 11,19 26,0 -2,14 -22,0 M 11,19" style="fill:#000;fill-opacity:1;stroke:none;fill-rule:nonzero"/>
       <path d="m 20.523 21 c -0.516 0 -1.016 0.07 -1.492 0.191 0 -0.008 0 -0.012 0 -0.02 -0.531 0.137 -0.934 0.32 -1.012 0.355 0 0.012 0 0.023 0 0.035 -0.004 0 -0.012 0.004 -0.02 0.008 0.055 0.434 0.133 0.863 0.172 1.059 0.422 1.785 1.641 3.258 3.254 4.04 -0.008 0.121 -0.02 0.238 -0.02 0.363 0 1.648 0.664 3.141 1.73 4.23 -0.008 0.004 0.008 0.008 0 0.012 0.309 0.289 0.727 0.625 0.813 0.691 0.023 0.012 0.059 0.023 0.07 0.039 0.355 -0.313 0.672 -0.652 0.754 -0.742 1.066 -1.09 1.73 -2.582 1.73 -4.23 0 -0.113 -0.02 -0.223 -0.023 -0.336 1.641 -0.758 2.879 -2.23 3.32 -4.02 -0.008 -0.004 0.004 -0.008 0 -0.012 0.109 -0.48 0.188 -1 0.188 -1.055 -0.008 -0.004 -0.02 -0.008 -0.027 -0.012 0 -0.027 0 0.004 0 -0.023 -0.227 -0.102 -0.742 -0.277 -1.016 -0.367 0 0.02 0 -0.008 0 0.012 -0.496 -0.133 -1.02 -0.215 -1.551 -0.215 -1.285 0 -2.473 0.414 -3.449 1.105 -0.375 0.285 -0.645 0.527 -0.816 0.691 -0.02 0.02 -0.031 0.043 -0.051 0.063 -0.563 0.586 -1 1.285 -1.293 2.059 0.316 0.188 0.629 0.344 0.91 0.477 0.234 -0.68 0.621 -1.293 1.109 -1.809 0.004 -0.008 0.02 -0.027 0.031 -0.039 0.023 -0.027 0.047 -0.059 0.082 -0.09 0.008 -0.012 0.02 -0.012 0.031 -0.023 0.348 -0.305 0.621 -0.504 0.824 -0.637 0.102 -0.063 0.207 -0.125 0.313 -0.18 0.691 -0.367 1.469 -0.578 2.309 -0.578 0.5 0 0.988 0.074 1.445 0.215 -0.305 1.461 -1.238 2.68 -2.516 3.363 -0.199 -0.844 -0.57 -1.629 -1.086 -2.293 -0.43 0.301 -0.797 0.605 -0.824 0.629 0.422 0.539 0.734 1.168 0.906 1.855 0 0 0.02 0.07 0.051 0.203 0.012 0.063 0.023 0.102 0.047 0.227 0.063 0.313 0.055 0.672 0.051 0.816 0 0.027 0 0.102 0 0.102 l -0.012 0.016 c -0.039 1.352 -0.609 2.563 -1.512 3.438 -0.934 -0.902 -1.52 -2.168 -1.523 -3.578 0.5 0.137 1.023 0.215 1.563 0.215 0.293 0 0.586 -0.031 0.867 -0.074 0.016 -0.102 0.023 -0.219 0.031 -0.395 0.012 -0.313 -0.027 -0.527 -0.059 -0.648 -0.273 0.047 -0.555 0.07 -0.836 0.07 -0.504 0 -0.992 -0.074 -1.453 -0.211 -0.363 -0.074 -0.707 -0.254 -0.957 -0.41 -0.141 -0.086 -0.234 -0.148 -0.285 -0.18 -1.098 -0.711 -1.906 -1.832 -2.176 -3.164 0.441 -0.129 0.906 -0.203 1.391 -0.203 0.707 0 1.371 0.148 1.977 0.418 0.297 -0.281 0.656 -0.563 0.859 -0.719 -0.844 -0.461 -1.809 -0.73 -2.836 -0.73 m 0.008 0.004" style="fill:#000;fill-opacity:1;stroke:none;fill-rule:nonzero"/>
      </g>
     </g>
    </g>
   </g>
  </g>
  <path d="m 3.669 3.951 6.209 0 0 2.54 -6.209 0 m 0 -2.54" style="fill:#ea8e36;fill-opacity:1;stroke:none;fill-rule:nonzero"/>
  <path d="m 4.516 4.304 c 0 -0.317 0 -0.635 0.359 -0.635 l 1.257 0 c 0.359 0 0.359 0.316 0.359 0.635 m -1.976 0" style="fill:#ea8e36;fill-opacity:1;stroke:none;fill-rule:nonzero"/>
  <path d="m 4.233 4.233 4.798 0 0 3.387 -4.798 0 m 0 -3.387" style="fill:#d6d6d7;fill-opacity:1;stroke:none;fill-rule:nonzero"/>
  <path d="m 4.516 4.516 5.08 0 0 1.129 -5.08 0 m 0 -1.129" style="fill:#95959c;fill-opacity:1;stroke:none;fill-rule:nonzero"/>
  <path d="m 4.798 4.798 4.516 0 0 3.387 -4.516 0 m 0 -3.387" style="fill:#f9f9f9;fill-opacity:1;stroke:none;fill-rule:nonzero"/>
  <path d="m 3.104 5.08 7.338 0 -0.564 3.951 -6.209 0 m -0.564 -3.951" style="fill:#f2b962;fill-opacity:1;stroke:none;fill-rule:nonzero"/>
  <path d="m 5.792 5.644 c -0.146 0 -0.287 0.02 -0.421 0.054 0 -0.002 0 -0.003 0 -0.006 -0.15 0.039 -0.264 0.09 -0.286 0.1 0 0.003 0 0.006 0 0.001 -0.0001 0 -0.003 0.0001 -0.006 0.002 0.016 0.122 0.038 0.244 0.049 0.299 0.119 0.504 0.463 0.919 0.918 1.14 -0.002 0.034 -0.006 0.067 -0.006 0.102 0 0.465 0.187 0.886 0.488 1.194 -0.002 0.0001 0.002 0.002 0 0.003 0.087 0.082 0.205 0.176 0.229 0.195 0.006 0.003 0.017 0.006 0.02 0.011 0.1 -0.088 0.19 -0.184 0.213 -0.209 0.301 -0.308 0.488 -0.729 0.488 -1.194 0 -0.032 -0.006 -0.063 -0.006 -0.095 0.463 -0.214 0.813 -0.629 0.937 -1.135 -0.002 -0.0001 0.0001 -0.002 0 -0.003 0.031 -0.135 0.053 -0.282 0.053 -0.298 -0.002 -0.0001 -0.006 -0.002 -0.008 -0.003 0 -0.008 0 0.0001 0 -0.006 -0.064 -0.029 -0.209 -0.078 -0.287 -0.104 0 0.006 0 -0.002 0 0.003 -0.14 -0.038 -0.288 -0.061 -0.438 -0.061 -0.363 0 -0.698 0.117 -0.973 0.312 -0.106 0.08 -0.182 0.149 -0.23 0.195 -0.006 0.006 -0.009 0.012 -0.014 0.018 -0.159 0.165 -0.282 0.363 -0.365 0.581 0.089 0.053 0.178 0.097 0.257 0.135 0.066 -0.192 0.175 -0.365 0.313 -0.511 0.0001 -0.002 0.006 -0.008 0.009 -0.011 0.006 -0.008 0.013 -0.017 0.023 -0.025 0.002 -0.003 0.006 -0.003 0.009 -0.006 0.098 -0.086 0.175 -0.142 0.233 -0.18 0.029 -0.018 0.058 -0.035 0.088 -0.051 c 0.195 -0.104 0.415 -0.163 0.652 -0.163 c 0.141 0 0.279 0.021 0.408 0.061 c -0.086 0.412 -0.349 0.756 -0.71 0.949 -0.056 -0.238 -0.161 -0.46 -0.306 -0.647 -0.121 0.085 -0.225 0.171 -0.233 0.178 0.119 0.152 0.207 0.33 0.256 0.524 c 0 0 0.006 0.02 0.014 0.057 0.003 0.018 0.006 0.029 0.013 0.064 0.018 0.088 0.016 0.19 0.014 0.23 0 0.008 0 0.029 0 0.029 l -0.003 0.005 c -0.011 0.382 -0.172 0.723 -0.427 0.97 -0.264 -0.255 -0.429 -0.612 -0.43 -1.01 c 0.141 0.039 0.289 0.061 0.441 0.061 0.083 0 0.165 -0.009 0.245 -0.021 0.005 -0.029 0.006 -0.062 0.009 -0.111 0.003 -0.088 -0.008 -0.149 -0.017 -0.183 -0.077 0.013 -0.157 0.02 -0.236 0.02 -0.142 0 -0.28 -0.021 -0.41 -0.06 -0.102 -0.021 -0.2 -0.072 -0.27 -0.116 -0.04 -0.024 -0.066 -0.042 -0.08 -0.051 -0.31 -0.201 -0.538 -0.517 -0.614 -0.893 0.124 -0.036 0.256 -0.057 0.393 -0.057 0.2 0 0.387 0.042 0.558 0.118 c 0.084 -0.079 0.185 -0.159 0.242 -0.203 -0.238 -0.13 -0.511 -0.206 -0.8 -0.206 m 0.002 0.0001" style="fill:#000;fill-opacity:0.329;stroke:none;fill-rule:nonzero"/>
 </g>
</svg>
