<svg xmlns="http://www.w3.org/2000/svg" viewBox="0 0 48 48">
 <path d="m 5 18 c -1 0 -2 1 -2 2 l 0 1 -1 0 c -1 0 -2.01 0.949 -2 2 l 0 21 c 0 1.121 1.038 2 2.188 2 l 33.625 0 c 1.188 0 2.188 -1 2.188 -2 l 0 -18 c 0 -1 -1 -2 -2 -2 l -2 0 0 -4 c 0 -1 -1 -2 -2 -2 z" style="visibility:visible;fill:#8d6e63;fill-opacity:1;stroke:none;display:inline;color:#000;fill-rule:nonzero"/>
 <path d="m 5 18 c -1 0 -2 1 -2 2 l 0 1 -1 0 c -1 0 -2.01 0.949 -2 2 l 0 21 c 0 1.121 1.038 2 2.188 2 l 33.625 0 c 1.188 0 2.188 -1 2.188 -2 l 0 -18 c 0 -1 -1 -2 -2 -2 l -2 0 0 -4 c 0 -1 -1 -2 -2 -2 z m -3 4 19 0 c 0.507 0 1 0.494 1 1 l 0 2 14 0 c 0.541 0 1 0.472 1 1 l 0 18 c 0 0.554 -0.452 1 -1 1 l -34 0 c -0.513 0 -1 -0.446 -1 -1 l 0 -21 c 0 -0.543 0.479 -1 1 -1 z" style="visibility:visible;fill:#000;fill-opacity:0.322;stroke:none;display:inline;color:#000;fill-rule:nonzero"/>
 <path d="m 5 18 c -1 0 -2 1 -2 2 l 0 1 l -1 0 c -1 0 -2.01 0.949 -2 2 l 0 21 c 0 1.121 1.038 2 2.188 2 l 33.625 0 c 0.297 0 0.583 -0.078 0.844 -0.188 c 0.652 -0.273 1.164 -0.822 1.313 -1.438 c 0.03 -0.123 0.031 -0.25 0.031 -0.375 l 0 -18 c 0 -0.25 -0.078 -0.516 -0.188 -0.75 c -0.328 -0.703 -1.063 -1.25 -1.813 -1.25 l -2 0 l 0 -4 c 0 -1 -1 -2 -2 -2 l -27 0 z" style="visibility:visible;fill:#000;fill-opacity:0.102;stroke:none;display:inline;color:#000;fill-rule:nonzero"/>
 <path d="m 15 2 c -1 0 -2 1 -2 2 l 0 1 -1 0 c -1 0 -2.01 0.949 -2 2 l 0 21 c 0 1.121 1.038 2 2.188 2 l 33.625 0 c 1.188 0 2.188 -1 2.188 -2 l 0 -18 c 0 -1 -1 -2 -2 -2 l -2 0 0 -4 c 0 -1 -1 -2 -2 -2 z" style="visibility:visible;fill:#8d6e63;fill-opacity:1;stroke:none;display:inline;color:#000;fill-rule:nonzero"/>
 <path d="m 15 2 c -1 0 -2 1 -2 2 l 0 1 -1 0 c -1 0 -2.01 0.949 -2 2 l 0 21 c 0 1.121 1.038 2 2.188 2 l 33.625 0 c 1.188 0 2.188 -1 2.188 -2 l 0 -18 c 0 -1 -1 -2 -2 -2 l -2 0 0 -4 c 0 -1 -1 -2 -2 -2 z m -3 4 19 0 c 0.507 0 1 0.494 1 1 l 0 2 14 0 c 0.541 0 1 0.472 1 1 l 0 18 c 0 0.554 -0.452 1 -1 1 l -34 0 c -0.513 0 -1 -0.446 -1 -1 l 0 -21 c 0 -0.543 0.479 -1 1 -1 z" style="visibility:visible;fill:#000;fill-opacity:0.322;stroke:none;display:inline;color:#000;fill-rule:nonzero"/>
 <path d="m 46 30 l -8 0 l 0 -8 l -8 0 l 0 8 l -8 0 l 0 8 l 8 0 l 0 8 l 8 0 l 0 -8 l 8 0 Z" style="fill:#859900"/>
</svg>
