<svg xmlns="http://www.w3.org/2000/svg" viewBox="0 0 48 48">
 <path d="m 6 6 c -1 0 -2 1 -2 2 l 0 10 l -1 0 c -1 0 -2.01 0.949 -2 2 l 0 20 c 0 1.121 1.038 2 2.188 2 l 41.625 0 c 1.188 0 2.188 -1 2.188 -2 l 0 -17 c 0 -1 -1 -2 -2 -2 l -2 0 0 -13 c 0 -1 -1 -2 -2 -2 z" style="visibility:visible;fill:#ffca28;fill-opacity:1;stroke:none;display:inline;color:#000;fill-rule:nonzero"/>
 <path d="m 6 6 c -1 0 -2 1 -2 2 l 0 10 l -1 0 c -1 0 -2.01 0.949 -2 2 l 0 20 c 0 1.121 1.038 2 2.188 2 l 41.625 0 c 1.188 0 2.188 -1 2.188 -2 l 0 -17 c 0 -1 -1 -2 -2 -2 l -2 0 0 -13 c 0 -1 -1 -2 -2 -2 z m -3 13 l 24 0 c 0.507 0 1 0.494 1 1 l 0 2 17 0 c 0.541 0 1 0.472 1 1 l 0 17 c 0 0.554 -0.452 1 -1 1 l -42 0 c -0.513 0 -1 -0.446 -1 -1 l 0 -20 c 0 -0.543 0.479 -1 1 -1 z" style="visibility:visible;fill:#000;fill-opacity:0.322;stroke:none;display:inline;color:#000;fill-rule:nonzero"/>
 <g transform="matrix(1,0,0,0.28570929,-1.42373,7.4758984)">
  <rect width="28" x="11.424" y="8.835" height="28" style="fill:#fff"/>
 </g>
 <path d="m 13 13 22 0 0 2 -22 0 z" style="fill:#ccc"/>
 <rect height="1" y="17" x="13" width="22" style="fill:#ccc"/>
 <path d="m 29 18 9 0 0 3 -9 0 z" style="fill:#fff;fill-opacity:1;stroke:none;fill-rule:evenodd"/>
 <path d="m 29 20 c 0 -0.998 -1 -2 -2 -2 l 2 0 z" style="fill:#fff;fill-opacity:1;stroke:none"/>
 <path d="m 29 18 6 0 0 1 -6 0 z" style="fill:#ccc;fill-opacity:1;stroke:none;fill-rule:evenodd"/>
 <path d="m 27 18 c 0.647 0 1.28 0.433 1.656 1 l 0.344 0 l 0 -1 l -2 0 z" style="fill:#ccc;fill-opacity:1;stroke:none;fill-rule:evenodd"/>
</svg>
