<?xml version="1.0" encoding="UTF-8" standalone="no"?>
<!-- Created with Inkscape (http://www.inkscape.org/) -->

<svg
   xmlns:dc="http://purl.org/dc/elements/1.1/"
   xmlns:cc="http://creativecommons.org/ns#"
   xmlns:rdf="http://www.w3.org/1999/02/22-rdf-syntax-ns#"
   xmlns:svg="http://www.w3.org/2000/svg"
   xmlns="http://www.w3.org/2000/svg"
   xmlns:xlink="http://www.w3.org/1999/xlink"
   xmlns:sodipodi="http://sodipodi.sourceforge.net/DTD/sodipodi-0.dtd"
   xmlns:inkscape="http://www.inkscape.org/namespaces/inkscape"
   id="svg3692"
   height="24"
   width="24"
   version="1.1"
   inkscape:version="0.48.4 r9939"
   sodipodi:docname="bookmark-missing.svg">
  <sodipodi:namedview
     pagecolor="#ffffff"
     bordercolor="#666666"
     borderopacity="1"
     objecttolerance="10"
     gridtolerance="10"
     guidetolerance="10"
     inkscape:pageopacity="0"
     inkscape:pageshadow="2"
     inkscape:window-width="1366"
     inkscape:window-height="712"
     id="namedview42"
     showgrid="true"
     inkscape:zoom="19.869122"
     inkscape:cx="2.5439051"
     inkscape:cy="10.216095"
     inkscape:window-x="0"
     inkscape:window-y="27"
     inkscape:window-maximized="1"
     inkscape:current-layer="svg3692">
    <inkscape:grid
       type="xygrid"
       id="grid3811"
       empspacing="5"
       visible="true"
       enabled="true"
       snapvisiblegridlinesonly="true" />
  </sodipodi:namedview>
  <defs
     id="defs3694">
    <linearGradient
       id="linearGradient3619"
       y2="33.955002"
       gradientUnits="userSpaceOnUse"
       x2="15.215"
       gradientTransform="translate(2.9799,-3.1217)"
       y1="22.292"
       x1="11.566">
      <stop
         id="stop2687"
         style="stop-color:#fff;stop-opacity:.27451"
         offset="0" />
      <stop
         id="stop2689"
         style="stop-color:#fff;stop-opacity:0"
         offset="1" />
    </linearGradient>
    <linearGradient
       id="linearGradient3648"
       y2="43.444"
       gradientUnits="userSpaceOnUse"
       x2="29.646999"
       y1="2"
       x1="29.646999">
      <stop
         id="stop3644"
         style="stop-color:#fff"
         offset="0" />
      <stop
         id="stop3646"
         style="stop-color:#fff;stop-opacity:0"
         offset="1" />
    </linearGradient>
    <radialGradient
       id="radialGradient3627"
       gradientUnits="userSpaceOnUse"
       cy="25.625"
       cx="13.139"
       gradientTransform="matrix(0,2.6541,-3.1628,0,97.183,-26.676)"
       r="13.931">
      <stop
         id="stop3692"
         style="stop-color:#ffeb9f"
         offset="0" />
      <stop
         id="stop3694"
         style="stop-color:#ffd57e"
         offset=".26238" />
      <stop
         id="stop3696"
         style="stop-color:#ffbc43"
         offset=".66094" />
      <stop
         id="stop3698"
         style="stop-color:#ff921a"
         offset="1" />
    </radialGradient>
    <linearGradient
       id="linearGradient3629"
       y2="9.5799999"
       gradientUnits="userSpaceOnUse"
       x2="21.483"
       gradientTransform="matrix(1.6509,0,0,1.6568,-11.466,-15.046)"
       y1="36.255001"
       x1="21.483">
      <stop
         id="stop3605"
         style="stop-color:#a7651c"
         offset="0" />
      <stop
         id="stop3607"
         style="stop-color:#c8a700"
         offset="1" />
    </linearGradient>
    <radialGradient
       id="radialGradient3690"
       gradientUnits="userSpaceOnUse"
       cx="62.625"
       cy="4.625"
       r="10.625"
       gradientTransform="matrix(2.1647,0,0,0.84706,-111.56,35.082)">
      <stop
         id="stop8840"
         offset="0" />
      <stop
         id="stop8842"
         style="stop-opacity:0"
         offset="1" />
    </radialGradient>
    <linearGradient
       id="linearGradient5530"
       y2="38.273998"
       gradientUnits="userSpaceOnUse"
       x2="22.368999"
       gradientTransform="matrix(0.59882,0,0,0.5952,23.605,21.219)"
       y1="8.0323"
       x1="22.368999">
      <stop
         id="stop3945"
         style="stop-color:#fff"
         offset="0" />
      <stop
         id="stop3947"
         style="stop-color:#fff;stop-opacity:0"
         offset="1" />
    </linearGradient>
    <radialGradient
       id="radialGradient2885"
       gradientUnits="userSpaceOnUse"
       cx="69.447998"
       cy="51.695"
       r="31"
       gradientTransform="matrix(0,0.67924,-0.73892,0,72.903,-19.49)">
      <stop
         id="stop3244-5"
         style="stop-color:#eef87e"
         offset="0" />
      <stop
         id="stop3246-9"
         style="stop-color:#cde34f"
         offset=".26238" />
      <stop
         id="stop3248-7"
         style="stop-color:#93b723"
         offset=".66094" />
      <stop
         id="stop3250-8"
         style="stop-color:#5a7e0d"
         offset="1" />
    </radialGradient>
    <linearGradient
       id="linearGradient2887"
       y2="52.808998"
       gradientUnits="userSpaceOnUse"
       y1="123.19"
       gradientTransform="matrix(0.28214,0,0,0.28445,12.171,9.9582)"
       x2="72.421997"
       x1="72.421997">
      <stop
         id="stop2492-3"
         style="stop-color:#365f0e"
         offset="0" />
      <stop
         id="stop2494-8"
         style="stop-color:#84a718"
         offset="1" />
    </linearGradient>
    <linearGradient
       inkscape:collect="always"
       xlink:href="#linearGradient5530"
       id="linearGradient3020"
       gradientUnits="userSpaceOnUse"
       gradientTransform="matrix(0.59882,0,0,0.5952,-29.886525,43.388492)"
       x1="22.368999"
       y1="8.0323"
       x2="22.368999"
       y2="38.273998" />
    <linearGradient
       inkscape:collect="always"
       xlink:href="#linearGradient3619"
       id="linearGradient3028"
       gradientUnits="userSpaceOnUse"
       gradientTransform="translate(-65.359083,-18.579327)"
       x1="11.566"
       y1="22.292"
       x2="15.215"
       y2="33.955002" />
    <linearGradient
       inkscape:collect="always"
       xlink:href="#linearGradient3648"
       id="linearGradient3031"
       gradientUnits="userSpaceOnUse"
       x1="29.646999"
       y1="2"
       x2="29.646999"
       y2="43.444"
       gradientTransform="translate(-68.338983,-15.457627)" />
    <radialGradient
       inkscape:collect="always"
       xlink:href="#radialGradient3690"
       id="radialGradient3041"
       gradientUnits="userSpaceOnUse"
       gradientTransform="matrix(2.1647,0,0,0.84706,-179.89898,19.624373)"
       cx="62.625"
       cy="4.625"
       r="10.625" />
  </defs>
  <metadata
     id="metadata3697">
    <rdf:RDF>
      <cc:Work
         rdf:about="">
        <dc:format>image/svg+xml</dc:format>
        <dc:type
           rdf:resource="http://purl.org/dc/dcmitype/StillImage" />
        <dc:title></dc:title>
      </cc:Work>
    </rdf:RDF>
  </metadata>
  <path
     style="font-size:medium;font-style:normal;font-variant:normal;font-weight:normal;font-stretch:normal;text-indent:0;text-align:start;text-decoration:none;line-height:normal;letter-spacing:normal;word-spacing:normal;text-transform:none;direction:ltr;block-progression:tb;writing-mode:lr-tb;text-anchor:start;baseline-shift:baseline;opacity:0.40000000000000002;color:#000000;fill:#c4905e;fill-opacity:1;stroke:none;stroke-width:2;marker:none;visibility:visible;display:inline;overflow:visible;enable-background:accumulate;font-family:Sans;-inkscape-font-specification:Sans"
     d="m 11.84375,2.96875 c -0.05907,0.00851 -0.09881,0.047849 -0.15625,0.0625 -0.13018,0.025774 -0.254,0.068963 -0.375,0.125 -0.01854,0.00859 -0.04421,-0.00929 -0.0625,0 L 11.09375,3.21875 11,3.34375 c -0.01796,0.017207 -0.02566,0.025559 -0.03125,0.03125 -0.187737,0.1343539 -0.411829,0.2708835 -0.5,0.375 C 10.276085,3.9775209 10.094131,4.240046 9.9375,4.5 9.6281158,5.0134727 9.3542726,5.6038844 9.0625,6.1875 8.7678846,6.7768046 8.4754991,7.3483301 8.25,7.78125 8.2044967,7.868608 8.1671092,7.9257108 8.125,8 8.0409836,8.0174162 7.9706774,8.0470709 7.875,8.0625 7.4054001,8.1382283 6.7333271,8.215479 6.0625,8.3125 5.3928419,8.409351 4.7518313,8.4981489 4.1875,8.625 3.921917,8.6846986 3.6525297,8.7518374 3.34375,8.875 3.2076554,8.9292862 3.0089133,9.0196613 2.8125,9.15625 2.6761396,9.2510623 2.2579131,9.5938031 2.09375,10.09375 1.927731,10.599314 2.062165,11.131082 2.125,11.3125 c 0.068348,0.197328 0.1562039,0.383066 0.25,0.53125 0.1689303,0.26689 0.3415031,0.473124 0.53125,0.6875 0.3921121,0.443007 0.867713,0.915201 1.34375,1.375 0.4794139,0.46306 0.9706622,0.908747 1.3125,1.25 0.065929,0.06582 0.099772,0.09688 0.15625,0.15625 -0.00923,0.08291 -0.016499,0.155092 -0.03125,0.25 -0.074075,0.476622 -0.2001052,1.098471 -0.3125,1.75 -0.111587,0.64685 -0.1956796,1.315894 -0.25,1.90625 -0.02468,0.268252 -0.054207,0.546831 -0.03125,0.875 0.013499,0.192947 0.031418,0.393443 0.09375,0.59375 0.047766,0.153497 0.2636511,0.664542 0.6875,0.96875 C 6.3073703,21.967205 6.8314487,22.002625 7,22 c 0.1904196,-0.0028 0.4086738,-0.0167 0.59375,-0.0625 0.3247498,-0.08038 0.5935825,-0.206419 0.84375,-0.3125 0.5295189,-0.224533 1.1163387,-0.531109 1.71875,-0.84375 0.603092,-0.312994 1.203836,-0.633865 1.625,-0.84375 0.09134,-0.04552 0.139337,-0.05694 0.21875,-0.09375 0.07941,0.03681 0.127437,0.04824 0.21875,0.09375 0.42117,0.209901 1.021908,0.53076 1.625,0.84375 0.602398,0.312632 1.189155,0.619201 1.71875,0.84375 0.250126,0.106055 0.518918,0.232112 0.84375,0.3125 0.18562,0.04593 0.40422,0.05955 0.59375,0.0625 0.167576,0.0025 0.692494,-0.03276 1.125,-0.34375 0.423057,-0.304082 0.639381,-0.813988 0.6875,-0.96875 0.06213,-0.199876 0.08024,-0.400361 0.09375,-0.59375 0.0229,-0.327998 -0.0066,-0.606645 -0.03125,-0.875 -0.05434,-0.590357 -0.138414,-1.259374 -0.25,-1.90625 -0.112397,-0.651585 -0.238453,-1.273447 -0.3125,-1.75 -0.01475,-0.09491 -0.02202,-0.167075 -0.03125,-0.25 0.05647,-0.05937 0.09034,-0.09046 0.15625,-0.15625 0.341909,-0.341291 0.8331,-0.786968 1.3125,-1.25 0.476056,-0.459803 0.9516,-0.931916 1.34375,-1.375 0.189666,-0.214303 0.362245,-0.420428 0.53125,-0.6875 0.09366,-0.14799 0.181611,-0.333696 0.25,-0.53125 0.0628,-0.181405 0.197309,-0.713144 0.03125,-1.21875 C 21.742123,9.5936657 21.323639,9.2508993 21.1875,9.15625 20.991228,9.0198037 20.792534,8.9293475 20.65625,8.875 20.34761,8.7519215 20.078206,8.6847085 19.8125,8.625 19.24828,8.4982105 18.60723,8.4093443 17.9375,8.3125 17.26668,8.2154971 16.594526,8.1382385 16.125,8.0625 16.029281,8.0470604 15.959027,8.0174146 15.875,8 15.832886,7.9256993 15.795512,7.868618 15.75,7.78125 15.524542,7.3484484 15.232174,6.7768411 14.9375,6.1875 14.645754,5.604012 14.37196,5.0135386 14.0625,4.5 13.905902,4.2401247 13.723998,3.9775907 13.53125,3.75 13.54145,3.7620444 13.437539,3.5659685 13.15625,3.34375 12.874961,3.1215315 12.427691,2.96875 12,2.96875 l -0.0625,0 -0.09375,0 z M 12,5.0625 c 0.09938,0.1173439 0.224496,0.2708465 0.34375,0.46875 0.242256,0.402016 0.51973,0.9769656 0.8125,1.5625 0.289844,0.5796811 0.567494,1.154673 0.8125,1.625 0.131598,0.2526254 0.255682,0.4499787 0.34375,0.59375 0.104211,0.1700801 0.241985,0.2824103 0.1875,0.21875 l 0.15625,0.1875 0.25,0.09375 c 0.09215,0.035111 0.173426,0.051967 0.21875,0.0625 0.148383,0.034469 0.394515,0.1089911 0.6875,0.15625 0.544658,0.08786 1.178864,0.158374 1.8125,0.25 0.63473,0.09178 1.264474,0.203394 1.75,0.3125 0.259166,0.05824 0.450278,0.111498 0.5625,0.15625 -0.07254,0.114636 -0.17861,0.282159 -0.34375,0.46875 -0.317468,0.358702 -0.782736,0.798689 -1.25,1.25 -0.46392,0.44808 -0.931295,0.900735 -1.3125,1.28125 -0.196524,0.196171 -0.347931,0.361491 -0.46875,0.5 -0.105491,0.120892 -0.185633,0.233359 -0.15625,0.1875 l -0.15625,0.25 0,0.25 c -0.0012,0.02394 -0.0085,0.117716 0,0.21875 l 0,0.03125 c 0.01292,0.152627 0.01762,0.36744 0.0625,0.65625 0.08197,0.527533 0.203123,1.178419 0.3125,1.8125 0.110192,0.638792 0.237849,1.278471 0.28125,1.75 0.02416,0.262587 0.03977,0.44055 0.03125,0.5625 -0.0068,-0.0014 -0.02316,0.002 -0.03125,0 -0.115172,-0.0285 -0.31783,-0.08376 -0.5625,-0.1875 -0.459997,-0.195039 -1.028712,-0.456758 -1.59375,-0.75 -0.564344,-0.292882 -1.128622,-0.627617 -1.625,-0.875 C 12.875627,18.03197 12.637856,17.945276 12.46875,17.875 12.332893,17.818521 12.222648,17.774426 12.25,17.78125 l -0.25,-0.0625 -0.25,0.0625 c 0.02624,-0.0065 -0.08336,0.03746 -0.21875,0.09375 -0.169242,0.07032 -0.406919,0.156999 -0.65625,0.28125 -0.496436,0.247395 -1.0606712,0.582124 -1.625,0.875 -0.5650097,0.293231 -1.1337577,0.554949 -1.59375,0.75 -0.2445879,0.103715 -0.4472856,0.158982 -0.5625,0.1875 -0.00821,0.002 -0.024451,-0.0015 -0.03125,0 -0.00852,-0.121775 0.00709,-0.299854 0.03125,-0.5625 0.043378,-0.471438 0.1710574,-1.111232 0.28125,-1.75 0.109386,-0.634087 0.2305209,-1.28502 0.3125,-1.8125 0.044891,-0.288831 0.049577,-0.503602 0.0625,-0.65625 l 0,-0.03125 c 0.00847,-0.101837 0.00105,-0.197174 0,-0.21875 l 0,-0.25 -0.15625,-0.25 C 7.6232515,14.483521 7.5429454,14.370896 7.4375,14.25 7.3165843,14.111363 7.1652127,13.946126 6.96875,13.75 6.5874934,13.369395 6.1201155,12.916792 5.65625,12.46875 5.189008,12.017445 4.7237249,11.577433 4.40625,11.21875 4.2412033,11.03228 4.1351143,10.864722 4.0625,10.75 c 0.1120929,-0.04471 0.303205,-0.09797 0.5625,-0.15625 0.4854247,-0.109114 1.1152087,-0.220692 1.75,-0.3125 0.6336237,-0.09164 1.2678649,-0.162171 1.8125,-0.25 C 8.4806006,9.983984 8.7268816,9.9093814 8.875,9.875 8.9207635,9.8643718 9.0021871,9.8473376 9.09375,9.8125 L 9.34375,9.71875 9.5,9.53125 C 9.4455543,9.5948641 9.5832949,9.4825875 9.6875,9.3125 9.77557,9.1687368 9.8996361,8.9714245 10.03125,8.71875 10.2762,8.2484877 10.553883,7.6735574 10.84375,7.09375 11.136462,6.5082556 11.413936,5.9334085 11.65625,5.53125 11.775469,5.333388 11.900545,5.1799481 12,5.0625 z"
     id="path1307"
     inkscape:connector-curvature="0" />
</svg>
