<?xml version="1.0" encoding="UTF-8" standalone="no"?>
<!-- Created with Inkscape (http://www.inkscape.org/) -->

<svg
   xmlns:dc="http://purl.org/dc/elements/1.1/"
   xmlns:cc="http://creativecommons.org/ns#"
   xmlns:rdf="http://www.w3.org/1999/02/22-rdf-syntax-ns#"
   xmlns:svg="http://www.w3.org/2000/svg"
   xmlns="http://www.w3.org/2000/svg"
   xmlns:sodipodi="http://sodipodi.sourceforge.net/DTD/sodipodi-0.dtd"
   xmlns:inkscape="http://www.inkscape.org/namespaces/inkscape"
   width="32"
   height="32"
   id="svg2"
   version="1.1"
   inkscape:version="0.91 r"
   sodipodi:docname="blue-document-open-recent.svg"
   inkscape:export-filename="/media/Data/Main/Visuals/Icons/Numix/Desktop/repos/numix-wiki/Gjorgi/Numix-folders/48/New/folder-144.png"
   inkscape:export-xdpi="270"
   inkscape:export-ydpi="270">
  <defs
     id="defs4" />
  <sodipodi:namedview
     id="base"
     pagecolor="#ffffff"
     bordercolor="#666666"
     borderopacity="1.0"
     inkscape:pageopacity="0.0"
     inkscape:pageshadow="2"
     inkscape:zoom="7.8531109"
     inkscape:cx="0.98046921"
     inkscape:cy="12.888756"
     inkscape:document-units="px"
     inkscape:current-layer="layer1"
     showgrid="true"
     inkscape:window-width="1366"
     inkscape:window-height="747"
     inkscape:window-x="0"
     inkscape:window-y="21"
     inkscape:window-maximized="1"
     showguides="true"
     inkscape:guide-bbox="true">
    <inkscape:grid
       type="xygrid"
       id="grid2985"
       empspacing="5"
       visible="true"
       enabled="true"
       snapvisiblegridlinesonly="true" />
  </sodipodi:namedview>
  <metadata
     id="metadata7">
    <rdf:RDF>
      <cc:Work
         rdf:about="">
        <dc:format>image/svg+xml</dc:format>
        <dc:type
           rdf:resource="http://purl.org/dc/dcmitype/StillImage" />
        <dc:title />
      </cc:Work>
    </rdf:RDF>
  </metadata>
  <g
     inkscape:label="Layer 1"
     inkscape:groupmode="layer"
     id="layer1"
     transform="translate(0,-1020.3622)">
    <path
       style="fill:#e3e1cf;fill-opacity:1;stroke:none"
       d="m 4,1022.3622 c -0.588517,0 -1,0.3831 -1,1 l 0,14 c 0,0.9997 0.5,1.5 1.5,1.5 l 23.5,0 1,0 0,-12.5 -4,-4 z"
       id="path3811-7"
       inkscape:connector-curvature="0"
       sodipodi:nodetypes="ssssccccs" />
    <rect
       style="fill:#f06292;fill-opacity:1;stroke:none"
       id="rect2990-3"
       width="30"
       height="15"
       x="1"
       y="1034.3622"
       rx="2"
       ry="2" />
    <path
       inkscape:connector-curvature="0"
       style="opacity:0.1;fill:#ffffff;fill-opacity:1;stroke:none"
       d="m 3,1034.3622 c -1.108,0 -2,0.892 -2,2 l 0,2 c 0,-1.108 0.892,-2 2,-2 l 26,0 c 1.108,0 2,0.892 2,2 l 0,-2 c 0,-1.108 -0.892,-2 -2,-2 l -26,0 z"
       id="rect2991-5" />
    <path
       style="fill:#ffffff;fill-opacity:1;stroke:none"
       d="m 25,1022.3622 0,4 4,0 z"
       id="path3802"
       inkscape:connector-curvature="0"
       sodipodi:nodetypes="cccc" />
    <path
       sodipodi:nodetypes="cccc"
       inkscape:connector-curvature="0"
       id="path3807"
       d="m 29,1030.3622 0,-4 -4,0 z"
       style="opacity:0.2;fill:#000000;fill-opacity:1;stroke:none" />
    <rect
       style="fill:#a1a195;fill-opacity:1;stroke:none"
       id="rect3794"
       width="16"
       height="2.0000174"
       x="6"
       y="1024.3622"
       rx="1"
       ry="1" />
    <path
       inkscape:connector-curvature="0"
       style="fill:#859900;fill-rule:evenodd"
       d="m 30.001644,1041.3622 c 0.05859,2.8398 -1.453125,5.4883 -3.953125,6.9219 -2.5,1.4375 -5.59375,1.4375 -8.09375,0 -2.5,-1.4336 -4.011719,-4.0821 -3.953125,-6.9219 -0.05859,-2.8398 1.453125,-5.4883 3.953125,-6.9219 2.5,-1.4375 5.59375,-1.4375 8.09375,0 2.5,1.4336 4.011719,4.0821 3.953125,6.9219 z"
       id="path2993" />
    <rect
       ry="1"
       rx="1"
       y="1027.3622"
       x="6"
       height="2.0000174"
       width="18"
       id="rect3796"
       style="fill:#a1a195;fill-opacity:1;stroke:none" />
    <path
       inkscape:connector-curvature="0"
       style="fill:#ffffff"
       d="m 26.376644,1036.331 c -0.167969,0.062 -0.3125,0.1757 -0.410156,0.3242 l -4.359375,4.2226 -2.722657,-2.5976 c -0.105468,-0.3594 -0.449218,-0.6016 -0.828124,-0.5821 -0.378907,0.024 -0.695313,0.2969 -0.761719,0.668 -0.07031,0.3711 0.128906,0.7383 0.476562,0.8867 l 3.277344,3.2461 c 0.316406,0.2891 0.800781,0.2891 1.117187,0 l 4.914063,-4.8672 c 0.195313,-0.2539 0.21875,-0.5937 0.07031,-0.875 -0.152341,-0.2773 -0.453123,-0.4453 -0.773435,-0.4257 z"
       id="path2995" />
    <rect
       style="fill:#a1a195;fill-opacity:1;stroke:none"
       id="rect3867"
       width="18"
       height="2.0000174"
       x="6"
       y="1030.3622"
       rx="1"
       ry="1" />
  </g>
</svg>
