<?xml version="1.0" encoding="UTF-8" standalone="no"?>
<!-- Created with Inkscape (http://www.inkscape.org/) -->

<svg
   xmlns:dc="http://purl.org/dc/elements/1.1/"
   xmlns:cc="http://creativecommons.org/ns#"
   xmlns:rdf="http://www.w3.org/1999/02/22-rdf-syntax-ns#"
   xmlns:svg="http://www.w3.org/2000/svg"
   xmlns="http://www.w3.org/2000/svg"
   xmlns:xlink="http://www.w3.org/1999/xlink"
   xmlns:sodipodi="http://sodipodi.sourceforge.net/DTD/sodipodi-0.dtd"
   xmlns:inkscape="http://www.inkscape.org/namespaces/inkscape"
   id="svg3692"
   height="48px"
   width="48px"
   version="1.1"
   inkscape:version="0.48.3.1 r9886"
   sodipodi:docname="bookmark-new.svg">
  <sodipodi:namedview
     pagecolor="#ffffff"
     bordercolor="#666666"
     borderopacity="1"
     objecttolerance="10"
     gridtolerance="10"
     guidetolerance="10"
     inkscape:pageopacity="0"
     inkscape:pageshadow="2"
     inkscape:window-width="1366"
     inkscape:window-height="719"
     id="namedview42"
     showgrid="true"
     inkscape:zoom="7.0247955"
     inkscape:cx="17.784382"
     inkscape:cy="11.750038"
     inkscape:window-x="0"
     inkscape:window-y="27"
     inkscape:window-maximized="1"
     inkscape:current-layer="svg3692">
    <inkscape:grid
       type="xygrid"
       id="grid3811" />
  </sodipodi:namedview>
  <defs
     id="defs3694">
    <linearGradient
       id="linearGradient3619"
       y2="33.955"
       gradientUnits="userSpaceOnUse"
       x2="15.215"
       gradientTransform="translate(2.9799,-3.1217)"
       y1="22.292"
       x1="11.566">
      <stop
         id="stop2687"
         style="stop-color:#fff;stop-opacity:.27451"
         offset="0" />
      <stop
         id="stop2689"
         style="stop-color:#fff;stop-opacity:0"
         offset="1" />
    </linearGradient>
    <linearGradient
       id="linearGradient3648"
       y2="43.444"
       gradientUnits="userSpaceOnUse"
       x2="29.647"
       y1="2"
       x1="29.647">
      <stop
         id="stop3644"
         style="stop-color:#fff"
         offset="0" />
      <stop
         id="stop3646"
         style="stop-color:#fff;stop-opacity:0"
         offset="1" />
    </linearGradient>
    <radialGradient
       id="radialGradient3627"
       gradientUnits="userSpaceOnUse"
       cy="25.625"
       cx="13.139"
       gradientTransform="matrix(0,2.6541,-3.1628,0,97.183,-26.676)"
       r="13.931">
      <stop
         id="stop3692"
         style="stop-color:#ffeb9f"
         offset="0" />
      <stop
         id="stop3694"
         style="stop-color:#ffd57e"
         offset=".26238" />
      <stop
         id="stop3696"
         style="stop-color:#ffbc43"
         offset=".66094" />
      <stop
         id="stop3698"
         style="stop-color:#ff921a"
         offset="1" />
    </radialGradient>
    <linearGradient
       id="linearGradient3629"
       y2="9.58"
       gradientUnits="userSpaceOnUse"
       x2="21.483"
       gradientTransform="matrix(1.6509,0,0,1.6568,-11.466,-15.046)"
       y1="36.255"
       x1="21.483">
      <stop
         id="stop3605"
         style="stop-color:#a7651c"
         offset="0" />
      <stop
         id="stop3607"
         style="stop-color:#c8a700"
         offset="1" />
    </linearGradient>
    <radialGradient
       id="radialGradient3690"
       gradientUnits="userSpaceOnUse"
       cx="62.625"
       cy="4.625"
       r="10.625"
       gradientTransform="matrix(2.1647,0,0,0.84706,-111.56,35.082)">
      <stop
         id="stop8840"
         offset="0" />
      <stop
         id="stop8842"
         style="stop-opacity:0"
         offset="1" />
    </radialGradient>
    <linearGradient
       id="linearGradient5530"
       y2="38.274"
       gradientUnits="userSpaceOnUse"
       x2="22.369"
       gradientTransform="matrix(0.59882,0,0,0.5952,23.605,21.219)"
       y1="8.0323"
       x1="22.369">
      <stop
         id="stop3945"
         style="stop-color:#fff"
         offset="0" />
      <stop
         id="stop3947"
         style="stop-color:#fff;stop-opacity:0"
         offset="1" />
    </linearGradient>
    <radialGradient
       id="radialGradient2885"
       gradientUnits="userSpaceOnUse"
       cx="69.448"
       cy="51.695"
       r="31"
       gradientTransform="matrix(0,0.67924,-0.73892,0,72.903,-19.49)">
      <stop
         id="stop3244-5"
         style="stop-color:#eef87e"
         offset="0" />
      <stop
         id="stop3246-9"
         style="stop-color:#cde34f"
         offset=".26238" />
      <stop
         id="stop3248-7"
         style="stop-color:#93b723"
         offset=".66094" />
      <stop
         id="stop3250-8"
         style="stop-color:#5a7e0d"
         offset="1" />
    </radialGradient>
    <linearGradient
       id="linearGradient2887"
       y2="52.809"
       gradientUnits="userSpaceOnUse"
       y1="123.19"
       gradientTransform="matrix(0.28214,0,0,0.28445,12.171,9.9582)"
       x2="72.422"
       x1="72.422">
      <stop
         id="stop2492-3"
         style="stop-color:#365f0e"
         offset="0" />
      <stop
         id="stop2494-8"
         style="stop-color:#84a718"
         offset="1" />
    </linearGradient>
    <linearGradient
       inkscape:collect="always"
       xlink:href="#linearGradient5530"
       id="linearGradient3020"
       gradientUnits="userSpaceOnUse"
       gradientTransform="matrix(0.59882,0,0,0.5952,-29.886525,43.388492)"
       x1="22.369"
       y1="8.0323"
       x2="22.369"
       y2="38.274" />
    <linearGradient
       inkscape:collect="always"
       xlink:href="#linearGradient3619"
       id="linearGradient3028"
       gradientUnits="userSpaceOnUse"
       gradientTransform="translate(-65.359083,-18.579327)"
       x1="11.566"
       y1="22.292"
       x2="15.215"
       y2="33.955" />
    <linearGradient
       inkscape:collect="always"
       xlink:href="#linearGradient3648"
       id="linearGradient3031"
       gradientUnits="userSpaceOnUse"
       x1="29.647"
       y1="2"
       x2="29.647"
       y2="43.444"
       gradientTransform="translate(-68.338983,-15.457627)" />
    <radialGradient
       inkscape:collect="always"
       xlink:href="#radialGradient3690"
       id="radialGradient3041"
       gradientUnits="userSpaceOnUse"
       gradientTransform="matrix(2.1647,0,0,0.84706,-179.89898,19.624373)"
       cx="62.625"
       cy="4.625"
       r="10.625" />
  </defs>
  <metadata
     id="metadata3697">
    <rdf:RDF>
      <cc:Work
         rdf:about="">
        <dc:format>image/svg+xml</dc:format>
        <dc:type
           rdf:resource="http://purl.org/dc/dcmitype/StillImage" />
        <dc:title></dc:title>
      </cc:Work>
    </rdf:RDF>
  </metadata>
  <path
     style="font-size:medium;font-style:normal;font-variant:normal;font-weight:normal;font-stretch:normal;text-indent:0;text-align:start;text-decoration:none;line-height:normal;letter-spacing:normal;word-spacing:normal;text-transform:none;direction:ltr;block-progression:tb;writing-mode:lr-tb;text-anchor:start;baseline-shift:baseline;opacity:1.0;color:#000000;fill:#c4905e;fill-opacity:1;fill-rule:nonzero;stroke:none;stroke-width:3;marker:none;visibility:visible;display:inline;overflow:visible;enable-background:accumulate;font-family:Sans;-inkscape-font-specification:Sans"
     d="m 24,5 c -0.05259,0.00764 -0.104769,0.018076 -0.15625,0.03125 -0.184713,0.018612 -0.365874,0.071894 -0.53125,0.15625 -0.01057,0.010262 -0.02099,0.020681 -0.03125,0.03125 -0.485477,0.195195 -0.774004,0.4819713 -1,0.75 -0.324629,0.3850067 -0.630969,0.8327972 -0.9375,1.34375 -0.613062,1.0219055 -1.256758,2.320195 -1.90625,3.625 -0.649492,1.304806 -1.289724,2.616988 -1.8125,3.625 -0.261388,0.504006 -0.510997,0.929374 -0.6875,1.21875 -0.05381,0.08822 -0.106531,0.129161 -0.15625,0.1875 -0.07157,0.02734 -0.129794,0.04176 -0.21875,0.0625 -0.332456,0.07751 -0.811481,0.189979 -1.375,0.28125 -1.127037,0.182541 -2.581712,0.351942 -4.03125,0.5625 -1.4495382,0.210558 -2.8647348,0.455395 -4.03125,0.71875 -0.5832576,0.131678 -1.0948157,0.250142 -1.5625,0.4375 -0.2338421,0.09368 -0.4720233,0.202691 -0.71875,0.375 -0.2467267,0.172309 -0.5686823,0.414158 -0.75,0.96875 -0.1814043,0.554828 -0.067118,0.964756 0.03125,1.25 0.098368,0.285244 0.2095448,0.505798 0.34375,0.71875 0.2684104,0.425903 0.6057444,0.83388 1,1.28125 0.7885111,0.894741 1.8268044,1.920649 2.875,2.9375 1.0481956,1.016851 2.102729,2.006859 2.90625,2.8125 0.401761,0.402821 0.746099,0.774853 0.96875,1.03125 0.06575,0.07571 0.08383,0.122988 0.125,0.1875 0.0037,0.07415 0.0076,0.128046 0,0.21875 -0.0284,0.336904 -0.06954,0.814678 -0.15625,1.375 -0.173411,1.120643 -0.441052,2.565167 -0.6875,4 -0.246448,1.434833 -0.485184,2.877466 -0.59375,4.0625 -0.05428,0.592517 -0.09748,1.091583 -0.0625,1.59375 0.01749,0.251084 0.0669,0.524128 0.15625,0.8125 0.08935,0.288372 0.216713,0.660628 0.6875,1 0.470504,0.339851 0.887098,0.34845 1.1875,0.34375 0.300402,-0.0047 0.5368,-0.03298 0.78125,-0.09375 0.488899,-0.121532 0.981465,-0.328357 1.53125,-0.5625 1.099569,-0.468286 2.421482,-1.105058 3.71875,-1.78125 1.297268,-0.676192 2.574089,-1.395897 3.59375,-1.90625 0.509831,-0.255177 0.966592,-0.462439 1.28125,-0.59375 C 23.871714,38.024748 23.926097,38.018422 24,38 c 0.07394,0.01842 0.128297,0.02475 0.21875,0.0625 0.314616,0.131313 0.771448,0.338571 1.28125,0.59375 1.019604,0.510358 2.296466,1.230056 3.59375,1.90625 1.297284,0.676194 2.619091,1.31296 3.71875,1.78125 0.549829,0.234145 1.042304,0.440972 1.53125,0.5625 0.244473,0.06076 0.480868,0.08905 0.78125,0.09375 0.300382,0.0047 0.717064,-0.0042 1.1875,-0.34375 0.470393,-0.339578 0.598249,-0.711695 0.6875,-1 0.08925,-0.288305 0.138783,-0.561414 0.15625,-0.8125 0.03493,-0.502171 -0.0082,-1.001183 -0.0625,-1.59375 -0.108602,-1.185134 -0.347307,-2.62761 -0.59375,-4.0625 -0.246443,-1.43489 -0.514129,-2.879373 -0.6875,-4 -0.08669,-0.560313 -0.127871,-1.03814 -0.15625,-1.375 -0.0076,-0.09069 -0.0037,-0.144577 0,-0.21875 0.04118,-0.06455 0.05925,-0.111798 0.125,-0.1875 0.222643,-0.256353 0.566979,-0.628458 0.96875,-1.03125 0.803543,-0.805584 1.858009,-1.795637 2.90625,-2.8125 1.048241,-1.016863 2.086455,-2.042652 2.875,-2.9375 0.394272,-0.447424 0.731587,-0.85524 1,-1.28125 0.134207,-0.213005 0.245412,-0.433439 0.34375,-0.71875 0.09834,-0.285311 0.212635,-0.695354 0.03125,-1.25 -0.181298,-0.554772 -0.503254,-0.796452 -0.75,-0.96875 -0.246746,-0.172298 -0.484913,-0.281345 -0.71875,-0.375 -0.467674,-0.187309 -0.979248,-0.305863 -1.5625,-0.4375 -1.166505,-0.263274 -2.581703,-0.508228 -4.03125,-0.71875 -1.449547,-0.210522 -2.904265,-0.379915 -4.03125,-0.5625 -0.563493,-0.09129 -1.042637,-0.203706 -1.375,-0.28125 -0.08893,-0.02075 -0.147165,-0.03512 -0.21875,-0.0625 -0.04971,-0.05834 -0.102439,-0.09927 -0.15625,-0.1875 C 30.885995,15.491874 30.636396,15.066476 30.375,14.5625 29.852208,13.554548 29.21203,12.242206 28.5625,10.9375 27.91297,9.6327945 27.269331,8.3343203 26.65625,7.3125 26.34971,6.8015899 26.04337,6.3537198 25.71875,5.96875 25.39413,5.5837802 25.156179,5 24,5 z"
     id="path1307"
     inkscape:connector-curvature="0"
     sodipodi:nodetypes="ccccssssscsssssscsssssscsssssscscssssccssscscsssssscsssssscssssscccssssc" />
</svg>
