<?xml version="1.0" encoding="UTF-8" standalone="no"?>
<!-- Created with Inkscape (http://www.inkscape.org/) -->

<svg
   xmlns:dc="http://purl.org/dc/elements/1.1/"
   xmlns:cc="http://creativecommons.org/ns#"
   xmlns:rdf="http://www.w3.org/1999/02/22-rdf-syntax-ns#"
   xmlns:svg="http://www.w3.org/2000/svg"
   xmlns="http://www.w3.org/2000/svg"
   xmlns:xlink="http://www.w3.org/1999/xlink"
   xmlns:sodipodi="http://sodipodi.sourceforge.net/DTD/sodipodi-0.dtd"
   xmlns:inkscape="http://www.inkscape.org/namespaces/inkscape"
   width="128"
   height="128"
   id="svg2"
   version="1.1"
   inkscape:version="0.48.5 r10040"
   sodipodi:docname="brown-folder-ubuntu.svg"
   inkscape:export-filename="/media/Data/Main/Visuals/Icons/Numix/Desktop/repos/numix-wiki/Gjorgi/Numix-folders/48/New/folder-144.png"
   inkscape:export-xdpi="270"
   inkscape:export-ydpi="270">
  <defs
     id="defs4">
    <linearGradient
       inkscape:collect="always"
       id="linearGradient3809">
      <stop
         style="stop-color:#000000;stop-opacity:1;"
         offset="0"
         id="stop3811" />
      <stop
         style="stop-color:#000000;stop-opacity:0;"
         offset="1"
         id="stop3813" />
    </linearGradient>
    <linearGradient
       id="linearGradient3958"
       inkscape:collect="always">
      <stop
         id="stop3960"
         offset="0"
         style="stop-color:#000000;stop-opacity:1;" />
      <stop
         id="stop3962"
         offset="1"
         style="stop-color:#000000;stop-opacity:0;" />
    </linearGradient>
    <radialGradient
       gradientUnits="userSpaceOnUse"
       gradientTransform="matrix(1,0,0,0.10447761,0,50.597015)"
       r="33.5"
       fy="56.5"
       fx="32.5"
       cy="56.5"
       cx="32.5"
       id="radialGradient3964"
       xlink:href="#linearGradient3958"
       inkscape:collect="always" />
    <radialGradient
       inkscape:collect="always"
       xlink:href="#linearGradient3809"
       id="radialGradient3815"
       cx="-9"
       cy="93.5"
       fx="-9"
       fy="93.5"
       r="15"
       gradientTransform="matrix(1,0,0,0.36666667,0,59.216667)"
       gradientUnits="userSpaceOnUse" />
    <linearGradient
       id="linearGradient3958-1"
       inkscape:collect="always">
      <stop
         id="stop3960-9"
         offset="0"
         style="stop-color:#000000;stop-opacity:1;" />
      <stop
         id="stop3962-9"
         offset="1"
         style="stop-color:#000000;stop-opacity:0;" />
    </linearGradient>
    <radialGradient
       gradientUnits="userSpaceOnUse"
       gradientTransform="matrix(1,0,0,0.10447761,0,50.597015)"
       r="33.5"
       fy="56.5"
       fx="32.5"
       cy="56.5"
       cx="32.5"
       id="radialGradient3964-3"
       xlink:href="#linearGradient3958-1"
       inkscape:collect="always" />
  </defs>
  <sodipodi:namedview
     id="base"
     pagecolor="#ffffff"
     bordercolor="#666666"
     borderopacity="1.0"
     inkscape:pageopacity="0.0"
     inkscape:pageshadow="2"
     inkscape:zoom="4.9170839"
     inkscape:cx="45.365333"
     inkscape:cy="57.608677"
     inkscape:document-units="px"
     inkscape:current-layer="layer1"
     showgrid="true"
     inkscape:window-width="1280"
     inkscape:window-height="998"
     inkscape:window-x="0"
     inkscape:window-y="0"
     inkscape:window-maximized="1"
     showguides="true"
     inkscape:guide-bbox="true">
    <inkscape:grid
       type="xygrid"
       id="grid2985"
       empspacing="5"
       visible="true"
       enabled="true"
       snapvisiblegridlinesonly="true" />
  </sodipodi:namedview>
  <metadata
     id="metadata7">
    <rdf:RDF>
      <cc:Work
         rdf:about="">
        <dc:format>image/svg+xml</dc:format>
        <dc:type
           rdf:resource="http://purl.org/dc/dcmitype/StillImage" />
        <dc:title />
      </cc:Work>
    </rdf:RDF>
  </metadata>
  <g
     inkscape:label="Layer 1"
     inkscape:groupmode="layer"
     id="layer1"
     transform="translate(0,-924.3622)">
    <path
       inkscape:connector-curvature="0"
       id="path5"
       d="m 12,948.3622 104,0 0,40 -104,0 z m 0,0"
       style="fill:#5d4037;fill-opacity:1;fill-rule:nonzero;stroke:none" />
    <path
       inkscape:connector-curvature="0"
       id="path7"
       d="m 24,948.3622 c 0,-4 0,-8 5.81641,-8 l 20.36719,0 c 5.8164,0 5.8164,4 5.8164,8 l 0,4 -32,0 z m 0,0"
       style="fill:#5d4037;fill-opacity:1;fill-rule:nonzero;stroke:none" />
    <path
       inkscape:connector-curvature="0"
       id="path9"
       d="m 20,956.3622 88,0 0,19.8711 -88,0 z m 0,0"
       style="fill:#94979e;fill-opacity:1;fill-rule:nonzero;stroke:none" />
    <path
       inkscape:connector-curvature="0"
       id="path11"
       d="m 28,952.3622 76,0 0,52 -76,0 z m 0,0"
       style="fill:#d7d7d9;fill-opacity:1;fill-rule:nonzero;stroke:none" />
    <path
       inkscape:connector-curvature="0"
       id="path13"
       d="m 24,960.3622 76,0 0,52 -76,0 z m 0,0"
       style="fill:#f8f8f8;fill-opacity:1;fill-rule:nonzero;stroke:none" />
    <path
       inkscape:connector-curvature="0"
       id="path15"
       d="m 4,964.3622 120,0 -8.57031,72 -102.85937,0 z m 0,0"
       style="fill:#8d6e63;fill-opacity:1;fill-rule:nonzero;stroke:none" />
    <path
       transform="matrix(2,0,0,2,4,923.3622)"
       d="m 17,38 c 0,1.656854 -1.343146,3 -3,3 -1.656854,0 -3,-1.343146 -3,-3 0,-1.656854 1.343146,-3 3,-3 1.656854,0 3,1.343146 3,3 z"
       sodipodi:ry="3"
       sodipodi:rx="3"
       sodipodi:cy="38"
       sodipodi:cx="14"
       id="path3007"
       style="opacity:0.4;fill:#241714;fill-opacity:1;stroke:none"
       sodipodi:type="arc" />
    <path
       style="opacity:0.4;fill:#241714;fill-opacity:1;stroke:none"
       d="m 64,975.3622 c -4.584028,0 -8.859794,1.2652 -12.5,3.5 l 5.9375,5.9376 c 2.003182,-0.9026 4.22282,-1.4376 6.5625,-1.4376 8.156576,0 14.887378,6.1112 15.875,14 l 8,0 c -0.324908,-3.8392 -1.522404,-7.4508 -3.4375,-10.5624 -0.751414,0.3386 -1.55979,0.5624 -2.4375,0.5624 -3.313708,0 -6,-2.6862 -6,-6 0,-0.8778 0.223832,-1.686 0.5625,-2.4374 C 72.908574,976.676 68.605218,975.3622 64,975.3622 z m -15.6875,5.9376 c -3.757964,3.2764 -6.531778,7.6626 -7.6875,12.6874 1.990566,0.9764 3.375,3.0082 3.375,5.375 0,2.3668 -1.384434,4.3986 -3.375,5.375 1.24513,5.4134 4.283486,10.1656 8.5,13.5 l 5.75,-5.75 C 50.724514,1009.5966 48,1004.8036 48,999.3622 c 0,-5.0206 2.319624,-9.504 5.9375,-12.4374 l -5.625,-5.625 z m 31.5625,20.0624 c -0.987622,7.8888 -7.718424,14 -15.875,14 -1.891576,0 -3.690612,-0.3974 -5.375,-1 l -6.0625,6.0626 c 3.403846,1.8598 7.285574,2.9374 11.4375,2.9374 3.025482,0 5.896464,-0.5408 8.5625,-1.5624 C 72.223832,1021.0482 72,1020.24 72,1019.3622 c 0,-3.3138 2.686292,-6 6,-6 1.608124,0 3.047716,0.6576 4.125,1.6876 3.240946,-3.7416 5.318512,-8.4626 5.75,-13.6876 l -8,0 z"
       id="path3030"
       inkscape:connector-curvature="0" />
    <path
       sodipodi:type="arc"
       style="opacity:0.4;fill:#241714;fill-opacity:1;stroke:none"
       id="path3046"
       sodipodi:cx="14"
       sodipodi:cy="38"
       sodipodi:rx="3"
       sodipodi:ry="3"
       d="m 17,38 c 0,1.656854 -1.343146,3 -3,3 -1.656854,0 -3,-1.343146 -3,-3 0,-1.656854 1.343146,-3 3,-3 1.656854,0 3,1.343146 3,3 z"
       transform="matrix(2,0,0,2,58,901.3622)" />
    <path
       sodipodi:type="arc"
       style="opacity:0.4;fill:#241714;fill-opacity:1;stroke:none"
       id="path3050"
       sodipodi:cx="14"
       sodipodi:cy="38"
       sodipodi:rx="3"
       sodipodi:ry="3"
       d="m 17,38 c 0,1.656854 -1.343146,3 -3,3 -1.656854,0 -3,-1.343146 -3,-3 0,-1.656854 1.343146,-3 3,-3 1.656854,0 3,1.343146 3,3 z"
       transform="matrix(2,0,0,2,54,947.3622)" />
  </g>
</svg>
