<?xml version="1.0" encoding="UTF-8" standalone="no"?>
<!-- Created with Inkscape (http://www.inkscape.org/) -->

<svg
   xmlns:dc="http://purl.org/dc/elements/1.1/"
   xmlns:cc="http://creativecommons.org/ns#"
   xmlns:rdf="http://www.w3.org/1999/02/22-rdf-syntax-ns#"
   xmlns:svg="http://www.w3.org/2000/svg"
   xmlns="http://www.w3.org/2000/svg"
   xmlns:xlink="http://www.w3.org/1999/xlink"
   xmlns:sodipodi="http://sodipodi.sourceforge.net/DTD/sodipodi-0.dtd"
   xmlns:inkscape="http://www.inkscape.org/namespaces/inkscape"
   width="128"
   height="128"
   id="svg2"
   version="1.1"
   inkscape:version="0.48.5 r10040"
   sodipodi:docname="folder-rss.svg"
   inkscape:export-filename="/media/Data/Main/Visuals/Icons/Numix/Desktop/repos/numix-wiki/Gjorgi/Numix-folders/48/New/folder-144.png"
   inkscape:export-xdpi="270"
   inkscape:export-ydpi="270">
  <defs
     id="defs4">
    <linearGradient
       inkscape:collect="always"
       id="linearGradient3958">
      <stop
         style="stop-color:#000000;stop-opacity:1;"
         offset="0"
         id="stop3960" />
      <stop
         style="stop-color:#000000;stop-opacity:0;"
         offset="1"
         id="stop3962" />
    </linearGradient>
    <radialGradient
       inkscape:collect="always"
       xlink:href="#linearGradient3958"
       id="radialGradient3964"
       cx="32.5"
       cy="56.5"
       fx="32.5"
       fy="56.5"
       r="33.5"
       gradientTransform="matrix(1,0,0,0.10447761,0,50.597015)"
       gradientUnits="userSpaceOnUse" />
  </defs>
  <sodipodi:namedview
     id="base"
     pagecolor="#ffffff"
     bordercolor="#666666"
     borderopacity="1.0"
     inkscape:pageopacity="0.0"
     inkscape:pageshadow="2"
     inkscape:zoom="3.7303676"
     inkscape:cx="92.038993"
     inkscape:cy="24.870186"
     inkscape:document-units="px"
     inkscape:current-layer="layer1"
     showgrid="true"
     inkscape:window-width="1280"
     inkscape:window-height="998"
     inkscape:window-x="0"
     inkscape:window-y="0"
     inkscape:window-maximized="1"
     showguides="true"
     inkscape:guide-bbox="true">
    <inkscape:grid
       type="xygrid"
       id="grid2985"
       empspacing="5"
       visible="true"
       enabled="true"
       snapvisiblegridlinesonly="true" />
  </sodipodi:namedview>
  <metadata
     id="metadata7">
    <rdf:RDF>
      <cc:Work
         rdf:about="">
        <dc:format>image/svg+xml</dc:format>
        <dc:type
           rdf:resource="http://purl.org/dc/dcmitype/StillImage" />
        <dc:title />
      </cc:Work>
    </rdf:RDF>
  </metadata>
  <g
     inkscape:label="Layer 1"
     inkscape:groupmode="layer"
     id="layer1"
     transform="translate(0,-924.3622)">
    <rect
       style="fill:#ec407a;fill-opacity:1;stroke:none"
       id="rect3757"
       width="104"
       height="40"
       x="12"
       y="948.36218" />
    <path
       style="fill:#ec407a;fill-opacity:1;stroke:none"
       d="m 24,948.3622 c 0,-4 0,-8 5.818182,-8 l 20.363638,0 c 5.81818,0 5.81818,4 5.81818,8 l 0,4 -32,0 z"
       id="path3759"
       inkscape:connector-curvature="0"
       sodipodi:nodetypes="ccccccc" />
    <path
       style="fill:#95989f;fill-opacity:1;stroke:none"
       d="m 20,956.3622 88,0 0,19.8708 -88,0 z"
       id="path3765"
       inkscape:connector-curvature="0" />
    <rect
       y="952.36218"
       x="28"
       height="51.999908"
       width="76"
       id="rect3763"
       style="fill:#d8d8da;fill-opacity:1;stroke:none" />
    <rect
       style="fill:#f9f9f9;fill-opacity:1;stroke:none"
       id="rect3761"
       width="76"
       height="51.999908"
       x="24"
       y="960.36218" />
    <path
       style="fill:#f06292;fill-opacity:1;stroke:none"
       d="m 4,964.3622 120,0 -8.57143,72 -102.857142,0 z"
       id="path2987"
       inkscape:connector-curvature="0"
       sodipodi:nodetypes="ccccc" />
    <path
       style="fill:#000000;fill-opacity:0.25098039;fill-rule:nonzero;stroke:none"
       d="m 40,976.3622 0,10 c 20.2933,2.2408 38.080356,17.83 38,38 l 10,0 c 0,-28.8128 -25.875272,-47.088 -48,-48 z m 0,16 0,10 c 10.997304,0.9044 21.87736,9.168 22,22 l 10,0 c -0.47832,-19.5668 -18.339656,-30.6108 -32,-32 z"
       id="path3394"
       inkscape:connector-curvature="0"
       sodipodi:nodetypes="cccccccccc" />
    <path
       transform="matrix(4.6666666,0,0,4.6666666,-6.6666666,907.69554)"
       sodipodi:type="arc"
       style="fill:#000000;fill-opacity:0.25098039;fill-rule:evenodd;stroke:none"
       id="path3016"
       sodipodi:cx="11.5"
       sodipodi:cy="23.5"
       sodipodi:rx="1.5"
       sodipodi:ry="1.5"
       d="M 13,23.5 C 13,24.328427 12.328427,25 11.5,25 10.671573,25 10,24.328427 10,23.5 10,22.671573 10.671573,22 11.5,22 c 0.828427,0 1.5,0.671573 1.5,1.5 z" />
  </g>
</svg>
