<?xml version="1.0" encoding="UTF-8" standalone="no"?>
<svg
   xmlns:dc="http://purl.org/dc/elements/1.1/"
   xmlns:cc="http://creativecommons.org/ns#"
   xmlns:rdf="http://www.w3.org/1999/02/22-rdf-syntax-ns#"
   xmlns:svg="http://www.w3.org/2000/svg"
   xmlns="http://www.w3.org/2000/svg"
   xmlns:sodipodi="http://sodipodi.sourceforge.net/DTD/sodipodi-0.dtd"
   xmlns:inkscape="http://www.inkscape.org/namespaces/inkscape"
   width="64"
   height="64"
   viewBox="0 0 64 64"
   id="svg2"
   version="1.1"
   inkscape:version="0.91 r"
   sodipodi:docname="purple-add-folders-to-archive.svg">
  <metadata
     id="metadata20">
    <rdf:RDF>
      <cc:Work
         rdf:about="">
        <dc:format>image/svg+xml</dc:format>
        <dc:type
           rdf:resource="http://purl.org/dc/dcmitype/StillImage" />
      </cc:Work>
    </rdf:RDF>
  </metadata>
  <defs
     id="defs18" />
  <sodipodi:namedview
     pagecolor="#ffffff"
     bordercolor="#666666"
     borderopacity="1"
     objecttolerance="10"
     gridtolerance="10"
     guidetolerance="10"
     inkscape:pageopacity="0"
     inkscape:pageshadow="2"
     inkscape:window-width="1280"
     inkscape:window-height="998"
     id="namedview16"
     showgrid="true"
     inkscape:zoom="3.4766084"
     inkscape:cx="53.604258"
     inkscape:cy="9.6734143"
     inkscape:window-x="0"
     inkscape:window-y="0"
     inkscape:window-maximized="1"
     inkscape:current-layer="svg2"
     showguides="true"
     inkscape:guide-bbox="true">
    <inkscape:grid
       type="xygrid"
       id="grid2997"
       empspacing="5"
       visible="true"
       enabled="true"
       snapvisiblegridlinesonly="true" />
  </sodipodi:namedview>
  <rect
     style="fill:#512da8;fill-opacity:1;stroke:none"
     id="rect3757-6"
     width="42"
     height="18"
     x="4"
     y="26" />
  <path
     style="fill:#512da8;fill-opacity:1;stroke:none"
     d="m 8,28 c 0,-2 0,-4 2.545456,-4 l 8.90909,0 C 22,24 22,26 22,28 z"
     id="path3759-4"
     inkscape:connector-curvature="0"
     sodipodi:nodetypes="ccccc" />
  <path
     style="fill:#95989f;fill-opacity:1;stroke:none"
     d="m 6,28 38,0 0,8.088888 -38,0 z"
     id="path3765-9"
     inkscape:connector-curvature="0" />
  <rect
     y="30"
     x="10"
     height="22.666666"
     width="32"
     id="rect3763-5"
     style="fill:#d8d8da;fill-opacity:1;stroke:none" />
  <rect
     style="fill:#f9f9f9;fill-opacity:1;stroke:none"
     id="rect3761-3"
     width="32"
     height="23.111113"
     x="8"
     y="32" />
  <path
     style="fill:#7e57c2;fill-opacity:1;stroke:none"
     d="M 0,34 50,34 46,60 4,60 z"
     id="path2987-1"
     inkscape:connector-curvature="0"
     sodipodi:nodetypes="ccccc" />
  <path
     style="fill:#512da8;fill-opacity:1;stroke:none"
     d="m 9.3333334,28 c 0,-2 0,-4 2.4242436,-4 l 8.484847,0 c 2.424242,0 2.424242,2 2.424242,4 z"
     id="path3759-6"
     inkscape:connector-curvature="0"
     sodipodi:nodetypes="ccccc" />
  <rect
     style="fill:#512da8;fill-opacity:1;stroke:none"
     id="rect3757"
     width="42"
     height="18"
     x="18"
     y="6" />
  <path
     style="fill:#512da8;fill-opacity:1;stroke:none"
     d="m 22,8 c 0,-2 0,-4 2.545456,-4 l 8.90909,0 C 36,4 36,6 36,8 z"
     id="path3759"
     inkscape:connector-curvature="0"
     sodipodi:nodetypes="ccccc" />
  <path
     style="fill:#95989f;fill-opacity:1;stroke:none"
     d="m 20,8 38,0 0,8.088888 -38,0 z"
     id="path3765"
     inkscape:connector-curvature="0" />
  <rect
     y="10"
     x="24"
     height="22.666666"
     width="32"
     id="rect3763"
     style="fill:#d8d8da;fill-opacity:1;stroke:none" />
  <rect
     style="fill:#f9f9f9;fill-opacity:1;stroke:none"
     id="rect3761"
     width="32"
     height="23.111113"
     x="22"
     y="12" />
  <path
     style="fill:#000000;fill-opacity:0.10196078;stroke:none"
     d="M 10.5625,24 C 8.9085836,24 8.3278914,24.85991 8.125,26 L 4,26 l 0,8 -4,0 4,26 42,0 4,-26 -4,0 0,-8 -23.4375,0 C 22.36927,24.85991 21.825158,24 20.25,24 l -0.8125,0 -7.6875,0 -1.1875,0 z"
     id="rect3095"
     inkscape:connector-curvature="0" />
  <path
     style="fill:#7e57c2;fill-opacity:1;stroke:none"
     d="m 14,14 50,0 -4,26 -42,0 z"
     id="path2987"
     inkscape:connector-curvature="0"
     sodipodi:nodetypes="ccccc" />
  <path
     inkscape:connector-curvature="0"
     style="fill:#859900"
     d="m 60,42 -10.000002,0 0,-10 L 40,32 l 0,10 -10,0 0,9.999998 10,0 L 40,62 l 9.999998,0 0,-10.000002 10.000002,0 z"
     id="path14" />
</svg>
