<svg xmlns="http://www.w3.org/2000/svg" viewBox="0 0 64 64">
 <g transform="scale(2,2)" style="opacity:0.5">
  <rect y="5" x="1" height="7" width="17" style="fill:#512da8;fill-opacity:1;stroke:none"/>
  <path d="m 3.01 5 c 0 -0.5 0 -1 0.907 -1 l 3.174 0 c 0.907 0 0.907 0.5 0.907 1 z" style="fill:#512da8;fill-opacity:1;stroke:none"/>
  <path d="m 2 7 15 0 0 3 -15 0 z" style="fill:#95989f;fill-opacity:1;stroke:none"/>
  <rect width="12" height="9" x="4" y="6" style="fill:#d8d8da;fill-opacity:1;stroke:none"/>
  <rect y="8" x="3" height="9" width="12" style="fill:#f9f9f9;fill-opacity:1;stroke:none"/>
  <path d="m 0 9 19 0 -1.357 10 -16.286 0 z" style="fill:#7e57c2;fill-opacity:1;stroke:none"/>
 </g>
 <rect width="34" height="14" x="28" y="30" style="fill:#512da8;fill-opacity:1;stroke:none"/>
 <path d="m 32.03 30 c 0 -1 0 -2 1.813 -2 l 6.347 0 c 1.813 0 1.813 1 1.813 2 z" style="fill:#512da8;fill-opacity:1;stroke:none"/>
 <path d="m 30 34 30 0 0 6 -30 0 z" style="fill:#95989f;fill-opacity:1;stroke:none"/>
 <rect y="32" x="34" height="18" width="24" style="fill:#d8d8da;fill-opacity:1;stroke:none"/>
 <rect width="24" height="18" x="32" y="36" style="fill:#f9f9f9;fill-opacity:1;stroke:none"/>
 <path d="m 26 38 38 0 l -2.714 20 -32.571 0 z" style="fill:#7e57c2;fill-opacity:1;stroke:none"/>
</svg>
