<?xml version="1.0" encoding="UTF-8" standalone="no"?>
<!-- Created with Inkscape (http://www.inkscape.org/) -->

<svg
   xmlns:dc="http://purl.org/dc/elements/1.1/"
   xmlns:cc="http://creativecommons.org/ns#"
   xmlns:rdf="http://www.w3.org/1999/02/22-rdf-syntax-ns#"
   xmlns:svg="http://www.w3.org/2000/svg"
   xmlns="http://www.w3.org/2000/svg"
   xmlns:xlink="http://www.w3.org/1999/xlink"
   xmlns:sodipodi="http://sodipodi.sourceforge.net/DTD/sodipodi-0.dtd"
   xmlns:inkscape="http://www.inkscape.org/namespaces/inkscape"
   width="48"
   height="48"
   id="svg2"
   version="1.1"
   inkscape:version="0.48.5 r10040"
   sodipodi:docname="folder-steam.svg">
  <defs
     id="defs4">
    <linearGradient
       id="linearGradient3855">
      <stop
         style="stop-color:#000000;stop-opacity:1;"
         offset="0"
         id="stop3857" />
      <stop
         style="stop-color:#000000;stop-opacity:0.29411766;"
         offset="1"
         id="stop3859" />
    </linearGradient>
    <linearGradient
       id="linearGradient3833">
      <stop
         id="stop3835"
         offset="0"
         style="stop-color:#fdfeff;stop-opacity:1;" />
      <stop
         id="stop3837"
         offset="1"
         style="stop-color:#dfe4e4;stop-opacity:1;" />
    </linearGradient>
    <linearGradient
       id="linearGradient3823">
      <stop
         style="stop-color:#49b7ef;stop-opacity:1;"
         offset="0"
         id="stop3825" />
      <stop
         style="stop-color:#1d8de2;stop-opacity:1;"
         offset="1"
         id="stop3827" />
    </linearGradient>
    <linearGradient
       id="linearGradient3956">
      <stop
         style="stop-color:#f8f4e1;stop-opacity:1;"
         offset="0"
         id="stop3958" />
      <stop
         style="stop-color:#eae5c8;stop-opacity:1;"
         offset="1"
         id="stop3960" />
    </linearGradient>
    <linearGradient
       id="linearGradient3915">
      <stop
         style="stop-color:#f8f4e1;stop-opacity:1;"
         offset="0"
         id="stop3917" />
      <stop
         style="stop-color:#ad9e57;stop-opacity:1;"
         offset="1"
         id="stop3919" />
    </linearGradient>
    <linearGradient
       inkscape:collect="always"
       id="linearGradient3861">
      <stop
         style="stop-color:#000000;stop-opacity:1;"
         offset="0"
         id="stop3863" />
      <stop
         style="stop-color:#000000;stop-opacity:0;"
         offset="1"
         id="stop3865" />
    </linearGradient>
    <linearGradient
       id="linearGradient3844">
      <stop
         style="stop-color:#000000;stop-opacity:0.39215687;"
         offset="0"
         id="stop3846" />
      <stop
         style="stop-color:#000000;stop-opacity:0;"
         offset="1"
         id="stop3848" />
    </linearGradient>
    <linearGradient
       id="linearGradient3810">
      <stop
         style="stop-color:#f2c66f;stop-opacity:1;"
         offset="0"
         id="stop3812" />
      <stop
         style="stop-color:#fbd68f;stop-opacity:1;"
         offset="1"
         id="stop3814" />
    </linearGradient>
    <linearGradient
       inkscape:collect="always"
       xlink:href="#linearGradient3810"
       id="linearGradient3816"
       x1="24"
       y1="1046.3622"
       x2="24"
       y2="1014.3622"
       gradientUnits="userSpaceOnUse" />
    <radialGradient
       inkscape:collect="always"
       xlink:href="#linearGradient3844"
       id="radialGradient3850"
       cx="24.075672"
       cy="41.38316"
       fx="24.075672"
       fy="41.38316"
       r="21.075672"
       gradientTransform="matrix(1,0,0,0.11307633,0,36.703704)"
       gradientUnits="userSpaceOnUse" />
    <linearGradient
       inkscape:collect="always"
       xlink:href="#linearGradient3810"
       id="linearGradient3856"
       gradientUnits="userSpaceOnUse"
       x1="24"
       y1="1046.3622"
       x2="24"
       y2="1014.3622"
       gradientTransform="translate(0,-3)" />
    <linearGradient
       inkscape:collect="always"
       xlink:href="#linearGradient3810"
       id="linearGradient3858"
       gradientUnits="userSpaceOnUse"
       x1="24"
       y1="1046.3622"
       x2="24"
       y2="1014.3622"
       gradientTransform="translate(0,-1004.3622)" />
    <linearGradient
       inkscape:collect="always"
       xlink:href="#linearGradient3861"
       id="linearGradient3867"
       x1="1.9952808"
       y1="28.5625"
       x2="46.004719"
       y2="28.5625"
       gradientUnits="userSpaceOnUse" />
    <linearGradient
       inkscape:collect="always"
       xlink:href="#linearGradient3915"
       id="linearGradient3921"
       x1="35"
       y1="8"
       x2="38"
       y2="5"
       gradientUnits="userSpaceOnUse" />
    <linearGradient
       inkscape:collect="always"
       xlink:href="#linearGradient3915"
       id="linearGradient3933"
       gradientUnits="userSpaceOnUse"
       x1="35"
       y1="8"
       x2="38"
       y2="5"
       gradientTransform="matrix(1.0436562,0,0,1.2222222,26.301501,1003.2511)" />
    <linearGradient
       inkscape:collect="always"
       xlink:href="#linearGradient3915"
       id="linearGradient3954"
       x1="35"
       y1="11"
       x2="44"
       y2="5"
       gradientUnits="userSpaceOnUse"
       gradientTransform="translate(22,1004.3622)" />
    <linearGradient
       inkscape:collect="always"
       xlink:href="#linearGradient3823"
       id="linearGradient3829"
       x1="21"
       y1="14"
       x2="20"
       y2="24"
       gradientUnits="userSpaceOnUse" />
    <linearGradient
       inkscape:collect="always"
       xlink:href="#linearGradient3833"
       id="linearGradient3839"
       gradientUnits="userSpaceOnUse"
       x1="21"
       y1="14"
       x2="20"
       y2="26" />
    <linearGradient
       inkscape:collect="always"
       xlink:href="#linearGradient3855"
       id="linearGradient3862"
       x1="22"
       y1="15"
       x2="20"
       y2="30"
       gradientUnits="userSpaceOnUse" />
    <clipPath
       id="clipPath-069049578">
      <g
         id="g3352"
         transform="translate(0,-1004.3622)">
        <path
           id="path3354"
           fill="#1890d0"
           transform="matrix(15.333333,0,0,11.5,414.99999,878.8622)"
           d="m -24 13 c 0 1.105 -0.672 2 -1.5 2 -0.828 0 -1.5 -0.895 -1.5 -2 0 -1.105 0.672 -2 1.5 -2 0.828 0 1.5 0.895 1.5 2 z" />
      </g>
    </clipPath>
    <clipPath
       id="clipPath-059275953">
      <g
         id="g3347"
         transform="translate(0,-1004.3622)">
        <path
           id="path3349"
           fill="#1890d0"
           transform="matrix(15.333333,0,0,11.5,414.99999,878.8622)"
           d="m -24 13 c 0 1.105 -0.672 2 -1.5 2 -0.828 0 -1.5 -0.895 -1.5 -2 0 -1.105 0.672 -2 1.5 -2 0.828 0 1.5 0.895 1.5 2 z" />
      </g>
    </clipPath>
    <linearGradient
       gradientTransform="matrix(0,-1,1,0,-1.5e-6,47.999998)"
       gradientUnits="userSpaceOnUse"
       x2="47"
       x1="1"
       id="linearGradient3764">
      <stop
         id="stop3342"
         stop-opacity="1"
         stop-color="#d6740a" />
      <stop
         id="stop3344"
         stop-opacity="1"
         stop-color="#e87e0b"
         offset="1" />
    </linearGradient>
    <clipPath
       id="clipPath-483879499">
      <g
         id="g3401"
         transform="translate(0,-1004.3622)">
        <path
           id="path3403"
           fill="#1890d0"
           transform="matrix(15.333333,0,0,11.5,414.99999,878.8622)"
           d="m -24 13 c 0 1.105 -0.672 2 -1.5 2 -0.828 0 -1.5 -0.895 -1.5 -2 0 -1.105 0.672 -2 1.5 -2 0.828 0 1.5 0.895 1.5 2 z" />
      </g>
    </clipPath>
    <clipPath
       id="clipPath-478329641">
      <g
         id="g3396"
         transform="translate(0,-1004.3622)">
        <path
           id="path3398"
           fill="#1890d0"
           transform="matrix(15.333333,0,0,11.5,414.99999,878.8622)"
           d="m -24 13 c 0 1.105 -0.672 2 -1.5 2 -0.828 0 -1.5 -0.895 -1.5 -2 0 -1.105 0.672 -2 1.5 -2 0.828 0 1.5 0.895 1.5 2 z" />
      </g>
    </clipPath>
    <linearGradient
       gradientTransform="matrix(0,-1,1,0,-1.5e-6,47.999998)"
       gradientUnits="userSpaceOnUse"
       x2="47"
       x1="1"
       id="linearGradient3764-2">
      <stop
         id="stop3391"
         stop-opacity="1"
         stop-color="#333" />
      <stop
         id="stop3393"
         stop-opacity="1"
         stop-color="#3d3d3d"
         offset="1" />
    </linearGradient>
  </defs>
  <sodipodi:namedview
     id="base"
     pagecolor="#ffffff"
     bordercolor="#666666"
     borderopacity="1.0"
     inkscape:pageopacity="0.0"
     inkscape:pageshadow="2"
     inkscape:zoom="11.313709"
     inkscape:cx="40.074968"
     inkscape:cy="38.415851"
     inkscape:document-units="px"
     inkscape:current-layer="layer1"
     showgrid="true"
     inkscape:window-width="1280"
     inkscape:window-height="998"
     inkscape:window-x="0"
     inkscape:window-y="0"
     inkscape:window-maximized="1">
    <inkscape:grid
       type="xygrid"
       id="grid2990"
       empspacing="5"
       visible="true"
       enabled="true"
       snapvisiblegridlinesonly="true" />
  </sodipodi:namedview>
  <metadata
     id="metadata7">
    <rdf:RDF>
      <cc:Work
         rdf:about="">
        <dc:format>image/svg+xml</dc:format>
        <dc:type
           rdf:resource="http://purl.org/dc/dcmitype/StillImage" />
        <dc:title />
      </cc:Work>
    </rdf:RDF>
  </metadata>
  <g
     inkscape:label="Body"
     inkscape:groupmode="layer"
     id="layer1"
     transform="translate(0,-1004.3622)">
    <path
       style="font-size:medium;font-style:normal;font-variant:normal;font-weight:normal;font-stretch:normal;text-indent:0;text-align:start;text-decoration:none;line-height:normal;letter-spacing:normal;word-spacing:normal;text-transform:none;direction:ltr;block-progression:tb;writing-mode:lr-tb;text-anchor:start;baseline-shift:baseline;color:#000000;fill:#7e57c2;fill-opacity:1;fill-rule:nonzero;stroke:none;stroke-width:3.00000024;marker:none;visibility:visible;display:inline;overflow:visible;enable-background:accumulate;font-family:Sans;-inkscape-font-specification:Sans"
       d="M 5.1875 8 C 4.511132 8.144 3.984919 8.8087 4 9.5 L 4 37.5 C 4.000079 38.2853 4.714623 38.9999 5.5 39 L 42.5 39 C 43.285377 38.9999 43.999921 38.2853 44 37.5 L 44 12.53125 C 43.999921 11.74585 43.285377 11.03135 42.5 11.03125 L 28 11.03125 L 28 9.5 C 27.999921 8.7147 27.285377 8 26.5 8 L 5.5 8 C 5.396212 7.989 5.291288 7.989 5.1875 8 z M 29.0625 17.625 C 31.225879 17.625 33 19.3468 33 21.4375 C 33 22.997847 32.022768 24.350536 30.625 24.9375 L 28.5 28.5 C 28.85429 28.955068 29.0625 29.515595 29.0625 30.125 C 29.0625 31.6203 27.796556 32.84375 26.25 32.84375 C 24.727924 32.84375 23.473553 31.653196 23.4375 30.1875 L 19.5 28.46875 C 19.026929 28.817338 18.448626 29.03125 17.8125 29.03125 C 16.268021 29.03125 15 27.8078 15 26.3125 C 15 24.8192 16.268713 23.59375 17.8125 23.59375 C 19.34784 23.59375 20.606789 24.803334 20.625 26.28125 C 20.625133 26.292047 20.625 26.301675 20.625 26.3125 L 24.53125 28 C 24.86827 27.743392 25.25404 27.555297 25.6875 27.46875 L 25.6875 23.34375 C 25.344206 22.779261 25.125 22.1344 25.125 21.4375 C 25.125 19.3448 26.896353 17.625 29.0625 17.625 z M 29.0625 18.90625 C 27.605249 18.90625 26.4375 20.0315 26.4375 21.4375 C 26.4375 22.8463 27.605249 23.96875 29.0625 23.96875 C 30.516983 23.96875 31.6875 22.8463 31.6875 21.4375 C 31.6875 20.0315 30.517675 18.90625 29.0625 18.90625 z M 29.0625 19.78125 C 29.995695 19.78125 30.75 20.50355 30.75 21.40625 C 30.75 22.30695 29.995695 23.0625 29.0625 23.0625 C 28.132074 23.0625 27.375 22.30625 27.375 21.40625 C 27.375 20.50285 28.132074 19.78125 29.0625 19.78125 z M 17.8125 24.6875 C 16.687543 24.6875 16.125 25.2256 16.125 26.3125 C 16.125 27.4021 16.687543 27.9375 17.8125 27.9375 C 17.966304 27.9375 18.117208 27.95775 18.25 27.9375 L 17.4375 27.5625 C 16.799218 27.3029 16.510568 26.6168 16.78125 26 C 17.051932 25.3801 17.799217 25.08145 18.4375 25.34375 L 19.4375 25.78125 C 19.27003 25.053991 18.73498 24.6875 17.8125 24.6875 z M 26.25 28.3125 C 26.015029 28.3125 25.80018 28.362437 25.59375 28.4375 L 26.78125 28.96875 C 27.419532 29.22835 27.739432 29.9457 27.46875 30.5625 C 27.198068 31.1823 26.450783 31.48115 25.8125 31.21875 L 24.4375 30.625 C 24.655694 31.389332 25.38686 31.9375 26.25 31.9375 C 27.291191 31.9375 28.125 31.1309 28.125 30.125 C 28.125 29.1191 27.291191 28.3125 26.25 28.3125 z "
       transform="translate(0,1004.3622)"
       id="path3912" />
  </g>
</svg>
