<?xml version="1.0" encoding="UTF-8" standalone="no"?>
<!-- Created with Inkscape (http://www.inkscape.org/) -->

<svg
   xmlns:dc="http://purl.org/dc/elements/1.1/"
   xmlns:cc="http://creativecommons.org/ns#"
   xmlns:rdf="http://www.w3.org/1999/02/22-rdf-syntax-ns#"
   xmlns:svg="http://www.w3.org/2000/svg"
   xmlns="http://www.w3.org/2000/svg"
   xmlns:xlink="http://www.w3.org/1999/xlink"
   xmlns:sodipodi="http://sodipodi.sourceforge.net/DTD/sodipodi-0.dtd"
   xmlns:inkscape="http://www.inkscape.org/namespaces/inkscape"
   width="256"
   height="256"
   id="svg2"
   version="1.1"
   inkscape:version="0.91 r"
   sodipodi:docname="grey-folder-templates.svg"
   inkscape:export-filename="/media/Data/Main/Visuals/Icons/Numix/Desktop/repos/numix-wiki/Gjorgi/Numix-folders/48/New/folder-144.png"
   inkscape:export-xdpi="270"
   inkscape:export-ydpi="270">
  <defs
     id="defs4">
    <linearGradient
       inkscape:collect="always"
       id="linearGradient3810">
      <stop
         style="stop-color:#000000;stop-opacity:1;"
         offset="0"
         id="stop3812" />
      <stop
         style="stop-color:#000000;stop-opacity:0;"
         offset="1"
         id="stop3814" />
    </linearGradient>
    <radialGradient
       inkscape:collect="always"
       xlink:href="#linearGradient3810"
       id="radialGradient3816"
       cx="-25"
       cy="203.5"
       fx="-25"
       fy="203.5"
       r="35"
       gradientTransform="matrix(1,0,0,0.78571429,0,43.607143)"
       gradientUnits="userSpaceOnUse" />
  </defs>
  <sodipodi:namedview
     id="base"
     pagecolor="#ffffff"
     bordercolor="#666666"
     borderopacity="1.0"
     inkscape:pageopacity="0.0"
     inkscape:pageshadow="2"
     inkscape:zoom="4.2961318"
     inkscape:cx="61.837439"
     inkscape:cy="64.406045"
     inkscape:document-units="px"
     inkscape:current-layer="layer1"
     showgrid="true"
     inkscape:window-width="1920"
     inkscape:window-height="1052"
     inkscape:window-x="0"
     inkscape:window-y="28"
     inkscape:window-maximized="1"
     showguides="true"
     inkscape:guide-bbox="true">
    <inkscape:grid
       type="xygrid"
       id="grid2985"
       empspacing="5"
       visible="true"
       enabled="true"
       snapvisiblegridlinesonly="true" />
  </sodipodi:namedview>
  <metadata
     id="metadata7">
    <rdf:RDF>
      <cc:Work
         rdf:about="">
        <dc:format>image/svg+xml</dc:format>
        <dc:type
           rdf:resource="http://purl.org/dc/dcmitype/StillImage" />
        <dc:title />
      </cc:Work>
    </rdf:RDF>
  </metadata>
  <g
     inkscape:label="Layer 1"
     inkscape:groupmode="layer"
     id="layer1"
     transform="translate(0,-796.3622)">
    <path
       sodipodi:type="arc"
       style="opacity:0.55;fill:url(#radialGradient3816);fill-opacity:1;stroke:none"
       id="path3039"
       sodipodi:cx="-25"
       sodipodi:cy="203.5"
       sodipodi:rx="35"
       sodipodi:ry="27.5"
       d="m 10,203.5 a 35,27.5 0 1 1 -70,0 35,27.5 0 1 1 70,0 z"
       transform="matrix(5.0857143,0,0,1.0909091,255.14286,788.3622)" />
    <path
       sodipodi:nodetypes="ccccccccc"
       inkscape:connector-curvature="0"
       id="path3029"
       d="m 0,832.5974 0,171.294 256,0 0,-85.6468 -12.19048,-73.412 L 148,844.3622 l -12,-24 -123.80952,0 C 6.09524,820.3622 0,826.4798 0,832.5974 z"
       style="fill:#757575;fill-opacity:1;stroke:none" />
    <rect
       style="fill:#fffdf0;fill-opacity:1;stroke:none"
       id="rect3799"
       width="126.28571"
       height="47.529137"
       x="20"
       y="852.36218" />
    <path
       style="opacity:0.02999998;fill:#000000;fill-opacity:1;stroke:none"
       d="m 12.25,820.3622 c -6.09524,0 -12.25,6.1324 -12.25,12.25 l 0,8 c 0,-6.1176 6.15476,-12.25 12.25,-12.25 l 119.75,0 12,24 99.75,0.5 12.25,73.3752 0,-8 -12.25,-73.3752 -95.75,-0.5 -12,-24 z"
       id="path3790"
       inkscape:connector-curvature="0"
       sodipodi:nodetypes="sscsccccccccs" />
    <path
       style="fill:#bdbdbd;fill-opacity:1;stroke:none"
       d="m 256,857.0682 0,171.294 -256,0 0,-160 120,0 12,-24 111.80952,0.4704 c 6.09524,0 12.19048,6.118 12.19048,12.2356 z"
       id="rect2987"
       inkscape:connector-curvature="0"
       sodipodi:nodetypes="cccccccc" />
    <path
       sodipodi:nodetypes="ccccc"
       id="path3794"
       d="m 0,1020.3622 0,8 256,0 0,-8 z"
       style="opacity:0.15;fill:#000000;fill-opacity:1;stroke:none"
       inkscape:connector-curvature="0" />
    <path
       style="opacity:0.02999998;fill:#000000;fill-opacity:1;stroke:none"
       d="m 132,844.3622 -12,24 -120,0 0,8 124,0 12,-24 107.75,0.5 c 6.09524,0 12.25,6.1324 12.25,12.25 l 0,-8 c 0,-6.1176 -6.15476,-12.25 -12.25,-12.25 z"
       id="path3015"
       inkscape:connector-curvature="0"
       sodipodi:nodetypes="ccccccccscc" />
    <g
       id="g4017"
       transform="matrix(8,0,0,8,64,-7406.5354)"
       style="opacity:1.0;fill:#7f7f7f;fill-opacity:1">
      <path
         id="path4019"
         d="m 2.5,1037.8622 c 0,0 -1,0.038 -1,1 l 0,2 2,0 0,-1 1,0 0,-2 -1.90625,0 z m 3,0 0,2 2,0 0,-2 z m 3,0 0,2 2,0 0,-2 z m 3,0 0,2 1,0 0,1 2,0 0,-2 c 0,-1 -1,-1 -1,-1 z m -10,4 0,2 2,0 0,-2 z m 11,0 0,2 2,0 0,-2 z m -11,3 0,2 2,0 0,-2 z m 11,0 0,2 2,0 0,-2 z m -11,3 0,2 c 0,1 1,1 1,1 l 2,0 0,-2 -1,0 0,-1 z m 11,0 0,1 -1,0 0,2 2,0 c 0,0 1,0 1,-1 l 0,-2 z m -7,1 0,2 2,0 0,-2 z m 3,0 0,2 2,0 0,-2 z"
         style="line-height:normal;color:#000000;fill:#7f7f7f;fill-opacity:1"
         inkscape:connector-curvature="0"
         sodipodi:nodetypes="csccccccccccccccccccccccscccccccccccccccccccccccscccccccccccscccccccccccc" />
    </g>
  </g>
</svg>
