<?xml version="1.0" encoding="UTF-8" standalone="no"?>
<!-- Created with Inkscape (http://www.inkscape.org/) -->

<svg
   xmlns:dc="http://purl.org/dc/elements/1.1/"
   xmlns:cc="http://creativecommons.org/ns#"
   xmlns:rdf="http://www.w3.org/1999/02/22-rdf-syntax-ns#"
   xmlns:svg="http://www.w3.org/2000/svg"
   xmlns="http://www.w3.org/2000/svg"
   xmlns:xlink="http://www.w3.org/1999/xlink"
   xmlns:sodipodi="http://sodipodi.sourceforge.net/DTD/sodipodi-0.dtd"
   xmlns:inkscape="http://www.inkscape.org/namespaces/inkscape"
   width="256"
   height="256"
   id="svg2"
   version="1.1"
   inkscape:version="0.91 r"
   sodipodi:docname="orange-folder-ubuntu.svg"
   inkscape:export-filename="/media/Data/Main/Visuals/Icons/Numix/Desktop/repos/numix-wiki/Gjorgi/Numix-folders/48/New/folder-144.png"
   inkscape:export-xdpi="270"
   inkscape:export-ydpi="270">
  <defs
     id="defs4">
    <linearGradient
       inkscape:collect="always"
       id="linearGradient3810">
      <stop
         style="stop-color:#000000;stop-opacity:1;"
         offset="0"
         id="stop3812" />
      <stop
         style="stop-color:#000000;stop-opacity:0;"
         offset="1"
         id="stop3814" />
    </linearGradient>
    <radialGradient
       inkscape:collect="always"
       xlink:href="#linearGradient3810"
       id="radialGradient3816"
       cx="-25"
       cy="203.5"
       fx="-25"
       fy="203.5"
       r="35"
       gradientTransform="matrix(1,0,0,0.78571429,0,43.607143)"
       gradientUnits="userSpaceOnUse" />
  </defs>
  <sodipodi:namedview
     id="base"
     pagecolor="#ffffff"
     bordercolor="#666666"
     borderopacity="1.0"
     inkscape:pageopacity="0.0"
     inkscape:pageshadow="2"
     inkscape:zoom="4.2961318"
     inkscape:cx="61.837439"
     inkscape:cy="120.27025"
     inkscape:document-units="px"
     inkscape:current-layer="layer1"
     showgrid="true"
     inkscape:window-width="1920"
     inkscape:window-height="1052"
     inkscape:window-x="0"
     inkscape:window-y="28"
     inkscape:window-maximized="1"
     showguides="true"
     inkscape:guide-bbox="true">
    <inkscape:grid
       type="xygrid"
       id="grid2985"
       empspacing="5"
       visible="true"
       enabled="true"
       snapvisiblegridlinesonly="true" />
  </sodipodi:namedview>
  <metadata
     id="metadata7">
    <rdf:RDF>
      <cc:Work
         rdf:about="">
        <dc:format>image/svg+xml</dc:format>
        <dc:type
           rdf:resource="http://purl.org/dc/dcmitype/StillImage" />
        <dc:title />
      </cc:Work>
    </rdf:RDF>
  </metadata>
  <g
     inkscape:label="Layer 1"
     inkscape:groupmode="layer"
     id="layer1"
     transform="translate(0,-796.3622)">
    <path
       sodipodi:type="arc"
       style="opacity:0.55;fill:url(#radialGradient3816);fill-opacity:1;stroke:none"
       id="path3039"
       sodipodi:cx="-25"
       sodipodi:cy="203.5"
       sodipodi:rx="35"
       sodipodi:ry="27.5"
       d="m 10,203.5 a 35,27.5 0 1 1 -70,0 35,27.5 0 1 1 70,0 z"
       transform="matrix(5.0857143,0,0,1.0909091,255.14286,788.3622)" />
    <path
       sodipodi:nodetypes="ccccccccc"
       inkscape:connector-curvature="0"
       id="path3029"
       d="m 0,832.5974 0,171.294 256,0 0,-85.6468 -12.19048,-73.412 L 148,844.3622 l -12,-24 -123.809524,0 C 6.09524,820.3622 0,826.4798 0,832.5974 z"
       style="fill:#e65100;fill-opacity:1;stroke:none" />
    <rect
       style="fill:#fffdf0;fill-opacity:1;stroke:none"
       id="rect3799"
       width="126.28571"
       height="47.529137"
       x="20.000002"
       y="852.36206" />
    <path
       style="opacity:0.02999998;fill:#000000;fill-opacity:1;stroke:none"
       d="m 12.25,820.3622 c -6.095236,0 -12.25,6.1324 -12.25,12.25 l 0,8 c 0,-6.1176 6.154764,-12.25 12.25,-12.25 l 119.75,0 12,24 99.75,0.5 12.25,73.3752 0,-8 -12.25,-73.3752 -95.75,-0.5 -12,-24 z"
       id="path3790"
       inkscape:connector-curvature="0"
       sodipodi:nodetypes="sscsccccccccs" />
    <path
       style="fill:#f57c00;fill-opacity:1;stroke:none"
       d="m 256,857.0682 0,171.294 -256,0 0,-160 120,0 12,-24 111.80952,0.4704 c 6.09524,0 12.19048,6.118 12.19048,12.2356 z"
       id="rect2987"
       inkscape:connector-curvature="0"
       sodipodi:nodetypes="cccccccc" />
    <path
       sodipodi:nodetypes="ccccc"
       id="path3794"
       d="m 0,1020.3622 0,8 256,0 0,-8 z"
       style="opacity:0.15;fill:#000000;fill-opacity:1;stroke:none"
       inkscape:connector-curvature="0" />
    <path
       style="opacity:0.02999998;fill:#000000;fill-opacity:1;stroke:none"
       d="m 132,844.3622 -12,24 -120,0 0,8 124,0 12,-24 107.75,0.5 c 6.09524,0 12.25,6.1324 12.25,12.25 l 0,-8 c 0,-6.1176 -6.15476,-12.25 -12.25,-12.25 z"
       id="path3015"
       inkscape:connector-curvature="0"
       sodipodi:nodetypes="ccccccccscc" />
    <path
       transform="matrix(4,0,0,4,8,792.3622)"
       d="m 17,38 a 3,3 0 1 1 -6,0 3,3 0 1 1 6,0 z"
       sodipodi:ry="3"
       sodipodi:rx="3"
       sodipodi:cy="38"
       sodipodi:cx="14"
       id="path3007"
       style="opacity:1.0;fill:#ab5d0b;fill-opacity:1;stroke:none"
       sodipodi:type="arc" />
    <path
       style="opacity:1.0;fill:#ab5d0b;fill-opacity:1;stroke:none"
       d="m 128,896.3622 c -9.16806,0 -17.71959,2.5304 -25,7 l 11.875,11.8752 c 4.00636,-1.8052 8.44564,-2.8752 13.125,-2.8752 16.31315,0 29.77476,12.2224 31.75,28 l 16,0 c -0.64982,-7.6784 -3.04481,-14.9016 -6.875,-21.1248 -1.50283,0.6772 -3.11958,1.1248 -4.875,1.1248 -6.62742,0 -12,-5.3724 -12,-12 0,-1.7556 0.44766,-3.372 1.125,-4.8748 -7.30785,-4.4976 -15.91456,-7.1252 -25.125,-7.1252 z m -31.375,11.8752 c -7.515928,6.5528 -13.063556,15.3252 -15.375,25.3748 3.981132,1.9528 6.75,6.0164 6.75,10.75 0,4.7336 -2.768868,8.7972 -6.75,10.75 2.49026,10.8268 8.566972,20.3312 17,27 l 11.5,-11.5 C 101.44903,964.831 96,955.245 96,944.3622 c 0,-10.0412 4.63925,-19.008 11.875,-24.8748 l -11.25,-11.25 z m 63.125,40.1248 c -1.97524,15.7776 -15.43685,28 -31.75,28 -3.78315,0 -7.38122,-0.7948 -10.75,-2 l -12.125,12.1252 c 6.80769,3.7196 14.57115,5.8748 22.875,5.8748 6.05096,0 11.79293,-1.0816 17.125,-3.1248 -0.67734,-1.5032 -1.125,-3.1196 -1.125,-4.8752 0,-6.6276 5.37258,-12 12,-12 3.21625,0 6.09543,1.3152 8.25,3.3752 6.48189,-7.4832 10.63702,-16.9252 11.5,-27.3752 l -16,0 z"
       id="path3030"
       inkscape:connector-curvature="0" />
    <path
       sodipodi:type="arc"
       style="opacity:1.0;fill:#ab5d0b;fill-opacity:1;stroke:none"
       id="path3046"
       sodipodi:cx="14"
       sodipodi:cy="38"
       sodipodi:rx="3"
       sodipodi:ry="3"
       d="m 17,38 a 3,3 0 1 1 -6,0 3,3 0 1 1 6,0 z"
       transform="matrix(4,0,0,4,116,748.3622)" />
    <path
       sodipodi:type="arc"
       style="opacity:1.0;fill:#ab5d0b;fill-opacity:1;stroke:none"
       id="path3050"
       sodipodi:cx="14"
       sodipodi:cy="38"
       sodipodi:rx="3"
       sodipodi:ry="3"
       d="m 17,38 a 3,3 0 1 1 -6,0 3,3 0 1 1 6,0 z"
       transform="matrix(4,0,0,4,108,840.3622)" />
  </g>
</svg>
