<?xml version="1.0" encoding="UTF-8" standalone="no"?>
<!-- Created with Inkscape (http://www.inkscape.org/) -->

<svg
   xmlns:dc="http://purl.org/dc/elements/1.1/"
   xmlns:cc="http://creativecommons.org/ns#"
   xmlns:rdf="http://www.w3.org/1999/02/22-rdf-syntax-ns#"
   xmlns:svg="http://www.w3.org/2000/svg"
   xmlns="http://www.w3.org/2000/svg"
   xmlns:sodipodi="http://sodipodi.sourceforge.net/DTD/sodipodi-0.dtd"
   xmlns:inkscape="http://www.inkscape.org/namespaces/inkscape"
   id="svg3396"
   height="32"
   width="32"
   version="1.0"
   inkscape:version="0.91 r"
   sodipodi:docname="blue-folder-books.svg">
  <metadata
     id="metadata64">
    <rdf:RDF>
      <cc:Work
         rdf:about="">
        <dc:format>image/svg+xml</dc:format>
        <dc:type
           rdf:resource="http://purl.org/dc/dcmitype/StillImage" />
        <dc:title />
      </cc:Work>
    </rdf:RDF>
  </metadata>
  <sodipodi:namedview
     pagecolor="#ffffff"
     bordercolor="#666666"
     borderopacity="1"
     objecttolerance="10"
     gridtolerance="10"
     guidetolerance="10"
     inkscape:pageopacity="0"
     inkscape:pageshadow="2"
     inkscape:window-width="1366"
     inkscape:window-height="747"
     id="namedview62"
     showgrid="true"
     inkscape:zoom="2.9687263"
     inkscape:cx="72.552674"
     inkscape:cy="11.926806"
     inkscape:window-x="0"
     inkscape:window-y="21"
     inkscape:window-maximized="1"
     inkscape:current-layer="svg3396">
    <inkscape:grid
       type="xygrid"
       id="grid3906"
       empspacing="5"
       visible="true"
       enabled="true"
       snapvisiblegridlinesonly="true" />
  </sodipodi:namedview>
  <defs
     id="defs3398" />
  <path
     style="font-size:medium;font-style:normal;font-variant:normal;font-weight:normal;font-stretch:normal;text-indent:0;text-align:start;text-decoration:none;line-height:normal;letter-spacing:normal;word-spacing:normal;text-transform:none;direction:ltr;block-progression:tb;writing-mode:lr-tb;text-anchor:start;baseline-shift:baseline;opacity:1.0;color:#000000;fill:#42a5f5;fill-opacity:1;fill-rule:nonzero;stroke:none;stroke-width:2.28612947;marker:none;visibility:visible;display:inline;overflow:visible;enable-background:accumulate;font-family:Sans;-inkscape-font-specification:Sans"
     d="M 2.03125 4 C 1.4665378 4.0554827 0.99079302 4.5888935 1 5.15625 L 1 26.84375 C 0.99301567 27.451042 1.5489584 28.006984 2.15625 28 L 29.84375 28 C 30.451042 28.007 31.006984 27.451042 31 26.84375 L 31 7.15625 C 31.006984 6.5489584 30.451042 5.9930157 29.84375 6 L 19 6 L 19 5.15625 C 19.0069 4.5593523 18.471863 4.0094527 17.875 4 L 2.15625 4 C 2.114625 3.99772 2.072875 3.99772 2.03125 4 z M 10.75 11 C 13 11 14.5 11.75 16 13 C 17.5 11.75 19 11 21.25 11 L 17 14 L 15 14 L 10.75 11 z M 10 11.5 L 14 14.5 L 14 22.5 L 10 19.5 L 10 11.5 z M 22 11.5 L 22 19.5 L 18 22.5 L 18 14.5 L 22 11.5 z M 15 15 L 17 15 L 17 23 L 15 23 L 15 15 z "
     id="path3912" />
  <g
     transform="matrix(2.6574797,0,0,2.6574797,10.000001,-12.999998)"
     inkscape:label="Symbol"
     id="layer3"
     style="opacity:0.4;fill:#3c2f1b;fill-opacity:1" />
</svg>
