<?xml version="1.0" encoding="UTF-8" standalone="no"?>
<!-- Created with Inkscape (http://www.inkscape.org/) -->

<svg
   xmlns:dc="http://purl.org/dc/elements/1.1/"
   xmlns:cc="http://creativecommons.org/ns#"
   xmlns:rdf="http://www.w3.org/1999/02/22-rdf-syntax-ns#"
   xmlns:svg="http://www.w3.org/2000/svg"
   xmlns="http://www.w3.org/2000/svg"
   xmlns:sodipodi="http://sodipodi.sourceforge.net/DTD/sodipodi-0.dtd"
   xmlns:inkscape="http://www.inkscape.org/namespaces/inkscape"
   width="32"
   height="32"
   id="svg2"
   version="1.1"
   inkscape:version="0.91 r"
   sodipodi:docname="default-network.svg"
   inkscape:export-filename="/media/Data/Main/Visuals/Icons/Numix/Desktop/repos/numix-wiki/Gjorgi/Numix-folders/48/New/folder-144.png"
   inkscape:export-xdpi="270"
   inkscape:export-ydpi="270">
  <defs
     id="defs4" />
  <sodipodi:namedview
     id="base"
     pagecolor="#ffffff"
     bordercolor="#666666"
     borderopacity="1.0"
     inkscape:pageopacity="0.0"
     inkscape:pageshadow="2"
     inkscape:zoom="21.767834"
     inkscape:cx="18.217841"
     inkscape:cy="17.256211"
     inkscape:document-units="px"
     inkscape:current-layer="layer1"
     showgrid="true"
     inkscape:window-width="1280"
     inkscape:window-height="998"
     inkscape:window-x="0"
     inkscape:window-y="0"
     inkscape:window-maximized="1"
     showguides="true"
     inkscape:guide-bbox="true">
    <inkscape:grid
       type="xygrid"
       id="grid2985"
       empspacing="5"
       visible="true"
       enabled="true"
       snapvisiblegridlinesonly="true" />
  </sodipodi:namedview>
  <metadata
     id="metadata7">
    <rdf:RDF>
      <cc:Work
         rdf:about="">
        <dc:format>image/svg+xml</dc:format>
        <dc:type
           rdf:resource="http://purl.org/dc/dcmitype/StillImage" />
        <dc:title />
      </cc:Work>
    </rdf:RDF>
  </metadata>
  <g
     inkscape:label="Layer 1"
     inkscape:groupmode="layer"
     id="layer1"
     transform="translate(0,-1020.3622)">
    <path
       style="font-size:medium;font-style:normal;font-variant:normal;font-weight:normal;font-stretch:normal;text-indent:0;text-align:start;text-decoration:none;line-height:normal;letter-spacing:normal;word-spacing:normal;text-transform:none;direction:ltr;block-progression:tb;writing-mode:lr-tb;text-anchor:start;baseline-shift:baseline;color:#000000;fill:#c4905e;fill-opacity:1;fill-rule:nonzero;stroke:none;stroke-width:2.28612947;marker:none;visibility:visible;display:inline;overflow:visible;enable-background:accumulate;font-family:Sans;-inkscape-font-specification:Sans"
       d="M 2.03125 4 C 1.4665378 4.056 0.99079304 4.58885 1 5.15625 L 1 26.84375 C 0.99302 27.45105 1.5489584 28.007 2.15625 28 L 29.84375 28 C 30.451042 28.01 31.006984 27.45105 31 26.84375 L 31 7.15625 C 31.007 6.54895 30.451042 5.993 29.84375 6 L 19 6 L 19 5.15625 C 19.0069 4.55935 18.471863 4.0095 17.875 4 L 2.15625 4 L 2.03125 4 z M 15.25 11 L 16 11 C 19.308992 11 22 13.6911 22 17 C 22 20.3089 19.308773 23 15.25 23 C 12.690797 23 10 20.3089 10 17 C 10 13.6911 12.690793 11 15.25 11 z M 16.5 11.84375 C 16.4966 11.86975 16.503 11.87725 16.5 11.90625 C 16.446429 12.41525 16.169645 12.071 16.0625 12.125 C 15.955357 12.1786 15.21875 13.1697 15.21875 13.0625 C 15.21875 12.9553 15.375 12.8125 15.375 12.8125 C 15.375 12.8125 15.39773 12.36 15.3125 11.875 C 15.079561 11.9052 14.847221 11.94 14.625 12 L 13.9375 13.125 C 13.99739 13.134 14.07891 13.17475 14.15625 13.21875 C 14.531251 13.43305 14.674106 13.63025 14.78125 13.65625 C 14.888394 13.68325 15.379466 12.99565 15.03125 13.71875 C 14.683035 14.44205 14.495537 14.68305 14.09375 14.84375 C 14.06864 14.85175 14.05606 14.863 14.03125 14.875 C 13.928586 14.998 13.79862 15.12685 13.625 15.28125 C 13.246194 15.61915 13.0625 15.6626 13.0625 16 C 13.0625 16.3376 13.046415 16.58115 12.78125 17.03125 C 12.516089 17.48135 12.355106 17.4748 12.46875 17.8125 C 12.582395 18.1499 12.658154 18.7625 12.46875 18.5 C 12.27934 18.2375 12.339024 17.7003 12.1875 18 C 12.054917 18.2627 11.74259 18.38665 11.71875 18.65625 C 11.71545 18.69335 11.70925 18.702 11.71875 18.75 C 11.72065 18.757 11.7475 18.76925 11.75 18.78125 C 11.847229 19.10585 12.375 18.65015 12.375 18.90625 C 12.375 19.16865 11.917605 19.18115 12.03125 19.40625 C 12.144892 19.63115 12.558694 18.9504 12.9375 19.0625 C 13.316303 19.175 13.096573 19.25615 13.4375 19.40625 C 13.778425 19.55625 13.96875 19.7125 13.96875 19.9375 C 13.96875 20.1626 15.019895 20.03105 14.90625 20.40625 C 14.792609 20.78125 14.684677 20.7125 14.34375 21.125 C 14.155938 21.3523 14.016415 21.48425 13.90625 21.59375 C 14.060685 21.70685 14.069197 21.77875 14.25 21.71875 C 14.491067 21.63855 14.187498 21.51335 14.375 21.40625 C 14.42188 21.37925 14.44112 21.36775 14.46875 21.34375 C 14.49637 21.32175 14.53683 21.29825 14.59375 21.28125 C 14.707591 21.24825 14.946428 21.21875 15.46875 21.21875 C 16.513392 21.21875 17 21.28125 17 21.28125 C 17 21.28125 17.35268 21.2496 17.03125 21.4375 C 16.79636 21.5743 16.30994 21.84125 16.25 21.90625 C 16.273538 21.90425 16.34598 21.892 16.40625 21.875 C 16.888393 21.741 17.53125 21.6165 17.71875 21.5625 C 17.798196 21.54 18.219125 21.3434 18.5625 21.1875 C 18.5765 21.1555 18.57963 21.12675 18.59375 21.09375 C 18.328585 20.98025 18.11173 20.4639 18.1875 20.3125 C 18.263261 20.161 18.435595 20.03505 18.625 19.65625 C 18.814405 19.27725 18.78033 19.52545 18.25 18.84375 C 17.71967 18.16175 17.452666 18.88335 17.1875 18.65625 C 16.922335 18.42885 16.352284 18.2291 16.125 17.8125 C 15.897712 17.3956 16.03125 17.7046 16.03125 17.25 C 16.03125 16.7945 15.980106 17.16045 16.09375 16.78125 C 16.207391 16.40275 16.496192 16.35905 16.875 16.09375 C 16.927084 16.05675 17.00954 16.027 17.0625 16 C 16.977629 15.9195 16.861601 15.76785 16.625 15.53125 C 16.625 15.53125 16.841845 15.04475 17.03125 14.96875 C 17.215082 14.89595 17.313594 14.929 17.5625 15 C 17.57305 14.9594 17.5822 14.93675 17.59375 14.84375 C 17.631628 14.53995 17.46875 14.72055 17.46875 14.53125 C 17.46875 14.34185 17.578586 14.5135 17.84375 14.4375 C 18.108917 14.3618 18.109835 13.8615 18.375 13.9375 C 18.640165 14.0133 18.616465 13.80955 18.84375 13.46875 C 19.071035 13.12745 18.865547 13.3391 18.5625 13.1875 C 18.259454 13.0359 18.51327 13.39125 18.4375 13.65625 C 18.36174 13.92135 18.140164 13.78685 17.875 13.21875 C 17.609837 12.65045 17.848477 12.86075 18 12.40625 C 18.02652 12.32655 18.05583 12.297 18.09375 12.25 C 17.601117 12.0356 17.059256 11.89575 16.5 11.84375 z M 17.375 13.875 C 17.422348 13.855 17.46153 13.863 17.5 13.875 C 17.615419 13.8927 17.69318 14.0119 17.75 14.125 C 17.7803 14.187 17.75391 14.20475 17.71875 14.21875 C 17.71875 14.21875 17.78125 14.337 17.78125 14.375 C 17.78125 14.412 17.711183 14.39175 17.53125 14.34375 C 17.39631 14.30855 17.47105 14.28675 17.5625 14.21875 L 17.40625 14.21875 C 17.356532 14.21875 17.33085 14.225781 17.3125 14.21875 C 17.397731 14.32275 17.310613 14.25325 17.1875 14.28125 C 17.064396 14.30965 17.19319 14.2299 17.25 14.125 C 17.25 14.125 17.26716 14.13225 17.28125 14.15625 C 17.30492 14.10415 17.375 14.0077 17.375 13.875 z M 20.375 14.1875 C 20.185665 14.328 19.918007 14.64445 19.71875 14.84375 C 19.377824 15.18415 19.904345 15.212 20.09375 15.25 C 20.283154 15.2882 20.464942 15.1875 20.84375 15.1875 C 20.83704 15.1705 20.85075 15.143 20.84375 15.125 C 20.792496 15.131 20.71835 15.15625 20.65625 15.15625 C 20.434131 15.15625 20.57285 14.9275 20.625 14.625 C 20.545935 14.4701 20.46869 14.3331 20.375 14.1875 z M 18 14.875 C 17.920143 14.8509 17.800678 14.94825 17.65625 15.03125 C 17.758795 15.18075 17.446978 15.60775 17.28125 15.90625 C 17.606106 15.85195 18.085562 15.93555 19.21875 16.21875 C 19.21875 16.21875 19.64299 16.12995 19.71875 16.28125 C 19.745666 16.33425 19.889133 16.363 20.0625 16.375 C 20.520401 16.1946 20.28125 16.02145 20.28125 15.65625 C 20.28125 15.27755 19.73673 15.72055 19.8125 15.53125 C 19.888263 15.34195 19.702666 15.3276 19.4375 15.0625 C 19.172335 14.7973 19.220653 15.7518 19.03125 15.5625 C 18.841849 15.375 18.85702 15.5265 18.78125 15.375 C 18.70549 15.2234 18.4375 14.96875 18.4375 14.96875 C 18.4375 14.96875 18.63164 15.1836 18.59375 15.5625 C 18.555869 15.9406 18.03125 15.59375 18.03125 15.59375 C 18.03125 15.59375 18.098476 15.56925 18.25 15.53125 C 18.401522 15.49335 18.207395 15.2653 18.09375 15 C 18.06535 14.9362 18.03491 14.887 18 14.875 z M 21.1875 16.78125 C 21.145403 16.81125 21.08334 16.82375 21.03125 16.84375 C 20.614561 16.99535 20.34375 17.34375 20.34375 17.34375 C 20.34375 17.34375 20.815441 17.3218 21.15625 17.625 C 21.18097 17.4186 21.1875 17.2133 21.1875 17 C 21.1875 16.9231 21.1909 16.85725 21.1875 16.78125 z "
       transform="translate(0,1020.3622)"
       id="path3912" />
  </g>
</svg>
