<?xml version="1.0" encoding="UTF-8" standalone="no"?>
<svg
   xmlns:dc="http://purl.org/dc/elements/1.1/"
   xmlns:cc="http://creativecommons.org/ns#"
   xmlns:rdf="http://www.w3.org/1999/02/22-rdf-syntax-ns#"
   xmlns:svg="http://www.w3.org/2000/svg"
   xmlns="http://www.w3.org/2000/svg"
   xmlns:sodipodi="http://sodipodi.sourceforge.net/DTD/sodipodi-0.dtd"
   xmlns:inkscape="http://www.inkscape.org/namespaces/inkscape"
   viewBox="0 0 32 32"
   id="svg2"
   version="1.1"
   inkscape:version="0.91 r13725"
   sodipodi:docname="blue-add-folders-to-archive.svg">
  <metadata
     id="metadata28">
    <rdf:RDF>
      <cc:Work
         rdf:about="">
        <dc:format>image/svg+xml</dc:format>
        <dc:type
           rdf:resource="http://purl.org/dc/dcmitype/StillImage" />
      </cc:Work>
    </rdf:RDF>
  </metadata>
  <defs
     id="defs26" />
  <sodipodi:namedview
     pagecolor="#ffffff"
     bordercolor="#666666"
     borderopacity="1"
     objecttolerance="10"
     gridtolerance="10"
     guidetolerance="10"
     inkscape:pageopacity="0"
     inkscape:pageshadow="2"
     inkscape:window-width="1920"
     inkscape:window-height="1056"
     id="namedview24"
     showgrid="false"
     inkscape:zoom="7.375"
     inkscape:cx="16"
     inkscape:cy="16"
     inkscape:window-x="0"
     inkscape:window-y="24"
     inkscape:window-maximized="1"
     inkscape:current-layer="svg2" />
  <path
     d="m 4.5,13.998014 11.75,0 c 0.5,0 0.75,0.25 0.75,0.75 l 0,1.749 c 0,0.277 -0.237,0.25 -0.5,0.25 l -12,0 c -0.263,0 -0.5,-0.223 -0.5,-0.5 l 0,-2.249 z"
     style="fill:#5d4037;fill-opacity:1;stroke:none"
     id="path4167"
     inkscape:connector-curvature="0" />
  <path
     d="m 4,15.498014 0,1.25 13,0 0,-1.25 z"
     style="opacity:0.02999998;fill:#000000;fill-opacity:1;stroke:none"
     id="path4169"
     inkscape:connector-curvature="0" />
  <path
     d="m 4,14.998014 0,-1.25 c 0,-0.5 0.227,-0.75 0.455,-0.75 l 2.591,0 c 0.227,0 0.455,0.25 0.455,0.75 l 0,1.25 z"
     style="fill:#5d4037;fill-opacity:1;stroke:none"
     id="path4171"
     inkscape:connector-curvature="0" />
  <rect
     width="15"
     height="10"
     x="3"
     y="15.998"
     rx="1"
     ry="0.833"
     style="fill:#8d6e63;fill-opacity:1;stroke:none"
     id="rect4173" />
  <path
     d="m 4,15.998014 c -0.554,0 -1,0.374 -1,0.836 l 0,0.5 c 0,-0.462 0.446,-0.836 1,-0.836 l 13,0 c 0.554,0 1,0.374 1,0.836 l 0,-0.5 c 0,-0.462 -0.446,-0.836 -1,-0.836 l -13,0 z"
     style="opacity:0.1;fill:#ffffff;fill-opacity:1;stroke:none"
     id="path4175"
     inkscape:connector-curvature="0" />
  <path
     d="m 7.5,13.998014 0,0.5 0.5,0 8.25,0 c 0.5,0 0.75,0.25 0.75,0.75 l 0,-0.5 c 0,-0.5 -0.25,-0.75 -0.75,-0.75 l -8.25,0 z"
     style="opacity:0.05;fill:#000000;fill-opacity:1;stroke:none"
     id="path4177"
     inkscape:connector-curvature="0" />
  <path
     d="m 4.453,12.998014 c -0.227,0 -0.453,0.25 -0.453,0.75 l 0,0.5 c 0,-0.5 0.226,-0.75 0.453,-0.75 l 2.594,0 c 0.227,0 0.453,0.25 0.453,0.75 l 0,-0.5 c 0,-0.5 -0.226,-0.75 -0.453,-0.75 l -2.594,0 z"
     style="opacity:0.05;fill:#000000;fill-opacity:1;stroke:none"
     id="path4179"
     inkscape:connector-curvature="0" />
  <path
     style="opacity:0.5;fill:#ffffff;fill-opacity:1;stroke:none"
     d="M 4.46875 12.998047 C 4.24175 12.998047 4 13.248047 4 13.748047 L 4 13.998047 L 4 14.998047 L 4 15.998047 C 3.446 15.998047 3 16.379797 3 16.841797 L 3 25.154297 C 3 25.616297 3.446 25.998047 4 25.998047 L 17 25.998047 C 17.554 25.998047 18 25.616297 18 25.154297 L 18 16.841797 C 18 16.379797 17.554 15.998047 17 15.998047 L 17 14.748047 C 17 14.248047 16.75 13.998047 16.25 13.998047 L 7.5 13.998047 L 7.5 13.748047 C 7.5 13.248047 7.25925 12.998047 7.03125 12.998047 L 4.46875 12.998047 z "
     id="path6" />
  <path
     inkscape:connector-curvature="0"
     id="path8"
     style="fill:#5d4037;fill-opacity:1;stroke:none"
     d="m 15.5,6.9978 11.75,0 c 0.5,0 0.75,0.25 0.75,0.75 l 0,1.749 c 0,0.277 -0.237,0.25 -0.5,0.25 l -12,0 c -0.263,0 -0.5,-0.223 -0.5,-0.5 l 0,-2.249 z" />
  <path
     inkscape:connector-curvature="0"
     id="path10"
     style="opacity:0.02999998;fill:#000000;fill-opacity:1;stroke:none"
     d="m 15,8.4978 0,1.25 13,0 0,-1.25 z" />
  <path
     inkscape:connector-curvature="0"
     id="path12"
     style="fill:#5d4037;fill-opacity:1;stroke:none"
     d="m 15,7.9978 0,-1.25 c 0,-0.5 0.227,-0.75 0.455,-0.75 l 2.591,0 c 0.227,0 0.455,0.25 0.455,0.75 l 0,1.25 z" />
  <rect
     id="rect14"
     style="fill:#8d6e63;fill-opacity:1;stroke:none"
     ry="0.833"
     rx="1"
     y="8.9977856"
     x="14"
     height="10"
     width="15" />
  <path
     inkscape:connector-curvature="0"
     id="path16"
     style="opacity:0.1;fill:#ffffff;fill-opacity:1;stroke:none"
     d="m 15,8.9978 c -0.554,0 -1,0.374 -1,0.836 l 0,0.5 c 0,-0.462 0.446,-0.836 1,-0.836 l 13,0 c 0.554,0 1,0.374 1,0.836 l 0,-0.5 c 0,-0.462 -0.446,-0.836 -1,-0.836 l -13,0 z" />
  <path
     inkscape:connector-curvature="0"
     id="path18"
     style="opacity:0.05;fill:#000000;fill-opacity:1;stroke:none"
     d="m 18.5,6.9978 0,0.5 0.5,0 8.25,0 c 0.5,0 0.75,0.25 0.75,0.75 l 0,-0.5 c 0,-0.5 -0.25,-0.75 -0.75,-0.75 l -8.25,0 z" />
  <path
     inkscape:connector-curvature="0"
     id="path20"
     style="opacity:0.05;fill:#000000;fill-opacity:1;stroke:none"
     d="m 15.453,5.9978 c -0.227,0 -0.453,0.25 -0.453,0.75 l 0,0.5 c 0,-0.5 0.226,-0.75 0.453,-0.75 l 2.594,0 c 0.227,0 0.453,0.25 0.453,0.75 l 0,-0.5 c 0,-0.5 -0.226,-0.75 -0.453,-0.75 l -2.594,0 z" />
  <path
     inkscape:connector-curvature="0"
     id="path22"
     style="fill:#859900"
     d="m 28,16.9978 -5,0 0,-5 -3,0 0,5 -5,0 0,3 5,0 0,5 3,0 0,-5 5,0 z" />
</svg>
