<svg xmlns="http://www.w3.org/2000/svg" viewBox="0 0 32 32">
 <g transform="translate(0,-1020.3622)">
  <path d="m 4 1022.36 c -0.589 0 -1 0.383 -1 1 l 0 14 c 0 1 0.5 1.5 1.5 1.5 l 23.5 0 1 0 0 -12.5 -4 -4 z" style="fill:#e3e1cf;fill-opacity:1;stroke:none"/>
  <rect width="30" height="15" x="1" y="1034.36" rx="2" style="fill:#bdbdbd;fill-opacity:1;stroke:none"/>
  <path d="m 3 1034.36 c -1.108 0 -2 0.892 -2 2 l 0 2 c 0 -1.108 0.892 -2 2 -2 l 26 0 c 1.108 0 2 0.892 2 2 l 0 -2 c 0 -1.108 -0.892 -2 -2 -2 l -26 0 z" style="fill:#fff;opacity:0.1;fill-opacity:1;stroke:none"/>
  <path d="m 25 1022.36 0 4 4 0 z" style="fill:#fff;fill-opacity:1;stroke:none"/>
  <path d="m 29 1030.36 0 -4 -4 0 z" style="fill:#000;opacity:0.2;fill-opacity:1;stroke:none"/>
  <rect width="16" height="2" x="6" y="1024.36" rx="1" style="fill:#a1a195;fill-opacity:1;stroke:none"/>
  <path d="m 30 1041.36 c 0.059 2.84 -1.453 5.488 -3.953 6.922 -2.5 1.438 -5.594 1.438 -8.094 0 -2.5 -1.434 -4.01 -4.082 -3.953 -6.922 -0.059 -2.84 1.453 -5.488 3.953 -6.922 2.5 -1.438 5.594 -1.438 8.094 0 2.5 1.434 4.01 4.082 3.953 6.922 z" style="fill:#859900;fill-rule:evenodd"/>
  <rect rx="1" y="1027.36" x="6" height="2" width="18" style="fill:#a1a195;fill-opacity:1;stroke:none"/>
  <path d="m 26.377 1036.33 c -0.168 0.062 -0.313 0.176 -0.41 0.324 l -4.359 4.223 -2.723 -2.598 c -0.105 -0.359 -0.449 -0.602 -0.828 -0.582 -0.379 0.024 -0.695 0.297 -0.762 0.668 -0.07 0.371 0.129 0.738 0.477 0.887 l 3.277 3.246 c 0.316 0.289 0.801 0.289 1.117 0 l 4.914 -4.867 c 0.195 -0.254 0.219 -0.594 0.07 -0.875 -0.152 -0.277 -0.453 -0.445 -0.773 -0.426 z" style="fill:#fff"/>
  <rect width="18" height="2" x="6" y="1030.36" rx="1" style="fill:#a1a195;fill-opacity:1;stroke:none"/>
 </g>
</svg>
