<?xml version="1.0" encoding="UTF-8" standalone="no"?>
<svg
   xmlns:dc="http://purl.org/dc/elements/1.1/"
   xmlns:cc="http://creativecommons.org/ns#"
   xmlns:rdf="http://www.w3.org/1999/02/22-rdf-syntax-ns#"
   xmlns:svg="http://www.w3.org/2000/svg"
   xmlns="http://www.w3.org/2000/svg"
   xmlns:xlink="http://www.w3.org/1999/xlink"
   xmlns:sodipodi="http://sodipodi.sourceforge.net/DTD/sodipodi-0.dtd"
   xmlns:inkscape="http://www.inkscape.org/namespaces/inkscape"
   width="96"
   viewBox="0 0 96 96"
   height="96"
   id="svg2"
   version="1.1"
   inkscape:version="0.48.5 r10040"
   sodipodi:docname="folder-gdrive.svg">
  <metadata
     id="metadata20">
    <rdf:RDF>
      <cc:Work
         rdf:about="">
        <dc:format>image/svg+xml</dc:format>
        <dc:type
           rdf:resource="http://purl.org/dc/dcmitype/StillImage" />
      </cc:Work>
    </rdf:RDF>
  </metadata>
  <defs
     id="defs18">
    <linearGradient
       x2="0"
       gradientUnits="userSpaceOnUse"
       y2="268.32999"
       y1="279.09601"
       id="linearGradient3017"
       xlink:href="#linearGradient4460"
       gradientTransform="matrix(1.10525,0,0,1.10525,-134.27881,-295.76193)" />
    <linearGradient
       id="linearGradient4460">
      <stop
         id="stop3462"
         style="stop-color:#1b1b1b"
         offset="0" />
      <stop
         id="stop3464"
         style="stop-color:#383838"
         offset="1" />
    </linearGradient>
    <linearGradient
       inkscape:collect="always"
       xlink:href="#linearGradient4460"
       id="linearGradient3501"
       gradientUnits="userSpaceOnUse"
       gradientTransform="matrix(3.9162401,0,0,3.9162401,-553.078,-1047.9741)"
       y1="279.09601"
       x2="0"
       y2="268.32999" />
    <radialGradient
       inkscape:collect="always"
       xlink:href="#linearGradient3844"
       id="radialGradient3850"
       cx="24.075672"
       cy="41.38316"
       fx="24.075672"
       fy="41.38316"
       r="21.075672"
       gradientTransform="matrix(1,0,0,0.11307633,0,36.703704)"
       gradientUnits="userSpaceOnUse" />
    <linearGradient
       id="linearGradient3844">
      <stop
         style="stop-color:#000000;stop-opacity:0.39215687;"
         offset="0"
         id="stop3846" />
      <stop
         style="stop-color:#000000;stop-opacity:0;"
         offset="1"
         id="stop3848" />
    </linearGradient>
    <radialGradient
       r="21.075672"
       fy="41.38316"
       fx="24.075672"
       cy="41.38316"
       cx="24.075672"
       gradientTransform="matrix(1,0,0,0.11307633,0,36.703704)"
       gradientUnits="userSpaceOnUse"
       id="radialGradient3064"
       xlink:href="#linearGradient3844"
       inkscape:collect="always" />
    <radialGradient
       r="24"
       fy="40.5"
       fx="24"
       cy="40.5"
       cx="24"
       gradientTransform="matrix(1.25,0,0,0.20833327,-6,1035.9247)"
       gradientUnits="userSpaceOnUse"
       id="radialGradient3150"
       xlink:href="#linearGradient3886"
       inkscape:collect="always" />
    <linearGradient
       id="linearGradient3886">
      <stop
         style="stop-color:#000000;stop-opacity:1;"
         offset="0"
         id="stop3888" />
      <stop
         style="stop-color:#000000;stop-opacity:0.19607843;"
         offset="1"
         id="stop3890" />
    </linearGradient>
    <radialGradient
       r="24"
       fy="40.5"
       fx="24"
       cy="40.5"
       cx="24"
       gradientTransform="matrix(2.5,0,0,0.41666654,-12,63.125)"
       gradientUnits="userSpaceOnUse"
       id="radialGradient3281"
       xlink:href="#linearGradient3886"
       inkscape:collect="always" />
  </defs>
  <sodipodi:namedview
     pagecolor="#ffffff"
     bordercolor="#666666"
     borderopacity="1"
     objecttolerance="10"
     gridtolerance="10"
     guidetolerance="10"
     inkscape:pageopacity="0"
     inkscape:pageshadow="2"
     inkscape:window-width="1280"
     inkscape:window-height="998"
     id="namedview16"
     showgrid="true"
     inkscape:zoom="4.0000002"
     inkscape:cx="66.996239"
     inkscape:cy="43.123081"
     inkscape:window-x="0"
     inkscape:window-y="0"
     inkscape:window-maximized="1"
     inkscape:current-layer="svg2">
    <inkscape:grid
       type="xygrid"
       id="grid3104"
       empspacing="5"
       visible="true"
       enabled="true"
       snapvisiblegridlinesonly="true" />
  </sodipodi:namedview>
  <path
     inkscape:connector-curvature="0"
     style="opacity:0.1;fill:url(#radialGradient3281);fill-opacity:1;stroke:none"
     d="M 48,70 C 28.346902,70 10.94406,71.5662 0,74 l 0,12 c 10.94406,2.4338 28.346902,4 48,4 19.653098,0 37.05594,-1.5662 48,-4 L 96,74 C 85.05594,71.5662 67.653098,70 48,70 z"
     id="path3868" />
  <rect
     style="fill:#512da8;fill-opacity:1;stroke:none"
     id="rect2987"
     width="92"
     height="64.000038"
     x="2"
     y="19.999964"
     rx="10"
     ry="10" />
  <path
     style="opacity:0.2;fill:#ffffff;fill-opacity:1;stroke:none"
     d="M 12,20 C 6.46,20 2,24.46 2,30 l 0,4 C 2,28.46 6.46,24 12,24 l 72,0 c 5.54,0 10,4.46 10,10 l 0,-4 C 94,24.46 89.54,20 84,20 l -72,0 z"
     id="rect3797"
     inkscape:connector-curvature="0" />
  <path
     style="fill:#7e57c2;fill-opacity:1;stroke:none"
     d="m 12,36 16,0 C 50,34 46,12 60,12 l 24,0 c 5.54,0 10,4.46 10,10 l 0,52 c 0,5.54 -4.46,10 -10,10 L 12,84 C 6.46,84 2,79.54 2,74 L 2,46 C 2,40 6,36 12,36 z"
     id="rect3776"
     inkscape:connector-curvature="0"
     sodipodi:nodetypes="cccsssssscc" />
  <path
     style="opacity:0.15;fill:#000000;fill-opacity:1;stroke:none"
     d="m 2,70 0,4 c 0,5.54 4.46,10 10,10 l 72,0 c 5.54,0 10,-4.46 10,-10 l 0,-4 c 0,5.54 -4.46,10 -10,10 L 12,80 C 6.46,80 2,75.54 2,70 z"
     id="path3786"
     inkscape:connector-curvature="0" />
  <path
     style="fill:#000000;fill-opacity:0.09803922;fill-rule:evenodd"
     d="M 23.25,46 32.625,62 42,62 32.625,46 23.25,46 z M 21.75,47 11.5,63 16.625,71 26.5625,55.125 21.75,47 z M 23.125,64 18,72 37.1875,72 42,64 23.125,64 z"
     id="path8113"
     inkscape:connector-curvature="0" />
  <path
     style="fill:#fff8e1;fill-opacity:1;fill-rule:evenodd"
     d="M 18,70 23.099696,62 42,62 37.199868,70 z"
     id="polygon3475-1"
     inkscape:connector-curvature="0"
     sodipodi:nodetypes="ccccc" />
  <path
     style="fill:#fff8e1;fill-opacity:1;fill-rule:evenodd"
     d="M 32.635494,60 42,60 32.635494,44 l -9.36514,0 z"
     id="polygon3477-6"
     inkscape:connector-curvature="0" />
  <path
     style="fill:#fff8e1;fill-opacity:1;fill-rule:evenodd"
     d="m 26.55675,53.119762 -4.832796,-8.133648 -10.223955,16.013388 5.112323,8.006694 z"
     id="polygon3479-9"
     inkscape:connector-curvature="0"
     sodipodi:nodetypes="ccccc" />
</svg>
