
<svg xmlns="http://www.w3.org/2000/svg" xmlns:xlink="http://www.w3.org/1999/xlink" width="256px" height="256px" viewBox="0 0 256 256" version="1.1">
<g id="surface1">
<path style=" stroke:none;fill-rule:nonzero;fill:rgb(91.764706%,56.470588%,21.176471%);fill-opacity:1;" d="M 24 56 L 232 56 L 232 136 L 24 136 Z M 24 56 "/>
<path style=" stroke:none;fill-rule:nonzero;fill:rgb(91.764706%,56.470588%,21.176471%);fill-opacity:1;" d="M 48 56 C 48 48 48 40 59.640625 40 L 100.359375 40 C 112 40 112 48 112 56 Z M 48 56 "/>
<path style=" stroke:none;fill-rule:nonzero;fill:rgb(58.431373%,59.607843%,62.352941%);fill-opacity:1;" d="M 40 72 L 216 72 L 216 111.734375 L 40 111.734375 Z M 40 72 "/>
<path style=" stroke:none;fill-rule:nonzero;fill:rgb(84.705882%,84.705882%,85.490196%);fill-opacity:1;" d="M 56 64 L 208 64 L 208 168 L 56 168 Z M 56 64 "/>
<path style=" stroke:none;fill-rule:nonzero;fill:rgb(97.647059%,97.647059%,97.647059%);fill-opacity:1;" d="M 48 80 L 200 80 L 200 184 L 48 184 Z M 48 80 "/>
<path style=" stroke:none;fill-rule:nonzero;fill:rgb(94.901961%,73.333333%,39.215686%);fill-opacity:1;" d="M 16 88 L 240 88 L 224 216 L 32 216 Z M 16 88 "/>
<path style=" stroke:none;fill-rule:nonzero;fill:rgb(0%,0%,0%);fill-opacity:0.25098;" d="M 139.015625 120 C 131.015625 120 124.375 126.0625 124.375 133.640625 C 124.421875 136.265625 124.578125 139.5625 126.109375 146.53125 L 126.265625 146.53125 C 126.578125 147.4375 127.0625 148.359375 127.859375 149.359375 C 128.5625 150.234375 129.5 151.234375 130.359375 152.171875 C 130.625 154.140625 130.65625 155.859375 130.359375 157.96875 C 127.96875 159.765625 123.6875 161.4375 119.828125 163 C 117.78125 163.796875 115.921875 164.53125 114.453125 165.5 C 113.0625 166.40625 112.03125 167.671875 111.9375 169.265625 C 111.9375 169.359375 111.796875 169.359375 111.796875 169.40625 L 110.046875 182.765625 L 110.046875 182.90625 C 110.046875 184.5625 111.140625 185.90625 112.734375 187 C 114.296875 188.0625 116.421875 188.90625 119.03125 189.640625 C 124.21875 191.140625 131.25 192 139.015625 192 C 146.796875 192 153.828125 191.140625 159.03125 189.640625 C 161.625 188.90625 163.75 188.0625 165.3125 187 C 166.875 185.90625 168 184.5625 168 182.90625 L 168 182.765625 L 166.109375 169.40625 C 166.109375 169.375 166.109375 169.328125 166.109375 169.265625 C 166.046875 168.5 165.78125 167.765625 165.3125 167.234375 C 164.8125 166.640625 164.15625 166.265625 163.421875 165.828125 C 161.953125 164.90625 160.09375 164.125 158.078125 163.296875 C 154.15625 161.703125 149.875 159.875 147.515625 157.96875 C 147.328125 156.140625 147.328125 154.296875 147.515625 152.46875 C 148.375 151.46875 149.3125 150.46875 150.046875 149.5 C 150.84375 148.4375 151.46875 147.46875 151.765625 146.53125 C 153.5 139.265625 153.5625 136.328125 153.65625 133.640625 C 153.65625 126.0625 147.046875 120 139.015625 120 Z M 111.796875 122.53125 C 105.1875 122.53125 99.8125 127.59375 99.8125 133.828125 C 99.859375 135.9375 99.984375 138.4375 101.21875 144.171875 L 101.21875 144.328125 C 101.484375 145.09375 102 145.703125 102.640625 146.53125 C 103.234375 147.234375 104 148.125 104.703125 148.875 C 104.921875 150.4375 104.9375 152.03125 104.703125 153.734375 C 102.765625 155.234375 99.21875 156.5625 96.03125 157.828125 C 94.375 158.46875 92.984375 159.0625 91.78125 159.859375 C 90.65625 160.59375 89.828125 161.703125 89.734375 163 C 89.734375 163.0625 89.59375 163.0625 89.59375 163.140625 L 88 173.96875 L 88 174.125 C 88 175.140625 88.5 176.03125 89.265625 176.796875 C 90.03125 177.5625 91.09375 178.265625 92.421875 178.828125 C 95 179.9375 98.6875 180.734375 103.109375 181.171875 L 103.296875 181.171875 C 103.53125 181.171875 103.765625 181.125 103.90625 181.03125 C 104.09375 180.90625 104.296875 180.828125 104.390625 180.703125 C 104.53125 180.5 104.625 180.296875 104.703125 180.09375 C 104.828125 179.734375 104.828125 179.359375 104.859375 179 C 104.859375 178.9375 104.859375 178.875 104.859375 178.828125 L 106.59375 165.5 C 106.59375 164.9375 106.953125 164.296875 107.84375 163.625 C 108.71875 162.9375 110.078125 162.265625 111.609375 161.59375 C 114.75 160.234375 118.703125 158.96875 121.859375 157.359375 L 123.59375 156.40625 L 121.859375 155.625 C 120.625 155 119.640625 154.359375 118.875 153.734375 C 118.703125 152.171875 118.703125 150.5625 118.875 149.03125 C 118.875 148.96875 118.84375 148.90625 118.875 148.875 C 120.0625 147.265625 120.96875 145.59375 121.390625 144.640625 L 121.53125 144.328125 L 121.390625 144 C 121.234375 143.234375 121.296875 142.640625 121.0625 141.96875 C 119.5625 135.09375 119.40625 132.265625 119.34375 129.734375 C 119.34375 128.671875 119.59375 127.4375 119.96875 126.296875 L 120.296875 125.640625 L 119.640625 125.359375 C 117.546875 123.671875 114.78125 122.53125 111.796875 122.53125 Z M 111.796875 122.53125 "/>
</g>
</svg>
