
<svg xmlns="http://www.w3.org/2000/svg" xmlns:xlink="http://www.w3.org/1999/xlink" width="256px" height="256px" viewBox="0 0 256 256" version="1.1">
<g id="surface1">
<path style=" stroke:none;fill-rule:nonzero;fill:rgb(91.764706%,56.470588%,21.176471%);fill-opacity:1;" d="M 24 56 L 232 56 L 232 136 L 24 136 Z M 24 56 "/>
<path style=" stroke:none;fill-rule:nonzero;fill:rgb(91.764706%,56.470588%,21.176471%);fill-opacity:1;" d="M 48 56 C 48 48 48 40 59.640625 40 L 100.359375 40 C 112 40 112 48 112 56 Z M 48 56 "/>
<path style=" stroke:none;fill-rule:nonzero;fill:rgb(58.431373%,59.607843%,62.352941%);fill-opacity:1;" d="M 40 72 L 216 72 L 216 111.734375 L 40 111.734375 Z M 40 72 "/>
<path style=" stroke:none;fill-rule:nonzero;fill:rgb(84.705882%,84.705882%,85.490196%);fill-opacity:1;" d="M 56 64 L 208 64 L 208 168 L 56 168 Z M 56 64 "/>
<path style=" stroke:none;fill-rule:nonzero;fill:rgb(97.647059%,97.647059%,97.647059%);fill-opacity:1;" d="M 48 80 L 200 80 L 200 184 L 48 184 Z M 48 80 "/>
<path style=" stroke:none;fill-rule:nonzero;fill:rgb(94.901961%,73.333333%,39.215686%);fill-opacity:1;" d="M 16 88 L 240 88 L 224 216 L 32 216 Z M 16 88 "/>
<path style=" stroke:none;fill-rule:nonzero;fill:rgb(0%,0%,0%);fill-opacity:0.25098;" d="M 128 112 C 105.96875 112 88 129.984375 88 152.015625 C 88 174.046875 105.96875 192 128 192 C 150.03125 192 168 174.046875 168 152.015625 C 168 129.984375 150.03125 112 128 112 Z M 128 122.015625 C 144.640625 122.015625 158 135.375 158 152.015625 C 158 168.625 144.640625 182.015625 128 182.015625 C 111.359375 182.015625 98 168.625 98 152.015625 C 98 135.375 111.359375 122.015625 128 122.015625 Z M 118 132 L 118 172 L 148.015625 152.015625 Z M 118 132 "/>
</g>
</svg>
