<?xml version="1.0" encoding="UTF-8" standalone="no"?>
<svg
   xmlns:dc="http://purl.org/dc/elements/1.1/"
   xmlns:cc="http://creativecommons.org/ns#"
   xmlns:rdf="http://www.w3.org/1999/02/22-rdf-syntax-ns#"
   xmlns:svg="http://www.w3.org/2000/svg"
   xmlns="http://www.w3.org/2000/svg"
   xmlns:sodipodi="http://sodipodi.sourceforge.net/DTD/sodipodi-0.dtd"
   xmlns:inkscape="http://www.inkscape.org/namespaces/inkscape"
   width="256"
   height="256"
   viewBox="0 0 204.8 204.8"
   version="1.1"
   id="svg3290"
   inkscape:version="0.48.5 r10040"
   sodipodi:docname="folder-system.svg">
  <metadata
     id="metadata3311">
    <rdf:RDF>
      <cc:Work
         rdf:about="">
        <dc:format>image/svg+xml</dc:format>
        <dc:type
           rdf:resource="http://purl.org/dc/dcmitype/StillImage" />
      </cc:Work>
    </rdf:RDF>
  </metadata>
  <defs
     id="defs3309" />
  <sodipodi:namedview
     pagecolor="#ffffff"
     bordercolor="#666666"
     borderopacity="1"
     objecttolerance="10"
     gridtolerance="10"
     guidetolerance="10"
     inkscape:pageopacity="0"
     inkscape:pageshadow="2"
     inkscape:window-width="1280"
     inkscape:window-height="998"
     id="namedview3307"
     showgrid="true"
     inkscape:zoom="1.846875"
     inkscape:cx="96.62334"
     inkscape:cy="118.96366"
     inkscape:window-x="0"
     inkscape:window-y="0"
     inkscape:window-maximized="1"
     inkscape:current-layer="svg3290">
    <inkscape:grid
       type="xygrid"
       id="grid3711"
       empspacing="5"
       visible="true"
       enabled="true"
       snapvisiblegridlinesonly="true" />
  </sodipodi:namedview>
  <g
     id="surface1"
     transform="scale(0.8,0.8)">
    <path
       inkscape:connector-curvature="0"
       style="fill:#e68f33;fill-opacity:1;fill-rule:nonzero;stroke:none"
       d="m 24,48 208,0 0,80 -208,0 z m 0,0"
       id="path3293" />
    <path
       inkscape:connector-curvature="0"
       style="fill:#e68f33;fill-opacity:1;fill-rule:nonzero;stroke:none"
       d="m 48,48 c 0,-8 0,-16 11.632812,-16 l 40.734378,0 C 112,32 112,40 112,48 l 0,8 -64,0 z m 0,0"
       id="path3295" />
    <path
       inkscape:connector-curvature="0"
       style="fill:#94979c;fill-opacity:1;fill-rule:nonzero;stroke:none"
       d="m 40,64 176,0 0,39.74219 -176,0 z m 0,0"
       id="path3297" />
    <path
       inkscape:connector-curvature="0"
       style="fill:#d7d7d9;fill-opacity:1;fill-rule:nonzero;stroke:none"
       d="m 56,56 152,0 0,104 -152,0 z m 0,0"
       id="path3299" />
    <path
       inkscape:connector-curvature="0"
       style="fill:#f8f8f8;fill-opacity:1;fill-rule:nonzero;stroke:none"
       d="m 48,72 152,0 0,104 -152,0 z m 0,0"
       id="path3301" />
    <path
       inkscape:connector-curvature="0"
       style="fill:#f0b861;fill-opacity:1;fill-rule:nonzero;stroke:none"
       d="m 8,80 240,0 -17.14063,144 -205.718745,0 z m 0,0"
       id="path3303" />
    <path
       inkscape:connector-curvature="0"
       style="fill:#000000;fill-opacity:0.25097997;fill-rule:nonzero;stroke:none"
       d="m 120.44531,104 c -2.66406,0 -4.89062,2.11719 -4.89062,4.77734 l 0,6.22266 c -1.6836,0.57031 -3.31641,1.22266 -4.88672,2 l -4.33594,-4.33203 c -1.88281,-1.88281 -4.89453,-1.88281 -6.777342,0 l -10.886719,10.77734 c -1.882813,1.88282 -1.882813,4.89453 0,6.77735 L 93,134.55469 c -0.796875,1.60156 -1.425781,3.28515 -2,5 l -6.109375,0 C 82.226562,139.55469 80,141.67187 80,144.33203 l 0,15.33594 c 0,2.66015 2.226562,4.77734 4.890625,4.77734 l 6.109375,0 c 0.574219,1.71485 1.203125,3.39844 2,5 l -4.332031,4.33203 c -1.882813,1.88282 -1.882813,4.89453 0,6.77735 l 10.886719,10.77734 c 1.882812,1.88281 4.894532,1.88281 6.777342,0 L 110.66797,187 c 1.57031,0.78125 3.20312,1.43359 4.88672,2 l 0,6.22266 c 0,2.66015 2.22656,4.77734 4.89062,4.77734 l 15.22266,0 c 2.66015,0 4.77734,-2.11719 4.77734,-4.77734 l 0,-6.22266 c 1.71485,-0.57813 3.39844,-1.20313 5,-2 l 4.33203,4.33203 c 1.88282,1.88281 4.89453,1.88281 6.77735,0 l 10.89062,-10.77734 c 1.88281,-1.88282 1.88281,-4.89453 0,-6.77735 L 163,169.33594 c 0.77734,-1.57422 1.43359,-3.20703 2,-4.89063 l 6.22266,0 c 2.66015,0 4.77734,-2.11719 4.77734,-4.77734 l 0,-15.33594 c 0,-2.66016 -2.11719,-4.77734 -4.77734,-4.77734 l -6.22266,0 c -0.56641,-1.6836 -1.22266,-3.31641 -2,-4.89063 l 4.44531,-4.4414 c 1.88281,-1.88282 1.88281,-4.89453 0,-6.77735 l -10.89062,-10.77734 c -1.88282,-1.88281 -4.89453,-1.88281 -6.77735,0 L 145.44531,117 c -1.60156,-0.80078 -3.28515,-1.42187 -5,-2 l 0,-6.22266 c 0,-2.66015 -2.11719,-4.77734 -4.77734,-4.77734 z M 128,139.55469 c 6.87109,0 12.44531,5.57422 12.44531,12.44531 0,6.87109 -5.57422,12.44531 -12.44531,12.44531 -6.87109,0 -12.44531,-5.57422 -12.44531,-12.44531 0,-6.87109 5.57422,-12.44531 12.44531,-12.44531 z m 0,0"
       id="path3305" />
  </g>
</svg>
