
<svg xmlns="http://www.w3.org/2000/svg" xmlns:xlink="http://www.w3.org/1999/xlink" width="256px" height="256px" viewBox="0 0 256 256" version="1.1">
<g id="surface1">
<path style=" stroke:none;fill-rule:nonzero;fill:rgb(91.764706%,56.470588%,21.176471%);fill-opacity:1;" d="M 24 56 L 232 56 L 232 136 L 24 136 Z M 24 56 "/>
<path style=" stroke:none;fill-rule:nonzero;fill:rgb(91.764706%,56.470588%,21.176471%);fill-opacity:1;" d="M 48 56 C 48 48 48 40 59.640625 40 L 100.359375 40 C 112 40 112 48 112 56 Z M 48 56 "/>
<path style=" stroke:none;fill-rule:nonzero;fill:rgb(58.431373%,59.607843%,62.352941%);fill-opacity:1;" d="M 40 72 L 216 72 L 216 111.734375 L 40 111.734375 Z M 40 72 "/>
<path style=" stroke:none;fill-rule:nonzero;fill:rgb(84.705882%,84.705882%,85.490196%);fill-opacity:1;" d="M 56 64 L 208 64 L 208 168 L 56 168 Z M 56 64 "/>
<path style=" stroke:none;fill-rule:nonzero;fill:rgb(97.647059%,97.647059%,97.647059%);fill-opacity:1;" d="M 48 80 L 200 80 L 200 184 L 48 184 Z M 48 80 "/>
<path style=" stroke:none;fill-rule:nonzero;fill:rgb(94.901961%,73.333333%,39.215686%);fill-opacity:1;" d="M 16 88 L 240 88 L 224 216 L 32 216 Z M 16 88 "/>
<path style=" stroke:none;fill-rule:nonzero;fill:rgb(0%,0%,0%);fill-opacity:0.25098;" d="M 102.6875 152.015625 C 100.921875 152.09375 99.265625 152.765625 98.015625 153.859375 C 95.53125 156.0625 95.296875 159.78125 97.578125 162.140625 L 118.59375 182.125 C 120.0625 183.390625 122.203125 184.140625 124.28125 183.984375 C 125.953125 183.875 127.59375 183.15625 128.796875 182.125 L 149.8125 162.859375 C 151.140625 161.734375 151.9375 160.1875 152 158.578125 C 152.125 156.046875 150.296875 153.5625 147.625 152.578125 C 144.9375 151.59375 141.59375 152.171875 139.59375 154.015625 L 123.984375 167.703125 L 107.640625 153.296875 C 106.28125 152.3125 104.453125 151.921875 102.6875 152.015625 Z M 102.6875 152.015625 "/>
<path style=" stroke:none;fill-rule:nonzero;fill:rgb(0%,0%,0%);fill-opacity:0.25098;" d="M 124 112 C 121.90625 112 120 114.125 120 116.5 L 120 139.328125 C 119.921875 141.75 121.859375 144 124 144 C 124.125 144 124.25 144 124.375 144 C 126.390625 143.796875 128.078125 141.625 128 139.328125 L 128 116.5 C 128 114.125 126.09375 112 124 112 Z M 124 112 "/>
<path style=" stroke:none;fill-rule:nonzero;fill:rgb(0%,0%,0%);fill-opacity:0.25098;" d="M 108 128 C 105.734375 128 103.703125 129.671875 104.03125 131.25 L 104.03125 141.109375 C 103.953125 142.703125 106.125 144.140625 108.375 143.984375 C 110.34375 143.828125 112.046875 142.5 111.96875 141.109375 L 111.96875 131.25 C 112.296875 129.671875 110.265625 128 108 128 Z M 108 128 "/>
<path style=" stroke:none;fill-rule:nonzero;fill:rgb(0%,0%,0%);fill-opacity:0.25098;" d="M 140 128 C 137.734375 128 135.703125 129.671875 136.03125 131.25 L 136.03125 141.109375 C 135.953125 142.703125 138.125 144.140625 140.375 143.984375 C 142.34375 143.828125 144.046875 142.5 143.96875 141.109375 L 143.96875 131.25 C 144.296875 129.671875 142.265625 128 140 128 Z M 140 128 "/>
</g>
</svg>
