<?xml version="1.0" encoding="UTF-8" standalone="no"?>
<svg
   xmlns:dc="http://purl.org/dc/elements/1.1/"
   xmlns:cc="http://creativecommons.org/ns#"
   xmlns:rdf="http://www.w3.org/1999/02/22-rdf-syntax-ns#"
   xmlns:svg="http://www.w3.org/2000/svg"
   xmlns="http://www.w3.org/2000/svg"
   xmlns:sodipodi="http://sodipodi.sourceforge.net/DTD/sodipodi-0.dtd"
   xmlns:inkscape="http://www.inkscape.org/namespaces/inkscape"
   width="256"
   height="256"
   viewBox="0 0 204.8 204.8"
   version="1.1"
   id="svg3415"
   inkscape:version="0.48.5 r10040"
   sodipodi:docname="network.svg">
  <metadata
     id="metadata3436">
    <rdf:RDF>
      <cc:Work
         rdf:about="">
        <dc:format>image/svg+xml</dc:format>
        <dc:type
           rdf:resource="http://purl.org/dc/dcmitype/StillImage" />
      </cc:Work>
    </rdf:RDF>
  </metadata>
  <defs
     id="defs3434" />
  <sodipodi:namedview
     pagecolor="#ffffff"
     bordercolor="#666666"
     borderopacity="1"
     objecttolerance="10"
     gridtolerance="10"
     guidetolerance="10"
     inkscape:pageopacity="0"
     inkscape:pageshadow="2"
     inkscape:window-width="1280"
     inkscape:window-height="998"
     id="namedview3432"
     showgrid="true"
     inkscape:zoom="2.085965"
     inkscape:cx="145.33429"
     inkscape:cy="138.64557"
     inkscape:window-x="0"
     inkscape:window-y="0"
     inkscape:window-maximized="1"
     inkscape:current-layer="svg3415">
    <inkscape:grid
       type="xygrid"
       id="grid3554"
       empspacing="5"
       visible="true"
       enabled="true"
       snapvisiblegridlinesonly="true" />
  </sodipodi:namedview>
  <g
     id="surface1"
     transform="scale(0.8,0.8)">
    <path
       inkscape:connector-curvature="0"
       style="fill:#e68f33;fill-opacity:1;fill-rule:nonzero;stroke:none"
       d="m 24,48 208,0 0,80 -208,0 z m 0,0"
       id="path3418" />
    <path
       inkscape:connector-curvature="0"
       style="fill:#e68f33;fill-opacity:1;fill-rule:nonzero;stroke:none"
       d="m 48,48 c 0,-8 0,-16 11.632812,-16 l 40.734378,0 C 112,32 112,40 112,48 l 0,8 -64,0 z m 0,0"
       id="path3420" />
    <path
       inkscape:connector-curvature="0"
       style="fill:#94979c;fill-opacity:1;fill-rule:nonzero;stroke:none"
       d="m 40,64 176,0 0,39.74219 -176,0 z m 0,0"
       id="path3422" />
    <path
       inkscape:connector-curvature="0"
       style="fill:#d7d7d9;fill-opacity:1;fill-rule:nonzero;stroke:none"
       d="m 56,56 152,0 0,104 -152,0 z m 0,0"
       id="path3424" />
    <path
       inkscape:connector-curvature="0"
       style="fill:#f8f8f8;fill-opacity:1;fill-rule:nonzero;stroke:none"
       d="m 48,72 152,0 0,104 -152,0 z m 0,0"
       id="path3426" />
    <path
       inkscape:connector-curvature="0"
       style="fill:#f0b861;fill-opacity:1;fill-rule:nonzero;stroke:none"
       d="m 8,80 240,0 -17.14063,144 -205.718745,0 z m 0,0"
       id="path3428" />
    <path
       inkscape:connector-curvature="0"
       style="fill:#000000;fill-opacity:0.25097997;fill-rule:nonzero;stroke:none"
       d="m 122,104 c -20.47266,0 -42,21.52734 -42,48 0,26.47266 21.52734,48 42,48 32.47266,0 54,-21.52734 54,-48 0,-26.47266 -21.52734,-48 -48,-48 z m 9.89844,6.75 c 4.47656,0.41406 8.80859,1.4375 12.75,3.15234 -0.30078,0.37891 -0.53516,0.71094 -0.75,1.34766 -1.21094,3.63672 -3.01953,1.90234 -0.89844,6.44922 2.12109,4.54687 3.89453,5.72266 4.5,3.59766 0.60547,-2.11719 -1.52344,-5.10938 0.89844,-3.89844 2.42578,1.21484 4.21875,-0.32813 2.40234,2.40234 -1.82031,2.72656 -1.78125,4.20703 -3.90234,3.59766 -2.1211,-0.60547 -2.07813,3.59765 -4.19922,4.20312 -2.1211,0.60547 -2.84766,-0.91406 -2.84766,0.60156 0,1.51172 1.20313,0.1211 0.89844,2.54688 -0.0937,0.74219 -0.0664,0.875 -0.14844,1.20312 -1.99219,-0.57031 -2.88281,-0.88671 -4.35156,-0.30859 -1.51563,0.60547 -3.30078,4.5 -3.30078,4.5 1.89453,1.89063 2.77344,3.25391 3.44922,3.89844 -0.42188,0.21484 -0.9336,0.30078 -1.34766,0.60156 -3.03125,2.12109 -5.39062,2.52344 -6.30078,5.55078 -0.91016,3.03125 -0.60156,0.25391 -0.60156,3.89844 0,3.63672 -0.91797,1.16797 0.90234,4.5 1.81641,3.33594 6.27734,4.93359 8.39844,6.75 2.12109,1.82031 4.30859,-3.95313 8.55078,1.5 4.24219,5.45703 4.51562,3.26953 3,6.30078 -1.51563,3.03125 -2.99219,4.03906 -3.60156,5.25 -0.60547,1.21484 1.17968,5.39453 3.30078,6.30078 0.0469,0 0.10156,0 0.15234,0 -0.11328,0.26172 -0.1914,0.49219 -0.30078,0.75 -2.74609,1.25 -6.11328,2.96875 -6.75,3.15235 -1.5,0.42968 -6.79297,1.32421 -10.65234,2.39843 -0.48047,0.13672 -0.85938,0.13672 -1.04688,0.15625 0.47656,-0.52343 4.26953,-2.5039 6.14844,-3.59765 2.57031,-1.50391 -0.14844,-1.35157 -0.14844,-1.35157 0,0 -4.09375,-0.45703 -12.45312,-0.45703 -4.17578,0 -5.98828,0.1875 -6.89844,0.45703 -0.45703,0.13672 -0.67969,0.26954 -0.89844,0.44922 -0.22265,0.1875 -0.375,0.38282 -0.75,0.60157 -1.5,0.85546 0.87891,1.7539 -1.05078,2.39843 -1.44531,0.48047 -1.61719,0 -2.85156,-0.90625 0.88281,-0.875 2.09766,-1.92968 3.60156,-3.75 2.72656,-3.30078 3.58985,-2.69922 4.5,-5.69922 0.91016,-3 -7.65234,-2.09765 -7.65234,-3.89843 0,-1.80078 -1.47266,-3 -4.19922,-4.19922 -2.72656,-1.20313 -0.86719,-1.80078 -3.89844,-2.70313 -3.03125,-0.89453 -6.441405,4.5 -7.351561,2.70313 -0.910157,-1.80078 2.851562,-1.80078 2.851562,-3.90235 0,-2.04687 -4.324219,1.54688 -5.101562,-1.05078 -0.01953,-0.0937 -0.132813,-0.0937 -0.148438,-0.15234 -0.07813,-0.38281 -0.02734,-0.60156 0,-0.89844 0.191407,-2.15625 2.6875,-3 3.75,-5.10156 1.210938,-2.39453 0.585938,1.80469 2.097657,3.90234 1.515622,2.10157 0.910152,-2.69922 0,-5.39843 -0.90625,-2.70313 0.582032,-2.70313 2.703122,-6.30079 2.1211,-3.60156 2.09766,-5.69921 2.09766,-8.40234 0,-2.69922 1.46875,-2.99609 4.5,-5.69922 1.39062,-1.23437 2.48047,-2.3164 3.30078,-3.30078 0.19922,-0.0937 0.39844,-0.0937 0.60156,-0.15234 3.21094,-1.28907 4.5625,-3.21485 7.34766,-9.00391 2.78516,-5.78125 -1.09375,-0.38281 -1.94922,-0.59765 -0.85547,-0.21485 -2.10156,-1.73829 -5.10156,-3.45313 -0.61719,-0.35156 -1.16797,-0.51953 -1.64844,-0.59375 l 5.55078,-9.14844 c 1.77735,-0.48047 3.6875,-0.80859 5.55078,-1.05078 0.67969,3.87891 0.29688,7.5 0.29688,7.5 0,0 -1.04688,1.24219 -1.04688,2.10156 0,0.85547 5.74219,-7.07031 6.59766,-7.5 0.85937,-0.43359 3.02344,2.26954 3.44922,-1.80078 0.0273,-0.23437 -0.0234,-0.23828 0,-0.44922 z M 140,126.94922 c -0.30859,-0.0937 -0.67188,0 -1.05078,0.15625 0,1.0625 -0.41016,1.83203 -0.59766,2.25 -0.11328,-0.19141 -0.45312,-0.44922 -0.45312,-0.44922 -0.45313,0.83984 -1.4336,1.57812 -0.44922,1.35156 0.98437,-0.22265 1.73437,0.38281 1.05078,-0.45312 -0.13281,-0.15625 -0.0703,-0.0898 -0.14844,-0.15625 0.125,0.0977 0.36719,0.15625 0.89844,0.15625 0.59766,0 0.91797,0 1.35156,0 -0.73437,0.54297 -1.53125,0.77343 -0.45312,1.05078 1.4414,0.3789 2.10156,0.45703 2.10156,0.15625 0,-0.30078 -0.44922,-1.35156 -0.44922,-1.35156 0.28125,-0.11329 0.54297,-0.25391 0.30078,-0.75 -0.45703,-0.90235 -1.17969,-1.8086 -2.10156,-1.94922 z M 162.94922,129.5 c 0.75,1.16406 1.46875,2.35937 2.10156,3.60156 -0.41797,2.41797 -1.47656,4.05078 0.30078,4.05078 0.4961,0 0.9375,-0.10937 1.34766,-0.15625 0.0586,0.14063 0.0977,0.30469 0.15234,0.44922 -3.03125,0 -4.48437,0.90625 -6,0.59766 -1.51562,-0.30469 -5.73047,-0.57422 -3,-3.29688 1.59375,-1.59375 3.58203,-4.1289 5.09766,-5.2539 z m -18.89844,5.55078 c 0.27734,0.0937 0.52344,0.37891 0.75,0.89453 0.91016,2.1211 2.41016,3.89844 1.19922,4.20313 -1.21094,0.29687 -1.80078,0.59765 -1.80078,0.59765 0,0 4.19922,2.73047 4.5,-0.29687 0.30469,-3.03516 -1.19922,-4.80469 -1.19922,-4.80469 0,0 2.09375,2.08984 2.69922,3.30078 0.60547,1.21485 0.58594,0 2.10156,1.50391 1.51563,1.51172 1.17969,-6.02344 3.30078,-3.90235 2.1211,2.1211 3.45313,2.08594 2.84766,3.60157 -0.60547,1.51172 3.90234,-1.83203 3.90234,1.19922 0,2.92187 1.86328,4.10546 -1.80078,5.55078 -1.38672,-0.0977 -2.48437,-0.32813 -2.69922,-0.75391 -0.60937,-1.21094 -4.05078,-0.30078 -4.05078,-0.30078 -9.06641,-2.26563 -13,-2.98047 -15.60156,-2.54688 0.0508,-0.0977 0.0977,-0.0977 0.15234,-0.15625 1.32422,-2.38671 3.82031,-5.70312 3,-6.90234 1.15235,-0.66406 2.0586,-1.39453 2.69922,-1.19922 z m 25.5,15.14844 c 0.0273,0.60937 0,1.1875 0,1.80078 0,1.70703 -0.10156,3.44922 -0.30078,5.10156 -2.72656,-2.42578 -6.60156,-2.40234 -6.60156,-2.40234 0,0 2.36718,-2.6875 5.70312,-3.89844 0.41406,-0.15625 0.86328,-0.35547 1.19922,-0.60156 z m 0,0"
       id="path3430" />
  </g>
</svg>
