<svg version="1.1" viewBox="0 0 32 32" xmlns="http://www.w3.org/2000/svg">
 <g transform="translate(0,-1020.3622)">
  <path d="m2.0313692 1024.3622c-0.5649928 0.055-1.0402433 0.5892-1.0312434 1.1563v21.6873c-7e-3 0.6069 0.5492504 1.1633 1.1562426 1.1563h27.687324c0.606992 0.01 1.163243-0.5494 1.156243-1.1563v-19.6872c7e-3 -0.607-0.549251-1.1632-1.156243-1.1562h-10.843681v-0.8439c7e-3 -0.5971-0.527999-1.1473-1.124993-1.1563h-15.843649zm10.210873 7.9986c0.09165 0 0.182555 0.052 0.216795 0.1563l1.332023 3.844h4.41794l1.332024-3.844c0.06848-0.2096 0.36515-0.2096 0.43359 0l1.222649 3.844 0.781245 2.2893c0.06124 0.1876-0.0076 0.3938-0.167968 0.5098l-5.81051 4.2015-5.81051-4.2015c-0.160392-0.116-0.2292029-0.3223-0.167968-0.5098l0.781245-2.2893 1.22265-3.844c0.03422-0.1051 0.125146-0.1563 0.216795-0.1563zm-1.439445 4.0003 5.197233 7.0006-2.20897-7.0006zm5.197233 7.0006 5.197233-7.0006h-2.988263z" style="-inkscape-stroke:none;color:#000000;fill:#bdbdbd;font-variation-settings:normal;stop-color:#000000"/>
 </g>
</svg>
