<?xml version="1.0" encoding="UTF-8" standalone="no"?>
<!-- Created with Inkscape (http://www.inkscape.org/) -->

<svg
   xmlns:dc="http://purl.org/dc/elements/1.1/"
   xmlns:cc="http://creativecommons.org/ns#"
   xmlns:rdf="http://www.w3.org/1999/02/22-rdf-syntax-ns#"
   xmlns:svg="http://www.w3.org/2000/svg"
   xmlns="http://www.w3.org/2000/svg"
   xmlns:sodipodi="http://sodipodi.sourceforge.net/DTD/sodipodi-0.dtd"
   xmlns:inkscape="http://www.inkscape.org/namespaces/inkscape"
   width="32"
   height="32"
   id="svg2"
   version="1.1"
   inkscape:version="0.91 r"
   sodipodi:docname="orange-folder-download.svg"
   inkscape:export-filename="/media/Data/Main/Visuals/Icons/Numix/Desktop/repos/numix-wiki/Gjorgi/Numix-folders/48/New/folder-144.png"
   inkscape:export-xdpi="270"
   inkscape:export-ydpi="270">
  <defs
     id="defs4" />
  <sodipodi:namedview
     id="base"
     pagecolor="#ffffff"
     bordercolor="#666666"
     borderopacity="1.0"
     inkscape:pageopacity="0.0"
     inkscape:pageshadow="2"
     inkscape:zoom="15.392183"
     inkscape:cx="19.41692"
     inkscape:cy="13.452222"
     inkscape:document-units="px"
     inkscape:current-layer="layer1"
     showgrid="true"
     inkscape:window-width="1280"
     inkscape:window-height="998"
     inkscape:window-x="0"
     inkscape:window-y="0"
     inkscape:window-maximized="1"
     showguides="true"
     inkscape:guide-bbox="true">
    <inkscape:grid
       type="xygrid"
       id="grid2985"
       empspacing="5"
       visible="true"
       enabled="true"
       snapvisiblegridlinesonly="true" />
  </sodipodi:namedview>
  <metadata
     id="metadata7">
    <rdf:RDF>
      <cc:Work
         rdf:about="">
        <dc:format>image/svg+xml</dc:format>
        <dc:type
           rdf:resource="http://purl.org/dc/dcmitype/StillImage" />
        <dc:title />
      </cc:Work>
    </rdf:RDF>
  </metadata>
  <g
     inkscape:label="Layer 1"
     inkscape:groupmode="layer"
     id="layer1"
     transform="translate(0,-1020.3622)">
    <path
       style="font-size:medium;font-style:normal;font-variant:normal;font-weight:normal;font-stretch:normal;text-indent:0;text-align:start;text-decoration:none;line-height:normal;letter-spacing:normal;word-spacing:normal;text-transform:none;direction:ltr;block-progression:tb;writing-mode:lr-tb;text-anchor:start;baseline-shift:baseline;color:#000000;fill:#f57c00;fill-opacity:1;fill-rule:nonzero;stroke:none;stroke-width:2.28612947;marker:none;visibility:visible;display:inline;overflow:visible;enable-background:accumulate;font-family:Sans;-inkscape-font-specification:Sans"
       d="M 2.03125 4 C 1.4665378 4.056 0.99079304 4.58885 1 5.15625 L 1 26.84375 C 0.99302 27.45105 1.5489584 28.007 2.15625 28 L 29.84375 28 C 30.451042 28.01 31.006984 27.45105 31 26.84375 L 31 7.15625 C 31.007 6.54895 30.451042 5.993 29.84375 6 L 19 6 L 19 5.15625 C 19.0069 4.55935 18.471863 4.0095 17.875 4 L 2.15625 4 L 2.03125 4 z M 16 11 C 16.554 11 17 11.446 17 12 L 17 17 L 19 17 C 20 17 20 17 19 18 L 17 20 C 16 21 15.999999 21 15 20 L 13 18 C 12 17 12 17 13 17 L 15 17 L 15 12 C 15 11.446 15.446 11 16 11 z M 9.96875 18 L 10.03125 18 C 10.565557 18 11 18.446 11 19 L 11 22 L 21 22 L 21 19 C 21 18.446 21.434443 18 21.96875 18 L 22.03125 18 C 22.565557 18 23 18.446 23 19 L 23 22.9375 L 23 23.0625 C 22.997796 23.097463 22.974304 23.122379 22.96875 23.15625 C 22.953891 23.246873 22.942819 23.325799 22.90625 23.40625 C 22.855781 23.520295 22.809125 23.632658 22.71875 23.71875 C 22.631588 23.809125 22.521713 23.855781 22.40625 23.90625 C 22.305225 23.951606 22.210123 23.989113 22.09375 24 C 22.073137 24.001351 22.052203 24 22.03125 24 C 22.020112 24.000346 22.01123 24 22 24 L 21.96875 24 L 10.03125 24 L 10 24 C 9.9663108 24 9.9390644 24.00307 9.90625 24 C 9.7898768 23.989113 9.6947752 23.951606 9.59375 23.90625 C 9.3750493 23.810656 9.1945779 23.628073 9.09375 23.40625 C 9.0571815 23.325799 9.0461095 23.246873 9.03125 23.15625 C 9.0270869 23.120807 9 23.099036 9 23.0625 L 9 23 L 9 22.9375 L 9 19 C 9 18.446 9.4344431 18 9.96875 18 z "
       transform="translate(0,1020.3622)"
       id="path3912" />
  </g>
</svg>
