<svg version="1.1" viewBox="0 0 32 32" xmlns="http://www.w3.org/2000/svg">
 <g transform="translate(0,-1020.3622)">
  <path d="m2.0313758 1024.3622c-0.5649999 0.055-1.04025 0.5893-1.03125 1.1563v21.6875c-7e-3 0.607 0.5492501 1.1632 1.15625 1.1562h27.6875c0.607 0.01 1.16325-0.5492 1.15625-1.1562v-19.6875c7e-3 -0.607-0.54925-1.1633-1.15625-1.1563h-10.84375v-0.8437c7e-3 -0.597-0.528-1.1473-1.125-1.1563zm13.96875 7v1a5 5 0 0 0-5 5 5 5 0 0 0 5 5h6v1h-6a6 6 0 0 1-6-6 6 6 0 0 1 6-6zm0 2c0.337519 0 0.673523 0.045 1 0.1309v1.0449c-0.320925-0.115-0.6591-0.1758-1-0.1758-1.656854 0-3 1.3432-3 3 0 1.6569 1.343146 3 3 3h6v1h-6c-2.209139 0-4-1.7908-4-4 0-2.2091 1.790861-4 4-4zm0 2a2 2 0 0 1 1.730469 1h-1.730469a1 1 0 0 0-1 1 1 1 0 0 0 1 1h6v1h-6a2 2 0 0 1-2-2 2 2 0 0 1 2-2z" style="-inkscape-stroke:none;color:#000000;fill:#ef5350;font-variation-settings:normal;stop-color:#000000"/>
 </g>
</svg>
