
<svg xmlns="http://www.w3.org/2000/svg" xmlns:xlink="http://www.w3.org/1999/xlink" width="128px" height="128px" viewBox="0 0 128 128" version="1.1">
<g id="surface1">
<path style=" stroke:none;fill-rule:nonzero;fill:rgb(91.764706%,56.470588%,21.176471%);fill-opacity:1;" d="M 12 28 L 116 28 L 116 68 L 12 68 Z M 12 28 "/>
<path style=" stroke:none;fill-rule:nonzero;fill:rgb(91.764706%,56.470588%,21.176471%);fill-opacity:1;" d="M 24 28 C 24 24 24 20 29.820312 20 L 50.179688 20 C 56 20 56 24 56 28 Z M 24 28 "/>
<path style=" stroke:none;fill-rule:nonzero;fill:rgb(58.431373%,59.607843%,62.352941%);fill-opacity:1;" d="M 20 36 L 108 36 L 108 55.867188 L 20 55.867188 Z M 20 36 "/>
<path style=" stroke:none;fill-rule:nonzero;fill:rgb(84.705882%,84.705882%,85.490196%);fill-opacity:1;" d="M 28 32 L 104 32 L 104 84 L 28 84 Z M 28 32 "/>
<path style=" stroke:none;fill-rule:nonzero;fill:rgb(97.647059%,97.647059%,97.647059%);fill-opacity:1;" d="M 24 40 L 100 40 L 100 92 L 24 92 Z M 24 40 "/>
<path style=" stroke:none;fill-rule:nonzero;fill:rgb(94.901961%,73.333333%,39.215686%);fill-opacity:1;" d="M 8 44 L 120 44 L 112 108 L 16 108 Z M 8 44 "/>
<path style=" stroke:none;fill-rule:nonzero;fill:rgb(0%,0%,0%);fill-opacity:0.25098;" d="M 60.851562 56 C 59.742188 56 58.820312 56.890625 58.820312 57.992188 L 58.820312 60.585938 C 58.117188 60.820312 57.4375 61.09375 56.78125 61.421875 L 54.984375 59.617188 C 54.1875 58.828125 52.929688 58.828125 52.15625 59.617188 L 47.617188 64.101562 C 46.828125 64.890625 46.828125 66.148438 47.617188 66.929688 L 49.414062 68.726562 C 49.078125 69.398438 48.828125 70.101562 48.585938 70.820312 L 46.03125 70.820312 C 44.9375 70.820312 44 71.703125 44 72.8125 L 44 79.203125 C 44 80.296875 44.9375 81.195312 46.03125 81.195312 L 48.585938 81.195312 C 48.828125 81.898438 49.078125 82.601562 49.414062 83.273438 L 47.617188 85.070312 C 46.828125 85.867188 46.828125 87.109375 47.617188 87.898438 L 52.15625 92.382812 C 52.929688 93.171875 54.1875 93.171875 54.984375 92.382812 L 56.78125 90.578125 C 57.4375 90.90625 58.117188 91.179688 58.820312 91.414062 L 58.820312 94.007812 C 58.820312 95.125 59.742188 96 60.851562 96 L 67.195312 96 C 68.304688 96 69.179688 95.125 69.179688 94.007812 L 69.179688 91.414062 C 69.898438 91.179688 70.601562 90.914062 71.265625 90.578125 L 73.078125 92.382812 C 73.851562 93.171875 75.109375 93.171875 75.890625 92.382812 L 80.429688 87.898438 C 81.21875 87.109375 81.21875 85.867188 80.429688 85.070312 L 78.585938 83.226562 C 78.90625 82.570312 79.179688 81.898438 79.414062 81.195312 L 82.007812 81.195312 C 83.125 81.195312 84 80.296875 84 79.203125 L 84 72.8125 C 84 71.703125 83.125 70.820312 82.007812 70.820312 L 79.414062 70.820312 C 79.179688 70.117188 78.90625 69.429688 78.585938 68.789062 L 80.429688 66.929688 C 81.21875 66.148438 81.21875 64.890625 80.429688 64.101562 L 75.890625 59.617188 C 75.109375 58.828125 73.851562 58.828125 73.078125 59.617188 L 71.265625 61.421875 C 70.601562 61.085938 69.898438 60.835938 69.179688 60.585938 L 69.179688 57.992188 C 69.179688 56.890625 68.304688 56 67.195312 56 Z M 64 70.820312 C 66.851562 70.820312 69.179688 73.132812 69.179688 76.007812 C 69.179688 78.867188 66.851562 81.195312 64 81.195312 C 61.148438 81.195312 58.820312 78.867188 58.820312 76.007812 C 58.820312 73.132812 61.148438 70.820312 64 70.820312 Z M 64 70.820312 "/>
</g>
</svg>
