
<svg xmlns="http://www.w3.org/2000/svg" xmlns:xlink="http://www.w3.org/1999/xlink" width="128px" height="128px" viewBox="0 0 128 128" version="1.1">
<g id="surface1">
<path style=" stroke:none;fill-rule:nonzero;fill:rgb(91.764706%,56.470588%,21.176471%);fill-opacity:1;" d="M 12 28 L 116 28 L 116 68 L 12 68 Z M 12 28 "/>
<path style=" stroke:none;fill-rule:nonzero;fill:rgb(91.764706%,56.470588%,21.176471%);fill-opacity:1;" d="M 24 28 C 24 24 24 20 29.820312 20 L 50.179688 20 C 56 20 56 24 56 28 Z M 24 28 "/>
<path style=" stroke:none;fill-rule:nonzero;fill:rgb(58.431373%,59.607843%,62.352941%);fill-opacity:1;" d="M 20 36 L 108 36 L 108 55.867188 L 20 55.867188 Z M 20 36 "/>
<path style=" stroke:none;fill-rule:nonzero;fill:rgb(84.705882%,84.705882%,85.490196%);fill-opacity:1;" d="M 28 32 L 104 32 L 104 84 L 28 84 Z M 28 32 "/>
<path style=" stroke:none;fill-rule:nonzero;fill:rgb(97.647059%,97.647059%,97.647059%);fill-opacity:1;" d="M 24 40 L 100 40 L 100 92 L 24 92 Z M 24 40 "/>
<path style=" stroke:none;fill-rule:nonzero;fill:rgb(94.901961%,73.333333%,39.215686%);fill-opacity:1;" d="M 8 44 L 120 44 L 112 108 L 16 108 Z M 8 44 "/>
<path style=" stroke:none;fill-rule:nonzero;fill:rgb(0%,0%,0%);fill-opacity:0.25098;" d="M 51.34375 76.007812 C 50.460938 76.046875 49.632812 76.382812 49.007812 76.929688 C 47.765625 78.03125 47.648438 79.890625 48.789062 81.070312 L 59.296875 91.0625 C 60.03125 91.695312 61.101562 92.070312 62.140625 91.992188 C 62.976562 91.9375 63.796875 91.578125 64.398438 91.0625 L 74.90625 81.429688 C 75.570312 80.867188 75.96875 80.09375 76 79.289062 C 76.0625 78.023438 75.148438 76.78125 73.8125 76.289062 C 72.46875 75.796875 70.796875 76.085938 69.796875 77.007812 L 61.992188 83.851562 L 53.820312 76.648438 C 53.140625 76.15625 52.226562 75.960938 51.34375 76.007812 Z M 51.34375 76.007812 "/>
<path style=" stroke:none;fill-rule:nonzero;fill:rgb(0%,0%,0%);fill-opacity:0.25098;" d="M 62 56 C 60.953125 56 60 57.0625 60 58.25 L 60 69.664062 C 59.960938 70.875 60.929688 72 62 72 C 62.0625 72 62.125 72 62.1875 72 C 63.195312 71.898438 64.039062 70.8125 64 69.664062 L 64 58.25 C 64 57.0625 63.046875 56 62 56 Z M 62 56 "/>
<path style=" stroke:none;fill-rule:nonzero;fill:rgb(0%,0%,0%);fill-opacity:0.25098;" d="M 54 64 C 52.867188 64 51.851562 64.835938 52.015625 65.625 L 52.015625 70.554688 C 51.976562 71.351562 53.0625 72.070312 54.1875 71.992188 C 55.171875 71.914062 56.023438 71.25 55.984375 70.554688 L 55.984375 65.625 C 56.148438 64.835938 55.132812 64 54 64 Z M 54 64 "/>
<path style=" stroke:none;fill-rule:nonzero;fill:rgb(0%,0%,0%);fill-opacity:0.25098;" d="M 70 64 C 68.867188 64 67.851562 64.835938 68.015625 65.625 L 68.015625 70.554688 C 67.976562 71.351562 69.0625 72.070312 70.1875 71.992188 C 71.171875 71.914062 72.023438 71.25 71.984375 70.554688 L 71.984375 65.625 C 72.148438 64.835938 71.132812 64 70 64 Z M 70 64 "/>
</g>
</svg>
