
<svg xmlns="http://www.w3.org/2000/svg" xmlns:xlink="http://www.w3.org/1999/xlink" width="128px" height="128px" viewBox="0 0 128 128" version="1.1">
<g id="surface1">
<path style=" stroke:none;fill-rule:nonzero;fill:rgb(91.764706%,56.470588%,21.176471%);fill-opacity:1;" d="M 12 28 L 116 28 L 116 68 L 12 68 Z M 12 28 "/>
<path style=" stroke:none;fill-rule:nonzero;fill:rgb(91.764706%,56.470588%,21.176471%);fill-opacity:1;" d="M 24 28 C 24 24 24 20 29.820312 20 L 50.179688 20 C 56 20 56 24 56 28 Z M 24 28 "/>
<path style=" stroke:none;fill-rule:nonzero;fill:rgb(58.431373%,59.607843%,62.352941%);fill-opacity:1;" d="M 20 36 L 108 36 L 108 55.867188 L 20 55.867188 Z M 20 36 "/>
<path style=" stroke:none;fill-rule:nonzero;fill:rgb(84.705882%,84.705882%,85.490196%);fill-opacity:1;" d="M 28 32 L 104 32 L 104 84 L 28 84 Z M 28 32 "/>
<path style=" stroke:none;fill-rule:nonzero;fill:rgb(97.647059%,97.647059%,97.647059%);fill-opacity:1;" d="M 24 40 L 100 40 L 100 92 L 24 92 Z M 24 40 "/>
<path style=" stroke:none;fill-rule:nonzero;fill:rgb(94.901961%,73.333333%,39.215686%);fill-opacity:1;" d="M 8 44 L 120 44 L 112 108 L 16 108 Z M 8 44 "/>
<path style=" stroke:none;fill-rule:nonzero;fill:rgb(0%,0%,0%);fill-opacity:0.25098;" d="M 69.507812 60 C 65.507812 60 62.1875 63.03125 62.1875 66.820312 C 62.210938 68.132812 62.289062 69.78125 63.054688 73.265625 L 63.132812 73.265625 C 63.289062 73.71875 63.53125 74.179688 63.929688 74.679688 C 64.28125 75.117188 64.75 75.617188 65.179688 76.085938 C 65.3125 77.070312 65.328125 77.929688 65.179688 78.984375 C 63.984375 79.882812 61.84375 80.71875 59.914062 81.5 C 58.890625 81.898438 57.960938 82.265625 57.226562 82.75 C 56.53125 83.203125 56.015625 83.835938 55.96875 84.632812 C 55.96875 84.679688 55.898438 84.679688 55.898438 84.703125 L 55.023438 91.382812 L 55.023438 91.453125 C 55.023438 92.28125 55.570312 92.953125 56.367188 93.5 C 57.148438 94.03125 58.210938 94.453125 59.515625 94.820312 C 62.109375 95.570312 65.625 96 69.507812 96 C 73.398438 96 76.914062 95.570312 79.515625 94.820312 C 80.8125 94.453125 81.875 94.03125 82.65625 93.5 C 83.4375 92.953125 84 92.28125 84 91.453125 L 84 91.382812 L 83.054688 84.703125 C 83.054688 84.6875 83.054688 84.664062 83.054688 84.632812 C 83.023438 84.25 82.890625 83.882812 82.65625 83.617188 C 82.40625 83.320312 82.078125 83.132812 81.710938 82.914062 C 80.976562 82.453125 80.046875 82.0625 79.039062 81.648438 C 77.078125 80.851562 74.9375 79.9375 73.757812 78.984375 C 73.664062 78.070312 73.664062 77.148438 73.757812 76.234375 C 74.1875 75.734375 74.65625 75.234375 75.023438 74.75 C 75.421875 74.21875 75.734375 73.734375 75.882812 73.265625 C 76.75 69.632812 76.78125 68.164062 76.828125 66.820312 C 76.828125 63.03125 73.523438 60 69.507812 60 Z M 55.898438 61.265625 C 52.59375 61.265625 49.90625 63.796875 49.90625 66.914062 C 49.929688 67.96875 49.992188 69.21875 50.609375 72.085938 L 50.609375 72.164062 C 50.742188 72.546875 51 72.851562 51.320312 73.265625 C 51.617188 73.617188 52 74.0625 52.351562 74.4375 C 52.460938 75.21875 52.46875 76.015625 52.351562 76.867188 C 51.382812 77.617188 49.609375 78.28125 48.015625 78.914062 C 47.1875 79.234375 46.492188 79.53125 45.890625 79.929688 C 45.328125 80.296875 44.914062 80.851562 44.867188 81.5 C 44.867188 81.53125 44.796875 81.53125 44.796875 81.570312 L 44 86.984375 L 44 87.0625 C 44 87.570312 44.25 88.015625 44.632812 88.398438 C 45.015625 88.78125 45.546875 89.132812 46.210938 89.414062 C 47.5 89.96875 49.34375 90.367188 51.554688 90.585938 L 51.648438 90.585938 C 51.765625 90.585938 51.882812 90.5625 51.953125 90.515625 C 52.046875 90.453125 52.148438 90.414062 52.195312 90.351562 C 52.265625 90.25 52.3125 90.148438 52.351562 90.046875 C 52.414062 89.867188 52.414062 89.679688 52.429688 89.5 C 52.429688 89.46875 52.429688 89.4375 52.429688 89.414062 L 53.296875 82.75 C 53.296875 82.46875 53.476562 82.148438 53.921875 81.8125 C 54.359375 81.46875 55.039062 81.132812 55.804688 80.796875 C 57.375 80.117188 59.351562 79.484375 60.929688 78.679688 L 61.796875 78.203125 L 60.929688 77.8125 C 60.3125 77.5 59.820312 77.179688 59.4375 76.867188 C 59.351562 76.085938 59.351562 75.28125 59.4375 74.515625 C 59.4375 74.484375 59.421875 74.453125 59.4375 74.4375 C 60.03125 73.632812 60.484375 72.796875 60.695312 72.320312 L 60.765625 72.164062 L 60.695312 72 C 60.617188 71.617188 60.648438 71.320312 60.53125 70.984375 C 59.78125 67.546875 59.703125 66.132812 59.671875 64.867188 C 59.671875 64.335938 59.796875 63.71875 59.984375 63.148438 L 60.148438 62.820312 L 59.820312 62.679688 C 58.773438 61.835938 57.390625 61.265625 55.898438 61.265625 Z M 55.898438 61.265625 "/>
</g>
</svg>
