
<svg xmlns="http://www.w3.org/2000/svg" xmlns:xlink="http://www.w3.org/1999/xlink" width="128px" height="128px" viewBox="0 0 128 128" version="1.1">
<g id="surface1">
<path style=" stroke:none;fill-rule:nonzero;fill:rgb(91.764706%,56.470588%,21.176471%);fill-opacity:1;" d="M 12 28 L 116 28 L 116 68 L 12 68 Z M 12 28 "/>
<path style=" stroke:none;fill-rule:nonzero;fill:rgb(91.764706%,56.470588%,21.176471%);fill-opacity:1;" d="M 24 28 C 24 24 24 20 29.820312 20 L 50.179688 20 C 56 20 56 24 56 28 Z M 24 28 "/>
<path style=" stroke:none;fill-rule:nonzero;fill:rgb(58.431373%,59.607843%,62.352941%);fill-opacity:1;" d="M 20 36 L 108 36 L 108 55.867188 L 20 55.867188 Z M 20 36 "/>
<path style=" stroke:none;fill-rule:nonzero;fill:rgb(84.705882%,84.705882%,85.490196%);fill-opacity:1;" d="M 28 32 L 104 32 L 104 84 L 28 84 Z M 28 32 "/>
<path style=" stroke:none;fill-rule:nonzero;fill:rgb(97.647059%,97.647059%,97.647059%);fill-opacity:1;" d="M 24 40 L 100 40 L 100 92 L 24 92 Z M 24 40 "/>
<path style=" stroke:none;fill-rule:nonzero;fill:rgb(94.901961%,73.333333%,39.215686%);fill-opacity:1;" d="M 8 44 L 120 44 L 112 108 L 16 108 Z M 8 44 "/>
<path style=" stroke:none;fill-rule:nonzero;fill:rgb(0%,0%,0%);fill-opacity:0.25098;" d="M 46.492188 56 L 46.492188 68.507812 L 59 68.507812 L 54.695312 64.203125 C 57.257812 62.195312 60.5 61.007812 64 61.007812 C 72.296875 61.007812 79 67.71875 79 76.007812 C 79 84.28125 72.296875 91.007812 64 91.007812 C 55.703125 91.007812 49 84.28125 49 76.007812 C 49 74.25 49.304688 72.5625 49.859375 71 L 44.617188 71 C 44.203125 72.59375 44 74.28125 44 76.007812 C 44 87.054688 52.953125 96 64 96 C 75.046875 96 84 87.054688 84 76.007812 C 84 64.960938 75.046875 56 64 56 C 59.109375 56 54.578125 57.695312 51.109375 60.617188 Z M 63.765625 63.429688 C 63.664062 63.4375 63.5625 63.46875 63.460938 63.5 C 62.289062 63.765625 61.46875 64.820312 61.492188 66 L 61.492188 75.21875 C 61.492188 75.304688 61.492188 75.375 61.492188 75.453125 C 61.351562 76.09375 61.46875 76.765625 61.820312 77.328125 C 61.828125 77.351562 61.859375 77.382812 61.890625 77.414062 C 61.921875 77.460938 61.9375 77.515625 61.960938 77.5625 C 61.992188 77.585938 62.023438 77.617188 62.054688 77.648438 C 62.0625 77.664062 62.09375 77.695312 62.125 77.71875 C 62.15625 77.75 62.179688 77.78125 62.195312 77.796875 C 62.226562 77.820312 62.257812 77.851562 62.289062 77.882812 C 62.328125 77.914062 62.390625 77.929688 62.429688 77.953125 C 62.460938 77.984375 62.492188 78.015625 62.523438 78.03125 C 62.53125 78.054688 62.5625 78.085938 62.59375 78.117188 C 62.640625 78.148438 62.695312 78.164062 62.757812 78.1875 C 62.859375 78.25 62.960938 78.304688 63.0625 78.351562 L 69.234375 81.9375 C 70.445312 82.625 71.984375 82.203125 72.671875 81 C 73.359375 79.804688 72.9375 78.25 71.734375 77.5625 L 66.507812 74.515625 L 66.507812 66 C 66.523438 65.289062 66.242188 64.585938 65.710938 64.101562 C 65.1875 63.601562 64.484375 63.351562 63.765625 63.429688 Z M 63.765625 63.429688 "/>
</g>
</svg>
