
<svg xmlns="http://www.w3.org/2000/svg" xmlns:xlink="http://www.w3.org/1999/xlink" width="128px" height="128px" viewBox="0 0 128 128" version="1.1">
<g id="surface1">
<path style=" stroke:none;fill-rule:nonzero;fill:rgb(91.764706%,56.470588%,21.176471%);fill-opacity:1;" d="M 12 28 L 116 28 L 116 68 L 12 68 Z M 12 28 "/>
<path style=" stroke:none;fill-rule:nonzero;fill:rgb(91.764706%,56.470588%,21.176471%);fill-opacity:1;" d="M 24 28 C 24 24 24 20 29.820312 20 L 50.179688 20 C 56 20 56 24 56 28 Z M 24 28 "/>
<path style=" stroke:none;fill-rule:nonzero;fill:rgb(58.431373%,59.607843%,62.352941%);fill-opacity:1;" d="M 20 36 L 108 36 L 108 55.867188 L 20 55.867188 Z M 20 36 "/>
<path style=" stroke:none;fill-rule:nonzero;fill:rgb(84.705882%,84.705882%,85.490196%);fill-opacity:1;" d="M 28 32 L 104 32 L 104 84 L 28 84 Z M 28 32 "/>
<path style=" stroke:none;fill-rule:nonzero;fill:rgb(97.647059%,97.647059%,97.647059%);fill-opacity:1;" d="M 24 40 L 100 40 L 100 92 L 24 92 Z M 24 40 "/>
<path style=" stroke:none;fill-rule:nonzero;fill:rgb(94.901961%,73.333333%,39.215686%);fill-opacity:1;" d="M 8 44 L 120 44 L 112 108 L 16 108 Z M 8 44 "/>
<path style=" stroke:none;fill-rule:nonzero;fill:rgb(0%,0%,0%);fill-opacity:0.25098;" d="M 51.1875 52 C 48.523438 52 47.976562 54.09375 48 54.78125 L 48.007812 93.328125 C 48.007812 96 49.882812 96.015625 50.671875 96 L 77.335938 96 C 80 96 80.015625 94.09375 80 93.328125 L 80 56 L 76 52 Z M 52 56 L 72 56 L 72 60 L 76 60 L 76 76 L 60 76 L 60 92 L 52 92 Z M 64 80 L 72 80 L 64 88 Z M 64 80 "/>
</g>
</svg>
