
<svg xmlns="http://www.w3.org/2000/svg" xmlns:xlink="http://www.w3.org/1999/xlink" width="128px" height="128px" viewBox="0 0 128 128" version="1.1">
<g id="surface1">
<path style=" stroke:none;fill-rule:nonzero;fill:rgb(91.764706%,56.470588%,21.176471%);fill-opacity:1;" d="M 12 28 L 116 28 L 116 68 L 12 68 Z M 12 28 "/>
<path style=" stroke:none;fill-rule:nonzero;fill:rgb(91.764706%,56.470588%,21.176471%);fill-opacity:1;" d="M 24 28 C 24 24 24 20 29.820312 20 L 50.179688 20 C 56 20 56 24 56 28 Z M 24 28 "/>
<path style=" stroke:none;fill-rule:nonzero;fill:rgb(58.431373%,59.607843%,62.352941%);fill-opacity:1;" d="M 20 36 L 108 36 L 108 55.867188 L 20 55.867188 Z M 20 36 "/>
<path style=" stroke:none;fill-rule:nonzero;fill:rgb(84.705882%,84.705882%,85.490196%);fill-opacity:1;" d="M 28 32 L 104 32 L 104 84 L 28 84 Z M 28 32 "/>
<path style=" stroke:none;fill-rule:nonzero;fill:rgb(97.647059%,97.647059%,97.647059%);fill-opacity:1;" d="M 24 40 L 100 40 L 100 92 L 24 92 Z M 24 40 "/>
<path style=" stroke:none;fill-rule:nonzero;fill:rgb(94.901961%,73.333333%,39.215686%);fill-opacity:1;" d="M 8 44 L 120 44 L 112 108 L 16 108 Z M 8 44 "/>
<path style=" stroke:none;fill-rule:nonzero;fill:rgb(0%,0%,0%);fill-opacity:0.25098;" d="M 46.75 56 C 45.34375 56.132812 44.09375 57.664062 44.125 59.25 L 44.125 92.875 C 44.140625 94.53125 45.53125 96.03125 47 96 L 81.25 96 C 82.703125 95.984375 83.984375 94.5 84 92.875 L 84 59.25 C 84.03125 57.59375 82.726562 56.015625 81.25 56 Z M 48 60 L 80 60 L 80 83.625 C 79.445312 82.96875 79.125 82.632812 78.5 81.875 C 76.289062 79.210938 73.6875 75.960938 70.625 72.125 C 70.023438 72.726562 69.25 73.5625 68.25 74.5 C 67.25 75.421875 66.140625 76.507812 64.75 77.75 C 64.570312 77.9375 63.804688 77.140625 62.5 75.5 C 61.148438 73.84375 59.335938 71.359375 56.875 67.875 C 53.125 71.789062 50.296875 74.703125 48.125 76.875 C 48.054688 76.945312 48.070312 76.9375 48 77 Z M 48 60 "/>
</g>
</svg>
