
<svg xmlns="http://www.w3.org/2000/svg" xmlns:xlink="http://www.w3.org/1999/xlink" width="128px" height="128px" viewBox="0 0 128 128" version="1.1">
<g id="surface1">
<path style=" stroke:none;fill-rule:nonzero;fill:rgb(91.764706%,56.470588%,21.176471%);fill-opacity:1;" d="M 12 28 L 116 28 L 116 68 L 12 68 Z M 12 28 "/>
<path style=" stroke:none;fill-rule:nonzero;fill:rgb(91.764706%,56.470588%,21.176471%);fill-opacity:1;" d="M 24 28 C 24 24 24 20 29.820312 20 L 50.179688 20 C 56 20 56 24 56 28 Z M 24 28 "/>
<path style=" stroke:none;fill-rule:nonzero;fill:rgb(58.431373%,59.607843%,62.352941%);fill-opacity:1;" d="M 20 36 L 108 36 L 108 55.867188 L 20 55.867188 Z M 20 36 "/>
<path style=" stroke:none;fill-rule:nonzero;fill:rgb(84.705882%,84.705882%,85.490196%);fill-opacity:1;" d="M 28 32 L 104 32 L 104 84 L 28 84 Z M 28 32 "/>
<path style=" stroke:none;fill-rule:nonzero;fill:rgb(97.647059%,97.647059%,97.647059%);fill-opacity:1;" d="M 24 40 L 100 40 L 100 92 L 24 92 Z M 24 40 "/>
<path style=" stroke:none;fill-rule:nonzero;fill:rgb(94.901961%,73.333333%,39.215686%);fill-opacity:1;" d="M 8 44 L 120 44 L 112 108 L 16 108 Z M 8 44 "/>
<path style=" stroke:none;fill-rule:nonzero;fill:rgb(0%,0%,0%);fill-opacity:0.25098;" d="M 47.835938 71.125 C 45.726562 71.125 44 72.851562 44 75.007812 C 44 77.148438 45.726562 78.890625 47.835938 78.890625 C 49.960938 78.890625 51.671875 77.148438 51.671875 75.007812 C 51.671875 72.851562 49.960938 71.125 47.835938 71.125 Z M 75.21875 88.765625 C 73.382812 89.828125 72.765625 92.203125 73.828125 94.0625 C 74.875 95.914062 77.226562 96.554688 79.0625 95.476562 C 80.890625 94.414062 81.53125 92.03125 80.46875 90.179688 C 79.40625 88.320312 77.054688 87.6875 75.21875 88.765625 Z M 56.171875 75.007812 C 56.171875 71.171875 58.054688 67.78125 60.9375 65.726562 L 58.132812 60.96875 C 54.78125 63.234375 52.28125 66.703125 51.25 70.773438 C 52.445312 71.773438 53.21875 73.296875 53.21875 75.007812 C 53.21875 76.703125 52.445312 78.226562 51.25 79.226562 C 52.28125 83.296875 54.78125 86.765625 58.132812 89.03125 L 60.9375 84.273438 C 58.054688 82.21875 56.171875 78.828125 56.171875 75.007812 Z M 67.382812 63.664062 C 73.234375 63.664062 78.039062 68.210938 78.53125 74 L 84 73.914062 C 83.734375 69.640625 81.890625 65.796875 79.046875 62.984375 C 77.59375 63.53125 75.914062 63.445312 74.445312 62.601562 C 73 61.75 72.078125 60.320312 71.828125 58.757812 C 70.40625 58.359375 68.914062 58.132812 67.382812 58.132812 C 64.71875 58.132812 62.21875 58.773438 60 59.875 L 62.664062 64.726562 C 64.09375 64.039062 65.6875 63.664062 67.382812 63.664062 Z M 67.382812 86.335938 C 65.6875 86.335938 64.09375 85.960938 62.664062 85.273438 L 60 90.125 C 62.21875 91.226562 64.71875 91.867188 67.382812 91.867188 C 68.914062 91.867188 70.40625 91.648438 71.828125 91.257812 C 72.078125 89.679688 73 88.25 74.445312 87.398438 C 75.914062 86.554688 77.59375 86.46875 79.046875 87.015625 C 81.890625 84.203125 83.734375 80.359375 84 76.085938 L 78.53125 76 C 78.039062 81.789062 73.234375 86.335938 67.382812 86.335938 Z M 75.21875 61.234375 C 77.054688 62.3125 79.40625 61.679688 80.46875 59.820312 C 81.53125 57.96875 80.890625 55.585938 79.0625 54.523438 C 77.226562 53.445312 74.875 54.085938 73.828125 55.9375 C 72.765625 57.796875 73.382812 60.171875 75.21875 61.234375 Z M 75.21875 61.234375 "/>
</g>
</svg>
