
<svg xmlns="http://www.w3.org/2000/svg" xmlns:xlink="http://www.w3.org/1999/xlink" width="128px" height="128px" viewBox="0 0 128 128" version="1.1">
<g id="surface1">
<path style=" stroke:none;fill-rule:evenodd;fill:rgb(66.666667%,66.666667%,66.666667%);fill-opacity:1;" d="M 60.8125 92 L 67.1875 92 C 67.632812 92 68 92.492188 68 93.101562 L 68 110.898438 C 68 111.507812 67.632812 112 67.1875 112 L 60.8125 112 C 60.367188 112 60 111.507812 60 110.898438 L 60 93.101562 C 60 92.492188 60.367188 92 60.8125 92 Z M 60.8125 92 "/>
<path style=" stroke:none;fill-rule:nonzero;fill:rgb(66.666667%,66.666667%,66.666667%);fill-opacity:1;" d="M 16 112 L 16 120 L 48 120 L 48 112 Z M 80 112 L 80 120 L 112 120 L 112 112 Z M 80 112 "/>
<path style=" stroke:none;fill-rule:nonzero;fill:rgb(66.666667%,66.666667%,66.666667%);fill-opacity:1;" d="M 52.007812 108 C 51.992188 108.054688 52.007812 108.0625 52.007812 108.125 L 52.007812 123.875 C 52.007812 123.945312 51.992188 123.945312 52.007812 124 L 75.992188 124 C 76.007812 123.945312 75.992188 123.945312 75.992188 123.875 L 75.992188 108.125 C 75.992188 108.0625 76.007812 108.054688 75.992188 108 Z M 52.007812 108 "/>
<path style=" stroke:none;fill-rule:nonzero;fill:rgb(91.764706%,56.470588%,21.176471%);fill-opacity:1;" d="M 12 20 L 116 20 L 116 60 L 12 60 Z M 12 20 "/>
<path style=" stroke:none;fill-rule:nonzero;fill:rgb(91.764706%,56.470588%,21.176471%);fill-opacity:1;" d="M 24 20 C 24 16 24 12 29.820312 12 L 50.179688 12 C 56 12 56 16 56 20 Z M 24 20 "/>
<path style=" stroke:none;fill-rule:nonzero;fill:rgb(58.431373%,59.607843%,62.352941%);fill-opacity:1;" d="M 20 28 L 108 28 L 108 47.867188 L 20 47.867188 Z M 20 28 "/>
<path style=" stroke:none;fill-rule:nonzero;fill:rgb(84.705882%,84.705882%,85.490196%);fill-opacity:1;" d="M 28 24 L 104 24 L 104 76 L 28 76 Z M 28 24 "/>
<path style=" stroke:none;fill-rule:nonzero;fill:rgb(97.647059%,97.647059%,97.647059%);fill-opacity:1;" d="M 24 32 L 100 32 L 100 84 L 24 84 Z M 24 32 "/>
<path style=" stroke:none;fill-rule:nonzero;fill:rgb(94.901961%,73.333333%,39.215686%);fill-opacity:1;" d="M 8 36 L 120 36 L 112 100 L 16 100 Z M 8 36 "/>
</g>
</svg>
