<?xml version="1.0" encoding="UTF-8" standalone="no"?>
<!-- Created with Inkscape (http://www.inkscape.org/) -->

<svg
   xmlns:dc="http://purl.org/dc/elements/1.1/"
   xmlns:cc="http://creativecommons.org/ns#"
   xmlns:rdf="http://www.w3.org/1999/02/22-rdf-syntax-ns#"
   xmlns:svg="http://www.w3.org/2000/svg"
   xmlns="http://www.w3.org/2000/svg"
   xmlns:sodipodi="http://sodipodi.sourceforge.net/DTD/sodipodi-0.dtd"
   xmlns:inkscape="http://www.inkscape.org/namespaces/inkscape"
   width="96"
   height="96"
   id="svg2"
   version="1.1"
   inkscape:version="0.48.5 r10040"
   sodipodi:docname="document-open-recent.svg"
   inkscape:export-filename="/media/Data/Main/Visuals/Icons/Numix/Desktop/repos/numix-wiki/Gjorgi/Numix-folders/48/New/folder-144.png"
   inkscape:export-xdpi="270"
   inkscape:export-ydpi="270">
  <defs
     id="defs4" />
  <sodipodi:namedview
     id="base"
     pagecolor="#f9f9f9"
     bordercolor="#666666"
     borderopacity="1.0"
     inkscape:pageopacity="1"
     inkscape:pageshadow="2"
     inkscape:zoom="9.0260381"
     inkscape:cx="59.840777"
     inkscape:cy="46.467138"
     inkscape:document-units="px"
     inkscape:current-layer="layer1"
     showgrid="true"
     inkscape:window-width="1280"
     inkscape:window-height="998"
     inkscape:window-x="0"
     inkscape:window-y="0"
     inkscape:window-maximized="1"
     showguides="true"
     inkscape:guide-bbox="true">
    <inkscape:grid
       type="xygrid"
       id="grid2985"
       empspacing="5"
       visible="true"
       enabled="true"
       snapvisiblegridlinesonly="true" />
  </sodipodi:namedview>
  <metadata
     id="metadata7">
    <rdf:RDF>
      <cc:Work
         rdf:about="">
        <dc:format>image/svg+xml</dc:format>
        <dc:type
           rdf:resource="http://purl.org/dc/dcmitype/StillImage" />
        <dc:title />
      </cc:Work>
    </rdf:RDF>
  </metadata>
  <g
     inkscape:label="Layer 1"
     inkscape:groupmode="layer"
     id="layer1"
     transform="translate(0,-956.3622)">
    <rect
       style="fill:#ec407a;fill-opacity:1;stroke:none"
       id="rect2993"
       width="68"
       height="39.999954"
       x="14"
       y="966.36224"
       rx="4"
       ry="3.9999955" />
    <rect
       style="fill:#f06292;fill-opacity:1;stroke:none"
       id="rect2990"
       width="84"
       height="39.999954"
       x="6"
       y="996.36218"
       rx="4"
       ry="3.9999955" />
    <path
       style="opacity:0.1;fill:#ffffff;fill-opacity:1;stroke:none"
       d="m 10,996.36223 c -2.216,0 -4,1.78399 -4,3.99997 l 0,2 c 0,-2.216 1.784,-3.99998 4,-3.99998 l 76,0 c 2.216,0 4,1.78398 4,3.99998 l 0,-2 c 0,-2.21598 -1.784,-3.99997 -4,-3.99997 l -76,0 z"
       id="rect2991"
       inkscape:connector-curvature="0" />
    <path
       style="opacity:0.05;fill:#000000;fill-opacity:1;stroke:none"
       d="m 18,966.36226 c -2.216,0 -4,1.784 -4,4 l 0,1.99999 c 0,-2.21599 1.784,-3.99999 4,-3.99999 l 60,0 c 2.216,0 4,1.784 4,3.99999 l 0,-1.99999 c 0,-2.216 -1.784,-4 -4,-4 l -60,0 z"
       id="rect3763"
       inkscape:connector-curvature="0" />
    <path
       inkscape:connector-curvature="0"
       style="fill:#859900;fill-rule:evenodd"
       d="m 85.99622,1021.366 c 0.13686,6.7392 -3.451746,13.027 -9.389662,16.438 -5.930312,3.411 -13.28238,3.411 -19.220296,0 -5.937916,-3.411 -9.526514,-9.6988 -9.38206,-16.438 -0.14446,-6.747 3.444144,-13.0344 9.38206,-16.4454 5.937916,-3.4112 13.289984,-3.4112 19.220296,0 5.937916,3.411 9.526514,9.6984 9.389662,16.4454 z"
       id="path2993" />
    <path
       inkscape:connector-curvature="0"
       style="fill:#ffffff"
       d="m 77.389662,1009.4158 c -0.402956,0.142 -0.74509,0.4144 -0.97318,0.7682 l -10.355238,10.0224 -6.462518,-6.167 c -0.258502,-0.8508 -1.07202,-1.4232 -1.976774,-1.3782 -0.897148,0.052 -1.64224,0.708 -1.809504,1.5814 -0.15966,0.8812 0.31172,1.7546 1.140444,2.1084 l 7.785436,7.7108 c 0.745092,0.6928 1.900742,0.6928 2.645834,0 l 11.678154,-11.566 c 0.456176,-0.595 0.517,-1.4082 0.15966,-2.0708 -0.35734,-0.6628 -1.079622,-1.0542 -1.832316,-1.0092 z"
       id="path2995" />
  </g>
</svg>
