<svg version="1.1" viewBox="0 0 64 64" xmlns="http://www.w3.org/2000/svg">
 <g transform="translate(0 -988.36)">
  <path d="m8 998.36h47c2 0 3 1 3 2.999v6.998c0 1.108-0.947 1-2 1h-48c-1.053 0-2-0.892-2-2v-8.998z"/>
  <path d="m6 1004.4v5h52v-5z" style="opacity:.03"/>
  <path d="m6 1002.4v-5c0-2 0.909-3 1.818-3h10.364c0.909 0 1.818 1 1.818 3v5z"/>
  <rect x="2" y="1006.4" width="60" height="40" rx="4" ry="3.333"/>
  <path d="m6 1006.4c-2.216 0-4 1.497-4 3.344v2c0-1.847 1.784-3.344 4-3.344h52c2.216 0 4 1.497 4 3.344v-2c0-1.847-1.784-3.344-4-3.344z" style="fill:#fff;opacity:.1"/>
  <path d="m20 998.36v2h35c2 0 3 1 3 3v-2c0-1.999-1-3-3-3h-33z" style="opacity:.05"/>
  <path d="m7.813 994.36c-0.909 0-1.813 1-1.813 3v2c0-2 0.903-3 1.813-3h10.375c0.909 0 1.813 1 1.813 3v-2c0-2-0.903-3-1.813-3z" style="opacity:.05"/>
  <path d="m35.818 1038h-0.10909l-0.10909-0.1106v-3.4286c0-0.7742-0.10909-1.4378-0.43636-1.9908 2.5091-0.4423 5.2364-1.7695 5.2364-6.7465 0-1.3272-0.43636-2.5438-1.2-3.5392 0.21818-0.6636 0.32727-1.8801-0.21818-3.4285l-0.32727-0.3318s-0.21818-0.1106-0.43636-0.1106c-0.65455 0-1.6364 0.2212-3.2727 1.3272-0.87273-0.1106-1.8545-0.3318-2.9455-0.3318s-2.0727 0.1106-3.0545 0.3318c-1.5273-0.9954-2.6182-1.2166-3.2727-1.2166-0.21818 0-0.32727 0.1106-0.43636 0.1106s-0.32727 0.2212-0.32727 0.3318c-0.54546 1.5483-0.43636 2.7649-0.21818 3.4285-0.76364 0.9954-1.2 2.212-1.2 3.5392 0 4.8664 2.8364 6.1936 5.2364 6.7465-0.10909 0.2212-0.21818 0.553-0.32727 0.8848-0.21818 0.1106-0.54546 0.2212-0.98182 0.2212-0.43636 0-0.87273-0.1106-1.2-0.4424l-0.10909-0.1106c-0.10909-0.1106-0.10909-0.2212-0.21818-0.2212l-0.21818-0.2212c0-0.1106-0.87273-1.4377-2.4-1.5483-0.54545 0-0.98182 0.2212-1.0909 0.553-0.21818 0.553 0.43636 0.9953 0.76364 1.2165 0 0 0.65454 0.3318 1.0909 1.5484 0.21818 0.7742 1.2 2.212 3.4909 2.212h0.76364v1.5484l-0.10909 0.1106s-0.10909 0 0 0c-4.9091-1.9908-8.1818-6.6359-8.1818-11.834 0-6.7465 5.3455-12.166 12-12.166s12 5.4194 12 12.166c0 5.1982-3.2727 9.8433-8.1818 11.502z" style="stroke-width:1.0984"/>
 </g>
</svg>
