<svg xmlns="http://www.w3.org/2000/svg" viewBox="0 0 64 64">
 <g transform="matrix(1 0 0 1 -24 -12)">
  <path d="m 32 26.998 23.5 0 c 1 0 1.5 0.5 1.5 1.5 l 0 3.499 c 0 0.554 -0.474 0.5 -1 0.5 l -24 0 c -0.526 0 -1 -0.446 -1 -1 l 0 -4.499 z" style="fill:#e9a439;fill-opacity:1;stroke:none"/>
  <path d="m 31 29.998 0 2.5 26 0 0 -2.5 z" style="fill:#000;opacity:0.03;fill-opacity:1;stroke:none"/>
  <path d="m 31 28.998 0 -2.5 c 0 -1 0.455 -1.5 0.909 -1.5 l 5.182 0 c 0.455 0 0.909 0.5 0.909 1.5 l 0 2.5 z" style="fill:#e9a439;fill-opacity:1;stroke:none"/>
  <rect ry="1.667" rx="2" y="30.998" x="29" width="30" style="fill:#f5c14e;fill-opacity:1;stroke:none" height="20"/>
  <path d="m 31 30.998 c -1.108 0 -2 0.749 -2 1.672 l 0 1 c 0 -0.923 0.892 -1.672 2 -1.672 l 26 0 c 1.108 0 2 0.749 2 1.672 l 0 -1 c 0 -0.923 -0.892 -1.672 -2 -1.672 l -26 0 z" style="fill:#fff;opacity:0.1;fill-opacity:1;stroke:none"/>
  <path d="m 38 26.998 0 1 1 0 16.5 0 c 1 0 1.5 0.5 1.5 1.5 l 0 -1 c 0 -1 -0.5 -1.5 -1.5 -1.5 l -16.5 0 z" style="fill:#000;opacity:0.05;fill-opacity:1;stroke:none"/>
  <path d="m 31.906 24.998 c -0.455 0 -0.906 0.5 -0.906 1.5 l 0 1 c 0 -1 0.452 -1.5 0.906 -1.5 l 5.188 0 c 0.455 0 0.906 0.5 0.906 1.5 l 0 -1 c 0 -1 -0.452 -1.5 -0.906 -1.5 l -5.188 0 z" style="fill:#000;opacity:0.05;fill-opacity:1;stroke:none"/>
 </g>
 <path d="m 7.908 12.998 c -0.454 0 -0.908 0.5 -0.908 1.5 l 0 0.5 l 0 2 l 0 2 c -1.108 0 -2 0.742 -2 1.666 l 0 16.666 c 0 0.924 0.892 1.668 2 1.668 l 26 0 c 1.108 0 2 -0.744 2 -1.668 l 0 -16.666 c 0 -0.924 -0.892 -1.666 -2 -1.666 l 0 -2.5 c 0 -1 -0.5 -1.5 -1.5 -1.5 l -17.5 0 l 0 -0.5 c 0 -1 -0.453 -1.5 -0.908 -1.5 l -5.184 0 z" style="fill:#000;opacity:0.2;fill-opacity:1;stroke:none"/>
 <path d="m 32 26.998 23.5 0 c 1 0 1.5 0.5 1.5 1.5 l 0 3.499 c 0 0.554 -0.474 0.5 -1 0.5 l -24 0 c -0.526 0 -1 -0.446 -1 -1 l 0 -4.499 z" style="fill:#e9a439;fill-opacity:1;stroke:none"/>
 <path d="m 31 29.998 0 2.5 26 0 0 -2.5 z" style="fill:#000;opacity:0.03;fill-opacity:1;stroke:none"/>
 <path d="m 31 28.998 0 -2.5 c 0 -1 0.455 -1.5 0.909 -1.5 l 5.182 0 c 0.455 0 0.909 0.5 0.909 1.5 l 0 2.5 z" style="fill:#e9a439;fill-opacity:1;stroke:none"/>
 <rect ry="1.667" rx="2" y="30.998" x="29" width="30" style="fill:#f5c14e;fill-opacity:1;stroke:none" height="20"/>
 <path d="m 31 30.998 c -1.108 0 -2 0.749 -2 1.672 l 0 1 c 0 -0.923 0.892 -1.672 2 -1.672 l 26 0 c 1.108 0 2 0.749 2 1.672 l 0 -1 c 0 -0.923 -0.892 -1.672 -2 -1.672 l -26 0 z" style="fill:#fff;opacity:0.1;fill-opacity:1;stroke:none"/>
 <path d="m 38 26.998 0 1 1 0 16.5 0 c 1 0 1.5 0.5 1.5 1.5 l 0 -1 c 0 -1 -0.5 -1.5 -1.5 -1.5 l -16.5 0 z" style="fill:#000;opacity:0.05;fill-opacity:1;stroke:none"/>
 <path d="m 31.906 24.998 c -0.455 0 -0.906 0.5 -0.906 1.5 l 0 1 c 0 -1 0.452 -1.5 0.906 -1.5 l 5.188 0 c 0.455 0 0.906 0.5 0.906 1.5 l 0 -1 c 0 -1 -0.452 -1.5 -0.906 -1.5 l -5.188 0 z" style="fill:#000;opacity:0.05;fill-opacity:1;stroke:none"/>
</svg>
