<svg xmlns="http://www.w3.org/2000/svg" viewBox="0 0 64 64">
 <g transform="translate(0,-988.3622)">
  <path d="m 8 998.36 47 0 c 2 0 3 1 3 2.999 l 0 6.998 c 0 1.108 -0.947 1 -2 1 l -48 0 c -1.053 0 -2 -0.892 -2 -2 l 0 -8.998 z" style="fill:#e9a439;fill-opacity:1;stroke:none"/>
  <path d="m 6 1004.36 0 5 52 0 0 -5 z" style="fill:#000;opacity:0.03;fill-opacity:1;stroke:none"/>
  <path d="m 6 1002.36 0 -5 c 0 -2 0.909 -3 1.818 -3 l 10.364 0 c 0.909 0 1.818 1 1.818 3 l 0 5 z" style="fill:#e9a439;fill-opacity:1;stroke:none"/>
  <rect width="60" height="40" x="2" y="1006.36" rx="4" ry="3.333" style="fill:#f5c14e;fill-opacity:1;stroke:none"/>
  <path d="m 6 1006.36 c -2.216 0 -4 1.497 -4 3.344 l 0 2 c 0 -1.847 1.784 -3.344 4 -3.344 l 52 0 c 2.216 0 4 1.497 4 3.344 l 0 -2 c 0 -1.847 -1.784 -3.344 -4 -3.344 l -52 0 z" style="fill:#fff;opacity:0.1;fill-opacity:1;stroke:none"/>
  <path d="m 20 998.36 0 2 2 0 33 0 c 2 0 3 1 3 3 l 0 -2 c 0 -1.999 -1 -3 -3 -3 l -33 0 z" style="fill:#000;opacity:0.05;fill-opacity:1;stroke:none"/>
  <path d="m 7.813 994.36 c -0.909 0 -1.813 1 -1.813 3 l 0 2 c 0 -2 0.903 -3 1.813 -3 l 10.375 0 c 0.909 0 1.813 1 1.813 3 l 0 -2 c 0 -2 -0.903 -3 -1.813 -3 l -10.375 0 z" style="fill:#000;opacity:0.05;fill-opacity:1;stroke:none"/>
  <path d="m 43 23 c -1.657 0 -3 1.343 -3 3 c 0 1.657 1.343 3 3 3 c 1.657 0 3 -1.343 3 -3 c 0 -1.657 -1.343 -3 -3 -3 z m -11 2 c -2.292 0 -4.43 0.633 -6.25 1.75 l 2.969 2.969 c 1 -0.451 2.111 -0.719 3.281 -0.719 c 4.078 0 7.444 3.056 7.938 7 l 4 0 c -0.162 -1.92 -0.761 -3.725 -1.719 -5.281 c -0.376 0.169 -0.78 0.281 -1.219 0.281 c -1.657 0 -3 -1.343 -3 -3 c 0 -0.439 0.112 -0.843 0.281 -1.219 c -1.827 -1.124 -3.979 -1.781 -6.281 -1.781 z m -7.844 2.969 c -1.879 1.638 -3.266 3.831 -3.844 6.344 c 0.995 0.488 1.688 1.504 1.688 2.688 c 0 1.183 -0.692 2.199 -1.688 2.688 c 0.623 2.707 2.142 5.083 4.25 6.75 l 2.875 -2.875 c -2.075 -1.445 -3.438 -3.842 -3.438 -6.563 c 0 -2.51 1.16 -4.752 2.969 -6.219 l -2.813 -2.813 z m -8.156 6.03 c -1.657 0 -3 1.343 -3 3 c 0 1.657 1.343 3 3 3 c 1.657 0 3 -1.343 3 -3 c 0 -1.657 -1.343 -3 -3 -3 z m 23.938 4 c -0.494 3.944 -3.859 7 -7.938 7 c -0.946 0 -1.845 -0.199 -2.688 -0.5 l -3.03 3.03 c 1.702 0.93 3.643 1.469 5.719 1.469 c 1.513 0 2.948 -0.27 4.281 -0.781 c -0.169 -0.376 -0.281 -0.78 -0.281 -1.219 c 0 -1.657 1.343 -3 3 -3 c 0.804 0 1.524 0.329 2.063 0.844 c 1.62 -1.871 2.659 -4.231 2.875 -6.844 l -4 0 z m 1.063 8 c -1.657 0 -3 1.343 -3 3 c 0 1.657 1.343 3 3 3 c 1.657 0 3 -1.343 3 -3 c 0 -1.657 -1.343 -3 -3 -3 z" transform="translate(0,988.3622)" style="fill:#c79d41;opacity:1;fill-opacity:1;stroke:none"/>
 </g>
</svg>
