<svg xmlns="http://www.w3.org/2000/svg" viewBox="0 0 64 64">
 <g transform="translate(0,-988.3622)">
  <path d="m 8 998.36 47 0 c 2 0 3 1 3 2.999 l 0 6.998 c 0 1.108 -0.947 1 -2 1 l -48 0 c -1.053 0 -2 -0.892 -2 -2 l 0 -8.998 z" style="fill:#388e3c;fill-opacity:1;stroke:none"/>
  <path d="m 6 1004.36 0 5 52 0 0 -5 z" style="fill:#000;opacity:0.03;fill-opacity:1;stroke:none"/>
  <path d="m 6 1002.36 0 -5 c 0 -2 0.909 -3 1.818 -3 l 10.364 0 c 0.909 0 1.818 1 1.818 3 l 0 5 z" style="fill:#388e3c;fill-opacity:1;stroke:none"/>
  <rect width="60" height="40" x="2" y="1006.36" rx="4" ry="3.333" style="fill:#66bb6a;fill-opacity:1;stroke:none"/>
  <path d="m 6 1006.36 c -2.216 0 -4 1.497 -4 3.344 l 0 2 c 0 -1.847 1.784 -3.344 4 -3.344 l 52 0 c 2.216 0 4 1.497 4 3.344 l 0 -2 c 0 -1.847 -1.784 -3.344 -4 -3.344 l -52 0 z" style="fill:#fff;opacity:0.1;fill-opacity:1;stroke:none"/>
  <path d="m 20 998.36 0 2 2 0 33 0 c 2 0 3 1 3 3 l 0 -2 c 0 -1.999 -1 -3 -3 -3 l -33 0 z" style="fill:#000;opacity:0.05;fill-opacity:1;stroke:none"/>
  <path d="m 7.813 994.36 c -0.909 0 -1.813 1 -1.813 3 l 0 2 c 0 -2 0.903 -3 1.813 -3 l 10.375 0 c 0.909 0 1.813 1 1.813 3 l 0 -2 c 0 -2 -0.903 -3 -1.813 -3 l -10.375 0 z" style="fill:#000;opacity:0.05;fill-opacity:1;stroke:none"/>
  <path d="m 32 1013.36 c -1.108 0 -2 0.892 -2 2 l 0 10 -4 0 c -2 0 -2 0 0 2 l 4 4 c 2 2 2 2 4 0 l 4 -4 c 2 -2 2 -2 0 -2 l -4 0 0 -10 c 0 -1.108 -0.892 -2 -2 -2 z m -12.06 14 c -1.069 0 -1.938 0.892 -1.938 2 l 0 7.906 0 0.094 0 0.094 c 0.005 0.105 0.012 0.212 0.031 0.313 0.004 0.021 -0.004 0.042 0 0.062 0.025 0.11 0.084 0.211 0.125 0.313 0.051 0.124 0.112 0.234 0.188 0.344 0.059 0.086 0.115 0.175 0.188 0.25 0.01 0.011 0.021 0.02 0.031 0.031 0.01 0.01 0.021 0.021 0.031 0.031 0.079 0.078 0.159 0.155 0.25 0.219 0.059 0.04 0.124 0.06 0.188 0.094 0.051 0.028 0.103 0.07 0.156 0.094 0.009 0 0.022 0 0.031 0 0.107 0.045 0.197 0.101 0.313 0.125 0.019 0 0.043 0 0.063 0 0.108 0.019 0.231 0.031 0.344 0.031 0.021 0.001 0.041 0 0.063 0 l 0.063 0 23.875 0 0.063 0 c 0.354 0 0.681 -0.098 0.969 -0.25 0.047 -0.026 0.112 -0.033 0.156 -0.062 0.012 -0.01 0.019 -0.023 0.031 -0.031 0.091 -0.063 0.171 -0.141 0.25 -0.219 0.006 -0.01 -0.005 -0.026 0 -0.031 0.005 -0.01 0.026 0.01 0.031 0 0.01 -0.01 0.021 -0.021 0.031 -0.031 0.069 -0.075 0.131 -0.134 0.188 -0.219 0.005 -0.01 -0.005 -0.024 0 -0.031 0.076 -0.11 0.137 -0.219 0.188 -0.344 0.041 -0.102 0.1 -0.203 0.125 -0.313 0.004 -0.021 -0.004 -0.042 0 -0.062 0.02 -0.101 0.027 -0.207 0.031 -0.313 l 0 -0.188 0 -7.906 c 0 -1.108 -0.869 -2 -1.938 -2 l -0.125 0 c -1.069 0 -1.938 0.892 -1.938 2 l 0 6 -20 0 0 -6 c 0 -1.108 -0.869 -2 -1.938 -2 l -0.125 0 z" style="fill:#448647;opacity:1;fill-opacity:1;stroke:none"/>
 </g>
</svg>
