<svg xmlns="http://www.w3.org/2000/svg" viewBox="0 0 64 64">
 <g transform="translate(0,-988.3622)">
  <path d="m 8 998.36 47 0 c 2 0 3 1 3 2.999 l 0 6.998 c 0 1.108 -0.947 1 -2 1 l -48 0 c -1.053 0 -2 -0.892 -2 -2 l 0 -8.998 z" style="fill:#e65100;fill-opacity:1;stroke:none"/>
  <path d="m 6 1004.36 0 5 52 0 0 -5 z" style="fill:#000;opacity:0.03;fill-opacity:1;stroke:none"/>
  <path d="m 6 1002.36 0 -5 c 0 -2 0.909 -3 1.818 -3 l 10.364 0 c 0.909 0 1.818 1 1.818 3 l 0 5 z" style="fill:#e65100;fill-opacity:1;stroke:none"/>
  <rect width="60" height="40" x="2" y="1006.36" rx="4" ry="3.333" style="fill:#f57c00;fill-opacity:1;stroke:none"/>
  <path d="m 6 1006.36 c -2.216 0 -4 1.497 -4 3.344 l 0 2 c 0 -1.847 1.784 -3.344 4 -3.344 l 52 0 c 2.216 0 4 1.497 4 3.344 l 0 -2 c 0 -1.847 -1.784 -3.344 -4 -3.344 l -52 0 z" style="fill:#fff;opacity:0.1;fill-opacity:1;stroke:none"/>
  <path d="m 20 998.36 0 2 2 0 33 0 c 2 0 3 1 3 3 l 0 -2 c 0 -1.999 -1 -3 -3 -3 l -33 0 z" style="fill:#000;opacity:0.05;fill-opacity:1;stroke:none"/>
  <path d="m 7.813 994.36 c -0.909 0 -1.813 1 -1.813 3 l 0 2 c 0 -2 0.903 -3 1.813 -3 l 10.375 0 c 0.909 0 1.813 1 1.813 3 l 0 -2 c 0 -2 -0.903 -3 -1.813 -3 l -10.375 0 z" style="fill:#000;opacity:0.05;fill-opacity:1;stroke:none"/>
  <path d="m 28 1014.36 c -2.216 0 -4 1.747 -4 3.906 l 0 0.188 c 0 0.152 0.045 0.29 0.063 0.438 -0.035 0.151 -0.063 0.306 -0.063 0.469 l 0 11 c -2.209 0 -4 1.791 -4 4 0 2.209 1.791 4 4 4 2.05 0 3.704 -1.544 3.938 -3.531 0.018 -0.155 0.063 -0.309 0.063 -0.469 l 0 -12 12 0 0 8 c -2.209 0 -4 1.791 -4 4 0 2.209 1.791 4 4 4 2.209 0 4 -1.791 4 -4 l 0 -15.906 0 -0.094 c 0 -0.032 0.002 -0.062 0 -0.094 0 -2.159 -1.784 -3.906 -4 -3.906 l -12 0 z" style="fill:#ab5d0b;opacity:1;fill-opacity:1;stroke:none"/>
 </g>
</svg>
