<svg version="1.1" viewBox="0 0 64 64" xmlns="http://www.w3.org/2000/svg">
 <g transform="translate(0,-988.3622)">
  <path d="m8 998.36h47c2 0 3 1 3 2.999v6.998c0 1.108-0.947 1-2 1h-48c-1.053 0-2-0.892-2-2v-8.998z" style="fill:#e65100"/>
  <path d="m6 1004.36v5h52v-5z" style="opacity:.03"/>
  <path d="m6 1002.36v-5c0-2 0.909-3 1.818-3h10.364c0.909 0 1.818 1 1.818 3v5z" style="fill:#e65100"/>
  <rect x="2" y="1006.36" width="60" height="40" rx="4" ry="3.333" style="fill:#f57c00"/>
  <path d="m6 1006.36c-2.216 0-4 1.497-4 3.344v2c0-1.847 1.784-3.344 4-3.344h52c2.216 0 4 1.497 4 3.344v-2c0-1.847-1.784-3.344-4-3.344h-52z" style="fill:#fff;opacity:.1"/>
  <path d="m20 998.36v2h2 33c2 0 3 1 3 3v-2c0-1.999-1-3-3-3h-33z" style="opacity:.05"/>
  <path d="m7.813 994.36c-0.909 0-1.813 1-1.813 3v2c0-2 0.903-3 1.813-3h10.375c0.909 0 1.813 1 1.813 3v-2c0-2-0.903-3-1.813-3h-10.375z" style="opacity:.05"/>
  <path d="m24.484479 1015.3624c-0.183296 0-0.366813 0.1046-0.435261 0.3143l-2.442309 7.6854h5.973509l-2.660678-7.6854c-0.06848-0.2096-0.251966-0.3143-0.435261-0.3143zm3.095939 7.9997 4.419582 14.0002 4.419583-14.0002zm8.839165 0h5.973508l-2.442307-7.6854c-0.136898-0.4194-0.733563-0.4194-0.870524 0zm5.973508 0-10.393091 14.0002 11.622608-8.4037c0.320698-0.2319 0.455057-0.6426 0.332585-1.0177zm-10.393091 14.0002-10.393091-14.0001-1.562102 4.5787c-0.122472 0.3751 0.01189 0.7858 0.332585 1.0177z" style="-inkscape-stroke:none;fill:#ab5d0b;font-variation-settings:normal;stop-color:#000000"/>
 </g>
</svg>
