<svg xmlns="http://www.w3.org/2000/svg" viewBox="0 0 64 64">
 <g transform="translate(0,-988.3622)">
  <path d="m 8 998.36 47 0 c 2 0 3 1 3 2.999 l 0 6.998 c 0 1.108 -0.947 1 -2 1 l -48 0 c -1.053 0 -2 -0.892 -2 -2 l 0 -8.998 z" style="fill:#e65100;fill-opacity:1;stroke:none"/>
  <path d="m 6 1004.36 0 5 52 0 0 -5 z" style="fill:#000;opacity:0.03;fill-opacity:1;stroke:none"/>
  <path d="m 6 1002.36 0 -5 c 0 -2 0.909 -3 1.818 -3 l 10.364 0 c 0.909 0 1.818 1 1.818 3 l 0 5 z" style="fill:#e65100;fill-opacity:1;stroke:none"/>
  <rect width="60" height="40" x="2" y="1006.36" rx="4" ry="3.333" style="fill:#f57c00;fill-opacity:1;stroke:none"/>
  <path d="m 6 1006.36 c -2.216 0 -4 1.497 -4 3.344 l 0 2 c 0 -1.847 1.784 -3.344 4 -3.344 l 52 0 c 2.216 0 4 1.497 4 3.344 l 0 -2 c 0 -1.847 -1.784 -3.344 -4 -3.344 l -52 0 z" style="fill:#fff;opacity:0.1;fill-opacity:1;stroke:none"/>
  <path d="m 20 998.36 0 2 2 0 33 0 c 2 0 3 1 3 3 l 0 -2 c 0 -1.999 -1 -3 -3 -3 l -33 0 z" style="fill:#000;opacity:0.05;fill-opacity:1;stroke:none"/>
  <path d="m 7.813 994.36 c -0.909 0 -1.813 1 -1.813 3 l 0 2 c 0 -2 0.903 -3 1.813 -3 l 10.375 0 c 0.909 0 1.813 1 1.813 3 l 0 -2 c 0 -2 -0.903 -3 -1.813 -3 l -10.375 0 z" style="fill:#000;opacity:0.05;fill-opacity:1;stroke:none"/>
  <path d="m 22.313 27.13 c -0.771 0.024 -1.516 0.089 -2.25 0.344 c -0.231 1.565 0.143 3.188 0.563 4.688 c 1.067 3.44 3.063 6.716 5.969 8.906 c 0.107 0.102 0.258 0.13 0.219 0.313 c -0.015 0.762 -0.002 1.548 0 2.313 c 0.031 1.336 0.821 2.62 2 3.25 c 1.399 0.737 2.81 1.398 4.219 2.125 c 0.648 0.344 1.546 -0.024 1.75 -0.719 c 0.124 -0.457 0.025 -0.94 0.031 -1.406 c -0.005 -0.982 -0.101 -1.968 -0.063 -2.938 c 1.282 -0.158 2.556 -0.784 3.313 -1.844 c 0.674 -0.904 0.926 -2.094 0.844 -3.219 c 1.371 -0.245 2.782 -0.439 4.156 -0.688 c 0.814 -0.164 1.166 -1.212 0.656 -1.875 c -1 -1.268 -2.01 -2.522 -3.03 -3.781 c -0.821 -0.981 -2.11 -1.511 -3.375 -1.344 c -0.858 0.138 -1.716 0.309 -2.563 0.469 c -2.733 -2.605 -6.417 -4.049 -10.125 -4.469 c -0.761 -0.07 -1.542 -0.137 -2.313 -0.125 z m 4.625 2.844 c 0.896 -0.08 1.786 0.16 2.531 0.781 c 1.491 1.242 1.741 3.477 0.5 4.969 c -1.241 1.492 -3.447 1.711 -4.938 0.469 c -1.491 -1.242 -1.741 -3.445 -0.5 -4.938 c 0.621 -0.746 1.511 -1.199 2.406 -1.281 z m 0.406 1.563 c -1.105 0 -2 0.895 -2 2 c 0 1.105 0.895 2 2 2 c 1.105 0 2 -0.895 2 -2 c 0 -1.105 -0.895 -2 -2 -2 z m 13.688 9.188 c -0.217 0.069 -0.404 0.259 -0.438 0.5 c -0.391 1.778 -1.639 3.323 -3.313 4.03 c -0.436 0.138 -0.545 0.745 -0.188 1.031 c 0.734 0.612 1.575 1.298 2.313 1.906 c 0.359 0.305 0.838 -0.013 0.844 -0.469 c -0.012 -0.373 -0.06 -0.788 -0.094 -1.156 c 0.914 0.196 1.814 0.456 2.719 0.656 c 0.426 0.088 0.83 -0.406 0.656 -0.813 c -0.358 -0.858 -0.726 -1.677 -1.094 -2.531 c 0.37 -0.044 0.725 -0.098 1.094 -0.156 c 0.456 -0.09 0.653 -0.734 0.281 -1.031 c -0.739 -0.622 -1.502 -1.227 -2.25 -1.844 c -0.088 -0.07 -0.21 -0.115 -0.313 -0.125 c -0.077 -0.007 -0.146 -0.023 -0.219 0 z" transform="translate(0,988.3622)" style="fill:#ab5d0b;opacity:1;fill-opacity:1;stroke:none;fill-rule:nonzero"/>
 </g>
</svg>
