<svg xmlns="http://www.w3.org/2000/svg" viewBox="0 0 64 64">
 <g transform="translate(0,-988.3622)">
  <path d="m 8 998.36 47 0 c 2 0 3 1 3 2.999 l 0 6.998 c 0 1.108 -0.947 1 -2 1 l -48 0 c -1.053 0 -2 -0.892 -2 -2 l 0 -8.998 z" style="fill:#512da8;fill-opacity:1;stroke:none"/>
  <path d="m 6 1004.36 0 5 52 0 0 -5 z" style="fill:#000;opacity:0.03;fill-opacity:1;stroke:none"/>
  <path d="m 6 1002.36 0 -5 c 0 -2 0.909 -3 1.818 -3 l 10.364 0 c 0.909 0 1.818 1 1.818 3 l 0 5 z" style="fill:#512da8;fill-opacity:1;stroke:none"/>
  <rect width="60" height="40" x="2" y="1006.36" rx="4" ry="3.333" style="fill:#7e57c2;fill-opacity:1;stroke:none"/>
  <path d="m 6 1006.36 c -2.216 0 -4 1.497 -4 3.344 l 0 2 c 0 -1.847 1.784 -3.344 4 -3.344 l 52 0 c 2.216 0 4 1.497 4 3.344 l 0 -2 c 0 -1.847 -1.784 -3.344 -4 -3.344 l -52 0 z" style="fill:#fff;opacity:0.1;fill-opacity:1;stroke:none"/>
  <path d="m 20 998.36 0 2 2 0 33 0 c 2 0 3 1 3 3 l 0 -2 c 0 -1.999 -1 -3 -3 -3 l -33 0 z" style="fill:#000;opacity:0.05;fill-opacity:1;stroke:none"/>
  <path d="m 7.813 994.36 c -0.909 0 -1.813 1 -1.813 3 l 0 2 c 0 -2 0.903 -3 1.813 -3 l 10.375 0 c 0.909 0 1.813 1 1.813 3 l 0 -2 c 0 -2 -0.903 -3 -1.813 -3 l -10.375 0 z" style="fill:#000;opacity:0.05;fill-opacity:1;stroke:none"/>
  <path d="m 41.03 26 c -1.036 0.016 -2.056 0.656 -2.219 1.844 c -0.261 1.901 1.715 1.188 3.281 1.188 c 1.566 0 2.079 3.087 1.688 4.75 c -0.392 1.663 -4.557 5.585 -13.969 1.656 c -7.749 -3.235 -11.617 1.07 -11.813 1.156 c 0.733 6.426 6.714 13.406 13.969 13.406 c 7.75 0 14.03 -7.665 14.03 -14.719 c 0 -0.81 -0.092 -1.607 -0.25 -2.375 c -0.144 -0.388 -0.3 -0.803 -0.406 -1.156 c -0.19 -0.633 -0.41 -1.16 -0.594 -1.656 c -0.008 -0.016 0.008 -0.046 0 -0.063 c -0.742 -1.5 -1.777 -2.844 -3.063 -3.969 c -0.006 -0.013 -0.025 0.014 -0.031 0 c -0.201 -0.047 -0.418 -0.064 -0.625 -0.063 z m -10.03 2 c -0.552 0 -1 0.448 -1 1 c 0 0.552 0.448 1 1 1 c 0.552 0 1 -0.448 1 -1 c 0 -0.552 -0.448 -1 -1 -1 z m 5 2 c -1.105 0 -2 0.895 -2 2 c 0 1.105 0.895 2 2 2 c 1.105 0 2 -0.895 2 -2 c 0 -1.105 -0.895 -2 -2 -2 z" transform="translate(0,988.3622)" style="fill:#54398d;opacity:1;fill-opacity:1;color:#000"/>
 </g>
</svg>
