<svg xmlns="http://www.w3.org/2000/svg" viewBox="0 0 64 64">
 <g transform="translate(0,-988.3622)">
  <path d="m 8 998.36 47 0 c 2 0 3 1 3 2.999 l 0 6.998 c 0 1.108 -0.947 1 -2 1 l -48 0 c -1.053 0 -2 -0.892 -2 -2 l 0 -8.998 z" style="fill:#ffb300;fill-opacity:1;stroke:none"/>
  <path d="m 6 1004.36 0 5 52 0 0 -5 z" style="fill:#000;opacity:0.03;fill-opacity:1;stroke:none"/>
  <path d="m 6 1002.36 0 -5 c 0 -2 0.909 -3 1.818 -3 l 10.364 0 c 0.909 0 1.818 1 1.818 3 l 0 5 z" style="fill:#ffb300;fill-opacity:1;stroke:none"/>
  <rect width="60" height="40" x="2" y="1006.36" rx="4" ry="3.333" style="fill:#ffca28;fill-opacity:1;stroke:none"/>
  <path d="m 6 1006.36 c -2.216 0 -4 1.497 -4 3.344 l 0 2 c 0 -1.847 1.784 -3.344 4 -3.344 l 52 0 c 2.216 0 4 1.497 4 3.344 l 0 -2 c 0 -1.847 -1.784 -3.344 -4 -3.344 l -52 0 z" style="fill:#fff;opacity:0.1;fill-opacity:1;stroke:none"/>
  <path d="m 20 998.36 0 2 2 0 33 0 c 2 0 3 1 3 3 l 0 -2 c 0 -1.999 -1 -3 -3 -3 l -33 0 z" style="fill:#000;opacity:0.05;fill-opacity:1;stroke:none"/>
  <path d="m 7.813 994.36 c -0.909 0 -1.813 1 -1.813 3 l 0 2 c 0 -2 0.903 -3 1.813 -3 l 10.375 0 c 0.909 0 1.813 1 1.813 3 l 0 -2 c 0 -2 -0.903 -3 -1.813 -3 l -10.375 0 z" style="fill:#000;opacity:0.05;fill-opacity:1;stroke:none"/>
  <path d="m 30.11 1014.36 c -0.666 0 -1.222 0.529 -1.222 1.195 l 0 1.556 c -0.421 0.143 -0.829 0.305 -1.222 0.5 l -1.083 -1.083 c -0.471 -0.471 -1.224 -0.471 -1.694 0 l -2.722 2.694 c -0.471 0.471 -0.471 1.224 0 1.694 l 1.083 1.083 c -0.199 0.4 -0.356 0.821 -0.5 1.25 l -1.528 0 c -0.666 0 -1.222 0.529 -1.222 1.195 l 0 3.833 c 0 0.666 0.557 1.195 1.222 1.195 l 1.528 0 c 0.144 0.429 0.301 0.85 0.5 1.25 l -1.083 1.083 c -0.471 0.471 -0.471 1.224 0 1.694 l 2.722 2.694 c 0.471 0.47 1.224 0.47 1.694 0 l 1.083 -1.083 c 0.393 0.195 0.801 0.358 1.222 0.5 l 0 1.555 c 0 0.666 0.557 1.195 1.222 1.195 l 3.806 0 c 0.666 0 1.194 -0.529 1.194 -1.195 l 0 -1.555 c 0.429 -0.144 0.85 -0.301 1.25 -0.5 l 1.083 1.083 c 0.471 0.47 1.224 0.47 1.694 0 l 2.722 -2.694 c 0.471 -0.471 0.471 -1.224 0 -1.694 l -1.111 -1.111 c 0.195 -0.393 0.359 -0.801 0.5 -1.222 l 1.556 0 c 0.666 0 1.194 -0.529 1.194 -1.195 l 0 -3.833 c 0 -0.665 -0.529 -1.195 -1.194 -1.195 l -1.556 0 c -0.141 -0.421 -0.305 -0.829 -0.5 -1.222 l 1.111 -1.111 c 0.471 -0.471 0.471 -1.224 0 -1.694 l -2.722 -2.694 c -0.471 -0.471 -1.224 -0.471 -1.694 0 l -1.083 1.083 c -0.4 -0.2 -0.821 -0.356 -1.25 -0.5 l 0 -1.556 c 0 -0.666 -0.529 -1.195 -1.194 -1.195 l -3.806 0 z m 1.889 8.889 c 1.717 0 3.111 1.394 3.111 3.111 0 1.717 -1.394 3.111 -3.111 3.111 -1.717 0 -3.111 -1.394 -3.111 -3.111 0 -1.717 1.394 -3.111 3.111 -3.111 z" style="fill:#c79a18;opacity:1;fill-opacity:1;display:block;color:#000"/>
 </g>
</svg>
