<svg xmlns="http://www.w3.org/2000/svg" viewBox="0 0 48 48">
 <defs>
  <linearGradient id="linearGradient5286" gradientUnits="userSpaceOnUse" gradientTransform="translate(-48.000001,0.00221547)" x1="1" x2="47">
   <stop style="stop-color:#b44732;stop-opacity:1"/>
   <stop offset="1" style="stop-color:#c44e36;stop-opacity:1"/>
  </linearGradient>
 </defs>
 <g>
  <path d="m 1,43 0,0.25 c 0,2.216 1.784,4 4,4 l 38,0 c 2.216,0 4,-1.784 4,-4 L 47,43 c 0,2.216 -1.784,4 -4,4 L 5,47 C 2.784,47 1,45.216 1,43 z m 0,0.5 0,0.5 c 0,2.216 1.784,4 4,4 l 38,0 c 2.216,0 4,-1.784 4,-4 l 0,-0.5 c 0,2.216 -1.784,4 -4,4 l -38,0 c -2.216,0 -4,-1.784 -4,-4 z" style="opacity:0.02"/>
  <path d="m 1 43.25 0 0.25 c 0 2.216 1.784 4 4 4 l 38 0 c 2.216 0 4 -1.784 4 -4 l 0 -0.25 c 0 2.216 -1.784 4 -4 4 l -38 0 c -2.216 0 -4 -1.784 -4 -4 z" style="opacity:0.05"/>
  <path d="m 1,43 0,0.25 c 0,2.216 1.784,4 4,4 l 38,0 c 2.216,0 4,-1.784 4,-4 L 47,43 c 0,2.216 -1.784,4 -4,4 L 5,47 C 2.784,47 1,45.216 1,43 z" style="opacity:0.1"/>
 </g>
 <rect transform="matrix(0,-1,1,0,0,0)" rx="4" y="1" x="-47" height="46" width="46" style="fill:url(#linearGradient5286);fill-opacity:1"/>
 <g>
  <g transform="translate(0,-1004.3622)">
   <path d="m 1 1043.36 0 4 c 0 2.216 1.784 4 4 4 l 38 0 c 2.216 0 4 -1.784 4 -4 l 0 -4 c 0 2.216 -1.784 4 -4 4 l -38 0 c -2.216 0 -4 -1.784 -4 -4 z" style="opacity:0.1"/>
  </g>
 </g>
 <g transform="matrix(3.543307,0,0,3.543307,1.752231e-7,1.0000001)" style="fill:#000;opacity:0.1;fill-opacity:1">
  <path d="m 3.387 4.233 0 3.951 6.491 0 0 -1.976 -0.282 -1.693 -2.54 0 -0.282 -0.564 -3.104 0 c -0.141 0 -0.282 0.141 -0.282 0.282 z" style="fill:#000"/>
  <path d="m 10.16 4.817 0 4.215 -6.773 0 0 -3.951 3.387 0 0.282 -0.564 2.822 0 c 0.141 0 0.282 0.151 0.282 0.301 z" style="fill:#000"/>
 </g>
 <path d="m 12 15 0 14 23 0 0 -7 l -1 -6 -9 0 -1 -2 -11 0 c -0.5 0 -1 0.5 -1 1 z" style="fill:#ff8f00"/>
 <rect width="11" height="4" x="14" y="17" style="fill:#fffdf0"/>
 <path d="m 36 17.07 0 14.933 l -24 0 l 0 -14 12 0 1 -2 10 0 c 0.5 0 1 0.533 1 1.067 z" style="fill:#ffca28"/>
 <path d="m 24 17.98 -0.715 1.641 0.191 0.434 c -1.152 0.078 -0.926 0.313 -0.926 0.313 0 0 -1.328 0.246 -1.328 0.43 0 0.012 0 0.008 0 0.016 -0.266 0.129 -0.527 0.309 -0.777 0.504 -3.34 4.488 0.234 5.527 -0.559 8.133 -0.172 0.566 -0.891 1.527 -0.891 1.527 0 0 1.449 0.18 2.047 -1.516 0.484 -1.371 -1.156 -4.129 0.066 -5.363 1.734 -1.75 3.02 1.855 2.477 2.355 -0.551 0.5 -0.414 0.637 -0.414 0.637 l 0.82 1.656 0.816 -1.656 c 0 0 0.141 -0.137 -0.41 -0.637 -0.547 -0.5 0.742 -4.109 2.473 -2.355 1.227 1.238 -0.418 3.992 0.07 5.363 0.598 1.695 2.047 1.516 2.047 1.516 0 0 -0.715 -0.969 -0.891 -1.527 -0.793 -2.602 2.77 -3.641 -0.566 -8.133 -0.25 -0.188 -0.512 -0.371 -0.773 -0.5 0 -0.008 0 -0.004 0 -0.016 0 -0.188 -1.324 -0.43 -1.324 -0.43 0 0 0.227 -0.234 -0.93 -0.313 l 0.188 -0.434 -0.711 -1.641 m 0.016 -0.004" style="fill:#403018;opacity:0.4;fill-rule:nonzero"/>
</svg>
