<svg width="48" height="48" version="1.1" viewBox="0 0 13.547 13.547" xmlns="http://www.w3.org/2000/svg">
 <defs>
  <linearGradient id="bg" x1="1" x2="47" gradientTransform="matrix(.28222 0 0 .28222 -13.547 .00062515)" gradientUnits="userSpaceOnUse">
   <stop style="stop-color:#6e6196" offset="0"/>
   <stop style="stop-color:#847baf" offset="1"/>
  </linearGradient>
 </defs>
 <g transform="scale(.28222)">
  <path d="m1 43v0.25c0 2.216 1.784 4 4 4h38c2.216 0 4-1.784 4-4v-0.25c0 2.216-1.784 4-4 4h-38c-2.216 0-4-1.784-4-4zm0 0.5v0.5c0 2.216 1.784 4 4 4h38c2.216 0 4-1.784 4-4v-0.5c0 2.216-1.784 4-4 4h-38c-2.216 0-4-1.784-4-4z" style="opacity:.02"/>
  <path d="m1 43.25v0.25c0 2.216 1.784 4 4 4h38c2.216 0 4-1.784 4-4v-0.25c0 2.216-1.784 4-4 4h-38c-2.216 0-4-1.784-4-4z" style="opacity:.05"/>
  <path d="m1 43v0.25c0 2.216 1.784 4 4 4h38c2.216 0 4-1.784 4-4v-0.25c0 2.216-1.784 4-4 4h-38c-2.216 0-4-1.784-4-4z" style="opacity:.1"/>
 </g>
 <rect transform="rotate(-90)" x="-13.264" y=".282" width="12.982" height="12.982" rx="1.129" style="fill:url(#bg)"/>
 <g transform="scale(.28222)">
  <g transform="translate(0 -1004.4)">
   <path d="m1 1043.4v4c0 2.216 1.784 4 4 4h38c2.216 0 4-1.784 4-4v-4c0 2.216-1.784 4-4 4h-38c-2.216 0-4-1.784-4-4z" style="opacity:.1"/>
  </g>
 </g>
 <g transform="translate(5e-8 .28222)" style="opacity:.1">
  <path d="m3.387 4.233v3.951h6.491v-1.976l-0.282-1.693h-2.54l-0.282-0.564h-3.104c-0.141 0-0.282 0.141-0.282 0.282z"/>
  <path d="m10.16 8.7489v0.28311h-6.773l-3.333e-4 -0.28311z"/>
 </g>
 <path d="m3.387 4.233-3.333e-4 0.847 3.6689 0.28222 4.443e-4 -0.84722-0.282-0.564h-3.104c-0.141 0-0.282 0.141-0.282 0.282z" style="fill:#ff8f00"/>
 <rect x="3.951" y="4.798" width="3.104" height="1.129" style="fill:#fffdf0"/>
 <path d="m10.16 4.817v4.215h-6.773v-3.951h3.387l0.282-0.564h2.822c0.141 0 0.282 0.151 0.282 0.301z" style="fill:#ffca28"/>
</svg>
