<?xml version="1.0" encoding="UTF-8" standalone="no"?>
<svg
   xmlns:dc="http://purl.org/dc/elements/1.1/"
   xmlns:cc="http://creativecommons.org/ns#"
   xmlns:rdf="http://www.w3.org/1999/02/22-rdf-syntax-ns#"
   xmlns:svg="http://www.w3.org/2000/svg"
   xmlns="http://www.w3.org/2000/svg"
   xmlns:xlink="http://www.w3.org/1999/xlink"
   xmlns:sodipodi="http://sodipodi.sourceforge.net/DTD/sodipodi-0.dtd"
   xmlns:inkscape="http://www.inkscape.org/namespaces/inkscape"
   viewBox="0 0 48 48"
   id="svg2"
   version="1.1"
   inkscape:version="0.91 r13725"
   sodipodi:docname="securefx.svg">
  <metadata
     id="metadata76">
    <rdf:RDF>
      <cc:Work
         rdf:about="">
        <dc:format>image/svg+xml</dc:format>
        <dc:type
           rdf:resource="http://purl.org/dc/dcmitype/StillImage" />
      </cc:Work>
    </rdf:RDF>
  </metadata>
  <sodipodi:namedview
     pagecolor="#ffffff"
     bordercolor="#666666"
     borderopacity="1"
     objecttolerance="10"
     gridtolerance="10"
     guidetolerance="10"
     inkscape:pageopacity="0"
     inkscape:pageshadow="2"
     inkscape:window-width="1260"
     inkscape:window-height="962"
     id="namedview74"
     showgrid="false"
     inkscape:zoom="6.9532167"
     inkscape:cx="43.244417"
     inkscape:cy="12.635142"
     inkscape:window-x="10"
     inkscape:window-y="52"
     inkscape:window-maximized="0"
     inkscape:current-layer="svg2">
    <inkscape:grid
       type="xygrid"
       id="grid4234" />
  </sodipodi:namedview>
  <defs
     id="defs4">
    <linearGradient
       inkscape:collect="always"
       id="linearGradient4174">
      <stop
         style="stop-color:#77a4ff;stop-opacity:1;"
         offset="0"
         id="stop4176" />
      <stop
         style="stop-color:#8bb1ff;stop-opacity:1"
         offset="1"
         id="stop4178" />
    </linearGradient>
    <linearGradient
       inkscape:collect="always"
       xlink:href="#linearGradient4174"
       id="linearGradient4344"
       x1="-47"
       y1="24"
       x2="-1"
       y2="24"
       gradientUnits="userSpaceOnUse" />
  </defs>
  <g
     id="g11">
    <path
       inkscape:connector-curvature="0"
       d="m 1,43 0,0.25 c 0,2.216 1.784,4 4,4 l 38,0 c 2.216,0 4,-1.784 4,-4 L 47,43 c 0,2.216 -1.784,4 -4,4 L 5,47 C 2.784,47 1,45.216 1,43 Z m 0,0.5 0,0.5 c 0,2.216 1.784,4 4,4 l 38,0 c 2.216,0 4,-1.784 4,-4 l 0,-0.5 c 0,2.216 -1.784,4 -4,4 l -38,0 c -2.216,0 -4,-1.784 -4,-4 z"
       style="opacity:0.02000002"
       id="path13" />
    <path
       inkscape:connector-curvature="0"
       d="m 1,43.25 0,0.25 c 0,2.216 1.784,4 4,4 l 38,0 c 2.216,0 4,-1.784 4,-4 l 0,-0.25 c 0,2.216 -1.784,4 -4,4 l -38,0 c -2.216,0 -4,-1.784 -4,-4 z"
       style="opacity:0.05"
       id="path15" />
    <path
       inkscape:connector-curvature="0"
       d="m 1,43 0,0.25 c 0,2.216 1.784,4 4,4 l 38,0 c 2.216,0 4,-1.784 4,-4 L 47,43 c 0,2.216 -1.784,4 -4,4 L 5,47 C 2.784,47 1,45.216 1,43 Z"
       style="opacity:0.1"
       id="path17" />
  </g>
  <rect
     transform="matrix(0,-1,1,0,0,0)"
     rx="4"
     y="1"
     x="-47"
     height="46"
     width="46"
     style="fill:url(#linearGradient4344);fill-opacity:1.0"
     id="rect19" />
  <g
     id="g21">
    <g
       transform="translate(0,-1004.3622)"
       id="g23">
      <path
         inkscape:connector-curvature="0"
         d="m 1,1043.36 0,4 c 0,2.216 1.784,4 4,4 l 38,0 c 2.216,0 4,-1.784 4,-4 l 0,-4 c 0,2.216 -1.784,4 -4,4 l -38,0 c -2.216,0 -4,-1.784 -4,-4 z"
         style="opacity:0.1"
         id="path25" />
    </g>
  </g>
  <g
     id="g29"
     style="opacity:0.1;fill:#000000;fill-opacity:1"
     transform="matrix(3.543307,0,0,3.543307,-9.997539e-4,0.992)">
    <path
       id="path31"
       style="stroke:none"
       transform="matrix(0.28222223,0,0,0.28222223,-0.28222231,-0.56444449)"
       d="m 14,16 c -0.5,0 -1,0.498 -1,0.998 l -0.002,0 c 0,5.669 0,11.337 0,17.01 l 23.998,0 0,-14.932 c 0,-0.531 -0.5,-1.066 -1,-1.066 l -0.996,0 c -2.987,-0.016 -6,-0.008 -9,-0.008 l -1,-1.998 z"
       inkscape:connector-curvature="0" />
  </g>
  <path
     inkscape:connector-curvature="0"
     d="m 12,14.993574 0,13.999606 22.999606,0 0,-7.001574 -0.999212,-5.998819 -9,0 -0.999213,-1.998425 -10.998425,0 c -0.499606,0 -0.999212,0.499606 -0.999212,0.999212 z"
     style="fill:#ff8f00;fill-opacity:1;stroke:none"
     id="path35" />
  <rect
     y="16.991999"
     x="13.998427"
     height="4.0003934"
     width="10.998425"
     style="fill:#fffdf0;fill-opacity:1;stroke:none"
     id="rect37" />
  <path
     inkscape:connector-curvature="0"
     d="m 35.998819,17.059322 0,14.935039 -23.998819,0 0,-13.999606 12.001181,0 0.999213,-1.998425 9.999212,0 c 0.499606,0 0.999213,0.53504 0.999213,1.066536 z"
     style="fill:#ffca28;fill-opacity:1;stroke:none"
     id="path39" />
  <g
     transform="translate(3.0003615,3)"
     style="opacity:0.1;fill:#000000"
     id="g56">
    <path
       d="m 28,18 a 5,5 0 0 0 -5,5 5,5 0 0 0 5,5 5,5 0 0 0 5,-5 5,5 0 0 0 -5,-5 z m 0,1 A 3.5,3.5 0 0 1 31.5,22.5 3.5,3.5 0 0 1 28,26 3.5,3.5 0 0 1 24.5,22.5 3.5,3.5 0 0 1 28,19"
       style="fill-opacity:1"
       id="path58"
       inkscape:connector-curvature="0" />
    <rect
       width="14"
       height="10"
       x="21"
       y="23"
       rx="1.1670001"
       style="fill-opacity:1"
       id="rect60" />
  </g>
  <g
     transform="translate(3,2)"
     id="g62">
    <path
       d="m 28,18 a 5,5 0 0 0 -5,5 5,5 0 0 0 5,5 5,5 0 0 0 5,-5 5,5 0 0 0 -5,-5 z m 0,1 A 3.5,3.5 0 0 1 31.5,22.5 3.5,3.5 0 0 1 28,26 3.5,3.5 0 0 1 24.5,22.5 3.5,3.5 0 0 1 28,19"
       style="fill:#b3b3b3;fill-opacity:1"
       id="path64"
       inkscape:connector-curvature="0" />
    <rect
       rx="1.1670001"
       y="23"
       x="21"
       height="10"
       width="14"
       style="fill:#b3b3b3;fill-opacity:1"
       id="rect66" />
    <circle
       r="4"
       cy="28"
       cx="28"
       style="fill:#808080;fill-opacity:1"
       id="circle68" />
    <rect
       y="28"
       x="27"
       height="3"
       width="2"
       style="fill:#333333;fill-opacity:1"
       id="rect70" />
    <circle
       r="2"
       cy="27"
       cx="28"
       style="fill:#333333;fill-opacity:1"
       id="circle72" />
  </g>
</svg>
