<svg xmlns="http://www.w3.org/2000/svg" width="48" viewBox="0 0 13.546667 13.546667" height="48">
 <defs>
  <linearGradient id="linearGradient5286" gradientUnits="userSpaceOnUse" gradientTransform="matrix(0.28222223,0,0,0.28222223,-13.546667,6.2502911e-4)" x1="1" x2="47">
   <stop style="stop-color:#6e6196;stop-opacity:1"/>
   <stop offset="1" style="stop-color:#847baf;stop-opacity:1"/>
  </linearGradient>
 </defs>
 <g>
  <g transform="scale(0.28222223,0.28222223)">
   <path d="m 1,43 0,0.25 c 0,2.216 1.784,4 4,4 l 38,0 c 2.216,0 4,-1.784 4,-4 L 47,43 c 0,2.216 -1.784,4 -4,4 L 5,47 C 2.784,47 1,45.216 1,43 z m 0,0.5 0,0.5 c 0,2.216 1.784,4 4,4 l 38,0 c 2.216,0 4,-1.784 4,-4 l 0,-0.5 c 0,2.216 -1.784,4 -4,4 l -38,0 c -2.216,0 -4,-1.784 -4,-4 z" style="opacity:0.02"/>
   <path d="m 1 43.25 0 0.25 c 0 2.216 1.784 4 4 4 l 38 0 c 2.216 0 4 -1.784 4 -4 l 0 -0.25 c 0 2.216 -1.784 4 -4 4 l -38 0 c -2.216 0 -4 -1.784 -4 -4 z" style="opacity:0.05"/>
   <path d="m 1,43 0,0.25 c 0,2.216 1.784,4 4,4 l 38,0 c 2.216,0 4,-1.784 4,-4 L 47,43 c 0,2.216 -1.784,4 -4,4 L 5,47 C 2.784,47 1,45.216 1,43 z" style="opacity:0.1"/>
  </g>
  <rect transform="matrix(0,-1,1,0,0,0)" rx="1.129" y="0.282" x="-13.264" height="12.982" width="12.982" style="fill:url(#linearGradient5286);fill-opacity:1"/>
  <g transform="scale(0.28222223,0.28222223)">
   <g transform="translate(0,-1004.3622)">
    <path d="m 1 1043.36 0 4 c 0 2.216 1.784 4 4 4 l 38 0 c 2.216 0 4 -1.784 4 -4 l 0 -4 c 0 2.216 -1.784 4 -4 4 l -38 0 c -2.216 0 -4 -1.784 -4 -4 z" style="opacity:0.1"/>
   </g>
  </g>
  <g transform="translate(0.28222221,0.28222226)" style="fill:#000;opacity:0.1;fill-opacity:1">
   <path d="m 3.387 4.233 0 3.951 6.491 0 0 -1.976 -0.282 -1.693 -2.54 0 -0.282 -0.564 -3.104 0 c -0.141 0 -0.282 0.141 -0.282 0.282 z" style="fill:#000;stroke:none"/>
   <path d="m 10.16 4.817 0 4.215 -6.773 0 0 -3.951 3.387 0 0.282 -0.564 2.822 0 c 0.141 0 0.282 0.151 0.282 0.301 z" style="fill:#000"/>
  </g>
  <path d="m 3.387 4.233 0 3.951 6.491 0 0 -1.976 -0.282 -1.693 -2.54 0 -0.282 -0.564 -3.104 0 c -0.141 0 -0.282 0.141 -0.282 0.282 z" style="fill:#ff8f00"/>
  <rect width="3.104" height="1.129" x="3.951" y="4.798" style="fill:#fffdf0"/>
  <path d="m 10.16 4.817 0 4.215 -6.773 0 0 -3.951 3.387 0 0.282 -0.564 2.822 0 c 0.141 0 0.282 0.151 0.282 0.301 z" style="fill:#ffca28"/>
  <path d="m 5.793 5.644 c -0.146 0 -0.287 0.02 -0.421 0.054 0 -0.002 0 -0.003 0 -0.006 -0.15 0.039 -0.264 0.09 -0.286 0.1 0 0.003 0 0.006 0 0.001 -0.0001 0 -0.003 0.0001 -0.006 0.002 0.016 0.122 0.038 0.243 0.049 0.299 0.119 0.504 0.464 0.919 0.919 1.14 -0.002 0.034 -0.006 0.067 -0.006 0.102 0 0.465 0.188 0.886 0.489 1.193 -0.002 0.0001 0.002 0.002 0 0.003 0.087 0.082 0.205 0.176 0.23 0.195 0.006 0.003 0.017 0.006 0.02 0.011 0.1 -0.088 0.19 -0.184 0.213 -0.209 0.301 -0.308 0.489 -0.728 0.489 -1.193 0 -0.032 -0.006 -0.063 -0.006 -0.095 0.464 -0.214 0.813 -0.629 0.938 -1.134 -0.002 -0.0001 0.0001 -0.002 0 -0.003 0.031 -0.135 0.053 -0.282 0.053 -0.298 -0.002 -0.0001 -0.006 -0.002 -0.008 -0.003 0 -0.008 0 0.0001 0 -0.006 -0.064 -0.029 -0.21 -0.078 -0.287 -0.104 0 0.006 0 -0.002 0 0.003 -0.14 -0.038 -0.288 -0.061 -0.438 -0.061 -0.363 0 -0.699 0.117 -0.974 0.312 -0.106 0.08 -0.182 0.149 -0.231 0.195 -0.006 0.006 -0.009 0.012 -0.014 0.018 -0.159 0.165 -0.283 0.363 -0.365 0.581 0.089 0.053 0.178 0.097 0.257 0.135 0.066 -0.192 0.175 -0.365 0.313 -0.51 0.0001 -0.002 0.006 -0.008 0.009 -0.011 0.006 -0.008 0.013 -0.017 0.023 -0.025 0.002 -0.003 0.006 -0.003 0.009 -0.006 0.098 -0.086 0.175 -0.142 0.233 -0.18 0.029 -0.018 0.058 -0.035 0.088 -0.051 0.195 -0.104 0.415 -0.163 0.652 -0.163 0.141 0 0.279 0.021 0.408 0.061 c -0.086 0.412 -0.35 0.756 -0.711 0.949 -0.056 -0.238 -0.161 -0.46 -0.307 -0.647 -0.121 0.085 -0.225 0.171 -0.233 0.177 c 0.119 0.152 0.207 0.33 0.256 0.523 0 0 0.006 0.02 0.014 0.057 0.003 0.018 0.006 0.029 0.013 0.064 0.018 0.088 0.016 0.19 0.014 0.23 0 0.008 0 0.029 0 0.029 l -0.003 0.005 c -0.011 0.381 -0.172 0.723 -0.427 0.97 -0.264 -0.254 -0.429 -0.612 -0.43 -1.01 c 0.141 0.039 0.289 0.061 0.442 0.061 0.083 0 0.166 -0.009 0.245 -0.021 0.005 -0.029 0.006 -0.062 0.009 -0.111 0.003 -0.088 -0.008 -0.149 -0.017 -0.183 -0.077 0.013 -0.157 0.02 -0.236 0.02 -0.142 0 -0.28 -0.021 -0.41 -0.06 -0.103 -0.021 -0.2 -0.072 -0.27 -0.116 -0.04 -0.024 -0.066 -0.042 -0.081 -0.051 -0.31 -0.201 -0.538 -0.517 -0.615 -0.893 0.125 -0.036 0.256 -0.057 0.393 -0.057 0.2 0 0.387 0.042 0.559 0.118 0.084 -0.079 0.185 -0.159 0.243 -0.203 c -0.238 -0.13 -0.511 -0.206 -0.801 -0.206 m 0.002 0.0001" style="fill:#6a6034;opacity:0.6;fill-rule:nonzero"/>
 </g>
</svg>
