<?xml version="1.0" encoding="UTF-8" standalone="no"?>
<svg
   xmlns:dc="http://purl.org/dc/elements/1.1/"
   xmlns:cc="http://creativecommons.org/ns#"
   xmlns:rdf="http://www.w3.org/1999/02/22-rdf-syntax-ns#"
   xmlns:svg="http://www.w3.org/2000/svg"
   xmlns="http://www.w3.org/2000/svg"
   xmlns:sodipodi="http://sodipodi.sourceforge.net/DTD/sodipodi-0.dtd"
   xmlns:inkscape="http://www.inkscape.org/namespaces/inkscape"
   viewBox="0 0 48 48"
   id="svg2"
   version="1.1"
   inkscape:version="0.48.5 r10040"
   width="100%"
   height="100%"
   sodipodi:docname="accessibility-directory.svg">
  <metadata
     id="metadata85">
    <rdf:RDF>
      <cc:Work
         rdf:about="">
        <dc:format>image/svg+xml</dc:format>
        <dc:type
           rdf:resource="http://purl.org/dc/dcmitype/StillImage" />
      </cc:Work>
    </rdf:RDF>
  </metadata>
  <sodipodi:namedview
     pagecolor="#ffffff"
     bordercolor="#666666"
     borderopacity="1"
     objecttolerance="10"
     gridtolerance="10"
     guidetolerance="10"
     inkscape:pageopacity="0"
     inkscape:pageshadow="2"
     inkscape:window-width="1280"
     inkscape:window-height="998"
     id="namedview83"
     showgrid="true"
     inkscape:zoom="9.8333333"
     inkscape:cx="27.643004"
     inkscape:cy="13.954773"
     inkscape:window-x="0"
     inkscape:window-y="0"
     inkscape:window-maximized="1"
     inkscape:current-layer="svg2">
    <inkscape:grid
       type="xygrid"
       id="grid3145" />
  </sodipodi:namedview>
  <defs
     id="defs4">
    <linearGradient
       id="linearGradient3764"
       x1="1"
       x2="47"
       gradientUnits="userSpaceOnUse"
       gradientTransform="matrix(0,-1,1,0,-1.5e-6,47.999998)">
      <stop
         stop-color="#3e6d94"
         stop-opacity="1"
         id="stop7" />
      <stop
         offset="1"
         stop-color="#4476a2"
         stop-opacity="1"
         id="stop9" />
    </linearGradient>
    <clipPath
       id="clipPath-472807161">
      <g
         transform="translate(0,-1004.3622)"
         id="g12">
        <path
           d="m -24 13 c 0 1.105 -0.672 2 -1.5 2 -0.828 0 -1.5 -0.895 -1.5 -2 0 -1.105 0.672 -2 1.5 -2 0.828 0 1.5 0.895 1.5 2 z"
           transform="matrix(15.333333,0,0,11.5,414.99999,878.8622)"
           fill="#1890d0"
           id="path14" />
      </g>
    </clipPath>
    <clipPath
       id="clipPath-484673952">
      <g
         transform="translate(0,-1004.3622)"
         id="g17">
        <path
           d="m -24 13 c 0 1.105 -0.672 2 -1.5 2 -0.828 0 -1.5 -0.895 -1.5 -2 0 -1.105 0.672 -2 1.5 -2 0.828 0 1.5 0.895 1.5 2 z"
           transform="matrix(15.333333,0,0,11.5,414.99999,878.8622)"
           fill="#1890d0"
           id="path19" />
      </g>
    </clipPath>
  </defs>
  <g
     id="g21">
    <path
       d="m 36.31 5 c 5.859 4.062 9.688 10.831 9.688 18.5 c 0 12.426 -10.07 22.5 -22.5 22.5 c -7.669 0 -14.438 -3.828 -18.5 -9.688 c 1.037 1.822 2.306 3.499 3.781 4.969 c 4.085 3.712 9.514 5.969 15.469 5.969 c 12.703 0 23 -10.298 23 -23 c 0 -5.954 -2.256 -11.384 -5.969 -15.469 c -1.469 -1.475 -3.147 -2.744 -4.969 -3.781 z m 4.969 3.781 c 3.854 4.113 6.219 9.637 6.219 15.719 c 0 12.703 -10.297 23 -23 23 c -6.081 0 -11.606 -2.364 -15.719 -6.219 c 4.16 4.144 9.883 6.719 16.219 6.719 c 12.703 0 23 -10.298 23 -23 c 0 -6.335 -2.575 -12.06 -6.719 -16.219 z"
       opacity="0.05"
       id="path23" />
    <path
       d="m 41.28 8.781 c 3.712 4.085 5.969 9.514 5.969 15.469 c 0 12.703 -10.297 23 -23 23 c -5.954 0 -11.384 -2.256 -15.469 -5.969 c 4.113 3.854 9.637 6.219 15.719 6.219 c 12.703 0 23 -10.298 23 -23 c 0 -6.081 -2.364 -11.606 -6.219 -15.719 z"
       opacity="0.1"
       id="path25" />
    <path
       d="m 31.25 2.375 c 8.615 3.154 14.75 11.417 14.75 21.13 c 0 12.426 -10.07 22.5 -22.5 22.5 c -9.708 0 -17.971 -6.135 -21.12 -14.75 a 23 23 0 0 0 44.875 -7 a 23 23 0 0 0 -16 -21.875 z"
       opacity="0.2"
       id="path27" />
  </g>
  <g
     id="g29">
    <path
       d="m 24 1 c 12.703 0 23 10.297 23 23 c 0 12.703 -10.297 23 -23 23 -12.703 0 -23 -10.297 -23 -23 0 -12.703 10.297 -23 23 -23 z"
       fill="url(#linearGradient3764)"
       fill-opacity="1"
       id="path31" />
  </g>
  <g
     id="g33" />
  <g
     id="g79">
    <path
       d="m 40.03 7.531 c 3.712 4.084 5.969 9.514 5.969 15.469 0 12.703 -10.297 23 -23 23 c -5.954 0 -11.384 -2.256 -15.469 -5.969 4.178 4.291 10.01 6.969 16.469 6.969 c 12.703 0 23 -10.298 23 -23 0 -6.462 -2.677 -12.291 -6.969 -16.469 z"
       opacity="0.1"
       id="path81" />
  </g>
  <path
     style="fill:#000000;fill-opacity:0.09803922;stroke:none"
     d="m 27.875,16 c -1.342841,0 -1.98819,0.907835 -2.625,2 l -8.84375,0 C 15.081467,18 14,19.115 14,20.5 l 0,1 0,10 c 0,1.385 1.081467,2.5 2.40625,2.5 l 17.1875,0 C 34.918533,34 36,32.885 36,31.5 l 0,-11 0,-2 C 36,17.115 34.918532,16 33.59375,16 L 27.875,16 z"
     id="rect3063"
     inkscape:connector-curvature="0" />
  <rect
     style="fill:#f57c00;fill-opacity:1;stroke:none"
     id="rect2987"
     width="22"
     height="16.00001"
     x="13"
     y="16.999983"
     rx="2.3913043"
     ry="2.5" />
  <path
     style="opacity:0.2;fill:#ffffff;fill-opacity:1;stroke:none"
     d="M 15.391305,17 C 14.066522,17 13,18.115 13,19.5 l 0,1 C 13,19.115 14.066522,18 15.391305,18 l 17.217391,0 C 33.933478,18 35,19.115 35,20.5 l 0,-1 C 35,18.115 33.933478,17 32.608696,17 l -17.217391,0 z"
     id="rect3797"
     inkscape:connector-curvature="0" />
  <path
     style="fill:#ffb300;fill-opacity:1;stroke:none"
     d="m 15.391305,21 3.826086,0 c 5.26087,-0.5 4.304348,-6 7.652175,-6 l 5.73913,0 C 33.933478,15 35,16.115 35,17.5 l 0,13 C 35,31.885 33.933478,33 32.608696,33 L 15.391305,33 C 14.066522,33 13,31.885 13,30.5 l 0,-7 C 13,22 13.956522,21 15.391305,21 z"
     id="rect3776"
     inkscape:connector-curvature="0"
     sodipodi:nodetypes="cccsssssscc" />
  <path
     style="opacity:0.15;fill:#000000;fill-opacity:1;stroke:none"
     d="m 13,29.5 0,1 c 0,1.385 1.066522,2.5 2.391305,2.5 l 17.217391,0 C 33.933478,33 35,31.885 35,30.5 l 0,-1 C 35,30.885 33.933478,32 32.608696,32 L 15.391305,32 C 14.066522,32 13,30.885 13,29.5 z"
     id="path3786"
     inkscape:connector-curvature="0" />
  <path
     d="m 19.463212,24.349281 c 0,0.484833 -0.4053,0.874862 -0.904767,0.874862 -0.499467,0 -0.902222,-0.390029 -0.902222,-0.874862 0,-0.482288 0.402755,-0.872318 0.902222,-0.872318 0.499467,0 0.904767,0.39003 0.904767,0.872318 m 2.256829,0.932126 c -0.04199,0.0051 -0.08208,0.02227 -0.114528,0.04454 l -3.089061,0.467017 -3.071883,-0.472108 c -0.07953,-0.05726 -0.18897,-0.0719 -0.278683,-0.03245 -0.08971,0.04199 -0.146341,0.141887 -0.148886,0.23351 0,0.09416 0.06235,0.1737 0.148886,0.21633 l 2.405714,0.738065 -0.01718,1.697552 -0.847504,2.537421 c -0.08207,0.114528 -0.05726,0.263413 0.0649,0.340401 0.12407,0.07698 0.295862,0.05472 0.380485,-0.06235 l 1.36924,-2.739115 1.344426,2.734026 c 0.0719,0.119617 0.236054,0.16161 0.362671,0.09226 0.126616,-0.06681 0.171791,-0.223965 0.09671,-0.342947 l -0.832871,-2.551418 -0.03245,-1.595749 2.440708,-0.857684 c 0.09671,-0.06681 0.141887,-0.18897 0.09926,-0.295863 -0.04199,-0.106894 -0.161611,-0.166701 -0.280593,-0.153976 m 0,-0.0025"
     id="path3147"
     inkscape:connector-curvature="0"
     style="fill:#000000;fill-opacity:0.09803922;fill-rule:nonzero;stroke:none" />
  <path
     style="fill:#fff8e1;fill-opacity:1;fill-rule:nonzero;stroke:none"
     inkscape:connector-curvature="0"
     id="path77"
     d="m 19.463212,23.34893 c 0,0.484833 -0.4053,0.874862 -0.904767,0.874862 -0.499467,0 -0.902222,-0.390029 -0.902222,-0.874862 0,-0.482288 0.402755,-0.872318 0.902222,-0.872318 0.499467,0 0.904767,0.39003 0.904767,0.872318 m 2.256829,0.932126 c -0.04199,0.0051 -0.08208,0.02227 -0.114528,0.04454 l -3.089061,0.467017 -3.071883,-0.472108 c -0.07953,-0.05726 -0.18897,-0.0719 -0.278683,-0.03245 -0.08971,0.04199 -0.146341,0.141887 -0.148886,0.23351 0,0.09416 0.06235,0.1737 0.148886,0.21633 l 2.405714,0.738065 -0.01718,1.697552 -0.847504,2.537421 c -0.08207,0.114528 -0.05726,0.263413 0.0649,0.340401 0.12407,0.07698 0.295862,0.05472 0.380485,-0.06235 l 1.36924,-2.739115 1.344426,2.734026 c 0.0719,0.119617 0.236054,0.16161 0.362671,0.09226 0.126616,-0.06681 0.171791,-0.223965 0.09671,-0.342947 l -0.832871,-2.551418 -0.03245,-1.595749 2.440708,-0.857684 c 0.09671,-0.06681 0.141887,-0.18897 0.09926,-0.295863 -0.04199,-0.106894 -0.161611,-0.166701 -0.280593,-0.153976 m 0,-0.0025" />
</svg>
