<?xml version="1.0" encoding="UTF-8" standalone="no"?>
<svg
   xmlns:dc="http://purl.org/dc/elements/1.1/"
   xmlns:cc="http://creativecommons.org/ns#"
   xmlns:rdf="http://www.w3.org/1999/02/22-rdf-syntax-ns#"
   xmlns:svg="http://www.w3.org/2000/svg"
   xmlns="http://www.w3.org/2000/svg"
   xmlns:sodipodi="http://sodipodi.sourceforge.net/DTD/sodipodi-0.dtd"
   xmlns:inkscape="http://www.inkscape.org/namespaces/inkscape"
   viewBox="0 0 48 48"
   id="svg2"
   version="1.1"
   inkscape:version="0.48.5 r10040"
   width="100%"
   height="100%"
   sodipodi:docname="athena.svg">
  <metadata
     id="metadata85">
    <rdf:RDF>
      <cc:Work
         rdf:about="">
        <dc:format>image/svg+xml</dc:format>
        <dc:type
           rdf:resource="http://purl.org/dc/dcmitype/StillImage" />
      </cc:Work>
    </rdf:RDF>
  </metadata>
  <sodipodi:namedview
     pagecolor="#ffffff"
     bordercolor="#666666"
     borderopacity="1"
     objecttolerance="10"
     gridtolerance="10"
     guidetolerance="10"
     inkscape:pageopacity="0"
     inkscape:pageshadow="2"
     inkscape:window-width="1280"
     inkscape:window-height="998"
     id="namedview83"
     showgrid="true"
     inkscape:zoom="9.8333333"
     inkscape:cx="20.851764"
     inkscape:cy="21.91051"
     inkscape:window-x="0"
     inkscape:window-y="0"
     inkscape:window-maximized="1"
     inkscape:current-layer="svg2">
    <inkscape:grid
       type="xygrid"
       id="grid3143" />
  </sodipodi:namedview>
  <defs
     id="defs4">
    <linearGradient
       id="linearGradient3764"
       x1="1"
       x2="47"
       gradientUnits="userSpaceOnUse"
       gradientTransform="matrix(0,-1,1,0,-1.5e-6,47.999998)">
      <stop
         stop-color="#b44732"
         stop-opacity="1"
         id="stop7" />
      <stop
         offset="1"
         stop-color="#c44e36"
         stop-opacity="1"
         id="stop9" />
    </linearGradient>
    <clipPath
       id="clipPath-823189646">
      <g
         transform="translate(0,-1004.3622)"
         id="g12">
        <path
           d="m -24 13 c 0 1.105 -0.672 2 -1.5 2 -0.828 0 -1.5 -0.895 -1.5 -2 0 -1.105 0.672 -2 1.5 -2 0.828 0 1.5 0.895 1.5 2 z"
           transform="matrix(15.333333,0,0,11.5,414.99999,878.8622)"
           fill="#1890d0"
           id="path14" />
      </g>
    </clipPath>
    <clipPath
       id="clipPath-834571496">
      <g
         transform="translate(0,-1004.3622)"
         id="g17">
        <path
           d="m -24 13 c 0 1.105 -0.672 2 -1.5 2 -0.828 0 -1.5 -0.895 -1.5 -2 0 -1.105 0.672 -2 1.5 -2 0.828 0 1.5 0.895 1.5 2 z"
           transform="matrix(15.333333,0,0,11.5,414.99999,878.8622)"
           fill="#1890d0"
           id="path19" />
      </g>
    </clipPath>
  </defs>
  <g
     id="g21">
    <path
       d="m 36.31 5 c 5.859 4.062 9.688 10.831 9.688 18.5 c 0 12.426 -10.07 22.5 -22.5 22.5 c -7.669 0 -14.438 -3.828 -18.5 -9.688 c 1.037 1.822 2.306 3.499 3.781 4.969 c 4.085 3.712 9.514 5.969 15.469 5.969 c 12.703 0 23 -10.298 23 -23 c 0 -5.954 -2.256 -11.384 -5.969 -15.469 c -1.469 -1.475 -3.147 -2.744 -4.969 -3.781 z m 4.969 3.781 c 3.854 4.113 6.219 9.637 6.219 15.719 c 0 12.703 -10.297 23 -23 23 c -6.081 0 -11.606 -2.364 -15.719 -6.219 c 4.16 4.144 9.883 6.719 16.219 6.719 c 12.703 0 23 -10.298 23 -23 c 0 -6.335 -2.575 -12.06 -6.719 -16.219 z"
       opacity="0.05"
       id="path23" />
    <path
       d="m 41.28 8.781 c 3.712 4.085 5.969 9.514 5.969 15.469 c 0 12.703 -10.297 23 -23 23 c -5.954 0 -11.384 -2.256 -15.469 -5.969 c 4.113 3.854 9.637 6.219 15.719 6.219 c 12.703 0 23 -10.298 23 -23 c 0 -6.081 -2.364 -11.606 -6.219 -15.719 z"
       opacity="0.1"
       id="path25" />
    <path
       d="m 31.25 2.375 c 8.615 3.154 14.75 11.417 14.75 21.13 c 0 12.426 -10.07 22.5 -22.5 22.5 c -9.708 0 -17.971 -6.135 -21.12 -14.75 a 23 23 0 0 0 44.875 -7 a 23 23 0 0 0 -16 -21.875 z"
       opacity="0.2"
       id="path27" />
  </g>
  <g
     id="g29">
    <path
       d="m 24 1 c 12.703 0 23 10.297 23 23 c 0 12.703 -10.297 23 -23 23 -12.703 0 -23 -10.297 -23 -23 0 -12.703 10.297 -23 23 -23 z"
       fill="url(#linearGradient3764)"
       fill-opacity="1"
       id="path31" />
  </g>
  <g
     id="g33" />
  <g
     id="g79">
    <path
       d="m 40.03 7.531 c 3.712 4.084 5.969 9.514 5.969 15.469 0 12.703 -10.297 23 -23 23 c -5.954 0 -11.384 -2.256 -15.469 -5.969 4.178 4.291 10.01 6.969 16.469 6.969 c 12.703 0 23 -10.298 23 -23 0 -6.462 -2.677 -12.291 -6.969 -16.469 z"
       opacity="0.1"
       id="path81" />
  </g>
  <path
     style="fill:#000000;fill-opacity:0.09803922;stroke:none"
     d="m 27.875,16 c -1.342841,0 -1.98819,0.907835 -2.625,2 l -8.84375,0 C 15.081467,18 14,19.115 14,20.5 l 0,1 0,10 c 0,1.385 1.081467,2.5 2.40625,2.5 l 17.1875,0 C 34.918533,34 36,32.885 36,31.5 l 0,-11 0,-2 C 36,17.115 34.918532,16 33.59375,16 L 27.875,16 z"
     id="rect3063"
     inkscape:connector-curvature="0" />
  <rect
     style="fill:#f57c00;fill-opacity:1;stroke:none"
     id="rect2987"
     width="22"
     height="16.00001"
     x="13"
     y="16.999983"
     rx="2.3913043"
     ry="2.5" />
  <path
     style="opacity:0.2;fill:#ffffff;fill-opacity:1;stroke:none"
     d="M 15.391305,17 C 14.066522,17 13,18.115 13,19.5 l 0,1 C 13,19.115 14.066522,18 15.391305,18 l 17.217391,0 C 33.933478,18 35,19.115 35,20.5 l 0,-1 C 35,18.115 33.933478,17 32.608696,17 l -17.217391,0 z"
     id="rect3797"
     inkscape:connector-curvature="0" />
  <path
     style="fill:#ffb300;fill-opacity:1;stroke:none"
     d="m 15.391305,21 3.826086,0 c 5.26087,-0.5 4.304348,-6 7.652175,-6 l 5.73913,0 C 33.933478,15 35,16.115 35,17.5 l 0,13 C 35,31.885 33.933478,33 32.608696,33 L 15.391305,33 C 14.066522,33 13,31.885 13,30.5 l 0,-7 C 13,22 13.956522,21 15.391305,21 z"
     id="rect3776"
     inkscape:connector-curvature="0"
     sodipodi:nodetypes="cccsssssscc" />
  <path
     style="opacity:0.15;fill:#000000;fill-opacity:1;stroke:none"
     d="m 13,29.5 0,1 c 0,1.385 1.066522,2.5 2.391305,2.5 l 17.217391,0 C 33.933478,33 35,31.885 35,30.5 l 0,-1 C 35,30.885 33.933478,32 32.608696,32 L 15.391305,32 C 14.066522,32 13,30.885 13,29.5 z"
     id="path3786"
     inkscape:connector-curvature="0" />
  <path
     d="m 18.623847,22.627681 -0.460683,1.057315 0.123063,0.279631 c -0.742246,0.05026 -0.596632,0.20167 -0.596632,0.20167 0,0 -0.855646,0.158501 -0.855646,0.277054 0,0.0078 0,0.0052 0,0.01031 -0.171387,0.08312 -0.339552,0.199092 -0.50063,0.324733 -2.152001,2.891671 0.150769,3.561111 -0.36017,5.240187 -0.110822,0.364681 -0.574082,0.983863 -0.574082,0.983863 0,0 0.933608,0.115977 1.318906,-0.976776 0.311847,-0.883351 -0.744824,-2.660362 0.04252,-3.455443 1.117236,-1.127546 1.945821,1.195198 1.59596,1.517354 -0.355016,0.322156 -0.266746,0.410426 -0.266746,0.410426 l 0.528336,1.066981 0.525758,-1.066981 c 0,0 0.09085,-0.08827 -0.264167,-0.410426 -0.352438,-0.322156 0.478079,-2.647477 1.593383,-1.517354 0.79057,0.797658 -0.269322,2.572092 0.0451,3.455443 0.385298,1.092109 1.318905,0.976776 1.318905,0.976776 0,0 -0.460682,-0.624337 -0.574081,-0.983863 -0.51094,-1.676499 1.784743,-2.345939 -0.36468,-5.240187 -0.161078,-0.121131 -0.329887,-0.239039 -0.498053,-0.322156 0,-0.0051 0,-0.0026 0,-0.01031 0,-0.12113 -0.853068,-0.277054 -0.853068,-0.277054 0,0 0.146258,-0.150768 -0.59921,-0.201669 l 0.121131,-0.279631 -0.458106,-1.057315 m 0.01031,-0.0026"
     id="path3145"
     inkscape:connector-curvature="0"
     style="fill:#000000;fill-opacity:0.09803922;fill-rule:nonzero;stroke:none" />
  <path
     style="fill:#fff8e1;fill-opacity:1;fill-rule:nonzero;stroke:none"
     inkscape:connector-curvature="0"
     id="path77"
     d="m 18.623847,21.6272 -0.460683,1.057315 0.123063,0.279631 c -0.742246,0.05026 -0.596632,0.20167 -0.596632,0.20167 0,0 -0.855646,0.158501 -0.855646,0.277054 0,0.0078 0,0.0052 0,0.01031 -0.171387,0.08312 -0.339552,0.199092 -0.50063,0.324733 -2.152001,2.891671 0.150769,3.561111 -0.36017,5.240187 -0.110822,0.364681 -0.574082,0.983863 -0.574082,0.983863 0,0 0.933608,0.115977 1.318906,-0.976776 0.311847,-0.883351 -0.744824,-2.660362 0.04252,-3.455443 1.117236,-1.127546 1.945821,1.195198 1.59596,1.517354 -0.355016,0.322156 -0.266746,0.410426 -0.266746,0.410426 l 0.528336,1.066981 0.525758,-1.066981 c 0,0 0.09085,-0.08827 -0.264167,-0.410426 -0.352438,-0.322156 0.478079,-2.647477 1.593383,-1.517354 0.79057,0.797658 -0.269322,2.572092 0.0451,3.455443 0.385298,1.092109 1.318905,0.976776 1.318905,0.976776 0,0 -0.460682,-0.624337 -0.574081,-0.983863 -0.51094,-1.676499 1.784743,-2.345939 -0.36468,-5.240187 -0.161078,-0.121131 -0.329887,-0.239039 -0.498053,-0.322156 0,-0.0051 0,-0.0026 0,-0.01031 0,-0.12113 -0.853068,-0.277054 -0.853068,-0.277054 0,0 0.146258,-0.150768 -0.59921,-0.201669 l 0.121131,-0.279631 -0.458106,-1.057315 m 0.01031,-0.0026" />
</svg>
