<?xml version="1.0" encoding="UTF-8" standalone="no"?>
<svg
   xmlns:dc="http://purl.org/dc/elements/1.1/"
   xmlns:cc="http://creativecommons.org/ns#"
   xmlns:rdf="http://www.w3.org/1999/02/22-rdf-syntax-ns#"
   xmlns:svg="http://www.w3.org/2000/svg"
   xmlns="http://www.w3.org/2000/svg"
   xmlns:sodipodi="http://sodipodi.sourceforge.net/DTD/sodipodi-0.dtd"
   xmlns:inkscape="http://www.inkscape.org/namespaces/inkscape"
   viewBox="0 0 48 48"
   id="svg2"
   version="1.1"
   inkscape:version="0.48.5 r10040"
   width="100%"
   height="100%"
   sodipodi:docname="mansa.svg">
  <metadata
     id="metadata65">
    <rdf:RDF>
      <cc:Work
         rdf:about="">
        <dc:format>image/svg+xml</dc:format>
        <dc:type
           rdf:resource="http://purl.org/dc/dcmitype/StillImage" />
      </cc:Work>
    </rdf:RDF>
  </metadata>
  <sodipodi:namedview
     pagecolor="#ffffff"
     bordercolor="#666666"
     borderopacity="1"
     objecttolerance="10"
     gridtolerance="10"
     guidetolerance="10"
     inkscape:pageopacity="0"
     inkscape:pageshadow="2"
     inkscape:window-width="1280"
     inkscape:window-height="998"
     id="namedview63"
     showgrid="true"
     inkscape:zoom="13.906433"
     inkscape:cx="8.6769579"
     inkscape:cy="22.703691"
     inkscape:window-x="0"
     inkscape:window-y="0"
     inkscape:window-maximized="1"
     inkscape:current-layer="svg2">
    <inkscape:grid
       type="xygrid"
       id="grid3061" />
  </sodipodi:namedview>
  <defs
     id="defs4">
    <linearGradient
       id="linearGradient3764"
       x1="1"
       x2="47"
       gradientUnits="userSpaceOnUse"
       gradientTransform="matrix(0,-1,1,0,-1.5e-6,47.999998)">
      <stop
         stop-color="#b94f33"
         stop-opacity="1"
         id="stop7" />
      <stop
         offset="1"
         stop-color="#c85637"
         stop-opacity="1"
         id="stop9" />
    </linearGradient>
    <clipPath
       id="clipPath-141243315">
      <g
         transform="translate(0,-1004.3622)"
         id="g12">
        <path
           d="m -24 13 c 0 1.105 -0.672 2 -1.5 2 -0.828 0 -1.5 -0.895 -1.5 -2 0 -1.105 0.672 -2 1.5 -2 0.828 0 1.5 0.895 1.5 2 z"
           transform="matrix(15.333333,0,0,11.5,414.99999,878.8622)"
           fill="#1890d0"
           id="path14" />
      </g>
    </clipPath>
    <clipPath
       id="clipPath-149311055">
      <g
         transform="translate(0,-1004.3622)"
         id="g17">
        <path
           d="m -24 13 c 0 1.105 -0.672 2 -1.5 2 -0.828 0 -1.5 -0.895 -1.5 -2 0 -1.105 0.672 -2 1.5 -2 0.828 0 1.5 0.895 1.5 2 z"
           transform="matrix(15.333333,0,0,11.5,414.99999,878.8622)"
           fill="#1890d0"
           id="path19" />
      </g>
    </clipPath>
  </defs>
  <g
     id="g21">
    <path
       d="m 36.31 5 c 5.859 4.062 9.688 10.831 9.688 18.5 c 0 12.426 -10.07 22.5 -22.5 22.5 c -7.669 0 -14.438 -3.828 -18.5 -9.688 c 1.037 1.822 2.306 3.499 3.781 4.969 c 4.085 3.712 9.514 5.969 15.469 5.969 c 12.703 0 23 -10.298 23 -23 c 0 -5.954 -2.256 -11.384 -5.969 -15.469 c -1.469 -1.475 -3.147 -2.744 -4.969 -3.781 z m 4.969 3.781 c 3.854 4.113 6.219 9.637 6.219 15.719 c 0 12.703 -10.297 23 -23 23 c -6.081 0 -11.606 -2.364 -15.719 -6.219 c 4.16 4.144 9.883 6.719 16.219 6.719 c 12.703 0 23 -10.298 23 -23 c 0 -6.335 -2.575 -12.06 -6.719 -16.219 z"
       opacity="0.05"
       id="path23" />
    <path
       d="m 41.28 8.781 c 3.712 4.085 5.969 9.514 5.969 15.469 c 0 12.703 -10.297 23 -23 23 c -5.954 0 -11.384 -2.256 -15.469 -5.969 c 4.113 3.854 9.637 6.219 15.719 6.219 c 12.703 0 23 -10.298 23 -23 c 0 -6.081 -2.364 -11.606 -6.219 -15.719 z"
       opacity="0.1"
       id="path25" />
    <path
       d="m 31.25 2.375 c 8.615 3.154 14.75 11.417 14.75 21.13 c 0 12.426 -10.07 22.5 -22.5 22.5 c -9.708 0 -17.971 -6.135 -21.12 -14.75 a 23 23 0 0 0 44.875 -7 a 23 23 0 0 0 -16 -21.875 z"
       opacity="0.2"
       id="path27" />
  </g>
  <g
     id="g29">
    <path
       d="m 24 1 c 12.703 0 23 10.297 23 23 c 0 12.703 -10.297 23 -23 23 -12.703 0 -23 -10.297 -23 -23 0 -12.703 10.297 -23 23 -23 z"
       fill="url(#linearGradient3764)"
       fill-opacity="1"
       id="path31" />
  </g>
  <g
     id="g33" />
  <g
     id="g59">
    <path
       d="m 40.03 7.531 c 3.712 4.084 5.969 9.514 5.969 15.469 0 12.703 -10.297 23 -23 23 c -5.954 0 -11.384 -2.256 -15.469 -5.969 4.178 4.291 10.01 6.969 16.469 6.969 c 12.703 0 23 -10.298 23 -23 0 -6.462 -2.677 -12.291 -6.969 -16.469 z"
       opacity="0.1"
       id="path61" />
  </g>
  <path
     style="fill:#000000;fill-opacity:0.09803922;stroke:none"
     d="m 27.875,16 c -1.342841,0 -1.98819,0.907835 -2.625,2 l -8.84375,0 C 15.081467,18 14,19.115 14,20.5 l 0,1 0,10 c 0,1.385 1.081467,2.5 2.40625,2.5 l 17.1875,0 C 34.918533,34 36,32.885 36,31.5 l 0,-11 0,-2 C 36,17.115 34.918532,16 33.59375,16 L 27.875,16 z"
     id="rect3063"
     inkscape:connector-curvature="0" />
  <rect
     style="fill:#f57c00;fill-opacity:1;stroke:none"
     id="rect2987"
     width="22"
     height="16.00001"
     x="13.000001"
     y="16.999983"
     rx="2.3913043"
     ry="2.5" />
  <path
     style="opacity:0.2;fill:#ffffff;fill-opacity:1;stroke:none"
     d="M 15.391305,17 C 14.066522,17 13,18.115 13,19.5 l 0,1 C 13,19.115 14.066522,18 15.391305,18 l 17.217391,0 C 33.933478,18 35,19.115 35,20.5 l 0,-1 C 35,18.115 33.933478,17 32.608696,17 l -17.217391,0 z"
     id="rect3797"
     inkscape:connector-curvature="0" />
  <path
     style="fill:#ffb300;fill-opacity:1;stroke:none"
     d="m 15.391305,21 3.826086,0 c 5.26087,-0.5 4.304348,-6 7.652175,-6 l 5.73913,0 C 33.933478,15 35,16.115 35,17.5 l 0,13 C 35,31.885 33.933478,33 32.608696,33 L 15.391305,33 C 14.066522,33 13,31.885 13,30.5 l 0,-7 C 13,22 13.956522,21 15.391305,21 z"
     id="rect3776"
     inkscape:connector-curvature="0"
     sodipodi:nodetypes="cccsssssscc" />
  <path
     style="opacity:0.15;fill:#000000;fill-opacity:1;stroke:none"
     d="m 13,29.5 0,1 c 0,1.385 1.066522,2.5 2.391305,2.5 l 17.217391,0 C 33.933478,33 35,31.885 35,30.5 l 0,-1 C 35,30.885 33.933478,32 32.608696,32 L 15.391305,32 C 14.066522,32 13,30.885 13,29.5 z"
     id="path3786"
     inkscape:connector-curvature="0" />
  <path
     id="path3845"
     d="m 16,24 0,1.09375 C 15.417241,25.23097 15,25.564516 15,26 c 0,0.435484 0.417241,0.76903 1,0.90625 L 16,31 l 1,0 0,-4.09375 C 17.582759,26.76903 18,26.435484 18,26 18,25.564516 17.582759,25.23097 17,25.09375 L 17,24 16,24 z m 3,0 0,4.09375 C 18.417241,28.23097 18,28.564516 18,29 c 0,0.435484 0.417241,0.76903 1,0.90625 L 19,31 l 1,0 0,-1.09375 C 20.582759,29.76903 21,29.435484 21,29 21,28.564516 20.582759,28.23097 20,28.09375 L 20,24 19,24 z m 3,0 0,1.09375 C 21.417241,25.23097 21,25.564516 21,26 c 0,0.435484 0.417241,0.76903 1,0.90625 L 22,31 l 1,0 0,-4.09375 C 23.569474,26.764367 24,26.42914 24,26 24,25.57086 23.569474,25.235633 23,25.09375 L 23,24 22,24 z"
     style="fill:#000000;fill-opacity:0.09803922;fill-rule:evenodd;stroke:none"
     inkscape:connector-curvature="0" />
  <path
     style="fill:#fff8e1;fill-opacity:1;fill-rule:evenodd;stroke:none"
     d="M 16 23 L 16 24.09375 C 15.417241 24.23097 15 24.564516 15 25 C 15 25.435484 15.417241 25.76903 16 25.90625 L 16 30 L 17 30 L 17 25.90625 C 17.582759 25.76903 18 25.435484 18 25 C 18 24.564516 17.582759 24.23097 17 24.09375 L 17 23 L 16 23 z M 19 23 L 19 27.09375 C 18.417241 27.23097 18 27.564516 18 28 C 18 28.435484 18.417241 28.76903 19 28.90625 L 19 30 L 20 30 L 20 28.90625 C 20.582759 28.76903 21 28.435484 21 28 C 21 27.564516 20.582759 27.23097 20 27.09375 L 20 23 L 19 23 z M 22 23 L 22 24.09375 C 21.417241 24.23097 21 24.564516 21 25 C 21 25.435484 21.417241 25.76903 22 25.90625 L 22 30 L 23 30 L 23 25.90625 C 23.569474 25.764367 24 25.42914 24 25 C 24 24.57086 23.569474 24.235633 23 24.09375 L 23 23 L 22 23 z "
     id="rect3064" />
</svg>
