<!-- Created with Inkscape (http://www.inkscape.org/) -->
<svg xmlns="http://www.w3.org/2000/svg" viewBox="0 0 128 128">
 <g transform="translate(0,-924.3622)">
  <path d="m 16 944.36 94 0 c 4 0 6 1.999 6 5.998 l 0 13.996 c 0 2.215 -1.895 1.999 -4 1.999 l -96 0 c -2.105 0 -4 -1.784 -4 -3.999 l 0 -17.995 z" style="fill:#1976d2;fill-opacity:1;stroke:none"/>
  <path d="m 12 956.36 0 10 104 0 0 -10 z" style="fill:#000;opacity:0.03;fill-opacity:1;stroke:none"/>
  <path d="m 12 952.36 0 -10 c 0 -4 1.818 -6 3.636 -6 l 20.727 0 c 1.818 0 3.636 2 3.636 6 l 0 10 z" style="fill:#1976d2;fill-opacity:1;stroke:none"/>
  <rect width="120" height="80" x="4" y="960.36" rx="8" ry="6.667" style="fill:#42a5f5;fill-opacity:1;stroke:none"/>
  <path d="m 12 960.36 c -4.432 0 -8 2.994 -8 6.688 l 0 4 c 0 -3.693 3.568 -6.688 8 -6.688 l 104 0 c 4.432 0 8 2.994 8 6.688 l 0 -4 c 0 -3.693 -3.568 -6.688 -8 -6.688 l -104 0 z" style="fill:#fff;opacity:0.1;fill-opacity:1;stroke:none"/>
  <path d="m 40 944.36 0 4 4 0 66 0 c 4 0 6 2 6 6 l 0 -4 c 0 -3.999 -2 -6 -6 -6 l -66 0 z" style="fill:#000;opacity:0.05;fill-opacity:1;stroke:none"/>
  <path d="m 15.625 936.36 c -1.818 0 -3.625 2 -3.625 6 l 0 4 c 0 -4 1.807 -6 3.625 -6 l 20.75 0 c 1.818 0 3.625 2 3.625 6 l 0 -4 c 0 -4 -1.807 -6 -3.625 -6 l -20.75 0 z" style="fill:#000;opacity:0.05;fill-opacity:1;stroke:none"/>
  <path d="m 44.625 978.61 c -1.542 0.048 -3.03 0.178 -4.5 0.688 -0.461 3.13 0.286 6.376 1.125 9.375 2.135 6.88 6.125 13.433 11.938 17.812 0.213 0.204 0.516 0.26 0.438 0.625 -0.031 1.524 -0.003 3.096 0 4.625 0.063 2.672 1.643 5.24 4 6.5 2.797 1.474 5.62 2.797 8.438 4.25 1.297 0.688 3.093 -0.048 3.5 -1.437 0.248 -0.914 0.049 -1.881 0.063 -2.813 -0.01 -1.963 -0.201 -3.937 -0.125 -5.875 2.564 -0.316 5.112 -1.568 6.625 -3.687 1.349 -1.808 1.853 -4.189 1.688 -6.438 2.743 -0.489 5.564 -0.878 8.312 -1.375 1.627 -0.328 2.332 -2.425 1.313 -3.75 -1.999 -2.536 -4.03 -5.04 -6.06 -7.562 -1.641 -1.962 -4.219 -3.02 -6.75 -2.688 -1.716 0.276 -3.433 0.618 -5.125 0.938 -5.465 -5.21 -12.835 -8.097 -20.25 -8.938 -1.523 -0.14 -3.083 -0.274 -4.625 -0.25 z m 9.25 5.688 c 1.791 -0.16 3.572 0.321 5.063 1.562 2.981 2.485 3.482 6.954 1 9.938 -2.482 2.983 -6.894 3.422 -9.875 0.937 -2.981 -2.484 -3.482 -6.891 -1 -9.875 1.241 -1.491 3.02 -2.398 4.813 -2.562 z m 0.813 3.125 c -2.209 0 -4 1.791 -4 4 0 2.209 1.791 4 4 4 2.209 0 4 -1.791 4 -4 0 -2.209 -1.791 -4 -4 -4 z m 27.375 18.375 c -0.435 0.138 -0.809 0.518 -0.875 1 -0.782 3.556 -3.278 6.645 -6.625 8.06 -0.871 0.276 -1.091 1.491 -0.375 2.063 1.469 1.224 3.15 2.596 4.625 3.812 0.718 0.611 1.675 -0.026 1.688 -0.937 -0.023 -0.746 -0.12 -1.577 -0.188 -2.313 1.829 0.392 3.628 0.912 5.438 1.313 0.853 0.176 1.66 -0.812 1.313 -1.625 -0.715 -1.716 -1.453 -3.355 -2.188 -5.063 0.74 -0.088 1.451 -0.196 2.188 -0.312 0.912 -0.18 1.305 -1.468 0.563 -2.063 -1.477 -1.243 -3 -2.453 -4.5 -3.687 -0.175 -0.14 -0.421 -0.23 -0.625 -0.25 -0.153 -0.02 -0.293 -0.046 -0.438 0 z" style="fill:#2a74b9;opacity:1;fill-opacity:1;stroke:none;fill-rule:nonzero"/>
 </g>
</svg>
