<!-- Created with Inkscape (http://www.inkscape.org/) -->
<svg xmlns="http://www.w3.org/2000/svg" viewBox="0 0 128 128">
 <g transform="translate(0,-924.3622)">
  <path d="m 16 944.36 94 0 c 4 0 6 1.999 6 5.998 l 0 13.996 c 0 2.215 -1.895 1.999 -4 1.999 l -96 0 c -2.105 0 -4 -1.784 -4 -3.999 l 0 -17.995 z" style="fill:#5d4037;fill-opacity:1;stroke:none"/>
  <path d="m 12 956.36 0 10 104 0 0 -10 z" style="fill:#000;opacity:0.03;fill-opacity:1;stroke:none"/>
  <path d="m 12 952.36 0 -10 c 0 -4 1.818 -6 3.636 -6 l 20.727 0 c 1.818 0 3.636 2 3.636 6 l 0 10 z" style="fill:#5d4037;fill-opacity:1;stroke:none"/>
  <rect width="120" height="80" x="4" y="960.36" rx="8" ry="6.667" style="fill:#8d6e63;fill-opacity:1;stroke:none"/>
  <path d="m 12 960.36 c -4.432 0 -8 2.994 -8 6.688 l 0 4 c 0 -3.693 3.568 -6.688 8 -6.688 l 104 0 c 4.432 0 8 2.994 8 6.688 l 0 -4 c 0 -3.693 -3.568 -6.688 -8 -6.688 l -104 0 z" style="fill:#fff;opacity:0.1;fill-opacity:1;stroke:none"/>
  <path d="m 40 944.36 0 4 4 0 66 0 c 4 0 6 2 6 6 l 0 -4 c 0 -3.999 -2 -6 -6 -6 l -66 0 z" style="fill:#000;opacity:0.05;fill-opacity:1;stroke:none"/>
  <path d="m 15.625 936.36 c -1.818 0 -3.625 2 -3.625 6 l 0 4 c 0 -4 1.807 -6 3.625 -6 l 20.75 0 c 1.818 0 3.625 2 3.625 6 l 0 -4 c 0 -4 -1.807 -6 -3.625 -6 l -20.75 0 z" style="fill:#000;opacity:0.05;fill-opacity:1;stroke:none"/>
  <path d="m 40 976.36 0 10 c 20.293 2.241 38.08 17.83 38 38 l 10 0 c 0 -28.813 -25.875 -47.09 -48 -48 z m 0 16 0 10 c 10.997 0.904 21.877 9.168 22 22 l 10 0 c -0.478 -19.567 -18.34 -30.611 -32 -32 z" style="fill:#634b43;opacity:1;fill-opacity:1;stroke:none;fill-rule:nonzero"/>
  <path transform="matrix(4.6666666,0,0,4.6666666,-6.6666666,907.6956)" d="m 13 23.5 c 0 0.828 -0.672 1.5 -1.5 1.5 -0.828 0 -1.5 -0.672 -1.5 -1.5 0 -0.828 0.672 -1.5 1.5 -1.5 c 0.828 0 1.5 0.672 1.5 1.5 z" style="fill:#634b43;opacity:1;fill-opacity:1;stroke:none;fill-rule:evenodd"/>
 </g>
</svg>
