<!-- Created with Inkscape (http://www.inkscape.org/) -->
<svg xmlns="http://www.w3.org/2000/svg" viewBox="0 0 128 128">
 <g transform="translate(0,-924.3622)">
  <path d="m 16 944.36 94 0 c 4 0 6 2 6 5.998 l 0 13.996 c 0 2.215 -1.895 1.999 -4 1.999 l -96 0 c -2.105 0 -4 -1.784 -4 -3.999 l 0 -17.995 z" style="fill:#e9a439;fill-opacity:1;stroke:none"/>
  <path d="m 12 956.36 0 10 104 0 0 -10 z" style="fill:#000;opacity:0.03;fill-opacity:1;stroke:none"/>
  <path d="m 12 952.36 0 -10 c 0 -4 1.818 -6 3.636 -6 l 20.727 0 c 1.818 0 3.636 2 3.636 6 l 0 10 z" style="fill:#e9a439;fill-opacity:1;stroke:none"/>
  <rect width="120" height="80" x="4" y="960.36" rx="8" ry="6.667" style="fill:#f5c14e;fill-opacity:1;stroke:none"/>
  <path d="m 12 960.36 c -4.432 0 -8 2.994 -8 6.688 l 0 4 c 0 -3.693 3.568 -6.688 8 -6.688 l 104 0 c 4.432 0 8 2.994 8 6.688 l 0 -4 c 0 -3.693 -3.568 -6.688 -8 -6.688 l -104 0 z" style="fill:#fff;opacity:0.1;fill-opacity:1;stroke:none"/>
  <path d="m 40 944.36 0 4 4 0 66 0 c 4 0 6 2 6 6 l 0 -4 c 0 -3.999 -2 -6 -6 -6 l -66 0 z" style="fill:#000;opacity:0.05;fill-opacity:1;stroke:none"/>
  <path d="m 15.625 936.36 c -1.818 0 -3.625 2 -3.625 6 l 0 4 c 0 -4 1.807 -6 3.625 -6 l 20.75 0 c 1.818 0 3.625 2 3.625 6 l 0 -4 c 0 -4 -1.807 -6 -3.625 -6 l -20.75 0 z" style="fill:#000;opacity:0.05;fill-opacity:1;stroke:none"/>
  <path d="m 36 48 l 0 20 l 20 0 l -7.563 -7.563 c 3.984 -3.973 9.494 -6.438 15.563 -6.438 c 12.15 0 22 9.85 22 22 c 0 12.15 -9.85 22 -22 22 c -12.15 0 -22 -9.85 -22 -22 c 0 -0.675 0.065 -1.34 0.125 -2 l -6.06 0 c -0.047 0.66 -0.063 1.328 -0.063 2 c 0 15.464 12.536 28 28 28 c 15.464 0 28 -12.536 28 -28 c 0 -15.464 -12.536 -28 -28 -28 c -7.736 0 -14.716 3.15 -19.781 8.219 l -8.219 -8.219 z m 28.03 9.844 a 4 4 0 0 0 -0.406 0.031 a 4 4 0 0 0 -0.5 0.125 a 4 4 0 0 0 -3.125 4 l 0 14.75 a 4 4 0 0 0 0 0.375 a 4 4 0 0 0 0.5 3 a 4 4 0 0 0 0.125 0.125 a 4 4 0 0 0 0.125 0.25 a 4 4 0 0 0 0.125 0.125 a 4 4 0 0 0 0.125 0.125 a 4 4 0 0 0 0.125 0.125 a 4 4 0 0 0 0.125 0.125 a 4 4 0 0 0 0.25 0.125 a 4 4 0 0 0 0.125 0.125 a 4 4 0 0 0 0.125 0.125 a 4 4 0 0 0 0.25 0.125 a 4 4 0 0 0 0.5 0.25 l 9.875 5.75 a 4.03 4.03 0 1 0 4 -7 l -8.375 -4.875 l 0 -13.625 a 4 4 0 0 0 -3.969 -4.156 z" transform="translate(0,924.3622)" style="fill:#c79d41;opacity:1;fill-opacity:1;stroke:none"/>
 </g>
</svg>
