<?xml version="1.0" encoding="UTF-8" standalone="no"?>
<!-- Created with Inkscape (http://www.inkscape.org/) -->

<svg
   xmlns:dc="http://purl.org/dc/elements/1.1/"
   xmlns:cc="http://creativecommons.org/ns#"
   xmlns:rdf="http://www.w3.org/1999/02/22-rdf-syntax-ns#"
   xmlns:svg="http://www.w3.org/2000/svg"
   xmlns="http://www.w3.org/2000/svg"
   xmlns:sodipodi="http://sodipodi.sourceforge.net/DTD/sodipodi-0.dtd"
   xmlns:inkscape="http://www.inkscape.org/namespaces/inkscape"
   width="128"
   height="128"
   id="svg2"
   version="1.1"
   inkscape:version="0.91 r"
   sodipodi:docname="orange-folder-projects.svg"
   inkscape:export-filename="/media/Data/Main/Visuals/Icons/Numix/Desktop/repos/numix-wiki/Gjorgi/Numix-folders/48/New/folder-144.png"
   inkscape:export-xdpi="270"
   inkscape:export-ydpi="270">
  <defs
     id="defs4" />
  <sodipodi:namedview
     id="base"
     pagecolor="#ffffff"
     bordercolor="#666666"
     borderopacity="1.0"
     inkscape:pageopacity="0.0"
     inkscape:pageshadow="2"
     inkscape:zoom="3.7303676"
     inkscape:cx="24.5714"
     inkscape:cy="27.907215"
     inkscape:document-units="px"
     inkscape:current-layer="layer1"
     showgrid="false"
     inkscape:window-width="1280"
     inkscape:window-height="998"
     inkscape:window-x="0"
     inkscape:window-y="0"
     inkscape:window-maximized="1"
     showguides="true"
     inkscape:guide-bbox="true">
    <inkscape:grid
       type="xygrid"
       id="grid2985"
       empspacing="5"
       visible="true"
       enabled="true"
       snapvisiblegridlinesonly="true" />
  </sodipodi:namedview>
  <metadata
     id="metadata7">
    <rdf:RDF>
      <cc:Work
         rdf:about="">
        <dc:format>image/svg+xml</dc:format>
        <dc:type
           rdf:resource="http://purl.org/dc/dcmitype/StillImage" />
        <dc:title />
      </cc:Work>
    </rdf:RDF>
  </metadata>
  <g
     inkscape:label="Layer 1"
     inkscape:groupmode="layer"
     id="layer1"
     transform="translate(0,-924.3622)">
    <path
       style="fill:#e65100;fill-opacity:1;stroke:none"
       d="m 16,944.36248 94,0 c 4,0 6,1.9994 6,5.99838 l 0,13.99636 c 0,2.2154 -1.8948,1.9994 -4,1.9994 l -96,0 c -2.1052,0 -4,-1.7836 -4,-3.999 l 0,-17.99514 z"
       id="path3811"
       inkscape:connector-curvature="0"
       sodipodi:nodetypes="csssssscc" />
    <path
       style="opacity:0.02999998;fill:#000000;fill-opacity:1;stroke:none"
       d="m 12,956.36266 0,9.99976 104,0 0,-9.99976 z"
       id="path3807"
       inkscape:connector-curvature="0" />
    <path
       style="fill:#e65100;fill-opacity:1;stroke:none"
       d="m 12,952.36246 0,-9.99998 c 0,-3.99998 1.818182,-5.99998 3.636364,-5.99998 l 20.727272,0 c 1.818182,0 3.636364,2 3.636364,5.99998 l 0,9.99998 z"
       id="rect3760"
       inkscape:connector-curvature="0"
       sodipodi:nodetypes="csssscc" />
    <rect
       style="fill:#f57c00;fill-opacity:1;stroke:none"
       id="rect2990"
       width="120"
       height="80"
       x="4"
       y="960.36218"
       rx="8"
       ry="6.6666665" />
    <path
       style="opacity:0.1;fill:#ffffff;fill-opacity:1;stroke:none"
       d="m 12,960.36242 c -4.4319996,0 -7.9999996,2.9942 -7.9999996,6.6876 l 0,4 c 0,-3.6934 3.568,-6.6876 7.9999996,-6.6876 l 104,0 c 4.432,0 8,2.9942 8,6.6876 l 0,-4 c 0,-3.6934 -3.568,-6.6876 -8,-6.6876 l -104,0 z"
       id="rect3004"
       inkscape:connector-curvature="0" />
    <path
       style="opacity:0.05;fill:#000000;fill-opacity:1;stroke:none"
       d="m 40,944.36248 0,3.99998 4,0 66,0 c 4,0 6,2.001 6,6 l 0,-4 c 0,-3.99898 -2,-5.99998 -6,-5.99998 l -66,0 z"
       id="path3781"
       inkscape:connector-curvature="0"
       sodipodi:nodetypes="cccscsscc" />
    <path
       style="opacity:0.05;fill:#000000;fill-opacity:1;stroke:none"
       d="m 15.625,936.36246 c -1.818181,0 -3.625,2 -3.625,6.00002 l 0,4 c 0,-4 1.806819,-6.00002 3.625,-6.00002 l 20.75,0 c 1.818182,0 3.625,2.00002 3.625,6.00002 l 0,-4 c 0,-4.00002 -1.806818,-6.00002 -3.625,-6.00002 l -20.75,0 z"
       id="path3801"
       inkscape:connector-curvature="0" />
    <path
       style="fill:#ab5d0b;fill-opacity:1;fill-rule:nonzero;stroke:none;opacity:1.0"
       d="m 44.625,978.61222 c -1.54172,0.048 -3.032932,0.178 -4.5,0.6876 -0.46126,3.1296 0.285824,6.3758 1.125,9.375 2.134636,6.8804 6.12548,13.43278 11.9375,17.81238 0.21304,0.204 0.515652,0.2598 0.4375,0.625 -0.0308,1.5244 -0.003,3.0962 0,4.625 0.06252,2.672 1.642936,5.2404 4,6.5 2.797462,1.4736 5.620264,2.7968 8.4375,4.25 1.296884,0.6876 3.09294,-0.048 3.5,-1.4374 0.24768,-0.914 0.04938,-1.8806 0.0625,-2.8126 -0.0096,-1.9632 -0.20104,-3.9366 -0.125,-5.875 2.563998,-0.316 5.111772,-1.5682 6.625,-3.6874 1.348684,-1.8076 1.852744,-4.1888 1.6875,-6.4376 2.742984,-0.4892 5.563516,-0.8778 8.312498,-1.375 1.627014,-0.328 2.331594,-2.42478 1.312502,-3.74998 -1.999456,-2.5356 -4.029758,-5.0444 -6.0625,-7.5624 -1.641104,-1.9618 -4.219004,-3.0212 -6.75,-2.6876 -1.716404,0.276 -3.43261,0.6176 -5.125,0.9376 -5.465332,-5.2104 -12.83474,-8.0972 -20.25,-8.9376 -1.522808,-0.14 -3.08328,-0.274 -4.625,-0.25 z m 9.25,5.6876 c 1.791428,-0.16 3.571942,0.3208 5.0625,1.5624 2.981104,2.4848 3.48226,6.954 1,9.9376 -2.482274,2.9832 -6.893888,3.4222 -9.875,0.9374 -2.981104,-2.4836 -3.482266,-6.8906 -1,-9.875 1.241132,-1.4912 3.021064,-2.3984 4.8125,-2.5624 z m 0.8125,3.125 c -2.209138,0 -4,1.7908 -4,4 0,2.209 1.790862,4 4,4 2.209138,0 4,-1.791 4,-4 0,-2.2092 -1.790862,-4 -4,-4 z m 27.375,18.37498 c -0.434902,0.138 -0.808548,0.5184 -0.875,1 -0.78172,3.5556 -3.278016,6.6452 -6.625,8.0624 -0.8715,0.276 -1.090844,1.491 -0.375,2.0626 1.468952,1.2244 3.150056,2.5956 4.625,3.8124 0.717688,0.6108 1.675452,-0.026 1.6875,-0.9374 -0.0232,-0.7464 -0.1203,-1.5766 -0.1875,-2.3126 1.828844,0.392 3.627848,0.9118 5.4375,1.3126 0.85278,0.176 1.659544,-0.8118 1.3125,-1.625 -0.715412,-1.7164 -1.452892,-3.355 -2.1875,-5.0626 0.740496,-0.088 1.450912,-0.196 2.1875,-0.3124 0.91172,-0.18 1.305364,-1.4678 0.5625,-2.0626 -1.47736,-1.2432 -3.003448,-2.453 -4.5,-3.6874 -0.1751,-0.14 -0.420532,-0.23 -0.625,-0.25 -0.15334,-0.02 -0.292532,-0.046 -0.4375,0 z"
       id="path10643"
       inkscape:connector-curvature="0" />
  </g>
</svg>
