<!-- Created with Inkscape (http://www.inkscape.org/) -->
<svg xmlns="http://www.w3.org/2000/svg" viewBox="0 0 128 128">
 <g transform="translate(0,-924.3622)">
  <path d="m 16 944.36 94 0 c 4 0 6 2 6 5.998 l 0 13.996 c 0 2.215 -1.895 1.999 -4 1.999 l -96 0 c -2.105 0 -4 -1.784 -4 -3.999 l 0 -17.995 z" style="fill:#512da8;fill-opacity:1;stroke:none"/>
  <path d="m 12 956.36 0 10 104 0 0 -10 z" style="fill:#000;opacity:0.03;fill-opacity:1;stroke:none"/>
  <path d="m 12 952.36 0 -10 c 0 -4 1.818 -6 3.636 -6 l 20.727 0 c 1.818 0 3.636 2 3.636 6 l 0 10 z" style="fill:#512da8;fill-opacity:1;stroke:none"/>
  <rect width="120" height="80" x="4" y="960.36" rx="8" ry="6.667" style="fill:#7e57c2;fill-opacity:1;stroke:none"/>
  <path d="m 12 960.36 c -4.432 0 -8 2.994 -8 6.688 l 0 4 c 0 -3.693 3.568 -6.688 8 -6.688 l 104 0 c 4.432 0 8 2.994 8 6.688 l 0 -4 c 0 -3.693 -3.568 -6.688 -8 -6.688 l -104 0 z" style="fill:#fff;opacity:0.1;fill-opacity:1;stroke:none"/>
  <path d="m 40 944.36 0 4 4 0 66 0 c 4 0 6 2 6 6 l 0 -4 c 0 -3.999 -2 -6 -6 -6 l -66 0 z" style="fill:#000;opacity:0.05;fill-opacity:1;stroke:none"/>
  <path d="m 15.625 936.36 c -1.818 0 -3.625 2 -3.625 6 l 0 4 c 0 -4 1.807 -6 3.625 -6 l 20.75 0 c 1.818 0 3.625 2 3.625 6 l 0 -4 c 0 -4 -1.807 -6 -3.625 -6 l -20.75 0 z" style="fill:#000;opacity:0.05;fill-opacity:1;stroke:none"/>
  <path d="m 82.09 978.36 c -2.073 0.032 -4.111 1.312 -4.438 3.688 -0.522 3.802 3.367 2.375 6.5 2.375 3.133 0 4.189 6.174 3.406 9.5 -0.783 3.327 -9.113 11.201 -27.938 3.344 -15.498 -6.469 -23.23 2.14 -23.625 2.313 1.467 12.852 13.428 26.781 27.938 26.781 15.5 0 28.06 -15.362 28.06 -29.469 0 -1.62 -0.214 -3.214 -0.531 -4.75 -0.288 -0.777 -0.57 -1.544 -0.781 -2.25 -0.379 -1.266 -0.789 -2.35 -1.156 -3.344 -0.016 -0.032 0.016 -0.06 0 -0.094 -1.484 -2.999 -3.585 -5.719 -6.156 -7.969 -0.012 -0.026 -0.051 0.028 -0.063 0 -0.402 -0.094 -0.804 -0.129 -1.219 -0.125 z m -20.09 4 c -1.105 0 -2 0.895 -2 2 0 1.105 0.895 2 2 2 1.105 0 2 -0.895 2 -2 0 -1.105 -0.895 -2 -2 -2 z m 10 4 c -2.209 0 -4 1.791 -4 4 0 2.209 1.791 4 4 4 2.209 0 4 -1.791 4 -4 0 -2.209 -1.791 -4 -4 -4 z" style="fill:#54398d;opacity:1;fill-opacity:1;color:#000"/>
 </g>
</svg>
