<?xml version="1.0" encoding="UTF-8" standalone="no"?>
<!-- Created with Inkscape (http://www.inkscape.org/) -->

<svg
   xmlns:dc="http://purl.org/dc/elements/1.1/"
   xmlns:cc="http://creativecommons.org/ns#"
   xmlns:rdf="http://www.w3.org/1999/02/22-rdf-syntax-ns#"
   xmlns:svg="http://www.w3.org/2000/svg"
   xmlns="http://www.w3.org/2000/svg"
   xmlns:sodipodi="http://sodipodi.sourceforge.net/DTD/sodipodi-0.dtd"
   xmlns:inkscape="http://www.inkscape.org/namespaces/inkscape"
   width="128"
   height="128"
   id="svg2"
   version="1.1"
   inkscape:version="0.91 r"
   sodipodi:docname="yellow-folder-system.svg"
   inkscape:export-filename="/media/Data/Main/Visuals/Icons/Numix/Desktop/repos/numix-wiki/Gjorgi/Numix-folders/48/New/folder-144.png"
   inkscape:export-xdpi="270"
   inkscape:export-ydpi="270">
  <defs
     id="defs4" />
  <sodipodi:namedview
     id="base"
     pagecolor="#ffffff"
     bordercolor="#666666"
     borderopacity="1.0"
     inkscape:pageopacity="0.0"
     inkscape:pageshadow="2"
     inkscape:zoom="4.5925493"
     inkscape:cx="39.087849"
     inkscape:cy="53.990465"
     inkscape:document-units="px"
     inkscape:current-layer="layer1"
     showgrid="true"
     inkscape:window-width="1280"
     inkscape:window-height="998"
     inkscape:window-x="0"
     inkscape:window-y="0"
     inkscape:window-maximized="1"
     showguides="true"
     inkscape:guide-bbox="true">
    <inkscape:grid
       type="xygrid"
       id="grid2985"
       empspacing="5"
       visible="true"
       enabled="true"
       snapvisiblegridlinesonly="true" />
  </sodipodi:namedview>
  <metadata
     id="metadata7">
    <rdf:RDF>
      <cc:Work
         rdf:about="">
        <dc:format>image/svg+xml</dc:format>
        <dc:type
           rdf:resource="http://purl.org/dc/dcmitype/StillImage" />
        <dc:title />
      </cc:Work>
    </rdf:RDF>
  </metadata>
  <g
     inkscape:label="Layer 1"
     inkscape:groupmode="layer"
     id="layer1"
     transform="translate(0,-924.3622)">
    <path
       style="fill:#ffb300;fill-opacity:1;stroke:none"
       d="m 16,944.36222 94,0 c 4,0 6,1.9995 6,5.99842 l 0,13.9964 c 0,2.2154 -1.8948,1.9994 -4,1.9994 l -96,0 c -2.1052,0 -4,-1.7836 -4,-3.999 l 0,-17.99522 z"
       id="path3811"
       inkscape:connector-curvature="0"
       sodipodi:nodetypes="csssssscc" />
    <path
       style="opacity:0.02999998;fill:#000000;fill-opacity:1;stroke:none"
       d="m 12,956.36244 0,9.9998 104,0 0,-9.9998 z"
       id="path3807"
       inkscape:connector-curvature="0" />
    <path
       style="fill:#ffb300;fill-opacity:1;stroke:none"
       d="m 12,952.36224 0,-9.99996 c 0,-4 1.818182,-6 3.636364,-6 l 20.727272,0 c 1.818182,0 3.636364,2 3.636364,6 l 0,9.99996 z"
       id="rect3760"
       inkscape:connector-curvature="0"
       sodipodi:nodetypes="csssscc" />
    <rect
       style="fill:#ffca28;fill-opacity:1;stroke:none"
       id="rect2990"
       width="120"
       height="80"
       x="4"
       y="960.36218"
       rx="8"
       ry="6.6666665" />
    <path
       style="opacity:0.1;fill:#ffffff;fill-opacity:1;stroke:none"
       d="m 12,960.36224 c -4.432,0 -8,2.99416 -8,6.6875 l 0,4 c 0,-3.69334 3.568,-6.6875 8,-6.6875 l 104,0 c 4.432,0 8,2.99416 8,6.6875 l 0,-4 c 0,-3.69334 -3.568,-6.6875 -8,-6.6875 l -104,0 z"
       id="rect3004"
       inkscape:connector-curvature="0" />
    <path
       style="opacity:0.05;fill:#000000;fill-opacity:1;stroke:none"
       d="m 40,944.36224 0,4 4,0 66,0 c 4,0 6,2.001 6,6 l 0,-4 c 0,-3.99892 -2,-6 -6,-6 l -66,0 z"
       id="path3781"
       inkscape:connector-curvature="0"
       sodipodi:nodetypes="cccscsscc" />
    <path
       style="opacity:0.05;fill:#000000;fill-opacity:1;stroke:none"
       d="m 15.625,936.36224 c -1.818182,0 -3.625,2 -3.625,6 l 0,4 c 0,-4 1.806818,-6 3.625,-6 l 20.75,0 c 1.818182,0 3.625,2 3.625,6 l 0,-4 c 0,-4 -1.806818,-6 -3.625,-6 l -20.75,0 z"
       id="path3801"
       inkscape:connector-curvature="0" />
    <path
       id="path3002-7"
       d="m 60.222222,976.3622 c -1.33109,0 -2.444448,1.0578 -2.444448,2.3892 v 3.111 c -0.841592,0.285 -1.65822,0.6108 -2.444438,0.9996 l -2.166756,-2.1662 c -0.941226,-0.9412 -2.447644,-0.9412 -3.388798,0 l -5.444448,5.3886 c -0.941228,0.9414 -0.941228,2.448 0,3.3888 l 2.166754,2.1668 c -0.398826,0.7998 -0.712234,1.6426 -1,2.4996 h -3.05564 C 41.113348,994.1396 40,995.1978 40,996.5288 v 7.6668 c 0,1.3312 1.113348,2.3892 2.444448,2.3892 h 3.05564 c 0.28773,0.8572 0.601192,1.6998 1,2.4996 l -2.166754,2.167 c -0.941228,0.9414 -0.941228,2.4474 0,3.3888 l 5.444448,5.3886 c 0.941226,0.941 2.447644,0.941 3.388798,0 l 2.166756,-2.1664 c 0.786218,0.39 1.602846,0.7168 2.444438,0.9996 v 3.111 c 0,1.3314 1.113376,2.3892 2.444448,2.3892 h 7.611018 c 1.331094,0 2.388982,-1.0578 2.388982,-2.3892 v -3.111 c 0.85746,-0.288 1.700126,-0.6012 2.49991,-0.9996 l 2.166758,2.1664 c 0.941224,0.941 2.447648,0.941 3.3888,0 l 5.444448,-5.3886 c 0.941226,-0.9414 0.941204,-2.448 0,-3.3888 l -2.222224,-2.2222 c 0.389488,-0.7862 0.717544,-1.6028 1,-2.4444 h 3.11111 c 1.331094,0 2.388976,-1.058 2.388976,-2.3892 v -7.6668 c 2e-6,-1.331 -1.057816,-2.3892 -2.388976,-2.3892 h -3.11111 c -0.28245,-0.8414 -0.610506,-1.658 -1,-2.4444 l 2.222224,-2.222 c 0.941226,-0.9414 0.941226,-2.4474 0,-3.3888 l -5.444448,-5.3886 c -0.94123,-0.9412 -2.447648,-0.9412 -3.3888,0 l -2.166758,2.1662 c -0.79987,-0.3996 -1.642544,-0.7116 -2.49991,-0.9996 v -3.111 c 0,-1.3314 -1.057812,-2.3892 -2.388982,-2.3892 h -7.611018 z m 3.777774,17.7774 c 3.434668,0 6.222226,2.788 6.222226,6.223 0,3.4344 -2.787558,6.2222 -6.222226,6.2222 -3.434668,0 -6.222222,-2.7878 -6.222222,-6.2222 0,-3.435 2.787554,-6.223 6.222222,-6.223 z"
       style="line-height:normal;opacity:1.0;color:#000000;fill:#c79a18;fill-opacity:1;display:block"
       inkscape:connector-curvature="0" />
  </g>
</svg>
