<?xml version="1.0" encoding="UTF-8" standalone="no"?>
<svg
   xmlns:dc="http://purl.org/dc/elements/1.1/"
   xmlns:cc="http://creativecommons.org/ns#"
   xmlns:rdf="http://www.w3.org/1999/02/22-rdf-syntax-ns#"
   xmlns:svg="http://www.w3.org/2000/svg"
   xmlns="http://www.w3.org/2000/svg"
   xmlns:sodipodi="http://sodipodi.sourceforge.net/DTD/sodipodi-0.dtd"
   xmlns:inkscape="http://www.inkscape.org/namespaces/inkscape"
   viewBox="0 0 16 16"
   id="svg2"
   version="1.1"
   inkscape:version="0.91 r13725"
   sodipodi:docname="blue-folder-move.svg">
  <metadata
     id="metadata24">
    <rdf:RDF>
      <cc:Work
         rdf:about="">
        <dc:format>image/svg+xml</dc:format>
        <dc:type
           rdf:resource="http://purl.org/dc/dcmitype/StillImage" />
      </cc:Work>
    </rdf:RDF>
  </metadata>
  <defs
     id="defs22" />
  <sodipodi:namedview
     pagecolor="#ffffff"
     bordercolor="#666666"
     borderopacity="1"
     objecttolerance="10"
     gridtolerance="10"
     guidetolerance="10"
     inkscape:pageopacity="0"
     inkscape:pageshadow="2"
     inkscape:window-width="722"
     inkscape:window-height="480"
     id="namedview20"
     showgrid="false"
     inkscape:zoom="14.75"
     inkscape:cx="8"
     inkscape:cy="8"
     inkscape:window-x="10"
     inkscape:window-y="34"
     inkscape:window-maximized="0"
     inkscape:current-layer="svg2" />
  <path
     d="m 2,2.4978 0,6.5 8,0 0,-3.5 -0.5,-2.5 -2.5,0 -0.5,-1 -4,0 c -0.25,0 -0.5,0.25 -0.5,0.5 z"
     style="fill:#ef6c00;fill-opacity:1;stroke:none"
     id="path8"
     inkscape:connector-curvature="0" />
  <rect
     width="5"
     height="2"
     x="3"
     y="2.9977853"
     style="fill:#fffdf0;fill-opacity:1;stroke:none"
     id="rect10" />
  <path
     d="m 10,3.4978 0,6.5 -8,0 0,-6 3.5,0 0.5,-1 3.5,0 c 0.25,0 0.5,0.25 0.5,0.5 z"
     style="fill:#ffa726;fill-opacity:1;stroke:none"
     id="path12"
     inkscape:connector-curvature="0" />
  <path
     style="fill:#ffffff;fill-opacity:1;stroke:none;opacity:0.5"
     d="M 2.5 1.9980469 C 2.25 1.9980469 2 2.2480469 2 2.4980469 L 2 3.9980469 L 2 8.9980469 L 2 9.9980469 L 10 9.9980469 L 10 8.9980469 L 10 5.4980469 L 10 3.4980469 C 10 3.2480469 9.75 2.9980469 9.5 2.9980469 L 8 2.9980469 L 7 2.9980469 L 6.5 1.9980469 L 2.5 1.9980469 z "
     id="path4161" />
  <path
     inkscape:connector-curvature="0"
     id="path14"
     style="fill:#ef6c00;fill-opacity:1;stroke:none"
     d="m 6,6.4978 0,6.5 8,0 0,-3.5 -0.5,-2.5 -2.5,0 -0.5,-1 -4,0 c -0.25,0 -0.5,0.25 -0.5,0.5 z" />
  <rect
     id="rect16"
     style="fill:#fffdf0;fill-opacity:1;stroke:none"
     y="6.9977856"
     x="7"
     height="2"
     width="5" />
  <path
     inkscape:connector-curvature="0"
     id="path18"
     style="fill:#ffa726;fill-opacity:1;stroke:none"
     d="m 14,7.4978 0,6.5 -8,0 0,-6 3.5,0 0.5,-1 3.5,0 c 0.25,0 0.5,0.25 0.5,0.5 z" />
</svg>
