<?xml version="1.0" encoding="UTF-8" standalone="no"?>
<!-- Created with Inkscape (http://www.inkscape.org/) -->

<svg
   xmlns:dc="http://purl.org/dc/elements/1.1/"
   xmlns:cc="http://creativecommons.org/ns#"
   xmlns:rdf="http://www.w3.org/1999/02/22-rdf-syntax-ns#"
   xmlns:svg="http://www.w3.org/2000/svg"
   xmlns="http://www.w3.org/2000/svg"
   xmlns:xlink="http://www.w3.org/1999/xlink"
   xmlns:sodipodi="http://sodipodi.sourceforge.net/DTD/sodipodi-0.dtd"
   xmlns:inkscape="http://www.inkscape.org/namespaces/inkscape"
   width="96"
   height="96"
   id="svg2"
   version="1.1"
   inkscape:version="0.91 r"
   sodipodi:docname="blue-folder-saved-search.svg">
  <defs
     id="defs4">
    <linearGradient
       id="linearGradient3844">
      <stop
         style="stop-color:#000000;stop-opacity:0.39215687;"
         offset="0"
         id="stop3846" />
      <stop
         style="stop-color:#000000;stop-opacity:0;"
         offset="1"
         id="stop3848" />
    </linearGradient>
    <radialGradient
       inkscape:collect="always"
       xlink:href="#linearGradient3844"
       id="radialGradient3850"
       cx="24.075672"
       cy="41.38316"
       fx="24.075672"
       fy="41.38316"
       r="21.075672"
       gradientTransform="matrix(1,0,0,0.11307633,0,36.703704)"
       gradientUnits="userSpaceOnUse" />
  </defs>
  <sodipodi:namedview
     id="base"
     pagecolor="#ffffff"
     bordercolor="#666666"
     borderopacity="1.0"
     inkscape:pageopacity="0.0"
     inkscape:pageshadow="2"
     inkscape:zoom="10.124503"
     inkscape:cx="18.770489"
     inkscape:cy="47.092676"
     inkscape:document-units="px"
     inkscape:current-layer="layer1"
     showgrid="true"
     inkscape:window-width="1920"
     inkscape:window-height="1052"
     inkscape:window-x="0"
     inkscape:window-y="28"
     inkscape:window-maximized="1">
    <inkscape:grid
       type="xygrid"
       id="grid2990"
       empspacing="5"
       visible="true"
       enabled="true"
       snapvisiblegridlinesonly="true" />
  </sodipodi:namedview>
  <metadata
     id="metadata7">
    <rdf:RDF>
      <cc:Work
         rdf:about="">
        <dc:format>image/svg+xml</dc:format>
        <dc:type
           rdf:resource="http://purl.org/dc/dcmitype/StillImage" />
        <dc:title />
      </cc:Work>
    </rdf:RDF>
  </metadata>
  <g
     inkscape:groupmode="layer"
     id="layer3"
     inkscape:label="Blob"
     transform="translate(0,48)">
    <path
       sodipodi:type="arc"
       style="opacity:0.65;fill:url(#radialGradient3850);fill-opacity:1;stroke:none"
       id="path3842"
       sodipodi:cx="24.075672"
       sodipodi:cy="41.38316"
       sodipodi:rx="21.075672"
       sodipodi:ry="2.3831596"
       d="m 45.151344,41.38316 a 21.075672,2.3831596 0 1 1 -42.151344,0 21.075672,2.3831596 0 1 1 42.151344,0 z"
       transform="matrix(1.992819,0,0,2.098055,0.0215431,-53.824145)" />
  </g>
  <g
     inkscape:label="Body"
     inkscape:groupmode="layer"
     id="layer1"
     transform="translate(0,-956.3622)">
    <g
       inkscape:label="Body"
       id="layer1-6"
       transform="matrix(2,0,0,2,0,-1054.3622)">
      <path
         sodipodi:nodetypes="ccccccccc"
         inkscape:connector-curvature="0"
         id="path3029"
         d="m 3,1014.3622 0,28 42,0 0,-14 -2,-12 -16,0 -2,-4 -20,0 c -1,0 -2,1 -2,2 z"
         style="fill:#1976d2;fill-opacity:1;stroke:none" />
      <rect
         style="fill:#fffdf0;fill-opacity:1;stroke:none"
         id="rect3799"
         width="21"
         height="7.9999828"
         x="6"
         y="1017.3622" />
      <path
         style="opacity:0.02999998;fill:#000000;fill-opacity:1;stroke:none"
         d="M 5,8 C 4,8 3,9 3,10 l 0,1 C 3,10 4,9 5,9 l 19,0 2,4 17,0 2,12 0,-1 -2,-12 -16,0 -2,-4 z"
         transform="translate(0,1004.3622)"
         id="path3810"
         inkscape:connector-curvature="0"
         sodipodi:nodetypes="sscsccccccccs" />
      <path
         style="fill:#42a5f5;fill-opacity:1;stroke:none"
         d="m 45,1018.3622 0,28 -42,0 0,-26 20,0 2,-4 18,0 c 1,0 2,1 2,2 z"
         id="rect2987"
         inkscape:connector-curvature="0"
         sodipodi:nodetypes="cccccccc" />
      <path
         sodipodi:nodetypes="ccccc"
         id="path3794"
         d="m 3,1045.3622 0,1 42,0 0,-1 z"
         style="opacity:0.15;fill:#000000;fill-opacity:1;stroke:none"
         inkscape:connector-curvature="0" />
      <path
         style="fill:none;stroke:none"
         d="m 25,13 -5,3 3,0 z"
         id="path3801"
         inkscape:connector-curvature="0"
         transform="translate(0,1004.3622)" />
      <path
         style="opacity:0.02999998;fill:#000000;fill-opacity:1;stroke:none"
         d="m 25,12 -2,4 -20,0 0,1 21,0 2,-4 17,0 c 1,0 2,1 2,2 l 0,-1 c 0,-1 -1,-2 -2,-2 z"
         transform="translate(0,1004.3622)"
         id="path3805"
         inkscape:connector-curvature="0"
         sodipodi:nodetypes="ccccccscssc" />
      <path
         id="path4156"
         d="m 30.376129,1026.9793 c -2.165149,-2.1659 -5.665988,-2.1524 -7.831143,0.016 -1.841065,1.8416 -2.116968,4.6448 -0.829968,6.7756 l -5.341244,5.3431 c -0.498365,0.4985 -0.498365,1.2958 0,1.7943 l 0.08032,0.08 c 0.498366,0.4986 1.295435,0.4986 1.793801,0 l 5.341244,-5.343 c 2.13308,1.2904 4.94593,1.0249 6.786994,-0.8168 2.165156,-2.1657 2.165153,-5.6812 0,-7.847 z m -1.218176,1.2184 c 1.489202,1.4898 1.489187,3.9204 0,5.4099 -1.475261,1.4758 -3.862336,1.4752 -5.354628,0.027 l -0.04017,-0.04 c -0.01332,-0.016 -0.02712,-0.027 -0.04017,-0.041 -1.44964,-1.4924 -1.435761,-3.8667 0.04017,-5.3428 1.489186,-1.4899 3.905589,-1.5033 5.39479,-0.016 z"
         style="line-height:normal;opacity:1.0;color:#000000;fill:#2a74b9;fill-opacity:1"
         inkscape:connector-curvature="0" />
    </g>
  </g>
</svg>
