<?xml version="1.0" encoding="UTF-8" standalone="no"?>
<!-- Created with Inkscape (http://www.inkscape.org/) -->

<svg
   xmlns:dc="http://purl.org/dc/elements/1.1/"
   xmlns:cc="http://creativecommons.org/ns#"
   xmlns:rdf="http://www.w3.org/1999/02/22-rdf-syntax-ns#"
   xmlns:svg="http://www.w3.org/2000/svg"
   xmlns="http://www.w3.org/2000/svg"
   xmlns:xlink="http://www.w3.org/1999/xlink"
   xmlns:sodipodi="http://sodipodi.sourceforge.net/DTD/sodipodi-0.dtd"
   xmlns:inkscape="http://www.inkscape.org/namespaces/inkscape"
   width="24"
   height="24"
   id="svg2"
   version="1.1"
   inkscape:version="0.48.5 r10040"
   sodipodi:docname="add-folders-to-archive.svg"
   inkscape:export-filename="/media/Data/Main/Visuals/Icons/Numix/Desktop/repos/numix-wiki/Gjorgi/Numix-folders/48/New/folder-144.png"
   inkscape:export-xdpi="270"
   inkscape:export-ydpi="270">
  <defs
     id="defs4">
    <radialGradient
       inkscape:collect="always"
       xlink:href="#linearGradient3886"
       id="radialGradient3011"
       gradientUnits="userSpaceOnUse"
       gradientTransform="matrix(0.625,0,0,0.10416663,-3,1044.1435)"
       cx="24"
       cy="40.5"
       fx="24"
       fy="40.5"
       r="24" />
    <linearGradient
       id="linearGradient3886">
      <stop
         style="stop-color:#000000;stop-opacity:1;"
         offset="0"
         id="stop3888" />
      <stop
         style="stop-color:#000000;stop-opacity:0.19607843;"
         offset="1"
         id="stop3890" />
    </linearGradient>
    <radialGradient
       r="24"
       fy="40.5"
       fx="24"
       cy="40.5"
       cx="24"
       gradientTransform="matrix(0.625,0,0,0.10416663,-3,1056.6435)"
       gradientUnits="userSpaceOnUse"
       id="radialGradient3014"
       xlink:href="#linearGradient3886"
       inkscape:collect="always" />
  </defs>
  <sodipodi:namedview
     id="base"
     pagecolor="#ffffff"
     bordercolor="#666666"
     borderopacity="1.0"
     inkscape:pageopacity="0.0"
     inkscape:pageshadow="2"
     inkscape:zoom="16.001372"
     inkscape:cx="9.2958182"
     inkscape:cy="19.171153"
     inkscape:document-units="px"
     inkscape:current-layer="layer1"
     showgrid="true"
     inkscape:window-width="1280"
     inkscape:window-height="998"
     inkscape:window-x="0"
     inkscape:window-y="0"
     inkscape:window-maximized="1"
     showguides="true"
     inkscape:guide-bbox="true">
    <inkscape:grid
       type="xygrid"
       id="grid2985"
       empspacing="5"
       visible="true"
       enabled="true"
       snapvisiblegridlinesonly="true" />
  </sodipodi:namedview>
  <metadata
     id="metadata7">
    <rdf:RDF>
      <cc:Work
         rdf:about="">
        <dc:format>image/svg+xml</dc:format>
        <dc:type
           rdf:resource="http://purl.org/dc/dcmitype/StillImage" />
        <dc:title />
      </cc:Work>
    </rdf:RDF>
  </metadata>
  <g
     inkscape:label="Layer 1"
     inkscape:groupmode="layer"
     id="layer1"
     transform="translate(0,-1028.3622)">
    <g
       id="g3092"
       style="opacity:0.5">
      <path
         inkscape:connector-curvature="0"
         id="path3801-0"
         d="m 8.5,1047.6122 -1.25,0.75 0.75,0 z"
         style="fill:none;stroke:none" />
      <path
         sodipodi:nodetypes="ccccccscssc"
         inkscape:connector-curvature="0"
         id="path2995-0"
         d="m 9,1040.3622 -0.5,1 -5.5,0 0,1 6.25,0 0.5,-1 3.75,0 c 0.25,0 0.5,0.2646 0.5,0.5313 l 0,-1 c 0,-0.2667 -0.25,-0.5313 -0.5,-0.5313 z"
         style="opacity:0.02999998000000000;fill:#000000;fill-opacity:1;stroke:none" />
      <rect
         ry="1.2499987"
         rx="1.1956508"
         y="1040.3622"
         x="3"
         height="7.9999962"
         width="10.999988"
         id="rect2987-0-6"
         style="fill:#388e3c;fill-opacity:1;stroke:none" />
      <path
         sodipodi:nodetypes="sscsscsss"
         inkscape:connector-curvature="0"
         id="rect3797-3"
         d="M 4.195651,1040.3622 C 3.53326,1040.3622 3,1040.9197 3,1041.6122 l 0,1 c 0,-0.6925 0.53326,-1.25 1.195651,-1.25 l 8.608686,0 c 0.662391,0 1.195651,0.5575 1.195651,1.25 l 0,-1 c 0,-0.6925 -0.53326,-1.25 -1.195651,-1.25 z"
         style="opacity:0.20000000000000001;fill:#ffffff;fill-opacity:1;stroke:none" />
      <path
         sodipodi:nodetypes="cccsssssscc"
         inkscape:connector-curvature="0"
         id="rect3776-1"
         d="m 4.195651,1042.3622 1.913041,0 c 2.630432,-0.25 2.152172,-3 3.826083,-3 l 2.869562,0 c 0.662391,0 1.195651,0.5575 1.195651,1.25 l 0,6.5 c 0,0.6925 -0.53326,1.25 -1.195651,1.25 l -8.608686,0 C 3.53326,1048.3622 3,1047.8047 3,1047.1122 l 0,-3.5 c 0,-0.75 0.47826,-1.25 1.195651,-1.25 z"
         style="fill:#66bb6a;fill-opacity:1;stroke:none" />
      <path
         sodipodi:nodetypes="csssscssc"
         inkscape:connector-curvature="0"
         id="path3786-3"
         d="m 3,1046.1122 0,1 c 0,0.6925 0.53326,1.25 1.195651,1.25 l 8.608686,0 c 0.662391,0 1.195651,-0.5575 1.195651,-1.25 l 0,-1 c 0,0.6925 -0.53326,1.25 -1.195651,1.25 l -8.608686,0 C 3.53326,1047.3622 3,1046.8047 3,1046.1122 z"
         style="opacity:0.14999999999999999;fill:#000000;fill-opacity:1;stroke:none" />
    </g>
    <path
       style="fill:none;stroke:none"
       d="m 15.5,1040.6122 -1.25,0.75 0.75,0 z"
       id="path3801"
       inkscape:connector-curvature="0" />
    <path
       style="opacity:0.02999998;fill:#000000;fill-opacity:1;stroke:none"
       d="m 16,1033.3622 -0.5,1 -5.5,0 0,1 6.25,0 0.5,-1 3.75,0 c 0.25,0 0.5,0.2646 0.5,0.5313 l 0,-1 c 0,-0.2667 -0.25,-0.5313 -0.5,-0.5313 z"
       id="path2995"
       inkscape:connector-curvature="0"
       sodipodi:nodetypes="ccccccscssc" />
    <path
       inkscape:connector-curvature="0"
       style="opacity:0.1;fill:url(#radialGradient3014);fill-opacity:1;stroke:none"
       d="m 12,1058.3622 c -4.9132745,0 -9.2639851,0.3915 -12,1 l 0,3 c 2.7360149,0.6085 7.0867255,1 12,1 4.913274,0 9.263985,-0.3915 12,-1 l 0,-3 c -2.736015,-0.6085 -7.086726,-1 -12,-1 z"
       id="path3868" />
    <rect
       style="fill:#388e3c;fill-opacity:1;stroke:none"
       id="rect2987-0"
       width="10.999988"
       height="7.9999962"
       x="10"
       y="1033.3622"
       rx="1.1956508"
       ry="1.2499987" />
    <path
       style="opacity:0.2;fill:#ffffff;fill-opacity:1;stroke:none"
       d="m 11.195651,1033.3622 c -0.662391,0 -1.195651,0.5575 -1.195651,1.25 l 0,1 c 0,-0.6925 0.53326,-1.25 1.195651,-1.25 l 8.608686,0 c 0.662391,0 1.195651,0.5575 1.195651,1.25 l 0,-1 c 0,-0.6925 -0.53326,-1.25 -1.195651,-1.25 z"
       id="rect3797"
       inkscape:connector-curvature="0"
       sodipodi:nodetypes="sscsscsss" />
    <path
       style="fill:#66bb6a;fill-opacity:1;stroke:none"
       d="m 11.195651,1035.3622 1.913041,0 c 2.630432,-0.25 2.152172,-3 3.826083,-3 l 2.869562,0 c 0.662391,0 1.195651,0.5575 1.195651,1.25 l 0,6.5 c 0,0.6925 -0.53326,1.25 -1.195651,1.25 l -8.608686,0 C 10.53326,1041.3622 10,1040.8047 10,1040.1122 l 0,-3.5 c 0,-0.75 0.47826,-1.25 1.195651,-1.25 z"
       id="rect3776"
       inkscape:connector-curvature="0"
       sodipodi:nodetypes="cccsssssscc" />
    <path
       style="opacity:0.15;fill:#000000;fill-opacity:1;stroke:none"
       d="m 10,1039.1122 0,1 c 0,0.6925 0.53326,1.25 1.195651,1.25 l 8.608686,0 c 0.662391,0 1.195651,-0.5575 1.195651,-1.25 l 0,-1 c 0,0.6925 -0.53326,1.25 -1.195651,1.25 l -8.608686,0 C 10.53326,1040.3622 10,1039.8047 10,1039.1122 z"
       id="path3786"
       inkscape:connector-curvature="0"
       sodipodi:nodetypes="csssscssc" />
    <path
       inkscape:connector-curvature="0"
       style="fill:#4caf50;fill-opacity:1"
       d="m 21,1040.3622 -4,0 0,-4 -4,0 0,4 -4,0 0,4 4,0 0,4 4,0 0,-4 4,0 z"
       id="path14" />
  </g>
</svg>
