<?xml version="1.0" encoding="UTF-8" standalone="no"?>
<!-- Created with Inkscape (http://www.inkscape.org/) -->

<svg
   xmlns:dc="http://purl.org/dc/elements/1.1/"
   xmlns:cc="http://creativecommons.org/ns#"
   xmlns:rdf="http://www.w3.org/1999/02/22-rdf-syntax-ns#"
   xmlns:svg="http://www.w3.org/2000/svg"
   xmlns="http://www.w3.org/2000/svg"
   xmlns:xlink="http://www.w3.org/1999/xlink"
   xmlns:sodipodi="http://sodipodi.sourceforge.net/DTD/sodipodi-0.dtd"
   xmlns:inkscape="http://www.inkscape.org/namespaces/inkscape"
   width="24"
   height="24"
   id="svg2"
   version="1.1"
   inkscape:version="0.91 r"
   sodipodi:docname="orange-document-open-recent.svg"
   inkscape:export-filename="/media/Data/Main/Visuals/Icons/Numix/Desktop/repos/numix-wiki/Gjorgi/Numix-folders/48/New/folder-144.png"
   inkscape:export-xdpi="270"
   inkscape:export-ydpi="270">
  <defs
     id="defs4">
    <linearGradient
       id="linearGradient3886-2">
      <stop
         style="stop-color:#000000;stop-opacity:1;"
         offset="0"
         id="stop3888-5" />
      <stop
         style="stop-color:#000000;stop-opacity:0.19607843;"
         offset="1"
         id="stop3890-3" />
    </linearGradient>
    <radialGradient
       r="24"
       fy="40.5"
       fx="24"
       cy="40.5"
       cx="24"
       gradientTransform="matrix(0.625,0,0,0.10416663,-3,1044.1435)"
       gradientUnits="userSpaceOnUse"
       id="radialGradient3066"
       xlink:href="#linearGradient3886-2"
       inkscape:collect="always" />
  </defs>
  <sodipodi:namedview
     id="base"
     pagecolor="#ffffff"
     bordercolor="#666666"
     borderopacity="1.0"
     inkscape:pageopacity="0.0"
     inkscape:pageshadow="2"
     inkscape:zoom="19.7"
     inkscape:cx="16.120237"
     inkscape:cy="10.550445"
     inkscape:document-units="px"
     inkscape:current-layer="layer1"
     showgrid="true"
     inkscape:window-width="1280"
     inkscape:window-height="998"
     inkscape:window-x="0"
     inkscape:window-y="0"
     inkscape:window-maximized="1"
     showguides="true"
     inkscape:guide-bbox="true">
    <inkscape:grid
       type="xygrid"
       id="grid2985"
       empspacing="5"
       visible="true"
       enabled="true"
       snapvisiblegridlinesonly="true" />
  </sodipodi:namedview>
  <metadata
     id="metadata7">
    <rdf:RDF>
      <cc:Work
         rdf:about="">
        <dc:format>image/svg+xml</dc:format>
        <dc:type
           rdf:resource="http://purl.org/dc/dcmitype/StillImage" />
        <dc:title />
      </cc:Work>
    </rdf:RDF>
  </metadata>
  <g
     inkscape:label="Layer 1"
     inkscape:groupmode="layer"
     id="layer1"
     transform="translate(0,-1028.3622)">
    <path
       inkscape:connector-curvature="0"
       style="opacity:0.1;fill:url(#radialGradient3066);fill-opacity:1;stroke:none"
       d="m 12,1045.8622 c -4.913274,0 -9.2639851,0.3915 -12,1 l 0,3 c 2.7360149,0.6085 7.086726,1 12,1 4.913274,0 9.263985,-0.3915 12,-1 l 0,-3 c -2.736015,-0.6085 -7.086726,-1 -12,-1 z"
       id="path3868-2" />
    <rect
       style="fill:#e65100;fill-opacity:1;stroke:none"
       id="rect2987-0"
       width="22"
       height="16.00001"
       x="1"
       y="1033.3622"
       rx="2.3913043"
       ry="2.5" />
    <path
       style="opacity:0.2;fill:#ffffff;fill-opacity:1;stroke:none"
       d="M 3.3913043,1033.3622 C 2.0665217,1033.3622 1,1034.4772 1,1035.8622 l 0,1 c 0,-1.385 1.0665217,-2.5 2.3913043,-2.5 l 17.2173917,0 c 1.324782,0 2.391304,1.115 2.391304,2.5 l 0,-1 c 0,-1.385 -1.066522,-2.5 -2.391304,-2.5 l -17.2173917,0 z"
       id="rect3797-2"
       inkscape:connector-curvature="0" />
    <rect
       style="fill:#eae7d1;fill-opacity:1;stroke:none"
       id="rect3799"
       width="16"
       height="12.999991"
       x="4"
       y="1030.3622"
       ry="1.0399985"
       rx="1.0666666" />
    <rect
       y="1038.3622"
       x="6"
       height="0.99999994"
       width="12"
       id="rect3812"
       style="fill:#7a7a68;fill-opacity:1;stroke:none" />
    <rect
       style="fill:#7a7a68;fill-opacity:1;stroke:none"
       id="rect3810"
       width="12"
       height="0.99999994"
       x="6"
       y="1036.3622" />
    <path
       style="fill:#f57c00;fill-opacity:1;stroke:none"
       d="m 3.3913043,1040.3622 3.8260867,0 c 5.26087,-0.3611 4.304348,-4 7.652174,-4 l 5.739131,0 c 1.324782,0 2.391304,0.8054 2.391304,1.8056 l 0,9.3888 c 0,1.0003 -1.066522,1.8056 -2.391304,1.8056 l -17.2173917,0 C 2.0665217,1049.3622 1,1048.5569 1,1047.5566 l 0,-5.0555 c 0,-1.0833 0.9565217,-2.1389 2.3913043,-2.1389 z"
       id="rect3776-9"
       inkscape:connector-curvature="0"
       sodipodi:nodetypes="cccsssssscc" />
    <path
       style="opacity:0.15;fill:#000000;fill-opacity:1;stroke:none"
       d="m 1,1045.8622 0,1 c 0,1.385 1.0665217,2.5 2.3913043,2.5 l 17.2173917,0 c 1.324782,0 2.391304,-1.115 2.391304,-2.5 l 0,-1 c 0,1.385 -1.066522,2.5 -2.391304,2.5 l -17.2173917,0 C 2.0665217,1048.3622 1,1047.2472 1,1045.8622 z"
       id="path3786-7"
       inkscape:connector-curvature="0" />
    <path
       style="fill:none;stroke:none"
       d="m 12.5,1036.3622 -2.5,1.5 1.5,0 z"
       id="path3801"
       inkscape:connector-curvature="0" />
    <rect
       style="fill:#7a7a68;fill-opacity:1;stroke:none"
       id="rect3794"
       width="12"
       height="0.99999994"
       x="6"
       y="1032.3622" />
    <rect
       y="1034.3622"
       x="6"
       height="0.99999994"
       width="12"
       id="rect3808"
       style="fill:#7a7a68;fill-opacity:1;stroke:none" />
    <path
       id="path12"
       d="m 21.998975,1044.3622 a 4.9999998,4.9008012 0 1 1 -9.997951,0 4.9999998,4.9008012 0 1 1 9.997951,0 z"
       style="fill:#4caf50;fill-opacity:1;fill-rule:evenodd"
       inkscape:connector-curvature="0" />
    <path
       id="path14"
       d="m 19.73407,1041.2184 a 0.5121901,0.5072243 0 0 0 -0.256095,0.2029 l -2.724851,2.6375 -1.700472,-1.6231 a 0.5121901,0.5072243 0 1 0 -0.696578,0.6087 l 2.04876,2.0289 a 0.5121901,0.5072243 0 0 0 0.696579,0 l 3.07314,-3.0433 a 0.5121901,0.5072243 0 0 0 -0.440483,-0.8116 z"
       style="line-height:normal;color:#000000;fill:#ffffff"
       inkscape:connector-curvature="0" />
  </g>
</svg>
