<?xml version="1.0" encoding="UTF-8" standalone="no"?>
<svg
   xmlns:dc="http://purl.org/dc/elements/1.1/"
   xmlns:cc="http://creativecommons.org/ns#"
   xmlns:rdf="http://www.w3.org/1999/02/22-rdf-syntax-ns#"
   xmlns:svg="http://www.w3.org/2000/svg"
   xmlns="http://www.w3.org/2000/svg"
   xmlns:sodipodi="http://sodipodi.sourceforge.net/DTD/sodipodi-0.dtd"
   xmlns:inkscape="http://www.inkscape.org/namespaces/inkscape"
   width="24"
   height="24"
   viewBox="0 0 24 24"
   id="svg3141"
   version="1.1"
   inkscape:version="0.91 r"
   sodipodi:docname="yellow-network.svg">
  <metadata
     id="metadata3155">
    <rdf:RDF>
      <cc:Work
         rdf:about="">
        <dc:format>image/svg+xml</dc:format>
        <dc:type
           rdf:resource="http://purl.org/dc/dcmitype/StillImage" />
      </cc:Work>
    </rdf:RDF>
  </metadata>
  <defs
     id="defs3153" />
  <sodipodi:namedview
     pagecolor="#ffffff"
     bordercolor="#666666"
     borderopacity="1"
     objecttolerance="10"
     gridtolerance="10"
     guidetolerance="10"
     inkscape:pageopacity="0"
     inkscape:pageshadow="2"
     inkscape:window-width="1280"
     inkscape:window-height="998"
     id="namedview3151"
     showgrid="false"
     inkscape:zoom="15.170655"
     inkscape:cx="15.565232"
     inkscape:cy="3.5999025"
     inkscape:window-x="0"
     inkscape:window-y="0"
     inkscape:window-maximized="1"
     inkscape:current-layer="svg3141" />
  <path
     style="font-size:medium;font-style:normal;font-variant:normal;font-weight:normal;font-stretch:normal;text-indent:0;text-align:start;text-decoration:none;line-height:normal;letter-spacing:normal;word-spacing:normal;text-transform:none;direction:ltr;block-progression:tb;writing-mode:lr-tb;text-anchor:start;baseline-shift:baseline;color:#000000;fill:#ffca28;fill-opacity:1;fill-rule:nonzero;stroke:none;stroke-width:1.03313816;marker:none;visibility:visible;display:inline;overflow:visible;enable-background:accumulate;font-family:Sans;-inkscape-font-specification:Sans"
     d="m 4.0000115,3.0000004 c -0.5473306,0 -1,0.4096882 -1,1 l 0,1 -1,0 c -0.5019272,0 -1,0.3847489 -1,1 -1.519e-5,4.5937496 0,9.4062496 0,13.9999996 0,0.545771 0.4934173,1 1,1 l 20.0000005,0 c 0.515688,0 1,-0.437034 1,-1 l 0,-12.9999996 c 0,-0.5770209 -0.423105,-1 -1,-1 l -2,0 0,-2 c 0,-0.4874255 -0.401824,-1 -1,-1 z"
     id="path2995"
     inkscape:connector-curvature="0"
     sodipodi:nodetypes="ccccccssssscssc" />
  <path
     style="font-size:medium;font-style:normal;font-variant:normal;font-weight:normal;font-stretch:normal;text-indent:0;text-align:start;text-decoration:none;line-height:normal;letter-spacing:normal;word-spacing:normal;text-transform:none;direction:ltr;block-progression:tb;writing-mode:lr-tb;text-anchor:start;baseline-shift:baseline;color:#000000;fill:#000000;fill-opacity:0.32156863;fill-rule:nonzero;stroke:none;stroke-width:1.03313816;marker:none;visibility:visible;display:inline;overflow:visible;enable-background:accumulate;font-family:Sans;-inkscape-font-specification:Sans"
     d="m 4.0000115,3.0000004 c -0.5444543,0 -1,0.3988699 -1,1 l 0,1 -1,0 c -0.5067594,0 -1,0.3964676 -1,1 -2.589e-5,4.5937496 0,9.4062496 0,13.9999996 0,0.487177 0.4191986,1 1,1 l 20.0000005,0 c 0.521212,0 1,-0.442558 1,-1 l 0,-12.9999996 c 0,-0.5731146 -0.393904,-1 -1,-1 l -2,0 0,-2 c 0,-0.5585119 -0.457433,-1 -1,-1 z m 10.0000005,3 0,1 8,0 0,12.9999996 -20.0000005,0 0,-13.9999996 z"
     id="path3786"
     inkscape:connector-curvature="0"
     sodipodi:nodetypes="ssccccssssscsssccccccc" />
  <path
     id="path4139"
     d="M 11.375179,9 C 9.2425069,9 7,11.2426 7,14.0001 7,16.7574 9.24251,19 11.375179,19 14.75749,19 17,16.7574 17,14.0001 17,11.2426 14.757494,9 12,9 z m 1.03107,0.7033 c 0.466047,0.043 0.917599,0.1495 1.328126,0.3281 -0.0316,0.039 -0.05602,0.074 -0.07812,0.1406 -0.126269,0.3787 -0.314721,0.1982 -0.09375,0.6717 0.220971,0.4734 0.405616,0.5959 0.468749,0.3749 0.06314,-0.2208 -0.158787,-0.5325 0.09375,-0.4062 0.252539,0.1263 0.439404,-0.034 0.25,0.2502 -0.189404,0.2841 -0.185279,0.4381 -0.406249,0.3749 -0.220972,-0.064 -0.216528,0.3744 -0.437501,0.4376 -0.22097,0.063 -0.296874,-0.095 -0.296874,0.063 0,0.1577 0.125316,0.013 0.09375,0.2657 -0.0096,0.077 -0.0068,0.091 -0.01562,0.1249 -0.207422,-0.059 -0.299931,-0.092 -0.453125,-0.032 -0.157837,0.063 -0.34375,0.4688 -0.34375,0.4688 0.197168,0.1972 0.288649,0.3391 0.359375,0.4063 -0.04413,0.022 -0.09722,0.031 -0.140625,0.063 -0.315674,0.221 -0.56155,0.2626 -0.65625,0.578 -0.0947,0.316 -0.06249,0.027 -0.06249,0.4062 0,0.379 -0.09566,0.1215 0.09375,0.469 0.189403,0.3472 0.654028,0.5135 0.874999,0.703 0.220971,0.1893 0.448683,-0.412 0.890625,0.1563 0.441941,0.5682 0.470337,0.3405 0.3125,0.6563 -0.157837,0.3157 -0.311865,0.4206 -0.374999,0.5469 -0.06314,0.1262 0.122779,0.5615 0.34375,0.6561 0.0046,0 0.01067,0 0.01562,0 -0.01176,0.027 -0.01959,0.051 -0.03126,0.078 -0.286147,0.1299 -0.636921,0.3092 -0.703127,0.328 -0.15625,0.045 -0.707588,0.1383 -1.109374,0.2499 -0.05022,0.014 -0.08976,0.014 -0.109375,0.016 0.04995,-0.054 0.444883,-0.2608 0.640624,-0.3748 0.267859,-0.1566 -0.01562,-0.1407 -0.01562,-0.1407 0,0 -0.426339,-0.048 -1.296874,-0.048 -0.435269,0 -0.623884,0.019 -0.71875,0.048 -0.04743,0.014 -0.07073,0.028 -0.09375,0.047 -0.02302,0.019 -0.03906,0.04 -0.07812,0.063 -0.156252,0.089 0.09151,0.183 -0.109375,0.2499 -0.150669,0.05 -0.168178,0 -0.296874,-0.094 0.0918,-0.091 0.218489,-0.2013 0.374999,-0.3907 0.284105,-0.3437 0.374048,-0.2811 0.46875,-0.5936 0.0947,-0.3127 -0.796874,-0.2187 -0.796874,-0.4063 0,-0.1875 -0.153396,-0.3124 -0.4375003,-0.4375 -0.2841057,-0.1251 -0.090581,-0.1876 -0.4062507,-0.2813 -0.3156718,-0.093 -0.6709225,0.4687 -0.7656243,0.2813 -0.094704,-0.1876 0.296875,-0.1876 0.296875,-0.4062 0,-0.2135 -0.4502275,0.1611 -0.5312513,-0.1094 -0.00213,-0.01 -0.014044,-0.01 -0.015625,-0.016 -0.00793,-0.039 -0.00281,-0.063 0,-0.093 0.019862,-0.2247 0.28014,-0.3125 0.3906256,-0.5313 0.12627,-0.2497 0.060913,0.1877 0.21875,0.4063 0.1578369,0.2188 0.094704,-0.2812 0,-0.5625 -0.094703,-0.2813 0.060281,-0.2812 0.2812507,-0.6562 0.2209705,-0.375 0.21875,-0.5938 0.21875,-0.875 0,-0.2813 0.1530775,-0.3123 0.4687493,-0.5938 0.144684,-0.1287 0.258196,-0.2411 0.34375,-0.3437 0.02068,-0.01 0.04157,-0.01 0.0625,-0.016 0.334823,-0.134 0.475446,-0.3348 0.765625,-0.9376 0.29018,-0.6025 -0.113839,-0.04 -0.203125,-0.062 -0.08929,-0.022 -0.21875,-0.1808 -0.531251,-0.3594 -0.06445,-0.037 -0.121966,-0.054 -0.171874,-0.062 l 0.578125,-0.9531 c 0.185185,-0.05 0.384009,-0.084 0.578125,-0.1095 0.07102,0.4042 0.03126,0.7814 0.03126,0.7814 0,0 -0.109375,0.1294 -0.109375,0.2187 0,0.089 0.598214,-0.7366 0.6875,-0.7812 0.08929,-0.045 0.314731,0.2366 0.359374,-0.1875 0.0025,-0.024 -0.0028,-0.025 0,-0.047 z m 0.84375,1.6874 c -0.03206,-0.01 -0.06992,-1e-4 -0.109373,0.016 0,0.1105 -0.04277,0.1909 -0.06249,0.2344 -0.01174,-0.02 -0.04688,-0.047 -0.04688,-0.047 -0.04734,0.087 -0.14947,0.1643 -0.04688,0.1406 0.102593,-0.023 0.180401,0.04 0.109375,-0.047 -0.01366,-0.016 -0.0072,-0.01 -0.01562,-0.016 0.01331,0.01 0.03851,0.016 0.09375,0.016 0.06216,0 0.09557,0 0.140624,0 -0.07621,0.056 -0.159333,0.08 -0.04688,0.1093 0.149944,0.039 0.21875,0.047 0.21875,0.016 0,-0.031 -0.04687,-0.1406 -0.04687,-0.1406 0.02929,-0.012 0.05651,-0.027 0.03126,-0.078 -0.04735,-0.094 -0.122569,-0.1883 -0.218751,-0.2031 z m 2.390626,0.2655 c 0.07807,0.1213 0.152862,0.246 0.218751,0.3751 -0.04346,0.2521 -0.153842,0.4219 0.03126,0.4219 0.05175,0 0.09791,-0.011 0.140625,-0.016 0.0058,0.015 0.01003,0.032 0.01563,0.047 -0.315674,0 -0.467164,0.094 -0.625,0.063 -0.157837,-0.032 -0.596605,-0.06 -0.3125,-0.3437 0.166047,-0.1661 0.37347,-0.4299 0.53125,-0.547 z m -1.96875,0.5783 c 0.02909,0.01 0.05446,0.039 0.07812,0.093 0.0947,0.2211 0.251269,0.406 0.125,0.4376 -0.12627,0.031 -0.187501,0.063 -0.187501,0.063 0,0 0.437183,0.2843 0.468751,-0.031 0.03157,-0.3158 -0.125,-0.5002 -0.125,-0.5002 0,0 0.218116,0.2176 0.28125,0.3439 0.06314,0.1262 0.06091,0 0.21875,0.1563 0.157836,0.1577 0.122779,-0.6273 0.34375,-0.4063 0.220972,0.221 0.36001,0.2172 0.296875,0.375 -0.06314,0.1577 0.406251,-0.1907 0.406251,0.125 0,0.3042 0.194084,0.4277 -0.1875,0.5781 -0.144472,-0.01 -0.258821,-0.034 -0.281251,-0.078 -0.06314,-0.1261 -0.421875,-0.031 -0.421875,-0.031 -0.944323,-0.236 -1.354287,-0.3108 -1.625,-0.2656 0.0051,-0.01 0.01009,-0.01 0.01562,-0.016 0.138107,-0.2488 0.397954,-0.5942 0.3125,-0.7188 0.120356,-0.069 0.214702,-0.1453 0.28125,-0.1251 z m 2.65625,1.578 c 0.0028,0.064 0,0.1234 0,0.1876 0,0.1777 -0.01066,0.3591 -0.03126,0.5311 -0.284007,-0.2526 -0.687501,-0.2499 -0.687501,-0.2499 0,0 0.24651,-0.28 0.593751,-0.4063 0.04341,-0.016 0.08992,-0.037 0.125,-0.063 z"
     style="line-height:normal;color:#000000;fill:#000000;fill-opacity:0.32156863"
     inkscape:connector-curvature="0" />
</svg>
