<?xml version="1.0" encoding="UTF-8" standalone="no"?>
<svg
   xmlns:dc="http://purl.org/dc/elements/1.1/"
   xmlns:cc="http://creativecommons.org/ns#"
   xmlns:rdf="http://www.w3.org/1999/02/22-rdf-syntax-ns#"
   xmlns:svg="http://www.w3.org/2000/svg"
   xmlns="http://www.w3.org/2000/svg"
   xmlns:sodipodi="http://sodipodi.sourceforge.net/DTD/sodipodi-0.dtd"
   xmlns:inkscape="http://www.inkscape.org/namespaces/inkscape"
   width="256"
   height="256"
   viewBox="0 0 204.8 204.8"
   version="1.1"
   id="svg3035"
   inkscape:version="0.48.5 r10040"
   sodipodi:docname="folder-download.svg">
  <metadata
     id="metadata3044">
    <rdf:RDF>
      <cc:Work
         rdf:about="">
        <dc:format>image/svg+xml</dc:format>
        <dc:type
           rdf:resource="http://purl.org/dc/dcmitype/StillImage" />
      </cc:Work>
    </rdf:RDF>
  </metadata>
  <defs
     id="defs3042" />
  <sodipodi:namedview
     pagecolor="#ffffff"
     bordercolor="#666666"
     borderopacity="1"
     objecttolerance="10"
     gridtolerance="10"
     guidetolerance="10"
     inkscape:pageopacity="0"
     inkscape:pageshadow="2"
     inkscape:window-width="1280"
     inkscape:window-height="998"
     id="namedview3040"
     showgrid="true"
     inkscape:zoom="4.17193"
     inkscape:cx="144.2267"
     inkscape:cy="162.42509"
     inkscape:window-x="0"
     inkscape:window-y="0"
     inkscape:window-maximized="1"
     inkscape:current-layer="svg3035">
    <inkscape:grid
       type="xygrid"
       id="grid3296"
       empspacing="5"
       visible="true"
       enabled="true"
       snapvisiblegridlinesonly="true" />
  </sodipodi:namedview>
  <g
     id="surface1"
     transform="scale(0.8,0.8)">
    <path
       inkscape:connector-curvature="0"
       style="fill:#42a5f5;fill-opacity:1;fill-rule:nonzero;stroke:none"
       d="m 24.25,40 c -4.519531,0.445312 -8.324219,4.710938 -8.25,9.25 l 0,157.5 c -0.05469,4.85937 4.390625,9.30469 9.25,9.25 l 205.5,0 c 4.85937,0.0547 9.30469,-4.39063 9.25,-9.25 l 0,-141.5 c 0.0547,-4.859375 -4.39063,-9.304688 -9.25,-9.25 l -78.75,0 0,-6.75 c 0.0547,-4.773438 -4.22656,-9.175781 -9,-9.25 L 25.25,40 c -0.332031,0 -0.667969,0 -1,0 z M 128,84 c 4.43359,0 8,3.566406 8,8 l 0,40 16,0 c 8,0 8,0 0,8 l -16,16 c -8,8 -8,8 -16,0 l -16,-16 c -8,-8 -8,-8 0,-8 l 16,0 0,-40 c 0,-4.433594 3.56641,-8 8,-8 z m -48.25,56 0.5,0 c 4.273438,0 7.75,3.56641 7.75,8 l 0,24 80,0 0,-24 c 0,-4.43359 3.47656,-8 7.75,-8 l 0.5,0 c 4.27344,0 7.75,3.56641 7.75,8 l 0,32.375 c -0.0195,0.42187 -0.0469,0.84766 -0.125,1.25 -0.0156,0.082 0.0195,0.16797 0,0.25 -0.0977,0.4375 -0.33594,0.84375 -0.5,1.25 -0.20313,0.5 -0.44922,0.93359 -0.75,1.375 -0.0195,0.0312 0.0195,0.0937 0,0.125 -0.22656,0.33984 -0.47656,0.57812 -0.75,0.875 -0.0391,0.043 -0.082,0.082 -0.125,0.125 -0.0234,0.0234 -0.10156,-0.0234 -0.125,0 -0.0234,0.0234 0.0234,0.10547 0,0.125 -0.31641,0.3125 -0.63672,0.62109 -1,0.875 -0.0508,0.0312 -0.0742,0.0937 -0.125,0.125 -0.17578,0.11719 -0.4375,0.14453 -0.625,0.25 -1.15234,0.60937 -2.46094,1 -3.875,1 l -96,0 c -0.08594,0 -0.164062,0.004 -0.25,0 -0.453125,0 -0.945312,-0.0469 -1.375,-0.125 -0.07813,-0.0156 -0.171875,0.0156 -0.25,0 -0.460938,-0.0977 -0.820312,-0.32031 -1.25,-0.5 -0.03516,-0.0156 -0.08984,0.0156 -0.125,0 -0.214844,-0.0937 -0.421875,-0.26172 -0.625,-0.375 -0.253906,-0.13281 -0.515625,-0.21484 -0.75,-0.375 -0.363281,-0.25391 -0.683594,-0.5625 -1,-0.875 -0.04297,-0.0391 -0.08203,-0.082 -0.125,-0.125 -0.04297,-0.043 -0.08203,-0.0781 -0.125,-0.125 -0.289062,-0.30078 -0.515625,-0.65625 -0.75,-1 -0.300781,-0.44141 -0.546875,-0.875 -0.75,-1.375 -0.164062,-0.40625 -0.402344,-0.8125 -0.5,-1.25 -0.01953,-0.082 0.01563,-0.16797 0,-0.25 -0.07813,-0.40234 -0.105469,-0.82813 -0.125,-1.25 L 72,148 c 0,-4.43359 3.476562,-8 7.75,-8 z m 0,0"
       id="path3038" />
  </g>
</svg>
