<svg xmlns="http://www.w3.org/2000/svg" viewBox="0 0 96 96">
 <rect width="64" height="26" x="6" y="40" style="fill:#ec407a;fill-opacity:1;stroke:none"/>
 <path d="m 14,42 c 0,-3 0,-6 3.636366,-6 l 12.72727,0 C 34,36 34,39 34,42 z" style="fill:#ec407a;fill-opacity:1;stroke:none"/>
 <path d="m 12 44 54 0 0 12.133 -54 0 z" style="fill:#95989f;fill-opacity:1;stroke:none"/>
 <rect y="42" x="16" height="34" width="48" style="fill:#d8d8da;fill-opacity:1;stroke:none"/>
 <rect width="48" height="34.667" x="14" y="48" style="fill:#f9f9f9;fill-opacity:1;stroke:none"/>
 <path d="m 0 50 76.27 0 -8.267 42 -62 0 z" style="fill:#f06292;fill-opacity:1;stroke:none"/>
 <path d="m 17.567 36 c -2.796 0 -3.405 1.807 -3.551 4 l -8.04 0 0 10 l -5.98 0 5.98 42 61.797 0 8.223 -42 l -6.23 0 0 -10 -35.944 0 c -0.146 -2.193 -0.755 -4 -3.551 -4 z" style="fill:#000;fill-opacity:0.102;stroke:none"/>
 <rect width="64" height="26" x="26" y="8" style="fill:#ec407a;fill-opacity:1;stroke:none"/>
 <path d="m 34,10 c 0,-3 0,-6 3.636366,-6 l 12.72727,0 C 54,4 54,7 54,10 z" style="fill:#ec407a;fill-opacity:1;stroke:none"/>
 <path d="m 32 12 54 0 0 12.133 -54 0 z" style="fill:#95989f;fill-opacity:1;stroke:none"/>
 <rect y="10" x="36" height="34" width="48" style="fill:#d8d8da;fill-opacity:1;stroke:none"/>
 <rect width="48" height="34.667" x="34" y="16" style="fill:#f9f9f9;fill-opacity:1;stroke:none"/>
 <path d="m 20 18 76.27 0 -6.267 42 -64 0 z" style="fill:#f06292;fill-opacity:1;stroke:none"/>
 <path d="m 92 60 -16 0 0 -16 -16 0 0 16 -16 0 0 16 16 0 0 16 16 0 0 -16 16 0 z" style="fill:#859900"/>
</svg>
