<svg xmlns="http://www.w3.org/2000/svg" viewBox="0 0 96 96">
 <rect width="76" height="30" x="10" y="20" style="fill:#ffb300;fill-opacity:1;stroke:none"/>
 <path d="m 20 24 c 0 -4 0 -8 4 -8 l 14 0 c 4 0 4 4 4 8 z" style="fill:#ffb300;fill-opacity:1;stroke:none"/>
 <path d="m 18 26 62 0 0 20 -62 0 z" style="fill:#95989f;fill-opacity:1;stroke:none"/>
 <rect y="24" x="22" height="40" width="56" style="fill:#d8d8da;fill-opacity:1;stroke:none"/>
 <rect width="56" height="40" x="20" y="30" style="fill:#f9f9f9;fill-opacity:1;stroke:none"/>
 <path d="m 4 46 88 0 -8 34 -74 0 z" style="fill:#ffca28;fill-opacity:1;stroke:none"/>
 <path d="m 24 34 48 0 0 2 -48 0 z" style="fill:#ccc"/>
 <path d="m 24 38 48 0 0 2 -48 0 z" style="fill:#ccc"/>
 <path d="m 24 42 48 0 0 2 -48 0 z" style="fill:#ccc"/>
 <path d="m 87.04 68.69 c 0.141 6.992 -3.547 13.516 -9.648 17.05 -6.094 3.539 -13.648 3.539 -19.75 0 -6.102 -3.539 -9.789 -10.06 -9.641 -17.05 -0.148 -7 3.539 -13.523 9.641 -17.06 6.102 -3.539 13.656 -3.539 19.75 0 6.102 3.539 9.789 10.06 9.648 17.06 z" style="fill:#859900;fill-rule:evenodd"/>
 <path d="m 78.2 56.29 c -0.414 0.148 -0.766 0.43 -1 0.797 l -10.641 10.398 -6.641 -6.398 c -0.266 -0.883 -1.102 -1.477 -2.031 -1.43 c -0.922 0.055 -1.688 0.734 -1.859 1.641 -0.164 0.914 0.32 1.82 1.172 2.188 l 8 8 c 0.766 0.719 1.953 0.719 2.719 0 l 12 -12 c 0.469 -0.617 0.531 -1.461 0.164 -2.148 -0.367 -0.688 -1.109 -1.094 -1.883 -1.047 z" style="fill:#fff"/>
</svg>
