<?xml version="1.0" encoding="UTF-8" standalone="no"?>
<!-- Created with Inkscape (http://www.inkscape.org/) -->

<svg
   xmlns:dc="http://purl.org/dc/elements/1.1/"
   xmlns:cc="http://creativecommons.org/ns#"
   xmlns:rdf="http://www.w3.org/1999/02/22-rdf-syntax-ns#"
   xmlns:svg="http://www.w3.org/2000/svg"
   xmlns="http://www.w3.org/2000/svg"
   xmlns:sodipodi="http://sodipodi.sourceforge.net/DTD/sodipodi-0.dtd"
   xmlns:inkscape="http://www.inkscape.org/namespaces/inkscape"
   width="256"
   height="256"
   id="svg2"
   version="1.1"
   inkscape:version="0.91 r"
   sodipodi:docname="green-add-folders-to-archive.svg"
   inkscape:export-filename="/media/Data/Main/Visuals/Icons/Numix/Desktop/repos/numix-wiki/Gjorgi/Numix-folders/48/New/folder-144.png"
   inkscape:export-xdpi="270"
   inkscape:export-ydpi="270">
  <defs
     id="defs4" />
  <sodipodi:namedview
     id="base"
     pagecolor="#ffffff"
     bordercolor="#666666"
     borderopacity="1.0"
     inkscape:pageopacity="0.0"
     inkscape:pageshadow="2"
     inkscape:zoom="2"
     inkscape:cx="188.69049"
     inkscape:cy="99.196995"
     inkscape:document-units="px"
     inkscape:current-layer="layer1"
     showgrid="true"
     inkscape:window-width="1280"
     inkscape:window-height="998"
     inkscape:window-x="0"
     inkscape:window-y="0"
     inkscape:window-maximized="1"
     showguides="true"
     inkscape:guide-bbox="true">
    <inkscape:grid
       type="xygrid"
       id="grid2985"
       empspacing="5"
       visible="true"
       enabled="true"
       snapvisiblegridlinesonly="true" />
  </sodipodi:namedview>
  <metadata
     id="metadata7">
    <rdf:RDF>
      <cc:Work
         rdf:about="">
        <dc:format>image/svg+xml</dc:format>
        <dc:type
           rdf:resource="http://purl.org/dc/dcmitype/StillImage" />
        <dc:title />
      </cc:Work>
    </rdf:RDF>
  </metadata>
  <g
     inkscape:label="Layer 1"
     inkscape:groupmode="layer"
     id="layer1"
     transform="translate(0,-796.3622)">
    <g
       id="g3027"
       style="opacity:0.5"
       transform="matrix(8,0,0,8,0,-7366.5354)">
      <rect
         ry="2.187494"
         rx="1.9565217"
         y="1033.3622"
         x="3"
         height="12.000105"
         width="18"
         id="rect2987-6-5"
         style="fill:#388e3c;fill-opacity:1;stroke:none" />
      <path
         sodipodi:nodetypes="sscsscsss"
         inkscape:connector-curvature="0"
         id="rect3797-7"
         d="M 4.9565217,1033.3623 C 3.8726085,1033.3623 3,1034.4772 3,1035.8622 l 0,0.9999 c 0,-1.3849 0.8726085,-2.4998 1.9565217,-2.4998 l 14.0869563,0 c 1.083914,0 1.956522,1.1149 1.956522,2.4998 l 0,-0.9999 c 0,-1.385 -0.872608,-2.4999 -1.956522,-2.4999 z"
         style="opacity:0.2;fill:#ffffff;fill-opacity:1;stroke:none" />
      <path
         sodipodi:nodetypes="cccsssssscc"
         inkscape:connector-curvature="0"
         id="rect3776-7"
         d="m 4.9565217,1036.3622 3.1304349,0 c 4.3043484,-0.4444 3.5217384,-5 6.2608694,-5 l 4.695652,0 c 1.083914,0 1.956522,0.9911 1.956522,2.2222 l 0,9.5556 c 0,1.2311 -0.872608,2.2222 -1.956522,2.2222 l -14.0869563,0 C 3.8726085,1045.3622 3,1044.3711 3,1043.14 l 0,-4.2218 c 0,-1.3333 0.7826085,-2.556 1.9565217,-2.556 z"
         style="fill:#66bb6a;fill-opacity:1;stroke:none" />
      <path
         sodipodi:nodetypes="csssscssc"
         inkscape:connector-curvature="0"
         id="path3786-4"
         d="m 3,1042.2511 0,0.8889 c 0,1.2311 0.8726085,2.2222 1.9565217,2.2222 l 14.0869563,0 C 20.127392,1045.3622 21,1044.3711 21,1043.14 l 0,-0.8889 c 0,1.2311 -0.872608,2.1111 -1.956522,2.1111 l -14.0869563,0 C 3.8726085,1044.3622 3,1043.4822 3,1042.2511 z"
         style="opacity:0.15;fill:#000000;fill-opacity:1;stroke:none" />
    </g>
    <rect
       style="fill:#fffdf0;fill-opacity:1;stroke:none"
       id="rect3799"
       width="63.142857"
       height="23.764568"
       x="114"
       y="836.36218" />
    <path
       style="fill:none;stroke:none"
       d="m 171.04762,835.6566 -15.2381,9.1768 9.14286,0 z"
       id="path3801"
       inkscape:connector-curvature="0" />
    <rect
       style="fill:#388e3c;fill-opacity:1;stroke:none"
       id="rect2987-6"
       width="144"
       height="96.000839"
       x="88"
       y="828.35925"
       rx="15.652174"
       ry="17.499952" />
    <path
       style="opacity:0.2;fill:#ffffff;fill-opacity:1;stroke:none"
       d="M 103.65218,828.3614 C 94.980872,828.3614 88,837.2806 88,848.3606 l 0,7.9992 c 0,-11.0792 6.980872,-19.9984 15.65218,-19.9984 l 112.69564,0 c 8.67132,0 15.65218,8.9192 15.65218,19.9984 l 0,-7.9992 c 0,-11.08 -6.98086,-19.9992 -15.65218,-19.9992 z"
       id="rect3797"
       inkscape:connector-curvature="0"
       sodipodi:nodetypes="sscsscsss" />
    <path
       style="fill:#66bb6a;fill-opacity:1;stroke:none"
       d="m 103.65218,852.3622 25.04348,0 c 34.43478,-3.5552 28.1739,-40 50.08694,-40 l 37.56522,0 c 8.67132,0 15.65218,7.9288 15.65218,17.7776 l 0,76.4432 c 0,9.8488 -6.98086,17.7776 -15.65218,17.7776 l -112.69564,0 C 94.980872,924.3606 88,916.4318 88,906.583 l 0,-33.776 c 0,-10.6664 6.260872,-20.444 15.65218,-20.4448 z"
       id="rect3776"
       inkscape:connector-curvature="0"
       sodipodi:nodetypes="cccsssssscc" />
    <path
       style="opacity:0.15;fill:#000000;fill-opacity:1;stroke:none"
       d="m 88,899.4718 0,7.1112 c 0,9.8488 6.980872,17.7776 15.65218,17.7776 l 112.69564,0 C 225.01914,924.3606 232,916.4318 232,906.583 l 0,-7.1112 c 0,9.8488 -6.98086,16.8888 -15.65218,16.8888 l -112.69564,0 C 94.980872,916.3606 88,909.3206 88,899.4718 z"
       id="path3786"
       inkscape:connector-curvature="0"
       sodipodi:nodetypes="csssscssc" />
    <path
       inkscape:connector-curvature="0"
       style="fill:#4caf50;fill-opacity:1"
       d="m 224,932.3622 -48,0 0,-48 -40,0 0,48 -48,0 0,40 48,0 0,48 40,0 0,-48 48,0 z"
       id="path2996-3"
       sodipodi:nodetypes="ccccccccccccc" />
  </g>
</svg>
