<?xml version="1.0" encoding="UTF-8" standalone="no"?>
<svg
   xmlns:dc="http://purl.org/dc/elements/1.1/"
   xmlns:cc="http://creativecommons.org/ns#"
   xmlns:rdf="http://www.w3.org/1999/02/22-rdf-syntax-ns#"
   xmlns:svg="http://www.w3.org/2000/svg"
   xmlns="http://www.w3.org/2000/svg"
   xmlns:sodipodi="http://sodipodi.sourceforge.net/DTD/sodipodi-0.dtd"
   xmlns:inkscape="http://www.inkscape.org/namespaces/inkscape"
   width="64"
   height="64"
   viewBox="0 0 64 64"
   id="svg3023"
   version="1.1"
   inkscape:version="0.48.5 r10040"
   sodipodi:docname="folder-recent.svg">
  <metadata
     id="metadata3037">
    <rdf:RDF>
      <cc:Work
         rdf:about="">
        <dc:format>image/svg+xml</dc:format>
        <dc:type
           rdf:resource="http://purl.org/dc/dcmitype/StillImage" />
      </cc:Work>
    </rdf:RDF>
  </metadata>
  <defs
     id="defs3035" />
  <sodipodi:namedview
     pagecolor="#ffffff"
     bordercolor="#666666"
     borderopacity="1"
     objecttolerance="10"
     gridtolerance="10"
     guidetolerance="10"
     inkscape:pageopacity="0"
     inkscape:pageshadow="2"
     inkscape:window-width="1280"
     inkscape:window-height="998"
     id="namedview3033"
     showgrid="false"
     inkscape:zoom="10.429825"
     inkscape:cx="9.9432971"
     inkscape:cy="29.582787"
     inkscape:window-x="0"
     inkscape:window-y="0"
     inkscape:window-maximized="1"
     inkscape:current-layer="svg3023" />
  <path
     style="fill:#ffca28;fill-opacity:1;stroke:none"
     d="M 9,8.0000001 C 7.536083,8.0000001 6,9.5112225 6,11 l 0,1 -3,0 c -1.470099,0 -3,1.49533 -3,3 l 0,38 c 0,2 1,3 3,3 l 58,0 c 1.567614,0 3,-1.358342 3,-3 l 0,-33 c 0,-1.504928 -1.455038,-3 -3,-3 l -3,0 0,-6 C 58,9.5388439 56.546781,8.0000001 55,8.0000001 z"
     id="path6"
     inkscape:connector-curvature="0"
     sodipodi:nodetypes="ssccssssscccsss" />
  <path
     inkscape:connector-curvature="0"
     style="fill:#000000;fill-opacity:0.32156863;stroke:none"
     d="M 9,8.0000001 C 7.536083,8.0000001 6,9.5112225 6,11 l 0,1 -3,0 c -1.470099,0 -3,1.49533 -3,3 l 0,38 c 0,2 1,3 3,3 l 58,0 c 1.567614,0 3,-1.358342 3,-3 l 0,-33 c 0,-1.504928 -1.455038,-3 -3,-3 l -3,0 0,-6 C 58,9.5388439 56.546781,8.0000001 55,8.0000001 l -46,0 z M 3,14 37,14 c 0.590175,0 1,0.51477 1,1 l 0,4 23,0 c 0.505551,0 1,0.508742 1,1 l 0,33 c 0,0.521292 -0.478766,1 -1,1 L 3,54 C 2.535705,54 2,53.603654 2,53 L 2,15 c 0,-0.492405 0.516529,-1 1,-1 z"
     id="path3778" />
  <path
     style="opacity:1;fill:#000000;fill-opacity:0.32156909000000000;stroke:none"
     d="M 18 23 L 18 33 L 28 33 L 24.21875 29.21875 C 26.211432 27.228739 28.962499 26 32 26 C 38.075132 26 43 30.924868 43 37 C 43 43.075132 38.075132 48 32 48 C 25.924868 48 21 43.075132 21 37 C 21 36.662363 21.03272 36.329883 21.0625 36 L 18.03125 36 C 18.007972 36.330072 18 36.664005 18 37 C 18 44.731986 24.268014 51 32 51 C 39.731986 51 46 44.731986 46 37 C 46 29.268014 39.731986 23 32 23 C 28.128254 23 24.626811 24.554897 22.09375 27.09375 L 18 23 z M 31.8125 27.9375 A 2.0002 2.0002 0 0 0 31.5625 28 A 2.0002 2.0002 0 0 0 30 30 L 30 37.375 A 2.0002 2.0002 0 0 0 30 37.5625 A 2.0002 2.0002 0 0 0 30.25 39.0625 A 2.0002 2.0002 0 0 0 30.3125 39.125 A 2.0002 2.0002 0 0 0 30.375 39.25 A 2.0002 2.0002 0 0 0 30.4375 39.3125 A 2.0002 2.0002 0 0 0 30.5 39.375 A 2.0002 2.0002 0 0 0 30.5625 39.4375 A 2.0002 2.0002 0 0 0 30.625 39.5 A 2.0002 2.0002 0 0 0 30.75 39.5625 A 2.0002 2.0002 0 0 0 30.8125 39.625 A 2.0002 2.0002 0 0 0 30.875 39.6875 A 2.0002 2.0002 0 0 0 31 39.75 A 2.0002 2.0002 0 0 0 31.25 39.875 L 36.1875 42.75 A 2.0155644 2.0155644 0 0 0 38.1875 39.25 L 34 36.8125 L 34 30 A 2.0002 2.0002 0 0 0 31.8125 27.9375 z "
     id="path4017" />
</svg>
