<?xml version="1.0" encoding="UTF-8" standalone="no"?>
<!-- Created with Inkscape (http://www.inkscape.org/) -->

<svg
   xmlns:dc="http://purl.org/dc/elements/1.1/"
   xmlns:cc="http://creativecommons.org/ns#"
   xmlns:rdf="http://www.w3.org/1999/02/22-rdf-syntax-ns#"
   xmlns:svg="http://www.w3.org/2000/svg"
   xmlns="http://www.w3.org/2000/svg"
   xmlns:xlink="http://www.w3.org/1999/xlink"
   xmlns:sodipodi="http://sodipodi.sourceforge.net/DTD/sodipodi-0.dtd"
   xmlns:inkscape="http://www.inkscape.org/namespaces/inkscape"
   width="128"
   height="128"
   id="svg2"
   version="1.1"
   inkscape:version="0.48.5 r10040"
   sodipodi:docname="folder-music.svg"
   inkscape:export-filename="/media/Data/Main/Visuals/Icons/Numix/Desktop/repos/numix-wiki/Gjorgi/Numix-folders/48/New/folder-144.png"
   inkscape:export-xdpi="270"
   inkscape:export-ydpi="270">
  <defs
     id="defs4">
    <linearGradient
       inkscape:collect="always"
       id="linearGradient3958">
      <stop
         style="stop-color:#000000;stop-opacity:1;"
         offset="0"
         id="stop3960" />
      <stop
         style="stop-color:#000000;stop-opacity:0;"
         offset="1"
         id="stop3962" />
    </linearGradient>
    <radialGradient
       inkscape:collect="always"
       xlink:href="#linearGradient3958"
       id="radialGradient3964"
       cx="32.5"
       cy="56.5"
       fx="32.5"
       fy="56.5"
       r="33.5"
       gradientTransform="matrix(1,0,0,0.10447761,0,50.597015)"
       gradientUnits="userSpaceOnUse" />
  </defs>
  <sodipodi:namedview
     id="base"
     pagecolor="#ffffff"
     bordercolor="#666666"
     borderopacity="1.0"
     inkscape:pageopacity="0.0"
     inkscape:pageshadow="2"
     inkscape:zoom="5.2755365"
     inkscape:cx="95.736101"
     inkscape:cy="56.566234"
     inkscape:document-units="px"
     inkscape:current-layer="layer1"
     showgrid="true"
     inkscape:window-width="1280"
     inkscape:window-height="998"
     inkscape:window-x="0"
     inkscape:window-y="0"
     inkscape:window-maximized="1"
     showguides="true"
     inkscape:guide-bbox="true">
    <inkscape:grid
       type="xygrid"
       id="grid2985"
       empspacing="5"
       visible="true"
       enabled="true"
       snapvisiblegridlinesonly="true" />
  </sodipodi:namedview>
  <metadata
     id="metadata7">
    <rdf:RDF>
      <cc:Work
         rdf:about="">
        <dc:format>image/svg+xml</dc:format>
        <dc:type
           rdf:resource="http://purl.org/dc/dcmitype/StillImage" />
        <dc:title />
      </cc:Work>
    </rdf:RDF>
  </metadata>
  <g
     inkscape:label="Layer 1"
     inkscape:groupmode="layer"
     id="layer1"
     transform="translate(0,-924.3622)">
    <path
       style="font-size:medium;font-style:normal;font-variant:normal;font-weight:normal;font-stretch:normal;text-indent:0;text-align:start;text-decoration:none;line-height:normal;letter-spacing:normal;word-spacing:normal;text-transform:none;direction:ltr;block-progression:tb;writing-mode:lr-tb;text-anchor:start;baseline-shift:baseline;color:#000000;fill:#f06292;fill-opacity:1;fill-rule:nonzero;stroke:none;stroke-width:2.28612947;marker:none;visibility:visible;display:inline;overflow:visible;enable-background:accumulate;font-family:Sans;-inkscape-font-specification:Sans"
       d="m 12.125497,944.36253 c -2.2588145,0.2218 -4.1617971,2.35552 -4.1249714,4.62497 l 0,78.7495 c -0.028,2.4292 2.1958344,4.6528 4.6249684,4.625 l 102.749276,0 c 2.42914,0.028 4.6529,-2.1958 4.62497,-4.625 l 0,-70.74956 c 0.028,-2.42918 -2.19583,-4.65277 -4.62497,-4.62497 l -39.374722,0 0,-3.37497 c 0.0275,-2.38765 -2.112551,-4.58697 -4.499969,-4.62497 l -58.874585,0 c -0.166499,0 -0.333498,-2e-4 -0.499997,0 z m 43.874691,23.99989 23.999832,0 c 4.431968,0 7.999943,3.49477 7.999943,7.81254 0.003,0.064 0,0.124 0,0.188 l 0,0.188 0,31.81214 c 0,4.4182 -3.581696,8 -7.999943,8 -4.418247,0 -7.999944,-3.5818 -7.999944,-8 0,-4.4181 3.581697,-7.9999 7.999944,-7.9999 l 0,-15.99989 -23.999832,0 0,23.99979 c 0,0.3192 -0.08864,0.628 -0.124999,0.9376 -0.46694,3.9734 -3.775973,7.0624 -7.874944,7.0624 -4.418247,0 -7.999944,-3.5818 -7.999944,-8 0,-4.4181 3.581697,-7.9999 7.999944,-7.9999 l 0,-21.99985 c 0,-0.3254 0.05532,-0.635 0.124999,-0.93739 -0.03422,-0.2942 -0.124999,-0.5722 -0.124999,-0.875 l 0,-0.375 c 0,-4.31777 3.567975,-7.81254 7.999943,-7.81254 z"
       id="path3912"
       inkscape:connector-curvature="0" />
  </g>
</svg>
