<?xml version="1.0" encoding="UTF-8" standalone="no"?>
<!-- Created with Inkscape (http://www.inkscape.org/) -->

<svg
   xmlns:dc="http://purl.org/dc/elements/1.1/"
   xmlns:cc="http://creativecommons.org/ns#"
   xmlns:rdf="http://www.w3.org/1999/02/22-rdf-syntax-ns#"
   xmlns:svg="http://www.w3.org/2000/svg"
   xmlns="http://www.w3.org/2000/svg"
   xmlns:xlink="http://www.w3.org/1999/xlink"
   xmlns:sodipodi="http://sodipodi.sourceforge.net/DTD/sodipodi-0.dtd"
   xmlns:inkscape="http://www.inkscape.org/namespaces/inkscape"
   width="128"
   height="128"
   id="svg2"
   version="1.1"
   inkscape:version="0.48.5 r10040"
   sodipodi:docname="folder-steam.svg"
   inkscape:export-filename="/media/Data/Main/Visuals/Icons/Numix/Desktop/repos/numix-wiki/Gjorgi/Numix-folders/48/New/folder-144.png"
   inkscape:export-xdpi="270"
   inkscape:export-ydpi="270">
  <defs
     id="defs4">
    <linearGradient
       inkscape:collect="always"
       id="linearGradient3958">
      <stop
         style="stop-color:#000000;stop-opacity:1;"
         offset="0"
         id="stop3960" />
      <stop
         style="stop-color:#000000;stop-opacity:0;"
         offset="1"
         id="stop3962" />
    </linearGradient>
    <radialGradient
       inkscape:collect="always"
       xlink:href="#linearGradient3958"
       id="radialGradient3964"
       cx="32.5"
       cy="56.5"
       fx="32.5"
       fy="56.5"
       r="33.5"
       gradientTransform="matrix(1,0,0,0.10447761,0,50.597015)"
       gradientUnits="userSpaceOnUse" />
  </defs>
  <sodipodi:namedview
     id="base"
     pagecolor="#ffffff"
     bordercolor="#666666"
     borderopacity="1.0"
     inkscape:pageopacity="0.0"
     inkscape:pageshadow="2"
     inkscape:zoom="3.7303678"
     inkscape:cx="93.155857"
     inkscape:cy="44.693221"
     inkscape:document-units="px"
     inkscape:current-layer="layer1"
     showgrid="true"
     inkscape:window-width="1280"
     inkscape:window-height="998"
     inkscape:window-x="0"
     inkscape:window-y="0"
     inkscape:window-maximized="1"
     showguides="true"
     inkscape:guide-bbox="true">
    <inkscape:grid
       type="xygrid"
       id="grid2985"
       empspacing="5"
       visible="true"
       enabled="true"
       snapvisiblegridlinesonly="true" />
  </sodipodi:namedview>
  <metadata
     id="metadata7">
    <rdf:RDF>
      <cc:Work
         rdf:about="">
        <dc:format>image/svg+xml</dc:format>
        <dc:type
           rdf:resource="http://purl.org/dc/dcmitype/StillImage" />
        <dc:title />
      </cc:Work>
    </rdf:RDF>
  </metadata>
  <g
     inkscape:label="Layer 1"
     inkscape:groupmode="layer"
     id="layer1"
     transform="translate(0,-924.3622)">
    <path
       style="font-size:medium;font-style:normal;font-variant:normal;font-weight:normal;font-stretch:normal;text-indent:0;text-align:start;text-decoration:none;line-height:normal;letter-spacing:normal;word-spacing:normal;text-transform:none;direction:ltr;block-progression:tb;writing-mode:lr-tb;text-anchor:start;baseline-shift:baseline;color:#000000;fill:#7e57c2;fill-opacity:1;fill-rule:nonzero;stroke:none;stroke-width:2.28612947;marker:none;visibility:visible;display:inline;overflow:visible;enable-background:accumulate;font-family:Sans;-inkscape-font-specification:Sans"
       d="m 12.125507,944.36232 c -2.2588201,0.2218 -4.1618052,2.35553 -4.1249814,4.62498 l 0,78.7497 c -0.028,2.4292 2.1958394,4.6528 4.6249784,4.625 l 102.749526,0 c 2.42914,0.028 4.65291,-2.1958 4.62497,-4.625 l 0,-70.74974 c 0.028,-2.42919 -2.19583,-4.65278 -4.62497,-4.62498 l -39.374821,0 0,-3.37498 c 0.0275,-2.38765 -2.112556,-4.58698 -4.499979,-4.62498 l -58.874726,0 c -0.166499,0 -0.333498,-2e-4 -0.499997,0 z m 67.374685,23.99995 c 6.555974,0 11.937445,5.46477 11.937445,12.18754 0,4.99538 -3.042958,9.28696 -7.249966,11.18735 -0.04462,0.02 -0.08014,0.076 -0.125,0.124 l -6.249971,11.43754 -0.124999,0 c 1.117487,1.4794 1.812491,3.3092 1.812491,5.3124 0,4.8084 -3.813228,8.6875 -8.49996,8.6875 -4.603794,0 -8.43946,-3.7991 -8.56246,-8.4999 l -11.874945,-5.5 c -1.422167,1.0892 -3.226852,1.8124 -5.124976,1.8124 -4.680442,0 -8.56246,-4.0036 -8.56246,-8.81236 0,-4.80178 3.884114,-8.74996 8.56246,-8.74996 4.686727,0 8.499961,3.95038 8.499961,8.74996 l 11.812445,5.43736 c 1.014597,-0.8122 2.262397,-1.4724 3.562483,-1.74998 l 0,-13.18734 c -1.055505,-1.82559 -1.749992,-3.99178 -1.749992,-6.24997 0,-6.72957 5.373083,-12.18754 11.937444,-12.18754 z m 0,4.06258 c -4.416099,0 -7.874963,3.60338 -7.874963,8.12496 0,4.52978 3.458864,8.12496 7.874963,8.12496 4.407708,0 7.874964,-3.59518 7.874964,-8.12496 0,-4.52158 -3.465156,-8.12496 -7.874964,-8.12496 z m 0,2.93739 c 2.827985,0 5.124977,2.28458 5.124977,5.18757 0,2.89579 -2.296992,5.18738 -5.124977,5.18738 -2.819594,0 -5.124976,-2.29419 -5.124976,-5.18738 0,-2.90479 2.305382,-5.18757 5.124976,-5.18757 z m -34.062341,15.68752 c -3.409112,0 -5.124976,1.75459 -5.124976,5.24998 0,3.50338 1.715864,5.31236 5.124976,5.31236 0.426918,0 0.751485,-0.064 1.124995,-0.124 l -2.18749,-1.125 c -1.934309,-0.83518 -2.882774,-3.14097 -2.06249,-5.12496 0.820276,-1.98699 3.065704,-2.84358 4.999977,-1.99999 l 2.999986,1.375 c -0.505084,-2.34559 -2.075651,-3.56239 -4.874978,-3.56239 z m 25.562381,11.68734 c -0.75063,0 -1.471787,0.168 -2.12499,0.4376 l 3.687483,1.6874 c 1.934273,0.8346 2.882768,3.1416 2.06249,5.125 -0.820282,1.9924 -3.065707,2.9682 -4.999976,2.125 l -4.062482,-1.8124 c 0.708043,2.3802 2.875235,4.0624 5.437475,4.0624 3.155251,0 5.624974,-2.5156 5.624974,-5.75 0,-3.2346 -2.469723,-5.875 -5.624974,-5.875 z"
       id="path3912"
       inkscape:connector-curvature="0" />
  </g>
</svg>
