<?xml version="1.0" encoding="UTF-8" standalone="no"?>
<!-- Created with Inkscape (http://www.inkscape.org/) -->

<svg
   xmlns:dc="http://purl.org/dc/elements/1.1/"
   xmlns:cc="http://creativecommons.org/ns#"
   xmlns:rdf="http://www.w3.org/1999/02/22-rdf-syntax-ns#"
   xmlns:svg="http://www.w3.org/2000/svg"
   xmlns="http://www.w3.org/2000/svg"
   xmlns:xlink="http://www.w3.org/1999/xlink"
   xmlns:sodipodi="http://sodipodi.sourceforge.net/DTD/sodipodi-0.dtd"
   xmlns:inkscape="http://www.inkscape.org/namespaces/inkscape"
   width="128"
   height="128"
   id="svg2"
   version="1.1"
   inkscape:version="0.48.5 r10040"
   sodipodi:docname="folder-ubuntu.svg"
   inkscape:export-filename="/media/Data/Main/Visuals/Icons/Numix/Desktop/repos/numix-wiki/Gjorgi/Numix-folders/48/New/folder-144.png"
   inkscape:export-xdpi="270"
   inkscape:export-ydpi="270">
  <defs
     id="defs4">
    <linearGradient
       inkscape:collect="always"
       id="linearGradient3958">
      <stop
         style="stop-color:#000000;stop-opacity:1;"
         offset="0"
         id="stop3960" />
      <stop
         style="stop-color:#000000;stop-opacity:0;"
         offset="1"
         id="stop3962" />
    </linearGradient>
    <radialGradient
       inkscape:collect="always"
       xlink:href="#linearGradient3958"
       id="radialGradient3964"
       cx="32.5"
       cy="56.5"
       fx="32.5"
       fy="56.5"
       r="33.5"
       gradientTransform="matrix(1,0,0,0.10447761,0,50.597015)"
       gradientUnits="userSpaceOnUse" />
  </defs>
  <sodipodi:namedview
     id="base"
     pagecolor="#ffffff"
     bordercolor="#666666"
     borderopacity="1.0"
     inkscape:pageopacity="0.0"
     inkscape:pageshadow="2"
     inkscape:zoom="4.9222496"
     inkscape:cx="75.249003"
     inkscape:cy="57.406377"
     inkscape:document-units="px"
     inkscape:current-layer="layer1"
     showgrid="true"
     inkscape:window-width="1280"
     inkscape:window-height="998"
     inkscape:window-x="0"
     inkscape:window-y="0"
     inkscape:window-maximized="1"
     showguides="true"
     inkscape:guide-bbox="true">
    <inkscape:grid
       type="xygrid"
       id="grid2985"
       empspacing="5"
       visible="true"
       enabled="true"
       snapvisiblegridlinesonly="true" />
  </sodipodi:namedview>
  <metadata
     id="metadata7">
    <rdf:RDF>
      <cc:Work
         rdf:about="">
        <dc:format>image/svg+xml</dc:format>
        <dc:type
           rdf:resource="http://purl.org/dc/dcmitype/StillImage" />
        <dc:title />
      </cc:Work>
    </rdf:RDF>
  </metadata>
  <g
     inkscape:label="Layer 1"
     inkscape:groupmode="layer"
     id="layer1"
     transform="translate(0,-924.3622)">
    <path
       style="font-size:medium;font-style:normal;font-variant:normal;font-weight:normal;font-stretch:normal;text-indent:0;text-align:start;text-decoration:none;line-height:normal;letter-spacing:normal;word-spacing:normal;text-transform:none;direction:ltr;block-progression:tb;writing-mode:lr-tb;text-anchor:start;baseline-shift:baseline;color:#000000;fill:#ef5350;fill-opacity:1;fill-rule:nonzero;stroke:none;stroke-width:2.28612947;marker:none;visibility:visible;display:inline;overflow:visible;enable-background:accumulate;font-family:Sans;-inkscape-font-specification:Sans"
       d="m 12.125507,944.36232 c -2.2588203,0.2218 -4.1618058,2.35553 -4.1249814,4.62498 l 0,78.7497 c -0.028,2.4292 2.1958404,4.6528 4.6249784,4.625 l 102.749526,0 c 2.42914,0.028 4.65291,-2.1958 4.62497,-4.625 l 0,-70.74974 c 0.028,-2.42919 -2.19583,-4.65278 -4.62497,-4.62498 l -39.374821,0 0,-3.37498 c 0.0275,-2.38765 -2.112556,-4.58698 -4.499979,-4.62498 l -58.874726,0 c -0.166499,0 -0.3335,-2e-4 -0.499997,0 z m 73.874655,19.99991 c 3.313693,0 5.999972,2.68618 5.999972,6.00003 0,3.31378 -2.686279,5.99997 -5.999972,5.99997 -3.313692,0 -5.999972,-2.68619 -5.999972,-5.99997 0,-3.31385 2.68628,-6.00003 5.999972,-6.00003 z m -21.999897,4.00004 c 4.605196,0 8.908532,1.31359 12.562441,3.56258 -0.338666,0.7514 -0.562497,1.55959 -0.562497,2.43739 0,3.31378 2.686279,5.99997 5.999972,5.99997 0.877706,0 1.686078,-0.2238 2.437488,-0.5624 1.915088,3.11139 3.112578,6.72317 3.437484,10.56236 l -7.999962,0 c -0.987618,-7.88877 -7.718388,-13.99994 -15.874926,-13.99994 -2.339669,0 -4.559297,0.535 -6.56247,1.43759 l -5.937472,-5.93757 c 3.640189,-2.23479 7.915935,-3.49998 12.499942,-3.49998 z m -15.687427,5.93757 5.624974,5.62497 c -3.617859,2.93319 -5.937473,7.41677 -5.937473,12.43735 0,5.44137 2.724502,10.23434 6.874968,13.12494 l -5.749973,5.75 c -4.216494,-3.3344 -7.254836,-8.0866 -8.49996,-13.49997 1.990557,-0.97639 3.374984,-3.00819 3.374984,-5.37497 0,-2.36679 -1.384427,-4.39858 -3.374984,-5.37498 1.155716,-5.02478 3.929518,-9.41096 7.687464,-12.68734 z m -16.312424,12.06234 c 3.313693,0 5.999972,2.68619 5.999972,5.99998 0,3.31378 -2.686279,5.99997 -5.999972,5.99997 -3.313692,0 -5.999972,-2.68619 -5.999972,-5.99997 0,-3.31379 2.68628,-5.99998 5.999972,-5.99998 z m 47.874777,7.99997 7.999962,0 c -0.431486,5.22497 -2.509042,9.94595 -5.749973,13.68755 -1.077279,-1.03 -2.516864,-1.6876 -4.124981,-1.6876 -3.313692,0 -5.999972,2.6862 -5.999972,6 0,0.8778 0.223831,1.686 0.562498,2.4376 -2.666024,1.0215 -5.536992,1.5623 -8.56246,1.5623 -4.151907,0 -8.033617,-1.0776 -11.437447,-2.9373 l 6.062472,-6.0626 c 1.68438,0.6026 3.483408,1 5.374975,1 8.156538,0 14.887308,-6.1112 15.874926,-13.99995 z m 2.12499,15.99995 c 3.313692,0 5.999972,2.6862 5.999972,5.9999 0,3.3138 -2.68628,6 -5.999972,6 -3.313693,0 -5.999972,-2.6862 -5.999972,-6 0,-3.3137 2.686279,-5.9999 5.999972,-5.9999 z"
       id="path3912"
       inkscape:connector-curvature="0" />
  </g>
</svg>
