<?xml version="1.0" encoding="UTF-8" standalone="no"?>
<svg
   xmlns:dc="http://purl.org/dc/elements/1.1/"
   xmlns:cc="http://creativecommons.org/ns#"
   xmlns:rdf="http://www.w3.org/1999/02/22-rdf-syntax-ns#"
   xmlns:svg="http://www.w3.org/2000/svg"
   xmlns="http://www.w3.org/2000/svg"
   xmlns:sodipodi="http://sodipodi.sourceforge.net/DTD/sodipodi-0.dtd"
   xmlns:inkscape="http://www.inkscape.org/namespaces/inkscape"
   width="256"
   height="256"
   viewBox="0 0 256 256"
   id="svg2"
   version="1.1"
   inkscape:version="0.48.5 r10040"
   sodipodi:docname="document-open.svg">
  <metadata
     id="metadata12">
    <rdf:RDF>
      <cc:Work
         rdf:about="">
        <dc:format>image/svg+xml</dc:format>
        <dc:type
           rdf:resource="http://purl.org/dc/dcmitype/StillImage" />
      </cc:Work>
    </rdf:RDF>
  </metadata>
  <defs
     id="defs10" />
  <sodipodi:namedview
     pagecolor="#ffffff"
     bordercolor="#666666"
     borderopacity="1"
     objecttolerance="10"
     gridtolerance="10"
     guidetolerance="10"
     inkscape:pageopacity="0"
     inkscape:pageshadow="2"
     inkscape:window-width="1280"
     inkscape:window-height="969"
     id="namedview8"
     showgrid="true"
     inkscape:zoom="29.5"
     inkscape:cx="260.92196"
     inkscape:cy="154.57377"
     inkscape:window-x="0"
     inkscape:window-y="0"
     inkscape:window-maximized="1"
     inkscape:current-layer="svg2">
    <inkscape:grid
       type="xygrid"
       id="grid3010" />
  </sodipodi:namedview>
  <path
     style="fill:#8d6e63;fill-opacity:1;stroke:none"
     d="m 36,30 c -5.85566,0 -12,6 -12,12 l 0,34 -12,0 C 6.1196,76 0,81.98132 0,88 l 0,126 c 0,8 4,12 12,12 l 232.00001,0 c 6.27046,0 12,-5.43338 12,-12 l 0,-106 c 0,-6.01972 -5.82016,-12 -12,-12 l -12,0 0,-54 c 0,-5.84462 -5.81288,-12 -12,-12 z"
     id="path6-6"
     inkscape:connector-curvature="0"
     sodipodi:nodetypes="ssccssssscccsss" />
  <path
     sodipodi:nodetypes="sscsssssssscsssssscssssssss"
     inkscape:connector-curvature="0"
     style="fill:#000000;fill-opacity:0.32156863;stroke:none"
     d="m 36,30 c -5.85566,0 -12,6 -12,12 l 0,34 -12,0 C 6.1196,76 0,81.98132 0,88 l 0,126 c 0,8 4,12 12,12 l 232.00001,0 c 6.27046,0 12,-5.43338 12,-12 l 0,-106 c 0,-6.01972 -5.79439,-12 -12,-12 l -12,0 0,-54 c 0,-5.84462 -5.81288,-12 -12,-12 z m -24,54 136.00001,0 c 2.3607,0 4,2.05908 4,4 l 0,16 92,0 c 2.0222,0 4,2.03496 4,4 l 0,106 c 0,2.08516 -1.91506,4 -4,4 L 12,218 c -1.85718,0 -4,-1.58538 -4,-4 L 8,88 c 0,-1.96962 2.06612,-4 4,-4 z"
     id="path3778" />
</svg>
