<?xml version="1.0" encoding="UTF-8" standalone="no"?>
<svg
   xmlns:dc="http://purl.org/dc/elements/1.1/"
   xmlns:cc="http://creativecommons.org/ns#"
   xmlns:rdf="http://www.w3.org/1999/02/22-rdf-syntax-ns#"
   xmlns:svg="http://www.w3.org/2000/svg"
   xmlns="http://www.w3.org/2000/svg"
   xmlns:sodipodi="http://sodipodi.sourceforge.net/DTD/sodipodi-0.dtd"
   xmlns:inkscape="http://www.inkscape.org/namespaces/inkscape"
   width="24"
   height="24"
   viewBox="0 0 24 24"
   id="svg3001"
   version="1.1"
   inkscape:version="0.48.4 r9939"
   sodipodi:docname="folder.svg">
  <metadata
     id="metadata3013">
    <rdf:RDF>
      <cc:Work
         rdf:about="">
        <dc:format>image/svg+xml</dc:format>
        <dc:type
           rdf:resource="http://purl.org/dc/dcmitype/StillImage" />
      </cc:Work>
    </rdf:RDF>
  </metadata>
  <defs
     id="defs3011" />
  <sodipodi:namedview
     pagecolor="#ffffff"
     bordercolor="#666666"
     borderopacity="1"
     objecttolerance="10"
     gridtolerance="10"
     guidetolerance="10"
     inkscape:pageopacity="0"
     inkscape:pageshadow="2"
     inkscape:window-width="640"
     inkscape:window-height="480"
     id="namedview3009"
     showgrid="false"
     inkscape:zoom="9.8333333"
     inkscape:cx="12"
     inkscape:cy="11.186441"
     inkscape:window-x="0"
     inkscape:window-y="0"
     inkscape:window-maximized="0"
     inkscape:current-layer="svg3001" />
  <path
     inkscape:connector-curvature="0"
     id="path3367-1"
     d="m 3.1436064,19.497225 c -0.351058,-0.03371 -0.643606,-0.363318 -0.643606,-0.715401 l 0,-13.5663938 c 0,-0.3745554 0.339356,-0.7154005 0.713817,-0.7154005 l 17.5762676,0 c 0.37056,0 0.709915,0.3408451 0.709915,0.7154005 l 0,12.3078878 c 0,0.374556 -0.339355,0.715401 -0.709915,0.715401 l -6.86512,0 0,0.543105 c 0,0.374556 -0.339356,0.715401 -0.709916,0.715401 l -10.0012316,0 c -0.0234,0.0037 -0.04681,0.0037 -0.07021,0 z"
     style="fill:#e9a439;fill-opacity:1;stroke:#e9a439;stroke-opacity:1" />
  <path
     inkscape:connector-curvature="0"
     id="path3369-5"
     d="M 1.2784084,6.4999998 C 0.85529095,6.5340548 0.49604095,6.8632692 0.50003295,7.2189706 l 0,13.5658434 c 0,0.374622 0.411141,0.715186 0.86220045,0.715186 l 21.2755676,0 C 23.08886,21.5 23.5,21.159436 23.5,20.784814 l 0,-12.3095366 c 0,-0.3746218 -0.41114,-0.7151869 -0.862199,-0.7151869 l -8.306651,0 0,-0.5411199 c 0,-0.3784057 -0.411142,-0.7189708 -0.8622,-0.7189708 l -12.1067166,0 c -0.02794,0 -0.05588,0 -0.08383,0 z"
     style="fill:#f5c14e;fill-opacity:1;stroke:#e9a439;stroke-opacity:1" />
</svg>
