<?xml version="1.0" encoding="UTF-8" standalone="no"?>
<svg
   xmlns:dc="http://purl.org/dc/elements/1.1/"
   xmlns:cc="http://creativecommons.org/ns#"
   xmlns:rdf="http://www.w3.org/1999/02/22-rdf-syntax-ns#"
   xmlns:svg="http://www.w3.org/2000/svg"
   xmlns="http://www.w3.org/2000/svg"
   xmlns:sodipodi="http://sodipodi.sourceforge.net/DTD/sodipodi-0.dtd"
   xmlns:inkscape="http://www.inkscape.org/namespaces/inkscape"
   width="24"
   height="24"
   viewBox="0 0 24 24"
   id="svg3053"
   version="1.1"
   inkscape:version="0.48.4 r9939"
   sodipodi:docname="folder-download.svg">
  <metadata
     id="metadata3067">
    <rdf:RDF>
      <cc:Work
         rdf:about="">
        <dc:format>image/svg+xml</dc:format>
        <dc:type
           rdf:resource="http://purl.org/dc/dcmitype/StillImage" />
      </cc:Work>
    </rdf:RDF>
  </metadata>
  <defs
     id="defs3065" />
  <sodipodi:namedview
     pagecolor="#ffffff"
     bordercolor="#666666"
     borderopacity="1"
     objecttolerance="10"
     gridtolerance="10"
     guidetolerance="10"
     inkscape:pageopacity="0"
     inkscape:pageshadow="2"
     inkscape:window-width="658"
     inkscape:window-height="480"
     id="namedview3063"
     showgrid="false"
     inkscape:zoom="9.8333333"
     inkscape:cx="10.983051"
     inkscape:cy="11.694916"
     inkscape:window-x="0"
     inkscape:window-y="0"
     inkscape:window-maximized="0"
     inkscape:current-layer="svg3053" />
  <path
     inkscape:connector-curvature="0"
     id="path3367-1"
     d="m 3.1436061,19.497225 c -0.351058,-0.03371 -0.643606,-0.363318 -0.643606,-0.715401 l 0,-13.5663934 c 0,-0.3745554 0.339356,-0.7154005 0.713817,-0.7154005 l 17.5762679,0 c 0.37056,0 0.709915,0.3408451 0.709915,0.7154005 l 0,12.3078874 c 0,0.374556 -0.339355,0.715401 -0.709915,0.715401 l -6.86512,0 0,0.543105 c 0,0.374556 -0.339356,0.715401 -0.709916,0.715401 l -10.0012319,0 c -0.0234,0.0037 -0.04681,0.0037 -0.07021,0 z"
     style="fill:#e9a439;fill-opacity:1;stroke:#e9a439;stroke-opacity:1" />
  <path
     inkscape:connector-curvature="0"
     id="path3369-5"
     d="M 1.2784081,6.5000002 C 0.85529095,6.5340552 0.49604095,6.8632696 0.50003295,7.218971 l 0,13.565843 c 0,0.374622 0.411141,0.715186 0.86220015,0.715186 l 21.2755679,0 C 23.08886,21.5 23.5,21.159436 23.5,20.784814 l 0,-12.3095362 C 23.5,8.100656 23.08886,7.7600909 22.637801,7.7600909 l -8.306651,0 0,-0.5411199 c 0,-0.3784057 -0.411142,-0.7189708 -0.8622,-0.7189708 l -12.1067169,0 c -0.02794,0 -0.05588,0 -0.08383,0 z"
     style="fill:#f5c14e;fill-opacity:1;stroke:#e9a439;stroke-opacity:1" />
  <path
     style="fill:#d0a444;fill-opacity:1"
     d="M 12.039062 17.996094 C 12.21875 17.984375 12.394531 17.90625 12.523438 17.777344 L 14.765625 15.398438 C 14.90625 15.261719 14.992188 15.070312 15 14.871094 C 15.011719 14.5625 14.816406 14.253906 14.53125 14.132812 C 14.242188 14.011719 13.886719 14.085938 13.671875 14.308594 L 12 16.003906 L 10.25 14.234375 C 9.957031 13.996094 9.480469 14.019531 9.210938 14.289062 C 8.945312 14.558594 8.925781 15.035156 9.171875 15.324219 L 11.429688 17.777344 C 11.585938 17.933594 11.816406 18.015625 12.039062 17.996094 Z M 13.566406 13.527344 C 13.820312 13.496094 14.03125 13.25 14.019531 12.996094 L 14.019531 11.71875 C 14.019531 11.453125 13.773438 11.207031 13.503906 11.207031 C 13.234375 11.207031 12.992188 11.453125 12.988281 11.71875 L 12.988281 12.996094 C 12.980469 13.277344 13.242188 13.535156 13.519531 13.527344 C 13.535156 13.527344 13.550781 13.527344 13.566406 13.527344 Z M 12.046875 13.628906 C 12.308594 13.605469 12.527344 13.359375 12.515625 13.097656 L 12.515625 10.515625 C 12.515625 10.246094 12.269531 10 12 10 C 11.730469 10 11.484375 10.246094 11.484375 10.515625 L 11.484375 13.097656 C 11.476562 13.371094 11.726562 13.628906 12 13.628906 C 12.015625 13.628906 12.03125 13.628906 12.046875 13.628906 Z M 10.542969 13.527344 C 10.796875 13.496094 11.003906 13.25 10.996094 12.996094 L 10.996094 11.175781 C 11.039062 10.886719 10.78125 10.589844 10.488281 10.589844 C 10.195312 10.589844 9.9375 10.886719 9.980469 11.175781 L 9.980469 12.996094 C 9.96875 13.289062 10.25 13.554688 10.542969 13.527344 Z "
     id="path3061" />
</svg>
