<?xml version="1.0" encoding="UTF-8" standalone="no"?>
<svg
   xmlns:dc="http://purl.org/dc/elements/1.1/"
   xmlns:cc="http://creativecommons.org/ns#"
   xmlns:rdf="http://www.w3.org/1999/02/22-rdf-syntax-ns#"
   xmlns:svg="http://www.w3.org/2000/svg"
   xmlns="http://www.w3.org/2000/svg"
   xmlns:sodipodi="http://sodipodi.sourceforge.net/DTD/sodipodi-0.dtd"
   xmlns:inkscape="http://www.inkscape.org/namespaces/inkscape"
   width="24"
   height="24"
   viewBox="0 0 24 24"
   id="svg3267"
   version="1.1"
   inkscape:version="0.48.4 r9939"
   sodipodi:docname="folder-video.svg">
  <metadata
     id="metadata3281">
    <rdf:RDF>
      <cc:Work
         rdf:about="">
        <dc:format>image/svg+xml</dc:format>
        <dc:type
           rdf:resource="http://purl.org/dc/dcmitype/StillImage" />
      </cc:Work>
    </rdf:RDF>
  </metadata>
  <defs
     id="defs3279" />
  <sodipodi:namedview
     pagecolor="#ffffff"
     bordercolor="#666666"
     borderopacity="1"
     objecttolerance="10"
     gridtolerance="10"
     guidetolerance="10"
     inkscape:pageopacity="0"
     inkscape:pageshadow="2"
     inkscape:window-width="658"
     inkscape:window-height="480"
     id="namedview3277"
     showgrid="false"
     inkscape:zoom="9.8333333"
     inkscape:cx="28.983051"
     inkscape:cy="10.372882"
     inkscape:window-x="0"
     inkscape:window-y="0"
     inkscape:window-maximized="0"
     inkscape:current-layer="svg3267" />
  <path
     inkscape:connector-curvature="0"
     id="path3367-1"
     d="M 3.143606,19.497225 C 2.792548,19.463515 2.5,19.133907 2.5,18.781824 L 2.5,5.215431 C 2.5,4.8408756 2.839356,4.5000305 3.213817,4.5000305 l 17.576268,0 c 0.37056,0 0.709915,0.3408451 0.709915,0.7154005 l 0,12.307887 c 0,0.374556 -0.339355,0.715401 -0.709915,0.715401 l -6.86512,0 0,0.543105 c 0,0.374556 -0.339356,0.715401 -0.709916,0.715401 l -10.001232,0 c -0.0234,0.0037 -0.04681,0.0037 -0.07021,0 z"
     style="fill:#e9a439;fill-opacity:1;stroke:#e9a439;stroke-opacity:1" />
  <path
     inkscape:connector-curvature="0"
     id="path3369-5"
     d="M 1.278408,6.5000006 C 0.85529095,6.5340556 0.49604095,6.86327 0.50003295,7.2189714 l 0,13.5658426 c 0,0.374622 0.411141,0.715186 0.86220005,0.715186 l 21.275568,0 C 23.08886,21.5 23.5,21.159436 23.5,20.784814 l 0,-12.3095358 c 0,-0.3746218 -0.41114,-0.7151869 -0.862199,-0.7151869 l -8.306651,0 0,-0.5411199 c 0,-0.3784057 -0.411142,-0.7189708 -0.8622,-0.7189708 l -12.106717,0 c -0.02794,0 -0.05588,0 -0.08383,0 z"
     style="fill:#f5c14e;fill-opacity:1;stroke:#e9a439;stroke-opacity:1" />
  <path
     style="fill:#d0a444;fill-opacity:1"
     d="M 12 10 C 9.796875 10 8 11.796875 8 14 C 8 16.203125 9.796875 18 12 18 C 14.203125 18 16 16.203125 16 14 C 16 11.796875 14.203125 10 12 10 Z M 12 11 C 13.664062 11 15 12.335938 15 14 C 15 15.664062 13.664062 17 12 17 C 10.335938 17 9 15.664062 9 14 C 9 12.335938 10.335938 11 12 11 Z M 11 12 L 11 16 L 14 14 Z "
     id="path3275" />
</svg>
