<?xml version="1.0" encoding="UTF-8" standalone="no"?>
<svg
   xmlns:dc="http://purl.org/dc/elements/1.1/"
   xmlns:cc="http://creativecommons.org/ns#"
   xmlns:rdf="http://www.w3.org/1999/02/22-rdf-syntax-ns#"
   xmlns:svg="http://www.w3.org/2000/svg"
   xmlns="http://www.w3.org/2000/svg"
   xmlns:sodipodi="http://sodipodi.sourceforge.net/DTD/sodipodi-0.dtd"
   xmlns:inkscape="http://www.inkscape.org/namespaces/inkscape"
   width="24"
   height="24"
   viewBox="0 0 24 24"
   id="svg3363"
   version="1.1"
   inkscape:version="0.48.4 r9939"
   sodipodi:docname="user-home.svg">
  <metadata
     id="metadata3377">
    <rdf:RDF>
      <cc:Work
         rdf:about="">
        <dc:format>image/svg+xml</dc:format>
        <dc:type
           rdf:resource="http://purl.org/dc/dcmitype/StillImage" />
      </cc:Work>
    </rdf:RDF>
  </metadata>
  <defs
     id="defs3375" />
  <sodipodi:namedview
     pagecolor="#ffffff"
     bordercolor="#666666"
     borderopacity="1"
     objecttolerance="10"
     gridtolerance="10"
     guidetolerance="10"
     inkscape:pageopacity="0"
     inkscape:pageshadow="2"
     inkscape:window-width="658"
     inkscape:window-height="480"
     id="namedview3373"
     showgrid="false"
     inkscape:zoom="9.8333333"
     inkscape:cx="16.576271"
     inkscape:cy="11.593221"
     inkscape:window-x="620"
     inkscape:window-y="0"
     inkscape:window-maximized="0"
     inkscape:current-layer="svg3363" />
  <path
     inkscape:connector-curvature="0"
     id="path3367"
     d="M 3.1436056,19.497225 C 2.7925478,19.463516 2.5000003,19.133907 2.5000003,18.781824 l 0,-13.5663935 c 0,-0.3745554 0.3393551,-0.7154005 0.7138162,-0.7154005 l 17.5762685,0 c 0.37056,0 0.709915,0.3408451 0.709915,0.7154005 l 0,12.3078875 c 0,0.374556 -0.339355,0.715401 -0.709915,0.715401 l -6.86512,0 0,0.543105 c 0,0.374556 -0.339356,0.715401 -0.709916,0.715401 l -10.0012326,0 c -0.023403,0.0037 -0.046808,0.0037 -0.070211,0 z"
     style="fill:#e9a439;fill-opacity:1;stroke:#e9a439;stroke-opacity:1" />
  <path
     inkscape:connector-curvature="0"
     id="path3369"
     d="M 1.2784074,6.5 C 0.85529089,6.5340553 0.49604124,6.8632694 0.50003316,7.2189708 l 0,13.5658432 c 0,0.374622 0.41114103,0.715186 0.86219944,0.715186 l 21.2755684,0 C 23.08886,21.5 23.5,21.159436 23.5,20.784814 l 0,-12.3095364 c 0,-0.3746218 -0.41114,-0.7151869 -0.862199,-0.7151869 l -8.306651,0 0,-0.5411199 C 14.33115,6.8405651 13.920008,6.5 13.46895,6.5 l -12.1067174,0 c -0.027942,0 -0.055884,0 -0.083826,0 z"
     style="fill:#f5c14e;fill-opacity:1;stroke:#e9a439;stroke-opacity:1" />
  <path
     style="fill:#d0a444;fill-opacity:1"
     d="m 12,10 -4,4 1,0 0,3 6,0 0,-3 1,0 -1.5,-1.5 0,-2 -1,0 0,1 z"
     id="path3371"
     inkscape:connector-curvature="0" />
</svg>
