<?xml version="1.0" encoding="UTF-8" standalone="no"?>
<svg
   xmlns:dc="http://purl.org/dc/elements/1.1/"
   xmlns:cc="http://creativecommons.org/ns#"
   xmlns:rdf="http://www.w3.org/1999/02/22-rdf-syntax-ns#"
   xmlns:svg="http://www.w3.org/2000/svg"
   xmlns="http://www.w3.org/2000/svg"
   xmlns:sodipodi="http://sodipodi.sourceforge.net/DTD/sodipodi-0.dtd"
   xmlns:inkscape="http://www.inkscape.org/namespaces/inkscape"
   width="22"
   height="22"
   viewBox="0 0 22 22"
   id="svg3001"
   version="1.1"
   inkscape:version="0.48.4 r9939"
   sodipodi:docname="folder.svg">
  <metadata
     id="metadata3013">
    <rdf:RDF>
      <cc:Work
         rdf:about="">
        <dc:format>image/svg+xml</dc:format>
        <dc:type
           rdf:resource="http://purl.org/dc/dcmitype/StillImage" />
      </cc:Work>
    </rdf:RDF>
  </metadata>
  <defs
     id="defs3011" />
  <sodipodi:namedview
     pagecolor="#ffffff"
     bordercolor="#666666"
     borderopacity="1"
     objecttolerance="10"
     gridtolerance="10"
     guidetolerance="10"
     inkscape:pageopacity="0"
     inkscape:pageshadow="2"
     inkscape:window-width="640"
     inkscape:window-height="480"
     id="namedview3009"
     showgrid="false"
     inkscape:zoom="10.727273"
     inkscape:cx="11"
     inkscape:cy="10.254237"
     inkscape:window-x="0"
     inkscape:window-y="0"
     inkscape:window-maximized="0"
     inkscape:current-layer="svg3001" />
  <path
     inkscape:connector-curvature="0"
     id="path3357"
     d="M 3.0747866,17.497151 C 2.7626508,17.466647 2.4999997,17.157803 2.4999997,16.829893 l 0,-12.6588171 c 0,-0.3507866 0.3045229,-0.6710699 0.6394983,-0.6710699 l 15.721004,0 c 0.334974,0 0.639498,0.3202833 0.639498,0.6710699 l 0,11.4844451 c 0,0.350786 -0.304524,0.667258 -0.639498,0.667258 l -6.139947,0 0,0.507114 c 0,0.350786 -0.304523,0.667257 -0.635691,0.667257 l -8.945366,0 c -0.02284,0.0038 -0.041872,0.0038 -0.064711,0 z"
     style="fill:#e9a439;fill-opacity:1;stroke:#e9a439;stroke-opacity:1" />
  <path
     inkscape:connector-curvature="0"
     id="path3359"
     d="M 1.2116968,5.5000005 C 0.82207258,5.5308197 0.49606058,5.8390209 0.50003598,6.1664838 l 0,12.6631812 c 0,0.350578 0.3737217,0.670335 0.78720032,0.670335 l 19.4255637,0 c 0.413479,0 0.7872,-0.319757 0.7872,-0.670335 l 0,-11.4843147 c 0,-0.3505782 -0.373721,-0.6703359 -0.7872,-0.6703359 l -7.585749,0 0,-0.5085306 c 0,-0.3467251 -0.373722,-0.6664833 -0.787201,-0.6664833 l -11.0526137,0 c -0.02783,0 -0.051685,0 -0.075539,0 z"
     style="fill:#f5c14e;fill-opacity:1;stroke:#e9a439;stroke-opacity:1" />
  <path
     style="fill:#e9a439;fill-opacity:1;stroke:#e9a439;stroke-opacity:1"
     d="M 3.0747866,17.497151 C 2.7626508,17.466647 2.4999997,17.157803 2.4999997,16.829893 l 0,-12.6588171 c 0,-0.3507866 0.3045229,-0.6710699 0.6394983,-0.6710699 l 15.721004,0 c 0.334974,0 0.639498,0.3202833 0.639498,0.6710699 l 0,11.4844451 c 0,0.350786 -0.304524,0.667258 -0.639498,0.667258 l -6.139947,0 0,0.507114 c 0,0.350786 -0.304523,0.667257 -0.635691,0.667257 l -8.945366,0 c -0.02284,0.0038 -0.041872,0.0038 -0.064711,0 z"
     id="path4150"
     inkscape:connector-curvature="0" />
  <path
     style="fill:#f5c14e;fill-opacity:1;stroke:#e9a439;stroke-opacity:1"
     d="M 1.2116968,5.5000005 C 0.82207258,5.5308197 0.49606058,5.8390209 0.50003598,6.1664838 l 0,12.6631812 c 0,0.350578 0.3737217,0.670335 0.78720032,0.670335 l 19.4255637,0 c 0.413479,0 0.7872,-0.319757 0.7872,-0.670335 l 0,-11.4843147 c 0,-0.3505782 -0.373721,-0.6703359 -0.7872,-0.6703359 l -7.585749,0 0,-0.5085306 c 0,-0.3467251 -0.373722,-0.6664833 -0.787201,-0.6664833 l -11.0526137,0 c -0.02783,0 -0.051685,0 -0.075539,0 z"
     id="path4152"
     inkscape:connector-curvature="0" />
</svg>
