<?xml version="1.0" encoding="UTF-8" standalone="no"?>
<svg
   xmlns:dc="http://purl.org/dc/elements/1.1/"
   xmlns:cc="http://creativecommons.org/ns#"
   xmlns:rdf="http://www.w3.org/1999/02/22-rdf-syntax-ns#"
   xmlns:svg="http://www.w3.org/2000/svg"
   xmlns="http://www.w3.org/2000/svg"
   xmlns:sodipodi="http://sodipodi.sourceforge.net/DTD/sodipodi-0.dtd"
   xmlns:inkscape="http://www.inkscape.org/namespaces/inkscape"
   width="22"
   height="22"
   viewBox="0 0 22 22"
   id="svg3067"
   version="1.1"
   inkscape:version="0.48.4 r9939"
   sodipodi:docname="folder-dropbox.svg">
  <metadata
     id="metadata3081">
    <rdf:RDF>
      <cc:Work
         rdf:about="">
        <dc:format>image/svg+xml</dc:format>
        <dc:type
           rdf:resource="http://purl.org/dc/dcmitype/StillImage" />
      </cc:Work>
    </rdf:RDF>
  </metadata>
  <defs
     id="defs3079" />
  <sodipodi:namedview
     pagecolor="#ffffff"
     bordercolor="#666666"
     borderopacity="1"
     objecttolerance="10"
     gridtolerance="10"
     guidetolerance="10"
     inkscape:pageopacity="0"
     inkscape:pageshadow="2"
     inkscape:window-width="658"
     inkscape:window-height="480"
     id="namedview3077"
     showgrid="false"
     inkscape:zoom="10.727273"
     inkscape:cx="26.567797"
     inkscape:cy="9.5084745"
     inkscape:window-x="0"
     inkscape:window-y="0"
     inkscape:window-maximized="0"
     inkscape:current-layer="svg3067" />
  <path
     inkscape:connector-curvature="0"
     id="path3357"
     d="m 3.0747869,17.497151 c -0.312136,-0.0305 -0.574787,-0.339348 -0.574787,-0.667258 l 0,-12.6588172 c 0,-0.3507866 0.304523,-0.6710699 0.639498,-0.6710699 l 15.7210041,0 c 0.334974,0 0.639498,0.3202833 0.639498,0.6710699 l 0,11.4844452 c 0,0.350786 -0.304524,0.667258 -0.639498,0.667258 l -6.139947,0 0,0.507114 c 0,0.350786 -0.304523,0.667257 -0.635691,0.667257 l -8.9453661,0 c -0.02284,0.0038 -0.04187,0.0038 -0.06471,0 z"
     style="fill:#e9a439;fill-opacity:1;stroke:#e9a439;stroke-opacity:1" />
  <path
     inkscape:connector-curvature="0"
     id="path3359"
     d="M 1.2116969,5.5000004 C 0.82207268,5.5308196 0.49606058,5.8390208 0.50003598,6.1664837 l 0,12.6631813 c 0,0.350578 0.3737218,0.670335 0.78720042,0.670335 l 19.4255636,0 c 0.413479,0 0.7872,-0.319757 0.7872,-0.670335 l 0,-11.4843148 C 21.5,6.994772 21.126279,6.6750143 20.7128,6.6750143 l -7.585749,0 0,-0.5085306 c 0,-0.3467251 -0.373722,-0.6664833 -0.787201,-0.6664833 l -11.0526136,0 c -0.02783,0 -0.051685,0 -0.075539,0 z"
     style="fill:#f5c14e;fill-opacity:1;stroke:#e9a439;stroke-opacity:1" />
  <path
     inkscape:connector-curvature="0"
     style="fill:#e9a439;fill-opacity:1"
     d="m 11,9.1679694 -3.6679691,3.6640616 0.917969,0 0,2.75 5.5000001,0 0,-2.75 0.917969,0 -1.375,-1.375 0,-1.8320306 -0.917969,0 0,0.9179686 z"
     id="path3361" />
  <path
     style="fill:#e9a439;fill-opacity:1;stroke:#e9a439;stroke-opacity:1"
     d="m 3.0747869,17.497151 c -0.312136,-0.0305 -0.574787,-0.339348 -0.574787,-0.667258 l 0,-12.6588172 c 0,-0.3507866 0.304523,-0.6710699 0.639498,-0.6710699 l 15.7210041,0 c 0.334974,0 0.639498,0.3202833 0.639498,0.6710699 l 0,11.4844452 c 0,0.350786 -0.304524,0.667258 -0.639498,0.667258 l -6.139947,0 0,0.507114 c 0,0.350786 -0.304523,0.667257 -0.635691,0.667257 l -8.9453661,0 c -0.02284,0.0038 -0.04187,0.0038 -0.06471,0 z"
     id="path4150"
     inkscape:connector-curvature="0" />
  <path
     style="fill:#f5c14e;fill-opacity:1;stroke:#e9a439;stroke-opacity:1"
     d="M 1.2116969,5.5000004 C 0.82207268,5.5308196 0.49606058,5.8390208 0.50003598,6.1664837 l 0,12.6631813 c 0,0.350578 0.3737218,0.670335 0.78720042,0.670335 l 19.4255636,0 c 0.413479,0 0.7872,-0.319757 0.7872,-0.670335 l 0,-11.4843148 C 21.5,6.994772 21.126279,6.6750143 20.7128,6.6750143 l -7.585749,0 0,-0.5085306 c 0,-0.3467251 -0.373722,-0.6664833 -0.787201,-0.6664833 l -11.0526136,0 c -0.02783,0 -0.051685,0 -0.075539,0 z"
     id="path4152"
     inkscape:connector-curvature="0" />
  <path
     style="fill:#d0a444;fill-opacity:1"
     d="M 8.9375 8.9375 L 6.875 10.542969 L 8.9375 11.917969 L 6.875 13.75 L 11 16.5 L 15.125 13.75 L 13.0625 11.917969 L 15.125 10.542969 L 13.0625 8.9375 L 11 10.542969 Z "
     id="path3075" />
</svg>
