<?xml version="1.0" encoding="UTF-8" standalone="no"?>
<svg
   xmlns:dc="http://purl.org/dc/elements/1.1/"
   xmlns:cc="http://creativecommons.org/ns#"
   xmlns:rdf="http://www.w3.org/1999/02/22-rdf-syntax-ns#"
   xmlns:svg="http://www.w3.org/2000/svg"
   xmlns="http://www.w3.org/2000/svg"
   xmlns:sodipodi="http://sodipodi.sourceforge.net/DTD/sodipodi-0.dtd"
   xmlns:inkscape="http://www.inkscape.org/namespaces/inkscape"
   width="22"
   height="22"
   viewBox="0 0 22 22"
   id="svg3015"
   version="1.1"
   inkscape:version="0.48.4 r9939"
   sodipodi:docname="folder-copy.svg">
  <metadata
     id="metadata3033">
    <rdf:RDF>
      <cc:Work
         rdf:about="">
        <dc:format>image/svg+xml</dc:format>
        <dc:type
           rdf:resource="http://purl.org/dc/dcmitype/StillImage" />
      </cc:Work>
    </rdf:RDF>
  </metadata>
  <defs
     id="defs3031" />
  <sodipodi:namedview
     pagecolor="#ffffff"
     bordercolor="#666666"
     borderopacity="1"
     objecttolerance="10"
     gridtolerance="10"
     guidetolerance="10"
     inkscape:pageopacity="0"
     inkscape:pageshadow="2"
     inkscape:window-width="658"
     inkscape:window-height="480"
     id="namedview3029"
     showgrid="false"
     inkscape:zoom="10.727273"
     inkscape:cx="10.067797"
     inkscape:cy="12.025424"
     inkscape:window-x="0"
     inkscape:window-y="0"
     inkscape:window-maximized="0"
     inkscape:current-layer="svg3015" />
  <path
     style="fill:#e9a439;stroke:#e9a439;fill-opacity:1;stroke-opacity:1"
     d="M 1.875 3.5 C 1.676647 3.5 1.5 3.673289 1.5 3.875 L 1.5 4.5 L 0.9375 4.5 L 0.90625 4.5 C 0.686692 4.52171 0.5 4.68685 0.5 4.875 L 0.5 12.125 C 0.5 12.324005 0.699014 12.5 0.9375 12.5 L 10.5 12.5 L 10.5 18.125 C 10.5 18.312303 10.660366 18.48199 10.84375 18.5 L 10.875 18.5 L 16.125 18.5 C 16.31961 18.5 16.5 18.323108 16.5 18.125 L 16.5 17.8125 L 20.125 17.8125 C 20.31961 17.8125 20.5 17.63921 20.5 17.4375 L 20.5 10.875 C 20.5 10.673289 20.31961 10.5 20.125 10.5 L 12.5 10.5 L 12.5 5.5625 C 12.5 5.359877 12.297201 5.1875 12.0625 5.1875 L 11.5 5.1875 L 11.5 3.875 C 11.5 3.673289 11.31961 3.5 11.125 3.5 L 1.875 3.5 z "
     id="path3021" />
  <path
     inkscape:connector-curvature="0"
     id="path3027"
     d="m 9.905047,11.5 c -0.219558,0.02171 -0.4050472,0.195386 -0.4050472,0.383536 l 0,7.236546 C 9.4999998,19.319087 9.711987,19.5 9.950473,19.5 l 11.099054,0 C 21.284228,19.5 21.5,19.319087 21.5,19.120082 l 0,-6.563547 c 0,-0.202623 -0.215772,-0.383536 -0.450473,-0.383536 l -4.334385,0 0,-0.289463 c 0,-0.199004 -0.215773,-0.379918 -0.450473,-0.383536 l -6.314196,0 c -0.01514,0 -0.03028,0 -0.04543,0 z"
     style="fill:#f5c14e;stroke:#e9a439;stroke-opacity:1;fill-opacity:1" />
</svg>
