<?xml version="1.0" encoding="UTF-8" standalone="no"?>
<svg
   xmlns:dc="http://purl.org/dc/elements/1.1/"
   xmlns:cc="http://creativecommons.org/ns#"
   xmlns:rdf="http://www.w3.org/1999/02/22-rdf-syntax-ns#"
   xmlns:svg="http://www.w3.org/2000/svg"
   xmlns="http://www.w3.org/2000/svg"
   xmlns:sodipodi="http://sodipodi.sourceforge.net/DTD/sodipodi-0.dtd"
   xmlns:inkscape="http://www.inkscape.org/namespaces/inkscape"
   viewBox="0 0 48 48"
   id="svg2"
   version="1.1"
   inkscape:version="0.48.5 r10040"
   width="100%"
   height="100%"
   sodipodi:docname="accessibility-directory.svg">
  <metadata
     id="metadata85">
    <rdf:RDF>
      <cc:Work
         rdf:about="">
        <dc:format>image/svg+xml</dc:format>
        <dc:type
           rdf:resource="http://purl.org/dc/dcmitype/StillImage" />
      </cc:Work>
    </rdf:RDF>
  </metadata>
  <sodipodi:namedview
     pagecolor="#ffffff"
     bordercolor="#666666"
     borderopacity="1"
     objecttolerance="10"
     gridtolerance="10"
     guidetolerance="10"
     inkscape:pageopacity="0"
     inkscape:pageshadow="2"
     inkscape:window-width="1280"
     inkscape:window-height="998"
     id="namedview83"
     showgrid="true"
     inkscape:zoom="19.666667"
     inkscape:cx="22.508462"
     inkscape:cy="16.57759"
     inkscape:window-x="0"
     inkscape:window-y="0"
     inkscape:window-maximized="1"
     inkscape:current-layer="svg2">
    <inkscape:grid
       type="xygrid"
       id="grid3145" />
  </sodipodi:namedview>
  <defs
     id="defs4">
    <linearGradient
       id="linearGradient3764"
       x1="1"
       x2="47"
       gradientUnits="userSpaceOnUse"
       gradientTransform="matrix(0,-1,1,0,-1.5e-6,47.999998)">
      <stop
         stop-color="#3e6d94"
         stop-opacity="1"
         id="stop7" />
      <stop
         offset="1"
         stop-color="#4476a2"
         stop-opacity="1"
         id="stop9" />
    </linearGradient>
    <clipPath
       id="clipPath-472807161">
      <g
         transform="translate(0,-1004.3622)"
         id="g12">
        <path
           d="m -24 13 c 0 1.105 -0.672 2 -1.5 2 -0.828 0 -1.5 -0.895 -1.5 -2 0 -1.105 0.672 -2 1.5 -2 0.828 0 1.5 0.895 1.5 2 z"
           transform="matrix(15.333333,0,0,11.5,414.99999,878.8622)"
           fill="#1890d0"
           id="path14" />
      </g>
    </clipPath>
    <clipPath
       id="clipPath-484673952">
      <g
         transform="translate(0,-1004.3622)"
         id="g17">
        <path
           d="m -24 13 c 0 1.105 -0.672 2 -1.5 2 -0.828 0 -1.5 -0.895 -1.5 -2 0 -1.105 0.672 -2 1.5 -2 0.828 0 1.5 0.895 1.5 2 z"
           transform="matrix(15.333333,0,0,11.5,414.99999,878.8622)"
           fill="#1890d0"
           id="path19" />
      </g>
    </clipPath>
  </defs>
  <g
     id="g21">
    <path
       d="m 36.31 5 c 5.859 4.062 9.688 10.831 9.688 18.5 c 0 12.426 -10.07 22.5 -22.5 22.5 c -7.669 0 -14.438 -3.828 -18.5 -9.688 c 1.037 1.822 2.306 3.499 3.781 4.969 c 4.085 3.712 9.514 5.969 15.469 5.969 c 12.703 0 23 -10.298 23 -23 c 0 -5.954 -2.256 -11.384 -5.969 -15.469 c -1.469 -1.475 -3.147 -2.744 -4.969 -3.781 z m 4.969 3.781 c 3.854 4.113 6.219 9.637 6.219 15.719 c 0 12.703 -10.297 23 -23 23 c -6.081 0 -11.606 -2.364 -15.719 -6.219 c 4.16 4.144 9.883 6.719 16.219 6.719 c 12.703 0 23 -10.298 23 -23 c 0 -6.335 -2.575 -12.06 -6.719 -16.219 z"
       opacity="0.05"
       id="path23" />
    <path
       d="m 41.28 8.781 c 3.712 4.085 5.969 9.514 5.969 15.469 c 0 12.703 -10.297 23 -23 23 c -5.954 0 -11.384 -2.256 -15.469 -5.969 c 4.113 3.854 9.637 6.219 15.719 6.219 c 12.703 0 23 -10.298 23 -23 c 0 -6.081 -2.364 -11.606 -6.219 -15.719 z"
       opacity="0.1"
       id="path25" />
    <path
       d="m 31.25 2.375 c 8.615 3.154 14.75 11.417 14.75 21.13 c 0 12.426 -10.07 22.5 -22.5 22.5 c -9.708 0 -17.971 -6.135 -21.12 -14.75 a 23 23 0 0 0 44.875 -7 a 23 23 0 0 0 -16 -21.875 z"
       opacity="0.2"
       id="path27" />
  </g>
  <g
     id="g29">
    <path
       d="m 24 1 c 12.703 0 23 10.297 23 23 c 0 12.703 -10.297 23 -23 23 -12.703 0 -23 -10.297 -23 -23 0 -12.703 10.297 -23 23 -23 z"
       fill="url(#linearGradient3764)"
       fill-opacity="1"
       id="path31" />
  </g>
  <g
     id="g33" />
  <g
     id="g79">
    <path
       d="m 40.03 7.531 c 3.712 4.084 5.969 9.514 5.969 15.469 0 12.703 -10.297 23 -23 23 c -5.954 0 -11.384 -2.256 -15.469 -5.969 4.178 4.291 10.01 6.969 16.469 6.969 c 12.703 0 23 -10.298 23 -23 0 -6.462 -2.677 -12.291 -6.969 -16.469 z"
       opacity="0.1"
       id="path81" />
  </g>
  <rect
     style="fill:#fffdf0;fill-opacity:1;stroke:none"
     id="rect3799"
     width="10.999998"
     height="3.9999745"
     x="14.000002"
     y="18" />
  <path
     style="fill:none;stroke:none"
     d="m 24.000002,17.5 -2.500001,1.5 1.500001,0 z"
     id="path3801"
     inkscape:connector-curvature="0" />
  <path
     style="fill:#000000;fill-opacity:0.10196078;stroke:none"
     d="m 28.125,14.999998 c -1.904011,0 -2.522056,1.50138 -3.5,3 l -9.125,0 c -1.385,0 -2.5,1.115001 -2.5,2.500001 l 0,0.999999 0,8.500001 0,1.5 0,0.875 L 13,32.5 c 0.0064,0.13867 0.0359,0.274096 0.0625,0.40625 0.119268,0.691079 0.513177,1.280983 1.09375,1.65625 0.27748,0.179355 0.597249,0.308611 0.9375,0.375 0.170125,0.03504 0.319348,0.0625 0.5,0.0625 l 18.812501,0 c 0.180652,0 0.329874,-0.02746 0.5,-0.0625 0.340249,-0.06639 0.660019,-0.195644 0.937499,-0.375 0.580571,-0.375267 0.974484,-0.965171 1.093752,-1.65625 0.02657,-0.132155 0.05609,-0.267577 0.0625,-0.40625 l 0,-0.125001 0,-0.875 0,-13.875 c 0,-1.461945 -1.148532,-2.625001 -2.593748,-2.625001 l -6.28125,0 z"
     id="rect3375"
     inkscape:connector-curvature="0" />
  <path
     inkscape:connector-curvature="0"
     style="fill:#f57c00;fill-opacity:1;stroke:none"
     d="M 14.5,16 C 13.115,16 12,17.115 12,18.5 l 0,9.5 23,0 0,-9.5 C 35,17.115 33.885,16 32.5,16 l -18,0 z"
     id="rect2987-2" />
  <path
     style="opacity:0.2;fill:#ffffff;fill-opacity:1;stroke:none"
     d="M 14.5,16 C 13.115,16 12,17.115 12,18.5 l 0,1 C 12,18.115 13.115,17 14.5,17 l 18.000001,0 C 33.885,17 35,18.115 35,19.5 l 0,-1 C 35,17.115 33.885,16 32.500001,16 L 14.5,16 z"
     id="rect3797"
     inkscape:connector-curvature="0" />
  <path
     style="fill:#ffb300;fill-opacity:1;stroke:none"
     d="m 14.608696,20 4.173913,0 c 5.739133,-0.527778 4.695653,-6 8.347827,-6 l 6.26087,0 c 1.445217,0 2.608693,1.176944 2.608693,2.63889 l 0,14.722223 C 35.999999,32.823055 34.836523,34 33.391306,34 l -18.78261,0 C 13.163479,34 12,32.823055 12,31.361113 l 0,-8.388888 C 12,21.388892 13.043478,20 14.608696,20 z"
     id="rect3776"
     inkscape:connector-curvature="0"
     sodipodi:nodetypes="cccsssssscc" />
  <path
     style="opacity:0.15;fill:#000000;fill-opacity:1;stroke:none"
     d="m 12,30.499999 0,1.000003 C 12,32.885 13.163479,34 14.608696,34 l 18.78261,0 c 1.445217,0 2.608693,-1.115 2.608693,-2.499998 l 0,-1.000003 c 0,1.385001 -1.163476,2.500002 -2.608693,2.500002 l -18.78261,0 C 13.163479,33.000001 12,31.885 12,30.499999 z"
     id="path3786"
     inkscape:connector-curvature="0"
     sodipodi:nodetypes="csssscssc" />
  <path
     d="m 19.099052,24.382445 c 0,0.554166 -0.463261,0.999973 -1.034156,0.999973 -0.570893,0 -1.031245,-0.445807 -1.031245,-0.999973 0,-0.551259 0.460352,-0.997066 1.031245,-0.997066 0.570895,0 1.034156,0.445807 1.034156,0.997066 m 2.579572,1.065426 c -0.048,0.0058 -0.09382,0.02545 -0.130906,0.05091 l -3.530819,0.533804 -3.511185,-0.539624 c -0.0909,-0.06545 -0.215994,-0.08218 -0.318536,-0.03709 -0.102537,0.048 -0.167269,0.162178 -0.170178,0.266904 0,0.107622 0.07127,0.19854 0.170178,0.247266 l 2.749747,0.843614 -0.01963,1.940314 -0.968702,2.90029 c -0.09381,0.130907 -0.06545,0.301083 0.07418,0.389081 0.141812,0.08799 0.338172,0.06255 0.434897,-0.07127 l 1.565051,-3.130828 1.536689,3.125011 c 0.08218,0.136723 0.269811,0.184722 0.414534,0.105451 0.144724,-0.07636 0.196359,-0.255994 0.110538,-0.391992 l -0.951978,-2.916288 -0.03709,-1.823953 2.789747,-0.980339 c 0.110537,-0.07636 0.162177,-0.215994 0.113452,-0.338173 -0.048,-0.122181 -0.184724,-0.190541 -0.32072,-0.175996 m 0,-0.0029"
     id="path3147"
     inkscape:connector-curvature="0"
     style="fill:#000000;fill-opacity:0.09803922;fill-rule:nonzero;stroke:none" />
  <path
     style="fill:#fff8e1;fill-opacity:1;fill-rule:nonzero;stroke:none"
     inkscape:connector-curvature="0"
     id="path77"
     d="m 19.099052,23.239036 c 0,0.554168 -0.463261,0.999973 -1.034156,0.999973 -0.570893,0 -1.031245,-0.445805 -1.031245,-0.999973 0,-0.551259 0.460352,-0.997066 1.031245,-0.997066 0.570895,0 1.034156,0.445807 1.034156,0.997066 m 2.579572,1.065427 c -0.048,0.0058 -0.09382,0.02545 -0.130906,0.0509 l -3.530819,0.533804 -3.511185,-0.539622 c -0.0909,-0.06545 -0.215994,-0.08218 -0.318536,-0.03709 -0.102537,0.048 -0.167269,0.162178 -0.170178,0.266904 0,0.107623 0.07127,0.19854 0.170178,0.247267 l 2.749747,0.843613 -0.01963,1.940315 -0.968702,2.90029 c -0.09381,0.130906 -0.06545,0.301082 0.07418,0.389081 0.141812,0.08799 0.338172,0.06255 0.434897,-0.07127 l 1.565051,-3.130827 1.536689,3.125011 c 0.08218,0.136723 0.269811,0.184721 0.414534,0.105452 0.144724,-0.07637 0.196359,-0.255994 0.110538,-0.391991 l -0.951978,-2.916289 -0.03709,-1.823953 2.789747,-0.980339 c 0.110537,-0.07637 0.162177,-0.215993 0.113452,-0.338174 -0.048,-0.12218 -0.184724,-0.190539 -0.32072,-0.175995 m 0,-0.0029" />
</svg>
