<?xml version="1.0" encoding="UTF-8" standalone="no"?>
<svg
   xmlns:dc="http://purl.org/dc/elements/1.1/"
   xmlns:cc="http://creativecommons.org/ns#"
   xmlns:rdf="http://www.w3.org/1999/02/22-rdf-syntax-ns#"
   xmlns:svg="http://www.w3.org/2000/svg"
   xmlns="http://www.w3.org/2000/svg"
   xmlns:xlink="http://www.w3.org/1999/xlink"
   xmlns:sodipodi="http://sodipodi.sourceforge.net/DTD/sodipodi-0.dtd"
   xmlns:inkscape="http://www.inkscape.org/namespaces/inkscape"
   width="48"
   viewBox="0 0 13.546667 13.546667"
   height="48"
   id="svg2"
   version="1.1"
   inkscape:version="0.91 r"
   sodipodi:docname="dolphin.svg">
  <metadata
     id="metadata331">
    <rdf:RDF>
      <cc:Work
         rdf:about="">
        <dc:format>image/svg+xml</dc:format>
        <dc:type
           rdf:resource="http://purl.org/dc/dcmitype/StillImage" />
        <dc:title />
      </cc:Work>
    </rdf:RDF>
  </metadata>
  <sodipodi:namedview
     pagecolor="#ffffff"
     bordercolor="#666666"
     borderopacity="1"
     objecttolerance="10"
     gridtolerance="10"
     guidetolerance="10"
     inkscape:pageopacity="0"
     inkscape:pageshadow="2"
     inkscape:window-width="1280"
     inkscape:window-height="998"
     id="namedview329"
     showgrid="true"
     inkscape:zoom="12.118768"
     inkscape:cx="34.020596"
     inkscape:cy="26.939408"
     inkscape:window-x="0"
     inkscape:window-y="0"
     inkscape:window-maximized="1"
     inkscape:current-layer="layer3"
     showguides="true"
     inkscape:guide-bbox="true">
    <inkscape:grid
       type="xygrid"
       id="grid3308" />
  </sodipodi:namedview>
  <defs
     id="defs4">
    <linearGradient
       id="linearGradient4140">
      <stop
         style="stop-color:#2684da;stop-opacity:1;"
         offset="0"
         id="stop4143" />
      <stop
         style="stop-color:#3f96e5;stop-opacity:1;"
         offset="1"
         id="stop4145" />
    </linearGradient>
    <linearGradient
       inkscape:collect="always"
       xlink:href="#linearGradient4140"
       id="linearGradient4147"
       x1="-27"
       y1="13"
       x2="-24"
       y2="13"
       gradientUnits="userSpaceOnUse" />
  </defs>
  <g
     inkscape:groupmode="layer"
     id="layer1"
     inkscape:label="Shadow"
     sodipodi:insensitive="true">
    <path
       style="opacity:0.05;fill:#000000;fill-opacity:1;stroke:none"
       d="M 25,2 C 12.297451,2 2,12.297451 2,25 2,31.367153 4.6007106,37.116628 8.78125,41.28125 12.865755,44.99361 18.29568,47.25 24.25,47.25 c 12.702549,0 23,-10.297451 23,-23 0,-5.95432 -2.25639,-11.384245 -5.96875,-15.46875 C 37.116628,4.6007105 31.367153,2 25,2 z M 41.28125,8.78125 C 45.135604,12.894061 47.5,18.418655 47.5,24.5 c 0,12.702549 -10.297451,23 -23,23 C 18.418655,47.5 12.894061,45.135604 8.78125,41.28125 12.940939,45.4251 18.664604,48 25,48 37.702549,48 48,37.702549 48,25 48,18.664604 45.4251,12.940939 41.28125,8.78125 z"
       transform="scale(0.28222223,0.28222223)"
       id="path3978"
       inkscape:connector-curvature="0" />
    <path
       style="opacity:0.1;fill:#000000;fill-opacity:1;stroke:none"
       d="M 41.28125,8.78125 C 44.99361,12.865755 47.25,18.29568 47.25,24.25 c 0,12.702549 -10.297451,23 -23,23 -5.95432,0 -11.384245,-2.25639 -15.46875,-5.96875 C 12.894061,45.135604 18.418655,47.5 24.5,47.5 c 12.702549,0 23,-10.297451 23,-23 0,-6.081345 -2.364396,-11.605939 -6.21875,-15.71875 z"
       transform="scale(0.28222223,0.28222223)"
       id="path3976"
       inkscape:connector-curvature="0" />
    <path
       transform="matrix(4.3274074,0,0,3.2455556,117.19278,-35.348334)"
       d="m -24,13 a 1.5,2 0 1 1 -3,0 1.5,2 0 1 1 3,0 z"
       sodipodi:ry="2"
       sodipodi:rx="1.5"
       sodipodi:cy="13"
       sodipodi:cx="-25.5"
       id="path3952"
       style="opacity:0.2;fill:#000000;fill-opacity:1;stroke:none"
       sodipodi:type="arc" />
  </g>
  <g
     inkscape:groupmode="layer"
     id="layer2"
     inkscape:label="Base">
    <path
       sodipodi:type="arc"
       style="fill:url(#linearGradient4147);fill-opacity:1;stroke:none"
       id="path3942"
       sodipodi:cx="-25.5"
       sodipodi:cy="13"
       sodipodi:rx="1.5"
       sodipodi:ry="2"
       d="m -24,13 a 1.5,2 0 1 1 -3,0 1.5,2 0 1 1 3,0 z"
       transform="matrix(0,-4.3274075,3.2455556,0,-35.429918,-103.60974)" />
    <path
       style="opacity:0.1;fill:#000000;fill-opacity:1;stroke:none"
       d="M 40.03125 7.53125 C 43.74361 11.615755 46 17.04568 46 23 C 46 35.702549 35.702549 46 23 46 C 17.04568 46 11.615755 43.74361 7.53125 40.03125 C 11.709416 44.322508 17.537578 47 24 47 C 36.702549 47 47 36.702549 47 24 C 47 17.537578 44.322508 11.709416 40.03125 7.53125 z "
       transform="scale(0.28222223,0.28222223)"
       id="path4027" />
  </g>
  <g
     inkscape:groupmode="layer"
     id="layer3"
     inkscape:label="Symbol">
    <rect
       style="fill:#fffdf0;fill-opacity:1;stroke:none"
       id="rect3799"
       width="3.104444"
       height="1.1288817"
       x="3.9511118"
       y="5.0799975" />
    <path
       style="fill:none;stroke:none"
       d="m 6.7733341,4.938886 -0.7055557,0.4233335 0.4233335,0 z"
       id="path3801"
       inkscape:connector-curvature="0" />
    <path
       style="fill:#000000;fill-opacity:0.10196078;stroke:none"
       d="m 7.9375001,4.2333302 c -0.5373541,0 -0.7117802,0.4237227 -0.9877778,0.8466667 l -2.5752776,0 c -0.3908778,0 -0.7055556,0.3146778 -0.7055556,0.7055556 l 0,0.2822222 0,2.3988891 0,0.4233332 0,0.246945 0,0.03528 c 0.00181,0.03914 0.010132,0.07736 0.017639,0.114652 0.03366,0.195038 0.1448299,0.361522 0.3086805,0.467431 0.078311,0.05062 0.168557,0.0871 0.2645834,0.105833 0.048013,0.0099 0.090127,0.01764 0.141111,0.01764 l 5.3093059,0 c 0.050984,0 0.093098,-0.0077 0.1411111,-0.01764 0.096026,-0.01874 0.186272,-0.05522 0.264583,-0.105833 0.16385,-0.105909 0.275021,-0.272393 0.308681,-0.467431 0.0075,-0.0373 0.01583,-0.07552 0.01764,-0.114652 l 0,-0.03528 0,-0.246945 0,-3.9158334 c 0,-0.4125934 -0.324141,-0.7408334 -0.7320131,-0.7408334 l -1.7727084,0 z"
       id="rect3375"
       inkscape:connector-curvature="0" />
    <path
       inkscape:connector-curvature="0"
       style="fill:#f57c00;fill-opacity:1;stroke:none"
       d="m 4.0922223,4.5155556 c -0.3908777,0 -0.7055555,0.3146779 -0.7055555,0.7055557 l 0,2.6811111 6.4911113,0 0,-2.6811111 c 0,-0.3908778 -0.3146778,-0.7055557 -0.7055556,-0.7055557 l -5.0800002,0 z"
       id="rect2987-2" />
    <path
       style="opacity:0.2;fill:#ffffff;fill-opacity:1;stroke:none"
       d="m 4.0922223,4.5155556 c -0.3908777,0 -0.7055555,0.3146779 -0.7055555,0.7055557 l 0,0.2822223 c 0,-0.3908778 0.3146778,-0.7055557 0.7055555,-0.7055557 l 5.0800005,0 c 0.3908775,0 0.7055553,0.3146779 0.7055553,0.7055557 l 0,-0.2822223 c 0,-0.3908778 -0.3146778,-0.7055557 -0.7055553,-0.7055557 l -5.0800005,0 z"
       id="rect3797"
       inkscape:connector-curvature="0" />
    <path
       style="fill:#ffb300;fill-opacity:1;stroke:none"
       d="m 4.1228988,5.6444418 1.177971,0 C 6.9205806,5.4954912 6.6260874,3.9511084 7.6568122,3.9511084 l 1.7669567,0 c 0.4078722,0 0.7362311,0.3321599 0.7362311,0.7447533 l 0,4.1549383 c 0,0.412593 -0.3283589,0.744753 -0.7362311,0.744753 l -5.3008701,0 c -0.4078725,0 -0.7362319,-0.33216 -0.7362319,-0.744753 l 0,-2.3675302 c 0,-0.4468519 0.2944927,-0.838828 0.7362319,-0.838828 z"
       id="rect3776"
       inkscape:connector-curvature="0"
       sodipodi:nodetypes="cccsssssscc" />
    <path
       d="m 5.9223887,6.6107284 c -0.00828,0 -0.013741,0.00212 -0.017975,0.00899 -0.022027,0.038602 0.02132,0.1639254 -0.011632,0.2293192 -0.032418,0.065394 -0.032418,0.081964 -0.2939022,0.049531 C 5.3373951,6.8661345 4.9449916,6.9805299 4.8038531,7.1217172 4.6606002,7.2636095 4.4170879,7.6230116 4.3668699,7.8302978 4.3187666,8.0375842 4.3407919,8.0485126 4.4061629,8.0162562 4.4708293,7.983119 4.5259803,7.6940459 4.9113364,7.5040335 c 0.38747,-0.1907176 0.5679017,-0.038602 0.5679017,-0.038602 0,0 -0.3331996,-0.044065 -0.5774166,0.1577561 -0.245098,0.202351 -0.3978658,0.3594021 -0.3924038,0.4214469 0.00547,0.059931 0.026783,0.047591 0.066075,0 0.037883,-0.049529 0.266419,-0.3490024 0.5390044,-0.4475338 0.2725859,-0.099236 0.3867653,-0.092186 0.4900201,-0.037898 0.1039595,0.054466 0.1259846,0.1073449 -0.020616,0.1452415 -0.1480103,0.039308 -0.2079192,0.022033 -0.2079192,0.022033 0,0 0.1252797,0.1142185 0.3043022,0.1142185 0.1802557,0 0.2898538,-0.011103 0.2898538,-0.011103 0,0 0.4459688,0.4633976 0.5610292,0.5562886 0.1136518,0.092186 0.2401644,0.048824 0.2401644,-0.00617 0,-0.054466 -0.055154,-0.2072864 -0.055154,-0.2072864 0,0 0.1141792,-0.2568166 -0.017271,-0.5453604 C 6.5681666,7.3378153 6.208889,7.0390482 6.208889,7.0390482 c 0,0 -0.037884,-0.1639255 -0.1191126,-0.2726803 C 6.0237047,6.6782372 5.956924,6.6114332 5.9225649,6.6100231 M 4.066973,7.9305919 c -0.015858,7.058e-4 -0.03242,0.00476 -0.047575,0.013749 -0.1252798,0.070857 -0.059909,0.1968868 0.049513,0.1968868 0.1087162,0 0.2285353,-0.044064 0.2285353,-0.044064 0,0 -0.1169985,-0.1707995 -0.2306495,-0.1658642 M 4.307666,8.1412288 c 0,0 -0.2443934,0.037191 -0.271881,0.1521156 -0.027488,0.1142187 0.1025495,0.1473566 0.1844843,0.087428 0.081935,-0.059931 0.087396,-0.2395428 0.087396,-0.2395428 m 0,0"
       id="path4159"
       inkscape:connector-curvature="0"
       style="fill:#000000;fill-opacity:0.09803922;fill-rule:nonzero;stroke:none" />
    <path
       style="fill:#fff8e1;fill-opacity:1;fill-rule:nonzero;stroke:none"
       inkscape:connector-curvature="0"
       id="path77"
       d="m 5.9223887,6.2973705 c -0.00828,0 -0.013741,0.00212 -0.017975,0.00899 -0.022027,0.038601 0.02132,0.1639253 -0.011632,0.2293191 -0.032418,0.065394 -0.032418,0.081964 -0.2939022,0.049531 C 5.3373951,6.5527769 4.9449916,6.6671722 4.8038531,6.8083593 4.6606002,6.9502517 4.4170879,7.3096538 4.3668699,7.51694 c -0.048103,0.2072864 -0.026078,0.2182148 0.039293,0.1859584 0.064666,-0.033137 0.1198174,-0.3222102 0.5051735,-0.5122226 0.38747,-0.1907175 0.5679017,-0.038602 0.5679017,-0.038602 0,0 -0.3331996,-0.044065 -0.5774166,0.1577561 -0.245098,0.202351 -0.3978658,0.3594022 -0.3924038,0.4214469 0.00547,0.059931 0.026783,0.047591 0.066075,0 0.037883,-0.049529 0.2664188,-0.3490023 0.5390042,-0.4475338 0.2725859,-0.099236 0.3867653,-0.092186 0.4900201,-0.037897 0.1039596,0.054466 0.1259846,0.1073449 -0.020616,0.1452415 -0.1480102,0.039308 -0.2079192,0.022033 -0.2079192,0.022033 0,0 0.1252798,0.1142185 0.3043022,0.1142185 0.1802557,0 0.2898538,-0.011102 0.2898538,-0.011102 0,0 0.4459688,0.4633975 0.5610292,0.5562886 0.1136518,0.092186 0.2401644,0.048824 0.2401644,-0.00617 0,-0.054466 -0.055154,-0.2072863 -0.055154,-0.2072863 0,0 0.1141792,-0.2568165 -0.017271,-0.5453604 C 6.5681666,7.0244575 6.208889,6.7256904 6.208889,6.7256904 c 0,0 -0.037884,-0.1639256 -0.1191126,-0.2726804 C 6.0237047,6.3648794 5.956924,6.2980755 5.9225649,6.2966654 M 4.066973,7.6172341 c -0.015858,7.059e-4 -0.03242,0.00476 -0.047575,0.013749 -0.1252798,0.070857 -0.059909,0.1968867 0.049513,0.1968867 0.1087162,0 0.2285353,-0.044065 0.2285353,-0.044065 0,0 -0.1169985,-0.1707996 -0.2306495,-0.1658643 M 4.307666,7.8278707 c 0,0 -0.2443934,0.037191 -0.271881,0.1521158 -0.027488,0.1142187 0.1025495,0.1473565 0.1844843,0.087428 0.081935,-0.059931 0.087396,-0.2395427 0.087396,-0.2395427 m 0,0" />
    <path
       style="opacity:0.15;fill:#000000;fill-opacity:1;stroke:none"
       d="m 3.3866668,8.607775 0,0.282223 c 0,0.390877 0.3283595,0.705555 0.736232,0.705555 l 5.3008701,0 C 9.8316411,9.595553 10.16,9.280875 10.16,8.889998 l 0,-0.282223 c 0,0.390878 -0.3283589,0.705556 -0.7362311,0.705556 l -5.3008701,0 c -0.4078725,0 -0.736232,-0.314678 -0.736232,-0.705556 z"
       id="path3786"
       inkscape:connector-curvature="0"
       sodipodi:nodetypes="csssscssc" />
  </g>
</svg>
