<?xml version="1.0" encoding="UTF-8" standalone="no"?>
<svg
   xmlns:dc="http://purl.org/dc/elements/1.1/"
   xmlns:cc="http://creativecommons.org/ns#"
   xmlns:rdf="http://www.w3.org/1999/02/22-rdf-syntax-ns#"
   xmlns:svg="http://www.w3.org/2000/svg"
   xmlns="http://www.w3.org/2000/svg"
   xmlns:xlink="http://www.w3.org/1999/xlink"
   xmlns:sodipodi="http://sodipodi.sourceforge.net/DTD/sodipodi-0.dtd"
   xmlns:inkscape="http://www.inkscape.org/namespaces/inkscape"
   width="48"
   viewBox="0 0 13.546667 13.546667"
   height="48"
   id="svg2"
   version="1.1"
   inkscape:version="0.91 r"
   sodipodi:docname="file-manager.svg">
  <metadata
     id="metadata331">
    <rdf:RDF>
      <cc:Work
         rdf:about="">
        <dc:format>image/svg+xml</dc:format>
        <dc:type
           rdf:resource="http://purl.org/dc/dcmitype/StillImage" />
        <dc:title />
      </cc:Work>
    </rdf:RDF>
  </metadata>
  <sodipodi:namedview
     pagecolor="#ffffff"
     bordercolor="#666666"
     borderopacity="1"
     objecttolerance="10"
     gridtolerance="10"
     guidetolerance="10"
     inkscape:pageopacity="0"
     inkscape:pageshadow="2"
     inkscape:window-width="1280"
     inkscape:window-height="998"
     id="namedview329"
     showgrid="true"
     inkscape:zoom="16"
     inkscape:cx="34.47204"
     inkscape:cy="22.329614"
     inkscape:window-x="0"
     inkscape:window-y="0"
     inkscape:window-maximized="1"
     inkscape:current-layer="layer3"
     showguides="true"
     inkscape:guide-bbox="true">
    <inkscape:grid
       type="xygrid"
       id="grid3308" />
  </sodipodi:namedview>
  <defs
     id="defs4">
    <linearGradient
       id="linearGradient4140">
      <stop
         style="stop-color:#6e6196;stop-opacity:1;"
         offset="0"
         id="stop4143" />
      <stop
         style="stop-color:#847baf;stop-opacity:1;"
         offset="1"
         id="stop4145" />
    </linearGradient>
    <linearGradient
       inkscape:collect="always"
       xlink:href="#linearGradient4140"
       id="linearGradient4147"
       x1="-27"
       y1="13"
       x2="-24"
       y2="13"
       gradientUnits="userSpaceOnUse" />
  </defs>
  <g
     inkscape:groupmode="layer"
     id="layer1"
     inkscape:label="Shadow"
     sodipodi:insensitive="true">
    <path
       style="opacity:0.05;fill:#000000;fill-opacity:1;stroke:none"
       d="M 25,2 C 12.297451,2 2,12.297451 2,25 2,31.367153 4.6007106,37.116628 8.78125,41.28125 12.865755,44.99361 18.29568,47.25 24.25,47.25 c 12.702549,0 23,-10.297451 23,-23 0,-5.95432 -2.25639,-11.384245 -5.96875,-15.46875 C 37.116628,4.6007105 31.367153,2 25,2 z M 41.28125,8.78125 C 45.135604,12.894061 47.5,18.418655 47.5,24.5 c 0,12.702549 -10.297451,23 -23,23 C 18.418655,47.5 12.894061,45.135604 8.78125,41.28125 12.940939,45.4251 18.664604,48 25,48 37.702549,48 48,37.702549 48,25 48,18.664604 45.4251,12.940939 41.28125,8.78125 z"
       transform="scale(0.28222223,0.28222223)"
       id="path3978"
       inkscape:connector-curvature="0" />
    <path
       style="opacity:0.1;fill:#000000;fill-opacity:1;stroke:none"
       d="M 41.28125,8.78125 C 44.99361,12.865755 47.25,18.29568 47.25,24.25 c 0,12.702549 -10.297451,23 -23,23 -5.95432,0 -11.384245,-2.25639 -15.46875,-5.96875 C 12.894061,45.135604 18.418655,47.5 24.5,47.5 c 12.702549,0 23,-10.297451 23,-23 0,-6.081345 -2.364396,-11.605939 -6.21875,-15.71875 z"
       transform="scale(0.28222223,0.28222223)"
       id="path3976"
       inkscape:connector-curvature="0" />
    <path
       transform="matrix(4.3274074,0,0,3.2455556,117.19278,-35.348334)"
       d="m -24,13 a 1.5,2 0 1 1 -3,0 1.5,2 0 1 1 3,0 z"
       sodipodi:ry="2"
       sodipodi:rx="1.5"
       sodipodi:cy="13"
       sodipodi:cx="-25.5"
       id="path3952"
       style="opacity:0.2;fill:#000000;fill-opacity:1;stroke:none"
       sodipodi:type="arc" />
  </g>
  <g
     inkscape:groupmode="layer"
     id="layer2"
     inkscape:label="Base">
    <path
       sodipodi:type="arc"
       style="fill:url(#linearGradient4147);fill-opacity:1;stroke:none"
       id="path3942"
       sodipodi:cx="-25.5"
       sodipodi:cy="13"
       sodipodi:rx="1.5"
       sodipodi:ry="2"
       d="m -24,13 a 1.5,2 0 1 1 -3,0 1.5,2 0 1 1 3,0 z"
       transform="matrix(0,-4.3274075,3.2455556,0,-35.429918,-103.60974)" />
    <path
       style="opacity:0.1;fill:#000000;fill-opacity:1;stroke:none"
       d="M 40.03125 7.53125 C 43.74361 11.615755 46 17.04568 46 23 C 46 35.702549 35.702549 46 23 46 C 17.04568 46 11.615755 43.74361 7.53125 40.03125 C 11.709416 44.322508 17.537578 47 24 47 C 36.702549 47 47 36.702549 47 24 C 47 17.537578 44.322508 11.709416 40.03125 7.53125 z "
       transform="scale(0.28222223,0.28222223)"
       id="path4027" />
  </g>
  <g
     inkscape:groupmode="layer"
     id="layer3"
     inkscape:label="Symbol">
    <rect
       style="fill:#fffdf0;fill-opacity:1;stroke:none"
       id="rect3799"
       width="3.104444"
       height="1.1288817"
       x="3.9511118"
       y="5.0800004" />
    <path
       style="fill:none;stroke:none"
       d="m 6.7733339,4.9388889 -0.7055556,0.4233334 0.4233334,0 z"
       id="path3801"
       inkscape:connector-curvature="0" />
    <path
       style="fill:#000000;fill-opacity:0.10196079;stroke:none"
       d="m 7.9375002,4.233333 c -0.5373542,0 -0.7117803,0.4237228 -0.9877778,0.8466667 l -2.5752778,0 c -0.3908778,0 -0.7055556,0.3146778 -0.7055556,0.7055556 l 0,0.2822222 0,2.398889 0,0.4233333 0,0.2469445 0,0.035278 c 0.00181,0.039136 0.010132,0.077356 0.017639,0.1146528 0.03366,0.1950379 0.1448299,0.3615219 0.3086805,0.4674306 0.078311,0.050618 0.168557,0.087097 0.2645834,0.1058333 0.048013,0.00989 0.090127,0.017639 0.1411111,0.017639 l 5.3093057,0 c 0.050984,0 0.093098,-0.00775 0.1411111,-0.017639 0.096026,-0.018736 0.1862722,-0.055215 0.2645832,-0.1058333 0.16385,-0.1059087 0.275021,-0.2723927 0.308681,-0.4674306 0.0075,-0.037297 0.01583,-0.075516 0.01764,-0.1146528 l 0,-0.035278 0,-0.2469445 0,-3.9158334 c 0,-0.4125934 -0.324141,-0.7408334 -0.7320133,-0.7408334 l -1.7727084,0 z"
       id="rect3375"
       inkscape:connector-curvature="0" />
    <path
       style="fill:#f57c00;fill-opacity:1;stroke:none"
       d="m 4.0922223,4.5155557 c -0.3908778,0 -0.7055555,0.3146777 -0.7055555,0.7055555 l 0,2.6811112 6.4911113,0 0,-2.6811112 c 0,-0.3908778 -0.3146778,-0.7055555 -0.7055556,-0.7055555 l -5.0800002,0 z"
       id="rect2987-2"
       inkscape:connector-curvature="0" />
    <path
       style="opacity:0.2;fill:#ffffff;fill-opacity:1;stroke:none"
       d="m 4.0922223,4.5155556 c -0.3908778,0 -0.7055556,0.3146778 -0.7055556,0.7055556 l 0,0.2822223 c 0,-0.3908778 0.3146778,-0.7055557 0.7055556,-0.7055557 l 5.0800004,0 c 0.3908776,0 0.7055553,0.3146779 0.7055553,0.7055557 l 0,-0.2822223 c 0,-0.3908778 -0.3146777,-0.7055556 -0.7055553,-0.7055556 l -5.0800004,0 z"
       id="rect3797"
       inkscape:connector-curvature="0" />
    <path
       style="fill:#ffb300;fill-opacity:1;stroke:none"
       d="m 4.1228987,5.6444446 1.1779711,0 C 6.9205805,5.495494 6.6260874,3.9511112 7.6568122,3.9511112 l 1.7669565,0 C 9.831641,3.9511112 10.16,4.2832711 10.16,4.6958645 l 0,4.1549386 c 0,0.4125926 -0.328359,0.7447528 -0.7362313,0.7447528 l -5.30087,0 c -0.4078725,0 -0.7362319,-0.3321602 -0.7362319,-0.7447528 l 0,-2.3675305 c 0,-0.4468519 0.2944927,-0.838828 0.7362319,-0.838828 z"
       id="rect3776"
       inkscape:connector-curvature="0"
       sodipodi:nodetypes="cccsssssscc" />
    <path
       style="opacity:0.15;fill:#000000;fill-opacity:1;stroke:none"
       d="m 3.3866667,8.6077778 0,0.2822231 c 0,0.390877 0.3283595,0.705555 0.736232,0.705555 l 5.30087,0 C 9.831641,9.5955559 10.16,9.2808779 10.16,8.8900009 l 0,-0.2822231 c 0,0.3908781 -0.328359,0.7055559 -0.7362313,0.7055559 l -5.30087,0 c -0.4078725,0 -0.736232,-0.3146778 -0.736232,-0.7055559 z"
       id="path3786"
       inkscape:connector-curvature="0"
       sodipodi:nodetypes="csssscssc" />
  </g>
</svg>
