<svg xmlns="http://www.w3.org/2000/svg" viewBox="0 0 48 48">
 <defs>
  <linearGradient id="linearGradient3764" x1="1" x2="47" gradientUnits="userSpaceOnUse" gradientTransform="matrix(0,-1,1,0,-1.5e-6,47.999998)">
   <stop style="stop-color:#019ad3;stop-opacity:1"/>
   <stop offset="1" style="stop-color:#01ace8;stop-opacity:1"/>
  </linearGradient>
 </defs>
 <g>
  <path d="m 36.31 5 c 5.859 4.062 9.688 10.831 9.688 18.5 c 0 12.426 -10.07 22.5 -22.5 22.5 c -7.669 0 -14.438 -3.828 -18.5 -9.688 c 1.037 1.822 2.306 3.499 3.781 4.969 c 4.085 3.712 9.514 5.969 15.469 5.969 c 12.703 0 23 -10.298 23 -23 c 0 -5.954 -2.256 -11.384 -5.969 -15.469 c -1.469 -1.475 -3.147 -2.744 -4.969 -3.781 z m 4.969 3.781 c 3.854 4.113 6.219 9.637 6.219 15.719 c 0 12.703 -10.297 23 -23 23 c -6.081 0 -11.606 -2.364 -15.719 -6.219 c 4.16 4.144 9.883 6.719 16.219 6.719 c 12.703 0 23 -10.298 23 -23 c 0 -6.335 -2.575 -12.06 -6.719 -16.219 z" style="opacity:0.05"/>
  <path d="m 41.28 8.781 c 3.712 4.085 5.969 9.514 5.969 15.469 c 0 12.703 -10.297 23 -23 23 c -5.954 0 -11.384 -2.256 -15.469 -5.969 c 4.113 3.854 9.637 6.219 15.719 6.219 c 12.703 0 23 -10.298 23 -23 c 0 -6.081 -2.364 -11.606 -6.219 -15.719 z" style="opacity:0.1"/>
  <path d="m 31.25 2.375 c 8.615 3.154 14.75 11.417 14.75 21.13 c 0 12.426 -10.07 22.5 -22.5 22.5 c -9.708 0 -17.971 -6.135 -21.12 -14.75 a 23 23 0 0 0 44.875 -7 a 23 23 0 0 0 -16 -21.875 z" style="opacity:0.2"/>
 </g>
 <g>
  <path d="m 24 1 c 12.703 0 23 10.297 23 23 c 0 12.703 -10.297 23 -23 23 -12.703 0 -23 -10.297 -23 -23 0 -12.703 10.297 -23 23 -23 z" style="fill:url(#linearGradient3764);fill-opacity:1"/>
 </g>
 <g>
  <path d="m 40.03 7.531 c 3.712 4.084 5.969 9.514 5.969 15.469 0 12.703 -10.297 23 -23 23 c -5.954 0 -11.384 -2.256 -15.469 -5.969 4.178 4.291 10.01 6.969 16.469 6.969 c 12.703 0 23 -10.298 23 -23 0 -6.462 -2.677 -12.291 -6.969 -16.469 z" style="opacity:0.1"/>
 </g>
 <rect width="11" height="4" x="14" y="18" style="fill:#fffdf0;fill-opacity:1;stroke:none"/>
 <path d="m 28.13 15 c -1.904 0 -2.522 1.501 -3.5 3 l -9.125 0 c -1.385 0 -2.5 1.115 -2.5 2.5 0 3.958 0 7.917 0 11.875 l 0 0.125 c 0.006 0.139 0.036 0.274 0.063 0.406 0.119 0.691 0.513 1.281 1.094 1.656 0.277 0.179 0.597 0.309 0.938 0.375 0.17 0.035 0.319 0.063 0.5 0.063 l 18.813 0 c 0.181 0 0.33 -0.027 0.5 -0.063 0.34 -0.066 0.66 -0.196 0.937 -0.375 0.581 -0.375 0.974 -0.965 1.094 -1.656 c 0.027 -0.132 0.056 -0.268 0.063 -0.406 l 0 -0.125 c 0 -4.917 0 -9.833 0 -14.75 c 0 -1.462 -1.149 -2.625 -2.594 -2.625 l -6.281 0 z" style="fill:#000;fill-opacity:0.102;stroke:none"/>
 <path d="M 14.5,16 C 13.115,16 12,17.115 12,18.5 l 0,9.5 23,0 0,-9.5 C 35,17.115 33.885,16 32.5,16 l -18,0 z" style="fill:#f57c00;fill-opacity:1;stroke:none"/>
 <path d="m 14.5 16 c -1.385 0 -2.5 1.115 -2.5 2.5 l 0 1 c 0 -1.385 1.115 -2.5 2.5 -2.5 l 18 0 c 1.385 0 2.5 1.115 2.5 2.5 l 0 -1 c 0 -1.385 -1.115 -2.5 -2.5 -2.5 l -18 0 z" style="fill:#fff;opacity:0.2;fill-opacity:1;stroke:none"/>
 <path d="m 14.609 20 4.174 0 c 5.739 -0.528 4.696 -6 8.348 -6 l 6.261 0 c 1.445 0 2.609 1.177 2.609 2.639 l 0 14.722 c 0 1.462 -1.163 2.639 -2.609 2.639 l -18.783 0 c -1.445 0 -2.609 -1.177 -2.609 -2.639 l 0 -8.389 c 0 -1.583 1.043 -2.972 2.609 -2.972 z" style="fill:#ffb300;fill-opacity:1;stroke:none"/>
 <path d="m 12 30.5 0 1 c 0 1.385 1.163 2.5 2.609 2.5 l 18.783 0 c 1.445 0 2.609 -1.115 2.609 -2.5 l 0 -1 c 0 1.385 -1.163 2.5 -2.609 2.5 l -18.783 0 c -1.445 0 -2.609 -1.115 -2.609 -2.5 z" style="fill:#000;opacity:0.15;fill-opacity:1;stroke:none"/>
 <path d="m 14.805 21.863 2.785 1.374 c 0 0 1.713 -0.481 2.179 0.507 0 0 0.908 -0.317 1.862 -0.018 0 0 -0.373 0.438 -0.345 1.445 0 0 0.236 4.16 -2.963 5.603 0 0 0.967 1.104 0.367 2.226 0 0 -0.134 -0.55 -0.625 -1.078 0 0 -0.74 -0.712 -0.768 -1.01 0 0 -0.957 0.127 -1.393 -0.47 0 0 -0.438 -0.345 -0.817 -0.385 0 0 1.355 -0.317 2.559 0.212 0 0 0.979 -0.618 1.116 -1.306 l -0.817 0.031 c 0 0 0.189 -0.528 0.957 -0.783 0 0 -0.056 -1.104 -0.329 -1.358 0 0 -1.113 -0.021 -1.741 0.435 0 0 0.827 -0.843 1.237 -1.026 0 0 -1.01 -0.044 -1.585 0.277 0 0 0.563 -0.895 0.976 -1.078 0 0 -0.522 -0.709 -0.522 -1.097 0 0 -0.575 -0.481 -0.768 -1.01 l 0.855 0.507 c 0 0 -1.063 -1.499 -2.21 -2 m -0.001 0.006" style="fill:#000;fill-opacity:0.098;stroke:none;fill-rule:nonzero"/>
 <path d="m 14.805 20.647 2.785 1.374 c 0 0 1.713 -0.481 2.179 0.507 0 0 0.908 -0.317 1.862 -0.018 0 0 -0.373 0.438 -0.345 1.445 0 0 0.236 4.16 -2.963 5.603 0 0 0.967 1.104 0.367 2.226 0 0 -0.134 -0.55 -0.625 -1.078 0 0 -0.74 -0.712 -0.768 -1.01 0 0 -0.957 0.127 -1.393 -0.47 0 0 -0.438 -0.345 -0.817 -0.385 0 0 1.355 -0.317 2.559 0.212 0 0 0.979 -0.618 1.116 -1.306 l -0.817 0.031 c 0 0 0.189 -0.528 0.957 -0.783 0 0 -0.056 -1.104 -0.329 -1.358 0 0 -1.113 -0.021 -1.741 0.435 0 0 0.827 -0.843 1.237 -1.026 0 0 -1.01 -0.044 -1.585 0.277 0 0 0.563 -0.895 0.976 -1.078 0 0 -0.522 -0.709 -0.522 -1.097 0 0 -0.575 -0.481 -0.768 -1.01 l 0.855 0.507 c 0 0 -1.063 -1.499 -2.21 -2 m -0.001 0.006" style="fill:#fff8e1;fill-opacity:1;stroke:none;fill-rule:nonzero"/>
</svg>
