<?xml version="1.0" encoding="UTF-8" standalone="no"?>
<svg
   xmlns:dc="http://purl.org/dc/elements/1.1/"
   xmlns:cc="http://creativecommons.org/ns#"
   xmlns:rdf="http://www.w3.org/1999/02/22-rdf-syntax-ns#"
   xmlns:svg="http://www.w3.org/2000/svg"
   xmlns="http://www.w3.org/2000/svg"
   xmlns:xlink="http://www.w3.org/1999/xlink"
   xmlns:sodipodi="http://sodipodi.sourceforge.net/DTD/sodipodi-0.dtd"
   xmlns:inkscape="http://www.inkscape.org/namespaces/inkscape"
   viewBox="0 0 48 48"
   id="svg2"
   version="1.1"
   inkscape:version="0.91 r13725"
   sodipodi:docname="securefx.svg">
  <metadata
     id="metadata76">
    <rdf:RDF>
      <cc:Work
         rdf:about="">
        <dc:format>image/svg+xml</dc:format>
        <dc:type
           rdf:resource="http://purl.org/dc/dcmitype/StillImage" />
      </cc:Work>
    </rdf:RDF>
  </metadata>
  <sodipodi:namedview
     pagecolor="#ffffff"
     bordercolor="#666666"
     borderopacity="1"
     objecttolerance="10"
     gridtolerance="10"
     guidetolerance="10"
     inkscape:pageopacity="0"
     inkscape:pageshadow="2"
     inkscape:window-width="1260"
     inkscape:window-height="962"
     id="namedview74"
     showgrid="false"
     inkscape:zoom="4.9166667"
     inkscape:cx="17.34125"
     inkscape:cy="18.539381"
     inkscape:window-x="10"
     inkscape:window-y="52"
     inkscape:window-maximized="0"
     inkscape:current-layer="svg2">
    <inkscape:grid
       type="xygrid"
       id="grid4234" />
  </sodipodi:namedview>
  <defs
     id="defs4">
    <linearGradient
       inkscape:collect="always"
       id="linearGradient4174">
      <stop
         style="stop-color:#77a4ff;stop-opacity:1;"
         offset="0"
         id="stop4176" />
      <stop
         style="stop-color:#8bb1ff;stop-opacity:1"
         offset="1"
         id="stop4178" />
    </linearGradient>
    <linearGradient
       inkscape:collect="always"
       xlink:href="#linearGradient4174"
       id="linearGradient4180"
       x1="1"
       y1="23.999998"
       x2="47"
       y2="23.999998"
       gradientUnits="userSpaceOnUse"
       gradientTransform="translate(-47.999998,1.9073486e-6)" />
  </defs>
  <g
     id="g16">
    <path
       d="m 36.31 5 c 5.859 4.062 9.688 10.831 9.688 18.5 c 0 12.426 -10.07 22.5 -22.5 22.5 c -7.669 0 -14.438 -3.828 -18.5 -9.688 c 1.037 1.822 2.306 3.499 3.781 4.969 c 4.085 3.712 9.514 5.969 15.469 5.969 c 12.703 0 23 -10.298 23 -23 c 0 -5.954 -2.256 -11.384 -5.969 -15.469 c -1.469 -1.475 -3.147 -2.744 -4.969 -3.781 z m 4.969 3.781 c 3.854 4.113 6.219 9.637 6.219 15.719 c 0 12.703 -10.297 23 -23 23 c -6.081 0 -11.606 -2.364 -15.719 -6.219 c 4.16 4.144 9.883 6.719 16.219 6.719 c 12.703 0 23 -10.298 23 -23 c 0 -6.335 -2.575 -12.06 -6.719 -16.219 z"
       style="opacity:0.05"
       id="path18" />
    <path
       d="m 41.28 8.781 c 3.712 4.085 5.969 9.514 5.969 15.469 c 0 12.703 -10.297 23 -23 23 c -5.954 0 -11.384 -2.256 -15.469 -5.969 c 4.113 3.854 9.637 6.219 15.719 6.219 c 12.703 0 23 -10.298 23 -23 c 0 -6.081 -2.364 -11.606 -6.219 -15.719 z"
       style="opacity:0.1"
       id="path20" />
    <path
       d="m 31.25 2.375 c 8.615 3.154 14.75 11.417 14.75 21.13 c 0 12.426 -10.07 22.5 -22.5 22.5 c -9.708 0 -17.971 -6.135 -21.12 -14.75 a 23 23 0 0 0 44.875 -7 a 23 23 0 0 0 -16 -21.875 z"
       style="opacity:0.2"
       id="path22" />
  </g>
  <circle
     style="opacity:1;fill:url(#linearGradient4180);fill-opacity:1;fill-rule:nonzero;stroke:none;stroke-width:0.5;stroke-linejoin:round;stroke-miterlimit:4;stroke-dasharray:none;stroke-opacity:1"
     id="path4172"
     cx="-23.999998"
     cy="24"
     r="23"
     transform="matrix(0,-1,1,0,0,0)" />
  <path
     inkscape:connector-curvature="0"
     d="m 28.13,14.999999 c -1.904,0 -2.522,1.501 -3.5,3 l -9.125,0 c -1.385,0 -2.5,1.115 -2.5,2.500001 0,3.958 0,7.917 0,11.875 l 0,0.125 c 0.006,0.139 0.036,0.274 0.063,0.406 0.119,0.691 0.513,1.281 1.094,1.656 0.277,0.179 0.597,0.309 0.938,0.375 0.17,0.035 0.319,0.063 0.5,0.063 l 18.813,0 c 0.181,0 0.33,-0.027 0.5,-0.063 0.34,-0.066 0.66,-0.196 0.937,-0.375 0.581,-0.375 0.974,-0.965 1.094,-1.656 C 36.971,32.774 37,32.638 37.007,32.5 l 0,-0.125 c 0,-4.917 0,-9.833 0,-14.750001 0,-1.462 -1.149,-2.625 -2.594,-2.625 l -6.281,0 z"
     style="fill:#000000;fill-opacity:0.10199998;stroke:none"
     id="path65" />
  <rect
     width="11"
     height="4"
     x="14"
     y="18"
     style="fill:#fffdf0;fill-opacity:1;stroke:none"
     id="rect63" />
  <g
     id="g28">
    <path
       d="m 40.03 7.531 c 3.712 4.084 5.969 9.514 5.969 15.469 0 12.703 -10.297 23 -23 23 c -5.954 0 -11.384 -2.256 -15.469 -5.969 4.178 4.291 10.01 6.969 16.469 6.969 c 12.703 0 23 -10.298 23 -23 0 -6.462 -2.677 -12.291 -6.969 -16.469 z"
       style="opacity:0.1"
       id="path30" />
  </g>
  <path
     inkscape:connector-curvature="0"
     d="m 14.5,15.999999 c -1.385,0 -2.5,1.115 -2.5,2.5 L 12,28 l 23,0 0,-9.500001 c 0,-1.385 -1.115,-2.5 -2.5,-2.5 l -18,0 z"
     style="fill:#f57c00;fill-opacity:1;stroke:none"
     id="path67" />
  <path
     inkscape:connector-curvature="0"
     d="m 14.5,15.999999 c -1.385,0 -2.5,1.115 -2.5,2.5 L 12,19.5 c 0,-1.385001 1.115,-2.500001 2.5,-2.500001 l 18,0 c 1.385,0 2.5,1.115 2.5,2.500001 l 0,-1.000001 c 0,-1.385 -1.115,-2.5 -2.5,-2.5 l -18,0 z"
     style="opacity:0.2;fill:#ffffff;fill-opacity:1;stroke:none"
     id="path69" />
  <path
     inkscape:connector-curvature="0"
     d="m 14.609,20 4.174,0 c 5.739,-0.528 4.696,-6.000001 8.348,-6.000001 l 6.261,0 c 1.445,0 2.609,1.177 2.609,2.639 l 0,14.722001 C 36.001,32.823 34.838,34 33.392,34 L 14.609,34 C 13.164,34 12,32.823 12,31.361 l 0,-8.389 C 12,21.389 13.043,20 14.609,20 Z"
     style="fill:#ffb300;fill-opacity:1;stroke:none"
     id="path71" />
  <path
     inkscape:connector-curvature="0"
     d="m 12,30.5 0,1 c 0,1.385 1.163,2.5 2.609,2.5 l 18.783,0 c 1.445,0 2.609,-1.115 2.609,-2.5 l 0,-1 c 0,1.385 -1.163,2.5 -2.609,2.5 L 14.609,33 C 13.164,33 12,31.885 12,30.5 Z"
     style="opacity:0.15;fill:#000000;fill-opacity:1;stroke:none"
     id="path73" />
  <g
     transform="translate(4,4)"
     style="fill:#000;opacity:0.1"
     id="g56">
    <path
       d="m 28 18 a 5 5 0 0 0 -5 5 5 5 0 0 0 5 5 5 5 0 0 0 5 -5 5 5 0 0 0 -5 -5 z m 0 1 A 3.5 3.5 0 0 1 31.5 22.5 3.5 3.5 0 0 1 28 26 3.5 3.5 0 0 1 24.5 22.5 3.5 3.5 0 0 1 28 19"
       style="fill-opacity:1"
       id="path58" />
    <rect
       width="14"
       height="10"
       x="21"
       y="23"
       rx="1.167"
       style="fill-opacity:1"
       id="rect60" />
  </g>
  <g
     transform="translate(3,3)"
     id="g62">
    <path
       d="m 28 18 a 5 5 0 0 0 -5 5 5 5 0 0 0 5 5 5 5 0 0 0 5 -5 5 5 0 0 0 -5 -5 z m 0 1 A 3.5 3.5 0 0 1 31.5 22.5 3.5 3.5 0 0 1 28 26 3.5 3.5 0 0 1 24.5 22.5 3.5 3.5 0 0 1 28 19"
       style="fill:#b3b3b3;fill-opacity:1"
       id="path64" />
    <rect
       rx="1.167"
       y="23"
       x="21"
       height="10"
       width="14"
       style="fill:#b3b3b3;fill-opacity:1"
       id="rect66" />
    <circle
       r="4"
       cy="28"
       cx="28"
       style="fill:#808080;fill-opacity:1"
       id="circle68" />
    <rect
       y="28"
       x="27"
       height="3"
       width="2"
       style="fill:#333;fill-opacity:1"
       id="rect70" />
    <circle
       r="2"
       cy="27"
       cx="28"
       style="fill:#333;fill-opacity:1"
       id="circle72" />
  </g>
</svg>
