<?xml version="1.0" encoding="UTF-8" standalone="no"?>
<svg
   xmlns:dc="http://purl.org/dc/elements/1.1/"
   xmlns:cc="http://creativecommons.org/ns#"
   xmlns:rdf="http://www.w3.org/1999/02/22-rdf-syntax-ns#"
   xmlns:svg="http://www.w3.org/2000/svg"
   xmlns="http://www.w3.org/2000/svg"
   xmlns:xlink="http://www.w3.org/1999/xlink"
   xmlns:sodipodi="http://sodipodi.sourceforge.net/DTD/sodipodi-0.dtd"
   xmlns:inkscape="http://www.inkscape.org/namespaces/inkscape"
   width="48"
   viewBox="0 0 13.546667 13.546667"
   height="48"
   id="svg2"
   version="1.1"
   inkscape:version="0.91 r"
   sodipodi:docname="thunar.svg">
  <metadata
     id="metadata331">
    <rdf:RDF>
      <cc:Work
         rdf:about="">
        <dc:format>image/svg+xml</dc:format>
        <dc:type
           rdf:resource="http://purl.org/dc/dcmitype/StillImage" />
        <dc:title />
      </cc:Work>
    </rdf:RDF>
  </metadata>
  <sodipodi:namedview
     pagecolor="#ffffff"
     bordercolor="#666666"
     borderopacity="1"
     objecttolerance="10"
     gridtolerance="10"
     guidetolerance="10"
     inkscape:pageopacity="0"
     inkscape:pageshadow="2"
     inkscape:window-width="1280"
     inkscape:window-height="998"
     id="namedview329"
     showgrid="false"
     inkscape:zoom="17.138526"
     inkscape:cx="28.690544"
     inkscape:cy="21.200497"
     inkscape:window-x="0"
     inkscape:window-y="0"
     inkscape:window-maximized="1"
     inkscape:current-layer="layer3"
     showguides="true"
     inkscape:guide-bbox="true">
    <inkscape:grid
       type="xygrid"
       id="grid3308" />
  </sodipodi:namedview>
  <defs
     id="defs4">
    <linearGradient
       inkscape:collect="always"
       xlink:href="#linearGradient3764"
       id="linearGradient4147"
       x1="-27"
       y1="13"
       x2="-24"
       y2="13"
       gradientUnits="userSpaceOnUse" />
    <linearGradient
       id="linearGradient3764"
       x1="1"
       x2="47"
       gradientUnits="userSpaceOnUse"
       gradientTransform="matrix(0,-1,1,0,-1.5e-6,47.999998)">
      <stop
         stop-color="#676799"
         stop-opacity="1"
         id="stop7-72" />
      <stop
         offset="1"
         stop-color="#7373a1"
         stop-opacity="1"
         id="stop9-2" />
    </linearGradient>
  </defs>
  <g
     inkscape:groupmode="layer"
     id="layer1"
     inkscape:label="Shadow"
     sodipodi:insensitive="true">
    <path
       style="opacity:0.05;fill:#000000;fill-opacity:1;stroke:none"
       d="M 25,2 C 12.297451,2 2,12.297451 2,25 2,31.367153 4.6007106,37.116628 8.78125,41.28125 12.865755,44.99361 18.29568,47.25 24.25,47.25 c 12.702549,0 23,-10.297451 23,-23 0,-5.95432 -2.25639,-11.384245 -5.96875,-15.46875 C 37.116628,4.6007105 31.367153,2 25,2 z M 41.28125,8.78125 C 45.135604,12.894061 47.5,18.418655 47.5,24.5 c 0,12.702549 -10.297451,23 -23,23 C 18.418655,47.5 12.894061,45.135604 8.78125,41.28125 12.940939,45.4251 18.664604,48 25,48 37.702549,48 48,37.702549 48,25 48,18.664604 45.4251,12.940939 41.28125,8.78125 z"
       transform="scale(0.28222223,0.28222223)"
       id="path3978"
       inkscape:connector-curvature="0" />
    <path
       style="opacity:0.1;fill:#000000;fill-opacity:1;stroke:none"
       d="M 41.28125,8.78125 C 44.99361,12.865755 47.25,18.29568 47.25,24.25 c 0,12.702549 -10.297451,23 -23,23 -5.95432,0 -11.384245,-2.25639 -15.46875,-5.96875 C 12.894061,45.135604 18.418655,47.5 24.5,47.5 c 12.702549,0 23,-10.297451 23,-23 0,-6.081345 -2.364396,-11.605939 -6.21875,-15.71875 z"
       transform="scale(0.28222223,0.28222223)"
       id="path3976"
       inkscape:connector-curvature="0" />
    <path
       transform="matrix(4.3274074,0,0,3.2455556,117.19278,-35.348334)"
       d="m -24,13 a 1.5,2 0 1 1 -3,0 1.5,2 0 1 1 3,0 z"
       sodipodi:ry="2"
       sodipodi:rx="1.5"
       sodipodi:cy="13"
       sodipodi:cx="-25.5"
       id="path3952"
       style="opacity:0.2;fill:#000000;fill-opacity:1;stroke:none"
       sodipodi:type="arc" />
  </g>
  <g
     inkscape:groupmode="layer"
     id="layer2"
     inkscape:label="Base">
    <path
       sodipodi:type="arc"
       style="fill:url(#linearGradient4147);fill-opacity:1.0;stroke:none"
       id="path3942"
       sodipodi:cx="-25.5"
       sodipodi:cy="13"
       sodipodi:rx="1.5"
       sodipodi:ry="2"
       d="m -24,13 a 1.5,2 0 1 1 -3,0 1.5,2 0 1 1 3,0 z"
       transform="matrix(0,-4.3274075,3.2455556,0,-35.429918,-103.60974)" />
    <path
       style="opacity:0.1;fill:#000000;fill-opacity:1;stroke:none"
       d="M 40.03125 7.53125 C 43.74361 11.615755 46 17.04568 46 23 C 46 35.702549 35.702549 46 23 46 C 17.04568 46 11.615755 43.74361 7.53125 40.03125 C 11.709416 44.322508 17.537578 47 24 47 C 36.702549 47 47 36.702549 47 24 C 47 17.537578 44.322508 11.709416 40.03125 7.53125 z "
       transform="scale(0.28222223,0.28222223)"
       id="path4027" />
  </g>
  <g
     inkscape:groupmode="layer"
     id="layer3"
     inkscape:label="Symbol">
    <rect
       style="fill:#fffdf0;fill-opacity:1;stroke:none"
       id="rect3799"
       width="3.104444"
       height="1.1288817"
       x="3.951112"
       y="5.079999" />
    <path
       style="fill:none;stroke:none"
       d="m 6.7733341,4.9388874 -0.7055557,0.4233334 0.4233335,0 z"
       id="path3801"
       inkscape:connector-curvature="0" />
    <path
       style="fill:#000000;fill-opacity:0.10196078;stroke:none"
       d="m 7.9375002,4.2333315 c -0.5373542,0 -0.7117802,0.4237228 -0.9877778,0.8466667 l -2.5752777,0 c -0.3908778,0 -0.7055556,0.3146778 -0.7055556,0.7055556 l 0,0.2822222 0,2.3988891 0,0.4233333 0,0.2469445 0,0.035278 c 0.00181,0.039136 0.010132,0.077356 0.017639,0.1146528 0.03366,0.1950383 0.1448299,0.3615223 0.3086805,0.4674303 0.078311,0.05062 0.168557,0.0871 0.2645834,0.105834 0.048013,0.0099 0.090127,0.01764 0.1411111,0.01764 l 5.3093058,0 c 0.050984,0 0.093098,-0.0077 0.1411111,-0.01764 0.096026,-0.01874 0.186272,-0.05521 0.264583,-0.105834 0.16385,-0.105908 0.275021,-0.272392 0.308681,-0.4674303 0.0075,-0.037297 0.01583,-0.075516 0.01764,-0.1146528 l 0,-0.035278 0,-0.2469445 0,-3.9158335 c 0,-0.4125934 -0.324141,-0.7408334 -0.7320131,-0.7408334 l -1.7727084,0 z"
       id="rect3375"
       inkscape:connector-curvature="0" />
    <path
       inkscape:connector-curvature="0"
       style="fill:#f57c00;fill-opacity:1;stroke:none"
       d="m 4.0922224,4.5155557 c -0.3908777,0 -0.7055555,0.3146778 -0.7055555,0.7055556 l 0,2.6811111 6.4911112,0 0,-2.6811111 c 0,-0.3908778 -0.3146778,-0.7055556 -0.7055556,-0.7055556 l -5.0800001,0 z"
       id="rect2987-2" />
    <path
       style="opacity:0.2;fill:#ffffff;fill-opacity:1;stroke:none"
       d="m 4.0922224,4.5155557 c -0.3908778,0 -0.7055556,0.3146778 -0.7055556,0.7055556 l 0,0.2822223 c 0,-0.3908778 0.3146778,-0.7055557 0.7055556,-0.7055557 l 5.0800004,0 c 0.3908775,0 0.7055553,0.3146779 0.7055553,0.7055557 l 0,-0.2822223 c 0,-0.3908778 -0.3146778,-0.7055556 -0.7055553,-0.7055556 l -5.0800004,0 z"
       id="rect3797"
       inkscape:connector-curvature="0" />
    <path
       style="fill:#ffb300;fill-opacity:1;stroke:none"
       d="m 4.1228988,5.6444431 1.1779711,0 C 6.9205807,5.4954925 6.6260875,3.9511097 7.6568122,3.9511097 l 1.7669567,0 C 9.8316412,3.9511097 10.16,4.2832696 10.16,4.695863 l 0,4.1549387 c 0,0.4125925 -0.3283588,0.7447523 -0.7362311,0.7447523 l -5.3008701,0 c -0.4078725,0 -0.7362319,-0.3321598 -0.7362319,-0.7447523 l 0,-2.3675306 c 0,-0.4468519 0.2944927,-0.838828 0.7362319,-0.838828 z"
       id="rect3776"
       inkscape:connector-curvature="0"
       sodipodi:nodetypes="cccsssssscc" />
    <path
       style="opacity:0.15;fill:#000000;fill-opacity:1;stroke:none"
       d="m 3.3866668,8.6077762 0,0.2822231 c 0,0.3908772 0.3283595,0.7055547 0.736232,0.7055547 l 5.3008701,0 C 9.8316412,9.595554 10.16,9.2808765 10.16,8.8899993 l 0,-0.2822231 c 0,0.3908781 -0.3283588,0.7055561 -0.7362311,0.7055561 l -5.3008701,0 c -0.4078725,0 -0.7362321,-0.314678 -0.7362321,-0.7055561 z"
       id="path3786"
       inkscape:connector-curvature="0"
       sodipodi:nodetypes="csssscssc" />
    <path
       d="m 4.468533,6.7428813 c -0.1102981,0 -0.2171758,0.014559 -0.3189234,0.039721 0,-0.00166 0,-0.0025 0,-0.00414 -0.113504,0.028489 -0.1996478,0.066547 -0.21632,0.073826 0,0.0025 0,0.00479 0,0.00728 -8.323e-4,0 -0.00257,8.328e-4 -0.00423,0.00166 0.011746,0.090254 0.028434,0.1794704 0.036767,0.2202309 0.090205,0.371211 0.3507726,0.6775381 0.6955613,0.840164 -0.00173,0.025164 -0.00423,0.049495 -0.00423,0.07549 0,0.3427202 0.1419334,0.6532067 0.3697968,0.8796767 -0.00172,8.328e-4 0.00173,0.00166 0,0.0025 0.066057,0.060101 0.1554012,0.129976 0.1737841,0.1437014 0.00491,0.0025 0.012619,0.00479 0.014967,0.00812 0.075871,-0.065102 0.1436304,-0.1356012 0.1611581,-0.1543176 0.2278642,-0.226678 0.3697984,-0.5369566 0.3697984,-0.8796769 0,-0.023499 -0.00423,-0.046376 -0.00491,-0.069876 0.3507682,-0.1576372 0.6153986,-0.4637565 0.7096648,-0.8360074 -0.00173,-8.33e-4 8.323e-4,-0.00166 0,-0.0025 0.023297,-0.099822 0.040185,-0.2079614 0.040185,-0.2193993 -0.00173,-8.329e-4 -0.00423,-0.00166 -0.00575,-0.0025 0,-0.00561 0,8.329e-4 0,-0.00479 -0.048524,-0.021213 -0.1586064,-0.057605 -0.2171757,-0.07632 0,0.00414 0,-0.00166 0,0.0025 C 6.16265,6.7605718 6.0506413,6.7435193 5.9371375,6.7435193 c -0.2746766,0 -0.528618,0.086095 -0.7372436,0.2297973 -0.080159,0.059268 -0.1378726,0.1095955 -0.174425,0.1437015 -0.00423,0.00414 -0.00667,0.00893 -0.010894,0.013101 -0.1203525,0.1218655 -0.2137641,0.2672304 -0.2763944,0.4281925 0.067546,0.039096 0.1344516,0.071538 0.1945176,0.099198 0.050024,-0.1414138 0.1327426,-0.2688942 0.2370546,-0.3762023 8.323e-4,-0.00166 0.00423,-0.00561 0.00658,-0.00811 0.00491,-0.00561 0.010064,-0.012266 0.017525,-0.018717 0.00173,-0.0025 0.00423,-0.0025 0.00658,-0.00479 0.074386,-0.063428 0.1327423,-0.1048123 0.176135,-0.1324715 0.021806,-0.013101 0.044249,-0.025996 0.06691,-0.037432 0.1477052,-0.076321 0.3140075,-0.120202 0.4935617,-0.120202 0.1068792,0 0.2111905,0.015389 0.3088774,0.044713 C 6.1807068,7.3081187 5.9812753,7.5616238 5.7080953,7.7036614 5.6655561,7.528142 5.5862545,7.3648922 5.475956,7.2268058 5.384042,7.2894029 5.3055927,7.352623 5.2998218,7.3576135 c 0.090206,0.1120913 0.1568963,0.242899 0.1936627,0.3857687 0,0 0.00423,0.014559 0.010894,0.042215 0.00257,0.013101 0.00491,0.021213 0.010044,0.047207 0.01347,0.065092 0.011757,0.1397501 0.010894,0.1696965 0,0.00561 0,0.021213 0,0.021213 l -0.00257,0.00333 c -0.00833,0.2811589 -0.1301689,0.533 -0.3231909,0.7149664 -0.199647,-0.187578 -0.3249086,-0.450857 -0.3255494,-0.7440825 0.1068781,0.02849 0.2186717,0.044712 0.3340996,0.044712 0.062628,0 0.1252612,-0.00645 0.1853268,-0.015388 0.0034,-0.021213 0.00491,-0.045545 0.00658,-0.082144 0.00257,-0.065092 -0.00575,-0.1095958 -0.012618,-0.1347594 -0.058361,0.00977 -0.1186351,0.014559 -0.1786998,0.014559 -0.1077333,0 -0.2120458,-0.015389 -0.3105867,-0.04388 C 4.8205209,7.7656351 4.7469894,7.7282014 4.6935501,7.6957596 4.6634126,7.6778753 4.6435278,7.6649815 4.6326322,7.6583264 4.3979286,7.5104659 4.2252137,7.2773412 4.1674993,7.0003365 c 0.094268,-0.026826 0.1936635,-0.042216 0.2973339,-0.042216 0.1511252,0 0.2930596,0.030779 0.422596,0.086927 C 4.9509117,6.9866105 5.0276519,6.9279667 5.0710452,6.8955241 4.890633,6.7996547 4.6843589,6.7437133 4.464831,6.7437133 m 0.00173,8.328e-4"
       id="path4159"
       inkscape:connector-curvature="0"
       style="fill:#000000;fill-opacity:0.09803922;fill-rule:nonzero;stroke:none" />
    <path
       style="fill:#fff8e1;fill-opacity:1;fill-rule:nonzero;stroke:none"
       inkscape:connector-curvature="0"
       id="path77-9"
       d="m 4.468533,6.4314704 c -0.1102981,0 -0.2171758,0.014559 -0.3189234,0.03972 0,-0.00166 0,-0.0025 0,-0.00414 -0.113504,0.028489 -0.1996478,0.066547 -0.21632,0.073826 0,0.0025 0,0.00479 0,0.00728 -8.323e-4,0 -0.00257,8.328e-4 -0.00423,0.00166 0.011746,0.090255 0.028434,0.1794705 0.036767,0.2202311 0.090205,0.3712109 0.3507726,0.6775381 0.6955613,0.8401639 -0.00173,0.025164 -0.00423,0.049495 -0.00423,0.07549 0,0.3427203 0.1419334,0.6532068 0.3697968,0.8796767 -0.00172,8.328e-4 0.00173,0.00166 0,0.0025 0.066057,0.060102 0.1554012,0.1299759 0.1737841,0.1437013 0.00491,0.0025 0.012619,0.00479 0.014967,0.00811 0.075872,-0.065082 0.1436318,-0.1355806 0.1611595,-0.1542969 0.2278642,-0.2266781 0.3697984,-0.5369566 0.3697984,-0.8796769 0,-0.023499 -0.00423,-0.046376 -0.00491,-0.069876 0.3507682,-0.1576375 0.6153986,-0.4637567 0.7096648,-0.8360077 -0.00173,-8.329e-4 8.323e-4,-0.00166 0,-0.0025 0.023297,-0.099822 0.040185,-0.2079612 0.040185,-0.2193992 -0.00173,-8.329e-4 -0.00423,-0.00166 -0.00575,-0.0025 0,-0.00561 0,8.328e-4 0,-0.00479 -0.048532,-0.021213 -0.1586145,-0.057605 -0.2171838,-0.076321 0,0.00414 0,-0.00166 0,0.0025 -0.1060218,-0.027664 -0.2180304,-0.044716 -0.3315343,-0.044716 -0.2746766,0 -0.5286181,0.086096 -0.7372436,0.2297974 -0.080159,0.059272 -0.1378727,0.109599 -0.1744249,0.1437049 -0.00423,0.00414 -0.00667,0.00893 -0.010894,0.013101 -0.1203441,0.1218654 -0.2137557,0.2672303 -0.2763859,0.4281926 0.067546,0.039096 0.1344516,0.071538 0.1945176,0.099198 0.050024,-0.1414139 0.1327425,-0.2688943 0.2370545,-0.3762023 8.323e-4,-0.00166 0.00423,-0.00561 0.00658,-0.00811 0.00491,-0.00561 0.010054,-0.012266 0.017525,-0.018717 0.00173,-0.0025 0.00423,-0.0025 0.00658,-0.00479 0.074386,-0.063428 0.1327424,-0.1048122 0.176135,-0.1324714 0.021806,-0.013102 0.044249,-0.025995 0.066911,-0.037433 0.1477051,-0.076321 0.3140074,-0.120202 0.4935616,-0.120202 0.1068793,0 0.2111906,0.015389 0.3088774,0.044713 C 6.1807031,6.9967073 5.9812711,7.2502123 5.7080911,7.39225 5.6655561,7.2167312 5.5862545,7.0534814 5.475956,6.9153951 5.384042,6.977992 5.3055927,7.0412122 5.2998218,7.0462028 c 0.090206,0.1120912 0.1568963,0.242899 0.1936627,0.3857686 0,0 0.00423,0.014559 0.010894,0.042215 0.00257,0.013101 0.00491,0.021213 0.010044,0.047207 0.01347,0.065092 0.011757,0.13975 0.010894,0.1696963 0,0.00561 0,0.021213 0,0.021213 l -0.00257,0.00333 C 5.5144211,7.9967951 5.3925776,8.2486364 5.1995556,8.4306026 4.9999086,8.2430214 4.874647,7.9797422 4.8740062,7.6865167 c 0.1068781,0.028491 0.2186717,0.044712 0.3340996,0.044712 0.062628,0 0.1252612,-0.00645 0.1853268,-0.015388 0.0034,-0.021213 0.00491,-0.045545 0.00658,-0.082145 0.00257,-0.065092 -0.00575,-0.1095955 -0.012618,-0.1347591 -0.058366,0.00978 -0.1186401,0.014559 -0.1787049,0.014559 -0.1077332,0 -0.2120459,-0.015389 -0.3105868,-0.04388 C 4.8205209,7.4542243 4.7469894,7.4167905 4.6935501,7.3843487 4.6634126,7.3664644 4.6435278,7.3535707 4.6326322,7.3469157 4.3979286,7.199055 4.2252137,6.9659303 4.1674993,6.6889256 c 0.094268,-0.026826 0.1936635,-0.042216 0.2973339,-0.042216 0.1511252,0 0.2930596,0.030779 0.422596,0.086927 C 4.9509117,6.6751995 5.0276519,6.6165559 5.0710452,6.5841133 4.890633,6.4882439 4.6843589,6.4323024 4.464831,6.4323024 m 0.00173,8.328e-4" />
  </g>
</svg>
