<?xml version="1.0" encoding="UTF-8" standalone="no"?>
<svg
   xmlns:dc="http://purl.org/dc/elements/1.1/"
   xmlns:cc="http://creativecommons.org/ns#"
   xmlns:rdf="http://www.w3.org/1999/02/22-rdf-syntax-ns#"
   xmlns:svg="http://www.w3.org/2000/svg"
   xmlns="http://www.w3.org/2000/svg"
   xmlns:sodipodi="http://sodipodi.sourceforge.net/DTD/sodipodi-0.dtd"
   xmlns:inkscape="http://www.inkscape.org/namespaces/inkscape"
   width="16"
   height="16"
   viewBox="0 0 12.8 12.8"
   id="svg3041"
   version="1.1"
   inkscape:version="0.48.5 r10040"
   sodipodi:docname="folder-templates.svg">
  <metadata
     id="metadata3055">
    <rdf:RDF>
      <cc:Work
         rdf:about="">
        <dc:format>image/svg+xml</dc:format>
        <dc:type
           rdf:resource="http://purl.org/dc/dcmitype/StillImage" />
      </cc:Work>
    </rdf:RDF>
  </metadata>
  <defs
     id="defs3053" />
  <sodipodi:namedview
     pagecolor="#ffffff"
     bordercolor="#666666"
     borderopacity="1"
     objecttolerance="10"
     gridtolerance="10"
     guidetolerance="10"
     inkscape:pageopacity="0"
     inkscape:pageshadow="2"
     inkscape:window-width="672"
     inkscape:window-height="480"
     id="namedview3051"
     showgrid="true"
     inkscape:zoom="10.269366"
     inkscape:cx="6.1891154"
     inkscape:cy="9.5783024"
     inkscape:window-x="0"
     inkscape:window-y="0"
     inkscape:window-maximized="0"
     inkscape:current-layer="svg3041">
    <inkscape:grid
       type="xygrid"
       id="grid3066"
       empspacing="5"
       visible="true"
       enabled="true"
       snapvisiblegridlinesonly="true" />
  </sodipodi:namedview>
  <path
     sodipodi:nodetypes="ccccsssccccccc"
     inkscape:connector-curvature="0"
     id="path3782"
     d="m 1.6000008,0.79999959 c -0.397554,0 -0.79999995,0.37569431 -0.79999995,0.80000001 l 0,0.8 c -0.3721413,0 -0.80069690117,0.333838 -0.80000000116674,0.8 l 0,8.0000004 C 8.4883326e-7,11.681784 0.38555185,12 0.80000085,12 L 12.000001,12 c 0.430116,0 0.800836,-0.318218 0.8,-0.8 l 0,-7.2000004 c -5.05e-4,-0.4824152 -0.379342,-0.8 -0.8,-0.8 l -0.8,0 0,-1.6 c 0,-0.4458592 -0.382131,-0.80000001 -0.8,-0.80000001 z"
     style="font-size:medium;font-style:normal;font-variant:normal;font-weight:normal;font-stretch:normal;text-indent:0;text-align:start;text-decoration:none;line-height:normal;letter-spacing:normal;word-spacing:normal;text-transform:none;direction:ltr;block-progression:tb;writing-mode:lr-tb;text-anchor:start;baseline-shift:baseline;color:#000000;fill:#e9b080;fill-opacity:1;fill-rule:nonzero;stroke:none;stroke-width:0.81800002;marker:none;visibility:visible;display:inline;overflow:visible;enable-background:accumulate;font-family:Sans;-inkscape-font-specification:Sans" />
  <path
     style="font-size:medium;font-style:normal;font-variant:normal;font-weight:normal;font-stretch:normal;text-indent:0;text-align:start;text-decoration:none;line-height:normal;letter-spacing:normal;word-spacing:normal;text-transform:none;direction:ltr;block-progression:tb;writing-mode:lr-tb;text-anchor:start;baseline-shift:baseline;color:#000000;fill:#000000;fill-opacity:0.32038838;fill-rule:nonzero;stroke:none;stroke-width:0.81800002;marker:none;visibility:visible;display:inline;overflow:visible;enable-background:accumulate;font-family:Sans;-inkscape-font-specification:Sans"
     d="m 1.6000008,0.79999959 c -0.397554,0 -0.79999995,0.37569431 -0.79999995,0.80000001 l 0,0.8 c -0.3721413,0 -0.80069690117,0.333838 -0.80000000116674,0.8 l 0,8.0000004 C 8.4883326e-7,11.681784 0.37612085,12 0.80000085,12 L 12.000001,12 c 0.433242,0 0.800836,-0.318218 0.8,-0.8 l 0,-7.2000004 c -5.05e-4,-0.4824152 -0.379342,-0.8 -0.8,-0.8 l -0.8,0 0,-1.6 c 0,-0.4458592 -0.382131,-0.80000001 -0.8,-0.80000001 z m -0.79999995,2.40000001 6.39999965,0 0,0.8 4.8000005,0 0,7.2000004 -11.20000015,0 z"
     id="path3768"
     inkscape:connector-curvature="0"
     sodipodi:nodetypes="ssccsssccscsssccccccc" />
  <path
     style="fill:#000000;fill-opacity:0.32156864"
     d="m 3.6036044,4.4 c 0,0 -0.4036043,0.017298 -0.4036043,0.4036043 l 0,0.7956748 0.8014416,0 0,-0.3978374 0.3978375,0 0,-0.8014417 z m 1.1992791,0 0,0.8014417 0.7956749,0 0,-0.8014417 z m 1.1992792,0 0,0.8014417 0.7956748,0 0,-0.8014417 z m 1.1992791,0 0,0.8014417 0.7956749,0 0,-0.8014417 z m 1.1992791,0 0,0.8014417 0.3978375,0 0,0.3978374 0.8014419,0 0,-0.7956748 C 9.6000004,4.4 9.1963964,4.4 9.1963964,4.4 z M 3.2,6.0028834 l 0,0.7956749 0.8014416,0 0,-0.7956749 z m 5.5985584,0 0,0.7956749 0.8014419,0 0,-0.7956749 z m -5.5985583,1.1992792 0,0.7956748 0.8014415,0 0,-0.7956748 z m 5.5985583,0 0,0.7956748 0.8014419,0 0,-0.7956748 z m -5.5985583,1.1992791 0,0.7956749 0.8014415,0 0,-0.7956749 z m 5.5985583,0 0,0.7956749 0.8014419,0 0,-0.7956749 z m -5.5985583,1.1992792 0,0.7956751 C 3.2000001,10.8 3.6036044,10.8 3.6036044,10.8 l 0.7956748,0 0,-0.801442 -0.3978375,0 0,-0.3978371 z m 5.5985583,0 0,0.3978371 -0.3978375,0 0,0.801442 0.7956755,0 c 0,0 0.4036039,0 0.4036039,-0.403604 l 0,-0.7956751 z m -3.9956749,0.3978371 0,0.801442 0.7956748,0 0,-0.801442 z m 1.1992792,0 0,0.801442 0.7956748,0 0,-0.801442 z m 1.1992791,0 0,0.801442 0.7956749,0 0,-0.801442 z"
     id="path3049"
     inkscape:connector-curvature="0" />
</svg>
