<?xml version="1.0" encoding="UTF-8" standalone="no"?>
<svg
   xmlns:dc="http://purl.org/dc/elements/1.1/"
   xmlns:cc="http://creativecommons.org/ns#"
   xmlns:rdf="http://www.w3.org/1999/02/22-rdf-syntax-ns#"
   xmlns:svg="http://www.w3.org/2000/svg"
   xmlns="http://www.w3.org/2000/svg"
   xmlns:sodipodi="http://sodipodi.sourceforge.net/DTD/sodipodi-0.dtd"
   xmlns:inkscape="http://www.inkscape.org/namespaces/inkscape"
   width="16.25"
   height="16.25"
   viewBox="0 0 13 13"
   id="svg2993"
   version="1.1"
   inkscape:version="0.48.4 r9939"
   sodipodi:docname="folder-templates.svg">
  <metadata
     id="metadata3007">
    <rdf:RDF>
      <cc:Work
         rdf:about="">
        <dc:format>image/svg+xml</dc:format>
        <dc:type
           rdf:resource="http://purl.org/dc/dcmitype/StillImage" />
      </cc:Work>
    </rdf:RDF>
  </metadata>
  <defs
     id="defs3005" />
  <sodipodi:namedview
     pagecolor="#ffffff"
     bordercolor="#666666"
     borderopacity="1"
     objecttolerance="10"
     gridtolerance="10"
     guidetolerance="10"
     inkscape:pageopacity="0"
     inkscape:pageshadow="2"
     inkscape:window-width="658"
     inkscape:window-height="480"
     id="namedview3003"
     showgrid="false"
     showguides="true"
     inkscape:guide-bbox="true"
     inkscape:zoom="14.523077"
     inkscape:cx="6.2658898"
     inkscape:cy="7.9184323"
     inkscape:window-x="0"
     inkscape:window-y="0"
     inkscape:window-maximized="0"
     inkscape:current-layer="svg2993">
    <sodipodi:guide
       orientation="1,0"
       position="-11.567797,11.84322"
       id="guide4853" />
  </sodipodi:namedview>
  <path
     inkscape:connector-curvature="0"
     id="path2997"
     d="m 1.6108503,10.601486 c -0.1745,-0.02071 -0.3205101,-0.223644 -0.3205101,-0.434864 l 0,-8.2375795 c 0,-0.2277866 0.1709388,-0.434865 0.3561224,-0.434865 l 8.7249964,0 c 0.185183,0 0.35256,0.2070784 0.35256,0.434865 l 0,7.4713892 c 0,0.2277865 -0.167377,0.4348646 -0.35256,0.4348646 l -3.4080912,0 0,0.3313257 c 0,0.227787 -0.1673774,0.434864 -0.3525609,0.434864 l -4.9643443,0 c -0.014245,0 -0.024928,0 -0.035612,0 z"
     style="fill:#e9a439;stroke:#e9a439;stroke-width:0.98299998000000000;stroke-opacity:1;fill-opacity:1" />
  <path
     inkscape:connector-curvature="0"
     id="path2999"
     d="M 0.81398029,3.0172971 C 0.59500867,3.0373388 0.40676979,3.2297389 0.41061138,3.4381722 l 0,7.9645588 c 0,0.220458 0.21128842,0.420875 0.44946823,0.420875 l 11.08688339,0 c 0.23818,0 0.449468,-0.200417 0.449468,-0.420875 l 0,-7.2270253 c 0,-0.2204586 -0.211288,-0.4208752 -0.449468,-0.4208752 l -4.3294935,0 0,-0.3166583 c 0,-0.2204587 -0.2151299,-0.4208751 -0.4494682,-0.4208751 l -6.30792169,0 c -0.0153663,0 -0.030733,0 -0.0460993,0 z"
     style="fill:#f5c14e;stroke:#e9a439;stroke-width:0.81800002000000005;stroke-opacity:1;fill-opacity:1" />
  <path
     style="fill:#d0a444;fill-opacity:1"
     d="m 3.6036044,4.6 c 0,0 -0.4036043,0.017298 -0.4036043,0.4036043 l 0,0.7956748 0.8014416,0 0,-0.3978374 0.3978375,0 0,-0.8014417 z m 1.1992791,0 0,0.8014417 0.7956749,0 0,-0.8014417 z m 1.1992792,0 0,0.8014417 0.7956748,0 0,-0.8014417 z m 1.1992791,0 0,0.8014417 0.7956749,0 0,-0.8014417 z m 1.1992791,0 0,0.8014417 0.3978375,0 0,0.3978374 0.8014419,0 0,-0.7956748 C 9.6000004,4.6 9.1963964,4.6 9.1963964,4.6 z M 3.2,6.2028834 l 0,0.7956749 0.8014416,0 0,-0.7956749 z m 5.5985584,0 0,0.7956749 0.8014419,0 0,-0.7956749 z m -5.5985583,1.1992792 0,0.7956748 0.8014415,0 0,-0.7956748 z m 5.5985583,0 0,0.7956748 0.8014419,0 0,-0.7956748 z m -5.5985583,1.1992791 0,0.7956749 0.8014415,0 0,-0.7956749 z m 5.5985583,0 0,0.7956749 0.8014419,0 0,-0.7956749 z m -5.5985583,1.1992792 0,0.7956751 C 3.2000001,11 3.6036044,11 3.6036044,11 l 0.7956748,0 0,-0.801442 -0.3978375,0 0,-0.3978371 z m 5.5985583,0 0,0.3978371 -0.3978375,0 0,0.801442 0.7956755,0 c 0,0 0.4036039,0 0.4036039,-0.403604 l 0,-0.7956751 z m -3.9956749,0.3978371 0,0.801442 0.7956748,0 0,-0.801442 z m 1.1992792,0 0,0.801442 0.7956748,0 0,-0.801442 z m 1.1992791,0 0,0.801442 0.7956749,0 0,-0.801442 z"
     id="path3001" />
</svg>
