<?xml version="1.0" encoding="UTF-8" standalone="no"?>
<svg
   xmlns:dc="http://purl.org/dc/elements/1.1/"
   xmlns:cc="http://creativecommons.org/ns#"
   xmlns:rdf="http://www.w3.org/1999/02/22-rdf-syntax-ns#"
   xmlns:svg="http://www.w3.org/2000/svg"
   xmlns="http://www.w3.org/2000/svg"
   xmlns:sodipodi="http://sodipodi.sourceforge.net/DTD/sodipodi-0.dtd"
   xmlns:inkscape="http://www.inkscape.org/namespaces/inkscape"
   width="16.25"
   height="16.25"
   viewBox="0 0 13 13"
   id="svg2"
   version="1.1"
   inkscape:version="0.48.4 r9939"
   sodipodi:docname="folder-pictures.svg">
  <metadata
     id="metadata34">
    <rdf:RDF>
      <cc:Work
         rdf:about="">
        <dc:format>image/svg+xml</dc:format>
        <dc:type
           rdf:resource="http://purl.org/dc/dcmitype/StillImage" />
      </cc:Work>
    </rdf:RDF>
  </metadata>
  <defs
     id="defs32" />
  <sodipodi:namedview
     pagecolor="#ffffff"
     bordercolor="#666666"
     borderopacity="1"
     objecttolerance="10"
     gridtolerance="10"
     guidetolerance="10"
     inkscape:pageopacity="0"
     inkscape:pageshadow="2"
     inkscape:window-width="658"
     inkscape:window-height="480"
     id="namedview30"
     showgrid="false"
     inkscape:zoom="14.523077"
     inkscape:cx="19.004237"
     inkscape:cy="6.8855933"
     inkscape:window-x="492"
     inkscape:window-y="177"
     inkscape:window-maximized="0"
     inkscape:current-layer="svg2" />
  <path
     inkscape:connector-curvature="0"
     id="path6"
     d="m 1.6108503,10.601486 c -0.1745,-0.02071 -0.3205101,-0.223644 -0.3205101,-0.434864 l 0,-8.2375795 c 0,-0.2277866 0.1709388,-0.434865 0.3561224,-0.434865 l 8.7249964,0 c 0.185183,0 0.35256,0.2070784 0.35256,0.434865 l 0,7.4713892 c 0,0.2277865 -0.167377,0.4348646 -0.35256,0.4348646 l -3.4080912,0 0,0.3313257 c 0,0.227787 -0.1673774,0.434864 -0.3525609,0.434864 l -4.9643443,0 c -0.014245,0 -0.024928,0 -0.035612,0 z"
     style="fill:#e9a439;stroke:#e9a439;stroke-width:0.98299998000000000;stroke-opacity:1;fill-opacity:1" />
  <path
     inkscape:connector-curvature="0"
     id="path8"
     d="M 0.81398029,3.0172971 C 0.59500867,3.0373388 0.40676979,3.2297389 0.41061138,3.4381722 l 0,7.9645588 c 0,0.220458 0.21128842,0.420875 0.44946823,0.420875 l 11.08688339,0 c 0.23818,0 0.449468,-0.200417 0.449468,-0.420875 l 0,-7.2270253 c 0,-0.2204586 -0.211288,-0.4208752 -0.449468,-0.4208752 l -4.3294935,0 0,-0.3166583 c 0,-0.2204587 -0.2151299,-0.4208751 -0.4494682,-0.4208751 l -6.30792169,0 c -0.0153663,0 -0.030733,0 -0.0460993,0 z"
     style="fill:#f5c14e;stroke:#e9a439;stroke-width:0.81800002000000005;stroke-opacity:1;fill-opacity:1" />
  <g
     id="g9532"
     style="fill:#d0a444;fill-opacity:1">
    <path
       inkscape:connector-curvature="0"
       style="fill:#d0a444;fill-opacity:1"
       id="path14"
       d="M 3.6439658,4.5999835 C 3.4191015,4.6230467 3.2288296,4.8594433 3.2288296,5.1131392 l 0,5.3852388 c 0.00577,0.265225 0.2191004,0.501623 0.4497317,0.501623 l 5.4832583,0 c 0.2306312,-0.0058 0.4324325,-0.242163 0.4381994,-0.501623 l 0,-5.3852388 c 0,-0.2652267 -0.2075682,-0.5073888 -0.4381994,-0.5131557 z m 0.3805423,0.801444 4.7798323,0 0,3.995686 -4.7798323,0 z" />
    <g
       style="fill:#d0a444;fill-opacity:1;fill-rule:evenodd"
       transform="matrix(1.47604,0,0,1.47604,-3.19425,-2.99355)"
       id="g16">
      <path
         d="M 4.34375,7.972656 C 4.40625,7.925781 4.550781,7.789062 4.789062,7.558594 5.023438,7.320312 5.335938,7 5.742188,6.574219 6.007812,6.953125 6.203125,7.226562 6.351562,7.40625 c 0.140626,0.175781 0.21875,0.253906 0.238282,0.234375 0.148437,-0.136719 0.277344,-0.25 0.386718,-0.351563 0.105469,-0.097656 0.1875,-0.179687 0.253907,-0.25 C 7.5625,7.457031 7.835938,7.800781 8.078125,8.089844 8.3125,8.375 8.5,8.59375 8.648438,8.753906 l -0.902344,-0.75 C 7.671875,8.195312 7.550781,8.296875 7.378906,8.304688 7.203125,8.308594 6.933594,8.09375 6.714844,8.054688 6.5,8.015625 6.285156,8.136719 6.089844,8.070312 5.894531,8.003906 5.742188,7.726562 5.558594,7.65625 5.375,7.585938 5.1875,7.585938 4.988281,7.65625 4.773438,7.761719 4.5625,7.867188 4.34375,7.972656 z"
         id="path18"
         style="fill:#d0a444;fill-opacity:1"
         inkscape:connector-curvature="0" />
      <path
         d="M 4.332031,7.828125 C 4.394531,7.78125 4.539062,7.648438 4.773438,7.414062 5.007812,7.175781 5.324219,6.855469 5.730469,6.433594 5.996094,6.808594 6.191406,7.085938 6.335938,7.261719 6.480469,7.441406 6.558594,7.515625 6.578125,7.496094 6.726562,7.363281 6.851562,7.246094 6.960938,7.148438 7.070312,7.046875 7.152344,6.964844 7.21875,6.898438 7.550781,7.3125 7.824219,7.65625 8.066406,7.945312 8.300781,8.234375 8.488281,8.449219 8.636719,8.609375 L 7.734375,7.863281 C 7.660156,8.054688 7.539062,8.152344 7.367188,8.160156 7.191406,8.167969 6.921875,7.949219 6.707031,7.910156 6.488281,7.871094 6.273438,7.996094 6.078125,7.929688 5.882812,7.859375 5.730469,7.585938 5.546875,7.511719 5.359375,7.441406 5.175781,7.441406 4.976562,7.511719 4.761719,7.617188 4.546875,7.722656 4.332031,7.828125 z"
         id="path20"
         style="fill:#d0a444;fill-opacity:1"
         inkscape:connector-curvature="0" />
    </g>
    <path
       inkscape:connector-curvature="0"
       style="fill:#d0a444;fill-opacity:1"
       id="path24"
       d="m 4.4223467,8.197831 3.1769458,0 c 0.4439648,0 0.801444,0.3574792 0.801444,0.801444 l 0,0.3978385 c 0,0.4439648 -0.3574792,0.8014445 -0.801444,0.8014445 l -3.1769458,0 c -0.4381994,0 -0.7956771,-0.3574797 -0.7956771,-0.8014445 l 0,-0.3978385 c 0,-0.4439648 0.3574777,-0.801444 0.7956771,-0.801444 z" />
    <path
       inkscape:connector-curvature="0"
       style="fill:#d0a444;fill-opacity:1"
       id="path26"
       d="m 8.4007365,8.999275 0.3978385,0 c 0.2191004,0 0.3978385,0.1787396 0.3978385,0.3978385 0,0.2248659 -0.1787381,0.4036055 -0.3978385,0.4036055 l -0.3978385,0 c -0.2191005,0 -0.3978386,-0.1787396 -0.3978386,-0.4036055 0,-0.2190989 0.1787381,-0.3978385 0.3978386,-0.3978385 z" />
    <path
       inkscape:connector-curvature="0"
       style="fill:#d0a444;fill-opacity:1"
       id="path28"
       d="m 8.0144288,8.6475627 0.3978385,0 c 0.1095502,0 0.1960373,0.092253 0.1960373,0.2018027 l 0,0.3978386 c 0,0.1095502 -0.086487,0.2018027 -0.1960373,0.2018027 l -0.3978385,0 c -0.1095503,0 -0.2018028,-0.092253 -0.2018028,-0.2018027 l 0,-0.3978386 c 0,-0.1095502 0.092252,-0.2018027 0.2018028,-0.2018027 z" />
  </g>
</svg>
