<?xml version="1.0" encoding="UTF-8" standalone="no"?>
<svg
   xmlns:dc="http://purl.org/dc/elements/1.1/"
   xmlns:cc="http://creativecommons.org/ns#"
   xmlns:rdf="http://www.w3.org/1999/02/22-rdf-syntax-ns#"
   xmlns:svg="http://www.w3.org/2000/svg"
   xmlns="http://www.w3.org/2000/svg"
   xmlns:sodipodi="http://sodipodi.sourceforge.net/DTD/sodipodi-0.dtd"
   xmlns:inkscape="http://www.inkscape.org/namespaces/inkscape"
   width="16.25"
   height="16.25"
   viewBox="0 0 13 13"
   id="svg2"
   version="1.1"
   inkscape:version="0.48.4 r9939"
   sodipodi:docname="folder-copy.svg">
  <metadata
     id="metadata26">
    <rdf:RDF>
      <cc:Work
         rdf:about="">
        <dc:format>image/svg+xml</dc:format>
        <dc:type
           rdf:resource="http://purl.org/dc/dcmitype/StillImage" />
      </cc:Work>
    </rdf:RDF>
  </metadata>
  <defs
     id="defs24" />
  <sodipodi:namedview
     pagecolor="#ffffff"
     bordercolor="#666666"
     borderopacity="1"
     objecttolerance="10"
     gridtolerance="10"
     guidetolerance="10"
     inkscape:pageopacity="0"
     inkscape:pageshadow="2"
     inkscape:window-width="658"
     inkscape:window-height="480"
     id="namedview22"
     showgrid="false"
     inkscape:zoom="14.523077"
     inkscape:cx="4.5444915"
     inkscape:cy="9.7086864"
     inkscape:window-x="506"
     inkscape:window-y="175"
     inkscape:window-maximized="0"
     inkscape:current-layer="svg2" />
  <path
     style="fill:#e9a439;stroke:#e9a439;stroke-width:0.80007386000000003;fill-opacity:1;stroke-opacity:1"
     d="M 1.0747421,6.4292786 C 0.96172719,6.4177045 0.86819778,6.3096781 0.86819778,6.1900776 l 0,-4.5448218 c 0,-0.1234587 0.10911765,-0.2392009 0.22992702,-0.2392009 l 5.6546443,0 c 0.1208093,0 0.229927,0.1157422 0.229927,0.2392009 l 0,4.1242909 c 0,0.1234586 -0.1091177,0.2392009 -0.229927,0.2392009 l -2.2057398,0 0,0.18133 c 0,0.1273167 -0.1091181,0.239201 -0.229927,0.239201 l -3.2189775,0 c -0.00779,0.00386 -0.015589,0.00386 -0.023383,0 z"
     id="path8"
     inkscape:connector-curvature="0" />
  <path
     style="fill:#df9a2f;stroke:#e9a439;stroke-width:0.80000000999999998;stroke-opacity:1;fill-opacity:1"
     d="M 0.63437276,2.0002073 C 0.5018723,2.011782 0.38885732,2.1198083 0.38885732,2.2394089 l 0,4.5409711 c 0,0.1273169 0.12860324,0.2430597 0.26889782,0.2430597 l 6.66788826,0 c 0.1402942,0 0.2688978,-0.1157428 0.2688978,-0.2430597 l 0,-4.1204394 c 0,-0.1234589 -0.1286036,-0.2392013 -0.2688978,-0.2392013 l -2.6032435,0 0,-0.1813304 c 0,-0.1273168 -0.1286033,-0.2392016 -0.2727947,-0.2392016 l -3.79185006,0 c -0.007794,-0.00386 -0.0155883,-0.00386 -0.0233823,0 z"
     id="path12"
     inkscape:connector-curvature="0" />
  <path
     style="fill:#e9a439;stroke:#e9a439;stroke-width:0.80007386000000003;fill-opacity:1;stroke-opacity:1"
     d="M 5.8997421,11.224199 C 5.7867272,11.212624 5.6931978,11.104598 5.6931978,10.984998 l 0,-4.5448222 c 0,-0.1234587 0.1091176,-0.2392009 0.229927,-0.2392009 l 5.6546442,0 c 0.120809,0 0.229927,0.1157422 0.229927,0.2392009 l 0,4.1242912 c 0,0.123458 -0.109118,0.239201 -0.229927,0.239201 l -2.2057397,0 0,0.18133 c 0,0.127316 -0.1091181,0.239201 -0.229927,0.239201 l -3.2189775,0 c -0.00779,0.0039 -0.015589,0.0039 -0.023383,0 z"
     id="path16"
     inkscape:connector-curvature="0" />
  <path
     style="fill:#f5c14e;stroke:#e9a439;stroke-width:0.80000000999999998;stroke-opacity:1;fill-opacity:1"
     d="M 5.4593728,6.7951223 C 5.3268723,6.806697 5.2138573,6.9147233 5.2138573,7.0343239 l 0,4.5409711 c 0,0.127317 0.1286033,0.24306 0.2688978,0.24306 l 6.6678879,0 c 0.140295,0 0.268898,-0.115743 0.268898,-0.24306 l 0,-4.1204394 c 0,-0.1234589 -0.128603,-0.2392013 -0.268898,-0.2392013 l -2.6032431,0 0,-0.1813304 c 0,-0.1273168 -0.1286033,-0.2392016 -0.2727947,-0.2392016 l -3.7918501,0 c -0.00779,-0.00386 -0.015588,-0.00386 -0.023382,0 z"
     id="path20"
     inkscape:connector-curvature="0" />
</svg>
