<?xml version="1.0" encoding="UTF-8" standalone="no"?>
<svg
   xmlns:dc="http://purl.org/dc/elements/1.1/"
   xmlns:cc="http://creativecommons.org/ns#"
   xmlns:rdf="http://www.w3.org/1999/02/22-rdf-syntax-ns#"
   xmlns:svg="http://www.w3.org/2000/svg"
   xmlns="http://www.w3.org/2000/svg"
   xmlns:sodipodi="http://sodipodi.sourceforge.net/DTD/sodipodi-0.dtd"
   xmlns:inkscape="http://www.inkscape.org/namespaces/inkscape"
   width="16"
   height="16"
   viewBox="0 0 12.8 12.8"
   id="svg2"
   version="1.1"
   inkscape:version="0.48.5 r10040"
   sodipodi:docname="folder-pictures.svg">
  <metadata
     id="metadata34">
    <rdf:RDF>
      <cc:Work
         rdf:about="">
        <dc:format>image/svg+xml</dc:format>
        <dc:type
           rdf:resource="http://purl.org/dc/dcmitype/StillImage" />
      </cc:Work>
    </rdf:RDF>
  </metadata>
  <defs
     id="defs32" />
  <sodipodi:namedview
     pagecolor="#ffffff"
     bordercolor="#666666"
     borderopacity="1"
     objecttolerance="10"
     gridtolerance="10"
     guidetolerance="10"
     inkscape:pageopacity="0"
     inkscape:pageshadow="2"
     inkscape:window-width="672"
     inkscape:window-height="480"
     id="namedview30"
     showgrid="true"
     inkscape:zoom="14.523077"
     inkscape:cx="8.125"
     inkscape:cy="8.125"
     inkscape:window-x="0"
     inkscape:window-y="0"
     inkscape:window-maximized="0"
     inkscape:current-layer="svg2">
    <inkscape:grid
       type="xygrid"
       id="grid3804"
       empspacing="5"
       visible="true"
       enabled="true"
       snapvisiblegridlinesonly="true" />
  </sodipodi:namedview>
  <path
     sodipodi:nodetypes="ccccsssccccccc"
     inkscape:connector-curvature="0"
     id="path3782"
     d="m 1.6000009,0.8 c -0.397554,0 -0.79999995,0.3756943 -0.79999995,0.8 l 0,0.8 C 0.42785965,2.4 -6.9595141e-4,2.733838 8.4858984e-7,3.2 l 0,8 C 8.4858984e-7,11.681784 0.38555195,12 0.80000095,12 L 12.000001,12 c 0.430116,0 0.800836,-0.318218 0.8,-0.8 l 0,-7.2 c -5.05e-4,-0.4824152 -0.379342,-0.8 -0.8,-0.8 l -0.8,0 0,-1.6 c 0,-0.4458592 -0.382131,-0.8 -0.8,-0.8 z"
     style="font-size:medium;font-style:normal;font-variant:normal;font-weight:normal;font-stretch:normal;text-indent:0;text-align:start;text-decoration:none;line-height:normal;letter-spacing:normal;word-spacing:normal;text-transform:none;direction:ltr;block-progression:tb;writing-mode:lr-tb;text-anchor:start;baseline-shift:baseline;color:#000000;fill:#e9b080;fill-opacity:1;fill-rule:nonzero;stroke:none;stroke-width:0.81800002;marker:none;visibility:visible;display:inline;overflow:visible;enable-background:accumulate;font-family:Sans;-inkscape-font-specification:Sans" />
  <path
     style="font-size:medium;font-style:normal;font-variant:normal;font-weight:normal;font-stretch:normal;text-indent:0;text-align:start;text-decoration:none;line-height:normal;letter-spacing:normal;word-spacing:normal;text-transform:none;direction:ltr;block-progression:tb;writing-mode:lr-tb;text-anchor:start;baseline-shift:baseline;color:#000000;fill:#000000;fill-opacity:0.32038838;fill-rule:nonzero;stroke:none;stroke-width:0.81800002;marker:none;visibility:visible;display:inline;overflow:visible;enable-background:accumulate;font-family:Sans;-inkscape-font-specification:Sans"
     d="m 1.6000009,0.8 c -0.397554,0 -0.79999995,0.3756943 -0.79999995,0.8 l 0,0.8 C 0.42785965,2.4 -6.9595141e-4,2.733838 8.4858984e-7,3.2 l 0,8 C 8.4858984e-7,11.681784 0.37612085,12 0.80000095,12 L 12.000001,12 c 0.433242,0 0.800836,-0.318218 0.8,-0.8 l 0,-7.2 c -5.05e-4,-0.4824152 -0.379342,-0.8 -0.8,-0.8 l -0.8,0 0,-1.6 c 0,-0.4458592 -0.382131,-0.8 -0.8,-0.8 z m -0.79999995,2.4 6.40000035,0 0,0.8 4.7999997,0 0,7.2 -11.20000005,0 z"
     id="path3768"
     inkscape:connector-curvature="0"
     sodipodi:nodetypes="ssccsssccscsssccccccc" />
  <path
     style="fill:#000000;fill-opacity:0.32156864"
     d="M 4.5625 5.5 C 4.2814196 5.528829 4.03125 5.8391301 4.03125 6.15625 L 4.03125 12.875 C 4.0384625 13.206531 4.3054609 13.5 4.59375 13.5 L 11.4375 13.5 C 11.725789 13.49275 11.992791 13.199325 12 12.875 L 12 6.15625 C 12 5.8247166 11.725789 5.5072086 11.4375 5.5 L 4.5625 5.5 z M 5.03125 6.5 L 11 6.5 L 11 10.8125 C 10.949824 10.751483 10.92772 10.721272 10.875 10.65625 C 10.428153 10.122916 9.9251139 9.5139651 9.3125 8.75 C 9.1899776 8.8725224 9.0455505 9.0001112 8.84375 9.1875 C 8.6419459 9.3676802 8.4301237 9.5987034 8.15625 9.84375 C 8.1202144 9.8797856 7.954167 9.7377815 7.6875 9.40625 C 7.4208313 9.0819252 7.0838414 8.5668938 6.59375 7.875 C 5.9354412 8.5586283 5.4435927 9.0497956 5.03125 9.46875 L 5.03125 6.5 z "
     transform="scale(0.8,0.8)"
     id="path14" />
</svg>
