<?xml version="1.0" encoding="UTF-8" standalone="no"?>
<svg
   xmlns:dc="http://purl.org/dc/elements/1.1/"
   xmlns:cc="http://creativecommons.org/ns#"
   xmlns:rdf="http://www.w3.org/1999/02/22-rdf-syntax-ns#"
   xmlns:svg="http://www.w3.org/2000/svg"
   xmlns="http://www.w3.org/2000/svg"
   xmlns:sodipodi="http://sodipodi.sourceforge.net/DTD/sodipodi-0.dtd"
   xmlns:inkscape="http://www.inkscape.org/namespaces/inkscape"
   width="16"
   height="16"
   viewBox="0 0 12.8 12.8"
   id="svg2"
   version="1.1"
   inkscape:version="0.48.5 r10040"
   sodipodi:docname="network-server.svg">
  <metadata
     id="metadata20">
    <rdf:RDF>
      <cc:Work
         rdf:about="">
        <dc:format>image/svg+xml</dc:format>
        <dc:type
           rdf:resource="http://purl.org/dc/dcmitype/StillImage" />
      </cc:Work>
    </rdf:RDF>
  </metadata>
  <defs
     id="defs18" />
  <sodipodi:namedview
     pagecolor="#ffffff"
     bordercolor="#666666"
     borderopacity="1"
     objecttolerance="10"
     gridtolerance="10"
     guidetolerance="10"
     inkscape:pageopacity="0"
     inkscape:pageshadow="2"
     inkscape:window-width="1280"
     inkscape:window-height="969"
     id="namedview16"
     showgrid="true"
     inkscape:zoom="128"
     inkscape:cx="3.7853846"
     inkscape:cy="13.383956"
     inkscape:window-x="0"
     inkscape:window-y="0"
     inkscape:window-maximized="1"
     inkscape:current-layer="svg2">
    <inkscape:grid
       type="xygrid"
       id="grid2997"
       empspacing="5"
       visible="true"
       enabled="true"
       snapvisiblegridlinesonly="true" />
  </sodipodi:namedview>
  <rect
     style="fill:#757575;fill-opacity:1;fill-rule:evenodd;stroke:none"
     id="rect3006"
     width="2"
     height="3"
     x="7"
     y="11"
     transform="scale(0.8,0.8)"
     rx="0.25442091"
     ry="0.27490395" />
  <path
     style="fill:#757575;fill-opacity:1;fill-rule:evenodd;stroke:none"
     d="M 5.5 13 C 5.2247086 13 5 13.233795 5 13.53125 L 5 14 L 1.40625 14 C 1.1860169 14 1 14.199536 1 14.4375 L 1 14.5625 C 1 14.800464 1.1860169 15 1.40625 15 L 5 15 L 5 15.46875 C 5 15.766205 5.2247086 16 5.5 16 L 10.5 16 C 10.775291 16 11 15.766205 11 15.46875 L 11 15 L 14.59375 15 C 14.813983 15 15 14.800464 15 14.5625 L 15 14.4375 C 15 14.199536 14.813983 14 14.59375 14 L 11 14 L 11 13.53125 C 11 13.233795 10.775291 13 10.5 13 L 5.5 13 z "
     transform="scale(0.8,0.8)"
     id="rect2999" />
  <rect
     style="fill:#dcdcdc;fill-opacity:1;fill-rule:evenodd;stroke:none"
     id="rect3004"
     width="4"
     height="1"
     x="6"
     y="14"
     transform="scale(0.8,0.8)"
     rx="0.31802613"
     ry="0.34362996" />
  <path
     sodipodi:nodetypes="ccccsssccccccc"
     inkscape:connector-curvature="0"
     id="path3782"
     d="M 1.6000001,0.8 C 1.2024461,0.8 0.8,1.2069443 0.8,1.6 l 0,0 C 0.4278587,1.6 -6.969e-4,1.933838 0,2.4 l 0,6.4 c 0,0.481784 0.385551,0.8 0.8,0.8 l 11.2,0 c 0.430116,0 0.800836,-0.318218 0.8,-0.8 l 0,-5.6 C 12.799495,2.7175848 12.420658,2.4 12,2.4 l -0.8,0 0,-0.8 c 0,-0.4458592 -0.382131,-0.8 -0.8,-0.8 z"
     style="font-size:medium;font-style:normal;font-variant:normal;font-weight:normal;font-stretch:normal;text-indent:0;text-align:start;text-decoration:none;line-height:normal;letter-spacing:normal;word-spacing:normal;text-transform:none;direction:ltr;block-progression:tb;writing-mode:lr-tb;text-anchor:start;baseline-shift:baseline;color:#000000;fill:#e9b080;fill-opacity:1;fill-rule:nonzero;stroke:none;stroke-width:0.81800002;marker:none;visibility:visible;display:inline;overflow:visible;enable-background:accumulate;font-family:Sans;-inkscape-font-specification:Sans" />
  <path
     style="font-size:medium;font-style:normal;font-variant:normal;font-weight:normal;font-stretch:normal;text-indent:0;text-align:start;text-decoration:none;line-height:normal;letter-spacing:normal;word-spacing:normal;text-transform:none;direction:ltr;block-progression:tb;writing-mode:lr-tb;text-anchor:start;baseline-shift:baseline;color:#000000;fill:#000000;fill-opacity:0.32038838;fill-rule:nonzero;stroke:none;stroke-width:0.81800002;marker:none;visibility:visible;display:inline;overflow:visible;enable-background:accumulate;font-family:Sans;-inkscape-font-specification:Sans"
     d="M 1.6000001,0.8 C 0.9649461,0.8 0.8,1.6 0.8,1.6 l 0,0 C 0.43491289,1.6 0,1.9357178 0,2.4 l 0,6.4 c 0,0.481784 0.37612,0.8 0.8,0.8 l 11.2,0 c 0.433242,0 0.800836,-0.318218 0.8,-0.8 l 0,-5.6 C 12.799495,2.7175848 12.420658,2.4 12,2.4 l -0.8,0 0,-0.8 C 11.2,1.1541408 10.817869,0.8 10.4,0.8 z M 0.8,2.4 l 6.4000001,0 0,0.8 L 12,3.2 12,8.8 0.8,8.8 z"
     id="path3768"
     inkscape:connector-curvature="0"
     sodipodi:nodetypes="ssccsssccscsssccccccc" />
</svg>
