<?xml version="1.0" encoding="UTF-8" standalone="no"?>
<!-- Created with Inkscape (http://www.inkscape.org/) -->

<svg
   xmlns:dc="http://purl.org/dc/elements/1.1/"
   xmlns:cc="http://creativecommons.org/ns#"
   xmlns:rdf="http://www.w3.org/1999/02/22-rdf-syntax-ns#"
   xmlns:svg="http://www.w3.org/2000/svg"
   xmlns="http://www.w3.org/2000/svg"
   xmlns:xlink="http://www.w3.org/1999/xlink"
   xmlns:sodipodi="http://sodipodi.sourceforge.net/DTD/sodipodi-0.dtd"
   xmlns:inkscape="http://www.inkscape.org/namespaces/inkscape"
   width="96"
   height="96"
   id="svg2"
   version="1.1"
   inkscape:version="0.48.5 r10040"
   sodipodi:docname="folder-rss.svg">
  <defs
     id="defs4">
    <linearGradient
       id="linearGradient3855">
      <stop
         style="stop-color:#000000;stop-opacity:1;"
         offset="0"
         id="stop3857" />
      <stop
         style="stop-color:#000000;stop-opacity:0.29411766;"
         offset="1"
         id="stop3859" />
    </linearGradient>
    <linearGradient
       id="linearGradient3833">
      <stop
         id="stop3835"
         offset="0"
         style="stop-color:#fdfeff;stop-opacity:1;" />
      <stop
         id="stop3837"
         offset="1"
         style="stop-color:#dfe4e4;stop-opacity:1;" />
    </linearGradient>
    <linearGradient
       id="linearGradient3823">
      <stop
         style="stop-color:#49b7ef;stop-opacity:1;"
         offset="0"
         id="stop3825" />
      <stop
         style="stop-color:#1d8de2;stop-opacity:1;"
         offset="1"
         id="stop3827" />
    </linearGradient>
    <linearGradient
       id="linearGradient3956">
      <stop
         style="stop-color:#f8f4e1;stop-opacity:1;"
         offset="0"
         id="stop3958" />
      <stop
         style="stop-color:#eae5c8;stop-opacity:1;"
         offset="1"
         id="stop3960" />
    </linearGradient>
    <linearGradient
       id="linearGradient3915">
      <stop
         style="stop-color:#f8f4e1;stop-opacity:1;"
         offset="0"
         id="stop3917" />
      <stop
         style="stop-color:#ad9e57;stop-opacity:1;"
         offset="1"
         id="stop3919" />
    </linearGradient>
    <linearGradient
       inkscape:collect="always"
       id="linearGradient3861">
      <stop
         style="stop-color:#000000;stop-opacity:1;"
         offset="0"
         id="stop3863" />
      <stop
         style="stop-color:#000000;stop-opacity:0;"
         offset="1"
         id="stop3865" />
    </linearGradient>
    <linearGradient
       id="linearGradient3844">
      <stop
         style="stop-color:#000000;stop-opacity:0.39215687;"
         offset="0"
         id="stop3846" />
      <stop
         style="stop-color:#000000;stop-opacity:0;"
         offset="1"
         id="stop3848" />
    </linearGradient>
    <linearGradient
       id="linearGradient3810">
      <stop
         style="stop-color:#f2c66f;stop-opacity:1;"
         offset="0"
         id="stop3812" />
      <stop
         style="stop-color:#fbd68f;stop-opacity:1;"
         offset="1"
         id="stop3814" />
    </linearGradient>
    <linearGradient
       inkscape:collect="always"
       xlink:href="#linearGradient3810"
       id="linearGradient3816"
       x1="24"
       y1="1046.3622"
       x2="24"
       y2="1014.3622"
       gradientUnits="userSpaceOnUse" />
    <radialGradient
       inkscape:collect="always"
       xlink:href="#linearGradient3844"
       id="radialGradient3850"
       cx="24.075672"
       cy="41.38316"
       fx="24.075672"
       fy="41.38316"
       r="21.075672"
       gradientTransform="matrix(1,0,0,0.11307633,0,36.703704)"
       gradientUnits="userSpaceOnUse" />
    <linearGradient
       inkscape:collect="always"
       xlink:href="#linearGradient3810"
       id="linearGradient3856"
       gradientUnits="userSpaceOnUse"
       x1="24"
       y1="1046.3622"
       x2="24"
       y2="1014.3622"
       gradientTransform="translate(0,-3)" />
    <linearGradient
       inkscape:collect="always"
       xlink:href="#linearGradient3810"
       id="linearGradient3858"
       gradientUnits="userSpaceOnUse"
       x1="24"
       y1="1046.3622"
       x2="24"
       y2="1014.3622"
       gradientTransform="translate(0,-1004.3622)" />
    <linearGradient
       inkscape:collect="always"
       xlink:href="#linearGradient3861"
       id="linearGradient3867"
       x1="1.9952807"
       y1="28.5625"
       x2="46.004719"
       y2="28.5625"
       gradientUnits="userSpaceOnUse" />
    <linearGradient
       inkscape:collect="always"
       xlink:href="#linearGradient3915"
       id="linearGradient3921"
       x1="35"
       y1="8"
       x2="38"
       y2="5"
       gradientUnits="userSpaceOnUse" />
    <linearGradient
       inkscape:collect="always"
       xlink:href="#linearGradient3915"
       id="linearGradient3933"
       gradientUnits="userSpaceOnUse"
       x1="35"
       y1="8"
       x2="38"
       y2="5"
       gradientTransform="matrix(1.0436562,0,0,1.2222222,26.301501,1003.2511)" />
    <linearGradient
       inkscape:collect="always"
       xlink:href="#linearGradient3915"
       id="linearGradient3954"
       x1="35"
       y1="11"
       x2="44"
       y2="5"
       gradientUnits="userSpaceOnUse"
       gradientTransform="translate(22,1004.3622)" />
    <linearGradient
       inkscape:collect="always"
       xlink:href="#linearGradient3823"
       id="linearGradient3829"
       x1="21"
       y1="14"
       x2="20"
       y2="24"
       gradientUnits="userSpaceOnUse" />
    <linearGradient
       inkscape:collect="always"
       xlink:href="#linearGradient3833"
       id="linearGradient3839"
       gradientUnits="userSpaceOnUse"
       x1="21"
       y1="14"
       x2="20"
       y2="26" />
    <linearGradient
       inkscape:collect="always"
       xlink:href="#linearGradient3855"
       id="linearGradient3862"
       x1="22"
       y1="15"
       x2="20"
       y2="30"
       gradientUnits="userSpaceOnUse" />
    <clipPath
       id="clipPath-069049578">
      <g
         id="g3352"
         transform="translate(0,-1004.3622)">
        <path
           id="path3354"
           transform="matrix(15.333333,0,0,11.5,414.99999,878.8622)"
           d="m -24,13 c 0,1.105 -0.672,2 -1.5,2 -0.828,0 -1.5,-0.895 -1.5,-2 0,-1.105 0.672,-2 1.5,-2 0.828,0 1.5,0.895 1.5,2 z"
           inkscape:connector-curvature="0"
           style="fill:#1890d0" />
      </g>
    </clipPath>
    <clipPath
       id="clipPath-059275953">
      <g
         id="g3347"
         transform="translate(0,-1004.3622)">
        <path
           id="path3349"
           transform="matrix(15.333333,0,0,11.5,414.99999,878.8622)"
           d="m -24,13 c 0,1.105 -0.672,2 -1.5,2 -0.828,0 -1.5,-0.895 -1.5,-2 0,-1.105 0.672,-2 1.5,-2 0.828,0 1.5,0.895 1.5,2 z"
           inkscape:connector-curvature="0"
           style="fill:#1890d0" />
      </g>
    </clipPath>
    <linearGradient
       gradientTransform="matrix(0,-1,1,0,-1.5e-6,47.999998)"
       gradientUnits="userSpaceOnUse"
       x2="47"
       x1="1"
       id="linearGradient3764">
      <stop
         id="stop3342"
         stop-opacity="1"
         stop-color="#d6740a" />
      <stop
         id="stop3344"
         stop-opacity="1"
         stop-color="#e87e0b"
         offset="1" />
    </linearGradient>
    <radialGradient
       r="24"
       fy="40.5"
       fx="24"
       cy="40.5"
       cx="24"
       gradientTransform="matrix(1.25,0,0,0.20833327,-6,1035.9247)"
       gradientUnits="userSpaceOnUse"
       id="radialGradient3150"
       xlink:href="#linearGradient3886"
       inkscape:collect="always" />
    <linearGradient
       id="linearGradient3886">
      <stop
         style="stop-color:#000000;stop-opacity:1;"
         offset="0"
         id="stop3888" />
      <stop
         style="stop-color:#000000;stop-opacity:0.19607843;"
         offset="1"
         id="stop3890" />
    </linearGradient>
    <radialGradient
       r="24"
       fy="40.5"
       fx="24"
       cy="40.5"
       cx="24"
       gradientTransform="matrix(2.5,0,0,0.41666654,-12,1019.4872)"
       gradientUnits="userSpaceOnUse"
       id="radialGradient3120"
       xlink:href="#linearGradient3886"
       inkscape:collect="always" />
  </defs>
  <sodipodi:namedview
     id="base"
     pagecolor="#ffffff"
     bordercolor="#666666"
     borderopacity="1.0"
     inkscape:pageopacity="0.0"
     inkscape:pageshadow="2"
     inkscape:zoom="1.101875"
     inkscape:cx="6.3518003"
     inkscape:cy="86.019136"
     inkscape:document-units="px"
     inkscape:current-layer="layer1"
     showgrid="true"
     inkscape:window-width="1280"
     inkscape:window-height="998"
     inkscape:window-x="0"
     inkscape:window-y="0"
     inkscape:window-maximized="1">
    <inkscape:grid
       type="xygrid"
       id="grid2990"
       empspacing="5"
       visible="true"
       enabled="true"
       snapvisiblegridlinesonly="true" />
  </sodipodi:namedview>
  <metadata
     id="metadata7">
    <rdf:RDF>
      <cc:Work
         rdf:about="">
        <dc:format>image/svg+xml</dc:format>
        <dc:type
           rdf:resource="http://purl.org/dc/dcmitype/StillImage" />
        <dc:title />
      </cc:Work>
    </rdf:RDF>
  </metadata>
  <g
     inkscape:label="Body"
     inkscape:groupmode="layer"
     id="layer1"
     transform="translate(0,-956.3622)">
    <path
       inkscape:connector-curvature="0"
       style="opacity:0.1;fill:url(#radialGradient3120);fill-opacity:1;stroke:none"
       d="m 48,1026.3622 c -19.653098,0 -37.05594,1.5662 -48,4 l 0,12 c 10.94406,2.4338 28.346902,4 48,4 19.653098,0 37.05594,-1.5662 48,-4 l 0,-12 c -10.94406,-2.4338 -28.346902,-4 -48,-4 z"
       id="path3868" />
    <rect
       style="fill:#5d4037;fill-opacity:1;stroke:none"
       id="rect2987"
       width="92"
       height="64.000038"
       x="2"
       y="976.36218"
       rx="10"
       ry="10" />
    <path
       style="opacity:0.2;fill:#ffffff;fill-opacity:1;stroke:none"
       d="m 12,976.3622 c -5.54,0 -10,4.46 -10,10 l 0,4 c 0,-5.54 4.46,-10 10,-10 l 72,0 c 5.54,0 10,4.46 10,10 l 0,-4 c 0,-5.54 -4.46,-10 -10,-10 l -72,0 z"
       id="rect3797"
       inkscape:connector-curvature="0" />
    <path
       style="fill:#8d6e63;fill-opacity:1;stroke:none"
       d="m 12,992.3622 16,0 c 22,-2 18,-24 32,-24 l 24,0 c 5.54,0 10,4.46 10,10 l 0,52 c 0,5.54 -4.46,10 -10,10 l -72,0 c -5.54,0 -10,-4.46 -10,-10 l 0,-28 c 0,-6 4,-10 10,-10 z"
       id="rect3776"
       inkscape:connector-curvature="0"
       sodipodi:nodetypes="cccsssssscc" />
    <path
       style="opacity:0.15;fill:#000000;fill-opacity:1;stroke:none"
       d="m 2,1026.3622 0,4 c 0,5.54 4.46,10 10,10 l 72,0 c 5.54,0 10,-4.46 10,-10 l 0,-4 c 0,5.54 -4.46,10 -10,10 l -72,0 c -5.54,0 -10,-4.46 -10,-10 z"
       id="path3786"
       inkscape:connector-curvature="0" />
    <path
       id="path5402"
       d="m 12,1002.3622 0,4 c 11.837854,1.307 23.046876,12.234 23,24 l 4,0 c 0,-16.8078 -14.093806,-27.468 -27,-28 z m 0,8 0,4 c 6.415145,0.5274 14.92846,8.5146 15,16 l 4,0 c -0.279008,-11.414 -11.031402,-19.1896 -19,-20 z m 4.5,12 c -2.209139,0 -4.5,1.7908 -4.5,4 0,2.2092 2.290861,4 4.5,4 2.209139,0 4.5,-1.7908 4.5,-4 0,-2.2092 -2.290861,-4 -4.5,-4 z"
       style="fill:#000000;fill-opacity:0.09803922;fill-rule:nonzero;stroke:none"
       inkscape:connector-curvature="0"
       sodipodi:nodetypes="ccccccccccsssss" />
    <path
       style="fill:#fff8e1;fill-opacity:1;fill-rule:nonzero;stroke:none"
       d="m 12,1000.3622 0,4 c 11.837854,1.307 23.046876,12.234 23,24 l 4,0 c 0,-16.8078 -14.093806,-27.468 -27,-28 z m 0,8 0,4 c 6.415145,0.5274 14.92846,8.5146 15,16 l 4,0 c -0.279008,-11.414 -11.031402,-19.1896 -19,-20 z"
       id="path3394"
       inkscape:connector-curvature="0"
       sodipodi:nodetypes="cccccccccc" />
    <path
       sodipodi:type="arc"
       style="opacity:1;fill:#fff8e1;fill-opacity:1;fill-rule:evenodd;stroke:none"
       id="path3809"
       sodipodi:cx="16.5"
       sodipodi:cy="67.5"
       sodipodi:rx="4.5"
       sodipodi:ry="4.5"
       d="m 21,67.5 a 4.5,4.5 0 1 1 -9,0 4.5,4.5 0 1 1 9,0 z"
       transform="translate(0,956.3622)" />
  </g>
</svg>
