<?xml version="1.0" encoding="UTF-8" standalone="no"?>
<!-- Created with Inkscape (http://www.inkscape.org/) -->

<svg
   xmlns:dc="http://purl.org/dc/elements/1.1/"
   xmlns:cc="http://creativecommons.org/ns#"
   xmlns:rdf="http://www.w3.org/1999/02/22-rdf-syntax-ns#"
   xmlns:svg="http://www.w3.org/2000/svg"
   xmlns="http://www.w3.org/2000/svg"
   xmlns:xlink="http://www.w3.org/1999/xlink"
   xmlns:sodipodi="http://sodipodi.sourceforge.net/DTD/sodipodi-0.dtd"
   xmlns:inkscape="http://www.inkscape.org/namespaces/inkscape"
   width="24"
   height="24"
   id="svg2"
   version="1.1"
   inkscape:version="0.91 r"
   sodipodi:docname="red-folder-documents.svg">
  <defs
     id="defs4">
    <linearGradient
       id="linearGradient3886-9">
      <stop
         style="stop-color:#000000;stop-opacity:1;"
         offset="0"
         id="stop3888-1" />
      <stop
         style="stop-color:#000000;stop-opacity:0.19607843;"
         offset="1"
         id="stop3890-9" />
    </linearGradient>
    <radialGradient
       r="24"
       fy="40.5"
       fx="24"
       cy="40.5"
       cx="24"
       gradientTransform="matrix(0.625,0,0,0.10416663,-3,1044.1435)"
       gradientUnits="userSpaceOnUse"
       id="radialGradient3058"
       xlink:href="#linearGradient3886-9"
       inkscape:collect="always" />
  </defs>
  <sodipodi:namedview
     id="base"
     pagecolor="#ffffff"
     bordercolor="#666666"
     borderopacity="1.0"
     inkscape:pageopacity="0.0"
     inkscape:pageshadow="2"
     inkscape:zoom="8.033298"
     inkscape:cx="-9.9560355"
     inkscape:cy="18.200036"
     inkscape:document-units="px"
     inkscape:current-layer="layer1"
     showgrid="true"
     inkscape:window-width="1280"
     inkscape:window-height="998"
     inkscape:window-x="0"
     inkscape:window-y="0"
     inkscape:window-maximized="1">
    <inkscape:grid
       type="xygrid"
       id="grid2985"
       empspacing="5"
       visible="true"
       enabled="true"
       snapvisiblegridlinesonly="true" />
  </sodipodi:namedview>
  <metadata
     id="metadata7">
    <rdf:RDF>
      <cc:Work
         rdf:about="">
        <dc:format>image/svg+xml</dc:format>
        <dc:type
           rdf:resource="http://purl.org/dc/dcmitype/StillImage" />
        <dc:title />
      </cc:Work>
    </rdf:RDF>
  </metadata>
  <g
     inkscape:label="Layer 1"
     inkscape:groupmode="layer"
     id="layer1"
     transform="translate(0,-1028.3622)">
    <path
       inkscape:connector-curvature="0"
       style="opacity:0.1;fill:url(#radialGradient3058);fill-opacity:1;stroke:none"
       d="m 12,1045.8622 c -4.913275,0 -9.263985,0.3915 -12,1 l 0,3 c 2.736015,0.6085 7.086725,1 12,1 4.913274,0 9.263985,-0.3915 12,-1 l 0,-3 c -2.736015,-0.6085 -7.086726,-1 -12,-1 z"
       id="path3868" />
    <rect
       style="fill:#d32f2f;fill-opacity:1;stroke:none"
       id="rect2987"
       width="22"
       height="16.00001"
       x="1"
       y="1033.3622"
       rx="2.3913043"
       ry="2.5" />
    <path
       style="opacity:0.2;fill:#ffffff;fill-opacity:1;stroke:none"
       d="m 3.391304,1033.3622 c -1.324782,0 -2.391304,1.115 -2.391304,2.5 l 0,1 c 0,-1.385 1.066522,-2.5 2.391304,-2.5 l 17.217392,0 c 1.324782,0 2.391304,1.115 2.391304,2.5 l 0,-1 c 0,-1.385 -1.066522,-2.5 -2.391304,-2.5 l -17.217392,0 z"
       id="rect3797"
       inkscape:connector-curvature="0" />
    <path
       style="fill:#ef5350;fill-opacity:1;stroke:none"
       d="m 3.391304,1037.3622 3.826087,0 c 5.26087,-0.5 4.304348,-6 7.652174,-6 l 5.739131,0 c 1.324782,0 2.391304,1.115 2.391304,2.5 l 0,13 c 0,1.385 -1.066522,2.5 -2.391304,2.5 l -17.217392,0 C 2.066522,1049.3622 1,1048.2472 1,1046.8622 l 0,-7 c 0,-1.5 0.956522,-2.5 2.391304,-2.5 z"
       id="rect3776"
       inkscape:connector-curvature="0"
       sodipodi:nodetypes="cccsssssscc" />
    <path
       style="opacity:0.15;fill:#000000;fill-opacity:1;stroke:none"
       d="m 1,1045.8622 0,1 c 0,1.385 1.066522,2.5 2.391304,2.5 l 17.217392,0 c 1.324782,0 2.391304,-1.115 2.391304,-2.5 l 0,-1 c 0,1.385 -1.066522,2.5 -2.391304,2.5 l -17.217392,0 C 2.066522,1048.3622 1,1047.2472 1,1045.8622 z"
       id="path3786"
       inkscape:connector-curvature="0" />
    <path
       style="opacity:1;fill:#fff8e1;fill-opacity:1;stroke:none"
       d="M 5 11 C 4.446 11 4 11.446 4 12 L 4 17 C 4 17.554 4.446 18 5 18 L 9 18 C 9.554 18 10 17.554 10 17 L 10 13 L 10 12 C 10 11.446 9.554 11 9 11 L 8 11 L 5 11 z M 6 12 L 8 12 L 8 13 L 9 13 L 9 16 C 9 16.554 8.554 17 8 17 L 6 17 C 5.446 17 5 16.554 5 16 L 5 13 C 5 12.446 5.446 12 6 12 z "
       id="rect3807"
       transform="translate(0,1028.3622)" />
    <rect
       ry="0.25"
       rx="0.16666667"
       y="1041.3622"
       x="6"
       height="1.0000174"
       width="1"
       id="rect3812"
       style="opacity:1;fill:#fff8e1;fill-opacity:1;stroke:none" />
    <rect
       style="opacity:1;fill:#fff8e1;fill-opacity:1;stroke:none"
       id="rect3814"
       width="2"
       height="1.0000174"
       x="6"
       y="1043.3622"
       rx="0.25"
       ry="0.25" />
    <path
       style="fill:#000000;fill-opacity:0.09803922;stroke:none"
       d="m 5,1040.3622 c -0.554,0 -1,0.446 -1,1 l 0,5 c 0,0.554 0.446,1 1,1 l 4,0 c 0.554,0 1,-0.446 1,-1 l 0,-4 0,-1 c 0,-0.554 -0.446,-1 -1,-1 l -1,0 -3,0 z m 1,1 2,0 0,1 1,0 0,3 c 0,0.554 -0.446,1 -1,1 l -2,0 c -0.1385,0 -0.2552813,-0.043 -0.375,-0.094 C 5.2658438,1046.117 5,1045.7777 5,1045.3622 l 0,-3 c 0,-0.554 0.446,-1 1,-1 z m 0.15625,1 c -0.092333,0 -0.15625,0.1115 -0.15625,0.25 l 0,0.5 c 0,0.1385 0.063917,0.25 0.15625,0.25 l 0.6875,0 c 0.092333,0 0.15625,-0.1115 0.15625,-0.25 l 0,-0.5 c 0,-0.1385 -0.063917,-0.25 -0.15625,-0.25 l -0.6875,0 z m 0.09375,2 c -0.1385,0 -0.25,0.1115 -0.25,0.25 l 0,0.5 c 0,0.069 0.017313,0.1423 0.0625,0.1875 0.045187,0.045 0.11825,0.062 0.1875,0.062 l 1.5,0 c 0.1385,0 0.25,-0.1115 0.25,-0.25 l 0,-0.5 c 0,-0.1385 -0.1115,-0.25 -0.25,-0.25 l -1.5,0 z"
       id="path3854"
       inkscape:connector-curvature="0" />
    <path
       transform="translate(0,1028.3622)"
       id="path3848"
       d="M 5 11 C 4.446 11 4 11.446 4 12 L 4 17 C 4 17.554 4.446 18 5 18 L 9 18 C 9.554 18 10 17.554 10 17 L 10 13 L 10 12 C 10 11.446 9.554 11 9 11 L 8 11 L 5 11 z M 6 12 L 8 12 L 8 13 L 9 13 L 9 16 C 9 16.554 8.554 17 8 17 L 6 17 C 5.446 17 5 16.554 5 16 L 5 13 C 5 12.446 5.446 12 6 12 z "
       style="opacity:1;fill:#fff8e1;fill-opacity:1;stroke:none" />
    <rect
       style="opacity:1;fill:#fff8e1;fill-opacity:1;stroke:none"
       id="rect3850"
       width="1"
       height="1.0000174"
       x="6"
       y="1041.3622"
       rx="0.16666667"
       ry="0.25" />
    <rect
       ry="0.25"
       rx="0.25"
       y="1043.3622"
       x="6"
       height="1.0000174"
       width="2"
       id="rect3852"
       style="opacity:1;fill:#fff8e1;fill-opacity:1;stroke:none" />
  </g>
</svg>
